<svg xmlns="http://www.w3.org/2000/svg" xmlns:xlink="http://www.w3.org/1999/xlink" contentStyleType="text/css" height="632px" preserveAspectRatio="none" style="width:760px;height:632px;background:#FFFFFF;" version="1.1" viewBox="0 0 760 632" width="760px" zoomAndPan="magnify"><defs/><g><rect fill="#FFFFFF" height="438.0742" style="stroke:#181818;stroke-width:1.0;" width="10" x="37.8413" y="93.6211"/><rect fill="#FFFFFF" height="414.7832" style="stroke:#181818;stroke-width:1.0;" width="10" x="367.0781" y="116.9121"/><rect fill="none" height="81.873" style="stroke:#000000;stroke-width:1.5;" width="404.3608" x="10" y="294.3672"/><line style="stroke:#181818;stroke-width:0.5;stroke-dasharray:5.0,5.0;" x1="42" x2="42" y1="83.6211" y2="549.6953"/><line style="stroke:#181818;stroke-width:0.5;stroke-dasharray:5.0,5.0;" x1="371.7954" x2="371.7954" y1="83.6211" y2="549.6953"/><text fill="#000000" font-family="sans-serif" font-size="14" lengthAdjust="spacing" textLength="39.6826" x="20" y="80.1074">Player</text><ellipse cx="42.8413" cy="13.5" fill="#E3E3E3" rx="8" ry="8" style="stroke:#181818;stroke-width:0.5;"/><path d="M42.8413,21.5 L42.8413,48.5 M29.8413,29.5 L55.8413,29.5 M42.8413,48.5 L29.8413,63.5 M42.8413,48.5 L55.8413,63.5 " fill="none" style="stroke:#181818;stroke-width:0.5;"/><text fill="#000000" font-family="sans-serif" font-size="14" lengthAdjust="spacing" textLength="39.6826" x="20" y="563.8027">Player</text><ellipse cx="42.8413" cy="575.8164" fill="#E3E3E3" rx="8" ry="8" style="stroke:#181818;stroke-width:0.5;"/><path d="M42.8413,583.8164 L42.8413,610.8164 M29.8413,591.8164 L55.8413,591.8164 M42.8413,610.8164 L29.8413,625.8164 M42.8413,610.8164 L55.8413,625.8164 " fill="none" style="stroke:#181818;stroke-width:0.5;"/><rect fill="#E3E3E3" height="32.6211" rx="2.5" ry="2.5" style="stroke:#181818;stroke-width:0.5;" width="64.5654" x="339.7954" y="50"/><text fill="#000000" font-family="sans-serif" font-size="14" lengthAdjust="spacing" textLength="50.5654" x="346.7954" y="72.1074">:System</text><rect fill="#E3E3E3" height="32.6211" rx="2.5" ry="2.5" style="stroke:#181818;stroke-width:0.5;" width="64.5654" x="339.7954" y="548.6953"/><text fill="#000000" font-family="sans-serif" font-size="14" lengthAdjust="spacing" textLength="50.5654" x="346.7954" y="570.8027">:System</text><rect fill="#FFFFFF" height="438.0742" style="stroke:#181818;stroke-width:1.0;" width="10" x="37.8413" y="93.6211"/><rect fill="#FFFFFF" height="414.7832" style="stroke:#181818;stroke-width:1.0;" width="10" x="367.0781" y="116.9121"/><polygon fill="#181818" points="355.0781,112.9121,365.0781,116.9121,355.0781,120.9121,359.0781,116.9121" style="stroke:#181818;stroke-width:1.0;"/><line style="stroke:#181818;stroke-width:1.0;" x1="47.8413" x2="361.0781" y1="116.9121" y2="116.9121"/><text fill="#000000" font-family="sans-serif" font-size="13" font-weight="bold" lengthAdjust="spacing" textLength="7.23" x="54.8413" y="111.6494">1</text><text fill="#000000" font-family="sans-serif" font-size="13" lengthAdjust="spacing" textLength="148.1479" x="66.0713" y="111.6494">requests to build a station</text><polygon fill="#181818" points="58.8413,144.2031,48.8413,148.2031,58.8413,152.2031,54.8413,148.2031" style="stroke:#181818;stroke-width:1.0;"/><line style="stroke:#181818;stroke-width:1.0;stroke-dasharray:2.0,2.0;" x1="52.8413" x2="366.0781" y1="148.2031" y2="148.2031"/><text fill="#000000" font-family="sans-serif" font-size="13" font-weight="bold" lengthAdjust="spacing" textLength="7.23" x="64.8413" y="142.9404">2</text><text fill="#000000" font-family="sans-serif" font-size="13" lengthAdjust="spacing" textLength="246.416" x="76.0713" y="142.9404">shows station types and asks to select one</text><polygon fill="#181818" points="355.0781,175.4941,365.0781,179.4941,355.0781,183.4941,359.0781,179.4941" style="stroke:#181818;stroke-width:1.0;"/><line style="stroke:#181818;stroke-width:1.0;" x1="47.8413" x2="361.0781" y1="179.4941" y2="179.4941"/><text fill="#000000" font-family="sans-serif" font-size="13" font-weight="bold" lengthAdjust="spacing" textLength="7.23" x="54.8413" y="174.2314">3</text><text fill="#000000" font-family="sans-serif" font-size="13" lengthAdjust="spacing" textLength="110.5571" x="66.0713" y="174.2314">selects station type</text><polygon fill="#181818" points="58.8413,206.7852,48.8413,210.7852,58.8413,214.7852,54.8413,210.7852" style="stroke:#181818;stroke-width:1.0;"/><line style="stroke:#181818;stroke-width:1.0;stroke-dasharray:2.0,2.0;" x1="52.8413" x2="366.0781" y1="210.7852" y2="210.7852"/><text fill="#000000" font-family="sans-serif" font-size="13" font-weight="bold" lengthAdjust="spacing" textLength="7.23" x="64.8413" y="205.5225">4</text><text fill="#000000" font-family="sans-serif" font-size="13" lengthAdjust="spacing" textLength="174.8652" x="76.0713" y="205.5225">Requests data (Location(X,Y))</text><polygon fill="#181818" points="355.0781,238.0762,365.0781,242.0762,355.0781,246.0762,359.0781,242.0762" style="stroke:#181818;stroke-width:1.0;"/><line style="stroke:#181818;stroke-width:1.0;" x1="47.8413" x2="361.0781" y1="242.0762" y2="242.0762"/><text fill="#000000" font-family="sans-serif" font-size="13" font-weight="bold" lengthAdjust="spacing" textLength="7.23" x="54.8413" y="236.8135">5</text><text fill="#000000" font-family="sans-serif" font-size="13" lengthAdjust="spacing" textLength="139.4834" x="66.0713" y="236.8135">provides requested data</text><path d="M382,255.0762 L382,282.0762 L753,282.0762 L753,265.0762 L743,255.0762 L382,255.0762 " fill="#FAFAFA" style="stroke:#181818;stroke-width:0.5;"/><path d="M743,255.0762 L743,265.0762 L753,265.0762 L743,255.0762 " fill="#FAFAFA" style="stroke:#181818;stroke-width:0.5;"/><text fill="#000000" font-family="sans-serif" font-size="13" lengthAdjust="spacing" textLength="350.4985" x="388" y="274.1045">The System generates a name based on location and station</text><path d="M10,294.3672 L75.2109,294.3672 L75.2109,303.6582 L65.2109,313.6582 L10,313.6582 L10,294.3672 " fill="#EEEEEE" style="stroke:#000000;stroke-width:1.5;"/><rect fill="none" height="81.873" style="stroke:#000000;stroke-width:1.5;" width="404.3608" x="10" y="294.3672"/><text fill="#000000" font-family="sans-serif" font-size="13" font-weight="bold" lengthAdjust="spacing" textLength="20.2109" x="25" y="309.3955">opt</text><text fill="#000000" font-family="sans-serif" font-size="11" font-weight="bold" lengthAdjust="spacing" textLength="133.2676" x="90.2109" y="308.2373">[Station type is "Station"]</text><polygon fill="#181818" points="58.8413,332.9492,48.8413,336.9492,58.8413,340.9492,54.8413,336.9492" style="stroke:#181818;stroke-width:1.0;"/><line style="stroke:#181818;stroke-width:1.0;stroke-dasharray:2.0,2.0;" x1="52.8413" x2="366.0781" y1="336.9492" y2="336.9492"/><text fill="#000000" font-family="sans-serif" font-size="13" font-weight="bold" lengthAdjust="spacing" textLength="7.23" x="64.8413" y="331.6865">6</text><text fill="#000000" font-family="sans-serif" font-size="13" lengthAdjust="spacing" textLength="255.0234" x="76.0713" y="331.6865">Requests center location (NE, SE, NW, SW)</text><polygon fill="#181818" points="355.0781,364.2402,365.0781,368.2402,355.0781,372.2402,359.0781,368.2402" style="stroke:#181818;stroke-width:1.0;"/><line style="stroke:#181818;stroke-width:1.0;" x1="47.8413" x2="361.0781" y1="368.2402" y2="368.2402"/><text fill="#000000" font-family="sans-serif" font-size="13" font-weight="bold" lengthAdjust="spacing" textLength="7.23" x="54.8413" y="362.9775">7</text><text fill="#000000" font-family="sans-serif" font-size="13" lengthAdjust="spacing" textLength="137.2998" x="66.0713" y="362.9775">provides center location</text><polygon fill="#181818" points="58.8413,402.5313,48.8413,406.5313,58.8413,410.5313,54.8413,406.5313" style="stroke:#181818;stroke-width:1.0;"/><line style="stroke:#181818;stroke-width:1.0;stroke-dasharray:2.0,2.0;" x1="52.8413" x2="366.0781" y1="406.5313" y2="406.5313"/><text fill="#000000" font-family="sans-serif" font-size="13" font-weight="bold" lengthAdjust="spacing" textLength="7.23" x="64.8413" y="401.2686">8</text><text fill="#000000" font-family="sans-serif" font-size="13" lengthAdjust="spacing" textLength="170.5552" x="76.0713" y="401.2686">Shows available building type</text><polygon fill="#181818" points="355.0781,433.8223,365.0781,437.8223,355.0781,441.8223,359.0781,437.8223" style="stroke:#181818;stroke-width:1.0;"/><line style="stroke:#181818;stroke-width:1.0;" x1="47.8413" x2="361.0781" y1="437.8223" y2="437.8223"/><text fill="#000000" font-family="sans-serif" font-size="13" font-weight="bold" lengthAdjust="spacing" textLength="7.23" x="54.8413" y="432.5596">9</text><text fill="#000000" font-family="sans-serif" font-size="13" lengthAdjust="spacing" textLength="117.0698" x="66.0713" y="432.5596">selects building type</text><polygon fill="#181818" points="58.8413,465.1133,48.8413,469.1133,58.8413,473.1133,54.8413,469.1133" style="stroke:#181818;stroke-width:1.0;"/><line style="stroke:#181818;stroke-width:1.0;stroke-dasharray:2.0,2.0;" x1="52.8413" x2="366.0781" y1="469.1133" y2="469.1133"/><text fill="#000000" font-family="sans-serif" font-size="13" font-weight="bold" lengthAdjust="spacing" textLength="14.46" x="64.8413" y="463.8506">10</text><text fill="#000000" font-family="sans-serif" font-size="13" lengthAdjust="spacing" textLength="276.7769" x="83.3013" y="463.8506">displays entered data and requests confirmation</text><polygon fill="#181818" points="355.0781,496.4043,365.0781,500.4043,355.0781,504.4043,359.0781,500.4043" style="stroke:#181818;stroke-width:1.0;"/><line style="stroke:#181818;stroke-width:1.0;" x1="47.8413" x2="361.0781" y1="500.4043" y2="500.4043"/><text fill="#000000" font-family="sans-serif" font-size="13" font-weight="bold" lengthAdjust="spacing" textLength="14.46" x="54.8413" y="495.1416">11</text><text fill="#000000" font-family="sans-serif" font-size="13" lengthAdjust="spacing" textLength="78.0317" x="73.3013" y="495.1416">confirms data</text><polygon fill="#181818" points="53.8413,527.6953,43.8413,531.6953,53.8413,535.6953,49.8413,531.6953" style="stroke:#181818;stroke-width:1.0;"/><line style="stroke:#181818;stroke-width:1.0;stroke-dasharray:2.0,2.0;" x1="47.8413" x2="371.0781" y1="531.6953" y2="531.6953"/><text fill="#000000" font-family="sans-serif" font-size="13" font-weight="bold" lengthAdjust="spacing" textLength="14.46" x="59.8413" y="526.4326">12</text><text fill="#000000" font-family="sans-serif" font-size="13" lengthAdjust="spacing" textLength="97.5381" x="78.3013" y="526.4326">displays success</text><!--SRC=[XLF1ReCm3Btp5HQdLkf-e8VTTfkcQKpQTdI32r4XOR7frB-V6mA3RcAM49PZlsU_E7oohiE0BRJUULC7tn98w2dZwQH3SyAA2haq186CeAkQUGBNMFelwoeuOiEKPTYBTtrxeA2-4HyWVsxmGY47P1ZSJ6l56jkX4yZtnOM5sdW-kB7Idb5eBCX0RV3XxZwbmLvR-ko9XK4y77hRb830WcAzYoKJpWWCoHB2dO8bsBtEuhzuB0UvTCI0JY7v50cO6bK0lAC9ve-MXgmbpZhlopX4YOAmUVGcLcxUTn_RxHfL5_pPbjfbae7A2F73vhoE7cnLQzV7KGEOsMizIWCLEGegbSuC3dKL3iWAg1CqgQ4enbpTgv76hZG_fBuJA6R3WsN8Ko1ViA-AOSY9HYRopTF33Whzdjxq_xPT8As9SmCqxtpzNegu3tX6s-11zpyks7NLuvN-Gp-kmR9ebQ-qtAdF41jEbnb5dzRSU7UqeLqEij95okURlLXbvzuOOXwoI_hrX6QXz3g_0G00]--></g></svg>