<?xml version="1.0" encoding="us-ascii" standalone="no"?><svg xmlns="http://www.w3.org/2000/svg" xmlns:xlink="http://www.w3.org/1999/xlink" contentStyleType="text/css" height="996px" preserveAspectRatio="none" style="width:546px;height:996px;background:#FFFFFF;" version="1.1" viewBox="0 0 546 996" width="546px" zoomAndPan="magnify"><defs/><g><!--class CreateSkillUI--><g id="elem_CreateSkillUI"><rect codeLine="7" fill="#F1F1F1" height="141.8438" id="CreateSkillUI" rx="2.5" ry="2.5" style="stroke:#181818;stroke-width:0.5;" width="223" x="232" y="7"/><ellipse cx="299.25" cy="23" fill="#ADD1B2" rx="11" ry="11" style="stroke:#181818;stroke-width:1.0;"/><path d="M302.0156,18.875 Q302.1719,18.6563 302.3594,18.5469 Q302.5469,18.4375 302.7656,18.4375 Q303.1406,18.4375 303.375,18.7031 Q303.6094,18.9531 303.6094,19.5625 L303.6094,21.0156 Q303.6094,21.625 303.375,21.8906 Q303.1406,22.1563 302.7656,22.1563 Q302.4219,22.1563 302.2188,21.9531 Q302.0156,21.7656 301.9063,21.25 Q301.8594,20.8906 301.6719,20.7031 Q301.3438,20.3281 300.7344,20.1094 Q300.125,19.8906 299.5,19.8906 Q298.7344,19.8906 298.0938,20.2188 Q297.4688,20.5469 296.9688,21.2969 Q296.4844,22.0469 296.4844,23.0781 L296.4844,24.1719 Q296.4844,25.4063 297.375,26.2344 Q298.2656,27.0469 299.8594,27.0469 Q300.7969,27.0469 301.4531,26.7969 Q301.8438,26.6406 302.2656,26.2031 Q302.5313,25.9375 302.6719,25.8594 Q302.8281,25.7813 303.0313,25.7813 Q303.3594,25.7813 303.6094,26.0469 Q303.875,26.2969 303.875,26.6406 Q303.875,26.9844 303.5313,27.3906 Q303.0313,27.9688 302.2344,28.2969 Q301.1563,28.75 299.8594,28.75 Q298.3438,28.75 297.1406,28.125 Q296.1563,27.625 295.4688,26.5625 Q294.7813,25.4844 294.7813,24.2031 L294.7813,23.0469 Q294.7813,21.7188 295.3906,20.5781 Q296.0156,19.4219 297.1094,18.8125 Q298.2031,18.1875 299.4375,18.1875 Q300.1719,18.1875 300.8125,18.3594 Q301.4688,18.5156 302.0156,18.875 Z " fill="#000000"/><text fill="#000000" font-family="sans-serif" font-size="14" lengthAdjust="spacing" textLength="80" x="319.75" y="27.8535">CreateSkillUI</text><line style="stroke:#181818;stroke-width:0.5;" x1="233" x2="454" y1="39" y2="39"/><rect fill="none" height="6" style="stroke:#C82930;stroke-width:1.0;" width="6" x="240" y="49.3203"/><text fill="#000000" font-family="sans-serif" font-size="14" lengthAdjust="spacing" textLength="104" x="252" y="55.6738">skillName: String</text><rect fill="none" height="6" style="stroke:#C82930;stroke-width:1.0;" width="6" x="240" y="64.9609"/><text fill="#000000" font-family="sans-serif" font-size="14" lengthAdjust="spacing" textLength="197" x="252" y="71.3145">controller: CreateSkillController</text><line style="stroke:#181818;stroke-width:0.5;" x1="233" x2="454" y1="78.2813" y2="78.2813"/><ellipse cx="243" cy="91.6016" fill="#84BE84" rx="3" ry="3" style="stroke:#038048;stroke-width:1.0;"/><text fill="#000000" font-family="sans-serif" font-size="14" lengthAdjust="spacing" textLength="90" x="252" y="94.9551">CreateSkillUI()</text><rect fill="#F24D5C" height="6" style="stroke:#C82930;stroke-width:1.0;" width="6" x="240" y="104.2422"/><text fill="#000000" font-family="sans-serif" font-size="14" lengthAdjust="spacing" textLength="149" x="252" y="110.5957">askForSkillName(): void</text><rect fill="#F24D5C" height="6" style="stroke:#C82930;stroke-width:1.0;" width="6" x="240" y="119.8828"/><text fill="#000000" font-family="sans-serif" font-size="14" lengthAdjust="spacing" textLength="133" x="252" y="126.2363">backToHRMUI(): void</text><ellipse cx="243" cy="138.5234" fill="#84BE84" rx="3" ry="3" style="stroke:#038048;stroke-width:1.0;"/><text fill="#000000" font-family="sans-serif" font-size="14" lengthAdjust="spacing" textLength="65" x="252" y="141.877">run(): void</text></g><!--class CreateSkillController--><g id="elem_CreateSkillController"><rect codeLine="17" fill="#F1F1F1" height="110.5625" id="CreateSkillController" rx="2.5" ry="2.5" style="stroke:#181818;stroke-width:0.5;" width="264" x="211.5" y="210"/><ellipse cx="274.25" cy="226" fill="#ADD1B2" rx="11" ry="11" style="stroke:#181818;stroke-width:1.0;"/><path d="M277.0156,221.875 Q277.1719,221.6563 277.3594,221.5469 Q277.5469,221.4375 277.7656,221.4375 Q278.1406,221.4375 278.375,221.7031 Q278.6094,221.9531 278.6094,222.5625 L278.6094,224.0156 Q278.6094,224.625 278.375,224.8906 Q278.1406,225.1563 277.7656,225.1563 Q277.4219,225.1563 277.2188,224.9531 Q277.0156,224.7656 276.9063,224.25 Q276.8594,223.8906 276.6719,223.7031 Q276.3438,223.3281 275.7344,223.1094 Q275.125,222.8906 274.5,222.8906 Q273.7344,222.8906 273.0938,223.2188 Q272.4688,223.5469 271.9688,224.2969 Q271.4844,225.0469 271.4844,226.0781 L271.4844,227.1719 Q271.4844,228.4063 272.375,229.2344 Q273.2656,230.0469 274.8594,230.0469 Q275.7969,230.0469 276.4531,229.7969 Q276.8438,229.6406 277.2656,229.2031 Q277.5313,228.9375 277.6719,228.8594 Q277.8281,228.7813 278.0313,228.7813 Q278.3594,228.7813 278.6094,229.0469 Q278.875,229.2969 278.875,229.6406 Q278.875,229.9844 278.5313,230.3906 Q278.0313,230.9688 277.2344,231.2969 Q276.1563,231.75 274.8594,231.75 Q273.3438,231.75 272.1406,231.125 Q271.1563,230.625 270.4688,229.5625 Q269.7813,228.4844 269.7813,227.2031 L269.7813,226.0469 Q269.7813,224.7188 270.3906,223.5781 Q271.0156,222.4219 272.1094,221.8125 Q273.2031,221.1875 274.4375,221.1875 Q275.1719,221.1875 275.8125,221.3594 Q276.4688,221.5156 277.0156,221.875 Z " fill="#000000"/><text fill="#000000" font-family="sans-serif" font-size="14" lengthAdjust="spacing" textLength="130" x="294.75" y="230.8535">CreateSkillController</text><line style="stroke:#181818;stroke-width:0.5;" x1="212.5" x2="474.5" y1="242" y2="242"/><rect fill="none" height="6" style="stroke:#C82930;stroke-width:1.0;" width="6" x="219.5" y="252.3203"/><text fill="#000000" font-family="sans-serif" font-size="14" lengthAdjust="spacing" textLength="206" x="231.5" y="258.6738">skillsRepository: SkillsRepository</text><line style="stroke:#181818;stroke-width:0.5;" x1="212.5" x2="474.5" y1="265.6406" y2="265.6406"/><ellipse cx="222.5" cy="278.9609" fill="#84BE84" rx="3" ry="3" style="stroke:#038048;stroke-width:1.0;"/><text fill="#000000" font-family="sans-serif" font-size="14" lengthAdjust="spacing" textLength="140" x="231.5" y="282.3145">CreateSkillController()</text><ellipse cx="222.5" cy="294.6016" fill="#84BE84" rx="3" ry="3" style="stroke:#038048;stroke-width:1.0;"/><text fill="#000000" font-family="sans-serif" font-size="14" lengthAdjust="spacing" textLength="238" x="231.5" y="297.9551">createSkill(skillName: String): boolean</text><rect fill="#F24D5C" height="6" style="stroke:#C82930;stroke-width:1.0;" width="6" x="219.5" y="307.2422"/><text fill="#000000" font-family="sans-serif" font-size="14" lengthAdjust="spacing" textLength="238" x="231.5" y="313.5957">getSkillsRepository(): SkillsRepository</text></g><!--class Repositories--><g id="elem_Repositories"><rect codeLine="25" fill="#F1F1F1" height="157.4844" id="Repositories" rx="2.5" ry="2.5" style="stroke:#181818;stroke-width:0.5;" width="349" x="7" y="397"/><ellipse cx="137.75" cy="413" fill="#ADD1B2" rx="11" ry="11" style="stroke:#181818;stroke-width:1.0;"/><path d="M140.5156,408.875 Q140.6719,408.6563 140.8594,408.5469 Q141.0469,408.4375 141.2656,408.4375 Q141.6406,408.4375 141.875,408.7031 Q142.1094,408.9531 142.1094,409.5625 L142.1094,411.0156 Q142.1094,411.625 141.875,411.8906 Q141.6406,412.1563 141.2656,412.1563 Q140.9219,412.1563 140.7188,411.9531 Q140.5156,411.7656 140.4063,411.25 Q140.3594,410.8906 140.1719,410.7031 Q139.8438,410.3281 139.2344,410.1094 Q138.625,409.8906 138,409.8906 Q137.2344,409.8906 136.5938,410.2188 Q135.9688,410.5469 135.4688,411.2969 Q134.9844,412.0469 134.9844,413.0781 L134.9844,414.1719 Q134.9844,415.4063 135.875,416.2344 Q136.7656,417.0469 138.3594,417.0469 Q139.2969,417.0469 139.9531,416.7969 Q140.3438,416.6406 140.7656,416.2031 Q141.0313,415.9375 141.1719,415.8594 Q141.3281,415.7813 141.5313,415.7813 Q141.8594,415.7813 142.1094,416.0469 Q142.375,416.2969 142.375,416.6406 Q142.375,416.9844 142.0313,417.3906 Q141.5313,417.9688 140.7344,418.2969 Q139.6563,418.75 138.3594,418.75 Q136.8438,418.75 135.6406,418.125 Q134.6563,417.625 133.9688,416.5625 Q133.2813,415.4844 133.2813,414.2031 L133.2813,413.0469 Q133.2813,411.7188 133.8906,410.5781 Q134.5156,409.4219 135.6094,408.8125 Q136.7031,408.1875 137.9375,408.1875 Q138.6719,408.1875 139.3125,408.3594 Q139.9688,408.5156 140.5156,408.875 Z " fill="#000000"/><text fill="#000000" font-family="sans-serif" font-size="14" lengthAdjust="spacing" textLength="79" x="158.25" y="417.8535">Repositories</text><line style="stroke:#181818;stroke-width:0.5;" x1="8" x2="355" y1="429" y2="429"/><rect fill="none" height="6" style="stroke:#C82930;stroke-width:1.0;" width="6" x="15" y="439.3203"/><text fill="#000000" font-family="sans-serif" font-size="14" lengthAdjust="spacing" textLength="140" x="27" y="445.6738">instance: Repositories</text><rect fill="none" height="6" style="stroke:#C82930;stroke-width:1.0;" width="6" x="15" y="454.9609"/><text fill="#000000" font-family="sans-serif" font-size="14" lengthAdjust="spacing" textLength="311" x="27" y="461.3145">collaboratorsRepository: CollaboratorsRepository</text><rect fill="none" height="6" style="stroke:#C82930;stroke-width:1.0;" width="6" x="15" y="470.6016"/><text fill="#000000" font-family="sans-serif" font-size="14" lengthAdjust="spacing" textLength="206" x="27" y="476.9551">skillsRepository: SkillsRepository</text><rect fill="none" height="6" style="stroke:#C82930;stroke-width:1.0;" width="6" x="15" y="486.2422"/><text fill="#000000" font-family="sans-serif" font-size="14" lengthAdjust="spacing" textLength="323" x="27" y="492.5957">authenticationRepository: AuthenticationRepository</text><line style="stroke:#181818;stroke-width:0.5;" x1="8" x2="355" y1="499.5625" y2="499.5625"/><ellipse cx="18" cy="512.8828" fill="#84BE84" rx="3" ry="3" style="stroke:#038048;stroke-width:1.0;"/><text fill="#000000" font-family="sans-serif" font-size="14" lengthAdjust="spacing" textLength="89" x="27" y="516.2363">Repositories()</text><ellipse cx="18" cy="528.5234" fill="#84BE84" rx="3" ry="3" style="stroke:#038048;stroke-width:1.0;"/><text fill="#000000" font-family="sans-serif" font-size="14" lengthAdjust="spacing" textLength="170" x="27" y="531.877">getInstance(): Repositories</text><ellipse cx="18" cy="544.1641" fill="#84BE84" rx="3" ry="3" style="stroke:#038048;stroke-width:1.0;"/><text fill="#000000" font-family="sans-serif" font-size="14" lengthAdjust="spacing" textLength="238" x="27" y="547.5176">getSkillsRepository(): SkillsRepository</text></g><!--class SkillRepository--><g id="elem_SkillRepository"><rect codeLine="35" fill="#F1F1F1" height="126.2031" id="SkillRepository" rx="2.5" ry="2.5" style="stroke:#181818;stroke-width:0.5;" width="299" x="194" y="630"/><ellipse cx="292.75" cy="646" fill="#ADD1B2" rx="11" ry="11" style="stroke:#181818;stroke-width:1.0;"/><path d="M295.5156,641.875 Q295.6719,641.6563 295.8594,641.5469 Q296.0469,641.4375 296.2656,641.4375 Q296.6406,641.4375 296.875,641.7031 Q297.1094,641.9531 297.1094,642.5625 L297.1094,644.0156 Q297.1094,644.625 296.875,644.8906 Q296.6406,645.1563 296.2656,645.1563 Q295.9219,645.1563 295.7188,644.9531 Q295.5156,644.7656 295.4063,644.25 Q295.3594,643.8906 295.1719,643.7031 Q294.8438,643.3281 294.2344,643.1094 Q293.625,642.8906 293,642.8906 Q292.2344,642.8906 291.5938,643.2188 Q290.9688,643.5469 290.4688,644.2969 Q289.9844,645.0469 289.9844,646.0781 L289.9844,647.1719 Q289.9844,648.4063 290.875,649.2344 Q291.7656,650.0469 293.3594,650.0469 Q294.2969,650.0469 294.9531,649.7969 Q295.3438,649.6406 295.7656,649.2031 Q296.0313,648.9375 296.1719,648.8594 Q296.3281,648.7813 296.5313,648.7813 Q296.8594,648.7813 297.1094,649.0469 Q297.375,649.2969 297.375,649.6406 Q297.375,649.9844 297.0313,650.3906 Q296.5313,650.9688 295.7344,651.2969 Q294.6563,651.75 293.3594,651.75 Q291.8438,651.75 290.6406,651.125 Q289.6563,650.625 288.9688,649.5625 Q288.2813,648.4844 288.2813,647.2031 L288.2813,646.0469 Q288.2813,644.7188 288.8906,643.5781 Q289.5156,642.4219 290.6094,641.8125 Q291.7031,641.1875 292.9375,641.1875 Q293.6719,641.1875 294.3125,641.3594 Q294.9688,641.5156 295.5156,641.875 Z " fill="#000000"/><text fill="#000000" font-family="sans-serif" font-size="14" lengthAdjust="spacing" textLength="93" x="313.25" y="650.8535">SkillRepository</text><line style="stroke:#181818;stroke-width:0.5;" x1="195" x2="492" y1="662" y2="662"/><rect fill="none" height="6" style="stroke:#C82930;stroke-width:1.0;" width="6" x="202" y="672.3203"/><text fill="#000000" font-family="sans-serif" font-size="14" lengthAdjust="spacing" textLength="191" x="214" y="678.6738">skillsArrayList: ArrayList&lt;Skill&gt;</text><line style="stroke:#181818;stroke-width:0.5;" x1="195" x2="492" y1="685.6406" y2="685.6406"/><ellipse cx="205" cy="698.9609" fill="#84BE84" rx="3" ry="3" style="stroke:#038048;stroke-width:1.0;"/><text fill="#000000" font-family="sans-serif" font-size="14" lengthAdjust="spacing" textLength="223" x="214" y="702.3145">getSkillsArrayList(): ArrayList&lt;Skill&gt;</text><rect fill="#F24D5C" height="6" style="stroke:#C82930;stroke-width:1.0;" width="6" x="202" y="711.6016"/><text fill="#000000" font-family="sans-serif" font-size="14" lengthAdjust="spacing" textLength="225" x="214" y="717.9551">skillAlreadyExist(skill: Skill): boolean</text><rect fill="#F24D5C" height="6" style="stroke:#C82930;stroke-width:1.0;" width="6" x="202" y="727.2422"/><text fill="#000000" font-family="sans-serif" font-size="14" lengthAdjust="spacing" textLength="273" x="214" y="733.5957">skillNameIsValid(skillName: String): boolean</text><ellipse cx="205" cy="745.8828" fill="#84BE84" rx="3" ry="3" style="stroke:#038048;stroke-width:1.0;"/><text fill="#000000" font-family="sans-serif" font-size="14" lengthAdjust="spacing" textLength="163" x="214" y="749.2363">addSkill(skillName: String)</text></g><!--class Skill--><g id="elem_Skill"><rect codeLine="43" fill="#F1F1F1" height="157.4844" id="Skill" rx="2.5" ry="2.5" style="stroke:#181818;stroke-width:0.5;" width="335" x="176" y="832"/><ellipse cx="326.75" cy="848" fill="#ADD1B2" rx="11" ry="11" style="stroke:#181818;stroke-width:1.0;"/><path d="M329.5156,843.875 Q329.6719,843.6563 329.8594,843.5469 Q330.0469,843.4375 330.2656,843.4375 Q330.6406,843.4375 330.875,843.7031 Q331.1094,843.9531 331.1094,844.5625 L331.1094,846.0156 Q331.1094,846.625 330.875,846.8906 Q330.6406,847.1563 330.2656,847.1563 Q329.9219,847.1563 329.7188,846.9531 Q329.5156,846.7656 329.4063,846.25 Q329.3594,845.8906 329.1719,845.7031 Q328.8438,845.3281 328.2344,845.1094 Q327.625,844.8906 327,844.8906 Q326.2344,844.8906 325.5938,845.2188 Q324.9688,845.5469 324.4688,846.2969 Q323.9844,847.0469 323.9844,848.0781 L323.9844,849.1719 Q323.9844,850.4063 324.875,851.2344 Q325.7656,852.0469 327.3594,852.0469 Q328.2969,852.0469 328.9531,851.7969 Q329.3438,851.6406 329.7656,851.2031 Q330.0313,850.9375 330.1719,850.8594 Q330.3281,850.7813 330.5313,850.7813 Q330.8594,850.7813 331.1094,851.0469 Q331.375,851.2969 331.375,851.6406 Q331.375,851.9844 331.0313,852.3906 Q330.5313,852.9688 329.7344,853.2969 Q328.6563,853.75 327.3594,853.75 Q325.8438,853.75 324.6406,853.125 Q323.6563,852.625 322.9688,851.5625 Q322.2813,850.4844 322.2813,849.2031 L322.2813,848.0469 Q322.2813,846.7188 322.8906,845.5781 Q323.5156,844.4219 324.6094,843.8125 Q325.7031,843.1875 326.9375,843.1875 Q327.6719,843.1875 328.3125,843.3594 Q328.9688,843.5156 329.5156,843.875 Z " fill="#000000"/><text fill="#000000" font-family="sans-serif" font-size="14" lengthAdjust="spacing" textLength="25" x="347.25" y="852.8535">Skill</text><line style="stroke:#181818;stroke-width:0.5;" x1="177" x2="510" y1="864" y2="864"/><rect fill="none" height="6" style="stroke:#C82930;stroke-width:1.0;" width="6" x="184" y="874.3203"/><text fill="#000000" font-family="sans-serif" font-size="14" lengthAdjust="spacing" textLength="145" x="196" y="880.6738">nameOfTheSkill: String</text><line style="stroke:#181818;stroke-width:0.5;" x1="177" x2="510" y1="887.6406" y2="887.6406"/><ellipse cx="187" cy="900.9609" fill="#84BE84" rx="3" ry="3" style="stroke:#038048;stroke-width:1.0;"/><text fill="#000000" font-family="sans-serif" font-size="14" lengthAdjust="spacing" textLength="180" x="196" y="904.3145">Skill(nameOfTheSkill: String)</text><ellipse cx="187" cy="916.6016" fill="#84BE84" rx="3" ry="3" style="stroke:#038048;stroke-width:1.0;"/><text fill="#000000" font-family="sans-serif" font-size="14" lengthAdjust="spacing" textLength="176" x="196" y="919.9551">getNameOfTheSkill(): String</text><ellipse cx="187" cy="932.2422" fill="#84BE84" rx="3" ry="3" style="stroke:#038048;stroke-width:1.0;"/><text fill="#000000" font-family="sans-serif" font-size="14" lengthAdjust="spacing" textLength="309" x="196" y="935.5957">setNameOfTheSkill(nameOfTheSkill: String): void</text><ellipse cx="187" cy="947.8828" fill="#84BE84" rx="3" ry="3" style="stroke:#038048;stroke-width:1.0;"/><text fill="#000000" font-family="sans-serif" font-size="14" lengthAdjust="spacing" textLength="179" x="196" y="951.2363">equals(obj: Object): boolean</text><ellipse cx="187" cy="963.5234" fill="#84BE84" rx="3" ry="3" style="stroke:#038048;stroke-width:1.0;"/><text fill="#000000" font-family="sans-serif" font-size="14" lengthAdjust="spacing" textLength="98" x="196" y="966.877">hashCode(): int</text><ellipse cx="187" cy="979.1641" fill="#84BE84" rx="3" ry="3" style="stroke:#038048;stroke-width:1.0;"/><text fill="#000000" font-family="sans-serif" font-size="14" lengthAdjust="spacing" textLength="104" x="196" y="982.5176">toString(): String</text></g><!--link CreateSkillUI to CreateSkillController--><g id="link_CreateSkillUI_CreateSkillController"><path codeLine="53" d="M343.5,149.13 C343.5,167.35 343.5,186.82 343.5,204.47 " fill="none" id="CreateSkillUI-to-CreateSkillController" style="stroke:#181818;stroke-width:1.0;stroke-dasharray:7.0,7.0;"/><polygon fill="#181818" points="343.5,209.89,347.5,200.89,343.5,204.89,339.5,200.89,343.5,209.89" style="stroke:#181818;stroke-width:1.0;"/></g><!--link Repositories to SkillRepository--><g id="link_Repositories_SkillRepository"><path codeLine="54" d="M239.99,554.3 C257.56,577.68 276.67,603.1 293.64,625.67 " fill="none" id="Repositories-to-SkillRepository" style="stroke:#181818;stroke-width:1.0;"/><polygon fill="#181818" points="296.78,629.85,294.5635,620.2538,293.7731,625.8552,288.1718,625.0648,296.78,629.85" style="stroke:#181818;stroke-width:1.0;"/><text fill="#000000" font-family="sans-serif" font-size="13" lengthAdjust="spacing" textLength="85" x="273.5" y="596.7686">skillRepository</text><text fill="#000000" font-family="sans-serif" font-size="13" lengthAdjust="spacing" textLength="7" x="283.6594" y="619.0885">1</text></g><!--link Repositories to Repositories--><g id="link_Repositories_Repositories"><path codeLine="55" d="M356.08,456.75 C377.19,460.13 391,466.38 391,475.5 C391,483.84 379.46,489.78 361.36,493.32 " fill="none" id="Repositories-to-Repositories" style="stroke:#181818;stroke-width:1.0;"/><polygon fill="#181818" points="356.08,494.25,365.6402,496.6171,361.0032,493.377,364.2433,488.74,356.08,494.25" style="stroke:#181818;stroke-width:1.0;"/><text fill="#000000" font-family="sans-serif" font-size="13" lengthAdjust="spacing" textLength="49" x="397" y="480.2686">instance</text></g><!--link SkillRepository to Skill--><g id="link_SkillRepository_Skill"><path codeLine="56" d="M343.5,756.04 C343.5,778.01 343.5,803.08 343.5,826.5 " fill="none" id="SkillRepository-to-Skill" style="stroke:#181818;stroke-width:1.0;"/><polygon fill="#181818" points="343.5,831.79,347.5,822.79,343.5,826.79,339.5,822.79,343.5,831.79" style="stroke:#181818;stroke-width:1.0;"/><text fill="#000000" font-family="sans-serif" font-size="13" lengthAdjust="spacing" textLength="30" x="344.5" y="798.7686">skills</text><text fill="#000000" font-family="sans-serif" font-size="13" lengthAdjust="spacing" textLength="5" x="338.2539" y="821.1234">*</text></g><!--link CreateSkillController to Repositories--><g id="link_CreateSkillController_Repositories"><path codeLine="57" d="M300.94,321.15 C283.92,343 263.96,368.62 245.28,392.61 " fill="none" id="CreateSkillController-to-Repositories" style="stroke:#181818;stroke-width:1.0;stroke-dasharray:7.0,7.0;"/><polygon fill="#181818" points="242.05,396.75,250.7282,392.0929,245.1158,392.8002,244.4085,387.1877,242.05,396.75" style="stroke:#181818;stroke-width:1.0;"/><text fill="#000000" font-family="sans-serif" font-size="13" lengthAdjust="spacing" textLength="67" x="278.5" y="363.7686">repositories</text></g><!--link CreateSkillController to SkillRepository--><g id="link_CreateSkillController_SkillRepository"><path codeLine="58" d="M389.09,321.09 C418.96,356.85 452.5,397 452.5,397 C452.5,397 452.5,554 452.5,554 C452.5,554 423.88,590.23 395.98,625.56 " fill="none" id="CreateSkillController-to-SkillRepository" style="stroke:#181818;stroke-width:1.0;stroke-dasharray:7.0,7.0;"/><polygon fill="#181818" points="392.58,629.86,401.3034,625.288,395.6842,625.9404,395.0319,620.3212,392.58,629.86" style="stroke:#181818;stroke-width:1.0;"/><text fill="#000000" font-family="sans-serif" font-size="13" lengthAdjust="spacing" textLength="85" x="453.5" y="480.2686">skillRepository</text></g><!--SRC=[bLJRRjim37tNLn1zMRh01VPg3062OCC2R2tGT7kdRSLMeqgUf6mpXltxTF55lg6edomUyl2G8gKlJDIey0Lgp2zOqfDfE0L5SuEYv9Jeta5NMCZVJ9HmHgvZX3D1JLDJg2Llt86GTvoU3HW9YfMLWO8vHYO58Jb7hU6WA1fwkZ3Eln_XBo49Q7UunnUQmiaecuT00haKHadEgKhZc4Dl9h0TasrkNHpgosUfJXtbvZQ5Nv8L3ifieK_oo-CtvzkPjw2keZ_-Mv0vf7HomNwjPFr8QwcPaQgnoYSMxpYME10vgG7E1tWpwuDLbKd9AOhWda19pJIHqpvBtjVHsnZLLhudOKBREyvjcXWDM6xrOIOLMkEeliCoyBP-sEkvceeAmt9qGn47x5SG4XeLIstRjtNjEBR5k3PComaURskOHmOWzAolSAyKDb-PDbPlz_lHX-oc2NlSvLjqRadttCv0qNpwutozfTKtkVveKOxw1t9Ml3enMy2YM1kkIStTT0Zhyt1-gi9G3YlfwGBNiajqAVSZ1z_mc4NFF5OOkoNrKVJdrJu_6vazf_2GFTjdPLPjXRewoC8F0nEcMp8Z0ryanDO-VedkxdOhxyneXP9a1pSVRcPZaeRBYIPg5ZOofFqMaYcLJ_6-JT4HQxBy8ZdP4s8LRy5wrEiL_0S0]--></g></svg>