<?xml version="1.0" encoding="us-ascii" standalone="no"?><svg xmlns="http://www.w3.org/2000/svg" xmlns:xlink="http://www.w3.org/1999/xlink" contentStyleType="text/css" height="399px" preserveAspectRatio="none" style="width:554px;height:399px;background:#FFFFFF;" version="1.1" viewBox="0 0 554 399" width="554px" zoomAndPan="magnify"><defs/><g><rect fill="#FFFFFF" height="57.582" style="stroke:#181818;stroke-width:1.0;" width="10" x="162" y="71.9121"/><rect fill="#FFFFFF" height="91.582" style="stroke:#181818;stroke-width:1.0;" width="10" x="162" y="261.6973"/><rect fill="#FFFFFF" height="122.2031" style="stroke:#181818;stroke-width:1.0;" width="10" x="330.5" y="139.4941"/><rect fill="#FFFFFF" height="42.291" style="stroke:#181818;stroke-width:1.0;" width="10" x="335.5" y="181.1152"/><rect fill="none" height="227.0762" style="stroke:#000000;stroke-width:1.5;" width="446" x="102.5" y="86.9121"/><line style="stroke:#181818;stroke-width:0.5;stroke-dasharray:5.0,5.0;" x1="166.5" x2="166.5" y1="38.6211" y2="362.2793"/><line style="stroke:#181818;stroke-width:0.5;stroke-dasharray:5.0,5.0;" x1="335" x2="335" y1="138.0137" y2="362.2793"/><rect fill="#E3E3E3" height="32.6211" rx="2.5" ry="2.5" style="stroke:#181818;stroke-width:0.5;" width="109" x="112.5" y="5"/><text fill="#000000" font-family="sans-serif" font-size="14" lengthAdjust="spacing" textLength="95" x="119.5" y="27.1074">:skillRepository</text><rect fill="#E3E3E3" height="32.6211" rx="2.5" ry="2.5" style="stroke:#181818;stroke-width:0.5;" width="109" x="112.5" y="361.2793"/><text fill="#000000" font-family="sans-serif" font-size="14" lengthAdjust="spacing" textLength="95" x="119.5" y="383.3867">:skillRepository</text><rect fill="#E3E3E3" height="32.6211" rx="2.5" ry="2.5" style="stroke:#181818;stroke-width:0.5;" width="43" x="314" y="361.2793"/><text fill="#000000" font-family="sans-serif" font-size="14" lengthAdjust="spacing" textLength="29" x="321" y="383.3867">:Skill</text><rect fill="#FFFFFF" height="57.582" style="stroke:#181818;stroke-width:1.0;" width="10" x="162" y="71.9121"/><rect fill="#FFFFFF" height="91.582" style="stroke:#181818;stroke-width:1.0;" width="10" x="162" y="261.6973"/><rect fill="#FFFFFF" height="122.2031" style="stroke:#181818;stroke-width:1.0;" width="10" x="330.5" y="139.4941"/><rect fill="#FFFFFF" height="42.291" style="stroke:#181818;stroke-width:1.0;" width="10" x="335.5" y="181.1152"/><polygon fill="#181818" points="150,67.9121,160,71.9121,150,75.9121,154,71.9121" style="stroke:#181818;stroke-width:1.0;"/><line style="stroke:#181818;stroke-width:1.0;" x1="0" x2="156" y1="71.9121" y2="71.9121"/><text fill="#000000" font-family="sans-serif" font-size="13" font-weight="bold" lengthAdjust="spacing" textLength="7" x="7" y="66.6494">7</text><text fill="#000000" font-family="sans-serif" font-size="13" lengthAdjust="spacing" textLength="132" x="18" y="66.6494">createSkill(description)</text><path d="M102.5,86.9121 L218.5,86.9121 L218.5,96.2031 L208.5,106.2031 L102.5,106.2031 L102.5,86.9121 " fill="#EEEEEE" style="stroke:#000000;stroke-width:1.5;"/><rect fill="none" height="227.0762" style="stroke:#000000;stroke-width:1.5;" width="446" x="102.5" y="86.9121"/><text fill="#000000" font-family="sans-serif" font-size="13" font-weight="bold" lengthAdjust="spacing" textLength="71" x="117.5" y="101.9404">Create skill</text><polygon fill="#181818" points="302,125.4941,312,129.4941,302,133.4941,306,129.4941" style="stroke:#181818;stroke-width:1.0;"/><line style="stroke:#181818;stroke-width:1.0;" x1="167" x2="308" y1="129.4941" y2="129.4941"/><text fill="#000000" font-family="sans-serif" font-size="13" font-weight="bold" lengthAdjust="spacing" textLength="7" x="174" y="124.2314">8</text><text fill="#000000" font-family="sans-serif" font-size="13" lengthAdjust="spacing" textLength="107" x="185" y="124.2314">create(description)</text><rect fill="#E3E3E3" height="32.6211" rx="2.5" ry="2.5" style="stroke:#181818;stroke-width:0.5;" width="43" x="314" y="106.2031"/><text fill="#000000" font-family="sans-serif" font-size="14" lengthAdjust="spacing" textLength="29" x="321" y="128.3105">:Skill</text><line style="stroke:#181818;stroke-width:1.0;" x1="340.5" x2="387.5" y1="168.1152" y2="168.1152"/><line style="stroke:#181818;stroke-width:1.0;" x1="387.5" x2="387.5" y1="168.1152" y2="181.1152"/><line style="stroke:#181818;stroke-width:1.0;" x1="346.5" x2="387.5" y1="181.1152" y2="181.1152"/><polygon fill="#181818" points="356.5,177.1152,346.5,181.1152,356.5,185.1152,352.5,181.1152" style="stroke:#181818;stroke-width:1.0;"/><text fill="#000000" font-family="sans-serif" font-size="13" font-weight="bold" lengthAdjust="spacing" textLength="7" x="352.5" y="162.8525">9</text><text fill="#000000" font-family="sans-serif" font-size="13" lengthAdjust="spacing" textLength="91" x="363.5" y="162.8525">verifyFilled(skill)</text><line style="stroke:#181818;stroke-width:1.0;" x1="345.5" x2="387.5" y1="222.4063" y2="222.4063"/><line style="stroke:#181818;stroke-width:1.0;" x1="387.5" x2="387.5" y1="222.4063" y2="235.4063"/><line style="stroke:#181818;stroke-width:1.0;" x1="340.5" x2="387.5" y1="235.4063" y2="235.4063"/><polygon fill="#181818" points="350.5,231.4063,340.5,235.4063,350.5,239.4063,346.5,235.4063" style="stroke:#181818;stroke-width:1.0;"/><text fill="#000000" font-family="sans-serif" font-size="13" font-weight="bold" lengthAdjust="spacing" textLength="14" x="352.5" y="217.1436">10</text><text fill="#000000" font-family="sans-serif" font-size="13" lengthAdjust="spacing" textLength="166" x="370.5" y="217.1436">verifySpecialCharacters(skill)</text><polygon fill="#181818" points="183,257.6973,173,261.6973,183,265.6973,179,261.6973" style="stroke:#181818;stroke-width:1.0;"/><line style="stroke:#181818;stroke-width:1.0;stroke-dasharray:2.0,2.0;" x1="177" x2="334.5" y1="261.6973" y2="261.6973"/><text fill="#000000" font-family="sans-serif" font-size="13" font-weight="bold" lengthAdjust="spacing" textLength="14" x="189" y="256.4346">11</text><text fill="#000000" font-family="sans-serif" font-size="13" lengthAdjust="spacing" textLength="23" x="207" y="256.4346">skill</text><line style="stroke:#181818;stroke-width:1.0;" x1="172" x2="214" y1="297.9883" y2="297.9883"/><line style="stroke:#181818;stroke-width:1.0;" x1="214" x2="214" y1="297.9883" y2="310.9883"/><line style="stroke:#181818;stroke-width:1.0;" x1="167" x2="214" y1="310.9883" y2="310.9883"/><polygon fill="#181818" points="177,306.9883,167,310.9883,177,314.9883,173,310.9883" style="stroke:#181818;stroke-width:1.0;"/><text fill="#000000" font-family="sans-serif" font-size="13" font-weight="bold" lengthAdjust="spacing" textLength="14" x="179" y="292.7256">12</text><text fill="#000000" font-family="sans-serif" font-size="13" lengthAdjust="spacing" textLength="116" x="197" y="292.7256">check for duplicates</text><polygon fill="#181818" points="11,340.2793,1,344.2793,11,348.2793,7,344.2793" style="stroke:#181818;stroke-width:1.0;"/><line style="stroke:#181818;stroke-width:1.0;stroke-dasharray:2.0,2.0;" x1="5" x2="161" y1="344.2793" y2="344.2793"/><text fill="#000000" font-family="sans-serif" font-size="13" font-weight="bold" lengthAdjust="spacing" textLength="14" x="17" y="339.0166">13</text><text fill="#000000" font-family="sans-serif" font-size="13" lengthAdjust="spacing" textLength="23" x="35" y="339.0166">skill</text><!--SRC=[VL5BReGm3Dtd5DQiPaPYNGbLtOpK0vGJk8w1Y914IPYAspSJLCIdu5LYluy_eLF6eSSUUciijTxs3D4FBC9SSKWTDbp5KJDufeYcqKj0Q57Q7sKQg5475WA7QCtGVxE7Do4IA2fI3as4IvbeMd-niq55wySBO81DRiEeNjMCooyXYeyjemJoZ94pu2eva5SkAcjkgHcAwfbgEnT8qNWxE7XayWGGEV-A3HwIRTQ_t__irawI3wrcpHanZGABo9dP14fuibVr-9a-BAzPyROYd6YTw5MEIQ5-jEbq5Dc7_wGNerJhfIoKzsT89c7Loqvdr_lXfWuki7Uabgc3sdgGWzEAaceuRu2Dd7pUY-9m125-0G00]--></g></svg>