<?xml version="1.0" encoding="us-ascii" standalone="no"?><svg xmlns="http://www.w3.org/2000/svg" xmlns:xlink="http://www.w3.org/1999/xlink" contentStyleType="text/css" height="1030.2px" preserveAspectRatio="none" style="width:1393px;height:1030px;background:#FFFFFF;" version="1.1" viewBox="0 0 1393 1030" width="1393.8px" zoomAndPan="magnify"><defs/><g><rect fill="#FFFFFF" height="903.6234" style="stroke:#181818;stroke-width:0.6;" width="6" x="32.1" y="63.7688"/><rect fill="#FFFFFF" height="299.2641" style="stroke:#181818;stroke-width:0.6;" width="6" x="297.9" y="76.0828"/><rect fill="#FFFFFF" height="17.1141" style="stroke:#181818;stroke-width:0.6;" width="6" x="297.9" y="392.4609"/><rect fill="#FFFFFF" height="17.1141" style="stroke:#181818;stroke-width:0.6;" width="6" x="297.9" y="426.6891"/><rect fill="#FFFFFF" height="94.2844" style="stroke:#181818;stroke-width:0.6;" width="6" x="297.9" y="460.9172"/><rect fill="#FFFFFF" height="389.6766" style="stroke:#181818;stroke-width:0.6;" width="6" x="297.9" y="572.3156"/><rect fill="#FFFFFF" height="223.2234" style="stroke:#181818;stroke-width:0.6;" width="6" x="550.5" y="117.5813"/><rect fill="#FFFFFF" height="17.1141" style="stroke:#181818;stroke-width:0.6;" width="6" x="550.5" y="478.0313"/><rect fill="#FFFFFF" height="17.1141" style="stroke:#181818;stroke-width:0.6;" width="6" x="550.5" y="512.2594"/><rect fill="#FFFFFF" height="304.5656" style="stroke:#181818;stroke-width:0.6;" width="6" x="550.5" y="640.3125"/><rect fill="#FFFFFF" height="86.3109" style="stroke:#181818;stroke-width:0.6;" width="6" x="651.9" y="237.3797"/><rect fill="#FFFFFF" height="67.9969" style="stroke:#181818;stroke-width:0.6;" width="6" x="731.4" y="725.8828"/><rect fill="#FFFFFF" height="17.1141" style="stroke:#181818;stroke-width:0.6;" width="6" x="810.9" y="134.6953"/><rect fill="#FFFFFF" height="17.1141" style="stroke:#181818;stroke-width:0.6;" width="6" x="810.9" y="657.4266"/><rect fill="#FFFFFF" height="17.1141" style="stroke:#181818;stroke-width:0.6;" width="6" x="875.1" y="168.9234"/><rect fill="#FFFFFF" height="17.1141" style="stroke:#181818;stroke-width:0.6;" width="6" x="875.1" y="691.6547"/><rect fill="#FFFFFF" height="17.1141" style="stroke:#181818;stroke-width:0.6;" width="6" x="953.1" y="203.1516"/><rect fill="#FFFFFF" height="116.7703" style="stroke:#181818;stroke-width:0.6;" width="6" x="1052.4" y="810.9938"/><rect fill="#FFFFFF" height="73.5422" style="stroke:#181818;stroke-width:0.6;" width="6" x="1055.4" y="832.9078"/><rect fill="#FFFFFF" height="23.7141" style="stroke:#181818;stroke-width:0.6;" width="6" x="1058.4" y="857.8219"/><rect fill="#FFFFFF" height="27.7688" style="stroke:#181818;stroke-width:0.6;" width="6" x="1200" y="748.9969"/><rect fill="#FFFFFF" height="27.7688" style="stroke:#181818;stroke-width:0.6;" width="6" x="1269.6" y="274.6078"/><rect fill="#FFFFFF" height="27.7688" style="stroke:#181818;stroke-width:0.6;" width="6" x="1348.2" y="595.4297"/><rect fill="none" height="60.7969" style="stroke:#000000;stroke-width:0.8999999999999999;" width="692.4" x="619.8" y="246.3797"/><line style="stroke:#181818;stroke-width:0.3;stroke-dasharray:5.0,5.0;" x1="34.8" x2="34.8" y1="57.7688" y2="972.7922"/><line style="stroke:#181818;stroke-width:0.3;stroke-dasharray:5.0,5.0;" x1="300.9" x2="300.9" y1="57.7688" y2="972.7922"/><line style="stroke:#181818;stroke-width:0.3;stroke-dasharray:5.0,5.0;" x1="553.2" x2="553.2" y1="99.075" y2="972.7922"/><line style="stroke:#181818;stroke-width:0.3;stroke-dasharray:5.0,5.0;" x1="654.6" x2="654.6" y1="57.7688" y2="972.7922"/><line style="stroke:#181818;stroke-width:0.3;stroke-dasharray:5.0,5.0;" x1="734.4" x2="734.4" y1="57.7688" y2="972.7922"/><line style="stroke:#181818;stroke-width:0.3;stroke-dasharray:5.0,5.0;" x1="813.6" x2="813.6" y1="57.7688" y2="972.7922"/><line style="stroke:#181818;stroke-width:0.3;stroke-dasharray:5.0,5.0;" x1="877.8" x2="877.8" y1="57.7688" y2="972.7922"/><line style="stroke:#181818;stroke-width:0.3;stroke-dasharray:5.0,5.0;" x1="955.8" x2="955.8" y1="57.7688" y2="972.7922"/><line style="stroke:#181818;stroke-width:0.3;stroke-dasharray:5.0,5.0;" x1="1055.4" x2="1055.4" y1="57.7688" y2="972.7922"/><line style="stroke:#181818;stroke-width:0.3;stroke-dasharray:5.0,5.0;" x1="1203" x2="1203" y1="753.5672" y2="972.7922"/><line style="stroke:#181818;stroke-width:0.3;stroke-dasharray:5.0,5.0;" x1="1272.6" x2="1272.6" y1="279.1781" y2="972.7922"/><line style="stroke:#181818;stroke-width:0.3;stroke-dasharray:5.0,5.0;" x1="1351.2" x2="1351.2" y1="600" y2="972.7922"/><text fill="#000000" font-family="sans-serif" font-size="8.4" lengthAdjust="spacing" textLength="54.6" x="6" y="46.6043">Green Spaces</text><text fill="#000000" font-family="sans-serif" font-size="8.4" lengthAdjust="spacing" textLength="60.6" x="3" y="55.9887">Manager (GSM)</text><ellipse cx="35.1" cy="8.1" fill="#E3E3E3" rx="4.8" ry="4.8" style="stroke:#181818;stroke-width:0.3;"/><path d="M35.1,12.9 L35.1,29.1 M27.3,17.7 L42.9,17.7 M35.1,29.1 L27.3,38.1 M35.1,29.1 L42.9,38.1 " fill="none" style="stroke:#181818;stroke-width:0.3;"/><text fill="#000000" font-family="sans-serif" font-size="8.4" lengthAdjust="spacing" textLength="54.6" x="6" y="979.7965">Green Spaces</text><text fill="#000000" font-family="sans-serif" font-size="8.4" lengthAdjust="spacing" textLength="60.6" x="3" y="989.1809">Manager (GSM)</text><ellipse cx="35.1" cy="996.0609" fill="#E3E3E3" rx="4.8" ry="4.8" style="stroke:#181818;stroke-width:0.3;"/><path d="M35.1,1000.8609 L35.1,1017.0609 M27.3,1005.6609 L42.9,1005.6609 M35.1,1017.0609 L27.3,1026.0609 M35.1,1017.0609 L42.9,1026.0609 " fill="none" style="stroke:#181818;stroke-width:0.3;"/><rect fill="#E3E3E3" height="17.7844" rx="1.5" ry="1.5" style="stroke:#181818;stroke-width:0.3;" width="99.6" x="251.1" y="39.3844"/><text fill="#000000" font-family="sans-serif" font-size="8.4" lengthAdjust="spacing" textLength="91.2" x="255.3" y="51.1887">:CreateAgendaEntryGUI</text><rect fill="#E3E3E3" height="17.7844" rx="1.5" ry="1.5" style="stroke:#181818;stroke-width:0.3;" width="99.6" x="251.1" y="972.1922"/><text fill="#000000" font-family="sans-serif" font-size="8.4" lengthAdjust="spacing" textLength="91.2" x="255.3" y="983.9965">:CreateAgendaEntryGUI</text><rect fill="#E3E3E3" height="17.7844" rx="1.5" ry="1.5" style="stroke:#181818;stroke-width:0.3;" width="77.4" x="514.8" y="972.1922"/><text fill="#000000" font-family="sans-serif" font-size="8.4" lengthAdjust="spacing" textLength="69" x="519" y="983.9965">:AgendaController</text><rect fill="#E3E3E3" height="17.7844" rx="1.5" ry="1.5" style="stroke:#181818;stroke-width:0.3;" width="58.2" x="625.8" y="39.3844"/><text fill="#000000" font-family="sans-serif" font-size="8.4" lengthAdjust="spacing" textLength="49.8" x="630" y="51.1887">:TaskMapper</text><rect fill="#E3E3E3" height="17.7844" rx="1.5" ry="1.5" style="stroke:#181818;stroke-width:0.3;" width="58.2" x="625.8" y="972.1922"/><text fill="#000000" font-family="sans-serif" font-size="8.4" lengthAdjust="spacing" textLength="49.8" x="630" y="983.9965">:TaskMapper</text><rect fill="#E3E3E3" height="17.7844" rx="1.5" ry="1.5" style="stroke:#181818;stroke-width:0.3;" width="88.8" x="690" y="39.3844"/><text fill="#000000" font-family="sans-serif" font-size="8.4" lengthAdjust="spacing" textLength="80.4" x="694.2" y="51.1887">:AgendaEntryMapper</text><rect fill="#E3E3E3" height="17.7844" rx="1.5" ry="1.5" style="stroke:#181818;stroke-width:0.3;" width="88.8" x="690" y="972.1922"/><text fill="#000000" font-family="sans-serif" font-size="8.4" lengthAdjust="spacing" textLength="80.4" x="694.2" y="983.9965">:AgendaEntryMapper</text><rect fill="#E3E3E3" height="17.7844" rx="1.5" ry="1.5" style="stroke:#181818;stroke-width:0.3;" width="58.2" x="784.8" y="39.3844"/><text fill="#000000" font-family="sans-serif" font-size="8.4" lengthAdjust="spacing" textLength="49.8" x="789" y="51.1887">:Repositories</text><rect fill="#E3E3E3" height="17.7844" rx="1.5" ry="1.5" style="stroke:#181818;stroke-width:0.3;" width="58.2" x="784.8" y="972.1922"/><text fill="#000000" font-family="sans-serif" font-size="8.4" lengthAdjust="spacing" textLength="49.8" x="789" y="983.9965">:Repositories</text><rect fill="#E3E3E3" height="27.1688" rx="1.5" ry="1.5" style="stroke:#181818;stroke-width:0.3;" width="58.2" x="849" y="30"/><text fill="#000000" font-family="sans-serif" font-size="8.4" lengthAdjust="spacing" textLength="44.4" x="855.9" y="41.8043">repositories</text><text fill="#000000" font-family="sans-serif" font-size="8.4" lengthAdjust="spacing" textLength="49.8" x="853.2" y="51.1887">:Repositories</text><rect fill="#E3E3E3" height="27.1688" rx="1.5" ry="1.5" style="stroke:#181818;stroke-width:0.3;" width="58.2" x="849" y="972.1922"/><text fill="#000000" font-family="sans-serif" font-size="8.4" lengthAdjust="spacing" textLength="44.4" x="855.9" y="983.9965">repositories</text><text fill="#000000" font-family="sans-serif" font-size="8.4" lengthAdjust="spacing" textLength="49.8" x="853.2" y="993.3809">:Repositories</text><rect fill="#E3E3E3" height="27.1688" rx="1.5" ry="1.5" style="stroke:#181818;stroke-width:0.3;" width="85.8" x="913.2" y="30"/><text fill="#000000" font-family="sans-serif" font-size="8.4" lengthAdjust="spacing" textLength="72" x="920.1" y="41.8043">toDoListRepository</text><text fill="#000000" font-family="sans-serif" font-size="8.4" lengthAdjust="spacing" textLength="77.4" x="917.4" y="51.1887">:ToDoListRepository</text><rect fill="#E3E3E3" height="27.1688" rx="1.5" ry="1.5" style="stroke:#181818;stroke-width:0.3;" width="85.8" x="913.2" y="972.1922"/><text fill="#000000" font-family="sans-serif" font-size="8.4" lengthAdjust="spacing" textLength="72" x="920.1" y="983.9965">toDoListRepository</text><text fill="#000000" font-family="sans-serif" font-size="8.4" lengthAdjust="spacing" textLength="77.4" x="917.4" y="993.3809">:ToDoListRepository</text><rect fill="#E3E3E3" height="27.1688" rx="1.5" ry="1.5" style="stroke:#181818;stroke-width:0.3;" width="100.8" x="1005" y="30"/><text fill="#000000" font-family="sans-serif" font-size="8.4" lengthAdjust="spacing" textLength="89.4" x="1010.7" y="41.8043">agendaEntryRepository</text><text fill="#000000" font-family="sans-serif" font-size="8.4" lengthAdjust="spacing" textLength="92.4" x="1009.2" y="51.1887">:AgendaEntryRepository</text><rect fill="#E3E3E3" height="27.1688" rx="1.5" ry="1.5" style="stroke:#181818;stroke-width:0.3;" width="100.8" x="1005" y="972.1922"/><text fill="#000000" font-family="sans-serif" font-size="8.4" lengthAdjust="spacing" textLength="89.4" x="1010.7" y="983.9965">agendaEntryRepository</text><text fill="#000000" font-family="sans-serif" font-size="8.4" lengthAdjust="spacing" textLength="92.4" x="1009.2" y="993.3809">:AgendaEntryRepository</text><rect fill="#E3E3E3" height="27.1688" rx="1.5" ry="1.5" style="stroke:#181818;stroke-width:0.3;" width="60" x="1173" y="972.1922"/><text fill="#000000" font-family="sans-serif" font-size="8.4" lengthAdjust="spacing" textLength="48.6" x="1178.7" y="983.9965">agendaEntry</text><text fill="#000000" font-family="sans-serif" font-size="8.4" lengthAdjust="spacing" textLength="51.6" x="1177.2" y="993.3809">:AgendaEntry</text><rect fill="#E3E3E3" height="27.1688" rx="1.5" ry="1.5" style="stroke:#181818;stroke-width:0.3;" width="67.2" x="1239" y="972.1922"/><text fill="#000000" font-family="sans-serif" font-size="8.4" lengthAdjust="spacing" textLength="53.4" x="1245.9" y="983.9965">taskEntryDTO</text><text fill="#000000" font-family="sans-serif" font-size="8.4" lengthAdjust="spacing" textLength="58.8" x="1243.2" y="993.3809">:TaskEntryDTO</text><rect fill="#E3E3E3" height="27.1688" rx="1.5" ry="1.5" style="stroke:#181818;stroke-width:0.3;" width="78" x="1312.2" y="972.1922"/><text fill="#000000" font-family="sans-serif" font-size="8.4" lengthAdjust="spacing" textLength="66.6" x="1317.9" y="983.9965">agendaEntryDTO</text><text fill="#000000" font-family="sans-serif" font-size="8.4" lengthAdjust="spacing" textLength="69.6" x="1316.4" y="993.3809">:AgendaEntryDTO</text><rect fill="#FFFFFF" height="903.6234" style="stroke:#181818;stroke-width:0.6;" width="6" x="32.1" y="63.7688"/><rect fill="#FFFFFF" height="299.2641" style="stroke:#181818;stroke-width:0.6;" width="6" x="297.9" y="76.0828"/><rect fill="#FFFFFF" height="17.1141" style="stroke:#181818;stroke-width:0.6;" width="6" x="297.9" y="392.4609"/><rect fill="#FFFFFF" height="17.1141" style="stroke:#181818;stroke-width:0.6;" width="6" x="297.9" y="426.6891"/><rect fill="#FFFFFF" height="94.2844" style="stroke:#181818;stroke-width:0.6;" width="6" x="297.9" y="460.9172"/><rect fill="#FFFFFF" height="389.6766" style="stroke:#181818;stroke-width:0.6;" width="6" x="297.9" y="572.3156"/><rect fill="#FFFFFF" height="223.2234" style="stroke:#181818;stroke-width:0.6;" width="6" x="550.5" y="117.5813"/><rect fill="#FFFFFF" height="17.1141" style="stroke:#181818;stroke-width:0.6;" width="6" x="550.5" y="478.0313"/><rect fill="#FFFFFF" height="17.1141" style="stroke:#181818;stroke-width:0.6;" width="6" x="550.5" y="512.2594"/><rect fill="#FFFFFF" height="304.5656" style="stroke:#181818;stroke-width:0.6;" width="6" x="550.5" y="640.3125"/><rect fill="#FFFFFF" height="86.3109" style="stroke:#181818;stroke-width:0.6;" width="6" x="651.9" y="237.3797"/><rect fill="#FFFFFF" height="67.9969" style="stroke:#181818;stroke-width:0.6;" width="6" x="731.4" y="725.8828"/><rect fill="#FFFFFF" height="17.1141" style="stroke:#181818;stroke-width:0.6;" width="6" x="810.9" y="134.6953"/><rect fill="#FFFFFF" height="17.1141" style="stroke:#181818;stroke-width:0.6;" width="6" x="810.9" y="657.4266"/><rect fill="#FFFFFF" height="17.1141" style="stroke:#181818;stroke-width:0.6;" width="6" x="875.1" y="168.9234"/><rect fill="#FFFFFF" height="17.1141" style="stroke:#181818;stroke-width:0.6;" width="6" x="875.1" y="691.6547"/><rect fill="#FFFFFF" height="17.1141" style="stroke:#181818;stroke-width:0.6;" width="6" x="953.1" y="203.1516"/><rect fill="#FFFFFF" height="116.7703" style="stroke:#181818;stroke-width:0.6;" width="6" x="1052.4" y="810.9938"/><rect fill="#FFFFFF" height="73.5422" style="stroke:#181818;stroke-width:0.6;" width="6" x="1055.4" y="832.9078"/><rect fill="#FFFFFF" height="23.7141" style="stroke:#181818;stroke-width:0.6;" width="6" x="1058.4" y="857.8219"/><rect fill="#FFFFFF" height="27.7688" style="stroke:#181818;stroke-width:0.6;" width="6" x="1200" y="748.9969"/><rect fill="#FFFFFF" height="27.7688" style="stroke:#181818;stroke-width:0.6;" width="6" x="1269.6" y="274.6078"/><rect fill="#FFFFFF" height="27.7688" style="stroke:#181818;stroke-width:0.6;" width="6" x="1348.2" y="595.4297"/><polygon fill="#181818" points="290.7,73.6828,296.7,76.0828,290.7,78.4828,293.1,76.0828" style="stroke:#181818;stroke-width:0.6;"/><line style="stroke:#181818;stroke-width:0.6;" x1="38.1" x2="294.3" y1="76.0828" y2="76.0828"/><text fill="#000000" font-family="sans-serif" font-size="7.8" font-weight="bold" lengthAdjust="spacing" textLength="4.2" x="42.3" y="73.2299">1</text><text fill="#000000" font-family="sans-serif" font-size="7.8" lengthAdjust="spacing" textLength="133.8" x="48.9" y="73.2299">asks to add a new entry in the Agenda</text><polygon fill="#181818" points="507.6,90.7969,513.6,93.1969,507.6,95.5969,510,93.1969" style="stroke:#181818;stroke-width:0.6;"/><line style="stroke:#181818;stroke-width:0.6;stroke-dasharray:2.0,2.0;" x1="303.9" x2="511.2" y1="93.1969" y2="93.1969"/><text fill="#000000" font-family="sans-serif" font-size="7.8" font-weight="bold" lengthAdjust="spacing" textLength="4.2" x="308.1" y="90.3439">2</text><text fill="#000000" font-family="sans-serif" font-size="7.8" lengthAdjust="spacing" textLength="26.4" x="314.7" y="90.3439">create()</text><rect fill="#E3E3E3" height="17.7844" rx="1.5" ry="1.5" style="stroke:#181818;stroke-width:0.3;" width="77.4" x="514.8" y="80.8828"/><text fill="#000000" font-family="sans-serif" font-size="8.4" lengthAdjust="spacing" textLength="69" x="519" y="92.6871">:AgendaController</text><polygon fill="#181818" points="543.3,115.1812,549.3,117.5813,543.3,119.9812,545.7,117.5813" style="stroke:#181818;stroke-width:0.6;"/><line style="stroke:#181818;stroke-width:0.6;" x1="303.9" x2="546.9" y1="117.5813" y2="117.5813"/><text fill="#000000" font-family="sans-serif" font-size="7.8" font-weight="bold" lengthAdjust="spacing" textLength="4.2" x="308.1" y="114.7283">3</text><text fill="#000000" font-family="sans-serif" font-size="7.8" lengthAdjust="spacing" textLength="46.2" x="314.7" y="114.7283">getToDoList()</text><polygon fill="#181818" points="803.7,132.2953,809.7,134.6953,803.7,137.0953,806.1,134.6953" style="stroke:#181818;stroke-width:0.6;"/><line style="stroke:#181818;stroke-width:0.6;" x1="556.5" x2="807.3" y1="134.6953" y2="134.6953"/><text fill="#000000" font-family="sans-serif" font-size="7.8" font-weight="bold" lengthAdjust="spacing" textLength="4.2" x="560.7" y="131.8424">4</text><text fill="#000000" font-family="sans-serif" font-size="7.8" lengthAdjust="spacing" textLength="45" x="567.3" y="131.8424">getInstance()</text><polygon fill="#181818" points="563.1,149.4094,557.1,151.8094,563.1,154.2094,560.7,151.8094" style="stroke:#181818;stroke-width:0.6;"/><line style="stroke:#181818;stroke-width:0.6;stroke-dasharray:2.0,2.0;" x1="559.5" x2="813.3" y1="151.8094" y2="151.8094"/><text fill="#000000" font-family="sans-serif" font-size="7.8" font-weight="bold" lengthAdjust="spacing" textLength="4.2" x="566.7" y="148.9564">5</text><text fill="#000000" font-family="sans-serif" font-size="7.8" lengthAdjust="spacing" textLength="40.2" x="573.3" y="148.9564">repositories</text><polygon fill="#181818" points="867.9,166.5234,873.9,168.9234,867.9,171.3234,870.3,168.9234" style="stroke:#181818;stroke-width:0.6;"/><line style="stroke:#181818;stroke-width:0.6;" x1="556.5" x2="871.5" y1="168.9234" y2="168.9234"/><text fill="#000000" font-family="sans-serif" font-size="7.8" font-weight="bold" lengthAdjust="spacing" textLength="4.2" x="560.7" y="166.0705">6</text><text fill="#000000" font-family="sans-serif" font-size="7.8" lengthAdjust="spacing" textLength="83.4" x="567.3" y="166.0705">getToDoListRepository()</text><polygon fill="#181818" points="563.1,183.6375,557.1,186.0375,563.1,188.4375,560.7,186.0375" style="stroke:#181818;stroke-width:0.6;"/><line style="stroke:#181818;stroke-width:0.6;stroke-dasharray:2.0,2.0;" x1="559.5" x2="877.5" y1="186.0375" y2="186.0375"/><text fill="#000000" font-family="sans-serif" font-size="7.8" font-weight="bold" lengthAdjust="spacing" textLength="4.2" x="566.7" y="183.1846">7</text><text fill="#000000" font-family="sans-serif" font-size="7.8" lengthAdjust="spacing" textLength="66" x="573.3" y="183.1846">toDoListRepository</text><polygon fill="#181818" points="945.9,200.7516,951.9,203.1516,945.9,205.5516,948.3,203.1516" style="stroke:#181818;stroke-width:0.6;"/><line style="stroke:#181818;stroke-width:0.6;" x1="556.5" x2="949.5" y1="203.1516" y2="203.1516"/><text fill="#000000" font-family="sans-serif" font-size="7.8" font-weight="bold" lengthAdjust="spacing" textLength="4.2" x="560.7" y="200.2986">8</text><text fill="#000000" font-family="sans-serif" font-size="7.8" lengthAdjust="spacing" textLength="45.6" x="567.3" y="200.2986">getAllTasks()</text><polygon fill="#181818" points="563.1,217.8656,557.1,220.2656,563.1,222.6656,560.7,220.2656" style="stroke:#181818;stroke-width:0.6;"/><line style="stroke:#181818;stroke-width:0.6;stroke-dasharray:2.0,2.0;" x1="559.5" x2="955.5" y1="220.2656" y2="220.2656"/><text fill="#000000" font-family="sans-serif" font-size="7.8" font-weight="bold" lengthAdjust="spacing" textLength="4.2" x="566.7" y="217.4127">9</text><text fill="#000000" font-family="sans-serif" font-size="7.8" lengthAdjust="spacing" textLength="46.2" x="573.3" y="217.4127">taskEntryList</text><polygon fill="#181818" points="644.7,234.9797,650.7,237.3797,644.7,239.7797,647.1,237.3797" style="stroke:#181818;stroke-width:0.6;"/><line style="stroke:#181818;stroke-width:0.6;" x1="556.5" x2="648.3" y1="237.3797" y2="237.3797"/><text fill="#000000" font-family="sans-serif" font-size="7.8" font-weight="bold" lengthAdjust="spacing" textLength="8.4" x="560.7" y="234.5268">10</text><text fill="#000000" font-family="sans-serif" font-size="7.8" lengthAdjust="spacing" textLength="73.2" x="571.5" y="234.5268">toDTO(taskEntryList)</text><path d="M619.8,246.3797 L663.6,246.3797 L663.6,250.2938 L657.6,256.2938 L619.8,256.2938 L619.8,246.3797 " fill="#EEEEEE" style="stroke:#000000;stroke-width:0.8999999999999999;"/><rect fill="none" height="60.7969" style="stroke:#000000;stroke-width:0.8999999999999999;" width="692.4" x="619.8" y="246.3797"/><text fill="#000000" font-family="sans-serif" font-size="7.8" font-weight="bold" lengthAdjust="spacing" textLength="16.8" x="628.8" y="254.0408">loop</text><text fill="#000000" font-family="sans-serif" font-size="6.6" font-weight="bold" lengthAdjust="spacing" textLength="48" x="672.6" y="253.5545">[for each task]</text><polygon fill="#181818" points="1231.8,266.2078,1237.8,268.6078,1231.8,271.0078,1234.2,268.6078" style="stroke:#181818;stroke-width:0.6;"/><line style="stroke:#181818;stroke-width:0.6;stroke-dasharray:2.0,2.0;" x1="657.9" x2="1235.4" y1="268.6078" y2="268.6078"/><text fill="#000000" font-family="sans-serif" font-size="7.8" font-weight="bold" lengthAdjust="spacing" textLength="8.4" x="662.1" y="265.7549">11</text><text fill="#000000" font-family="sans-serif" font-size="7.8" lengthAdjust="spacing" textLength="282" x="672.9" y="265.7549">create(urgencyDegree, associatedGS, description, approximatedDuration, status)</text><rect fill="#E3E3E3" height="27.1688" rx="1.5" ry="1.5" style="stroke:#181818;stroke-width:0.3;" width="67.2" x="1239" y="256.2938"/><text fill="#000000" font-family="sans-serif" font-size="8.4" lengthAdjust="spacing" textLength="53.4" x="1245.9" y="268.098">taskEntryDTO</text><text fill="#000000" font-family="sans-serif" font-size="8.4" lengthAdjust="spacing" textLength="58.8" x="1243.2" y="277.4824">:TaskEntryDTO</text><polygon fill="#181818" points="664.5,299.9766,658.5,302.3766,664.5,304.7766,662.1,302.3766" style="stroke:#181818;stroke-width:0.6;"/><line style="stroke:#181818;stroke-width:0.6;stroke-dasharray:2.0,2.0;" x1="660.9" x2="1272" y1="302.3766" y2="302.3766"/><text fill="#000000" font-family="sans-serif" font-size="7.8" font-weight="bold" lengthAdjust="spacing" textLength="8.4" x="668.1" y="299.5236">12</text><text fill="#000000" font-family="sans-serif" font-size="7.8" lengthAdjust="spacing" textLength="49.2" x="678.9" y="299.5236">taskEntryDTO</text><polygon fill="#181818" points="563.1,321.2906,557.1,323.6906,563.1,326.0906,560.7,323.6906" style="stroke:#181818;stroke-width:0.6;"/><line style="stroke:#181818;stroke-width:0.6;stroke-dasharray:2.0,2.0;" x1="559.5" x2="654.3" y1="323.6906" y2="323.6906"/><text fill="#000000" font-family="sans-serif" font-size="7.8" font-weight="bold" lengthAdjust="spacing" textLength="8.4" x="566.7" y="320.8377">13</text><text fill="#000000" font-family="sans-serif" font-size="7.8" lengthAdjust="spacing" textLength="61.8" x="577.5" y="320.8377">taskEntryListDTO</text><polygon fill="#181818" points="310.5,338.4047,304.5,340.8047,310.5,343.2047,308.1,340.8047" style="stroke:#181818;stroke-width:0.6;"/><line style="stroke:#181818;stroke-width:0.6;stroke-dasharray:2.0,2.0;" x1="306.9" x2="552.9" y1="340.8047" y2="340.8047"/><text fill="#000000" font-family="sans-serif" font-size="7.8" font-weight="bold" lengthAdjust="spacing" textLength="8.4" x="314.1" y="337.9518">14</text><text fill="#000000" font-family="sans-serif" font-size="7.8" lengthAdjust="spacing" textLength="61.8" x="324.9" y="337.9518">taskEntryListDTO</text><polygon fill="#181818" points="44.7,372.9469,38.7,375.3469,44.7,377.7469,42.3,375.3469" style="stroke:#181818;stroke-width:0.6;"/><line style="stroke:#181818;stroke-width:0.6;stroke-dasharray:2.0,2.0;" x1="41.1" x2="300.3" y1="375.3469" y2="375.3469"/><text fill="#000000" font-family="sans-serif" font-size="7.8" font-weight="bold" lengthAdjust="spacing" textLength="8.4" x="48.3" y="363.7799">15</text><text fill="#000000" font-family="sans-serif" font-size="7.8" lengthAdjust="spacing" textLength="183.6" x="59.1" y="355.0658">It shows the entries from the To-Do List and requests</text><text fill="#000000" font-family="sans-serif" font-size="7.8" lengthAdjust="spacing" textLength="190.8" x="59.1" y="363.7799">for the selection of one containing the specific task and</text><text fill="#000000" font-family="sans-serif" font-size="7.8" lengthAdjust="spacing" textLength="232.2" x="61.5" y="372.4939">its corresponding duration to assign to the new entry in the Agenda</text><polygon fill="#181818" points="290.7,390.0609,296.7,392.4609,290.7,394.8609,293.1,392.4609" style="stroke:#181818;stroke-width:0.6;"/><line style="stroke:#181818;stroke-width:0.6;" x1="38.1" x2="294.3" y1="392.4609" y2="392.4609"/><text fill="#000000" font-family="sans-serif" font-size="7.8" font-weight="bold" lengthAdjust="spacing" textLength="8.4" x="42.3" y="389.608">16</text><text fill="#000000" font-family="sans-serif" font-size="7.8" lengthAdjust="spacing" textLength="128.4" x="53.1" y="389.608">chooses an entry from the To-Do List</text><polygon fill="#181818" points="44.7,407.175,38.7,409.575,44.7,411.975,42.3,409.575" style="stroke:#181818;stroke-width:0.6;"/><line style="stroke:#181818;stroke-width:0.6;stroke-dasharray:2.0,2.0;" x1="41.1" x2="300.3" y1="409.575" y2="409.575"/><text fill="#000000" font-family="sans-serif" font-size="7.8" font-weight="bold" lengthAdjust="spacing" textLength="8.4" x="48.3" y="406.7221">17</text><text fill="#000000" font-family="sans-serif" font-size="7.8" lengthAdjust="spacing" textLength="184.8" x="59.1" y="406.7221">requests the date when the task is scheduled to start</text><polygon fill="#181818" points="290.7,424.2891,296.7,426.6891,290.7,429.0891,293.1,426.6891" style="stroke:#181818;stroke-width:0.6;"/><line style="stroke:#181818;stroke-width:0.6;" x1="38.1" x2="294.3" y1="426.6891" y2="426.6891"/><text fill="#000000" font-family="sans-serif" font-size="7.8" font-weight="bold" lengthAdjust="spacing" textLength="8.4" x="42.3" y="423.8361">18</text><text fill="#000000" font-family="sans-serif" font-size="7.8" lengthAdjust="spacing" textLength="80.4" x="53.1" y="423.8361">enters the starting date</text><polygon fill="#181818" points="44.7,441.4031,38.7,443.8031,44.7,446.2031,42.3,443.8031" style="stroke:#181818;stroke-width:0.6;"/><line style="stroke:#181818;stroke-width:0.6;stroke-dasharray:2.0,2.0;" x1="41.1" x2="300.3" y1="443.8031" y2="443.8031"/><text fill="#000000" font-family="sans-serif" font-size="7.8" font-weight="bold" lengthAdjust="spacing" textLength="8.4" x="48.3" y="440.9502">19</text><text fill="#000000" font-family="sans-serif" font-size="7.8" lengthAdjust="spacing" textLength="88.8" x="59.1" y="440.9502">requests the starting time</text><polygon fill="#181818" points="290.7,458.5172,296.7,460.9172,290.7,463.3172,293.1,460.9172" style="stroke:#181818;stroke-width:0.6;"/><line style="stroke:#181818;stroke-width:0.6;" x1="38.1" x2="294.3" y1="460.9172" y2="460.9172"/><text fill="#000000" font-family="sans-serif" font-size="7.8" font-weight="bold" lengthAdjust="spacing" textLength="8.4" x="42.3" y="458.0643">20</text><text fill="#000000" font-family="sans-serif" font-size="7.8" lengthAdjust="spacing" textLength="80.4" x="53.1" y="458.0643">enters the starting time</text><polygon fill="#181818" points="543.3,475.6312,549.3,478.0313,543.3,480.4313,545.7,478.0313" style="stroke:#181818;stroke-width:0.6;"/><line style="stroke:#181818;stroke-width:0.6;" x1="303.9" x2="546.9" y1="478.0313" y2="478.0313"/><text fill="#000000" font-family="sans-serif" font-size="7.8" font-weight="bold" lengthAdjust="spacing" textLength="8.4" x="308.1" y="475.1783">21</text><text fill="#000000" font-family="sans-serif" font-size="7.8" lengthAdjust="spacing" textLength="189.6" x="318.9" y="475.1783">combineStartDateAndTime(startingDate , startingTime)</text><polygon fill="#181818" points="310.5,492.7453,304.5,495.1453,310.5,497.5453,308.1,495.1453" style="stroke:#181818;stroke-width:0.6;"/><line style="stroke:#181818;stroke-width:0.6;stroke-dasharray:2.0,2.0;" x1="306.9" x2="552.9" y1="495.1453" y2="495.1453"/><text fill="#000000" font-family="sans-serif" font-size="7.8" font-weight="bold" lengthAdjust="spacing" textLength="8.4" x="314.1" y="492.2924">22</text><text fill="#000000" font-family="sans-serif" font-size="7.8" lengthAdjust="spacing" textLength="62.4" x="324.9" y="492.2924">startDateAndTime</text><polygon fill="#181818" points="543.3,509.8594,549.3,512.2594,543.3,514.6594,545.7,512.2594" style="stroke:#181818;stroke-width:0.6;"/><line style="stroke:#181818;stroke-width:0.6;" x1="303.9" x2="546.9" y1="512.2594" y2="512.2594"/><text fill="#000000" font-family="sans-serif" font-size="7.8" font-weight="bold" lengthAdjust="spacing" textLength="8.4" x="308.1" y="509.4064">23</text><text fill="#000000" font-family="sans-serif" font-size="7.8" lengthAdjust="spacing" textLength="224.4" x="318.9" y="509.4064">calculateEndDateAndTime(startDateAndTime, predictedDuration)</text><polygon fill="#181818" points="310.5,526.9734,304.5,529.3734,310.5,531.7734,308.1,529.3734" style="stroke:#181818;stroke-width:0.6;"/><line style="stroke:#181818;stroke-width:0.6;stroke-dasharray:2.0,2.0;" x1="306.9" x2="552.9" y1="529.3734" y2="529.3734"/><text fill="#000000" font-family="sans-serif" font-size="7.8" font-weight="bold" lengthAdjust="spacing" textLength="8.4" x="314.1" y="526.5205">24</text><text fill="#000000" font-family="sans-serif" font-size="7.8" lengthAdjust="spacing" textLength="59.4" x="324.9" y="526.5205">endDateAndTime</text><polygon fill="#181818" points="44.7,552.8016,38.7,555.2016,44.7,557.6016,42.3,555.2016" style="stroke:#181818;stroke-width:0.6;"/><line style="stroke:#181818;stroke-width:0.6;stroke-dasharray:2.0,2.0;" x1="41.1" x2="300.3" y1="555.2016" y2="555.2016"/><text fill="#000000" font-family="sans-serif" font-size="7.8" font-weight="bold" lengthAdjust="spacing" textLength="8.4" x="48.3" y="547.9916">25</text><text fill="#000000" font-family="sans-serif" font-size="7.8" lengthAdjust="spacing" textLength="171" x="59.1" y="543.6346">displays all information regarding the new entry in</text><text fill="#000000" font-family="sans-serif" font-size="7.8" lengthAdjust="spacing" textLength="129" x="61.5" y="552.3486">the Agenda and asks for confirmation</text><polygon fill="#181818" points="290.7,569.9156,296.7,572.3156,290.7,574.7156,293.1,572.3156" style="stroke:#181818;stroke-width:0.6;"/><line style="stroke:#181818;stroke-width:0.6;" x1="38.1" x2="294.3" y1="572.3156" y2="572.3156"/><text fill="#000000" font-family="sans-serif" font-size="7.8" font-weight="bold" lengthAdjust="spacing" textLength="8.4" x="42.3" y="569.4627">26</text><text fill="#000000" font-family="sans-serif" font-size="7.8" lengthAdjust="spacing" textLength="46.8" x="53.1" y="569.4627">confirms data</text><polygon fill="#181818" points="1305,587.0297,1311,589.4297,1305,591.8297,1307.4,589.4297" style="stroke:#181818;stroke-width:0.6;"/><line style="stroke:#181818;stroke-width:0.6;" x1="303.9" x2="1308.6" y1="589.4297" y2="589.4297"/><text fill="#000000" font-family="sans-serif" font-size="7.8" font-weight="bold" lengthAdjust="spacing" textLength="8.4" x="308.1" y="586.5768">27</text><text fill="#000000" font-family="sans-serif" font-size="7.8" lengthAdjust="spacing" textLength="204" x="318.9" y="586.5768">create(selectedTask, startDateAndTime, endDateAndTime)</text><rect fill="#E3E3E3" height="27.1688" rx="1.5" ry="1.5" style="stroke:#181818;stroke-width:0.3;" width="78" x="1312.2" y="577.1156"/><text fill="#000000" font-family="sans-serif" font-size="8.4" lengthAdjust="spacing" textLength="66.6" x="1317.9" y="588.9199">agendaEntryDTO</text><text fill="#000000" font-family="sans-serif" font-size="8.4" lengthAdjust="spacing" textLength="69.6" x="1316.4" y="598.3043">:AgendaEntryDTO</text><polygon fill="#181818" points="310.5,620.7984,304.5,623.1984,310.5,625.5984,308.1,623.1984" style="stroke:#181818;stroke-width:0.6;"/><line style="stroke:#181818;stroke-width:0.6;stroke-dasharray:2.0,2.0;" x1="306.9" x2="1350.6" y1="623.1984" y2="623.1984"/><text fill="#000000" font-family="sans-serif" font-size="7.8" font-weight="bold" lengthAdjust="spacing" textLength="8.4" x="314.1" y="620.3455">28</text><text fill="#000000" font-family="sans-serif" font-size="7.8" lengthAdjust="spacing" textLength="59.4" x="324.9" y="620.3455">agendaEntryDTO</text><polygon fill="#181818" points="543.3,637.9125,549.3,640.3125,543.3,642.7125,545.7,640.3125" style="stroke:#181818;stroke-width:0.6;"/><line style="stroke:#181818;stroke-width:0.6;" x1="303.9" x2="546.9" y1="640.3125" y2="640.3125"/><text fill="#000000" font-family="sans-serif" font-size="7.8" font-weight="bold" lengthAdjust="spacing" textLength="8.4" x="308.1" y="637.4596">29</text><text fill="#000000" font-family="sans-serif" font-size="7.8" lengthAdjust="spacing" textLength="121.8" x="318.9" y="637.4596">addAgendaEntry(agendaEntryDTO)</text><polygon fill="#181818" points="803.7,655.0266,809.7,657.4266,803.7,659.8266,806.1,657.4266" style="stroke:#181818;stroke-width:0.6;"/><line style="stroke:#181818;stroke-width:0.6;" x1="556.5" x2="807.3" y1="657.4266" y2="657.4266"/><text fill="#000000" font-family="sans-serif" font-size="7.8" font-weight="bold" lengthAdjust="spacing" textLength="8.4" x="560.7" y="654.5736">30</text><text fill="#000000" font-family="sans-serif" font-size="7.8" lengthAdjust="spacing" textLength="45" x="571.5" y="654.5736">getInstance()</text><polygon fill="#181818" points="563.1,672.1406,557.1,674.5406,563.1,676.9406,560.7,674.5406" style="stroke:#181818;stroke-width:0.6;"/><line style="stroke:#181818;stroke-width:0.6;stroke-dasharray:2.0,2.0;" x1="559.5" x2="813.3" y1="674.5406" y2="674.5406"/><text fill="#000000" font-family="sans-serif" font-size="7.8" font-weight="bold" lengthAdjust="spacing" textLength="8.4" x="566.7" y="671.6877">31</text><text fill="#000000" font-family="sans-serif" font-size="7.8" lengthAdjust="spacing" textLength="40.2" x="577.5" y="671.6877">repositories</text><polygon fill="#181818" points="867.9,689.2547,873.9,691.6547,867.9,694.0547,870.3,691.6547" style="stroke:#181818;stroke-width:0.6;"/><line style="stroke:#181818;stroke-width:0.6;" x1="556.5" x2="871.5" y1="691.6547" y2="691.6547"/><text fill="#000000" font-family="sans-serif" font-size="7.8" font-weight="bold" lengthAdjust="spacing" textLength="8.4" x="560.7" y="688.8018">32</text><text fill="#000000" font-family="sans-serif" font-size="7.8" lengthAdjust="spacing" textLength="79.2" x="571.5" y="688.8018">getAgendaRepository()</text><polygon fill="#181818" points="563.1,706.3688,557.1,708.7688,563.1,711.1687,560.7,708.7688" style="stroke:#181818;stroke-width:0.6;"/><line style="stroke:#181818;stroke-width:0.6;stroke-dasharray:2.0,2.0;" x1="559.5" x2="877.5" y1="708.7688" y2="708.7688"/><text fill="#000000" font-family="sans-serif" font-size="7.8" font-weight="bold" lengthAdjust="spacing" textLength="8.4" x="566.7" y="705.9158">33</text><text fill="#000000" font-family="sans-serif" font-size="7.8" lengthAdjust="spacing" textLength="62.4" x="577.5" y="705.9158">agendaRepository</text><polygon fill="#181818" points="724.2,723.4828,730.2,725.8828,724.2,728.2828,726.6,725.8828" style="stroke:#181818;stroke-width:0.6;"/><line style="stroke:#181818;stroke-width:0.6;" x1="556.5" x2="727.8" y1="725.8828" y2="725.8828"/><text fill="#000000" font-family="sans-serif" font-size="7.8" font-weight="bold" lengthAdjust="spacing" textLength="8.4" x="560.7" y="723.0299">34</text><text fill="#000000" font-family="sans-serif" font-size="7.8" lengthAdjust="spacing" textLength="91.2" x="571.5" y="723.0299">toEntity(agendaEntryDTO)</text><polygon fill="#181818" points="1165.8,740.5969,1171.8,742.9969,1165.8,745.3969,1168.2,742.9969" style="stroke:#181818;stroke-width:0.6;"/><line style="stroke:#181818;stroke-width:0.6;" x1="737.4" x2="1169.4" y1="742.9969" y2="742.9969"/><text fill="#000000" font-family="sans-serif" font-size="7.8" font-weight="bold" lengthAdjust="spacing" textLength="8.4" x="741.6" y="740.1439">35</text><text fill="#000000" font-family="sans-serif" font-size="7.8" lengthAdjust="spacing" textLength="204" x="752.4" y="740.1439">create(selectedTask, startDateAndTime, endDateAndTime)</text><rect fill="#E3E3E3" height="27.1688" rx="1.5" ry="1.5" style="stroke:#181818;stroke-width:0.3;" width="60" x="1173" y="730.6828"/><text fill="#000000" font-family="sans-serif" font-size="8.4" lengthAdjust="spacing" textLength="48.6" x="1178.7" y="742.4871">agendaEntry</text><text fill="#000000" font-family="sans-serif" font-size="8.4" lengthAdjust="spacing" textLength="51.6" x="1177.2" y="751.8715">:AgendaEntry</text><polygon fill="#181818" points="744,774.3656,738,776.7656,744,779.1656,741.6,776.7656" style="stroke:#181818;stroke-width:0.6;"/><line style="stroke:#181818;stroke-width:0.6;stroke-dasharray:2.0,2.0;" x1="740.4" x2="1202.4" y1="776.7656" y2="776.7656"/><text fill="#000000" font-family="sans-serif" font-size="7.8" font-weight="bold" lengthAdjust="spacing" textLength="8.4" x="747.6" y="773.9127">36</text><text fill="#000000" font-family="sans-serif" font-size="7.8" lengthAdjust="spacing" textLength="43.8" x="758.4" y="773.9127">agendaEntry</text><polygon fill="#181818" points="563.1,791.4797,557.1,793.8797,563.1,796.2797,560.7,793.8797" style="stroke:#181818;stroke-width:0.6;"/><line style="stroke:#181818;stroke-width:0.6;stroke-dasharray:2.0,2.0;" x1="559.5" x2="733.8" y1="793.8797" y2="793.8797"/><text fill="#000000" font-family="sans-serif" font-size="7.8" font-weight="bold" lengthAdjust="spacing" textLength="8.4" x="566.7" y="791.0268">37</text><text fill="#000000" font-family="sans-serif" font-size="7.8" lengthAdjust="spacing" textLength="43.8" x="577.5" y="791.0268">agendaEntry</text><polygon fill="#181818" points="1045.2,808.5938,1051.2,810.9938,1045.2,813.3938,1047.6,810.9938" style="stroke:#181818;stroke-width:0.6;"/><line style="stroke:#181818;stroke-width:0.6;" x1="556.5" x2="1048.8" y1="810.9938" y2="810.9938"/><text fill="#000000" font-family="sans-serif" font-size="7.8" font-weight="bold" lengthAdjust="spacing" textLength="8.4" x="560.7" y="808.1408">38</text><text fill="#000000" font-family="sans-serif" font-size="7.8" lengthAdjust="spacing" textLength="106.2" x="571.5" y="808.1408">addAgendaEntry(agendaEntry)</text><line style="stroke:#181818;stroke-width:0.6;" x1="1058.4" x2="1086.6" y1="825.1078" y2="825.1078"/><line style="stroke:#181818;stroke-width:0.6;" x1="1086.6" x2="1086.6" y1="825.1078" y2="832.9078"/><line style="stroke:#181818;stroke-width:0.6;" x1="1062" x2="1086.6" y1="832.9078" y2="832.9078"/><polygon fill="#181818" points="1068,830.5078,1062,832.9078,1068,835.3078,1065.6,832.9078" style="stroke:#181818;stroke-width:0.6;"/><text fill="#000000" font-family="sans-serif" font-size="7.8" font-weight="bold" lengthAdjust="spacing" textLength="8.4" x="1065.6" y="822.2549">39</text><text fill="#000000" font-family="sans-serif" font-size="7.8" lengthAdjust="spacing" textLength="79.8" x="1076.4" y="822.2549">addEntry(agendaEntry)</text><line style="stroke:#181818;stroke-width:0.6;" x1="1061.4" x2="1089.6" y1="850.0219" y2="850.0219"/><line style="stroke:#181818;stroke-width:0.6;" x1="1089.6" x2="1089.6" y1="850.0219" y2="857.8219"/><line style="stroke:#181818;stroke-width:0.6;" x1="1065" x2="1089.6" y1="857.8219" y2="857.8219"/><polygon fill="#181818" points="1071,855.4219,1065,857.8219,1071,860.2219,1068.6,857.8219" style="stroke:#181818;stroke-width:0.6;"/><text fill="#000000" font-family="sans-serif" font-size="7.8" font-weight="bold" lengthAdjust="spacing" textLength="8.4" x="1068.6" y="847.1689">40</text><text fill="#000000" font-family="sans-serif" font-size="7.8" lengthAdjust="spacing" textLength="119.4" x="1079.4" y="847.1689">validateAgendaEntry(agendaEntry)</text><line style="stroke:#181818;stroke-width:0.6;stroke-dasharray:2.0,2.0;" x1="1064.4" x2="1089.6" y1="880.9359" y2="880.9359"/><line style="stroke:#181818;stroke-width:0.6;stroke-dasharray:2.0,2.0;" x1="1089.6" x2="1089.6" y1="880.9359" y2="888.7359"/><line style="stroke:#181818;stroke-width:0.6;stroke-dasharray:2.0,2.0;" x1="1061.4" x2="1089.6" y1="888.7359" y2="888.7359"/><polygon fill="#181818" points="1067.4,886.3359,1061.4,888.7359,1067.4,891.1359,1065,888.7359" style="stroke:#181818;stroke-width:0.6;"/><text fill="#000000" font-family="sans-serif" font-size="7.8" font-weight="bold" lengthAdjust="spacing" textLength="8.4" x="1068.6" y="878.083">41</text><text fill="#000000" font-family="sans-serif" font-size="7.8" lengthAdjust="spacing" textLength="31.8" x="1079.4" y="878.083">true/false</text><line style="stroke:#181818;stroke-width:0.6;stroke-dasharray:2.0,2.0;" x1="1061.4" x2="1086.6" y1="905.85" y2="905.85"/><line style="stroke:#181818;stroke-width:0.6;stroke-dasharray:2.0,2.0;" x1="1086.6" x2="1086.6" y1="905.85" y2="913.65"/><line style="stroke:#181818;stroke-width:0.6;stroke-dasharray:2.0,2.0;" x1="1058.4" x2="1086.6" y1="913.65" y2="913.65"/><polygon fill="#181818" points="1064.4,911.25,1058.4,913.65,1064.4,916.05,1062,913.65" style="stroke:#181818;stroke-width:0.6;"/><text fill="#000000" font-family="sans-serif" font-size="7.8" font-weight="bold" lengthAdjust="spacing" textLength="8.4" x="1065.6" y="902.9971">42</text><text fill="#000000" font-family="sans-serif" font-size="7.8" lengthAdjust="spacing" textLength="31.8" x="1076.4" y="902.9971">true/false</text><polygon fill="#181818" points="563.1,925.3641,557.1,927.7641,563.1,930.1641,560.7,927.7641" style="stroke:#181818;stroke-width:0.6;"/><line style="stroke:#181818;stroke-width:0.6;stroke-dasharray:2.0,2.0;" x1="559.5" x2="1054.8" y1="927.7641" y2="927.7641"/><text fill="#000000" font-family="sans-serif" font-size="7.8" font-weight="bold" lengthAdjust="spacing" textLength="8.4" x="566.7" y="924.9111">43</text><text fill="#000000" font-family="sans-serif" font-size="7.8" lengthAdjust="spacing" textLength="31.8" x="577.5" y="924.9111">true/false</text><polygon fill="#181818" points="310.5,942.4781,304.5,944.8781,310.5,947.2781,308.1,944.8781" style="stroke:#181818;stroke-width:0.6;"/><line style="stroke:#181818;stroke-width:0.6;stroke-dasharray:2.0,2.0;" x1="306.9" x2="552.9" y1="944.8781" y2="944.8781"/><text fill="#000000" font-family="sans-serif" font-size="7.8" font-weight="bold" lengthAdjust="spacing" textLength="8.4" x="314.1" y="942.0252">44</text><text fill="#000000" font-family="sans-serif" font-size="7.8" lengthAdjust="spacing" textLength="31.8" x="324.9" y="942.0252">true/false</text><polygon fill="#181818" points="44.7,959.5922,38.7,961.9922,44.7,964.3922,42.3,961.9922" style="stroke:#181818;stroke-width:0.6;"/><line style="stroke:#181818;stroke-width:0.6;stroke-dasharray:2.0,2.0;" x1="41.1" x2="300.3" y1="961.9922" y2="961.9922"/><text fill="#000000" font-family="sans-serif" font-size="7.8" font-weight="bold" lengthAdjust="spacing" textLength="8.4" x="48.3" y="959.1393">45</text><text fill="#000000" font-family="sans-serif" font-size="7.8" lengthAdjust="spacing" textLength="94.8" x="59.1" y="959.1393">displays operation success</text><!--SRC=[tLZFR-Cg4Bxxhq0zfLMYT- -XajL4LQHM-zIajrnO80cg0tw0jvl_VWVm3x1nxFTMUta-EJ3ppGTyCqoiFxaeiS8NT952ahEI5uQCgbYcsvaIaqzyOZjpBHXIZ1WiJaLeeC-OoYykJkY82ysoBCELaQAwV6SAtecH2jszACO4sW4OqmVnXWL0AhHusRtTto6i4Rna06SuuIKM1jqzFYk63SjFJ52y4KPTNpwsplHZsxFqDiyIZ6HHCEMidlVlhpsxFTQVRxWiQulkPnBFnGpCyqtI-9sLKdDO8sVQsRrl_jx5DYemEOYaH-nWv5g-ScrQookuxGU3VXNhru4_xXOGGUIfSR-uMnYnPxqPFSQmbsvslVzckGO_FSiDl8q6y4vvD527iMuW8Vu3jE14aY5uu0Mjda09w17CFZKo4c5A4KQ2VI5c8H0No9mPygZEgyK11Ra1y5y1Z9NAmmD04IUvnNtMJVjPc3inqvo0DK3rqs8wlRN3uUC00CWAmmDjXOOi8ZPIog75T59AcjZ7uQqwXg7CaawKpK0EsCQhxXGpW_PDrY7feTHdKB_Dt6U49vyNXTMYdg9SPz4ewnep9Dv8tBAVujp0Z_9UFNNLo6tA_jiYYZ35lwjbISD2oX8TeH03fxFZdZJhO62bBcSV7XxhhAWKP1Avhja9IlaIqavBmc62lkoMi5PD52yDbmAcobB9d_nY9zULmduK96ygFRKEb_1fRdPgrTkeeCvCdi5cp0WAnCZHHFjXpwbtxdF21YTpGxPDDPk43w3ZabCNCriQ7z7MmBKilxGhWROUGar0HxZUtS1UhjOIsGW82mg5uv-AQQFHGLY9M0lD2hZfuToGF28f629mks8kx2tlvaj6-94JnzU270JYW42aKaoNKb1hIUl3T-LPQtvoRzR_LfaELjWKwh3U8tAMKiDoiAWX4kiQrljiPAVQnLi0Qgs_pinpSclZ6cboPhGg6BNiGSOgplS4t-O9UGDNfdmOX-4s29ooP28uojE4MoJ3BspExgLOjBx3wD4LIEJbEnVG2OBVslPcWkx1TT40sJ6qR77jt7qsSad6gjSzoEocscDIk21L0GORGGUaWe4bAXMZd0GrQIOv5W6FKnivByfrMU0hwBKeGEsGOHUV58gTiA9DHaKPSGYJmkMewt9iTa8Y7daDCKU6uU7Nljhg3cT9pNdwgwUyBlvDJ-GB0gEsd2tHS7FZJUhjRDvLzRokuXzRwDoYXg-ltjffUEBGw0MjuY96kK-dKtr2_yFsp6_5dsdES0_xjrepgwckmO7pukRsuGsej__0acRDh8tJTIt_HRSt28o5NeMh2nOrjMFZYBssurzXZlORZNfoBv_nJ4flHB0Ju-simuvYp4JlWOzfj8V_0nUSnXyAub2ZG3FZTJ6xeFOJoL_-QyUOItWWCzOp6tiMRjx_ipAEEOdNwq_JIFEwqlOgb21FVmdgYX2cTQ9r-GK0]--></g></svg>