<svg xmlns="http://www.w3.org/2000/svg" xmlns:xlink="http://www.w3.org/1999/xlink" contentStyleType="text/css" height="937px" preserveAspectRatio="none" style="width:2127px;height:937px;background:#FFFFFF;" version="1.1" viewBox="0 0 2127 937" width="2127px" zoomAndPan="magnify"><defs/><g><!--class AddDronesToProposalUI--><g id="elem_AddDronesToProposalUI"><rect codeLine="6" fill="#F1F1F1" height="48" id="AddDronesToProposalUI" rx="2.5" ry="2.5" style="stroke:#181818;stroke-width:0.5;" width="187.6338" x="796.5" y="7"/><ellipse cx="811.5" cy="23" fill="#ADD1B2" rx="11" ry="11" style="stroke:#181818;stroke-width:1.0;"/><path d="M814.2656,18.875 Q814.4219,18.6563 814.6094,18.5469 Q814.7969,18.4375 815.0156,18.4375 Q815.3906,18.4375 815.625,18.7031 Q815.8594,18.9531 815.8594,19.5625 L815.8594,21.0156 Q815.8594,21.625 815.625,21.8906 Q815.3906,22.1563 815.0156,22.1563 Q814.6719,22.1563 814.4688,21.9531 Q814.2656,21.7656 814.1563,21.25 Q814.1094,20.8906 813.9219,20.7031 Q813.5938,20.3281 812.9844,20.1094 Q812.375,19.8906 811.75,19.8906 Q810.9844,19.8906 810.3438,20.2188 Q809.7188,20.5469 809.2188,21.2969 Q808.7344,22.0469 808.7344,23.0781 L808.7344,24.1719 Q808.7344,25.4063 809.625,26.2344 Q810.5156,27.0469 812.1094,27.0469 Q813.0469,27.0469 813.7031,26.7969 Q814.0938,26.6406 814.5156,26.2031 Q814.7813,25.9375 814.9219,25.8594 Q815.0781,25.7813 815.2813,25.7813 Q815.6094,25.7813 815.8594,26.0469 Q816.125,26.2969 816.125,26.6406 Q816.125,26.9844 815.7813,27.3906 Q815.2813,27.9688 814.4844,28.2969 Q813.4063,28.75 812.1094,28.75 Q810.5938,28.75 809.3906,28.125 Q808.4063,27.625 807.7188,26.5625 Q807.0313,25.4844 807.0313,24.2031 L807.0313,23.0469 Q807.0313,21.7188 807.6406,20.5781 Q808.2656,19.4219 809.3594,18.8125 Q810.4531,18.1875 811.6875,18.1875 Q812.4219,18.1875 813.0625,18.3594 Q813.7188,18.5156 814.2656,18.875 Z " fill="#000000"/><text fill="#000000" font-family="sans-serif" font-size="14" lengthAdjust="spacing" textLength="155.6338" x="825.5" y="28.7969">AddDronesToProposalUI</text><line style="stroke:#181818;stroke-width:0.5;" x1="797.5" x2="983.1338" y1="39" y2="39"/><line style="stroke:#181818;stroke-width:0.5;" x1="797.5" x2="983.1338" y1="47" y2="47"/></g><!--class AddDronesToProposalController--><g id="elem_AddDronesToProposalController"><rect codeLine="9" fill="#F1F1F1" height="103.8633" id="AddDronesToProposalController" rx="2.5" ry="2.5" style="stroke:#181818;stroke-width:0.5;" width="643.4971" x="569" y="115"/><ellipse cx="785.3369" cy="131" fill="#ADD1B2" rx="11" ry="11" style="stroke:#181818;stroke-width:1.0;"/><path d="M788.1025,126.875 Q788.2588,126.6563 788.4463,126.5469 Q788.6338,126.4375 788.8525,126.4375 Q789.2275,126.4375 789.4619,126.7031 Q789.6963,126.9531 789.6963,127.5625 L789.6963,129.0156 Q789.6963,129.625 789.4619,129.8906 Q789.2275,130.1563 788.8525,130.1563 Q788.5088,130.1563 788.3057,129.9531 Q788.1025,129.7656 787.9932,129.25 Q787.9463,128.8906 787.7588,128.7031 Q787.4307,128.3281 786.8213,128.1094 Q786.2119,127.8906 785.5869,127.8906 Q784.8213,127.8906 784.1807,128.2188 Q783.5557,128.5469 783.0557,129.2969 Q782.5713,130.0469 782.5713,131.0781 L782.5713,132.1719 Q782.5713,133.4063 783.4619,134.2344 Q784.3525,135.0469 785.9463,135.0469 Q786.8838,135.0469 787.54,134.7969 Q787.9307,134.6406 788.3525,134.2031 Q788.6182,133.9375 788.7588,133.8594 Q788.915,133.7813 789.1182,133.7813 Q789.4463,133.7813 789.6963,134.0469 Q789.9619,134.2969 789.9619,134.6406 Q789.9619,134.9844 789.6182,135.3906 Q789.1182,135.9688 788.3213,136.2969 Q787.2432,136.75 785.9463,136.75 Q784.4307,136.75 783.2275,136.125 Q782.2432,135.625 781.5557,134.5625 Q780.8682,133.4844 780.8682,132.2031 L780.8682,131.0469 Q780.8682,129.7188 781.4775,128.5781 Q782.1025,127.4219 783.1963,126.8125 Q784.29,126.1875 785.5244,126.1875 Q786.2588,126.1875 786.8994,126.3594 Q787.5557,126.5156 788.1025,126.875 Z " fill="#000000"/><text fill="#000000" font-family="sans-serif" font-size="14" lengthAdjust="spacing" textLength="202.3232" x="805.8369" y="136.7969">AddDronesToProposalController</text><line style="stroke:#181818;stroke-width:0.5;" x1="570" x2="1211.4971" y1="147" y2="147"/><text fill="#000000" font-family="sans-serif" font-size="14" lengthAdjust="spacing" textLength="248.9922" x="575" y="166.1074">-service : AddDronesToProposalService</text><line style="stroke:#181818;stroke-width:0.5;" x1="570" x2="1211.4971" y1="173.6211" y2="173.6211"/><text fill="#000000" font-family="sans-serif" font-size="14" lengthAdjust="spacing" textLength="387.1191" x="575" y="192.7285">+listAvailableDroneModels() : List&lt;AvailableDroneModelDTO&gt;</text><text fill="#000000" font-family="sans-serif" font-size="14" lengthAdjust="spacing" textLength="631.4971" x="575" y="211.3496">+addDronesToProposal(proposalId: ShowProposalID, drones: List&lt;AvailableDroneModelDTO&gt;) : void</text></g><!--class AddDronesToProposalService--><g id="elem_AddDronesToProposalService"><rect codeLine="15" fill="#F1F1F1" height="141.1055" id="AddDronesToProposalService" rx="2.5" ry="2.5" style="stroke:#181818;stroke-width:0.5;" width="643.4971" x="569" y="279"/><ellipse cx="792.3403" cy="295" fill="#ADD1B2" rx="11" ry="11" style="stroke:#181818;stroke-width:1.0;"/><path d="M795.106,290.875 Q795.2622,290.6563 795.4497,290.5469 Q795.6372,290.4375 795.856,290.4375 Q796.231,290.4375 796.4653,290.7031 Q796.6997,290.9531 796.6997,291.5625 L796.6997,293.0156 Q796.6997,293.625 796.4653,293.8906 Q796.231,294.1563 795.856,294.1563 Q795.5122,294.1563 795.3091,293.9531 Q795.106,293.7656 794.9966,293.25 Q794.9497,292.8906 794.7622,292.7031 Q794.4341,292.3281 793.8247,292.1094 Q793.2153,291.8906 792.5903,291.8906 Q791.8247,291.8906 791.1841,292.2188 Q790.5591,292.5469 790.0591,293.2969 Q789.5747,294.0469 789.5747,295.0781 L789.5747,296.1719 Q789.5747,297.4063 790.4653,298.2344 Q791.356,299.0469 792.9497,299.0469 Q793.8872,299.0469 794.5435,298.7969 Q794.9341,298.6406 795.356,298.2031 Q795.6216,297.9375 795.7622,297.8594 Q795.9185,297.7813 796.1216,297.7813 Q796.4497,297.7813 796.6997,298.0469 Q796.9653,298.2969 796.9653,298.6406 Q796.9653,298.9844 796.6216,299.3906 Q796.1216,299.9688 795.3247,300.2969 Q794.2466,300.75 792.9497,300.75 Q791.4341,300.75 790.231,300.125 Q789.2466,299.625 788.5591,298.5625 Q787.8716,297.4844 787.8716,296.2031 L787.8716,295.0469 Q787.8716,293.7188 788.481,292.5781 Q789.106,291.4219 790.1997,290.8125 Q791.2935,290.1875 792.5278,290.1875 Q793.2622,290.1875 793.9028,290.3594 Q794.5591,290.5156 795.106,290.875 Z " fill="#000000"/><text fill="#000000" font-family="sans-serif" font-size="14" lengthAdjust="spacing" textLength="188.3164" x="812.8403" y="300.7969">AddDronesToProposalService</text><line style="stroke:#181818;stroke-width:0.5;" x1="570" x2="1211.4971" y1="311" y2="311"/><text fill="#000000" font-family="sans-serif" font-size="14" lengthAdjust="spacing" textLength="294.1436" x="575" y="330.1074">-proposalRepository : ShowProposalRepository</text><text fill="#000000" font-family="sans-serif" font-size="14" lengthAdjust="spacing" textLength="224.1025" x="575" y="348.7285">-droneRepository : DroneRepository</text><text fill="#000000" font-family="sans-serif" font-size="14" lengthAdjust="spacing" textLength="300.3643" x="575" y="367.3496">-droneModelRepository : DroneModelRepository</text><line style="stroke:#181818;stroke-width:0.5;" x1="570" x2="1211.4971" y1="374.8633" y2="374.8633"/><text fill="#000000" font-family="sans-serif" font-size="14" lengthAdjust="spacing" textLength="389.4707" x="575" y="393.9707">+getAvailableDroneModels() : List&lt;AvailableDroneModelDTO&gt;</text><text fill="#000000" font-family="sans-serif" font-size="14" lengthAdjust="spacing" textLength="631.4971" x="575" y="412.5918">+addDronesToProposal(proposalId: ShowProposalID, drones: List&lt;AvailableDroneModelDTO&gt;) : void</text></g><!--class ShowProposalRepository--><g id="elem_ShowProposalRepository"><rect codeLine="23" fill="#F1F1F1" height="85.2422" id="ShowProposalRepository" rx="2.5" ry="2.5" style="stroke:#181818;stroke-width:0.5;" width="311.209" x="7" y="489.5"/><ellipse cx="79.7583" cy="505.5" fill="#B4A7E5" rx="11" ry="11" style="stroke:#181818;stroke-width:1.0;"/><path d="M80.7114,502.1406 L80.7114,508.7969 L82.4302,508.7969 Q83.0396,508.7969 83.3052,509.0313 Q83.5708,509.2656 83.5708,509.6563 Q83.5708,510.0313 83.3052,510.2656 Q83.0396,510.5 82.4302,510.5 L77.2896,510.5 Q76.6802,510.5 76.4146,510.2656 Q76.1489,510.0313 76.1489,509.6406 Q76.1489,509.2656 76.4146,509.0313 Q76.6802,508.7969 77.2896,508.7969 L79.0083,508.7969 L79.0083,502.1406 L77.2896,502.1406 Q76.6802,502.1406 76.4146,501.9063 Q76.1489,501.6719 76.1489,501.2813 Q76.1489,500.9063 76.4146,500.6719 Q76.6802,500.4375 77.2896,500.4375 L82.4302,500.4375 Q83.0396,500.4375 83.3052,500.6719 Q83.5708,500.9063 83.5708,501.2813 Q83.5708,501.6719 83.3052,501.9063 Q83.0396,502.1406 82.4302,502.1406 L80.7114,502.1406 Z " fill="#000000"/><text fill="#000000" font-family="sans-serif" font-size="14" font-style="italic" lengthAdjust="spacing" textLength="157.1924" x="100.2583" y="511.2969">ShowProposalRepository</text><line style="stroke:#181818;stroke-width:0.5;" x1="8" x2="317.209" y1="521.5" y2="521.5"/><line style="stroke:#181818;stroke-width:0.5;" x1="8" x2="317.209" y1="529.5" y2="529.5"/><text fill="#000000" font-family="sans-serif" font-size="14" lengthAdjust="spacing" textLength="299.209" x="13" y="548.6074">+ofIdentity(id: ShowProposalID) : ShowProposal</text><text fill="#000000" font-family="sans-serif" font-size="14" lengthAdjust="spacing" textLength="236.1816" x="13" y="567.2285">+save(proposal: ShowProposal) : void</text></g><!--class JpaShowProposalRepository--><g id="elem_JpaShowProposalRepository"><rect codeLine="28" fill="#F1F1F1" height="85.2422" id="JpaShowProposalRepository" rx="2.5" ry="2.5" style="stroke:#181818;stroke-width:0.5;" width="311.209" x="7" y="307"/><ellipse cx="68.4722" cy="323" fill="#ADD1B2" rx="11" ry="11" style="stroke:#181818;stroke-width:1.0;"/><path d="M71.2378,318.875 Q71.394,318.6563 71.5815,318.5469 Q71.769,318.4375 71.9878,318.4375 Q72.3628,318.4375 72.5972,318.7031 Q72.8315,318.9531 72.8315,319.5625 L72.8315,321.0156 Q72.8315,321.625 72.5972,321.8906 Q72.3628,322.1563 71.9878,322.1563 Q71.644,322.1563 71.4409,321.9531 Q71.2378,321.7656 71.1284,321.25 Q71.0815,320.8906 70.894,320.7031 Q70.5659,320.3281 69.9565,320.1094 Q69.3472,319.8906 68.7222,319.8906 Q67.9565,319.8906 67.3159,320.2188 Q66.6909,320.5469 66.1909,321.2969 Q65.7065,322.0469 65.7065,323.0781 L65.7065,324.1719 Q65.7065,325.4063 66.5972,326.2344 Q67.4878,327.0469 69.0815,327.0469 Q70.019,327.0469 70.6753,326.7969 Q71.0659,326.6406 71.4878,326.2031 Q71.7534,325.9375 71.894,325.8594 Q72.0503,325.7813 72.2534,325.7813 Q72.5815,325.7813 72.8315,326.0469 Q73.0972,326.2969 73.0972,326.6406 Q73.0972,326.9844 72.7534,327.3906 Q72.2534,327.9688 71.4565,328.2969 Q70.3784,328.75 69.0815,328.75 Q67.5659,328.75 66.3628,328.125 Q65.3784,327.625 64.6909,326.5625 Q64.0034,325.4844 64.0034,324.2031 L64.0034,323.0469 Q64.0034,321.7188 64.6128,320.5781 Q65.2378,319.4219 66.3315,318.8125 Q67.4253,318.1875 68.6597,318.1875 Q69.394,318.1875 70.0347,318.3594 Q70.6909,318.5156 71.2378,318.875 Z " fill="#000000"/><text fill="#000000" font-family="sans-serif" font-size="14" lengthAdjust="spacing" textLength="179.7646" x="88.9722" y="328.7969">JpaShowProposalRepository</text><line style="stroke:#181818;stroke-width:0.5;" x1="8" x2="317.209" y1="339" y2="339"/><line style="stroke:#181818;stroke-width:0.5;" x1="8" x2="317.209" y1="347" y2="347"/><text fill="#000000" font-family="sans-serif" font-size="14" lengthAdjust="spacing" textLength="299.209" x="13" y="366.1074">+ofIdentity(id: ShowProposalID) : ShowProposal</text><text fill="#000000" font-family="sans-serif" font-size="14" lengthAdjust="spacing" textLength="236.1816" x="13" y="384.7285">+save(proposal: ShowProposal) : void</text></g><!--class DroneRepository--><g id="elem_DroneRepository"><rect codeLine="33" fill="#F1F1F1" height="66.6211" id="DroneRepository" rx="2.5" ry="2.5" style="stroke:#181818;stroke-width:0.5;" width="511.9805" x="353.5" y="498.5"/><ellipse cx="552.7163" cy="514.5" fill="#B4A7E5" rx="11" ry="11" style="stroke:#181818;stroke-width:1.0;"/><path d="M553.6694,511.1406 L553.6694,517.7969 L555.3882,517.7969 Q555.9976,517.7969 556.2632,518.0313 Q556.5288,518.2656 556.5288,518.6563 Q556.5288,519.0313 556.2632,519.2656 Q555.9976,519.5 555.3882,519.5 L550.2476,519.5 Q549.6382,519.5 549.3726,519.2656 Q549.1069,519.0313 549.1069,518.6406 Q549.1069,518.2656 549.3726,518.0313 Q549.6382,517.7969 550.2476,517.7969 L551.9663,517.7969 L551.9663,511.1406 L550.2476,511.1406 Q549.6382,511.1406 549.3726,510.9063 Q549.1069,510.6719 549.1069,510.2813 Q549.1069,509.9063 549.3726,509.6719 Q549.6382,509.4375 550.2476,509.4375 L555.3882,509.4375 Q555.9976,509.4375 556.2632,509.6719 Q556.5288,509.9063 556.5288,510.2813 Q556.5288,510.6719 556.2632,510.9063 Q555.9976,511.1406 555.3882,511.1406 L553.6694,511.1406 Z " fill="#000000"/><text fill="#000000" font-family="sans-serif" font-size="14" font-style="italic" lengthAdjust="spacing" textLength="105.0479" x="573.2163" y="520.2969">DroneRepository</text><line style="stroke:#181818;stroke-width:0.5;" x1="354.5" x2="864.4805" y1="530.5" y2="530.5"/><line style="stroke:#181818;stroke-width:0.5;" x1="354.5" x2="864.4805" y1="538.5" y2="538.5"/><text fill="#000000" font-family="sans-serif" font-size="14" lengthAdjust="spacing" textLength="499.9805" x="359.5" y="557.6074">+findByModelAndStatus(model: DroneModel, status: DroneStatus) : List&lt;Drone&gt;</text></g><!--class DroneModelRepository--><g id="elem_DroneModelRepository"><rect codeLine="37" fill="#F1F1F1" height="85.2422" id="DroneModelRepository" rx="2.5" ry="2.5" style="stroke:#181818;stroke-width:0.5;" width="413.9326" x="900.5" y="489.5"/><ellipse cx="1031.627" cy="505.5" fill="#B4A7E5" rx="11" ry="11" style="stroke:#181818;stroke-width:1.0;"/><path d="M1032.5801,502.1406 L1032.5801,508.7969 L1034.2988,508.7969 Q1034.9082,508.7969 1035.1738,509.0313 Q1035.4395,509.2656 1035.4395,509.6563 Q1035.4395,510.0313 1035.1738,510.2656 Q1034.9082,510.5 1034.2988,510.5 L1029.1582,510.5 Q1028.5488,510.5 1028.2832,510.2656 Q1028.0176,510.0313 1028.0176,509.6406 Q1028.0176,509.2656 1028.2832,509.0313 Q1028.5488,508.7969 1029.1582,508.7969 L1030.877,508.7969 L1030.877,502.1406 L1029.1582,502.1406 Q1028.5488,502.1406 1028.2832,501.9063 Q1028.0176,501.6719 1028.0176,501.2813 Q1028.0176,500.9063 1028.2832,500.6719 Q1028.5488,500.4375 1029.1582,500.4375 L1034.2988,500.4375 Q1034.9082,500.4375 1035.1738,500.6719 Q1035.4395,500.9063 1035.4395,501.2813 Q1035.4395,501.6719 1035.1738,501.9063 Q1034.9082,502.1406 1034.2988,502.1406 L1032.5801,502.1406 Z " fill="#000000"/><text fill="#000000" font-family="sans-serif" font-size="14" font-style="italic" lengthAdjust="spacing" textLength="143.1787" x="1052.127" y="511.2969">DroneModelRepository</text><line style="stroke:#181818;stroke-width:0.5;" x1="901.5" x2="1313.4326" y1="521.5" y2="521.5"/><line style="stroke:#181818;stroke-width:0.5;" x1="901.5" x2="1313.4326" y1="529.5" y2="529.5"/><text fill="#000000" font-family="sans-serif" font-size="14" lengthAdjust="spacing" textLength="249.3887" x="906.5" y="548.6074">+findByActiveTrue() : List&lt;DroneModel&gt;</text><text fill="#000000" font-family="sans-serif" font-size="14" lengthAdjust="spacing" textLength="401.9326" x="906.5" y="567.2285">+findByNameIgnoreCase(name: String) : Optional&lt;DroneModel&gt;</text></g><!--class AvailableDroneModelDTO--><g id="elem_AvailableDroneModelDTO"><rect codeLine="42" fill="#F1F1F1" height="141.1055" id="AvailableDroneModelDTO" rx="2.5" ry="2.5" style="stroke:#181818;stroke-width:0.5;" width="194.627" x="1746" y="644"/><ellipse cx="1761" cy="660" fill="#ADD1B2" rx="11" ry="11" style="stroke:#181818;stroke-width:1.0;"/><path d="M1763.7656,655.875 Q1763.9219,655.6563 1764.1094,655.5469 Q1764.2969,655.4375 1764.5156,655.4375 Q1764.8906,655.4375 1765.125,655.7031 Q1765.3594,655.9531 1765.3594,656.5625 L1765.3594,658.0156 Q1765.3594,658.625 1765.125,658.8906 Q1764.8906,659.1563 1764.5156,659.1563 Q1764.1719,659.1563 1763.9688,658.9531 Q1763.7656,658.7656 1763.6563,658.25 Q1763.6094,657.8906 1763.4219,657.7031 Q1763.0938,657.3281 1762.4844,657.1094 Q1761.875,656.8906 1761.25,656.8906 Q1760.4844,656.8906 1759.8438,657.2188 Q1759.2188,657.5469 1758.7188,658.2969 Q1758.2344,659.0469 1758.2344,660.0781 L1758.2344,661.1719 Q1758.2344,662.4063 1759.125,663.2344 Q1760.0156,664.0469 1761.6094,664.0469 Q1762.5469,664.0469 1763.2031,663.7969 Q1763.5938,663.6406 1764.0156,663.2031 Q1764.2813,662.9375 1764.4219,662.8594 Q1764.5781,662.7813 1764.7813,662.7813 Q1765.1094,662.7813 1765.3594,663.0469 Q1765.625,663.2969 1765.625,663.6406 Q1765.625,663.9844 1765.2813,664.3906 Q1764.7813,664.9688 1763.9844,665.2969 Q1762.9063,665.75 1761.6094,665.75 Q1760.0938,665.75 1758.8906,665.125 Q1757.9063,664.625 1757.2188,663.5625 Q1756.5313,662.4844 1756.5313,661.2031 L1756.5313,660.0469 Q1756.5313,658.7188 1757.1406,657.5781 Q1757.7656,656.4219 1758.8594,655.8125 Q1759.9531,655.1875 1761.1875,655.1875 Q1761.9219,655.1875 1762.5625,655.3594 Q1763.2188,655.5156 1763.7656,655.875 Z " fill="#000000"/><text fill="#000000" font-family="sans-serif" font-size="14" lengthAdjust="spacing" textLength="162.627" x="1775" y="665.7969">AvailableDroneModelDTO</text><line style="stroke:#181818;stroke-width:0.5;" x1="1747" x2="1939.627" y1="676" y2="676"/><text fill="#000000" font-family="sans-serif" font-size="14" lengthAdjust="spacing" textLength="128.3789" x="1752" y="695.1074">-modelName : String</text><text fill="#000000" font-family="sans-serif" font-size="14" lengthAdjust="spacing" textLength="138.5166" x="1752" y="713.7285">-availableQuantity : int</text><text fill="#000000" font-family="sans-serif" font-size="14" lengthAdjust="spacing" textLength="135.3994" x="1752" y="732.3496">-selectedQuantity : int</text><line style="stroke:#181818;stroke-width:0.5;" x1="1747" x2="1939.627" y1="739.8633" y2="739.8633"/><text fill="#000000" font-family="sans-serif" font-size="14" lengthAdjust="spacing" textLength="160.6787" x="1752" y="758.9707">+getModelName() : String</text><text fill="#000000" font-family="sans-serif" font-size="14" lengthAdjust="spacing" textLength="170.0371" x="1752" y="777.5918">+getSelectedQuantity() : int</text></g><!--class ShowProposal--><g id="elem_ShowProposal"><rect codeLine="50" fill="#F1F1F1" height="103.8633" id="ShowProposal" rx="2.5" ry="2.5" style="stroke:#181818;stroke-width:0.5;" width="375.0156" x="1350" y="480"/><ellipse cx="1488.1201" cy="496" fill="#ADD1B2" rx="11" ry="11" style="stroke:#181818;stroke-width:1.0;"/><path d="M1490.8857,491.875 Q1491.042,491.6563 1491.2295,491.5469 Q1491.417,491.4375 1491.6357,491.4375 Q1492.0107,491.4375 1492.2451,491.7031 Q1492.4795,491.9531 1492.4795,492.5625 L1492.4795,494.0156 Q1492.4795,494.625 1492.2451,494.8906 Q1492.0107,495.1563 1491.6357,495.1563 Q1491.292,495.1563 1491.0889,494.9531 Q1490.8857,494.7656 1490.7764,494.25 Q1490.7295,493.8906 1490.542,493.7031 Q1490.2139,493.3281 1489.6045,493.1094 Q1488.9951,492.8906 1488.3701,492.8906 Q1487.6045,492.8906 1486.9639,493.2188 Q1486.3389,493.5469 1485.8389,494.2969 Q1485.3545,495.0469 1485.3545,496.0781 L1485.3545,497.1719 Q1485.3545,498.4063 1486.2451,499.2344 Q1487.1357,500.0469 1488.7295,500.0469 Q1489.667,500.0469 1490.3232,499.7969 Q1490.7139,499.6406 1491.1357,499.2031 Q1491.4014,498.9375 1491.542,498.8594 Q1491.6982,498.7813 1491.9014,498.7813 Q1492.2295,498.7813 1492.4795,499.0469 Q1492.7451,499.2969 1492.7451,499.6406 Q1492.7451,499.9844 1492.4014,500.3906 Q1491.9014,500.9688 1491.1045,501.2969 Q1490.0264,501.75 1488.7295,501.75 Q1487.2139,501.75 1486.0107,501.125 Q1485.0264,500.625 1484.3389,499.5625 Q1483.6514,498.4844 1483.6514,497.2031 L1483.6514,496.0469 Q1483.6514,494.7188 1484.2607,493.5781 Q1484.8857,492.4219 1485.9795,491.8125 Q1487.0732,491.1875 1488.3076,491.1875 Q1489.042,491.1875 1489.6826,491.3594 Q1490.3389,491.5156 1490.8857,491.875 Z " fill="#000000"/><text fill="#000000" font-family="sans-serif" font-size="14" lengthAdjust="spacing" textLength="90.2754" x="1508.6201" y="501.7969">ShowProposal</text><line style="stroke:#181818;stroke-width:0.5;" x1="1351" x2="1724.0156" y1="512" y2="512"/><text fill="#000000" font-family="sans-serif" font-size="14" lengthAdjust="spacing" textLength="187.5439" x="1356" y="531.1074">-drones : List&lt;DroneQuantity&gt;</text><line style="stroke:#181818;stroke-width:0.5;" x1="1351" x2="1724.0156" y1="538.6211" y2="538.6211"/><text fill="#000000" font-family="sans-serif" font-size="14" lengthAdjust="spacing" textLength="363.0156" x="1356" y="557.7285">+addDronesOfModel(model: DroneModel, count: int) : void</text><text fill="#000000" font-family="sans-serif" font-size="14" lengthAdjust="spacing" textLength="222.168" x="1356" y="576.3496">+getDrones() : List&lt;DroneQuantity&gt;</text></g><!--class DroneQuantity--><g id="elem_DroneQuantity"><rect codeLine="56" fill="#F1F1F1" height="122.4844" id="DroneQuantity" rx="2.5" ry="2.5" style="stroke:#181818;stroke-width:0.5;" width="213.1543" x="1326" y="653.5"/><ellipse cx="1383.1929" cy="669.5" fill="#ADD1B2" rx="11" ry="11" style="stroke:#181818;stroke-width:1.0;"/><path d="M1385.9585,665.375 Q1386.1147,665.1563 1386.3022,665.0469 Q1386.4897,664.9375 1386.7085,664.9375 Q1387.0835,664.9375 1387.3179,665.2031 Q1387.5522,665.4531 1387.5522,666.0625 L1387.5522,667.5156 Q1387.5522,668.125 1387.3179,668.3906 Q1387.0835,668.6563 1386.7085,668.6563 Q1386.3647,668.6563 1386.1616,668.4531 Q1385.9585,668.2656 1385.8491,667.75 Q1385.8022,667.3906 1385.6147,667.2031 Q1385.2866,666.8281 1384.6772,666.6094 Q1384.0679,666.3906 1383.4429,666.3906 Q1382.6772,666.3906 1382.0366,666.7188 Q1381.4116,667.0469 1380.9116,667.7969 Q1380.4272,668.5469 1380.4272,669.5781 L1380.4272,670.6719 Q1380.4272,671.9063 1381.3179,672.7344 Q1382.2085,673.5469 1383.8022,673.5469 Q1384.7397,673.5469 1385.396,673.2969 Q1385.7866,673.1406 1386.2085,672.7031 Q1386.4741,672.4375 1386.6147,672.3594 Q1386.771,672.2813 1386.9741,672.2813 Q1387.3022,672.2813 1387.5522,672.5469 Q1387.8179,672.7969 1387.8179,673.1406 Q1387.8179,673.4844 1387.4741,673.8906 Q1386.9741,674.4688 1386.1772,674.7969 Q1385.0991,675.25 1383.8022,675.25 Q1382.2866,675.25 1381.0835,674.625 Q1380.0991,674.125 1379.4116,673.0625 Q1378.7241,671.9844 1378.7241,670.7031 L1378.7241,669.5469 Q1378.7241,668.2188 1379.3335,667.0781 Q1379.9585,665.9219 1381.0522,665.3125 Q1382.146,664.6875 1383.3804,664.6875 Q1384.1147,664.6875 1384.7554,664.8594 Q1385.4116,665.0156 1385.9585,665.375 Z " fill="#000000"/><text fill="#000000" font-family="sans-serif" font-size="14" lengthAdjust="spacing" textLength="90.2686" x="1403.6929" y="675.2969">DroneQuantity</text><line style="stroke:#181818;stroke-width:0.5;" x1="1327" x2="1538.1543" y1="685.5" y2="685.5"/><text fill="#000000" font-family="sans-serif" font-size="14" lengthAdjust="spacing" textLength="166.5303" x="1332" y="704.6074">-droneModel : DroneModel</text><text fill="#000000" font-family="sans-serif" font-size="14" lengthAdjust="spacing" textLength="80.1514" x="1332" y="723.2285">-quantity : int</text><line style="stroke:#181818;stroke-width:0.5;" x1="1327" x2="1538.1543" y1="730.7422" y2="730.7422"/><text fill="#000000" font-family="sans-serif" font-size="14" lengthAdjust="spacing" textLength="201.1543" x="1332" y="749.8496">+getDroneModel() : DroneModel</text><text fill="#000000" font-family="sans-serif" font-size="14" lengthAdjust="spacing" textLength="115.5547" x="1332" y="768.4707">+getQuantity() : int</text></g><!--class DroneModel--><g id="elem_DroneModel"><rect codeLine="63" fill="#F1F1F1" height="85.2422" id="DroneModel" rx="2.5" ry="2.5" style="stroke:#181818;stroke-width:0.5;" width="108.2617" x="1789.5" y="845"/><ellipse cx="1804.5" cy="861" fill="#ADD1B2" rx="11" ry="11" style="stroke:#181818;stroke-width:1.0;"/><path d="M1807.2656,856.875 Q1807.4219,856.6563 1807.6094,856.5469 Q1807.7969,856.4375 1808.0156,856.4375 Q1808.3906,856.4375 1808.625,856.7031 Q1808.8594,856.9531 1808.8594,857.5625 L1808.8594,859.0156 Q1808.8594,859.625 1808.625,859.8906 Q1808.3906,860.1563 1808.0156,860.1563 Q1807.6719,860.1563 1807.4688,859.9531 Q1807.2656,859.7656 1807.1563,859.25 Q1807.1094,858.8906 1806.9219,858.7031 Q1806.5938,858.3281 1805.9844,858.1094 Q1805.375,857.8906 1804.75,857.8906 Q1803.9844,857.8906 1803.3438,858.2188 Q1802.7188,858.5469 1802.2188,859.2969 Q1801.7344,860.0469 1801.7344,861.0781 L1801.7344,862.1719 Q1801.7344,863.4063 1802.625,864.2344 Q1803.5156,865.0469 1805.1094,865.0469 Q1806.0469,865.0469 1806.7031,864.7969 Q1807.0938,864.6406 1807.5156,864.2031 Q1807.7813,863.9375 1807.9219,863.8594 Q1808.0781,863.7813 1808.2813,863.7813 Q1808.6094,863.7813 1808.8594,864.0469 Q1809.125,864.2969 1809.125,864.6406 Q1809.125,864.9844 1808.7813,865.3906 Q1808.2813,865.9688 1807.4844,866.2969 Q1806.4063,866.75 1805.1094,866.75 Q1803.5938,866.75 1802.3906,866.125 Q1801.4063,865.625 1800.7188,864.5625 Q1800.0313,863.4844 1800.0313,862.2031 L1800.0313,861.0469 Q1800.0313,859.7188 1800.6406,858.5781 Q1801.2656,857.4219 1802.3594,856.8125 Q1803.4531,856.1875 1804.6875,856.1875 Q1805.4219,856.1875 1806.0625,856.3594 Q1806.7188,856.5156 1807.2656,856.875 Z " fill="#000000"/><text fill="#000000" font-family="sans-serif" font-size="14" lengthAdjust="spacing" textLength="76.2617" x="1818.5" y="866.7969">DroneModel</text><line style="stroke:#181818;stroke-width:0.5;" x1="1790.5" x2="1896.7617" y1="877" y2="877"/><text fill="#000000" font-family="sans-serif" font-size="14" lengthAdjust="spacing" textLength="63.7998" x="1795.5" y="896.1074">-id : String</text><text fill="#000000" font-family="sans-serif" font-size="14" lengthAdjust="spacing" textLength="87.9238" x="1795.5" y="914.7285">-name : String</text><line style="stroke:#181818;stroke-width:0.5;" x1="1790.5" x2="1896.7617" y1="922.2422" y2="922.2422"/></g><!--class Drone--><g id="elem_Drone"><rect codeLine="68" fill="#F1F1F1" height="103.8633" id="Drone" rx="2.5" ry="2.5" style="stroke:#181818;stroke-width:0.5;" width="143.5029" x="1976.5" y="662.5"/><ellipse cx="2024.936" cy="678.5" fill="#ADD1B2" rx="11" ry="11" style="stroke:#181818;stroke-width:1.0;"/><path d="M2027.7017,674.375 Q2027.8579,674.1563 2028.0454,674.0469 Q2028.2329,673.9375 2028.4517,673.9375 Q2028.8267,673.9375 2029.061,674.2031 Q2029.2954,674.4531 2029.2954,675.0625 L2029.2954,676.5156 Q2029.2954,677.125 2029.061,677.3906 Q2028.8267,677.6563 2028.4517,677.6563 Q2028.1079,677.6563 2027.9048,677.4531 Q2027.7017,677.2656 2027.5923,676.75 Q2027.5454,676.3906 2027.3579,676.2031 Q2027.0298,675.8281 2026.4204,675.6094 Q2025.811,675.3906 2025.186,675.3906 Q2024.4204,675.3906 2023.7798,675.7188 Q2023.1548,676.0469 2022.6548,676.7969 Q2022.1704,677.5469 2022.1704,678.5781 L2022.1704,679.6719 Q2022.1704,680.9063 2023.061,681.7344 Q2023.9517,682.5469 2025.5454,682.5469 Q2026.4829,682.5469 2027.1392,682.2969 Q2027.5298,682.1406 2027.9517,681.7031 Q2028.2173,681.4375 2028.3579,681.3594 Q2028.5142,681.2813 2028.7173,681.2813 Q2029.0454,681.2813 2029.2954,681.5469 Q2029.561,681.7969 2029.561,682.1406 Q2029.561,682.4844 2029.2173,682.8906 Q2028.7173,683.4688 2027.9204,683.7969 Q2026.8423,684.25 2025.5454,684.25 Q2024.0298,684.25 2022.8267,683.625 Q2021.8423,683.125 2021.1548,682.0625 Q2020.4673,680.9844 2020.4673,679.7031 L2020.4673,678.5469 Q2020.4673,677.2188 2021.0767,676.0781 Q2021.7017,674.9219 2022.7954,674.3125 Q2023.8892,673.6875 2025.1235,673.6875 Q2025.8579,673.6875 2026.4985,673.8594 Q2027.1548,674.0156 2027.7017,674.375 Z " fill="#000000"/><text fill="#000000" font-family="sans-serif" font-size="14" lengthAdjust="spacing" textLength="38.1309" x="2045.436" y="684.2969">Drone</text><line style="stroke:#181818;stroke-width:0.5;" x1="1977.5" x2="2119.0029" y1="694.5" y2="694.5"/><text fill="#000000" font-family="sans-serif" font-size="14" lengthAdjust="spacing" textLength="63.7998" x="1982.5" y="713.6074">-id : String</text><text fill="#000000" font-family="sans-serif" font-size="14" lengthAdjust="spacing" textLength="131.5029" x="1982.5" y="732.2285">-status : DroneStatus</text><text fill="#000000" font-family="sans-serif" font-size="14" lengthAdjust="spacing" textLength="130.7236" x="1982.5" y="750.8496">-model : DroneModel</text><line style="stroke:#181818;stroke-width:0.5;" x1="1977.5" x2="2119.0029" y1="758.3633" y2="758.3633"/></g><!--class DroneStatus--><g id="elem_DroneStatus"><rect codeLine="74" fill="#F1F1F1" height="85.2422" id="DroneStatus" rx="2.5" ry="2.5" style="stroke:#181818;stroke-width:0.5;" width="109.8203" x="1993.5" y="845"/><ellipse cx="2008.5" cy="861" fill="#EB937F" rx="11" ry="11" style="stroke:#181818;stroke-width:1.0;"/><path d="M2007.3594,861.7969 L2007.3594,864.2969 L2011.6875,864.2969 L2011.6875,863.375 Q2011.6875,862.7656 2011.9219,862.5 Q2012.1719,862.2344 2012.5469,862.2344 Q2012.9219,862.2344 2013.1563,862.5 Q2013.3906,862.7656 2013.3906,863.375 L2013.3906,866 L2005.3906,866 Q2004.7656,866 2004.5,865.7656 Q2004.25,865.5313 2004.25,865.1406 Q2004.25,864.7656 2004.5156,864.5313 Q2004.7813,864.2969 2005.3906,864.2969 L2005.6563,864.2969 L2005.6563,857.6406 L2005.3906,857.6406 Q2004.7656,857.6406 2004.5,857.4063 Q2004.25,857.1719 2004.25,856.7813 Q2004.25,856.4063 2004.5,856.1719 Q2004.7656,855.9375 2005.3906,855.9375 L2013.0156,855.9375 L2013.0156,858.5313 Q2013.0156,859.1406 2012.7813,859.4063 Q2012.5625,859.6563 2012.1719,859.6563 Q2011.7969,859.6563 2011.5625,859.4063 Q2011.3281,859.1406 2011.3281,858.5313 L2011.3281,857.6406 L2007.3594,857.6406 L2007.3594,860.0938 L2008.8438,860.0938 Q2008.8438,859.4375 2008.9688,859.25 Q2009.2344,858.8438 2009.7031,858.8438 Q2010.0781,858.8438 2010.3125,859.1094 Q2010.5469,859.3594 2010.5469,859.9688 L2010.5469,861.9375 Q2010.5469,862.4844 2010.4219,862.6719 Q2010.1563,863.0625 2009.7031,863.0625 Q2009.2344,863.0625 2008.9688,862.6563 Q2008.8438,862.4688 2008.8438,861.7969 L2007.3594,861.7969 Z " fill="#000000"/><text fill="#000000" font-family="sans-serif" font-size="14" lengthAdjust="spacing" textLength="77.8203" x="2022.5" y="866.7969">DroneStatus</text><line style="stroke:#181818;stroke-width:0.5;" x1="1994.5" x2="2102.3203" y1="877" y2="877"/><text fill="#000000" font-family="sans-serif" font-size="14" lengthAdjust="spacing" textLength="50.5654" x="1999.5" y="896.1074">ACTIVE</text><text fill="#000000" font-family="sans-serif" font-size="14" lengthAdjust="spacing" textLength="64.5654" x="1999.5" y="914.7285">INACTIVE</text><line style="stroke:#181818;stroke-width:0.5;" x1="1994.5" x2="2102.3203" y1="922.2422" y2="922.2422"/></g><!--class ShowProposalID--><g id="elem_ShowProposalID"><rect codeLine="79" fill="#F1F1F1" height="48" id="ShowProposalID" rx="2.5" ry="2.5" style="stroke:#181818;stroke-width:0.5;" width="136.2754" x="1574.5" y="690.5"/><ellipse cx="1589.5" cy="706.5" fill="#ADD1B2" rx="11" ry="11" style="stroke:#181818;stroke-width:1.0;"/><path d="M1592.2656,702.375 Q1592.4219,702.1563 1592.6094,702.0469 Q1592.7969,701.9375 1593.0156,701.9375 Q1593.3906,701.9375 1593.625,702.2031 Q1593.8594,702.4531 1593.8594,703.0625 L1593.8594,704.5156 Q1593.8594,705.125 1593.625,705.3906 Q1593.3906,705.6563 1593.0156,705.6563 Q1592.6719,705.6563 1592.4688,705.4531 Q1592.2656,705.2656 1592.1563,704.75 Q1592.1094,704.3906 1591.9219,704.2031 Q1591.5938,703.8281 1590.9844,703.6094 Q1590.375,703.3906 1589.75,703.3906 Q1588.9844,703.3906 1588.3438,703.7188 Q1587.7188,704.0469 1587.2188,704.7969 Q1586.7344,705.5469 1586.7344,706.5781 L1586.7344,707.6719 Q1586.7344,708.9063 1587.625,709.7344 Q1588.5156,710.5469 1590.1094,710.5469 Q1591.0469,710.5469 1591.7031,710.2969 Q1592.0938,710.1406 1592.5156,709.7031 Q1592.7813,709.4375 1592.9219,709.3594 Q1593.0781,709.2813 1593.2813,709.2813 Q1593.6094,709.2813 1593.8594,709.5469 Q1594.125,709.7969 1594.125,710.1406 Q1594.125,710.4844 1593.7813,710.8906 Q1593.2813,711.4688 1592.4844,711.7969 Q1591.4063,712.25 1590.1094,712.25 Q1588.5938,712.25 1587.3906,711.625 Q1586.4063,711.125 1585.7188,710.0625 Q1585.0313,708.9844 1585.0313,707.7031 L1585.0313,706.5469 Q1585.0313,705.2188 1585.6406,704.0781 Q1586.2656,702.9219 1587.3594,702.3125 Q1588.4531,701.6875 1589.6875,701.6875 Q1590.4219,701.6875 1591.0625,701.8594 Q1591.7188,702.0156 1592.2656,702.375 Z " fill="#000000"/><text fill="#000000" font-family="sans-serif" font-size="14" lengthAdjust="spacing" textLength="104.2754" x="1603.5" y="712.2969">ShowProposalID</text><line style="stroke:#181818;stroke-width:0.5;" x1="1575.5" x2="1709.7754" y1="722.5" y2="722.5"/><line style="stroke:#181818;stroke-width:0.5;" x1="1575.5" x2="1709.7754" y1="730.5" y2="730.5"/></g><!--link AddDronesToProposalUI to AddDronesToProposalController--><g id="link_AddDronesToProposalUI_AddDronesToProposalController"><path codeLine="81" d="M890.5,55.04 C890.5,71.5 890.5,88.3 890.5,108.96 " fill="none" id="AddDronesToProposalUI-to-AddDronesToProposalController" style="stroke:#181818;stroke-width:1.0;"/><polygon fill="#181818" points="890.5,114.96,894.5,105.96,890.5,109.96,886.5,105.96,890.5,114.96" style="stroke:#181818;stroke-width:1.0;"/></g><!--link AddDronesToProposalController to AddDronesToProposalService--><g id="link_AddDronesToProposalController_AddDronesToProposalService"><path codeLine="82" d="M890.5,219.24 C890.5,237.79 890.5,253.07 890.5,272.93 " fill="none" id="AddDronesToProposalController-to-AddDronesToProposalService" style="stroke:#181818;stroke-width:1.0;"/><polygon fill="#181818" points="890.5,278.93,894.5,269.93,890.5,273.93,886.5,269.93,890.5,278.93" style="stroke:#181818;stroke-width:1.0;"/></g><!--link AddDronesToProposalService to ShowProposalRepository--><g id="link_AddDronesToProposalService_ShowProposalRepository"><path codeLine="83" d="M592.29,420.08 C460.77,450.77 335.5,480 335.5,480 C335.5,480 328.1355,482.1745 309.1255,487.7745 " fill="none" id="AddDronesToProposalService-to-ShowProposalRepository" style="stroke:#181818;stroke-width:1.0;"/><polygon fill="#181818" points="303.37,489.47,313.1335,490.7638,308.1662,488.0571,310.8729,483.0898,303.37,489.47" style="stroke:#181818;stroke-width:1.0;"/></g><!--link JpaShowProposalRepository to ShowProposalRepository--><g id="link_JpaShowProposalRepository_ShowProposalRepository"><path codeLine="84" d="M162.5,392.36 C162.5,421.52 162.5,442.25 162.5,471.36 " fill="none" id="JpaShowProposalRepository-to-ShowProposalRepository" style="stroke:#181818;stroke-width:1.0;stroke-dasharray:7.0,7.0;"/><polygon fill="none" points="162.5,489.36,168.5,471.36,156.5,471.36,162.5,489.36" style="stroke:#181818;stroke-width:1.0;"/></g><!--link AddDronesToProposalService to DroneModelRepository--><g id="link_AddDronesToProposalService_DroneModelRepository"><path codeLine="85" d="M974.09,420.03 C1002.26,443.47 1028.1975,465.0327 1052.9475,485.6227 " fill="none" id="AddDronesToProposalService-to-DroneModelRepository" style="stroke:#181818;stroke-width:1.0;"/><polygon fill="#181818" points="1057.56,489.46,1053.1994,480.6291,1053.7162,486.2623,1048.083,486.7791,1057.56,489.46" style="stroke:#181818;stroke-width:1.0;"/></g><!--link AddDronesToProposalService to DroneRepository--><g id="link_AddDronesToProposalService_DroneRepository"><path codeLine="86" d="M782.26,420.03 C740.36,446.94 699.4683,473.2073 665.4983,495.0273 " fill="none" id="AddDronesToProposalService-to-DroneRepository" style="stroke:#181818;stroke-width:1.0;"/><polygon fill="#181818" points="660.45,498.27,670.1842,496.7715,664.6569,495.5678,665.8606,490.0405,660.45,498.27" style="stroke:#181818;stroke-width:1.0;"/></g><!--link AddDronesToProposalService to ShowProposal--><g id="link_AddDronesToProposalService_ShowProposal"><path codeLine="87" d="M1139.72,420.03 C1211.1,439.94 1281.7907,459.6576 1348.4207,478.2476 " fill="none" id="AddDronesToProposalService-to-ShowProposal" style="stroke:#181818;stroke-width:1.0;"/><polygon fill="#181818" points="1354.2,479.86,1346.606,473.5885,1349.3839,478.5163,1344.4561,481.2942,1354.2,479.86" style="stroke:#181818;stroke-width:1.0;"/></g><!--link ShowProposal to ShowProposalID--><g id="link_ShowProposal_ShowProposalID"><path codeLine="88" d="M1567.31,584.24 C1587.56,619.05 1610.3737,658.2633 1625.8837,684.9333 " fill="none" id="ShowProposal-to-ShowProposalID" style="stroke:#181818;stroke-width:1.0;"/><polygon fill="#181818" points="1628.9,690.12,1627.8333,680.3291,1626.3864,685.7978,1620.9177,684.3509,1628.9,690.12" style="stroke:#181818;stroke-width:1.0;"/></g><!--link ShowProposal to DroneQuantity--><g id="link_ShowProposal_DroneQuantity"><path codeLine="89" d="M1507.69,584.24 C1495.2,605.71 1483.6067,625.6435 1470.6067,647.9935 " fill="none" id="ShowProposal-to-DroneQuantity" style="stroke:#181818;stroke-width:1.0;"/><polygon fill="#181818" points="1467.59,653.18,1475.5727,647.4115,1470.1039,648.858,1468.6575,643.3892,1467.59,653.18" style="stroke:#181818;stroke-width:1.0;"/></g><!--link DroneQuantity to DroneModel--><g id="link_DroneQuantity_DroneModel"><path codeLine="90" d="M1539.06,774.75 C1550.17,780.92 1557.5,785 1557.5,785 C1557.5,785 1700.7956,835.8531 1783.7156,865.2831 " fill="none" id="DroneQuantity-to-DroneModel" style="stroke:#181818;stroke-width:1.0;"/><polygon fill="#181818" points="1789.37,867.29,1782.2263,860.5101,1784.658,865.6176,1779.5505,868.0493,1789.37,867.29" style="stroke:#181818;stroke-width:1.0;"/></g><!--link Drone to DroneModel--><g id="link_Drone_DroneModel"><path codeLine="91" d="M1987.27,766.57 C1957.3,791.57 1926.2973,817.4365 1898.0073,841.0365 " fill="none" id="Drone-to-DroneModel" style="stroke:#181818;stroke-width:1.0;"/><polygon fill="#181818" points="1893.4,844.88,1902.8733,842.1863,1897.2394,841.6771,1897.7486,836.0432,1893.4,844.88" style="stroke:#181818;stroke-width:1.0;"/></g><!--link Drone to DroneStatus--><g id="link_Drone_DroneStatus"><path codeLine="92" d="M2048.5,766.81 C2048.5,791.79 2048.5,815.45 2048.5,838.99 " fill="none" id="Drone-to-DroneStatus" style="stroke:#181818;stroke-width:1.0;"/><polygon fill="#181818" points="2048.5,844.99,2052.5,835.99,2048.5,839.99,2044.5,835.99,2048.5,844.99" style="stroke:#181818;stroke-width:1.0;"/></g><!--link AvailableDroneModelDTO to DroneModel--><g id="link_AvailableDroneModelDTO_DroneModel"><path codeLine="93" d="M1843.5,785.05 C1843.5,805.39 1843.5,820.99 1843.5,839 " fill="none" id="AvailableDroneModelDTO-to-DroneModel" style="stroke:#181818;stroke-width:1.0;"/><polygon fill="#181818" points="1843.5,845,1847.5,836,1843.5,840,1839.5,836,1843.5,845" style="stroke:#181818;stroke-width:1.0;"/></g><!--SRC=[pLNBRjmW5DtxArWwoaDTHzL8xamMhffCMq-x9-QEWyA0Q_14xkFVYw_n0x-INRiovfnptu1-vZAd1JsHdARFD8F4L0980QcXCXCGw8wWdoXJBrncv4Y57YA2Ip1L3YHNegf_1bWggDQHCGL_B0t4gP89_mdaNH0WGYB6TeMIe0_gSw5ofQdu5fDVmPyLmbP9KoWXeB14Ggw9XkBCKo2tS-oa0ItnqaQgJNIcND170KYyLmo43Y-izfC5ty-WkyD-WsewDHxcRX6pMv8ygPSMY7TNX25vtN3j-AmuMqtOfU2oRLr-1VlXHXKLyNtt0F8n38-yytTw5eOrfOwsiHWP_CULvD90SQIsPFDrmKfU4dMC6KZ3JHNoYTUBKLLHeUaPkaXzVDh9ZpdzD-xxz4UTTewFNB8F5LOkaYmnr9GwFDM_muPV4Os8ssjeNNjnRpFZRJn3GvTHQlWP3aK9eMy8HPi1yu6U8CwaAc1BDOJI_jfyxJKYirgvpmrNaWfFtH-XsGbnnmVphCsJrY1kqrRpfQJO4mlRpDpz8ko526m2uJ6uRmrYJfr9n9AH4Ycrjejrs4CNOJFjNdrQ_UZux8_eVAvtgIgbGL_TPBYO6kce0Rs3BZ9lVnWQUl3k1iH-p5Qd9w57JuE4vTBqNEUTCxzdqkkYhrkGD2DDl9dkny8Fq1e4MPw6LBGQRG_nzpkxY1_SShQRyIu8vf-tw-lD-hiMhBzw2_hsfLjvGMhbmbEnV5lTtFnULBtYQ_RvU8lcxNJlalHEqnYr3PdWtf07_iZx2JJWAvjke1Oke97sBm00]--></g></svg>