<svg xmlns="http://www.w3.org/2000/svg" xmlns:xlink="http://www.w3.org/1999/xlink" contentStyleType="text/css" height="929.7px" preserveAspectRatio="none" style="width:1928px;height:929px;background:#FFFFFF;" version="1.1" viewBox="0 0 1928 929" width="1928.7px" zoomAndPan="magnify"><defs/><g><rect fill="#FFFFFF" height="763.0717" style="stroke:#181818;stroke-width:0.9;" width="9" x="53.1154" y="84.259"/><rect fill="#FFFFFF" height="734.0098" style="stroke:#181818;stroke-width:0.9;" width="9" x="455.7331" y="105.2209"/><rect fill="#FFFFFF" height="677.6859" style="stroke:#181818;stroke-width:0.9;" width="9" x="750.3886" y="133.3828"/><rect fill="#FFFFFF" height="140.8096" style="stroke:#181818;stroke-width:0.9;" width="9" x="1040.5441" y="161.5447"/><rect fill="#FFFFFF" height="339.743" style="stroke:#181818;stroke-width:0.9;" width="9" x="1040.5441" y="443.1639"/><rect fill="#FFFFFF" height="28.1619" style="stroke:#181818;stroke-width:0.9;" width="9" x="1271.6231" y="471.3258"/><rect fill="#FFFFFF" height="28.1619" style="stroke:#181818;stroke-width:0.9;" width="9" x="1271.6231" y="726.583"/><rect fill="#FFFFFF" height="28.1619" style="stroke:#181818;stroke-width:0.9;" width="9" x="1465.2312" y="246.0305"/><rect fill="#FFFFFF" height="28.1619" style="stroke:#181818;stroke-width:0.9;" width="9" x="1465.2312" y="607.6354"/><rect fill="#FFFFFF" height="28.1619" style="stroke:#181818;stroke-width:0.9;" width="9" x="1652.5332" y="189.7066"/><rect fill="#FFFFFF" height="28.1619" style="stroke:#181818;stroke-width:0.9;" width="9" x="1652.5332" y="551.3115"/><rect fill="#FFFFFF" height="28.1619" style="stroke:#181818;stroke-width:0.9;" width="9" x="1834.9378" y="663.9592"/><rect fill="none" height="186.3334" style="stroke:#000000;stroke-width:1.35;" width="1006.1104" x="918.0018" y="512.9877"/><line style="stroke:#181818;stroke-width:0.45;stroke-dasharray:5.0,5.0;" x1="57.6" x2="57.6" y1="75.259" y2="855.4307"/><line style="stroke:#181818;stroke-width:0.45;stroke-dasharray:5.0,5.0;" x1="459.4979" x2="459.4979" y1="75.259" y2="855.4307"/><line style="stroke:#181818;stroke-width:0.45;stroke-dasharray:5.0,5.0;" x1="754.7432" x2="754.7432" y1="75.259" y2="855.4307"/><line style="stroke:#181818;stroke-width:0.45;stroke-dasharray:5.0,5.0;" x1="1044.9018" x2="1044.9018" y1="75.259" y2="855.4307"/><line style="stroke:#181818;stroke-width:0.45;stroke-dasharray:5.0,5.0;" x1="1275.5865" x2="1275.5865" y1="75.259" y2="855.4307"/><line style="stroke:#181818;stroke-width:0.45;stroke-dasharray:5.0,5.0;" x1="1469.2597" x2="1469.2597" y1="75.259" y2="855.4307"/><line style="stroke:#181818;stroke-width:0.45;stroke-dasharray:5.0,5.0;" x1="1656.5027" x2="1656.5027" y1="75.259" y2="855.4307"/><line style="stroke:#181818;stroke-width:0.45;stroke-dasharray:5.0,5.0;" x1="1839.3636" x2="1839.3636" y1="75.259" y2="855.4307"/><text fill="#000000" font-family="sans-serif" font-size="12.6" lengthAdjust="spacing" textLength="100.8308" x="4.5" y="72.0967">CRM Collaborator</text><ellipse cx="57.6154" cy="12.15" fill="#E2E2F0" rx="7.2" ry="7.2" style="stroke:#181818;stroke-width:0.45;"/><path d="M57.6154,19.35 L57.6154,43.65 M45.9154,26.55 L69.3154,26.55 M57.6154,43.65 L45.9154,57.15 M57.6154,43.65 L69.3154,57.15 " fill="none" style="stroke:#181818;stroke-width:0.45;"/><text fill="#000000" font-family="sans-serif" font-size="12.6" lengthAdjust="spacing" textLength="100.8308" x="4.5" y="868.1273">CRM Collaborator</text><ellipse cx="57.6154" cy="878.9396" fill="#E2E2F0" rx="7.2" ry="7.2" style="stroke:#181818;stroke-width:0.45;"/><path d="M57.6154,886.1396 L57.6154,910.4396 M45.9154,893.3396 L69.3154,893.3396 M57.6154,910.4396 L45.9154,923.9396 M57.6154,910.4396 L69.3154,923.9396 " fill="none" style="stroke:#181818;stroke-width:0.45;"/><rect fill="#E2E2F0" height="29.359" rx="2.25" ry="2.25" style="stroke:#181818;stroke-width:0.45;" width="152.6704" x="383.8979" y="45"/><text fill="#000000" font-family="sans-serif" font-size="12.6" lengthAdjust="spacing" textLength="140.0704" x="390.1979" y="64.8967">AddDronesToProposalUI</text><rect fill="#E2E2F0" height="29.359" rx="2.25" ry="2.25" style="stroke:#181818;stroke-width:0.45;" width="152.6704" x="383.8979" y="854.5307"/><text fill="#000000" font-family="sans-serif" font-size="12.6" lengthAdjust="spacing" textLength="140.0704" x="390.1979" y="874.4273">AddDronesToProposalUI</text><rect fill="#E2E2F0" height="29.359" rx="2.25" ry="2.25" style="stroke:#181818;stroke-width:0.45;" width="194.6909" x="657.5432" y="45"/><text fill="#000000" font-family="sans-serif" font-size="12.6" lengthAdjust="spacing" textLength="182.0909" x="663.8432" y="64.8967">AddDronesToProposalController</text><rect fill="#E2E2F0" height="29.359" rx="2.25" ry="2.25" style="stroke:#181818;stroke-width:0.45;" width="194.6909" x="657.5432" y="854.5307"/><text fill="#000000" font-family="sans-serif" font-size="12.6" lengthAdjust="spacing" textLength="182.0909" x="663.8432" y="874.4273">AddDronesToProposalController</text><rect fill="#E2E2F0" height="29.359" rx="2.25" ry="2.25" style="stroke:#181818;stroke-width:0.45;" width="182.0848" x="954.0018" y="45"/><text fill="#000000" font-family="sans-serif" font-size="12.6" lengthAdjust="spacing" textLength="169.4848" x="960.3018" y="64.8967">AddDronesToProposalService</text><rect fill="#E2E2F0" height="29.359" rx="2.25" ry="2.25" style="stroke:#181818;stroke-width:0.45;" width="182.0848" x="954.0018" y="854.5307"/><text fill="#000000" font-family="sans-serif" font-size="12.6" lengthAdjust="spacing" textLength="169.4848" x="960.3018" y="874.4273">AddDronesToProposalService</text><rect fill="#E2E2F0" height="29.359" rx="2.25" ry="2.25" style="stroke:#181818;stroke-width:0.45;" width="154.0731" x="1199.0865" y="45"/><text fill="#000000" font-family="sans-serif" font-size="12.6" lengthAdjust="spacing" textLength="141.4731" x="1205.3865" y="64.8967">ShowProposalRepository</text><rect fill="#E2E2F0" height="29.359" rx="2.25" ry="2.25" style="stroke:#181818;stroke-width:0.45;" width="154.0731" x="1199.0865" y="854.5307"/><text fill="#000000" font-family="sans-serif" font-size="12.6" lengthAdjust="spacing" textLength="141.4731" x="1205.3865" y="874.4273">ShowProposalRepository</text><rect fill="#E2E2F0" height="29.359" rx="2.25" ry="2.25" style="stroke:#181818;stroke-width:0.45;" width="107.1431" x="1416.1597" y="45"/><text fill="#000000" font-family="sans-serif" font-size="12.6" lengthAdjust="spacing" textLength="94.5431" x="1422.4597" y="64.8967">DroneRepository</text><rect fill="#E2E2F0" height="29.359" rx="2.25" ry="2.25" style="stroke:#181818;stroke-width:0.45;" width="107.1431" x="1416.1597" y="854.5307"/><text fill="#000000" font-family="sans-serif" font-size="12.6" lengthAdjust="spacing" textLength="94.5431" x="1422.4597" y="874.4273">DroneRepository</text><rect fill="#E2E2F0" height="29.359" rx="2.25" ry="2.25" style="stroke:#181818;stroke-width:0.45;" width="141.4608" x="1586.3027" y="45"/><text fill="#000000" font-family="sans-serif" font-size="12.6" lengthAdjust="spacing" textLength="128.8608" x="1592.6027" y="64.8967">DroneModelRepository</text><rect fill="#E2E2F0" height="29.359" rx="2.25" ry="2.25" style="stroke:#181818;stroke-width:0.45;" width="141.4608" x="1586.3027" y="854.5307"/><text fill="#000000" font-family="sans-serif" font-size="12.6" lengthAdjust="spacing" textLength="128.8608" x="1592.6027" y="874.4273">DroneModelRepository</text><rect fill="#E2E2F0" height="29.359" rx="2.25" ry="2.25" style="stroke:#181818;stroke-width:0.45;" width="97.3485" x="1790.7636" y="45"/><text fill="#000000" font-family="sans-serif" font-size="12.6" lengthAdjust="spacing" textLength="84.7485" x="1797.0636" y="64.8967">:ShowProposal</text><rect fill="#E2E2F0" height="29.359" rx="2.25" ry="2.25" style="stroke:#181818;stroke-width:0.45;" width="97.3485" x="1790.7636" y="854.5307"/><text fill="#000000" font-family="sans-serif" font-size="12.6" lengthAdjust="spacing" textLength="84.7485" x="1797.0636" y="874.4273">:ShowProposal</text><rect fill="#FFFFFF" height="763.0717" style="stroke:#181818;stroke-width:0.9;" width="9" x="53.1154" y="84.259"/><rect fill="#FFFFFF" height="734.0098" style="stroke:#181818;stroke-width:0.9;" width="9" x="455.7331" y="105.2209"/><rect fill="#FFFFFF" height="677.6859" style="stroke:#181818;stroke-width:0.9;" width="9" x="750.3886" y="133.3828"/><rect fill="#FFFFFF" height="140.8096" style="stroke:#181818;stroke-width:0.9;" width="9" x="1040.5441" y="161.5447"/><rect fill="#FFFFFF" height="339.743" style="stroke:#181818;stroke-width:0.9;" width="9" x="1040.5441" y="443.1639"/><rect fill="#FFFFFF" height="28.1619" style="stroke:#181818;stroke-width:0.9;" width="9" x="1271.6231" y="471.3258"/><rect fill="#FFFFFF" height="28.1619" style="stroke:#181818;stroke-width:0.9;" width="9" x="1271.6231" y="726.583"/><rect fill="#FFFFFF" height="28.1619" style="stroke:#181818;stroke-width:0.9;" width="9" x="1465.2312" y="246.0305"/><rect fill="#FFFFFF" height="28.1619" style="stroke:#181818;stroke-width:0.9;" width="9" x="1465.2312" y="607.6354"/><rect fill="#FFFFFF" height="28.1619" style="stroke:#181818;stroke-width:0.9;" width="9" x="1652.5332" y="189.7066"/><rect fill="#FFFFFF" height="28.1619" style="stroke:#181818;stroke-width:0.9;" width="9" x="1652.5332" y="551.3115"/><rect fill="#FFFFFF" height="28.1619" style="stroke:#181818;stroke-width:0.9;" width="9" x="1834.9378" y="663.9592"/><polygon fill="#181818" points="444.9331,101.6209,453.9331,105.2209,444.9331,108.8209,448.5331,105.2209" style="stroke:#181818;stroke-width:0.9;"/><line style="stroke:#181818;stroke-width:0.9;" x1="62.1154" x2="450.3331" y1="105.2209" y2="105.2209"/><text fill="#000000" font-family="sans-serif" font-size="11.7" lengthAdjust="spacing" textLength="200.3225" x="68.4154" y="100.4845">asks to add drones to a show proposal</text><polygon fill="#181818" points="739.5886,129.7828,748.5886,133.3828,739.5886,136.9828,743.1886,133.3828" style="stroke:#181818;stroke-width:0.9;"/><line style="stroke:#181818;stroke-width:0.9;" x1="464.7331" x2="744.9886" y1="133.3828" y2="133.3828"/><text fill="#000000" font-family="sans-serif" font-size="11.7" lengthAdjust="spacing" textLength="139.1546" x="471.0331" y="128.6464">listAvailableDroneModels()</text><polygon fill="#181818" points="1029.7441,157.9447,1038.7441,161.5447,1029.7441,165.1447,1033.3441,161.5447" style="stroke:#181818;stroke-width:0.9;"/><line style="stroke:#181818;stroke-width:0.9;" x1="759.3886" x2="1035.1441" y1="161.5447" y2="161.5447"/><text fill="#000000" font-family="sans-serif" font-size="11.7" lengthAdjust="spacing" textLength="141.1198" x="765.6886" y="156.8083">getAvailableDroneModels()</text><polygon fill="#181818" points="1641.7332,186.1066,1650.7332,189.7066,1641.7332,193.3066,1645.3332,189.7066" style="stroke:#181818;stroke-width:0.9;"/><line style="stroke:#181818;stroke-width:0.9;" x1="1049.5441" x2="1647.1332" y1="189.7066" y2="189.7066"/><text fill="#000000" font-family="sans-serif" font-size="11.7" lengthAdjust="spacing" textLength="96.2279" x="1055.8441" y="184.9702">findByActiveTrue()</text><polygon fill="#181818" points="1059.4441,214.2686,1050.4441,217.8686,1059.4441,221.4686,1055.8441,217.8686" style="stroke:#181818;stroke-width:0.9;"/><line style="stroke:#181818;stroke-width:0.9;stroke-dasharray:2.0,2.0;" x1="1054.0441" x2="1656.1332" y1="217.8686" y2="217.8686"/><text fill="#000000" font-family="sans-serif" font-size="11.7" lengthAdjust="spacing" textLength="133.9559" x="1064.8441" y="213.1321">list of active DroneModels</text><polygon fill="#181818" points="1454.4312,242.4305,1463.4312,246.0305,1454.4312,249.6305,1458.0312,246.0305" style="stroke:#181818;stroke-width:0.9;"/><line style="stroke:#181818;stroke-width:0.9;" x1="1049.5441" x2="1459.8312" y1="246.0305" y2="246.0305"/><text fill="#000000" font-family="sans-serif" font-size="11.7" lengthAdjust="spacing" textLength="206.7895" x="1055.8441" y="241.294">findByModelAndStatus(model, ACTIVE)</text><polygon fill="#181818" points="1059.4441,270.5924,1050.4441,274.1924,1059.4441,277.7924,1055.8441,274.1924" style="stroke:#181818;stroke-width:0.9;"/><line style="stroke:#181818;stroke-width:0.9;stroke-dasharray:2.0,2.0;" x1="1054.0441" x2="1468.8312" y1="274.1924" y2="274.1924"/><text fill="#000000" font-family="sans-serif" font-size="11.7" lengthAdjust="spacing" textLength="157.3673" x="1064.8441" y="269.456">list of active Drones per model</text><polygon fill="#181818" points="769.2886,298.7543,760.2886,302.3543,769.2886,305.9543,765.6886,302.3543" style="stroke:#181818;stroke-width:0.9;"/><line style="stroke:#181818;stroke-width:0.9;stroke-dasharray:2.0,2.0;" x1="763.8886" x2="1044.1441" y1="302.3543" y2="302.3543"/><text fill="#000000" font-family="sans-serif" font-size="11.7" lengthAdjust="spacing" textLength="167.7819" x="774.6886" y="297.6179">List&lt;AvailableDroneModelDTO&gt;</text><polygon fill="#181818" points="474.6331,326.9162,465.6331,330.5162,474.6331,334.1162,471.0331,330.5162" style="stroke:#181818;stroke-width:0.9;"/><line style="stroke:#181818;stroke-width:0.9;stroke-dasharray:2.0,2.0;" x1="469.2331" x2="749.4886" y1="330.5162" y2="330.5162"/><text fill="#000000" font-family="sans-serif" font-size="11.7" lengthAdjust="spacing" textLength="153.4597" x="480.0331" y="325.7798">AvailableDroneModelDTO list</text><polygon fill="#181818" points="72.0154,355.0781,63.0154,358.6781,72.0154,362.2781,68.4154,358.6781" style="stroke:#181818;stroke-width:0.9;"/><line style="stroke:#181818;stroke-width:0.9;stroke-dasharray:2.0,2.0;" x1="66.6154" x2="454.8331" y1="358.6781" y2="358.6781"/><text fill="#000000" font-family="sans-serif" font-size="11.7" lengthAdjust="spacing" textLength="372.0177" x="77.4154" y="353.9417">shows all available drones and asks to select the drones that he desires</text><polygon fill="#181818" points="444.9331,383.24,453.9331,386.84,444.9331,390.44,448.5331,386.84" style="stroke:#181818;stroke-width:0.9;"/><line style="stroke:#181818;stroke-width:0.9;" x1="62.1154" x2="450.3331" y1="386.84" y2="386.84"/><text fill="#000000" font-family="sans-serif" font-size="11.7" lengthAdjust="spacing" textLength="239.9414" x="68.4154" y="382.1036">selects drones (AvailableDroneModelDTO list)</text><polygon fill="#181818" points="739.5886,411.402,748.5886,415.002,739.5886,418.602,743.1886,415.002" style="stroke:#181818;stroke-width:0.9;"/><line style="stroke:#181818;stroke-width:0.9;" x1="464.7331" x2="744.9886" y1="415.002" y2="415.002"/><text fill="#000000" font-family="sans-serif" font-size="11.7" lengthAdjust="spacing" textLength="264.0555" x="471.0331" y="410.2655">addDronesToProposal(proposalId, droneSelection)</text><polygon fill="#181818" points="1029.7441,439.5639,1038.7441,443.1639,1029.7441,446.7639,1033.3441,443.1639" style="stroke:#181818;stroke-width:0.9;"/><line style="stroke:#181818;stroke-width:0.9;" x1="759.3886" x2="1035.1441" y1="443.1639" y2="443.1639"/><text fill="#000000" font-family="sans-serif" font-size="11.7" lengthAdjust="spacing" textLength="264.0555" x="765.6886" y="438.4274">addDronesToProposal(proposalId, droneSelection)</text><polygon fill="#181818" points="1260.8231,467.7258,1269.8231,471.3258,1260.8231,474.9258,1264.4231,471.3258" style="stroke:#181818;stroke-width:0.9;"/><line style="stroke:#181818;stroke-width:0.9;" x1="1049.5441" x2="1266.2231" y1="471.3258" y2="471.3258"/><text fill="#000000" font-family="sans-serif" font-size="11.7" lengthAdjust="spacing" textLength="109.9103" x="1055.8441" y="466.5894">ofIdentity(proposalId)</text><polygon fill="#181818" points="1059.4441,495.8877,1050.4441,499.4877,1059.4441,503.0877,1055.8441,499.4877" style="stroke:#181818;stroke-width:0.9;"/><line style="stroke:#181818;stroke-width:0.9;stroke-dasharray:2.0,2.0;" x1="1054.0441" x2="1275.2231" y1="499.4877" y2="499.4877"/><text fill="#000000" font-family="sans-serif" font-size="11.7" lengthAdjust="spacing" textLength="75.4444" x="1064.8441" y="494.7513">ShowProposal</text><path d="M918.0018,512.9877 L983.1929,512.9877 L983.1929,521.3496 L974.1929,530.3496 L918.0018,530.3496 L918.0018,512.9877 " fill="#EEEEEE" style="stroke:#000000;stroke-width:1.35;"/><rect fill="none" height="186.3334" style="stroke:#000000;stroke-width:1.35;" width="1006.1104" x="918.0018" y="512.9877"/><text fill="#000000" font-family="sans-serif" font-size="11.7" font-weight="bold" lengthAdjust="spacing" textLength="24.6911" x="931.5018" y="526.5132">loop</text><text fill="#000000" font-family="sans-serif" font-size="9.9" font-weight="bold" lengthAdjust="spacing" textLength="162.8231" x="996.6929" y="525.4708">[for each model in droneSelection]</text><polygon fill="#181818" points="1641.7332,547.7115,1650.7332,551.3115,1641.7332,554.9115,1645.3332,551.3115" style="stroke:#181818;stroke-width:0.9;"/><line style="stroke:#181818;stroke-width:0.9;" x1="1049.5441" x2="1647.1332" y1="551.3115" y2="551.3115"/><text fill="#000000" font-family="sans-serif" font-size="11.7" lengthAdjust="spacing" textLength="195.0838" x="1055.8441" y="546.5751">findByNameIgnoreCase(modelName)</text><polygon fill="#181818" points="1059.4441,575.8734,1050.4441,579.4734,1059.4441,583.0734,1055.8441,579.4734" style="stroke:#181818;stroke-width:0.9;"/><line style="stroke:#181818;stroke-width:0.9;stroke-dasharray:2.0,2.0;" x1="1054.0441" x2="1656.1332" y1="579.4734" y2="579.4734"/><text fill="#000000" font-family="sans-serif" font-size="11.7" lengthAdjust="spacing" textLength="120.9762" x="1064.8441" y="574.737">Optional&lt;DroneModel&gt;</text><polygon fill="#181818" points="1454.4312,604.0354,1463.4312,607.6354,1454.4312,611.2354,1458.0312,607.6354" style="stroke:#181818;stroke-width:0.9;"/><line style="stroke:#181818;stroke-width:0.9;" x1="1049.5441" x2="1459.8312" y1="607.6354" y2="607.6354"/><text fill="#000000" font-family="sans-serif" font-size="11.7" lengthAdjust="spacing" textLength="206.7895" x="1055.8441" y="602.8989">findByModelAndStatus(model, ACTIVE)</text><polygon fill="#181818" points="1059.4441,632.1973,1050.4441,635.7973,1059.4441,639.3973,1055.8441,635.7973" style="stroke:#181818;stroke-width:0.9;"/><line style="stroke:#181818;stroke-width:0.9;stroke-dasharray:2.0,2.0;" x1="1054.0441" x2="1468.8312" y1="635.7973" y2="635.7973"/><text fill="#000000" font-family="sans-serif" font-size="11.7" lengthAdjust="spacing" textLength="63.7387" x="1064.8441" y="631.0608">List&lt;Drone&gt;</text><polygon fill="#181818" points="1824.1378,660.3592,1833.1378,663.9592,1824.1378,667.5592,1827.7378,663.9592" style="stroke:#181818;stroke-width:0.9;"/><line style="stroke:#181818;stroke-width:0.9;" x1="1049.5441" x2="1829.5378" y1="663.9592" y2="663.9592"/><text fill="#000000" font-family="sans-serif" font-size="11.7" lengthAdjust="spacing" textLength="176.237" x="1055.8441" y="659.2228">addDronesOfModel(model, count)</text><polygon fill="#181818" points="1059.4441,688.5211,1050.4441,692.1211,1059.4441,695.7211,1055.8441,692.1211" style="stroke:#181818;stroke-width:0.9;"/><line style="stroke:#181818;stroke-width:0.9;stroke-dasharray:2.0,2.0;" x1="1054.0441" x2="1838.5378" y1="692.1211" y2="692.1211"/><text fill="#000000" font-family="sans-serif" font-size="11.7" lengthAdjust="spacing" textLength="42.264" x="1064.8441" y="687.3847">success</text><polygon fill="#181818" points="1260.8231,722.983,1269.8231,726.583,1260.8231,730.183,1264.4231,726.583" style="stroke:#181818;stroke-width:0.9;"/><line style="stroke:#181818;stroke-width:0.9;" x1="1049.5441" x2="1266.2231" y1="726.583" y2="726.583"/><text fill="#000000" font-family="sans-serif" font-size="11.7" lengthAdjust="spacing" textLength="77.3868" x="1055.8441" y="721.8466">save(proposal)</text><polygon fill="#181818" points="1059.4441,751.1449,1050.4441,754.7449,1059.4441,758.3449,1055.8441,754.7449" style="stroke:#181818;stroke-width:0.9;"/><line style="stroke:#181818;stroke-width:0.9;stroke-dasharray:2.0,2.0;" x1="1054.0441" x2="1275.2231" y1="754.7449" y2="754.7449"/><text fill="#000000" font-family="sans-serif" font-size="11.7" lengthAdjust="spacing" textLength="63.7273" x="1064.8441" y="750.0085">confirmation</text><polygon fill="#181818" points="769.2886,779.3068,760.2886,782.9068,769.2886,786.5068,765.6886,782.9068" style="stroke:#181818;stroke-width:0.9;"/><line style="stroke:#181818;stroke-width:0.9;stroke-dasharray:2.0,2.0;" x1="763.8886" x2="1044.1441" y1="782.9068" y2="782.9068"/><text fill="#000000" font-family="sans-serif" font-size="11.7" lengthAdjust="spacing" textLength="42.264" x="774.6886" y="778.1704">success</text><polygon fill="#181818" points="474.6331,807.4688,465.6331,811.0688,474.6331,814.6688,471.0331,811.0688" style="stroke:#181818;stroke-width:0.9;"/><line style="stroke:#181818;stroke-width:0.9;stroke-dasharray:2.0,2.0;" x1="469.2331" x2="753.9886" y1="811.0688" y2="811.0688"/><text fill="#000000" font-family="sans-serif" font-size="11.7" lengthAdjust="spacing" textLength="42.264" x="480.0331" y="806.3323">success</text><polygon fill="#181818" points="72.0154,835.6307,63.0154,839.2307,72.0154,842.8307,68.4154,839.2307" style="stroke:#181818;stroke-width:0.9;"/><line style="stroke:#181818;stroke-width:0.9;stroke-dasharray:2.0,2.0;" x1="66.6154" x2="459.3331" y1="839.2307" y2="839.2307"/><text fill="#000000" font-family="sans-serif" font-size="11.7" lengthAdjust="spacing" textLength="204.213" x="77.4154" y="834.4942">Drones added to proposal successfully.</text><!--SRC=[dLN1RXiX4Btp5IWdHqgggBr5KIJNwS5IqqInq_jqcRLHC6mNx6XLzTyxOBE6DRRRvk80ynwFcJUpzatg1bfOyGQgDrZWp7KAUOkL0xrGo6mVO9SWpBlK2rw3ikc9aXfTro1lZEhy8aNXppNg2lalnkdl6LedAzc0TiyWX6VxT1DEnfKpRTpxUCD-CmP-YrzCNXxvn2W5FqmBj7F1mNBQPCsUZ5-CXNXeZKOxDy-jQOm5zJeDeQ_Jiv4JerrBL-2El5-UHSwmtSWA0sptVuwPBSrx37v1-f7qX2x4fzivADmoYExt2g6FHg0gnVS7EUWsLPLfOI7jSWCEGuvzyg_lAOVybiBUB7U6Kv6u27a8AtA6UUTD9EZXb7T6E4BlyqaiIbette2aUYhSYxIZo-JcVG4IB37jKamq2ppB4kl18ee8ygmGJosr-DoDFGRdxHfJWa4A1zZhJ8z_5ZSr3-0KQfd0Oum7oZ9H8MwinSo1MzlHoY-l-7Wodtx_CbIv5_YNsYnlAAM1yq3WGDkmWb-9xgwG_8VvqttA5VEVbZ1wgGmFIhUkyPUIzsw3kom7fJX4J7GVQD6RqgAYeSNTiZzrIt3SBz7A5YtBlBmDjp5sT4BFPT76S3WBHh47fk9gIpmBjqYZYUEOaV-LwAIzqv52tAQU2jHEkYwXJ2Yo2PHXSmEbuoAjS8PdofY6rpIoAM2vjHQNUl20CEpFD-GtME5qeKsB4x2uzRxVkmpuO_tapqvswLFZDO2wsqVT1zI97Yq9_eS-FTIRIose30qM3ilYYhfYBL9BFTL1MvHKcRLs0qLzMSFdENBaUkowgj3Q4C8BvMT8ZUYhpqwPqS86Unl-XmaheslPhY2uwAW9Zqwj-8Z2W2fEg49yybdAHjHke5BQKVXP51yPEUgrKjs7b8c-ZNy0]--></g></svg>