<svg xmlns="http://www.w3.org/2000/svg" xmlns:xlink="http://www.w3.org/1999/xlink" contentStyleType="text/css" height="879px" preserveAspectRatio="none" style="width:1093px;height:879px;background:#FFFFFF;" version="1.1" viewBox="0 0 1093 879" width="1093px" zoomAndPan="magnify"><defs/><g><rect fill="#D6EAF8" height="615.791" style="stroke:#000000;stroke-width:1.5;" width="814.1963" x="272.7397" y="131.9121"/><rect fill="#D6EAF8" height="204.377" style="stroke:none;stroke-width:1.0;" width="814.1963" x="272.7397" y="338.9492"/><rect fill="#D6EAF8" height="204.377" style="stroke:none;stroke-width:1.0;" width="814.1963" x="272.7397" y="543.3262"/><line style="stroke:#181818;stroke-width:0.5;stroke-dasharray:5.0,5.0;" x1="55" x2="55" y1="83.6211" y2="795.9941"/><line style="stroke:#181818;stroke-width:0.5;stroke-dasharray:5.0,5.0;" x1="369.7397" x2="369.7397" y1="83.6211" y2="795.9941"/><line style="stroke:#181818;stroke-width:0.5;stroke-dasharray:5.0,5.0;" x1="579.6079" x2="579.6079" y1="83.6211" y2="795.9941"/><line style="stroke:#181818;stroke-width:0.5;stroke-dasharray:5.0,5.0;" x1="777.8394" x2="777.8394" y1="83.6211" y2="795.9941"/><line style="stroke:#181818;stroke-width:0.5;stroke-dasharray:5.0,5.0;" x1="1016.3364" x2="1016.3364" y1="83.6211" y2="795.9941"/><text fill="#000000" font-family="sans-serif" font-size="14" lengthAdjust="spacing" textLength="94.9375" x="5" y="80.1074">Show Designer</text><ellipse cx="55.4688" cy="13.5" fill="#E2E2F0" rx="8" ry="8" style="stroke:#181818;stroke-width:0.5;"/><path d="M55.4688,21.5 L55.4688,48.5 M42.4688,29.5 L68.4688,29.5 M55.4688,48.5 L42.4688,63.5 M55.4688,48.5 L68.4688,63.5 " fill="none" style="stroke:#181818;stroke-width:0.5;"/><text fill="#000000" font-family="sans-serif" font-size="14" lengthAdjust="spacing" textLength="94.9375" x="5" y="810.1016">Show Designer</text><ellipse cx="55.4688" cy="822.1152" fill="#E2E2F0" rx="8" ry="8" style="stroke:#181818;stroke-width:0.5;"/><path d="M55.4688,830.1152 L55.4688,857.1152 M42.4688,838.1152 L68.4688,838.1152 M55.4688,857.1152 L42.4688,872.1152 M55.4688,857.1152 L68.4688,872.1152 " fill="none" style="stroke:#181818;stroke-width:0.5;"/><rect fill="#E2E2F0" height="32.6211" rx="2.5" ry="2.5" style="stroke:#181818;stroke-width:0.5;" width="175.8682" x="282.7397" y="50"/><text fill="#000000" font-family="sans-serif" font-size="14" lengthAdjust="spacing" textLength="161.8682" x="289.7397" y="72.1074">SearchFigureCatalogueUI</text><rect fill="#E2E2F0" height="32.6211" rx="2.5" ry="2.5" style="stroke:#181818;stroke-width:0.5;" width="175.8682" x="282.7397" y="794.9941"/><text fill="#000000" font-family="sans-serif" font-size="14" lengthAdjust="spacing" textLength="161.8682" x="289.7397" y="817.1016">SearchFigureCatalogueUI</text><rect fill="#E2E2F0" height="32.6211" rx="2.5" ry="2.5" style="stroke:#181818;stroke-width:0.5;" width="222.5576" x="468.6079" y="50"/><text fill="#000000" font-family="sans-serif" font-size="14" lengthAdjust="spacing" textLength="208.5576" x="475.6079" y="72.1074">SearchFigureCatalogueController</text><rect fill="#E2E2F0" height="32.6211" rx="2.5" ry="2.5" style="stroke:#181818;stroke-width:0.5;" width="222.5576" x="468.6079" y="794.9941"/><text fill="#000000" font-family="sans-serif" font-size="14" lengthAdjust="spacing" textLength="208.5576" x="475.6079" y="817.1016">SearchFigureCatalogueController</text><rect fill="#E2E2F0" height="32.6211" rx="2.5" ry="2.5" style="stroke:#181818;stroke-width:0.5;" width="100.3652" x="727.8394" y="50"/><text fill="#000000" font-family="sans-serif" font-size="14" lengthAdjust="spacing" textLength="86.3652" x="734.8394" y="72.1074">FigureService</text><rect fill="#E2E2F0" height="32.6211" rx="2.5" ry="2.5" style="stroke:#181818;stroke-width:0.5;" width="100.3652" x="727.8394" y="794.9941"/><text fill="#000000" font-family="sans-serif" font-size="14" lengthAdjust="spacing" textLength="86.3652" x="734.8394" y="817.1016">FigureService</text><rect fill="#E2E2F0" height="32.6211" rx="2.5" ry="2.5" style="stroke:#181818;stroke-width:0.5;" width="120.5996" x="956.3364" y="50"/><text fill="#000000" font-family="sans-serif" font-size="14" lengthAdjust="spacing" textLength="106.5996" x="963.3364" y="72.1074">FigureRepository</text><rect fill="#E2E2F0" height="32.6211" rx="2.5" ry="2.5" style="stroke:#181818;stroke-width:0.5;" width="120.5996" x="956.3364" y="794.9941"/><text fill="#000000" font-family="sans-serif" font-size="14" lengthAdjust="spacing" textLength="106.5996" x="963.3364" y="817.1016">FigureRepository</text><polygon fill="#181818" points="358.6738,112.9121,368.6738,116.9121,358.6738,120.9121,362.6738,116.9121" style="stroke:#181818;stroke-width:1.0;"/><line style="stroke:#181818;stroke-width:1.0;" x1="55.4688" x2="364.6738" y1="116.9121" y2="116.9121"/><text fill="#000000" font-family="sans-serif" font-size="13" lengthAdjust="spacing" textLength="291.2051" x="62.4688" y="111.6494">ask to search for a figure by code and/or keywords</text><path d="M272.7397,131.9121 L332.9106,131.9121 L332.9106,141.2031 L322.9106,151.2031 L272.7397,151.2031 L272.7397,131.9121 " fill="#EEEEEE" style="stroke:#000000;stroke-width:1.5;"/><rect fill="none" height="615.791" style="stroke:#000000;stroke-width:1.5;" width="814.1963" x="272.7397" y="131.9121"/><text fill="#000000" font-family="sans-serif" font-size="13" font-weight="bold" lengthAdjust="spacing" textLength="15.1709" x="287.7397" y="146.9404">alt</text><text fill="#000000" font-family="sans-serif" font-size="11" font-weight="bold" lengthAdjust="spacing" textLength="87.4199" x="347.9106" y="145.7822">[search by code]</text><polygon fill="#181818" points="567.8867,170.4941,577.8867,174.4941,567.8867,178.4941,571.8867,174.4941" style="stroke:#181818;stroke-width:1.0;"/><line style="stroke:#181818;stroke-width:1.0;" x1="370.6738" x2="573.8867" y1="174.4941" y2="174.4941"/><text fill="#000000" font-family="sans-serif" font-size="13" lengthAdjust="spacing" textLength="93.9263" x="377.6738" y="169.2314">searchByCode()</text><polygon fill="#181818" points="766.022,201.7852,776.022,205.7852,766.022,209.7852,770.022,205.7852" style="stroke:#181818;stroke-width:1.0;"/><line style="stroke:#181818;stroke-width:1.0;" x1="579.8867" x2="772.022" y1="205.7852" y2="205.7852"/><text fill="#000000" font-family="sans-serif" font-size="13" lengthAdjust="spacing" textLength="93.9263" x="586.8867" y="200.5225">searchByCode()</text><polygon fill="#181818" points="1004.6362,233.0762,1014.6362,237.0762,1004.6362,241.0762,1008.6362,237.0762" style="stroke:#181818;stroke-width:1.0;"/><line style="stroke:#181818;stroke-width:1.0;" x1="778.022" x2="1010.6362" y1="237.0762" y2="237.0762"/><text fill="#000000" font-family="sans-serif" font-size="13" lengthAdjust="spacing" textLength="134.4053" x="785.022" y="231.8135">findByCodeAndPublic()</text><polygon fill="#181818" points="789.022,264.3672,779.022,268.3672,789.022,272.3672,785.022,268.3672" style="stroke:#181818;stroke-width:1.0;"/><line style="stroke:#181818;stroke-width:1.0;" x1="783.022" x2="1015.6362" y1="268.3672" y2="268.3672"/><text fill="#000000" font-family="sans-serif" font-size="13" lengthAdjust="spacing" textLength="80.2153" x="795.022" y="263.1045">return the info</text><polygon fill="#181818" points="590.8867,295.6582,580.8867,299.6582,590.8867,303.6582,586.8867,299.6582" style="stroke:#181818;stroke-width:1.0;"/><line style="stroke:#181818;stroke-width:1.0;" x1="584.8867" x2="777.022" y1="299.6582" y2="299.6582"/><text fill="#000000" font-family="sans-serif" font-size="13" lengthAdjust="spacing" textLength="80.2153" x="596.8867" y="294.3955">return the info</text><polygon fill="#181818" points="381.6738,326.9492,371.6738,330.9492,381.6738,334.9492,377.6738,330.9492" style="stroke:#181818;stroke-width:1.0;"/><line style="stroke:#181818;stroke-width:1.0;" x1="375.6738" x2="578.8867" y1="330.9492" y2="330.9492"/><text fill="#000000" font-family="sans-serif" font-size="13" lengthAdjust="spacing" textLength="80.2153" x="387.6738" y="325.6865">return the info</text><line style="stroke:#000000;stroke-width:1.0;stroke-dasharray:2.0,2.0;" x1="272.7397" x2="1086.936" y1="339.9492" y2="339.9492"/><text fill="#000000" font-family="sans-serif" font-size="11" font-weight="bold" lengthAdjust="spacing" textLength="112.4922" x="277.7397" y="351.8193">[search by keywords]</text><polygon fill="#181818" points="567.8867,374.8711,577.8867,378.8711,567.8867,382.8711,571.8867,378.8711" style="stroke:#181818;stroke-width:1.0;"/><line style="stroke:#181818;stroke-width:1.0;" x1="370.6738" x2="573.8867" y1="378.8711" y2="378.8711"/><text fill="#000000" font-family="sans-serif" font-size="13" lengthAdjust="spacing" textLength="119.9263" x="377.6738" y="373.6084">searchByKeywords()</text><polygon fill="#181818" points="766.022,406.1621,776.022,410.1621,766.022,414.1621,770.022,410.1621" style="stroke:#181818;stroke-width:1.0;"/><line style="stroke:#181818;stroke-width:1.0;" x1="579.8867" x2="772.022" y1="410.1621" y2="410.1621"/><text fill="#000000" font-family="sans-serif" font-size="13" lengthAdjust="spacing" textLength="119.9263" x="586.8867" y="404.8994">searchByKeywords()</text><polygon fill="#181818" points="1004.6362,437.4531,1014.6362,441.4531,1004.6362,445.4531,1008.6362,441.4531" style="stroke:#181818;stroke-width:1.0;"/><line style="stroke:#181818;stroke-width:1.0;" x1="778.022" x2="1010.6362" y1="441.4531" y2="441.4531"/><text fill="#000000" font-family="sans-serif" font-size="13" lengthAdjust="spacing" textLength="160.4053" x="785.022" y="436.1904">findByKeywordsAndPublic()</text><polygon fill="#181818" points="789.022,468.7441,779.022,472.7441,789.022,476.7441,785.022,472.7441" style="stroke:#181818;stroke-width:1.0;"/><line style="stroke:#181818;stroke-width:1.0;" x1="783.022" x2="1015.6362" y1="472.7441" y2="472.7441"/><text fill="#000000" font-family="sans-serif" font-size="13" lengthAdjust="spacing" textLength="80.2153" x="795.022" y="467.4814">return the info</text><polygon fill="#181818" points="590.8867,500.0352,580.8867,504.0352,590.8867,508.0352,586.8867,504.0352" style="stroke:#181818;stroke-width:1.0;"/><line style="stroke:#181818;stroke-width:1.0;" x1="584.8867" x2="777.022" y1="504.0352" y2="504.0352"/><text fill="#000000" font-family="sans-serif" font-size="13" lengthAdjust="spacing" textLength="80.2153" x="596.8867" y="498.7725">return the info</text><polygon fill="#181818" points="381.6738,531.3262,371.6738,535.3262,381.6738,539.3262,377.6738,535.3262" style="stroke:#181818;stroke-width:1.0;"/><line style="stroke:#181818;stroke-width:1.0;" x1="375.6738" x2="578.8867" y1="535.3262" y2="535.3262"/><text fill="#000000" font-family="sans-serif" font-size="13" lengthAdjust="spacing" textLength="80.2153" x="387.6738" y="530.0635">return the info</text><line style="stroke:#000000;stroke-width:1.0;stroke-dasharray:2.0,2.0;" x1="272.7397" x2="1086.936" y1="544.3262" y2="544.3262"/><text fill="#000000" font-family="sans-serif" font-size="11" font-weight="bold" lengthAdjust="spacing" textLength="163.8345" x="277.7397" y="556.1963">[search by code and keywords]</text><polygon fill="#181818" points="567.8867,579.248,577.8867,583.248,567.8867,587.248,571.8867,583.248" style="stroke:#181818;stroke-width:1.0;"/><line style="stroke:#181818;stroke-width:1.0;" x1="370.6738" x2="573.8867" y1="583.248" y2="583.248"/><text fill="#000000" font-family="sans-serif" font-size="13" lengthAdjust="spacing" textLength="174.1353" x="377.6738" y="577.9854">searchByCodeAndKeywords()</text><polygon fill="#181818" points="766.022,610.5391,776.022,614.5391,766.022,618.5391,770.022,614.5391" style="stroke:#181818;stroke-width:1.0;"/><line style="stroke:#181818;stroke-width:1.0;" x1="579.8867" x2="772.022" y1="614.5391" y2="614.5391"/><text fill="#000000" font-family="sans-serif" font-size="13" lengthAdjust="spacing" textLength="174.1353" x="586.8867" y="609.2764">searchByCodeAndKeywords()</text><polygon fill="#181818" points="1004.6362,641.8301,1014.6362,645.8301,1004.6362,649.8301,1008.6362,645.8301" style="stroke:#181818;stroke-width:1.0;"/><line style="stroke:#181818;stroke-width:1.0;" x1="778.022" x2="1010.6362" y1="645.8301" y2="645.8301"/><text fill="#000000" font-family="sans-serif" font-size="13" lengthAdjust="spacing" textLength="214.6143" x="785.022" y="640.5674">findByCodeAndKeywordsAndPublic()</text><polygon fill="#181818" points="789.022,673.1211,779.022,677.1211,789.022,681.1211,785.022,677.1211" style="stroke:#181818;stroke-width:1.0;"/><line style="stroke:#181818;stroke-width:1.0;" x1="783.022" x2="1015.6362" y1="677.1211" y2="677.1211"/><text fill="#000000" font-family="sans-serif" font-size="13" lengthAdjust="spacing" textLength="80.2153" x="795.022" y="671.8584">return the info</text><polygon fill="#181818" points="590.8867,704.4121,580.8867,708.4121,590.8867,712.4121,586.8867,708.4121" style="stroke:#181818;stroke-width:1.0;"/><line style="stroke:#181818;stroke-width:1.0;" x1="584.8867" x2="777.022" y1="708.4121" y2="708.4121"/><text fill="#000000" font-family="sans-serif" font-size="13" lengthAdjust="spacing" textLength="80.2153" x="596.8867" y="703.1494">return the info</text><polygon fill="#181818" points="381.6738,735.7031,371.6738,739.7031,381.6738,743.7031,377.6738,739.7031" style="stroke:#181818;stroke-width:1.0;"/><line style="stroke:#181818;stroke-width:1.0;" x1="375.6738" x2="578.8867" y1="739.7031" y2="739.7031"/><text fill="#000000" font-family="sans-serif" font-size="13" lengthAdjust="spacing" textLength="80.2153" x="387.6738" y="734.4404">return the info</text><polygon fill="#181818" points="66.4688,773.9941,56.4688,777.9941,66.4688,781.9941,62.4688,777.9941" style="stroke:#181818;stroke-width:1.0;"/><line style="stroke:#181818;stroke-width:1.0;" x1="60.4688" x2="369.6738" y1="777.9941" y2="777.9941"/><text fill="#000000" font-family="sans-serif" font-size="13" lengthAdjust="spacing" textLength="141.6162" x="72.4688" y="772.7314">return the info (Success)</text><!--SRC=[pPEnJiCm48PtFyK9bdP0R0Wn8BK9bIeMHDG7S9rBOiNOaUrGHOXtvn8dRLE2MhPklhllVlt-uxXIwefR_W5AQlHDXM2iBmnp-q75HSbpX2y6iAHpRasjqyWeO-4sVdXPh1xRYR4fsj1TAiBODsDSU2flaiBi84OdSuts1hY396OaxgMG5TUU2EHM52kPrnOZxhaoUOsRTSTkrXUmaT7U6gLw_KCvtWrR2TfFAJ0u2USfx1qhuoJTeEd8jcGiYU7kcJp14_LAy0PSvmSokYc7hDk4RGF2f0XSf_VKBx7PKJwESUK7laSeEcZbIFHWciG3jMmYOcRpZZgQ4zqRdqQ78N6jRO8ogTE0B7JwLc-L53tR0ID1Yxws6do187LcJXL7FgVOiT4kgrCCbSEZ9FO1dKdZjUSkJEG4_okL0Rl6P8PdT754_IV-PrBJMsUUqNNbfbCMOg5VzDSOPaaj13et_m40]--></g></svg>