<?xml version="1.0" encoding="us-ascii" standalone="no"?><svg xmlns="http://www.w3.org/2000/svg" xmlns:xlink="http://www.w3.org/1999/xlink" contentStyleType="text/css" height="824.6px" preserveAspectRatio="none" style="width:532px;height:824px;background:#FFFFFF;" version="1.1" viewBox="0 0 532 824" width="532.7px" zoomAndPan="magnify"><defs/><g><!--class AgendaController--><g id="elem_AgendaController"><rect codeLine="1" fill="#F1F1F1" height="137.8781" id="AgendaController" rx="1.75" ry="1.75" style="stroke:#181818;stroke-width:0.3499999999999999;" width="439.6" x="63.35" y="4.9"/><ellipse cx="241.325" cy="16.1" fill="#ADD1B2" rx="7.7" ry="7.7" style="stroke:#181818;stroke-width:0.6999999999999998;"/><path d="M243.2609,13.2125 Q243.3703,13.0594 243.5016,12.9828 Q243.6328,12.9062 243.7859,12.9062 Q244.0484,12.9062 244.2125,13.0922 Q244.3766,13.2672 244.3766,13.6937 L244.3766,14.7109 Q244.3766,15.1375 244.2125,15.3234 Q244.0484,15.5094 243.7859,15.5094 Q243.5453,15.5094 243.4031,15.3672 Q243.2609,15.2359 243.1844,14.875 Q243.1516,14.6234 243.0203,14.4922 Q242.7906,14.2297 242.3641,14.0766 Q241.9375,13.9234 241.5,13.9234 Q240.9641,13.9234 240.5156,14.1531 Q240.0781,14.3828 239.7281,14.9078 Q239.3891,15.4328 239.3891,16.1547 L239.3891,16.9203 Q239.3891,17.7844 240.0125,18.3641 Q240.6359,18.9328 241.7516,18.9328 Q242.4078,18.9328 242.8672,18.7578 Q243.1406,18.6484 243.4359,18.3422 Q243.6219,18.1562 243.7203,18.1016 Q243.8297,18.0469 243.9719,18.0469 Q244.2016,18.0469 244.3766,18.2328 Q244.5625,18.4078 244.5625,18.6484 Q244.5625,18.8891 244.3219,19.1734 Q243.9719,19.5781 243.4141,19.8078 Q242.6594,20.125 241.7516,20.125 Q240.6906,20.125 239.8484,19.6875 Q239.1594,19.3375 238.6781,18.5937 Q238.1969,17.8391 238.1969,16.9422 L238.1969,16.1328 Q238.1969,15.2031 238.6234,14.4047 Q239.0609,13.5953 239.8266,13.1687 Q240.5922,12.7312 241.4562,12.7312 Q241.9703,12.7312 242.4187,12.8516 Q242.8781,12.9609 243.2609,13.2125 Z " fill="#000000"/><text fill="#000000" font-family="sans-serif" font-size="9.8" lengthAdjust="spacing" textLength="77.7" x="255.675" y="20.1578">AgendaController</text><line style="stroke:#181818;stroke-width:0.3499999999999999;" x1="64.05" x2="502.25" y1="27.3" y2="27.3"/><rect fill="none" height="4.2" style="stroke:#C82930;stroke-width:0.6999999999999998;" width="4.2" x="68.95" y="35.5674"/><text fill="#000000" font-family="sans-serif" font-size="9.8" lengthAdjust="spacing" textLength="73.5" x="77.35" y="40.6752">agenda: Agenda</text><rect fill="none" height="4.2" style="stroke:#C82930;stroke-width:0.6999999999999998;" width="4.2" x="68.95" y="48.6021"/><text fill="#000000" font-family="sans-serif" font-size="9.8" lengthAdjust="spacing" textLength="112.7" x="77.35" y="53.71">repositories: Repositories</text><line style="stroke:#181818;stroke-width:0.3499999999999999;" x1="64.05" x2="502.25" y1="58.9695" y2="58.9695"/><ellipse cx="71.05" cy="69.3369" fill="#84BE84" rx="2.1" ry="2.1" style="stroke:#038048;stroke-width:0.6999999999999998;"/><text fill="#000000" font-family="sans-serif" font-size="9.8" lengthAdjust="spacing" textLength="248.5" x="77.35" y="72.3447">addAgendaEntry(task: Task, entryDate: String): boolean</text><ellipse cx="71.05" cy="82.3717" fill="#84BE84" rx="2.1" ry="2.1" style="stroke:#038048;stroke-width:0.6999999999999998;"/><text fill="#000000" font-family="sans-serif" font-size="9.8" lengthAdjust="spacing" textLength="226.1" x="77.35" y="85.3795">getActiveAgendaEntries(): ArrayList&lt;AgendaEntry&gt;</text><ellipse cx="71.05" cy="95.4064" fill="#84BE84" rx="2.1" ry="2.1" style="stroke:#038048;stroke-width:0.6999999999999998;"/><text fill="#000000" font-family="sans-serif" font-size="9.8" lengthAdjust="spacing" textLength="272.3" x="77.35" y="98.4143">getUnassignedVehicles(ae: AgendaEntry): ArrayList&lt;Vehicle&gt;</text><rect fill="#F24D5C" height="4.2" style="stroke:#C82930;stroke-width:0.6999999999999998;" width="4.2" x="68.95" y="106.3412"/><text fill="#000000" font-family="sans-serif" font-size="9.8" lengthAdjust="spacing" textLength="421.4" x="77.35" y="111.449">addMinutesToSchedule(schedule: ArrayList&lt;DaySchedule&gt;, date: LocalDate, minutes: int): void</text><rect fill="#F24D5C" height="4.2" style="stroke:#C82930;stroke-width:0.6999999999999998;" width="4.2" x="68.95" y="119.376"/><text fill="#000000" font-family="sans-serif" font-size="9.8" lengthAdjust="spacing" textLength="360.5" x="77.35" y="124.4838">getUsedMinutesForDate(schedule: ArrayList&lt;DaySchedule&gt;, date: LocalDate): int</text><rect fill="#F24D5C" height="4.2" style="stroke:#C82930;stroke-width:0.6999999999999998;" width="4.2" x="68.95" y="132.4107"/><text fill="#000000" font-family="sans-serif" font-size="9.8" lengthAdjust="spacing" textLength="347.9" x="77.35" y="137.5186">calculateTaskEndDate(startDate: LocalDate, durationInMinutes: int): LocalDate</text></g><!--class Agenda--><g id="elem_Agenda"><rect codeLine="12" fill="#F1F1F1" height="46.6348" id="Agenda" rx="1.75" ry="1.75" style="stroke:#181818;stroke-width:0.3499999999999999;" width="196" x="62.65" y="210.7"/><ellipse cx="140.525" cy="221.9" fill="#ADD1B2" rx="7.7" ry="7.7" style="stroke:#181818;stroke-width:0.6999999999999998;"/><path d="M142.4609,219.0125 Q142.5703,218.8594 142.7016,218.7828 Q142.8328,218.7062 142.9859,218.7062 Q143.2484,218.7062 143.4125,218.8922 Q143.5766,219.0672 143.5766,219.4937 L143.5766,220.5109 Q143.5766,220.9375 143.4125,221.1234 Q143.2484,221.3094 142.9859,221.3094 Q142.7453,221.3094 142.6031,221.1672 Q142.4609,221.0359 142.3844,220.675 Q142.3516,220.4234 142.2203,220.2922 Q141.9906,220.0297 141.5641,219.8766 Q141.1375,219.7234 140.7,219.7234 Q140.1641,219.7234 139.7156,219.9531 Q139.2781,220.1828 138.9281,220.7078 Q138.5891,221.2328 138.5891,221.9547 L138.5891,222.7203 Q138.5891,223.5844 139.2125,224.1641 Q139.8359,224.7328 140.9516,224.7328 Q141.6078,224.7328 142.0672,224.5578 Q142.3406,224.4484 142.6359,224.1422 Q142.8219,223.9562 142.9203,223.9016 Q143.0297,223.8469 143.1719,223.8469 Q143.4016,223.8469 143.5766,224.0328 Q143.7625,224.2078 143.7625,224.4484 Q143.7625,224.6891 143.5219,224.9734 Q143.1719,225.3781 142.6141,225.6078 Q141.8594,225.925 140.9516,225.925 Q139.8906,225.925 139.0484,225.4875 Q138.3594,225.1375 137.8781,224.3937 Q137.3969,223.6391 137.3969,222.7422 L137.3969,221.9328 Q137.3969,221.0031 137.8234,220.2047 Q138.2609,219.3953 139.0266,218.9687 Q139.7922,218.5312 140.6562,218.5312 Q141.1703,218.5312 141.6187,218.6516 Q142.0781,218.7609 142.4609,219.0125 Z " fill="#000000"/><text fill="#000000" font-family="sans-serif" font-size="9.8" lengthAdjust="spacing" textLength="34.3" x="154.875" y="225.9578">Agenda</text><line style="stroke:#181818;stroke-width:0.3499999999999999;" x1="63.35" x2="257.95" y1="233.1" y2="233.1"/><rect fill="none" height="4.2" style="stroke:#C82930;stroke-width:0.6999999999999998;" width="4.2" x="68.25" y="241.3674"/><text fill="#000000" font-family="sans-serif" font-size="9.8" lengthAdjust="spacing" textLength="177.8" x="76.65" y="246.4752">agendaEntries: ArrayList&lt;AgendaEntry&gt;</text><line style="stroke:#181818;stroke-width:0.3499999999999999;" x1="63.35" x2="257.95" y1="251.7348" y2="251.7348"/></g><!--class AgendaEntry--><g id="elem_AgendaEntry"><rect codeLine="16" fill="#F1F1F1" height="85.7391" id="AgendaEntry" rx="1.75" ry="1.75" style="stroke:#181818;stroke-width:0.3499999999999999;" width="142.1" x="89.6" y="325.5"/><ellipse cx="128.975" cy="336.7" fill="#ADD1B2" rx="7.7" ry="7.7" style="stroke:#181818;stroke-width:0.6999999999999998;"/><path d="M130.9109,333.8125 Q131.0203,333.6594 131.1516,333.5828 Q131.2828,333.5062 131.4359,333.5062 Q131.6984,333.5062 131.8625,333.6922 Q132.0266,333.8672 132.0266,334.2937 L132.0266,335.3109 Q132.0266,335.7375 131.8625,335.9234 Q131.6984,336.1094 131.4359,336.1094 Q131.1953,336.1094 131.0531,335.9672 Q130.9109,335.8359 130.8344,335.475 Q130.8016,335.2234 130.6703,335.0922 Q130.4406,334.8297 130.0141,334.6766 Q129.5875,334.5234 129.15,334.5234 Q128.6141,334.5234 128.1656,334.7531 Q127.7281,334.9828 127.3781,335.5078 Q127.0391,336.0328 127.0391,336.7547 L127.0391,337.5203 Q127.0391,338.3844 127.6625,338.9641 Q128.2859,339.5328 129.4016,339.5328 Q130.0578,339.5328 130.5172,339.3578 Q130.7906,339.2484 131.0859,338.9422 Q131.2719,338.7562 131.3703,338.7016 Q131.4797,338.6469 131.6219,338.6469 Q131.8516,338.6469 132.0266,338.8328 Q132.2125,339.0078 132.2125,339.2484 Q132.2125,339.4891 131.9719,339.7734 Q131.6219,340.1781 131.0641,340.4078 Q130.3094,340.725 129.4016,340.725 Q128.3406,340.725 127.4984,340.2875 Q126.8094,339.9375 126.3281,339.1937 Q125.8469,338.4391 125.8469,337.5422 L125.8469,336.7328 Q125.8469,335.8031 126.2734,335.0047 Q126.7109,334.1953 127.4766,333.7687 Q128.2422,333.3312 129.1062,333.3312 Q129.6203,333.3312 130.0687,333.4516 Q130.5281,333.5609 130.9109,333.8125 Z " fill="#000000"/><text fill="#000000" font-family="sans-serif" font-size="9.8" lengthAdjust="spacing" textLength="57.4" x="143.325" y="340.7578">AgendaEntry</text><line style="stroke:#181818;stroke-width:0.3499999999999999;" x1="90.3" x2="231" y1="347.9" y2="347.9"/><rect fill="none" height="4.2" style="stroke:#C82930;stroke-width:0.6999999999999998;" width="4.2" x="95.2" y="356.1674"/><text fill="#000000" font-family="sans-serif" font-size="9.8" lengthAdjust="spacing" textLength="96.6" x="103.6" y="361.2752">associatedTask: Task</text><rect fill="none" height="4.2" style="stroke:#C82930;stroke-width:0.6999999999999998;" width="4.2" x="95.2" y="369.2021"/><text fill="#000000" font-family="sans-serif" font-size="9.8" lengthAdjust="spacing" textLength="52.5" x="103.6" y="374.31">team: Team</text><rect fill="none" height="4.2" style="stroke:#C82930;stroke-width:0.6999999999999998;" width="4.2" x="95.2" y="382.2369"/><text fill="#000000" font-family="sans-serif" font-size="9.8" lengthAdjust="spacing" textLength="70" x="103.6" y="387.3447">date: LocalDate</text><rect fill="none" height="4.2" style="stroke:#C82930;stroke-width:0.6999999999999998;" width="4.2" x="95.2" y="395.2717"/><text fill="#000000" font-family="sans-serif" font-size="9.8" lengthAdjust="spacing" textLength="123.9" x="103.6" y="400.3795">vehicles: ArrayList&lt;Vehicle&gt;</text><line style="stroke:#181818;stroke-width:0.3499999999999999;" x1="90.3" x2="231" y1="405.6391" y2="405.6391"/></g><!--class Team--><g id="elem_Team"><rect codeLine="23" fill="#F1F1F1" height="59.6695" id="Team" rx="1.75" ry="1.75" style="stroke:#181818;stroke-width:0.3499999999999999;" width="186.2" x="67.55" y="452.9"/><ellipse cx="145.075" cy="464.1" fill="#ADD1B2" rx="7.7" ry="7.7" style="stroke:#181818;stroke-width:0.6999999999999998;"/><path d="M147.0109,461.2125 Q147.1203,461.0594 147.2516,460.9828 Q147.3828,460.9062 147.5359,460.9062 Q147.7984,460.9062 147.9625,461.0922 Q148.1266,461.2672 148.1266,461.6937 L148.1266,462.7109 Q148.1266,463.1375 147.9625,463.3234 Q147.7984,463.5094 147.5359,463.5094 Q147.2953,463.5094 147.1531,463.3672 Q147.0109,463.2359 146.9344,462.875 Q146.9016,462.6234 146.7703,462.4922 Q146.5406,462.2297 146.1141,462.0766 Q145.6875,461.9234 145.25,461.9234 Q144.7141,461.9234 144.2656,462.1531 Q143.8281,462.3828 143.4781,462.9078 Q143.1391,463.4328 143.1391,464.1547 L143.1391,464.9203 Q143.1391,465.7844 143.7625,466.3641 Q144.3859,466.9328 145.5016,466.9328 Q146.1578,466.9328 146.6172,466.7578 Q146.8906,466.6484 147.1859,466.3422 Q147.3719,466.1562 147.4703,466.1016 Q147.5797,466.0469 147.7219,466.0469 Q147.9516,466.0469 148.1266,466.2328 Q148.3125,466.4078 148.3125,466.6484 Q148.3125,466.8891 148.0719,467.1734 Q147.7219,467.5781 147.1641,467.8078 Q146.4094,468.125 145.5016,468.125 Q144.4406,468.125 143.5984,467.6875 Q142.9094,467.3375 142.4281,466.5937 Q141.9469,465.8391 141.9469,464.9422 L141.9469,464.1328 Q141.9469,463.2031 142.3734,462.4047 Q142.8109,461.5953 143.5766,461.1687 Q144.3422,460.7312 145.2062,460.7312 Q145.7203,460.7312 146.1687,460.8516 Q146.6281,460.9609 147.0109,461.2125 Z " fill="#000000"/><text fill="#000000" font-family="sans-serif" font-size="9.8" lengthAdjust="spacing" textLength="25.2" x="159.425" y="468.1578">Team</text><line style="stroke:#181818;stroke-width:0.3499999999999999;" x1="68.25" x2="253.05" y1="475.3" y2="475.3"/><rect fill="none" height="4.2" style="stroke:#C82930;stroke-width:0.6999999999999998;" width="4.2" x="73.15" y="483.5674"/><text fill="#000000" font-family="sans-serif" font-size="9.8" lengthAdjust="spacing" textLength="94.5" x="81.55" y="488.6752">skills: ArrayList&lt;Skill&gt;</text><rect fill="none" height="4.2" style="stroke:#C82930;stroke-width:0.6999999999999998;" width="4.2" x="73.15" y="496.6021"/><text fill="#000000" font-family="sans-serif" font-size="9.8" lengthAdjust="spacing" textLength="168" x="81.55" y="501.71">collaborators: ArrayList&lt;Collaborator&gt;</text><line style="stroke:#181818;stroke-width:0.3499999999999999;" x1="68.25" x2="253.05" y1="506.9695" y2="506.9695"/></g><!--class Collaborator--><g id="elem_Collaborator"><rect codeLine="28" fill="#F1F1F1" height="176.9824" id="Collaborator" rx="1.75" ry="1.75" style="stroke:#181818;stroke-width:0.3499999999999999;" width="182.7" x="4.9" y="554.4"/><ellipse cx="65.975" cy="565.6" fill="#ADD1B2" rx="7.7" ry="7.7" style="stroke:#181818;stroke-width:0.6999999999999998;"/><path d="M67.9109,562.7125 Q68.0203,562.5594 68.1516,562.4828 Q68.2828,562.4062 68.4359,562.4062 Q68.6984,562.4062 68.8625,562.5922 Q69.0266,562.7672 69.0266,563.1937 L69.0266,564.2109 Q69.0266,564.6375 68.8625,564.8234 Q68.6984,565.0094 68.4359,565.0094 Q68.1953,565.0094 68.0531,564.8672 Q67.9109,564.7359 67.8344,564.375 Q67.8016,564.1234 67.6703,563.9922 Q67.4406,563.7297 67.0141,563.5766 Q66.5875,563.4234 66.15,563.4234 Q65.6141,563.4234 65.1656,563.6531 Q64.7281,563.8828 64.3781,564.4078 Q64.0391,564.9328 64.0391,565.6547 L64.0391,566.4203 Q64.0391,567.2844 64.6625,567.8641 Q65.2859,568.4328 66.4016,568.4328 Q67.0578,568.4328 67.5172,568.2578 Q67.7906,568.1484 68.0859,567.8422 Q68.2719,567.6562 68.3703,567.6016 Q68.4797,567.5469 68.6219,567.5469 Q68.8516,567.5469 69.0266,567.7328 Q69.2125,567.9078 69.2125,568.1484 Q69.2125,568.3891 68.9719,568.6734 Q68.6219,569.0781 68.0641,569.3078 Q67.3094,569.625 66.4016,569.625 Q65.3406,569.625 64.4984,569.1875 Q63.8094,568.8375 63.3281,568.0937 Q62.8469,567.3391 62.8469,566.4422 L62.8469,565.6328 Q62.8469,564.7031 63.2734,563.9047 Q63.7109,563.0953 64.4766,562.6687 Q65.2422,562.2312 66.1062,562.2312 Q66.6203,562.2312 67.0687,562.3516 Q67.5281,562.4609 67.9109,562.7125 Z " fill="#000000"/><text fill="#000000" font-family="sans-serif" font-size="9.8" lengthAdjust="spacing" textLength="54.6" x="80.325" y="569.6578">Collaborator</text><line style="stroke:#181818;stroke-width:0.3499999999999999;" x1="5.6" x2="186.9" y1="576.8" y2="576.8"/><rect fill="none" height="4.2" style="stroke:#C82930;stroke-width:0.6999999999999998;" width="4.2" x="10.5" y="585.0674"/><text fill="#000000" font-family="sans-serif" font-size="9.8" lengthAdjust="spacing" textLength="56" x="18.9" y="590.1752">name: String</text><rect fill="none" height="4.2" style="stroke:#C82930;stroke-width:0.6999999999999998;" width="4.2" x="10.5" y="598.1021"/><text fill="#000000" font-family="sans-serif" font-size="9.8" lengthAdjust="spacing" textLength="91" x="18.9" y="603.21">birthDate: LocalDate</text><rect fill="none" height="4.2" style="stroke:#C82930;stroke-width:0.6999999999999998;" width="4.2" x="10.5" y="611.1369"/><text fill="#000000" font-family="sans-serif" font-size="9.8" lengthAdjust="spacing" textLength="115.5" x="18.9" y="616.2447">admissionDate: LocalDate</text><rect fill="none" height="4.2" style="stroke:#C82930;stroke-width:0.6999999999999998;" width="4.2" x="10.5" y="624.1717"/><text fill="#000000" font-family="sans-serif" font-size="9.8" lengthAdjust="spacing" textLength="67.2" x="18.9" y="629.2795">address: String</text><rect fill="none" height="4.2" style="stroke:#C82930;stroke-width:0.6999999999999998;" width="4.2" x="10.5" y="637.2064"/><text fill="#000000" font-family="sans-serif" font-size="9.8" lengthAdjust="spacing" textLength="94.5" x="18.9" y="642.3143">mobileNumber: String</text><rect fill="none" height="4.2" style="stroke:#C82930;stroke-width:0.6999999999999998;" width="4.2" x="10.5" y="650.2412"/><text fill="#000000" font-family="sans-serif" font-size="9.8" lengthAdjust="spacing" textLength="54.6" x="18.9" y="655.349">email: String</text><rect fill="none" height="4.2" style="stroke:#C82930;stroke-width:0.6999999999999998;" width="4.2" x="10.5" y="663.276"/><text fill="#000000" font-family="sans-serif" font-size="9.8" lengthAdjust="spacing" textLength="104.3" x="18.9" y="668.3838">taxPayerNumber: String</text><rect fill="none" height="4.2" style="stroke:#C82930;stroke-width:0.6999999999999998;" width="4.2" x="10.5" y="676.3107"/><text fill="#000000" font-family="sans-serif" font-size="9.8" lengthAdjust="spacing" textLength="154" x="18.9" y="681.4186">identificationDocumentType: String</text><rect fill="none" height="4.2" style="stroke:#C82930;stroke-width:0.6999999999999998;" width="4.2" x="10.5" y="689.3455"/><text fill="#000000" font-family="sans-serif" font-size="9.8" lengthAdjust="spacing" textLength="164.5" x="18.9" y="694.4533">documentIdentificationNumber: String</text><rect fill="none" height="4.2" style="stroke:#C82930;stroke-width:0.6999999999999998;" width="4.2" x="10.5" y="702.3803"/><text fill="#000000" font-family="sans-serif" font-size="9.8" lengthAdjust="spacing" textLength="94.5" x="18.9" y="707.4881">skills: ArrayList&lt;Skill&gt;</text><rect fill="none" height="4.2" style="stroke:#C82930;stroke-width:0.6999999999999998;" width="4.2" x="10.5" y="715.415"/><text fill="#000000" font-family="sans-serif" font-size="9.8" lengthAdjust="spacing" textLength="34.3" x="18.9" y="720.5229">job: Job</text><line style="stroke:#181818;stroke-width:0.3499999999999999;" x1="5.6" x2="186.9" y1="725.7824" y2="725.7824"/></g><!--class Repositories--><g id="elem_Repositories"><rect codeLine="43" fill="#F1F1F1" height="98.7738" id="Repositories" rx="1.75" ry="1.75" style="stroke:#181818;stroke-width:0.3499999999999999;" width="244.3" x="283.5" y="184.8"/><ellipse cx="375.025" cy="196" fill="#ADD1B2" rx="7.7" ry="7.7" style="stroke:#181818;stroke-width:0.6999999999999998;"/><path d="M376.9609,193.1125 Q377.0703,192.9594 377.2016,192.8828 Q377.3328,192.8062 377.4859,192.8062 Q377.7484,192.8062 377.9125,192.9922 Q378.0766,193.1672 378.0766,193.5937 L378.0766,194.6109 Q378.0766,195.0375 377.9125,195.2234 Q377.7484,195.4094 377.4859,195.4094 Q377.2453,195.4094 377.1031,195.2672 Q376.9609,195.1359 376.8844,194.775 Q376.8516,194.5234 376.7203,194.3922 Q376.4906,194.1297 376.0641,193.9766 Q375.6375,193.8234 375.2,193.8234 Q374.6641,193.8234 374.2156,194.0531 Q373.7781,194.2828 373.4281,194.8078 Q373.0891,195.3328 373.0891,196.0547 L373.0891,196.8203 Q373.0891,197.6844 373.7125,198.2641 Q374.3359,198.8328 375.4516,198.8328 Q376.1078,198.8328 376.5672,198.6578 Q376.8406,198.5484 377.1359,198.2422 Q377.3219,198.0562 377.4203,198.0016 Q377.5297,197.9469 377.6719,197.9469 Q377.9016,197.9469 378.0766,198.1328 Q378.2625,198.3078 378.2625,198.5484 Q378.2625,198.7891 378.0219,199.0734 Q377.6719,199.4781 377.1141,199.7078 Q376.3594,200.025 375.4516,200.025 Q374.3906,200.025 373.5484,199.5875 Q372.8594,199.2375 372.3781,198.4937 Q371.8969,197.7391 371.8969,196.8422 L371.8969,196.0328 Q371.8969,195.1031 372.3234,194.3047 Q372.7609,193.4953 373.5266,193.0687 Q374.2922,192.6312 375.1562,192.6312 Q375.6703,192.6312 376.1187,192.7516 Q376.5781,192.8609 376.9609,193.1125 Z " fill="#000000"/><text fill="#000000" font-family="sans-serif" font-size="9.8" lengthAdjust="spacing" textLength="55.3" x="389.375" y="200.0578">Repositories</text><line style="stroke:#181818;stroke-width:0.3499999999999999;" x1="284.2" x2="527.1" y1="207.2" y2="207.2"/><rect fill="none" height="4.2" style="stroke:#C82930;stroke-width:0.6999999999999998;" width="4.2" x="289.1" y="215.4674"/><text fill="#000000" font-family="sans-serif" font-size="9.8" lengthAdjust="spacing" textLength="98" x="297.5" y="220.5752">instance: Repositories</text><rect fill="none" height="4.2" style="stroke:#C82930;stroke-width:0.6999999999999998;" width="4.2" x="289.1" y="228.5021"/><text fill="#000000" font-family="sans-serif" font-size="9.8" lengthAdjust="spacing" textLength="217.7" x="297.5" y="233.61">collaboratorsRepository: CollaboratorsRepository</text><rect fill="none" height="4.2" style="stroke:#C82930;stroke-width:0.6999999999999998;" width="4.2" x="289.1" y="241.5369"/><text fill="#000000" font-family="sans-serif" font-size="9.8" lengthAdjust="spacing" textLength="144.2" x="297.5" y="246.6447">skillsRepository: SkillsRepository</text><rect fill="none" height="4.2" style="stroke:#C82930;stroke-width:0.6999999999999998;" width="4.2" x="289.1" y="254.5717"/><text fill="#000000" font-family="sans-serif" font-size="9.8" lengthAdjust="spacing" textLength="139.3" x="297.5" y="259.6795">jobsRepository: JobsRepository</text><rect fill="none" height="4.2" style="stroke:#C82930;stroke-width:0.6999999999999998;" width="4.2" x="289.1" y="267.6064"/><text fill="#000000" font-family="sans-serif" font-size="9.8" lengthAdjust="spacing" textLength="226.1" x="297.5" y="272.7143">authenticationRepository: AuthenticationRepository</text><line style="stroke:#181818;stroke-width:0.3499999999999999;" x1="284.2" x2="527.1" y1="277.9738" y2="277.9738"/></g><!--class Skill--><g id="elem_Skill"><rect codeLine="51" fill="#F1F1F1" height="46.6348" id="Skill" rx="1.75" ry="1.75" style="stroke:#181818;stroke-width:0.3499999999999999;" width="119.7" x="100.8" y="773.5"/><ellipse cx="148.925" cy="784.7" fill="#ADD1B2" rx="7.7" ry="7.7" style="stroke:#181818;stroke-width:0.6999999999999998;"/><path d="M150.8609,781.8125 Q150.9703,781.6594 151.1016,781.5828 Q151.2328,781.5062 151.3859,781.5062 Q151.6484,781.5062 151.8125,781.6922 Q151.9766,781.8672 151.9766,782.2937 L151.9766,783.3109 Q151.9766,783.7375 151.8125,783.9234 Q151.6484,784.1094 151.3859,784.1094 Q151.1453,784.1094 151.0031,783.9672 Q150.8609,783.8359 150.7844,783.475 Q150.7516,783.2234 150.6203,783.0922 Q150.3906,782.8297 149.9641,782.6766 Q149.5375,782.5234 149.1,782.5234 Q148.5641,782.5234 148.1156,782.7531 Q147.6781,782.9828 147.3281,783.5078 Q146.9891,784.0328 146.9891,784.7547 L146.9891,785.5203 Q146.9891,786.3844 147.6125,786.9641 Q148.2359,787.5328 149.3516,787.5328 Q150.0078,787.5328 150.4672,787.3578 Q150.7406,787.2484 151.0359,786.9422 Q151.2219,786.7562 151.3203,786.7016 Q151.4297,786.6469 151.5719,786.6469 Q151.8016,786.6469 151.9766,786.8328 Q152.1625,787.0078 152.1625,787.2484 Q152.1625,787.4891 151.9219,787.7734 Q151.5719,788.1781 151.0141,788.4078 Q150.2594,788.725 149.3516,788.725 Q148.2906,788.725 147.4484,788.2875 Q146.7594,787.9375 146.2781,787.1937 Q145.7969,786.4391 145.7969,785.5422 L145.7969,784.7328 Q145.7969,783.8031 146.2234,783.0047 Q146.6609,782.1953 147.4266,781.7687 Q148.1922,781.3312 149.0562,781.3312 Q149.5703,781.3312 150.0187,781.4516 Q150.4781,781.5609 150.8609,781.8125 Z " fill="#000000"/><text fill="#000000" font-family="sans-serif" font-size="9.8" lengthAdjust="spacing" textLength="17.5" x="163.275" y="788.7578">Skill</text><line style="stroke:#181818;stroke-width:0.3499999999999999;" x1="101.5" x2="219.8" y1="795.9" y2="795.9"/><rect fill="none" height="4.2" style="stroke:#C82930;stroke-width:0.6999999999999998;" width="4.2" x="106.4" y="804.1674"/><text fill="#000000" font-family="sans-serif" font-size="9.8" lengthAdjust="spacing" textLength="101.5" x="114.8" y="809.2752">nameOfTheSkill: String</text><line style="stroke:#181818;stroke-width:0.3499999999999999;" x1="101.5" x2="219.8" y1="814.5348" y2="814.5348"/></g><!--link AgendaController to Agenda--><g id="link_AgendaController_Agenda"><path codeLine="55" d="M230.489,142.863 C211.75,167.167 191.912,192.899 178.192,210.7 " fill="none" id="AgendaController-Agenda" style="stroke:#181818;stroke-width:0.6999999999999998;"/><text fill="#000000" font-family="sans-serif" font-size="9.1" lengthAdjust="spacing" textLength="4.9" x="221.5418" y="158.1962">1</text><text fill="#000000" font-family="sans-serif" font-size="9.1" lengthAdjust="spacing" textLength="4.9" x="176.2632" y="202.8779">1</text></g><!--link AgendaController to Repositories--><g id="link_AgendaController_Repositories"><path codeLine="56" d="M335.811,142.863 C346.64,156.905 357.833,171.43 368.004,184.618 " fill="none" id="AgendaController-Repositories" style="stroke:#181818;stroke-width:0.6999999999999998;"/><text fill="#000000" font-family="sans-serif" font-size="9.1" lengthAdjust="spacing" textLength="4.9" x="334.5984" y="158.1962">1</text><text fill="#000000" font-family="sans-serif" font-size="9.1" lengthAdjust="spacing" textLength="4.9" x="358.9691" y="176.8229">1</text></g><!--link Agenda to AgendaEntry--><g id="link_Agenda_AgendaEntry"><path codeLine="57" d="M160.65,257.656 C160.65,276.248 160.65,303.009 160.65,325.465 " fill="none" id="Agenda-AgendaEntry" style="stroke:#181818;stroke-width:0.6999999999999998;"/><text fill="#000000" font-family="sans-serif" font-size="9.1" lengthAdjust="spacing" textLength="4.9" x="155.3136" y="272.7644">1</text><text fill="#000000" font-family="sans-serif" font-size="9.1" lengthAdjust="spacing" textLength="3.5" x="156.9477" y="317.7478">*</text></g><!--link AgendaEntry to Team--><g id="link_AgendaEntry_Team"><path codeLine="58" d="M160.65,410.998 C160.65,424.935 160.65,440.125 160.65,452.858 " fill="none" id="AgendaEntry-Team" style="stroke:#181818;stroke-width:0.6999999999999998;"/><text fill="#000000" font-family="sans-serif" font-size="9.1" lengthAdjust="spacing" textLength="4.9" x="155.4514" y="426.7507">1</text><text fill="#000000" font-family="sans-serif" font-size="9.1" lengthAdjust="spacing" textLength="4.9" x="155.3595" y="445.0842">1</text></g><!--link Team to Collaborator--><g id="link_Team_Collaborator"><path codeLine="59" d="M148.841,512.498 C143.969,524.503 138.054,539.112 131.964,554.141 " fill="none" id="Team-Collaborator" style="stroke:#181818;stroke-width:0.6999999999999998;"/><text fill="#000000" font-family="sans-serif" font-size="9.1" lengthAdjust="spacing" textLength="4.9" x="141.6685" y="528.0259">1</text><text fill="#000000" font-family="sans-serif" font-size="9.1" lengthAdjust="spacing" textLength="3.5" x="130.4275" y="546.5919">*</text></g><!--link Team to Skill--><g id="link_Team_Skill"><path codeLine="60" d="M181.209,512.701 C188.622,524.993 196.091,539.805 199.85,554.4 C219.485,630.623 221.011,655.69 199.85,731.5 C195.643,746.564 186.879,761.614 178.703,773.409 " fill="none" id="Team-Skill" style="stroke:#181818;stroke-width:0.6999999999999998;"/><text fill="#000000" font-family="sans-serif" font-size="9.1" lengthAdjust="spacing" textLength="4.9" x="179.0819" y="528.0361">1</text><text fill="#000000" font-family="sans-serif" font-size="9.1" lengthAdjust="spacing" textLength="3.5" x="178.4127" y="765.5689">*</text></g><!--link Collaborator to Skill--><g id="link_Collaborator_Skill"><path codeLine="61" d="M133.336,731.535 C139.881,747.04 146.146,761.887 151.025,773.444 " fill="none" id="Collaborator-Skill" style="stroke:#181818;stroke-width:0.6999999999999998;"/><text fill="#000000" font-family="sans-serif" font-size="9.1" lengthAdjust="spacing" textLength="3.5" x="131.8789" y="746.8294">*</text><text fill="#000000" font-family="sans-serif" font-size="9.1" lengthAdjust="spacing" textLength="3.5" x="145.2855" y="765.6108">*</text></g><!--SRC=[bLHHRziW47xthq1vIhVaOQ_M52cgEwbLkqrBjdSCr_XM31NWQDQq_puCs0NNgTGy9E7xFhuxxWwOeCQG_GaafzTAMgs404t-5iHzjjJZPUG3fk5P6RHA8vYI_4XMdlz8EG_o6-VMhoqrJoKvkkyDWG6fg8MI7An6URegIQsK02h3tXFOFRDuXXS7vxjsihtMjBz7Opydvhjfrq_fZe4d2VmNDCY4sqHXpDjhCuyesiLJSlw0ihDWZkh06k2TWBM9Vz9j5Ur7VhSXt1_aNZ4gXZDjI1jCIeBIkd1dXJm4618qC0RvelIWVt-4A-ySB1t4Ek70eR8taWT7IxMjvcdnJbEBIjxAXpp1ILFyAmgM34BU_jY5YpsORVRev62COkX2yECq1u6nG5ktTjzXFJjh0C-ncOkzc-8E9cD0yuH2PFh3WCHECpVTj5Qk7afdekk4I9nJU8mWQJlDRq1grBQfblAdl4KtbqfUOBa6OtApLjKeu6lNrg1p1bgA8eSi_VETzg2NvCZTTSD7PBxvbM9Twu1Z_ppBdaVcDjClERvTsz-gBicTgeVgnVAbZyDOFfHkIYM3XQSZRyz4zsNMXuH8qqhbXnao9PYfxh9rR4bdcw4CeGYfUd-1UHaM7pMTac-FnmOyEjNHYL-zjQjFAxBT-f_uphuboQeMh-j8VrYbTx18xsFYuE-SlpF9lhJ2hqX_XYAx30ESily1]--></g></svg>