<?xml version="1.0" encoding="us-ascii" standalone="no"?><svg xmlns="http://www.w3.org/2000/svg" xmlns:xlink="http://www.w3.org/1999/xlink" contentStyleType="text/css" height="737px" preserveAspectRatio="none" style="width:1114px;height:737px;background:#FFFFFF;" version="1.1" viewBox="0 0 1114 737" width="1114px" zoomAndPan="magnify"><defs/><g><rect fill="#FFFFFF" height="219.0371" style="stroke:#181818;stroke-width:1.0;" width="10" x="241.5" y="116.9121"/><rect fill="#FFFFFF" height="276.959" style="stroke:#181818;stroke-width:1.0;" width="10" x="241.5" y="367.2402"/><rect fill="#FFFFFF" height="156.4551" style="stroke:#181818;stroke-width:1.0;" width="10" x="533.5" y="148.2031"/><rect fill="#FFFFFF" height="31.291" style="stroke:#181818;stroke-width:1.0;" width="10" x="533.5" y="398.5313"/><rect fill="#FFFFFF" height="31.291" style="stroke:#181818;stroke-width:1.0;" width="10" x="660.5" y="179.4941"/><rect fill="#FFFFFF" height="31.291" style="stroke:#181818;stroke-width:1.0;" width="10" x="779.5" y="242.0762"/><rect fill="#FFFFFF" height="31.291" style="stroke:#181818;stroke-width:1.0;" width="10" x="900" y="487.4043"/><rect fill="#FFFFFF" height="31.291" style="stroke:#181818;stroke-width:1.0;" width="10" x="1025" y="549.9863"/><rect fill="none" height="192.377" style="stroke:#000000;stroke-width:1.5;" width="1097" x="10" y="444.8223"/><line style="stroke:#181818;stroke-width:0.5;stroke-dasharray:5.0,5.0;" x1="38" x2="38" y1="83.6211" y2="654.1992"/><line style="stroke:#181818;stroke-width:0.5;stroke-dasharray:5.0,5.0;" x1="246.5" x2="246.5" y1="83.6211" y2="654.1992"/><line style="stroke:#181818;stroke-width:0.5;stroke-dasharray:5.0,5.0;" x1="538" x2="538" y1="83.6211" y2="654.1992"/><line style="stroke:#181818;stroke-width:0.5;stroke-dasharray:5.0,5.0;" x1="665" x2="665" y1="83.6211" y2="654.1992"/><line style="stroke:#181818;stroke-width:0.5;stroke-dasharray:5.0,5.0;" x1="784" x2="784" y1="83.6211" y2="654.1992"/><line style="stroke:#181818;stroke-width:0.5;stroke-dasharray:5.0,5.0;" x1="905" x2="905" y1="83.6211" y2="654.1992"/><line style="stroke:#181818;stroke-width:0.5;stroke-dasharray:5.0,5.0;" x1="1030" x2="1030" y1="83.6211" y2="654.1992"/><text fill="#000000" font-family="sans-serif" font-size="14" lengthAdjust="spacing" textLength="31" x="20" y="80.1074">GSM</text><ellipse cx="38.5" cy="13.5" fill="#E2E2F0" rx="8" ry="8" style="stroke:#181818;stroke-width:0.5;"/><path d="M38.5,21.5 L38.5,48.5 M25.5,29.5 L51.5,29.5 M38.5,48.5 L25.5,63.5 M38.5,48.5 L51.5,63.5 " fill="none" style="stroke:#181818;stroke-width:0.5;"/><text fill="#000000" font-family="sans-serif" font-size="14" lengthAdjust="spacing" textLength="31" x="20" y="668.3066">GSM</text><ellipse cx="38.5" cy="680.3203" fill="#E2E2F0" rx="8" ry="8" style="stroke:#181818;stroke-width:0.5;"/><path d="M38.5,688.3203 L38.5,715.3203 M25.5,696.3203 L51.5,696.3203 M38.5,715.3203 L25.5,730.3203 M38.5,715.3203 L51.5,730.3203 " fill="none" style="stroke:#181818;stroke-width:0.5;"/><rect fill="#E2E2F0" height="32.6211" rx="2.5" ry="2.5" style="stroke:#181818;stroke-width:0.5;" width="86" x="203.5" y="50"/><text fill="#000000" font-family="sans-serif" font-size="14" lengthAdjust="spacing" textLength="72" x="210.5" y="72.1074">AgendaGUI</text><rect fill="#E2E2F0" height="32.6211" rx="2.5" ry="2.5" style="stroke:#181818;stroke-width:0.5;" width="86" x="203.5" y="653.1992"/><text fill="#000000" font-family="sans-serif" font-size="14" lengthAdjust="spacing" textLength="72" x="210.5" y="675.3066">AgendaGUI</text><rect fill="#E2E2F0" height="32.6211" rx="2.5" ry="2.5" style="stroke:#181818;stroke-width:0.5;" width="125" x="476" y="50"/><text fill="#000000" font-family="sans-serif" font-size="14" lengthAdjust="spacing" textLength="111" x="483" y="72.1074">AgendaController</text><rect fill="#E2E2F0" height="32.6211" rx="2.5" ry="2.5" style="stroke:#181818;stroke-width:0.5;" width="125" x="476" y="653.1992"/><text fill="#000000" font-family="sans-serif" font-size="14" lengthAdjust="spacing" textLength="111" x="483" y="675.3066">AgendaController</text><rect fill="#E2E2F0" height="32.6211" rx="2.5" ry="2.5" style="stroke:#181818;stroke-width:0.5;" width="93" x="619" y="50"/><text fill="#000000" font-family="sans-serif" font-size="14" lengthAdjust="spacing" textLength="79" x="626" y="72.1074">Repositories</text><rect fill="#E2E2F0" height="32.6211" rx="2.5" ry="2.5" style="stroke:#181818;stroke-width:0.5;" width="93" x="619" y="653.1992"/><text fill="#000000" font-family="sans-serif" font-size="14" lengthAdjust="spacing" textLength="79" x="626" y="675.3066">Repositories</text><rect fill="#E2E2F0" height="32.6211" rx="2.5" ry="2.5" style="stroke:#181818;stroke-width:0.5;" width="125" x="722" y="50"/><text fill="#000000" font-family="sans-serif" font-size="14" lengthAdjust="spacing" textLength="111" x="729" y="72.1074">TeamsRepository</text><rect fill="#E2E2F0" height="32.6211" rx="2.5" ry="2.5" style="stroke:#181818;stroke-width:0.5;" width="125" x="722" y="653.1992"/><text fill="#000000" font-family="sans-serif" font-size="14" lengthAdjust="spacing" textLength="111" x="729" y="675.3066">TeamsRepository</text><rect fill="#E2E2F0" height="32.6211" rx="2.5" ry="2.5" style="stroke:#181818;stroke-width:0.5;" width="96" x="857" y="50"/><text fill="#000000" font-family="sans-serif" font-size="14" lengthAdjust="spacing" textLength="82" x="864" y="72.1074">AgendaEntry</text><rect fill="#E2E2F0" height="32.6211" rx="2.5" ry="2.5" style="stroke:#181818;stroke-width:0.5;" width="96" x="857" y="653.1992"/><text fill="#000000" font-family="sans-serif" font-size="14" lengthAdjust="spacing" textLength="82" x="864" y="675.3066">AgendaEntry</text><rect fill="#E2E2F0" height="32.6211" rx="2.5" ry="2.5" style="stroke:#181818;stroke-width:0.5;" width="134" x="963" y="50"/><text fill="#000000" font-family="sans-serif" font-size="14" lengthAdjust="spacing" textLength="120" x="970" y="72.1074">SendMailController</text><rect fill="#E2E2F0" height="32.6211" rx="2.5" ry="2.5" style="stroke:#181818;stroke-width:0.5;" width="134" x="963" y="653.1992"/><text fill="#000000" font-family="sans-serif" font-size="14" lengthAdjust="spacing" textLength="120" x="970" y="675.3066">SendMailController</text><rect fill="#FFFFFF" height="219.0371" style="stroke:#181818;stroke-width:1.0;" width="10" x="241.5" y="116.9121"/><rect fill="#FFFFFF" height="276.959" style="stroke:#181818;stroke-width:1.0;" width="10" x="241.5" y="367.2402"/><rect fill="#FFFFFF" height="156.4551" style="stroke:#181818;stroke-width:1.0;" width="10" x="533.5" y="148.2031"/><rect fill="#FFFFFF" height="31.291" style="stroke:#181818;stroke-width:1.0;" width="10" x="533.5" y="398.5313"/><rect fill="#FFFFFF" height="31.291" style="stroke:#181818;stroke-width:1.0;" width="10" x="660.5" y="179.4941"/><rect fill="#FFFFFF" height="31.291" style="stroke:#181818;stroke-width:1.0;" width="10" x="779.5" y="242.0762"/><rect fill="#FFFFFF" height="31.291" style="stroke:#181818;stroke-width:1.0;" width="10" x="900" y="487.4043"/><rect fill="#FFFFFF" height="31.291" style="stroke:#181818;stroke-width:1.0;" width="10" x="1025" y="549.9863"/><polygon fill="#181818" points="229.5,112.9121,239.5,116.9121,229.5,120.9121,233.5,116.9121" style="stroke:#181818;stroke-width:1.0;"/><line style="stroke:#181818;stroke-width:1.0;" x1="38.5" x2="235.5" y1="116.9121" y2="116.9121"/><text fill="#000000" font-family="sans-serif" font-size="13" lengthAdjust="spacing" textLength="184" x="45.5" y="111.6494">Clicks on "Assign Team" button</text><polygon fill="#181818" points="521.5,144.2031,531.5,148.2031,521.5,152.2031,525.5,148.2031" style="stroke:#181818;stroke-width:1.0;"/><line style="stroke:#181818;stroke-width:1.0;" x1="251.5" x2="527.5" y1="148.2031" y2="148.2031"/><text fill="#000000" font-family="sans-serif" font-size="13" lengthAdjust="spacing" textLength="65" x="258.5" y="142.9404">getTeams()</text><polygon fill="#181818" points="648.5,175.4941,658.5,179.4941,648.5,183.4941,652.5,179.4941" style="stroke:#181818;stroke-width:1.0;"/><line style="stroke:#181818;stroke-width:1.0;" x1="543.5" x2="654.5" y1="179.4941" y2="179.4941"/><text fill="#000000" font-family="sans-serif" font-size="13" lengthAdjust="spacing" textLength="75" x="550.5" y="174.2314">getInstance()</text><polygon fill="#181818" points="554.5,206.7852,544.5,210.7852,554.5,214.7852,550.5,210.7852" style="stroke:#181818;stroke-width:1.0;"/><line style="stroke:#181818;stroke-width:1.0;stroke-dasharray:2.0,2.0;" x1="548.5" x2="664.5" y1="210.7852" y2="210.7852"/><text fill="#000000" font-family="sans-serif" font-size="13" lengthAdjust="spacing" textLength="93" x="560.5" y="205.5225">returns instance</text><polygon fill="#181818" points="767.5,238.0762,777.5,242.0762,767.5,246.0762,771.5,242.0762" style="stroke:#181818;stroke-width:1.0;"/><line style="stroke:#181818;stroke-width:1.0;" x1="543.5" x2="773.5" y1="242.0762" y2="242.0762"/><text fill="#000000" font-family="sans-serif" font-size="13" lengthAdjust="spacing" textLength="65" x="550.5" y="236.8135">getTeams()</text><polygon fill="#181818" points="554.5,269.3672,544.5,273.3672,554.5,277.3672,550.5,273.3672" style="stroke:#181818;stroke-width:1.0;"/><line style="stroke:#181818;stroke-width:1.0;stroke-dasharray:2.0,2.0;" x1="548.5" x2="783.5" y1="273.3672" y2="273.3672"/><text fill="#000000" font-family="sans-serif" font-size="13" lengthAdjust="spacing" textLength="115" x="560.5" y="268.1045">returns list of teams</text><polygon fill="#181818" points="262.5,300.6582,252.5,304.6582,262.5,308.6582,258.5,304.6582" style="stroke:#181818;stroke-width:1.0;"/><line style="stroke:#181818;stroke-width:1.0;stroke-dasharray:2.0,2.0;" x1="256.5" x2="537.5" y1="304.6582" y2="304.6582"/><text fill="#000000" font-family="sans-serif" font-size="13" lengthAdjust="spacing" textLength="115" x="268.5" y="299.3955">returns list of teams</text><polygon fill="#181818" points="49.5,331.9492,39.5,335.9492,49.5,339.9492,45.5,335.9492" style="stroke:#181818;stroke-width:1.0;"/><line style="stroke:#181818;stroke-width:1.0;" x1="43.5" x2="245.5" y1="335.9492" y2="335.9492"/><text fill="#000000" font-family="sans-serif" font-size="13" lengthAdjust="spacing" textLength="114" x="55.5" y="330.6865">Shows list of teams</text><polygon fill="#181818" points="229.5,363.2402,239.5,367.2402,229.5,371.2402,233.5,367.2402" style="stroke:#181818;stroke-width:1.0;"/><line style="stroke:#181818;stroke-width:1.0;" x1="38.5" x2="235.5" y1="367.2402" y2="367.2402"/><text fill="#000000" font-family="sans-serif" font-size="13" lengthAdjust="spacing" textLength="88" x="45.5" y="361.9775">Selects a team</text><polygon fill="#181818" points="521.5,394.5313,531.5,398.5313,521.5,402.5313,525.5,398.5313" style="stroke:#181818;stroke-width:1.0;"/><line style="stroke:#181818;stroke-width:1.0;" x1="251.5" x2="527.5" y1="398.5313" y2="398.5313"/><text fill="#000000" font-family="sans-serif" font-size="13" lengthAdjust="spacing" textLength="263" x="258.5" y="393.2686">isTeamAvailable(selectedTeam, agendaEntry)</text><polygon fill="#181818" points="262.5,425.8223,252.5,429.8223,262.5,433.8223,258.5,429.8223" style="stroke:#181818;stroke-width:1.0;"/><line style="stroke:#181818;stroke-width:1.0;stroke-dasharray:2.0,2.0;" x1="256.5" x2="537.5" y1="429.8223" y2="429.8223"/><text fill="#000000" font-family="sans-serif" font-size="13" lengthAdjust="spacing" textLength="150" x="268.5" y="424.5596">returns availability of team</text><path d="M10,444.8223 L71,444.8223 L71,454.1133 L61,464.1133 L10,464.1133 L10,444.8223 " fill="#EEEEEE" style="stroke:#000000;stroke-width:1.5;"/><rect fill="none" height="192.377" style="stroke:#000000;stroke-width:1.5;" width="1097" x="10" y="444.8223"/><text fill="#000000" font-family="sans-serif" font-size="13" font-weight="bold" lengthAdjust="spacing" textLength="16" x="25" y="459.8506">alt</text><text fill="#000000" font-family="sans-serif" font-size="11" font-weight="bold" lengthAdjust="spacing" textLength="109" x="86" y="458.6924">[if team is available]</text><polygon fill="#181818" points="888,483.4043,898,487.4043,888,491.4043,892,487.4043" style="stroke:#181818;stroke-width:1.0;"/><line style="stroke:#181818;stroke-width:1.0;" x1="251.5" x2="894" y1="487.4043" y2="487.4043"/><text fill="#000000" font-family="sans-serif" font-size="13" lengthAdjust="spacing" textLength="139" x="258.5" y="482.1416">setTeam(selectedTeam)</text><polygon fill="#181818" points="262.5,514.6953,252.5,518.6953,262.5,522.6953,258.5,518.6953" style="stroke:#181818;stroke-width:1.0;"/><line style="stroke:#181818;stroke-width:1.0;stroke-dasharray:2.0,2.0;" x1="256.5" x2="904" y1="518.6953" y2="518.6953"/><text fill="#000000" font-family="sans-serif" font-size="13" lengthAdjust="spacing" textLength="65" x="268.5" y="513.4326">team is set</text><polygon fill="#181818" points="1013,545.9863,1023,549.9863,1013,553.9863,1017,549.9863" style="stroke:#181818;stroke-width:1.0;"/><line style="stroke:#181818;stroke-width:1.0;" x1="251.5" x2="1019" y1="549.9863" y2="549.9863"/><text fill="#000000" font-family="sans-serif" font-size="13" lengthAdjust="spacing" textLength="325" x="258.5" y="544.7236">sendMail(selectedTeam, "Team Assignment", message)</text><polygon fill="#181818" points="262.5,577.2773,252.5,581.2773,262.5,585.2773,258.5,581.2773" style="stroke:#181818;stroke-width:1.0;"/><line style="stroke:#181818;stroke-width:1.0;stroke-dasharray:2.0,2.0;" x1="256.5" x2="1029" y1="581.2773" y2="581.2773"/><text fill="#000000" font-family="sans-serif" font-size="13" lengthAdjust="spacing" textLength="74" x="268.5" y="576.0146">email is sent</text><line style="stroke:#000000;stroke-width:1.0;stroke-dasharray:2.0,2.0;" x1="10" x2="1107" y1="590.2773" y2="590.2773"/><text fill="#000000" font-family="sans-serif" font-size="11" font-weight="bold" lengthAdjust="spacing" textLength="130" x="15" y="602.1475">[if team is not available]</text><polygon fill="#181818" points="49.5,625.1992,39.5,629.1992,49.5,633.1992,45.5,629.1992" style="stroke:#181818;stroke-width:1.0;"/><line style="stroke:#181818;stroke-width:1.0;" x1="43.5" x2="240.5" y1="629.1992" y2="629.1992"/><text fill="#000000" font-family="sans-serif" font-size="13" lengthAdjust="spacing" textLength="126" x="55.5" y="623.9365">Shows error message</text><!--SRC=[XLJBRW8n3BplLrXx0Wb-W4CbX2h4ePTk-m5XSRTHGu9YGyNVDu_TJR90uGJsZ3qUnuYMZOLwsxpL80ZEXBOw2SkobIUX6UfrX_eWjf-xaE_EybvwOpHRenJQW6h7doNu7K-6f6ieaGBGPe4I-e7YI2F-6j0ynEv9U7Kj8mpzjnBIECIRa6gYyrY4gifF3yiNFoMiOADa-qDWj6j193iDNbGD-pEpqPLeMLu4O_34Cnmn3Uxu7NAOOZPFsCoP3EkOkHEHkzF4GhUOqmk_2ifosjqYdwqca7sPwe3tovGwHeyV391sa90FUoj93EOhad81gKhUVNJ-AJ-piNS-h6u5pRVv_OVdLrKkkK65BHE807w-L4dUalN5lHonLpYZmCU3Zov0fAVuVEatuufOLIh9rq7-Wwc5Of0HuIGDJ8KLk4-lEzo1AqznZONKUG2EbUF9-50a9Mr31rSav3CvYTGtBCyfT8vdDt4f73V4cpgwAlK2ZaZap9l8cjodpqrw9A7eCr6flf4wAOIACBTF6xvlOV6gq5htLzahhTneavVr1m00]--></g></svg>