<?xml version="1.0" encoding="us-ascii" standalone="no"?><svg xmlns="http://www.w3.org/2000/svg" xmlns:xlink="http://www.w3.org/1999/xlink" contentStyleType="text/css" height="291px" preserveAspectRatio="none" style="width:689px;height:291px;background:#FFFFFF;" version="1.1" viewBox="0 0 689 291" width="689px" zoomAndPan="magnify"><defs/><g><rect fill="#FFFFFF" height="127.1641" style="stroke:#181818;stroke-width:1.0;" width="10" x="206" y="90.5332"/><rect fill="#FFFFFF" height="31.291" style="stroke:#181818;stroke-width:1.0;" width="10" x="583" y="148.1152"/><rect fill="none" height="81.873" style="stroke:#000000;stroke-width:1.5;" width="554" x="129.5" y="105.5332"/><line style="stroke:#181818;stroke-width:0.5;stroke-dasharray:5.0,5.0;" x1="210.5" x2="210.5" y1="57.2422" y2="235.6973"/><line style="stroke:#181818;stroke-width:0.5;stroke-dasharray:5.0,5.0;" x1="338.5" x2="338.5" y1="57.2422" y2="235.6973"/><line style="stroke:#181818;stroke-width:0.5;stroke-dasharray:5.0,5.0;" x1="443.5" x2="443.5" y1="57.2422" y2="235.6973"/><line style="stroke:#181818;stroke-width:0.5;stroke-dasharray:5.0,5.0;" x1="587.5" x2="587.5" y1="57.2422" y2="235.6973"/><rect fill="#E3E3E3" height="32.6211" rx="2.5" ry="2.5" style="stroke:#181818;stroke-width:0.5;" width="143" x="139.5" y="23.6211"/><text fill="#000000" font-family="sans-serif" font-size="14" lengthAdjust="spacing" textLength="129" x="146.5" y="45.7285">AssignSkillController</text><rect fill="#E3E3E3" height="32.6211" rx="2.5" ry="2.5" style="stroke:#181818;stroke-width:0.5;" width="143" x="139.5" y="234.6973"/><text fill="#000000" font-family="sans-serif" font-size="14" lengthAdjust="spacing" textLength="129" x="146.5" y="256.8047">AssignSkillController</text><rect fill="#E3E3E3" height="32.6211" rx="2.5" ry="2.5" style="stroke:#181818;stroke-width:0.5;" width="93" x="292.5" y="23.6211"/><text fill="#000000" font-family="sans-serif" font-size="14" lengthAdjust="spacing" textLength="79" x="299.5" y="45.7285">Repositories</text><rect fill="#E3E3E3" height="32.6211" rx="2.5" ry="2.5" style="stroke:#181818;stroke-width:0.5;" width="93" x="292.5" y="234.6973"/><text fill="#000000" font-family="sans-serif" font-size="14" lengthAdjust="spacing" textLength="79" x="299.5" y="256.8047">Repositories</text><rect fill="#E3E3E3" height="51.2422" rx="2.5" ry="2.5" style="stroke:#181818;stroke-width:0.5;" width="97" x="395.5" y="5"/><text fill="#000000" font-family="sans-serif" font-size="14" lengthAdjust="spacing" textLength="74" x="407" y="27.1074">repositories</text><text fill="#000000" font-family="sans-serif" font-size="14" lengthAdjust="spacing" textLength="83" x="402.5" y="45.7285">:Repositories</text><rect fill="#E3E3E3" height="51.2422" rx="2.5" ry="2.5" style="stroke:#181818;stroke-width:0.5;" width="97" x="395.5" y="234.6973"/><text fill="#000000" font-family="sans-serif" font-size="14" lengthAdjust="spacing" textLength="74" x="407" y="256.8047">repositories</text><text fill="#000000" font-family="sans-serif" font-size="14" lengthAdjust="spacing" textLength="83" x="402.5" y="275.4258">:Repositories</text><rect fill="#E3E3E3" height="51.2422" rx="2.5" ry="2.5" style="stroke:#181818;stroke-width:0.5;" width="171" x="502.5" y="5"/><text fill="#000000" font-family="sans-serif" font-size="14" lengthAdjust="spacing" textLength="150" x="513" y="27.1074">collaboratorsRepository</text><text fill="#000000" font-family="sans-serif" font-size="14" lengthAdjust="spacing" textLength="157" x="509.5" y="45.7285">:CollaboratorsRepository</text><rect fill="#E3E3E3" height="51.2422" rx="2.5" ry="2.5" style="stroke:#181818;stroke-width:0.5;" width="171" x="502.5" y="234.6973"/><text fill="#000000" font-family="sans-serif" font-size="14" lengthAdjust="spacing" textLength="150" x="513" y="256.8047">collaboratorsRepository</text><text fill="#000000" font-family="sans-serif" font-size="14" lengthAdjust="spacing" textLength="157" x="509.5" y="275.4258">:CollaboratorsRepository</text><rect fill="#FFFFFF" height="127.1641" style="stroke:#181818;stroke-width:1.0;" width="10" x="206" y="90.5332"/><rect fill="#FFFFFF" height="31.291" style="stroke:#181818;stroke-width:1.0;" width="10" x="583" y="148.1152"/><polygon fill="#181818" points="194,86.5332,204,90.5332,194,94.5332,198,90.5332" style="stroke:#181818;stroke-width:1.0;"/><line style="stroke:#181818;stroke-width:1.0;" x1="0" x2="200" y1="90.5332" y2="90.5332"/><text fill="#000000" font-family="sans-serif" font-size="13" font-weight="bold" lengthAdjust="spacing" textLength="14" x="7" y="85.2705">23</text><text fill="#000000" font-family="sans-serif" font-size="13" lengthAdjust="spacing" textLength="169" x="25" y="85.2705">assignSkill(collaborator, skill)</text><path d="M129.5,105.5332 L247.5,105.5332 L247.5,114.8242 L237.5,124.8242 L129.5,124.8242 L129.5,105.5332 " fill="#EEEEEE" style="stroke:#000000;stroke-width:1.5;"/><rect fill="none" height="81.873" style="stroke:#000000;stroke-width:1.5;" width="554" x="129.5" y="105.5332"/><text fill="#000000" font-family="sans-serif" font-size="13" font-weight="bold" lengthAdjust="spacing" textLength="73" x="144.5" y="120.5615">Assign Skill</text><polygon fill="#181818" points="571,144.1152,581,148.1152,571,152.1152,575,148.1152" style="stroke:#181818;stroke-width:1.0;"/><line style="stroke:#181818;stroke-width:1.0;" x1="216" x2="577" y1="148.1152" y2="148.1152"/><text fill="#000000" font-family="sans-serif" font-size="13" font-weight="bold" lengthAdjust="spacing" textLength="14" x="223" y="142.8525">24</text><text fill="#000000" font-family="sans-serif" font-size="13" lengthAdjust="spacing" textLength="169" x="241" y="142.8525">assignSkill(collaborator, skill)</text><polygon fill="#181818" points="227,175.4063,217,179.4063,227,183.4063,223,179.4063" style="stroke:#181818;stroke-width:1.0;"/><line style="stroke:#181818;stroke-width:1.0;stroke-dasharray:2.0,2.0;" x1="221" x2="587" y1="179.4063" y2="179.4063"/><text fill="#000000" font-family="sans-serif" font-size="13" font-weight="bold" lengthAdjust="spacing" textLength="14" x="233" y="174.1436">25</text><text fill="#000000" font-family="sans-serif" font-size="13" lengthAdjust="spacing" textLength="49" x="251" y="174.1436">success</text><polygon fill="#181818" points="11,213.6973,1,217.6973,11,221.6973,7,217.6973" style="stroke:#181818;stroke-width:1.0;"/><line style="stroke:#181818;stroke-width:1.0;stroke-dasharray:2.0,2.0;" x1="5" x2="210" y1="217.6973" y2="217.6973"/><text fill="#000000" font-family="sans-serif" font-size="13" font-weight="bold" lengthAdjust="spacing" textLength="14" x="17" y="212.4346">26</text><text fill="#000000" font-family="sans-serif" font-size="13" lengthAdjust="spacing" textLength="49" x="35" y="212.4346">success</text><!--SRC=[ZP0nJyGm38Nt_0hh5a2Y2smdX8GgjfD0FKOMD_MrKTEuYbFW_Zr98qgBRi2Z_RtdPqjlt8WU1nZOiUuy3mJ1JwHacOoeUspf6CwMm9CEw5gx1gJ3XZ-DQ-64LaYfgyuq12VcKFENKf4AHfiHNO3TauXftR4trfRiWcThoUy01Sgtwh1XAnfPJ61lIBOcVZLvT_irE5jLpwzRWOvhi6QF4P85FqTjUNcI4xqSafF2AR2RXfeytDqhLJpEMVSHMMwvNc-u1Kcz6uKwc0yCb6zJ4AlrF8sGlm2pT6wdIX0aytdjF-n_XBzhSc1OLMv1iOIMIMiIMQ26Bid9DJdlGr7y4Qgr8jtr3G00]--></g></svg>