<svg xmlns="http://www.w3.org/2000/svg" xmlns:xlink="http://www.w3.org/1999/xlink" contentStyleType="text/css" height="562px" preserveAspectRatio="none" style="width:1401px;height:562px;background:#FFFFFF;" version="1.1" viewBox="0 0 1401 562" width="1401px" zoomAndPan="magnify"><defs/><g><rect fill="#FFFFFF" height="376.4922" style="stroke:#181818;stroke-width:1.0;" width="10" x="59.0171" y="93.6211"/><rect fill="#FFFFFF" height="353.2012" style="stroke:#181818;stroke-width:1.0;" width="10" x="317.0786" y="116.9121"/><rect fill="#FFFFFF" height="321.9102" style="stroke:#181818;stroke-width:1.0;" width="10" x="596.8047" y="148.2031"/><rect fill="#FFFFFF" height="290.6191" style="stroke:#181818;stroke-width:1.0;" width="10" x="876.5308" y="179.4941"/><rect fill="#FFFFFF" height="31.291" style="stroke:#181818;stroke-width:1.0;" width="10" x="1118.8921" y="210.7852"/><rect fill="#FFFFFF" height="31.291" style="stroke:#181818;stroke-width:1.0;" width="10" x="1118.8921" y="335.9492"/><rect fill="#FFFFFF" height="31.291" style="stroke:#181818;stroke-width:1.0;" width="10" x="1337.9121" y="273.3672"/><line style="stroke:#181818;stroke-width:0.5;stroke-dasharray:5.0,5.0;" x1="64" x2="64" y1="83.6211" y2="479.1133"/><line style="stroke:#181818;stroke-width:0.5;stroke-dasharray:5.0,5.0;" x1="321.71" x2="321.71" y1="83.6211" y2="479.1133"/><line style="stroke:#181818;stroke-width:0.5;stroke-dasharray:5.0,5.0;" x1="601.0913" x2="601.0913" y1="83.6211" y2="479.1133"/><line style="stroke:#181818;stroke-width:0.5;stroke-dasharray:5.0,5.0;" x1="881.0518" x2="881.0518" y1="83.6211" y2="479.1133"/><line style="stroke:#181818;stroke-width:0.5;stroke-dasharray:5.0,5.0;" x1="1123.0098" x2="1123.0098" y1="83.6211" y2="479.1133"/><line style="stroke:#181818;stroke-width:0.5;stroke-dasharray:5.0,5.0;" x1="1342.7744" x2="1342.7744" y1="83.6211" y2="479.1133"/><text fill="#000000" font-family="sans-serif" font-size="14" lengthAdjust="spacing" textLength="112.0342" x="5" y="80.1074">CRM Collaborator</text><ellipse cx="64.0171" cy="13.5" fill="#E2E2F0" rx="8" ry="8" style="stroke:#181818;stroke-width:0.5;"/><path d="M64.0171,21.5 L64.0171,48.5 M51.0171,29.5 L77.0171,29.5 M64.0171,48.5 L51.0171,63.5 M64.0171,48.5 L77.0171,63.5 " fill="none" style="stroke:#181818;stroke-width:0.5;"/><text fill="#000000" font-family="sans-serif" font-size="14" lengthAdjust="spacing" textLength="112.0342" x="5" y="493.2207">CRM Collaborator</text><ellipse cx="64.0171" cy="505.2344" fill="#E2E2F0" rx="8" ry="8" style="stroke:#181818;stroke-width:0.5;"/><path d="M64.0171,513.2344 L64.0171,540.2344 M51.0171,521.2344 L77.0171,521.2344 M64.0171,540.2344 L51.0171,555.2344 M64.0171,540.2344 L77.0171,555.2344 " fill="none" style="stroke:#181818;stroke-width:0.5;"/><rect fill="#E2E2F0" height="32.6211" rx="2.5" ry="2.5" style="stroke:#181818;stroke-width:0.5;" width="172.7373" x="235.71" y="50"/><text fill="#000000" font-family="sans-serif" font-size="14" lengthAdjust="spacing" textLength="158.7373" x="242.71" y="72.1074">MarkProposalAcceptedUI</text><rect fill="#E2E2F0" height="32.6211" rx="2.5" ry="2.5" style="stroke:#181818;stroke-width:0.5;" width="172.7373" x="235.71" y="478.1133"/><text fill="#000000" font-family="sans-serif" font-size="14" lengthAdjust="spacing" textLength="158.7373" x="242.71" y="500.2207">MarkProposalAcceptedUI</text><rect fill="#E2E2F0" height="32.6211" rx="2.5" ry="2.5" style="stroke:#181818;stroke-width:0.5;" width="219.4268" x="492.0913" y="50"/><text fill="#000000" font-family="sans-serif" font-size="14" lengthAdjust="spacing" textLength="205.4268" x="499.0913" y="72.1074">MarkProposalAcceptedController</text><rect fill="#E2E2F0" height="32.6211" rx="2.5" ry="2.5" style="stroke:#181818;stroke-width:0.5;" width="219.4268" x="492.0913" y="478.1133"/><text fill="#000000" font-family="sans-serif" font-size="14" lengthAdjust="spacing" textLength="205.4268" x="499.0913" y="500.2207">MarkProposalAcceptedController</text><rect fill="#E2E2F0" height="32.6211" rx="2.5" ry="2.5" style="stroke:#181818;stroke-width:0.5;" width="150.958" x="806.0518" y="50"/><text fill="#000000" font-family="sans-serif" font-size="14" lengthAdjust="spacing" textLength="136.958" x="813.0518" y="72.1074">ShowProposalService</text><rect fill="#E2E2F0" height="32.6211" rx="2.5" ry="2.5" style="stroke:#181818;stroke-width:0.5;" width="150.958" x="806.0518" y="478.1133"/><text fill="#000000" font-family="sans-serif" font-size="14" lengthAdjust="spacing" textLength="136.958" x="813.0518" y="500.2207">ShowProposalService</text><rect fill="#E2E2F0" height="32.6211" rx="2.5" ry="2.5" style="stroke:#181818;stroke-width:0.5;" width="193.7646" x="1027.0098" y="50"/><text fill="#000000" font-family="sans-serif" font-size="14" lengthAdjust="spacing" textLength="179.7646" x="1034.0098" y="72.1074">JpaShowProposalRepository</text><rect fill="#E2E2F0" height="32.6211" rx="2.5" ry="2.5" style="stroke:#181818;stroke-width:0.5;" width="193.7646" x="1027.0098" y="478.1133"/><text fill="#000000" font-family="sans-serif" font-size="14" lengthAdjust="spacing" textLength="179.7646" x="1034.0098" y="500.2207">JpaShowProposalRepository</text><rect fill="#E2E2F0" height="32.6211" rx="2.5" ry="2.5" style="stroke:#181818;stroke-width:0.5;" width="104.2754" x="1290.7744" y="50"/><text fill="#000000" font-family="sans-serif" font-size="14" lengthAdjust="spacing" textLength="90.2754" x="1297.7744" y="72.1074">ShowProposal</text><rect fill="#E2E2F0" height="32.6211" rx="2.5" ry="2.5" style="stroke:#181818;stroke-width:0.5;" width="104.2754" x="1290.7744" y="478.1133"/><text fill="#000000" font-family="sans-serif" font-size="14" lengthAdjust="spacing" textLength="90.2754" x="1297.7744" y="500.2207">ShowProposal</text><rect fill="#FFFFFF" height="376.4922" style="stroke:#181818;stroke-width:1.0;" width="10" x="59.0171" y="93.6211"/><rect fill="#FFFFFF" height="353.2012" style="stroke:#181818;stroke-width:1.0;" width="10" x="317.0786" y="116.9121"/><rect fill="#FFFFFF" height="321.9102" style="stroke:#181818;stroke-width:1.0;" width="10" x="596.8047" y="148.2031"/><rect fill="#FFFFFF" height="290.6191" style="stroke:#181818;stroke-width:1.0;" width="10" x="876.5308" y="179.4941"/><rect fill="#FFFFFF" height="31.291" style="stroke:#181818;stroke-width:1.0;" width="10" x="1118.8921" y="210.7852"/><rect fill="#FFFFFF" height="31.291" style="stroke:#181818;stroke-width:1.0;" width="10" x="1118.8921" y="335.9492"/><rect fill="#FFFFFF" height="31.291" style="stroke:#181818;stroke-width:1.0;" width="10" x="1337.9121" y="273.3672"/><polygon fill="#181818" points="305.0786,112.9121,315.0786,116.9121,305.0786,120.9121,309.0786,116.9121" style="stroke:#181818;stroke-width:1.0;"/><line style="stroke:#181818;stroke-width:1.0;" x1="69.0171" x2="311.0786" y1="116.9121" y2="116.9121"/><text fill="#000000" font-family="sans-serif" font-size="13" lengthAdjust="spacing" textLength="229.0615" x="76.0171" y="111.6494">Mark proposal as accepted (proposalId)</text><polygon fill="#181818" points="584.8047,144.2031,594.8047,148.2031,584.8047,152.2031,588.8047,148.2031" style="stroke:#181818;stroke-width:1.0;"/><line style="stroke:#181818;stroke-width:1.0;" x1="327.0786" x2="590.8047" y1="148.2031" y2="148.2031"/><text fill="#000000" font-family="sans-serif" font-size="13" lengthAdjust="spacing" textLength="250.7261" x="334.0786" y="142.9404">markProposalAsAccepted(showProposalId)</text><polygon fill="#181818" points="864.5308,175.4941,874.5308,179.4941,864.5308,183.4941,868.5308,179.4941" style="stroke:#181818;stroke-width:1.0;"/><line style="stroke:#181818;stroke-width:1.0;" x1="606.8047" x2="870.5308" y1="179.4941" y2="179.4941"/><text fill="#000000" font-family="sans-serif" font-size="13" lengthAdjust="spacing" textLength="250.7261" x="613.8047" y="174.2314">markProposalAsAccepted(showProposalId)</text><polygon fill="#181818" points="1106.8921,206.7852,1116.8921,210.7852,1106.8921,214.7852,1110.8921,210.7852" style="stroke:#181818;stroke-width:1.0;"/><line style="stroke:#181818;stroke-width:1.0;" x1="886.5308" x2="1112.8921" y1="210.7852" y2="210.7852"/><text fill="#000000" font-family="sans-serif" font-size="13" lengthAdjust="spacing" textLength="148.1289" x="893.5308" y="205.5225">findById(showProposalId)</text><polygon fill="#181818" points="897.5308,238.0762,887.5308,242.0762,897.5308,246.0762,893.5308,242.0762" style="stroke:#181818;stroke-width:1.0;"/><line style="stroke:#181818;stroke-width:1.0;stroke-dasharray:2.0,2.0;" x1="891.5308" x2="1122.8921" y1="242.0762" y2="242.0762"/><text fill="#000000" font-family="sans-serif" font-size="13" lengthAdjust="spacing" textLength="83.8271" x="903.5308" y="236.8135">ShowProposal</text><polygon fill="#181818" points="1325.9121,269.3672,1335.9121,273.3672,1325.9121,277.3672,1329.9121,273.3672" style="stroke:#181818;stroke-width:1.0;"/><line style="stroke:#181818;stroke-width:1.0;" x1="886.5308" x2="1331.9121" y1="273.3672" y2="273.3672"/><text fill="#000000" font-family="sans-serif" font-size="13" lengthAdjust="spacing" textLength="190.7471" x="893.5308" y="268.1045">markShowProposalAsAccepted()</text><polygon fill="#181818" points="897.5308,300.6582,887.5308,304.6582,897.5308,308.6582,893.5308,304.6582" style="stroke:#181818;stroke-width:1.0;"/><line style="stroke:#181818;stroke-width:1.0;" x1="891.5308" x2="1341.9121" y1="304.6582" y2="304.6582"/><text fill="#000000" font-family="sans-serif" font-size="13" lengthAdjust="spacing" textLength="46.96" x="903.5308" y="299.3955">success</text><polygon fill="#181818" points="1106.8921,331.9492,1116.8921,335.9492,1106.8921,339.9492,1110.8921,335.9492" style="stroke:#181818;stroke-width:1.0;"/><line style="stroke:#181818;stroke-width:1.0;" x1="886.5308" x2="1112.8921" y1="335.9492" y2="335.9492"/><text fill="#000000" font-family="sans-serif" font-size="13" lengthAdjust="spacing" textLength="117.7744" x="893.5308" y="330.6865">save(showProposal)</text><polygon fill="#181818" points="897.5308,363.2402,887.5308,367.2402,897.5308,371.2402,893.5308,367.2402" style="stroke:#181818;stroke-width:1.0;"/><line style="stroke:#181818;stroke-width:1.0;stroke-dasharray:2.0,2.0;" x1="891.5308" x2="1122.8921" y1="367.2402" y2="367.2402"/><text fill="#000000" font-family="sans-serif" font-size="13" lengthAdjust="spacing" textLength="70.8081" x="903.5308" y="361.9775">confirmation</text><polygon fill="#181818" points="617.8047,394.5313,607.8047,398.5313,617.8047,402.5313,613.8047,398.5313" style="stroke:#181818;stroke-width:1.0;"/><line style="stroke:#181818;stroke-width:1.0;stroke-dasharray:2.0,2.0;" x1="611.8047" x2="875.5308" y1="398.5313" y2="398.5313"/><text fill="#000000" font-family="sans-serif" font-size="13" lengthAdjust="spacing" textLength="46.96" x="623.8047" y="393.2686">success</text><polygon fill="#181818" points="338.0786,425.8223,328.0786,429.8223,338.0786,433.8223,334.0786,429.8223" style="stroke:#181818;stroke-width:1.0;"/><line style="stroke:#181818;stroke-width:1.0;stroke-dasharray:2.0,2.0;" x1="332.0786" x2="595.8047" y1="429.8223" y2="429.8223"/><text fill="#000000" font-family="sans-serif" font-size="13" lengthAdjust="spacing" textLength="127.1689" x="344.0786" y="424.5596">confirmation message</text><polygon fill="#181818" points="80.0171,457.1133,70.0171,461.1133,80.0171,465.1133,76.0171,461.1133" style="stroke:#181818;stroke-width:1.0;"/><line style="stroke:#181818;stroke-width:1.0;stroke-dasharray:2.0,2.0;" x1="74.0171" x2="316.0786" y1="461.1133" y2="461.1133"/><text fill="#000000" font-family="sans-serif" font-size="13" lengthAdjust="spacing" textLength="155.3589" x="86.0171" y="455.8506">displays operation success</text><!--SRC=[dPJ1Ri8m38RlVGgB4piWeUt6OHBZr4b82CG3U8c1Y3J9aW2gfhtxqgwXxZGsRLp0hlyl_d-YXgCo3ZrMu50SSK-RM6i2JoAYsMigmdKW753QYp9xsA4E_8bMXcBj29pLTLDm5RsUo0Y2jmBIPuK-Ag4SchX2AHlQmxHzCXVH-joxdnRlHO5D2qQBzH8MLcjyiHvJPmGO1et2zLGOBT4VLzuw6r3FXI0NIMxBLhGjVnzTM1DzWbC-9vT3wUPWBrcw8NzMWjhvxlTm-DaXdrzJ-b9fyRgLzENj8zh1N3J1g3D66gPGy0ecZyakpA3n2AvJDXJiZC8uTqjvroDJHacNrBtpHAbuKY5dDGvinG65nSOuYThbymzaJZOJ4gnFBl5soiYdklo1m89coibWAnvw8UaxBLiWJtPsk9XPOYjSqLVbuFHmIfeG-C5NnItV0SyqyFn7nyAQdV8LHcNDRuw_NekyB_-FyyNZNAZIL7gxj5UhXR2REWEfWjDO1x2E_ASWapy0]--></g></svg>