<svg xmlns="http://www.w3.org/2000/svg" xmlns:xlink="http://www.w3.org/1999/xlink" contentStyleType="text/css" height="661px" preserveAspectRatio="none" style="width:834px;height:661px;background:#FFFFFF;" version="1.1" viewBox="0 0 834 661" width="834px" zoomAndPan="magnify"><defs/><g><!--class MarkProposalAcceptedUI--><g id="elem_MarkProposalAcceptedUI"><rect codeLine="6" fill="#F1F1F1" height="48" id="MarkProposalAcceptedUI" rx="2.5" ry="2.5" style="stroke:#181818;stroke-width:0.5;" width="190.7373" x="512" y="7"/><ellipse cx="527" cy="23" fill="#ADD1B2" rx="11" ry="11" style="stroke:#181818;stroke-width:1.0;"/><path d="M529.7656,18.875 Q529.9219,18.6563 530.1094,18.5469 Q530.2969,18.4375 530.5156,18.4375 Q530.8906,18.4375 531.125,18.7031 Q531.3594,18.9531 531.3594,19.5625 L531.3594,21.0156 Q531.3594,21.625 531.125,21.8906 Q530.8906,22.1563 530.5156,22.1563 Q530.1719,22.1563 529.9688,21.9531 Q529.7656,21.7656 529.6563,21.25 Q529.6094,20.8906 529.4219,20.7031 Q529.0938,20.3281 528.4844,20.1094 Q527.875,19.8906 527.25,19.8906 Q526.4844,19.8906 525.8438,20.2188 Q525.2188,20.5469 524.7188,21.2969 Q524.2344,22.0469 524.2344,23.0781 L524.2344,24.1719 Q524.2344,25.4063 525.125,26.2344 Q526.0156,27.0469 527.6094,27.0469 Q528.5469,27.0469 529.2031,26.7969 Q529.5938,26.6406 530.0156,26.2031 Q530.2813,25.9375 530.4219,25.8594 Q530.5781,25.7813 530.7813,25.7813 Q531.1094,25.7813 531.3594,26.0469 Q531.625,26.2969 531.625,26.6406 Q531.625,26.9844 531.2813,27.3906 Q530.7813,27.9688 529.9844,28.2969 Q528.9063,28.75 527.6094,28.75 Q526.0938,28.75 524.8906,28.125 Q523.9063,27.625 523.2188,26.5625 Q522.5313,25.4844 522.5313,24.2031 L522.5313,23.0469 Q522.5313,21.7188 523.1406,20.5781 Q523.7656,19.4219 524.8594,18.8125 Q525.9531,18.1875 527.1875,18.1875 Q527.9219,18.1875 528.5625,18.3594 Q529.2188,18.5156 529.7656,18.875 Z " fill="#000000"/><text fill="#000000" font-family="sans-serif" font-size="14" lengthAdjust="spacing" textLength="158.7373" x="541" y="28.7969">MarkProposalAcceptedUI</text><line style="stroke:#181818;stroke-width:0.5;" x1="513" x2="701.7373" y1="39" y2="39"/><line style="stroke:#181818;stroke-width:0.5;" x1="513" x2="701.7373" y1="47" y2="47"/></g><!--class MarkProposalAcceptedController--><g id="elem_MarkProposalAcceptedController"><rect codeLine="9" fill="#F1F1F1" height="85.2422" id="MarkProposalAcceptedController" rx="2.5" ry="2.5" style="stroke:#181818;stroke-width:0.5;" width="439.5947" x="387.5" y="115"/><ellipse cx="500.334" cy="131" fill="#ADD1B2" rx="11" ry="11" style="stroke:#181818;stroke-width:1.0;"/><path d="M503.0996,126.875 Q503.2559,126.6563 503.4434,126.5469 Q503.6309,126.4375 503.8496,126.4375 Q504.2246,126.4375 504.459,126.7031 Q504.6934,126.9531 504.6934,127.5625 L504.6934,129.0156 Q504.6934,129.625 504.459,129.8906 Q504.2246,130.1563 503.8496,130.1563 Q503.5059,130.1563 503.3027,129.9531 Q503.0996,129.7656 502.9902,129.25 Q502.9434,128.8906 502.7559,128.7031 Q502.4277,128.3281 501.8184,128.1094 Q501.209,127.8906 500.584,127.8906 Q499.8184,127.8906 499.1777,128.2188 Q498.5527,128.5469 498.0527,129.2969 Q497.5684,130.0469 497.5684,131.0781 L497.5684,132.1719 Q497.5684,133.4063 498.459,134.2344 Q499.3496,135.0469 500.9434,135.0469 Q501.8809,135.0469 502.5371,134.7969 Q502.9277,134.6406 503.3496,134.2031 Q503.6152,133.9375 503.7559,133.8594 Q503.9121,133.7813 504.1152,133.7813 Q504.4434,133.7813 504.6934,134.0469 Q504.959,134.2969 504.959,134.6406 Q504.959,134.9844 504.6152,135.3906 Q504.1152,135.9688 503.3184,136.2969 Q502.2402,136.75 500.9434,136.75 Q499.4277,136.75 498.2246,136.125 Q497.2402,135.625 496.5527,134.5625 Q495.8652,133.4844 495.8652,132.2031 L495.8652,131.0469 Q495.8652,129.7188 496.4746,128.5781 Q497.0996,127.4219 498.1934,126.8125 Q499.2871,126.1875 500.5215,126.1875 Q501.2559,126.1875 501.8965,126.3594 Q502.5527,126.5156 503.0996,126.875 Z " fill="#000000"/><text fill="#000000" font-family="sans-serif" font-size="14" lengthAdjust="spacing" textLength="205.4268" x="520.834" y="136.7969">MarkProposalAcceptedController</text><line style="stroke:#181818;stroke-width:0.5;" x1="388.5" x2="826.0947" y1="147" y2="147"/><text fill="#000000" font-family="sans-serif" font-size="14" lengthAdjust="spacing" textLength="197.6338" x="393.5" y="166.1074">-service : ShowProposalService</text><line style="stroke:#181818;stroke-width:0.5;" x1="388.5" x2="826.0947" y1="173.6211" y2="173.6211"/><text fill="#000000" font-family="sans-serif" font-size="14" lengthAdjust="spacing" textLength="427.5947" x="393.5" y="192.7285">+markProposalAsAccepted(showProposalId: ShowProposalID) : void</text></g><!--class ShowProposalService--><g id="elem_ShowProposalService"><rect codeLine="14" fill="#F1F1F1" height="85.2422" id="ShowProposalService" rx="2.5" ry="2.5" style="stroke:#181818;stroke-width:0.5;" width="384.3398" x="415.5" y="260"/><ellipse cx="534.9409" cy="276" fill="#ADD1B2" rx="11" ry="11" style="stroke:#181818;stroke-width:1.0;"/><path d="M537.7065,271.875 Q537.8628,271.6563 538.0503,271.5469 Q538.2378,271.4375 538.4565,271.4375 Q538.8315,271.4375 539.0659,271.7031 Q539.3003,271.9531 539.3003,272.5625 L539.3003,274.0156 Q539.3003,274.625 539.0659,274.8906 Q538.8315,275.1563 538.4565,275.1563 Q538.1128,275.1563 537.9097,274.9531 Q537.7065,274.7656 537.5972,274.25 Q537.5503,273.8906 537.3628,273.7031 Q537.0347,273.3281 536.4253,273.1094 Q535.8159,272.8906 535.1909,272.8906 Q534.4253,272.8906 533.7847,273.2188 Q533.1597,273.5469 532.6597,274.2969 Q532.1753,275.0469 532.1753,276.0781 L532.1753,277.1719 Q532.1753,278.4063 533.0659,279.2344 Q533.9565,280.0469 535.5503,280.0469 Q536.4878,280.0469 537.144,279.7969 Q537.5347,279.6406 537.9565,279.2031 Q538.2222,278.9375 538.3628,278.8594 Q538.519,278.7813 538.7222,278.7813 Q539.0503,278.7813 539.3003,279.0469 Q539.5659,279.2969 539.5659,279.6406 Q539.5659,279.9844 539.2222,280.3906 Q538.7222,280.9688 537.9253,281.2969 Q536.8472,281.75 535.5503,281.75 Q534.0347,281.75 532.8315,281.125 Q531.8472,280.625 531.1597,279.5625 Q530.4722,278.4844 530.4722,277.2031 L530.4722,276.0469 Q530.4722,274.7188 531.0815,273.5781 Q531.7065,272.4219 532.8003,271.8125 Q533.894,271.1875 535.1284,271.1875 Q535.8628,271.1875 536.5034,271.3594 Q537.1597,271.5156 537.7065,271.875 Z " fill="#000000"/><text fill="#000000" font-family="sans-serif" font-size="14" lengthAdjust="spacing" textLength="136.958" x="555.4409" y="281.7969">ShowProposalService</text><line style="stroke:#181818;stroke-width:0.5;" x1="416.5" x2="798.8398" y1="292" y2="292"/><text fill="#000000" font-family="sans-serif" font-size="14" lengthAdjust="spacing" textLength="234.9922" x="421.5" y="311.1074">-repository : ShowProposalRepository</text><line style="stroke:#181818;stroke-width:0.5;" x1="416.5" x2="798.8398" y1="318.6211" y2="318.6211"/><text fill="#000000" font-family="sans-serif" font-size="14" lengthAdjust="spacing" textLength="372.3398" x="421.5" y="337.7285">+markAsAccepted(showProposalId: ShowProposalID) : void</text></g><!--class ShowProposalRepository--><g id="elem_ShowProposalRepository"><rect codeLine="19" fill="#F1F1F1" height="85.2422" id="ShowProposalRepository" rx="2.5" ry="2.5" style="stroke:#181818;stroke-width:0.5;" width="373.4775" x="38" y="414.5"/><ellipse cx="141.8926" cy="430.5" fill="#B4A7E5" rx="11" ry="11" style="stroke:#181818;stroke-width:1.0;"/><path d="M142.8457,427.1406 L142.8457,433.7969 L144.5645,433.7969 Q145.1738,433.7969 145.4395,434.0313 Q145.7051,434.2656 145.7051,434.6563 Q145.7051,435.0313 145.4395,435.2656 Q145.1738,435.5 144.5645,435.5 L139.4238,435.5 Q138.8145,435.5 138.5488,435.2656 Q138.2832,435.0313 138.2832,434.6406 Q138.2832,434.2656 138.5488,434.0313 Q138.8145,433.7969 139.4238,433.7969 L141.1426,433.7969 L141.1426,427.1406 L139.4238,427.1406 Q138.8145,427.1406 138.5488,426.9063 Q138.2832,426.6719 138.2832,426.2813 Q138.2832,425.9063 138.5488,425.6719 Q138.8145,425.4375 139.4238,425.4375 L144.5645,425.4375 Q145.1738,425.4375 145.4395,425.6719 Q145.7051,425.9063 145.7051,426.2813 Q145.7051,426.6719 145.4395,426.9063 Q145.1738,427.1406 144.5645,427.1406 L142.8457,427.1406 Z " fill="#000000"/><text fill="#000000" font-family="sans-serif" font-size="14" font-style="italic" lengthAdjust="spacing" textLength="157.1924" x="162.3926" y="436.2969">ShowProposalRepository</text><line style="stroke:#181818;stroke-width:0.5;" x1="39" x2="410.4775" y1="446.5" y2="446.5"/><line style="stroke:#181818;stroke-width:0.5;" x1="39" x2="410.4775" y1="454.5" y2="454.5"/><text fill="#000000" font-family="sans-serif" font-size="14" lengthAdjust="spacing" textLength="361.4775" x="44" y="473.6074">+findById(id: ShowProposalID) : Optional&lt;ShowProposal&gt;</text><text fill="#000000" font-family="sans-serif" font-size="14" lengthAdjust="spacing" textLength="300.7744" x="44" y="492.2285">+save(proposal: ShowProposal) : ShowProposal</text></g><!--class JpaShowProposalRepository--><g id="elem_JpaShowProposalRepository"><rect codeLine="24" fill="#F1F1F1" height="85.2422" id="JpaShowProposalRepository" rx="2.5" ry="2.5" style="stroke:#181818;stroke-width:0.5;" width="373.4775" x="7" y="260"/><ellipse cx="99.6064" cy="276" fill="#ADD1B2" rx="11" ry="11" style="stroke:#181818;stroke-width:1.0;"/><path d="M102.3721,271.875 Q102.5283,271.6563 102.7158,271.5469 Q102.9033,271.4375 103.1221,271.4375 Q103.4971,271.4375 103.7314,271.7031 Q103.9658,271.9531 103.9658,272.5625 L103.9658,274.0156 Q103.9658,274.625 103.7314,274.8906 Q103.4971,275.1563 103.1221,275.1563 Q102.7783,275.1563 102.5752,274.9531 Q102.3721,274.7656 102.2627,274.25 Q102.2158,273.8906 102.0283,273.7031 Q101.7002,273.3281 101.0908,273.1094 Q100.4814,272.8906 99.8564,272.8906 Q99.0908,272.8906 98.4502,273.2188 Q97.8252,273.5469 97.3252,274.2969 Q96.8408,275.0469 96.8408,276.0781 L96.8408,277.1719 Q96.8408,278.4063 97.7314,279.2344 Q98.6221,280.0469 100.2158,280.0469 Q101.1533,280.0469 101.8096,279.7969 Q102.2002,279.6406 102.6221,279.2031 Q102.8877,278.9375 103.0283,278.8594 Q103.1846,278.7813 103.3877,278.7813 Q103.7158,278.7813 103.9658,279.0469 Q104.2314,279.2969 104.2314,279.6406 Q104.2314,279.9844 103.8877,280.3906 Q103.3877,280.9688 102.5908,281.2969 Q101.5127,281.75 100.2158,281.75 Q98.7002,281.75 97.4971,281.125 Q96.5127,280.625 95.8252,279.5625 Q95.1377,278.4844 95.1377,277.2031 L95.1377,276.0469 Q95.1377,274.7188 95.7471,273.5781 Q96.3721,272.4219 97.4658,271.8125 Q98.5596,271.1875 99.7939,271.1875 Q100.5283,271.1875 101.1689,271.3594 Q101.8252,271.5156 102.3721,271.875 Z " fill="#000000"/><text fill="#000000" font-family="sans-serif" font-size="14" lengthAdjust="spacing" textLength="179.7646" x="120.1064" y="281.7969">JpaShowProposalRepository</text><line style="stroke:#181818;stroke-width:0.5;" x1="8" x2="379.4775" y1="292" y2="292"/><line style="stroke:#181818;stroke-width:0.5;" x1="8" x2="379.4775" y1="300" y2="300"/><text fill="#000000" font-family="sans-serif" font-size="14" lengthAdjust="spacing" textLength="361.4775" x="13" y="319.1074">+findById(id: ShowProposalID) : Optional&lt;ShowProposal&gt;</text><text fill="#000000" font-family="sans-serif" font-size="14" lengthAdjust="spacing" textLength="300.7744" x="13" y="337.7285">+save(proposal: ShowProposal) : ShowProposal</text></g><!--class ShowProposal--><g id="elem_ShowProposal"><rect codeLine="29" fill="#F1F1F1" height="103.8633" id="ShowProposal" rx="2.5" ry="2.5" style="stroke:#181818;stroke-width:0.5;" width="262.9473" x="476" y="405"/><ellipse cx="558.0859" cy="421" fill="#ADD1B2" rx="11" ry="11" style="stroke:#181818;stroke-width:1.0;"/><path d="M560.8516,416.875 Q561.0078,416.6563 561.1953,416.5469 Q561.3828,416.4375 561.6016,416.4375 Q561.9766,416.4375 562.2109,416.7031 Q562.4453,416.9531 562.4453,417.5625 L562.4453,419.0156 Q562.4453,419.625 562.2109,419.8906 Q561.9766,420.1563 561.6016,420.1563 Q561.2578,420.1563 561.0547,419.9531 Q560.8516,419.7656 560.7422,419.25 Q560.6953,418.8906 560.5078,418.7031 Q560.1797,418.3281 559.5703,418.1094 Q558.9609,417.8906 558.3359,417.8906 Q557.5703,417.8906 556.9297,418.2188 Q556.3047,418.5469 555.8047,419.2969 Q555.3203,420.0469 555.3203,421.0781 L555.3203,422.1719 Q555.3203,423.4063 556.2109,424.2344 Q557.1016,425.0469 558.6953,425.0469 Q559.6328,425.0469 560.2891,424.7969 Q560.6797,424.6406 561.1016,424.2031 Q561.3672,423.9375 561.5078,423.8594 Q561.6641,423.7813 561.8672,423.7813 Q562.1953,423.7813 562.4453,424.0469 Q562.7109,424.2969 562.7109,424.6406 Q562.7109,424.9844 562.3672,425.3906 Q561.8672,425.9688 561.0703,426.2969 Q559.9922,426.75 558.6953,426.75 Q557.1797,426.75 555.9766,426.125 Q554.9922,425.625 554.3047,424.5625 Q553.6172,423.4844 553.6172,422.2031 L553.6172,421.0469 Q553.6172,419.7188 554.2266,418.5781 Q554.8516,417.4219 555.9453,416.8125 Q557.0391,416.1875 558.2734,416.1875 Q559.0078,416.1875 559.6484,416.3594 Q560.3047,416.5156 560.8516,416.875 Z " fill="#000000"/><text fill="#000000" font-family="sans-serif" font-size="14" lengthAdjust="spacing" textLength="90.2754" x="578.5859" y="426.7969">ShowProposal</text><line style="stroke:#181818;stroke-width:0.5;" x1="477" x2="737.9473" y1="437" y2="437"/><text fill="#000000" font-family="sans-serif" font-size="14" lengthAdjust="spacing" textLength="183.6475" x="482" y="456.1074">-status : ShowProposalStatus</text><line style="stroke:#181818;stroke-width:0.5;" x1="477" x2="737.9473" y1="463.6211" y2="463.6211"/><text fill="#000000" font-family="sans-serif" font-size="14" lengthAdjust="spacing" textLength="250.9473" x="482" y="482.7285">+markShowProposalAsAccepted() : void</text><text fill="#000000" font-family="sans-serif" font-size="14" lengthAdjust="spacing" textLength="196.4854" x="482" y="501.3496">+status() : ShowProposalStatus</text></g><!--class ShowProposalStatus--><g id="elem_ShowProposalStatus"><rect codeLine="35" fill="#F1F1F1" height="85.2422" id="ShowProposalStatus" rx="2.5" ry="2.5" style="stroke:#181818;stroke-width:0.5;" width="161.9648" x="434.5" y="569"/><ellipse cx="449.5" cy="585" fill="#EB937F" rx="11" ry="11" style="stroke:#181818;stroke-width:1.0;"/><path d="M448.3594,585.7969 L448.3594,588.2969 L452.6875,588.2969 L452.6875,587.375 Q452.6875,586.7656 452.9219,586.5 Q453.1719,586.2344 453.5469,586.2344 Q453.9219,586.2344 454.1563,586.5 Q454.3906,586.7656 454.3906,587.375 L454.3906,590 L446.3906,590 Q445.7656,590 445.5,589.7656 Q445.25,589.5313 445.25,589.1406 Q445.25,588.7656 445.5156,588.5313 Q445.7813,588.2969 446.3906,588.2969 L446.6563,588.2969 L446.6563,581.6406 L446.3906,581.6406 Q445.7656,581.6406 445.5,581.4063 Q445.25,581.1719 445.25,580.7813 Q445.25,580.4063 445.5,580.1719 Q445.7656,579.9375 446.3906,579.9375 L454.0156,579.9375 L454.0156,582.5313 Q454.0156,583.1406 453.7813,583.4063 Q453.5625,583.6563 453.1719,583.6563 Q452.7969,583.6563 452.5625,583.4063 Q452.3281,583.1406 452.3281,582.5313 L452.3281,581.6406 L448.3594,581.6406 L448.3594,584.0938 L449.8438,584.0938 Q449.8438,583.4375 449.9688,583.25 Q450.2344,582.8438 450.7031,582.8438 Q451.0781,582.8438 451.3125,583.1094 Q451.5469,583.3594 451.5469,583.9688 L451.5469,585.9375 Q451.5469,586.4844 451.4219,586.6719 Q451.1563,587.0625 450.7031,587.0625 Q450.2344,587.0625 449.9688,586.6563 Q449.8438,586.4688 449.8438,585.7969 L448.3594,585.7969 Z " fill="#000000"/><text fill="#000000" font-family="sans-serif" font-size="14" lengthAdjust="spacing" textLength="129.9648" x="463.5" y="590.7969">ShowProposalStatus</text><line style="stroke:#181818;stroke-width:0.5;" x1="435.5" x2="595.4648" y1="601" y2="601"/><text fill="#000000" font-family="sans-serif" font-size="14" lengthAdjust="spacing" textLength="76.2344" x="440.5" y="620.1074">ACCEPTED</text><text fill="#000000" font-family="sans-serif" font-size="14" lengthAdjust="spacing" textLength="73.8965" x="440.5" y="638.7285">REJECTED</text><line style="stroke:#181818;stroke-width:0.5;" x1="435.5" x2="595.4648" y1="646.2422" y2="646.2422"/></g><!--class ShowProposalID--><g id="elem_ShowProposalID"><rect codeLine="40" fill="#F1F1F1" height="48" id="ShowProposalID" rx="2.5" ry="2.5" style="stroke:#181818;stroke-width:0.5;" width="136.2754" x="631.5" y="587.5"/><ellipse cx="646.5" cy="603.5" fill="#ADD1B2" rx="11" ry="11" style="stroke:#181818;stroke-width:1.0;"/><path d="M649.2656,599.375 Q649.4219,599.1563 649.6094,599.0469 Q649.7969,598.9375 650.0156,598.9375 Q650.3906,598.9375 650.625,599.2031 Q650.8594,599.4531 650.8594,600.0625 L650.8594,601.5156 Q650.8594,602.125 650.625,602.3906 Q650.3906,602.6563 650.0156,602.6563 Q649.6719,602.6563 649.4688,602.4531 Q649.2656,602.2656 649.1563,601.75 Q649.1094,601.3906 648.9219,601.2031 Q648.5938,600.8281 647.9844,600.6094 Q647.375,600.3906 646.75,600.3906 Q645.9844,600.3906 645.3438,600.7188 Q644.7188,601.0469 644.2188,601.7969 Q643.7344,602.5469 643.7344,603.5781 L643.7344,604.6719 Q643.7344,605.9063 644.625,606.7344 Q645.5156,607.5469 647.1094,607.5469 Q648.0469,607.5469 648.7031,607.2969 Q649.0938,607.1406 649.5156,606.7031 Q649.7813,606.4375 649.9219,606.3594 Q650.0781,606.2813 650.2813,606.2813 Q650.6094,606.2813 650.8594,606.5469 Q651.125,606.7969 651.125,607.1406 Q651.125,607.4844 650.7813,607.8906 Q650.2813,608.4688 649.4844,608.7969 Q648.4063,609.25 647.1094,609.25 Q645.5938,609.25 644.3906,608.625 Q643.4063,608.125 642.7188,607.0625 Q642.0313,605.9844 642.0313,604.7031 L642.0313,603.5469 Q642.0313,602.2188 642.6406,601.0781 Q643.2656,599.9219 644.3594,599.3125 Q645.4531,598.6875 646.6875,598.6875 Q647.4219,598.6875 648.0625,598.8594 Q648.7188,599.0156 649.2656,599.375 Z " fill="#000000"/><text fill="#000000" font-family="sans-serif" font-size="14" lengthAdjust="spacing" textLength="104.2754" x="660.5" y="609.2969">ShowProposalID</text><line style="stroke:#181818;stroke-width:0.5;" x1="632.5" x2="766.7754" y1="619.5" y2="619.5"/><line style="stroke:#181818;stroke-width:0.5;" x1="632.5" x2="766.7754" y1="627.5" y2="627.5"/></g><!--link MarkProposalAcceptedUI to MarkProposalAcceptedController--><g id="link_MarkProposalAcceptedUI_MarkProposalAcceptedController"><path codeLine="43" d="M607.5,55.13 C607.5,71.86 607.5,88.94 607.5,108.86 " fill="none" id="MarkProposalAcceptedUI-to-MarkProposalAcceptedController" style="stroke:#181818;stroke-width:1.0;"/><polygon fill="#181818" points="607.5,114.86,611.5,105.86,607.5,109.86,603.5,105.86,607.5,114.86" style="stroke:#181818;stroke-width:1.0;"/></g><!--link MarkProposalAcceptedController to ShowProposalService--><g id="link_MarkProposalAcceptedController_ShowProposalService"><path codeLine="44" d="M607.5,200.25 C607.5,219.04 607.5,235.18 607.5,253.95 " fill="none" id="MarkProposalAcceptedController-to-ShowProposalService" style="stroke:#181818;stroke-width:1.0;"/><polygon fill="#181818" points="607.5,259.95,611.5,250.95,607.5,254.95,603.5,250.95,607.5,259.95" style="stroke:#181818;stroke-width:1.0;"/></g><!--link ShowProposalService to ShowProposalRepository--><g id="link_ShowProposalService_ShowProposalRepository"><path codeLine="45" d="M503.1,345.07 C448.94,366.63 388.5544,390.6805 334.4044,412.2405 " fill="none" id="ShowProposalService-to-ShowProposalRepository" style="stroke:#181818;stroke-width:1.0;"/><polygon fill="#181818" points="328.83,414.46,338.6712,414.8471,333.4753,412.6104,335.712,407.4145,328.83,414.46" style="stroke:#181818;stroke-width:1.0;"/></g><!--link JpaShowProposalRepository to ShowProposalRepository--><g id="link_JpaShowProposalRepository_ShowProposalRepository"><path codeLine="46" d="M201.97,345.17 C206.35,366.69 208.0863,375.2304 212.4563,396.7404 " fill="none" id="JpaShowProposalRepository-to-ShowProposalRepository" style="stroke:#181818;stroke-width:1.0;stroke-dasharray:7.0,7.0;"/><polygon fill="none" points="216.04,414.38,218.3362,395.5458,206.5764,397.9349,216.04,414.38" style="stroke:#181818;stroke-width:1.0;"/></g><!--link ShowProposalService to ShowProposal--><g id="link_ShowProposalService_ShowProposal"><path codeLine="47" d="M607.5,345.17 C607.5,363.6 607.5,379.45 607.5,398.86 " fill="none" id="ShowProposalService-to-ShowProposal" style="stroke:#181818;stroke-width:1.0;"/><polygon fill="#181818" points="607.5,404.86,611.5,395.86,607.5,399.86,603.5,395.86,607.5,404.86" style="stroke:#181818;stroke-width:1.0;"/></g><!--link ShowProposal to ShowProposalStatus--><g id="link_ShowProposal_ShowProposalStatus"><path codeLine="48" d="M576.61,509.2 C564.92,528.59 554.8613,545.2637 543.7513,563.6637 " fill="none" id="ShowProposal-to-ShowProposalStatus" style="stroke:#181818;stroke-width:1.0;"/><polygon fill="#181818" points="540.65,568.8,548.7262,563.1631,543.2344,564.5197,541.8778,559.028,540.65,568.8" style="stroke:#181818;stroke-width:1.0;"/></g><!--link ShowProposal to ShowProposalID--><g id="link_ShowProposal_ShowProposalID"><path codeLine="49" d="M638.39,509.2 C654.36,535.68 669.9706,561.5525 682.4406,582.2225 " fill="none" id="ShowProposal-to-ShowProposalID" style="stroke:#181818;stroke-width:1.0;"/><polygon fill="#181818" points="685.54,587.36,684.3159,577.5875,682.9572,583.0788,677.4659,581.72,685.54,587.36" style="stroke:#181818;stroke-width:1.0;"/></g><!--SRC=[pLFBRi8m4BpxAtnh40BrN5L8DEGGfAg8j1-mJHQmCBPb6r3w-FSw0O891ggUUdDsPiUJzQnPCg50muego9SmnyoM7Ad6t8AOSoIc8PW557BBn9pEW1iVuKoWBHLI9NbPVNXOpi6OeRMQlQyjfhaK6Vj0Uaz8ZT1dqCk9baeQuCCyHsMnU4lf9_c-neYbi5foZjenAUrHWth3SgGFD5l8xO6UxQgEqQKhNyOSX2BZqTFYj3qTTPpWHhBYw2OWlxUWqHMPbRfikPWsG6FaJmQOiAXdu2uCgzS-kdJ6HF5KfaN4WceloZ8fW3_wqA3kDB31IErBfxsTrZyT1p9My9_i-DL3DYpOjMb7eous3-93tkCquw_zr2rH9wpa7A1Ohm9GRMCOnydaDHcvupGP9t5r39fEHuJSqIbog0PZ5amPSc59Uht1ZUqWDvQdKWWjJ2ZbRQuNwyiPwFU_BdRzvf8JqhdTtUYlSjmyVm00]--></g></svg>