<?xml version="1.0" encoding="us-ascii" standalone="no"?><svg xmlns="http://www.w3.org/2000/svg" xmlns:xlink="http://www.w3.org/1999/xlink" contentStyleType="text/css" height="770.7px" preserveAspectRatio="none" style="width:1118px;height:770px;background:#FFFFFF;" version="1.1" viewBox="0 0 1118 770" width="1118.6px" zoomAndPan="magnify"><defs/><g><rect fill="#FFFFFF" height="634.9971" style="stroke:#181818;stroke-width:0.6999999999999998;" width="7" x="52.5" y="65.5348"/><rect fill="#FFFFFF" height="347.2178" style="stroke:#181818;stroke-width:0.6999999999999998;" width="7" x="371" y="81.8385"/><rect fill="#FFFFFF" height="249.5719" style="stroke:#181818;stroke-width:0.6999999999999998;" width="7" x="371" y="450.96"/><rect fill="#FFFFFF" height="544.3512" style="stroke:#181818;stroke-width:0.6999999999999998;" width="7" x="543.2" y="134.277"/><rect fill="#FFFFFF" height="21.9037" style="stroke:#181818;stroke-width:0.6999999999999998;" width="7" x="629.3" y="156.1807"/><rect fill="#FFFFFF" height="21.9037" style="stroke:#181818;stroke-width:0.6999999999999998;" width="7" x="704.2" y="199.9881"/><rect fill="#FFFFFF" height="21.9037" style="stroke:#181818;stroke-width:0.6999999999999998;" width="7" x="768.25" y="243.7955"/><rect fill="#FFFFFF" height="21.9037" style="stroke:#181818;stroke-width:0.6999999999999998;" width="7" x="814.1" y="634.8207"/><rect fill="#FFFFFF" height="97.6459" style="stroke:#181818;stroke-width:0.6999999999999998;" width="7" x="887.25" y="287.6029"/><rect fill="#FFFFFF" height="74.3422" style="stroke:#181818;stroke-width:0.6999999999999998;" width="7" x="887.25" y="538.5748"/><rect fill="#FFFFFF" height="23.5348" style="stroke:#181818;stroke-width:0.6999999999999998;" width="7" x="992.95" y="334.9104"/><rect fill="#FFFFFF" height="23.5348" style="stroke:#181818;stroke-width:0.6999999999999998;" width="7" x="1077.65" y="567.4785"/><rect fill="none" height="65.9422" style="stroke:#000000;stroke-width:1.0499999999999998;" width="238.7" x="833.35" y="298.1029"/><line style="stroke:#181818;stroke-width:0.3499999999999999;stroke-dasharray:5.0,5.0;" x1="56" x2="56" y1="58.5348" y2="713.1318"/><line style="stroke:#181818;stroke-width:0.3499999999999999;stroke-dasharray:5.0,5.0;" x1="374.5" x2="374.5" y1="58.5348" y2="713.1318"/><line style="stroke:#181818;stroke-width:0.3499999999999999;stroke-dasharray:5.0,5.0;" x1="546.35" x2="546.35" y1="109.7059" y2="713.1318"/><line style="stroke:#181818;stroke-width:0.3499999999999999;stroke-dasharray:5.0,5.0;" x1="632.45" x2="632.45" y1="58.5348" y2="713.1318"/><line style="stroke:#181818;stroke-width:0.3499999999999999;stroke-dasharray:5.0,5.0;" x1="707.35" x2="707.35" y1="58.5348" y2="713.1318"/><line style="stroke:#181818;stroke-width:0.3499999999999999;stroke-dasharray:5.0,5.0;" x1="771.75" x2="771.75" y1="58.5348" y2="713.1318"/><line style="stroke:#181818;stroke-width:0.3499999999999999;stroke-dasharray:5.0,5.0;" x1="817.25" x2="817.25" y1="58.5348" y2="713.1318"/><line style="stroke:#181818;stroke-width:0.3499999999999999;stroke-dasharray:5.0,5.0;" x1="890.75" x2="890.75" y1="58.5348" y2="713.1318"/><line style="stroke:#181818;stroke-width:0.3499999999999999;stroke-dasharray:5.0,5.0;" x1="996.45" x2="996.45" y1="333.874" y2="713.1318"/><line style="stroke:#181818;stroke-width:0.3499999999999999;stroke-dasharray:5.0,5.0;" x1="1081.15" x2="1081.15" y1="566.4422" y2="713.1318"/><text fill="#000000" font-family="sans-serif" font-size="9.8" lengthAdjust="spacing" textLength="100.8" x="3.5" y="56.0752">Green Space Manager</text><ellipse cx="56" cy="9.45" fill="#E3E3E3" rx="5.6" ry="5.6" style="stroke:#181818;stroke-width:0.3499999999999999;"/><path d="M56,15.05 L56,33.95 M46.9,20.65 L65.1,20.65 M56,33.95 L46.9,44.45 M56,33.95 L65.1,44.45 " fill="none" style="stroke:#181818;stroke-width:0.3499999999999999;"/><text fill="#000000" font-family="sans-serif" font-size="9.8" lengthAdjust="spacing" textLength="100.8" x="3.5" y="723.007">Green Space Manager</text><ellipse cx="56" cy="731.4166" fill="#E3E3E3" rx="5.6" ry="5.6" style="stroke:#181818;stroke-width:0.3499999999999999;"/><path d="M56,737.0166 L56,755.9166 M46.9,742.6166 L65.1,742.6166 M56,755.9166 L46.9,766.4166 M56,755.9166 L65.1,766.4166 " fill="none" style="stroke:#181818;stroke-width:0.3499999999999999;"/><rect fill="#E3E3E3" height="22.8348" rx="1.75" ry="1.75" style="stroke:#181818;stroke-width:0.3499999999999999;" width="63" x="343" y="35"/><text fill="#000000" font-family="sans-serif" font-size="9.8" lengthAdjust="spacing" textLength="53.2" x="347.9" y="50.4752">:AgendaGUI</text><rect fill="#E3E3E3" height="22.8348" rx="1.75" ry="1.75" style="stroke:#181818;stroke-width:0.3499999999999999;" width="63" x="343" y="712.4318"/><text fill="#000000" font-family="sans-serif" font-size="9.8" lengthAdjust="spacing" textLength="53.2" x="347.9" y="727.907">:AgendaGUI</text><rect fill="#E3E3E3" height="22.8348" rx="1.75" ry="1.75" style="stroke:#181818;stroke-width:0.3499999999999999;" width="90.3" x="501.55" y="712.4318"/><text fill="#000000" font-family="sans-serif" font-size="9.8" lengthAdjust="spacing" textLength="80.5" x="506.45" y="727.907">:AgendaController</text><rect fill="#E3E3E3" height="22.8348" rx="1.75" ry="1.75" style="stroke:#181818;stroke-width:0.3499999999999999;" width="67.9" x="598.85" y="35"/><text fill="#000000" font-family="sans-serif" font-size="9.8" lengthAdjust="spacing" textLength="58.1" x="603.75" y="50.4752">:Repositories</text><rect fill="#E3E3E3" height="22.8348" rx="1.75" ry="1.75" style="stroke:#181818;stroke-width:0.3499999999999999;" width="67.9" x="598.85" y="712.4318"/><text fill="#000000" font-family="sans-serif" font-size="9.8" lengthAdjust="spacing" textLength="58.1" x="603.75" y="727.907">:Repositories</text><rect fill="#E3E3E3" height="35.8695" rx="1.75" ry="1.75" style="stroke:#181818;stroke-width:0.3499999999999999;" width="67.9" x="673.75" y="21.9652"/><text fill="#000000" font-family="sans-serif" font-size="9.8" lengthAdjust="spacing" textLength="51.8" x="681.8" y="37.4404">repositories</text><text fill="#000000" font-family="sans-serif" font-size="9.8" lengthAdjust="spacing" textLength="58.1" x="678.65" y="50.4752">:Repositories</text><rect fill="#E3E3E3" height="35.8695" rx="1.75" ry="1.75" style="stroke:#181818;stroke-width:0.3499999999999999;" width="67.9" x="673.75" y="712.4318"/><text fill="#000000" font-family="sans-serif" font-size="9.8" lengthAdjust="spacing" textLength="51.8" x="681.8" y="727.907">repositories</text><text fill="#000000" font-family="sans-serif" font-size="9.8" lengthAdjust="spacing" textLength="58.1" x="678.65" y="740.9418">:Repositories</text><rect fill="#E3E3E3" height="35.8695" rx="1.75" ry="1.75" style="stroke:#181818;stroke-width:0.3499999999999999;" width="46.2" x="748.65" y="21.9652"/><text fill="#000000" font-family="sans-serif" font-size="9.8" lengthAdjust="spacing" textLength="36.4" x="753.55" y="37.4404">agenda:</text><text fill="#000000" font-family="sans-serif" font-size="9.8" lengthAdjust="spacing" textLength="34.3" x="754.6" y="50.4752">Agenda</text><rect fill="#E3E3E3" height="35.8695" rx="1.75" ry="1.75" style="stroke:#181818;stroke-width:0.3499999999999999;" width="46.2" x="748.65" y="712.4318"/><text fill="#000000" font-family="sans-serif" font-size="9.8" lengthAdjust="spacing" textLength="36.4" x="753.55" y="727.907">agenda:</text><text fill="#000000" font-family="sans-serif" font-size="9.8" lengthAdjust="spacing" textLength="34.3" x="754.6" y="740.9418">Agenda</text><rect fill="#E3E3E3" height="35.8695" rx="1.75" ry="1.75" style="stroke:#181818;stroke-width:0.3499999999999999;" width="31.5" x="801.85" y="21.9652"/><text fill="#000000" font-family="sans-serif" font-size="9.8" lengthAdjust="spacing" textLength="21" x="807.1" y="37.4404">task:</text><text fill="#000000" font-family="sans-serif" font-size="9.8" lengthAdjust="spacing" textLength="21.7" x="806.75" y="50.4752">Task</text><rect fill="#E3E3E3" height="35.8695" rx="1.75" ry="1.75" style="stroke:#181818;stroke-width:0.3499999999999999;" width="31.5" x="801.85" y="712.4318"/><text fill="#000000" font-family="sans-serif" font-size="9.8" lengthAdjust="spacing" textLength="21" x="807.1" y="727.907">task:</text><text fill="#000000" font-family="sans-serif" font-size="9.8" lengthAdjust="spacing" textLength="21.7" x="806.75" y="740.9418">Task</text><rect fill="#E3E3E3" height="22.8348" rx="1.75" ry="1.75" style="stroke:#181818;stroke-width:0.3499999999999999;" width="100.8" x="840.35" y="35"/><text fill="#000000" font-family="sans-serif" font-size="9.8" lengthAdjust="spacing" textLength="91" x="845.25" y="50.4752">AgendaEntryMapper</text><rect fill="#E3E3E3" height="22.8348" rx="1.75" ry="1.75" style="stroke:#181818;stroke-width:0.3499999999999999;" width="100.8" x="840.35" y="712.4318"/><text fill="#000000" font-family="sans-serif" font-size="9.8" lengthAdjust="spacing" textLength="91" x="845.25" y="727.907">AgendaEntryMapper</text><rect fill="#E3E3E3" height="22.8348" rx="1.75" ry="1.75" style="stroke:#181818;stroke-width:0.3499999999999999;" width="88.2" x="952.35" y="712.4318"/><text fill="#000000" font-family="sans-serif" font-size="9.8" lengthAdjust="spacing" textLength="78.4" x="957.25" y="727.907">AgendaEntryDTO</text><rect fill="#E3E3E3" height="22.8348" rx="1.75" ry="1.75" style="stroke:#181818;stroke-width:0.3499999999999999;" width="67.2" x="1047.55" y="712.4318"/><text fill="#000000" font-family="sans-serif" font-size="9.8" lengthAdjust="spacing" textLength="57.4" x="1052.45" y="727.907">AgendaEntry</text><rect fill="#FFFFFF" height="634.9971" style="stroke:#181818;stroke-width:0.6999999999999998;" width="7" x="52.5" y="65.5348"/><rect fill="#FFFFFF" height="347.2178" style="stroke:#181818;stroke-width:0.6999999999999998;" width="7" x="371" y="81.8385"/><rect fill="#FFFFFF" height="249.5719" style="stroke:#181818;stroke-width:0.6999999999999998;" width="7" x="371" y="450.96"/><rect fill="#FFFFFF" height="544.3512" style="stroke:#181818;stroke-width:0.6999999999999998;" width="7" x="543.2" y="134.277"/><rect fill="#FFFFFF" height="21.9037" style="stroke:#181818;stroke-width:0.6999999999999998;" width="7" x="629.3" y="156.1807"/><rect fill="#FFFFFF" height="21.9037" style="stroke:#181818;stroke-width:0.6999999999999998;" width="7" x="704.2" y="199.9881"/><rect fill="#FFFFFF" height="21.9037" style="stroke:#181818;stroke-width:0.6999999999999998;" width="7" x="768.25" y="243.7955"/><rect fill="#FFFFFF" height="21.9037" style="stroke:#181818;stroke-width:0.6999999999999998;" width="7" x="814.1" y="634.8207"/><rect fill="#FFFFFF" height="97.6459" style="stroke:#181818;stroke-width:0.6999999999999998;" width="7" x="887.25" y="287.6029"/><rect fill="#FFFFFF" height="74.3422" style="stroke:#181818;stroke-width:0.6999999999999998;" width="7" x="887.25" y="538.5748"/><rect fill="#FFFFFF" height="23.5348" style="stroke:#181818;stroke-width:0.6999999999999998;" width="7" x="992.95" y="334.9104"/><rect fill="#FFFFFF" height="23.5348" style="stroke:#181818;stroke-width:0.6999999999999998;" width="7" x="1077.65" y="567.4785"/><polygon fill="#181818" points="362.6,79.0385,369.6,81.8385,362.6,84.6385,365.4,81.8385" style="stroke:#181818;stroke-width:0.6999999999999998;"/><line style="stroke:#181818;stroke-width:0.6999999999999998;" x1="59.5" x2="366.8" y1="81.8385" y2="81.8385"/><text fill="#000000" font-family="sans-serif" font-size="9.1" font-weight="bold" lengthAdjust="spacing" textLength="4.9" x="64.4" y="78.1546">1</text><text fill="#000000" font-family="sans-serif" font-size="9.1" lengthAdjust="spacing" textLength="124.6" x="72.1" y="78.1546">requests list of Agenda Entries</text><polygon fill="#181818" points="493.15,100.9422,500.15,103.7422,493.15,106.5422,495.95,103.7422" style="stroke:#181818;stroke-width:0.6999999999999998;"/><line style="stroke:#181818;stroke-width:0.6999999999999998;" x1="378" x2="497.35" y1="103.7422" y2="103.7422"/><text fill="#000000" font-family="sans-serif" font-size="9.1" font-weight="bold" lengthAdjust="spacing" textLength="4.9" x="382.9" y="100.0583">2</text><text fill="#000000" font-family="sans-serif" font-size="9.1" lengthAdjust="spacing" textLength="25.2" x="390.6" y="100.0583">create</text><rect fill="#E3E3E3" height="22.8348" rx="1.75" ry="1.75" style="stroke:#181818;stroke-width:0.3499999999999999;" width="90.3" x="501.55" y="87.4385"/><text fill="#000000" font-family="sans-serif" font-size="9.8" lengthAdjust="spacing" textLength="80.5" x="506.45" y="102.9137">:AgendaController</text><polygon fill="#181818" points="534.8,131.477,541.8,134.277,534.8,137.077,537.6,134.277" style="stroke:#181818;stroke-width:0.6999999999999998;"/><line style="stroke:#181818;stroke-width:0.6999999999999998;" x1="378" x2="539" y1="134.277" y2="134.277"/><text fill="#000000" font-family="sans-serif" font-size="9.1" font-weight="bold" lengthAdjust="spacing" textLength="4.9" x="382.9" y="130.5931">3</text><text fill="#000000" font-family="sans-serif" font-size="9.1" lengthAdjust="spacing" textLength="68.6" x="390.6" y="130.5931">populateEntries()</text><polygon fill="#181818" points="620.9,153.3807,627.9,156.1807,620.9,158.9807,623.7,156.1807" style="stroke:#181818;stroke-width:0.6999999999999998;"/><line style="stroke:#181818;stroke-width:0.6999999999999998;" x1="550.2" x2="625.1" y1="156.1807" y2="156.1807"/><text fill="#000000" font-family="sans-serif" font-size="9.1" font-weight="bold" lengthAdjust="spacing" textLength="4.9" x="555.1" y="152.4968">4</text><text fill="#000000" font-family="sans-serif" font-size="9.1" lengthAdjust="spacing" textLength="52.5" x="562.8" y="152.4968">getInstance()</text><polygon fill="#181818" points="557.9,175.2844,550.9,178.0844,557.9,180.8844,555.1,178.0844" style="stroke:#181818;stroke-width:0.6999999999999998;"/><line style="stroke:#181818;stroke-width:0.6999999999999998;stroke-dasharray:2.0,2.0;" x1="553.7" x2="632.1" y1="178.0844" y2="178.0844"/><text fill="#000000" font-family="sans-serif" font-size="9.1" font-weight="bold" lengthAdjust="spacing" textLength="4.9" x="562.1" y="174.4005">5</text><text fill="#000000" font-family="sans-serif" font-size="9.1" lengthAdjust="spacing" textLength="46.9" x="569.8" y="174.4005">repositories</text><polygon fill="#181818" points="695.8,197.1881,702.8,199.9881,695.8,202.7881,698.6,199.9881" style="stroke:#181818;stroke-width:0.6999999999999998;"/><line style="stroke:#181818;stroke-width:0.6999999999999998;" x1="550.2" x2="700" y1="199.9881" y2="199.9881"/><text fill="#000000" font-family="sans-serif" font-size="9.1" font-weight="bold" lengthAdjust="spacing" textLength="4.9" x="555.1" y="196.3042">6</text><text fill="#000000" font-family="sans-serif" font-size="9.1" lengthAdjust="spacing" textLength="49" x="562.8" y="196.3042">getAgenda()</text><polygon fill="#181818" points="557.9,219.0918,550.9,221.8918,557.9,224.6918,555.1,221.8918" style="stroke:#181818;stroke-width:0.6999999999999998;"/><line style="stroke:#181818;stroke-width:0.6999999999999998;stroke-dasharray:2.0,2.0;" x1="553.7" x2="707" y1="221.8918" y2="221.8918"/><text fill="#000000" font-family="sans-serif" font-size="9.1" font-weight="bold" lengthAdjust="spacing" textLength="4.9" x="562.1" y="218.2079">7</text><text fill="#000000" font-family="sans-serif" font-size="9.1" lengthAdjust="spacing" textLength="30.8" x="569.8" y="218.2079">Agenda</text><polygon fill="#181818" points="759.85,240.9955,766.85,243.7955,759.85,246.5955,762.65,243.7955" style="stroke:#181818;stroke-width:0.6999999999999998;"/><line style="stroke:#181818;stroke-width:0.6999999999999998;" x1="550.2" x2="764.05" y1="243.7955" y2="243.7955"/><text fill="#000000" font-family="sans-serif" font-size="9.1" font-weight="bold" lengthAdjust="spacing" textLength="4.9" x="555.1" y="240.1116">8</text><text fill="#000000" font-family="sans-serif" font-size="9.1" lengthAdjust="spacing" textLength="179.2" x="562.8" y="240.1116">getAgendaEntriesByUserEmail(String email)</text><polygon fill="#181818" points="557.9,262.8992,550.9,265.6992,557.9,268.4992,555.1,265.6992" style="stroke:#181818;stroke-width:0.6999999999999998;"/><line style="stroke:#181818;stroke-width:0.6999999999999998;stroke-dasharray:2.0,2.0;" x1="553.7" x2="771.05" y1="265.6992" y2="265.6992"/><text fill="#000000" font-family="sans-serif" font-size="9.1" font-weight="bold" lengthAdjust="spacing" textLength="4.9" x="562.1" y="262.0153">9</text><text fill="#000000" font-family="sans-serif" font-size="9.1" lengthAdjust="spacing" textLength="111.3" x="569.8" y="262.0153">agendaEntriesByUserEmail</text><polygon fill="#181818" points="878.85,284.8029,885.85,287.6029,878.85,290.4029,881.65,287.6029" style="stroke:#181818;stroke-width:0.6999999999999998;"/><line style="stroke:#181818;stroke-width:0.6999999999999998;" x1="550.2" x2="883.05" y1="287.6029" y2="287.6029"/><text fill="#000000" font-family="sans-serif" font-size="9.1" font-weight="bold" lengthAdjust="spacing" textLength="9.8" x="555.1" y="283.919">10</text><text fill="#000000" font-family="sans-serif" font-size="9.1" lengthAdjust="spacing" textLength="104.3" x="567.7" y="283.919">toDTO(agendaEntriesList)</text><path d="M833.35,298.1029 L884.45,298.1029 L884.45,304.6066 L877.45,311.6066 L833.35,311.6066 L833.35,298.1029 " fill="#EEEEEE" style="stroke:#000000;stroke-width:1.0499999999999998;"/><rect fill="none" height="65.9422" style="stroke:#000000;stroke-width:1.0499999999999998;" width="238.7" x="833.35" y="298.1029"/><text fill="#000000" font-family="sans-serif" font-size="9.1" font-weight="bold" lengthAdjust="spacing" textLength="19.6" x="843.85" y="308.6228">loop</text><text fill="#000000" font-family="sans-serif" font-size="7.7" font-weight="bold" lengthAdjust="spacing" textLength="173.6" x="894.95" y="307.812">[for each entry in agendaEntriesByUserEmail]</text><polygon fill="#181818" points="943.95,325.1104,950.95,327.9104,943.95,330.7104,946.75,327.9104" style="stroke:#181818;stroke-width:0.6999999999999998;"/><line style="stroke:#181818;stroke-width:0.6999999999999998;" x1="894.25" x2="948.15" y1="327.9104" y2="327.9104"/><text fill="#000000" font-family="sans-serif" font-size="9.1" font-weight="bold" lengthAdjust="spacing" textLength="9.8" x="899.15" y="324.2265">11</text><text fill="#000000" font-family="sans-serif" font-size="9.1" lengthAdjust="spacing" textLength="25.2" x="911.75" y="324.2265">create</text><rect fill="#E3E3E3" height="22.8348" rx="1.75" ry="1.75" style="stroke:#181818;stroke-width:0.3499999999999999;" width="88.2" x="952.35" y="311.6066"/><text fill="#000000" font-family="sans-serif" font-size="9.8" lengthAdjust="spacing" textLength="78.4" x="957.25" y="327.0818">AgendaEntryDTO</text><polygon fill="#181818" points="901.95,355.6451,894.95,358.4451,901.95,361.2451,899.15,358.4451" style="stroke:#181818;stroke-width:0.6999999999999998;"/><line style="stroke:#181818;stroke-width:0.6999999999999998;stroke-dasharray:2.0,2.0;" x1="897.75" x2="995.75" y1="358.4451" y2="358.4451"/><text fill="#000000" font-family="sans-serif" font-size="9.1" font-weight="bold" lengthAdjust="spacing" textLength="9.8" x="906.15" y="354.7612">12</text><text fill="#000000" font-family="sans-serif" font-size="9.1" lengthAdjust="spacing" textLength="69.3" x="918.75" y="354.7612">agendaEntryDTO</text><polygon fill="#181818" points="557.9,382.4488,550.9,385.2488,557.9,388.0488,555.1,385.2488" style="stroke:#181818;stroke-width:0.6999999999999998;"/><line style="stroke:#181818;stroke-width:0.6999999999999998;stroke-dasharray:2.0,2.0;" x1="553.7" x2="890.05" y1="385.2488" y2="385.2488"/><text fill="#000000" font-family="sans-serif" font-size="9.1" font-weight="bold" lengthAdjust="spacing" textLength="9.8" x="562.1" y="381.5649">13</text><text fill="#000000" font-family="sans-serif" font-size="9.1" lengthAdjust="spacing" textLength="84" x="574.7" y="381.5649">agendaEntryDTOList</text><polygon fill="#181818" points="385.7,404.3525,378.7,407.1525,385.7,409.9525,382.9,407.1525" style="stroke:#181818;stroke-width:0.6999999999999998;"/><line style="stroke:#181818;stroke-width:0.6999999999999998;stroke-dasharray:2.0,2.0;" x1="381.5" x2="542.5" y1="407.1525" y2="407.1525"/><text fill="#000000" font-family="sans-serif" font-size="9.1" font-weight="bold" lengthAdjust="spacing" textLength="9.8" x="389.9" y="403.4687">14</text><text fill="#000000" font-family="sans-serif" font-size="9.1" lengthAdjust="spacing" textLength="84" x="402.5" y="403.4687">agendaEntryDTOList</text><polygon fill="#181818" points="67.2,426.2562,60.2,429.0562,67.2,431.8562,64.4,429.0562" style="stroke:#181818;stroke-width:0.6999999999999998;"/><line style="stroke:#181818;stroke-width:0.6999999999999998;stroke-dasharray:2.0,2.0;" x1="63" x2="373.8" y1="429.0562" y2="429.0562"/><text fill="#000000" font-family="sans-serif" font-size="9.1" font-weight="bold" lengthAdjust="spacing" textLength="9.8" x="71.4" y="425.3724">15</text><text fill="#000000" font-family="sans-serif" font-size="9.1" lengthAdjust="spacing" textLength="282.1" x="84" y="425.3724">displays list of available Agenda Entries and requests selection of one</text><polygon fill="#181818" points="362.6,448.16,369.6,450.96,362.6,453.76,365.4,450.96" style="stroke:#181818;stroke-width:0.6999999999999998;"/><line style="stroke:#181818;stroke-width:0.6999999999999998;" x1="59.5" x2="366.8" y1="450.96" y2="450.96"/><text fill="#000000" font-family="sans-serif" font-size="9.1" font-weight="bold" lengthAdjust="spacing" textLength="9.8" x="64.4" y="447.2761">16</text><text fill="#000000" font-family="sans-serif" font-size="9.1" lengthAdjust="spacing" textLength="97.3" x="77" y="447.2761">selects an agenda entry</text><polygon fill="#181818" points="67.2,470.0637,60.2,472.8637,67.2,475.6637,64.4,472.8637" style="stroke:#181818;stroke-width:0.6999999999999998;"/><line style="stroke:#181818;stroke-width:0.6999999999999998;stroke-dasharray:2.0,2.0;" x1="63" x2="370.3" y1="472.8637" y2="472.8637"/><text fill="#000000" font-family="sans-serif" font-size="9.1" font-weight="bold" lengthAdjust="spacing" textLength="9.8" x="71.4" y="469.1798">17</text><text fill="#000000" font-family="sans-serif" font-size="9.1" lengthAdjust="spacing" textLength="184.8" x="84" y="469.1798">asks confirmation to cancel the Agenda Entry</text><polygon fill="#181818" points="362.6,491.9674,369.6,494.7674,362.6,497.5674,365.4,494.7674" style="stroke:#181818;stroke-width:0.6999999999999998;"/><line style="stroke:#181818;stroke-width:0.6999999999999998;" x1="59.5" x2="366.8" y1="494.7674" y2="494.7674"/><text fill="#000000" font-family="sans-serif" font-size="9.1" font-weight="bold" lengthAdjust="spacing" textLength="9.8" x="64.4" y="491.0835">18</text><text fill="#000000" font-family="sans-serif" font-size="9.1" lengthAdjust="spacing" textLength="85.4" x="77" y="491.0835">confirms cancellation</text><polygon fill="#181818" points="534.8,513.8711,541.8,516.6711,534.8,519.4711,537.6,516.6711" style="stroke:#181818;stroke-width:0.6999999999999998;"/><line style="stroke:#181818;stroke-width:0.6999999999999998;" x1="378" x2="539" y1="516.6711" y2="516.6711"/><text fill="#000000" font-family="sans-serif" font-size="9.1" font-weight="bold" lengthAdjust="spacing" textLength="9.8" x="382.9" y="512.9872">19</text><text fill="#000000" font-family="sans-serif" font-size="9.1" lengthAdjust="spacing" textLength="128.8" x="395.5" y="512.9872">cancelTask (selectedEntryDTO)</text><polygon fill="#181818" points="878.85,535.7748,885.85,538.5748,878.85,541.3748,881.65,538.5748" style="stroke:#181818;stroke-width:0.6999999999999998;"/><line style="stroke:#181818;stroke-width:0.6999999999999998;" x1="550.2" x2="883.05" y1="538.5748" y2="538.5748"/><text fill="#000000" font-family="sans-serif" font-size="9.1" font-weight="bold" lengthAdjust="spacing" textLength="9.8" x="555.1" y="534.8909">20</text><text fill="#000000" font-family="sans-serif" font-size="9.1" lengthAdjust="spacing" textLength="118.3" x="567.7" y="534.8909">toDomain(selectedEntryDTO)</text><polygon fill="#181818" points="1039.15,557.6785,1046.15,560.4785,1039.15,563.2785,1041.95,560.4785" style="stroke:#181818;stroke-width:0.6999999999999998;"/><line style="stroke:#181818;stroke-width:0.6999999999999998;" x1="894.25" x2="1043.35" y1="560.4785" y2="560.4785"/><text fill="#000000" font-family="sans-serif" font-size="9.1" font-weight="bold" lengthAdjust="spacing" textLength="9.8" x="899.15" y="556.7946">21</text><text fill="#000000" font-family="sans-serif" font-size="9.1" lengthAdjust="spacing" textLength="25.2" x="911.75" y="556.7946">create</text><rect fill="#E3E3E3" height="22.8348" rx="1.75" ry="1.75" style="stroke:#181818;stroke-width:0.3499999999999999;" width="67.2" x="1047.55" y="544.1748"/><text fill="#000000" font-family="sans-serif" font-size="9.8" lengthAdjust="spacing" textLength="57.4" x="1052.45" y="559.65">AgendaEntry</text><polygon fill="#181818" points="901.95,588.2133,894.95,591.0133,901.95,593.8133,899.15,591.0133" style="stroke:#181818;stroke-width:0.6999999999999998;"/><line style="stroke:#181818;stroke-width:0.6999999999999998;stroke-dasharray:2.0,2.0;" x1="897.75" x2="1080.45" y1="591.0133" y2="591.0133"/><text fill="#000000" font-family="sans-serif" font-size="9.1" font-weight="bold" lengthAdjust="spacing" textLength="9.8" x="906.15" y="587.3294">22</text><text fill="#000000" font-family="sans-serif" font-size="9.1" lengthAdjust="spacing" textLength="56" x="918.75" y="587.3294">selectedEntry</text><polygon fill="#181818" points="557.9,610.117,550.9,612.917,557.9,615.717,555.1,612.917" style="stroke:#181818;stroke-width:0.6999999999999998;"/><line style="stroke:#181818;stroke-width:0.6999999999999998;stroke-dasharray:2.0,2.0;" x1="553.7" x2="890.05" y1="612.917" y2="612.917"/><text fill="#000000" font-family="sans-serif" font-size="9.1" font-weight="bold" lengthAdjust="spacing" textLength="9.8" x="562.1" y="609.2331">23</text><text fill="#000000" font-family="sans-serif" font-size="9.1" lengthAdjust="spacing" textLength="56" x="574.7" y="609.2331">selectedEntry</text><polygon fill="#181818" points="805.7,632.0207,812.7,634.8207,805.7,637.6207,808.5,634.8207" style="stroke:#181818;stroke-width:0.6999999999999998;"/><line style="stroke:#181818;stroke-width:0.6999999999999998;" x1="550.2" x2="809.9" y1="634.8207" y2="634.8207"/><text fill="#000000" font-family="sans-serif" font-size="9.1" font-weight="bold" lengthAdjust="spacing" textLength="9.8" x="555.1" y="631.1368">24</text><text fill="#000000" font-family="sans-serif" font-size="9.1" lengthAdjust="spacing" textLength="187.6" x="567.7" y="631.1368">task.setTaskStatus(TaskStatus.CANCELLED)</text><polygon fill="#181818" points="557.9,653.9244,550.9,656.7244,557.9,659.5244,555.1,656.7244" style="stroke:#181818;stroke-width:0.6999999999999998;"/><line style="stroke:#181818;stroke-width:0.6999999999999998;stroke-dasharray:2.0,2.0;" x1="553.7" x2="816.9" y1="656.7244" y2="656.7244"/><text fill="#000000" font-family="sans-serif" font-size="9.1" font-weight="bold" lengthAdjust="spacing" textLength="9.8" x="562.1" y="653.0405">25</text><text fill="#000000" font-family="sans-serif" font-size="9.1" lengthAdjust="spacing" textLength="135.8" x="574.7" y="653.0405">task status successfully changed</text><polygon fill="#181818" points="385.7,675.8281,378.7,678.6281,385.7,681.4281,382.9,678.6281" style="stroke:#181818;stroke-width:0.6999999999999998;"/><line style="stroke:#181818;stroke-width:0.6999999999999998;stroke-dasharray:2.0,2.0;" x1="381.5" x2="546" y1="678.6281" y2="678.6281"/><text fill="#000000" font-family="sans-serif" font-size="9.1" font-weight="bold" lengthAdjust="spacing" textLength="9.8" x="389.9" y="674.9442">26</text><text fill="#000000" font-family="sans-serif" font-size="9.1" lengthAdjust="spacing" textLength="135.8" x="402.5" y="674.9442">task status successfully changed</text><polygon fill="#181818" points="63.7,697.7318,56.7,700.5318,63.7,703.3318,60.9,700.5318" style="stroke:#181818;stroke-width:0.6999999999999998;"/><line style="stroke:#181818;stroke-width:0.6999999999999998;stroke-dasharray:2.0,2.0;" x1="59.5" x2="373.8" y1="700.5318" y2="700.5318"/><text fill="#000000" font-family="sans-serif" font-size="9.1" font-weight="bold" lengthAdjust="spacing" textLength="9.8" x="67.9" y="696.8479">27</text><text fill="#000000" font-family="sans-serif" font-size="9.1" lengthAdjust="spacing" textLength="110.6" x="80.5" y="696.8479">displays operation success</text><!--SRC=[dLPDKzim4BthL-nmIZe30nGwKnywXP0oqAHbI6WlN8IpIJJ8aYl9TFBlkvBjn8xj95GNszBksxUVbdqLAkM69v1efUEbqGc2Cnaokpv9UVpA5pXnAubWC7PSBMHLm2xvJFyLQW5pBYqonZEdLPQyeA7ts6a3HxS6KS64i136N16UEG9kuNOoPeJYH2nIhXmSHLSBL3D- -tGNpf_kMey7MZcZfInG1jF7qPRS8wRQ2h8jq0QPzSPg8hm3HB6kOYeQpwe9y32wcjOrUE0IFQkSL93AN-joZjjNafhI8yZubxf4hZKafrPZdgQ5MutTJgMRwSzj3TeAqHTlt668CuDYqGSSVw7OGaG9_PEXTHQai0xql800Zq6UhtNMI9IHzQPVX49OFWCVFX1UR92akaH88DLf9acaCD3hrqJNPa9AQqT-1Gp2QaacGI_GtIbBzHdZ5cmDkgqI6j9-jLavBZpnaTiKI4DzXkypLphcYopt9C_3BZz2GROI3oWRfaLDxk3O3bMIAagYGgj8tlNgoQ8P9bp8teHsQ0IW_zX1kk3IIhkmSxmf5jvXRPSlNHRgtbIwYkmuJUtIgraRKJ_izQFQcrBh5EOqx8ZA4j2VW527kz3aLITB33ixh8jQ60BTeIvbGiZRuiBtG3N2lXQbZts6Io_RqkqnV0OEj5Yae2FdvQnhWM_CAPBrup62cR2fvAlDOEHlb3N-8d5hH09NiyqOjIZf5obeKf2ALiXQY9SZj3g7SpqFLj3CAoWNR6ZMcDBVn4AirLoOX0VJJaFifw04jwpHNJKD5ugsq901OSVypiNyBmnwEMcSbI7jr_NsT9ocDb0j60VsstlxfzeyX_JEtiRfx9gQImTMC6FiNQtIRUFm3Ydp4v99AQ77YKNdFoUEkypsDgydWwiVW-5eDBpfjmUc5iPmm-aKyolOhFZZZOCDfi1cSOpMpZCfLn0lwRw9iswqYh_xpPPkhsV2_zjjiTz-QTbUxMD6KthoxYrex9ossxUmob7jgkVNLog2B96CFKYwDpwDH_26ndfBPoVdf-SN9nzxqsK6t_05pYxXx7DqSHgTNiBluHJySP_rRXz6O7LcwF9EV6dglMIUQP_Tqr24nqmvaM04FrDKzpVVomsQE6_2Q9NG96FtlyORWKyNnzV2mGGDCO5VOtQ3Svv9Hngndj4r8e91UdP-USv6b8IC1YBT6nqRwCoNSWGFqty0]--></g></svg>