<?xml version="1.0" encoding="us-ascii" standalone="no"?><svg xmlns="http://www.w3.org/2000/svg" xmlns:xlink="http://www.w3.org/1999/xlink" contentStyleType="text/css" height="1168px" preserveAspectRatio="none" style="width:953px;height:1168px;background:#FFFFFF;" version="1.1" viewBox="0 0 953 1168" width="953px" zoomAndPan="magnify"><defs/><g><!--class AgendaGUI--><g id="elem_AgendaGUI"><rect codeLine="1" fill="#F1F1F1" height="141.1055" id="AgendaGUI" rx="2.5" ry="2.5" style="stroke:#181818;stroke-width:0.5;" width="286" x="224.5" y="7"/><ellipse cx="327.25" cy="23" fill="#ADD1B2" rx="11" ry="11" style="stroke:#181818;stroke-width:1.0;"/><path d="M330.0156,18.875 Q330.1719,18.6563 330.3594,18.5469 Q330.5469,18.4375 330.7656,18.4375 Q331.1406,18.4375 331.375,18.7031 Q331.6094,18.9531 331.6094,19.5625 L331.6094,21.0156 Q331.6094,21.625 331.375,21.8906 Q331.1406,22.1563 330.7656,22.1563 Q330.4219,22.1563 330.2188,21.9531 Q330.0156,21.7656 329.9063,21.25 Q329.8594,20.8906 329.6719,20.7031 Q329.3438,20.3281 328.7344,20.1094 Q328.125,19.8906 327.5,19.8906 Q326.7344,19.8906 326.0938,20.2188 Q325.4688,20.5469 324.9688,21.2969 Q324.4844,22.0469 324.4844,23.0781 L324.4844,24.1719 Q324.4844,25.4063 325.375,26.2344 Q326.2656,27.0469 327.8594,27.0469 Q328.7969,27.0469 329.4531,26.7969 Q329.8438,26.6406 330.2656,26.2031 Q330.5313,25.9375 330.6719,25.8594 Q330.8281,25.7813 331.0313,25.7813 Q331.3594,25.7813 331.6094,26.0469 Q331.875,26.2969 331.875,26.6406 Q331.875,26.9844 331.5313,27.3906 Q331.0313,27.9688 330.2344,28.2969 Q329.1563,28.75 327.8594,28.75 Q326.3438,28.75 325.1406,28.125 Q324.1563,27.625 323.4688,26.5625 Q322.7813,25.4844 322.7813,24.2031 L322.7813,23.0469 Q322.7813,21.7188 323.3906,20.5781 Q324.0156,19.4219 325.1094,18.8125 Q326.2031,18.1875 327.4375,18.1875 Q328.1719,18.1875 328.8125,18.3594 Q329.4688,18.5156 330.0156,18.875 Z " fill="#000000"/><text fill="#000000" font-family="sans-serif" font-size="14" lengthAdjust="spacing" textLength="72" x="347.75" y="28.7969">AgendaGUI</text><line style="stroke:#181818;stroke-width:0.5;" x1="225.5" x2="509.5" y1="39" y2="39"/><rect fill="none" height="6" style="stroke:#C82930;stroke-width:1.0;" width="6" x="232.5" y="50.8105"/><text fill="#000000" font-family="sans-serif" font-size="14" lengthAdjust="spacing" textLength="260" x="244.5" y="58.1074">agendaEntryList: ListView&lt;AgendaEntry&gt;</text><rect fill="none" height="6" style="stroke:#C82930;stroke-width:1.0;" width="6" x="232.5" y="69.4316"/><text fill="#000000" font-family="sans-serif" font-size="14" lengthAdjust="spacing" textLength="229" x="244.5" y="76.7285">agendaController: AgendaController</text><line style="stroke:#181818;stroke-width:0.5;" x1="225.5" x2="509.5" y1="84.2422" y2="84.2422"/><ellipse cx="235.5" cy="99.0527" fill="#84BE84" rx="3" ry="3" style="stroke:#038048;stroke-width:1.0;"/><text fill="#000000" font-family="sans-serif" font-size="14" lengthAdjust="spacing" textLength="116" x="244.5" y="103.3496">AgendaGUI(): void</text><ellipse cx="235.5" cy="117.6738" fill="#84BE84" rx="3" ry="3" style="stroke:#038048;stroke-width:1.0;"/><text fill="#000000" font-family="sans-serif" font-size="14" lengthAdjust="spacing" textLength="143" x="244.5" y="121.9707">populateEntries(): void</text><ellipse cx="235.5" cy="136.2949" fill="#84BE84" rx="3" ry="3" style="stroke:#038048;stroke-width:1.0;"/><text fill="#000000" font-family="sans-serif" font-size="14" lengthAdjust="spacing" textLength="234" x="244.5" y="140.5918">handleDeactivateButtonAction(): void</text></g><!--class AgendaController--><g id="elem_AgendaController"><rect codeLine="9" fill="#F1F1F1" height="103.8633" id="AgendaController" rx="2.5" ry="2.5" style="stroke:#181818;stroke-width:0.5;" width="203" x="266" y="209"/><ellipse cx="308" cy="225" fill="#ADD1B2" rx="11" ry="11" style="stroke:#181818;stroke-width:1.0;"/><path d="M310.7656,220.875 Q310.9219,220.6563 311.1094,220.5469 Q311.2969,220.4375 311.5156,220.4375 Q311.8906,220.4375 312.125,220.7031 Q312.3594,220.9531 312.3594,221.5625 L312.3594,223.0156 Q312.3594,223.625 312.125,223.8906 Q311.8906,224.1563 311.5156,224.1563 Q311.1719,224.1563 310.9688,223.9531 Q310.7656,223.7656 310.6563,223.25 Q310.6094,222.8906 310.4219,222.7031 Q310.0938,222.3281 309.4844,222.1094 Q308.875,221.8906 308.25,221.8906 Q307.4844,221.8906 306.8438,222.2188 Q306.2188,222.5469 305.7188,223.2969 Q305.2344,224.0469 305.2344,225.0781 L305.2344,226.1719 Q305.2344,227.4063 306.125,228.2344 Q307.0156,229.0469 308.6094,229.0469 Q309.5469,229.0469 310.2031,228.7969 Q310.5938,228.6406 311.0156,228.2031 Q311.2813,227.9375 311.4219,227.8594 Q311.5781,227.7813 311.7813,227.7813 Q312.1094,227.7813 312.3594,228.0469 Q312.625,228.2969 312.625,228.6406 Q312.625,228.9844 312.2813,229.3906 Q311.7813,229.9688 310.9844,230.2969 Q309.9063,230.75 308.6094,230.75 Q307.0938,230.75 305.8906,230.125 Q304.9063,229.625 304.2188,228.5625 Q303.5313,227.4844 303.5313,226.2031 L303.5313,225.0469 Q303.5313,223.7188 304.1406,222.5781 Q304.7656,221.4219 305.8594,220.8125 Q306.9531,220.1875 308.1875,220.1875 Q308.9219,220.1875 309.5625,220.3594 Q310.2188,220.5156 310.7656,220.875 Z " fill="#000000"/><text fill="#000000" font-family="sans-serif" font-size="14" lengthAdjust="spacing" textLength="111" x="328" y="230.7969">AgendaController</text><line style="stroke:#181818;stroke-width:0.5;" x1="267" x2="468" y1="241" y2="241"/><rect fill="none" height="6" style="stroke:#C82930;stroke-width:1.0;" width="6" x="274" y="252.8105"/><text fill="#000000" font-family="sans-serif" font-size="14" lengthAdjust="spacing" textLength="105" x="286" y="260.1074">agenda: Agenda</text><line style="stroke:#181818;stroke-width:0.5;" x1="267" x2="468" y1="267.6211" y2="267.6211"/><ellipse cx="277" cy="282.4316" fill="#84BE84" rx="3" ry="3" style="stroke:#038048;stroke-width:1.0;"/><text fill="#000000" font-family="sans-serif" font-size="14" lengthAdjust="spacing" textLength="136" x="286" y="286.7285">getAgenda(): Agenda</text><ellipse cx="277" cy="301.0527" fill="#84BE84" rx="3" ry="3" style="stroke:#038048;stroke-width:1.0;"/><text fill="#000000" font-family="sans-serif" font-size="14" lengthAdjust="spacing" textLength="177" x="286" y="305.3496">cancelTask(Task task): void</text></g><!--class Agenda--><g id="elem_Agenda"><rect codeLine="15" fill="#F1F1F1" height="85.2422" id="Agenda" rx="2.5" ry="2.5" style="stroke:#181818;stroke-width:0.5;" width="349" x="7" y="604.5"/><ellipse cx="152.75" cy="620.5" fill="#ADD1B2" rx="11" ry="11" style="stroke:#181818;stroke-width:1.0;"/><path d="M155.5156,616.375 Q155.6719,616.1563 155.8594,616.0469 Q156.0469,615.9375 156.2656,615.9375 Q156.6406,615.9375 156.875,616.2031 Q157.1094,616.4531 157.1094,617.0625 L157.1094,618.5156 Q157.1094,619.125 156.875,619.3906 Q156.6406,619.6563 156.2656,619.6563 Q155.9219,619.6563 155.7188,619.4531 Q155.5156,619.2656 155.4063,618.75 Q155.3594,618.3906 155.1719,618.2031 Q154.8438,617.8281 154.2344,617.6094 Q153.625,617.3906 153,617.3906 Q152.2344,617.3906 151.5938,617.7188 Q150.9688,618.0469 150.4688,618.7969 Q149.9844,619.5469 149.9844,620.5781 L149.9844,621.6719 Q149.9844,622.9063 150.875,623.7344 Q151.7656,624.5469 153.3594,624.5469 Q154.2969,624.5469 154.9531,624.2969 Q155.3438,624.1406 155.7656,623.7031 Q156.0313,623.4375 156.1719,623.3594 Q156.3281,623.2813 156.5313,623.2813 Q156.8594,623.2813 157.1094,623.5469 Q157.375,623.7969 157.375,624.1406 Q157.375,624.4844 157.0313,624.8906 Q156.5313,625.4688 155.7344,625.7969 Q154.6563,626.25 153.3594,626.25 Q151.8438,626.25 150.6406,625.625 Q149.6563,625.125 148.9688,624.0625 Q148.2813,622.9844 148.2813,621.7031 L148.2813,620.5469 Q148.2813,619.2188 148.8906,618.0781 Q149.5156,616.9219 150.6094,616.3125 Q151.7031,615.6875 152.9375,615.6875 Q153.6719,615.6875 154.3125,615.8594 Q154.9688,616.0156 155.5156,616.375 Z " fill="#000000"/><text fill="#000000" font-family="sans-serif" font-size="14" lengthAdjust="spacing" textLength="49" x="173.25" y="626.2969">Agenda</text><line style="stroke:#181818;stroke-width:0.5;" x1="8" x2="355" y1="636.5" y2="636.5"/><ellipse cx="18" cy="651.3105" fill="none" rx="3" ry="3" style="stroke:#038048;stroke-width:1.0;"/><text fill="#000000" font-family="sans-serif" font-size="14" lengthAdjust="spacing" textLength="254" x="27" y="655.6074">agendaEntries: ArrayList&lt;AgendaEntry&gt;</text><line style="stroke:#181818;stroke-width:0.5;" x1="8" x2="355" y1="663.1211" y2="663.1211"/><ellipse cx="18" cy="677.9316" fill="#84BE84" rx="3" ry="3" style="stroke:#038048;stroke-width:1.0;"/><text fill="#000000" font-family="sans-serif" font-size="14" lengthAdjust="spacing" textLength="323" x="27" y="682.2285">getActiveAgendaEntries(): ArrayList&lt;AgendaEntry&gt;</text></g><!--class Repositories--><g id="elem_Repositories"><rect codeLine="20" fill="#F1F1F1" height="103.8633" id="Repositories" rx="2.5" ry="2.5" style="stroke:#181818;stroke-width:0.5;" width="166" x="98.5" y="374"/><ellipse cx="138.25" cy="390" fill="#ADD1B2" rx="11" ry="11" style="stroke:#181818;stroke-width:1.0;"/><path d="M141.0156,385.875 Q141.1719,385.6563 141.3594,385.5469 Q141.5469,385.4375 141.7656,385.4375 Q142.1406,385.4375 142.375,385.7031 Q142.6094,385.9531 142.6094,386.5625 L142.6094,388.0156 Q142.6094,388.625 142.375,388.8906 Q142.1406,389.1563 141.7656,389.1563 Q141.4219,389.1563 141.2188,388.9531 Q141.0156,388.7656 140.9063,388.25 Q140.8594,387.8906 140.6719,387.7031 Q140.3438,387.3281 139.7344,387.1094 Q139.125,386.8906 138.5,386.8906 Q137.7344,386.8906 137.0938,387.2188 Q136.4688,387.5469 135.9688,388.2969 Q135.4844,389.0469 135.4844,390.0781 L135.4844,391.1719 Q135.4844,392.4063 136.375,393.2344 Q137.2656,394.0469 138.8594,394.0469 Q139.7969,394.0469 140.4531,393.7969 Q140.8438,393.6406 141.2656,393.2031 Q141.5313,392.9375 141.6719,392.8594 Q141.8281,392.7813 142.0313,392.7813 Q142.3594,392.7813 142.6094,393.0469 Q142.875,393.2969 142.875,393.6406 Q142.875,393.9844 142.5313,394.3906 Q142.0313,394.9688 141.2344,395.2969 Q140.1563,395.75 138.8594,395.75 Q137.3438,395.75 136.1406,395.125 Q135.1563,394.625 134.4688,393.5625 Q133.7813,392.4844 133.7813,391.2031 L133.7813,390.0469 Q133.7813,388.7188 134.3906,387.5781 Q135.0156,386.4219 136.1094,385.8125 Q137.2031,385.1875 138.4375,385.1875 Q139.1719,385.1875 139.8125,385.3594 Q140.4688,385.5156 141.0156,385.875 Z " fill="#000000"/><text fill="#000000" font-family="sans-serif" font-size="14" lengthAdjust="spacing" textLength="79" x="157.75" y="395.7969">Repositories</text><line style="stroke:#181818;stroke-width:0.5;" x1="99.5" x2="263.5" y1="406" y2="406"/><rect fill="none" height="6" style="stroke:#C82930;stroke-width:1.0;" width="6" x="106.5" y="417.8105"/><text fill="#000000" font-family="sans-serif" font-size="14" lengthAdjust="spacing" textLength="140" x="118.5" y="425.1074">instance: Repositories</text><rect fill="none" height="6" style="stroke:#C82930;stroke-width:1.0;" width="6" x="106.5" y="436.4316"/><text fill="#000000" font-family="sans-serif" font-size="14" lengthAdjust="spacing" textLength="105" x="118.5" y="443.7285">agenda: Agenda</text><line style="stroke:#181818;stroke-width:0.5;" x1="99.5" x2="263.5" y1="451.2422" y2="451.2422"/><ellipse cx="109.5" cy="466.0527" fill="#84BE84" rx="3" ry="3" style="stroke:#038048;stroke-width:1.0;"/><text fill="#000000" font-family="sans-serif" font-size="14" lengthAdjust="spacing" textLength="136" x="118.5" y="470.3496">getAgenda(): Agenda</text></g><!--class AgendaEntry--><g id="elem_AgendaEntry"><rect codeLine="26" fill="#F1F1F1" height="196.9688" id="AgendaEntry" rx="2.5" ry="2.5" style="stroke:#181818;stroke-width:0.5;" width="270" x="405.5" y="548.5"/><ellipse cx="495.25" cy="564.5" fill="#ADD1B2" rx="11" ry="11" style="stroke:#181818;stroke-width:1.0;"/><path d="M498.0156,560.375 Q498.1719,560.1563 498.3594,560.0469 Q498.5469,559.9375 498.7656,559.9375 Q499.1406,559.9375 499.375,560.2031 Q499.6094,560.4531 499.6094,561.0625 L499.6094,562.5156 Q499.6094,563.125 499.375,563.3906 Q499.1406,563.6563 498.7656,563.6563 Q498.4219,563.6563 498.2188,563.4531 Q498.0156,563.2656 497.9063,562.75 Q497.8594,562.3906 497.6719,562.2031 Q497.3438,561.8281 496.7344,561.6094 Q496.125,561.3906 495.5,561.3906 Q494.7344,561.3906 494.0938,561.7188 Q493.4688,562.0469 492.9688,562.7969 Q492.4844,563.5469 492.4844,564.5781 L492.4844,565.6719 Q492.4844,566.9063 493.375,567.7344 Q494.2656,568.5469 495.8594,568.5469 Q496.7969,568.5469 497.4531,568.2969 Q497.8438,568.1406 498.2656,567.7031 Q498.5313,567.4375 498.6719,567.3594 Q498.8281,567.2813 499.0313,567.2813 Q499.3594,567.2813 499.6094,567.5469 Q499.875,567.7969 499.875,568.1406 Q499.875,568.4844 499.5313,568.8906 Q499.0313,569.4688 498.2344,569.7969 Q497.1563,570.25 495.8594,570.25 Q494.3438,570.25 493.1406,569.625 Q492.1563,569.125 491.4688,568.0625 Q490.7813,566.9844 490.7813,565.7031 L490.7813,564.5469 Q490.7813,563.2188 491.3906,562.0781 Q492.0156,560.9219 493.1094,560.3125 Q494.2031,559.6875 495.4375,559.6875 Q496.1719,559.6875 496.8125,559.8594 Q497.4688,560.0156 498.0156,560.375 Z " fill="#000000"/><text fill="#000000" font-family="sans-serif" font-size="14" lengthAdjust="spacing" textLength="82" x="515.75" y="570.2969">AgendaEntry</text><line style="stroke:#181818;stroke-width:0.5;" x1="406.5" x2="674.5" y1="580.5" y2="580.5"/><ellipse cx="416.5" cy="595.3105" fill="none" rx="3" ry="3" style="stroke:#038048;stroke-width:1.0;"/><text fill="#000000" font-family="sans-serif" font-size="14" lengthAdjust="spacing" textLength="138" x="425.5" y="599.6074">associatedTask: Task</text><ellipse cx="416.5" cy="613.9316" fill="none" rx="3" ry="3" style="stroke:#038048;stroke-width:1.0;"/><text fill="#000000" font-family="sans-serif" font-size="14" lengthAdjust="spacing" textLength="75" x="425.5" y="618.2285">team: Team</text><ellipse cx="416.5" cy="632.5527" fill="none" rx="3" ry="3" style="stroke:#038048;stroke-width:1.0;"/><text fill="#000000" font-family="sans-serif" font-size="14" lengthAdjust="spacing" textLength="114" x="425.5" y="636.8496">String date: String</text><ellipse cx="416.5" cy="651.1738" fill="none" rx="3" ry="3" style="stroke:#038048;stroke-width:1.0;"/><text fill="#000000" font-family="sans-serif" font-size="14" lengthAdjust="spacing" textLength="177" x="425.5" y="655.4707">vehicles: ArrayList&lt;Vehicle&gt;</text><line style="stroke:#181818;stroke-width:0.5;" x1="406.5" x2="674.5" y1="662.9844" y2="662.9844"/><ellipse cx="416.5" cy="677.7949" fill="#84BE84" rx="3" ry="3" style="stroke:#038048;stroke-width:1.0;"/><text fill="#000000" font-family="sans-serif" font-size="14" lengthAdjust="spacing" textLength="244" x="425.5" y="682.0918">setDescription(String description): void</text><ellipse cx="416.5" cy="696.416" fill="#84BE84" rx="3" ry="3" style="stroke:#038048;stroke-width:1.0;"/><text fill="#000000" font-family="sans-serif" font-size="14" lengthAdjust="spacing" textLength="170" x="425.5" y="700.7129">setTeam(Team team): void</text><ellipse cx="416.5" cy="715.0371" fill="#84BE84" rx="3" ry="3" style="stroke:#038048;stroke-width:1.0;"/><text fill="#000000" font-family="sans-serif" font-size="14" lengthAdjust="spacing" textLength="189" x="425.5" y="719.334">setDate(String newDate): void</text><ellipse cx="416.5" cy="733.6582" fill="#84BE84" rx="3" ry="3" style="stroke:#038048;stroke-width:1.0;"/><text fill="#000000" font-family="sans-serif" font-size="14" lengthAdjust="spacing" textLength="169" x="425.5" y="737.9551">getAssociatedTask(): Task</text></g><!--class AgendaEntryMapper--><g id="elem_AgendaEntryMapper"><rect codeLine="37" fill="#F1F1F1" height="85.2422" id="AgendaEntryMapper" rx="2.5" ry="2.5" style="stroke:#181818;stroke-width:0.5;" width="353" x="379" y="383.5"/><ellipse cx="486.25" cy="399.5" fill="#ADD1B2" rx="11" ry="11" style="stroke:#181818;stroke-width:1.0;"/><path d="M489.0156,395.375 Q489.1719,395.1563 489.3594,395.0469 Q489.5469,394.9375 489.7656,394.9375 Q490.1406,394.9375 490.375,395.2031 Q490.6094,395.4531 490.6094,396.0625 L490.6094,397.5156 Q490.6094,398.125 490.375,398.3906 Q490.1406,398.6563 489.7656,398.6563 Q489.4219,398.6563 489.2188,398.4531 Q489.0156,398.2656 488.9063,397.75 Q488.8594,397.3906 488.6719,397.2031 Q488.3438,396.8281 487.7344,396.6094 Q487.125,396.3906 486.5,396.3906 Q485.7344,396.3906 485.0938,396.7188 Q484.4688,397.0469 483.9688,397.7969 Q483.4844,398.5469 483.4844,399.5781 L483.4844,400.6719 Q483.4844,401.9063 484.375,402.7344 Q485.2656,403.5469 486.8594,403.5469 Q487.7969,403.5469 488.4531,403.2969 Q488.8438,403.1406 489.2656,402.7031 Q489.5313,402.4375 489.6719,402.3594 Q489.8281,402.2813 490.0313,402.2813 Q490.3594,402.2813 490.6094,402.5469 Q490.875,402.7969 490.875,403.1406 Q490.875,403.4844 490.5313,403.8906 Q490.0313,404.4688 489.2344,404.7969 Q488.1563,405.25 486.8594,405.25 Q485.3438,405.25 484.1406,404.625 Q483.1563,404.125 482.4688,403.0625 Q481.7813,401.9844 481.7813,400.7031 L481.7813,399.5469 Q481.7813,398.2188 482.3906,397.0781 Q483.0156,395.9219 484.1094,395.3125 Q485.2031,394.6875 486.4375,394.6875 Q487.1719,394.6875 487.8125,394.8594 Q488.4688,395.0156 489.0156,395.375 Z " fill="#000000"/><text fill="#000000" font-family="sans-serif" font-size="14" lengthAdjust="spacing" textLength="130" x="506.75" y="405.2969">AgendaEntryMapper</text><line style="stroke:#181818;stroke-width:0.5;" x1="380" x2="731" y1="415.5" y2="415.5"/><line style="stroke:#181818;stroke-width:0.5;" x1="380" x2="731" y1="423.5" y2="423.5"/><ellipse cx="390" cy="438.3105" fill="#84BE84" rx="3" ry="3" style="stroke:#038048;stroke-width:1.0;"/><text fill="#000000" font-family="sans-serif" font-size="14" lengthAdjust="spacing" textLength="327" x="399" y="442.6074">toDto(agendaEntry: AgendaEntry): AgendaEntryDto</text><ellipse cx="390" cy="456.9316" fill="#84BE84" rx="3" ry="3" style="stroke:#038048;stroke-width:1.0;"/><text fill="#000000" font-family="sans-serif" font-size="14" lengthAdjust="spacing" textLength="276" x="399" y="461.2285">toDomain(selectedEntryDTO): AgendaEntry</text></g><!--class AgendaEntryDto--><g id="elem_AgendaEntryDto"><rect codeLine="42" fill="#F1F1F1" height="215.5898" id="AgendaEntryDto" rx="2.5" ry="2.5" style="stroke:#181818;stroke-width:0.5;" width="235" x="711" y="539"/><ellipse cx="772.25" cy="555" fill="#ADD1B2" rx="11" ry="11" style="stroke:#181818;stroke-width:1.0;"/><path d="M775.0156,550.875 Q775.1719,550.6563 775.3594,550.5469 Q775.5469,550.4375 775.7656,550.4375 Q776.1406,550.4375 776.375,550.7031 Q776.6094,550.9531 776.6094,551.5625 L776.6094,553.0156 Q776.6094,553.625 776.375,553.8906 Q776.1406,554.1563 775.7656,554.1563 Q775.4219,554.1563 775.2188,553.9531 Q775.0156,553.7656 774.9063,553.25 Q774.8594,552.8906 774.6719,552.7031 Q774.3438,552.3281 773.7344,552.1094 Q773.125,551.8906 772.5,551.8906 Q771.7344,551.8906 771.0938,552.2188 Q770.4688,552.5469 769.9688,553.2969 Q769.4844,554.0469 769.4844,555.0781 L769.4844,556.1719 Q769.4844,557.4063 770.375,558.2344 Q771.2656,559.0469 772.8594,559.0469 Q773.7969,559.0469 774.4531,558.7969 Q774.8438,558.6406 775.2656,558.2031 Q775.5313,557.9375 775.6719,557.8594 Q775.8281,557.7813 776.0313,557.7813 Q776.3594,557.7813 776.6094,558.0469 Q776.875,558.2969 776.875,558.6406 Q776.875,558.9844 776.5313,559.3906 Q776.0313,559.9688 775.2344,560.2969 Q774.1563,560.75 772.8594,560.75 Q771.3438,560.75 770.1406,560.125 Q769.1563,559.625 768.4688,558.5625 Q767.7813,557.4844 767.7813,556.2031 L767.7813,555.0469 Q767.7813,553.7188 768.3906,552.5781 Q769.0156,551.4219 770.1094,550.8125 Q771.2031,550.1875 772.4375,550.1875 Q773.1719,550.1875 773.8125,550.3594 Q774.4688,550.5156 775.0156,550.875 Z " fill="#000000"/><text fill="#000000" font-family="sans-serif" font-size="14" lengthAdjust="spacing" textLength="104" x="792.75" y="560.7969">AgendaEntryDto</text><line style="stroke:#181818;stroke-width:0.5;" x1="712" x2="945" y1="571" y2="571"/><ellipse cx="722" cy="585.8105" fill="none" rx="3" ry="3" style="stroke:#038048;stroke-width:1.0;"/><text fill="#000000" font-family="sans-serif" font-size="14" lengthAdjust="spacing" textLength="138" x="731" y="590.1074">associatedTask: Task</text><ellipse cx="722" cy="604.4316" fill="none" rx="3" ry="3" style="stroke:#038048;stroke-width:1.0;"/><text fill="#000000" font-family="sans-serif" font-size="14" lengthAdjust="spacing" textLength="75" x="731" y="608.7285">team: Team</text><ellipse cx="722" cy="623.0527" fill="none" rx="3" ry="3" style="stroke:#038048;stroke-width:1.0;"/><text fill="#000000" font-family="sans-serif" font-size="14" lengthAdjust="spacing" textLength="114" x="731" y="627.3496">String date: String</text><ellipse cx="722" cy="641.6738" fill="none" rx="3" ry="3" style="stroke:#038048;stroke-width:1.0;"/><text fill="#000000" font-family="sans-serif" font-size="14" lengthAdjust="spacing" textLength="177" x="731" y="645.9707">vehicles: ArrayList&lt;Vehicle&gt;</text><line style="stroke:#181818;stroke-width:0.5;" x1="712" x2="945" y1="653.4844" y2="653.4844"/><ellipse cx="722" cy="668.2949" fill="#84BE84" rx="3" ry="3" style="stroke:#038048;stroke-width:1.0;"/><text fill="#000000" font-family="sans-serif" font-size="14" lengthAdjust="spacing" textLength="209" x="731" y="672.5918">getVehicles(): ArrayList&lt;Vehicle&gt;</text><ellipse cx="722" cy="686.916" fill="#84BE84" rx="3" ry="3" style="stroke:#038048;stroke-width:1.0;"/><text fill="#000000" font-family="sans-serif" font-size="14" lengthAdjust="spacing" textLength="146" x="731" y="691.2129">getDescription(): String</text><ellipse cx="722" cy="705.5371" fill="#84BE84" rx="3" ry="3" style="stroke:#038048;stroke-width:1.0;"/><text fill="#000000" font-family="sans-serif" font-size="14" lengthAdjust="spacing" textLength="110" x="731" y="709.834">getTeam(): Team</text><ellipse cx="722" cy="724.1582" fill="#84BE84" rx="3" ry="3" style="stroke:#038048;stroke-width:1.0;"/><text fill="#000000" font-family="sans-serif" font-size="14" lengthAdjust="spacing" textLength="105" x="731" y="728.4551">getDate(): String</text><ellipse cx="722" cy="742.7793" fill="#84BE84" rx="3" ry="3" style="stroke:#038048;stroke-width:1.0;"/><text fill="#000000" font-family="sans-serif" font-size="14" lengthAdjust="spacing" textLength="169" x="731" y="747.0762">getAssociatedTask(): Task</text></g><!--class Task--><g id="elem_Task"><rect codeLine="54" fill="#F1F1F1" height="345.9375" id="Task" rx="2.5" ry="2.5" style="stroke:#181818;stroke-width:0.5;" width="339" x="371" y="816"/><ellipse cx="520.75" cy="832" fill="#ADD1B2" rx="11" ry="11" style="stroke:#181818;stroke-width:1.0;"/><path d="M523.5156,827.875 Q523.6719,827.6563 523.8594,827.5469 Q524.0469,827.4375 524.2656,827.4375 Q524.6406,827.4375 524.875,827.7031 Q525.1094,827.9531 525.1094,828.5625 L525.1094,830.0156 Q525.1094,830.625 524.875,830.8906 Q524.6406,831.1563 524.2656,831.1563 Q523.9219,831.1563 523.7188,830.9531 Q523.5156,830.7656 523.4063,830.25 Q523.3594,829.8906 523.1719,829.7031 Q522.8438,829.3281 522.2344,829.1094 Q521.625,828.8906 521,828.8906 Q520.2344,828.8906 519.5938,829.2188 Q518.9688,829.5469 518.4688,830.2969 Q517.9844,831.0469 517.9844,832.0781 L517.9844,833.1719 Q517.9844,834.4063 518.875,835.2344 Q519.7656,836.0469 521.3594,836.0469 Q522.2969,836.0469 522.9531,835.7969 Q523.3438,835.6406 523.7656,835.2031 Q524.0313,834.9375 524.1719,834.8594 Q524.3281,834.7813 524.5313,834.7813 Q524.8594,834.7813 525.1094,835.0469 Q525.375,835.2969 525.375,835.6406 Q525.375,835.9844 525.0313,836.3906 Q524.5313,836.9688 523.7344,837.2969 Q522.6563,837.75 521.3594,837.75 Q519.8438,837.75 518.6406,837.125 Q517.6563,836.625 516.9688,835.5625 Q516.2813,834.4844 516.2813,833.2031 L516.2813,832.0469 Q516.2813,830.7188 516.8906,829.5781 Q517.5156,828.4219 518.6094,827.8125 Q519.7031,827.1875 520.9375,827.1875 Q521.6719,827.1875 522.3125,827.3594 Q522.9688,827.5156 523.5156,827.875 Z " fill="#000000"/><text fill="#000000" font-family="sans-serif" font-size="14" lengthAdjust="spacing" textLength="31" x="541.25" y="837.7969">Task</text><line style="stroke:#181818;stroke-width:0.5;" x1="372" x2="709" y1="848" y2="848"/><rect fill="none" height="6" style="stroke:#C82930;stroke-width:1.0;" width="6" x="379" y="859.8105"/><text fill="#000000" font-family="sans-serif" font-size="14" lengthAdjust="spacing" textLength="114" x="391" y="867.1074">description: String</text><rect fill="none" height="6" style="stroke:#C82930;stroke-width:1.0;" width="6" x="379" y="878.4316"/><text fill="#000000" font-family="sans-serif" font-size="14" lengthAdjust="spacing" textLength="107" x="391" y="885.7285">taskName: String</text><rect fill="none" height="6" style="stroke:#C82930;stroke-width:1.0;" width="6" x="379" y="897.0527"/><text fill="#000000" font-family="sans-serif" font-size="14" lengthAdjust="spacing" textLength="165" x="391" y="904.3496">greenSpace: GreenSpace</text><rect fill="none" height="6" style="stroke:#C82930;stroke-width:1.0;" width="6" x="379" y="915.6738"/><text fill="#000000" font-family="sans-serif" font-size="14" lengthAdjust="spacing" textLength="138" x="391" y="922.9707">estimatedDuration: int</text><rect fill="none" height="6" style="stroke:#C82930;stroke-width:1.0;" width="6" x="379" y="934.2949"/><text fill="#000000" font-family="sans-serif" font-size="14" lengthAdjust="spacing" textLength="145" x="391" y="941.5918">taskStatus: TaskStatus</text><rect fill="none" height="6" style="stroke:#C82930;stroke-width:1.0;" width="6" x="379" y="952.916"/><text fill="#000000" font-family="sans-serif" font-size="14" lengthAdjust="spacing" textLength="263" x="391" y="960.2129">taskUrgencyDegree: TaskUrgencyDegree</text><line style="stroke:#181818;stroke-width:0.5;" x1="372" x2="709" y1="967.7266" y2="967.7266"/><ellipse cx="382" cy="982.5371" fill="#84BE84" rx="3" ry="3" style="stroke:#038048;stroke-width:1.0;"/><text fill="#000000" font-family="sans-serif" font-size="14" lengthAdjust="spacing" textLength="146" x="391" y="986.834">getDescription(): String</text><ellipse cx="382" cy="1001.1582" fill="#84BE84" rx="3" ry="3" style="stroke:#038048;stroke-width:1.0;"/><text fill="#000000" font-family="sans-serif" font-size="14" lengthAdjust="spacing" textLength="244" x="391" y="1005.4551">setDescription(String description): void</text><ellipse cx="382" cy="1019.7793" fill="#84BE84" rx="3" ry="3" style="stroke:#038048;stroke-width:1.0;"/><text fill="#000000" font-family="sans-serif" font-size="14" lengthAdjust="spacing" textLength="142" x="391" y="1024.0762">getTaskName(): String</text><ellipse cx="382" cy="1038.4004" fill="#84BE84" rx="3" ry="3" style="stroke:#038048;stroke-width:1.0;"/><text fill="#000000" font-family="sans-serif" font-size="14" lengthAdjust="spacing" textLength="233" x="391" y="1042.6973">setTaskName(String taskName): void</text><ellipse cx="382" cy="1057.0215" fill="#84BE84" rx="3" ry="3" style="stroke:#038048;stroke-width:1.0;"/><text fill="#000000" font-family="sans-serif" font-size="14" lengthAdjust="spacing" textLength="198" x="391" y="1061.3184">getGreenSpace(): GreenSpace</text><ellipse cx="382" cy="1075.6426" fill="#84BE84" rx="3" ry="3" style="stroke:#038048;stroke-width:1.0;"/><text fill="#000000" font-family="sans-serif" font-size="14" lengthAdjust="spacing" textLength="304" x="391" y="1079.9395">setGreenSpace(GreenSpace greenSpace): void</text><ellipse cx="382" cy="1094.2637" fill="#84BE84" rx="3" ry="3" style="stroke:#038048;stroke-width:1.0;"/><text fill="#000000" font-family="sans-serif" font-size="14" lengthAdjust="spacing" textLength="180" x="391" y="1098.5605">getTaskStatus(): TaskStatus</text><ellipse cx="382" cy="1112.8848" fill="#84BE84" rx="3" ry="3" style="stroke:#038048;stroke-width:1.0;"/><text fill="#000000" font-family="sans-serif" font-size="14" lengthAdjust="spacing" textLength="275" x="391" y="1117.1816">setTaskStatus(TaskStatus taskStatus): void</text><ellipse cx="382" cy="1131.5059" fill="#84BE84" rx="3" ry="3" style="stroke:#038048;stroke-width:1.0;"/><text fill="#000000" font-family="sans-serif" font-size="14" lengthAdjust="spacing" textLength="169" x="391" y="1135.8027">getEstimatedDuration(): int</text><ellipse cx="382" cy="1150.127" fill="#84BE84" rx="3" ry="3" style="stroke:#038048;stroke-width:1.0;"/><text fill="#000000" font-family="sans-serif" font-size="14" lengthAdjust="spacing" textLength="313" x="391" y="1154.4238">setEstimatedDuration(int estimatedDuration): void</text></g><!--link Repositories to Repositories--><g id="link_Repositories_Repositories"><path codeLine="73" d="M264.75,410.9 C284.71,412.08 299.5,417.11 299.5,426 C299.5,434.89 290.6995,439.5659 270.7395,440.7459 " fill="none" id="Repositories-to-Repositories" style="stroke:#181818;stroke-width:1.0;"/><polygon fill="#181818" points="264.75,441.1,273.9704,444.5619,269.7413,440.8049,273.4983,436.5758,264.75,441.1" style="stroke:#181818;stroke-width:1.0;"/><text fill="#000000" font-family="sans-serif" font-size="13" lengthAdjust="spacing" textLength="49" x="305.5" y="431.5283">instance</text></g><!--link AgendaGUI to AgendaController--><g id="link_AgendaGUI_AgendaController"><path codeLine="74" d="M367.5,148.15 C367.5,168.35 367.5,184.02 367.5,202.85 " fill="none" id="AgendaGUI-to-AgendaController" style="stroke:#181818;stroke-width:1.0;stroke-dasharray:7.0,7.0;"/><polygon fill="#181818" points="367.5,208.85,371.5,199.85,367.5,203.85,363.5,199.85,367.5,208.85" style="stroke:#181818;stroke-width:1.0;"/></g><!--link Repositories to Agenda--><g id="link_Repositories_Agenda"><path codeLine="75" d="M181.5,478.07 C181.5,516.49 181.5,550.49 181.5,586.4 " fill="none" id="Repositories-to-Agenda" style="stroke:#181818;stroke-width:1.0;"/><polygon fill="none" points="181.5,604.4,187.5,586.4,175.5,586.4,181.5,604.4" style="stroke:#181818;stroke-width:1.0;"/><text fill="#000000" font-family="sans-serif" font-size="13" lengthAdjust="spacing" textLength="7" x="174.0516" y="499.8863">1</text><text fill="#000000" font-family="sans-serif" font-size="13" lengthAdjust="spacing" textLength="7" x="173.9422" y="593.2881">1</text></g><!--link AgendaController to Repositories--><g id="link_AgendaController_Repositories"><path codeLine="76" d="M309.16,313.13 C287.11,332.45 266.5336,350.4868 244.4636,369.8168 " fill="none" id="AgendaController-to-Repositories" style="stroke:#181818;stroke-width:1.0;stroke-dasharray:7.0,7.0;"/><polygon fill="#181818" points="239.95,373.77,249.3558,370.8492,243.7113,370.4757,244.0849,364.8312,239.95,373.77" style="stroke:#181818;stroke-width:1.0;"/></g><!--link AgendaController to AgendaEntryMapper--><g id="link_AgendaController_AgendaEntryMapper"><path codeLine="77" d="M426.47,313.13 C452.53,335.72 478.2466,358.0196 502.9066,379.3996 " fill="none" id="AgendaController-to-AgendaEntryMapper" style="stroke:#181818;stroke-width:1.0;"/><polygon fill="#181818" points="507.44,383.33,503.2602,374.4121,503.6622,380.0546,498.0196,380.4566,507.44,383.33" style="stroke:#181818;stroke-width:1.0;"/></g><!--link AgendaEntry to Task--><g id="link_AgendaEntry_Task"><path codeLine="78" d="M540.5,745.89 C540.5,767.86 540.5,785.8 540.5,809.81 " fill="none" id="AgendaEntry-to-Task" style="stroke:#181818;stroke-width:1.0;stroke-dasharray:7.0,7.0;"/><polygon fill="#181818" points="540.5,815.81,544.5,806.81,540.5,810.81,536.5,806.81,540.5,815.81" style="stroke:#181818;stroke-width:1.0;"/></g><!--link AgendaEntryMapper to AgendaEntryDto--><g id="link_AgendaEntryMapper_AgendaEntryDto"><path codeLine="79" d="M607.49,468.71 C636.81,492.23 670.0199,518.8655 706.1199,547.8255 " fill="none" id="AgendaEntryMapper-to-AgendaEntryDto" style="stroke:#181818;stroke-width:1.0;stroke-dasharray:7.0,7.0;"/><polygon fill="#181818" points="710.8,551.58,706.2828,542.8282,706.8999,548.4513,701.2768,549.0684,710.8,551.58" style="stroke:#181818;stroke-width:1.0;"/></g><!--link AgendaEntryMapper to AgendaEntry--><g id="link_AgendaEntryMapper_AgendaEntry"><path codeLine="80" d="M552.64,468.71 C551.1,491.29 549.5196,514.244 547.6096,542.154 " fill="none" id="AgendaEntryMapper-to-AgendaEntry" style="stroke:#181818;stroke-width:1.0;stroke-dasharray:7.0,7.0;"/><polygon fill="#181818" points="547.2,548.14,551.8051,539.4341,547.5414,543.1517,543.8238,538.8879,547.2,548.14" style="stroke:#181818;stroke-width:1.0;"/></g><!--SRC=[jLLBQzmm4BxxLuYSl2mRwDMKXMqTGg4Fw2Qv2-tWY7WbOsatXBR_lJEIh8UzRTf3BaBpq3VpVPB7ekV6i5q7wi1lxp-n7zM6SMVTA3k-V9R6DepM1mdFxtSfies97pNQkkzXR09GybHidS3hLSFEMXx8EUZXr7CBX2N1vA57hWuzjC25bMTC-N2oLgiTMbh5l5zL9RBMKyMCmTHEjMOTMBydWEWLN0dexxXvgcbX5fS_543OTIOCjemuuyYTGgKklXer3xlyW2jz-KWizXq6RQJLbE-OI6KiTTaKeN-bE2FXgdacncWXKTm34MyOhUYsm8zeu8h67hjM7JjWLXCCz9xXKOg-fF_WVKJTW6t1Y54ExhecZEIQz7MfLAccnLKkGYsMdOuhU2OpnObhmO0uEmwN67_Xm-0U1XBKhTLrzi2RF75LM9ZfJ-WZbwesq8F0SZvszwrClbWO4TvMRTGXMBFNLURaDxBAqBjm0wlOHHU4dsMz9hRxUkYvPXST4JRkk_hAZv2vkX50xGTEB_isxZ40nieZLMfF8_SuKja0ihVSdeolxlSXS3-YwkAb1SBrySBrTnt-uz6IP87D72Bwm_c9TN4uSQNZ6NC7aKNJDjDgqOSNORgG84di9aJJDXEnWBgPYqw89Bk3MaOnjBoeR78MOsopsPPphObJhKe_dklhxVBlKHoxUdU5M3-tRXC6t6Bw4qmnAHSPrCvYE5JvW2GCzxwNCoHr6KV4gqbLzHi0]--></g></svg>