<?xml version="1.0" encoding="us-ascii" standalone="no"?><svg xmlns="http://www.w3.org/2000/svg" xmlns:xlink="http://www.w3.org/1999/xlink" contentStyleType="text/css" height="1171px" preserveAspectRatio="none" style="width:1266px;height:1171px;background:#FFFFFF;" version="1.1" viewBox="0 0 1266 1171" width="1266px" zoomAndPan="magnify"><defs/><g><rect fill="#FFFFFF" height="976.875" style="stroke:#181818;stroke-width:1.0;" width="10" x="76" y="93.6211"/><rect fill="#FFFFFF" height="201.707" style="stroke:#181818;stroke-width:1.0;" width="10" x="398" y="116.9121"/><rect fill="#FFFFFF" height="31.291" style="stroke:#181818;stroke-width:1.0;" width="10" x="398" y="349.9102"/><rect fill="#FFFFFF" height="31.291" style="stroke:#181818;stroke-width:1.0;" width="10" x="398" y="447.0742"/><rect fill="#FFFFFF" height="560.8398" style="stroke:#181818;stroke-width:1.0;" width="10" x="398" y="509.6563"/><rect fill="#FFFFFF" height="95.5039" style="stroke:#181818;stroke-width:1.0;" width="10" x="799" y="191.8242"/><rect fill="#FFFFFF" height="480.9668" style="stroke:#181818;stroke-width:1.0;" width="10" x="799" y="558.2383"/><rect fill="#FFFFFF" height="106.5039" style="stroke:#181818;stroke-width:1.0;" width="10" x="804" y="597.5293"/><rect fill="#FFFFFF" height="106.5039" style="stroke:#181818;stroke-width:1.0;" width="10" x="804" y="750.3242"/><rect fill="#FFFFFF" height="95.5039" style="stroke:#181818;stroke-width:1.0;" width="10" x="1203" y="912.4102"/><line style="stroke:#181818;stroke-width:0.5;stroke-dasharray:5.0,5.0;" x1="81" x2="81" y1="83.6211" y2="1088.4961"/><line style="stroke:#181818;stroke-width:0.5;stroke-dasharray:5.0,5.0;" x1="403" x2="403" y1="83.6211" y2="1088.4961"/><line style="stroke:#181818;stroke-width:0.5;stroke-dasharray:5.0,5.0;" x1="804" x2="804" y1="156.7227" y2="1088.4961"/><line style="stroke:#181818;stroke-width:0.5;stroke-dasharray:5.0,5.0;" x1="1208" x2="1208" y1="83.6211" y2="1088.4961"/><text fill="#000000" font-family="sans-serif" font-size="14" lengthAdjust="spacing" textLength="146" x="5" y="80.1074">Organization Employee</text><ellipse cx="81" cy="13.5" fill="#E3E3E3" rx="8" ry="8" style="stroke:#181818;stroke-width:0.5;"/><path d="M81,21.5 L81,48.5 M68,29.5 L94,29.5 M81,48.5 L68,63.5 M81,48.5 L94,63.5 " fill="none" style="stroke:#181818;stroke-width:0.5;"/><text fill="#000000" font-family="sans-serif" font-size="14" lengthAdjust="spacing" textLength="146" x="5" y="1102.6035">Organization Employee</text><ellipse cx="81" cy="1114.6172" fill="#E3E3E3" rx="8" ry="8" style="stroke:#181818;stroke-width:0.5;"/><path d="M81,1122.6172 L81,1149.6172 M68,1130.6172 L94,1130.6172 M81,1149.6172 L68,1164.6172 M81,1149.6172 L94,1164.6172 " fill="none" style="stroke:#181818;stroke-width:0.5;"/><rect fill="#E3E3E3" height="32.6211" rx="2.5" ry="2.5" style="stroke:#181818;stroke-width:0.5;" width="104" x="351" y="50"/><text fill="#000000" font-family="sans-serif" font-size="14" lengthAdjust="spacing" textLength="90" x="358" y="72.1074">:CreateTaskUI</text><rect fill="#E3E3E3" height="32.6211" rx="2.5" ry="2.5" style="stroke:#181818;stroke-width:0.5;" width="104" x="351" y="1087.4961"/><text fill="#000000" font-family="sans-serif" font-size="14" lengthAdjust="spacing" textLength="90" x="358" y="1109.6035">:CreateTaskUI</text><rect fill="#E3E3E3" height="32.6211" rx="2.5" ry="2.5" style="stroke:#181818;stroke-width:0.5;" width="154" x="727" y="1087.4961"/><text fill="#000000" font-family="sans-serif" font-size="14" lengthAdjust="spacing" textLength="140" x="734" y="1109.6035">:CreateTaskController</text><rect fill="#E3E3E3" height="51.2422" rx="2.5" ry="2.5" style="stroke:#181818;stroke-width:0.5;" width="98" x="1159" y="31.3789"/><text fill="#000000" font-family="sans-serif" font-size="14" lengthAdjust="spacing" textLength="77" x="1169.5" y="53.4863">organization</text><text fill="#000000" font-family="sans-serif" font-size="14" lengthAdjust="spacing" textLength="84" x="1166" y="72.1074">:Organization</text><rect fill="#E3E3E3" height="51.2422" rx="2.5" ry="2.5" style="stroke:#181818;stroke-width:0.5;" width="98" x="1159" y="1087.4961"/><text fill="#000000" font-family="sans-serif" font-size="14" lengthAdjust="spacing" textLength="77" x="1169.5" y="1109.6035">organization</text><text fill="#000000" font-family="sans-serif" font-size="14" lengthAdjust="spacing" textLength="84" x="1166" y="1128.2246">:Organization</text><rect fill="#FFFFFF" height="976.875" style="stroke:#181818;stroke-width:1.0;" width="10" x="76" y="93.6211"/><rect fill="#FFFFFF" height="201.707" style="stroke:#181818;stroke-width:1.0;" width="10" x="398" y="116.9121"/><rect fill="#FFFFFF" height="31.291" style="stroke:#181818;stroke-width:1.0;" width="10" x="398" y="349.9102"/><rect fill="#FFFFFF" height="31.291" style="stroke:#181818;stroke-width:1.0;" width="10" x="398" y="447.0742"/><rect fill="#FFFFFF" height="560.8398" style="stroke:#181818;stroke-width:1.0;" width="10" x="398" y="509.6563"/><rect fill="#FFFFFF" height="95.5039" style="stroke:#181818;stroke-width:1.0;" width="10" x="799" y="191.8242"/><rect fill="#FFFFFF" height="480.9668" style="stroke:#181818;stroke-width:1.0;" width="10" x="799" y="558.2383"/><rect fill="#FFFFFF" height="106.5039" style="stroke:#181818;stroke-width:1.0;" width="10" x="804" y="597.5293"/><rect fill="#FFFFFF" height="106.5039" style="stroke:#181818;stroke-width:1.0;" width="10" x="804" y="750.3242"/><rect fill="#FFFFFF" height="95.5039" style="stroke:#181818;stroke-width:1.0;" width="10" x="1203" y="912.4102"/><polygon fill="#181818" points="386,112.9121,396,116.9121,386,120.9121,390,116.9121" style="stroke:#181818;stroke-width:1.0;"/><line style="stroke:#181818;stroke-width:1.0;" x1="86" x2="392" y1="116.9121" y2="116.9121"/><text fill="#000000" font-family="sans-serif" font-size="13" font-weight="bold" lengthAdjust="spacing" textLength="7" x="93" y="111.6494">1</text><text fill="#000000" font-family="sans-serif" font-size="13" lengthAdjust="spacing" textLength="150" x="104" y="111.6494">asks to create a new task</text><polygon fill="#181818" points="715,144.2031,725,148.2031,715,152.2031,719,148.2031" style="stroke:#181818;stroke-width:1.0;"/><line style="stroke:#181818;stroke-width:1.0;" x1="408" x2="721" y1="148.2031" y2="148.2031"/><text fill="#000000" font-family="sans-serif" font-size="13" font-weight="bold" lengthAdjust="spacing" textLength="7" x="415" y="142.9404">2</text><text fill="#000000" font-family="sans-serif" font-size="13" lengthAdjust="spacing" textLength="36" x="426" y="142.9404">create</text><rect fill="#E3E3E3" height="32.6211" rx="2.5" ry="2.5" style="stroke:#181818;stroke-width:0.5;" width="154" x="727" y="124.9121"/><text fill="#000000" font-family="sans-serif" font-size="14" lengthAdjust="spacing" textLength="140" x="734" y="147.0195">:CreateTaskController</text><polygon fill="#181818" points="787,187.8242,797,191.8242,787,195.8242,791,191.8242" style="stroke:#181818;stroke-width:1.0;"/><line style="stroke:#181818;stroke-width:1.0;" x1="408" x2="793" y1="191.8242" y2="191.8242"/><text fill="#000000" font-family="sans-serif" font-size="13" font-weight="bold" lengthAdjust="spacing" textLength="7" x="415" y="186.5615">3</text><text fill="#000000" font-family="sans-serif" font-size="13" lengthAdjust="spacing" textLength="116" x="426" y="186.5615">getTaskCategories()</text><rect fill="none" height="59.2129" style="stroke:#000000;stroke-width:1.5;" width="160" x="724" y="199.8242"/><path d="M724,199.8242 L786,199.8242 L786,208.8242 L776,218.8242 L724,218.8242 L724,199.8242 " fill="#EEEEEE" style="stroke:#000000;stroke-width:2.0;"/><text fill="#000000" font-family="sans-serif" font-size="13" font-weight="bold" lengthAdjust="spacing" textLength="17" x="737" y="215.8525">ref</text><text fill="#000000" font-family="sans-serif" font-size="12" lengthAdjust="spacing" textLength="124" x="742" y="235.7734">Get Task Category List</text><text fill="#000000" font-family="sans-serif" font-size="12" lengthAdjust="spacing" textLength="3" x="802.5" y="251.7344">&#160;</text><polygon fill="#181818" points="419,283.3281,409,287.3281,419,291.3281,415,287.3281" style="stroke:#181818;stroke-width:1.0;"/><line style="stroke:#181818;stroke-width:1.0;stroke-dasharray:2.0,2.0;" x1="413" x2="803" y1="287.3281" y2="287.3281"/><text fill="#000000" font-family="sans-serif" font-size="13" font-weight="bold" lengthAdjust="spacing" textLength="7" x="425" y="282.0654">4</text><text fill="#000000" font-family="sans-serif" font-size="13" lengthAdjust="spacing" textLength="98" x="436" y="282.0654">taskCategoryList</text><polygon fill="#181818" points="97,314.6191,87,318.6191,97,322.6191,93,318.6191" style="stroke:#181818;stroke-width:1.0;"/><line style="stroke:#181818;stroke-width:1.0;stroke-dasharray:2.0,2.0;" x1="91" x2="402" y1="318.6191" y2="318.6191"/><text fill="#000000" font-family="sans-serif" font-size="13" font-weight="bold" lengthAdjust="spacing" textLength="7" x="103" y="313.3564">5</text><text fill="#000000" font-family="sans-serif" font-size="13" lengthAdjust="spacing" textLength="277" x="114" y="313.3564">shows task category list and asks to sleect one</text><polygon fill="#181818" points="386,345.9102,396,349.9102,386,353.9102,390,349.9102" style="stroke:#181818;stroke-width:1.0;"/><line style="stroke:#181818;stroke-width:1.0;" x1="86" x2="392" y1="349.9102" y2="349.9102"/><text fill="#000000" font-family="sans-serif" font-size="13" font-weight="bold" lengthAdjust="spacing" textLength="7" x="93" y="344.6475">6</text><text fill="#000000" font-family="sans-serif" font-size="13" lengthAdjust="spacing" textLength="136" x="104" y="344.6475">selects a task category</text><polygon fill="#181818" points="97,377.2012,87,381.2012,97,385.2012,93,381.2012" style="stroke:#181818;stroke-width:1.0;"/><line style="stroke:#181818;stroke-width:1.0;stroke-dasharray:2.0,2.0;" x1="91" x2="402" y1="381.2012" y2="381.2012"/><text fill="#000000" font-family="sans-serif" font-size="13" font-weight="bold" lengthAdjust="spacing" textLength="7" x="103" y="375.9385">7</text><text fill="#000000" font-family="sans-serif" font-size="13" lengthAdjust="spacing" textLength="79" x="114" y="375.9385">requests data</text><polygon fill="#181818" points="386,443.0742,396,447.0742,386,451.0742,390,447.0742" style="stroke:#181818;stroke-width:1.0;"/><line style="stroke:#181818;stroke-width:1.0;" x1="86" x2="392" y1="447.0742" y2="447.0742"/><text fill="#000000" font-family="sans-serif" font-size="13" font-weight="bold" lengthAdjust="spacing" textLength="7" x="93" y="424.5205">8</text><text fill="#000000" font-family="sans-serif" font-size="13" lengthAdjust="spacing" textLength="258" x="104" y="407.2295">types requested data (reference, description,</text><text fill="#000000" font-family="sans-serif" font-size="13" lengthAdjust="spacing" textLength="243" x="104" y="424.5205">informal description, technical description,</text><text fill="#000000" font-family="sans-serif" font-size="13" lengthAdjust="spacing" textLength="83" x="104" y="441.8115">duration, cost)</text><polygon fill="#181818" points="97,474.3652,87,478.3652,97,482.3652,93,478.3652" style="stroke:#181818;stroke-width:1.0;"/><line style="stroke:#181818;stroke-width:1.0;stroke-dasharray:2.0,2.0;" x1="91" x2="402" y1="478.3652" y2="478.3652"/><text fill="#000000" font-family="sans-serif" font-size="13" font-weight="bold" lengthAdjust="spacing" textLength="7" x="103" y="473.1025">9</text><text fill="#000000" font-family="sans-serif" font-size="13" lengthAdjust="spacing" textLength="259" x="114" y="473.1025">shows selected category and requested data</text><polygon fill="#181818" points="386,505.6563,396,509.6563,386,513.6563,390,509.6563" style="stroke:#181818;stroke-width:1.0;"/><line style="stroke:#181818;stroke-width:1.0;" x1="86" x2="392" y1="509.6563" y2="509.6563"/><text fill="#000000" font-family="sans-serif" font-size="13" font-weight="bold" lengthAdjust="spacing" textLength="14" x="93" y="504.3936">10</text><text fill="#000000" font-family="sans-serif" font-size="13" lengthAdjust="spacing" textLength="75" x="111" y="504.3936">submits data</text><polygon fill="#181818" points="787,554.2383,797,558.2383,787,562.2383,791,558.2383" style="stroke:#181818;stroke-width:1.0;"/><line style="stroke:#181818;stroke-width:1.0;" x1="408" x2="793" y1="558.2383" y2="558.2383"/><text fill="#000000" font-family="sans-serif" font-size="13" font-weight="bold" lengthAdjust="spacing" textLength="14" x="415" y="544.3301">11</text><text fill="#000000" font-family="sans-serif" font-size="13" lengthAdjust="spacing" textLength="314" x="433" y="535.6846">createTask(reference, description, informalDescription,</text><text fill="#000000" font-family="sans-serif" font-size="13" lengthAdjust="spacing" textLength="354" x="433" y="552.9756">technicalDescription,duration, cost, taskCategoryDescription)</text><line style="stroke:#181818;stroke-width:1.0;" x1="809" x2="856" y1="584.5293" y2="584.5293"/><line style="stroke:#181818;stroke-width:1.0;" x1="856" x2="856" y1="584.5293" y2="597.5293"/><line style="stroke:#181818;stroke-width:1.0;" x1="815" x2="856" y1="597.5293" y2="597.5293"/><polygon fill="#181818" points="825,593.5293,815,597.5293,825,601.5293,821,597.5293" style="stroke:#181818;stroke-width:1.0;"/><text fill="#000000" font-family="sans-serif" font-size="13" font-weight="bold" lengthAdjust="spacing" textLength="14" x="821" y="579.2666">12</text><text fill="#000000" font-family="sans-serif" font-size="13" lengthAdjust="spacing" textLength="329" x="839" y="579.2666">getTaskCategoryByDescription(taskCategoryDescription)</text><rect fill="none" height="59.2129" style="stroke:#000000;stroke-width:1.5;" width="160" x="724" y="610.5293"/><path d="M724,610.5293 L786,610.5293 L786,619.5293 L776,629.5293 L724,629.5293 L724,610.5293 " fill="#EEEEEE" style="stroke:#000000;stroke-width:2.0;"/><text fill="#000000" font-family="sans-serif" font-size="13" font-weight="bold" lengthAdjust="spacing" textLength="17" x="737" y="626.5576">ref</text><text fill="#000000" font-family="sans-serif" font-size="12" lengthAdjust="spacing" textLength="139" x="734.5" y="646.4785">Get Task Category Object</text><text fill="#000000" font-family="sans-serif" font-size="12" lengthAdjust="spacing" textLength="3" x="802.5" y="662.4395">&#160;</text><line style="stroke:#181818;stroke-width:1.0;stroke-dasharray:2.0,2.0;" x1="814" x2="856" y1="703.0332" y2="703.0332"/><line style="stroke:#181818;stroke-width:1.0;stroke-dasharray:2.0,2.0;" x1="856" x2="856" y1="703.0332" y2="716.0332"/><line style="stroke:#181818;stroke-width:1.0;stroke-dasharray:2.0,2.0;" x1="809" x2="856" y1="716.0332" y2="716.0332"/><polygon fill="#181818" points="819,712.0332,809,716.0332,819,720.0332,815,716.0332" style="stroke:#181818;stroke-width:1.0;"/><text fill="#000000" font-family="sans-serif" font-size="13" font-weight="bold" lengthAdjust="spacing" textLength="14" x="821" y="697.7705">13</text><text fill="#000000" font-family="sans-serif" font-size="13" lengthAdjust="spacing" textLength="77" x="839" y="697.7705">taskCategory</text><line style="stroke:#181818;stroke-width:1.0;" x1="809" x2="856" y1="737.3242" y2="737.3242"/><line style="stroke:#181818;stroke-width:1.0;" x1="856" x2="856" y1="737.3242" y2="750.3242"/><line style="stroke:#181818;stroke-width:1.0;" x1="815" x2="856" y1="750.3242" y2="750.3242"/><polygon fill="#181818" points="825,746.3242,815,750.3242,825,754.3242,821,750.3242" style="stroke:#181818;stroke-width:1.0;"/><text fill="#000000" font-family="sans-serif" font-size="13" font-weight="bold" lengthAdjust="spacing" textLength="14" x="821" y="732.0615">14</text><text fill="#000000" font-family="sans-serif" font-size="13" lengthAdjust="spacing" textLength="161" x="839" y="732.0615">getEmployeeFromSession()</text><rect fill="none" height="59.2129" style="stroke:#000000;stroke-width:1.5;" width="160" x="724" y="763.3242"/><path d="M724,763.3242 L786,763.3242 L786,772.3242 L776,782.3242 L724,782.3242 L724,763.3242 " fill="#EEEEEE" style="stroke:#000000;stroke-width:2.0;"/><text fill="#000000" font-family="sans-serif" font-size="13" font-weight="bold" lengthAdjust="spacing" textLength="17" x="737" y="779.3525">ref</text><text fill="#000000" font-family="sans-serif" font-size="12" lengthAdjust="spacing" textLength="77" x="765.5" y="799.2734">Get Employee</text><text fill="#000000" font-family="sans-serif" font-size="12" lengthAdjust="spacing" textLength="3" x="802.5" y="815.2344">&#160;</text><line style="stroke:#181818;stroke-width:1.0;" x1="814" x2="856" y1="855.8281" y2="855.8281"/><line style="stroke:#181818;stroke-width:1.0;" x1="856" x2="856" y1="855.8281" y2="868.8281"/><line style="stroke:#181818;stroke-width:1.0;" x1="809" x2="856" y1="868.8281" y2="868.8281"/><polygon fill="#181818" points="819,864.8281,809,868.8281,819,872.8281,815,868.8281" style="stroke:#181818;stroke-width:1.0;"/><text fill="#000000" font-family="sans-serif" font-size="13" font-weight="bold" lengthAdjust="spacing" textLength="14" x="821" y="850.5654">15</text><text fill="#000000" font-family="sans-serif" font-size="13" lengthAdjust="spacing" textLength="56" x="839" y="850.5654">employee</text><polygon fill="#181818" points="1191,908.4102,1201,912.4102,1191,916.4102,1195,912.4102" style="stroke:#181818;stroke-width:1.0;"/><line style="stroke:#181818;stroke-width:1.0;" x1="809" x2="1197" y1="912.4102" y2="912.4102"/><text fill="#000000" font-family="sans-serif" font-size="13" font-weight="bold" lengthAdjust="spacing" textLength="14" x="816" y="898.502">16</text><text fill="#000000" font-family="sans-serif" font-size="13" lengthAdjust="spacing" textLength="314" x="834" y="889.8564">createTask(reference, description, informalDescription,</text><text fill="#000000" font-family="sans-serif" font-size="13" lengthAdjust="spacing" textLength="357" x="834" y="907.1475">technicalDescription, duration, cost, taskCategory, employee)</text><rect fill="none" height="59.2129" style="stroke:#000000;stroke-width:1.5;" width="104" x="1156" y="920.4102"/><path d="M1156,920.4102 L1218,920.4102 L1218,929.4102 L1208,939.4102 L1156,939.4102 L1156,920.4102 " fill="#EEEEEE" style="stroke:#000000;stroke-width:2.0;"/><text fill="#000000" font-family="sans-serif" font-size="13" font-weight="bold" lengthAdjust="spacing" textLength="17" x="1169" y="936.4385">ref</text><text fill="#000000" font-family="sans-serif" font-size="12" lengthAdjust="spacing" textLength="67" x="1174.5" y="956.3594">Create Task</text><text fill="#000000" font-family="sans-serif" font-size="12" lengthAdjust="spacing" textLength="3" x="1206.5" y="972.3203">&#160;</text><polygon fill="#181818" points="820,1003.9141,810,1007.9141,820,1011.9141,816,1007.9141" style="stroke:#181818;stroke-width:1.0;"/><line style="stroke:#181818;stroke-width:1.0;stroke-dasharray:2.0,2.0;" x1="814" x2="1207" y1="1007.9141" y2="1007.9141"/><text fill="#000000" font-family="sans-serif" font-size="13" font-weight="bold" lengthAdjust="spacing" textLength="14" x="826" y="1002.6514">17</text><text fill="#000000" font-family="sans-serif" font-size="13" lengthAdjust="spacing" textLength="25" x="844" y="1002.6514">task</text><polygon fill="#181818" points="419,1035.2051,409,1039.2051,419,1043.2051,415,1039.2051" style="stroke:#181818;stroke-width:1.0;"/><line style="stroke:#181818;stroke-width:1.0;stroke-dasharray:2.0,2.0;" x1="413" x2="803" y1="1039.2051" y2="1039.2051"/><text fill="#000000" font-family="sans-serif" font-size="13" font-weight="bold" lengthAdjust="spacing" textLength="14" x="425" y="1033.9424">18</text><text fill="#000000" font-family="sans-serif" font-size="13" lengthAdjust="spacing" textLength="25" x="443" y="1033.9424">task</text><polygon fill="#181818" points="92,1066.4961,82,1070.4961,92,1074.4961,88,1070.4961" style="stroke:#181818;stroke-width:1.0;"/><line style="stroke:#181818;stroke-width:1.0;stroke-dasharray:2.0,2.0;" x1="86" x2="402" y1="1070.4961" y2="1070.4961"/><text fill="#000000" font-family="sans-serif" font-size="13" font-weight="bold" lengthAdjust="spacing" textLength="14" x="98" y="1065.2334">19</text><text fill="#000000" font-family="sans-serif" font-size="13" lengthAdjust="spacing" textLength="158" x="116" y="1065.2334">displays operation success</text><!--SRC=[jLLDRzim3BtxLn2vB2dIFv33WAtjYW8T0lJZbWiZCuuMM_8akPdtwqV9jICtTf81cqy9nVVu-4H9TYTLYGOBABJIOcjqGU1CHOdjLaeKEypesTKvWI7XK6Lvd62tcEgzL1biCBUK95WvhQfYJIP9FcrbIh3HsgtrhmI5qmOcIvEXah_HIQtWhYXpNHDD02rykVsUCAkJGfQe74mMDuRGqGlQtUj3I7bz6CsuqSePdUTaGkRDozDZFrT7XLTg4Ui8YENJVU95oZTc368Iu8z_mFLdhWmBpjfPS1f4g0e8YlRWEDgaTc2M6GB-Oo33lPohAwPee0Ehl9QH2vrmGgQD93kTTOc6Dg3Vo3IDGVJTamCFWtTS3O_IkeC0Kgb77mATp43Lumf2hjjstK5C7JZRj9H6E7mxZFQUBNWszDu64X2jj9nf05bHQwNDYSSAj6eyYPXR4-CDi9HpjcNdUxIdtUy46VfPaMLuYWulAUVgacmBepJWOCfcaY4bQCvuAumi_GpDLqggZJO5vhqmE19R9SM7y4gbbS4cGsZhPXVsq9ZQ-C2AEcCnx78iz28_gtKXOqFEZ70tm7xWneo0reVRNh-T3t6uRyAyDt9HtkpouHqvJVNNc6zwjiwPMgUFvFZHNAv_yCOTSnqTqgCJ-TvLBBoNF7ecXwrfRzvlVEq_axNUbF_GVLjclEFXXZkfr1ByTQzyd__hQOLJuphlj8xu61wOKHlzwf2BpGiNncZGnECWCtsSc37tZYH53y1fvD6k7swf1QJIbZdM5dH9ZM5yqmZ1OpPqAKL__Qlx1m00]--></g></svg>