<?xml version="1.0" encoding="us-ascii" standalone="no"?><svg xmlns="http://www.w3.org/2000/svg" xmlns:xlink="http://www.w3.org/1999/xlink" contentStyleType="text/css" height="596px" preserveAspectRatio="none" style="width:820px;height:596px;background:#FFFFFF;" version="1.1" viewBox="0 0 820 596" width="820px" zoomAndPan="magnify"><defs/><g><!--class CreateJobUI--><g id="elem_CreateJobUI"><rect codeLine="7" fill="#F1F1F1" height="159.7266" id="CreateJobUI" rx="2.5" ry="2.5" style="stroke:#181818;stroke-width:0.5;" width="220" x="26" y="7"/><ellipse cx="93.25" cy="23" fill="#ADD1B2" rx="11" ry="11" style="stroke:#181818;stroke-width:1.0;"/><path d="M96.0156,18.875 Q96.1719,18.6563 96.3594,18.5469 Q96.5469,18.4375 96.7656,18.4375 Q97.1406,18.4375 97.375,18.7031 Q97.6094,18.9531 97.6094,19.5625 L97.6094,21.0156 Q97.6094,21.625 97.375,21.8906 Q97.1406,22.1563 96.7656,22.1563 Q96.4219,22.1563 96.2188,21.9531 Q96.0156,21.7656 95.9063,21.25 Q95.8594,20.8906 95.6719,20.7031 Q95.3438,20.3281 94.7344,20.1094 Q94.125,19.8906 93.5,19.8906 Q92.7344,19.8906 92.0938,20.2188 Q91.4688,20.5469 90.9688,21.2969 Q90.4844,22.0469 90.4844,23.0781 L90.4844,24.1719 Q90.4844,25.4063 91.375,26.2344 Q92.2656,27.0469 93.8594,27.0469 Q94.7969,27.0469 95.4531,26.7969 Q95.8438,26.6406 96.2656,26.2031 Q96.5313,25.9375 96.6719,25.8594 Q96.8281,25.7813 97.0313,25.7813 Q97.3594,25.7813 97.6094,26.0469 Q97.875,26.2969 97.875,26.6406 Q97.875,26.9844 97.5313,27.3906 Q97.0313,27.9688 96.2344,28.2969 Q95.1563,28.75 93.8594,28.75 Q92.3438,28.75 91.1406,28.125 Q90.1563,27.625 89.4688,26.5625 Q88.7813,25.4844 88.7813,24.2031 L88.7813,23.0469 Q88.7813,21.7188 89.3906,20.5781 Q90.0156,19.4219 91.1094,18.8125 Q92.2031,18.1875 93.4375,18.1875 Q94.1719,18.1875 94.8125,18.3594 Q95.4688,18.5156 96.0156,18.875 Z " fill="#000000"/><text fill="#000000" font-family="sans-serif" font-size="14" lengthAdjust="spacing" textLength="77" x="113.75" y="28.7969">CreateJobUI</text><line style="stroke:#181818;stroke-width:0.5;" x1="27" x2="245" y1="39" y2="39"/><rect fill="none" height="6" style="stroke:#C82930;stroke-width:1.0;" width="6" x="34" y="50.8105"/><text fill="#000000" font-family="sans-serif" font-size="14" lengthAdjust="spacing" textLength="100" x="46" y="58.1074">jobName: String</text><rect fill="none" height="6" style="stroke:#C82930;stroke-width:1.0;" width="6" x="34" y="69.4316"/><text fill="#000000" font-family="sans-serif" font-size="14" lengthAdjust="spacing" textLength="194" x="46" y="76.7285">controller: CreateJobController</text><line style="stroke:#181818;stroke-width:0.5;" x1="27" x2="245" y1="84.2422" y2="84.2422"/><ellipse cx="37" cy="99.0527" fill="#84BE84" rx="3" ry="3" style="stroke:#038048;stroke-width:1.0;"/><text fill="#000000" font-family="sans-serif" font-size="14" lengthAdjust="spacing" textLength="87" x="46" y="103.3496">CreateJobUI()</text><ellipse cx="37" cy="117.6738" fill="#84BE84" rx="3" ry="3" style="stroke:#038048;stroke-width:1.0;"/><text fill="#000000" font-family="sans-serif" font-size="14" lengthAdjust="spacing" textLength="146" x="46" y="121.9707">askForJobName(): void</text><ellipse cx="37" cy="136.2949" fill="#84BE84" rx="3" ry="3" style="stroke:#038048;stroke-width:1.0;"/><text fill="#000000" font-family="sans-serif" font-size="14" lengthAdjust="spacing" textLength="133" x="46" y="140.5918">backToHRMUI(): void</text><ellipse cx="37" cy="154.916" fill="#84BE84" rx="3" ry="3" style="stroke:#038048;stroke-width:1.0;"/><text fill="#000000" font-family="sans-serif" font-size="14" lengthAdjust="spacing" textLength="65" x="46" y="159.2129">run(): void</text></g><!--class CreateJobController--><g id="elem_CreateJobController"><rect codeLine="18" fill="#F1F1F1" height="122.4844" id="CreateJobController" rx="2.5" ry="2.5" style="stroke:#181818;stroke-width:0.5;" width="258" x="7" y="247"/><ellipse cx="68.25" cy="263" fill="#ADD1B2" rx="11" ry="11" style="stroke:#181818;stroke-width:1.0;"/><path d="M71.0156,258.875 Q71.1719,258.6563 71.3594,258.5469 Q71.5469,258.4375 71.7656,258.4375 Q72.1406,258.4375 72.375,258.7031 Q72.6094,258.9531 72.6094,259.5625 L72.6094,261.0156 Q72.6094,261.625 72.375,261.8906 Q72.1406,262.1563 71.7656,262.1563 Q71.4219,262.1563 71.2188,261.9531 Q71.0156,261.7656 70.9063,261.25 Q70.8594,260.8906 70.6719,260.7031 Q70.3438,260.3281 69.7344,260.1094 Q69.125,259.8906 68.5,259.8906 Q67.7344,259.8906 67.0938,260.2188 Q66.4688,260.5469 65.9688,261.2969 Q65.4844,262.0469 65.4844,263.0781 L65.4844,264.1719 Q65.4844,265.4063 66.375,266.2344 Q67.2656,267.0469 68.8594,267.0469 Q69.7969,267.0469 70.4531,266.7969 Q70.8438,266.6406 71.2656,266.2031 Q71.5313,265.9375 71.6719,265.8594 Q71.8281,265.7813 72.0313,265.7813 Q72.3594,265.7813 72.6094,266.0469 Q72.875,266.2969 72.875,266.6406 Q72.875,266.9844 72.5313,267.3906 Q72.0313,267.9688 71.2344,268.2969 Q70.1563,268.75 68.8594,268.75 Q67.3438,268.75 66.1406,268.125 Q65.1563,267.625 64.4688,266.5625 Q63.7813,265.4844 63.7813,264.2031 L63.7813,263.0469 Q63.7813,261.7188 64.3906,260.5781 Q65.0156,259.4219 66.1094,258.8125 Q67.2031,258.1875 68.4375,258.1875 Q69.1719,258.1875 69.8125,258.3594 Q70.4688,258.5156 71.0156,258.875 Z " fill="#000000"/><text fill="#000000" font-family="sans-serif" font-size="14" lengthAdjust="spacing" textLength="127" x="88.75" y="268.7969">CreateJobController</text><line style="stroke:#181818;stroke-width:0.5;" x1="8" x2="264" y1="279" y2="279"/><rect fill="none" height="6" style="stroke:#C82930;stroke-width:1.0;" width="6" x="15" y="290.8105"/><text fill="#000000" font-family="sans-serif" font-size="14" lengthAdjust="spacing" textLength="199" x="27" y="298.1074">jobsRepository: JobsRepository</text><line style="stroke:#181818;stroke-width:0.5;" x1="8" x2="264" y1="305.6211" y2="305.6211"/><ellipse cx="18" cy="320.4316" fill="#84BE84" rx="3" ry="3" style="stroke:#038048;stroke-width:1.0;"/><text fill="#000000" font-family="sans-serif" font-size="14" lengthAdjust="spacing" textLength="137" x="27" y="324.7285">CreateJobController()</text><rect fill="#F24D5C" height="6" style="stroke:#C82930;stroke-width:1.0;" width="6" x="15" y="336.0527"/><text fill="#000000" font-family="sans-serif" font-size="14" lengthAdjust="spacing" textLength="232" x="27" y="343.3496">getJobsRepository(): JobsRepository</text><ellipse cx="18" cy="357.6738" fill="#84BE84" rx="3" ry="3" style="stroke:#038048;stroke-width:1.0;"/><text fill="#000000" font-family="sans-serif" font-size="14" lengthAdjust="spacing" textLength="231" x="27" y="361.9707">createJob(jobName: String): boolean</text></g><!--class Repositories--><g id="elem_Repositories"><rect codeLine="25" fill="#F1F1F1" height="159.7266" id="Repositories" rx="2.5" ry="2.5" style="stroke:#181818;stroke-width:0.5;" width="349" x="368.5" y="228"/><ellipse cx="499.25" cy="244" fill="#ADD1B2" rx="11" ry="11" style="stroke:#181818;stroke-width:1.0;"/><path d="M502.0156,239.875 Q502.1719,239.6563 502.3594,239.5469 Q502.5469,239.4375 502.7656,239.4375 Q503.1406,239.4375 503.375,239.7031 Q503.6094,239.9531 503.6094,240.5625 L503.6094,242.0156 Q503.6094,242.625 503.375,242.8906 Q503.1406,243.1563 502.7656,243.1563 Q502.4219,243.1563 502.2188,242.9531 Q502.0156,242.7656 501.9063,242.25 Q501.8594,241.8906 501.6719,241.7031 Q501.3438,241.3281 500.7344,241.1094 Q500.125,240.8906 499.5,240.8906 Q498.7344,240.8906 498.0938,241.2188 Q497.4688,241.5469 496.9688,242.2969 Q496.4844,243.0469 496.4844,244.0781 L496.4844,245.1719 Q496.4844,246.4063 497.375,247.2344 Q498.2656,248.0469 499.8594,248.0469 Q500.7969,248.0469 501.4531,247.7969 Q501.8438,247.6406 502.2656,247.2031 Q502.5313,246.9375 502.6719,246.8594 Q502.8281,246.7813 503.0313,246.7813 Q503.3594,246.7813 503.6094,247.0469 Q503.875,247.2969 503.875,247.6406 Q503.875,247.9844 503.5313,248.3906 Q503.0313,248.9688 502.2344,249.2969 Q501.1563,249.75 499.8594,249.75 Q498.3438,249.75 497.1406,249.125 Q496.1563,248.625 495.4688,247.5625 Q494.7813,246.4844 494.7813,245.2031 L494.7813,244.0469 Q494.7813,242.7188 495.3906,241.5781 Q496.0156,240.4219 497.1094,239.8125 Q498.2031,239.1875 499.4375,239.1875 Q500.1719,239.1875 500.8125,239.3594 Q501.4688,239.5156 502.0156,239.875 Z " fill="#000000"/><text fill="#000000" font-family="sans-serif" font-size="14" lengthAdjust="spacing" textLength="79" x="519.75" y="249.7969">Repositories</text><line style="stroke:#181818;stroke-width:0.5;" x1="369.5" x2="716.5" y1="260" y2="260"/><rect fill="none" height="6" style="stroke:#C82930;stroke-width:1.0;" width="6" x="376.5" y="271.8105"/><text fill="#000000" font-family="sans-serif" font-size="14" lengthAdjust="spacing" textLength="140" x="388.5" y="279.1074">instance: Repositories</text><rect fill="none" height="6" style="stroke:#C82930;stroke-width:1.0;" width="6" x="376.5" y="290.4316"/><text fill="#000000" font-family="sans-serif" font-size="14" lengthAdjust="spacing" textLength="199" x="388.5" y="297.7285">jobsRepository: JobsRepository</text><rect fill="none" height="6" style="stroke:#C82930;stroke-width:1.0;" width="6" x="376.5" y="309.0527"/><text fill="#000000" font-family="sans-serif" font-size="14" lengthAdjust="spacing" textLength="323" x="388.5" y="316.3496">authenticationRepository: AuthenticationRepository</text><line style="stroke:#181818;stroke-width:0.5;" x1="369.5" x2="716.5" y1="323.8633" y2="323.8633"/><ellipse cx="379.5" cy="338.6738" fill="#84BE84" rx="3" ry="3" style="stroke:#038048;stroke-width:1.0;"/><text fill="#000000" font-family="sans-serif" font-size="14" lengthAdjust="spacing" textLength="89" x="388.5" y="342.9707">Repositories()</text><ellipse cx="379.5" cy="357.2949" fill="#84BE84" rx="3" ry="3" style="stroke:#038048;stroke-width:1.0;"/><text fill="#000000" font-family="sans-serif" font-size="14" lengthAdjust="spacing" textLength="170" x="388.5" y="361.5918">getInstance(): Repositories</text><ellipse cx="379.5" cy="375.916" fill="#84BE84" rx="3" ry="3" style="stroke:#038048;stroke-width:1.0;"/><text fill="#000000" font-family="sans-serif" font-size="14" lengthAdjust="spacing" textLength="232" x="388.5" y="380.2129">getJobsRepository(): JobsRepository</text></g><!--class JobRepository--><g id="elem_JobRepository"><rect codeLine="34" fill="#F1F1F1" height="103.8633" id="JobRepository" rx="2.5" ry="2.5" style="stroke:#181818;stroke-width:0.5;" width="203" x="237.5" y="476"/><ellipse cx="289.75" cy="492" fill="#ADD1B2" rx="11" ry="11" style="stroke:#181818;stroke-width:1.0;"/><path d="M292.5156,487.875 Q292.6719,487.6563 292.8594,487.5469 Q293.0469,487.4375 293.2656,487.4375 Q293.6406,487.4375 293.875,487.7031 Q294.1094,487.9531 294.1094,488.5625 L294.1094,490.0156 Q294.1094,490.625 293.875,490.8906 Q293.6406,491.1563 293.2656,491.1563 Q292.9219,491.1563 292.7188,490.9531 Q292.5156,490.7656 292.4063,490.25 Q292.3594,489.8906 292.1719,489.7031 Q291.8438,489.3281 291.2344,489.1094 Q290.625,488.8906 290,488.8906 Q289.2344,488.8906 288.5938,489.2188 Q287.9688,489.5469 287.4688,490.2969 Q286.9844,491.0469 286.9844,492.0781 L286.9844,493.1719 Q286.9844,494.4063 287.875,495.2344 Q288.7656,496.0469 290.3594,496.0469 Q291.2969,496.0469 291.9531,495.7969 Q292.3438,495.6406 292.7656,495.2031 Q293.0313,494.9375 293.1719,494.8594 Q293.3281,494.7813 293.5313,494.7813 Q293.8594,494.7813 294.1094,495.0469 Q294.375,495.2969 294.375,495.6406 Q294.375,495.9844 294.0313,496.3906 Q293.5313,496.9688 292.7344,497.2969 Q291.6563,497.75 290.3594,497.75 Q288.8438,497.75 287.6406,497.125 Q286.6563,496.625 285.9688,495.5625 Q285.2813,494.4844 285.2813,493.2031 L285.2813,492.0469 Q285.2813,490.7188 285.8906,489.5781 Q286.5156,488.4219 287.6094,487.8125 Q288.7031,487.1875 289.9375,487.1875 Q290.6719,487.1875 291.3125,487.3594 Q291.9688,487.5156 292.5156,487.875 Z " fill="#000000"/><text fill="#000000" font-family="sans-serif" font-size="14" lengthAdjust="spacing" textLength="90" x="310.25" y="497.7969">JobRepository</text><line style="stroke:#181818;stroke-width:0.5;" x1="238.5" x2="439.5" y1="508" y2="508"/><line style="stroke:#181818;stroke-width:0.5;" x1="238.5" x2="439.5" y1="516" y2="516"/><ellipse cx="248.5" cy="530.8105" fill="#84BE84" rx="3" ry="3" style="stroke:#038048;stroke-width:1.0;"/><text fill="#000000" font-family="sans-serif" font-size="14" lengthAdjust="spacing" textLength="177" x="257.5" y="535.1074">createJob(title : String) : Job</text><ellipse cx="248.5" cy="549.4316" fill="#84BE84" rx="3" ry="3" style="stroke:#038048;stroke-width:1.0;"/><text fill="#000000" font-family="sans-serif" font-size="14" lengthAdjust="spacing" textLength="173" x="257.5" y="553.7285">checkForDuplicates() : void</text><ellipse cx="248.5" cy="568.0527" fill="#84BE84" rx="3" ry="3" style="stroke:#038048;stroke-width:1.0;"/><text fill="#000000" font-family="sans-serif" font-size="14" lengthAdjust="spacing" textLength="109" x="257.5" y="572.3496">addJob(job): void</text></g><!--class Job--><g id="elem_Job"><rect codeLine="40" fill="#F1F1F1" height="122.4844" id="Job" rx="2.5" ry="2.5" style="stroke:#181818;stroke-width:0.5;" width="277" x="494.5" y="467"/><ellipse cx="617.75" cy="483" fill="#ADD1B2" rx="11" ry="11" style="stroke:#181818;stroke-width:1.0;"/><path d="M620.5156,478.875 Q620.6719,478.6563 620.8594,478.5469 Q621.0469,478.4375 621.2656,478.4375 Q621.6406,478.4375 621.875,478.7031 Q622.1094,478.9531 622.1094,479.5625 L622.1094,481.0156 Q622.1094,481.625 621.875,481.8906 Q621.6406,482.1563 621.2656,482.1563 Q620.9219,482.1563 620.7188,481.9531 Q620.5156,481.7656 620.4063,481.25 Q620.3594,480.8906 620.1719,480.7031 Q619.8438,480.3281 619.2344,480.1094 Q618.625,479.8906 618,479.8906 Q617.2344,479.8906 616.5938,480.2188 Q615.9688,480.5469 615.4688,481.2969 Q614.9844,482.0469 614.9844,483.0781 L614.9844,484.1719 Q614.9844,485.4063 615.875,486.2344 Q616.7656,487.0469 618.3594,487.0469 Q619.2969,487.0469 619.9531,486.7969 Q620.3438,486.6406 620.7656,486.2031 Q621.0313,485.9375 621.1719,485.8594 Q621.3281,485.7813 621.5313,485.7813 Q621.8594,485.7813 622.1094,486.0469 Q622.375,486.2969 622.375,486.6406 Q622.375,486.9844 622.0313,487.3906 Q621.5313,487.9688 620.7344,488.2969 Q619.6563,488.75 618.3594,488.75 Q616.8438,488.75 615.6406,488.125 Q614.6563,487.625 613.9688,486.5625 Q613.2813,485.4844 613.2813,484.2031 L613.2813,483.0469 Q613.2813,481.7188 613.8906,480.5781 Q614.5156,479.4219 615.6094,478.8125 Q616.7031,478.1875 617.9375,478.1875 Q618.6719,478.1875 619.3125,478.3594 Q619.9688,478.5156 620.5156,478.875 Z " fill="#000000"/><text fill="#000000" font-family="sans-serif" font-size="14" lengthAdjust="spacing" textLength="22" x="638.25" y="488.7969">Job</text><line style="stroke:#181818;stroke-width:0.5;" x1="495.5" x2="770.5" y1="499" y2="499"/><rect fill="none" height="6" style="stroke:#C82930;stroke-width:1.0;" width="6" x="502.5" y="510.8105"/><text fill="#000000" font-family="sans-serif" font-size="14" lengthAdjust="spacing" textLength="71" x="514.5" y="518.1074">title : String</text><line style="stroke:#181818;stroke-width:0.5;" x1="495.5" x2="770.5" y1="525.6211" y2="525.6211"/><ellipse cx="505.5" cy="540.4316" fill="#84BE84" rx="3" ry="3" style="stroke:#038048;stroke-width:1.0;"/><text fill="#000000" font-family="sans-serif" font-size="14" lengthAdjust="spacing" textLength="103" x="514.5" y="544.7285">Job(title : String)</text><ellipse cx="505.5" cy="559.0527" fill="#84BE84" rx="3" ry="3" style="stroke:#038048;stroke-width:1.0;"/><text fill="#000000" font-family="sans-serif" font-size="14" lengthAdjust="spacing" textLength="169" x="514.5" y="563.3496">verifyFilled(job : Job) : void</text><ellipse cx="505.5" cy="577.6738" fill="#84BE84" rx="3" ry="3" style="stroke:#038048;stroke-width:1.0;"/><text fill="#000000" font-family="sans-serif" font-size="14" lengthAdjust="spacing" textLength="251" x="514.5" y="581.9707">verifySpecialCharacters(job : Job) : void</text></g><!--link CreateJobUI to CreateJobController--><g id="link_CreateJobUI_CreateJobController"><path codeLine="47" d="M136,167.06 C136,193.41 136,216.3 136,240.96 " fill="none" id="CreateJobUI-to-CreateJobController" style="stroke:#181818;stroke-width:1.0;stroke-dasharray:7.0,7.0;"/><polygon fill="#181818" points="136,246.96,140,237.96,136,241.96,132,237.96,136,246.96" style="stroke:#181818;stroke-width:1.0;"/></g><!--link Repositories to JobRepository--><g id="link_Repositories_JobRepository"><path codeLine="48" d="M469.06,388.01 C441.7,417.26 415.5095,445.2389 391.0495,471.3789 " fill="none" id="Repositories-to-JobRepository" style="stroke:#181818;stroke-width:1.0;"/><polygon fill="#181818" points="386.95,475.76,396.02,471.9214,390.3663,472.1091,390.1786,466.4554,386.95,475.76" style="stroke:#181818;stroke-width:1.0;"/><text fill="#000000" font-family="sans-serif" font-size="13" lengthAdjust="spacing" textLength="79" x="442" y="433.0283">jobRepository</text><text fill="#000000" font-family="sans-serif" font-size="13" lengthAdjust="spacing" textLength="7" x="385.923" y="464.6551">1</text></g><!--link Repositories to Repositories--><g id="link_Repositories_Repositories"><path codeLine="49" d="M717.58,290.22 C738.69,293.42 752.5,299.35 752.5,308 C752.5,316.65 744.6222,321.6808 723.5122,324.8808 " fill="none" id="Repositories-to-Repositories" style="stroke:#181818;stroke-width:1.0;"/><polygon fill="#181818" points="717.58,325.78,727.0778,328.3859,722.5235,325.0306,725.8788,320.4763,717.58,325.78" style="stroke:#181818;stroke-width:1.0;"/><text fill="#000000" font-family="sans-serif" font-size="13" lengthAdjust="spacing" textLength="49" x="758.5" y="313.5283">instance</text></g><!--link JobRepository to Job--><g id="link_JobRepository_Job"><path codeLine="50" d="M440.59,528 C457.93,528 470.21,528 488.32,528 " fill="none" id="JobRepository-to-Job" style="stroke:#181818;stroke-width:1.0;"/><polygon fill="#181818" points="494.32,528,485.32,524,489.32,528,485.32,532,494.32,528" style="stroke:#181818;stroke-width:1.0;"/><text fill="#000000" font-family="sans-serif" font-size="13" lengthAdjust="spacing" textLength="17" x="459" y="521.0283">job</text><text fill="#000000" font-family="sans-serif" font-size="13" lengthAdjust="spacing" textLength="5" x="481.5992" y="524.5582">*</text></g><!--link CreateJobController to Repositories--><g id="link_CreateJobController_Repositories"><path codeLine="51" d="M265.06,308 C297.89,308 327.71,308 362.4,308 " fill="none" id="CreateJobController-to-Repositories" style="stroke:#181818;stroke-width:1.0;stroke-dasharray:7.0,7.0;"/><polygon fill="#181818" points="368.4,308,359.4,304,363.4,308,359.4,312,368.4,308" style="stroke:#181818;stroke-width:1.0;"/><text fill="#000000" font-family="sans-serif" font-size="13" lengthAdjust="spacing" textLength="67" x="283.25" y="301.0283">repositories</text></g><!--link CreateJobController to JobRepository--><g id="link_CreateJobController_JobRepository"><path codeLine="52" d="M192.01,369.15 C223.22,402.67 257.5905,439.5795 287.3405,471.5195 " fill="none" id="CreateJobController-to-JobRepository" style="stroke:#181818;stroke-width:1.0;stroke-dasharray:7.0,7.0;"/><polygon fill="#181818" points="291.43,475.91,288.2228,466.598,288.0221,472.2513,282.3688,472.0506,291.43,475.91" style="stroke:#181818;stroke-width:1.0;"/><text fill="#000000" font-family="sans-serif" font-size="13" lengthAdjust="spacing" textLength="79" x="251" y="433.0283">jobRepository</text></g><!--SRC=[ZLF1JiCm3BtdAwnTs9WsYMiFaz0GWabmOF01MUgrOI6faWnKJVmxyTgroLOGnzZFpy_sYzj9NN7BFw3YOiSBNFjQ8LWKdkj28NCTm9KyDrzI5x3boiKP9JNwkaAeZAhfmTYLmgq7Ry3AelIGIsAKHZCc57SEbXQvnvNPl3t2WStWtMoU-GTciFOsj60m0s6qjqOfj5aFNtP11jEOPJoX07UxUsDN3Tbuai6daJabDc6wL_FmyaJ8FcptkdiozdsXhcyNL0B0KQXxmSeuwOsjCrWbRyB4klfwqdSaAD2dDIHWa4MSMCPdsma56sCKSjrBxgebkaOhDPFQXJkAK1ddJzb_p19GVEzBr5uAJWUCyRU_P9hAQTApdJz4mm8UMraq-gMmwRztr4qVSdsg7N_QxyzB7qpThG-EP2seH46UkTjNYWOXfN0o205udhSdE1abxdfehvfsQ0yuqBh9VAALs_fU1cFanDm8Ilisc7M5GdArBCD74nwj6u07FV5tciyNW_ybSSXije3HpUXiSHbP8jfnMh98JPPrxc8f2r5V7waRGZRqdUONR3Osmc19gFbRxmy0]--></g></svg>