<?xml version="1.0" encoding="us-ascii" standalone="no"?><svg xmlns="http://www.w3.org/2000/svg" xmlns:xlink="http://www.w3.org/1999/xlink" contentStyleType="text/css" height="399px" preserveAspectRatio="none" style="width:542px;height:399px;background:#FFFFFF;" version="1.1" viewBox="0 0 542 399" width="542px" zoomAndPan="magnify"><defs/><g><rect fill="#FFFFFF" height="57.582" style="stroke:#181818;stroke-width:1.0;" width="10" x="157" y="71.9121"/><rect fill="#FFFFFF" height="91.582" style="stroke:#181818;stroke-width:1.0;" width="10" x="157" y="261.6973"/><rect fill="#FFFFFF" height="122.2031" style="stroke:#181818;stroke-width:1.0;" width="10" x="324" y="139.4941"/><rect fill="#FFFFFF" height="42.291" style="stroke:#181818;stroke-width:1.0;" width="10" x="329" y="181.1152"/><rect fill="none" height="227.0762" style="stroke:#000000;stroke-width:1.5;" width="436.5" x="99.5" y="86.9121"/><line style="stroke:#181818;stroke-width:0.5;stroke-dasharray:5.0,5.0;" x1="161.5" x2="161.5" y1="38.6211" y2="362.2793"/><line style="stroke:#181818;stroke-width:0.5;stroke-dasharray:5.0,5.0;" x1="329" x2="329" y1="138.0137" y2="362.2793"/><rect fill="#E3E3E3" height="32.6211" rx="2.5" ry="2.5" style="stroke:#181818;stroke-width:0.5;" width="105" x="109.5" y="5"/><text fill="#000000" font-family="sans-serif" font-size="14" lengthAdjust="spacing" textLength="91" x="116.5" y="27.1074">:jobRepository</text><rect fill="#E3E3E3" height="32.6211" rx="2.5" ry="2.5" style="stroke:#181818;stroke-width:0.5;" width="105" x="109.5" y="361.2793"/><text fill="#000000" font-family="sans-serif" font-size="14" lengthAdjust="spacing" textLength="91" x="116.5" y="383.3867">:jobRepository</text><rect fill="#E3E3E3" height="32.6211" rx="2.5" ry="2.5" style="stroke:#181818;stroke-width:0.5;" width="40" x="309" y="361.2793"/><text fill="#000000" font-family="sans-serif" font-size="14" lengthAdjust="spacing" textLength="26" x="316" y="383.3867">:Job</text><rect fill="#FFFFFF" height="57.582" style="stroke:#181818;stroke-width:1.0;" width="10" x="157" y="71.9121"/><rect fill="#FFFFFF" height="91.582" style="stroke:#181818;stroke-width:1.0;" width="10" x="157" y="261.6973"/><rect fill="#FFFFFF" height="122.2031" style="stroke:#181818;stroke-width:1.0;" width="10" x="324" y="139.4941"/><rect fill="#FFFFFF" height="42.291" style="stroke:#181818;stroke-width:1.0;" width="10" x="329" y="181.1152"/><polygon fill="#181818" points="145,67.9121,155,71.9121,145,75.9121,149,71.9121" style="stroke:#181818;stroke-width:1.0;"/><line style="stroke:#181818;stroke-width:1.0;" x1="0" x2="151" y1="71.9121" y2="71.9121"/><text fill="#000000" font-family="sans-serif" font-size="13" font-weight="bold" lengthAdjust="spacing" textLength="7" x="7" y="66.6494">7</text><text fill="#000000" font-family="sans-serif" font-size="13" lengthAdjust="spacing" textLength="127" x="18" y="66.6494">createJob(description)</text><path d="M99.5,86.9121 L210.5,86.9121 L210.5,96.2031 L200.5,106.2031 L99.5,106.2031 L99.5,86.9121 " fill="#EEEEEE" style="stroke:#000000;stroke-width:1.5;"/><rect fill="none" height="227.0762" style="stroke:#000000;stroke-width:1.5;" width="436.5" x="99.5" y="86.9121"/><text fill="#000000" font-family="sans-serif" font-size="13" font-weight="bold" lengthAdjust="spacing" textLength="66" x="114.5" y="101.9404">Create job</text><polygon fill="#181818" points="297,125.4941,307,129.4941,297,133.4941,301,129.4941" style="stroke:#181818;stroke-width:1.0;"/><line style="stroke:#181818;stroke-width:1.0;" x1="162" x2="303" y1="129.4941" y2="129.4941"/><text fill="#000000" font-family="sans-serif" font-size="13" font-weight="bold" lengthAdjust="spacing" textLength="7" x="169" y="124.2314">8</text><text fill="#000000" font-family="sans-serif" font-size="13" lengthAdjust="spacing" textLength="107" x="180" y="124.2314">create(description)</text><rect fill="#E3E3E3" height="32.6211" rx="2.5" ry="2.5" style="stroke:#181818;stroke-width:0.5;" width="40" x="309" y="106.2031"/><text fill="#000000" font-family="sans-serif" font-size="14" lengthAdjust="spacing" textLength="26" x="316" y="128.3105">:Job</text><line style="stroke:#181818;stroke-width:1.0;" x1="334" x2="381" y1="168.1152" y2="168.1152"/><line style="stroke:#181818;stroke-width:1.0;" x1="381" x2="381" y1="168.1152" y2="181.1152"/><line style="stroke:#181818;stroke-width:1.0;" x1="340" x2="381" y1="181.1152" y2="181.1152"/><polygon fill="#181818" points="350,177.1152,340,181.1152,350,185.1152,346,181.1152" style="stroke:#181818;stroke-width:1.0;"/><text fill="#000000" font-family="sans-serif" font-size="13" font-weight="bold" lengthAdjust="spacing" textLength="7" x="346" y="162.8525">9</text><text fill="#000000" font-family="sans-serif" font-size="13" lengthAdjust="spacing" textLength="85" x="357" y="162.8525">verifyFilled(job)</text><line style="stroke:#181818;stroke-width:1.0;" x1="339" x2="381" y1="222.4063" y2="222.4063"/><line style="stroke:#181818;stroke-width:1.0;" x1="381" x2="381" y1="222.4063" y2="235.4063"/><line style="stroke:#181818;stroke-width:1.0;" x1="334" x2="381" y1="235.4063" y2="235.4063"/><polygon fill="#181818" points="344,231.4063,334,235.4063,344,239.4063,340,235.4063" style="stroke:#181818;stroke-width:1.0;"/><text fill="#000000" font-family="sans-serif" font-size="13" font-weight="bold" lengthAdjust="spacing" textLength="14" x="346" y="217.1436">10</text><text fill="#000000" font-family="sans-serif" font-size="13" lengthAdjust="spacing" textLength="160" x="364" y="217.1436">verifySpecialCharacters(job)</text><polygon fill="#181818" points="178,257.6973,168,261.6973,178,265.6973,174,261.6973" style="stroke:#181818;stroke-width:1.0;"/><line style="stroke:#181818;stroke-width:1.0;stroke-dasharray:2.0,2.0;" x1="172" x2="328" y1="261.6973" y2="261.6973"/><text fill="#000000" font-family="sans-serif" font-size="13" font-weight="bold" lengthAdjust="spacing" textLength="14" x="184" y="256.4346">11</text><text fill="#000000" font-family="sans-serif" font-size="13" lengthAdjust="spacing" textLength="17" x="202" y="256.4346">job</text><line style="stroke:#181818;stroke-width:1.0;" x1="167" x2="209" y1="297.9883" y2="297.9883"/><line style="stroke:#181818;stroke-width:1.0;" x1="209" x2="209" y1="297.9883" y2="310.9883"/><line style="stroke:#181818;stroke-width:1.0;" x1="162" x2="209" y1="310.9883" y2="310.9883"/><polygon fill="#181818" points="172,306.9883,162,310.9883,172,314.9883,168,310.9883" style="stroke:#181818;stroke-width:1.0;"/><text fill="#000000" font-family="sans-serif" font-size="13" font-weight="bold" lengthAdjust="spacing" textLength="14" x="174" y="292.7256">12</text><text fill="#000000" font-family="sans-serif" font-size="13" lengthAdjust="spacing" textLength="116" x="192" y="292.7256">check for duplicates</text><polygon fill="#181818" points="11,340.2793,1,344.2793,11,348.2793,7,344.2793" style="stroke:#181818;stroke-width:1.0;"/><line style="stroke:#181818;stroke-width:1.0;stroke-dasharray:2.0,2.0;" x1="5" x2="156" y1="344.2793" y2="344.2793"/><text fill="#000000" font-family="sans-serif" font-size="13" font-weight="bold" lengthAdjust="spacing" textLength="14" x="17" y="339.0166">13</text><text fill="#000000" font-family="sans-serif" font-size="13" lengthAdjust="spacing" textLength="17" x="35" y="339.0166">job</text><!--SRC=[VP71ReCm44Jl_efLJacad2EXgfT8FUJOV84n2smmNiisgVZxBhH5G4BtWl2CtmnBRCXv7NGBBJisTU0M8OKELPmKhqsZAxobtY84D4cxoiuDiTO5Vv6heDGsebAwI-owDiS0PwN4bCYGrox1Bhjp_ecU8oKE_GvqXCN9odtbVFJ8KwdJ-zARWGce4uguBp2QG3uHkuCKC8aUegpO85C5xZnSnek3hCRJOHPUa33X7ez_8Sk40ZSY9jga3zLXDlB-2uSC7XYex3_8MYpsGZeih9kC3SxDeo5jBxNy5fCmn6VahFXr_l4JSRraWTzdwQlxJqqtjl5ol-iSKwDfeEG0HUSj6U75_uBH5Jy9RwVJgzBV]--></g></svg>