<?xml version="1.0" encoding="us-ascii" standalone="no"?><svg xmlns="http://www.w3.org/2000/svg" xmlns:xlink="http://www.w3.org/1999/xlink" contentStyleType="text/css" height="631px" preserveAspectRatio="none" style="width:1059px;height:631px;background:#FFFFFF;" version="1.1" viewBox="0 0 1059 631" width="1059px" zoomAndPan="magnify"><defs/><g><rect fill="#FFFFFF" height="399.8613" style="stroke:#181818;stroke-width:1.0;" width="10" x="57.5" y="112.2422"/><rect fill="#FFFFFF" height="345.2793" style="stroke:#181818;stroke-width:1.0;" width="10" x="372.5" y="135.5332"/><rect fill="#FFFFFF" height="272.6973" style="stroke:#181818;stroke-width:1.0;" width="10" x="521" y="176.8242"/><rect fill="#FFFFFF" height="31.291" style="stroke:#181818;stroke-width:1.0;" width="10" x="691" y="210.4453"/><rect fill="#FFFFFF" height="147.1641" style="stroke:#181818;stroke-width:1.0;" width="10" x="691" y="373.9395"/><rect fill="#FFFFFF" height="122.2031" style="stroke:#181818;stroke-width:1.0;" width="10" x="859" y="251.7363"/><rect fill="#FFFFFF" height="42.291" style="stroke:#181818;stroke-width:1.0;" width="10" x="864" y="293.3574"/><line style="stroke:#181818;stroke-width:0.5;stroke-dasharray:5.0,5.0;" x1="62" x2="62" y1="102.2422" y2="530.1035"/><line style="stroke:#181818;stroke-width:0.5;stroke-dasharray:5.0,5.0;" x1="377" x2="377" y1="102.2422" y2="530.1035"/><line style="stroke:#181818;stroke-width:0.5;stroke-dasharray:5.0,5.0;" x1="525.5" x2="525.5" y1="175.3438" y2="530.1035"/><line style="stroke:#181818;stroke-width:0.5;stroke-dasharray:5.0,5.0;" x1="695.5" x2="695.5" y1="102.2422" y2="530.1035"/><line style="stroke:#181818;stroke-width:0.5;stroke-dasharray:5.0,5.0;" x1="864" x2="864" y1="250.2559" y2="530.1035"/><text fill="#000000" font-family="sans-serif" font-size="14" lengthAdjust="spacing" textLength="109" x="5" y="80.1074">Human Resource</text><text fill="#000000" font-family="sans-serif" font-size="14" lengthAdjust="spacing" textLength="56" x="33.5" y="98.7285">Manager</text><ellipse cx="62.5" cy="13.5" fill="#E3E3E3" rx="8" ry="8" style="stroke:#181818;stroke-width:0.5;"/><path d="M62.5,21.5 L62.5,48.5 M49.5,29.5 L75.5,29.5 M62.5,48.5 L49.5,63.5 M62.5,48.5 L75.5,63.5 " fill="none" style="stroke:#181818;stroke-width:0.5;"/><text fill="#000000" font-family="sans-serif" font-size="14" lengthAdjust="spacing" textLength="109" x="5" y="544.2109">Human Resource</text><text fill="#000000" font-family="sans-serif" font-size="14" lengthAdjust="spacing" textLength="56" x="33.5" y="562.832">Manager</text><ellipse cx="62.5" cy="574.8457" fill="#E3E3E3" rx="8" ry="8" style="stroke:#181818;stroke-width:0.5;"/><path d="M62.5,582.8457 L62.5,609.8457 M49.5,590.8457 L75.5,590.8457 M62.5,609.8457 L49.5,624.8457 M62.5,609.8457 L75.5,624.8457 " fill="none" style="stroke:#181818;stroke-width:0.5;"/><rect fill="#E3E3E3" height="32.6211" rx="2.5" ry="2.5" style="stroke:#181818;stroke-width:0.5;" width="95" x="330" y="68.6211"/><text fill="#000000" font-family="sans-serif" font-size="14" lengthAdjust="spacing" textLength="81" x="337" y="90.7285">:CreateJobUI</text><rect fill="#E3E3E3" height="32.6211" rx="2.5" ry="2.5" style="stroke:#181818;stroke-width:0.5;" width="95" x="330" y="529.1035"/><text fill="#000000" font-family="sans-serif" font-size="14" lengthAdjust="spacing" textLength="81" x="337" y="551.2109">:CreateJobUI</text><rect fill="#E3E3E3" height="32.6211" rx="2.5" ry="2.5" style="stroke:#181818;stroke-width:0.5;" width="145" x="453.5" y="529.1035"/><text fill="#000000" font-family="sans-serif" font-size="14" lengthAdjust="spacing" textLength="131" x="460.5" y="551.2109">:CreateJobController</text><rect fill="#E3E3E3" height="32.6211" rx="2.5" ry="2.5" style="stroke:#181818;stroke-width:0.5;" width="105" x="643.5" y="68.6211"/><text fill="#000000" font-family="sans-serif" font-size="14" lengthAdjust="spacing" textLength="91" x="650.5" y="90.7285">:jobRepository</text><rect fill="#E3E3E3" height="32.6211" rx="2.5" ry="2.5" style="stroke:#181818;stroke-width:0.5;" width="105" x="643.5" y="529.1035"/><text fill="#000000" font-family="sans-serif" font-size="14" lengthAdjust="spacing" textLength="91" x="650.5" y="551.2109">:jobRepository</text><rect fill="#E3E3E3" height="32.6211" rx="2.5" ry="2.5" style="stroke:#181818;stroke-width:0.5;" width="36" x="846" y="529.1035"/><text fill="#000000" font-family="sans-serif" font-size="14" lengthAdjust="spacing" textLength="22" x="853" y="551.2109">Job</text><rect fill="#FFFFFF" height="399.8613" style="stroke:#181818;stroke-width:1.0;" width="10" x="57.5" y="112.2422"/><rect fill="#FFFFFF" height="345.2793" style="stroke:#181818;stroke-width:1.0;" width="10" x="372.5" y="135.5332"/><rect fill="#FFFFFF" height="272.6973" style="stroke:#181818;stroke-width:1.0;" width="10" x="521" y="176.8242"/><rect fill="#FFFFFF" height="31.291" style="stroke:#181818;stroke-width:1.0;" width="10" x="691" y="210.4453"/><rect fill="#FFFFFF" height="147.1641" style="stroke:#181818;stroke-width:1.0;" width="10" x="691" y="373.9395"/><rect fill="#FFFFFF" height="122.2031" style="stroke:#181818;stroke-width:1.0;" width="10" x="859" y="251.7363"/><rect fill="#FFFFFF" height="42.291" style="stroke:#181818;stroke-width:1.0;" width="10" x="864" y="293.3574"/><polygon fill="#181818" points="360.5,131.5332,370.5,135.5332,360.5,139.5332,364.5,135.5332" style="stroke:#181818;stroke-width:1.0;"/><line style="stroke:#181818;stroke-width:1.0;" x1="67.5" x2="366.5" y1="135.5332" y2="135.5332"/><text fill="#000000" font-family="sans-serif" font-size="13" font-weight="bold" lengthAdjust="spacing" textLength="7" x="74.5" y="130.2705">1</text><text fill="#000000" font-family="sans-serif" font-size="13" lengthAdjust="spacing" textLength="115" x="85.5" y="130.2705">asks to create a job</text><polygon fill="#181818" points="441.5,162.8242,451.5,166.8242,441.5,170.8242,445.5,166.8242" style="stroke:#181818;stroke-width:1.0;"/><line style="stroke:#181818;stroke-width:1.0;" x1="382.5" x2="447.5" y1="166.8242" y2="166.8242"/><text fill="#000000" font-family="sans-serif" font-size="13" font-weight="bold" lengthAdjust="spacing" textLength="7" x="389.5" y="161.5615">2</text><text fill="#000000" font-family="sans-serif" font-size="13" lengthAdjust="spacing" textLength="36" x="400.5" y="161.5615">create</text><rect fill="#E3E3E3" height="32.6211" rx="2.5" ry="2.5" style="stroke:#181818;stroke-width:0.5;" width="145" x="453.5" y="143.5332"/><text fill="#000000" font-family="sans-serif" font-size="14" lengthAdjust="spacing" textLength="131" x="460.5" y="165.6406">:CreateJobController</text><polygon fill="#181818" points="679,206.4453,689,210.4453,679,214.4453,683,210.4453" style="stroke:#181818;stroke-width:1.0;"/><line style="stroke:#181818;stroke-width:1.0;" x1="531" x2="685" y1="210.4453" y2="210.4453"/><text fill="#000000" font-family="sans-serif" font-size="13" font-weight="bold" lengthAdjust="spacing" textLength="7" x="538" y="205.1826">3</text><text fill="#000000" font-family="sans-serif" font-size="13" lengthAdjust="spacing" textLength="130" x="549" y="205.1826">createJob(designation)</text><polygon fill="#181818" points="834,237.7363,844,241.7363,834,245.7363,838,241.7363" style="stroke:#181818;stroke-width:1.0;"/><line style="stroke:#181818;stroke-width:1.0;stroke-dasharray:2.0,2.0;" x1="696" x2="840" y1="241.7363" y2="241.7363"/><text fill="#000000" font-family="sans-serif" font-size="13" font-weight="bold" lengthAdjust="spacing" textLength="7" x="703" y="236.4736">4</text><text fill="#000000" font-family="sans-serif" font-size="13" lengthAdjust="spacing" textLength="110" x="714" y="236.4736">create(designation)</text><rect fill="#E3E3E3" height="32.6211" rx="2.5" ry="2.5" style="stroke:#181818;stroke-width:0.5;" width="36" x="846" y="218.4453"/><text fill="#000000" font-family="sans-serif" font-size="14" lengthAdjust="spacing" textLength="22" x="853" y="240.5527">Job</text><line style="stroke:#181818;stroke-width:1.0;stroke-dasharray:2.0,2.0;" x1="869" x2="916" y1="280.3574" y2="280.3574"/><line style="stroke:#181818;stroke-width:1.0;stroke-dasharray:2.0,2.0;" x1="916" x2="916" y1="280.3574" y2="293.3574"/><line style="stroke:#181818;stroke-width:1.0;stroke-dasharray:2.0,2.0;" x1="875" x2="916" y1="293.3574" y2="293.3574"/><polygon fill="#181818" points="885,289.3574,875,293.3574,885,297.3574,881,293.3574" style="stroke:#181818;stroke-width:1.0;"/><text fill="#000000" font-family="sans-serif" font-size="13" font-weight="bold" lengthAdjust="spacing" textLength="7" x="881" y="275.0947">5</text><text fill="#000000" font-family="sans-serif" font-size="13" lengthAdjust="spacing" textLength="85" x="892" y="275.0947">verifyFilled(job)</text><line style="stroke:#181818;stroke-width:1.0;" x1="874" x2="916" y1="334.6484" y2="334.6484"/><line style="stroke:#181818;stroke-width:1.0;" x1="916" x2="916" y1="334.6484" y2="347.6484"/><line style="stroke:#181818;stroke-width:1.0;" x1="869" x2="916" y1="347.6484" y2="347.6484"/><polygon fill="#181818" points="879,343.6484,869,347.6484,879,351.6484,875,347.6484" style="stroke:#181818;stroke-width:1.0;"/><text fill="#000000" font-family="sans-serif" font-size="13" font-weight="bold" lengthAdjust="spacing" textLength="7" x="881" y="329.3857">6</text><text fill="#000000" font-family="sans-serif" font-size="13" lengthAdjust="spacing" textLength="160" x="892" y="329.3857">verifySpecialCharacters(job)</text><polygon fill="#181818" points="712,369.9395,702,373.9395,712,377.9395,708,373.9395" style="stroke:#181818;stroke-width:1.0;"/><line style="stroke:#181818;stroke-width:1.0;stroke-dasharray:2.0,2.0;" x1="706" x2="863" y1="373.9395" y2="373.9395"/><text fill="#000000" font-family="sans-serif" font-size="13" font-weight="bold" lengthAdjust="spacing" textLength="7" x="718" y="368.6768">7</text><text fill="#000000" font-family="sans-serif" font-size="13" lengthAdjust="spacing" textLength="17" x="729" y="368.6768">job</text><line style="stroke:#181818;stroke-width:1.0;" x1="701" x2="743" y1="410.2305" y2="410.2305"/><line style="stroke:#181818;stroke-width:1.0;" x1="743" x2="743" y1="410.2305" y2="423.2305"/><line style="stroke:#181818;stroke-width:1.0;" x1="696" x2="743" y1="423.2305" y2="423.2305"/><polygon fill="#181818" points="706,419.2305,696,423.2305,706,427.2305,702,423.2305" style="stroke:#181818;stroke-width:1.0;"/><text fill="#000000" font-family="sans-serif" font-size="13" font-weight="bold" lengthAdjust="spacing" textLength="7" x="708" y="404.9678">8</text><text fill="#000000" font-family="sans-serif" font-size="13" lengthAdjust="spacing" textLength="116" x="719" y="404.9678">check for duplicates</text><polygon fill="#181818" points="537,445.5215,527,449.5215,537,453.5215,533,449.5215" style="stroke:#181818;stroke-width:1.0;"/><line style="stroke:#181818;stroke-width:1.0;stroke-dasharray:2.0,2.0;" x1="531" x2="690" y1="449.5215" y2="449.5215"/><text fill="#000000" font-family="sans-serif" font-size="13" font-weight="bold" lengthAdjust="spacing" textLength="7" x="543" y="444.2588">9</text><text fill="#000000" font-family="sans-serif" font-size="13" lengthAdjust="spacing" textLength="17" x="554" y="444.2588">job</text><polygon fill="#181818" points="388.5,476.8125,378.5,480.8125,388.5,484.8125,384.5,480.8125" style="stroke:#181818;stroke-width:1.0;"/><line style="stroke:#181818;stroke-width:1.0;stroke-dasharray:2.0,2.0;" x1="382.5" x2="525" y1="480.8125" y2="480.8125"/><text fill="#000000" font-family="sans-serif" font-size="13" font-weight="bold" lengthAdjust="spacing" textLength="14" x="394.5" y="475.5498">10</text><text fill="#000000" font-family="sans-serif" font-size="13" lengthAdjust="spacing" textLength="17" x="412.5" y="475.5498">job</text><polygon fill="#181818" points="73.5,508.1035,63.5,512.1035,73.5,516.1035,69.5,512.1035" style="stroke:#181818;stroke-width:1.0;"/><line style="stroke:#181818;stroke-width:1.0;stroke-dasharray:2.0,2.0;" x1="67.5" x2="376.5" y1="512.1035" y2="512.1035"/><text fill="#000000" font-family="sans-serif" font-size="13" font-weight="bold" lengthAdjust="spacing" textLength="14" x="79.5" y="506.8408">11</text><text fill="#000000" font-family="sans-serif" font-size="13" lengthAdjust="spacing" textLength="268" x="97.5" y="506.8408">Displays successful or unsuccessful operation</text><!--SRC=[fPFFJiCm3CRlUGfh5s3INc12N8OG8BXiSEFYfTuQbiPL_WpszZY1bHOs12ANgidddpydTjWOrwB71Xfsh6lF3K7qYLJeJbhK6rpJ8kuiWISTqQrjNn1ghFZ5k3Miq0PI2bDabvebUQLEQbCHh9ZZabyLwiWUHjUfGGTp2foyfYS7z-WaXHy11hYUtoi1HwDDYox2Q3hpX95kUVbuKnIFDyS4CtRHixKVgDd3_EwBz9cNSsev636oAwB1pb0jn2AHhyhUpLRI58CAFfRymEH2BC5Kb9i0aK4NEu0P_QdiuiL-jvcNn0eXUnsFXV8UFPHqiQMYmL5UUJSp1gLqA75_Mb4mQuVHi3lx5jxHXrVnJPVNCCL4aWf-FDxd-ZbHHRzDrUbk-rVONtAmJp-5BNcpsbqPUVdgLD1dVmGMM6717hPeIHkqirfwN4VouJ2tLz9nye6doQtnLzO_tkb0RzIaDpAO7ghKMgE56txjg3JS-MJoOrczu67RlhVhVcgEXFId94-8oFEiJU7IXDRYBa18MbC8gsH1gaYk_z-IBpseUiGyjsy0]--></g></svg>