<svg xmlns="http://www.w3.org/2000/svg" xmlns:xlink="http://www.w3.org/1999/xlink" contentStyleType="text/css" height="1584px" preserveAspectRatio="none" style="width:1055px;height:1584px;background:#FFFFFF;" version="1.1" viewBox="0 0 1055 1584" width="1055px" zoomAndPan="magnify"><defs/><g><!--class AddCityUI--><g id="elem_AddCityUI"><rect codeLine="6" fill="#F1F1F1" height="48" id="AddCityUI" rx="2.5" ry="2.5" style="stroke:#181818;stroke-width:0.5;" width="95.0205" x="296.5" y="7"/><ellipse cx="311.5" cy="23" fill="#ADD1B2" rx="11" ry="11" style="stroke:#181818;stroke-width:1.0;"/><path d="M314.2656,18.875 Q314.4219,18.6563 314.6094,18.5469 Q314.7969,18.4375 315.0156,18.4375 Q315.3906,18.4375 315.625,18.7031 Q315.8594,18.9531 315.8594,19.5625 L315.8594,21.0156 Q315.8594,21.625 315.625,21.8906 Q315.3906,22.1563 315.0156,22.1563 Q314.6719,22.1563 314.4688,21.9531 Q314.2656,21.7656 314.1563,21.25 Q314.1094,20.8906 313.9219,20.7031 Q313.5938,20.3281 312.9844,20.1094 Q312.375,19.8906 311.75,19.8906 Q310.9844,19.8906 310.3438,20.2188 Q309.7188,20.5469 309.2188,21.2969 Q308.7344,22.0469 308.7344,23.0781 L308.7344,24.1719 Q308.7344,25.4063 309.625,26.2344 Q310.5156,27.0469 312.1094,27.0469 Q313.0469,27.0469 313.7031,26.7969 Q314.0938,26.6406 314.5156,26.2031 Q314.7813,25.9375 314.9219,25.8594 Q315.0781,25.7813 315.2813,25.7813 Q315.6094,25.7813 315.8594,26.0469 Q316.125,26.2969 316.125,26.6406 Q316.125,26.9844 315.7813,27.3906 Q315.2813,27.9688 314.4844,28.2969 Q313.4063,28.75 312.1094,28.75 Q310.5938,28.75 309.3906,28.125 Q308.4063,27.625 307.7188,26.5625 Q307.0313,25.4844 307.0313,24.2031 L307.0313,23.0469 Q307.0313,21.7188 307.6406,20.5781 Q308.2656,19.4219 309.3594,18.8125 Q310.4531,18.1875 311.6875,18.1875 Q312.4219,18.1875 313.0625,18.3594 Q313.7188,18.5156 314.2656,18.875 Z " fill="#000000"/><text fill="#000000" font-family="sans-serif" font-size="14" lengthAdjust="spacing" textLength="63.0205" x="325.5" y="28.7969">AddCityUI</text><line style="stroke:#181818;stroke-width:0.5;" x1="297.5" x2="390.5205" y1="39" y2="39"/><line style="stroke:#181818;stroke-width:0.5;" x1="297.5" x2="390.5205" y1="47" y2="47"/></g><!--class AddCityController--><g id="elem_AddCityController"><rect codeLine="9" fill="#F1F1F1" height="178.3477" id="AddCityController" rx="2.5" ry="2.5" style="stroke:#181818;stroke-width:0.5;" width="271.499" x="208.5" y="116"/><ellipse cx="285.1445" cy="132" fill="#ADD1B2" rx="11" ry="11" style="stroke:#181818;stroke-width:1.0;"/><path d="M287.9102,127.875 Q288.0664,127.6563 288.2539,127.5469 Q288.4414,127.4375 288.6602,127.4375 Q289.0352,127.4375 289.2695,127.7031 Q289.5039,127.9531 289.5039,128.5625 L289.5039,130.0156 Q289.5039,130.625 289.2695,130.8906 Q289.0352,131.1563 288.6602,131.1563 Q288.3164,131.1563 288.1133,130.9531 Q287.9102,130.7656 287.8008,130.25 Q287.7539,129.8906 287.5664,129.7031 Q287.2383,129.3281 286.6289,129.1094 Q286.0195,128.8906 285.3945,128.8906 Q284.6289,128.8906 283.9883,129.2188 Q283.3633,129.5469 282.8633,130.2969 Q282.3789,131.0469 282.3789,132.0781 L282.3789,133.1719 Q282.3789,134.4063 283.2695,135.2344 Q284.1602,136.0469 285.7539,136.0469 Q286.6914,136.0469 287.3477,135.7969 Q287.7383,135.6406 288.1602,135.2031 Q288.4258,134.9375 288.5664,134.8594 Q288.7227,134.7813 288.9258,134.7813 Q289.2539,134.7813 289.5039,135.0469 Q289.7695,135.2969 289.7695,135.6406 Q289.7695,135.9844 289.4258,136.3906 Q288.9258,136.9688 288.1289,137.2969 Q287.0508,137.75 285.7539,137.75 Q284.2383,137.75 283.0352,137.125 Q282.0508,136.625 281.3633,135.5625 Q280.6758,134.4844 280.6758,133.2031 L280.6758,132.0469 Q280.6758,130.7188 281.2852,129.5781 Q281.9102,128.4219 283.0039,127.8125 Q284.0977,127.1875 285.332,127.1875 Q286.0664,127.1875 286.707,127.3594 Q287.3633,127.5156 287.9102,127.875 Z " fill="#000000"/><text fill="#000000" font-family="sans-serif" font-size="14" lengthAdjust="spacing" textLength="109.71" x="305.6445" y="137.7969">AddCityController</text><line style="stroke:#181818;stroke-width:0.5;" x1="209.5" x2="478.999" y1="148" y2="148"/><line style="stroke:#181818;stroke-width:0.5;" x1="209.5" x2="478.999" y1="156" y2="156"/><text fill="#000000" font-family="sans-serif" font-size="14" lengthAdjust="spacing" textLength="127.21" x="214.5" y="175.1074">+AddCityController()</text><text fill="#000000" font-family="sans-serif" font-size="14" lengthAdjust="spacing" textLength="128.0098" x="214.5" y="193.7285">+getAvailableMaps()</text><text fill="#000000" font-family="sans-serif" font-size="14" lengthAdjust="spacing" textLength="90.6445" x="214.5" y="212.3496">+setMap(map)</text><text fill="#000000" font-family="sans-serif" font-size="14" lengthAdjust="spacing" textLength="131.1201" x="214.5" y="230.9707">+createLocation(x, y)</text><text fill="#000000" font-family="sans-serif" font-size="14" lengthAdjust="spacing" textLength="159.9268" x="214.5" y="249.5918">+isLocationValid(position)</text><text fill="#000000" font-family="sans-serif" font-size="14" lengthAdjust="spacing" textLength="166.9063" x="214.5" y="268.2129">+getAvailableCitiesTypes()</text><text fill="#000000" font-family="sans-serif" font-size="14" lengthAdjust="spacing" textLength="259.499" x="214.5" y="286.834">+createCity(type, position, numberBlocks)</text></g><!--class Repositories--><g id="elem_Repositories"><rect codeLine="19" fill="#F1F1F1" height="122.4844" id="Repositories" rx="2.5" ry="2.5" style="stroke:#181818;stroke-width:0.5;" width="143.1133" x="272.5" y="355"/><ellipse cx="302.4849" cy="371" fill="#ADD1B2" rx="11" ry="11" style="stroke:#181818;stroke-width:1.0;"/><path d="M305.2505,366.875 Q305.4068,366.6563 305.5943,366.5469 Q305.7818,366.4375 306.0005,366.4375 Q306.3755,366.4375 306.6099,366.7031 Q306.8443,366.9531 306.8443,367.5625 L306.8443,369.0156 Q306.8443,369.625 306.6099,369.8906 Q306.3755,370.1563 306.0005,370.1563 Q305.6568,370.1563 305.4537,369.9531 Q305.2505,369.7656 305.1412,369.25 Q305.0943,368.8906 304.9068,368.7031 Q304.5787,368.3281 303.9693,368.1094 Q303.3599,367.8906 302.7349,367.8906 Q301.9693,367.8906 301.3287,368.2188 Q300.7037,368.5469 300.2037,369.2969 Q299.7193,370.0469 299.7193,371.0781 L299.7193,372.1719 Q299.7193,373.4063 300.6099,374.2344 Q301.5005,375.0469 303.0943,375.0469 Q304.0318,375.0469 304.688,374.7969 Q305.0787,374.6406 305.5005,374.2031 Q305.7662,373.9375 305.9068,373.8594 Q306.063,373.7813 306.2662,373.7813 Q306.5943,373.7813 306.8443,374.0469 Q307.1099,374.2969 307.1099,374.6406 Q307.1099,374.9844 306.7662,375.3906 Q306.2662,375.9688 305.4693,376.2969 Q304.3912,376.75 303.0943,376.75 Q301.5787,376.75 300.3755,376.125 Q299.3912,375.625 298.7037,374.5625 Q298.0162,373.4844 298.0162,372.2031 L298.0162,371.0469 Q298.0162,369.7188 298.6255,368.5781 Q299.2505,367.4219 300.3443,366.8125 Q301.438,366.1875 302.6724,366.1875 Q303.4068,366.1875 304.0474,366.3594 Q304.7037,366.5156 305.2505,366.875 Z " fill="#000000"/><text fill="#000000" font-family="sans-serif" font-size="14" lengthAdjust="spacing" textLength="77.8135" x="319.8149" y="376.7969">Repositories</text><line style="stroke:#181818;stroke-width:0.5;" x1="273.5" x2="414.6133" y1="387" y2="387"/><line style="stroke:#181818;stroke-width:0.5;" x1="273.5" x2="414.6133" y1="395" y2="395"/><text fill="#000000" font-family="sans-serif" font-size="14" lengthAdjust="spacing" textLength="91.7998" x="278.5" y="414.1074">-Repositories()</text><text fill="#000000" font-family="sans-serif" font-size="14" lengthAdjust="spacing" textLength="89.8857" x="278.5" y="432.7285">+getInstance()</text><text fill="#000000" font-family="sans-serif" font-size="14" lengthAdjust="spacing" textLength="131.1133" x="278.5" y="451.3496">+getMapRepository()</text><text fill="#000000" font-family="sans-serif" font-size="14" lengthAdjust="spacing" textLength="127.9893" x="278.5" y="469.9707">+getCityRepository()</text></g><!--class MapRepository--><g id="elem_MapRepository"><rect codeLine="26" fill="#F1F1F1" height="85.2422" id="MapRepository" rx="2.5" ry="2.5" style="stroke:#181818;stroke-width:0.5;" width="140.7754" x="273.5" y="547.5"/><ellipse cx="295.0808" cy="563.5" fill="#ADD1B2" rx="11" ry="11" style="stroke:#181818;stroke-width:1.0;"/><path d="M297.8464,559.375 Q298.0027,559.1563 298.1902,559.0469 Q298.3777,558.9375 298.5964,558.9375 Q298.9714,558.9375 299.2058,559.2031 Q299.4402,559.4531 299.4402,560.0625 L299.4402,561.5156 Q299.4402,562.125 299.2058,562.3906 Q298.9714,562.6563 298.5964,562.6563 Q298.2527,562.6563 298.0496,562.4531 Q297.8464,562.2656 297.7371,561.75 Q297.6902,561.3906 297.5027,561.2031 Q297.1746,560.8281 296.5652,560.6094 Q295.9558,560.3906 295.3308,560.3906 Q294.5652,560.3906 293.9246,560.7188 Q293.2996,561.0469 292.7996,561.7969 Q292.3152,562.5469 292.3152,563.5781 L292.3152,564.6719 Q292.3152,565.9063 293.2058,566.7344 Q294.0964,567.5469 295.6902,567.5469 Q296.6277,567.5469 297.2839,567.2969 Q297.6746,567.1406 298.0964,566.7031 Q298.3621,566.4375 298.5027,566.3594 Q298.6589,566.2813 298.8621,566.2813 Q299.1902,566.2813 299.4402,566.5469 Q299.7058,566.7969 299.7058,567.1406 Q299.7058,567.4844 299.3621,567.8906 Q298.8621,568.4688 298.0652,568.7969 Q296.9871,569.25 295.6902,569.25 Q294.1746,569.25 292.9714,568.625 Q291.9871,568.125 291.2996,567.0625 Q290.6121,565.9844 290.6121,564.7031 L290.6121,563.5469 Q290.6121,562.2188 291.2214,561.0781 Q291.8464,559.9219 292.9402,559.3125 Q294.0339,558.6875 295.2683,558.6875 Q296.0027,558.6875 296.6433,558.8594 Q297.2996,559.0156 297.8464,559.375 Z " fill="#000000"/><text fill="#000000" font-family="sans-serif" font-size="14" lengthAdjust="spacing" textLength="94.1514" x="310.5432" y="569.2969">MapRepository</text><line style="stroke:#181818;stroke-width:0.5;" x1="274.5" x2="413.2754" y1="579.5" y2="579.5"/><line style="stroke:#181818;stroke-width:0.5;" x1="274.5" x2="413.2754" y1="587.5" y2="587.5"/><text fill="#000000" font-family="sans-serif" font-size="14" lengthAdjust="spacing" textLength="71.1963" x="279.5" y="606.6074">+getMaps()</text><text fill="#000000" font-family="sans-serif" font-size="14" lengthAdjust="spacing" textLength="128.7754" x="279.5" y="625.2285">+findByName(name)</text></g><!--class CityRepository--><g id="elem_CityRepository"><rect codeLine="31" fill="#F1F1F1" height="66.6211" id="CityRepository" rx="2.5" ry="2.5" style="stroke:#181818;stroke-width:0.5;" width="123.0273" x="481.5" y="556.5"/><ellipse cx="496.5" cy="572.5" fill="#ADD1B2" rx="11" ry="11" style="stroke:#181818;stroke-width:1.0;"/><path d="M499.2656,568.375 Q499.4219,568.1563 499.6094,568.0469 Q499.7969,567.9375 500.0156,567.9375 Q500.3906,567.9375 500.625,568.2031 Q500.8594,568.4531 500.8594,569.0625 L500.8594,570.5156 Q500.8594,571.125 500.625,571.3906 Q500.3906,571.6563 500.0156,571.6563 Q499.6719,571.6563 499.4688,571.4531 Q499.2656,571.2656 499.1563,570.75 Q499.1094,570.3906 498.9219,570.2031 Q498.5938,569.8281 497.9844,569.6094 Q497.375,569.3906 496.75,569.3906 Q495.9844,569.3906 495.3438,569.7188 Q494.7188,570.0469 494.2188,570.7969 Q493.7344,571.5469 493.7344,572.5781 L493.7344,573.6719 Q493.7344,574.9063 494.625,575.7344 Q495.5156,576.5469 497.1094,576.5469 Q498.0469,576.5469 498.7031,576.2969 Q499.0938,576.1406 499.5156,575.7031 Q499.7813,575.4375 499.9219,575.3594 Q500.0781,575.2813 500.2813,575.2813 Q500.6094,575.2813 500.8594,575.5469 Q501.125,575.7969 501.125,576.1406 Q501.125,576.4844 500.7813,576.8906 Q500.2813,577.4688 499.4844,577.7969 Q498.4063,578.25 497.1094,578.25 Q495.5938,578.25 494.3906,577.625 Q493.4063,577.125 492.7188,576.0625 Q492.0313,574.9844 492.0313,573.7031 L492.0313,572.5469 Q492.0313,571.2188 492.6406,570.0781 Q493.2656,568.9219 494.3594,568.3125 Q495.4531,567.6875 496.6875,567.6875 Q497.4219,567.6875 498.0625,567.8594 Q498.7188,568.0156 499.2656,568.375 Z " fill="#000000"/><text fill="#000000" font-family="sans-serif" font-size="14" lengthAdjust="spacing" textLength="91.0273" x="510.5" y="578.2969">CityRepository</text><line style="stroke:#181818;stroke-width:0.5;" x1="482.5" x2="603.5273" y1="588.5" y2="588.5"/><line style="stroke:#181818;stroke-width:0.5;" x1="482.5" x2="603.5273" y1="596.5" y2="596.5"/><text fill="#000000" font-family="sans-serif" font-size="14" lengthAdjust="spacing" textLength="68.0723" x="487.5" y="615.6074">+save(city)</text></g><!--class City--><g id="elem_City"><rect codeLine="35" fill="#F1F1F1" height="122.4844" id="City" rx="2.5" ry="2.5" style="stroke:#181818;stroke-width:0.5;" width="192.127" x="262" y="1090"/><ellipse cx="341.7583" cy="1106" fill="#ADD1B2" rx="11" ry="11" style="stroke:#181818;stroke-width:1.0;"/><path d="M344.5239,1101.875 Q344.6802,1101.6563 344.8677,1101.5469 Q345.0552,1101.4375 345.2739,1101.4375 Q345.6489,1101.4375 345.8833,1101.7031 Q346.1177,1101.9531 346.1177,1102.5625 L346.1177,1104.0156 Q346.1177,1104.625 345.8833,1104.8906 Q345.6489,1105.1563 345.2739,1105.1563 Q344.9302,1105.1563 344.7271,1104.9531 Q344.5239,1104.7656 344.4146,1104.25 Q344.3677,1103.8906 344.1802,1103.7031 Q343.8521,1103.3281 343.2427,1103.1094 Q342.6333,1102.8906 342.0083,1102.8906 Q341.2427,1102.8906 340.6021,1103.2188 Q339.9771,1103.5469 339.4771,1104.2969 Q338.9927,1105.0469 338.9927,1106.0781 L338.9927,1107.1719 Q338.9927,1108.4063 339.8833,1109.2344 Q340.7739,1110.0469 342.3677,1110.0469 Q343.3052,1110.0469 343.9614,1109.7969 Q344.3521,1109.6406 344.7739,1109.2031 Q345.0396,1108.9375 345.1802,1108.8594 Q345.3364,1108.7813 345.5396,1108.7813 Q345.8677,1108.7813 346.1177,1109.0469 Q346.3833,1109.2969 346.3833,1109.6406 Q346.3833,1109.9844 346.0396,1110.3906 Q345.5396,1110.9688 344.7427,1111.2969 Q343.6646,1111.75 342.3677,1111.75 Q340.8521,1111.75 339.6489,1111.125 Q338.6646,1110.625 337.9771,1109.5625 Q337.2896,1108.4844 337.2896,1107.2031 L337.2896,1106.0469 Q337.2896,1104.7188 337.8989,1103.5781 Q338.5239,1102.4219 339.6177,1101.8125 Q340.7114,1101.1875 341.9458,1101.1875 Q342.6802,1101.1875 343.3208,1101.3594 Q343.9771,1101.5156 344.5239,1101.875 Z " fill="#000000"/><text fill="#000000" font-family="sans-serif" font-size="14" lengthAdjust="spacing" textLength="24.1104" x="362.2583" y="1111.7969">City</text><line style="stroke:#181818;stroke-width:0.5;" x1="263" x2="453.127" y1="1122" y2="1122"/><text fill="#000000" font-family="sans-serif" font-size="14" lengthAdjust="spacing" textLength="87.9238" x="268" y="1141.1074">-name : String</text><text fill="#000000" font-family="sans-serif" font-size="14" lengthAdjust="spacing" textLength="117.5166" x="268" y="1159.7285">-position : Location</text><text fill="#000000" font-family="sans-serif" font-size="14" lengthAdjust="spacing" textLength="168.8545" x="268" y="1178.3496">-blocks : List&lt;HouseBlock&gt;</text><line style="stroke:#181818;stroke-width:0.5;" x1="263" x2="453.127" y1="1185.8633" y2="1185.8633"/><text fill="#000000" font-family="sans-serif" font-size="14" lengthAdjust="spacing" textLength="180.127" x="268" y="1204.9707">+City(name, position, blocks)</text></g><!--class HouseBlock--><g id="elem_HouseBlock"><rect codeLine="42" fill="#F1F1F1" height="103.8633" id="HouseBlock" rx="2.5" ry="2.5" style="stroke:#181818;stroke-width:0.5;" width="181.2373" x="108.5" y="1291"/><ellipse cx="157.5171" cy="1307" fill="#ADD1B2" rx="11" ry="11" style="stroke:#181818;stroke-width:1.0;"/><path d="M160.2827,1302.875 Q160.439,1302.6563 160.6265,1302.5469 Q160.814,1302.4375 161.0327,1302.4375 Q161.4077,1302.4375 161.6421,1302.7031 Q161.8765,1302.9531 161.8765,1303.5625 L161.8765,1305.0156 Q161.8765,1305.625 161.6421,1305.8906 Q161.4077,1306.1563 161.0327,1306.1563 Q160.689,1306.1563 160.4858,1305.9531 Q160.2827,1305.7656 160.1733,1305.25 Q160.1265,1304.8906 159.939,1304.7031 Q159.6108,1304.3281 159.0015,1304.1094 Q158.3921,1303.8906 157.7671,1303.8906 Q157.0015,1303.8906 156.3608,1304.2188 Q155.7358,1304.5469 155.2358,1305.2969 Q154.7515,1306.0469 154.7515,1307.0781 L154.7515,1308.1719 Q154.7515,1309.4063 155.6421,1310.2344 Q156.5327,1311.0469 158.1265,1311.0469 Q159.064,1311.0469 159.7202,1310.7969 Q160.1108,1310.6406 160.5327,1310.2031 Q160.7983,1309.9375 160.939,1309.8594 Q161.0952,1309.7813 161.2983,1309.7813 Q161.6265,1309.7813 161.8765,1310.0469 Q162.1421,1310.2969 162.1421,1310.6406 Q162.1421,1310.9844 161.7983,1311.3906 Q161.2983,1311.9688 160.5015,1312.2969 Q159.4233,1312.75 158.1265,1312.75 Q156.6108,1312.75 155.4077,1312.125 Q154.4233,1311.625 153.7358,1310.5625 Q153.0483,1309.4844 153.0483,1308.2031 L153.0483,1307.0469 Q153.0483,1305.7188 153.6577,1304.5781 Q154.2827,1303.4219 155.3765,1302.8125 Q156.4702,1302.1875 157.7046,1302.1875 Q158.439,1302.1875 159.0796,1302.3594 Q159.7358,1302.5156 160.2827,1302.875 Z " fill="#000000"/><text fill="#000000" font-family="sans-serif" font-size="14" lengthAdjust="spacing" textLength="74.7031" x="178.0171" y="1312.7969">HouseBlock</text><line style="stroke:#181818;stroke-width:0.5;" x1="109.5" x2="288.7373" y1="1323" y2="1323"/><text fill="#000000" font-family="sans-serif" font-size="14" lengthAdjust="spacing" textLength="61.4414" x="114.5" y="1342.1074">-city : City</text><text fill="#000000" font-family="sans-serif" font-size="14" lengthAdjust="spacing" textLength="117.5166" x="114.5" y="1360.7285">-position : Location</text><line style="stroke:#181818;stroke-width:0.5;" x1="109.5" x2="288.7373" y1="1368.2422" y2="1368.2422"/><text fill="#000000" font-family="sans-serif" font-size="14" lengthAdjust="spacing" textLength="169.2373" x="114.5" y="1387.3496">+HouseBlock(city, position)</text></g><!--class Map--><g id="elem_Map"><rect codeLine="48" fill="#F1F1F1" height="290.0742" id="Map" rx="2.5" ry="2.5" style="stroke:#181818;stroke-width:0.5;" width="270.7334" x="201.5" y="721"/><ellipse cx="318.9995" cy="737" fill="#ADD1B2" rx="11" ry="11" style="stroke:#181818;stroke-width:1.0;"/><path d="M321.7651,732.875 Q321.9214,732.6563 322.1089,732.5469 Q322.2964,732.4375 322.5151,732.4375 Q322.8901,732.4375 323.1245,732.7031 Q323.3589,732.9531 323.3589,733.5625 L323.3589,735.0156 Q323.3589,735.625 323.1245,735.8906 Q322.8901,736.1563 322.5151,736.1563 Q322.1714,736.1563 321.9683,735.9531 Q321.7651,735.7656 321.6558,735.25 Q321.6089,734.8906 321.4214,734.7031 Q321.0933,734.3281 320.4839,734.1094 Q319.8745,733.8906 319.2495,733.8906 Q318.4839,733.8906 317.8433,734.2188 Q317.2183,734.5469 316.7183,735.2969 Q316.2339,736.0469 316.2339,737.0781 L316.2339,738.1719 Q316.2339,739.4063 317.1245,740.2344 Q318.0151,741.0469 319.6089,741.0469 Q320.5464,741.0469 321.2026,740.7969 Q321.5933,740.6406 322.0151,740.2031 Q322.2808,739.9375 322.4214,739.8594 Q322.5776,739.7813 322.7808,739.7813 Q323.1089,739.7813 323.3589,740.0469 Q323.6245,740.2969 323.6245,740.6406 Q323.6245,740.9844 323.2808,741.3906 Q322.7808,741.9688 321.9839,742.2969 Q320.9058,742.75 319.6089,742.75 Q318.0933,742.75 316.8901,742.125 Q315.9058,741.625 315.2183,740.5625 Q314.5308,739.4844 314.5308,738.2031 L314.5308,737.0469 Q314.5308,735.7188 315.1401,734.5781 Q315.7651,733.4219 316.8589,732.8125 Q317.9526,732.1875 319.187,732.1875 Q319.9214,732.1875 320.562,732.3594 Q321.2183,732.5156 321.7651,732.875 Z " fill="#000000"/><text fill="#000000" font-family="sans-serif" font-size="14" lengthAdjust="spacing" textLength="27.2344" x="339.4995" y="742.7969">Map</text><line style="stroke:#181818;stroke-width:0.5;" x1="202.5" x2="471.2334" y1="753" y2="753"/><text fill="#000000" font-family="sans-serif" font-size="14" lengthAdjust="spacing" textLength="87.9238" x="207.5" y="772.1074">-name : String</text><text fill="#000000" font-family="sans-serif" font-size="14" lengthAdjust="spacing" textLength="63.7998" x="207.5" y="790.7285">-width : int</text><text fill="#000000" font-family="sans-serif" font-size="14" lengthAdjust="spacing" textLength="69.2617" x="207.5" y="809.3496">-height : int</text><text fill="#000000" font-family="sans-serif" font-size="14" lengthAdjust="spacing" textLength="110.4756" x="207.5" y="827.9707">-cities : List&lt;City&gt;</text><text fill="#000000" font-family="sans-serif" font-size="14" lengthAdjust="spacing" textLength="168.8545" x="207.5" y="846.5918">-blocks : List&lt;HouseBlock&gt;</text><line style="stroke:#181818;stroke-width:0.5;" x1="202.5" x2="471.2334" y1="854.1055" y2="854.1055"/><text fill="#000000" font-family="sans-serif" font-size="14" lengthAdjust="spacing" textLength="177.8164" x="207.5" y="873.2129">+checkCoordinates(position)</text><text fill="#000000" font-family="sans-serif" font-size="14" lengthAdjust="spacing" textLength="258.7334" x="207.5" y="891.834">+createCity(name, position, houseBlocks)</text><text fill="#000000" font-family="sans-serif" font-size="14" lengthAdjust="spacing" textLength="138.8994" x="207.5" y="910.4551">+createBlock(position)</text><text fill="#000000" font-family="sans-serif" font-size="14" lengthAdjust="spacing" textLength="142.0439" x="207.5" y="929.0762">+addLocation(position)</text><text fill="#000000" font-family="sans-serif" font-size="14" lengthAdjust="spacing" textLength="166.9404" x="207.5" y="947.6973">+validateLocation(position)</text><text fill="#000000" font-family="sans-serif" font-size="14" lengthAdjust="spacing" textLength="110.8652" x="207.5" y="966.3184">+validateCity(city)</text><text fill="#000000" font-family="sans-serif" font-size="14" lengthAdjust="spacing" textLength="85.9688" x="207.5" y="984.9395">+addCity(city)</text><text fill="#000000" font-family="sans-serif" font-size="14" lengthAdjust="spacing" textLength="107.7754" x="207.5" y="1003.5605">+addBlock(block)</text></g><!--class Location--><g id="elem_Location"><rect codeLine="64" fill="#F1F1F1" height="103.8633" id="Location" rx="2.5" ry="2.5" style="stroke:#181818;stroke-width:0.5;" width="104.21" x="147" y="1474"/><ellipse cx="170.6757" cy="1490" fill="#ADD1B2" rx="11" ry="11" style="stroke:#181818;stroke-width:1.0;"/><path d="M173.4413,1485.875 Q173.5976,1485.6563 173.7851,1485.5469 Q173.9726,1485.4375 174.1913,1485.4375 Q174.5663,1485.4375 174.8007,1485.7031 Q175.0351,1485.9531 175.0351,1486.5625 L175.0351,1488.0156 Q175.0351,1488.625 174.8007,1488.8906 Q174.5663,1489.1563 174.1913,1489.1563 Q173.8476,1489.1563 173.6444,1488.9531 Q173.4413,1488.7656 173.3319,1488.25 Q173.2851,1487.8906 173.0976,1487.7031 Q172.7694,1487.3281 172.1601,1487.1094 Q171.5507,1486.8906 170.9257,1486.8906 Q170.1601,1486.8906 169.5194,1487.2188 Q168.8944,1487.5469 168.3944,1488.2969 Q167.9101,1489.0469 167.9101,1490.0781 L167.9101,1491.1719 Q167.9101,1492.4063 168.8007,1493.2344 Q169.6913,1494.0469 171.2851,1494.0469 Q172.2226,1494.0469 172.8788,1493.7969 Q173.2694,1493.6406 173.6913,1493.2031 Q173.9569,1492.9375 174.0976,1492.8594 Q174.2538,1492.7813 174.4569,1492.7813 Q174.7851,1492.7813 175.0351,1493.0469 Q175.3007,1493.2969 175.3007,1493.6406 Q175.3007,1493.9844 174.9569,1494.3906 Q174.4569,1494.9688 173.6601,1495.2969 Q172.5819,1495.75 171.2851,1495.75 Q169.7694,1495.75 168.5663,1495.125 Q167.5819,1494.625 166.8944,1493.5625 Q166.2069,1492.4844 166.2069,1491.2031 L166.2069,1490.0469 Q166.2069,1488.7188 166.8163,1487.5781 Q167.4413,1486.4219 168.5351,1485.8125 Q169.6288,1485.1875 170.8632,1485.1875 Q171.5976,1485.1875 172.2382,1485.3594 Q172.8944,1485.5156 173.4413,1485.875 Z " fill="#000000"/><text fill="#000000" font-family="sans-serif" font-size="14" lengthAdjust="spacing" textLength="52.9307" x="186.6036" y="1495.7969">Location</text><line style="stroke:#181818;stroke-width:0.5;" x1="148" x2="250.21" y1="1506" y2="1506"/><text fill="#000000" font-family="sans-serif" font-size="14" lengthAdjust="spacing" textLength="38.1172" x="153" y="1525.1074">-x : int</text><text fill="#000000" font-family="sans-serif" font-size="14" lengthAdjust="spacing" textLength="38.1172" x="153" y="1543.7285">-y : int</text><line style="stroke:#181818;stroke-width:0.5;" x1="148" x2="250.21" y1="1551.2422" y2="1551.2422"/><text fill="#000000" font-family="sans-serif" font-size="14" lengthAdjust="spacing" textLength="92.21" x="153" y="1570.3496">+Location(x, y)</text></g><!--class MapMapper--><g id="elem_MapMapper"><rect codeLine="70" fill="#F1F1F1" height="85.2422" id="MapMapper" rx="2.5" ry="2.5" style="stroke:#181818;stroke-width:0.5;" width="306.4922" x="742" y="373.5"/><ellipse cx="853.6445" cy="389.5" fill="#ADD1B2" rx="11" ry="11" style="stroke:#181818;stroke-width:1.0;"/><path d="M856.4102,385.375 Q856.5664,385.1563 856.7539,385.0469 Q856.9414,384.9375 857.1602,384.9375 Q857.5352,384.9375 857.7695,385.2031 Q858.0039,385.4531 858.0039,386.0625 L858.0039,387.5156 Q858.0039,388.125 857.7695,388.3906 Q857.5352,388.6563 857.1602,388.6563 Q856.8164,388.6563 856.6133,388.4531 Q856.4102,388.2656 856.3008,387.75 Q856.2539,387.3906 856.0664,387.2031 Q855.7383,386.8281 855.1289,386.6094 Q854.5195,386.3906 853.8945,386.3906 Q853.1289,386.3906 852.4883,386.7188 Q851.8633,387.0469 851.3633,387.7969 Q850.8789,388.5469 850.8789,389.5781 L850.8789,390.6719 Q850.8789,391.9063 851.7695,392.7344 Q852.6602,393.5469 854.2539,393.5469 Q855.1914,393.5469 855.8477,393.2969 Q856.2383,393.1406 856.6602,392.7031 Q856.9258,392.4375 857.0664,392.3594 Q857.2227,392.2813 857.4258,392.2813 Q857.7539,392.2813 858.0039,392.5469 Q858.2695,392.7969 858.2695,393.1406 Q858.2695,393.4844 857.9258,393.8906 Q857.4258,394.4688 856.6289,394.7969 Q855.5508,395.25 854.2539,395.25 Q852.7383,395.25 851.5352,394.625 Q850.5508,394.125 849.8633,393.0625 Q849.1758,391.9844 849.1758,390.7031 L849.1758,389.5469 Q849.1758,388.2188 849.7852,387.0781 Q850.4102,385.9219 851.5039,385.3125 Q852.5977,384.6875 853.832,384.6875 Q854.5664,384.6875 855.207,384.8594 Q855.8633,385.0156 856.4102,385.375 Z " fill="#000000"/><text fill="#000000" font-family="sans-serif" font-size="14" lengthAdjust="spacing" textLength="74.7031" x="874.1445" y="395.2969">MapMapper</text><line style="stroke:#181818;stroke-width:0.5;" x1="743" x2="1047.4922" y1="405.5" y2="405.5"/><line style="stroke:#181818;stroke-width:0.5;" x1="743" x2="1047.4922" y1="413.5" y2="413.5"/><text fill="#000000" font-family="sans-serif" font-size="14" lengthAdjust="spacing" textLength="189.4307" x="748" y="432.6074">+toDTO(map: Map) : MapDTO</text><text fill="#000000" font-family="sans-serif" font-size="14" lengthAdjust="spacing" textLength="294.4922" x="748" y="451.2285">+toDTOList(maps: List&lt;Map&gt;) : List&lt;MapDTO&gt;</text></g><!--class MapDTO--><g id="elem_MapDTO"><rect codeLine="75" fill="#F1F1F1" height="103.8633" id="MapDTO" rx="2.5" ry="2.5" style="stroke:#181818;stroke-width:0.5;" width="99.9238" x="701" y="538"/><ellipse cx="721.012" cy="554" fill="#ADD1B2" rx="11" ry="11" style="stroke:#181818;stroke-width:1.0;"/><path d="M723.7776,549.875 Q723.9338,549.6563 724.1213,549.5469 Q724.3088,549.4375 724.5276,549.4375 Q724.9026,549.4375 725.137,549.7031 Q725.3713,549.9531 725.3713,550.5625 L725.3713,552.0156 Q725.3713,552.625 725.137,552.8906 Q724.9026,553.1563 724.5276,553.1563 Q724.1838,553.1563 723.9807,552.9531 Q723.7776,552.7656 723.6682,552.25 Q723.6213,551.8906 723.4338,551.7031 Q723.1057,551.3281 722.4963,551.1094 Q721.887,550.8906 721.262,550.8906 Q720.4963,550.8906 719.8557,551.2188 Q719.2307,551.5469 718.7307,552.2969 Q718.2463,553.0469 718.2463,554.0781 L718.2463,555.1719 Q718.2463,556.4063 719.137,557.2344 Q720.0276,558.0469 721.6213,558.0469 Q722.5588,558.0469 723.2151,557.7969 Q723.6057,557.6406 724.0276,557.2031 Q724.2932,556.9375 724.4338,556.8594 Q724.5901,556.7813 724.7932,556.7813 Q725.1213,556.7813 725.3713,557.0469 Q725.637,557.2969 725.637,557.6406 Q725.637,557.9844 725.2932,558.3906 Q724.7932,558.9688 723.9963,559.2969 Q722.9182,559.75 721.6213,559.75 Q720.1057,559.75 718.9026,559.125 Q717.9182,558.625 717.2307,557.5625 Q716.5432,556.4844 716.5432,555.2031 L716.5432,554.0469 Q716.5432,552.7188 717.1526,551.5781 Q717.7776,550.4219 718.8713,549.8125 Q719.9651,549.1875 721.1995,549.1875 Q721.9338,549.1875 722.5745,549.3594 Q723.2307,549.5156 723.7776,549.875 Z " fill="#000000"/><text fill="#000000" font-family="sans-serif" font-size="14" lengthAdjust="spacing" textLength="56.7861" x="736.1257" y="559.7969">MapDTO</text><line style="stroke:#181818;stroke-width:0.5;" x1="702" x2="799.9238" y1="570" y2="570"/><text fill="#000000" font-family="sans-serif" font-size="14" lengthAdjust="spacing" textLength="87.9238" x="707" y="589.1074">-name : String</text><text fill="#000000" font-family="sans-serif" font-size="14" lengthAdjust="spacing" textLength="63.7998" x="707" y="607.7285">-width : int</text><text fill="#000000" font-family="sans-serif" font-size="14" lengthAdjust="spacing" textLength="69.2617" x="707" y="626.3496">-height : int</text><line style="stroke:#181818;stroke-width:0.5;" x1="702" x2="799.9238" y1="633.8633" y2="633.8633"/></g><!--link AddCityUI to AddCityController--><g id="link_AddCityUI_AddCityController"><path codeLine="81" d="M344,55.2 C344,71.15 344,87.45 344,109.93 " fill="none" id="AddCityUI-to-AddCityController" style="stroke:#181818;stroke-width:1.0;stroke-dasharray:7.0,7.0;"/><polygon fill="#181818" points="344,115.93,348,106.93,344,110.93,340,106.93,344,115.93" style="stroke:#181818;stroke-width:1.0;"/></g><!--link AddCityController to Repositories--><g id="link_AddCityController_Repositories"><path codeLine="82" d="M344,294.03 C344,314.56 344,329.95 344,348.94 " fill="none" id="AddCityController-to-Repositories" style="stroke:#181818;stroke-width:1.0;stroke-dasharray:7.0,7.0;"/><polygon fill="#181818" points="344,354.94,348,345.94,344,349.94,340,345.94,344,354.94" style="stroke:#181818;stroke-width:1.0;"/></g><!--link AddCityController to MapRepository--><g id="link_AddCityController_MapRepository"><path codeLine="83" d="M443.07,294.4 C479.04,326.48 511,355 511,355 C511,355 511,477 511,477 C511,477 458.6531,512.108 411.1631,543.958 " fill="none" id="AddCityController-to-MapRepository" style="stroke:#181818;stroke-width:1.0;"/><polygon fill="#181818" points="406.18,547.3,415.8826,545.6091,410.3326,544.515,411.4266,538.965,406.18,547.3" style="stroke:#181818;stroke-width:1.0;"/></g><!--link AddCityController to CityRepository--><g id="link_AddCityController_CityRepository"><path codeLine="84" d="M462.88,294.22 C485.88,311.3 503,324 503,324 C503,324 537,355 537,355 C537,355 540.3661,486.172 542.0161,550.462 " fill="none" id="AddCityController-to-CityRepository" style="stroke:#181818;stroke-width:1.0;"/><polygon fill="#181818" points="542.17,556.46,545.9378,547.3603,542.0417,551.4616,537.9404,547.5656,542.17,556.46" style="stroke:#181818;stroke-width:1.0;"/></g><!--link AddCityController to Location--><g id="link_AddCityController_Location"><path codeLine="85" d="M208.11,279.63 C138.83,317.17 69,355 69,355 C69,355 6,415 6,415 C6,415 6,415 6,1344 C6,1344 85.2336,1418.3054 142.3936,1471.9154 " fill="none" id="AddCityController-to-Location" style="stroke:#181818;stroke-width:1.0;"/><polygon fill="#181818" points="146.77,1476.02,142.9418,1466.9456,143.123,1472.5995,137.4691,1472.7807,146.77,1476.02" style="stroke:#181818;stroke-width:1.0;"/></g><!--link AddCityController to City--><g id="link_AddCityController_City"><path codeLine="86" d="M261.45,294.03 C207.88,351.15 148,415 148,415 C148,415 148,415 148,867 C148,867 184,1011 184,1011 C184,1011 230.9826,1048.5246 278.0026,1086.0946 " fill="none" id="AddCityController-to-City" style="stroke:#181818;stroke-width:1.0;"/><polygon fill="#181818" points="282.69,1089.84,278.1557,1081.097,278.7838,1086.7189,273.1619,1087.3469,282.69,1089.84" style="stroke:#181818;stroke-width:1.0;"/></g><!--link AddCityController to Map--><g id="link_AddCityController_Map"><path codeLine="87" d="M291.2,294.4 C272.04,326.48 255,355 255,355 C255,355 255,477 255,477 C255,477 256,642 256,642 C256,642 267.0023,672.2802 282.6223,715.3002 " fill="none" id="AddCityController-to-Map" style="stroke:#181818;stroke-width:1.0;"/><polygon fill="#181818" points="284.67,720.94,285.3583,711.1152,282.9636,716.2402,277.8386,713.8455,284.67,720.94" style="stroke:#181818;stroke-width:1.0;"/></g><!--link AddCityController to HouseBlock--><g id="link_AddCityController_HouseBlock"><path codeLine="88" d="M223.27,294.18 C179.22,326.35 140,355 140,355 C140,355 77,415 77,415 C77,415 77,415 77,1152 C77,1152 126.7676,1229.5116 162.9076,1285.7816 " fill="none" id="AddCityController-to-HouseBlock" style="stroke:#181818;stroke-width:1.0;"/><polygon fill="#181818" points="166.15,1290.83,164.652,1281.0957,163.448,1286.623,157.9208,1285.4189,166.15,1290.83" style="stroke:#181818;stroke-width:1.0;"/></g><!--link AddCityController to MapMapper--><g id="link_AddCityController_MapMapper"><path codeLine="89" d="M479.51,249.1 C585.5,282.81 715,324 715,324 C715,324 760.0754,346.7828 807.5454,370.7828 " fill="none" id="AddCityController-to-MapMapper" style="stroke:#181818;stroke-width:1.0;"/><polygon fill="#181818" points="812.9,373.49,806.6729,365.8595,808.4379,371.234,803.0634,372.9989,812.9,373.49" style="stroke:#181818;stroke-width:1.0;"/></g><!--link AddCityController to MapDTO--><g id="link_AddCityController_MapDTO"><path codeLine="90" d="M479.91,292.69 C507.88,310.53 529,324 529,324 C529,324 564,355 564,355 C564,355 651.4247,464.3925 706.4447,533.2525 " fill="none" id="AddCityController-to-MapDTO" style="stroke:#181818;stroke-width:1.0;"/><polygon fill="#181818" points="710.19,537.94,707.697,528.4119,707.0689,534.0338,701.447,533.4057,710.19,537.94" style="stroke:#181818;stroke-width:1.0;"/></g><!--link Repositories to MapRepository--><g id="link_Repositories_MapRepository"><path codeLine="92" d="M344,477.16 C344,500.31 344,520.22 344,541.26 " fill="none" id="Repositories-to-MapRepository" style="stroke:#181818;stroke-width:1.0;"/><polygon fill="#181818" points="344,547.26,348,538.26,344,542.26,340,538.26,344,547.26" style="stroke:#181818;stroke-width:1.0;"/></g><!--link Repositories to CityRepository--><g id="link_Repositories_CityRepository"><path codeLine="93" d="M413.6,477.16 C444.42,503.8 474.931,530.166 500.761,552.496 " fill="none" id="Repositories-to-CityRepository" style="stroke:#181818;stroke-width:1.0;"/><polygon fill="#181818" points="505.3,556.42,501.1075,547.5081,501.5175,553.15,495.8755,553.5601,505.3,556.42" style="stroke:#181818;stroke-width:1.0;"/></g><!--link Repositories to Repositories--><g id="link_Repositories_Repositories"><path codeLine="94" d="M415.68,399.23 C435.42,400.04 450.5,405.63 450.5,416 C450.5,426.37 441.415,431.714 421.675,432.524 " fill="none" id="Repositories-to-Repositories" style="stroke:#181818;stroke-width:1.0;"/><polygon fill="#181818" points="415.68,432.77,424.8364,436.3976,420.6758,432.565,424.5084,428.4044,415.68,432.77" style="stroke:#181818;stroke-width:1.0;"/><text fill="#000000" font-family="sans-serif" font-size="13" lengthAdjust="spacing" textLength="48.4199" x="456.5" y="421.5283">instance</text></g><!--link MapRepository to Map--><g id="link_MapRepository_Map"><path codeLine="96" d="M342.94,632.61 C342.32,656.64 341.6639,682.442 340.8339,714.782 " fill="none" id="MapRepository-to-Map" style="stroke:#181818;stroke-width:1.0;"/><polygon fill="#181818" points="340.68,720.78,344.9096,711.8856,340.8083,715.7816,336.9122,711.6803,340.68,720.78" style="stroke:#181818;stroke-width:1.0;"/><text fill="#000000" font-family="sans-serif" font-size="13" lengthAdjust="spacing" textLength="31.7891" x="342" y="687.0283">maps</text><text fill="#000000" font-family="sans-serif" font-size="13" lengthAdjust="spacing" textLength="5.0591" x="335.7492" y="709.8877">*</text></g><!--link CityRepository to City--><g id="link_CityRepository_City"><path codeLine="97" d="M538.89,623.61 C526.43,722.29 490,1011 490,1011 C490,1011 454.9312,1047.9188 419.2612,1085.4888 " fill="none" id="CityRepository-to-City" style="stroke:#181818;stroke-width:1.0;"/><polygon fill="#181818" points="415.13,1089.84,424.2276,1086.0673,418.5727,1086.214,418.426,1080.559,415.13,1089.84" style="stroke:#181818;stroke-width:1.0;"/><text fill="#000000" font-family="sans-serif" font-size="13" lengthAdjust="spacing" textLength="29.6182" x="527" y="871.5283">cities</text><text fill="#000000" font-family="sans-serif" font-size="13" lengthAdjust="spacing" textLength="5.0591" x="416.4427" y="1078.8027">*</text></g><!--link Map to City--><g id="link_Map_City"><path codeLine="99" d="M347.72,1011.4 C349.77,1039.06 351.3651,1060.5965 353.0851,1083.7265 " fill="none" id="Map-to-City" style="stroke:#181818;stroke-width:1.0;"/><polygon fill="#181818" points="353.53,1089.71,356.8516,1080.4382,353.1592,1084.7238,348.8736,1081.0314,353.53,1089.71" style="stroke:#181818;stroke-width:1.0;"/><text fill="#000000" font-family="sans-serif" font-size="13" lengthAdjust="spacing" textLength="29.6182" x="352" y="1056.0283">cities</text><text fill="#000000" font-family="sans-serif" font-size="13" lengthAdjust="spacing" textLength="5.0591" x="347.7202" y="1078.6577">*</text></g><!--link Map to HouseBlock--><g id="link_Map_HouseBlock"><path codeLine="100" d="M253.02,1011.06 C227.94,1054.08 207,1090 207,1090 C207,1090 203.1605,1211.023 200.8205,1284.703 " fill="none" id="Map-to-HouseBlock" style="stroke:#181818;stroke-width:1.0;"/><polygon fill="#181818" points="200.63,1290.7,204.9137,1281.8315,200.7887,1285.7025,196.9177,1281.5776,200.63,1290.7" style="stroke:#181818;stroke-width:1.0;"/><text fill="#000000" font-family="sans-serif" font-size="13" lengthAdjust="spacing" textLength="36.8481" x="208" y="1156.5283">blocks</text><text fill="#000000" font-family="sans-serif" font-size="13" lengthAdjust="spacing" textLength="5.0591" x="195.5011" y="1279.5871">*</text></g><!--link City to Location--><g id="link_City_Location"><path codeLine="101" d="M345.39,1212.07 C330.29,1284.03 307,1395 307,1395 C307,1395 275.4644,1432.9551 245.2044,1469.3751 " fill="none" id="City-to-Location" style="stroke:#181818;stroke-width:1.0;"/><polygon fill="#181818" points="241.37,1473.99,250.1982,1469.6239,244.5653,1470.1442,244.0449,1464.5114,241.37,1473.99" style="stroke:#181818;stroke-width:1.0;"/><text fill="#000000" font-family="sans-serif" font-size="13" lengthAdjust="spacing" textLength="44.8081" x="329" y="1348.5283">position</text><text fill="#000000" font-family="sans-serif" font-size="13" lengthAdjust="spacing" textLength="7.23" x="239.5945" y="1462.916">1</text></g><!--link City to HouseBlock--><g id="link_City_HouseBlock"><path codeLine="102" d="M281.96,1212.03 C261.05,1228.54 244,1242 244,1242 C244,1242 235.5614,1260.7481 224.4914,1285.3581 " fill="none" id="City-to-HouseBlock" style="stroke:#181818;stroke-width:1.0;"/><polygon fill="#181818" points="222.03,1290.83,229.37,1284.263,224.0811,1286.2701,222.0741,1280.9812,222.03,1290.83" style="stroke:#181818;stroke-width:1.0;"/><text fill="#000000" font-family="sans-serif" font-size="13" lengthAdjust="spacing" textLength="36.8481" x="245" y="1257.0283">blocks</text><text fill="#000000" font-family="sans-serif" font-size="13" lengthAdjust="spacing" textLength="5.0591" x="219.7767" y="1279.7345">*</text></g><!--link HouseBlock to City--><g id="link_HouseBlock_City"><path codeLine="103" d="M254.1,1290.7 C271.36,1274.63 286,1261 286,1261 C286,1261 298.2534,1242.4566 314.9034,1217.2466 " fill="none" id="HouseBlock-to-City" style="stroke:#181818;stroke-width:1.0;"/><polygon fill="#181818" points="318.21,1212.24,309.9123,1217.5455,315.4545,1216.4122,316.5878,1221.9543,318.21,1212.24" style="stroke:#181818;stroke-width:1.0;"/><text fill="#000000" font-family="sans-serif" font-size="13" lengthAdjust="spacing" textLength="19.5" x="299" y="1257.0283">city</text><text fill="#000000" font-family="sans-serif" font-size="13" lengthAdjust="spacing" textLength="7.23" x="306.2106" y="1234.3208">1</text></g><!--link HouseBlock to Location--><g id="link_HouseBlock_Location"><path codeLine="104" d="M199,1395.38 C199,1419.94 199,1443.26 199,1467.8 " fill="none" id="HouseBlock-to-Location" style="stroke:#181818;stroke-width:1.0;"/><polygon fill="#181818" points="199,1473.8,203,1464.8,199,1468.8,195,1464.8,199,1473.8" style="stroke:#181818;stroke-width:1.0;"/><text fill="#000000" font-family="sans-serif" font-size="13" lengthAdjust="spacing" textLength="44.8081" x="200" y="1440.0283">position</text><text fill="#000000" font-family="sans-serif" font-size="13" lengthAdjust="spacing" textLength="7.23" x="191.531" y="1462.7005">1</text></g><!--link MapMapper to MapDTO--><g id="link_MapMapper_MapDTO"><path codeLine="106" d="M860.14,458.64 C840.16,482.5 818.7802,508.0283 797.6202,533.3183 " fill="none" id="MapMapper-to-MapDTO" style="stroke:#181818;stroke-width:1.0;"/><polygon fill="#181818" points="793.77,537.92,802.6131,533.5842,796.9785,534.0852,796.4775,528.4506,793.77,537.92" style="stroke:#181818;stroke-width:1.0;"/></g><!--SRC=[fLHDZzem4BtdLrYSGe5LUqLL99OUYhJRIcNRk-FC9XR6ZcB3RbhrlzTs4dyaf5kf284yR_ncvdbcv8do6ZVuZ6fCJhY4esePe0Q8mhnaa4Zd82jSY1VAI_ICcGmHHZcejWPK2zQQGu0HXgNSATNG_ABWG0G_qf-0tYU9HT2kAFPKjTyFw5VoUsJS2wuQmHWq6aJwiveYwR97Ib2xAwOCvmmUSIqT847fSth6zM0X3M053u9WHGLFNzUe7I0g1_CFp6YHra9ISxeLHIT2GJxfmdsmZjgac1f5rcWWM2D-EUVGt3D1JdBfQ_q6raKqcgilSnCPmmeFNEft8H3QT77ElGq1aqM4k9ZH5QTjn-NZFLDUtBTVy1bIhd-2-p6p8v3u2YdHsCZLbMLeq1OTTJVmihSD0cdx87sFv5OgOwTIVVmiBXAiUbaVpgfiA4ELyx6-_fvBmwIeQStzDv9O1TTjPJvKBETVItoXXQgqaNBLMogWPQKY4x7TD5HhSil-KGTI0JdjXMWAodNpoKdJ1aqvbgjoR3BsxaeUC-6YS6CpngvcOCAvcdEmYNHjubXlsReKRFM1s0EzK_mrah4DJYiqcl7mnVIt3XQB4f-UlfebiJNW4ja_RGfXexznaVrJQ8ziYVn1ksHH36tudyRGL7uztjrbq-sNJ3UbyGlNnmsNpIQBLy2CJppcCqvkNkOvvbEOGNoFpr_jtcyUDs-NHCjrMlO47bKSux6kzeswRPmayK8rJ8jt2xiNjiWqJ3BQc8F7ljj4tUnRcXaeH8ADjksNW-Nl73ui_8XitQG73ZCCWMtWyIcqj-1ROH8_MS4x_040]--></g></svg>