<?xml version="1.0" encoding="us-ascii" standalone="no"?><svg xmlns="http://www.w3.org/2000/svg" xmlns:xlink="http://www.w3.org/1999/xlink" contentStyleType="text/css" height="653.1px" preserveAspectRatio="none" style="width:1135px;height:653px;background:#FFFFFF;" version="1.1" viewBox="0 0 1135 653" width="1135.4px" zoomAndPan="magnify"><defs/><g><!--class HRM--><g id="elem_HRM"><rect codeLine="6" fill="#F1F1F1" height="44.5484" id="HRM" rx="1.75" ry="1.75" style="stroke:#181818;stroke-width:0.3499999999999999;" width="119" x="4.9" y="386.05"/><ellipse cx="50.925" cy="397.25" fill="#ADD1B2" rx="7.7" ry="7.7" style="stroke:#181818;stroke-width:0.6999999999999998;"/><path d="M52.8609,394.3625 Q52.9703,394.2094 53.1016,394.1328 Q53.2328,394.0562 53.3859,394.0562 Q53.6484,394.0562 53.8125,394.2422 Q53.9766,394.4172 53.9766,394.8437 L53.9766,395.8609 Q53.9766,396.2875 53.8125,396.4734 Q53.6484,396.6594 53.3859,396.6594 Q53.1453,396.6594 53.0031,396.5172 Q52.8609,396.3859 52.7844,396.025 Q52.7516,395.7734 52.6203,395.6422 Q52.3906,395.3797 51.9641,395.2266 Q51.5375,395.0734 51.1,395.0734 Q50.5641,395.0734 50.1156,395.3031 Q49.6781,395.5328 49.3281,396.0578 Q48.9891,396.5828 48.9891,397.3047 L48.9891,398.0703 Q48.9891,398.9344 49.6125,399.5141 Q50.2359,400.0828 51.3516,400.0828 Q52.0078,400.0828 52.4672,399.9078 Q52.7406,399.7984 53.0359,399.4922 Q53.2219,399.3062 53.3203,399.2516 Q53.4297,399.1969 53.5719,399.1969 Q53.8016,399.1969 53.9766,399.3828 Q54.1625,399.5578 54.1625,399.7984 Q54.1625,400.0391 53.9219,400.3234 Q53.5719,400.7281 53.0141,400.9578 Q52.2594,401.275 51.3516,401.275 Q50.2906,401.275 49.4484,400.8375 Q48.7594,400.4875 48.2781,399.7437 Q47.7969,398.9891 47.7969,398.0922 L47.7969,397.2828 Q47.7969,396.3531 48.2234,395.5547 Q48.6609,394.7453 49.4266,394.3187 Q50.1922,393.8812 51.0562,393.8812 Q51.5703,393.8812 52.0187,394.0016 Q52.4781,394.1109 52.8609,394.3625 Z " fill="#000000"/><text fill="#000000" font-family="sans-serif" font-size="9.8" lengthAdjust="spacing" textLength="21" x="65.275" y="400.6475">HRM</text><line style="stroke:#181818;stroke-width:0.3499999999999999;" x1="5.6" x2="123.2" y1="408.45" y2="408.45"/><line style="stroke:#181818;stroke-width:0.3499999999999999;" x1="5.6" x2="123.2" y1="414.05" y2="414.05"/><text fill="#000000" font-family="sans-serif" font-size="9.8" lengthAdjust="spacing" textLength="110.6" x="9.1" y="425.7217">+requestTeamProposal()</text></g><!--class GenerateTeamProposalUI--><g id="elem_GenerateTeamProposalUI"><rect codeLine="10" fill="#F1F1F1" height="154.0328" id="GenerateTeamProposalUI" rx="1.75" ry="1.75" style="stroke:#181818;stroke-width:0.3499999999999999;" width="218.4" x="242.9" y="4.9"/><ellipse cx="291.725" cy="16.1" fill="#ADD1B2" rx="7.7" ry="7.7" style="stroke:#181818;stroke-width:0.6999999999999998;"/><path d="M293.6609,13.2125 Q293.7703,13.0594 293.9016,12.9828 Q294.0328,12.9062 294.1859,12.9062 Q294.4484,12.9062 294.6125,13.0922 Q294.7766,13.2672 294.7766,13.6937 L294.7766,14.7109 Q294.7766,15.1375 294.6125,15.3234 Q294.4484,15.5094 294.1859,15.5094 Q293.9453,15.5094 293.8031,15.3672 Q293.6609,15.2359 293.5844,14.875 Q293.5516,14.6234 293.4203,14.4922 Q293.1906,14.2297 292.7641,14.0766 Q292.3375,13.9234 291.9,13.9234 Q291.3641,13.9234 290.9156,14.1531 Q290.4781,14.3828 290.1281,14.9078 Q289.7891,15.4328 289.7891,16.1547 L289.7891,16.9203 Q289.7891,17.7844 290.4125,18.3641 Q291.0359,18.9328 292.1516,18.9328 Q292.8078,18.9328 293.2672,18.7578 Q293.5406,18.6484 293.8359,18.3422 Q294.0219,18.1562 294.1203,18.1016 Q294.2297,18.0469 294.3719,18.0469 Q294.6016,18.0469 294.7766,18.2328 Q294.9625,18.4078 294.9625,18.6484 Q294.9625,18.8891 294.7219,19.1734 Q294.3719,19.5781 293.8141,19.8078 Q293.0594,20.125 292.1516,20.125 Q291.0906,20.125 290.2484,19.6875 Q289.5594,19.3375 289.0781,18.5937 Q288.5969,17.8391 288.5969,16.9422 L288.5969,16.1328 Q288.5969,15.2031 289.0234,14.4047 Q289.4609,13.5953 290.2266,13.1687 Q290.9922,12.7312 291.8562,12.7312 Q292.3703,12.7312 292.8187,12.8516 Q293.2781,12.9609 293.6609,13.2125 Z " fill="#000000"/><text fill="#000000" font-family="sans-serif" font-size="9.8" lengthAdjust="spacing" textLength="114.8" x="306.075" y="19.4975">GenerateTeamProposalUI</text><line style="stroke:#181818;stroke-width:0.3499999999999999;" x1="243.6" x2="460.6" y1="27.3" y2="27.3"/><text fill="#000000" font-family="sans-serif" font-size="9.8" lengthAdjust="spacing" textLength="200.2" x="247.1" y="38.9717">-controller: GenerateTeamProposalController</text><text fill="#000000" font-family="sans-serif" font-size="9.8" lengthAdjust="spacing" textLength="147.7" x="247.1" y="49.9201">-skillsRepository: SkillsRepository</text><text fill="#000000" font-family="sans-serif" font-size="9.8" lengthAdjust="spacing" textLength="35" x="247.1" y="60.8686">-min: int</text><text fill="#000000" font-family="sans-serif" font-size="9.8" lengthAdjust="spacing" textLength="37.1" x="247.1" y="71.817">-max: int</text><text fill="#000000" font-family="sans-serif" font-size="9.8" lengthAdjust="spacing" textLength="98" x="247.1" y="82.7654">-skills: ArrayList&lt;Skill&gt;</text><line style="stroke:#181818;stroke-width:0.3499999999999999;" x1="243.6" x2="460.6" y1="87.6422" y2="87.6422"/><text fill="#000000" font-family="sans-serif" font-size="9.8" lengthAdjust="spacing" textLength="127.4" x="247.1" y="99.3139">+GenerateTeamProposalUI()</text><text fill="#000000" font-family="sans-serif" font-size="9.8" lengthAdjust="spacing" textLength="51.1" x="247.1" y="110.2623">+run(): void</text><text fill="#000000" font-family="sans-serif" font-size="9.8" lengthAdjust="spacing" textLength="91" x="247.1" y="121.2107">+requestData(): void</text><text fill="#000000" font-family="sans-serif" font-size="9.8" lengthAdjust="spacing" textLength="86.1" x="247.1" y="132.1592">+submitData(): void</text><text fill="#000000" font-family="sans-serif" font-size="9.8" lengthAdjust="spacing" textLength="173.6" x="247.1" y="143.1076">+displayAvailableSkills(List&lt;Skill&gt;): void</text><text fill="#000000" font-family="sans-serif" font-size="9.8" lengthAdjust="spacing" textLength="210" x="247.1" y="154.0561">+requestSkills(ArrayList&lt;Skill&gt;): ArrayList&lt;Skill&gt;</text></g><!--class GenerateTeamProposalController--><g id="elem_GenerateTeamProposalController"><rect codeLine="24" fill="#F1F1F1" height="99.2906" id="GenerateTeamProposalController" rx="1.75" ry="1.75" style="stroke:#181818;stroke-width:0.3499999999999999;" width="244.3" x="229.95" y="200.9"/><ellipse cx="274.225" cy="212.1" fill="#ADD1B2" rx="7.7" ry="7.7" style="stroke:#181818;stroke-width:0.6999999999999998;"/><path d="M276.1609,209.2125 Q276.2703,209.0594 276.4016,208.9828 Q276.5328,208.9062 276.6859,208.9062 Q276.9484,208.9062 277.1125,209.0922 Q277.2766,209.2672 277.2766,209.6937 L277.2766,210.7109 Q277.2766,211.1375 277.1125,211.3234 Q276.9484,211.5094 276.6859,211.5094 Q276.4453,211.5094 276.3031,211.3672 Q276.1609,211.2359 276.0844,210.875 Q276.0516,210.6234 275.9203,210.4922 Q275.6906,210.2297 275.2641,210.0766 Q274.8375,209.9234 274.4,209.9234 Q273.8641,209.9234 273.4156,210.1531 Q272.9781,210.3828 272.6281,210.9078 Q272.2891,211.4328 272.2891,212.1547 L272.2891,212.9203 Q272.2891,213.7844 272.9125,214.3641 Q273.5359,214.9328 274.6516,214.9328 Q275.3078,214.9328 275.7672,214.7578 Q276.0406,214.6484 276.3359,214.3422 Q276.5219,214.1562 276.6203,214.1016 Q276.7297,214.0469 276.8719,214.0469 Q277.1016,214.0469 277.2766,214.2328 Q277.4625,214.4078 277.4625,214.6484 Q277.4625,214.8891 277.2219,215.1734 Q276.8719,215.5781 276.3141,215.8078 Q275.5594,216.125 274.6516,216.125 Q273.5906,216.125 272.7484,215.6875 Q272.0594,215.3375 271.5781,214.5937 Q271.0969,213.8391 271.0969,212.9422 L271.0969,212.1328 Q271.0969,211.2031 271.5234,210.4047 Q271.9609,209.5953 272.7266,209.1687 Q273.4922,208.7312 274.3562,208.7312 Q274.8703,208.7312 275.3187,208.8516 Q275.7781,208.9609 276.1609,209.2125 Z " fill="#000000"/><text fill="#000000" font-family="sans-serif" font-size="9.8" lengthAdjust="spacing" textLength="149.8" x="288.575" y="215.4975">GenerateTeamProposalController</text><line style="stroke:#181818;stroke-width:0.3499999999999999;" x1="230.65" x2="473.55" y1="223.3" y2="223.3"/><text fill="#000000" font-family="sans-serif" font-size="9.8" lengthAdjust="spacing" textLength="142.8" x="234.15" y="234.9717">-skillRepository: SkillsRepository</text><text fill="#000000" font-family="sans-serif" font-size="9.8" lengthAdjust="spacing" textLength="151.2" x="234.15" y="245.9201">-teamRepository: TeamRepository</text><text fill="#000000" font-family="sans-serif" font-size="9.8" lengthAdjust="spacing" textLength="230.3" x="234.15" y="256.8686">-teamProposalService: CreateTeamProposalService</text><line style="stroke:#181818;stroke-width:0.3499999999999999;" x1="230.65" x2="473.55" y1="261.7453" y2="261.7453"/><text fill="#000000" font-family="sans-serif" font-size="9.8" lengthAdjust="spacing" textLength="162.4" x="234.15" y="273.417">+GenerateTeamProposalController()</text><text fill="#000000" font-family="sans-serif" font-size="9.8" lengthAdjust="spacing" textLength="137.9" x="234.15" y="284.3654">+getSkillsList(): ArrayList&lt;Skill&gt;</text><text fill="#000000" font-family="sans-serif" font-size="9.8" lengthAdjust="spacing" textLength="235.9" x="234.15" y="295.3139">+createTeamProposal(int, int, ArrayList&lt;Skill&gt;): Team</text></g><!--class Repositories--><g id="elem_Repositories"><rect codeLine="33" fill="#F1F1F1" height="121.1875" id="Repositories" rx="1.75" ry="1.75" style="stroke:#181818;stroke-width:0.3499999999999999;" width="254.8" x="424.9" y="522.2"/><ellipse cx="521.675" cy="533.4" fill="#ADD1B2" rx="7.7" ry="7.7" style="stroke:#181818;stroke-width:0.6999999999999998;"/><path d="M523.6109,530.5125 Q523.7203,530.3594 523.8516,530.2828 Q523.9828,530.2062 524.1359,530.2062 Q524.3984,530.2062 524.5625,530.3922 Q524.7266,530.5672 524.7266,530.9937 L524.7266,532.0109 Q524.7266,532.4375 524.5625,532.6234 Q524.3984,532.8094 524.1359,532.8094 Q523.8953,532.8094 523.7531,532.6672 Q523.6109,532.5359 523.5344,532.175 Q523.5016,531.9234 523.3703,531.7922 Q523.1406,531.5297 522.7141,531.3766 Q522.2875,531.2234 521.85,531.2234 Q521.3141,531.2234 520.8656,531.4531 Q520.4281,531.6828 520.0781,532.2078 Q519.7391,532.7328 519.7391,533.4547 L519.7391,534.2203 Q519.7391,535.0844 520.3625,535.6641 Q520.9859,536.2328 522.1016,536.2328 Q522.7578,536.2328 523.2172,536.0578 Q523.4906,535.9484 523.7859,535.6422 Q523.9719,535.4562 524.0703,535.4016 Q524.1797,535.3469 524.3219,535.3469 Q524.5516,535.3469 524.7266,535.5328 Q524.9125,535.7078 524.9125,535.9484 Q524.9125,536.1891 524.6719,536.4734 Q524.3219,536.8781 523.7641,537.1078 Q523.0094,537.425 522.1016,537.425 Q521.0406,537.425 520.1984,536.9875 Q519.5094,536.6375 519.0281,535.8937 Q518.5469,535.1391 518.5469,534.2422 L518.5469,533.4328 Q518.5469,532.5031 518.9734,531.7047 Q519.4109,530.8953 520.1766,530.4687 Q520.9422,530.0312 521.8062,530.0312 Q522.3203,530.0312 522.7687,530.1516 Q523.2281,530.2609 523.6109,530.5125 Z " fill="#000000"/><text fill="#000000" font-family="sans-serif" font-size="9.8" lengthAdjust="spacing" textLength="55.3" x="536.025" y="536.7975">Repositories</text><line style="stroke:#181818;stroke-width:0.3499999999999999;" x1="425.6" x2="679" y1="544.6" y2="544.6"/><text fill="#000000" font-family="sans-serif" font-size="9.8" lengthAdjust="spacing" textLength="101.5" x="429.1" y="556.2717">-instance: Repositories</text><text fill="#000000" font-family="sans-serif" font-size="9.8" lengthAdjust="spacing" textLength="147.7" x="429.1" y="567.2201">-skillsRepository: SkillsRepository</text><text fill="#000000" font-family="sans-serif" font-size="9.8" lengthAdjust="spacing" textLength="156.1" x="429.1" y="578.1686">-teamsRepository: TeamRepository</text><text fill="#000000" font-family="sans-serif" font-size="9.8" lengthAdjust="spacing" textLength="221.2" x="429.1" y="589.117">-collaboratorsRepository: CollaboratorsRepository</text><line style="stroke:#181818;stroke-width:0.3499999999999999;" x1="425.6" x2="679" y1="593.9937" y2="593.9937"/><text fill="#000000" font-family="sans-serif" font-size="9.8" lengthAdjust="spacing" textLength="124.6" x="429.1" y="605.6654">+getInstance(): Repositories</text><text fill="#000000" font-family="sans-serif" font-size="9.8" lengthAdjust="spacing" textLength="172.2" x="429.1" y="616.6139">+getSkillsRepository(): SkillsRepository</text><text fill="#000000" font-family="sans-serif" font-size="9.8" lengthAdjust="spacing" textLength="182.7" x="429.1" y="627.5623">+getTeamsRepository(): TeamRepository</text><text fill="#000000" font-family="sans-serif" font-size="9.8" lengthAdjust="spacing" textLength="246.4" x="429.1" y="638.5107">+getCollaboratorsRepository(): CollaboratorsRepository</text></g><!--class CollaboratorsRepository--><g id="elem_CollaboratorsRepository"><rect codeLine="44" fill="#F1F1F1" height="132.1359" id="CollaboratorsRepository" rx="1.75" ry="1.75" style="stroke:#181818;stroke-width:0.3499999999999999;" width="546.7" x="389.55" y="342.3"/><ellipse cx="606.375" cy="353.5" fill="#ADD1B2" rx="7.7" ry="7.7" style="stroke:#181818;stroke-width:0.6999999999999998;"/><path d="M608.3109,350.6125 Q608.4203,350.4594 608.5516,350.3828 Q608.6828,350.3062 608.8359,350.3062 Q609.0984,350.3062 609.2625,350.4922 Q609.4266,350.6672 609.4266,351.0937 L609.4266,352.1109 Q609.4266,352.5375 609.2625,352.7234 Q609.0984,352.9094 608.8359,352.9094 Q608.5953,352.9094 608.4531,352.7672 Q608.3109,352.6359 608.2344,352.275 Q608.2016,352.0234 608.0703,351.8922 Q607.8406,351.6297 607.4141,351.4766 Q606.9875,351.3234 606.55,351.3234 Q606.0141,351.3234 605.5656,351.5531 Q605.1281,351.7828 604.7781,352.3078 Q604.4391,352.8328 604.4391,353.5547 L604.4391,354.3203 Q604.4391,355.1844 605.0625,355.7641 Q605.6859,356.3328 606.8016,356.3328 Q607.4578,356.3328 607.9172,356.1578 Q608.1906,356.0484 608.4859,355.7422 Q608.6719,355.5562 608.7703,355.5016 Q608.8797,355.4469 609.0219,355.4469 Q609.2516,355.4469 609.4266,355.6328 Q609.6125,355.8078 609.6125,356.0484 Q609.6125,356.2891 609.3719,356.5734 Q609.0219,356.9781 608.4641,357.2078 Q607.7094,357.525 606.8016,357.525 Q605.7406,357.525 604.8984,357.0875 Q604.2094,356.7375 603.7281,355.9937 Q603.2469,355.2391 603.2469,354.3422 L603.2469,353.5328 Q603.2469,352.6031 603.6734,351.8047 Q604.1109,350.9953 604.8766,350.5687 Q605.6422,350.1312 606.5062,350.1312 Q607.0203,350.1312 607.4687,350.2516 Q607.9281,350.3609 608.3109,350.6125 Z " fill="#000000"/><text fill="#000000" font-family="sans-serif" font-size="9.8" lengthAdjust="spacing" textLength="107.1" x="620.725" y="356.8975">CollaboratorsRepository</text><line style="stroke:#181818;stroke-width:0.3499999999999999;" x1="390.25" x2="935.55" y1="364.7" y2="364.7"/><text fill="#000000" font-family="sans-serif" font-size="9.8" lengthAdjust="spacing" textLength="210.7" x="393.75" y="376.3717">-collaboratorsArrayList: ArrayList&lt;Collaborator&gt;</text><line style="stroke:#181818;stroke-width:0.3499999999999999;" x1="390.25" x2="935.55" y1="381.2484" y2="381.2484"/><text fill="#000000" font-family="sans-serif" font-size="9.8" lengthAdjust="spacing" textLength="235.9" x="393.75" y="392.9201">+getCollaboratorsArrayList(): ArrayList&lt;Collaborator&gt;</text><text fill="#000000" font-family="sans-serif" font-size="9.8" lengthAdjust="spacing" textLength="538.3" x="393.75" y="403.8686">+addCollaborator(String, String, String, String, int, String, String, String, DocumentType, Job, CollaboratorStatus): boolean</text><text fill="#000000" font-family="sans-serif" font-size="9.8" lengthAdjust="spacing" textLength="121.8" x="393.75" y="414.817">+isValidPhone(int): boolean</text><text fill="#000000" font-family="sans-serif" font-size="9.8" lengthAdjust="spacing" textLength="161" x="393.75" y="425.7654">+isValidDateFormat(String): boolean</text><text fill="#000000" font-family="sans-serif" font-size="9.8" lengthAdjust="spacing" textLength="120.4" x="393.75" y="436.7139">-isNumeric(String): boolean</text><text fill="#000000" font-family="sans-serif" font-size="9.8" lengthAdjust="spacing" textLength="131.6" x="393.75" y="447.6623">-isValidName(String): boolean</text><text fill="#000000" font-family="sans-serif" font-size="9.8" lengthAdjust="spacing" textLength="345.8" x="393.75" y="458.6107">+getDeactivatedCollaboratorsBySkill(ArrayList&lt;Skill&gt;): ArrayList&lt;Collaborator&gt;</text><text fill="#000000" font-family="sans-serif" font-size="9.8" lengthAdjust="spacing" textLength="216.3" x="393.75" y="469.5592">+addSkill(Collaborator, ArrayList&lt;Skill&gt;): boolean</text></g><!--class SkillsRepository--><g id="elem_SkillsRepository"><rect codeLine="56" fill="#F1F1F1" height="88.3422" id="SkillsRepository" rx="1.75" ry="1.75" style="stroke:#181818;stroke-width:0.3499999999999999;" width="170.1" x="960.75" y="364.35"/><ellipse cx="1007.825" cy="375.55" fill="#ADD1B2" rx="7.7" ry="7.7" style="stroke:#181818;stroke-width:0.6999999999999998;"/><path d="M1009.7609,372.6625 Q1009.8703,372.5094 1010.0016,372.4328 Q1010.1328,372.3562 1010.2859,372.3562 Q1010.5484,372.3562 1010.7125,372.5422 Q1010.8766,372.7172 1010.8766,373.1437 L1010.8766,374.1609 Q1010.8766,374.5875 1010.7125,374.7734 Q1010.5484,374.9594 1010.2859,374.9594 Q1010.0453,374.9594 1009.9031,374.8172 Q1009.7609,374.6859 1009.6844,374.325 Q1009.6516,374.0734 1009.5203,373.9422 Q1009.2906,373.6797 1008.8641,373.5266 Q1008.4375,373.3734 1008,373.3734 Q1007.4641,373.3734 1007.0156,373.6031 Q1006.5781,373.8328 1006.2281,374.3578 Q1005.8891,374.8828 1005.8891,375.6047 L1005.8891,376.3703 Q1005.8891,377.2344 1006.5125,377.8141 Q1007.1359,378.3828 1008.2516,378.3828 Q1008.9078,378.3828 1009.3672,378.2078 Q1009.6406,378.0984 1009.9359,377.7922 Q1010.1219,377.6062 1010.2203,377.5516 Q1010.3297,377.4969 1010.4719,377.4969 Q1010.7016,377.4969 1010.8766,377.6828 Q1011.0625,377.8578 1011.0625,378.0984 Q1011.0625,378.3391 1010.8219,378.6234 Q1010.4719,379.0281 1009.9141,379.2578 Q1009.1594,379.575 1008.2516,379.575 Q1007.1906,379.575 1006.3484,379.1375 Q1005.6594,378.7875 1005.1781,378.0437 Q1004.6969,377.2891 1004.6969,376.3922 L1004.6969,375.5828 Q1004.6969,374.6531 1005.1234,373.8547 Q1005.5609,373.0453 1006.3266,372.6187 Q1007.0922,372.1812 1007.9562,372.1812 Q1008.4703,372.1812 1008.9187,372.3016 Q1009.3781,372.4109 1009.7609,372.6625 Z " fill="#000000"/><text fill="#000000" font-family="sans-serif" font-size="9.8" lengthAdjust="spacing" textLength="70" x="1022.175" y="378.9475">SkillsRepository</text><line style="stroke:#181818;stroke-width:0.3499999999999999;" x1="961.45" x2="1130.15" y1="386.75" y2="386.75"/><text fill="#000000" font-family="sans-serif" font-size="9.8" lengthAdjust="spacing" textLength="137.2" x="964.95" y="398.4217">-skillsArrayList: ArrayList&lt;Skill&gt;</text><line style="stroke:#181818;stroke-width:0.3499999999999999;" x1="961.45" x2="1130.15" y1="403.2984" y2="403.2984"/><text fill="#000000" font-family="sans-serif" font-size="9.8" lengthAdjust="spacing" textLength="161.7" x="964.95" y="414.9701">+getSkillsArrayList(): ArrayList&lt;Skill&gt;</text><text fill="#000000" font-family="sans-serif" font-size="9.8" lengthAdjust="spacing" textLength="139.3" x="964.95" y="425.9186">-skillAlreadyExist(Skill): boolean</text><text fill="#000000" font-family="sans-serif" font-size="9.8" lengthAdjust="spacing" textLength="147.7" x="964.95" y="436.867">-skillNameIsValid(String): boolean</text><text fill="#000000" font-family="sans-serif" font-size="9.8" lengthAdjust="spacing" textLength="96.6" x="964.95" y="447.8154">+addSkill(String): void</text></g><!--class TeamRepository--><g id="elem_TeamRepository"><rect codeLine="64" fill="#F1F1F1" height="66.4453" id="TeamRepository" rx="1.75" ry="1.75" style="stroke:#181818;stroke-width:0.3499999999999999;" width="165.9" x="148.75" y="375.2"/><ellipse cx="192.325" cy="386.4" fill="#ADD1B2" rx="7.7" ry="7.7" style="stroke:#181818;stroke-width:0.6999999999999998;"/><path d="M194.2609,383.5125 Q194.3703,383.3594 194.5016,383.2828 Q194.6328,383.2062 194.7859,383.2062 Q195.0484,383.2062 195.2125,383.3922 Q195.3766,383.5672 195.3766,383.9937 L195.3766,385.0109 Q195.3766,385.4375 195.2125,385.6234 Q195.0484,385.8094 194.7859,385.8094 Q194.5453,385.8094 194.4031,385.6672 Q194.2609,385.5359 194.1844,385.175 Q194.1516,384.9234 194.0203,384.7922 Q193.7906,384.5297 193.3641,384.3766 Q192.9375,384.2234 192.5,384.2234 Q191.9641,384.2234 191.5156,384.4531 Q191.0781,384.6828 190.7281,385.2078 Q190.3891,385.7328 190.3891,386.4547 L190.3891,387.2203 Q190.3891,388.0844 191.0125,388.6641 Q191.6359,389.2328 192.7516,389.2328 Q193.4078,389.2328 193.8672,389.0578 Q194.1406,388.9484 194.4359,388.6422 Q194.6219,388.4562 194.7203,388.4016 Q194.8297,388.3469 194.9719,388.3469 Q195.2016,388.3469 195.3766,388.5328 Q195.5625,388.7078 195.5625,388.9484 Q195.5625,389.1891 195.3219,389.4734 Q194.9719,389.8781 194.4141,390.1078 Q193.6594,390.425 192.7516,390.425 Q191.6906,390.425 190.8484,389.9875 Q190.1594,389.6375 189.6781,388.8937 Q189.1969,388.1391 189.1969,387.2422 L189.1969,386.4328 Q189.1969,385.5031 189.6234,384.7047 Q190.0609,383.8953 190.8266,383.4687 Q191.5922,383.0312 192.4562,383.0312 Q192.9703,383.0312 193.4187,383.1516 Q193.8781,383.2609 194.2609,383.5125 Z " fill="#000000"/><text fill="#000000" font-family="sans-serif" font-size="9.8" lengthAdjust="spacing" textLength="72.8" x="206.675" y="389.7975">TeamRepository</text><line style="stroke:#181818;stroke-width:0.3499999999999999;" x1="149.45" x2="313.95" y1="397.6" y2="397.6"/><text fill="#000000" font-family="sans-serif" font-size="9.8" lengthAdjust="spacing" textLength="111.3" x="152.95" y="409.2717">-teams: ArrayList&lt;Team&gt;</text><line style="stroke:#181818;stroke-width:0.3499999999999999;" x1="149.45" x2="313.95" y1="414.1484" y2="414.1484"/><text fill="#000000" font-family="sans-serif" font-size="9.8" lengthAdjust="spacing" textLength="137.9" x="152.95" y="425.8201">+registerTeam(Team): boolean</text><text fill="#000000" font-family="sans-serif" font-size="9.8" lengthAdjust="spacing" textLength="157.5" x="152.95" y="436.7686">-teamAlreadyExists(Team): boolean</text></g><!--class Team--><g id="elem_Team"><rect codeLine="70" fill="#F1F1F1" height="132.1359" id="Team" rx="1.75" ry="1.75" style="stroke:#181818;stroke-width:0.3499999999999999;" width="285.6" x="4.9" y="516.6"/><ellipse cx="132.125" cy="527.8" fill="#ADD1B2" rx="7.7" ry="7.7" style="stroke:#181818;stroke-width:0.6999999999999998;"/><path d="M134.0609,524.9125 Q134.1703,524.7594 134.3016,524.6828 Q134.4328,524.6062 134.5859,524.6062 Q134.8484,524.6062 135.0125,524.7922 Q135.1766,524.9672 135.1766,525.3937 L135.1766,526.4109 Q135.1766,526.8375 135.0125,527.0234 Q134.8484,527.2094 134.5859,527.2094 Q134.3453,527.2094 134.2031,527.0672 Q134.0609,526.9359 133.9844,526.575 Q133.9516,526.3234 133.8203,526.1922 Q133.5906,525.9297 133.1641,525.7766 Q132.7375,525.6234 132.3,525.6234 Q131.7641,525.6234 131.3156,525.8531 Q130.8781,526.0828 130.5281,526.6078 Q130.1891,527.1328 130.1891,527.8547 L130.1891,528.6203 Q130.1891,529.4844 130.8125,530.0641 Q131.4359,530.6328 132.5516,530.6328 Q133.2078,530.6328 133.6672,530.4578 Q133.9406,530.3484 134.2359,530.0422 Q134.4219,529.8562 134.5203,529.8016 Q134.6297,529.7469 134.7719,529.7469 Q135.0016,529.7469 135.1766,529.9328 Q135.3625,530.1078 135.3625,530.3484 Q135.3625,530.5891 135.1219,530.8734 Q134.7719,531.2781 134.2141,531.5078 Q133.4594,531.825 132.5516,531.825 Q131.4906,531.825 130.6484,531.3875 Q129.9594,531.0375 129.4781,530.2937 Q128.9969,529.5391 128.9969,528.6422 L128.9969,527.8328 Q128.9969,526.9031 129.4234,526.1047 Q129.8609,525.2953 130.6266,524.8687 Q131.3922,524.4312 132.2562,524.4312 Q132.7703,524.4312 133.2187,524.5516 Q133.6781,524.6609 134.0609,524.9125 Z " fill="#000000"/><text fill="#000000" font-family="sans-serif" font-size="9.8" lengthAdjust="spacing" textLength="25.2" x="146.475" y="531.1975">Team</text><line style="stroke:#181818;stroke-width:0.3499999999999999;" x1="5.6" x2="289.8" y1="539" y2="539"/><text fill="#000000" font-family="sans-serif" font-size="9.8" lengthAdjust="spacing" textLength="98" x="9.1" y="550.6717">-skills: ArrayList&lt;Skill&gt;</text><text fill="#000000" font-family="sans-serif" font-size="9.8" lengthAdjust="spacing" textLength="171.5" x="9.1" y="561.6201">-collaborators: ArrayList&lt;Collaborator&gt;</text><line style="stroke:#181818;stroke-width:0.3499999999999999;" x1="5.6" x2="289.8" y1="566.4969" y2="566.4969"/><text fill="#000000" font-family="sans-serif" font-size="9.8" lengthAdjust="spacing" textLength="205.1" x="9.1" y="578.1686">+Team(collaborators: ArrayList&lt;Collaborator&gt;,</text><text fill="#000000" font-family="sans-serif" font-size="9.8" lengthAdjust="spacing" textLength="98" x="9.1" y="589.117">skills: ArrayList&lt;Skill&gt;)</text><text fill="#000000" font-family="sans-serif" font-size="9.8" lengthAdjust="spacing" textLength="122.5" x="9.1" y="600.0654">+getSkills(): ArrayList&lt;Skill&gt;</text><text fill="#000000" font-family="sans-serif" font-size="9.8" lengthAdjust="spacing" textLength="166.6" x="9.1" y="611.0139">+setSkills(skills: ArrayList&lt;Skill&gt;): void</text><text fill="#000000" font-family="sans-serif" font-size="9.8" lengthAdjust="spacing" textLength="196.7" x="9.1" y="621.9623">+getCollaborators(): ArrayList&lt;Collaborator&gt;</text><text fill="#000000" font-family="sans-serif" font-size="9.8" lengthAdjust="spacing" textLength="277.2" x="9.1" y="632.9107">+setCollaborators(collaborators: ArrayList&lt;Collaborator&gt;): void</text><text fill="#000000" font-family="sans-serif" font-size="9.8" lengthAdjust="spacing" textLength="78.4" x="9.1" y="643.8592">+toString(): String</text></g><!--link GenerateTeamProposalController to HRM--><g id="link_GenerateTeamProposalController_HRM"><path codeLine="82" d="M235.781,300.398 C184.863,321.888 136.5,342.3 136.5,342.3 C136.5,342.3 111.664,364.847 91.14,383.474 " fill="none" id="GenerateTeamProposalController-to-HRM" style="stroke:#181818;stroke-width:0.6999999999999998;stroke-dasharray:7.0,7.0;"/><polygon fill="#181818" points="88.41,385.959,94.9526,383.7855,90.9971,383.6017,91.1809,379.6461,88.41,385.959" style="stroke:#181818;stroke-width:0.6999999999999998;"/></g><!--link GenerateTeamProposalUI to GenerateTeamProposalController--><g id="link_GenerateTeamProposalUI_GenerateTeamProposalController"><path codeLine="83" d="M352.1,158.907 C352.1,171.794 352.1,184.912 352.1,197.036 " fill="none" id="GenerateTeamProposalUI-to-GenerateTeamProposalController" style="stroke:#181818;stroke-width:0.6999999999999998;stroke-dasharray:7.0,7.0;"/><polygon fill="#181818" points="352.1,200.76,354.9,194.46,352.1,197.26,349.3,194.46,352.1,200.76" style="stroke:#181818;stroke-width:0.6999999999999998;"/></g><!--link GenerateTeamProposalController to Repositories--><g id="link_GenerateTeamProposalController_Repositories"><path codeLine="84" d="M357.63,300.307 C365.05,366.037 377.3,474.6 377.3,474.6 C377.3,474.6 412.769,496.377 451.766,520.324 " fill="none" id="GenerateTeamProposalController-to-Repositories" style="stroke:#181818;stroke-width:0.6999999999999998;stroke-dasharray:7.0,7.0;"/><polygon fill="#181818" points="454.825,522.2,450.9217,516.5172,451.8425,520.3685,447.9912,521.2892,454.825,522.2" style="stroke:#181818;stroke-width:0.6999999999999998;"/></g><!--link GenerateTeamProposalController to CollaboratorsRepository--><g id="link_GenerateTeamProposalController_CollaboratorsRepository"><path codeLine="85" d="M449.589,300.37 C474.901,313.117 502.614,327.068 529.438,340.571 " fill="none" id="GenerateTeamProposalController-to-CollaboratorsRepository" style="stroke:#181818;stroke-width:0.6999999999999998;stroke-dasharray:7.0,7.0;"/><polygon fill="#181818" points="532.707,342.209,528.3447,336.8704,529.5825,340.6318,525.8212,341.8696,532.707,342.209" style="stroke:#181818;stroke-width:0.6999999999999998;"/></g><!--link GenerateTeamProposalController to SkillsRepository--><g id="link_GenerateTeamProposalController_SkillsRepository"><path codeLine="86" d="M474.411,269.962 C648.921,296.59 948.5,342.3 948.5,342.3 C948.5,342.3 961.632,351.134 978.25,362.313 " fill="none" id="GenerateTeamProposalController-to-SkillsRepository" style="stroke:#181818;stroke-width:0.6999999999999998;stroke-dasharray:7.0,7.0;"/><polygon fill="#181818" points="981.169,364.273,977.4941,358.4399,978.2614,362.3246,974.3767,363.092,981.169,364.273" style="stroke:#181818;stroke-width:0.6999999999999998;"/></g><!--link GenerateTeamProposalController to TeamRepository--><g id="link_GenerateTeamProposalController_TeamRepository"><path codeLine="87" d="M314.335,300.37 C296.38,323.701 275.324,351.064 258.958,372.33 " fill="none" id="GenerateTeamProposalController-to-TeamRepository" style="stroke:#181818;stroke-width:0.6999999999999998;stroke-dasharray:7.0,7.0;"/><polygon fill="#181818" points="256.781,375.158,262.841,371.8706,258.9145,372.3834,258.4017,368.457,256.781,375.158" style="stroke:#181818;stroke-width:0.6999999999999998;"/></g><!--link TeamRepository to Team--><g id="link_TeamRepository_Team"><path codeLine="88" d="M215.803,441.875 C206.017,462.021 193.095,488.614 181.139,513.219 " fill="none" id="TeamRepository-to-Team" style="stroke:#181818;stroke-width:0.6999999999999998;"/><polygon fill="#181818" points="179.536,516.516,184.8071,512.0724,181.0652,513.3677,179.7699,509.6258,179.536,516.516" style="stroke:#181818;stroke-width:0.6999999999999998;"/></g><!--link TeamRepository to Repositories--><g id="link_TeamRepository_Repositories"><path codeLine="89" d="M282.8,441.875 C308.35,458.234 333.9,474.6 333.9,474.6 C333.9,474.6 372.834,493.752 417.823,515.893 " fill="none" id="TeamRepository-to-Repositories" style="stroke:#181818;stroke-width:0.6999999999999998;"/><polygon fill="none" points="420.245,511.623,430.647,522.2,415.919,520.415,420.245,511.623" style="stroke:#181818;stroke-width:0.6999999999999998;"/></g><!--link HRM to Team--><g id="link_HRM_Team"><path codeLine="90" d="M74.949,431.046 C84.917,451.738 100.408,483.889 114.541,513.219 " fill="none" id="HRM-to-Team" style="stroke:#181818;stroke-width:0.6999999999999998;stroke-dasharray:7.0,7.0;"/><polygon fill="#181818" points="116.081,516.411,115.8648,509.5202,114.5599,513.2588,110.8213,511.9539,116.081,516.411" style="stroke:#181818;stroke-width:0.6999999999999998;"/></g><!--link SkillsRepository to Repositories--><g id="link_SkillsRepository_Repositories"><path codeLine="91" d="M981.169,452.627 C963.2,464.716 948.5,474.6 948.5,474.6 C948.5,474.6 807.373,512.876 693.574,543.739 " fill="none" id="SkillsRepository-to-Repositories" style="stroke:#181818;stroke-width:0.6999999999999998;"/><polygon fill="none" points="694.638,548.527,679.84,547.463,692.069,539.07,694.638,548.527" style="stroke:#181818;stroke-width:0.6999999999999998;"/></g><!--link CollaboratorsRepository to Repositories--><g id="link_CollaboratorsRepository_Repositories"><path codeLine="92" d="M620.928,474.761 C613.494,486.381 605.724,498.533 598.192,510.307 " fill="none" id="CollaboratorsRepository-to-Repositories" style="stroke:#181818;stroke-width:0.6999999999999998;"/><polygon fill="none" points="602.28,513.016,590.604,522.165,594.02,507.731,602.28,513.016" style="stroke:#181818;stroke-width:0.6999999999999998;"/></g><!--SRC=[bLPDZzem4BtdL_WOL5ZrZ2ea2lsWQbUhXVPkaYbhhMDJsz1DF_vxRISnjXD3oW68vytupVDu9lAPi2CMk497N3pZ0snLJG49A1Hc1mgPT03vX4l-ax03-ewfz2sKC53r4T2HqzeyUBQ2OYcNIWcoFodO59njoIz0hxFCMj37no_eTuRqvvM07oUGQWUuUX3yo2Mc-IJxso4_00E15VZshvlMUOPqP2KufI3cWz2LixSEcYEbyX6qbIWkwZdQHYiji29iZWXJtID-yH-RC7Eq50BNdubKRsoOHPDJWhNEgp6B4yidStJcfEnM6XNMME788a_xYWmPIYAF5DVBCoOKxoaqUUGUcS4jMbXCV3AGozL3k2Zh3iEACa9QfSFui5tmx86wlROWpgI0ELe9Y6YqfYkwNuWw_G_Goc2opIV9Oonws-Mw1AR8VWqeQ90NrLnA1AJJY32fxvZ9nJV_Rt4QSUHD2GkTDTvpBGWN0NerRBYeisbP6crwF3tzBhu6EKZMedSXttmooDX24zoCIugsKpm1yBg5PtVdvn-_7s6H8ENGOUKCkUAoz9VphUw8x315gLzRM2dZcXUd2fZQwQOxHP_uVXeal5LOdQIcjEUS0cOj1IA_OKhAXoVEm5Hl2g0x3BpdeiAgPHa1TUdAUxs_84KQO2FTumg68LRBDU12aRFUBj16lgrj_LplJ0cH6q_VE7W_EowkOEAA3LlPS8a47SBTX4HHUE0sw9BgfbBMxruCrffxEbgSKN7J29eIqoNkxBRTk-p2A-Poiyt39sbm2pSb3de9X5dBpLUFdN7tav0nBDW_KZIfJN0rRvsu9JVEOsfTka-AH6ymN1aAqc6IqOAv6xUFsrr3nXxZKWstLRof2jkOxJzpC3Sc-TtTmhoRPOctBcE-yPOrOeDWe8p0fzh-2DVUH1hX4mscw1BDPWsYl_udoioyutRnibwZwUDJmwk7_0S0]--></g></svg>