<?xml version="1.0" encoding="us-ascii" standalone="no"?><svg xmlns="http://www.w3.org/2000/svg" xmlns:xlink="http://www.w3.org/1999/xlink" contentStyleType="text/css" height="1020px" preserveAspectRatio="none" style="width:1446px;height:1020px;background:#FFFFFF;" version="1.1" viewBox="0 0 1446 1020" width="1446px" zoomAndPan="magnify"><defs/><g><rect fill="#FFFFFF" height="831.8203" style="stroke:#181818;stroke-width:1.0;" width="10" x="91" y="90.6406"/><rect fill="#FFFFFF" height="43.0469" style="stroke:#181818;stroke-width:1.0;" width="10" x="394" y="125.6875"/><rect fill="#FFFFFF" height="57.5703" style="stroke:#181818;stroke-width:1.0;" width="10" x="394" y="197.2578"/><rect fill="#FFFFFF" height="639.1094" style="stroke:#181818;stroke-width:1.0;" width="10" x="394" y="283.3516"/><rect fill="#FFFFFF" height="517.8984" style="stroke:#181818;stroke-width:1.0;" width="10" x="611" y="376.0391"/><rect fill="#FFFFFF" height="28.5234" style="stroke:#181818;stroke-width:1.0;" width="10" x="785.5" y="404.5625"/><rect fill="#FFFFFF" height="28.5234" style="stroke:#181818;stroke-width:1.0;" width="10" x="892.5" y="461.6094"/><rect fill="#FFFFFF" height="28.5234" style="stroke:#181818;stroke-width:1.0;" width="10" x="892.5" y="575.7031"/><rect fill="#FFFFFF" height="28.5234" style="stroke:#181818;stroke-width:1.0;" width="10" x="892.5" y="689.7969"/><rect fill="#FFFFFF" height="28.5234" style="stroke:#181818;stroke-width:1.0;" width="10" x="1031.5" y="518.6563"/><rect fill="#FFFFFF" height="28.5234" style="stroke:#181818;stroke-width:1.0;" width="10" x="1176.5" y="632.75"/><rect fill="#FFFFFF" height="111.5703" style="stroke:#181818;stroke-width:1.0;" width="10" x="1299.5" y="746.8438"/><rect fill="#FFFFFF" height="39.5234" style="stroke:#181818;stroke-width:1.0;" width="10" x="1304.5" y="783.3672"/><rect fill="none" height="568.0625" style="stroke:#000000;stroke-width:1.5;" width="1142.5" x="298" y="298.3516"/><line style="stroke:#181818;stroke-width:0.5;stroke-dasharray:5.0,5.0;" x1="96" x2="96" y1="80.6406" y2="940.4609"/><line style="stroke:#181818;stroke-width:0.5;stroke-dasharray:5.0,5.0;" x1="399" x2="399" y1="80.6406" y2="940.4609"/><line style="stroke:#181818;stroke-width:0.5;stroke-dasharray:5.0,5.0;" x1="616" x2="616" y1="345.1953" y2="940.4609"/><line style="stroke:#181818;stroke-width:0.5;stroke-dasharray:5.0,5.0;" x1="790" x2="790" y1="80.6406" y2="940.4609"/><line style="stroke:#181818;stroke-width:0.5;stroke-dasharray:5.0,5.0;" x1="897" x2="897" y1="80.6406" y2="940.4609"/><line style="stroke:#181818;stroke-width:0.5;stroke-dasharray:5.0,5.0;" x1="1036" x2="1036" y1="80.6406" y2="940.4609"/><line style="stroke:#181818;stroke-width:0.5;stroke-dasharray:5.0,5.0;" x1="1181" x2="1181" y1="80.6406" y2="940.4609"/><line style="stroke:#181818;stroke-width:0.5;stroke-dasharray:5.0,5.0;" x1="1304" x2="1304" y1="80.6406" y2="940.4609"/><text fill="#000000" font-family="sans-serif" font-size="14" lengthAdjust="spacing" textLength="176" x="5" y="77.6738">Human Resources Manager</text><ellipse cx="96" cy="13.5" fill="#E3E3E3" rx="8" ry="8" style="stroke:#181818;stroke-width:0.5;"/><path d="M96,21.5 L96,48.5 M83,29.5 L109,29.5 M96,48.5 L83,63.5 M96,48.5 L109,63.5 " fill="none" style="stroke:#181818;stroke-width:0.5;"/><text fill="#000000" font-family="sans-serif" font-size="14" lengthAdjust="spacing" textLength="176" x="5" y="952.1348">Human Resources Manager</text><ellipse cx="96" cy="963.6016" fill="#E3E3E3" rx="8" ry="8" style="stroke:#181818;stroke-width:0.5;"/><path d="M96,971.6016 L96,998.6016 M83,979.6016 L109,979.6016 M96,998.6016 L83,1013.6016 M96,998.6016 L109,1013.6016 " fill="none" style="stroke:#181818;stroke-width:0.5;"/><rect fill="#E3E3E3" height="29.6406" rx="2.5" ry="2.5" style="stroke:#181818;stroke-width:0.5;" width="182" x="308" y="50"/><text fill="#000000" font-family="sans-serif" font-size="14" lengthAdjust="spacing" textLength="168" x="315" y="69.6738">:GenerateTeamProposalUI</text><rect fill="#E3E3E3" height="29.6406" rx="2.5" ry="2.5" style="stroke:#181818;stroke-width:0.5;" width="182" x="308" y="939.4609"/><text fill="#000000" font-family="sans-serif" font-size="14" lengthAdjust="spacing" textLength="168" x="315" y="959.1348">:GenerateTeamProposalUI</text><rect fill="#E3E3E3" height="29.6406" rx="2.5" ry="2.5" style="stroke:#181818;stroke-width:0.5;" width="232" x="500" y="939.4609"/><text fill="#000000" font-family="sans-serif" font-size="14" lengthAdjust="spacing" textLength="218" x="507" y="959.1348">:GenerateTeamProposalController</text><rect fill="#E3E3E3" height="29.6406" rx="2.5" ry="2.5" style="stroke:#181818;stroke-width:0.5;" width="97" x="742" y="50"/><text fill="#000000" font-family="sans-serif" font-size="14" lengthAdjust="spacing" textLength="83" x="749" y="69.6738">:Repositories</text><rect fill="#E3E3E3" height="29.6406" rx="2.5" ry="2.5" style="stroke:#181818;stroke-width:0.5;" width="97" x="742" y="939.4609"/><text fill="#000000" font-family="sans-serif" font-size="14" lengthAdjust="spacing" textLength="83" x="749" y="959.1348">:Repositories</text><rect fill="#E3E3E3" height="45.2813" rx="2.5" ry="2.5" style="stroke:#181818;stroke-width:0.5;" width="97" x="849" y="34.3594"/><text fill="#000000" font-family="sans-serif" font-size="14" lengthAdjust="spacing" textLength="74" x="860.5" y="54.0332">repositories</text><text fill="#000000" font-family="sans-serif" font-size="14" lengthAdjust="spacing" textLength="83" x="856" y="69.6738">:Repositories</text><rect fill="#E3E3E3" height="45.2813" rx="2.5" ry="2.5" style="stroke:#181818;stroke-width:0.5;" width="97" x="849" y="939.4609"/><text fill="#000000" font-family="sans-serif" font-size="14" lengthAdjust="spacing" textLength="74" x="860.5" y="959.1348">repositories</text><text fill="#000000" font-family="sans-serif" font-size="14" lengthAdjust="spacing" textLength="83" x="856" y="974.7754">:Repositories</text><rect fill="#E3E3E3" height="45.2813" rx="2.5" ry="2.5" style="stroke:#181818;stroke-width:0.5;" width="161" x="956" y="34.3594"/><text fill="#000000" font-family="sans-serif" font-size="14" lengthAdjust="spacing" textLength="143" x="965" y="54.0332">collaboratorRepository</text><text fill="#000000" font-family="sans-serif" font-size="14" lengthAdjust="spacing" textLength="147" x="963" y="69.6738">:collaboratorRepository</text><rect fill="#E3E3E3" height="45.2813" rx="2.5" ry="2.5" style="stroke:#181818;stroke-width:0.5;" width="161" x="956" y="939.4609"/><text fill="#000000" font-family="sans-serif" font-size="14" lengthAdjust="spacing" textLength="143" x="965" y="959.1348">collaboratorRepository</text><text fill="#000000" font-family="sans-serif" font-size="14" lengthAdjust="spacing" textLength="147" x="963" y="974.7754">:collaboratorRepository</text><rect fill="#E3E3E3" height="45.2813" rx="2.5" ry="2.5" style="stroke:#181818;stroke-width:0.5;" width="109" x="1127" y="34.3594"/><text fill="#000000" font-family="sans-serif" font-size="14" lengthAdjust="spacing" textLength="91" x="1136" y="54.0332">skillRepository</text><text fill="#000000" font-family="sans-serif" font-size="14" lengthAdjust="spacing" textLength="95" x="1134" y="69.6738">:skillRepository</text><rect fill="#E3E3E3" height="45.2813" rx="2.5" ry="2.5" style="stroke:#181818;stroke-width:0.5;" width="109" x="1127" y="939.4609"/><text fill="#000000" font-family="sans-serif" font-size="14" lengthAdjust="spacing" textLength="91" x="1136" y="959.1348">skillRepository</text><text fill="#000000" font-family="sans-serif" font-size="14" lengthAdjust="spacing" textLength="95" x="1134" y="974.7754">:skillRepository</text><rect fill="#E3E3E3" height="45.2813" rx="2.5" ry="2.5" style="stroke:#181818;stroke-width:0.5;" width="117" x="1246" y="34.3594"/><text fill="#000000" font-family="sans-serif" font-size="14" lengthAdjust="spacing" textLength="99" x="1255" y="54.0332">teamRepository</text><text fill="#000000" font-family="sans-serif" font-size="14" lengthAdjust="spacing" textLength="103" x="1253" y="69.6738">:teamRepository</text><rect fill="#E3E3E3" height="45.2813" rx="2.5" ry="2.5" style="stroke:#181818;stroke-width:0.5;" width="117" x="1246" y="939.4609"/><text fill="#000000" font-family="sans-serif" font-size="14" lengthAdjust="spacing" textLength="99" x="1255" y="959.1348">teamRepository</text><text fill="#000000" font-family="sans-serif" font-size="14" lengthAdjust="spacing" textLength="103" x="1253" y="974.7754">:teamRepository</text><rect fill="#FFFFFF" height="831.8203" style="stroke:#181818;stroke-width:1.0;" width="10" x="91" y="90.6406"/><rect fill="#FFFFFF" height="43.0469" style="stroke:#181818;stroke-width:1.0;" width="10" x="394" y="125.6875"/><rect fill="#FFFFFF" height="57.5703" style="stroke:#181818;stroke-width:1.0;" width="10" x="394" y="197.2578"/><rect fill="#FFFFFF" height="639.1094" style="stroke:#181818;stroke-width:1.0;" width="10" x="394" y="283.3516"/><rect fill="#FFFFFF" height="517.8984" style="stroke:#181818;stroke-width:1.0;" width="10" x="611" y="376.0391"/><rect fill="#FFFFFF" height="28.5234" style="stroke:#181818;stroke-width:1.0;" width="10" x="785.5" y="404.5625"/><rect fill="#FFFFFF" height="28.5234" style="stroke:#181818;stroke-width:1.0;" width="10" x="892.5" y="461.6094"/><rect fill="#FFFFFF" height="28.5234" style="stroke:#181818;stroke-width:1.0;" width="10" x="892.5" y="575.7031"/><rect fill="#FFFFFF" height="28.5234" style="stroke:#181818;stroke-width:1.0;" width="10" x="892.5" y="689.7969"/><rect fill="#FFFFFF" height="28.5234" style="stroke:#181818;stroke-width:1.0;" width="10" x="1031.5" y="518.6563"/><rect fill="#FFFFFF" height="28.5234" style="stroke:#181818;stroke-width:1.0;" width="10" x="1176.5" y="632.75"/><rect fill="#FFFFFF" height="111.5703" style="stroke:#181818;stroke-width:1.0;" width="10" x="1299.5" y="746.8438"/><rect fill="#FFFFFF" height="39.5234" style="stroke:#181818;stroke-width:1.0;" width="10" x="1304.5" y="783.3672"/><polygon fill="#181818" points="382,121.6875,392,125.6875,382,129.6875,386,125.6875" style="stroke:#181818;stroke-width:1.0;"/><line style="stroke:#181818;stroke-width:1.0;" x1="101" x2="388" y1="125.6875" y2="125.6875"/><text fill="#000000" font-family="sans-serif" font-size="13" font-weight="bold" lengthAdjust="spacing" textLength="7" x="108" y="113.6709">1</text><text fill="#000000" font-family="sans-serif" font-size="13" lengthAdjust="spacing" textLength="218" x="119" y="106.4092">Requests an automatic submission of</text><text fill="#000000" font-family="sans-serif" font-size="13" lengthAdjust="spacing" textLength="93" x="123" y="120.9326">a team proposal</text><polygon fill="#181818" points="112,164.7344,102,168.7344,112,172.7344,108,168.7344" style="stroke:#181818;stroke-width:1.0;"/><line style="stroke:#181818;stroke-width:1.0;stroke-dasharray:2.0,2.0;" x1="106" x2="398" y1="168.7344" y2="168.7344"/><text fill="#000000" font-family="sans-serif" font-size="13" font-weight="bold" lengthAdjust="spacing" textLength="7" x="118" y="156.7178">2</text><text fill="#000000" font-family="sans-serif" font-size="13" lengthAdjust="spacing" textLength="247" x="129" y="149.4561">displays the users who are available, along</text><text fill="#000000" font-family="sans-serif" font-size="13" lengthAdjust="spacing" textLength="258" x="129" y="163.9795">with their respective roles, for team formation</text><polygon fill="#181818" points="382,193.2578,392,197.2578,382,201.2578,386,197.2578" style="stroke:#181818;stroke-width:1.0;"/><line style="stroke:#181818;stroke-width:1.0;" x1="101" x2="388" y1="197.2578" y2="197.2578"/><text fill="#000000" font-family="sans-serif" font-size="13" font-weight="bold" lengthAdjust="spacing" textLength="7" x="108" y="192.5029">3</text><text fill="#000000" font-family="sans-serif" font-size="13" lengthAdjust="spacing" textLength="71" x="119" y="192.5029">select users</text><polygon fill="#181818" points="112,250.8281,102,254.8281,112,258.8281,108,254.8281" style="stroke:#181818;stroke-width:1.0;"/><line style="stroke:#181818;stroke-width:1.0;stroke-dasharray:2.0,2.0;" x1="106" x2="398" y1="254.8281" y2="254.8281"/><text fill="#000000" font-family="sans-serif" font-size="13" font-weight="bold" lengthAdjust="spacing" textLength="7" x="118" y="235.5498">4</text><text fill="#000000" font-family="sans-serif" font-size="13" lengthAdjust="spacing" textLength="217" x="129" y="221.0264">asks for specifics regarding the team,</text><text fill="#000000" font-family="sans-serif" font-size="13" lengthAdjust="spacing" textLength="215" x="129" y="235.5498">such as the maximum team size and</text><text fill="#000000" font-family="sans-serif" font-size="13" lengthAdjust="spacing" textLength="80" x="133" y="250.0732">required skills</text><polygon fill="#181818" points="382,279.3516,392,283.3516,382,287.3516,386,283.3516" style="stroke:#181818;stroke-width:1.0;"/><line style="stroke:#181818;stroke-width:1.0;" x1="101" x2="388" y1="283.3516" y2="283.3516"/><text fill="#000000" font-family="sans-serif" font-size="13" font-weight="bold" lengthAdjust="spacing" textLength="7" x="108" y="278.5967">5</text><text fill="#000000" font-family="sans-serif" font-size="13" lengthAdjust="spacing" textLength="164" x="119" y="278.5967">offers details about the team</text><path d="M298,298.3516 L371,298.3516 L371,304.875 L361,314.875 L298,314.875 L298,298.3516 " fill="#EEEEEE" style="stroke:#000000;stroke-width:1.5;"/><rect fill="none" height="568.0625" style="stroke:#000000;stroke-width:1.5;" width="1142.5" x="298" y="298.3516"/><text fill="#000000" font-family="sans-serif" font-size="13" font-weight="bold" lengthAdjust="spacing" textLength="28" x="313" y="311.1201">loop</text><text fill="#000000" font-family="sans-serif" font-size="11" font-weight="bold" lengthAdjust="spacing" textLength="183" x="386" y="310.3096">[until team proposal is Accepted]</text><polygon fill="#181818" points="488,331.3984,498,335.3984,488,339.3984,492,335.3984" style="stroke:#181818;stroke-width:1.0;"/><line style="stroke:#181818;stroke-width:1.0;" x1="404" x2="494" y1="335.3984" y2="335.3984"/><text fill="#000000" font-family="sans-serif" font-size="13" font-weight="bold" lengthAdjust="spacing" textLength="7" x="411" y="330.6436">6</text><text fill="#000000" font-family="sans-serif" font-size="13" lengthAdjust="spacing" textLength="36" x="422" y="330.6436">create</text><rect fill="#E3E3E3" height="29.6406" rx="2.5" ry="2.5" style="stroke:#181818;stroke-width:0.5;" width="232" x="500" y="314.875"/><text fill="#000000" font-family="sans-serif" font-size="14" lengthAdjust="spacing" textLength="218" x="507" y="334.5488">:GenerateTeamProposalController</text><polygon fill="#181818" points="599,372.0391,609,376.0391,599,380.0391,603,376.0391" style="stroke:#181818;stroke-width:1.0;"/><line style="stroke:#181818;stroke-width:1.0;" x1="404" x2="605" y1="376.0391" y2="376.0391"/><text fill="#000000" font-family="sans-serif" font-size="13" font-weight="bold" lengthAdjust="spacing" textLength="7" x="411" y="371.2842">7</text><text fill="#000000" font-family="sans-serif" font-size="13" lengthAdjust="spacing" textLength="58" x="422" y="371.2842">getTeam()</text><polygon fill="#181818" points="773.5,400.5625,783.5,404.5625,773.5,408.5625,777.5,404.5625" style="stroke:#181818;stroke-width:1.0;"/><line style="stroke:#181818;stroke-width:1.0;" x1="621" x2="779.5" y1="404.5625" y2="404.5625"/><text fill="#000000" font-family="sans-serif" font-size="13" font-weight="bold" lengthAdjust="spacing" textLength="7" x="628" y="399.8076">8</text><text fill="#000000" font-family="sans-serif" font-size="13" lengthAdjust="spacing" textLength="75" x="639" y="399.8076">getInstance()</text><polygon fill="#181818" points="632,429.0859,622,433.0859,632,437.0859,628,433.0859" style="stroke:#181818;stroke-width:1.0;"/><line style="stroke:#181818;stroke-width:1.0;stroke-dasharray:2.0,2.0;" x1="626" x2="789.5" y1="433.0859" y2="433.0859"/><text fill="#000000" font-family="sans-serif" font-size="13" font-weight="bold" lengthAdjust="spacing" textLength="7" x="638" y="428.3311">9</text><text fill="#000000" font-family="sans-serif" font-size="13" lengthAdjust="spacing" textLength="67" x="649" y="428.3311">repositories</text><polygon fill="#181818" points="880.5,457.6094,890.5,461.6094,880.5,465.6094,884.5,461.6094" style="stroke:#181818;stroke-width:1.0;"/><line style="stroke:#181818;stroke-width:1.0;" x1="621" x2="886.5" y1="461.6094" y2="461.6094"/><text fill="#000000" font-family="sans-serif" font-size="13" font-weight="bold" lengthAdjust="spacing" textLength="14" x="628" y="456.8545">10</text><text fill="#000000" font-family="sans-serif" font-size="13" lengthAdjust="spacing" textLength="157" x="646" y="456.8545">getCollaboratorRepository()</text><polygon fill="#181818" points="632,486.1328,622,490.1328,632,494.1328,628,490.1328" style="stroke:#181818;stroke-width:1.0;"/><line style="stroke:#181818;stroke-width:1.0;stroke-dasharray:2.0,2.0;" x1="626" x2="896.5" y1="490.1328" y2="490.1328"/><text fill="#000000" font-family="sans-serif" font-size="13" font-weight="bold" lengthAdjust="spacing" textLength="14" x="638" y="485.3779">11</text><text fill="#000000" font-family="sans-serif" font-size="13" lengthAdjust="spacing" textLength="129" x="656" y="485.3779">collaboratorRepository</text><polygon fill="#181818" points="1019.5,514.6563,1029.5,518.6563,1019.5,522.6563,1023.5,518.6563" style="stroke:#181818;stroke-width:1.0;"/><line style="stroke:#181818;stroke-width:1.0;" x1="621" x2="1025.5" y1="518.6563" y2="518.6563"/><text fill="#000000" font-family="sans-serif" font-size="13" font-weight="bold" lengthAdjust="spacing" textLength="14" x="628" y="513.9014">12</text><text fill="#000000" font-family="sans-serif" font-size="13" lengthAdjust="spacing" textLength="95" x="646" y="513.9014">getCollaborator()</text><polygon fill="#181818" points="632,543.1797,622,547.1797,632,551.1797,628,547.1797" style="stroke:#181818;stroke-width:1.0;"/><line style="stroke:#181818;stroke-width:1.0;" x1="626" x2="1035.5" y1="547.1797" y2="547.1797"/><text fill="#000000" font-family="sans-serif" font-size="13" font-weight="bold" lengthAdjust="spacing" textLength="14" x="638" y="542.4248">13</text><text fill="#000000" font-family="sans-serif" font-size="13" lengthAdjust="spacing" textLength="67" x="656" y="542.4248">collaborator</text><polygon fill="#181818" points="880.5,571.7031,890.5,575.7031,880.5,579.7031,884.5,575.7031" style="stroke:#181818;stroke-width:1.0;"/><line style="stroke:#181818;stroke-width:1.0;" x1="621" x2="886.5" y1="575.7031" y2="575.7031"/><text fill="#000000" font-family="sans-serif" font-size="13" font-weight="bold" lengthAdjust="spacing" textLength="14" x="628" y="570.9482">14</text><text fill="#000000" font-family="sans-serif" font-size="13" lengthAdjust="spacing" textLength="113" x="646" y="570.9482">getSkillRepository()</text><polygon fill="#181818" points="632,600.2266,622,604.2266,632,608.2266,628,604.2266" style="stroke:#181818;stroke-width:1.0;"/><line style="stroke:#181818;stroke-width:1.0;stroke-dasharray:2.0,2.0;" x1="626" x2="896.5" y1="604.2266" y2="604.2266"/><text fill="#000000" font-family="sans-serif" font-size="13" font-weight="bold" lengthAdjust="spacing" textLength="14" x="638" y="599.4717">15</text><text fill="#000000" font-family="sans-serif" font-size="13" lengthAdjust="spacing" textLength="85" x="656" y="599.4717">skillRepository</text><polygon fill="#181818" points="1164.5,628.75,1174.5,632.75,1164.5,636.75,1168.5,632.75" style="stroke:#181818;stroke-width:1.0;"/><line style="stroke:#181818;stroke-width:1.0;" x1="621" x2="1170.5" y1="632.75" y2="632.75"/><text fill="#000000" font-family="sans-serif" font-size="13" font-weight="bold" lengthAdjust="spacing" textLength="14" x="628" y="627.9951">16</text><text fill="#000000" font-family="sans-serif" font-size="13" lengthAdjust="spacing" textLength="51" x="646" y="627.9951">getSkill()</text><polygon fill="#181818" points="632,657.2734,622,661.2734,632,665.2734,628,661.2734" style="stroke:#181818;stroke-width:1.0;"/><line style="stroke:#181818;stroke-width:1.0;" x1="626" x2="1180.5" y1="661.2734" y2="661.2734"/><text fill="#000000" font-family="sans-serif" font-size="13" font-weight="bold" lengthAdjust="spacing" textLength="14" x="638" y="656.5186">17</text><text fill="#000000" font-family="sans-serif" font-size="13" lengthAdjust="spacing" textLength="23" x="656" y="656.5186">skill</text><polygon fill="#181818" points="880.5,685.7969,890.5,689.7969,880.5,693.7969,884.5,689.7969" style="stroke:#181818;stroke-width:1.0;"/><line style="stroke:#181818;stroke-width:1.0;" x1="621" x2="886.5" y1="689.7969" y2="689.7969"/><text fill="#000000" font-family="sans-serif" font-size="13" font-weight="bold" lengthAdjust="spacing" textLength="14" x="628" y="685.042">18</text><text fill="#000000" font-family="sans-serif" font-size="13" lengthAdjust="spacing" textLength="120" x="646" y="685.042">getTeamRepository()</text><polygon fill="#181818" points="632,714.3203,622,718.3203,632,722.3203,628,718.3203" style="stroke:#181818;stroke-width:1.0;"/><line style="stroke:#181818;stroke-width:1.0;" x1="626" x2="896.5" y1="718.3203" y2="718.3203"/><text fill="#000000" font-family="sans-serif" font-size="13" font-weight="bold" lengthAdjust="spacing" textLength="14" x="638" y="713.5654">19</text><text fill="#000000" font-family="sans-serif" font-size="13" lengthAdjust="spacing" textLength="91" x="656" y="713.5654">teamRepository</text><polygon fill="#181818" points="1287.5,742.8438,1297.5,746.8438,1287.5,750.8438,1291.5,746.8438" style="stroke:#181818;stroke-width:1.0;"/><line style="stroke:#181818;stroke-width:1.0;" x1="621" x2="1293.5" y1="746.8438" y2="746.8438"/><text fill="#000000" font-family="sans-serif" font-size="13" font-weight="bold" lengthAdjust="spacing" textLength="14" x="628" y="742.0889">20</text><text fill="#000000" font-family="sans-serif" font-size="13" lengthAdjust="spacing" textLength="181" x="646" y="742.0889">registerTeam(collaborator, skill)</text><line style="stroke:#181818;stroke-width:1.0;" x1="1309.5" x2="1356.5" y1="770.3672" y2="770.3672"/><line style="stroke:#181818;stroke-width:1.0;" x1="1356.5" x2="1356.5" y1="770.3672" y2="783.3672"/><line style="stroke:#181818;stroke-width:1.0;" x1="1315.5" x2="1356.5" y1="783.3672" y2="783.3672"/><polygon fill="#181818" points="1325.5,779.3672,1315.5,783.3672,1325.5,787.3672,1321.5,783.3672" style="stroke:#181818;stroke-width:1.0;"/><text fill="#000000" font-family="sans-serif" font-size="13" font-weight="bold" lengthAdjust="spacing" textLength="14" x="1321.5" y="765.6123">21</text><text fill="#000000" font-family="sans-serif" font-size="13" lengthAdjust="spacing" textLength="83" x="1339.5" y="765.6123">validateTeam()</text><line style="stroke:#181818;stroke-width:1.0;stroke-dasharray:2.0,2.0;" x1="1314.5" x2="1356.5" y1="821.8906" y2="821.8906"/><line style="stroke:#181818;stroke-width:1.0;stroke-dasharray:2.0,2.0;" x1="1356.5" x2="1356.5" y1="821.8906" y2="834.8906"/><line style="stroke:#181818;stroke-width:1.0;stroke-dasharray:2.0,2.0;" x1="1309.5" x2="1356.5" y1="834.8906" y2="834.8906"/><polygon fill="#181818" points="1319.5,830.8906,1309.5,834.8906,1319.5,838.8906,1315.5,834.8906" style="stroke:#181818;stroke-width:1.0;"/><text fill="#000000" font-family="sans-serif" font-size="13" font-weight="bold" lengthAdjust="spacing" textLength="14" x="1321.5" y="817.1357">22</text><text fill="#000000" font-family="sans-serif" font-size="13" lengthAdjust="spacing" textLength="89" x="1339.5" y="817.1357">validation result</text><polygon fill="#181818" points="632,854.4141,622,858.4141,632,862.4141,628,858.4141" style="stroke:#181818;stroke-width:1.0;"/><line style="stroke:#181818;stroke-width:1.0;" x1="626" x2="1303.5" y1="858.4141" y2="858.4141"/><text fill="#000000" font-family="sans-serif" font-size="13" font-weight="bold" lengthAdjust="spacing" textLength="14" x="638" y="853.6592">23</text><text fill="#000000" font-family="sans-serif" font-size="13" lengthAdjust="spacing" textLength="117" x="656" y="853.6592">validation completed</text><polygon fill="#181818" points="415,889.9375,405,893.9375,415,897.9375,411,893.9375" style="stroke:#181818;stroke-width:1.0;"/><line style="stroke:#181818;stroke-width:1.0;stroke-dasharray:2.0,2.0;" x1="409" x2="615" y1="893.9375" y2="893.9375"/><text fill="#000000" font-family="sans-serif" font-size="13" font-weight="bold" lengthAdjust="spacing" textLength="14" x="421" y="889.1826">24</text><text fill="#000000" font-family="sans-serif" font-size="13" lengthAdjust="spacing" textLength="151" x="439" y="889.1826">display message success</text><polygon fill="#181818" points="107,918.4609,97,922.4609,107,926.4609,103,922.4609" style="stroke:#181818;stroke-width:1.0;"/><line style="stroke:#181818;stroke-width:1.0;stroke-dasharray:2.0,2.0;" x1="101" x2="398" y1="922.4609" y2="922.4609"/><text fill="#000000" font-family="sans-serif" font-size="13" font-weight="bold" lengthAdjust="spacing" textLength="14" x="113" y="917.7061">25</text><text fill="#000000" font-family="sans-serif" font-size="13" lengthAdjust="spacing" textLength="158" x="131" y="917.7061">displays operation success</text><!--SRC=[ZLLDJ-Cm4BtdLumuiQZyWHwGKBLQa42gsd3ZuZhJri8VMOyDo_xw7Jjfi4iBUwbIP-QzD-Dv4tfHjXTU633EEhdtpY047x6XwKqlv8lOuJgyQmIFCWYxqsK0xKNdtfJTmLPemgOHCJWRpGOzFylWF5pSHICih91Sz1897eLbJ7y1Wk1kzTWmKb1IzS86k9Z_GejU16nHcALtlIEXd-vpyDFzVyGkd0tUQJqIBDhLmr7M2ZbGiJI5b6DMFvTrY2yYdktdXEN3RLjdI6OK6yTYd9_2tpdtz8j1sYTUxglMLVhHISvRVyeBN7-LLX_ah3PbfIjHhzontFY6V-3wXliASxwVtn4f4F1TfKiqWl61uiOe8kKik2qyyoj8sD2FtVu0vCjf6EYQyHBi73f5lHRl166F40azmTlUWV08ubKexeh66GZjU7YUxPiA-nIfFCyPzPXWUUISHfh1biSeq_93qkLiqs75N5P2g3bzeFn2dw0NoiY9JMsL96RU2T-bQKwQ4-ECfL6K-zJ1T6R47sMY6TIG-ikrs8xRuhbxocC7-SBeAtbkkqszw31m4xZT6nV3n5VhrSxr46rGkkuwA89RAR4Fs0rLtUH1lxfYVEcHynluEER37OPaaiiVnGXaQpHDZk18deyXyDuI-rmY1q-nQNXImFK7P6cIijuyPmVGv9G1TN7I22L7TbLEA5XE-wVaosaJuM8geoGiQRBjSjXfbX9xSQQOTMtBRwiuil5v-Uj9VgOeWRFjrxNkZ5kYhSy8Rgk5S4Rl15klZ_Dgsq4jsqPHG9ydh6pbR11Oi0rRg6d7CaQ0Lw5LD-xno-FezZ1tTN1QIRmfeWwblYFyiPuYHJhJQqo-ESv2snqgErXrN65Wa8W_MRmDsNHKJVjeejERp_NfyvHeJsGcWnT_qqB-1m00]--></g></svg>