<svg xmlns="http://www.w3.org/2000/svg" xmlns:xlink="http://www.w3.org/1999/xlink" contentStyleType="text/css" height="652.8px" preserveAspectRatio="none" style="width:1544px;height:652px;background:#FFFFFF;" version="1.1" viewBox="0 0 1544 652" width="1544px" zoomAndPan="magnify"><defs/><g><!--cluster shodrone--><g id="cluster_shodrone"><path d="M6.8,4.8109 L58.6234,4.8109 A3,3 0 0 1 60.6234,6.8109 L66.2234,24.5078 L1536.4,24.5078 A2,2 0 0 1 1538.4,26.5078 L1538.4,645.2109 A2,2 0 0 1 1536.4,647.2109 L6.8,647.2109 A2,2 0 0 1 4.8,645.2109 L4.8,6.8109 A2,2 0 0 1 6.8,4.8109 " fill="#D6EAF8" style="stroke:#000000;stroke-width:1.2000000000000002;"/><line style="stroke:#000000;stroke-width:1.2000000000000002;" x1="4.8" x2="66.2234" y1="24.5078" y2="24.5078"/><text fill="#000000" font-family="sans-serif" font-size="11.2" font-weight="bold" lengthAdjust="spacing" textLength="51.0234" x="8" y="18.4969">shodrone</text></g><!--cluster core--><g id="cluster_core"><path d="M26,40.8109 L50.4578,40.8109 A3,3 0 0 1 52.4578,42.8109 L58.0578,60.5078 L1517.2,60.5078 A2,2 0 0 1 1519.2,62.5078 L1519.2,626.0109 A2,2 0 0 1 1517.2,628.0109 L26,628.0109 A2,2 0 0 1 24,626.0109 L24,42.8109 A2,2 0 0 1 26,40.8109 " fill="#D6EAF8" style="stroke:#000000;stroke-width:1.2000000000000002;"/><line style="stroke:#000000;stroke-width:1.2000000000000002;" x1="24" x2="58.0578" y1="60.5078" y2="60.5078"/><text fill="#000000" font-family="sans-serif" font-size="11.2" font-weight="bold" lengthAdjust="spacing" textLength="23.6578" x="27.2" y="54.4969">core</text></g><!--cluster showproposalmanagement--><g id="cluster_showproposalmanagement"><path d="M530,76.8109 L675.8039,76.8109 A3,3 0 0 1 677.8039,78.8109 L683.4039,96.5078 L1498,96.5078 A2,2 0 0 1 1500,98.5078 L1500,606.8109 A2,2 0 0 1 1498,608.8109 L530,608.8109 A2,2 0 0 1 528,606.8109 L528,78.8109 A2,2 0 0 1 530,76.8109 " fill="#D6EAF8" style="stroke:#000000;stroke-width:1.2000000000000002;"/><line style="stroke:#000000;stroke-width:1.2000000000000002;" x1="528" x2="683.4039" y1="96.5078" y2="96.5078"/><text fill="#000000" font-family="sans-serif" font-size="11.2" font-weight="bold" lengthAdjust="spacing" textLength="145.0039" x="531.2" y="90.4969">showproposalmanagement</text></g><!--cluster domain--><g id="cluster_domain"><path d="M549.2,327.2109 L589.8234,327.2109 A3,3 0 0 1 591.8234,329.2109 L597.4234,346.9078 L1478.8,346.9078 A2,2 0 0 1 1480.8,348.9078 L1480.8,587.6109 A2,2 0 0 1 1478.8,589.6109 L549.2,589.6109 A2,2 0 0 1 547.2,587.6109 L547.2,329.2109 A2,2 0 0 1 549.2,327.2109 " fill="#D6EAF8" style="stroke:#000000;stroke-width:1.2000000000000002;"/><line style="stroke:#000000;stroke-width:1.2000000000000002;" x1="547.2" x2="597.4234" y1="346.9078" y2="346.9078"/><text fill="#000000" font-family="sans-serif" font-size="11.2" font-weight="bold" lengthAdjust="spacing" textLength="39.8234" x="550.4" y="340.8969">domain</text><text fill="#000000" font-family="sans-serif" font-size="11.2" font-style="italic" lengthAdjust="spacing" textLength="64.143" x="985.1285" y="360.5938">&#171;Aggregate&#187;</text></g><!--cluster service--><g id="cluster_service"><path d="M871.6,112.8109 L911.0148,112.8109 A3,3 0 0 1 913.0148,114.8109 L918.6148,132.5078 L1243.6,132.5078 A2,2 0 0 1 1245.6,134.5078 L1245.6,306.0109 A2,2 0 0 1 1243.6,308.0109 L871.6,308.0109 A2,2 0 0 1 869.6,306.0109 L869.6,114.8109 A2,2 0 0 1 871.6,112.8109 " fill="#D6EAF8" style="stroke:#000000;stroke-width:1.2000000000000002;"/><line style="stroke:#000000;stroke-width:1.2000000000000002;" x1="869.6" x2="918.6148" y1="132.5078" y2="132.5078"/><text fill="#000000" font-family="sans-serif" font-size="11.2" font-weight="bold" lengthAdjust="spacing" textLength="38.6148" x="872.8" y="126.4969">service</text></g><!--cluster repository--><g id="cluster_repository"><path d="M674.8,170.0109 L730.3695,170.0109 A3,3 0 0 1 732.3695,172.0109 L737.9695,189.7078 L848.4,189.7078 A2,2 0 0 1 850.4,191.7078 L850.4,248.8109 A2,2 0 0 1 848.4,250.8109 L674.8,250.8109 A2,2 0 0 1 672.8,248.8109 L672.8,172.0109 A2,2 0 0 1 674.8,170.0109 " fill="#D6EAF8" style="stroke:#000000;stroke-width:1.2000000000000002;"/><line style="stroke:#000000;stroke-width:1.2000000000000002;" x1="672.8" x2="737.9695" y1="189.7078" y2="189.7078"/><text fill="#000000" font-family="sans-serif" font-size="11.2" font-weight="bold" lengthAdjust="spacing" textLength="54.7695" x="676" y="183.6969">repository</text></g><!--cluster showmanagement--><g id="cluster_showmanagement"><path d="M45.2,114.0109 L143.7102,114.0109 A3,3 0 0 1 145.7102,116.0109 L151.3102,133.7078 L506.8,133.7078 A2,2 0 0 1 508.8,135.7078 L508.8,606.8109 A2,2 0 0 1 506.8,608.8109 L45.2,608.8109 A2,2 0 0 1 43.2,606.8109 L43.2,116.0109 A2,2 0 0 1 45.2,114.0109 " fill="#D6EAF8" style="stroke:#000000;stroke-width:1.2000000000000002;"/><line style="stroke:#000000;stroke-width:1.2000000000000002;" x1="43.2" x2="151.3102" y1="133.7078" y2="133.7078"/><text fill="#000000" font-family="sans-serif" font-size="11.2" font-weight="bold" lengthAdjust="spacing" textLength="97.7102" x="46.4" y="127.6969">showmanagement</text></g><!--cluster domain--><g id="cluster_domain"><path d="M93.2,327.2109 L133.8234,327.2109 A3,3 0 0 1 135.8234,329.2109 L141.4234,346.9078 L487.6,346.9078 A2,2 0 0 1 489.6,348.9078 L489.6,587.6109 A2,2 0 0 1 487.6,589.6109 L93.2,589.6109 A2,2 0 0 1 91.2,587.6109 L91.2,329.2109 A2,2 0 0 1 93.2,327.2109 " fill="#D6EAF8" style="stroke:#000000;stroke-width:1.2000000000000002;"/><line style="stroke:#000000;stroke-width:1.2000000000000002;" x1="91.2" x2="141.4234" y1="346.9078" y2="346.9078"/><text fill="#000000" font-family="sans-serif" font-size="11.2" font-weight="bold" lengthAdjust="spacing" textLength="39.8234" x="94.4" y="340.8969">domain</text><text fill="#000000" font-family="sans-serif" font-size="11.2" font-style="italic" lengthAdjust="spacing" textLength="64.143" x="261.5285" y="360.5938">&#171;Aggregate&#187;</text></g><!--cluster service--><g id="cluster_service"><path d="M216.4,150.0109 L255.8148,150.0109 A3,3 0 0 1 257.8148,152.0109 L263.4148,169.7078 L487.6,169.7078 A2,2 0 0 1 489.6,171.7078 L489.6,268.8109 A2,2 0 0 1 487.6,270.8109 L216.4,270.8109 A2,2 0 0 1 214.4,268.8109 L214.4,152.0109 A2,2 0 0 1 216.4,150.0109 " fill="#D6EAF8" style="stroke:#000000;stroke-width:1.2000000000000002;"/><line style="stroke:#000000;stroke-width:1.2000000000000002;" x1="214.4" x2="263.4148" y1="169.7078" y2="169.7078"/><text fill="#000000" font-family="sans-serif" font-size="11.2" font-weight="bold" lengthAdjust="spacing" textLength="38.6148" x="217.6" y="163.6969">service</text></g><!--cluster repository--><g id="cluster_repository"><path d="M64.4,170.0109 L119.9695,170.0109 A3,3 0 0 1 121.9695,172.0109 L127.5695,189.7078 L193.2,189.7078 A2,2 0 0 1 195.2,191.7078 L195.2,248.8109 A2,2 0 0 1 193.2,250.8109 L64.4,250.8109 A2,2 0 0 1 62.4,248.8109 L62.4,172.0109 A2,2 0 0 1 64.4,170.0109 " fill="#D6EAF8" style="stroke:#000000;stroke-width:1.2000000000000002;"/><line style="stroke:#000000;stroke-width:1.2000000000000002;" x1="62.4" x2="127.5695" y1="189.7078" y2="189.7078"/><text fill="#000000" font-family="sans-serif" font-size="11.2" font-weight="bold" lengthAdjust="spacing" textLength="54.7695" x="65.6" y="183.6969">repository</text></g><!--class ShowProposal--><g id="elem_ShowProposal"><rect codeLine="14" fill="#F1F1F1" height="48.4656" id="ShowProposal" rx="2" ry="2" style="stroke:#181818;stroke-width:0.4000000000000001;" width="127.0016" x="750" y="372.0109"/><ellipse cx="762" cy="389.8438" fill="#ADD1B2" rx="8.8" ry="8.8" style="stroke:#181818;stroke-width:0.8000000000000002;"/><path d="M764.2125,386.5438 Q764.3375,386.3688 764.4875,386.2813 Q764.6375,386.1938 764.8125,386.1938 Q765.1125,386.1938 765.3,386.4063 Q765.4875,386.6063 765.4875,387.0938 L765.4875,388.2563 Q765.4875,388.7438 765.3,388.9563 Q765.1125,389.1688 764.8125,389.1688 Q764.5375,389.1688 764.375,389.0063 Q764.2125,388.8563 764.125,388.4438 Q764.0875,388.1563 763.9375,388.0063 Q763.675,387.7063 763.1875,387.5313 Q762.7,387.3563 762.2,387.3563 Q761.5875,387.3563 761.075,387.6188 Q760.575,387.8813 760.175,388.4813 Q759.7875,389.0813 759.7875,389.9063 L759.7875,390.7813 Q759.7875,391.7688 760.5,392.4313 Q761.2125,393.0813 762.4875,393.0813 Q763.2375,393.0813 763.7625,392.8813 Q764.075,392.7563 764.4125,392.4063 Q764.625,392.1938 764.7375,392.1313 Q764.8625,392.0688 765.025,392.0688 Q765.2875,392.0688 765.4875,392.2813 Q765.7,392.4813 765.7,392.7563 Q765.7,393.0313 765.425,393.3563 Q765.025,393.8188 764.3875,394.0813 Q763.525,394.4438 762.4875,394.4438 Q761.275,394.4438 760.3125,393.9438 Q759.525,393.5438 758.975,392.6938 Q758.425,391.8313 758.425,390.8063 L758.425,389.8813 Q758.425,388.8188 758.9125,387.9063 Q759.4125,386.9813 760.2875,386.4938 Q761.1625,385.9938 762.15,385.9938 Q762.7375,385.9938 763.25,386.1313 Q763.775,386.2563 764.2125,386.5438 Z " fill="#000000"/><text fill="#000000" font-family="sans-serif" font-size="9.6" font-style="italic" lengthAdjust="spacing" textLength="104.6016" x="771.6" y="386.3703">&#171;Entity, AggregateRoot&#187;</text><text fill="#000000" font-family="sans-serif" font-size="11.2" lengthAdjust="spacing" textLength="72.2203" x="787.7906" y="400.8656">ShowProposal</text><line style="stroke:#181818;stroke-width:0.4000000000000001;" x1="750.8" x2="876.2016" y1="407.6766" y2="407.6766"/><line style="stroke:#181818;stroke-width:0.4000000000000001;" x1="750.8" x2="876.2016" y1="414.0766" y2="414.0766"/></g><!--class ShowProposalID--><g id="elem_ShowProposalID"><rect codeLine="15" fill="#F1F1F1" height="48.4656" id="ShowProposalID" rx="2" ry="2" style="stroke:#181818;stroke-width:0.4000000000000001;" width="109.0203" x="560" y="498.4109"/><ellipse cx="572" cy="516.2438" fill="#ADD1B2" rx="8.8" ry="8.8" style="stroke:#181818;stroke-width:0.8000000000000002;"/><path d="M574.2125,512.9438 Q574.3375,512.7688 574.4875,512.6813 Q574.6375,512.5938 574.8125,512.5938 Q575.1125,512.5938 575.3,512.8063 Q575.4875,513.0063 575.4875,513.4938 L575.4875,514.6563 Q575.4875,515.1438 575.3,515.3563 Q575.1125,515.5688 574.8125,515.5688 Q574.5375,515.5688 574.375,515.4063 Q574.2125,515.2563 574.125,514.8438 Q574.0875,514.5563 573.9375,514.4063 Q573.675,514.1063 573.1875,513.9313 Q572.7,513.7563 572.2,513.7563 Q571.5875,513.7563 571.075,514.0188 Q570.575,514.2813 570.175,514.8813 Q569.7875,515.4813 569.7875,516.3063 L569.7875,517.1813 Q569.7875,518.1688 570.5,518.8313 Q571.2125,519.4813 572.4875,519.4813 Q573.2375,519.4813 573.7625,519.2813 Q574.075,519.1563 574.4125,518.8063 Q574.625,518.5938 574.7375,518.5313 Q574.8625,518.4688 575.025,518.4688 Q575.2875,518.4688 575.4875,518.6813 Q575.7,518.8813 575.7,519.1563 Q575.7,519.4313 575.425,519.7563 Q575.025,520.2188 574.3875,520.4813 Q573.525,520.8438 572.4875,520.8438 Q571.275,520.8438 570.3125,520.3438 Q569.525,519.9438 568.975,519.0938 Q568.425,518.2313 568.425,517.2063 L568.425,516.2813 Q568.425,515.2188 568.9125,514.3063 Q569.4125,513.3813 570.2875,512.8938 Q571.1625,512.3938 572.15,512.3938 Q572.7375,512.3938 573.25,512.5313 Q573.775,512.6563 574.2125,512.9438 Z " fill="#000000"/><text fill="#000000" font-family="sans-serif" font-size="9.6" font-style="italic" lengthAdjust="spacing" textLength="62.9766" x="593.4219" y="512.7703">&#171;ValueObject&#187;</text><text fill="#000000" font-family="sans-serif" font-size="11.2" lengthAdjust="spacing" textLength="83.4203" x="583.2" y="527.2656">ShowProposalID</text><line style="stroke:#181818;stroke-width:0.4000000000000001;" x1="560.8" x2="668.2203" y1="534.0766" y2="534.0766"/><line style="stroke:#181818;stroke-width:0.4000000000000001;" x1="560.8" x2="668.2203" y1="540.4766" y2="540.4766"/></g><!--class Video--><g id="elem_Video"><rect codeLine="16" fill="#F1F1F1" height="48.4656" id="Video" rx="2" ry="2" style="stroke:#181818;stroke-width:0.4000000000000001;" width="85.3766" x="697.2" y="498.4109"/><ellipse cx="709.2" cy="516.2438" fill="#ADD1B2" rx="8.8" ry="8.8" style="stroke:#181818;stroke-width:0.8000000000000002;"/><path d="M711.4125,512.9438 Q711.5375,512.7688 711.6875,512.6813 Q711.8375,512.5938 712.0125,512.5938 Q712.3125,512.5938 712.5,512.8063 Q712.6875,513.0063 712.6875,513.4938 L712.6875,514.6563 Q712.6875,515.1438 712.5,515.3563 Q712.3125,515.5688 712.0125,515.5688 Q711.7375,515.5688 711.575,515.4063 Q711.4125,515.2563 711.325,514.8438 Q711.2875,514.5563 711.1375,514.4063 Q710.875,514.1063 710.3875,513.9313 Q709.9,513.7563 709.4,513.7563 Q708.7875,513.7563 708.275,514.0188 Q707.775,514.2813 707.375,514.8813 Q706.9875,515.4813 706.9875,516.3063 L706.9875,517.1813 Q706.9875,518.1688 707.7,518.8313 Q708.4125,519.4813 709.6875,519.4813 Q710.4375,519.4813 710.9625,519.2813 Q711.275,519.1563 711.6125,518.8063 Q711.825,518.5938 711.9375,518.5313 Q712.0625,518.4688 712.225,518.4688 Q712.4875,518.4688 712.6875,518.6813 Q712.9,518.8813 712.9,519.1563 Q712.9,519.4313 712.625,519.7563 Q712.225,520.2188 711.5875,520.4813 Q710.725,520.8438 709.6875,520.8438 Q708.475,520.8438 707.5125,520.3438 Q706.725,519.9438 706.175,519.0938 Q705.625,518.2313 705.625,517.2063 L705.625,516.2813 Q705.625,515.2188 706.1125,514.3063 Q706.6125,513.3813 707.4875,512.8938 Q708.3625,512.3938 709.35,512.3938 Q709.9375,512.3938 710.45,512.5313 Q710.975,512.6563 711.4125,512.9438 Z " fill="#000000"/><text fill="#000000" font-family="sans-serif" font-size="9.6" font-style="italic" lengthAdjust="spacing" textLength="62.9766" x="718.8" y="512.7703">&#171;ValueObject&#187;</text><text fill="#000000" font-family="sans-serif" font-size="11.2" lengthAdjust="spacing" textLength="28.6453" x="735.9656" y="527.2656">Video</text><line style="stroke:#181818;stroke-width:0.4000000000000001;" x1="698" x2="781.7766" y1="534.0766" y2="534.0766"/><line style="stroke:#181818;stroke-width:0.4000000000000001;" x1="698" x2="781.7766" y1="540.4766" y2="540.4766"/></g><!--class ShowProposalTotalDrone--><g id="elem_ShowProposalTotalDrone"><rect codeLine="17" fill="#F1F1F1" height="48.4656" id="ShowProposalTotalDrone" rx="2" ry="2" style="stroke:#181818;stroke-width:0.4000000000000001;" width="153.2242" x="811.2" y="498.4109"/><ellipse cx="823.2" cy="516.2438" fill="#ADD1B2" rx="8.8" ry="8.8" style="stroke:#181818;stroke-width:0.8000000000000002;"/><path d="M825.4125,512.9438 Q825.5375,512.7688 825.6875,512.6813 Q825.8375,512.5938 826.0125,512.5938 Q826.3125,512.5938 826.5,512.8063 Q826.6875,513.0063 826.6875,513.4938 L826.6875,514.6563 Q826.6875,515.1438 826.5,515.3563 Q826.3125,515.5688 826.0125,515.5688 Q825.7375,515.5688 825.575,515.4063 Q825.4125,515.2563 825.325,514.8438 Q825.2875,514.5563 825.1375,514.4063 Q824.875,514.1063 824.3875,513.9313 Q823.9,513.7563 823.4,513.7563 Q822.7875,513.7563 822.275,514.0188 Q821.775,514.2813 821.375,514.8813 Q820.9875,515.4813 820.9875,516.3063 L820.9875,517.1813 Q820.9875,518.1688 821.7,518.8313 Q822.4125,519.4813 823.6875,519.4813 Q824.4375,519.4813 824.9625,519.2813 Q825.275,519.1563 825.6125,518.8063 Q825.825,518.5938 825.9375,518.5313 Q826.0625,518.4688 826.225,518.4688 Q826.4875,518.4688 826.6875,518.6813 Q826.9,518.8813 826.9,519.1563 Q826.9,519.4313 826.625,519.7563 Q826.225,520.2188 825.5875,520.4813 Q824.725,520.8438 823.6875,520.8438 Q822.475,520.8438 821.5125,520.3438 Q820.725,519.9438 820.175,519.0938 Q819.625,518.2313 819.625,517.2063 L819.625,516.2813 Q819.625,515.2188 820.1125,514.3063 Q820.6125,513.3813 821.4875,512.8938 Q822.3625,512.3938 823.35,512.3938 Q823.9375,512.3938 824.45,512.5313 Q824.975,512.6563 825.4125,512.9438 Z " fill="#000000"/><text fill="#000000" font-family="sans-serif" font-size="9.6" font-style="italic" lengthAdjust="spacing" textLength="62.9766" x="866.7238" y="512.7703">&#171;ValueObject&#187;</text><text fill="#000000" font-family="sans-serif" font-size="11.2" lengthAdjust="spacing" textLength="127.6242" x="834.4" y="527.2656">ShowProposalTotalDrone</text><line style="stroke:#181818;stroke-width:0.4000000000000001;" x1="812" x2="963.6242" y1="534.0766" y2="534.0766"/><line style="stroke:#181818;stroke-width:0.4000000000000001;" x1="812" x2="963.6242" y1="540.4766" y2="540.4766"/></g><!--class ShowProposalDocument--><g id="elem_ShowProposalDocument"><rect codeLine="19" fill="#F1F1F1" height="93.1563" id="ShowProposalDocument" rx="2" ry="2" style="stroke:#181818;stroke-width:0.4000000000000001;" width="148.8656" x="992.8" y="476.4109"/><ellipse cx="1004.8" cy="494.2438" fill="#ADD1B2" rx="8.8" ry="8.8" style="stroke:#181818;stroke-width:0.8000000000000002;"/><path d="M1007.0125,490.9438 Q1007.1375,490.7688 1007.2875,490.6813 Q1007.4375,490.5938 1007.6125,490.5938 Q1007.9125,490.5938 1008.1,490.8063 Q1008.2875,491.0063 1008.2875,491.4938 L1008.2875,492.6563 Q1008.2875,493.1438 1008.1,493.3563 Q1007.9125,493.5688 1007.6125,493.5688 Q1007.3375,493.5688 1007.175,493.4063 Q1007.0125,493.2563 1006.925,492.8438 Q1006.8875,492.5563 1006.7375,492.4063 Q1006.475,492.1063 1005.9875,491.9313 Q1005.5,491.7563 1005,491.7563 Q1004.3875,491.7563 1003.875,492.0188 Q1003.375,492.2813 1002.975,492.8813 Q1002.5875,493.4813 1002.5875,494.3063 L1002.5875,495.1813 Q1002.5875,496.1688 1003.3,496.8313 Q1004.0125,497.4813 1005.2875,497.4813 Q1006.0375,497.4813 1006.5625,497.2813 Q1006.875,497.1563 1007.2125,496.8063 Q1007.425,496.5938 1007.5375,496.5313 Q1007.6625,496.4688 1007.825,496.4688 Q1008.0875,496.4688 1008.2875,496.6813 Q1008.5,496.8813 1008.5,497.1563 Q1008.5,497.4313 1008.225,497.7563 Q1007.825,498.2188 1007.1875,498.4813 Q1006.325,498.8438 1005.2875,498.8438 Q1004.075,498.8438 1003.1125,498.3438 Q1002.325,497.9438 1001.775,497.0938 Q1001.225,496.2313 1001.225,495.2063 L1001.225,494.2813 Q1001.225,493.2188 1001.7125,492.3063 Q1002.2125,491.3813 1003.0875,490.8938 Q1003.9625,490.3938 1004.95,490.3938 Q1005.5375,490.3938 1006.05,490.5313 Q1006.575,490.6563 1007.0125,490.9438 Z " fill="#000000"/><text fill="#000000" font-family="sans-serif" font-size="9.6" font-style="italic" lengthAdjust="spacing" textLength="62.9766" x="1046.1445" y="490.7703">&#171;ValueObject&#187;</text><text fill="#000000" font-family="sans-serif" font-size="11.2" lengthAdjust="spacing" textLength="123.2656" x="1016" y="505.2656">ShowProposalDocument</text><line style="stroke:#181818;stroke-width:0.4000000000000001;" x1="993.6" x2="1140.8656" y1="512.0766" y2="512.0766"/><rect fill="none" height="4.8" style="stroke:#C82930;stroke-width:0.8000000000000002;" width="4.8" x="999.2" y="521.525"/><text fill="#000000" font-family="sans-serif" font-size="11.2" lengthAdjust="spacing" textLength="60.3859" x="1008.8" y="527.3625">String name</text><rect fill="none" height="4.8" style="stroke:#C82930;stroke-width:0.8000000000000002;" width="4.8" x="999.2" y="536.4219"/><text fill="#000000" font-family="sans-serif" font-size="11.2" lengthAdjust="spacing" textLength="86.532" x="1008.8" y="542.2594">String description</text><rect fill="none" height="4.8" style="stroke:#C82930;stroke-width:0.8000000000000002;" width="4.8" x="999.2" y="551.3188"/><text fill="#000000" font-family="sans-serif" font-size="11.2" lengthAdjust="spacing" textLength="90.2672" x="1008.8" y="557.1563">String pluginClass</text><line style="stroke:#181818;stroke-width:0.4000000000000001;" x1="993.6" x2="1140.8656" y1="563.1672" y2="563.1672"/></g><!--class ShowProposalDuration--><g id="elem_ShowProposalDuration"><rect codeLine="25" fill="#F1F1F1" height="48.4656" id="ShowProposalDuration" rx="2" ry="2" style="stroke:#181818;stroke-width:0.4000000000000001;" width="140.1539" x="1170" y="498.4109"/><ellipse cx="1182" cy="516.2438" fill="#ADD1B2" rx="8.8" ry="8.8" style="stroke:#181818;stroke-width:0.8000000000000002;"/><path d="M1184.2125,512.9438 Q1184.3375,512.7688 1184.4875,512.6813 Q1184.6375,512.5938 1184.8125,512.5938 Q1185.1125,512.5938 1185.3,512.8063 Q1185.4875,513.0063 1185.4875,513.4938 L1185.4875,514.6563 Q1185.4875,515.1438 1185.3,515.3563 Q1185.1125,515.5688 1184.8125,515.5688 Q1184.5375,515.5688 1184.375,515.4063 Q1184.2125,515.2563 1184.125,514.8438 Q1184.0875,514.5563 1183.9375,514.4063 Q1183.675,514.1063 1183.1875,513.9313 Q1182.7,513.7563 1182.2,513.7563 Q1181.5875,513.7563 1181.075,514.0188 Q1180.575,514.2813 1180.175,514.8813 Q1179.7875,515.4813 1179.7875,516.3063 L1179.7875,517.1813 Q1179.7875,518.1688 1180.5,518.8313 Q1181.2125,519.4813 1182.4875,519.4813 Q1183.2375,519.4813 1183.7625,519.2813 Q1184.075,519.1563 1184.4125,518.8063 Q1184.625,518.5938 1184.7375,518.5313 Q1184.8625,518.4688 1185.025,518.4688 Q1185.2875,518.4688 1185.4875,518.6813 Q1185.7,518.8813 1185.7,519.1563 Q1185.7,519.4313 1185.425,519.7563 Q1185.025,520.2188 1184.3875,520.4813 Q1183.525,520.8438 1182.4875,520.8438 Q1181.275,520.8438 1180.3125,520.3438 Q1179.525,519.9438 1178.975,519.0938 Q1178.425,518.2313 1178.425,517.2063 L1178.425,516.2813 Q1178.425,515.2188 1178.9125,514.3063 Q1179.4125,513.3813 1180.2875,512.8938 Q1181.1625,512.3938 1182.15,512.3938 Q1182.7375,512.3938 1183.25,512.5313 Q1183.775,512.6563 1184.2125,512.9438 Z " fill="#000000"/><text fill="#000000" font-family="sans-serif" font-size="9.6" font-style="italic" lengthAdjust="spacing" textLength="62.9766" x="1218.9887" y="512.7703">&#171;ValueObject&#187;</text><text fill="#000000" font-family="sans-serif" font-size="11.2" lengthAdjust="spacing" textLength="114.5539" x="1193.2" y="527.2656">ShowProposalDuration</text><line style="stroke:#181818;stroke-width:0.4000000000000001;" x1="1170.8" x2="1309.3539" y1="534.0766" y2="534.0766"/><line style="stroke:#181818;stroke-width:0.4000000000000001;" x1="1170.8" x2="1309.3539" y1="540.4766" y2="540.4766"/></g><!--class ShowProposalStatus--><g id="elem_ShowProposalStatus"><rect codeLine="27" fill="#F1F1F1" height="108.0531" id="ShowProposalStatus" rx="2" ry="2" style="stroke:#181818;stroke-width:0.4000000000000001;" width="129.5719" x="1338.4" y="468.8109"/><ellipse cx="1350.4" cy="486.6438" fill="#EB937F" rx="8.8" ry="8.8" style="stroke:#181818;stroke-width:0.8000000000000002;"/><path d="M1349.4875,487.2813 L1349.4875,489.2813 L1352.95,489.2813 L1352.95,488.5438 Q1352.95,488.0563 1353.1375,487.8438 Q1353.3375,487.6313 1353.6375,487.6313 Q1353.9375,487.6313 1354.125,487.8438 Q1354.3125,488.0563 1354.3125,488.5438 L1354.3125,490.6438 L1347.9125,490.6438 Q1347.4125,490.6438 1347.2,490.4563 Q1347,490.2688 1347,489.9563 Q1347,489.6563 1347.2125,489.4688 Q1347.425,489.2813 1347.9125,489.2813 L1348.125,489.2813 L1348.125,483.9563 L1347.9125,483.9563 Q1347.4125,483.9563 1347.2,483.7688 Q1347,483.5813 1347,483.2688 Q1347,482.9688 1347.2,482.7813 Q1347.4125,482.5938 1347.9125,482.5938 L1354.0125,482.5938 L1354.0125,484.6688 Q1354.0125,485.1563 1353.825,485.3688 Q1353.65,485.5688 1353.3375,485.5688 Q1353.0375,485.5688 1352.85,485.3688 Q1352.6625,485.1563 1352.6625,484.6688 L1352.6625,483.9563 L1349.4875,483.9563 L1349.4875,485.9188 L1350.675,485.9188 Q1350.675,485.3938 1350.775,485.2438 Q1350.9875,484.9188 1351.3625,484.9188 Q1351.6625,484.9188 1351.85,485.1313 Q1352.0375,485.3313 1352.0375,485.8188 L1352.0375,487.3938 Q1352.0375,487.8313 1351.9375,487.9813 Q1351.725,488.2938 1351.3625,488.2938 Q1350.9875,488.2938 1350.775,487.9688 Q1350.675,487.8188 1350.675,487.2813 L1349.4875,487.2813 Z " fill="#000000"/><text fill="#000000" font-family="sans-serif" font-size="9.6" font-style="italic" lengthAdjust="spacing" textLength="35.7563" x="1395.7078" y="483.1703">&#171;Enum&#187;</text><text fill="#000000" font-family="sans-serif" font-size="11.2" lengthAdjust="spacing" textLength="103.9719" x="1361.6" y="497.6656">ShowProposalStatus</text><line style="stroke:#181818;stroke-width:0.4000000000000001;" x1="1339.2" x2="1467.1719" y1="504.4766" y2="504.4766"/><text fill="#000000" font-family="sans-serif" font-size="11.2" lengthAdjust="spacing" textLength="56.6289" x="1343.2" y="519.7625">CREATED,</text><text fill="#000000" font-family="sans-serif" font-size="11.2" lengthAdjust="spacing" textLength="32.982" x="1343.2" y="534.6594">SENT,</text><text fill="#000000" font-family="sans-serif" font-size="11.2" lengthAdjust="spacing" textLength="64.0992" x="1343.2" y="549.5563">ACCEPTED,</text><text fill="#000000" font-family="sans-serif" font-size="11.2" lengthAdjust="spacing" textLength="59.1172" x="1343.2" y="564.4531">REJECTED</text><line style="stroke:#181818;stroke-width:0.4000000000000001;" x1="1339.2" x2="1467.1719" y1="570.4641" y2="570.4641"/></g><!--class ShowProposalService--><g id="elem_ShowProposalService"><rect codeLine="39" fill="#F1F1F1" height="152.7438" id="ShowProposalService" rx="2" ry="2" style="stroke:#181818;stroke-width:0.4000000000000001;" width="349.5102" x="882.8" y="142.4109"/><ellipse cx="999.3719" cy="160.2438" fill="#ADD1B2" rx="8.8" ry="8.8" style="stroke:#181818;stroke-width:0.8000000000000002;"/><path d="M1001.5844,156.9438 Q1001.7094,156.7688 1001.8594,156.6813 Q1002.0094,156.5938 1002.1844,156.5938 Q1002.4844,156.5938 1002.6719,156.8063 Q1002.8594,157.0063 1002.8594,157.4938 L1002.8594,158.6563 Q1002.8594,159.1438 1002.6719,159.3563 Q1002.4844,159.5688 1002.1844,159.5688 Q1001.9094,159.5688 1001.7469,159.4063 Q1001.5844,159.2563 1001.4969,158.8438 Q1001.4594,158.5563 1001.3094,158.4063 Q1001.0469,158.1063 1000.5594,157.9313 Q1000.0719,157.7563 999.5719,157.7563 Q998.9594,157.7563 998.4469,158.0188 Q997.9469,158.2813 997.5469,158.8813 Q997.1594,159.4813 997.1594,160.3063 L997.1594,161.1813 Q997.1594,162.1688 997.8719,162.8313 Q998.5844,163.4813 999.8594,163.4813 Q1000.6094,163.4813 1001.1344,163.2813 Q1001.4469,163.1563 1001.7844,162.8063 Q1001.9969,162.5938 1002.1094,162.5313 Q1002.2344,162.4688 1002.3969,162.4688 Q1002.6594,162.4688 1002.8594,162.6813 Q1003.0719,162.8813 1003.0719,163.1563 Q1003.0719,163.4313 1002.7969,163.7563 Q1002.3969,164.2188 1001.7594,164.4813 Q1000.8969,164.8438 999.8594,164.8438 Q998.6469,164.8438 997.6844,164.3438 Q996.8969,163.9438 996.3469,163.0938 Q995.7969,162.2313 995.7969,161.2063 L995.7969,160.2813 Q995.7969,159.2188 996.2844,158.3063 Q996.7844,157.3813 997.6594,156.8938 Q998.5344,156.3938 999.5219,156.3938 Q1000.1094,156.3938 1000.6219,156.5313 Q1001.1469,156.6563 1001.5844,156.9438 Z " fill="#000000"/><text fill="#000000" font-family="sans-serif" font-size="9.6" font-style="italic" lengthAdjust="spacing" textLength="75.7688" x="1032.6707" y="156.7703">&#171;DomainService&#187;</text><text fill="#000000" font-family="sans-serif" font-size="11.2" lengthAdjust="spacing" textLength="109.5664" x="1015.7719" y="171.2656">ShowProposalService</text><line style="stroke:#181818;stroke-width:0.4000000000000001;" x1="883.6" x2="1231.5102" y1="178.0766" y2="178.0766"/><text fill="#000000" font-family="sans-serif" font-size="11.2" lengthAdjust="spacing" textLength="339.9102" x="887.6" y="193.3625">This domain service orchestrates the preparation of a show proposal</text><text fill="#000000" font-family="sans-serif" font-size="11.2" lengthAdjust="spacing" textLength="272.0594" x="887.6" y="208.2594">based on a specific ShowRequest. It is responsible for:</text><text fill="#000000" font-family="sans-serif" font-size="11.2" lengthAdjust="spacing" textLength="292.6055" x="887.6" y="223.1563">selecting figures from the catalogue or newly created ones,</text><text fill="#000000" font-family="sans-serif" font-size="11.2" lengthAdjust="spacing" textLength="257.1352" x="887.6" y="238.0531">assigning drones and mapping them to figure types,</text><text fill="#000000" font-family="sans-serif" font-size="11.2" lengthAdjust="spacing" textLength="257.1297" x="887.6" y="252.95">initiating and attaching a SimulationID for validation,</text><text fill="#000000" font-family="sans-serif" font-size="11.2" lengthAdjust="spacing" textLength="257.1242" x="887.6" y="267.8469">generating video previews and formatted templates,</text><text fill="#000000" font-family="sans-serif" font-size="11.2" lengthAdjust="spacing" textLength="298.8508" x="887.6" y="282.7438">and managing the proposal&#8217;s acceptance or rejection status.</text><line style="stroke:#181818;stroke-width:0.4000000000000001;" x1="883.6" x2="1231.5102" y1="288.7547" y2="288.7547"/></g><!--class ShowProposalRepository--><g id="elem_ShowProposalRepository"><rect codeLine="53" fill="#F1F1F1" height="38.4" id="ShowProposalRepository" rx="2" ry="2" style="stroke:#181818;stroke-width:0.4000000000000001;" width="151.3539" x="686" y="199.6109"/><ellipse cx="698" cy="212.4109" fill="#B4A7E5" rx="8.8" ry="8.8" style="stroke:#181818;stroke-width:0.8000000000000002;"/><path d="M698.7625,209.7234 L698.7625,215.0484 L700.1375,215.0484 Q700.625,215.0484 700.8375,215.2359 Q701.05,215.4234 701.05,215.7359 Q701.05,216.0359 700.8375,216.2234 Q700.625,216.4109 700.1375,216.4109 L696.025,216.4109 Q695.5375,216.4109 695.325,216.2234 Q695.1125,216.0359 695.1125,215.7234 Q695.1125,215.4234 695.325,215.2359 Q695.5375,215.0484 696.025,215.0484 L697.4,215.0484 L697.4,209.7234 L696.025,209.7234 Q695.5375,209.7234 695.325,209.5359 Q695.1125,209.3484 695.1125,209.0359 Q695.1125,208.7359 695.325,208.5484 Q695.5375,208.3609 696.025,208.3609 L700.1375,208.3609 Q700.625,208.3609 700.8375,208.5484 Q701.05,208.7359 701.05,209.0359 Q701.05,209.3484 700.8375,209.5359 Q700.625,209.7234 700.1375,209.7234 L698.7625,209.7234 Z " fill="#000000"/><text fill="#000000" font-family="sans-serif" font-size="11.2" font-style="italic" lengthAdjust="spacing" textLength="125.7539" x="709.2" y="217.0484">ShowProposalRepository</text><line style="stroke:#181818;stroke-width:0.4000000000000001;" x1="686.8" x2="836.5539" y1="225.2109" y2="225.2109"/><line style="stroke:#181818;stroke-width:0.4000000000000001;" x1="686.8" x2="836.5539" y1="231.6109" y2="231.6109"/></g><!--class Show--><g id="elem_Show"><rect codeLine="61" fill="#F1F1F1" height="48.4656" id="Show" rx="2" ry="2" style="stroke:#181818;stroke-width:0.4000000000000001;" width="127.0016" x="252.4" y="372.0109"/><ellipse cx="264.4" cy="389.8438" fill="#ADD1B2" rx="8.8" ry="8.8" style="stroke:#181818;stroke-width:0.8000000000000002;"/><path d="M263.4875,390.4813 L263.4875,392.4813 L266.95,392.4813 L266.95,391.7438 Q266.95,391.2563 267.1375,391.0438 Q267.3375,390.8313 267.6375,390.8313 Q267.9375,390.8313 268.125,391.0438 Q268.3125,391.2563 268.3125,391.7438 L268.3125,393.8438 L261.9125,393.8438 Q261.4125,393.8438 261.2,393.6563 Q261,393.4688 261,393.1563 Q261,392.8563 261.2125,392.6688 Q261.425,392.4813 261.9125,392.4813 L262.125,392.4813 L262.125,387.1563 L261.9125,387.1563 Q261.4125,387.1563 261.2,386.9688 Q261,386.7813 261,386.4688 Q261,386.1688 261.2,385.9813 Q261.4125,385.7938 261.9125,385.7938 L268.0125,385.7938 L268.0125,387.8688 Q268.0125,388.3563 267.825,388.5688 Q267.65,388.7688 267.3375,388.7688 Q267.0375,388.7688 266.85,388.5688 Q266.6625,388.3563 266.6625,387.8688 L266.6625,387.1563 L263.4875,387.1563 L263.4875,389.1188 L264.675,389.1188 Q264.675,388.5938 264.775,388.4438 Q264.9875,388.1188 265.3625,388.1188 Q265.6625,388.1188 265.85,388.3313 Q266.0375,388.5313 266.0375,389.0188 L266.0375,390.5938 Q266.0375,391.0313 265.9375,391.1813 Q265.725,391.4938 265.3625,391.4938 Q264.9875,391.4938 264.775,391.1688 Q264.675,391.0188 264.675,390.4813 L263.4875,390.4813 Z " fill="#000000"/><text fill="#000000" font-family="sans-serif" font-size="9.6" font-style="italic" lengthAdjust="spacing" textLength="104.6016" x="274" y="386.3703">&#171;Entity, AggregateRoot&#187;</text><text fill="#000000" font-family="sans-serif" font-size="11.2" lengthAdjust="spacing" textLength="28.0164" x="312.2926" y="400.8656">Show</text><line style="stroke:#181818;stroke-width:0.4000000000000001;" x1="253.2" x2="378.6016" y1="407.6766" y2="407.6766"/><line style="stroke:#181818;stroke-width:0.4000000000000001;" x1="253.2" x2="378.6016" y1="414.0766" y2="414.0766"/></g><!--class DomainDateTime--><g id="elem_DomainDateTime"><rect codeLine="62" fill="#F1F1F1" height="48.4656" id="DomainDateTime" rx="2" ry="2" style="stroke:#181818;stroke-width:0.4000000000000001;" width="112.7391" x="363.6" y="498.4109"/><ellipse cx="375.6" cy="516.2438" fill="#ADD1B2" rx="8.8" ry="8.8" style="stroke:#181818;stroke-width:0.8000000000000002;"/><path d="M377.8125,512.9438 Q377.9375,512.7688 378.0875,512.6813 Q378.2375,512.5938 378.4125,512.5938 Q378.7125,512.5938 378.9,512.8063 Q379.0875,513.0063 379.0875,513.4938 L379.0875,514.6563 Q379.0875,515.1438 378.9,515.3563 Q378.7125,515.5688 378.4125,515.5688 Q378.1375,515.5688 377.975,515.4063 Q377.8125,515.2563 377.725,514.8438 Q377.6875,514.5563 377.5375,514.4063 Q377.275,514.1063 376.7875,513.9313 Q376.3,513.7563 375.8,513.7563 Q375.1875,513.7563 374.675,514.0188 Q374.175,514.2813 373.775,514.8813 Q373.3875,515.4813 373.3875,516.3063 L373.3875,517.1813 Q373.3875,518.1688 374.1,518.8313 Q374.8125,519.4813 376.0875,519.4813 Q376.8375,519.4813 377.3625,519.2813 Q377.675,519.1563 378.0125,518.8063 Q378.225,518.5938 378.3375,518.5313 Q378.4625,518.4688 378.625,518.4688 Q378.8875,518.4688 379.0875,518.6813 Q379.3,518.8813 379.3,519.1563 Q379.3,519.4313 379.025,519.7563 Q378.625,520.2188 377.9875,520.4813 Q377.125,520.8438 376.0875,520.8438 Q374.875,520.8438 373.9125,520.3438 Q373.125,519.9438 372.575,519.0938 Q372.025,518.2313 372.025,517.2063 L372.025,516.2813 Q372.025,515.2188 372.5125,514.3063 Q373.0125,513.3813 373.8875,512.8938 Q374.7625,512.3938 375.75,512.3938 Q376.3375,512.3938 376.85,512.5313 Q377.375,512.6563 377.8125,512.9438 Z " fill="#000000"/><text fill="#000000" font-family="sans-serif" font-size="9.6" font-style="italic" lengthAdjust="spacing" textLength="62.9766" x="398.8813" y="512.7703">&#171;ValueObject&#187;</text><text fill="#000000" font-family="sans-serif" font-size="11.2" lengthAdjust="spacing" textLength="87.1391" x="386.8" y="527.2656">DomainDateTime</text><line style="stroke:#181818;stroke-width:0.4000000000000001;" x1="364.4" x2="475.5391" y1="534.0766" y2="534.0766"/><line style="stroke:#181818;stroke-width:0.4000000000000001;" x1="364.4" x2="475.5391" y1="540.4766" y2="540.4766"/></g><!--class ShowStatus--><g id="elem_ShowStatus"><rect codeLine="64" fill="#F1F1F1" height="108.0531" id="ShowStatus" rx="2" ry="2" style="stroke:#181818;stroke-width:0.4000000000000001;" width="93.6219" x="104.4" y="468.8109"/><ellipse cx="120.1143" cy="486.6438" fill="#EB937F" rx="8.8" ry="8.8" style="stroke:#181818;stroke-width:0.8000000000000002;"/><path d="M119.2018,487.2813 L119.2018,489.2813 L122.6643,489.2813 L122.6643,488.5438 Q122.6643,488.0563 122.8518,487.8438 Q123.0518,487.6313 123.3518,487.6313 Q123.6518,487.6313 123.8393,487.8438 Q124.0268,488.0563 124.0268,488.5438 L124.0268,490.6438 L117.6268,490.6438 Q117.1268,490.6438 116.9143,490.4563 Q116.7143,490.2688 116.7143,489.9563 Q116.7143,489.6563 116.9268,489.4688 Q117.1393,489.2813 117.6268,489.2813 L117.8393,489.2813 L117.8393,483.9563 L117.6268,483.9563 Q117.1268,483.9563 116.9143,483.7688 Q116.7143,483.5813 116.7143,483.2688 Q116.7143,482.9688 116.9143,482.7813 Q117.1268,482.5938 117.6268,482.5938 L123.7268,482.5938 L123.7268,484.6688 Q123.7268,485.1563 123.5393,485.3688 Q123.3643,485.5688 123.0518,485.5688 Q122.7518,485.5688 122.5643,485.3688 Q122.3768,485.1563 122.3768,484.6688 L122.3768,483.9563 L119.2018,483.9563 L119.2018,485.9188 L120.3893,485.9188 Q120.3893,485.3938 120.4893,485.2438 Q120.7018,484.9188 121.0768,484.9188 Q121.3768,484.9188 121.5643,485.1313 Q121.7518,485.3313 121.7518,485.8188 L121.7518,487.3938 Q121.7518,487.8313 121.6518,487.9813 Q121.4393,488.2938 121.0768,488.2938 Q120.7018,488.2938 120.4893,487.9688 Q120.3893,487.8188 120.3893,487.2813 L119.2018,487.2813 Z " fill="#000000"/><text fill="#000000" font-family="sans-serif" font-size="9.6" font-style="italic" lengthAdjust="spacing" textLength="35.7563" x="144.1455" y="483.1703">&#171;Enum&#187;</text><text fill="#000000" font-family="sans-serif" font-size="11.2" lengthAdjust="spacing" textLength="59.768" x="132.1396" y="497.6656">ShowStatus</text><line style="stroke:#181818;stroke-width:0.4000000000000001;" x1="105.2" x2="197.2219" y1="504.4766" y2="504.4766"/><text fill="#000000" font-family="sans-serif" font-size="11.2" lengthAdjust="spacing" textLength="72.193" x="109.2" y="519.7625">SCHEDULED,</text><text fill="#000000" font-family="sans-serif" font-size="11.2" lengthAdjust="spacing" textLength="84.0219" x="109.2" y="534.6594">IN_PROGRESS,</text><text fill="#000000" font-family="sans-serif" font-size="11.2" lengthAdjust="spacing" textLength="72.8109" x="109.2" y="549.5563">COMPLETED,</text><text fill="#000000" font-family="sans-serif" font-size="11.2" lengthAdjust="spacing" textLength="60.993" x="109.2" y="564.4531">CANCELED</text><line style="stroke:#181818;stroke-width:0.4000000000000001;" x1="105.2" x2="197.2219" y1="570.4641" y2="570.4641"/></g><!--class ShowDescription--><g id="elem_ShowDescription"><rect codeLine="71" fill="#F1F1F1" height="48.4656" id="ShowDescription" rx="2" ry="2" style="stroke:#181818;stroke-width:0.4000000000000001;" width="109.6383" x="226" y="498.4109"/><ellipse cx="238" cy="516.2438" fill="#ADD1B2" rx="8.8" ry="8.8" style="stroke:#181818;stroke-width:0.8000000000000002;"/><path d="M240.2125,512.9438 Q240.3375,512.7688 240.4875,512.6813 Q240.6375,512.5938 240.8125,512.5938 Q241.1125,512.5938 241.3,512.8063 Q241.4875,513.0063 241.4875,513.4938 L241.4875,514.6563 Q241.4875,515.1438 241.3,515.3563 Q241.1125,515.5688 240.8125,515.5688 Q240.5375,515.5688 240.375,515.4063 Q240.2125,515.2563 240.125,514.8438 Q240.0875,514.5563 239.9375,514.4063 Q239.675,514.1063 239.1875,513.9313 Q238.7,513.7563 238.2,513.7563 Q237.5875,513.7563 237.075,514.0188 Q236.575,514.2813 236.175,514.8813 Q235.7875,515.4813 235.7875,516.3063 L235.7875,517.1813 Q235.7875,518.1688 236.5,518.8313 Q237.2125,519.4813 238.4875,519.4813 Q239.2375,519.4813 239.7625,519.2813 Q240.075,519.1563 240.4125,518.8063 Q240.625,518.5938 240.7375,518.5313 Q240.8625,518.4688 241.025,518.4688 Q241.2875,518.4688 241.4875,518.6813 Q241.7,518.8813 241.7,519.1563 Q241.7,519.4313 241.425,519.7563 Q241.025,520.2188 240.3875,520.4813 Q239.525,520.8438 238.4875,520.8438 Q237.275,520.8438 236.3125,520.3438 Q235.525,519.9438 234.975,519.0938 Q234.425,518.2313 234.425,517.2063 L234.425,516.2813 Q234.425,515.2188 234.9125,514.3063 Q235.4125,513.3813 236.2875,512.8938 Q237.1625,512.3938 238.15,512.3938 Q238.7375,512.3938 239.25,512.5313 Q239.775,512.6563 240.2125,512.9438 Z " fill="#000000"/><text fill="#000000" font-family="sans-serif" font-size="9.6" font-style="italic" lengthAdjust="spacing" textLength="62.9766" x="259.7309" y="512.7703">&#171;ValueObject&#187;</text><text fill="#000000" font-family="sans-serif" font-size="11.2" lengthAdjust="spacing" textLength="84.0383" x="249.2" y="527.2656">ShowDescription</text><line style="stroke:#181818;stroke-width:0.4000000000000001;" x1="226.8" x2="334.8383" y1="534.0766" y2="534.0766"/><line style="stroke:#181818;stroke-width:0.4000000000000001;" x1="226.8" x2="334.8383" y1="540.4766" y2="540.4766"/></g><!--class ShowService--><g id="elem_ShowService"><rect codeLine="78" fill="#F1F1F1" height="78.2594" id="ShowService" rx="2" ry="2" style="stroke:#181818;stroke-width:0.4000000000000001;" width="249.3117" x="227.2" y="179.6109"/><ellipse cx="312.1715" cy="197.4438" fill="#ADD1B2" rx="8.8" ry="8.8" style="stroke:#181818;stroke-width:0.8000000000000002;"/><path d="M314.384,194.1438 Q314.509,193.9688 314.659,193.8813 Q314.809,193.7938 314.984,193.7938 Q315.284,193.7938 315.4715,194.0063 Q315.659,194.2063 315.659,194.6938 L315.659,195.8563 Q315.659,196.3438 315.4715,196.5563 Q315.284,196.7688 314.984,196.7688 Q314.709,196.7688 314.5465,196.6063 Q314.384,196.4563 314.2965,196.0438 Q314.259,195.7563 314.109,195.6063 Q313.8465,195.3063 313.359,195.1313 Q312.8715,194.9563 312.3715,194.9563 Q311.759,194.9563 311.2465,195.2188 Q310.7465,195.4813 310.3465,196.0813 Q309.959,196.6813 309.959,197.5063 L309.959,198.3813 Q309.959,199.3688 310.6715,200.0313 Q311.384,200.6813 312.659,200.6813 Q313.409,200.6813 313.934,200.4813 Q314.2465,200.3563 314.584,200.0063 Q314.7965,199.7938 314.909,199.7313 Q315.034,199.6688 315.1965,199.6688 Q315.459,199.6688 315.659,199.8813 Q315.8715,200.0813 315.8715,200.3563 Q315.8715,200.6313 315.5965,200.9563 Q315.1965,201.4188 314.559,201.6813 Q313.6965,202.0438 312.659,202.0438 Q311.4465,202.0438 310.484,201.5438 Q309.6965,201.1438 309.1465,200.2938 Q308.5965,199.4313 308.5965,198.4063 L308.5965,197.4813 Q308.5965,196.4188 309.084,195.5063 Q309.584,194.5813 310.459,194.0938 Q311.334,193.5938 312.3215,193.5938 Q312.909,193.5938 313.4215,193.7313 Q313.9465,193.8563 314.384,194.1438 Z " fill="#000000"/><text fill="#000000" font-family="sans-serif" font-size="9.6" font-style="italic" lengthAdjust="spacing" textLength="75.7688" x="326.9715" y="193.9703">&#171;DomainService&#187;</text><text fill="#000000" font-family="sans-serif" font-size="11.2" lengthAdjust="spacing" textLength="65.3625" x="332.1746" y="208.4656">ShowService</text><line style="stroke:#181818;stroke-width:0.4000000000000001;" x1="228" x2="475.7117" y1="215.2766" y2="215.2766"/><text fill="#000000" font-family="sans-serif" font-size="11.2" lengthAdjust="spacing" textLength="239.7117" x="232" y="230.5625">Schedules shows based on accepted proposals,</text><text fill="#000000" font-family="sans-serif" font-size="11.2" lengthAdjust="spacing" textLength="219.1383" x="232" y="245.4594">considering drone availability and time slots.</text><line style="stroke:#181818;stroke-width:0.4000000000000001;" x1="228" x2="475.7117" y1="251.4703" y2="251.4703"/></g><!--class ShowRepository--><g id="elem_ShowRepository"><rect codeLine="87" fill="#F1F1F1" height="38.4" id="ShowRepository" rx="2" ry="2" style="stroke:#181818;stroke-width:0.4000000000000001;" width="107.15" x="75.2" y="199.6109"/><ellipse cx="87.2" cy="212.4109" fill="#B4A7E5" rx="8.8" ry="8.8" style="stroke:#181818;stroke-width:0.8000000000000002;"/><path d="M87.9625,209.7234 L87.9625,215.0484 L89.3375,215.0484 Q89.825,215.0484 90.0375,215.2359 Q90.25,215.4234 90.25,215.7359 Q90.25,216.0359 90.0375,216.2234 Q89.825,216.4109 89.3375,216.4109 L85.225,216.4109 Q84.7375,216.4109 84.525,216.2234 Q84.3125,216.0359 84.3125,215.7234 Q84.3125,215.4234 84.525,215.2359 Q84.7375,215.0484 85.225,215.0484 L86.6,215.0484 L86.6,209.7234 L85.225,209.7234 Q84.7375,209.7234 84.525,209.5359 Q84.3125,209.3484 84.3125,209.0359 Q84.3125,208.7359 84.525,208.5484 Q84.7375,208.3609 85.225,208.3609 L89.3375,208.3609 Q89.825,208.3609 90.0375,208.5484 Q90.25,208.7359 90.25,209.0359 Q90.25,209.3484 90.0375,209.5359 Q89.825,209.7234 89.3375,209.7234 L87.9625,209.7234 Z " fill="#000000"/><text fill="#000000" font-family="sans-serif" font-size="11.2" font-style="italic" lengthAdjust="spacing" textLength="81.55" x="98.4" y="217.0484">ShowRepository</text><line style="stroke:#181818;stroke-width:0.4000000000000001;" x1="76" x2="181.55" y1="225.2109" y2="225.2109"/><line style="stroke:#181818;stroke-width:0.4000000000000001;" x1="76" x2="181.55" y1="231.6109" y2="231.6109"/></g><!--link ShowProposal to ShowProposalStatus--><g id="link_ShowProposal_ShowProposalStatus"><path codeLine="93" d="M860.704,421.0029 C860.704,443.3389 860.704,472.8109 860.704,472.8109 C860.704,472.8109 1189.504,472.8109 1333.504,472.8109 " fill="none" id="ShowProposal-to-ShowProposalStatus" style="stroke:#181818;stroke-width:0.8000000000000002;"/><polygon fill="#181818" points="1338.304,472.8109,1331.104,469.6109,1334.304,472.8109,1331.104,476.0109,1338.304,472.8109" style="stroke:#181818;stroke-width:0.8000000000000002;"/></g><!--reverse link ShowProposal to Video--><g id="link_ShowProposal_Video"><path codeLine="94" d="M766.4,430.6829 C766.4,452.9549 766.4,475.9469 766.4,498.2029 " fill="none" id="ShowProposal-backto-Video" style="stroke:#181818;stroke-width:0.8000000000000002;"/><polygon fill="#181818" points="766.4,421.0829,763.2,425.8829,766.4,430.6829,769.6,425.8829,766.4,421.0829" style="stroke:#181818;stroke-width:0.8000000000000002;"/></g><!--reverse link ShowProposal to ShowProposalDocument--><g id="link_ShowProposal_ShowProposalDocument"><path codeLine="95" d="M844.2,430.5549 C844.2,457.6909 844.2,488.0109 844.2,488.0109 C844.2,488.0109 927.808,488.0109 992.632,488.0109 " fill="none" id="ShowProposal-backto-ShowProposalDocument" style="stroke:#181818;stroke-width:0.8000000000000002;"/><polygon fill="#181818" points="844.2,420.9549,841,425.7549,844.2,430.5549,847.4,425.7549,844.2,420.9549" style="stroke:#181818;stroke-width:0.8000000000000002;"/></g><!--reverse link ShowProposal to ShowProposalTotalDrone--><g id="link_ShowProposal_ShowProposalTotalDrone"><path codeLine="96" d="M827.696,430.6829 C827.696,452.9549 827.696,475.9469 827.696,498.2029 " fill="none" id="ShowProposal-backto-ShowProposalTotalDrone" style="stroke:#181818;stroke-width:0.8000000000000002;"/><polygon fill="#181818" points="827.696,421.0829,824.496,425.8829,827.696,430.6829,830.896,425.8829,827.696,421.0829" style="stroke:#181818;stroke-width:0.8000000000000002;"/></g><!--reverse link ShowProposal to ShowProposalDuration--><g id="link_ShowProposal_ShowProposalDuration"><path codeLine="97" d="M886.984,396.8109 C997.016,396.8109 1201.2,396.8109 1201.2,396.8109 C1201.2,396.8109 1201.2,461.5469 1201.2,498.2189 " fill="none" id="ShowProposal-backto-ShowProposalDuration" style="stroke:#181818;stroke-width:0.8000000000000002;"/><polygon fill="#181818" points="877.384,396.8109,882.184,400.0109,886.984,396.8109,882.184,393.6109,877.384,396.8109" style="stroke:#181818;stroke-width:0.8000000000000002;"/></g><!--reverse link ShowProposal to DomainDateTime--><g id="link_ShowProposal_DomainDateTime"><path codeLine="98" d="M740.328,384.8109 C630.808,384.8109 428,384.8109 428,384.8109 C428,384.8109 428,458.4429 428,498.1389 " fill="none" id="ShowProposal-backto-DomainDateTime" style="stroke:#181818;stroke-width:0.8000000000000002;"/><polygon fill="#181818" points="749.928,384.8109,745.128,381.6109,740.328,384.8109,745.128,388.0109,749.928,384.8109" style="stroke:#181818;stroke-width:0.8000000000000002;"/></g><!--reverse link ShowProposal to ShowProposalID--><g id="link_ShowProposal_ShowProposalID"><path codeLine="99" d="M740.16,408.8109 C688.032,408.8109 632.536,408.8109 632.536,408.8109 C632.536,408.8109 632.536,464.8589 632.536,498.3549 " fill="none" id="ShowProposal-backto-ShowProposalID" style="stroke:#181818;stroke-width:0.8000000000000002;"/><polygon fill="#181818" points="749.76,408.8109,744.96,405.6109,740.16,408.8109,744.96,412.0109,749.76,408.8109" style="stroke:#181818;stroke-width:0.8000000000000002;"/></g><!--reverse link Show to DomainDateTime--><g id="link_Show_DomainDateTime"><path codeLine="101" d="M371.6,430.6829 C371.6,452.9549 371.6,475.9469 371.6,498.2029 " fill="none" id="Show-backto-DomainDateTime" style="stroke:#181818;stroke-width:0.8000000000000002;"/><polygon fill="#181818" points="371.6,421.0829,368.4,425.8829,371.6,430.6829,374.8,425.8829,371.6,421.0829" style="stroke:#181818;stroke-width:0.8000000000000002;"/></g><!--link Show to ShowStatus--><g id="link_Show_ShowStatus"><path codeLine="102" d="M252.36,404.8109 C221.16,404.8109 190.2,404.8109 190.2,404.8109 C190.2,404.8109 190.2,432.8269 190.2,463.8429 " fill="none" id="Show-to-ShowStatus" style="stroke:#181818;stroke-width:0.8000000000000002;"/><polygon fill="#181818" points="190.2,468.6429,193.4,461.4429,190.2,464.6429,187,461.4429,190.2,468.6429" style="stroke:#181818;stroke-width:0.8000000000000002;"/></g><!--link Show to ShowProposalID--><g id="link_Show_ShowProposalID"><path codeLine="103" d="M379.944,396.8109 C462.664,396.8109 596.264,396.8109 596.264,396.8109 C596.264,396.8109 596.264,456.7469 596.264,493.4189 " fill="none" id="Show-to-ShowProposalID" style="stroke:#181818;stroke-width:0.8000000000000002;"/><polygon fill="#181818" points="596.264,498.2189,599.464,491.0189,596.264,494.2189,593.064,491.0189,596.264,498.2189" style="stroke:#181818;stroke-width:0.8000000000000002;"/></g><!--reverse link Show to ShowDescription--><g id="link_Show_ShowDescription"><path codeLine="104" d="M294,430.6829 C294,452.9549 294,475.9469 294,498.2029 " fill="none" id="Show-backto-ShowDescription" style="stroke:#181818;stroke-width:0.8000000000000002;"/><polygon fill="#181818" points="294,421.0829,290.8,425.8829,294,430.6829,297.2,425.8829,294,421.0829" style="stroke:#181818;stroke-width:0.8000000000000002;"/></g><!--link ShowService to ShowProposal--><g id="link_ShowService_ShowProposal"><path codeLine="106" d="M476.96,248.0109 C602.992,248.0109 779.064,248.0109 779.064,248.0109 C779.064,248.0109 779.064,324.9549 779.064,367.1069 " fill="none" id="ShowService-to-ShowProposal" style="stroke:#181818;stroke-width:0.8000000000000002;stroke-dasharray:7.0,7.0;"/><polygon fill="#181818" points="779.064,371.9069,782.264,364.7069,779.064,367.9069,775.864,364.7069,779.064,371.9069" style="stroke:#181818;stroke-width:0.8000000000000002;"/></g><!--link ShowService to Show--><g id="link_ShowService_Show"><path codeLine="107" d="M316,258.2269 C316,292.9709 316,337.7069 316,367.0669 " fill="none" id="ShowService-to-Show" style="stroke:#181818;stroke-width:0.8000000000000002;stroke-dasharray:7.0,7.0;"/><polygon fill="#181818" points="316,371.8669,319.2,364.6669,316,367.8669,312.8,364.6669,316,371.8669" style="stroke:#181818;stroke-width:0.8000000000000002;"/></g><!--link ShowProposalService to ShowProposal--><g id="link_ShowProposalService_ShowProposal"><path codeLine="108" d="M882.784,276.8109 C867.224,276.8109 857.2,276.8109 857.2,276.8109 C857.2,276.8109 857.2,332.1309 857.2,367.1229 " fill="none" id="ShowProposalService-to-ShowProposal" style="stroke:#181818;stroke-width:0.8000000000000002;stroke-dasharray:7.0,7.0;"/><polygon fill="#181818" points="857.2,371.9229,860.4,364.7229,857.2,367.9229,854,364.7229,857.2,371.9229" style="stroke:#181818;stroke-width:0.8000000000000002;"/></g><!--link ShowRepository to Show--><g id="link_ShowRepository_Show"><path codeLine="110" d="M143.4,238.3149 C143.4,282.9629 143.4,388.8109 143.4,388.8109 C143.4,388.8109 198.256,388.8109 247.424,388.8109 " fill="none" id="ShowRepository-to-Show" style="stroke:#181818;stroke-width:0.8000000000000002;stroke-dasharray:7.0,7.0;"/><polygon fill="#181818" points="252.224,388.8109,245.024,385.6109,248.224,388.8109,245.024,392.0109,252.224,388.8109" style="stroke:#181818;stroke-width:0.8000000000000002;"/></g><!--link ShowProposalRepository to ShowProposal--><g id="link_ShowProposalRepository_ShowProposal"><path codeLine="111" d="M808.136,238.1549 C808.136,270.6989 808.136,331.5389 808.136,367.2029 " fill="none" id="ShowProposalRepository-to-ShowProposal" style="stroke:#181818;stroke-width:0.8000000000000002;stroke-dasharray:7.0,7.0;"/><polygon fill="#181818" points="808.136,372.0029,811.336,364.8029,808.136,368.0029,804.936,364.8029,808.136,372.0029" style="stroke:#181818;stroke-width:0.8000000000000002;"/></g><!--SRC=[dLNDRXCn4BxxAKRbW8II7152fLAwkz2WqaJPK8x8sPriJBtsOdjJLQWIhy7hyIIClVbjJ5lOqthccn_FV3EsDq8rtF0Qf53exXe4RTnICsQtceONDxn2-C40pkc_ChfLPQAbDl0YVPqDtx_n6crAD9tqN1ACiNl6Ni8x-Y2_67-1oNGy6UV3oo1YREFsn2vrQRJ2GQ4D3kXqsnZTQCjbpHKXQbHkKEgQ2tK2fwV3gZ9OSOTdPvGIAoIt5dAocgoj29Cf9znT3xROgTREu-yZ-55A5jTSjZYUVyFY07SjIjH_L- -xcMd7PUel4iD7359TjFvknt3MXzmPeIfGlCRTgKHR6D4ueTLEsCYs4YhnxbayJckuDuccXQgj3z2vuwwreOPj7P99fjbmbgKzbcTNinuR9aas2UTfzZ5Bw2zq-lvVEshHh4I19_4cvfsMyaX3vzVdaD1iAInqX82r5s9jiKJhwAPemIqH6eEUlk7YUW4SV1gmoOFDkSKII4UA1Wkn44M8FyNlBVaPmCW1HJ5e6wsic4k4XJPlcKL9nVDrNuYg9JKiZAv3n88J0NJL-cH0uQsyWy8W9UJZeEqnkgEeL6Yahuu5hageUTDu4NaWDthj5lmeaebGmWaUudamTuuNot22NDIj3FSZ0bDkiE9Ib47GOnKgD9tTAb2Ooh4IUDl597HDhYWnXtKZVSqekv0CjMUTpRPMlt_-8hEYmCPn5KfDPV4KygMrWIw3_s80TKXRuRIv2oGGog5PS8gmJuJf5dIqK9xS8y_P7nXMHGZvdCNHiJ4bpKpK-FX87OzIdbnawUTBFpoZgw-q43zCippliMJyQNAPXQ5AXbT9HeZ3MKvtan-D-KJndnoxnyOjfyagMqbyzQuix4OdS8B-Dxqb5XL-MkWXsB8S-8eBoUT2-Z9xaZbVE2krUmvjdakNE4scsULmDXfVvHUZIRxcoy5J0Vt-6KJstmFKgtuVkhSWfeWjzQTmkzVY4Ec1iULzZ3faukDUHcbtxtKY4TEzIknL80WVE0hoJO0zNdOHDaGQ30uDeqeMs_X7bkomlt7hY7xhu0y0]--></g></svg>