<svg xmlns="http://www.w3.org/2000/svg" xmlns:xlink="http://www.w3.org/1999/xlink" contentStyleType="text/css" height="891.9px" preserveAspectRatio="none" style="width:1802px;height:891px;background:#FFFFFF;" version="1.1" viewBox="0 0 1802 891" width="1802.7px" zoomAndPan="magnify"><title>US372 - Check Shows Dates (with Filter)</title><defs/><g><text fill="#000000" font-family="sans-serif" font-size="12.6" font-weight="bold" lengthAdjust="spacing" textLength="240.8581" x="782.673" y="27.0967">US372 - Check Shows Dates (with Filter)</text><rect fill="none" height="534.8145" style="stroke:#000000;stroke-width:1.35;" width="1478.7316" x="319.3726" y="210.7037"/><rect fill="none" height="45.5238" style="stroke:#000000;stroke-width:1.35;" width="456.5536" x="1063.546" y="403.3371"/><rect fill="none" height="57.2238" style="stroke:#000000;stroke-width:1.35;" width="278.0046" x="1511.0996" y="574.1086"/><line style="stroke:#181818;stroke-width:0.45;stroke-dasharray:5.0,5.0;" x1="78.3" x2="78.3" y1="110.918" y2="817.142"/><line style="stroke:#181818;stroke-width:0.45;stroke-dasharray:5.0,5.0;" x1="253.4247" x2="253.4247" y1="110.918" y2="817.142"/><line style="stroke:#181818;stroke-width:0.45;stroke-dasharray:5.0,5.0;" x1="414.7726" x2="414.7726" y1="110.918" y2="817.142"/><line style="stroke:#181818;stroke-width:0.45;stroke-dasharray:5.0,5.0;" x1="587.5409" x2="587.5409" y1="110.918" y2="817.142"/><line style="stroke:#181818;stroke-width:0.45;stroke-dasharray:5.0,5.0;" x1="814.0904" x2="814.0904" y1="110.918" y2="817.142"/><line style="stroke:#181818;stroke-width:0.45;stroke-dasharray:5.0,5.0;" x1="981.319" x2="981.319" y1="110.918" y2="817.142"/><line style="stroke:#181818;stroke-width:0.45;stroke-dasharray:5.0,5.0;" x1="1157.146" x2="1157.146" y1="110.918" y2="817.142"/><line style="stroke:#181818;stroke-width:0.45;stroke-dasharray:5.0,5.0;" x1="1404.9374" x2="1404.9374" y1="110.918" y2="817.142"/><line style="stroke:#181818;stroke-width:0.45;stroke-dasharray:5.0,5.0;" x1="1488.5811" x2="1488.5811" y1="110.918" y2="817.142"/><line style="stroke:#181818;stroke-width:0.45;stroke-dasharray:5.0,5.0;" x1="1555.1996" x2="1555.1996" y1="110.918" y2="817.142"/><text fill="#000000" font-family="sans-serif" font-size="12.6" lengthAdjust="spacing" textLength="142.8636" x="4.5" y="107.7557">Customer Representative</text><ellipse cx="78.6318" cy="47.809" fill="#E2E2F0" rx="7.2" ry="7.2" style="stroke:#181818;stroke-width:0.45;"/><path d="M78.6318,55.009 L78.6318,79.309 M66.9318,62.209 L90.3318,62.209 M78.6318,79.309 L66.9318,92.809 M78.6318,79.309 L90.3318,92.809 " fill="none" style="stroke:#181818;stroke-width:0.45;"/><text fill="#000000" font-family="sans-serif" font-size="12.6" lengthAdjust="spacing" textLength="142.8636" x="4.5" y="829.8387">Customer Representative</text><ellipse cx="78.6318" cy="840.651" fill="#E2E2F0" rx="7.2" ry="7.2" style="stroke:#181818;stroke-width:0.45;"/><path d="M78.6318,847.851 L78.6318,872.151 M66.9318,855.051 L90.3318,855.051 M78.6318,872.151 L66.9318,885.651 M78.6318,872.151 L90.3318,885.651 " fill="none" style="stroke:#181818;stroke-width:0.45;"/><rect fill="#E2E2F0" height="29.359" rx="2.25" ry="2.25" style="stroke:#181818;stroke-width:0.45;" width="131.6479" x="187.7247" y="80.659"/><text fill="#000000" font-family="sans-serif" font-size="12.6" lengthAdjust="spacing" textLength="119.0479" x="194.0247" y="100.5557">CheckShowsDatesUI</text><rect fill="#E2E2F0" height="29.359" rx="2.25" ry="2.25" style="stroke:#181818;stroke-width:0.45;" width="131.6479" x="187.7247" y="816.242"/><text fill="#000000" font-family="sans-serif" font-size="12.6" lengthAdjust="spacing" textLength="119.0479" x="194.0247" y="836.1387">CheckShowsDatesUI</text><rect fill="#E2E2F0" height="29.359" rx="2.25" ry="2.25" style="stroke:#181818;stroke-width:0.45;" width="173.6684" x="328.3726" y="80.659"/><text fill="#000000" font-family="sans-serif" font-size="12.6" lengthAdjust="spacing" textLength="161.0684" x="334.6726" y="100.5557">CheckShowsDatesController</text><rect fill="#E2E2F0" height="29.359" rx="2.25" ry="2.25" style="stroke:#181818;stroke-width:0.45;" width="173.6684" x="328.3726" y="816.242"/><text fill="#000000" font-family="sans-serif" font-size="12.6" lengthAdjust="spacing" textLength="161.0684" x="334.6726" y="836.1387">CheckShowsDatesController</text><rect fill="#E2E2F0" height="29.359" rx="2.25" ry="2.25" style="stroke:#181818;stroke-width:0.45;" width="154.7622" x="511.0409" y="80.659"/><text fill="#000000" font-family="sans-serif" font-size="12.6" lengthAdjust="spacing" textLength="142.1622" x="517.3409" y="100.5557">CheckShowDatesService</text><rect fill="#E2E2F0" height="29.359" rx="2.25" ry="2.25" style="stroke:#181818;stroke-width:0.45;" width="154.7622" x="511.0409" y="816.242"/><text fill="#000000" font-family="sans-serif" font-size="12.6" lengthAdjust="spacing" textLength="142.1622" x="517.3409" y="836.1387">CheckShowDatesService</text><rect fill="#E2E2F0" height="29.359" rx="2.25" ry="2.25" style="stroke:#181818;stroke-width:0.45;" width="115.5349" x="756.4904" y="80.659"/><text fill="#000000" font-family="sans-serif" font-size="12.6" lengthAdjust="spacing" textLength="102.9349" x="762.7904" y="100.5557">TCP Socket Client</text><rect fill="#E2E2F0" height="29.359" rx="2.25" ry="2.25" style="stroke:#181818;stroke-width:0.45;" width="115.5349" x="756.4904" y="816.242"/><text fill="#000000" font-family="sans-serif" font-size="12.6" lengthAdjust="spacing" textLength="102.9349" x="762.7904" y="836.1387">TCP Socket Client</text><rect fill="#E2E2F0" height="29.359" rx="2.25" ry="2.25" style="stroke:#181818;stroke-width:0.45;" width="162.4465" x="900.319" y="80.659"/><text fill="#000000" font-family="sans-serif" font-size="12.6" lengthAdjust="spacing" textLength="149.8465" x="906.619" y="100.5557">CustomerCommandServer</text><rect fill="#E2E2F0" height="29.359" rx="2.25" ry="2.25" style="stroke:#181818;stroke-width:0.45;" width="162.4465" x="900.319" y="816.242"/><text fill="#000000" font-family="sans-serif" font-size="12.6" lengthAdjust="spacing" textLength="149.8465" x="906.619" y="836.1387">CustomerCommandServer</text><rect fill="#E2E2F0" height="29.359" rx="2.25" ry="2.25" style="stroke:#181818;stroke-width:0.45;" width="169.4602" x="1072.546" y="80.659"/><text fill="#000000" font-family="sans-serif" font-size="12.6" lengthAdjust="spacing" textLength="156.8602" x="1078.846" y="100.5557">CustomerCommandHandler</text><rect fill="#E2E2F0" height="29.359" rx="2.25" ry="2.25" style="stroke:#181818;stroke-width:0.45;" width="169.4602" x="1072.546" y="816.242"/><text fill="#000000" font-family="sans-serif" font-size="12.6" lengthAdjust="spacing" textLength="156.8602" x="1078.846" y="836.1387">CustomerCommandHandler</text><rect fill="#E2E2F0" height="29.359" rx="2.25" ry="2.25" style="stroke:#181818;stroke-width:0.45;" width="104.3438" x="1353.6374" y="80.659"/><text fill="#000000" font-family="sans-serif" font-size="12.6" lengthAdjust="spacing" textLength="91.7438" x="1359.9374" y="100.5557">ShowRepository</text><rect fill="#E2E2F0" height="29.359" rx="2.25" ry="2.25" style="stroke:#181818;stroke-width:0.45;" width="104.3438" x="1353.6374" y="816.242"/><text fill="#000000" font-family="sans-serif" font-size="12.6" lengthAdjust="spacing" textLength="91.7438" x="1359.9374" y="836.1387">ShowRepository</text><rect fill="#E2E2F0" height="29.359" rx="2.25" ry="2.25" style="stroke:#181818;stroke-width:0.45;" width="44.1185" x="1466.9811" y="80.659"/><text fill="#000000" font-family="sans-serif" font-size="12.6" lengthAdjust="spacing" textLength="31.5185" x="1473.2811" y="100.5557">Show</text><rect fill="#E2E2F0" height="29.359" rx="2.25" ry="2.25" style="stroke:#181818;stroke-width:0.45;" width="44.1185" x="1466.9811" y="816.242"/><text fill="#000000" font-family="sans-serif" font-size="12.6" lengthAdjust="spacing" textLength="31.5185" x="1473.2811" y="836.1387">Show</text><rect fill="#E2E2F0" height="29.359" rx="2.25" ry="2.25" style="stroke:#181818;stroke-width:0.45;" width="70.715" x="1520.0996" y="80.659"/><text fill="#000000" font-family="sans-serif" font-size="12.6" lengthAdjust="spacing" textLength="58.115" x="1526.3996" y="100.5557">ShowDTO</text><rect fill="#E2E2F0" height="29.359" rx="2.25" ry="2.25" style="stroke:#181818;stroke-width:0.45;" width="70.715" x="1520.0996" y="816.242"/><text fill="#000000" font-family="sans-serif" font-size="12.6" lengthAdjust="spacing" textLength="58.115" x="1526.3996" y="836.1387">ShowDTO</text><polygon fill="#181818" points="242.7486,137.2799,251.7486,140.8799,242.7486,144.4799,246.3486,140.8799" style="stroke:#181818;stroke-width:0.9;"/><line style="stroke:#181818;stroke-width:0.9;" x1="78.6318" x2="248.1486" y1="140.8799" y2="140.8799"/><text fill="#000000" font-family="sans-serif" font-size="11.7" lengthAdjust="spacing" textLength="153.3168" x="84.9318" y="136.1435">selects "Check Shows Dates"</text><polygon fill="#181818" points="404.4067,165.4418,413.4067,169.0418,404.4067,172.6418,408.0067,169.0418" style="stroke:#181818;stroke-width:0.9;"/><line style="stroke:#181818;stroke-width:0.9;" x1="253.5486" x2="409.8067" y1="169.0418" y2="169.0418"/><text fill="#000000" font-family="sans-serif" font-size="11.7" lengthAdjust="spacing" textLength="72.1767" x="259.8486" y="164.3054">getAllShows()</text><polygon fill="#181818" points="577.622,193.6037,586.622,197.2037,577.622,200.8037,581.222,197.2037" style="stroke:#181818;stroke-width:0.9;"/><line style="stroke:#181818;stroke-width:0.9;" x1="415.2067" x2="583.022" y1="197.2037" y2="197.2037"/><text fill="#000000" font-family="sans-serif" font-size="11.7" lengthAdjust="spacing" textLength="128.1001" x="421.5067" y="192.4673">listMyScheduledShows()</text><path d="M319.3726,210.7037 L502.9291,210.7037 L502.9291,219.0656 L493.9291,228.0656 L319.3726,228.0656 L319.3726,210.7037 " fill="#EEEEEE" style="stroke:#000000;stroke-width:1.35;"/><rect fill="none" height="534.8145" style="stroke:#000000;stroke-width:1.35;" width="1478.7316" x="319.3726" y="210.7037"/><text fill="#000000" font-family="sans-serif" font-size="11.7" font-weight="bold" lengthAdjust="spacing" textLength="143.0565" x="332.8726" y="224.2292">Get all shows from server</text><polygon fill="#181818" points="803.4579,245.4275,812.4579,249.0275,803.4579,252.6275,807.0579,249.0275" style="stroke:#181818;stroke-width:0.9;"/><line style="stroke:#181818;stroke-width:0.9;" x1="588.422" x2="808.8579" y1="249.0275" y2="249.0275"/><text fill="#000000" font-family="sans-serif" font-size="11.7" lengthAdjust="spacing" textLength="204.2358" x="594.722" y="244.2911">openSocket(host=localhost, port=8889)</text><polygon fill="#181818" points="803.4579,273.5895,812.4579,277.1895,803.4579,280.7895,807.0579,277.1895" style="stroke:#181818;stroke-width:0.9;"/><line style="stroke:#181818;stroke-width:0.9;" x1="588.422" x2="808.8579" y1="277.1895" y2="277.1895"/><text fill="#000000" font-family="sans-serif" font-size="11.7" lengthAdjust="spacing" textLength="161.7605" x="594.722" y="272.453">send("LIST_SHOWS &lt;email&gt;")</text><polygon fill="#181818" points="970.7423,301.7514,979.7423,305.3514,970.7423,308.9514,974.3423,305.3514" style="stroke:#181818;stroke-width:0.9;"/><line style="stroke:#181818;stroke-width:0.9;" x1="814.2579" x2="976.1423" y1="305.3514" y2="305.3514"/><text fill="#000000" font-family="sans-serif" font-size="11.7" lengthAdjust="spacing" textLength="145.6844" x="820.5579" y="300.6149">TCP connection established</text><polygon fill="#181818" points="1146.4761,329.9133,1155.4761,333.5133,1146.4761,337.1133,1150.0761,333.5133" style="stroke:#181818;stroke-width:0.9;"/><line style="stroke:#181818;stroke-width:0.9;" x1="981.5423" x2="1151.8761" y1="333.5133" y2="333.5133"/><text fill="#000000" font-family="sans-serif" font-size="11.7" lengthAdjust="spacing" textLength="154.1338" x="987.8423" y="328.7769">spawn handler thread(socket)</text><polygon fill="#181818" points="1395.0092,358.0752,1404.0092,361.6752,1395.0092,365.2752,1398.6092,361.6752" style="stroke:#181818;stroke-width:0.9;"/><line style="stroke:#181818;stroke-width:0.9;" x1="1157.2761" x2="1400.4092" y1="361.6752" y2="361.6752"/><text fill="#000000" font-family="sans-serif" font-size="11.7" lengthAdjust="spacing" textLength="226.9332" x="1163.5761" y="356.9388">findByCustomerRepresentativeEmail(email)</text><polygon fill="#181818" points="1167.1761,386.2371,1158.1761,389.8371,1167.1761,393.4371,1163.5761,389.8371" style="stroke:#181818;stroke-width:0.9;"/><line style="stroke:#181818;stroke-width:0.9;stroke-dasharray:2.0,2.0;" x1="1161.7761" x2="1404.9092" y1="389.8371" y2="389.8371"/><text fill="#000000" font-family="sans-serif" font-size="11.7" lengthAdjust="spacing" textLength="61.1394" x="1172.5761" y="385.1007">List&lt;Show&gt;</text><path d="M1063.546,403.3371 L1128.7371,403.3371 L1128.7371,411.699 L1119.7371,420.699 L1063.546,420.699 L1063.546,403.3371 " fill="#EEEEEE" style="stroke:#000000;stroke-width:1.35;"/><rect fill="none" height="45.5238" style="stroke:#000000;stroke-width:1.35;" width="456.5536" x="1063.546" y="403.3371"/><text fill="#000000" font-family="sans-serif" font-size="11.7" font-weight="bold" lengthAdjust="spacing" textLength="24.6911" x="1077.046" y="416.8626">loop</text><text fill="#000000" font-family="sans-serif" font-size="9.9" font-weight="bold" lengthAdjust="spacing" textLength="74.2548" x="1142.2371" y="415.8202">[for each Show]</text><polygon fill="#181818" points="1478.2403,438.0609,1487.2403,441.6609,1478.2403,445.2609,1481.8403,441.6609" style="stroke:#181818;stroke-width:0.9;"/><line style="stroke:#181818;stroke-width:0.9;" x1="1157.2761" x2="1483.6403" y1="441.6609" y2="441.6609"/><text fill="#000000" font-family="sans-serif" font-size="11.7" lengthAdjust="spacing" textLength="286.1073" x="1163.5761" y="436.9245">getID(), getDate(), getTime(), getLocation(), getStatus()</text><polygon fill="#181818" points="824.1579,472.5229,815.1579,476.1229,824.1579,479.7229,820.5579,476.1229" style="stroke:#181818;stroke-width:0.9;"/><line style="stroke:#181818;stroke-width:0.9;" x1="818.7579" x2="1156.3761" y1="476.1229" y2="476.1229"/><text fill="#000000" font-family="sans-serif" font-size="11.7" lengthAdjust="spacing" textLength="141.7711" x="829.5579" y="471.3864">sends formatted show lines</text><polygon fill="#181818" points="598.322,500.6848,589.322,504.2848,598.322,507.8848,594.722,504.2848" style="stroke:#181818;stroke-width:0.9;"/><line style="stroke:#181818;stroke-width:0.9;stroke-dasharray:2.0,2.0;" x1="592.922" x2="813.3579" y1="504.2848" y2="504.2848"/><text fill="#000000" font-family="sans-serif" font-size="11.7" lengthAdjust="spacing" textLength="71.5368" x="603.722" y="499.5483">lines received</text><polygon fill="#181818" points="598.322,528.8467,589.322,532.4467,598.322,536.0467,594.722,532.4467" style="stroke:#181818;stroke-width:0.9;"/><line style="stroke:#181818;stroke-width:0.9;stroke-dasharray:2.0,2.0;" x1="592.922" x2="813.3579" y1="532.4467" y2="532.4467"/><text fill="#000000" font-family="sans-serif" font-size="11.7" lengthAdjust="spacing" textLength="131.8535" x="603.722" y="527.7103">receives lines until "END"</text><polygon fill="#181818" points="1544.6571,557.0086,1553.6571,560.6086,1544.6571,564.2086,1548.2571,560.6086" style="stroke:#181818;stroke-width:0.9;"/><line style="stroke:#181818;stroke-width:0.9;" x1="588.422" x2="1550.0571" y1="560.6086" y2="560.6086"/><text fill="#000000" font-family="sans-serif" font-size="11.7" lengthAdjust="spacing" textLength="143.0622" x="594.722" y="555.8722">creates a DTO for each line</text><path d="M1511.0996,574.1086 L1576.2907,574.1086 L1576.2907,582.4705 L1567.2907,591.4705 L1511.0996,591.4705 L1511.0996,574.1086 " fill="#EEEEEE" style="stroke:#000000;stroke-width:1.35;"/><rect fill="none" height="57.2238" style="stroke:#000000;stroke-width:1.35;" width="278.0046" x="1511.0996" y="574.1086"/><text fill="#000000" font-family="sans-serif" font-size="11.7" font-weight="bold" lengthAdjust="spacing" textLength="24.6911" x="1524.5996" y="587.6341">loop</text><line style="stroke:#181818;stroke-width:0.9;" x1="1555.4571" x2="1593.2571" y1="612.4324" y2="612.4324"/><line style="stroke:#181818;stroke-width:0.9;" x1="1593.2571" x2="1593.2571" y1="612.4324" y2="624.1324"/><line style="stroke:#181818;stroke-width:0.9;" x1="1556.3571" x2="1593.2571" y1="624.1324" y2="624.1324"/><polygon fill="#181818" points="1565.3571,620.5324,1556.3571,624.1324,1565.3571,627.7324,1561.7571,624.1324" style="stroke:#181818;stroke-width:0.9;"/><text fill="#000000" font-family="sans-serif" font-size="11.7" lengthAdjust="spacing" textLength="216.5471" x="1561.7571" y="607.696">stores showID, date, time, location, status</text><line style="stroke:#181818;stroke-width:0.9;" x1="588.422" x2="626.222" y1="658.5943" y2="658.5943"/><line style="stroke:#181818;stroke-width:0.9;" x1="626.222" x2="626.222" y1="658.5943" y2="670.2943"/><line style="stroke:#181818;stroke-width:0.9;" x1="589.322" x2="626.222" y1="670.2943" y2="670.2943"/><polygon fill="#181818" points="598.322,666.6943,589.322,670.2943,598.322,673.8943,594.722,670.2943" style="stroke:#181818;stroke-width:0.9;"/><text fill="#000000" font-family="sans-serif" font-size="11.7" lengthAdjust="spacing" textLength="198.9914" x="594.722" y="653.8579">filter by SCHEDULED &amp; date &gt;= today</text><line style="stroke:#181818;stroke-width:0.9;" x1="588.422" x2="626.222" y1="698.4563" y2="698.4563"/><line style="stroke:#181818;stroke-width:0.9;" x1="626.222" x2="626.222" y1="698.4563" y2="710.1563"/><line style="stroke:#181818;stroke-width:0.9;" x1="589.322" x2="626.222" y1="710.1563" y2="710.1563"/><polygon fill="#181818" points="598.322,706.5563,589.322,710.1563,598.322,713.7563,594.722,710.1563" style="stroke:#181818;stroke-width:0.9;"/><text fill="#000000" font-family="sans-serif" font-size="11.7" lengthAdjust="spacing" textLength="61.1336" x="594.722" y="693.7198">sort by date</text><polygon fill="#181818" points="425.1067,734.7182,416.1067,738.3182,425.1067,741.9182,421.5067,738.3182" style="stroke:#181818;stroke-width:0.9;"/><line style="stroke:#181818;stroke-width:0.9;" x1="419.7067" x2="587.522" y1="738.3182" y2="738.3182"/><text fill="#000000" font-family="sans-serif" font-size="11.7" lengthAdjust="spacing" textLength="119.6508" x="430.5067" y="733.5817">return List&lt;ShowDTO&gt;</text><polygon fill="#181818" points="263.4486,769.1801,254.4486,772.7801,263.4486,776.3801,259.8486,772.7801" style="stroke:#181818;stroke-width:0.9;"/><line style="stroke:#181818;stroke-width:0.9;" x1="258.0486" x2="414.3067" y1="772.7801" y2="772.7801"/><text fill="#000000" font-family="sans-serif" font-size="11.7" lengthAdjust="spacing" textLength="66.9779" x="268.8486" y="768.0437">return shows</text><polygon fill="#181818" points="88.5318,797.342,79.5318,800.942,88.5318,804.542,84.9318,800.942" style="stroke:#181818;stroke-width:0.9;"/><line style="stroke:#181818;stroke-width:0.9;" x1="83.1318" x2="252.6486" y1="800.942" y2="800.942"/><text fill="#000000" font-family="sans-serif" font-size="11.7" lengthAdjust="spacing" textLength="133.9673" x="93.9318" y="796.2056">displays the sorted shows</text><!--SRC=[dLN1Rjim3BtxAmWV1WT8BzjXtT06sEni3P2jGvnYnq6rcLgeB1aIqo9_FqfMqYPnig460aWs-VJu-CIG98LmLtxu-1uk86-mUeIoCSyE2a7e87kMrC0tgGZjA4b4HSP2cgyTcHOjBB2pw52J8Fc4AGW7-I99Ec59Lh8JcdhC01aGxsRdlkP6apLAeHsE2a4bsYTPuLv4kin_GMcgH-He9PbHkeyG6UUcROMkFSJX6ViHD_mxfE4PSCN6ILPXS_Jfw4Mnl4sIV04NasCLu3CuL5YHOpaFPKyvxIZX6EL5BKPxGFgYLFYOZPBJaQzXNil944ew-h4fgmRhjS9wYvKyMBFku3jBAvG25tYkh6cvWY0Zy3ECoOSDT8QFCXtg_cNM64VNobH2-TKOEcFf-lBoyjFeBS1inZfBvxDo-QUykVrTmXMsGgf9odLukA4iBycGFnZEHrT6QswKD1hGaRXdcLYXdjnWsZ5UT9Fdrubd3KtSKsDHr9aBV2B34waCkky_1bj9NN_TR1FsB-FKbvs5udiX3x8lph6SinEkVCAavwICwM35Lnz5rVHcX_YSfziRSrPaex5V-1x6vLAss-MSc-_bZTkI2rXxutbuRkU_P3bj1ESvju88ws1RThX6Tze7P-y6PuB52bdR-aqGCTb5hBKcgI2T_YpIvBpJuonXY8hjuiUo0B_VDSG3xlgqwymsRG-1HMIJ13LcnHXgXXi3SI_6e68RnXpaEx3J_oovKzMkmdy6t6-Wp6-cnTryMi2xS1vChe5CBJPl0tOy7poiX_fFX85nQP7MLhyOdTMP9C5i_pSwNytn21NcuecvlU2mMhfEYOtZIu-XY6XAboH_0G00]--></g></svg>