<?xml version="1.0" encoding="us-ascii" standalone="no"?><svg xmlns="http://www.w3.org/2000/svg" xmlns:xlink="http://www.w3.org/1999/xlink" contentStyleType="text/css" height="478.4px" preserveAspectRatio="none" style="width:608px;height:478px;background:#FFFFFF;" version="1.1" viewBox="0 0 608 478" width="608.8px" zoomAndPan="magnify"><defs/><g><text fill="#000000" font-family="sans-serif" font-size="11.2" font-weight="bold" lengthAdjust="spacing" textLength="220.8" x="195.6" y="24.0859">System Sequence Diagram (SSD) - US26</text><rect fill="#FFFFFF" height="298.5609" style="stroke:#181818;stroke-width:0.8000000000000002;" width="8" x="72" y="106.5938"/><rect fill="#FFFFFF" height="25.0328" style="stroke:#181818;stroke-width:0.8000000000000002;" width="8" x="429.6" y="125.2266"/><rect fill="#FFFFFF" height="25.0328" style="stroke:#181818;stroke-width:0.8000000000000002;" width="8" x="429.6" y="175.2922"/><rect fill="#FFFFFF" height="25.0328" style="stroke:#181818;stroke-width:0.8000000000000002;" width="8" x="429.6" y="246.3906"/><rect fill="#FFFFFF" height="95.8984" style="stroke:#181818;stroke-width:0.8000000000000002;" width="8" x="429.6" y="302.0563"/><rect fill="none" height="65.4984" style="stroke:#000000;stroke-width:1.2000000000000002;" width="459.2" x="8" y="212.325"/><line style="stroke:#181818;stroke-width:0.4000000000000001;stroke-dasharray:5.0,5.0;" x1="76" x2="76" y1="98.5938" y2="412.3547"/><line style="stroke:#181818;stroke-width:0.4000000000000001;stroke-dasharray:5.0,5.0;" x1="433.6" x2="433.6" y1="98.5938" y2="412.3547"/><text fill="#000000" font-family="sans-serif" font-size="11.2" lengthAdjust="spacing" textLength="115.2" x="16" y="95.7828">Green Space Manager</text><ellipse cx="76" cy="42.4969" fill="#E3E3E3" rx="6.4" ry="6.4" style="stroke:#181818;stroke-width:0.4000000000000001;"/><path d="M76,48.8969 L76,70.4969 M65.6,55.2969 L86.4,55.2969 M76,70.4969 L65.6,82.4969 M76,70.4969 L86.4,82.4969 " fill="none" style="stroke:#181818;stroke-width:0.4000000000000001;"/><text fill="#000000" font-family="sans-serif" font-size="11.2" lengthAdjust="spacing" textLength="115.2" x="16" y="423.6406">Green Space Manager</text><ellipse cx="76" cy="433.2516" fill="#E3E3E3" rx="6.4" ry="6.4" style="stroke:#181818;stroke-width:0.4000000000000001;"/><path d="M76,439.6516 L76,461.2516 M65.6,446.0516 L86.4,446.0516 M76,461.2516 L65.6,473.2516 M76,461.2516 L86.4,473.2516 " fill="none" style="stroke:#181818;stroke-width:0.4000000000000001;"/><rect fill="#E3E3E3" height="26.0969" rx="2" ry="2" style="stroke:#181818;stroke-width:0.4000000000000001;" width="51.2" x="408" y="71.6969"/><text fill="#000000" font-family="sans-serif" font-size="11.2" lengthAdjust="spacing" textLength="40" x="413.6" y="89.3828">:System</text><rect fill="#E3E3E3" height="26.0969" rx="2" ry="2" style="stroke:#181818;stroke-width:0.4000000000000001;" width="51.2" x="408" y="411.5547"/><text fill="#000000" font-family="sans-serif" font-size="11.2" lengthAdjust="spacing" textLength="40" x="413.6" y="429.2406">:System</text><rect fill="#FFFFFF" height="298.5609" style="stroke:#181818;stroke-width:0.8000000000000002;" width="8" x="72" y="106.5938"/><rect fill="#FFFFFF" height="25.0328" style="stroke:#181818;stroke-width:0.8000000000000002;" width="8" x="429.6" y="125.2266"/><rect fill="#FFFFFF" height="25.0328" style="stroke:#181818;stroke-width:0.8000000000000002;" width="8" x="429.6" y="175.2922"/><rect fill="#FFFFFF" height="25.0328" style="stroke:#181818;stroke-width:0.8000000000000002;" width="8" x="429.6" y="246.3906"/><rect fill="#FFFFFF" height="95.8984" style="stroke:#181818;stroke-width:0.8000000000000002;" width="8" x="429.6" y="302.0563"/><polygon fill="#181818" points="420,122.0266,428,125.2266,420,128.4266,423.2,125.2266" style="stroke:#181818;stroke-width:0.8000000000000002;"/><line style="stroke:#181818;stroke-width:0.8000000000000002;" x1="80" x2="424.8" y1="125.2266" y2="125.2266"/><text fill="#000000" font-family="sans-serif" font-size="10.4" font-weight="bold" lengthAdjust="spacing" textLength="5.6" x="85.6" y="121.0164">1</text><text fill="#000000" font-family="sans-serif" font-size="10.4" lengthAdjust="spacing" textLength="239.2" x="94.4" y="121.0164">requests assignment of vehicles to an Agenda entry</text><polygon fill="#181818" points="88.8,147.0594,80.8,150.2594,88.8,153.4594,85.6,150.2594" style="stroke:#181818;stroke-width:0.8000000000000002;"/><line style="stroke:#181818;stroke-width:0.8000000000000002;stroke-dasharray:2.0,2.0;" x1="84" x2="432.8" y1="150.2594" y2="150.2594"/><text fill="#000000" font-family="sans-serif" font-size="10.4" font-weight="bold" lengthAdjust="spacing" textLength="5.6" x="93.6" y="146.0492">2</text><text fill="#000000" font-family="sans-serif" font-size="10.4" lengthAdjust="spacing" textLength="245.6" x="102.4" y="146.0492">displays list of agenda entries and requests selection</text><polygon fill="#181818" points="420,172.0922,428,175.2922,420,178.4922,423.2,175.2922" style="stroke:#181818;stroke-width:0.8000000000000002;"/><line style="stroke:#181818;stroke-width:0.8000000000000002;" x1="80" x2="424.8" y1="175.2922" y2="175.2922"/><text fill="#000000" font-family="sans-serif" font-size="10.4" font-weight="bold" lengthAdjust="spacing" textLength="5.6" x="85.6" y="171.082">3</text><text fill="#000000" font-family="sans-serif" font-size="10.4" lengthAdjust="spacing" textLength="112.8" x="94.4" y="171.082">selects an Agenda entry</text><polygon fill="#181818" points="88.8,197.125,80.8,200.325,88.8,203.525,85.6,200.325" style="stroke:#181818;stroke-width:0.8000000000000002;"/><line style="stroke:#181818;stroke-width:0.8000000000000002;stroke-dasharray:2.0,2.0;" x1="84" x2="432.8" y1="200.325" y2="200.325"/><text fill="#000000" font-family="sans-serif" font-size="10.4" font-weight="bold" lengthAdjust="spacing" textLength="5.6" x="93.6" y="196.1148">4</text><text fill="#000000" font-family="sans-serif" font-size="10.4" lengthAdjust="spacing" textLength="256.8" x="102.4" y="196.1148">displays list of available vehicles and requests selection</text><path d="M8,212.325 L66.4,212.325 L66.4,219.7578 L58.4,227.7578 L8,227.7578 L8,212.325 " fill="#EEEEEE" style="stroke:#000000;stroke-width:1.2000000000000002;"/><rect fill="none" height="65.4984" style="stroke:#000000;stroke-width:1.2000000000000002;" width="459.2" x="8" y="212.325"/><text fill="#000000" font-family="sans-serif" font-size="10.4" font-weight="bold" lengthAdjust="spacing" textLength="22.4" x="20" y="224.3477">loop</text><text fill="#000000" font-family="sans-serif" font-size="8.8" font-weight="bold" lengthAdjust="spacing" textLength="74.4" x="78.4" y="223.4211">[Select Vehicles]</text><polygon fill="#181818" points="420,243.1906,428,246.3906,420,249.5906,423.2,246.3906" style="stroke:#181818;stroke-width:0.8000000000000002;"/><line style="stroke:#181818;stroke-width:0.8000000000000002;" x1="80" x2="424.8" y1="246.3906" y2="246.3906"/><text fill="#000000" font-family="sans-serif" font-size="10.4" font-weight="bold" lengthAdjust="spacing" textLength="5.6" x="85.6" y="242.1805">5</text><text fill="#000000" font-family="sans-serif" font-size="10.4" lengthAdjust="spacing" textLength="76.8" x="94.4" y="242.1805">selects a vehicle</text><polygon fill="#181818" points="88.8,268.2234,80.8,271.4234,88.8,274.6234,85.6,271.4234" style="stroke:#181818;stroke-width:0.8000000000000002;"/><line style="stroke:#181818;stroke-width:0.8000000000000002;stroke-dasharray:2.0,2.0;" x1="84" x2="432.8" y1="271.4234" y2="271.4234"/><text fill="#000000" font-family="sans-serif" font-size="10.4" font-weight="bold" lengthAdjust="spacing" textLength="5.6" x="93.6" y="267.2133">6</text><text fill="#000000" font-family="sans-serif" font-size="10.4" lengthAdjust="spacing" textLength="321.6" x="102.4" y="267.2133">displays selected vehicle and asks if more vehicles are to be selected</text><polygon fill="#181818" points="420,298.8563,428,302.0563,420,305.2563,423.2,302.0563" style="stroke:#181818;stroke-width:0.8000000000000002;"/><line style="stroke:#181818;stroke-width:0.8000000000000002;" x1="80" x2="424.8" y1="302.0563" y2="302.0563"/><text fill="#000000" font-family="sans-serif" font-size="10.4" font-weight="bold" lengthAdjust="spacing" textLength="5.6" x="85.6" y="297.8461">7</text><text fill="#000000" font-family="sans-serif" font-size="10.4" lengthAdjust="spacing" textLength="118.4" x="94.4" y="297.8461">confirms vehicle selection</text><line style="stroke:#181818;stroke-width:0.8000000000000002;" x1="437.6" x2="471.2" y1="327.0891" y2="327.0891"/><line style="stroke:#181818;stroke-width:0.8000000000000002;" x1="471.2" x2="471.2" y1="327.0891" y2="337.4891"/><line style="stroke:#181818;stroke-width:0.8000000000000002;" x1="438.4" x2="471.2" y1="337.4891" y2="337.4891"/><polygon fill="#181818" points="446.4,334.2891,438.4,337.4891,446.4,340.6891,443.2,337.4891" style="stroke:#181818;stroke-width:0.8000000000000002;"/><text fill="#000000" font-family="sans-serif" font-size="10.4" font-weight="bold" lengthAdjust="spacing" textLength="5.6" x="443.2" y="322.8789">8</text><text fill="#000000" font-family="sans-serif" font-size="10.4" lengthAdjust="spacing" textLength="116" x="452" y="322.8789">verifies vehicle availability</text><line style="stroke:#181818;stroke-width:0.8000000000000002;" x1="437.6" x2="471.2" y1="362.5219" y2="362.5219"/><line style="stroke:#181818;stroke-width:0.8000000000000002;" x1="471.2" x2="471.2" y1="362.5219" y2="372.9219"/><line style="stroke:#181818;stroke-width:0.8000000000000002;" x1="438.4" x2="471.2" y1="372.9219" y2="372.9219"/><polygon fill="#181818" points="446.4,369.7219,438.4,372.9219,446.4,376.1219,443.2,372.9219" style="stroke:#181818;stroke-width:0.8000000000000002;"/><text fill="#000000" font-family="sans-serif" font-size="10.4" font-weight="bold" lengthAdjust="spacing" textLength="5.6" x="443.2" y="358.3117">9</text><text fill="#000000" font-family="sans-serif" font-size="10.4" lengthAdjust="spacing" textLength="151.2" x="452" y="358.3117">assigns vehicles to agenda entry</text><polygon fill="#181818" points="88.8,394.7547,80.8,397.9547,88.8,401.1547,85.6,397.9547" style="stroke:#181818;stroke-width:0.8000000000000002;"/><line style="stroke:#181818;stroke-width:0.8000000000000002;stroke-dasharray:2.0,2.0;" x1="84" x2="432.8" y1="397.9547" y2="397.9547"/><text fill="#000000" font-family="sans-serif" font-size="10.4" font-weight="bold" lengthAdjust="spacing" textLength="11.2" x="93.6" y="393.7445">10</text><text fill="#000000" font-family="sans-serif" font-size="10.4" lengthAdjust="spacing" textLength="126.4" x="108" y="393.7445">displays operation success</text><!--SRC=[hL8zRuCm4Dtv5QTCxP2bGuSCbIf5ofG9jVl57EGKOrEVeUBVzu10I1NILgedMxvx7_TEJkmg35X2wPqtn-1BWXXgIcJwgT2SiA0qjfOWa8de2Zila2Dc_fDT0JbQeII97BKqRILI2IbzrEGCmPQnwCeVqdJx26juIv-UamJhw5rT7YZetKGVOBKBH0vIvINOerFki08KsANxH1aZ6wxGHLXj1eh-SxZs6DnWfBuw0JrwWVNBA6UZ5bIGHD4kuSALf50-XuQER2m9H0_euBKWbo7ePsXxc0buP8BpEGElbQEZsa36Kbbi1InB3uqNB5O2TDb5X93LaR9tFLv6Dsc-MnYQvDzrDiWM3vhTD8o_QxNULnfwLmdlPvYBY4Kd8-LKkUZZlfS1aB8HhtU0SXBWN9SypBtfGyC-qDGqSInuqr7V3iHubtCePMAz7jMFcSoW6WgSTsio6HXIOSknlTSuhBDSB_9yEtwn2RwYW9riaDeO4bb8-Wi0]--></g></svg>