<?xml version="1.0" encoding="us-ascii" standalone="no"?><svg xmlns="http://www.w3.org/2000/svg" xmlns:xlink="http://www.w3.org/1999/xlink" contentStyleType="text/css" height="458px" preserveAspectRatio="none" style="width:596px;height:458px;background:#FFFFFF;" version="1.1" viewBox="0 0 596 458" width="596px" zoomAndPan="magnify"><defs/><g><text fill="#000000" font-family="sans-serif" font-size="14" font-weight="bold" lengthAdjust="spacing" textLength="568" x="10" y="30.1074">System Sequence Diagram (SSD) - US 315 Add video of simulation to the proposal</text><rect fill="#FFFFFF" height="232.377" style="stroke:#181818;stroke-width:1.0;" width="10" x="87.75" y="133.2422"/><rect fill="#FFFFFF" height="209.0859" style="stroke:#181818;stroke-width:1.0;" width="10" x="342.75" y="156.5332"/><rect fill="none" height="142.7949" style="stroke:#000000;stroke-width:1.5;" width="542.5" x="23.25" y="215.8242"/><line style="stroke:#181818;stroke-width:0.5;stroke-dasharray:5.0,5.0;" x1="92.25" x2="92.25" y1="123.2422" y2="375.6191"/><line style="stroke:#181818;stroke-width:0.5;stroke-dasharray:5.0,5.0;" x1="347.75" x2="347.75" y1="123.2422" y2="375.6191"/><text fill="#000000" font-family="sans-serif" font-size="14" lengthAdjust="spacing" textLength="113" x="33.25" y="119.7285">CRM Collaborator</text><ellipse cx="92.75" cy="53.1211" fill="#E3E3E3" rx="8" ry="8" style="stroke:#181818;stroke-width:0.5;"/><path d="M92.75,61.1211 L92.75,88.1211 M79.75,69.1211 L105.75,69.1211 M92.75,88.1211 L79.75,103.1211 M92.75,88.1211 L105.75,103.1211 " fill="none" style="stroke:#181818;stroke-width:0.5;"/><text fill="#000000" font-family="sans-serif" font-size="14" lengthAdjust="spacing" textLength="113" x="33.25" y="389.7266">CRM Collaborator</text><ellipse cx="92.75" cy="401.7402" fill="#E3E3E3" rx="8" ry="8" style="stroke:#181818;stroke-width:0.5;"/><path d="M92.75,409.7402 L92.75,436.7402 M79.75,417.7402 L105.75,417.7402 M92.75,436.7402 L79.75,451.7402 M92.75,436.7402 L105.75,451.7402 " fill="none" style="stroke:#181818;stroke-width:0.5;"/><rect fill="#E3E3E3" height="32.6211" rx="2.5" ry="2.5" style="stroke:#181818;stroke-width:0.5;" width="64" x="315.75" y="89.6211"/><text fill="#000000" font-family="sans-serif" font-size="14" lengthAdjust="spacing" textLength="50" x="322.75" y="111.7285">:System</text><rect fill="#E3E3E3" height="32.6211" rx="2.5" ry="2.5" style="stroke:#181818;stroke-width:0.5;" width="64" x="315.75" y="374.6191"/><text fill="#000000" font-family="sans-serif" font-size="14" lengthAdjust="spacing" textLength="50" x="322.75" y="396.7266">:System</text><rect fill="#FFFFFF" height="232.377" style="stroke:#181818;stroke-width:1.0;" width="10" x="87.75" y="133.2422"/><rect fill="#FFFFFF" height="209.0859" style="stroke:#181818;stroke-width:1.0;" width="10" x="342.75" y="156.5332"/><polygon fill="#181818" points="330.75,152.5332,340.75,156.5332,330.75,160.5332,334.75,156.5332" style="stroke:#181818;stroke-width:1.0;"/><line style="stroke:#181818;stroke-width:1.0;" x1="97.75" x2="336.75" y1="156.5332" y2="156.5332"/><text fill="#000000" font-family="sans-serif" font-size="13" font-weight="bold" lengthAdjust="spacing" textLength="7" x="104.75" y="151.2705">1</text><text fill="#000000" font-family="sans-serif" font-size="13" lengthAdjust="spacing" textLength="215" x="115.75" y="151.2705">requests to add video link to proposal</text><line style="stroke:#181818;stroke-width:1.0;" x1="352.75" x2="394.75" y1="187.8242" y2="187.8242"/><line style="stroke:#181818;stroke-width:1.0;" x1="394.75" x2="394.75" y1="187.8242" y2="200.8242"/><line style="stroke:#181818;stroke-width:1.0;" x1="353.75" x2="394.75" y1="200.8242" y2="200.8242"/><polygon fill="#181818" points="363.75,196.8242,353.75,200.8242,363.75,204.8242,359.75,200.8242" style="stroke:#181818;stroke-width:1.0;"/><text fill="#000000" font-family="sans-serif" font-size="13" font-weight="bold" lengthAdjust="spacing" textLength="7" x="359.75" y="182.5615">2</text><text fill="#000000" font-family="sans-serif" font-size="13" lengthAdjust="spacing" textLength="119" x="370.75" y="182.5615">validates proposal ID</text><path d="M23.25,215.8242 L84.25,215.8242 L84.25,225.1152 L74.25,235.1152 L23.25,235.1152 L23.25,215.8242 " fill="#EEEEEE" style="stroke:#000000;stroke-width:1.5;"/><rect fill="none" height="142.7949" style="stroke:#000000;stroke-width:1.5;" width="542.5" x="23.25" y="215.8242"/><text fill="#000000" font-family="sans-serif" font-size="13" font-weight="bold" lengthAdjust="spacing" textLength="16" x="38.25" y="230.8525">alt</text><text fill="#000000" font-family="sans-serif" font-size="11" font-weight="bold" lengthAdjust="spacing" textLength="94" x="99.25" y="229.6943">[proposal exists]</text><line style="stroke:#181818;stroke-width:1.0;" x1="352.75" x2="394.75" y1="258.4063" y2="258.4063"/><line style="stroke:#181818;stroke-width:1.0;" x1="394.75" x2="394.75" y1="258.4063" y2="271.4063"/><line style="stroke:#181818;stroke-width:1.0;" x1="353.75" x2="394.75" y1="271.4063" y2="271.4063"/><polygon fill="#181818" points="363.75,267.4063,353.75,271.4063,363.75,275.4063,359.75,271.4063" style="stroke:#181818;stroke-width:1.0;"/><text fill="#000000" font-family="sans-serif" font-size="13" font-weight="bold" lengthAdjust="spacing" textLength="7" x="359.75" y="253.1436">3</text><text fill="#000000" font-family="sans-serif" font-size="13" lengthAdjust="spacing" textLength="183" x="370.75" y="253.1436">updates proposal with video link</text><polygon fill="#181818" points="108.75,298.6973,98.75,302.6973,108.75,306.6973,104.75,302.6973" style="stroke:#181818;stroke-width:1.0;"/><line style="stroke:#181818;stroke-width:1.0;stroke-dasharray:2.0,2.0;" x1="102.75" x2="341.75" y1="302.6973" y2="302.6973"/><text fill="#000000" font-family="sans-serif" font-size="13" font-weight="bold" lengthAdjust="spacing" textLength="7" x="114.75" y="297.4346">4</text><text fill="#000000" font-family="sans-serif" font-size="13" lengthAdjust="spacing" textLength="156" x="125.75" y="297.4346">confirms video link updated</text><line style="stroke:#000000;stroke-width:1.0;stroke-dasharray:2.0,2.0;" x1="23.25" x2="565.75" y1="311.6973" y2="311.6973"/><text fill="#000000" font-family="sans-serif" font-size="11" font-weight="bold" lengthAdjust="spacing" textLength="113" x="28.25" y="323.5674">[proposal not found]</text><polygon fill="#181818" points="108.75,346.6191,98.75,350.6191,108.75,354.6191,104.75,350.6191" style="stroke:#181818;stroke-width:1.0;"/><line style="stroke:#181818;stroke-width:1.0;stroke-dasharray:2.0,2.0;" x1="102.75" x2="341.75" y1="350.6191" y2="350.6191"/><text fill="#000000" font-family="sans-serif" font-size="13" font-weight="bold" lengthAdjust="spacing" textLength="7" x="114.75" y="345.3564">5</text><text fill="#000000" font-family="sans-serif" font-size="13" lengthAdjust="spacing" textLength="189" x="125.75" y="345.3564">shows error "Proposal not found"</text><!--SRC=[VP6zRiCm38HtFGNXgHqo54MN30MAPEbGeAZH1s0isYOYYwv4EytRLqvSnKX_D0d7kyz7A-xPznYmWqwyL6sGZa33G2RcIO_L7XigzUW80bMAld5BGspHoe5z0pMwICOeQxAMnwZKGKaV0_cAOClOJFQRijpUmWhUIxY_Uu0dQs5aIm9IG-HkSAWi7bH0Mu8-I2yHdJ4ugFYXsr58zqebGB5vUu6DE8Sx2PYK0Z124aqgfbnnZrwXM9-Rd8Rdwmd08ogTt0RIcLYhn-_MwxHfwXqrJaKmTtJizvEIQqtH39lfC9-PjQIEwDWcQym4UDxc03gzwFJ9wVDvzWTmwAzm1zPsKVRNV09CwwwX4bzpwE9okpFHvY2bDxtWlIZKCdZxFpYsSeX08KpFzFeZN5peCydIzLyq2ob1lm00]--></g></svg>