<svg xmlns="http://www.w3.org/2000/svg" xmlns:xlink="http://www.w3.org/1999/xlink" contentStyleType="text/css" height="795px" preserveAspectRatio="none" style="width:1090px;height:795px;background:#FFFFFF;" version="1.1" viewBox="0 0 1090 795" width="1090px" zoomAndPan="magnify"><title>Class Diagram - US346 Drone Program Validation</title><defs><filter height="300%" id="fud81k750bx3n" width="300%" x="-1" y="-1"><feGaussianBlur result="blurOut" stdDeviation="2.0"/><feColorMatrix in="blurOut" result="blurOut2" type="matrix" values="0 0 0 0 0 0 0 0 0 0 0 0 0 0 0 0 0 0 .4 0"/><feOffset dx="4.0" dy="4.0" in="blurOut2" result="blurOut3"/><feBlend in="SourceGraphic" in2="blurOut3" mode="normal"/></filter></defs><g><text fill="#000000" font-family="sans-serif" font-size="14" font-weight="bold" lengthAdjust="spacing" textLength="329.1025" x="373.4702" y="25.1074">Class Diagram - US346 Drone Program Validation</text><!--class DroneTech--><g id="elem_DroneTech"><rect codeLine="8" fill="#F1F1F1" filter="url(#fud81k750bx3n)" height="60.582" id="DroneTech" rx="2.5" ry="2.5" style="stroke:#181818;stroke-width:0.5;" width="101.2549" x="617" y="46.6211"/><ellipse cx="632" cy="68.9121" fill="#ADD1B2" rx="11" ry="11" style="stroke:#181818;stroke-width:1.0;"/><path d="M634.7656,64.7871 Q634.9219,64.5684 635.1094,64.459 Q635.2969,64.3496 635.5156,64.3496 Q635.8906,64.3496 636.125,64.6152 Q636.3594,64.8652 636.3594,65.4746 L636.3594,66.9277 Q636.3594,67.5371 636.125,67.8027 Q635.8906,68.0684 635.5156,68.0684 Q635.1719,68.0684 634.9688,67.8652 Q634.7656,67.6777 634.6563,67.1621 Q634.6094,66.8027 634.4219,66.6152 Q634.0938,66.2402 633.4844,66.0215 Q632.875,65.8027 632.25,65.8027 Q631.4844,65.8027 630.8438,66.1309 Q630.2188,66.459 629.7188,67.209 Q629.2344,67.959 629.2344,68.9902 L629.2344,70.084 Q629.2344,71.3184 630.125,72.1465 Q631.0156,72.959 632.6094,72.959 Q633.5469,72.959 634.2031,72.709 Q634.5938,72.5527 635.0156,72.1152 Q635.2813,71.8496 635.4219,71.7715 Q635.5781,71.6934 635.7813,71.6934 Q636.1094,71.6934 636.3594,71.959 Q636.625,72.209 636.625,72.5527 Q636.625,72.8965 636.2813,73.3027 Q635.7813,73.8809 634.9844,74.209 Q633.9063,74.6621 632.6094,74.6621 Q631.0938,74.6621 629.8906,74.0371 Q628.9063,73.5371 628.2188,72.4746 Q627.5313,71.3965 627.5313,70.1152 L627.5313,68.959 Q627.5313,67.6309 628.1406,66.4902 Q628.7656,65.334 629.8594,64.7246 Q630.9531,64.0996 632.1875,64.0996 Q632.9219,64.0996 633.5625,64.2715 Q634.2188,64.4277 634.7656,64.7871 Z " fill="#000000"/><text fill="#000000" font-family="sans-serif" font-size="12" font-style="italic" lengthAdjust="spacing" textLength="40.0254" x="660.6147" y="64.5703">&#171;actor&#187;</text><text fill="#000000" font-family="sans-serif" font-size="14" lengthAdjust="spacing" textLength="69.2549" x="646" y="82.6895">DroneTech</text><line style="stroke:#181818;stroke-width:0.5;" x1="618" x2="717.2549" y1="91.2031" y2="91.2031"/><line style="stroke:#181818;stroke-width:0.5;" x1="618" x2="717.2549" y1="99.2031" y2="99.2031"/></g><!--class ValidateDroneLanguageAction--><g id="elem_ValidateDroneLanguageAction"><rect codeLine="10" fill="#F1F1F1" filter="url(#fud81k750bx3n)" height="66.6211" id="ValidateDroneLanguageAction" rx="2.5" ry="2.5" style="stroke:#181818;stroke-width:0.5;" width="221.9229" x="556.5" y="168.6211"/><ellipse cx="571.5" cy="184.6211" fill="#ADD1B2" rx="11" ry="11" style="stroke:#181818;stroke-width:1.0;"/><path d="M574.2656,180.4961 Q574.4219,180.2773 574.6094,180.168 Q574.7969,180.0586 575.0156,180.0586 Q575.3906,180.0586 575.625,180.3242 Q575.8594,180.5742 575.8594,181.1836 L575.8594,182.6367 Q575.8594,183.2461 575.625,183.5117 Q575.3906,183.7773 575.0156,183.7773 Q574.6719,183.7773 574.4688,183.5742 Q574.2656,183.3867 574.1563,182.8711 Q574.1094,182.5117 573.9219,182.3242 Q573.5938,181.9492 572.9844,181.7305 Q572.375,181.5117 571.75,181.5117 Q570.9844,181.5117 570.3438,181.8398 Q569.7188,182.168 569.2188,182.918 Q568.7344,183.668 568.7344,184.6992 L568.7344,185.793 Q568.7344,187.0273 569.625,187.8555 Q570.5156,188.668 572.1094,188.668 Q573.0469,188.668 573.7031,188.418 Q574.0938,188.2617 574.5156,187.8242 Q574.7813,187.5586 574.9219,187.4805 Q575.0781,187.4023 575.2813,187.4023 Q575.6094,187.4023 575.8594,187.668 Q576.125,187.918 576.125,188.2617 Q576.125,188.6055 575.7813,189.0117 Q575.2813,189.5898 574.4844,189.918 Q573.4063,190.3711 572.1094,190.3711 Q570.5938,190.3711 569.3906,189.7461 Q568.4063,189.2461 567.7188,188.1836 Q567.0313,187.1055 567.0313,185.8242 L567.0313,184.668 Q567.0313,183.3398 567.6406,182.1992 Q568.2656,181.043 569.3594,180.4336 Q570.4531,179.8086 571.6875,179.8086 Q572.4219,179.8086 573.0625,179.9805 Q573.7188,180.1367 574.2656,180.4961 Z " fill="#000000"/><text fill="#000000" font-family="sans-serif" font-size="14" lengthAdjust="spacing" textLength="189.9229" x="585.5" y="190.418">ValidateDroneLanguageAction</text><line style="stroke:#181818;stroke-width:0.5;" x1="557.5" x2="777.4229" y1="200.6211" y2="200.6211"/><line style="stroke:#181818;stroke-width:0.5;" x1="557.5" x2="777.4229" y1="208.6211" y2="208.6211"/><text fill="#000000" font-family="sans-serif" font-size="14" lengthAdjust="spacing" textLength="129.5889" x="562.5" y="227.7285">+doShow() : boolean</text></g><!--class ValidateDroneLanguageUI--><g id="elem_ValidateDroneLanguageUI"><rect codeLine="14" fill="#F1F1F1" filter="url(#fud81k750bx3n)" height="66.6211" id="ValidateDroneLanguageUI" rx="2.5" ry="2.5" style="stroke:#181818;stroke-width:0.5;" width="197.0127" x="569" y="314.6211"/><ellipse cx="584" cy="330.6211" fill="#ADD1B2" rx="11" ry="11" style="stroke:#181818;stroke-width:1.0;"/><path d="M586.7656,326.4961 Q586.9219,326.2773 587.1094,326.168 Q587.2969,326.0586 587.5156,326.0586 Q587.8906,326.0586 588.125,326.3242 Q588.3594,326.5742 588.3594,327.1836 L588.3594,328.6367 Q588.3594,329.2461 588.125,329.5117 Q587.8906,329.7773 587.5156,329.7773 Q587.1719,329.7773 586.9688,329.5742 Q586.7656,329.3867 586.6563,328.8711 Q586.6094,328.5117 586.4219,328.3242 Q586.0938,327.9492 585.4844,327.7305 Q584.875,327.5117 584.25,327.5117 Q583.4844,327.5117 582.8438,327.8398 Q582.2188,328.168 581.7188,328.918 Q581.2344,329.668 581.2344,330.6992 L581.2344,331.793 Q581.2344,333.0273 582.125,333.8555 Q583.0156,334.668 584.6094,334.668 Q585.5469,334.668 586.2031,334.418 Q586.5938,334.2617 587.0156,333.8242 Q587.2813,333.5586 587.4219,333.4805 Q587.5781,333.4023 587.7813,333.4023 Q588.1094,333.4023 588.3594,333.668 Q588.625,333.918 588.625,334.2617 Q588.625,334.6055 588.2813,335.0117 Q587.7813,335.5898 586.9844,335.918 Q585.9063,336.3711 584.6094,336.3711 Q583.0938,336.3711 581.8906,335.7461 Q580.9063,335.2461 580.2188,334.1836 Q579.5313,333.1055 579.5313,331.8242 L579.5313,330.668 Q579.5313,329.3398 580.1406,328.1992 Q580.7656,327.043 581.8594,326.4336 Q582.9531,325.8086 584.1875,325.8086 Q584.9219,325.8086 585.5625,325.9805 Q586.2188,326.1367 586.7656,326.4961 Z " fill="#000000"/><text fill="#000000" font-family="sans-serif" font-size="14" lengthAdjust="spacing" textLength="165.0127" x="598" y="336.418">ValidateDroneLanguageUI</text><line style="stroke:#181818;stroke-width:0.5;" x1="570" x2="765.0127" y1="346.6211" y2="346.6211"/><line style="stroke:#181818;stroke-width:0.5;" x1="570" x2="765.0127" y1="354.6211" y2="354.6211"/><text fill="#000000" font-family="sans-serif" font-size="14" lengthAdjust="spacing" textLength="129.5889" x="575" y="373.7285">+doShow() : boolean</text></g><!--class ListDronesWithLanguagesDTOController--><g id="elem_ListDronesWithLanguagesDTOController"><rect codeLine="19" fill="#F1F1F1" filter="url(#fud81k750bx3n)" height="66.6211" id="ListDronesWithLanguagesDTOController" rx="2.5" ry="2.5" style="stroke:#181818;stroke-width:0.5;" width="381.2842" x="268" y="442.6211"/><ellipse cx="327.1685" cy="458.6211" fill="#ADD1B2" rx="11" ry="11" style="stroke:#181818;stroke-width:1.0;"/><path d="M329.9341,454.4961 Q330.0903,454.2773 330.2778,454.168 Q330.4653,454.0586 330.6841,454.0586 Q331.0591,454.0586 331.2935,454.3242 Q331.5278,454.5742 331.5278,455.1836 L331.5278,456.6367 Q331.5278,457.2461 331.2935,457.5117 Q331.0591,457.7773 330.6841,457.7773 Q330.3403,457.7773 330.1372,457.5742 Q329.9341,457.3867 329.8247,456.8711 Q329.7778,456.5117 329.5903,456.3242 Q329.2622,455.9492 328.6528,455.7305 Q328.0435,455.5117 327.4185,455.5117 Q326.6528,455.5117 326.0122,455.8398 Q325.3872,456.168 324.8872,456.918 Q324.4028,457.668 324.4028,458.6992 L324.4028,459.793 Q324.4028,461.0273 325.2935,461.8555 Q326.1841,462.668 327.7778,462.668 Q328.7153,462.668 329.3716,462.418 Q329.7622,462.2617 330.1841,461.8242 Q330.4497,461.5586 330.5903,461.4805 Q330.7466,461.4023 330.9497,461.4023 Q331.2778,461.4023 331.5278,461.668 Q331.7935,461.918 331.7935,462.2617 Q331.7935,462.6055 331.4497,463.0117 Q330.9497,463.5898 330.1528,463.918 Q329.0747,464.3711 327.7778,464.3711 Q326.2622,464.3711 325.0591,463.7461 Q324.0747,463.2461 323.3872,462.1836 Q322.6997,461.1055 322.6997,459.8242 L322.6997,458.668 Q322.6997,457.3398 323.3091,456.1992 Q323.9341,455.043 325.0278,454.4336 Q326.1216,453.8086 327.356,453.8086 Q328.0903,453.8086 328.731,453.9805 Q329.3872,454.1367 329.9341,454.4961 Z " fill="#000000"/><text fill="#000000" font-family="sans-serif" font-size="14" lengthAdjust="spacing" textLength="254.4473" x="347.6685" y="464.418">ListDronesWithLanguagesDTOController</text><line style="stroke:#181818;stroke-width:0.5;" x1="269" x2="648.2842" y1="474.6211" y2="474.6211"/><line style="stroke:#181818;stroke-width:0.5;" x1="269" x2="648.2842" y1="482.6211" y2="482.6211"/><text fill="#000000" font-family="sans-serif" font-size="14" lengthAdjust="spacing" textLength="369.2842" x="274" y="501.7285">+dronesWithLanguages() : Iterable&lt;DroneLanguagesDTO&gt;</text></g><!--class ListDronesWithLanguagesDTOService--><g id="elem_ListDronesWithLanguagesDTOService"><rect codeLine="23" fill="#F1F1F1" filter="url(#fud81k750bx3n)" height="66.6211" id="ListDronesWithLanguagesDTOService" rx="2.5" ry="2.5" style="stroke:#181818;stroke-width:0.5;" width="416.2773" x="237.5" y="570.6211"/><ellipse cx="321.1685" cy="586.6211" fill="#ADD1B2" rx="11" ry="11" style="stroke:#181818;stroke-width:1.0;"/><path d="M323.9341,582.4961 Q324.0903,582.2773 324.2778,582.168 Q324.4653,582.0586 324.6841,582.0586 Q325.0591,582.0586 325.2935,582.3242 Q325.5278,582.5742 325.5278,583.1836 L325.5278,584.6367 Q325.5278,585.2461 325.2935,585.5117 Q325.0591,585.7773 324.6841,585.7773 Q324.3403,585.7773 324.1372,585.5742 Q323.9341,585.3867 323.8247,584.8711 Q323.7778,584.5117 323.5903,584.3242 Q323.2622,583.9492 322.6528,583.7305 Q322.0435,583.5117 321.4185,583.5117 Q320.6528,583.5117 320.0122,583.8398 Q319.3872,584.168 318.8872,584.918 Q318.4028,585.668 318.4028,586.6992 L318.4028,587.793 Q318.4028,589.0273 319.2935,589.8555 Q320.1841,590.668 321.7778,590.668 Q322.7153,590.668 323.3716,590.418 Q323.7622,590.2617 324.1841,589.8242 Q324.4497,589.5586 324.5903,589.4805 Q324.7466,589.4023 324.9497,589.4023 Q325.2778,589.4023 325.5278,589.668 Q325.7935,589.918 325.7935,590.2617 Q325.7935,590.6055 325.4497,591.0117 Q324.9497,591.5898 324.1528,591.918 Q323.0747,592.3711 321.7778,592.3711 Q320.2622,592.3711 319.0591,591.7461 Q318.0747,591.2461 317.3872,590.1836 Q316.6997,589.1055 316.6997,587.8242 L316.6997,586.668 Q316.6997,585.3398 317.3091,584.1992 Q317.9341,583.043 319.0278,582.4336 Q320.1216,581.8086 321.356,581.8086 Q322.0903,581.8086 322.731,581.9805 Q323.3872,582.1367 323.9341,582.4961 Z " fill="#000000"/><text fill="#000000" font-family="sans-serif" font-size="14" lengthAdjust="spacing" textLength="240.4404" x="341.6685" y="592.418">ListDronesWithLanguagesDTOService</text><line style="stroke:#181818;stroke-width:0.5;" x1="238.5" x2="652.7773" y1="602.6211" y2="602.6211"/><line style="stroke:#181818;stroke-width:0.5;" x1="238.5" x2="652.7773" y1="610.6211" y2="610.6211"/><text fill="#000000" font-family="sans-serif" font-size="14" lengthAdjust="spacing" textLength="404.2773" x="243.5" y="629.7285">+listAllDronesWithLanguages() : Iterable&lt;DroneLanguagesDTO&gt;</text></g><!--class DroneRepository--><g id="elem_DroneRepository"><rect codeLine="28" fill="#F1F1F1" filter="url(#fud81k750bx3n)" height="66.6211" id="DroneRepository" rx="2.5" ry="2.5" style="stroke:#181818;stroke-width:0.5;" width="354.7949" x="7" y="707.6211"/><ellipse cx="127.6235" cy="723.6211" fill="#ADD1B2" rx="11" ry="11" style="stroke:#181818;stroke-width:1.0;"/><path d="M130.3892,719.4961 Q130.5454,719.2773 130.7329,719.168 Q130.9204,719.0586 131.1392,719.0586 Q131.5142,719.0586 131.7485,719.3242 Q131.9829,719.5742 131.9829,720.1836 L131.9829,721.6367 Q131.9829,722.2461 131.7485,722.5117 Q131.5142,722.7773 131.1392,722.7773 Q130.7954,722.7773 130.5923,722.5742 Q130.3892,722.3867 130.2798,721.8711 Q130.2329,721.5117 130.0454,721.3242 Q129.7173,720.9492 129.1079,720.7305 Q128.4985,720.5117 127.8735,720.5117 Q127.1079,720.5117 126.4673,720.8398 Q125.8423,721.168 125.3423,721.918 Q124.8579,722.668 124.8579,723.6992 L124.8579,724.793 Q124.8579,726.0273 125.7485,726.8555 Q126.6392,727.668 128.2329,727.668 Q129.1704,727.668 129.8267,727.418 Q130.2173,727.2617 130.6392,726.8242 Q130.9048,726.5586 131.0454,726.4805 Q131.2017,726.4023 131.4048,726.4023 Q131.7329,726.4023 131.9829,726.668 Q132.2485,726.918 132.2485,727.2617 Q132.2485,727.6055 131.9048,728.0117 Q131.4048,728.5898 130.6079,728.918 Q129.5298,729.3711 128.2329,729.3711 Q126.7173,729.3711 125.5142,728.7461 Q124.5298,728.2461 123.8423,727.1836 Q123.1548,726.1055 123.1548,724.8242 L123.1548,723.668 Q123.1548,722.3398 123.7642,721.1992 Q124.3892,720.043 125.4829,719.4336 Q126.5767,718.8086 127.811,718.8086 Q128.5454,718.8086 129.186,718.9805 Q129.8423,719.1367 130.3892,719.4961 Z " fill="#000000"/><text fill="#000000" font-family="sans-serif" font-size="14" lengthAdjust="spacing" textLength="105.0479" x="148.1235" y="729.418">DroneRepository</text><line style="stroke:#181818;stroke-width:0.5;" x1="8" x2="360.7949" y1="739.6211" y2="739.6211"/><line style="stroke:#181818;stroke-width:0.5;" x1="8" x2="360.7949" y1="747.6211" y2="747.6211"/><text fill="#000000" font-family="sans-serif" font-size="14" lengthAdjust="spacing" textLength="342.7949" x="13" y="766.7285">+findAllWithProgrammingLanguage() : Iterable&lt;Drone&gt;</text></g><!--class DroneLanguagesDTO--><g id="elem_DroneLanguagesDTO"><rect codeLine="32" fill="#F1F1F1" filter="url(#fud81k750bx3n)" height="85.2422" id="DroneLanguagesDTO" rx="2.5" ry="2.5" style="stroke:#181818;stroke-width:0.5;" width="243.5195" x="397.5" y="698.6211"/><ellipse cx="446.5239" cy="714.6211" fill="#ADD1B2" rx="11" ry="11" style="stroke:#181818;stroke-width:1.0;"/><path d="M449.2896,710.4961 Q449.4458,710.2773 449.6333,710.168 Q449.8208,710.0586 450.0396,710.0586 Q450.4146,710.0586 450.6489,710.3242 Q450.8833,710.5742 450.8833,711.1836 L450.8833,712.6367 Q450.8833,713.2461 450.6489,713.5117 Q450.4146,713.7773 450.0396,713.7773 Q449.6958,713.7773 449.4927,713.5742 Q449.2896,713.3867 449.1802,712.8711 Q449.1333,712.5117 448.9458,712.3242 Q448.6177,711.9492 448.0083,711.7305 Q447.3989,711.5117 446.7739,711.5117 Q446.0083,711.5117 445.3677,711.8398 Q444.7427,712.168 444.2427,712.918 Q443.7583,713.668 443.7583,714.6992 L443.7583,715.793 Q443.7583,717.0273 444.6489,717.8555 Q445.5396,718.668 447.1333,718.668 Q448.0708,718.668 448.7271,718.418 Q449.1177,718.2617 449.5396,717.8242 Q449.8052,717.5586 449.9458,717.4805 Q450.1021,717.4023 450.3052,717.4023 Q450.6333,717.4023 450.8833,717.668 Q451.1489,717.918 451.1489,718.2617 Q451.1489,718.6055 450.8052,719.0117 Q450.3052,719.5898 449.5083,719.918 Q448.4302,720.3711 447.1333,720.3711 Q445.6177,720.3711 444.4146,719.7461 Q443.4302,719.2461 442.7427,718.1836 Q442.0552,717.1055 442.0552,715.8242 L442.0552,714.668 Q442.0552,713.3398 442.6646,712.1992 Q443.2896,711.043 444.3833,710.4336 Q445.4771,709.8086 446.7114,709.8086 Q447.4458,709.8086 448.0864,709.9805 Q448.7427,710.1367 449.2896,710.4961 Z " fill="#000000"/><text fill="#000000" font-family="sans-serif" font-size="14" lengthAdjust="spacing" textLength="136.9717" x="467.0239" y="720.418">DroneLanguagesDTO</text><line style="stroke:#181818;stroke-width:0.5;" x1="398.5" x2="640.0195" y1="730.6211" y2="730.6211"/><line style="stroke:#181818;stroke-width:0.5;" x1="398.5" x2="640.0195" y1="738.6211" y2="738.6211"/><text fill="#000000" font-family="sans-serif" font-size="14" lengthAdjust="spacing" textLength="231.5195" x="403.5" y="757.7285">+getProgrammingLanguage() : String</text><text fill="#000000" font-family="sans-serif" font-size="14" lengthAdjust="spacing" textLength="96.8789" x="403.5" y="776.3496">+getId() : String</text></g><!--class DroneLanguageValidatorController--><g id="elem_DroneLanguageValidatorController"><rect codeLine="37" fill="#F1F1F1" filter="url(#fud81k750bx3n)" height="66.6211" id="DroneLanguageValidatorController" rx="2.5" ry="2.5" style="stroke:#181818;stroke-width:0.5;" width="389.043" x="686" y="442.6211"/><ellipse cx="768.0894" cy="458.6211" fill="#ADD1B2" rx="11" ry="11" style="stroke:#181818;stroke-width:1.0;"/><path d="M770.855,454.4961 Q771.0112,454.2773 771.1987,454.168 Q771.3862,454.0586 771.605,454.0586 Q771.98,454.0586 772.2144,454.3242 Q772.4487,454.5742 772.4487,455.1836 L772.4487,456.6367 Q772.4487,457.2461 772.2144,457.5117 Q771.98,457.7773 771.605,457.7773 Q771.2612,457.7773 771.0581,457.5742 Q770.855,457.3867 770.7456,456.8711 Q770.6987,456.5117 770.5112,456.3242 Q770.1831,455.9492 769.5737,455.7305 Q768.9644,455.5117 768.3394,455.5117 Q767.5737,455.5117 766.9331,455.8398 Q766.3081,456.168 765.8081,456.918 Q765.3237,457.668 765.3237,458.6992 L765.3237,459.793 Q765.3237,461.0273 766.2144,461.8555 Q767.105,462.668 768.6987,462.668 Q769.6362,462.668 770.2925,462.418 Q770.6831,462.2617 771.105,461.8242 Q771.3706,461.5586 771.5112,461.4805 Q771.6675,461.4023 771.8706,461.4023 Q772.1987,461.4023 772.4487,461.668 Q772.7144,461.918 772.7144,462.2617 Q772.7144,462.6055 772.3706,463.0117 Q771.8706,463.5898 771.0737,463.918 Q769.9956,464.3711 768.6987,464.3711 Q767.1831,464.3711 765.98,463.7461 Q764.9956,463.2461 764.3081,462.1836 Q763.6206,461.1055 763.6206,459.8242 L763.6206,458.668 Q763.6206,457.3398 764.23,456.1992 Q764.855,455.043 765.9487,454.4336 Q767.0425,453.8086 768.2769,453.8086 Q769.0112,453.8086 769.6519,453.9805 Q770.3081,454.1367 770.855,454.4961 Z " fill="#000000"/><text fill="#000000" font-family="sans-serif" font-size="14" lengthAdjust="spacing" textLength="216.3643" x="788.5894" y="464.418">DroneLanguageValidatorController</text><line style="stroke:#181818;stroke-width:0.5;" x1="687" x2="1074.043" y1="474.6211" y2="474.6211"/><line style="stroke:#181818;stroke-width:0.5;" x1="687" x2="1074.043" y1="482.6211" y2="482.6211"/><text fill="#000000" font-family="sans-serif" font-size="14" lengthAdjust="spacing" textLength="377.043" x="692" y="501.7285">+validateDroneProgram(path : String, lang : String) : boolean</text></g><!--class DroneInventoryService--><g id="elem_DroneInventoryService"><rect codeLine="41" fill="#F1F1F1" filter="url(#fud81k750bx3n)" height="66.6211" id="DroneInventoryService" rx="2.5" ry="2.5" style="stroke:#181818;stroke-width:0.5;" width="389.043" x="689" y="570.6211"/><ellipse cx="808.0718" cy="586.6211" fill="#ADD1B2" rx="11" ry="11" style="stroke:#181818;stroke-width:1.0;"/><path d="M810.8374,582.4961 Q810.9937,582.2773 811.1812,582.168 Q811.3687,582.0586 811.5874,582.0586 Q811.9624,582.0586 812.1968,582.3242 Q812.4312,582.5742 812.4312,583.1836 L812.4312,584.6367 Q812.4312,585.2461 812.1968,585.5117 Q811.9624,585.7773 811.5874,585.7773 Q811.2437,585.7773 811.0405,585.5742 Q810.8374,585.3867 810.728,584.8711 Q810.6812,584.5117 810.4937,584.3242 Q810.1655,583.9492 809.5562,583.7305 Q808.9468,583.5117 808.3218,583.5117 Q807.5562,583.5117 806.9155,583.8398 Q806.2905,584.168 805.7905,584.918 Q805.3062,585.668 805.3062,586.6992 L805.3062,587.793 Q805.3062,589.0273 806.1968,589.8555 Q807.0874,590.668 808.6812,590.668 Q809.6187,590.668 810.2749,590.418 Q810.6655,590.2617 811.0874,589.8242 Q811.353,589.5586 811.4937,589.4805 Q811.6499,589.4023 811.853,589.4023 Q812.1812,589.4023 812.4312,589.668 Q812.6968,589.918 812.6968,590.2617 Q812.6968,590.6055 812.353,591.0117 Q811.853,591.5898 811.0562,591.918 Q809.978,592.3711 808.6812,592.3711 Q807.1655,592.3711 805.9624,591.7461 Q804.978,591.2461 804.2905,590.1836 Q803.603,589.1055 803.603,587.8242 L803.603,586.668 Q803.603,585.3398 804.2124,584.1992 Q804.8374,583.043 805.9312,582.4336 Q807.0249,581.8086 808.2593,581.8086 Q808.9937,581.8086 809.6343,581.9805 Q810.2905,582.1367 810.8374,582.4961 Z " fill="#000000"/><text fill="#000000" font-family="sans-serif" font-size="14" lengthAdjust="spacing" textLength="142.3994" x="828.5718" y="592.418">DroneInventoryService</text><line style="stroke:#181818;stroke-width:0.5;" x1="690" x2="1077.043" y1="602.6211" y2="602.6211"/><line style="stroke:#181818;stroke-width:0.5;" x1="690" x2="1077.043" y1="610.6211" y2="610.6211"/><text fill="#000000" font-family="sans-serif" font-size="14" lengthAdjust="spacing" textLength="377.043" x="695" y="629.7285">+validateDroneProgram(path : String, lang : String) : boolean</text></g><!--class DronePluginClass--><g id="elem_DronePluginClass"><rect codeLine="45" fill="#F1F1F1" filter="url(#fud81k750bx3n)" height="85.2422" id="DronePluginClass" rx="2.5" ry="2.5" style="stroke:#181818;stroke-width:0.5;" width="267.6709" x="749.5" y="698.6211"/><ellipse cx="823.0581" cy="714.6211" fill="#ADD1B2" rx="11" ry="11" style="stroke:#181818;stroke-width:1.0;"/><path d="M825.8237,710.4961 Q825.98,710.2773 826.1675,710.168 Q826.355,710.0586 826.5737,710.0586 Q826.9487,710.0586 827.1831,710.3242 Q827.4175,710.5742 827.4175,711.1836 L827.4175,712.6367 Q827.4175,713.2461 827.1831,713.5117 Q826.9487,713.7773 826.5737,713.7773 Q826.23,713.7773 826.0269,713.5742 Q825.8237,713.3867 825.7144,712.8711 Q825.6675,712.5117 825.48,712.3242 Q825.1519,711.9492 824.5425,711.7305 Q823.9331,711.5117 823.3081,711.5117 Q822.5425,711.5117 821.9019,711.8398 Q821.2769,712.168 820.7769,712.918 Q820.2925,713.668 820.2925,714.6992 L820.2925,715.793 Q820.2925,717.0273 821.1831,717.8555 Q822.0737,718.668 823.6675,718.668 Q824.605,718.668 825.2612,718.418 Q825.6519,718.2617 826.0737,717.8242 Q826.3394,717.5586 826.48,717.4805 Q826.6362,717.4023 826.8394,717.4023 Q827.1675,717.4023 827.4175,717.668 Q827.6831,717.918 827.6831,718.2617 Q827.6831,718.6055 827.3394,719.0117 Q826.8394,719.5898 826.0425,719.918 Q824.9644,720.3711 823.6675,720.3711 Q822.1519,720.3711 820.9487,719.7461 Q819.9644,719.2461 819.2769,718.1836 Q818.5894,717.1055 818.5894,715.8242 L818.5894,714.668 Q818.5894,713.3398 819.1987,712.1992 Q819.8237,711.043 820.9175,710.4336 Q822.0112,709.8086 823.2456,709.8086 Q823.98,709.8086 824.6206,709.9805 Q825.2769,710.1367 825.8237,710.4961 Z " fill="#000000"/><text fill="#000000" font-family="sans-serif" font-size="14" lengthAdjust="spacing" textLength="112.0547" x="843.5581" y="720.418">DronePluginClass</text><line style="stroke:#181818;stroke-width:0.5;" x1="750.5" x2="1016.1709" y1="730.6211" y2="730.6211"/><line style="stroke:#181818;stroke-width:0.5;" x1="750.5" x2="1016.1709" y1="738.6211" y2="738.6211"/><text fill="#000000" font-family="sans-serif" font-size="14" lengthAdjust="spacing" textLength="255.6709" x="755.5" y="757.7285">+droneOnePlugin(path : String) : boolean</text><text fill="#000000" font-family="sans-serif" font-size="14" lengthAdjust="spacing" textLength="255.6572" x="755.5" y="776.3496">+droneTwoPlugin(path : String) : boolean</text></g><!--link DroneTech to ValidateDroneLanguageAction--><g id="link_DroneTech_ValidateDroneLanguageAction"><path codeLine="51" d="M667.5,107.8911 C667.5,126.2411 667.5,143.7711 667.5,162.6011 " fill="none" id="DroneTech-to-ValidateDroneLanguageAction" style="stroke:#181818;stroke-width:1.0;"/><polygon fill="#181818" points="667.5,168.6011,671.5,159.6011,667.5,163.6011,663.5,159.6011,667.5,168.6011" style="stroke:#181818;stroke-width:1.0;"/></g><!--link ValidateDroneLanguageAction to ValidateDroneLanguageUI--><g id="link_ValidateDroneLanguageAction_ValidateDroneLanguageUI"><path codeLine="52" d="M667.5,235.8011 C667.5,259.3611 667.5,285.0411 667.5,308.5711 " fill="none" id="ValidateDroneLanguageAction-to-ValidateDroneLanguageUI" style="stroke:#181818;stroke-width:1.0;"/><polygon fill="#181818" points="667.5,314.5711,671.5,305.5711,667.5,309.5711,663.5,305.5711,667.5,314.5711" style="stroke:#181818;stroke-width:1.0;"/><text fill="#000000" font-family="sans-serif" font-size="13" lengthAdjust="spacing" textLength="27.46" x="668.5" y="280.6494">uses</text></g><!--link ValidateDroneLanguageUI to ListDronesWithLanguagesDTOController--><g id="link_ValidateDroneLanguageUI_ListDronesWithLanguagesDTOController"><path codeLine="53" d="M613.41,381.7311 C582.44,400.4011 548.8587,420.6536 517.8687,439.3336 " fill="none" id="ValidateDroneLanguageUI-to-ListDronesWithLanguagesDTOController" style="stroke:#181818;stroke-width:1.0;"/><polygon fill="#181818" points="512.73,442.4311,522.503,441.2107,517.0122,439.8499,518.373,434.3591,512.73,442.4311" style="stroke:#181818;stroke-width:1.0;"/></g><!--link ListDronesWithLanguagesDTOController to ListDronesWithLanguagesDTOService--><g id="link_ListDronesWithLanguagesDTOController_ListDronesWithLanguagesDTOService"><path codeLine="54" d="M455.12,509.9011 C453.19,528.5611 451.4079,545.903 449.4779,564.543 " fill="none" id="ListDronesWithLanguagesDTOController-to-ListDronesWithLanguagesDTOService" style="stroke:#181818;stroke-width:1.0;"/><polygon fill="#181818" points="448.86,570.5111,453.7656,561.9709,449.375,565.5377,445.8082,561.147,448.86,570.5111" style="stroke:#181818;stroke-width:1.0;"/></g><!--link ListDronesWithLanguagesDTOService to DroneRepository--><g id="link_ListDronesWithLanguagesDTOService_DroneRepository"><path codeLine="55" d="M382.65,637.6311 C341.77,658.7711 293.9894,683.4947 253.0394,704.6747 " fill="none" id="ListDronesWithLanguagesDTOService-to-DroneRepository" style="stroke:#181818;stroke-width:1.0;"/><polygon fill="#181818" points="247.71,707.4311,257.5417,706.8494,252.1511,705.1341,253.8664,699.7435,247.71,707.4311" style="stroke:#181818;stroke-width:1.0;"/></g><!--link ListDronesWithLanguagesDTOService to DroneLanguagesDTO--><g id="link_ListDronesWithLanguagesDTOService_DroneLanguagesDTO"><path codeLine="56" d="M463.41,637.8011 C473.42,656.0611 483.1171,673.7391 493.8171,693.2691 " fill="none" id="ListDronesWithLanguagesDTOService-to-DroneLanguagesDTO" style="stroke:#181818;stroke-width:1.0;"/><polygon fill="#181818" points="496.7,698.5311,495.8836,688.7161,494.2976,694.1461,488.8676,692.56,496.7,698.5311" style="stroke:#181818;stroke-width:1.0;"/></g><!--link ValidateDroneLanguageUI to DroneLanguageValidatorController--><g id="link_ValidateDroneLanguageUI_DroneLanguageValidatorController"><path codeLine="58" d="M722.63,381.7311 C754.19,400.4011 788.4858,420.6964 820.0658,439.3764 " fill="none" id="ValidateDroneLanguageUI-to-DroneLanguageValidatorController" style="stroke:#181818;stroke-width:1.0;"/><polygon fill="#181818" points="825.23,442.4311,819.5202,434.4063,820.9265,439.8855,815.4473,441.2919,825.23,442.4311" style="stroke:#181818;stroke-width:1.0;"/></g><!--link DroneLanguageValidatorController to DroneInventoryService--><g id="link_DroneLanguageValidatorController_DroneInventoryService"><path codeLine="59" d="M881.28,509.9011 C881.72,528.5611 882.1384,545.8728 882.5784,564.5128 " fill="none" id="DroneLanguageValidatorController-to-DroneInventoryService" style="stroke:#181818;stroke-width:1.0;"/><polygon fill="#181818" points="882.72,570.5111,886.5065,561.4192,882.602,565.5125,878.5087,561.608,882.72,570.5111" style="stroke:#181818;stroke-width:1.0;"/></g><!--link DroneInventoryService to DronePluginClass--><g id="link_DroneInventoryService_DronePluginClass"><path codeLine="60" d="M883.5,637.8011 C883.5,656.0611 883.5,673.0011 883.5,692.5311 " fill="none" id="DroneInventoryService-to-DronePluginClass" style="stroke:#181818;stroke-width:1.0;"/><polygon fill="#181818" points="883.5,698.5311,887.5,689.5311,883.5,693.5311,879.5,689.5311,883.5,698.5311" style="stroke:#181818;stroke-width:1.0;"/></g><!--SRC=[hPDFQ-Cm4CNl-XHpIqitiB1B3oK4Gdqn55hgf7jMxAajLj4OIKveb_tkbLJRKVuvRMbkySpytjZpdXLM8jnARWmaWfUQhs0CY-pNxsj8D2c41qtXwHENek1Ma69i1DbVeQ3chc3WcJJa4ha2QcpTM6PSCTJSOmUUMQl5ih6OvgGoyOhmCsen5Ize8rG9LZVesRFSaZR0LG6BbENlk_bTvfXNC9bmNvzEMLjg5yFGSiTLsV0I7SDj2lyOkDzLGLb5cujBk84baL-L_HySNwJ3eoEu9MKrIOawB9gXNeiSM-QTC3Rmp1zXgmvgalbzDDO97FO5jTIYvak9avt5F6EwNVwqKBjGfo9TuqpAv6jY8qXenOMAZ_68DHdXBl7IQJmBLJWDJszDit9dxM17TA8NET3je2NQKx3CsKgLVLjQn4-FazjZapwymphsGIjvKNDRzSmV81sc_tlKJM4wLMjK_ili7U4R9HvaKmhrdjlOIFTTQPSRWxRDymsTQmx7VqGPWcygKHksZU9uF1rA7njAvibP5xqRQ0mQTghiHp-ICFQX60xJkboV3vhdx0NZCrDnaGs- -Zb3ixEExodxHcN7xTltHwvZRm00]--></g></svg>