<svg xmlns="http://www.w3.org/2000/svg" xmlns:xlink="http://www.w3.org/1999/xlink" contentStyleType="text/css" height="578px" preserveAspectRatio="none" style="width:589px;height:578px;background:#FFFFFF;" version="1.1" viewBox="0 0 589 578" width="589px" zoomAndPan="magnify"><title>System Sequence Diagram - US346 Validate Drone Program</title><defs/><g><text fill="#000000" font-family="sans-serif" font-size="14" font-weight="bold" lengthAdjust="spacing" textLength="398.3711" x="102.4229" y="30.1074">System Sequence Diagram - US346 Validate Drone Program</text><rect fill="#FFFFFF" height="344.25" style="stroke:#181818;stroke-width:1.0;" width="10" x="37.6274" y="133.2422"/><rect fill="#FFFFFF" height="75.582" style="stroke:#181818;stroke-width:1.0;" width="10" x="311.9063" y="156.5332"/><rect fill="#FFFFFF" height="214.0859" style="stroke:#181818;stroke-width:1.0;" width="10" x="311.9063" y="263.4063"/><rect fill="none" height="124.5039" style="stroke:#000000;stroke-width:1.5;" width="292.2222" x="276.5684" y="322.6973"/><line style="stroke:#181818;stroke-width:0.5;stroke-dasharray:5.0,5.0;" x1="42" x2="42" y1="123.2422" y2="495.4922"/><line style="stroke:#181818;stroke-width:0.5;stroke-dasharray:5.0,5.0;" x1="316.5684" x2="316.5684" y1="123.2422" y2="495.4922"/><text fill="#000000" font-family="sans-serif" font-size="14" lengthAdjust="spacing" textLength="69.2549" x="5" y="119.7285">DroneTech</text><ellipse cx="42.6274" cy="53.1211" fill="#E2E2F0" rx="8" ry="8" style="stroke:#181818;stroke-width:0.5;"/><path d="M42.6274,61.1211 L42.6274,88.1211 M29.6274,69.1211 L55.6274,69.1211 M42.6274,88.1211 L29.6274,103.1211 M42.6274,88.1211 L55.6274,103.1211 " fill="none" style="stroke:#181818;stroke-width:0.5;"/><text fill="#000000" font-family="sans-serif" font-size="14" lengthAdjust="spacing" textLength="69.2549" x="5" y="509.5996">DroneTech</text><ellipse cx="42.6274" cy="521.6133" fill="#E2E2F0" rx="8" ry="8" style="stroke:#181818;stroke-width:0.5;"/><path d="M42.6274,529.6133 L42.6274,556.6133 M29.6274,537.6133 L55.6274,537.6133 M42.6274,556.6133 L29.6274,571.6133 M42.6274,556.6133 L55.6274,571.6133 " fill="none" style="stroke:#181818;stroke-width:0.5;"/><rect fill="#E2E2F0" height="32.6211" rx="2.5" ry="2.5" style="stroke:#181818;stroke-width:0.5;" width="60.6758" x="286.5684" y="89.6211"/><text fill="#000000" font-family="sans-serif" font-size="14" lengthAdjust="spacing" textLength="46.6758" x="293.5684" y="111.7285">System</text><rect fill="#E2E2F0" height="32.6211" rx="2.5" ry="2.5" style="stroke:#181818;stroke-width:0.5;" width="60.6758" x="286.5684" y="494.4922"/><text fill="#000000" font-family="sans-serif" font-size="14" lengthAdjust="spacing" textLength="46.6758" x="293.5684" y="516.5996">System</text><rect fill="#FFFFFF" height="344.25" style="stroke:#181818;stroke-width:1.0;" width="10" x="37.6274" y="133.2422"/><rect fill="#FFFFFF" height="75.582" style="stroke:#181818;stroke-width:1.0;" width="10" x="311.9063" y="156.5332"/><rect fill="#FFFFFF" height="214.0859" style="stroke:#181818;stroke-width:1.0;" width="10" x="311.9063" y="263.4063"/><polygon fill="#181818" points="299.9063,152.5332,309.9063,156.5332,299.9063,160.5332,303.9063,156.5332" style="stroke:#181818;stroke-width:1.0;"/><line style="stroke:#181818;stroke-width:1.0;" x1="47.6274" x2="305.9063" y1="156.5332" y2="156.5332"/><text fill="#000000" font-family="sans-serif" font-size="13" font-weight="bold" lengthAdjust="spacing" textLength="7.23" x="54.6274" y="151.2705">1</text><text fill="#000000" font-family="sans-serif" font-size="13" lengthAdjust="spacing" textLength="109.1162" x="65.8574" y="151.2705">requestValidation()</text><line style="stroke:#181818;stroke-width:1.0;" x1="321.9063" x2="363.9063" y1="187.8242" y2="187.8242"/><line style="stroke:#181818;stroke-width:1.0;" x1="363.9063" x2="363.9063" y1="187.8242" y2="200.8242"/><line style="stroke:#181818;stroke-width:1.0;" x1="322.9063" x2="363.9063" y1="200.8242" y2="200.8242"/><polygon fill="#181818" points="332.9063,196.8242,322.9063,200.8242,332.9063,204.8242,328.9063,200.8242" style="stroke:#181818;stroke-width:1.0;"/><text fill="#000000" font-family="sans-serif" font-size="13" font-weight="bold" lengthAdjust="spacing" textLength="7.23" x="328.9063" y="182.5615">2</text><text fill="#000000" font-family="sans-serif" font-size="13" lengthAdjust="spacing" textLength="156.7935" x="340.1362" y="182.5615">listDronesWithLanguages()</text><polygon fill="#181818" points="58.6274,228.1152,48.6274,232.1152,58.6274,236.1152,54.6274,232.1152" style="stroke:#181818;stroke-width:1.0;"/><line style="stroke:#181818;stroke-width:1.0;" x1="52.6274" x2="315.9063" y1="232.1152" y2="232.1152"/><text fill="#000000" font-family="sans-serif" font-size="13" font-weight="bold" lengthAdjust="spacing" textLength="7.23" x="64.6274" y="226.8525">3</text><text fill="#000000" font-family="sans-serif" font-size="13" lengthAdjust="spacing" textLength="104.7617" x="75.8574" y="226.8525">displayDroneList()</text><polygon fill="#181818" points="299.9063,259.4063,309.9063,263.4063,299.9063,267.4063,303.9063,263.4063" style="stroke:#181818;stroke-width:1.0;"/><line style="stroke:#181818;stroke-width:1.0;" x1="47.6274" x2="305.9063" y1="263.4063" y2="263.4063"/><text fill="#000000" font-family="sans-serif" font-size="13" font-weight="bold" lengthAdjust="spacing" textLength="7.23" x="54.6274" y="258.1436">4</text><text fill="#000000" font-family="sans-serif" font-size="13" lengthAdjust="spacing" textLength="157.5107" x="65.8574" y="258.1436">selectDrone(droneNumber)</text><line style="stroke:#181818;stroke-width:1.0;" x1="321.9063" x2="363.9063" y1="294.6973" y2="294.6973"/><line style="stroke:#181818;stroke-width:1.0;" x1="363.9063" x2="363.9063" y1="294.6973" y2="307.6973"/><line style="stroke:#181818;stroke-width:1.0;" x1="322.9063" x2="363.9063" y1="307.6973" y2="307.6973"/><polygon fill="#181818" points="332.9063,303.6973,322.9063,307.6973,332.9063,311.6973,328.9063,307.6973" style="stroke:#181818;stroke-width:1.0;"/><text fill="#000000" font-family="sans-serif" font-size="13" font-weight="bold" lengthAdjust="spacing" textLength="7.23" x="328.9063" y="289.4346">5</text><text fill="#000000" font-family="sans-serif" font-size="13" lengthAdjust="spacing" textLength="242.0806" x="340.1362" y="289.4346">getProgrammingLanguage(droneNumber)</text><path d="M276.5684,322.6973 L336.7393,322.6973 L336.7393,331.9883 L326.7393,341.9883 L276.5684,341.9883 L276.5684,322.6973 " fill="#EEEEEE" style="stroke:#000000;stroke-width:1.5;"/><rect fill="none" height="124.5039" style="stroke:#000000;stroke-width:1.5;" width="292.2222" x="276.5684" y="322.6973"/><text fill="#000000" font-family="sans-serif" font-size="13" font-weight="bold" lengthAdjust="spacing" textLength="15.1709" x="291.5684" y="337.7256">alt</text><text fill="#000000" font-family="sans-serif" font-size="11" font-weight="bold" lengthAdjust="spacing" textLength="106.3853" x="351.7393" y="336.5674">[Language is "One"]</text><line style="stroke:#181818;stroke-width:1.0;" x1="321.9063" x2="363.9063" y1="365.2793" y2="365.2793"/><line style="stroke:#181818;stroke-width:1.0;" x1="363.9063" x2="363.9063" y1="365.2793" y2="378.2793"/><line style="stroke:#181818;stroke-width:1.0;" x1="322.9063" x2="363.9063" y1="378.2793" y2="378.2793"/><polygon fill="#181818" points="332.9063,374.2793,322.9063,378.2793,332.9063,382.2793,328.9063,378.2793" style="stroke:#181818;stroke-width:1.0;"/><text fill="#000000" font-family="sans-serif" font-size="13" font-weight="bold" lengthAdjust="spacing" textLength="7.23" x="328.9063" y="360.0166">6</text><text fill="#000000" font-family="sans-serif" font-size="13" lengthAdjust="spacing" textLength="206.6543" x="340.1362" y="360.0166">validateDroneProgram(filePathOne)</text><line style="stroke:#000000;stroke-width:1.0;stroke-dasharray:2.0,2.0;" x1="276.5684" x2="568.7905" y1="387.2793" y2="387.2793"/><text fill="#000000" font-family="sans-serif" font-size="11" font-weight="bold" lengthAdjust="spacing" textLength="106.9868" x="281.5684" y="399.1494">[Language is "Two"]</text><line style="stroke:#181818;stroke-width:1.0;" x1="321.9063" x2="363.9063" y1="426.2012" y2="426.2012"/><line style="stroke:#181818;stroke-width:1.0;" x1="363.9063" x2="363.9063" y1="426.2012" y2="439.2012"/><line style="stroke:#181818;stroke-width:1.0;" x1="322.9063" x2="363.9063" y1="439.2012" y2="439.2012"/><polygon fill="#181818" points="332.9063,435.2012,322.9063,439.2012,332.9063,443.2012,328.9063,439.2012" style="stroke:#181818;stroke-width:1.0;"/><text fill="#000000" font-family="sans-serif" font-size="13" font-weight="bold" lengthAdjust="spacing" textLength="7.23" x="328.9063" y="420.9385">7</text><text fill="#000000" font-family="sans-serif" font-size="13" lengthAdjust="spacing" textLength="206.6416" x="340.1362" y="420.9385">validateDroneProgram(filePathTwo)</text><polygon fill="#181818" points="53.6274,473.4922,43.6274,477.4922,53.6274,481.4922,49.6274,477.4922" style="stroke:#181818;stroke-width:1.0;"/><line style="stroke:#181818;stroke-width:1.0;" x1="47.6274" x2="315.9063" y1="477.4922" y2="477.4922"/><text fill="#000000" font-family="sans-serif" font-size="13" font-weight="bold" lengthAdjust="spacing" textLength="7.23" x="59.6274" y="472.2295">8</text><text fill="#000000" font-family="sans-serif" font-size="13" lengthAdjust="spacing" textLength="229.0488" x="70.8574" y="472.2295">displayValidationResult(success/failure)</text><!--SRC=[bPAxRiCm34LtVmNXoHs23YqwPEYKCMY2sctHKPKPcu0ifoAL8dzVIR5Z1tq0qQ21v3sy52Ka1g4yic079Nvwj1fXHQfngeC5l9Htzm_mgWpLIaB2zHPXw_gOpZAbfNUGfsY5kir1CQogRA-SaAQziWBv2PvIvNiPH5vwwxiFT0b0XmIkCWXdLS7YCPR14bnqmpBqfjuMDwacNV6SnH4x1gFsZ334aipn6qcxLhRnga4UGBFoq7S9DV7Ug6CIh8DoLbRZHRCVNXaDwbEheextKnhmQiCDol2u7TbcD7o9d716O2m1OiWt5lFVkOTXWSdXqA7OaS6jaZR8fadHC5vIgwz-ebv73j8PsTRPV-y-BVePsHifs6kDpBSxHSOx_7CROpYRnSD_-WO0]--></g></svg>