<svg xmlns="http://www.w3.org/2000/svg" xmlns:xlink="http://www.w3.org/1999/xlink" contentStyleType="text/css" height="1026px" preserveAspectRatio="none" style="width:2309px;height:1026px;background:#FFFFFF;" version="1.1" viewBox="0 0 2309 1026" width="2309px" zoomAndPan="magnify"><title>Sequence Diagram - US346 Validation of a Drone Program</title><defs><filter height="300%" id="feefbjyk3lrh0" width="300%" x="-1" y="-1"><feGaussianBlur result="blurOut" stdDeviation="2.0"/><feColorMatrix in="blurOut" result="blurOut2" type="matrix" values="0 0 0 0 0 0 0 0 0 0 0 0 0 0 0 0 0 0 .4 0"/><feOffset dx="4.0" dy="4.0" in="blurOut2" result="blurOut3"/><feBlend in="SourceGraphic" in2="blurOut3" mode="normal"/></filter></defs><g><text fill="#000000" font-family="sans-serif" font-size="14" font-weight="bold" lengthAdjust="spacing" textLength="386.6611" x="959.9673" y="30.1074">Sequence Diagram - US346 Validation of a Drone Program</text><rect fill="#FFFFFF" filter="url(#feefbjyk3lrh0)" height="789.6152" style="stroke:#181818;stroke-width:1.0;" width="10" x="37.6274" y="136.2422"/><rect fill="#FFFFFF" filter="url(#feefbjyk3lrh0)" height="31.291" style="stroke:#181818;stroke-width:1.0;" width="10" x="307.6616" y="159.5332"/><rect fill="#FFFFFF" filter="url(#feefbjyk3lrh0)" height="296.6191" style="stroke:#181818;stroke-width:1.0;" width="10" x="512.1294" y="190.8242"/><rect fill="#FFFFFF" filter="url(#feefbjyk3lrh0)" height="416.123" style="stroke:#181818;stroke-width:1.0;" width="10" x="512.1294" y="518.7344"/><rect fill="#FFFFFF" filter="url(#feefbjyk3lrh0)" height="156.4551" style="stroke:#181818;stroke-width:1.0;" width="10" x="748.8594" y="248.4063"/><rect fill="#FFFFFF" filter="url(#feefbjyk3lrh0)" height="93.873" style="stroke:#181818;stroke-width:1.0;" width="10" x="1023.3032" y="279.6973"/><rect fill="#FFFFFF" filter="url(#feefbjyk3lrh0)" height="31.291" style="stroke:#181818;stroke-width:1.0;" width="10" x="1269.4639" y="310.9883"/><rect fill="#FFFFFF" filter="url(#feefbjyk3lrh0)" height="31.291" style="stroke:#181818;stroke-width:1.0;" width="10" x="1417.4736" y="550.0254"/><rect fill="#FFFFFF" filter="url(#feefbjyk3lrh0)" height="237.668" style="stroke:#181818;stroke-width:1.0;" width="10" x="1621.1416" y="656.8984"/><rect fill="#FFFFFF" filter="url(#feefbjyk3lrh0)" height="175.0859" style="stroke:#181818;stroke-width:1.0;" width="10" x="1940.3066" y="688.1895"/><rect fill="#FFFFFF" filter="url(#feefbjyk3lrh0)" height="695.7422" style="stroke:#181818;stroke-width:1.0;" width="10" x="2216.1235" y="136.2422"/><rect fill="none" filter="url(#feefbjyk3lrh0)" height="251.3281" style="stroke:#000000;stroke-width:1.5;" width="929.3647" x="416.123" y="205.8242"/><rect fill="none" filter="url(#feefbjyk3lrh0)" height="98.5039" style="stroke:#000000;stroke-width:1.5;" width="441.9888" x="1855.6069" y="703.1895"/><line style="stroke:#181818;stroke-width:0.5;stroke-dasharray:5.0,5.0;" x1="42" x2="42" y1="126.2422" y2="943.8574"/><line style="stroke:#181818;stroke-width:0.5;stroke-dasharray:5.0,5.0;" x1="312.2002" x2="312.2002" y1="126.2422" y2="943.8574"/><line style="stroke:#181818;stroke-width:0.5;stroke-dasharray:5.0,5.0;" x1="517.123" x2="517.123" y1="126.2422" y2="943.8574"/><line style="stroke:#181818;stroke-width:0.5;stroke-dasharray:5.0,5.0;" x1="753.1357" x2="753.1357" y1="126.2422" y2="943.8574"/><line style="stroke:#181818;stroke-width:0.5;stroke-dasharray:5.0,5.0;" x1="1027.583" x2="1027.583" y1="126.2422" y2="943.8574"/><line style="stroke:#181818;stroke-width:0.5;stroke-dasharray:5.0,5.0;" x1="1274.4399" x2="1274.4399" y1="126.2422" y2="943.8574"/><line style="stroke:#181818;stroke-width:0.5;stroke-dasharray:5.0,5.0;" x1="1421.4878" x2="1421.4878" y1="126.2422" y2="943.8574"/><line style="stroke:#181818;stroke-width:0.5;stroke-dasharray:5.0,5.0;" x1="1625.4595" x2="1625.4595" y1="126.2422" y2="943.8574"/><line style="stroke:#181818;stroke-width:0.5;stroke-dasharray:5.0,5.0;" x1="1944.6069" x2="1944.6069" y1="126.2422" y2="943.8574"/><line style="stroke:#181818;stroke-width:0.5;stroke-dasharray:5.0,5.0;" x1="2220.6514" x2="2220.6514" y1="126.2422" y2="943.8574"/><text fill="#000000" font-family="sans-serif" font-size="14" lengthAdjust="spacing" textLength="69.2549" x="5" y="122.7285">DroneTech</text><ellipse cx="42.6274" cy="53.1211" fill="#E2E2F0" filter="url(#feefbjyk3lrh0)" rx="8" ry="8" style="stroke:#181818;stroke-width:0.5;"/><path d="M42.6274,61.1211 L42.6274,88.1211 M29.6274,69.1211 L55.6274,69.1211 M42.6274,88.1211 L29.6274,103.1211 M42.6274,88.1211 L55.6274,103.1211 " fill="none" filter="url(#feefbjyk3lrh0)" style="stroke:#181818;stroke-width:0.5;"/><text fill="#000000" font-family="sans-serif" font-size="14" lengthAdjust="spacing" textLength="69.2549" x="5" y="957.9648">DroneTech</text><ellipse cx="42.6274" cy="969.9785" fill="#E2E2F0" filter="url(#feefbjyk3lrh0)" rx="8" ry="8" style="stroke:#181818;stroke-width:0.5;"/><path d="M42.6274,977.9785 L42.6274,1004.9785 M29.6274,985.9785 L55.6274,985.9785 M42.6274,1004.9785 L29.6274,1019.9785 M42.6274,1004.9785 L55.6274,1019.9785 " fill="none" filter="url(#feefbjyk3lrh0)" style="stroke:#181818;stroke-width:0.5;"/><rect fill="#E2E2F0" filter="url(#feefbjyk3lrh0)" height="32.6211" rx="2.5" ry="2.5" style="stroke:#181818;stroke-width:0.5;" width="203.9229" x="209.2002" y="89.6211"/><text fill="#000000" font-family="sans-serif" font-size="14" lengthAdjust="spacing" textLength="189.9229" x="216.2002" y="111.7285">ValidateDroneLanguageAction</text><rect fill="#E2E2F0" filter="url(#feefbjyk3lrh0)" height="32.6211" rx="2.5" ry="2.5" style="stroke:#181818;stroke-width:0.5;" width="203.9229" x="209.2002" y="942.8574"/><text fill="#000000" font-family="sans-serif" font-size="14" lengthAdjust="spacing" textLength="189.9229" x="216.2002" y="964.9648">ValidateDroneLanguageAction</text><rect fill="#E2E2F0" filter="url(#feefbjyk3lrh0)" height="32.6211" rx="2.5" ry="2.5" style="stroke:#181818;stroke-width:0.5;" width="179.0127" x="426.123" y="89.6211"/><text fill="#000000" font-family="sans-serif" font-size="14" lengthAdjust="spacing" textLength="165.0127" x="433.123" y="111.7285">ValidateDroneLanguageUI</text><rect fill="#E2E2F0" filter="url(#feefbjyk3lrh0)" height="32.6211" rx="2.5" ry="2.5" style="stroke:#181818;stroke-width:0.5;" width="179.0127" x="426.123" y="942.8574"/><text fill="#000000" font-family="sans-serif" font-size="14" lengthAdjust="spacing" textLength="165.0127" x="433.123" y="964.9648">ValidateDroneLanguageUI</text><rect fill="#E2E2F0" filter="url(#feefbjyk3lrh0)" height="32.6211" rx="2.5" ry="2.5" style="stroke:#181818;stroke-width:0.5;" width="268.4473" x="618.1357" y="89.6211"/><text fill="#000000" font-family="sans-serif" font-size="14" lengthAdjust="spacing" textLength="254.4473" x="625.1357" y="111.7285">ListDronesWithLanguagesDTOController</text><rect fill="#E2E2F0" filter="url(#feefbjyk3lrh0)" height="32.6211" rx="2.5" ry="2.5" style="stroke:#181818;stroke-width:0.5;" width="268.4473" x="618.1357" y="942.8574"/><text fill="#000000" font-family="sans-serif" font-size="14" lengthAdjust="spacing" textLength="254.4473" x="625.1357" y="964.9648">ListDronesWithLanguagesDTOController</text><rect fill="#E2E2F0" filter="url(#feefbjyk3lrh0)" height="32.6211" rx="2.5" ry="2.5" style="stroke:#181818;stroke-width:0.5;" width="254.4404" x="899.583" y="89.6211"/><text fill="#000000" font-family="sans-serif" font-size="14" lengthAdjust="spacing" textLength="240.4404" x="906.583" y="111.7285">ListDronesWithLanguagesDTOService</text><rect fill="#E2E2F0" filter="url(#feefbjyk3lrh0)" height="32.6211" rx="2.5" ry="2.5" style="stroke:#181818;stroke-width:0.5;" width="254.4404" x="899.583" y="942.8574"/><text fill="#000000" font-family="sans-serif" font-size="14" lengthAdjust="spacing" textLength="240.4404" x="906.583" y="964.9648">ListDronesWithLanguagesDTOService</text><rect fill="#E2E2F0" filter="url(#feefbjyk3lrh0)" height="32.6211" rx="2.5" ry="2.5" style="stroke:#181818;stroke-width:0.5;" width="119.0479" x="1213.4399" y="89.6211"/><text fill="#000000" font-family="sans-serif" font-size="14" lengthAdjust="spacing" textLength="105.0479" x="1220.4399" y="111.7285">DroneRepository</text><rect fill="#E2E2F0" filter="url(#feefbjyk3lrh0)" height="32.6211" rx="2.5" ry="2.5" style="stroke:#181818;stroke-width:0.5;" width="119.0479" x="1213.4399" y="942.8574"/><text fill="#000000" font-family="sans-serif" font-size="14" lengthAdjust="spacing" textLength="105.0479" x="1220.4399" y="964.9648">DroneRepository</text><rect fill="#E2E2F0" filter="url(#feefbjyk3lrh0)" height="32.6211" rx="2.5" ry="2.5" style="stroke:#181818;stroke-width:0.5;" width="150.9717" x="1345.4878" y="89.6211"/><text fill="#000000" font-family="sans-serif" font-size="14" lengthAdjust="spacing" textLength="136.9717" x="1352.4878" y="111.7285">DroneLanguagesDTO</text><rect fill="#E2E2F0" filter="url(#feefbjyk3lrh0)" height="32.6211" rx="2.5" ry="2.5" style="stroke:#181818;stroke-width:0.5;" width="150.9717" x="1345.4878" y="942.8574"/><text fill="#000000" font-family="sans-serif" font-size="14" lengthAdjust="spacing" textLength="136.9717" x="1352.4878" y="964.9648">DroneLanguagesDTO</text><rect fill="#E2E2F0" filter="url(#feefbjyk3lrh0)" height="32.6211" rx="2.5" ry="2.5" style="stroke:#181818;stroke-width:0.5;" width="230.3643" x="1509.4595" y="89.6211"/><text fill="#000000" font-family="sans-serif" font-size="14" lengthAdjust="spacing" textLength="216.3643" x="1516.4595" y="111.7285">DroneLanguageValidatorController</text><rect fill="#E2E2F0" filter="url(#feefbjyk3lrh0)" height="32.6211" rx="2.5" ry="2.5" style="stroke:#181818;stroke-width:0.5;" width="230.3643" x="1509.4595" y="942.8574"/><text fill="#000000" font-family="sans-serif" font-size="14" lengthAdjust="spacing" textLength="216.3643" x="1516.4595" y="964.9648">DroneLanguageValidatorController</text><rect fill="#E2E2F0" filter="url(#feefbjyk3lrh0)" height="32.6211" rx="2.5" ry="2.5" style="stroke:#181818;stroke-width:0.5;" width="156.3994" x="1865.6069" y="89.6211"/><text fill="#000000" font-family="sans-serif" font-size="14" lengthAdjust="spacing" textLength="142.3994" x="1872.6069" y="111.7285">DroneInventoryService</text><rect fill="#E2E2F0" filter="url(#feefbjyk3lrh0)" height="32.6211" rx="2.5" ry="2.5" style="stroke:#181818;stroke-width:0.5;" width="156.3994" x="1865.6069" y="942.8574"/><text fill="#000000" font-family="sans-serif" font-size="14" lengthAdjust="spacing" textLength="142.3994" x="1872.6069" y="964.9648">DroneInventoryService</text><rect fill="#E2E2F0" filter="url(#feefbjyk3lrh0)" height="51.2422" rx="2.5" ry="2.5" style="stroke:#181818;stroke-width:0.5;" width="129.9443" x="2154.6514" y="71"/><text fill="#000000" font-family="sans-serif" font-size="14" lengthAdjust="spacing" textLength="38.1309" x="2200.5581" y="93.1074">Drone</text><text fill="#000000" font-family="sans-serif" font-size="14" lengthAdjust="spacing" textLength="115.9443" x="2161.6514" y="111.7285">:DronePluginClass</text><rect fill="#E2E2F0" filter="url(#feefbjyk3lrh0)" height="51.2422" rx="2.5" ry="2.5" style="stroke:#181818;stroke-width:0.5;" width="129.9443" x="2154.6514" y="942.8574"/><text fill="#000000" font-family="sans-serif" font-size="14" lengthAdjust="spacing" textLength="38.1309" x="2200.5581" y="964.9648">Drone</text><text fill="#000000" font-family="sans-serif" font-size="14" lengthAdjust="spacing" textLength="115.9443" x="2161.6514" y="983.5859">:DronePluginClass</text><rect fill="#FFFFFF" filter="url(#feefbjyk3lrh0)" height="789.6152" style="stroke:#181818;stroke-width:1.0;" width="10" x="37.6274" y="136.2422"/><rect fill="#FFFFFF" filter="url(#feefbjyk3lrh0)" height="31.291" style="stroke:#181818;stroke-width:1.0;" width="10" x="307.6616" y="159.5332"/><rect fill="#FFFFFF" filter="url(#feefbjyk3lrh0)" height="296.6191" style="stroke:#181818;stroke-width:1.0;" width="10" x="512.1294" y="190.8242"/><rect fill="#FFFFFF" filter="url(#feefbjyk3lrh0)" height="416.123" style="stroke:#181818;stroke-width:1.0;" width="10" x="512.1294" y="518.7344"/><rect fill="#FFFFFF" filter="url(#feefbjyk3lrh0)" height="156.4551" style="stroke:#181818;stroke-width:1.0;" width="10" x="748.8594" y="248.4063"/><rect fill="#FFFFFF" filter="url(#feefbjyk3lrh0)" height="93.873" style="stroke:#181818;stroke-width:1.0;" width="10" x="1023.3032" y="279.6973"/><rect fill="#FFFFFF" filter="url(#feefbjyk3lrh0)" height="31.291" style="stroke:#181818;stroke-width:1.0;" width="10" x="1269.4639" y="310.9883"/><rect fill="#FFFFFF" filter="url(#feefbjyk3lrh0)" height="31.291" style="stroke:#181818;stroke-width:1.0;" width="10" x="1417.4736" y="550.0254"/><rect fill="#FFFFFF" filter="url(#feefbjyk3lrh0)" height="237.668" style="stroke:#181818;stroke-width:1.0;" width="10" x="1621.1416" y="656.8984"/><rect fill="#FFFFFF" filter="url(#feefbjyk3lrh0)" height="175.0859" style="stroke:#181818;stroke-width:1.0;" width="10" x="1940.3066" y="688.1895"/><rect fill="#FFFFFF" filter="url(#feefbjyk3lrh0)" height="695.7422" style="stroke:#181818;stroke-width:1.0;" width="10" x="2216.1235" y="136.2422"/><polygon fill="#181818" points="295.6616,155.5332,305.6616,159.5332,295.6616,163.5332,299.6616,159.5332" style="stroke:#181818;stroke-width:1.0;"/><line style="stroke:#181818;stroke-width:1.0;" x1="47.6274" x2="301.6616" y1="159.5332" y2="159.5332"/><text fill="#000000" font-family="sans-serif" font-size="13" font-weight="bold" lengthAdjust="spacing" textLength="7.23" x="54.6274" y="154.2705">1</text><text fill="#000000" font-family="sans-serif" font-size="13" lengthAdjust="spacing" textLength="229.8042" x="65.8574" y="154.2705">requqests validation of a drone program</text><polygon fill="#181818" points="500.1294,186.8242,510.1294,190.8242,500.1294,194.8242,504.1294,190.8242" style="stroke:#181818;stroke-width:1.0;"/><line style="stroke:#181818;stroke-width:1.0;" x1="312.6616" x2="506.1294" y1="190.8242" y2="190.8242"/><text fill="#000000" font-family="sans-serif" font-size="13" font-weight="bold" lengthAdjust="spacing" textLength="7.23" x="319.6616" y="185.5615">2</text><text fill="#000000" font-family="sans-serif" font-size="13" lengthAdjust="spacing" textLength="55.6372" x="330.8916" y="185.5615">doShow()</text><path d="M416.123,205.8242 L488.5576,205.8242 L488.5576,215.1152 L478.5576,225.1152 L416.123,225.1152 L416.123,205.8242 " fill="#EEEEEE" style="stroke:#000000;stroke-width:1.5;"/><rect fill="none" height="251.3281" style="stroke:#000000;stroke-width:1.5;" width="929.3647" x="416.123" y="205.8242"/><text fill="#000000" font-family="sans-serif" font-size="13" font-weight="bold" lengthAdjust="spacing" textLength="27.4346" x="431.123" y="220.8525">loop</text><text fill="#000000" font-family="sans-serif" font-size="11" font-weight="bold" lengthAdjust="spacing" textLength="160.123" x="503.5576" y="219.6943">[for each drone with language]</text><polygon fill="#181818" points="736.8594,244.4063,746.8594,248.4063,736.8594,252.4063,740.8594,248.4063" style="stroke:#181818;stroke-width:1.0;"/><line style="stroke:#181818;stroke-width:1.0;" x1="522.1294" x2="742.8594" y1="248.4063" y2="248.4063"/><text fill="#000000" font-family="sans-serif" font-size="13" font-weight="bold" lengthAdjust="spacing" textLength="7.23" x="529.1294" y="243.1436">3</text><text fill="#000000" font-family="sans-serif" font-size="13" lengthAdjust="spacing" textLength="138.7471" x="540.3594" y="243.1436">dronesWithLanguages()</text><polygon fill="#181818" points="1011.3032,275.6973,1021.3032,279.6973,1011.3032,283.6973,1015.3032,279.6973" style="stroke:#181818;stroke-width:1.0;"/><line style="stroke:#181818;stroke-width:1.0;" x1="758.8594" x2="1017.3032" y1="279.6973" y2="279.6973"/><text fill="#000000" font-family="sans-serif" font-size="13" font-weight="bold" lengthAdjust="spacing" textLength="7.23" x="765.8594" y="274.4346">4</text><text fill="#000000" font-family="sans-serif" font-size="13" lengthAdjust="spacing" textLength="171.2407" x="777.0894" y="274.4346">listAllDronesWithLanguages()</text><polygon fill="#181818" points="1257.4639,306.9883,1267.4639,310.9883,1257.4639,314.9883,1261.4639,310.9883" style="stroke:#181818;stroke-width:1.0;"/><line style="stroke:#181818;stroke-width:1.0;" x1="1033.3032" x2="1263.4639" y1="310.9883" y2="310.9883"/><text fill="#000000" font-family="sans-serif" font-size="13" font-weight="bold" lengthAdjust="spacing" textLength="7.23" x="1040.3032" y="305.7256">5</text><text fill="#000000" font-family="sans-serif" font-size="13" lengthAdjust="spacing" textLength="205.9307" x="1051.5332" y="305.7256">findAllWithProgrammingLanguage()</text><polygon fill="#181818" points="1044.3032,338.2793,1034.3032,342.2793,1044.3032,346.2793,1040.3032,342.2793" style="stroke:#181818;stroke-width:1.0;"/><line style="stroke:#181818;stroke-width:1.0;stroke-dasharray:2.0,2.0;" x1="1038.3032" x2="1273.4639" y1="342.2793" y2="342.2793"/><text fill="#000000" font-family="sans-serif" font-size="13" font-weight="bold" lengthAdjust="spacing" textLength="7.23" x="1050.3032" y="337.0166">6</text><text fill="#000000" font-family="sans-serif" font-size="13" lengthAdjust="spacing" textLength="33.249" x="1061.5332" y="337.0166">drone</text><polygon fill="#181818" points="769.8594,369.5703,759.8594,373.5703,769.8594,377.5703,765.8594,373.5703" style="stroke:#181818;stroke-width:1.0;"/><line style="stroke:#181818;stroke-width:1.0;stroke-dasharray:2.0,2.0;" x1="763.8594" x2="1027.3032" y1="373.5703" y2="373.5703"/><text fill="#000000" font-family="sans-serif" font-size="13" font-weight="bold" lengthAdjust="spacing" textLength="7.23" x="775.8594" y="368.3076">7</text><text fill="#000000" font-family="sans-serif" font-size="13" lengthAdjust="spacing" textLength="33.249" x="787.0894" y="368.3076">drone</text><polygon fill="#181818" points="533.1294,400.8613,523.1294,404.8613,533.1294,408.8613,529.1294,404.8613" style="stroke:#181818;stroke-width:1.0;"/><line style="stroke:#181818;stroke-width:1.0;stroke-dasharray:2.0,2.0;" x1="527.1294" x2="752.8594" y1="404.8613" y2="404.8613"/><text fill="#000000" font-family="sans-serif" font-size="13" font-weight="bold" lengthAdjust="spacing" textLength="7.23" x="539.1294" y="399.5986">8</text><text fill="#000000" font-family="sans-serif" font-size="13" lengthAdjust="spacing" textLength="33.249" x="550.3594" y="399.5986">drone</text><line style="stroke:#181818;stroke-width:1.0;" x1="522.1294" x2="564.1294" y1="436.1523" y2="436.1523"/><line style="stroke:#181818;stroke-width:1.0;" x1="564.1294" x2="564.1294" y1="436.1523" y2="449.1523"/><line style="stroke:#181818;stroke-width:1.0;" x1="523.1294" x2="564.1294" y1="449.1523" y2="449.1523"/><polygon fill="#181818" points="533.1294,445.1523,523.1294,449.1523,533.1294,453.1523,529.1294,449.1523" style="stroke:#181818;stroke-width:1.0;"/><text fill="#000000" font-family="sans-serif" font-size="13" font-weight="bold" lengthAdjust="spacing" textLength="7.23" x="529.1294" y="430.8896">9</text><text fill="#000000" font-family="sans-serif" font-size="13" lengthAdjust="spacing" textLength="91.0508" x="540.3594" y="430.8896">droneList::add()</text><polygon fill="#181818" points="58.6274,483.4434,48.6274,487.4434,58.6274,491.4434,54.6274,487.4434" style="stroke:#181818;stroke-width:1.0;"/><line style="stroke:#181818;stroke-width:1.0;" x1="52.6274" x2="516.1294" y1="487.4434" y2="487.4434"/><text fill="#000000" font-family="sans-serif" font-size="13" font-weight="bold" lengthAdjust="spacing" textLength="14.46" x="64.6274" y="482.1807">10</text><text fill="#000000" font-family="sans-serif" font-size="13" lengthAdjust="spacing" textLength="260.8887" x="83.0874" y="482.1807">displays list and request to choose one drone</text><polygon fill="#181818" points="500.1294,514.7344,510.1294,518.7344,500.1294,522.7344,504.1294,518.7344" style="stroke:#181818;stroke-width:1.0;"/><line style="stroke:#181818;stroke-width:1.0;" x1="47.6274" x2="506.1294" y1="518.7344" y2="518.7344"/><text fill="#000000" font-family="sans-serif" font-size="13" font-weight="bold" lengthAdjust="spacing" textLength="14.46" x="54.6274" y="513.4717">11</text><text fill="#000000" font-family="sans-serif" font-size="13" lengthAdjust="spacing" textLength="142.3525" x="73.0874" y="513.4717">selects drone by number</text><polygon fill="#181818" points="1405.4736,546.0254,1415.4736,550.0254,1405.4736,554.0254,1409.4736,550.0254" style="stroke:#181818;stroke-width:1.0;"/><line style="stroke:#181818;stroke-width:1.0;" x1="522.1294" x2="1411.4736" y1="550.0254" y2="550.0254"/><text fill="#000000" font-family="sans-serif" font-size="13" font-weight="bold" lengthAdjust="spacing" textLength="14.46" x="529.1294" y="544.7627">12</text><text fill="#000000" font-family="sans-serif" font-size="13" lengthAdjust="spacing" textLength="162.5952" x="547.5894" y="544.7627">getProgrammingLanguage()</text><polygon fill="#181818" points="533.1294,577.3164,523.1294,581.3164,533.1294,585.3164,529.1294,581.3164" style="stroke:#181818;stroke-width:1.0;"/><line style="stroke:#181818;stroke-width:1.0;stroke-dasharray:2.0,2.0;" x1="527.1294" x2="1421.4736" y1="581.3164" y2="581.3164"/><text fill="#000000" font-family="sans-serif" font-size="13" font-weight="bold" lengthAdjust="spacing" textLength="14.46" x="539.1294" y="576.0537">13</text><text fill="#000000" font-family="sans-serif" font-size="13" lengthAdjust="spacing" textLength="134.4243" x="557.5894" y="576.0537">programmingLanguage</text><line style="stroke:#181818;stroke-width:1.0;" x1="522.1294" x2="564.1294" y1="612.6074" y2="612.6074"/><line style="stroke:#181818;stroke-width:1.0;" x1="564.1294" x2="564.1294" y1="612.6074" y2="625.6074"/><line style="stroke:#181818;stroke-width:1.0;" x1="523.1294" x2="564.1294" y1="625.6074" y2="625.6074"/><polygon fill="#181818" points="533.1294,621.6074,523.1294,625.6074,533.1294,629.6074,529.1294,625.6074" style="stroke:#181818;stroke-width:1.0;"/><text fill="#000000" font-family="sans-serif" font-size="13" font-weight="bold" lengthAdjust="spacing" textLength="14.46" x="529.1294" y="607.3447">14</text><text fill="#000000" font-family="sans-serif" font-size="13" lengthAdjust="spacing" textLength="41.9199" x="547.5894" y="607.3447">filepath</text><polygon fill="#181818" points="1609.1416,652.8984,1619.1416,656.8984,1609.1416,660.8984,1613.1416,656.8984" style="stroke:#181818;stroke-width:1.0;"/><line style="stroke:#181818;stroke-width:1.0;" x1="522.1294" x2="1615.1416" y1="656.8984" y2="656.8984"/><text fill="#000000" font-family="sans-serif" font-size="13" font-weight="bold" lengthAdjust="spacing" textLength="14.46" x="529.1294" y="651.6357">15</text><text fill="#000000" font-family="sans-serif" font-size="13" lengthAdjust="spacing" textLength="213.8843" x="547.5894" y="651.6357">validateDroneProgram(filePath, lang)</text><polygon fill="#181818" points="1928.3066,684.1895,1938.3066,688.1895,1928.3066,692.1895,1932.3066,688.1895" style="stroke:#181818;stroke-width:1.0;"/><line style="stroke:#181818;stroke-width:1.0;" x1="1631.1416" x2="1934.3066" y1="688.1895" y2="688.1895"/><text fill="#000000" font-family="sans-serif" font-size="13" font-weight="bold" lengthAdjust="spacing" textLength="14.46" x="1638.1416" y="682.9268">16</text><text fill="#000000" font-family="sans-serif" font-size="13" lengthAdjust="spacing" textLength="271.7051" x="1656.6016" y="682.9268">validateDroneProgram(filePath, languageType)</text><path d="M1855.6069,703.1895 L1915.7778,703.1895 L1915.7778,712.4805 L1905.7778,722.4805 L1855.6069,722.4805 L1855.6069,703.1895 " fill="#EEEEEE" style="stroke:#000000;stroke-width:1.5;"/><rect fill="none" height="98.5039" style="stroke:#000000;stroke-width:1.5;" width="441.9888" x="1855.6069" y="703.1895"/><text fill="#000000" font-family="sans-serif" font-size="13" font-weight="bold" lengthAdjust="spacing" textLength="15.1709" x="1870.6069" y="718.2178">alt</text><text fill="#000000" font-family="sans-serif" font-size="11" font-weight="bold" lengthAdjust="spacing" textLength="106.3853" x="1930.7778" y="717.0596">[Language is "One"]</text><polygon fill="#181818" points="2204.1235,741.7715,2214.1235,745.7715,2204.1235,749.7715,2208.1235,745.7715" style="stroke:#181818;stroke-width:1.0;"/><line style="stroke:#181818;stroke-width:1.0;" x1="1950.3066" x2="2210.1235" y1="745.7715" y2="745.7715"/><text fill="#000000" font-family="sans-serif" font-size="13" font-weight="bold" lengthAdjust="spacing" textLength="14.46" x="1957.3066" y="740.5088">17</text><text fill="#000000" font-family="sans-serif" font-size="13" lengthAdjust="spacing" textLength="228.3569" x="1975.7666" y="740.5088">drones.Drone.droneOnePlugin(filePath)</text><line style="stroke:#000000;stroke-width:1.0;stroke-dasharray:2.0,2.0;" x1="1855.6069" x2="2297.5957" y1="754.7715" y2="754.7715"/><text fill="#000000" font-family="sans-serif" font-size="11" font-weight="bold" lengthAdjust="spacing" textLength="106.9868" x="1860.6069" y="766.6416">[Language is "Two"]</text><polygon fill="#181818" points="2204.1235,789.6934,2214.1235,793.6934,2204.1235,797.6934,2208.1235,793.6934" style="stroke:#181818;stroke-width:1.0;"/><line style="stroke:#181818;stroke-width:1.0;" x1="1950.3066" x2="2210.1235" y1="793.6934" y2="793.6934"/><text fill="#000000" font-family="sans-serif" font-size="13" font-weight="bold" lengthAdjust="spacing" textLength="14.46" x="1957.3066" y="788.4307">18</text><text fill="#000000" font-family="sans-serif" font-size="13" lengthAdjust="spacing" textLength="228.3442" x="1975.7666" y="788.4307">drones.Drone.droneTwoPlugin(filePath)</text><polygon fill="#181818" points="1961.3066,827.9844,1951.3066,831.9844,1961.3066,835.9844,1957.3066,831.9844" style="stroke:#181818;stroke-width:1.0;"/><line style="stroke:#181818;stroke-width:1.0;stroke-dasharray:2.0,2.0;" x1="1955.3066" x2="2220.1235" y1="831.9844" y2="831.9844"/><text fill="#000000" font-family="sans-serif" font-size="13" font-weight="bold" lengthAdjust="spacing" textLength="14.46" x="1967.3066" y="826.7217">19</text><text fill="#000000" font-family="sans-serif" font-size="13" lengthAdjust="spacing" textLength="22.4009" x="1985.7666" y="826.7217">true</text><polygon fill="#181818" points="1642.1416,859.2754,1632.1416,863.2754,1642.1416,867.2754,1638.1416,863.2754" style="stroke:#181818;stroke-width:1.0;"/><line style="stroke:#181818;stroke-width:1.0;stroke-dasharray:2.0,2.0;" x1="1636.1416" x2="1944.3066" y1="863.2754" y2="863.2754"/><text fill="#000000" font-family="sans-serif" font-size="13" font-weight="bold" lengthAdjust="spacing" textLength="14.46" x="1648.1416" y="858.0127">20</text><text fill="#000000" font-family="sans-serif" font-size="13" lengthAdjust="spacing" textLength="22.4009" x="1666.6016" y="858.0127">true</text><polygon fill="#181818" points="533.1294,890.5664,523.1294,894.5664,533.1294,898.5664,529.1294,894.5664" style="stroke:#181818;stroke-width:1.0;"/><line style="stroke:#181818;stroke-width:1.0;stroke-dasharray:2.0,2.0;" x1="527.1294" x2="1625.1416" y1="894.5664" y2="894.5664"/><text fill="#000000" font-family="sans-serif" font-size="13" font-weight="bold" lengthAdjust="spacing" textLength="14.46" x="539.1294" y="889.3037">21</text><text fill="#000000" font-family="sans-serif" font-size="13" lengthAdjust="spacing" textLength="22.4009" x="557.5894" y="889.3037">true</text><polygon fill="#181818" points="53.6274,921.8574,43.6274,925.8574,53.6274,929.8574,49.6274,925.8574" style="stroke:#181818;stroke-width:1.0;"/><line style="stroke:#181818;stroke-width:1.0;stroke-dasharray:2.0,2.0;" x1="47.6274" x2="511.1294" y1="925.8574" y2="925.8574"/><text fill="#000000" font-family="sans-serif" font-size="13" font-weight="bold" lengthAdjust="spacing" textLength="14.46" x="59.6274" y="920.5947">22</text><text fill="#000000" font-family="sans-serif" font-size="13" lengthAdjust="spacing" textLength="234.1523" x="78.0874" y="920.5947">Validation successful for drone language</text><!--SRC=[dLPDZzem4BtdLuouT2kLlRJgWKEb5Qag9BGWFhQNIfKtCSHQOuVO0V7lEnwSu904KBdmuNbldcVU3B72IWvBlY-vIZZ4WcqBjeCXh9TVlts7DoP5ogpG2lG66CI5LXpcXNPHqIVp8LJE762dbKwoGkyusABaqUKaPya7s_AbFM6YWYUMgQqC0qp6KdqKQdj6HgoqMfMxTrxWvyJg0WQKTiMJR03CGBoA8eHQaOYSAGi3hv9Js1JvIqpuaZZP13X_V02pdb3yUjACdGfZASxy5ZQhWasycesrieMMaXS47AyMqqUXIruSHC89jroyZPiumYnuhet02fmeQl5pFkk82abzVMw5-Olhuahxsykq0pLH1wwSWb1kl7ZzsoFvZnhH-roMMw76aXb3aFdqrokrKnomwDH2m5UyWk4FtnyOeJtsvPuRQ-1mPRoKZ9Txuu5_rNo-mzNldX2frnEaJVKoqyUdp_LvolkG3LRqGVYxr3g73VeHqPbNTCIkWlIbZHhXc1e5E4iu2MqF17fQcSb8rwT4XPIkz4WfqLelKiOFCJVOgNTT4SIC6PpJCCD6g1GpE6u_yZiSqofDJvP69h9iNnHb6LukH3NgZGvwrijwrdzLzUWEMsSrphMk3TJ94t2q-dLk_WNizi1enDBqgcfSfUIh3Z3E1eA5oIKx6UesC8nsCu8Z0bP3acbjE3WVjXK6wj37mRIHACCbhcBZNVn-0hznRyr09SjPOyljVKi4uzxib-EeYvktUVek4l845Tu8oNDci-Zg45SQdXx2JUz5Fpd8725VQ7XxPBkL61uuFbS1l_uUutRtMProVcFQwttQYf0Mgfg0C32OAJveHTLwK9lRi_MwUIPPp_HbLktaMbvR49VefaQ-rL7_Ppv4ti-dqjkBYlurkY8exR3P2tfwk3FhdOIN-zIUwUGAZTZLCR97vSaMGu0EVUMSMWrxyBHboYJXncnAIVyuvp6LuNWqnYBw1m00]--></g></svg>