<?xml version="1.0" encoding="us-ascii" standalone="no"?><svg xmlns="http://www.w3.org/2000/svg" xmlns:xlink="http://www.w3.org/1999/xlink" contentStyleType="text/css" height="707px" preserveAspectRatio="none" style="width:538px;height:707px;background:#FFFFFF;" version="1.1" viewBox="0 0 538 707" width="538px" zoomAndPan="magnify"><defs/><g><!--class VehiclesRepository--><g id="elem_VehiclesRepository"><rect codeLine="8" fill="#F1F1F1" height="141.1055" id="VehiclesRepository" rx="2.5" ry="2.5" style="stroke:#181818;stroke-width:0.5;" width="246" x="277.5" y="476"/><ellipse cx="335.75" cy="492" fill="#ADD1B2" rx="11" ry="11" style="stroke:#181818;stroke-width:1.0;"/><path d="M338.5156,487.875 Q338.6719,487.6563 338.8594,487.5469 Q339.0469,487.4375 339.2656,487.4375 Q339.6406,487.4375 339.875,487.7031 Q340.1094,487.9531 340.1094,488.5625 L340.1094,490.0156 Q340.1094,490.625 339.875,490.8906 Q339.6406,491.1563 339.2656,491.1563 Q338.9219,491.1563 338.7188,490.9531 Q338.5156,490.7656 338.4063,490.25 Q338.3594,489.8906 338.1719,489.7031 Q337.8438,489.3281 337.2344,489.1094 Q336.625,488.8906 336,488.8906 Q335.2344,488.8906 334.5938,489.2188 Q333.9688,489.5469 333.4688,490.2969 Q332.9844,491.0469 332.9844,492.0781 L332.9844,493.1719 Q332.9844,494.4063 333.875,495.2344 Q334.7656,496.0469 336.3594,496.0469 Q337.2969,496.0469 337.9531,495.7969 Q338.3438,495.6406 338.7656,495.2031 Q339.0313,494.9375 339.1719,494.8594 Q339.3281,494.7813 339.5313,494.7813 Q339.8594,494.7813 340.1094,495.0469 Q340.375,495.2969 340.375,495.6406 Q340.375,495.9844 340.0313,496.3906 Q339.5313,496.9688 338.7344,497.2969 Q337.6563,497.75 336.3594,497.75 Q334.8438,497.75 333.6406,497.125 Q332.6563,496.625 331.9688,495.5625 Q331.2813,494.4844 331.2813,493.2031 L331.2813,492.0469 Q331.2813,490.7188 331.8906,489.5781 Q332.5156,488.4219 333.6094,487.8125 Q334.7031,487.1875 335.9375,487.1875 Q336.6719,487.1875 337.3125,487.3594 Q337.9688,487.5156 338.5156,487.875 Z " fill="#000000"/><text fill="#000000" font-family="sans-serif" font-size="14" lengthAdjust="spacing" textLength="121" x="356.25" y="497.7969">VehiclesRepository</text><line style="stroke:#181818;stroke-width:0.5;" x1="278.5" x2="522.5" y1="508" y2="508"/><text fill="#000000" font-family="sans-serif" font-size="14" lengthAdjust="spacing" textLength="234" x="283.5" y="527.1074">-ArrayList&lt;Vehicle&gt; vehiclesArrayList</text><line style="stroke:#181818;stroke-width:0.5;" x1="278.5" x2="522.5" y1="534.6211" y2="534.6211"/><text fill="#000000" font-family="sans-serif" font-size="14" lengthAdjust="spacing" textLength="147" x="283.5" y="553.7285">+getVehiclesArrayList()</text><text fill="#000000" font-family="sans-serif" font-size="14" lengthAdjust="spacing" textLength="88" x="283.5" y="572.3496">+addVehicle()</text><text fill="#000000" font-family="sans-serif" font-size="14" lengthAdjust="spacing" textLength="224" x="283.5" y="590.9707">+getVehiclesNeedingMaintenance()</text><text fill="#000000" font-family="sans-serif" font-size="14" lengthAdjust="spacing" textLength="199" x="283.5" y="609.5918">+generateMaintenanceReport()</text></g><!--class Vehicle--><g id="elem_Vehicle"><rect codeLine="16" fill="#F1F1F1" height="308.6953" id="Vehicle" rx="2.5" ry="2.5" style="stroke:#181818;stroke-width:0.5;" width="213" x="7" y="392"/><ellipse cx="86.25" cy="408" fill="#ADD1B2" rx="11" ry="11" style="stroke:#181818;stroke-width:1.0;"/><path d="M89.0156,403.875 Q89.1719,403.6563 89.3594,403.5469 Q89.5469,403.4375 89.7656,403.4375 Q90.1406,403.4375 90.375,403.7031 Q90.6094,403.9531 90.6094,404.5625 L90.6094,406.0156 Q90.6094,406.625 90.375,406.8906 Q90.1406,407.1563 89.7656,407.1563 Q89.4219,407.1563 89.2188,406.9531 Q89.0156,406.7656 88.9063,406.25 Q88.8594,405.8906 88.6719,405.7031 Q88.3438,405.3281 87.7344,405.1094 Q87.125,404.8906 86.5,404.8906 Q85.7344,404.8906 85.0938,405.2188 Q84.4688,405.5469 83.9688,406.2969 Q83.4844,407.0469 83.4844,408.0781 L83.4844,409.1719 Q83.4844,410.4063 84.375,411.2344 Q85.2656,412.0469 86.8594,412.0469 Q87.7969,412.0469 88.4531,411.7969 Q88.8438,411.6406 89.2656,411.2031 Q89.5313,410.9375 89.6719,410.8594 Q89.8281,410.7813 90.0313,410.7813 Q90.3594,410.7813 90.6094,411.0469 Q90.875,411.2969 90.875,411.6406 Q90.875,411.9844 90.5313,412.3906 Q90.0313,412.9688 89.2344,413.2969 Q88.1563,413.75 86.8594,413.75 Q85.3438,413.75 84.1406,413.125 Q83.1563,412.625 82.4688,411.5625 Q81.7813,410.4844 81.7813,409.2031 L81.7813,408.0469 Q81.7813,406.7188 82.3906,405.5781 Q83.0156,404.4219 84.1094,403.8125 Q85.2031,403.1875 86.4375,403.1875 Q87.1719,403.1875 87.8125,403.3594 Q88.4688,403.5156 89.0156,403.875 Z " fill="#000000"/><text fill="#000000" font-family="sans-serif" font-size="14" lengthAdjust="spacing" textLength="46" x="106.75" y="413.7969">Vehicle</text><line style="stroke:#181818;stroke-width:0.5;" x1="8" x2="219" y1="424" y2="424"/><text fill="#000000" font-family="sans-serif" font-size="14" lengthAdjust="spacing" textLength="77" x="13" y="443.1074">-String plate</text><text fill="#000000" font-family="sans-serif" font-size="14" lengthAdjust="spacing" textLength="83" x="13" y="461.7285">-String brand</text><text fill="#000000" font-family="sans-serif" font-size="14" lengthAdjust="spacing" textLength="84" x="13" y="480.3496">-String model</text><text fill="#000000" font-family="sans-serif" font-size="14" lengthAdjust="spacing" textLength="121" x="13" y="498.9707">-double tareWeight</text><text fill="#000000" font-family="sans-serif" font-size="14" lengthAdjust="spacing" textLength="131" x="13" y="517.5918">-double grossWeight</text><text fill="#000000" font-family="sans-serif" font-size="14" lengthAdjust="spacing" textLength="117" x="13" y="536.2129">-double currentKm</text><text fill="#000000" font-family="sans-serif" font-size="14" lengthAdjust="spacing" textLength="117" x="13" y="554.834">-Date registerDate</text><text fill="#000000" font-family="sans-serif" font-size="14" lengthAdjust="spacing" textLength="136" x="13" y="573.4551">-Date acquisitionDate</text><text fill="#000000" font-family="sans-serif" font-size="14" lengthAdjust="spacing" textLength="201" x="13" y="592.0762">-double maintenanceFrequency</text><line style="stroke:#181818;stroke-width:0.5;" x1="8" x2="219" y1="599.5898" y2="599.5898"/><text fill="#000000" font-family="sans-serif" font-size="14" lengthAdjust="spacing" textLength="70" x="13" y="618.6973">+getPlate()</text><text fill="#000000" font-family="sans-serif" font-size="14" lengthAdjust="spacing" textLength="76" x="13" y="637.3184">+getBrand()</text><text fill="#000000" font-family="sans-serif" font-size="14" lengthAdjust="spacing" textLength="76" x="13" y="655.9395">+getModel()</text><text fill="#000000" font-family="sans-serif" font-size="14" lengthAdjust="spacing" textLength="106" x="13" y="674.5605">+getCurrentKm()</text><text fill="#000000" font-family="sans-serif" font-size="14" lengthAdjust="spacing" textLength="138" x="13" y="693.1816">+needsMaintenance()</text></g><!--class VehicleFleetManager--><g id="elem_VehicleFleetManager"><rect codeLine="33" fill="#F1F1F1" height="141.1055" id="VehicleFleetManager" rx="2.5" ry="2.5" style="stroke:#181818;stroke-width:0.5;" width="261" x="270" y="172"/><ellipse cx="329.25" cy="188" fill="#ADD1B2" rx="11" ry="11" style="stroke:#181818;stroke-width:1.0;"/><path d="M332.0156,183.875 Q332.1719,183.6563 332.3594,183.5469 Q332.5469,183.4375 332.7656,183.4375 Q333.1406,183.4375 333.375,183.7031 Q333.6094,183.9531 333.6094,184.5625 L333.6094,186.0156 Q333.6094,186.625 333.375,186.8906 Q333.1406,187.1563 332.7656,187.1563 Q332.4219,187.1563 332.2188,186.9531 Q332.0156,186.7656 331.9063,186.25 Q331.8594,185.8906 331.6719,185.7031 Q331.3438,185.3281 330.7344,185.1094 Q330.125,184.8906 329.5,184.8906 Q328.7344,184.8906 328.0938,185.2188 Q327.4688,185.5469 326.9688,186.2969 Q326.4844,187.0469 326.4844,188.0781 L326.4844,189.1719 Q326.4844,190.4063 327.375,191.2344 Q328.2656,192.0469 329.8594,192.0469 Q330.7969,192.0469 331.4531,191.7969 Q331.8438,191.6406 332.2656,191.2031 Q332.5313,190.9375 332.6719,190.8594 Q332.8281,190.7813 333.0313,190.7813 Q333.3594,190.7813 333.6094,191.0469 Q333.875,191.2969 333.875,191.6406 Q333.875,191.9844 333.5313,192.3906 Q333.0313,192.9688 332.2344,193.2969 Q331.1563,193.75 329.8594,193.75 Q328.3438,193.75 327.1406,193.125 Q326.1563,192.625 325.4688,191.5625 Q324.7813,190.4844 324.7813,189.2031 L324.7813,188.0469 Q324.7813,186.7188 325.3906,185.5781 Q326.0156,184.4219 327.1094,183.8125 Q328.2031,183.1875 329.4375,183.1875 Q330.1719,183.1875 330.8125,183.3594 Q331.4688,183.5156 332.0156,183.875 Z " fill="#000000"/><text fill="#000000" font-family="sans-serif" font-size="14" lengthAdjust="spacing" textLength="134" x="349.75" y="193.7969">VehicleFleetManager</text><line style="stroke:#181818;stroke-width:0.5;" x1="271" x2="530" y1="204" y2="204"/><text fill="#000000" font-family="sans-serif" font-size="14" lengthAdjust="spacing" textLength="249" x="276" y="223.1074">-VehiclesRepository vehiclesRepository</text><line style="stroke:#181818;stroke-width:0.5;" x1="271" x2="530" y1="230.6211" y2="230.6211"/><text fill="#000000" font-family="sans-serif" font-size="14" lengthAdjust="spacing" textLength="159" x="276" y="249.7285">+getVehiclesRepository()</text><text fill="#000000" font-family="sans-serif" font-size="14" lengthAdjust="spacing" textLength="88" x="276" y="268.3496">+addVehicle()</text><text fill="#000000" font-family="sans-serif" font-size="14" lengthAdjust="spacing" textLength="140" x="276" y="286.9707">+recordMaintenance()</text><text fill="#000000" font-family="sans-serif" font-size="14" lengthAdjust="spacing" textLength="199" x="276" y="305.5918">+generateMaintenanceReport()</text></g><!--class AssignMaintenanceUI--><g id="elem_AssignMaintenanceUI"><rect codeLine="41" fill="#F1F1F1" height="103.8633" id="AssignMaintenanceUI" rx="2.5" ry="2.5" style="stroke:#181818;stroke-width:0.5;" width="219" x="291" y="7"/><ellipse cx="329.4" cy="23" fill="#ADD1B2" rx="11" ry="11" style="stroke:#181818;stroke-width:1.0;"/><path d="M332.1656,18.875 Q332.3219,18.6563 332.5094,18.5469 Q332.6969,18.4375 332.9156,18.4375 Q333.2906,18.4375 333.525,18.7031 Q333.7594,18.9531 333.7594,19.5625 L333.7594,21.0156 Q333.7594,21.625 333.525,21.8906 Q333.2906,22.1563 332.9156,22.1563 Q332.5719,22.1563 332.3688,21.9531 Q332.1656,21.7656 332.0563,21.25 Q332.0094,20.8906 331.8219,20.7031 Q331.4938,20.3281 330.8844,20.1094 Q330.275,19.8906 329.65,19.8906 Q328.8844,19.8906 328.2438,20.2188 Q327.6188,20.5469 327.1188,21.2969 Q326.6344,22.0469 326.6344,23.0781 L326.6344,24.1719 Q326.6344,25.4063 327.525,26.2344 Q328.4156,27.0469 330.0094,27.0469 Q330.9469,27.0469 331.6031,26.7969 Q331.9938,26.6406 332.4156,26.2031 Q332.6813,25.9375 332.8219,25.8594 Q332.9781,25.7813 333.1813,25.7813 Q333.5094,25.7813 333.7594,26.0469 Q334.025,26.2969 334.025,26.6406 Q334.025,26.9844 333.6813,27.3906 Q333.1813,27.9688 332.3844,28.2969 Q331.3063,28.75 330.0094,28.75 Q328.4938,28.75 327.2906,28.125 Q326.3063,27.625 325.6188,26.5625 Q324.9313,25.4844 324.9313,24.2031 L324.9313,23.0469 Q324.9313,21.7188 325.5406,20.5781 Q326.1656,19.4219 327.2594,18.8125 Q328.3531,18.1875 329.5875,18.1875 Q330.3219,18.1875 330.9625,18.3594 Q331.6188,18.5156 332.1656,18.875 Z " fill="#000000"/><text fill="#000000" font-family="sans-serif" font-size="14" lengthAdjust="spacing" textLength="135" x="348.6" y="28.7969">AssignMaintenanceUI</text><line style="stroke:#181818;stroke-width:0.5;" x1="292" x2="509" y1="39" y2="39"/><line style="stroke:#181818;stroke-width:0.5;" x1="292" x2="509" y1="47" y2="47"/><text fill="#000000" font-family="sans-serif" font-size="14" lengthAdjust="spacing" textLength="137" x="297" y="66.1074">+displayVehiclesList()</text><text fill="#000000" font-family="sans-serif" font-size="14" lengthAdjust="spacing" textLength="207" x="297" y="84.7285">+selectAndRecordMaintenance()</text><text fill="#000000" font-family="sans-serif" font-size="14" lengthAdjust="spacing" textLength="39" x="297" y="103.3496">+run()</text></g><!--link Vehicle to VehiclesRepository--><g id="link_Vehicle_VehiclesRepository"><path codeLine="48" d="M220.37,546.5 C238.86,546.5 252.21,546.5 271.09,546.5 " fill="none" id="Vehicle-to-VehiclesRepository" style="stroke:#181818;stroke-width:1.0;"/><polygon fill="#181818" points="277.09,546.5,268.09,542.5,272.09,546.5,268.09,550.5,277.09,546.5" style="stroke:#181818;stroke-width:1.0;"/><text fill="#000000" font-family="sans-serif" font-size="13" lengthAdjust="spacing" textLength="21" x="238.25" y="539.5283">has</text><text fill="#000000" font-family="sans-serif" font-size="13" lengthAdjust="spacing" textLength="5" x="228.0601" y="542.9516">*</text><text fill="#000000" font-family="sans-serif" font-size="13" lengthAdjust="spacing" textLength="7" x="262.3564" y="543.016">1</text></g><!--link AssignMaintenanceUI to VehicleFleetManager--><g id="link_AssignMaintenanceUI_VehicleFleetManager"><path codeLine="49" d="M400.5,111.04 C400.5,129.91 400.5,145.64 400.5,165.88 " fill="none" id="AssignMaintenanceUI-to-VehicleFleetManager" style="stroke:#181818;stroke-width:1.0;stroke-dasharray:7.0,7.0;"/><polygon fill="#181818" points="400.5,171.88,404.5,162.88,400.5,166.88,396.5,162.88,400.5,171.88" style="stroke:#181818;stroke-width:1.0;"/></g><!--link VehicleFleetManager to VehiclesRepository--><g id="link_VehicleFleetManager_VehiclesRepository"><path codeLine="50" d="M400.5,313.16 C400.5,362.03 400.5,421.08 400.5,469.93 " fill="none" id="VehicleFleetManager-to-VehiclesRepository" style="stroke:#181818;stroke-width:1.0;stroke-dasharray:7.0,7.0;"/><polygon fill="#181818" points="400.5,475.93,404.5,466.93,400.5,470.93,396.5,466.93,400.5,475.93" style="stroke:#181818;stroke-width:1.0;"/><text fill="#000000" font-family="sans-serif" font-size="13" lengthAdjust="spacing" textLength="108" x="401.5" y="358.0283">vehiclesRepository</text></g><!--SRC=[dLD1Rjim4Bph5OHFIOm4pRKe33WD31XDWY96tVEQt4Y4gQMyIoLGYlozb2lBbAtsKDqqCrhE3aUojLG1Gwcq0v5v26mtTS2bzhIoxwW-PT9BIazU5-nBL2_W11Eg0hs575UXSQWOTG3ANIgG0en_ivIVVUeiOMWgL9LtJViondaEFils7jKQ2wiToZDMNcpmtAXVcOhFjPepG_DW9NpfH3FrsgbxQY-TgXp3-fIwkEn8CAOZUoZHFo6QkCaZM0f8G3fL4J84JBZM9hUZFquMw5slOkWncCh53uVGXe7C42gzGTT1njURE2S0uq-qUH66UCvUP8pGDJDI-5Psy7qyEDvQ7YD0lZ-wsEEWTxMDELjF2TLDAezxBXXtDP9kZe5zRpTA4xnhzqc1ntQR5FXwiDQ35DEMOTQdIIuSnb50iO7SfpfIazSpwFnoZzo_sX0hxjdyTmFc8ZQdHF9ZsVcUAcCbDg4v-1dqKj35VsjEvlclvtDDVqxA3ZMRN4tKzKnDRYTZcNnM1KWsPkZcPZOMS3OMUg8T3X-9_3S0]--></g></svg>