<?xml version="1.0" encoding="us-ascii" standalone="no"?><svg xmlns="http://www.w3.org/2000/svg" xmlns:xlink="http://www.w3.org/1999/xlink" contentStyleType="text/css" height="1067px" preserveAspectRatio="none" style="width:1114px;height:1067px;background:#FFFFFF;" version="1.1" viewBox="0 0 1114 1067" width="1114px" zoomAndPan="magnify"><defs/><g><rect fill="#FFFFFF" height="828.7305" style="stroke:#181818;stroke-width:1.0;" width="10" x="190.5" y="121.5332"/><rect fill="#FFFFFF" height="472.6563" style="stroke:#181818;stroke-width:1.0;" width="10" x="341.5" y="446.3164"/><rect fill="#FFFFFF" height="128.4551" style="stroke:#181818;stroke-width:1.0;" width="10" x="512.5" y="540.1895"/><rect fill="#FFFFFF" height="62.582" style="stroke:#181818;stroke-width:1.0;" width="10" x="787.5" y="699.9355"/><rect fill="#FFFFFF" height="62.582" style="stroke:#181818;stroke-width:1.0;" width="10" x="930.5" y="793.8086"/><rect fill="#AED6F1" height="99.1641" style="stroke:#000000;stroke-width:1.5;" width="250" x="10" y="264.9883"/><line style="stroke:#181818;stroke-width:0.5;stroke-dasharray:5.0,5.0;" x1="42" x2="42" y1="88.2422" y2="968.2637"/><line style="stroke:#181818;stroke-width:0.5;stroke-dasharray:5.0,5.0;" x1="195" x2="195" y1="88.2422" y2="968.2637"/><line style="stroke:#181818;stroke-width:0.5;stroke-dasharray:5.0,5.0;" x1="346.5" x2="346.5" y1="88.2422" y2="968.2637"/><line style="stroke:#181818;stroke-width:0.5;stroke-dasharray:5.0,5.0;" x1="517" x2="517" y1="88.2422" y2="968.2637"/><line style="stroke:#181818;stroke-width:0.5;stroke-dasharray:5.0,5.0;" x1="676.5" x2="676.5" y1="88.2422" y2="968.2637"/><line style="stroke:#181818;stroke-width:0.5;stroke-dasharray:5.0,5.0;" x1="792.5" x2="792.5" y1="88.2422" y2="968.2637"/><line style="stroke:#181818;stroke-width:0.5;stroke-dasharray:5.0,5.0;" x1="935.5" x2="935.5" y1="88.2422" y2="968.2637"/><line style="stroke:#181818;stroke-width:0.5;stroke-dasharray:5.0,5.0;" x1="1061.5" x2="1061.5" y1="88.2422" y2="968.2637"/><text fill="#000000" font-family="sans-serif" font-size="14" lengthAdjust="spacing" textLength="39" x="20" y="84.7285">Admin</text><ellipse cx="42.5" cy="18.1211" fill="#E2E2F0" rx="8" ry="8" style="stroke:#181818;stroke-width:0.5;"/><path d="M42.5,26.1211 L42.5,53.1211 M29.5,34.1211 L55.5,34.1211 M42.5,53.1211 L29.5,68.1211 M42.5,53.1211 L55.5,68.1211 " fill="none" style="stroke:#181818;stroke-width:0.5;"/><text fill="#000000" font-family="sans-serif" font-size="14" lengthAdjust="spacing" textLength="39" x="20" y="982.3711">Admin</text><ellipse cx="42.5" cy="994.3848" fill="#E2E2F0" rx="8" ry="8" style="stroke:#181818;stroke-width:0.5;"/><path d="M42.5,1002.3848 L42.5,1029.3848 M29.5,1010.3848 L55.5,1010.3848 M42.5,1029.3848 L29.5,1044.3848 M42.5,1029.3848 L55.5,1044.3848 " fill="none" style="stroke:#181818;stroke-width:0.5;"/><rect fill="#E2E2F0" height="51.2422" rx="2.5" ry="2.5" style="stroke:#181818;stroke-width:0.5;" width="109" x="141" y="36"/><text fill="#000000" font-family="sans-serif" font-size="14" font-style="italic" lengthAdjust="spacing" textLength="95" x="148" y="58.1074">&#171;presentation&#187;</text><text fill="#000000" font-family="sans-serif" font-size="14" lengthAdjust="spacing" textLength="66" x="162.5" y="76.7285">AddUserUI</text><rect fill="#E2E2F0" height="51.2422" rx="2.5" ry="2.5" style="stroke:#181818;stroke-width:0.5;" width="109" x="141" y="967.2637"/><text fill="#000000" font-family="sans-serif" font-size="14" font-style="italic" lengthAdjust="spacing" textLength="95" x="148" y="989.3711">&#171;presentation&#187;</text><text fill="#000000" font-family="sans-serif" font-size="14" lengthAdjust="spacing" textLength="66" x="162.5" y="1007.9922">AddUserUI</text><rect fill="#E2E2F0" height="51.2422" rx="2.5" ry="2.5" style="stroke:#181818;stroke-width:0.5;" width="130" x="281.5" y="36"/><text fill="#000000" font-family="sans-serif" font-size="14" font-style="italic" lengthAdjust="spacing" textLength="84" x="304.5" y="58.1074">&#171;application&#187;</text><text fill="#000000" font-family="sans-serif" font-size="14" lengthAdjust="spacing" textLength="116" x="288.5" y="76.7285">AddUserController</text><rect fill="#E2E2F0" height="51.2422" rx="2.5" ry="2.5" style="stroke:#181818;stroke-width:0.5;" width="130" x="281.5" y="967.2637"/><text fill="#000000" font-family="sans-serif" font-size="14" font-style="italic" lengthAdjust="spacing" textLength="84" x="304.5" y="989.3711">&#171;application&#187;</text><text fill="#000000" font-family="sans-serif" font-size="14" lengthAdjust="spacing" textLength="116" x="288.5" y="1007.9922">AddUserController</text><rect fill="#E2E2F0" height="51.2422" rx="2.5" ry="2.5" style="stroke:#181818;stroke-width:0.5;" width="87" x="474" y="36"/><text fill="#000000" font-family="sans-serif" font-size="14" font-style="italic" lengthAdjust="spacing" textLength="59" x="488" y="58.1074">&#171;builder&#187;</text><text fill="#000000" font-family="sans-serif" font-size="14" lengthAdjust="spacing" textLength="73" x="481" y="76.7285">UserBuilder</text><rect fill="#E2E2F0" height="51.2422" rx="2.5" ry="2.5" style="stroke:#181818;stroke-width:0.5;" width="87" x="474" y="967.2637"/><text fill="#000000" font-family="sans-serif" font-size="14" font-style="italic" lengthAdjust="spacing" textLength="59" x="488" y="989.3711">&#171;builder&#187;</text><text fill="#000000" font-family="sans-serif" font-size="14" lengthAdjust="spacing" textLength="73" x="481" y="1007.9922">UserBuilder</text><rect fill="#E2E2F0" height="51.2422" rx="2.5" ry="2.5" style="stroke:#181818;stroke-width:0.5;" width="76" x="638.5" y="36"/><text fill="#000000" font-family="sans-serif" font-size="14" font-style="italic" lengthAdjust="spacing" textLength="62" x="645.5" y="58.1074">&#171;domain&#187;</text><text fill="#000000" font-family="sans-serif" font-size="14" lengthAdjust="spacing" textLength="61" x="646" y="76.7285">user:User</text><rect fill="#E2E2F0" height="51.2422" rx="2.5" ry="2.5" style="stroke:#181818;stroke-width:0.5;" width="76" x="638.5" y="967.2637"/><text fill="#000000" font-family="sans-serif" font-size="14" font-style="italic" lengthAdjust="spacing" textLength="62" x="645.5" y="989.3711">&#171;domain&#187;</text><text fill="#000000" font-family="sans-serif" font-size="14" lengthAdjust="spacing" textLength="61" x="646" y="1007.9922">user:User</text><rect fill="#E2E2F0" height="51.2422" rx="2.5" ry="2.5" style="stroke:#181818;stroke-width:0.5;" width="136" x="724.5" y="36"/><text fill="#000000" font-family="sans-serif" font-size="14" font-style="italic" lengthAdjust="spacing" textLength="89" x="748" y="58.1074">&#171;persistence&#187;</text><text fill="#000000" font-family="sans-serif" font-size="14" lengthAdjust="spacing" textLength="122" x="731.5" y="76.7285">PersistenceContext</text><rect fill="#E2E2F0" height="51.2422" rx="2.5" ry="2.5" style="stroke:#181818;stroke-width:0.5;" width="136" x="724.5" y="967.2637"/><text fill="#000000" font-family="sans-serif" font-size="14" font-style="italic" lengthAdjust="spacing" textLength="89" x="748" y="989.3711">&#171;persistence&#187;</text><text fill="#000000" font-family="sans-serif" font-size="14" lengthAdjust="spacing" textLength="122" x="731.5" y="1007.9922">PersistenceContext</text><rect fill="#E2E2F0" height="51.2422" rx="2.5" ry="2.5" style="stroke:#181818;stroke-width:0.5;" width="130" x="870.5" y="36"/><text fill="#000000" font-family="sans-serif" font-size="14" font-style="italic" lengthAdjust="spacing" textLength="59" x="906" y="58.1074">&#171;factory&#187;</text><text fill="#000000" font-family="sans-serif" font-size="14" lengthAdjust="spacing" textLength="116" x="877.5" y="76.7285">RepositoryFactory</text><rect fill="#E2E2F0" height="51.2422" rx="2.5" ry="2.5" style="stroke:#181818;stroke-width:0.5;" width="130" x="870.5" y="967.2637"/><text fill="#000000" font-family="sans-serif" font-size="14" font-style="italic" lengthAdjust="spacing" textLength="59" x="906" y="989.3711">&#171;factory&#187;</text><text fill="#000000" font-family="sans-serif" font-size="14" lengthAdjust="spacing" textLength="116" x="877.5" y="1007.9922">RepositoryFactory</text><text fill="#000000" font-family="sans-serif" font-size="14" font-style="italic" lengthAdjust="spacing" textLength="79" x="1019.5" y="66.1074">&#171;repository&#187;</text><text fill="#000000" font-family="sans-serif" font-size="14" lengthAdjust="spacing" textLength="97" x="1010.5" y="84.7285">UserRepository</text><path d="M1044,15 C1044,5 1062,5 1062,5 C1062,5 1080,5 1080,15 L1080,41 C1080,51 1062,51 1062,51 C1062,51 1044,51 1044,41 L1044,15 " fill="#E2E2F0" style="stroke:#181818;stroke-width:1.5;"/><path d="M1044,15 C1044,25 1062,25 1062,25 C1062,25 1080,25 1080,15 " fill="none" style="stroke:#181818;stroke-width:1.5;"/><text fill="#000000" font-family="sans-serif" font-size="14" font-style="italic" lengthAdjust="spacing" textLength="79" x="1019.5" y="982.3711">&#171;repository&#187;</text><text fill="#000000" font-family="sans-serif" font-size="14" lengthAdjust="spacing" textLength="97" x="1010.5" y="1000.9922">UserRepository</text><path d="M1044,1014.5059 C1044,1004.5059 1062,1004.5059 1062,1004.5059 C1062,1004.5059 1080,1004.5059 1080,1014.5059 L1080,1040.5059 C1080,1050.5059 1062,1050.5059 1062,1050.5059 C1062,1050.5059 1044,1050.5059 1044,1040.5059 L1044,1014.5059 " fill="#E2E2F0" style="stroke:#181818;stroke-width:1.5;"/><path d="M1044,1014.5059 C1044,1024.5059 1062,1024.5059 1062,1024.5059 C1062,1024.5059 1080,1024.5059 1080,1014.5059 " fill="none" style="stroke:#181818;stroke-width:1.5;"/><rect fill="#FFFFFF" height="828.7305" style="stroke:#181818;stroke-width:1.0;" width="10" x="190.5" y="121.5332"/><rect fill="#FFFFFF" height="472.6563" style="stroke:#181818;stroke-width:1.0;" width="10" x="341.5" y="446.3164"/><rect fill="#FFFFFF" height="128.4551" style="stroke:#181818;stroke-width:1.0;" width="10" x="512.5" y="540.1895"/><rect fill="#FFFFFF" height="62.582" style="stroke:#181818;stroke-width:1.0;" width="10" x="787.5" y="699.9355"/><rect fill="#FFFFFF" height="62.582" style="stroke:#181818;stroke-width:1.0;" width="10" x="930.5" y="793.8086"/><polygon fill="#181818" points="178.5,117.5332,188.5,121.5332,178.5,125.5332,182.5,121.5332" style="stroke:#181818;stroke-width:1.0;"/><line style="stroke:#181818;stroke-width:1.0;stroke-dasharray:2.0,2.0;" x1="42.5" x2="184.5" y1="121.5332" y2="121.5332"/><text fill="#000000" font-family="sans-serif" font-size="13" lengthAdjust="spacing" textLength="54" x="49.5" y="116.2705">Add User</text><polygon fill="#181818" points="334.5,148.8242,344.5,152.8242,334.5,156.8242,338.5,152.8242" style="stroke:#181818;stroke-width:1.0;"/><line style="stroke:#181818;stroke-width:1.0;" x1="200.5" x2="340.5" y1="152.8242" y2="152.8242"/><text fill="#000000" font-family="sans-serif" font-size="13" lengthAdjust="spacing" textLength="36" x="207.5" y="147.5615">create</text><polygon fill="#181818" points="53.5,180.1152,43.5,184.1152,53.5,188.1152,49.5,184.1152" style="stroke:#181818;stroke-width:1.0;"/><line style="stroke:#181818;stroke-width:1.0;stroke-dasharray:2.0,2.0;" x1="47.5" x2="189.5" y1="184.1152" y2="184.1152"/><text fill="#000000" font-family="sans-serif" font-size="13" lengthAdjust="spacing" textLength="119" x="59.5" y="178.8525">Ask user information</text><polygon fill="#181818" points="178.5,245.9883,188.5,249.9883,178.5,253.9883,182.5,249.9883" style="stroke:#181818;stroke-width:1.0;"/><line style="stroke:#181818;stroke-width:1.0;stroke-dasharray:2.0,2.0;" x1="42.5" x2="184.5" y1="249.9883" y2="249.9883"/><text fill="#000000" font-family="sans-serif" font-size="13" lengthAdjust="spacing" textLength="124" x="49.5" y="210.1436">Usernane, Password,</text><text fill="#000000" font-family="sans-serif" font-size="13" lengthAdjust="spacing" textLength="68" x="49.5" y="227.4346">First Name,</text><text fill="#000000" font-family="sans-serif" font-size="13" lengthAdjust="spacing" textLength="108" x="49.5" y="244.7256">Last Name, E-Mail</text><path d="M10,264.9883 L83,264.9883 L83,274.2793 L73,284.2793 L10,284.2793 L10,264.9883 " fill="#EEEEEE" style="stroke:#000000;stroke-width:1.5;"/><rect fill="none" height="99.1641" style="stroke:#000000;stroke-width:1.5;" width="250" x="10" y="264.9883"/><text fill="#000000" font-family="sans-serif" font-size="13" font-weight="bold" lengthAdjust="spacing" textLength="28" x="25" y="280.0166">loop</text><text fill="#000000" font-family="sans-serif" font-size="11" font-weight="bold" lengthAdjust="spacing" textLength="64" x="98" y="278.8584">[option != 0]</text><polygon fill="#181818" points="53.5,320.8613,43.5,324.8613,53.5,328.8613,49.5,324.8613" style="stroke:#181818;stroke-width:1.0;"/><line style="stroke:#181818;stroke-width:1.0;stroke-dasharray:2.0,2.0;" x1="47.5" x2="189.5" y1="324.8613" y2="324.8613"/><text fill="#000000" font-family="sans-serif" font-size="13" lengthAdjust="spacing" textLength="57" x="59.5" y="302.3076">Show List</text><text fill="#000000" font-family="sans-serif" font-size="13" lengthAdjust="spacing" textLength="79" x="59.5" y="319.5986">of Role Types</text><polygon fill="#181818" points="178.5,352.1523,188.5,356.1523,178.5,360.1523,182.5,356.1523" style="stroke:#181818;stroke-width:1.0;"/><line style="stroke:#181818;stroke-width:1.0;stroke-dasharray:2.0,2.0;" x1="42.5" x2="184.5" y1="356.1523" y2="356.1523"/><text fill="#000000" font-family="sans-serif" font-size="13" lengthAdjust="spacing" textLength="58" x="49.5" y="350.8896">Role Type</text><polygon fill="#181818" points="329.5,442.3164,339.5,446.3164,329.5,450.3164,333.5,446.3164" style="stroke:#181818;stroke-width:1.0;"/><line style="stroke:#181818;stroke-width:1.0;" x1="200.5" x2="335.5" y1="446.3164" y2="446.3164"/><text fill="#000000" font-family="sans-serif" font-size="13" lengthAdjust="spacing" textLength="113" x="207.5" y="389.1807">addUser(username,</text><text fill="#000000" font-family="sans-serif" font-size="13" lengthAdjust="spacing" textLength="122" x="207.5" y="406.4717">password, firstName,</text><text fill="#000000" font-family="sans-serif" font-size="13" lengthAdjust="spacing" textLength="98" x="207.5" y="423.7627">lastName, email,</text><text fill="#000000" font-family="sans-serif" font-size="13" lengthAdjust="spacing" textLength="32" x="207.5" y="441.0537">roles)</text><polygon fill="#181818" points="505.5,473.6074,515.5,477.6074,505.5,481.6074,509.5,477.6074" style="stroke:#181818;stroke-width:1.0;"/><line style="stroke:#181818;stroke-width:1.0;" x1="351.5" x2="511.5" y1="477.6074" y2="477.6074"/><text fill="#000000" font-family="sans-serif" font-size="13" lengthAdjust="spacing" textLength="36" x="358.5" y="472.3447">create</text><polygon fill="#181818" points="505.5,504.8984,515.5,508.8984,505.5,512.8984,509.5,508.8984" style="stroke:#181818;stroke-width:1.0;"/><line style="stroke:#181818;stroke-width:1.0;" x1="351.5" x2="511.5" y1="508.8984" y2="508.8984"/><text fill="#000000" font-family="sans-serif" font-size="13" lengthAdjust="spacing" textLength="142" x="358.5" y="503.6357">setUsername(username)</text><polygon fill="#181818" points="500.5,536.1895,510.5,540.1895,500.5,544.1895,504.5,540.1895" style="stroke:#181818;stroke-width:1.0;"/><line style="stroke:#181818;stroke-width:1.0;" x1="351.5" x2="506.5" y1="540.1895" y2="540.1895"/><text fill="#000000" font-family="sans-serif" font-size="13" lengthAdjust="spacing" textLength="71" x="358.5" y="534.9268">createUser()</text><polygon fill="#181818" points="664.5,602.0625,674.5,606.0625,664.5,610.0625,668.5,606.0625" style="stroke:#181818;stroke-width:1.0;"/><line style="stroke:#181818;stroke-width:1.0;" x1="522.5" x2="670.5" y1="606.0625" y2="606.0625"/><text fill="#000000" font-family="sans-serif" font-size="13" lengthAdjust="spacing" textLength="105" x="529.5" y="566.2178">create (username,</text><text fill="#000000" font-family="sans-serif" font-size="13" lengthAdjust="spacing" textLength="122" x="529.5" y="583.5088">password, firstName,</text><text fill="#000000" font-family="sans-serif" font-size="13" lengthAdjust="spacing" textLength="130" x="529.5" y="600.7998">lastName,email, roles)</text><polygon fill="#181818" points="533.5,633.3535,523.5,637.3535,533.5,641.3535,529.5,637.3535" style="stroke:#181818;stroke-width:1.0;"/><line style="stroke:#181818;stroke-width:1.0;" x1="527.5" x2="675.5" y1="637.3535" y2="637.3535"/><text fill="#000000" font-family="sans-serif" font-size="13" lengthAdjust="spacing" textLength="25" x="539.5" y="632.0908">user</text><polygon fill="#181818" points="362.5,664.6445,352.5,668.6445,362.5,672.6445,358.5,668.6445" style="stroke:#181818;stroke-width:1.0;"/><line style="stroke:#181818;stroke-width:1.0;" x1="356.5" x2="516.5" y1="668.6445" y2="668.6445"/><text fill="#000000" font-family="sans-serif" font-size="13" lengthAdjust="spacing" textLength="25" x="368.5" y="663.3818">user</text><polygon fill="#181818" points="775.5,695.9355,785.5,699.9355,775.5,703.9355,779.5,699.9355" style="stroke:#181818;stroke-width:1.0;"/><line style="stroke:#181818;stroke-width:1.0;" x1="351.5" x2="781.5" y1="699.9355" y2="699.9355"/><text fill="#000000" font-family="sans-serif" font-size="13" lengthAdjust="spacing" textLength="75" x="358.5" y="694.6729">repositories()</text><polygon fill="#181818" points="923.5,727.2266,933.5,731.2266,923.5,735.2266,927.5,731.2266" style="stroke:#181818;stroke-width:1.0;"/><line style="stroke:#181818;stroke-width:1.0;" x1="797.5" x2="929.5" y1="731.2266" y2="731.2266"/><text fill="#000000" font-family="sans-serif" font-size="13" lengthAdjust="spacing" textLength="36" x="804.5" y="725.9639">create</text><polygon fill="#181818" points="362.5,758.5176,352.5,762.5176,362.5,766.5176,358.5,762.5176" style="stroke:#181818;stroke-width:1.0;"/><line style="stroke:#181818;stroke-width:1.0;" x1="356.5" x2="791.5" y1="762.5176" y2="762.5176"/><text fill="#000000" font-family="sans-serif" font-size="13" lengthAdjust="spacing" textLength="39" x="368.5" y="757.2549">factory</text><polygon fill="#181818" points="918.5,789.8086,928.5,793.8086,918.5,797.8086,922.5,793.8086" style="stroke:#181818;stroke-width:1.0;"/><line style="stroke:#181818;stroke-width:1.0;" x1="351.5" x2="924.5" y1="793.8086" y2="793.8086"/><text fill="#000000" font-family="sans-serif" font-size="13" lengthAdjust="spacing" textLength="40" x="358.5" y="788.5459">users()</text><polygon fill="#181818" points="1050,821.0996,1060,825.0996,1050,829.0996,1054,825.0996" style="stroke:#181818;stroke-width:1.0;"/><line style="stroke:#181818;stroke-width:1.0;" x1="940.5" x2="1056" y1="825.0996" y2="825.0996"/><text fill="#000000" font-family="sans-serif" font-size="13" lengthAdjust="spacing" textLength="36" x="947.5" y="819.8369">create</text><polygon fill="#181818" points="362.5,852.3906,352.5,856.3906,362.5,860.3906,358.5,856.3906" style="stroke:#181818;stroke-width:1.0;"/><line style="stroke:#181818;stroke-width:1.0;" x1="356.5" x2="934.5" y1="856.3906" y2="856.3906"/><text fill="#000000" font-family="sans-serif" font-size="13" lengthAdjust="spacing" textLength="87" x="368.5" y="851.1279">userRepository</text><polygon fill="#181818" points="1050,883.6816,1060,887.6816,1050,891.6816,1054,887.6816" style="stroke:#181818;stroke-width:1.0;"/><line style="stroke:#181818;stroke-width:1.0;" x1="351.5" x2="1056" y1="887.6816" y2="887.6816"/><text fill="#000000" font-family="sans-serif" font-size="13" lengthAdjust="spacing" textLength="59" x="358.5" y="882.4189">save(user)</text><polygon fill="#181818" points="211.5,914.9727,201.5,918.9727,211.5,922.9727,207.5,918.9727" style="stroke:#181818;stroke-width:1.0;"/><line style="stroke:#181818;stroke-width:1.0;" x1="205.5" x2="345.5" y1="918.9727" y2="918.9727"/><text fill="#000000" font-family="sans-serif" font-size="13" lengthAdjust="spacing" textLength="25" x="217.5" y="913.71">user</text><polygon fill="#181818" points="53.5,946.2637,43.5,950.2637,53.5,954.2637,49.5,950.2637" style="stroke:#181818;stroke-width:1.0;"/><line style="stroke:#181818;stroke-width:1.0;stroke-dasharray:2.0,2.0;" x1="47.5" x2="194.5" y1="950.2637" y2="950.2637"/><text fill="#000000" font-family="sans-serif" font-size="13" lengthAdjust="spacing" textLength="88" x="59.5" y="945.001">displayUserInfo</text><!--SRC=[XLJ1RXen4BtxAwRffKX1IYyze2qI9452IgieBJSkpkwGM1XxPPkagEg_TyQxwpMmA1oGlVFc-StpZFrMcLewkGEj38P3ZM1TUBN2fq0jowryGVWh0EQqVd5sRwfRgws3pxFxks-BhnonhaBNV9rhWeb_GWXP1jhFgfqo83tCU2k8DgXIrT842bKhZswrv33z5qNjqAC9CYXhfjCXyAqrmLcjqN5IjYiAMTTQbKEvd3ZVArqrMTsoA9wRrGdyQa_u2ITTCVpExYILK1HLN9o07z5vvGEQ4baD_WcSattbilhTIVOJrjOhCkQmY7OTEBbR5iMcML5I9ODybXvZBNqMmxDTKRYqeIGHFOVnU4hsJjZ2cCutezva8B8btHwmzmJfpPn0wP3YAKZHI4KSVWji3oYpiMuNtOwmuwFu62CDNiEZzFwT-kDwRHRA-G0_vGvfyo2xDToFVqYbHQJHrjPWQwQ5Jz_X9duyb_7hrRx30tcwDdO3JrOZ_AR-zGb-B2S1OXnD9IxKBPik-xAF-bdScYQXhG0sN42hNyjs2KXTeHb89EX7aJavt9CdQLdJqkbjCnvPVXdbCQnQQKdZI8WFiXhgMDWeGPF45fK2_Ej6X4YQzk_qGM_DXywqncIsTB-6SpnDnJFf9G7P_Hp1AZmhuO8FsJHE84s8GZzaHmO-KfIFD76sGtfsRmFGlC7QYHug8Z_uGY7fK3PYKFtYX9z_tNj21FrRCIWyG-QYzqTlpf3sxjW1tUDfTgYNRqtZZWQHFAlfZZFwR8go1u6cktqEAkLhBG_SuKjwbqIMkbh-1m00]--></g></svg>