<?xml version="1.0" encoding="us-ascii" standalone="no"?><svg xmlns="http://www.w3.org/2000/svg" xmlns:xlink="http://www.w3.org/1999/xlink" contentStyleType="text/css" height="764px" preserveAspectRatio="none" style="width:556px;height:764px;background:#FFFFFF;" version="1.1" viewBox="0 0 556 764" width="556px" zoomAndPan="magnify"><defs/><g><text fill="#000000" font-family="sans-serif" font-size="14" font-weight="bold" lengthAdjust="spacing" textLength="276" x="141.5" y="27.6738">System Sequence Diagram (SSD) - US20</text><rect fill="#FFFFFF" height="516.4219" style="stroke:#181818;stroke-width:1.0;" width="10" x="90" y="142.9219"/><rect fill="#FFFFFF" height="52.0469" style="stroke:#181818;stroke-width:1.0;" width="10" x="393" y="163.4453"/><rect fill="#FFFFFF" height="43.0469" style="stroke:#181818;stroke-width:1.0;" width="10" x="393" y="244.0156"/><rect fill="#FFFFFF" height="115.0938" style="stroke:#181818;stroke-width:1.0;" width="10" x="393" y="315.5859"/><rect fill="#FFFFFF" height="28.5234" style="stroke:#181818;stroke-width:1.0;" width="10" x="393" y="459.2031"/><rect fill="#FFFFFF" height="28.5234" style="stroke:#181818;stroke-width:1.0;" width="10" x="393" y="516.25"/><rect fill="#FFFFFF" height="77.0469" style="stroke:#181818;stroke-width:1.0;" width="10" x="393" y="573.2969"/><rect fill="none" height="186.6641" style="stroke:#000000;stroke-width:1.5;" width="533" x="10" y="178.4453"/><rect fill="none" height="243.7109" style="stroke:#000000;stroke-width:1.5;" width="540" x="10" y="379.1094"/><line style="stroke:#181818;stroke-width:0.5;stroke-dasharray:5.0,5.0;" x1="95" x2="95" y1="132.9219" y2="668.3438"/><line style="stroke:#181818;stroke-width:0.5;stroke-dasharray:5.0,5.0;" x1="398" x2="398" y1="132.9219" y2="668.3438"/><text fill="#000000" font-family="sans-serif" font-size="14" lengthAdjust="spacing" textLength="144" x="20" y="114.3145">Green Space Manager</text><text fill="#000000" font-family="sans-serif" font-size="14" lengthAdjust="spacing" textLength="41" x="71.5" y="129.9551">(GSM)</text><ellipse cx="95" cy="50.1406" fill="#E3E3E3" rx="8" ry="8" style="stroke:#181818;stroke-width:0.5;"/><path d="M95,58.1406 L95,85.1406 M82,66.1406 L108,66.1406 M95,85.1406 L82,100.1406 M95,85.1406 L108,100.1406 " fill="none" style="stroke:#181818;stroke-width:0.5;"/><text fill="#000000" font-family="sans-serif" font-size="14" lengthAdjust="spacing" textLength="144" x="20" y="680.0176">Green Space Manager</text><text fill="#000000" font-family="sans-serif" font-size="14" lengthAdjust="spacing" textLength="41" x="71.5" y="695.6582">(GSM)</text><ellipse cx="95" cy="707.125" fill="#E3E3E3" rx="8" ry="8" style="stroke:#181818;stroke-width:0.5;"/><path d="M95,715.125 L95,742.125 M82,723.125 L108,723.125 M95,742.125 L82,757.125 M95,742.125 L108,757.125 " fill="none" style="stroke:#181818;stroke-width:0.5;"/><rect fill="#E3E3E3" height="29.6406" rx="2.5" ry="2.5" style="stroke:#181818;stroke-width:0.5;" width="64" x="366" y="102.2813"/><text fill="#000000" font-family="sans-serif" font-size="14" lengthAdjust="spacing" textLength="50" x="373" y="121.9551">:System</text><rect fill="#E3E3E3" height="29.6406" rx="2.5" ry="2.5" style="stroke:#181818;stroke-width:0.5;" width="64" x="366" y="667.3438"/><text fill="#000000" font-family="sans-serif" font-size="14" lengthAdjust="spacing" textLength="50" x="373" y="687.0176">:System</text><rect fill="#FFFFFF" height="516.4219" style="stroke:#181818;stroke-width:1.0;" width="10" x="90" y="142.9219"/><rect fill="#FFFFFF" height="52.0469" style="stroke:#181818;stroke-width:1.0;" width="10" x="393" y="163.4453"/><rect fill="#FFFFFF" height="43.0469" style="stroke:#181818;stroke-width:1.0;" width="10" x="393" y="244.0156"/><rect fill="#FFFFFF" height="115.0938" style="stroke:#181818;stroke-width:1.0;" width="10" x="393" y="315.5859"/><rect fill="#FFFFFF" height="28.5234" style="stroke:#181818;stroke-width:1.0;" width="10" x="393" y="459.2031"/><rect fill="#FFFFFF" height="28.5234" style="stroke:#181818;stroke-width:1.0;" width="10" x="393" y="516.25"/><rect fill="#FFFFFF" height="77.0469" style="stroke:#181818;stroke-width:1.0;" width="10" x="393" y="573.2969"/><polygon fill="#181818" points="381,159.4453,391,163.4453,381,167.4453,385,163.4453" style="stroke:#181818;stroke-width:1.0;"/><line style="stroke:#181818;stroke-width:1.0;" x1="100" x2="387" y1="163.4453" y2="163.4453"/><text fill="#000000" font-family="sans-serif" font-size="13" font-weight="bold" lengthAdjust="spacing" textLength="7" x="107" y="158.6904">1</text><text fill="#000000" font-family="sans-serif" font-size="13" lengthAdjust="spacing" textLength="211" x="118" y="158.6904">request registration of a green space</text><path d="M10,178.4453 L83,178.4453 L83,184.9688 L73,194.9688 L10,194.9688 L10,178.4453 " fill="#EEEEEE" style="stroke:#000000;stroke-width:1.5;"/><rect fill="none" height="186.6641" style="stroke:#000000;stroke-width:1.5;" width="533" x="10" y="178.4453"/><text fill="#000000" font-family="sans-serif" font-size="13" font-weight="bold" lengthAdjust="spacing" textLength="28" x="25" y="191.2139">loop</text><text fill="#000000" font-family="sans-serif" font-size="11" font-weight="bold" lengthAdjust="spacing" textLength="138" x="98" y="190.4033">[until all data is validated]</text><polygon fill="#181818" points="111,211.4922,101,215.4922,111,219.4922,107,215.4922" style="stroke:#181818;stroke-width:1.0;"/><line style="stroke:#181818;stroke-width:1.0;stroke-dasharray:2.0,2.0;" x1="105" x2="397" y1="215.4922" y2="215.4922"/><text fill="#000000" font-family="sans-serif" font-size="13" font-weight="bold" lengthAdjust="spacing" textLength="7" x="117" y="210.7373">2</text><text fill="#000000" font-family="sans-serif" font-size="13" lengthAdjust="spacing" textLength="182" x="128" y="210.7373">asks the name of green spaces</text><polygon fill="#181818" points="381,240.0156,391,244.0156,381,248.0156,385,244.0156" style="stroke:#181818;stroke-width:1.0;"/><line style="stroke:#181818;stroke-width:1.0;" x1="100" x2="387" y1="244.0156" y2="244.0156"/><text fill="#000000" font-family="sans-serif" font-size="13" font-weight="bold" lengthAdjust="spacing" textLength="7" x="107" y="239.2607">3</text><text fill="#000000" font-family="sans-serif" font-size="13" lengthAdjust="spacing" textLength="132" x="118" y="239.2607">selects requested data</text><polygon fill="#181818" points="111,283.0625,101,287.0625,111,291.0625,107,287.0625" style="stroke:#181818;stroke-width:1.0;"/><line style="stroke:#181818;stroke-width:1.0;stroke-dasharray:2.0,2.0;" x1="105" x2="397" y1="287.0625" y2="287.0625"/><text fill="#000000" font-family="sans-serif" font-size="13" font-weight="bold" lengthAdjust="spacing" textLength="7" x="117" y="275.0459">4</text><text fill="#000000" font-family="sans-serif" font-size="13" lengthAdjust="spacing" textLength="249" x="128" y="267.7842">requests the address (street, zipcode, city)</text><text fill="#000000" font-family="sans-serif" font-size="13" lengthAdjust="spacing" textLength="107" x="128" y="282.3076">of the green space</text><polygon fill="#181818" points="381,311.5859,391,315.5859,381,319.5859,385,315.5859" style="stroke:#181818;stroke-width:1.0;"/><line style="stroke:#181818;stroke-width:1.0;" x1="100" x2="387" y1="315.5859" y2="315.5859"/><text fill="#000000" font-family="sans-serif" font-size="13" font-weight="bold" lengthAdjust="spacing" textLength="7" x="107" y="310.8311">5</text><text fill="#000000" font-family="sans-serif" font-size="13" lengthAdjust="spacing" textLength="107" x="118" y="310.8311">select the address</text><line style="stroke:#181818;stroke-width:1.0;" x1="403" x2="445" y1="344.1094" y2="344.1094"/><line style="stroke:#181818;stroke-width:1.0;" x1="445" x2="445" y1="344.1094" y2="357.1094"/><line style="stroke:#181818;stroke-width:1.0;" x1="404" x2="445" y1="357.1094" y2="357.1094"/><polygon fill="#181818" points="414,353.1094,404,357.1094,414,361.1094,410,357.1094" style="stroke:#181818;stroke-width:1.0;"/><text fill="#000000" font-family="sans-serif" font-size="13" font-weight="bold" lengthAdjust="spacing" textLength="7" x="410" y="339.3545">6</text><text fill="#000000" font-family="sans-serif" font-size="13" lengthAdjust="spacing" textLength="110" x="421" y="339.3545">validate information</text><path d="M10,379.1094 L83,379.1094 L83,385.6328 L73,395.6328 L10,395.6328 L10,379.1094 " fill="#EEEEEE" style="stroke:#000000;stroke-width:1.5;"/><rect fill="none" height="243.7109" style="stroke:#000000;stroke-width:1.5;" width="540" x="10" y="379.1094"/><text fill="#000000" font-family="sans-serif" font-size="13" font-weight="bold" lengthAdjust="spacing" textLength="28" x="25" y="391.8779">loop</text><text fill="#000000" font-family="sans-serif" font-size="11" font-weight="bold" lengthAdjust="spacing" textLength="138" x="98" y="391.0674">[until all data is validated]</text><polygon fill="#181818" points="111,426.6797,101,430.6797,111,434.6797,107,430.6797" style="stroke:#181818;stroke-width:1.0;"/><line style="stroke:#181818;stroke-width:1.0;stroke-dasharray:2.0,2.0;" x1="105" x2="397" y1="430.6797" y2="430.6797"/><text fill="#000000" font-family="sans-serif" font-size="13" font-weight="bold" lengthAdjust="spacing" textLength="7" x="117" y="418.6631">7</text><text fill="#000000" font-family="sans-serif" font-size="13" lengthAdjust="spacing" textLength="240" x="128" y="411.4014">asks the size of the green space (garden,</text><text fill="#000000" font-family="sans-serif" font-size="13" lengthAdjust="spacing" textLength="225" x="128" y="425.9248">medium-sized park or large-sized park)</text><polygon fill="#181818" points="381,455.2031,391,459.2031,381,463.2031,385,459.2031" style="stroke:#181818;stroke-width:1.0;"/><line style="stroke:#181818;stroke-width:1.0;" x1="100" x2="387" y1="459.2031" y2="459.2031"/><text fill="#000000" font-family="sans-serif" font-size="13" font-weight="bold" lengthAdjust="spacing" textLength="7" x="107" y="454.4482">8</text><text fill="#000000" font-family="sans-serif" font-size="13" lengthAdjust="spacing" textLength="145" x="118" y="454.4482">selects green space size</text><polygon fill="#181818" points="111,483.7266,101,487.7266,111,491.7266,107,487.7266" style="stroke:#181818;stroke-width:1.0;"/><line style="stroke:#181818;stroke-width:1.0;stroke-dasharray:2.0,2.0;" x1="105" x2="397" y1="487.7266" y2="487.7266"/><text fill="#000000" font-family="sans-serif" font-size="13" font-weight="bold" lengthAdjust="spacing" textLength="7" x="117" y="482.9717">9</text><text fill="#000000" font-family="sans-serif" font-size="13" lengthAdjust="spacing" textLength="212" x="128" y="482.9717">requests the area of the green space</text><polygon fill="#181818" points="381,512.25,391,516.25,381,520.25,385,516.25" style="stroke:#181818;stroke-width:1.0;"/><line style="stroke:#181818;stroke-width:1.0;" x1="100" x2="387" y1="516.25" y2="516.25"/><text fill="#000000" font-family="sans-serif" font-size="13" font-weight="bold" lengthAdjust="spacing" textLength="14" x="107" y="511.4951">10</text><text fill="#000000" font-family="sans-serif" font-size="13" lengthAdjust="spacing" textLength="256" x="125" y="511.4951">insert the area of the respective green space</text><polygon fill="#181818" points="111,540.7734,101,544.7734,111,548.7734,107,544.7734" style="stroke:#181818;stroke-width:1.0;"/><line style="stroke:#181818;stroke-width:1.0;stroke-dasharray:2.0,2.0;" x1="105" x2="397" y1="544.7734" y2="544.7734"/><text fill="#000000" font-family="sans-serif" font-size="13" font-weight="bold" lengthAdjust="spacing" textLength="14" x="117" y="540.0186">11</text><text fill="#000000" font-family="sans-serif" font-size="13" lengthAdjust="spacing" textLength="227" x="135" y="540.0186">provides all data and solicits verification</text><polygon fill="#181818" points="381,569.2969,391,573.2969,381,577.2969,385,573.2969" style="stroke:#181818;stroke-width:1.0;"/><line style="stroke:#181818;stroke-width:1.0;" x1="100" x2="387" y1="573.2969" y2="573.2969"/><text fill="#000000" font-family="sans-serif" font-size="13" font-weight="bold" lengthAdjust="spacing" textLength="14" x="107" y="568.542">12</text><text fill="#000000" font-family="sans-serif" font-size="13" lengthAdjust="spacing" textLength="101" x="125" y="568.542">validates the data</text><line style="stroke:#181818;stroke-width:1.0;" x1="403" x2="445" y1="601.8203" y2="601.8203"/><line style="stroke:#181818;stroke-width:1.0;" x1="445" x2="445" y1="601.8203" y2="614.8203"/><line style="stroke:#181818;stroke-width:1.0;" x1="404" x2="445" y1="614.8203" y2="614.8203"/><polygon fill="#181818" points="414,610.8203,404,614.8203,414,618.8203,410,614.8203" style="stroke:#181818;stroke-width:1.0;"/><text fill="#000000" font-family="sans-serif" font-size="13" font-weight="bold" lengthAdjust="spacing" textLength="14" x="410" y="597.0654">13</text><text fill="#000000" font-family="sans-serif" font-size="13" lengthAdjust="spacing" textLength="110" x="428" y="597.0654">validate information</text><polygon fill="#181818" points="111,646.3438,101,650.3438,111,654.3438,107,650.3438" style="stroke:#181818;stroke-width:1.0;"/><line style="stroke:#181818;stroke-width:1.0;stroke-dasharray:2.0,2.0;" x1="105" x2="397" y1="650.3438" y2="650.3438"/><text fill="#000000" font-family="sans-serif" font-size="13" font-weight="bold" lengthAdjust="spacing" textLength="14" x="117" y="645.5889">14</text><text fill="#000000" font-family="sans-serif" font-size="13" lengthAdjust="spacing" textLength="158" x="135" y="645.5889">displays operation success</text><!--SRC=[bLInZjim3Dtr5KIc14Y0ecE6JWVST9FHxHPMOXmYikIASehSrvUM4v-RnCdLYmc9v7jwJvGSEBIOi84cXcZtAJO4ENLaPDnfqHwmfYgVF44Ycp7KVfeWUtJn3uSQTkY5ZCcSDRKwIQO6AlhTKR04BunrdxwigfSLRE1dzVsRCTZb6Bhc5oMDROu95g-9A42bk0Hl61GxlOVbQ_MsMW0AQ60KEBFb5aE6nNP0Afj3M5hn4JELR6D0FurWy-D2Qwj7KMAIzL-pv8IPOu2u0uIw492UGAaScvsx-nXRw49c3-WzECm8B714pngJAqNzTyRQA6oFljLMSX38UuA0ghIYJR2ar3cwXhlBNiYh5N8v1Rb2OqI-s-E6phbuO8JE9HA1fOf1bDVmmQsDZjPWEPzMy1wKRfzuBSy3rlFCfv1ZwYppQq4dxIwg0uTTJ4snyTyY2ivyhdpPlBkAZVu9VnJ_hWI1POt9KLYhN0qvxffDd-bqYj81z7PxJ3LDrbRF99mpVWhQjpCFnNjYVIA46NU_I8k3KCettTJUblfwUZfLyrpR58_iI3uDm-10ejSdG4zmfCGxjeFp_q7vOlcWmJW-3qVdwSNhBzliGHnBw_4a45iwFpZIMNiPWLlUVm40]--></g></svg>