<?xml version="1.0" encoding="us-ascii" standalone="no"?><svg xmlns="http://www.w3.org/2000/svg" xmlns:xlink="http://www.w3.org/1999/xlink" contentStyleType="text/css" height="1333.6px" preserveAspectRatio="none" style="width:1879px;height:1333px;background:#FFFFFF;" version="1.1" viewBox="0 0 1879 1333" width="1879.2px" zoomAndPan="magnify"><defs/><g><rect fill="#FFFFFF" height="1183" style="stroke:#181818;stroke-width:0.8000000000000002;" width="8" x="80" y="72.5125"/><rect fill="#FFFFFF" height="352.9625" style="stroke:#181818;stroke-width:0.8000000000000002;" width="8" x="403.2" y="88.9313"/><rect fill="#FFFFFF" height="229.175" style="stroke:#181818;stroke-width:0.8000000000000002;" width="8" x="403.2" y="464.7125"/><rect fill="#FFFFFF" height="60.4563" style="stroke:#181818;stroke-width:0.8000000000000002;" width="8" x="403.2" y="716.7063"/><rect fill="#FFFFFF" height="28.4188" style="stroke:#181818;stroke-width:0.8000000000000002;" width="8" x="403.2" y="799.9813"/><rect fill="#FFFFFF" height="22.8188" style="stroke:#181818;stroke-width:0.8000000000000002;" width="8" x="403.2" y="851.2188"/><rect fill="#FFFFFF" height="28.4188" style="stroke:#181818;stroke-width:0.8000000000000002;" width="8" x="403.2" y="1227.0938"/><rect fill="#FFFFFF" height="92.9688" style="stroke:#181818;stroke-width:0.8000000000000002;" width="8" x="704" y="119.75"/><rect fill="#FFFFFF" height="22.8188" style="stroke:#181818;stroke-width:0.8000000000000002;" width="8" x="704" y="235.5375"/><rect fill="#FFFFFF" height="22.8188" style="stroke:#181818;stroke-width:0.8000000000000002;" width="8" x="704" y="281.175"/><rect fill="#FFFFFF" height="22.8188" style="stroke:#181818;stroke-width:0.8000000000000002;" width="8" x="704" y="419.075"/><rect fill="#FFFFFF" height="68.4563" style="stroke:#181818;stroke-width:0.8000000000000002;" width="8" x="704" y="464.7125"/><rect fill="#FFFFFF" height="22.8188" style="stroke:#181818;stroke-width:0.8000000000000002;" width="8" x="704" y="648.25"/><rect fill="#FFFFFF" height="22.8188" style="stroke:#181818;stroke-width:0.8000000000000002;" width="8" x="704" y="874.0375"/><rect fill="#FFFFFF" height="22.8188" style="stroke:#181818;stroke-width:0.8000000000000002;" width="8" x="704" y="987.5188"/><rect fill="#FFFFFF" height="22.8188" style="stroke:#181818;stroke-width:0.8000000000000002;" width="8" x="704" y="1125.4188"/><rect fill="#FFFFFF" height="22.8188" style="stroke:#181818;stroke-width:0.8000000000000002;" width="8" x="704" y="1204.275"/><rect fill="#FFFFFF" height="22.8188" style="stroke:#181818;stroke-width:0.8000000000000002;" width="8" x="818.4" y="144.2625"/><rect fill="#FFFFFF" height="22.8188" style="stroke:#181818;stroke-width:0.8000000000000002;" width="8" x="904" y="189.9"/><rect fill="#FFFFFF" height="22.8188" style="stroke:#181818;stroke-width:0.8000000000000002;" width="8" x="1000.8" y="258.3563"/><rect fill="#FFFFFF" height="56.0375" style="stroke:#181818;stroke-width:0.8000000000000002;" width="8" x="1000.8" y="1148.2375"/><rect fill="#FFFFFF" height="22.8188" style="stroke:#181818;stroke-width:0.8000000000000002;" width="8" x="1248" y="487.5313"/><rect fill="#FFFFFF" height="115.0813" style="stroke:#181818;stroke-width:0.8000000000000002;" width="8" x="1354.8" y="303.9938"/><rect fill="#FFFFFF" height="90.6625" style="stroke:#181818;stroke-width:0.8000000000000002;" width="8" x="1354.8" y="896.8563"/><rect fill="#FFFFFF" height="37.025" style="stroke:#181818;stroke-width:0.8000000000000002;" width="8" x="1470.8" y="353.6313"/><rect fill="#FFFFFF" height="37.025" style="stroke:#181818;stroke-width:0.8000000000000002;" width="8" x="1567.6" y="927.675"/><rect fill="#FFFFFF" height="115.0813" style="stroke:#181818;stroke-width:0.8000000000000002;" width="8" x="1660.4" y="533.1688"/><rect fill="#FFFFFF" height="115.0813" style="stroke:#181818;stroke-width:0.8000000000000002;" width="8" x="1660.4" y="1010.3375"/><rect fill="#FFFFFF" height="37.025" style="stroke:#181818;stroke-width:0.8000000000000002;" width="8" x="1761.2" y="582.8063"/><rect fill="#FFFFFF" height="37.025" style="stroke:#181818;stroke-width:0.8000000000000002;" width="8" x="1829.2" y="1059.975"/><rect fill="none" height="81.0625" style="stroke:#000000;stroke-width:1.2000000000000002;" width="226.8" x="1304.8" y="315.9938"/><rect fill="none" height="81.0625" style="stroke:#000000;stroke-width:1.2000000000000002;" width="196" x="1611.6" y="545.1688"/><rect fill="none" height="504.7875" style="stroke:#000000;stroke-width:1.2000000000000002;" width="1866.8" x="8" y="728.7063"/><rect fill="none" height="58.8563" style="stroke:#000000;stroke-width:1.2000000000000002;" width="451.2" x="16" y="747.525"/><rect fill="none" height="81.0625" style="stroke:#000000;stroke-width:1.2000000000000002;" width="255.2" x="1611.6" y="1022.3375"/><line style="stroke:#181818;stroke-width:0.4000000000000001;stroke-dasharray:5.0,5.0;" x1="84" x2="84" y1="64.5125" y2="1269.9125"/><line style="stroke:#181818;stroke-width:0.4000000000000001;stroke-dasharray:5.0,5.0;" x1="407.2" x2="407.2" y1="64.5125" y2="1269.9125"/><line style="stroke:#181818;stroke-width:0.4000000000000001;stroke-dasharray:5.0,5.0;" x1="707.6" x2="707.6" y1="119.5875" y2="1269.9125"/><line style="stroke:#181818;stroke-width:0.4000000000000001;stroke-dasharray:5.0,5.0;" x1="822" x2="822" y1="64.5125" y2="1269.9125"/><line style="stroke:#181818;stroke-width:0.4000000000000001;stroke-dasharray:5.0,5.0;" x1="907.6" x2="907.6" y1="64.5125" y2="1269.9125"/><line style="stroke:#181818;stroke-width:0.4000000000000001;stroke-dasharray:5.0,5.0;" x1="1004.4" x2="1004.4" y1="64.5125" y2="1269.9125"/><line style="stroke:#181818;stroke-width:0.4000000000000001;stroke-dasharray:5.0,5.0;" x1="1252" x2="1252" y1="64.5125" y2="1269.9125"/><line style="stroke:#181818;stroke-width:0.4000000000000001;stroke-dasharray:5.0,5.0;" x1="1358.4" x2="1358.4" y1="64.5125" y2="1269.9125"/><line style="stroke:#181818;stroke-width:0.4000000000000001;stroke-dasharray:5.0,5.0;" x1="1474.8" x2="1474.8" y1="359.725" y2="1269.9125"/><line style="stroke:#181818;stroke-width:0.4000000000000001;stroke-dasharray:5.0,5.0;" x1="1571.6" x2="1571.6" y1="933.7688" y2="1269.9125"/><line style="stroke:#181818;stroke-width:0.4000000000000001;stroke-dasharray:5.0,5.0;" x1="1664.4" x2="1664.4" y1="64.5125" y2="1269.9125"/><line style="stroke:#181818;stroke-width:0.4000000000000001;stroke-dasharray:5.0,5.0;" x1="1765.2" x2="1765.2" y1="588.9" y2="1269.9125"/><line style="stroke:#181818;stroke-width:0.4000000000000001;stroke-dasharray:5.0,5.0;" x1="1833.2" x2="1833.2" y1="1066.0688" y2="1269.9125"/><text fill="#000000" font-family="sans-serif" font-size="11.2" lengthAdjust="spacing" textLength="115.2" x="24" y="62.1391">Green Space Manager</text><ellipse cx="84" cy="10.8" fill="#E3E3E3" rx="6.4" ry="6.4" style="stroke:#181818;stroke-width:0.4000000000000001;"/><path d="M84,17.2 L84,38.8 M73.6,23.6 L94.4,23.6 M84,38.8 L73.6,50.8 M84,38.8 L94.4,50.8 " fill="none" style="stroke:#181818;stroke-width:0.4000000000000001;"/><text fill="#000000" font-family="sans-serif" font-size="11.2" lengthAdjust="spacing" textLength="115.2" x="24" y="1279.2516">Green Space Manager</text><ellipse cx="84" cy="1288.425" fill="#E3E3E3" rx="6.4" ry="6.4" style="stroke:#181818;stroke-width:0.4000000000000001;"/><path d="M84,1294.825 L84,1316.425 M73.6,1301.225 L94.4,1301.225 M84,1316.425 L73.6,1328.425 M84,1316.425 L94.4,1328.425 " fill="none" style="stroke:#181818;stroke-width:0.4000000000000001;"/><rect fill="#E3E3E3" height="23.7125" rx="2" ry="2" style="stroke:#181818;stroke-width:0.4000000000000001;" width="104" x="355.2" y="40"/><text fill="#000000" font-family="sans-serif" font-size="11.2" lengthAdjust="spacing" textLength="92.8" x="360.8" y="55.7391">:CreateVehicleGUI</text><rect fill="#E3E3E3" height="23.7125" rx="2" ry="2" style="stroke:#181818;stroke-width:0.4000000000000001;" width="104" x="355.2" y="1269.1125"/><text fill="#000000" font-family="sans-serif" font-size="11.2" lengthAdjust="spacing" textLength="92.8" x="360.8" y="1284.8516">:CreateVehicleGUI</text><rect fill="#E3E3E3" height="23.7125" rx="2" ry="2" style="stroke:#181818;stroke-width:0.4000000000000001;" width="135.2" x="640.4" y="1269.1125"/><text fill="#000000" font-family="sans-serif" font-size="11.2" lengthAdjust="spacing" textLength="124" x="646" y="1284.8516">:CreateVehicleController</text><rect fill="#E3E3E3" height="23.7125" rx="2" ry="2" style="stroke:#181818;stroke-width:0.4000000000000001;" width="77.6" x="783.6" y="40"/><text fill="#000000" font-family="sans-serif" font-size="11.2" lengthAdjust="spacing" textLength="66.4" x="789.2" y="55.7391">:Repositories</text><rect fill="#E3E3E3" height="23.7125" rx="2" ry="2" style="stroke:#181818;stroke-width:0.4000000000000001;" width="77.6" x="783.6" y="1269.1125"/><text fill="#000000" font-family="sans-serif" font-size="11.2" lengthAdjust="spacing" textLength="66.4" x="789.2" y="1284.8516">:Repositories</text><rect fill="#E3E3E3" height="36.225" rx="2" ry="2" style="stroke:#181818;stroke-width:0.4000000000000001;" width="77.6" x="869.2" y="27.4875"/><text fill="#000000" font-family="sans-serif" font-size="11.2" lengthAdjust="spacing" textLength="59.2" x="878.4" y="43.2266">repositories</text><text fill="#000000" font-family="sans-serif" font-size="11.2" lengthAdjust="spacing" textLength="66.4" x="874.8" y="55.7391">:Repositories</text><rect fill="#E3E3E3" height="36.225" rx="2" ry="2" style="stroke:#181818;stroke-width:0.4000000000000001;" width="77.6" x="869.2" y="1269.1125"/><text fill="#000000" font-family="sans-serif" font-size="11.2" lengthAdjust="spacing" textLength="59.2" x="878.4" y="1284.8516">repositories</text><text fill="#000000" font-family="sans-serif" font-size="11.2" lengthAdjust="spacing" textLength="66.4" x="874.8" y="1297.3641">:Repositories</text><rect fill="#E3E3E3" height="36.225" rx="2" ry="2" style="stroke:#181818;stroke-width:0.4000000000000001;" width="53.6" x="978" y="27.4875"/><text fill="#000000" font-family="sans-serif" font-size="11.2" lengthAdjust="spacing" textLength="38.4" x="985.6" y="43.2266">agenda</text><text fill="#000000" font-family="sans-serif" font-size="11.2" lengthAdjust="spacing" textLength="42.4" x="983.6" y="55.7391">:Agenda</text><rect fill="#E3E3E3" height="36.225" rx="2" ry="2" style="stroke:#181818;stroke-width:0.4000000000000001;" width="53.6" x="978" y="1269.1125"/><text fill="#000000" font-family="sans-serif" font-size="11.2" lengthAdjust="spacing" textLength="38.4" x="985.6" y="1284.8516">agenda</text><text fill="#000000" font-family="sans-serif" font-size="11.2" lengthAdjust="spacing" textLength="42.4" x="983.6" y="1297.3641">:Agenda</text><rect fill="#E3E3E3" height="36.225" rx="2" ry="2" style="stroke:#181818;stroke-width:0.4000000000000001;" width="105.6" x="1199.2" y="27.4875"/><text fill="#000000" font-family="sans-serif" font-size="11.2" lengthAdjust="spacing" textLength="89.6" x="1207.2" y="43.2266">vehicleRepository</text><text fill="#000000" font-family="sans-serif" font-size="11.2" lengthAdjust="spacing" textLength="94.4" x="1204.8" y="55.7391">:VehicleRepository</text><rect fill="#E3E3E3" height="36.225" rx="2" ry="2" style="stroke:#181818;stroke-width:0.4000000000000001;" width="105.6" x="1199.2" y="1269.1125"/><text fill="#000000" font-family="sans-serif" font-size="11.2" lengthAdjust="spacing" textLength="89.6" x="1207.2" y="1284.8516">vehicleRepository</text><text fill="#000000" font-family="sans-serif" font-size="11.2" lengthAdjust="spacing" textLength="94.4" x="1204.8" y="1297.3641">:VehicleRepository</text><rect fill="#E3E3E3" height="23.7125" rx="2" ry="2" style="stroke:#181818;stroke-width:0.4000000000000001;" width="92" x="1312.8" y="40"/><text fill="#000000" font-family="sans-serif" font-size="11.2" lengthAdjust="spacing" textLength="80.8" x="1318.4" y="55.7391">:AgendaMapper</text><rect fill="#E3E3E3" height="23.7125" rx="2" ry="2" style="stroke:#181818;stroke-width:0.4000000000000001;" width="92" x="1312.8" y="1269.1125"/><text fill="#000000" font-family="sans-serif" font-size="11.2" lengthAdjust="spacing" textLength="80.8" x="1318.4" y="1284.8516">:AgendaMapper</text><rect fill="#E3E3E3" height="36.225" rx="2" ry="2" style="stroke:#181818;stroke-width:0.4000000000000001;" width="97.6" x="1426" y="1269.1125"/><text fill="#000000" font-family="sans-serif" font-size="11.2" lengthAdjust="spacing" textLength="82.4" x="1433.6" y="1284.8516">agendaEntryDto</text><text fill="#000000" font-family="sans-serif" font-size="11.2" lengthAdjust="spacing" textLength="86.4" x="1431.6" y="1297.3641">:AgendaEntryDto</text><rect fill="#E3E3E3" height="36.225" rx="2" ry="2" style="stroke:#181818;stroke-width:0.4000000000000001;" width="80" x="1531.6" y="1269.1125"/><text fill="#000000" font-family="sans-serif" font-size="11.2" lengthAdjust="spacing" textLength="64.8" x="1539.2" y="1284.8516">agendaEntry</text><text fill="#000000" font-family="sans-serif" font-size="11.2" lengthAdjust="spacing" textLength="68.8" x="1537.2" y="1297.3641">:AgendaEntry</text><rect fill="#E3E3E3" height="23.7125" rx="2" ry="2" style="stroke:#181818;stroke-width:0.4000000000000001;" width="89.6" x="1619.6" y="40"/><text fill="#000000" font-family="sans-serif" font-size="11.2" lengthAdjust="spacing" textLength="78.4" x="1625.2" y="55.7391">:VehicleMapper</text><rect fill="#E3E3E3" height="23.7125" rx="2" ry="2" style="stroke:#181818;stroke-width:0.4000000000000001;" width="89.6" x="1619.6" y="1269.1125"/><text fill="#000000" font-family="sans-serif" font-size="11.2" lengthAdjust="spacing" textLength="78.4" x="1625.2" y="1284.8516">:VehicleMapper</text><rect fill="#E3E3E3" height="36.225" rx="2" ry="2" style="stroke:#181818;stroke-width:0.4000000000000001;" width="68.8" x="1730.8" y="1269.1125"/><text fill="#000000" font-family="sans-serif" font-size="11.2" lengthAdjust="spacing" textLength="52.8" x="1738.8" y="1284.8516">vehicleDto</text><text fill="#000000" font-family="sans-serif" font-size="11.2" lengthAdjust="spacing" textLength="57.6" x="1736.4" y="1297.3641">:VehicleDto</text><rect fill="#E3E3E3" height="36.225" rx="2" ry="2" style="stroke:#181818;stroke-width:0.4000000000000001;" width="51.2" x="1807.6" y="1269.1125"/><text fill="#000000" font-family="sans-serif" font-size="11.2" lengthAdjust="spacing" textLength="35.2" x="1815.6" y="1284.8516">vehicle</text><text fill="#000000" font-family="sans-serif" font-size="11.2" lengthAdjust="spacing" textLength="40" x="1813.2" y="1297.3641">:Vehicle</text><rect fill="#FFFFFF" height="1183" style="stroke:#181818;stroke-width:0.8000000000000002;" width="8" x="80" y="72.5125"/><rect fill="#FFFFFF" height="352.9625" style="stroke:#181818;stroke-width:0.8000000000000002;" width="8" x="403.2" y="88.9313"/><rect fill="#FFFFFF" height="229.175" style="stroke:#181818;stroke-width:0.8000000000000002;" width="8" x="403.2" y="464.7125"/><rect fill="#FFFFFF" height="60.4563" style="stroke:#181818;stroke-width:0.8000000000000002;" width="8" x="403.2" y="716.7063"/><rect fill="#FFFFFF" height="28.4188" style="stroke:#181818;stroke-width:0.8000000000000002;" width="8" x="403.2" y="799.9813"/><rect fill="#FFFFFF" height="22.8188" style="stroke:#181818;stroke-width:0.8000000000000002;" width="8" x="403.2" y="851.2188"/><rect fill="#FFFFFF" height="28.4188" style="stroke:#181818;stroke-width:0.8000000000000002;" width="8" x="403.2" y="1227.0938"/><rect fill="#FFFFFF" height="92.9688" style="stroke:#181818;stroke-width:0.8000000000000002;" width="8" x="704" y="119.75"/><rect fill="#FFFFFF" height="22.8188" style="stroke:#181818;stroke-width:0.8000000000000002;" width="8" x="704" y="235.5375"/><rect fill="#FFFFFF" height="22.8188" style="stroke:#181818;stroke-width:0.8000000000000002;" width="8" x="704" y="281.175"/><rect fill="#FFFFFF" height="22.8188" style="stroke:#181818;stroke-width:0.8000000000000002;" width="8" x="704" y="419.075"/><rect fill="#FFFFFF" height="68.4563" style="stroke:#181818;stroke-width:0.8000000000000002;" width="8" x="704" y="464.7125"/><rect fill="#FFFFFF" height="22.8188" style="stroke:#181818;stroke-width:0.8000000000000002;" width="8" x="704" y="648.25"/><rect fill="#FFFFFF" height="22.8188" style="stroke:#181818;stroke-width:0.8000000000000002;" width="8" x="704" y="874.0375"/><rect fill="#FFFFFF" height="22.8188" style="stroke:#181818;stroke-width:0.8000000000000002;" width="8" x="704" y="987.5188"/><rect fill="#FFFFFF" height="22.8188" style="stroke:#181818;stroke-width:0.8000000000000002;" width="8" x="704" y="1125.4188"/><rect fill="#FFFFFF" height="22.8188" style="stroke:#181818;stroke-width:0.8000000000000002;" width="8" x="704" y="1204.275"/><rect fill="#FFFFFF" height="22.8188" style="stroke:#181818;stroke-width:0.8000000000000002;" width="8" x="818.4" y="144.2625"/><rect fill="#FFFFFF" height="22.8188" style="stroke:#181818;stroke-width:0.8000000000000002;" width="8" x="904" y="189.9"/><rect fill="#FFFFFF" height="22.8188" style="stroke:#181818;stroke-width:0.8000000000000002;" width="8" x="1000.8" y="258.3563"/><rect fill="#FFFFFF" height="56.0375" style="stroke:#181818;stroke-width:0.8000000000000002;" width="8" x="1000.8" y="1148.2375"/><rect fill="#FFFFFF" height="22.8188" style="stroke:#181818;stroke-width:0.8000000000000002;" width="8" x="1248" y="487.5313"/><rect fill="#FFFFFF" height="115.0813" style="stroke:#181818;stroke-width:0.8000000000000002;" width="8" x="1354.8" y="303.9938"/><rect fill="#FFFFFF" height="90.6625" style="stroke:#181818;stroke-width:0.8000000000000002;" width="8" x="1354.8" y="896.8563"/><rect fill="#FFFFFF" height="37.025" style="stroke:#181818;stroke-width:0.8000000000000002;" width="8" x="1470.8" y="353.6313"/><rect fill="#FFFFFF" height="37.025" style="stroke:#181818;stroke-width:0.8000000000000002;" width="8" x="1567.6" y="927.675"/><rect fill="#FFFFFF" height="115.0813" style="stroke:#181818;stroke-width:0.8000000000000002;" width="8" x="1660.4" y="533.1688"/><rect fill="#FFFFFF" height="115.0813" style="stroke:#181818;stroke-width:0.8000000000000002;" width="8" x="1660.4" y="1010.3375"/><rect fill="#FFFFFF" height="37.025" style="stroke:#181818;stroke-width:0.8000000000000002;" width="8" x="1761.2" y="582.8063"/><rect fill="#FFFFFF" height="37.025" style="stroke:#181818;stroke-width:0.8000000000000002;" width="8" x="1829.2" y="1059.975"/><polygon fill="#181818" points="393.6,85.7313,401.6,88.9313,393.6,92.1313,396.8,88.9313" style="stroke:#181818;stroke-width:0.8000000000000002;"/><line style="stroke:#181818;stroke-width:0.8000000000000002;" x1="88" x2="398.4" y1="88.9313" y2="88.9313"/><text fill="#000000" font-family="sans-serif" font-size="10.4" font-weight="bold" lengthAdjust="spacing" textLength="5.6" x="93.6" y="85.1273">1</text><text fill="#000000" font-family="sans-serif" font-size="10.4" lengthAdjust="spacing" textLength="228" x="102.4" y="85.1273">asks to assign vehicles to an entry in the Agenda</text><polygon fill="#181818" points="630.8,108.55,638.8,111.75,630.8,114.95,634,111.75" style="stroke:#181818;stroke-width:0.8000000000000002;"/><line style="stroke:#181818;stroke-width:0.8000000000000002;" x1="411.2" x2="635.6" y1="111.75" y2="111.75"/><text fill="#000000" font-family="sans-serif" font-size="10.4" font-weight="bold" lengthAdjust="spacing" textLength="5.6" x="416.8" y="107.9461">2</text><text fill="#000000" font-family="sans-serif" font-size="10.4" lengthAdjust="spacing" textLength="28.8" x="425.6" y="107.9461">create</text><rect fill="#E3E3E3" height="23.7125" rx="2" ry="2" style="stroke:#181818;stroke-width:0.4000000000000001;" width="135.2" x="640.4" y="95.3313"/><text fill="#000000" font-family="sans-serif" font-size="11.2" lengthAdjust="spacing" textLength="124" x="646" y="111.0703">:CreateVehicleController</text><polygon fill="#181818" points="808.8,141.0625,816.8,144.2625,808.8,147.4625,812,144.2625" style="stroke:#181818;stroke-width:0.8000000000000002;"/><line style="stroke:#181818;stroke-width:0.8000000000000002;" x1="712" x2="813.6" y1="144.2625" y2="144.2625"/><text fill="#000000" font-family="sans-serif" font-size="10.4" font-weight="bold" lengthAdjust="spacing" textLength="5.6" x="717.6" y="140.4586">3</text><text fill="#000000" font-family="sans-serif" font-size="10.4" lengthAdjust="spacing" textLength="60" x="726.4" y="140.4586">getInstance()</text><polygon fill="#181818" points="720.8,163.8813,712.8,167.0813,720.8,170.2813,717.6,167.0813" style="stroke:#181818;stroke-width:0.8000000000000002;"/><line style="stroke:#181818;stroke-width:0.8000000000000002;stroke-dasharray:2.0,2.0;" x1="716" x2="821.6" y1="167.0813" y2="167.0813"/><text fill="#000000" font-family="sans-serif" font-size="10.4" font-weight="bold" lengthAdjust="spacing" textLength="5.6" x="725.6" y="163.2773">4</text><text fill="#000000" font-family="sans-serif" font-size="10.4" lengthAdjust="spacing" textLength="53.6" x="734.4" y="163.2773">repositories</text><polygon fill="#181818" points="894.4,186.7,902.4,189.9,894.4,193.1,897.6,189.9" style="stroke:#181818;stroke-width:0.8000000000000002;"/><line style="stroke:#181818;stroke-width:0.8000000000000002;" x1="712" x2="899.2" y1="189.9" y2="189.9"/><text fill="#000000" font-family="sans-serif" font-size="10.4" font-weight="bold" lengthAdjust="spacing" textLength="5.6" x="717.6" y="186.0961">5</text><text fill="#000000" font-family="sans-serif" font-size="10.4" lengthAdjust="spacing" textLength="95.2" x="726.4" y="186.0961">getEntryRepository()</text><polygon fill="#181818" points="716.8,209.5188,708.8,212.7188,716.8,215.9188,713.6,212.7188" style="stroke:#181818;stroke-width:0.8000000000000002;"/><line style="stroke:#181818;stroke-width:0.8000000000000002;stroke-dasharray:2.0,2.0;" x1="712" x2="907.2" y1="212.7188" y2="212.7188"/><text fill="#000000" font-family="sans-serif" font-size="10.4" font-weight="bold" lengthAdjust="spacing" textLength="5.6" x="721.6" y="208.9148">6</text><text fill="#000000" font-family="sans-serif" font-size="10.4" lengthAdjust="spacing" textLength="72.8" x="730.4" y="208.9148">entryRepository</text><polygon fill="#181818" points="694.4,232.3375,702.4,235.5375,694.4,238.7375,697.6,235.5375" style="stroke:#181818;stroke-width:0.8000000000000002;"/><line style="stroke:#181818;stroke-width:0.8000000000000002;" x1="411.2" x2="699.2" y1="235.5375" y2="235.5375"/><text fill="#000000" font-family="sans-serif" font-size="10.4" font-weight="bold" lengthAdjust="spacing" textLength="5.6" x="416.8" y="231.7336">7</text><text fill="#000000" font-family="sans-serif" font-size="10.4" lengthAdjust="spacing" textLength="121.6" x="425.6" y="231.7336">getAgendaEntryList(GSM)</text><polygon fill="#181818" points="991.2,255.1563,999.2,258.3563,991.2,261.5563,994.4,258.3563" style="stroke:#181818;stroke-width:0.8000000000000002;"/><line style="stroke:#181818;stroke-width:0.8000000000000002;" x1="708" x2="996" y1="258.3563" y2="258.3563"/><text fill="#000000" font-family="sans-serif" font-size="10.4" font-weight="bold" lengthAdjust="spacing" textLength="5.6" x="713.6" y="254.5523">8</text><text fill="#000000" font-family="sans-serif" font-size="10.4" lengthAdjust="spacing" textLength="158.4" x="722.4" y="254.5523">getAgendaEntryListByGSM(GSM)</text><polygon fill="#181818" points="720.8,277.975,712.8,281.175,720.8,284.375,717.6,281.175" style="stroke:#181818;stroke-width:0.8000000000000002;"/><line style="stroke:#181818;stroke-width:0.8000000000000002;stroke-dasharray:2.0,2.0;" x1="716" x2="1004" y1="281.175" y2="281.175"/><text fill="#000000" font-family="sans-serif" font-size="10.4" font-weight="bold" lengthAdjust="spacing" textLength="5.6" x="725.6" y="277.3711">9</text><text fill="#000000" font-family="sans-serif" font-size="10.4" lengthAdjust="spacing" textLength="75.2" x="734.4" y="277.3711">agendaEntryList</text><polygon fill="#181818" points="1345.2,300.7938,1353.2,303.9938,1345.2,307.1938,1348.4,303.9938" style="stroke:#181818;stroke-width:0.8000000000000002;"/><line style="stroke:#181818;stroke-width:0.8000000000000002;" x1="708" x2="1350" y1="303.9938" y2="303.9938"/><text fill="#000000" font-family="sans-serif" font-size="10.4" font-weight="bold" lengthAdjust="spacing" textLength="11.2" x="713.6" y="300.1898">10</text><text fill="#000000" font-family="sans-serif" font-size="10.4" lengthAdjust="spacing" textLength="123.2" x="728" y="300.1898">toDtoList(agendaEntryList)</text><path d="M1304.8,315.9938 L1363.2,315.9938 L1363.2,321.2125 L1355.2,329.2125 L1304.8,329.2125 L1304.8,315.9938 " fill="#EEEEEE" style="stroke:#000000;stroke-width:1.2000000000000002;"/><rect fill="none" height="81.0625" style="stroke:#000000;stroke-width:1.2000000000000002;" width="226.8" x="1304.8" y="315.9938"/><text fill="#000000" font-family="sans-serif" font-size="10.4" font-weight="bold" lengthAdjust="spacing" textLength="22.4" x="1316.8" y="326.2086">loop</text><polygon fill="#181818" points="1416.4,342.4313,1424.4,345.6313,1416.4,348.8313,1419.6,345.6313" style="stroke:#181818;stroke-width:0.8000000000000002;"/><line style="stroke:#181818;stroke-width:0.8000000000000002;" x1="1362.8" x2="1421.2" y1="345.6313" y2="345.6313"/><text fill="#000000" font-family="sans-serif" font-size="10.4" font-weight="bold" lengthAdjust="spacing" textLength="11.2" x="1368.4" y="341.8273">11</text><text fill="#000000" font-family="sans-serif" font-size="10.4" lengthAdjust="spacing" textLength="28.8" x="1382.8" y="341.8273">create</text><rect fill="#E3E3E3" height="36.225" rx="2" ry="2" style="stroke:#181818;stroke-width:0.4000000000000001;" width="97.6" x="1426" y="329.2125"/><text fill="#000000" font-family="sans-serif" font-size="11.2" lengthAdjust="spacing" textLength="82.4" x="1433.6" y="344.9516">agendaEntryDto</text><text fill="#000000" font-family="sans-serif" font-size="11.2" lengthAdjust="spacing" textLength="86.4" x="1431.6" y="357.4641">:AgendaEntryDto</text><polygon fill="#181818" points="1371.6,387.4563,1363.6,390.6563,1371.6,393.8563,1368.4,390.6563" style="stroke:#181818;stroke-width:0.8000000000000002;"/><line style="stroke:#181818;stroke-width:0.8000000000000002;stroke-dasharray:2.0,2.0;" x1="1366.8" x2="1474" y1="390.6563" y2="390.6563"/><text fill="#000000" font-family="sans-serif" font-size="10.4" font-weight="bold" lengthAdjust="spacing" textLength="11.2" x="1376.4" y="386.8523">12</text><text fill="#000000" font-family="sans-serif" font-size="10.4" lengthAdjust="spacing" textLength="74.4" x="1390.8" y="386.8523">agendaEntryDto</text><polygon fill="#181818" points="720.8,415.875,712.8,419.075,720.8,422.275,717.6,419.075" style="stroke:#181818;stroke-width:0.8000000000000002;"/><line style="stroke:#181818;stroke-width:0.8000000000000002;stroke-dasharray:2.0,2.0;" x1="716" x2="1358" y1="419.075" y2="419.075"/><text fill="#000000" font-family="sans-serif" font-size="10.4" font-weight="bold" lengthAdjust="spacing" textLength="11.2" x="725.6" y="415.2711">13</text><text fill="#000000" font-family="sans-serif" font-size="10.4" lengthAdjust="spacing" textLength="74.4" x="740" y="415.2711">agendaEntryDto</text><polygon fill="#181818" points="416,438.6938,408,441.8938,416,445.0938,412.8,441.8938" style="stroke:#181818;stroke-width:0.8000000000000002;"/><line style="stroke:#181818;stroke-width:0.8000000000000002;stroke-dasharray:2.0,2.0;" x1="411.2" x2="707.2" y1="441.8938" y2="441.8938"/><text fill="#000000" font-family="sans-serif" font-size="10.4" font-weight="bold" lengthAdjust="spacing" textLength="11.2" x="420.8" y="438.0898">14</text><text fill="#000000" font-family="sans-serif" font-size="10.4" lengthAdjust="spacing" textLength="91.2" x="435.2" y="438.0898">agendaEntryDtoList</text><polygon fill="#181818" points="694.4,461.5125,702.4,464.7125,694.4,467.9125,697.6,464.7125" style="stroke:#181818;stroke-width:0.8000000000000002;"/><line style="stroke:#181818;stroke-width:0.8000000000000002;" x1="411.2" x2="699.2" y1="464.7125" y2="464.7125"/><text fill="#000000" font-family="sans-serif" font-size="10.4" font-weight="bold" lengthAdjust="spacing" textLength="11.2" x="416.8" y="460.9086">15</text><text fill="#000000" font-family="sans-serif" font-size="10.4" lengthAdjust="spacing" textLength="77.6" x="431.2" y="460.9086">getVehiclesList()</text><polygon fill="#181818" points="1238.4,484.3313,1246.4,487.5313,1238.4,490.7313,1241.6,487.5313" style="stroke:#181818;stroke-width:0.8000000000000002;"/><line style="stroke:#181818;stroke-width:0.8000000000000002;" x1="712" x2="1243.2" y1="487.5313" y2="487.5313"/><text fill="#000000" font-family="sans-serif" font-size="10.4" font-weight="bold" lengthAdjust="spacing" textLength="11.2" x="717.6" y="483.7273">16</text><text fill="#000000" font-family="sans-serif" font-size="10.4" lengthAdjust="spacing" textLength="77.6" x="732" y="483.7273">getVehiclesList()</text><polygon fill="#181818" points="720.8,507.15,712.8,510.35,720.8,513.55,717.6,510.35" style="stroke:#181818;stroke-width:0.8000000000000002;"/><line style="stroke:#181818;stroke-width:0.8000000000000002;" x1="716" x2="1251.2" y1="510.35" y2="510.35"/><text fill="#000000" font-family="sans-serif" font-size="10.4" font-weight="bold" lengthAdjust="spacing" textLength="11.2" x="725.6" y="506.5461">17</text><text fill="#000000" font-family="sans-serif" font-size="10.4" lengthAdjust="spacing" textLength="53.6" x="740" y="506.5461">vehiclesList</text><polygon fill="#181818" points="1650.8,529.9688,1658.8,533.1688,1650.8,536.3688,1654,533.1688" style="stroke:#181818;stroke-width:0.8000000000000002;"/><line style="stroke:#181818;stroke-width:0.8000000000000002;" x1="708" x2="1655.6" y1="533.1688" y2="533.1688"/><text fill="#000000" font-family="sans-serif" font-size="10.4" font-weight="bold" lengthAdjust="spacing" textLength="11.2" x="713.6" y="529.3648">18</text><text fill="#000000" font-family="sans-serif" font-size="10.4" lengthAdjust="spacing" textLength="41.6" x="728" y="529.3648">toDtoList</text><path d="M1611.6,545.1688 L1670,545.1688 L1670,550.3875 L1662,558.3875 L1611.6,558.3875 L1611.6,545.1688 " fill="#EEEEEE" style="stroke:#000000;stroke-width:1.2000000000000002;"/><rect fill="none" height="81.0625" style="stroke:#000000;stroke-width:1.2000000000000002;" width="196" x="1611.6" y="545.1688"/><text fill="#000000" font-family="sans-serif" font-size="10.4" font-weight="bold" lengthAdjust="spacing" textLength="22.4" x="1623.6" y="555.3836">loop</text><polygon fill="#181818" points="1721.2,571.6063,1729.2,574.8063,1721.2,578.0063,1724.4,574.8063" style="stroke:#181818;stroke-width:0.8000000000000002;"/><line style="stroke:#181818;stroke-width:0.8000000000000002;" x1="1668.4" x2="1726" y1="574.8063" y2="574.8063"/><text fill="#000000" font-family="sans-serif" font-size="10.4" font-weight="bold" lengthAdjust="spacing" textLength="11.2" x="1674" y="571.0023">19</text><text fill="#000000" font-family="sans-serif" font-size="10.4" lengthAdjust="spacing" textLength="28.8" x="1688.4" y="571.0023">create</text><rect fill="#E3E3E3" height="36.225" rx="2" ry="2" style="stroke:#181818;stroke-width:0.4000000000000001;" width="68.8" x="1730.8" y="558.3875"/><text fill="#000000" font-family="sans-serif" font-size="11.2" lengthAdjust="spacing" textLength="52.8" x="1738.8" y="574.1266">vehicleDto</text><text fill="#000000" font-family="sans-serif" font-size="11.2" lengthAdjust="spacing" textLength="57.6" x="1736.4" y="586.6391">:VehicleDto</text><polygon fill="#181818" points="1677.2,616.6313,1669.2,619.8313,1677.2,623.0313,1674,619.8313" style="stroke:#181818;stroke-width:0.8000000000000002;"/><line style="stroke:#181818;stroke-width:0.8000000000000002;stroke-dasharray:2.0,2.0;" x1="1672.4" x2="1764.4" y1="619.8313" y2="619.8313"/><text fill="#000000" font-family="sans-serif" font-size="10.4" font-weight="bold" lengthAdjust="spacing" textLength="11.2" x="1682" y="616.0273">20</text><text fill="#000000" font-family="sans-serif" font-size="10.4" lengthAdjust="spacing" textLength="47.2" x="1696.4" y="616.0273">vehicleDto</text><polygon fill="#181818" points="720.8,645.05,712.8,648.25,720.8,651.45,717.6,648.25" style="stroke:#181818;stroke-width:0.8000000000000002;"/><line style="stroke:#181818;stroke-width:0.8000000000000002;stroke-dasharray:2.0,2.0;" x1="716" x2="1663.6" y1="648.25" y2="648.25"/><text fill="#000000" font-family="sans-serif" font-size="10.4" font-weight="bold" lengthAdjust="spacing" textLength="11.2" x="725.6" y="644.4461">21</text><text fill="#000000" font-family="sans-serif" font-size="10.4" lengthAdjust="spacing" textLength="69.6" x="740" y="644.4461">vehiclesDtoList</text><polygon fill="#181818" points="420,667.8688,412,671.0688,420,674.2688,416.8,671.0688" style="stroke:#181818;stroke-width:0.8000000000000002;"/><line style="stroke:#181818;stroke-width:0.8000000000000002;" x1="415.2" x2="707.2" y1="671.0688" y2="671.0688"/><text fill="#000000" font-family="sans-serif" font-size="10.4" font-weight="bold" lengthAdjust="spacing" textLength="11.2" x="424.8" y="667.2648">22</text><text fill="#000000" font-family="sans-serif" font-size="10.4" lengthAdjust="spacing" textLength="69.6" x="439.2" y="667.2648">vehiclesDtoList</text><polygon fill="#181818" points="96.8,690.6875,88.8,693.8875,96.8,697.0875,93.6,693.8875" style="stroke:#181818;stroke-width:0.8000000000000002;"/><line style="stroke:#181818;stroke-width:0.8000000000000002;stroke-dasharray:2.0,2.0;" x1="92" x2="406.4" y1="693.8875" y2="693.8875"/><text fill="#000000" font-family="sans-serif" font-size="10.4" font-weight="bold" lengthAdjust="spacing" textLength="11.2" x="101.6" y="690.0836">23</text><text fill="#000000" font-family="sans-serif" font-size="10.4" lengthAdjust="spacing" textLength="256" x="116" y="690.0836">shows the entries in the agenda and asks to select one</text><polygon fill="#181818" points="393.6,713.5063,401.6,716.7063,393.6,719.9063,396.8,716.7063" style="stroke:#181818;stroke-width:0.8000000000000002;"/><line style="stroke:#181818;stroke-width:0.8000000000000002;" x1="88" x2="398.4" y1="716.7063" y2="716.7063"/><text fill="#000000" font-family="sans-serif" font-size="10.4" font-weight="bold" lengthAdjust="spacing" textLength="11.2" x="93.6" y="712.9023">24</text><text fill="#000000" font-family="sans-serif" font-size="10.4" lengthAdjust="spacing" textLength="72" x="108" y="712.9023">select the entry</text><path d="M8,728.7063 L66.4,728.7063 L66.4,733.925 L58.4,741.925 L8,741.925 L8,728.7063 " fill="#EEEEEE" style="stroke:#000000;stroke-width:1.2000000000000002;"/><rect fill="none" height="504.7875" style="stroke:#000000;stroke-width:1.2000000000000002;" width="1866.8" x="8" y="728.7063"/><text fill="#000000" font-family="sans-serif" font-size="10.4" font-weight="bold" lengthAdjust="spacing" textLength="22.4" x="20" y="738.9211">loop</text><text fill="#000000" font-family="sans-serif" font-size="8.8" font-weight="bold" lengthAdjust="spacing" textLength="137.6" x="78.4" y="738.2727">[until all information is verified]</text><path d="M16,747.525 L74.4,747.525 L74.4,752.7438 L66.4,760.7438 L16,760.7438 L16,747.525 " fill="#EEEEEE" style="stroke:#000000;stroke-width:1.2000000000000002;"/><rect fill="none" height="58.8563" style="stroke:#000000;stroke-width:1.2000000000000002;" width="451.2" x="16" y="747.525"/><text fill="#000000" font-family="sans-serif" font-size="10.4" font-weight="bold" lengthAdjust="spacing" textLength="22.4" x="28" y="757.7398">loop</text><text fill="#000000" font-family="sans-serif" font-size="8.8" font-weight="bold" lengthAdjust="spacing" textLength="134.4" x="86.4" y="757.0914">[until all vehicles are selected]</text><polygon fill="#181818" points="96.8,773.9625,88.8,777.1625,96.8,780.3625,93.6,777.1625" style="stroke:#181818;stroke-width:0.8000000000000002;"/><line style="stroke:#181818;stroke-width:0.8000000000000002;stroke-dasharray:2.0,2.0;" x1="92" x2="406.4" y1="777.1625" y2="777.1625"/><text fill="#000000" font-family="sans-serif" font-size="10.4" font-weight="bold" lengthAdjust="spacing" textLength="11.2" x="101.6" y="773.3586">25</text><text fill="#000000" font-family="sans-serif" font-size="10.4" lengthAdjust="spacing" textLength="216.8" x="116" y="773.3586">shows vehicles and asks to select one or more</text><polygon fill="#181818" points="393.6,796.7813,401.6,799.9813,393.6,803.1813,396.8,799.9813" style="stroke:#181818;stroke-width:0.8000000000000002;"/><line style="stroke:#181818;stroke-width:0.8000000000000002;" x1="88" x2="398.4" y1="799.9813" y2="799.9813"/><text fill="#000000" font-family="sans-serif" font-size="10.4" font-weight="bold" lengthAdjust="spacing" textLength="11.2" x="93.6" y="796.1773">26</text><text fill="#000000" font-family="sans-serif" font-size="10.4" lengthAdjust="spacing" textLength="73.6" x="108" y="796.1773">selects vehicles</text><polygon fill="#181818" points="96.8,825.2,88.8,828.4,96.8,831.6,93.6,828.4" style="stroke:#181818;stroke-width:0.8000000000000002;"/><line style="stroke:#181818;stroke-width:0.8000000000000002;stroke-dasharray:2.0,2.0;" x1="92" x2="406.4" y1="828.4" y2="828.4"/><text fill="#000000" font-family="sans-serif" font-size="10.4" font-weight="bold" lengthAdjust="spacing" textLength="11.2" x="101.6" y="824.5961">27</text><text fill="#000000" font-family="sans-serif" font-size="10.4" lengthAdjust="spacing" textLength="188.8" x="116" y="824.5961">shows all data and requests confirmation</text><polygon fill="#181818" points="393.6,848.0188,401.6,851.2188,393.6,854.4188,396.8,851.2188" style="stroke:#181818;stroke-width:0.8000000000000002;"/><line style="stroke:#181818;stroke-width:0.8000000000000002;" x1="88" x2="398.4" y1="851.2188" y2="851.2188"/><text fill="#000000" font-family="sans-serif" font-size="10.4" font-weight="bold" lengthAdjust="spacing" textLength="11.2" x="93.6" y="847.4148">28</text><text fill="#000000" font-family="sans-serif" font-size="10.4" lengthAdjust="spacing" textLength="39.2" x="108" y="847.4148">confirms</text><polygon fill="#181818" points="694.4,870.8375,702.4,874.0375,694.4,877.2375,697.6,874.0375" style="stroke:#181818;stroke-width:0.8000000000000002;"/><line style="stroke:#181818;stroke-width:0.8000000000000002;" x1="407.2" x2="699.2" y1="874.0375" y2="874.0375"/><text fill="#000000" font-family="sans-serif" font-size="10.4" font-weight="bold" lengthAdjust="spacing" textLength="11.2" x="412.8" y="870.2336">29</text><text fill="#000000" font-family="sans-serif" font-size="10.4" lengthAdjust="spacing" textLength="263.2" x="427.2" y="870.2336">assignVehiclesToEntry(agendaEntryDto, vehiclesDtoList)</text><polygon fill="#181818" points="1345.2,893.6563,1353.2,896.8563,1345.2,900.0563,1348.4,896.8563" style="stroke:#181818;stroke-width:0.8000000000000002;"/><line style="stroke:#181818;stroke-width:0.8000000000000002;" x1="708" x2="1350" y1="896.8563" y2="896.8563"/><text fill="#000000" font-family="sans-serif" font-size="10.4" font-weight="bold" lengthAdjust="spacing" textLength="11.2" x="713.6" y="893.0523">30</text><text fill="#000000" font-family="sans-serif" font-size="10.4" lengthAdjust="spacing" textLength="44" x="728" y="893.0523">toDomain</text><polygon fill="#181818" points="1522,916.475,1530,919.675,1522,922.875,1525.2,919.675" style="stroke:#181818;stroke-width:0.8000000000000002;"/><line style="stroke:#181818;stroke-width:0.8000000000000002;" x1="1362.8" x2="1526.8" y1="919.675" y2="919.675"/><text fill="#000000" font-family="sans-serif" font-size="10.4" font-weight="bold" lengthAdjust="spacing" textLength="11.2" x="1368.4" y="915.8711">31</text><text fill="#000000" font-family="sans-serif" font-size="10.4" lengthAdjust="spacing" textLength="28.8" x="1382.8" y="915.8711">create</text><rect fill="#E3E3E3" height="36.225" rx="2" ry="2" style="stroke:#181818;stroke-width:0.4000000000000001;" width="80" x="1531.6" y="903.2563"/><text fill="#000000" font-family="sans-serif" font-size="11.2" lengthAdjust="spacing" textLength="64.8" x="1539.2" y="918.9953">agendaEntry</text><text fill="#000000" font-family="sans-serif" font-size="11.2" lengthAdjust="spacing" textLength="68.8" x="1537.2" y="931.5078">:AgendaEntry</text><polygon fill="#181818" points="1371.6,961.5,1363.6,964.7,1371.6,967.9,1368.4,964.7" style="stroke:#181818;stroke-width:0.8000000000000002;"/><line style="stroke:#181818;stroke-width:0.8000000000000002;stroke-dasharray:2.0,2.0;" x1="1366.8" x2="1570.8" y1="964.7" y2="964.7"/><text fill="#000000" font-family="sans-serif" font-size="10.4" font-weight="bold" lengthAdjust="spacing" textLength="11.2" x="1376.4" y="960.8961">32</text><text fill="#000000" font-family="sans-serif" font-size="10.4" lengthAdjust="spacing" textLength="58.4" x="1390.8" y="960.8961">agendaEntry</text><polygon fill="#181818" points="720.8,984.3188,712.8,987.5188,720.8,990.7188,717.6,987.5188" style="stroke:#181818;stroke-width:0.8000000000000002;"/><line style="stroke:#181818;stroke-width:0.8000000000000002;stroke-dasharray:2.0,2.0;" x1="716" x2="1358" y1="987.5188" y2="987.5188"/><text fill="#000000" font-family="sans-serif" font-size="10.4" font-weight="bold" lengthAdjust="spacing" textLength="11.2" x="725.6" y="983.7148">33</text><text fill="#000000" font-family="sans-serif" font-size="10.4" lengthAdjust="spacing" textLength="58.4" x="740" y="983.7148">agendaEntry</text><polygon fill="#181818" points="1650.8,1007.1375,1658.8,1010.3375,1650.8,1013.5375,1654,1010.3375" style="stroke:#181818;stroke-width:0.8000000000000002;"/><line style="stroke:#181818;stroke-width:0.8000000000000002;" x1="708" x2="1655.6" y1="1010.3375" y2="1010.3375"/><text fill="#000000" font-family="sans-serif" font-size="10.4" font-weight="bold" lengthAdjust="spacing" textLength="11.2" x="713.6" y="1006.5336">34</text><text fill="#000000" font-family="sans-serif" font-size="10.4" lengthAdjust="spacing" textLength="60.8" x="728" y="1006.5336">toDomainList</text><path d="M1611.6,1022.3375 L1670,1022.3375 L1670,1027.5563 L1662,1035.5563 L1611.6,1035.5563 L1611.6,1022.3375 " fill="#EEEEEE" style="stroke:#000000;stroke-width:1.2000000000000002;"/><rect fill="none" height="81.0625" style="stroke:#000000;stroke-width:1.2000000000000002;" width="255.2" x="1611.6" y="1022.3375"/><text fill="#000000" font-family="sans-serif" font-size="10.4" font-weight="bold" lengthAdjust="spacing" textLength="22.4" x="1623.6" y="1032.5523">loop</text><polygon fill="#181818" points="1798,1048.775,1806,1051.975,1798,1055.175,1801.2,1051.975" style="stroke:#181818;stroke-width:0.8000000000000002;"/><line style="stroke:#181818;stroke-width:0.8000000000000002;" x1="1668.4" x2="1802.8" y1="1051.975" y2="1051.975"/><text fill="#000000" font-family="sans-serif" font-size="10.4" font-weight="bold" lengthAdjust="spacing" textLength="11.2" x="1674" y="1048.1711">35</text><text fill="#000000" font-family="sans-serif" font-size="10.4" lengthAdjust="spacing" textLength="28.8" x="1688.4" y="1048.1711">create</text><rect fill="#E3E3E3" height="36.225" rx="2" ry="2" style="stroke:#181818;stroke-width:0.4000000000000001;" width="51.2" x="1807.6" y="1035.5563"/><text fill="#000000" font-family="sans-serif" font-size="11.2" lengthAdjust="spacing" textLength="35.2" x="1815.6" y="1051.2953">vehicle</text><text fill="#000000" font-family="sans-serif" font-size="11.2" lengthAdjust="spacing" textLength="40" x="1813.2" y="1063.8078">:Vehicle</text><polygon fill="#181818" points="1677.2,1093.8,1669.2,1097,1677.2,1100.2,1674,1097" style="stroke:#181818;stroke-width:0.8000000000000002;"/><line style="stroke:#181818;stroke-width:0.8000000000000002;stroke-dasharray:2.0,2.0;" x1="1672.4" x2="1832.4" y1="1097" y2="1097"/><text fill="#000000" font-family="sans-serif" font-size="10.4" font-weight="bold" lengthAdjust="spacing" textLength="11.2" x="1682" y="1093.1961">36</text><text fill="#000000" font-family="sans-serif" font-size="10.4" lengthAdjust="spacing" textLength="31.2" x="1696.4" y="1093.1961">vehicle</text><polygon fill="#181818" points="720.8,1122.2188,712.8,1125.4188,720.8,1128.6188,717.6,1125.4188" style="stroke:#181818;stroke-width:0.8000000000000002;"/><line style="stroke:#181818;stroke-width:0.8000000000000002;stroke-dasharray:2.0,2.0;" x1="716" x2="1663.6" y1="1125.4188" y2="1125.4188"/><text fill="#000000" font-family="sans-serif" font-size="10.4" font-weight="bold" lengthAdjust="spacing" textLength="11.2" x="725.6" y="1121.6148">37</text><text fill="#000000" font-family="sans-serif" font-size="10.4" lengthAdjust="spacing" textLength="53.6" x="740" y="1121.6148">vehiclesList</text><polygon fill="#181818" points="991.2,1145.0375,999.2,1148.2375,991.2,1151.4375,994.4,1148.2375" style="stroke:#181818;stroke-width:0.8000000000000002;"/><line style="stroke:#181818;stroke-width:0.8000000000000002;" x1="708" x2="996" y1="1148.2375" y2="1148.2375"/><text fill="#000000" font-family="sans-serif" font-size="10.4" font-weight="bold" lengthAdjust="spacing" textLength="11.2" x="713.6" y="1144.4336">38</text><text fill="#000000" font-family="sans-serif" font-size="10.4" lengthAdjust="spacing" textLength="259.2" x="728" y="1144.4336">updateAgendaEntryVehicles(agendaEntry, VehiclesList)</text><line style="stroke:#181818;stroke-width:0.8000000000000002;" x1="1008.8" x2="1042.4" y1="1171.0563" y2="1171.0563"/><line style="stroke:#181818;stroke-width:0.8000000000000002;" x1="1042.4" x2="1042.4" y1="1171.0563" y2="1181.4563"/><line style="stroke:#181818;stroke-width:0.8000000000000002;" x1="1009.6" x2="1042.4" y1="1181.4563" y2="1181.4563"/><polygon fill="#181818" points="1017.6,1178.2563,1009.6,1181.4563,1017.6,1184.6563,1014.4,1181.4563" style="stroke:#181818;stroke-width:0.8000000000000002;"/><text fill="#000000" font-family="sans-serif" font-size="10.4" font-weight="bold" lengthAdjust="spacing" textLength="11.2" x="1014.4" y="1167.2523">39</text><text fill="#000000" font-family="sans-serif" font-size="10.4" lengthAdjust="spacing" textLength="213.6" x="1028.8" y="1167.2523">updateEntryVehicles(agendaEntry, Vehicles[])</text><polygon fill="#181818" points="720.8,1201.075,712.8,1204.275,720.8,1207.475,717.6,1204.275" style="stroke:#181818;stroke-width:0.8000000000000002;"/><line style="stroke:#181818;stroke-width:0.8000000000000002;stroke-dasharray:2.0,2.0;" x1="716" x2="1004" y1="1204.275" y2="1204.275"/><text fill="#000000" font-family="sans-serif" font-size="10.4" font-weight="bold" lengthAdjust="spacing" textLength="11.2" x="725.6" y="1200.4711">40</text><text fill="#000000" font-family="sans-serif" font-size="10.4" lengthAdjust="spacing" textLength="39.2" x="740" y="1200.4711">success</text><polygon fill="#181818" points="420,1223.8938,412,1227.0938,420,1230.2938,416.8,1227.0938" style="stroke:#181818;stroke-width:0.8000000000000002;"/><line style="stroke:#181818;stroke-width:0.8000000000000002;stroke-dasharray:2.0,2.0;" x1="415.2" x2="707.2" y1="1227.0938" y2="1227.0938"/><text fill="#000000" font-family="sans-serif" font-size="10.4" font-weight="bold" lengthAdjust="spacing" textLength="11.2" x="424.8" y="1223.2898">41</text><text fill="#000000" font-family="sans-serif" font-size="10.4" lengthAdjust="spacing" textLength="39.2" x="439.2" y="1223.2898">success</text><polygon fill="#181818" points="92.8,1252.3125,84.8,1255.5125,92.8,1258.7125,89.6,1255.5125" style="stroke:#181818;stroke-width:0.8000000000000002;"/><line style="stroke:#181818;stroke-width:0.8000000000000002;stroke-dasharray:2.0,2.0;" x1="88" x2="406.4" y1="1255.5125" y2="1255.5125"/><text fill="#000000" font-family="sans-serif" font-size="10.4" font-weight="bold" lengthAdjust="spacing" textLength="11.2" x="97.6" y="1251.7086">42</text><text fill="#000000" font-family="sans-serif" font-size="10.4" lengthAdjust="spacing" textLength="281.6" x="112" y="1251.7086">displays success message (Vehicles assigned successfully)</text><!--SRC=[nLZTJjim5BxFKrXSjGXUe1UJ69iG4fKc2htPTk4bRckHsbdiWlhsExRZn4uSn-aqBHSGdFFt7PzVn1jb5Qxn4Hqvu_cXvaU2P7qYcMY_L3X_mtkoaUUIe9ha4hDzwHA80oxu1sLxjCEb85cMuPFax7JyHMfupoMlqTL3JGX36n16q1ep45XV8IpGmsQTWHX9SrfX9j7LwhucM98jET2y90-lZuRizJ56Ti-Ph7bPDaBlNvwVUkJFfEA2WYcK24tJ7fmtL042YtsMsk7umOO2lZtTlVWS08eL66Zlz8kcCg-AsQTzDuPtLW3Rjd-c9GnEUyYCXZMkgWQzUn0oy2luwln5yjPGU-1mswDHVf-vpzapiO7WsEYT13rZ3DosVxXi0yCQdex1fSvq4D9t21STRXc21rxGxISLLsW5j6y2IGw_1Tqpr4WpHmmHXGXHXkI1D22rY4ue1AS-qO918WXM8NXz3R9p7QVjP_kqp3fM1v_LexueKO581Rbx8X-PW6JCoM8Pv6zLX48zoA6UaBRR1X2eTRCYAACWy_LQf2gb33GTHHt_54ATYwEGj5W70_65Jy6827Uep3s6ma03SfBZYGgvWFZhC4M2mRgcgoCXSP_F8C-N6J8lw3kdGda4tNdhEyWKN- -ODaVcpA0FupPr0gvESiXzxS2U9Skej9WZHeFAgwDHbfBpAahG-RD1qYApXJPMAoOiR6jreWcMNbzhpxz-XvWKEBZo94uWZDlgkwfBt1dM3InhxZ79h_7mDA7PDG_Fg45MN1A63jrORp5bikbmGcT4e9uexaHqDk46uqPKqq3uS5ePq0urT9ZU7JLPn2q9Qdg0pFqx5IIRUpjzvMELGLU3uDrwZ8vjEl-ZwT_NFPhktNSTeZtmtMmrrVHYUY3UHq3s0BPjmrvhWkjzvyvCKNld9ZDdQEt4wHnJ8c10NC5kmp-47lpKq00pZvq3JTR3U5YqqwCW9Mn7Y3DpXQ4azgREXjuAFuyCbShJwCGaBH4kIz2_u_KHImfp6HM0iQOxIeeGQJl7ufeqsaWnZh8Z3u92iCOTUPq2pcBhP8vWyoCfP9J2KM1fF5sJtoSYG6pEsOusNaYofs4GQOExNWdKAc2htWlNzNtXr_gRVeGjKolwNtQWiG59LpT-n9JzpsbeOjYPg7HJWywiAMSmudZj-iBnPjo2uDoIfdBkl791f0mReGwLwCHoSRXCzCZqdfdIFoy9gVQV0ubA8-rqJXmbgnrlidCQxfpBZNVUIF1bSogLNYXNw5H1LITELjbIwzRO6-IEdVzinJExRsfXCHjn44u2aEy_bocxZxTsgsPuodCYnBoLPx1_9nQHteBJrptcwM27QtSzlxaNL5GbFWih71tX1pWCBRRj5A8xC2aioUvKbkTbiDjdxi5cdVq1]--></g></svg>