<svg xmlns="http://www.w3.org/2000/svg" xmlns:xlink="http://www.w3.org/1999/xlink" contentStyleType="text/css" data-diagram-type="SEQUENCE" height="415px" preserveAspectRatio="none" style="width:1010px;height:415px;background:#FFFFFF;" version="1.1" viewBox="0 0 1010 415" width="1010px" zoomAndPan="magnify"><defs/><g><g><title>Editor</title><rect fill="#FFFFFF" height="234.0625" style="stroke:#181818;stroke-width:1;" width="10" x="23.7163" y="91.2969"/></g><g><title>System</title><rect fill="#FFFFFF" height="29.1328" style="stroke:#181818;stroke-width:1;" width="10" x="966.0986" y="112.4297"/></g><g><title>System</title><rect fill="#FFFFFF" height="29.1328" style="stroke:#181818;stroke-width:1;" width="10" x="966.0986" y="170.6953"/></g><g><title>System</title><rect fill="#FFFFFF" height="29.1328" style="stroke:#181818;stroke-width:1;" width="10" x="966.0986" y="228.9609"/></g><g><title>System</title><rect fill="#FFFFFF" height="29.1328" style="stroke:#181818;stroke-width:1;" width="10" x="966.0986" y="287.2266"/></g><g><title>Editor</title><rect fill="#000000" fill-opacity="0.00000" height="253.0625" width="8" x="24.7163" y="81.2969"/><line style="stroke:#181818;stroke-width:0.5;stroke-dasharray:5.0,5.0;" x1="28" x2="28" y1="81.2969" y2="334.3594"/></g><g><title>System</title><rect fill="#000000" fill-opacity="0.00000" height="253.0625" width="8" x="967.0986" y="81.2969"/><line style="stroke:#181818;stroke-width:0.5;stroke-dasharray:5.0,5.0;" x1="970.9956" x2="970.9956" y1="81.2969" y2="334.3594"/></g><g class="participant participant-head" data-participant="Editor"><text fill="#000000" font-family="sans-serif" font-size="14" lengthAdjust="spacing" textLength="41.4326" x="5" y="77.9951">Editor</text><ellipse cx="28.7163" cy="13.5" fill="#E3E3E3" rx="8" ry="8" style="stroke:#181818;stroke-width:0.5;"/><path d="M28.7163,21.5 L28.7163,48.5 M15.7163,29.5 L41.7163,29.5 M28.7163,48.5 L15.7163,63.5 M28.7163,48.5 L41.7163,63.5" fill="none" style="stroke:#181818;stroke-width:0.5;"/></g><g class="participant participant-tail" data-participant="Editor"><text fill="#000000" font-family="sans-serif" font-size="14" lengthAdjust="spacing" textLength="41.4326" x="5" y="346.3545">Editor</text><ellipse cx="28.7163" cy="358.1563" fill="#E3E3E3" rx="8" ry="8" style="stroke:#181818;stroke-width:0.5;"/><path d="M28.7163,366.1563 L28.7163,393.1563 M15.7163,374.1563 L41.7163,374.1563 M28.7163,393.1563 L15.7163,408.1563 M28.7163,393.1563 L41.7163,408.1563" fill="none" style="stroke:#181818;stroke-width:0.5;"/></g><g class="participant participant-head" data-participant="System"><rect fill="#E3E3E3" height="30.2969" rx="2.5" ry="2.5" style="stroke:#181818;stroke-width:0.5;" width="66.2061" x="937.9956" y="50"/><text fill="#000000" font-family="sans-serif" font-size="14" lengthAdjust="spacing" textLength="52.2061" x="944.9956" y="69.9951">System</text></g><g class="participant participant-tail" data-participant="System"><rect fill="#E3E3E3" height="30.2969" rx="2.5" ry="2.5" style="stroke:#181818;stroke-width:0.5;" width="66.2061" x="937.9956" y="333.3594"/><text fill="#000000" font-family="sans-serif" font-size="14" lengthAdjust="spacing" textLength="52.2061" x="944.9956" y="353.3545">System</text></g><g><title>Editor</title><rect fill="#FFFFFF" height="234.0625" style="stroke:#181818;stroke-width:1;" width="10" x="23.7163" y="91.2969"/></g><g><title>System</title><rect fill="#FFFFFF" height="29.1328" style="stroke:#181818;stroke-width:1;" width="10" x="966.0986" y="112.4297"/></g><g><title>System</title><rect fill="#FFFFFF" height="29.1328" style="stroke:#181818;stroke-width:1;" width="10" x="966.0986" y="170.6953"/></g><g><title>System</title><rect fill="#FFFFFF" height="29.1328" style="stroke:#181818;stroke-width:1;" width="10" x="966.0986" y="228.9609"/></g><g><title>System</title><rect fill="#FFFFFF" height="29.1328" style="stroke:#181818;stroke-width:1;" width="10" x="966.0986" y="287.2266"/></g><g class="message" data-participant-1="Editor" data-participant-2="System"><polygon fill="#181818" points="954.0986,108.4297,964.0986,112.4297,954.0986,116.4297,958.0986,112.4297" style="stroke:#181818;stroke-width:1;"/><line style="stroke:#181818;stroke-width:1;" x1="33.7163" x2="960.0986" y1="112.4297" y2="112.4297"/><text fill="#000000" font-family="sans-serif" font-size="13" font-weight="bold" lengthAdjust="spacing" textLength="9.0454" x="40.7163" y="107.3638">1</text><text fill="#000000" font-family="sans-serif" font-size="13" lengthAdjust="spacing" textLength="187.5225" x="53.7617" y="107.3638">Request to create a scenario</text></g><g class="message" data-participant-1="System" data-participant-2="Editor"><polygon fill="#181818" points="44.7163,137.5625,34.7163,141.5625,44.7163,145.5625,40.7163,141.5625" style="stroke:#181818;stroke-width:1;"/><line style="stroke:#181818;stroke-width:1;stroke-dasharray:2.0,2.0;" x1="38.7163" x2="970.0986" y1="141.5625" y2="141.5625"/><text fill="#000000" font-family="sans-serif" font-size="13" font-weight="bold" lengthAdjust="spacing" textLength="9.0454" x="50.7163" y="136.4966">2</text><text fill="#000000" font-family="sans-serif" font-size="13" lengthAdjust="spacing" textLength="150.5156" x="63.7617" y="136.4966">Display available maps</text></g><g class="message" data-participant-1="Editor" data-participant-2="System"><polygon fill="#181818" points="954.0986,166.6953,964.0986,170.6953,954.0986,174.6953,958.0986,170.6953" style="stroke:#181818;stroke-width:1;"/><line style="stroke:#181818;stroke-width:1;" x1="33.7163" x2="960.0986" y1="170.6953" y2="170.6953"/><text fill="#000000" font-family="sans-serif" font-size="13" font-weight="bold" lengthAdjust="spacing" textLength="9.0454" x="40.7163" y="165.6294">3</text><text fill="#000000" font-family="sans-serif" font-size="13" lengthAdjust="spacing" textLength="81.0088" x="53.7617" y="165.6294">Choose map</text></g><g class="message" data-participant-1="System" data-participant-2="Editor"><polygon fill="#181818" points="44.7163,195.8281,34.7163,199.8281,44.7163,203.8281,40.7163,199.8281" style="stroke:#181818;stroke-width:1;"/><line style="stroke:#181818;stroke-width:1;stroke-dasharray:2.0,2.0;" x1="38.7163" x2="970.0986" y1="199.8281" y2="199.8281"/><text fill="#000000" font-family="sans-serif" font-size="13" font-weight="bold" lengthAdjust="spacing" textLength="9.0454" x="50.7163" y="194.7622">4</text><text fill="#000000" font-family="sans-serif" font-size="13" lengthAdjust="spacing" textLength="895.3369" x="63.7617" y="194.7622">Requests scenario data(name, description, starTime, endTime, availableLocomotives, availableIndustries, portBehavior, historicalEvents)</text></g><g class="message" data-participant-1="Editor" data-participant-2="System"><polygon fill="#181818" points="954.0986,224.9609,964.0986,228.9609,954.0986,232.9609,958.0986,228.9609" style="stroke:#181818;stroke-width:1;"/><line style="stroke:#181818;stroke-width:1;stroke-dasharray:2.0,2.0;" x1="33.7163" x2="960.0986" y1="228.9609" y2="228.9609"/><text fill="#000000" font-family="sans-serif" font-size="13" font-weight="bold" lengthAdjust="spacing" textLength="9.0454" x="40.7163" y="223.895">5</text><text fill="#000000" font-family="sans-serif" font-size="13" lengthAdjust="spacing" textLength="152.1914" x="53.7617" y="223.895">Provide requested data</text></g><g class="message" data-participant-1="System" data-participant-2="Editor"><polygon fill="#181818" points="44.7163,254.0938,34.7163,258.0938,44.7163,262.0938,40.7163,258.0938" style="stroke:#181818;stroke-width:1;"/><line style="stroke:#181818;stroke-width:1;stroke-dasharray:2.0,2.0;" x1="38.7163" x2="970.0986" y1="258.0938" y2="258.0938"/><text fill="#000000" font-family="sans-serif" font-size="13" font-weight="bold" lengthAdjust="spacing" textLength="9.0454" x="50.7163" y="253.0278">6</text><text fill="#000000" font-family="sans-serif" font-size="13" lengthAdjust="spacing" textLength="159.7197" x="63.7617" y="253.0278">Show scenario summary</text></g><g class="message" data-participant-1="Editor" data-participant-2="System"><polygon fill="#181818" points="954.0986,283.2266,964.0986,287.2266,954.0986,291.2266,958.0986,287.2266" style="stroke:#181818;stroke-width:1;"/><line style="stroke:#181818;stroke-width:1;" x1="33.7163" x2="960.0986" y1="287.2266" y2="287.2266"/><text fill="#000000" font-family="sans-serif" font-size="13" font-weight="bold" lengthAdjust="spacing" textLength="9.0454" x="40.7163" y="282.1606">7</text><text fill="#000000" font-family="sans-serif" font-size="13" lengthAdjust="spacing" textLength="168.124" x="53.7617" y="282.1606">Confirm scenario creation</text></g><g class="message" data-participant-1="System" data-participant-2="Editor"><polygon fill="#181818" points="44.7163,312.3594,34.7163,316.3594,44.7163,320.3594,40.7163,316.3594" style="stroke:#181818;stroke-width:1;"/><line style="stroke:#181818;stroke-width:1;stroke-dasharray:2.0,2.0;" x1="38.7163" x2="970.0986" y1="316.3594" y2="316.3594"/><text fill="#000000" font-family="sans-serif" font-size="13" font-weight="bold" lengthAdjust="spacing" textLength="9.0454" x="50.7163" y="311.2935">8</text><text fill="#000000" font-family="sans-serif" font-size="13" lengthAdjust="spacing" textLength="165.458" x="63.7617" y="311.2935">Display success message</text></g><!--SRC=[bLBBJWCn3BplLrWzWTJ-G0ySW1wGE23A3xY9sxMwYHVRkrN_ddItBwa8bKjiEHxFJ1pRScvHCK6IBA5MIGIk7LLslcanR753Izyt14h1CM-QwmQhCSgEymRMs1XL5NOkkKihqf875uN98dA94q23CQqArZbmYzbXijoRKngkntG0SezEf_vgZ31xEhRCuPE-Ep875mXAXru42vHHMQu6d2QE4MPbmZXh3gziRODxm1wvmLKncB2rgefqWxwbVwb5R43SHtQKQsUD4D7n8MEYAKIoeDmwIvw2EUeN7ygKuvYS5RvBa2I5ZUog-fPZPwvyABQY_amrzYmwXPgji7F0Pj5JTdlyqzsLlG-LdkDXvODiYeFS-wmkQzbTR5gN4kh-tcULl6PD5_Yms_8k_rkfTI6G6QHobE_x6_aF]--></g></svg>