<svg xmlns="http://www.w3.org/2000/svg" xmlns:xlink="http://www.w3.org/1999/xlink" contentStyleType="text/css" height="670.5px" preserveAspectRatio="none" style="width:1152px;height:670px;background:#FFFFFF;" version="1.1" viewBox="0 0 1152 670" width="1152.9px" zoomAndPan="magnify"><title>Sequence Diagram - US341 Validate figure description</title><defs/><g><text fill="#000000" font-family="sans-serif" font-size="12.6" font-weight="bold" lengthAdjust="spacing" textLength="324.8991" x="414.9519" y="27.0967">Sequence Diagram - US341 Validate figure description</text><rect fill="none" height="370.2727" style="stroke:#000000;stroke-width:1.35;" width="1137.7028" x="9" y="210.7037"/><line style="stroke:#181818;stroke-width:0.45;stroke-dasharray:5.0,5.0;" x1="33.3" x2="33.3" y1="110.918" y2="596.2764"/><line style="stroke:#181818;stroke-width:0.45;stroke-dasharray:5.0,5.0;" x1="180.838" x2="180.838" y1="110.918" y2="596.2764"/><line style="stroke:#181818;stroke-width:0.45;stroke-dasharray:5.0,5.0;" x1="304.6777" x2="304.6777" y1="110.918" y2="596.2764"/><line style="stroke:#181818;stroke-width:0.45;stroke-dasharray:5.0,5.0;" x1="425.8358" x2="425.8358" y1="110.918" y2="596.2764"/><line style="stroke:#181818;stroke-width:0.45;stroke-dasharray:5.0,5.0;" x1="503.5645" x2="503.5645" y1="110.918" y2="596.2764"/><line style="stroke:#181818;stroke-width:0.45;stroke-dasharray:5.0,5.0;" x1="591.4789" x2="591.4789" y1="110.918" y2="596.2764"/><line style="stroke:#181818;stroke-width:0.45;stroke-dasharray:5.0,5.0;" x1="696.4185" x2="696.4185" y1="110.918" y2="596.2764"/><line style="stroke:#181818;stroke-width:0.45;stroke-dasharray:5.0,5.0;" x1="787.8586" x2="787.8586" y1="110.918" y2="596.2764"/><line style="stroke:#181818;stroke-width:0.45;stroke-dasharray:5.0,5.0;" x1="875.1955" x2="875.1955" y1="110.918" y2="596.2764"/><line style="stroke:#181818;stroke-width:0.45;stroke-dasharray:5.0,5.0;" x1="995.1249" x2="995.1249" y1="110.918" y2="596.2764"/><line style="stroke:#181818;stroke-width:0.45;stroke-dasharray:5.0,5.0;" x1="1105.9734" x2="1105.9734" y1="110.918" y2="596.2764"/><text fill="#000000" font-family="sans-serif" font-size="12.6" lengthAdjust="spacing" textLength="26.6027" x="18" y="107.7557">User</text><ellipse cx="34.0014" cy="47.809" fill="#E2E2F0" rx="7.2" ry="7.2" style="stroke:#181818;stroke-width:0.45;"/><path d="M34.0014,55.009 L34.0014,79.309 M22.3014,62.209 L45.7014,62.209 M34.0014,79.309 L22.3014,92.809 M34.0014,79.309 L45.7014,92.809 " fill="none" style="stroke:#181818;stroke-width:0.45;"/><text fill="#000000" font-family="sans-serif" font-size="12.6" lengthAdjust="spacing" textLength="26.6027" x="18" y="608.973">User</text><ellipse cx="34.0014" cy="619.7854" fill="#E2E2F0" rx="7.2" ry="7.2" style="stroke:#181818;stroke-width:0.45;"/><path d="M34.0014,626.9854 L34.0014,651.2854 M22.3014,634.1854 L45.7014,634.1854 M34.0014,651.2854 L22.3014,664.7854 M34.0014,651.2854 L45.7014,664.7854 " fill="none" style="stroke:#181818;stroke-width:0.45;"/><rect fill="#E2E2F0" height="29.359" rx="2.25" ry="2.25" style="stroke:#181818;stroke-width:0.45;" width="95.9396" x="133.138" y="80.659"/><text fill="#000000" font-family="sans-serif" font-size="12.6" lengthAdjust="spacing" textLength="83.3396" x="139.438" y="100.5557">FigurePluginUI</text><rect fill="#E2E2F0" height="29.359" rx="2.25" ry="2.25" style="stroke:#181818;stroke-width:0.45;" width="95.9396" x="133.138" y="595.3764"/><text fill="#000000" font-family="sans-serif" font-size="12.6" lengthAdjust="spacing" textLength="83.3396" x="139.438" y="615.273">FigurePluginUI</text><rect fill="#E2E2F0" height="29.359" rx="2.25" ry="2.25" style="stroke:#181818;stroke-width:0.45;" width="133.7581" x="238.0777" y="80.659"/><text fill="#000000" font-family="sans-serif" font-size="12.6" lengthAdjust="spacing" textLength="121.1581" x="244.3777" y="100.5557">AddDslPathController</text><rect fill="#E2E2F0" height="29.359" rx="2.25" ry="2.25" style="stroke:#181818;stroke-width:0.45;" width="133.7581" x="238.0777" y="595.3764"/><text fill="#000000" font-family="sans-serif" font-size="12.6" lengthAdjust="spacing" textLength="121.1581" x="244.3777" y="615.273">AddDslPathController</text><rect fill="#E2E2F0" height="29.359" rx="2.25" ry="2.25" style="stroke:#181818;stroke-width:0.45;" width="90.3287" x="380.8358" y="80.659"/><text fill="#000000" font-family="sans-serif" font-size="12.6" lengthAdjust="spacing" textLength="77.7287" x="387.1358" y="100.5557">FigureService</text><rect fill="#E2E2F0" height="29.359" rx="2.25" ry="2.25" style="stroke:#181818;stroke-width:0.45;" width="90.3287" x="380.8358" y="595.3764"/><text fill="#000000" font-family="sans-serif" font-size="12.6" lengthAdjust="spacing" textLength="77.7287" x="387.1358" y="615.273">FigureService</text><rect fill="#E2E2F0" height="29.359" rx="2.25" ry="2.25" style="stroke:#181818;stroke-width:0.45;" width="48.3144" x="480.1645" y="80.659"/><text fill="#000000" font-family="sans-serif" font-size="12.6" lengthAdjust="spacing" textLength="35.7144" x="486.4645" y="100.5557">Figure</text><rect fill="#E2E2F0" height="29.359" rx="2.25" ry="2.25" style="stroke:#181818;stroke-width:0.45;" width="48.3144" x="480.1645" y="595.3764"/><text fill="#000000" font-family="sans-serif" font-size="12.6" lengthAdjust="spacing" textLength="35.7144" x="486.4645" y="615.273">Figure</text><rect fill="#E2E2F0" height="29.359" rx="2.25" ry="2.25" style="stroke:#181818;stroke-width:0.45;" width="108.5396" x="537.4789" y="80.659"/><text fill="#000000" font-family="sans-serif" font-size="12.6" lengthAdjust="spacing" textLength="95.9396" x="543.7789" y="100.5557">FigureRepository</text><rect fill="#E2E2F0" height="29.359" rx="2.25" ry="2.25" style="stroke:#181818;stroke-width:0.45;" width="108.5396" x="537.4789" y="595.3764"/><text fill="#000000" font-family="sans-serif" font-size="12.6" lengthAdjust="spacing" textLength="95.9396" x="543.7789" y="615.273">FigureRepository</text><rect fill="#E2E2F0" height="29.359" rx="2.25" ry="2.25" style="stroke:#181818;stroke-width:0.45;" width="83.3396" x="655.0185" y="80.659"/><text fill="#000000" font-family="sans-serif" font-size="12.6" lengthAdjust="spacing" textLength="70.7396" x="661.3185" y="100.5557">FigurePlugin</text><rect fill="#E2E2F0" height="29.359" rx="2.25" ry="2.25" style="stroke:#181818;stroke-width:0.45;" width="83.3396" x="655.0185" y="595.3764"/><text fill="#000000" font-family="sans-serif" font-size="12.6" lengthAdjust="spacing" textLength="70.7396" x="661.3185" y="615.273">FigurePlugin</text><rect fill="#E2E2F0" height="29.359" rx="2.25" ry="2.25" style="stroke:#181818;stroke-width:0.45;" width="75.6369" x="750.0586" y="80.659"/><text fill="#000000" font-family="sans-serif" font-size="12.6" lengthAdjust="spacing" textLength="63.0369" x="756.3586" y="100.5557">figureLexer</text><rect fill="#E2E2F0" height="29.359" rx="2.25" ry="2.25" style="stroke:#181818;stroke-width:0.45;" width="75.6369" x="750.0586" y="595.3764"/><text fill="#000000" font-family="sans-serif" font-size="12.6" lengthAdjust="spacing" textLength="63.0369" x="756.3586" y="615.273">figureLexer</text><rect fill="#E2E2F0" height="29.359" rx="2.25" ry="2.25" style="stroke:#181818;stroke-width:0.45;" width="81.2294" x="834.6955" y="80.659"/><text fill="#000000" font-family="sans-serif" font-size="12.6" lengthAdjust="spacing" textLength="68.6294" x="840.9955" y="100.5557">figureParser</text><rect fill="#E2E2F0" height="29.359" rx="2.25" ry="2.25" style="stroke:#181818;stroke-width:0.45;" width="81.2294" x="834.6955" y="595.3764"/><text fill="#000000" font-family="sans-serif" font-size="12.6" lengthAdjust="spacing" textLength="68.6294" x="840.9955" y="615.273">figureParser</text><rect fill="#E2E2F0" height="29.359" rx="2.25" ry="2.25" style="stroke:#181818;stroke-width:0.45;" width="141.4485" x="924.9249" y="80.659"/><text fill="#000000" font-family="sans-serif" font-size="12.6" lengthAdjust="spacing" textLength="128.8485" x="931.2249" y="100.5557">FigureInterpreterVisitor</text><rect fill="#E2E2F0" height="29.359" rx="2.25" ry="2.25" style="stroke:#181818;stroke-width:0.45;" width="141.4485" x="924.9249" y="595.3764"/><text fill="#000000" font-family="sans-serif" font-size="12.6" lengthAdjust="spacing" textLength="128.8485" x="931.2249" y="615.273">FigureInterpreterVisitor</text><rect fill="#E2E2F0" height="29.359" rx="2.25" ry="2.25" style="stroke:#181818;stroke-width:0.45;" width="62.3294" x="1075.3734" y="80.659"/><text fill="#000000" font-family="sans-serif" font-size="12.6" lengthAdjust="spacing" textLength="49.7294" x="1081.6734" y="100.5557">Validator</text><rect fill="#E2E2F0" height="29.359" rx="2.25" ry="2.25" style="stroke:#181818;stroke-width:0.45;" width="62.3294" x="1075.3734" y="595.3764"/><text fill="#000000" font-family="sans-serif" font-size="12.6" lengthAdjust="spacing" textLength="49.7294" x="1081.6734" y="615.273">Validator</text><polygon fill="#181818" points="170.3079,137.2799,179.3079,140.8799,170.3079,144.4799,173.9079,140.8799" style="stroke:#181818;stroke-width:0.9;"/><line style="stroke:#181818;stroke-width:0.9;" x1="34.0014" x2="175.7079" y1="140.8799" y2="140.8799"/><text fill="#000000" font-family="sans-serif" font-size="11.7" lengthAdjust="spacing" textLength="119.3366" x="40.3014" y="136.1435">Select figure + DSL file</text><polygon fill="#181818" points="685.8883,165.4418,694.8883,169.0418,685.8883,172.6418,689.4883,169.0418" style="stroke:#181818;stroke-width:0.9;"/><line style="stroke:#181818;stroke-width:0.9;" x1="181.1079" x2="691.2883" y1="169.0418" y2="169.0418"/><text fill="#000000" font-family="sans-serif" font-size="11.7" lengthAdjust="spacing" textLength="136.5552" x="187.4079" y="164.3054">interpretFigureScript(path)</text><polygon fill="#181818" points="1095.7381,193.6037,1104.7381,197.2037,1095.7381,200.8037,1099.3381,197.2037" style="stroke:#181818;stroke-width:0.9;"/><line style="stroke:#181818;stroke-width:0.9;" x1="696.6883" x2="1101.1381" y1="197.2037" y2="197.2037"/><text fill="#000000" font-family="sans-serif" font-size="11.7" lengthAdjust="spacing" textLength="70.8913" x="702.9883" y="192.4673">validate(path)</text><path d="M9,210.7037 L63.1538,210.7037 L63.1538,219.0656 L54.1538,228.0656 L9,228.0656 L9,210.7037 " fill="#EEEEEE" style="stroke:#000000;stroke-width:1.35;"/><rect fill="none" height="370.2727" style="stroke:#000000;stroke-width:1.35;" width="1137.7028" x="9" y="210.7037"/><text fill="#000000" font-family="sans-serif" font-size="11.7" font-weight="bold" lengthAdjust="spacing" textLength="13.6538" x="22.5" y="224.2292">alt</text><text fill="#000000" font-family="sans-serif" font-size="9.9" font-weight="bold" lengthAdjust="spacing" textLength="84.1742" x="76.6538" y="223.1868">[Syntax is invalid]</text><polygon fill="#181818" points="706.5883,245.4275,697.5883,249.0275,706.5883,252.6275,702.9883,249.0275" style="stroke:#181818;stroke-width:0.9;"/><line style="stroke:#181818;stroke-width:0.9;stroke-dasharray:2.0,2.0;" x1="701.1883" x2="1105.6381" y1="249.0275" y2="249.0275"/><text fill="#000000" font-family="sans-serif" font-size="11.7" lengthAdjust="spacing" textLength="24.714" x="711.9883" y="244.2911">false</text><polygon fill="#181818" points="191.0079,273.5895,182.0079,277.1895,191.0079,280.7895,187.4079,277.1895" style="stroke:#181818;stroke-width:0.9;"/><line style="stroke:#181818;stroke-width:0.9;" x1="185.6079" x2="695.7883" y1="277.1895" y2="277.1895"/><text fill="#000000" font-family="sans-serif" font-size="11.7" lengthAdjust="spacing" textLength="82.6084" x="196.4079" y="272.453">Validation failed</text><polygon fill="#181818" points="43.9014,301.7514,34.9014,305.3514,43.9014,308.9514,40.3014,305.3514" style="stroke:#181818;stroke-width:0.9;"/><line style="stroke:#181818;stroke-width:0.9;" x1="38.5014" x2="180.2079" y1="305.3514" y2="305.3514"/><text fill="#000000" font-family="sans-serif" font-size="11.7" lengthAdjust="spacing" textLength="107.9451" x="49.3014" y="300.6149">Show error message</text><line style="stroke:#000000;stroke-width:0.9;stroke-dasharray:2.0,2.0;" x1="9" x2="1146.7028" y1="313.4514" y2="313.4514"/><text fill="#000000" font-family="sans-serif" font-size="9.9" font-weight="bold" lengthAdjust="spacing" textLength="56.6591" x="13.5" y="324.1345">[Syntax OK]</text><polygon fill="#181818" points="706.5883,344.8811,697.5883,348.4811,706.5883,352.0811,702.9883,348.4811" style="stroke:#181818;stroke-width:0.9;"/><line style="stroke:#181818;stroke-width:0.9;stroke-dasharray:2.0,2.0;" x1="701.1883" x2="1105.6381" y1="348.4811" y2="348.4811"/><text fill="#000000" font-family="sans-serif" font-size="11.7" lengthAdjust="spacing" textLength="20.1608" x="711.9883" y="343.7446">true</text><polygon fill="#181818" points="777.0771,373.043,786.0771,376.643,777.0771,380.243,780.6771,376.643" style="stroke:#181818;stroke-width:0.9;"/><line style="stroke:#181818;stroke-width:0.9;" x1="696.6883" x2="782.4771" y1="376.643" y2="376.643"/><text fill="#000000" font-family="sans-serif" font-size="11.7" lengthAdjust="spacing" textLength="69.5887" x="702.9883" y="371.9065">tokenize DSL</text><polygon fill="#181818" points="706.5883,401.2049,697.5883,404.8049,706.5883,408.4049,702.9883,404.8049" style="stroke:#181818;stroke-width:0.9;"/><line style="stroke:#181818;stroke-width:0.9;" x1="701.1883" x2="786.9771" y1="404.8049" y2="404.8049"/><text fill="#000000" font-family="sans-serif" font-size="11.7" lengthAdjust="spacing" textLength="67.6292" x="711.9883" y="400.0685">token stream</text><polygon fill="#181818" points="864.5102,429.3668,873.5102,432.9668,864.5102,436.5668,868.1102,432.9668" style="stroke:#181818;stroke-width:0.9;"/><line style="stroke:#181818;stroke-width:0.9;" x1="696.6883" x2="869.9102" y1="432.9668" y2="432.9668"/><text fill="#000000" font-family="sans-serif" font-size="11.7" lengthAdjust="spacing" textLength="100.147" x="702.9883" y="428.2304">parse token stream</text><polygon fill="#181818" points="706.5883,457.5287,697.5883,461.1287,706.5883,464.7287,702.9883,461.1287" style="stroke:#181818;stroke-width:0.9;"/><line style="stroke:#181818;stroke-width:0.9;" x1="701.1883" x2="874.4102" y1="461.1287" y2="461.1287"/><text fill="#000000" font-family="sans-serif" font-size="11.7" lengthAdjust="spacing" textLength="52.6786" x="711.9883" y="456.3923">parse tree</text><polygon fill="#181818" points="984.8492,485.6906,993.8492,489.2906,984.8492,492.8906,988.4492,489.2906" style="stroke:#181818;stroke-width:0.9;"/><line style="stroke:#181818;stroke-width:0.9;" x1="696.6883" x2="990.2492" y1="489.2906" y2="489.2906"/><text fill="#000000" font-family="sans-serif" font-size="11.7" lengthAdjust="spacing" textLength="81.2659" x="702.9883" y="484.5542">visit(parseTree)</text><polygon fill="#181818" points="706.5883,513.8525,697.5883,517.4525,706.5883,521.0525,702.9883,517.4525" style="stroke:#181818;stroke-width:0.9;"/><line style="stroke:#181818;stroke-width:0.9;stroke-dasharray:2.0,2.0;" x1="701.1883" x2="994.7492" y1="517.4525" y2="517.4525"/><text fill="#000000" font-family="sans-serif" font-size="11.7" lengthAdjust="spacing" textLength="100.1527" x="711.9883" y="512.7161">interpretation result</text><polygon fill="#181818" points="191.0079,542.0145,182.0079,545.6145,191.0079,549.2145,187.4079,545.6145" style="stroke:#181818;stroke-width:0.9;"/><line style="stroke:#181818;stroke-width:0.9;" x1="185.6079" x2="695.7883" y1="545.6145" y2="545.6145"/><text fill="#000000" font-family="sans-serif" font-size="11.7" lengthAdjust="spacing" textLength="126.1749" x="196.4079" y="540.878">Interpretation completed</text><polygon fill="#181818" points="43.9014,570.1764,34.9014,573.7764,43.9014,577.3764,40.3014,573.7764" style="stroke:#181818;stroke-width:0.9;"/><line style="stroke:#181818;stroke-width:0.9;" x1="38.5014" x2="180.2079" y1="573.7764" y2="573.7764"/><text fill="#000000" font-family="sans-serif" font-size="11.7" lengthAdjust="spacing" textLength="125.5065" x="49.3014" y="569.0399">Show success message</text><!--SRC=[VP9DJyCm38Rl-HNMJY2q0uBJ3aY82Qa2YOcotQFK6n5PMfnqVFnw72VJrgcZXygHdxosNoVQw11g_EpH6uIvrHlIMvZ2ihwvlOQLThRH4M5jDpqXD1WCsIxQrYkbJMm99ik0D04T80MgqnIjiPts4IQFSclX-etroof3rH2vRvfvS0iTtnzQ7wbrhgWTZcEQDTBE6XIon6EOv7Cubdx5hWsMf_WHC1tF3o183eTGzkOPlqld4eqX2qrxht8uLgpo4QaZvF_AIdDoeSHAgMGpJE_OIPZnx0vDtA_d2kRrCnySCbObAFVBeDtB5lzaZHST-twf2iHusJUlTGQxili2AUqYr3y-wc-mWVKahu2_mwtfSScrTW45E1IGfWlFZuWPRZQhv8PbEfxhlVq296BDBOQWDwYGrVODl3pzLpXIVrfNTf9IxGTw-ul9A45oOd0x8H0YeTwg4vcyDeQw50nH8NF-MAwGX7WgLbQQh4xHXP1l35xcuKfwEhh6R1zXw5rKOoPNGzAqsyxnephdTUYDOQCFRlj6_G40]--></g></svg>