<svg xmlns="http://www.w3.org/2000/svg" xmlns:xlink="http://www.w3.org/1999/xlink" contentStyleType="text/css" height="691.2px" preserveAspectRatio="none" style="width:330px;height:691px;background:#FFFFFF;" version="1.1" viewBox="0 0 330 691" width="330.3px" zoomAndPan="magnify"><title>SSD - US341 Validate figure description</title><defs/><g><text fill="#000000" font-family="sans-serif" font-size="12.6" font-weight="bold" lengthAdjust="spacing" textLength="237.3636" x="47.5596" y="27.0967">SSD - US341 Validate figure description</text><rect fill="none" height="367.6869" style="stroke:#000000;stroke-width:1.35;" width="315.3828" x="9" y="234.1037"/><line style="stroke:#181818;stroke-width:0.45;stroke-dasharray:5.0,5.0;" x1="33.3" x2="33.3" y1="110.918" y2="617.0906"/><line style="stroke:#181818;stroke-width:0.45;stroke-dasharray:5.0,5.0;" x1="180.8038" x2="180.8038" y1="110.918" y2="617.0906"/><text fill="#000000" font-family="sans-serif" font-size="12.6" lengthAdjust="spacing" textLength="26.6027" x="18" y="107.7557">User</text><ellipse cx="34.0014" cy="47.809" fill="#E2E2F0" rx="7.2" ry="7.2" style="stroke:#181818;stroke-width:0.45;"/><path d="M34.0014,55.009 L34.0014,79.309 M22.3014,62.209 L45.7014,62.209 M34.0014,79.309 L22.3014,92.809 M34.0014,79.309 L45.7014,92.809 " fill="none" style="stroke:#181818;stroke-width:0.45;"/><text fill="#000000" font-family="sans-serif" font-size="12.6" lengthAdjust="spacing" textLength="26.6027" x="18" y="629.7873">User</text><ellipse cx="34.0014" cy="640.5996" fill="#E2E2F0" rx="7.2" ry="7.2" style="stroke:#181818;stroke-width:0.45;"/><path d="M34.0014,647.7996 L34.0014,672.0996 M22.3014,654.9996 L45.7014,654.9996 M34.0014,672.0996 L22.3014,685.5996 M34.0014,672.0996 L45.7014,685.5996 " fill="none" style="stroke:#181818;stroke-width:0.45;"/><rect fill="#E2E2F0" height="29.359" rx="2.25" ry="2.25" style="stroke:#181818;stroke-width:0.45;" width="54.6082" x="153.8038" y="80.659"/><text fill="#000000" font-family="sans-serif" font-size="12.6" lengthAdjust="spacing" textLength="42.0082" x="160.1038" y="100.5557">System</text><rect fill="#E2E2F0" height="29.359" rx="2.25" ry="2.25" style="stroke:#181818;stroke-width:0.45;" width="54.6082" x="153.8038" y="616.1906"/><text fill="#000000" font-family="sans-serif" font-size="12.6" lengthAdjust="spacing" textLength="42.0082" x="160.1038" y="636.0873">System</text><polygon fill="#181818" points="170.3079,137.2799,179.3079,140.8799,170.3079,144.4799,173.9079,140.8799" style="stroke:#181818;stroke-width:0.9;"/><line style="stroke:#181818;stroke-width:0.9;" x1="34.0014" x2="175.7079" y1="140.8799" y2="140.8799"/><text fill="#000000" font-family="sans-serif" font-size="11.7" lengthAdjust="spacing" textLength="119.3366" x="40.3014" y="136.1435">Select figure + DSL file</text><line style="stroke:#181818;stroke-width:0.9;" x1="181.1079" x2="218.9079" y1="169.0418" y2="169.0418"/><line style="stroke:#181818;stroke-width:0.9;" x1="218.9079" x2="218.9079" y1="169.0418" y2="180.7418"/><line style="stroke:#181818;stroke-width:0.9;" x1="182.0079" x2="218.9079" y1="180.7418" y2="180.7418"/><polygon fill="#181818" points="191.0079,177.1418,182.0079,180.7418,191.0079,184.3418,187.4079,180.7418" style="stroke:#181818;stroke-width:0.9;"/><text fill="#000000" font-family="sans-serif" font-size="11.7" lengthAdjust="spacing" textLength="136.5552" x="187.4079" y="164.3054">interpretFigureScript(path)</text><line style="stroke:#181818;stroke-width:0.9;" x1="181.1079" x2="218.9079" y1="208.9037" y2="208.9037"/><line style="stroke:#181818;stroke-width:0.9;" x1="218.9079" x2="218.9079" y1="208.9037" y2="220.6037"/><line style="stroke:#181818;stroke-width:0.9;" x1="182.0079" x2="218.9079" y1="220.6037" y2="220.6037"/><polygon fill="#181818" points="191.0079,217.0037,182.0079,220.6037,191.0079,224.2037,187.4079,220.6037" style="stroke:#181818;stroke-width:0.9;"/><text fill="#000000" font-family="sans-serif" font-size="11.7" lengthAdjust="spacing" textLength="70.8913" x="187.4079" y="204.1673">validate(path)</text><path d="M9,234.1037 L63.1538,234.1037 L63.1538,242.4656 L54.1538,251.4656 L9,251.4656 L9,234.1037 " fill="#EEEEEE" style="stroke:#000000;stroke-width:1.35;"/><rect fill="none" height="367.6869" style="stroke:#000000;stroke-width:1.35;" width="315.3828" x="9" y="234.1037"/><text fill="#000000" font-family="sans-serif" font-size="11.7" font-weight="bold" lengthAdjust="spacing" textLength="13.6538" x="22.5" y="247.6292">alt</text><text fill="#000000" font-family="sans-serif" font-size="9.9" font-weight="bold" lengthAdjust="spacing" textLength="84.1742" x="76.6538" y="246.5868">[Syntax is invalid]</text><line style="stroke:#181818;stroke-width:0.9;" x1="181.1079" x2="218.9079" y1="272.4275" y2="272.4275"/><line style="stroke:#181818;stroke-width:0.9;" x1="218.9079" x2="218.9079" y1="272.4275" y2="284.1275"/><line style="stroke:#181818;stroke-width:0.9;" x1="182.0079" x2="218.9079" y1="284.1275" y2="284.1275"/><polygon fill="#181818" points="191.0079,280.5275,182.0079,284.1275,191.0079,287.7275,187.4079,284.1275" style="stroke:#181818;stroke-width:0.9;"/><text fill="#000000" font-family="sans-serif" font-size="11.7" lengthAdjust="spacing" textLength="82.6084" x="187.4079" y="267.6911">Validation failed</text><polygon fill="#181818" points="43.9014,308.6895,34.9014,312.2895,43.9014,315.8895,40.3014,312.2895" style="stroke:#181818;stroke-width:0.9;"/><line style="stroke:#181818;stroke-width:0.9;" x1="38.5014" x2="180.2079" y1="312.2895" y2="312.2895"/><text fill="#000000" font-family="sans-serif" font-size="11.7" lengthAdjust="spacing" textLength="107.9451" x="49.3014" y="307.553">Show error message</text><line style="stroke:#000000;stroke-width:0.9;stroke-dasharray:2.0,2.0;" x1="9" x2="324.3828" y1="320.3895" y2="320.3895"/><text fill="#000000" font-family="sans-serif" font-size="9.9" font-weight="bold" lengthAdjust="spacing" textLength="56.6591" x="13.5" y="331.0726">[Syntax OK]</text><line style="stroke:#181818;stroke-width:0.9;" x1="181.1079" x2="218.9079" y1="355.4191" y2="355.4191"/><line style="stroke:#181818;stroke-width:0.9;" x1="218.9079" x2="218.9079" y1="355.4191" y2="367.1191"/><line style="stroke:#181818;stroke-width:0.9;" x1="182.0079" x2="218.9079" y1="367.1191" y2="367.1191"/><polygon fill="#181818" points="191.0079,363.5191,182.0079,367.1191,191.0079,370.7191,187.4079,367.1191" style="stroke:#181818;stroke-width:0.9;"/><text fill="#000000" font-family="sans-serif" font-size="11.7" lengthAdjust="spacing" textLength="69.5887" x="187.4079" y="350.6827">tokenize DSL</text><line style="stroke:#181818;stroke-width:0.9;" x1="181.1079" x2="218.9079" y1="395.2811" y2="395.2811"/><line style="stroke:#181818;stroke-width:0.9;" x1="218.9079" x2="218.9079" y1="395.2811" y2="406.9811"/><line style="stroke:#181818;stroke-width:0.9;" x1="182.0079" x2="218.9079" y1="406.9811" y2="406.9811"/><polygon fill="#181818" points="191.0079,403.3811,182.0079,406.9811,191.0079,410.5811,187.4079,406.9811" style="stroke:#181818;stroke-width:0.9;"/><text fill="#000000" font-family="sans-serif" font-size="11.7" lengthAdjust="spacing" textLength="100.147" x="187.4079" y="390.5446">parse token stream</text><line style="stroke:#181818;stroke-width:0.9;" x1="181.1079" x2="218.9079" y1="435.143" y2="435.143"/><line style="stroke:#181818;stroke-width:0.9;" x1="218.9079" x2="218.9079" y1="435.143" y2="446.843"/><line style="stroke:#181818;stroke-width:0.9;" x1="182.0079" x2="218.9079" y1="446.843" y2="446.843"/><polygon fill="#181818" points="191.0079,443.243,182.0079,446.843,191.0079,450.443,187.4079,446.843" style="stroke:#181818;stroke-width:0.9;"/><text fill="#000000" font-family="sans-serif" font-size="11.7" lengthAdjust="spacing" textLength="52.6786" x="187.4079" y="430.4065">parse tree</text><line style="stroke:#181818;stroke-width:0.9;" x1="181.1079" x2="218.9079" y1="475.0049" y2="475.0049"/><line style="stroke:#181818;stroke-width:0.9;" x1="218.9079" x2="218.9079" y1="475.0049" y2="486.7049"/><line style="stroke:#181818;stroke-width:0.9;" x1="182.0079" x2="218.9079" y1="486.7049" y2="486.7049"/><polygon fill="#181818" points="191.0079,483.1049,182.0079,486.7049,191.0079,490.3049,187.4079,486.7049" style="stroke:#181818;stroke-width:0.9;"/><text fill="#000000" font-family="sans-serif" font-size="11.7" lengthAdjust="spacing" textLength="81.2659" x="187.4079" y="470.2685">visit(parseTree)</text><line style="stroke:#181818;stroke-width:0.9;stroke-dasharray:2.0,2.0;" x1="181.1079" x2="218.9079" y1="514.8668" y2="514.8668"/><line style="stroke:#181818;stroke-width:0.9;stroke-dasharray:2.0,2.0;" x1="218.9079" x2="218.9079" y1="514.8668" y2="526.5668"/><line style="stroke:#181818;stroke-width:0.9;stroke-dasharray:2.0,2.0;" x1="182.0079" x2="218.9079" y1="526.5668" y2="526.5668"/><polygon fill="#181818" points="191.0079,522.9668,182.0079,526.5668,191.0079,530.1668,187.4079,526.5668" style="stroke:#181818;stroke-width:0.9;"/><text fill="#000000" font-family="sans-serif" font-size="11.7" lengthAdjust="spacing" textLength="100.1527" x="187.4079" y="510.1304">interpretation result</text><line style="stroke:#181818;stroke-width:0.9;" x1="181.1079" x2="218.9079" y1="554.7287" y2="554.7287"/><line style="stroke:#181818;stroke-width:0.9;" x1="218.9079" x2="218.9079" y1="554.7287" y2="566.4287"/><line style="stroke:#181818;stroke-width:0.9;" x1="182.0079" x2="218.9079" y1="566.4287" y2="566.4287"/><polygon fill="#181818" points="191.0079,562.8287,182.0079,566.4287,191.0079,570.0287,187.4079,566.4287" style="stroke:#181818;stroke-width:0.9;"/><text fill="#000000" font-family="sans-serif" font-size="11.7" lengthAdjust="spacing" textLength="126.1749" x="187.4079" y="549.9923">Interpretation completed</text><polygon fill="#181818" points="43.9014,590.9906,34.9014,594.5906,43.9014,598.1906,40.3014,594.5906" style="stroke:#181818;stroke-width:0.9;"/><line style="stroke:#181818;stroke-width:0.9;" x1="38.5014" x2="180.2079" y1="594.5906" y2="594.5906"/><text fill="#000000" font-family="sans-serif" font-size="11.7" lengthAdjust="spacing" textLength="125.5065" x="49.3014" y="589.8542">Show success message</text><!--SRC=[XP1FJyCm3CNl_XJMJane1mGd3fmc90GIXp3kLkfj5caRnUxuy-bnIoSOQY6d9FxbvRrdOeanX3MkS1CkhoxmcP9KP8nRsNM5iMADHR99sm1GjBRWOgDS5aYA_GOo5PCecHh3yAx6DG3q4rpTZ1TuZO4JHpkgdkCwFFWXCS28_8IbCIwviDqEU1WSd6Mo_N8AFuoUHm8ezKuQepSKTR5X3kXhul4OsFFXbjpGRt18ulxtxIjoAPw_PbNQCN1IFlxpU3-dR-qBD_B1VU8vnYjqgO54jS9K_qCMzk9ca8Eez6Kv-EJSyeIRRFahVM7jaitAtftIiQrpOlkpBkrYzAw-2sig-0G0]--></g></svg>