<?xml version="1.0" encoding="us-ascii" standalone="no"?><svg xmlns="http://www.w3.org/2000/svg" xmlns:xlink="http://www.w3.org/1999/xlink" contentStyleType="text/css" height="502px" preserveAspectRatio="none" style="width:677px;height:502px;background:#FFFFFF;" version="1.1" viewBox="0 0 677 502" width="677px" zoomAndPan="magnify"><defs/><g><text fill="#000000" font-family="sans-serif" font-size="14" font-weight="bold" lengthAdjust="spacing" textLength="276" x="202.75" y="30.1074">System Sequence Diagram (SSD) - US24</text><rect fill="#FFFFFF" height="277.3281" style="stroke:#181818;stroke-width:1.0;" width="10" x="97.5" y="133.2422"/><rect fill="#FFFFFF" height="31.291" style="stroke:#181818;stroke-width:1.0;" width="10" x="326.5" y="156.5332"/><rect fill="#FFFFFF" height="75.582" style="stroke:#181818;stroke-width:1.0;" width="10" x="326.5" y="219.1152"/><rect fill="#FFFFFF" height="75.582" style="stroke:#181818;stroke-width:1.0;" width="10" x="326.5" y="325.9883"/><line style="stroke:#181818;stroke-width:0.5;stroke-dasharray:5.0,5.0;" x1="102" x2="102" y1="123.2422" y2="419.5703"/><line style="stroke:#181818;stroke-width:0.5;stroke-dasharray:5.0,5.0;" x1="331.5" x2="331.5" y1="123.2422" y2="419.5703"/><text fill="#000000" font-family="sans-serif" font-size="14" lengthAdjust="spacing" textLength="189" x="5" y="119.7285">Green Space Manager (GSM)</text><ellipse cx="102.5" cy="53.1211" fill="#E3E3E3" rx="8" ry="8" style="stroke:#181818;stroke-width:0.5;"/><path d="M102.5,61.1211 L102.5,88.1211 M89.5,69.1211 L115.5,69.1211 M102.5,88.1211 L89.5,103.1211 M102.5,88.1211 L115.5,103.1211 " fill="none" style="stroke:#181818;stroke-width:0.5;"/><text fill="#000000" font-family="sans-serif" font-size="14" lengthAdjust="spacing" textLength="189" x="5" y="433.6777">Green Space Manager (GSM)</text><ellipse cx="102.5" cy="445.6914" fill="#E3E3E3" rx="8" ry="8" style="stroke:#181818;stroke-width:0.5;"/><path d="M102.5,453.6914 L102.5,480.6914 M89.5,461.6914 L115.5,461.6914 M102.5,480.6914 L89.5,495.6914 M102.5,480.6914 L115.5,495.6914 " fill="none" style="stroke:#181818;stroke-width:0.5;"/><rect fill="#E3E3E3" height="32.6211" rx="2.5" ry="2.5" style="stroke:#181818;stroke-width:0.5;" width="64" x="299.5" y="89.6211"/><text fill="#000000" font-family="sans-serif" font-size="14" lengthAdjust="spacing" textLength="50" x="306.5" y="111.7285">:System</text><rect fill="#E3E3E3" height="32.6211" rx="2.5" ry="2.5" style="stroke:#181818;stroke-width:0.5;" width="64" x="299.5" y="418.5703"/><text fill="#000000" font-family="sans-serif" font-size="14" lengthAdjust="spacing" textLength="50" x="306.5" y="440.6777">:System</text><rect fill="#FFFFFF" height="277.3281" style="stroke:#181818;stroke-width:1.0;" width="10" x="97.5" y="133.2422"/><rect fill="#FFFFFF" height="31.291" style="stroke:#181818;stroke-width:1.0;" width="10" x="326.5" y="156.5332"/><rect fill="#FFFFFF" height="75.582" style="stroke:#181818;stroke-width:1.0;" width="10" x="326.5" y="219.1152"/><rect fill="#FFFFFF" height="75.582" style="stroke:#181818;stroke-width:1.0;" width="10" x="326.5" y="325.9883"/><polygon fill="#181818" points="314.5,152.5332,324.5,156.5332,314.5,160.5332,318.5,156.5332" style="stroke:#181818;stroke-width:1.0;"/><line style="stroke:#181818;stroke-width:1.0;" x1="107.5" x2="320.5" y1="156.5332" y2="156.5332"/><text fill="#000000" font-family="sans-serif" font-size="13" font-weight="bold" lengthAdjust="spacing" textLength="7" x="114.5" y="151.2705">1</text><text fill="#000000" font-family="sans-serif" font-size="13" lengthAdjust="spacing" textLength="139" x="125.5" y="151.2705">selects an agenda entry</text><polygon fill="#181818" points="118.5,183.8242,108.5,187.8242,118.5,191.8242,114.5,187.8242" style="stroke:#181818;stroke-width:1.0;"/><line style="stroke:#181818;stroke-width:1.0;stroke-dasharray:2.0,2.0;" x1="112.5" x2="330.5" y1="187.8242" y2="187.8242"/><text fill="#000000" font-family="sans-serif" font-size="13" font-weight="bold" lengthAdjust="spacing" textLength="7" x="124.5" y="182.5615">2</text><text fill="#000000" font-family="sans-serif" font-size="13" lengthAdjust="spacing" textLength="184" x="135.5" y="182.5615">asks user to insert a future date</text><polygon fill="#181818" points="314.5,215.1152,324.5,219.1152,314.5,223.1152,318.5,219.1152" style="stroke:#181818;stroke-width:1.0;"/><line style="stroke:#181818;stroke-width:1.0;" x1="107.5" x2="320.5" y1="219.1152" y2="219.1152"/><text fill="#000000" font-family="sans-serif" font-size="13" font-weight="bold" lengthAdjust="spacing" textLength="7" x="114.5" y="213.8525">3</text><text fill="#000000" font-family="sans-serif" font-size="13" lengthAdjust="spacing" textLength="110" x="125.5" y="213.8525">writes a future date</text><line style="stroke:#181818;stroke-width:1.0;" x1="336.5" x2="378.5" y1="250.4063" y2="250.4063"/><line style="stroke:#181818;stroke-width:1.0;" x1="378.5" x2="378.5" y1="250.4063" y2="263.4063"/><line style="stroke:#181818;stroke-width:1.0;" x1="337.5" x2="378.5" y1="263.4063" y2="263.4063"/><polygon fill="#181818" points="347.5,259.4063,337.5,263.4063,347.5,267.4063,343.5,263.4063" style="stroke:#181818;stroke-width:1.0;"/><text fill="#000000" font-family="sans-serif" font-size="13" font-weight="bold" lengthAdjust="spacing" textLength="7" x="343.5" y="245.1436">4</text><text fill="#000000" font-family="sans-serif" font-size="13" lengthAdjust="spacing" textLength="199" x="354.5" y="245.1436">checks if the selected date is valid</text><polygon fill="#181818" points="118.5,290.6973,108.5,294.6973,118.5,298.6973,114.5,294.6973" style="stroke:#181818;stroke-width:1.0;"/><line style="stroke:#181818;stroke-width:1.0;stroke-dasharray:2.0,2.0;" x1="112.5" x2="330.5" y1="294.6973" y2="294.6973"/><text fill="#000000" font-family="sans-serif" font-size="13" font-weight="bold" lengthAdjust="spacing" textLength="7" x="124.5" y="289.4346">5</text><text fill="#000000" font-family="sans-serif" font-size="13" lengthAdjust="spacing" textLength="121" x="135.5" y="289.4346">confirms date validity</text><polygon fill="#181818" points="314.5,321.9883,324.5,325.9883,314.5,329.9883,318.5,325.9883" style="stroke:#181818;stroke-width:1.0;"/><line style="stroke:#181818;stroke-width:1.0;" x1="107.5" x2="320.5" y1="325.9883" y2="325.9883"/><text fill="#000000" font-family="sans-serif" font-size="13" font-weight="bold" lengthAdjust="spacing" textLength="7" x="114.5" y="320.7256">6</text><text fill="#000000" font-family="sans-serif" font-size="13" lengthAdjust="spacing" textLength="168" x="125.5" y="320.7256">confirms entry postponement</text><line style="stroke:#181818;stroke-width:1.0;" x1="336.5" x2="378.5" y1="357.2793" y2="357.2793"/><line style="stroke:#181818;stroke-width:1.0;" x1="378.5" x2="378.5" y1="357.2793" y2="370.2793"/><line style="stroke:#181818;stroke-width:1.0;" x1="337.5" x2="378.5" y1="370.2793" y2="370.2793"/><polygon fill="#181818" points="347.5,366.2793,337.5,370.2793,347.5,374.2793,343.5,370.2793" style="stroke:#181818;stroke-width:1.0;"/><text fill="#000000" font-family="sans-serif" font-size="13" font-weight="bold" lengthAdjust="spacing" textLength="7" x="343.5" y="352.0166">7</text><text fill="#000000" font-family="sans-serif" font-size="13" lengthAdjust="spacing" textLength="316" x="354.5" y="352.0166">postpones the selected agenda entry to the future date</text><polygon fill="#181818" points="118.5,397.5703,108.5,401.5703,118.5,405.5703,114.5,401.5703" style="stroke:#181818;stroke-width:1.0;"/><line style="stroke:#181818;stroke-width:1.0;stroke-dasharray:2.0,2.0;" x1="112.5" x2="330.5" y1="401.5703" y2="401.5703"/><text fill="#000000" font-family="sans-serif" font-size="13" font-weight="bold" lengthAdjust="spacing" textLength="7" x="124.5" y="396.3076">8</text><text fill="#000000" font-family="sans-serif" font-size="13" lengthAdjust="spacing" textLength="158" x="135.5" y="396.3076">displays success message</text><!--SRC=[bL6zReCm4DvvYa-PaY5BrIb3fqYPCg4-mDKSO0LiwZidukrxa1-bQLgf3EYClzz33ZuCbAX77qDqROezGrFcGcut0xa3DLpgs34IEwNGTFS0QQcA9nyQrDG95uLwDMWvYdAFaZyp1yVOUcec-B8ijokiyLw-l1O5POqXzn-SR7OQ4nQxn1nGcYzZJy6y4vQxShzQW0Gs5EQhtlc1WcAnEHlDb-TnLl97KfxH1Uon0UktQwWDX3kh8g00CmWLWOEcSSRUs5UvwUE5kJQHIMjZTWT15Wkd4JxOe23KMNDYL4QVQHK_LNkCSqfUMPxm_yno9-1QTfR7rz2MB-sucdNW1KVgVFMyXukXzgcNCtO6UXt_4_wcCAyGGnGTOk3UZl_gS2NAzmxt_sVQzNJvkAOVhIelGqUZGB9pB8BUNgRqIwyl]--></g></svg>