<?xml version="1.0" encoding="us-ascii" standalone="no"?><svg xmlns="http://www.w3.org/2000/svg" xmlns:xlink="http://www.w3.org/1999/xlink" contentStyleType="text/css" height="488px" preserveAspectRatio="none" style="width:669px;height:488px;background:#FFFFFF;" version="1.1" viewBox="0 0 669 488" width="669px" zoomAndPan="magnify"><defs/><g><text fill="#000000" font-family="sans-serif" font-size="14" font-weight="bold" lengthAdjust="spacing" textLength="276" x="195.5" y="27.6738">System Sequence Diagram (SSD) - US03</text><rect fill="#FFFFFF" height="272.2344" style="stroke:#181818;stroke-width:1.0;" width="10" x="113" y="127.2813"/><rect fill="#FFFFFF" height="28.5234" style="stroke:#181818;stroke-width:1.0;" width="10" x="626" y="147.8047"/><rect fill="#FFFFFF" height="43.0469" style="stroke:#181818;stroke-width:1.0;" width="10" x="626" y="204.8516"/><rect fill="#FFFFFF" height="28.5234" style="stroke:#181818;stroke-width:1.0;" width="10" x="626" y="276.4219"/><rect fill="#FFFFFF" height="57.0469" style="stroke:#181818;stroke-width:1.0;" width="10" x="626" y="333.4688"/><line style="stroke:#181818;stroke-width:0.5;stroke-dasharray:5.0,5.0;" x1="118" x2="118" y1="117.2813" y2="408.5156"/><line style="stroke:#181818;stroke-width:0.5;stroke-dasharray:5.0,5.0;" x1="631" x2="631" y1="117.2813" y2="408.5156"/><text fill="#000000" font-family="sans-serif" font-size="14" lengthAdjust="spacing" textLength="220" x="5" y="114.3145">Human Resources Manager (HRM)</text><ellipse cx="118" cy="50.1406" fill="#E3E3E3" rx="8" ry="8" style="stroke:#181818;stroke-width:0.5;"/><path d="M118,58.1406 L118,85.1406 M105,66.1406 L131,66.1406 M118,85.1406 L105,100.1406 M118,85.1406 L131,100.1406 " fill="none" style="stroke:#181818;stroke-width:0.5;"/><text fill="#000000" font-family="sans-serif" font-size="14" lengthAdjust="spacing" textLength="220" x="5" y="420.1895">Human Resources Manager (HRM)</text><ellipse cx="118" cy="431.6563" fill="#E3E3E3" rx="8" ry="8" style="stroke:#181818;stroke-width:0.5;"/><path d="M118,439.6563 L118,466.6563 M105,447.6563 L131,447.6563 M118,466.6563 L105,481.6563 M118,466.6563 L131,481.6563 " fill="none" style="stroke:#181818;stroke-width:0.5;"/><rect fill="#E3E3E3" height="29.6406" rx="2.5" ry="2.5" style="stroke:#181818;stroke-width:0.5;" width="64" x="599" y="86.6406"/><text fill="#000000" font-family="sans-serif" font-size="14" lengthAdjust="spacing" textLength="50" x="606" y="106.3145">:System</text><rect fill="#E3E3E3" height="29.6406" rx="2.5" ry="2.5" style="stroke:#181818;stroke-width:0.5;" width="64" x="599" y="407.5156"/><text fill="#000000" font-family="sans-serif" font-size="14" lengthAdjust="spacing" textLength="50" x="606" y="427.1895">:System</text><rect fill="#FFFFFF" height="272.2344" style="stroke:#181818;stroke-width:1.0;" width="10" x="113" y="127.2813"/><rect fill="#FFFFFF" height="28.5234" style="stroke:#181818;stroke-width:1.0;" width="10" x="626" y="147.8047"/><rect fill="#FFFFFF" height="43.0469" style="stroke:#181818;stroke-width:1.0;" width="10" x="626" y="204.8516"/><rect fill="#FFFFFF" height="28.5234" style="stroke:#181818;stroke-width:1.0;" width="10" x="626" y="276.4219"/><rect fill="#FFFFFF" height="57.0469" style="stroke:#181818;stroke-width:1.0;" width="10" x="626" y="333.4688"/><polygon fill="#181818" points="614,143.8047,624,147.8047,614,151.8047,618,147.8047" style="stroke:#181818;stroke-width:1.0;"/><line style="stroke:#181818;stroke-width:1.0;" x1="123" x2="620" y1="147.8047" y2="147.8047"/><text fill="#000000" font-family="sans-serif" font-size="13" font-weight="bold" lengthAdjust="spacing" textLength="7" x="130" y="143.0498">1</text><text fill="#000000" font-family="sans-serif" font-size="13" lengthAdjust="spacing" textLength="241" x="141" y="143.0498">requests registration of a new collaborator</text><polygon fill="#181818" points="134,172.3281,124,176.3281,134,180.3281,130,176.3281" style="stroke:#181818;stroke-width:1.0;"/><line style="stroke:#181818;stroke-width:1.0;stroke-dasharray:2.0,2.0;" x1="128" x2="630" y1="176.3281" y2="176.3281"/><text fill="#000000" font-family="sans-serif" font-size="13" font-weight="bold" lengthAdjust="spacing" textLength="7" x="140" y="171.5732">2</text><text fill="#000000" font-family="sans-serif" font-size="13" lengthAdjust="spacing" textLength="406" x="151" y="171.5732">displays a list of available job categories and requests selection of one</text><polygon fill="#181818" points="614,200.8516,624,204.8516,614,208.8516,618,204.8516" style="stroke:#181818;stroke-width:1.0;"/><line style="stroke:#181818;stroke-width:1.0;" x1="123" x2="620" y1="204.8516" y2="204.8516"/><text fill="#000000" font-family="sans-serif" font-size="13" font-weight="bold" lengthAdjust="spacing" textLength="7" x="130" y="200.0967">3</text><text fill="#000000" font-family="sans-serif" font-size="13" lengthAdjust="spacing" textLength="199" x="141" y="200.0967">chooses and select a job category</text><polygon fill="#181818" points="134,243.8984,124,247.8984,134,251.8984,130,247.8984" style="stroke:#181818;stroke-width:1.0;"/><line style="stroke:#181818;stroke-width:1.0;stroke-dasharray:2.0,2.0;" x1="128" x2="630" y1="247.8984" y2="247.8984"/><text fill="#000000" font-family="sans-serif" font-size="13" font-weight="bold" lengthAdjust="spacing" textLength="7" x="140" y="235.8818">4</text><text fill="#000000" font-family="sans-serif" font-size="13" lengthAdjust="spacing" textLength="464" x="151" y="228.6201">asks for collaborator information (name, residence, date of birth, admission date,</text><text fill="#000000" font-family="sans-serif" font-size="13" lengthAdjust="spacing" textLength="427" x="155" y="243.1436">contact details (phone and email), document identification and its number)</text><polygon fill="#181818" points="614,272.4219,624,276.4219,614,280.4219,618,276.4219" style="stroke:#181818;stroke-width:1.0;"/><line style="stroke:#181818;stroke-width:1.0;" x1="123" x2="620" y1="276.4219" y2="276.4219"/><text fill="#000000" font-family="sans-serif" font-size="13" font-weight="bold" lengthAdjust="spacing" textLength="7" x="130" y="271.667">5</text><text fill="#000000" font-family="sans-serif" font-size="13" lengthAdjust="spacing" textLength="188" x="141" y="271.667">Supplies collaborator information</text><polygon fill="#181818" points="134,300.9453,124,304.9453,134,308.9453,130,304.9453" style="stroke:#181818;stroke-width:1.0;"/><line style="stroke:#181818;stroke-width:1.0;stroke-dasharray:2.0,2.0;" x1="128" x2="630" y1="304.9453" y2="304.9453"/><text fill="#000000" font-family="sans-serif" font-size="13" font-weight="bold" lengthAdjust="spacing" textLength="7" x="140" y="300.1904">6</text><text fill="#000000" font-family="sans-serif" font-size="13" lengthAdjust="spacing" textLength="421" x="151" y="300.1904">displays collaborator information and requests confirmation of all the data</text><polygon fill="#181818" points="614,329.4688,624,333.4688,614,337.4688,618,333.4688" style="stroke:#181818;stroke-width:1.0;"/><line style="stroke:#181818;stroke-width:1.0;" x1="123" x2="620" y1="333.4688" y2="333.4688"/><text fill="#000000" font-family="sans-serif" font-size="13" font-weight="bold" lengthAdjust="spacing" textLength="7" x="130" y="328.7139">7</text><text fill="#000000" font-family="sans-serif" font-size="13" lengthAdjust="spacing" textLength="106" x="141" y="328.7139">verifies information</text><polygon fill="#181818" points="134,357.9922,124,361.9922,134,365.9922,130,361.9922" style="stroke:#181818;stroke-width:1.0;"/><line style="stroke:#181818;stroke-width:1.0;stroke-dasharray:2.0,2.0;" x1="128" x2="625" y1="361.9922" y2="361.9922"/><text fill="#000000" font-family="sans-serif" font-size="13" font-weight="bold" lengthAdjust="spacing" textLength="7" x="140" y="357.2373">8</text><text fill="#000000" font-family="sans-serif" font-size="13" lengthAdjust="spacing" textLength="121" x="151" y="357.2373">registers collaborator</text><polygon fill="#181818" points="134,386.5156,124,390.5156,134,394.5156,130,390.5156" style="stroke:#181818;stroke-width:1.0;"/><line style="stroke:#181818;stroke-width:1.0;stroke-dasharray:2.0,2.0;" x1="128" x2="630" y1="390.5156" y2="390.5156"/><text fill="#000000" font-family="sans-serif" font-size="13" font-weight="bold" lengthAdjust="spacing" textLength="7" x="140" y="385.7607">9</text><text fill="#000000" font-family="sans-serif" font-size="13" lengthAdjust="spacing" textLength="158" x="151" y="385.7607">displays operation success</text><!--SRC=[fPCnRzim48Lt_Og39nkmWGBTF7HAWInP8cJBSgPEqjKaJ-LH3lplUvHanq4J56aqKUJnU_SUIJro731XW21HN9ya4EGqKgNNbG7T4JkgyzaJ978PO-Tl2xJ7HbuuTj2YLwggpDbAwxDc2b3Jxv6Y8xXZx4hvkgxlDh23f_hRzwh2CKiSmu6IZLsM1AlxCM24Hr8PaoE51uocds1z__YmMG4g_0o3bpDHPGraTZnWpB3QpufJnJoSa7p2JAzRAh3lyWUx7vS-z-RDEjMiDkXOSyBC4a5QG8Zq0awynuFOjAG9ScLVn63v5kBEu5UXFJIiWyUp6iuRVWAVa8rfOVsI0pXZTPBOB6DiNjjHyfRwqej4cdGQUbV-NMEk5z65EiEiXnl5y__OGJqgj7PUjxa0HviAStBhY86svaEvAJTW2qt1cua3fznl0Pl0ggMqB6pXEHeiPcl4x6MBHc4zzEPuwfo2pMmC8cuCP0TUg9bRThDSgM6BQxvDcq-dL8_3u4lu7ndwqg5_cDARepRxBLzMoWNn7d9F9H_yjA4J9Kl737tHm_mSABqriUpwXsqPQ7b7EZfxp3hl-jl67m00]--></g></svg>