<?xml version="1.0" encoding="us-ascii" standalone="no"?><svg xmlns="http://www.w3.org/2000/svg" xmlns:xlink="http://www.w3.org/1999/xlink" contentStyleType="text/css" height="868px" preserveAspectRatio="none" style="width:776px;height:868px;background:#FFFFFF;" version="1.1" viewBox="0 0 776 868" width="776px" zoomAndPan="magnify"><defs/><g><!--cluster actors--><g id="cluster_actors"><rect fill="none" height="237" rx="2.5" ry="2.5" style="stroke:#008000;stroke-width:1.0;" width="208" x="7" y="389"/><text fill="#000000" font-family="sans-serif" font-size="14" font-weight="bold" lengthAdjust="spacing" textLength="99" x="61.5" y="403.6738">System Actors</text></g><!--cluster usecases--><g id="cluster_usecases"><rect fill="none" height="855" rx="2.5" ry="2.5" style="stroke:#008000;stroke-width:1.0;" width="527" x="243" y="7"/><text fill="#000000" font-family="sans-serif" font-size="14" font-weight="bold" lengthAdjust="spacing" textLength="74" x="469.5" y="21.6738">Use Cases</text></g><!--entity Employee2--><g id="elem_Employee2"><ellipse cx="111" cy="431.5" fill="#F1F1F1" rx="8" ry="8" style="stroke:#181818;stroke-width:0.5;"/><path d="M111,439.5 L111,466.5 M98,447.5 L124,447.5 M111,466.5 L98,481.5 M111,466.5 L124,481.5 " fill="none" style="stroke:#181818;stroke-width:0.5;"/><text fill="#000000" font-family="sans-serif" font-size="14" lengthAdjust="spacing" textLength="176" x="23" y="495.6738">Human Resources Manager</text></g><!--entity Employee--><g id="elem_Employee"><ellipse cx="111" cy="542.5" fill="#F1F1F1" rx="8" ry="8" style="stroke:#181818;stroke-width:0.5;"/><path d="M111,550.5 L111,577.5 M98,558.5 L124,558.5 M111,577.5 L98,592.5 M111,577.5 L124,592.5 " fill="none" style="stroke:#181818;stroke-width:0.5;"/><text fill="#000000" font-family="sans-serif" font-size="14" lengthAdjust="spacing" textLength="92" x="65" y="606.6738">Fleet Manager</text></g><g id="elem_UC1"><ellipse cx="506.6958" cy="86.2392" fill="#F1F1F1" rx="211.6958" ry="44.7392" style="stroke:#181818;stroke-width:0.5;"/><text fill="#000000" font-family="sans-serif" font-size="14" lengthAdjust="spacing" textLength="398" x="307.6958" y="89.0927">UC01 - Registers skills that may be appointed to a collaborator.</text></g><g id="elem_UC2"><ellipse cx="506.4689" cy="186.0938" fill="#F1F1F1" rx="88.4689" ry="20.0938" style="stroke:#181818;stroke-width:0.5;"/><text fill="#000000" font-family="sans-serif" font-size="14" lengthAdjust="spacing" textLength="140" x="436.4689" y="188.9473">UC02 - Register a job.</text></g><g id="elem_UC3"><ellipse cx="506.645" cy="292.929" fill="#F1F1F1" rx="247.645" ry="51.929" style="stroke:#181818;stroke-width:0.5;"/><text fill="#000000" font-family="sans-serif" font-size="14" lengthAdjust="spacing" textLength="471" x="271.145" y="295.7825">UC03 - Registers a collaborator with a job and fundamental characteristics.</text></g><g id="elem_UC4"><ellipse cx="506.7086" cy="415.9417" fill="#F1F1F1" rx="167.7086" ry="35.9417" style="stroke:#181818;stroke-width:0.5;"/><text fill="#000000" font-family="sans-serif" font-size="14" lengthAdjust="spacing" textLength="308" x="352.7086" y="418.7952">UC4 - Assign one or more skills to a collaborator.</text></g><g id="elem_UC5"><ellipse cx="506.2665" cy="523.0533" fill="#F1F1F1" rx="165.7665" ry="35.5533" style="stroke:#181818;stroke-width:0.5;"/><text fill="#000000" font-family="sans-serif" font-size="14" lengthAdjust="spacing" textLength="304" x="354.2665" y="525.9068">UC05 - Generate a team proposal automatically.</text></g><g id="elem_UC6"><ellipse cx="506.4272" cy="615.9854" fill="#F1F1F1" rx="97.9272" ry="21.9854" style="stroke:#181818;stroke-width:0.5;"/><text fill="#000000" font-family="sans-serif" font-size="14" lengthAdjust="spacing" textLength="161" x="425.9272" y="618.839">UC06 - Register a vehicle</text></g><g id="elem_UC7"><ellipse cx="506.5452" cy="706.809" fill="#F1F1F1" rx="157.0452" ry="33.809" style="stroke:#181818;stroke-width:0.5;"/><text fill="#000000" font-family="sans-serif" font-size="14" lengthAdjust="spacing" textLength="286" x="363.5452" y="709.6626">UC07 - I wish to register a vehicle&#8217;s check-up.</text></g><g id="elem_UC8"><ellipse cx="506.4175" cy="811.0835" fill="#F1F1F1" rx="160.9175" ry="34.5835" style="stroke:#181818;stroke-width:0.5;"/><text fill="#000000" font-family="sans-serif" font-size="14" lengthAdjust="spacing" textLength="290" x="359.4175" y="813.937">UC08 - List the vehicles needing the check-up</text></g><!--link Employee2 to UC1--><g id="link_Employee2_UC1"><path d="M115.65,422.96 C124.11,356.65 151.27,220.09 235,148 C256.66,129.35 282.8,116.02 310.19,106.54 " fill="none" id="Employee2-to-UC1" style="stroke:#181818;stroke-width:1.0;"/><polygon fill="#181818" points="314.96,104.93,305.1527,104.0257,310.2238,106.5326,307.7169,111.6036,314.96,104.93" style="stroke:#181818;stroke-width:1.0;"/></g><!--link Employee2 to UC2--><g id="link_Employee2_UC2"><path d="M120.12,422.84 C133.77,368.79 166.8,271.16 235,223 C288.18,185.44 362.16,177.54 419.32,178.28 " fill="none" id="Employee2-to-UC2" style="stroke:#181818;stroke-width:1.0;"/><polygon fill="#181818" points="424.45,178.37,415.5199,174.2163,419.4507,178.2843,415.3828,182.2151,424.45,178.37" style="stroke:#181818;stroke-width:1.0;"/></g><!--link Employee2 to UC3--><g id="link_Employee2_UC3"><path d="M150.5,422.78 C173.35,402.06 203.86,377.57 235,362 C261.02,348.99 289.71,338.28 318.39,329.52 " fill="none" id="Employee2-to-UC3" style="stroke:#181818;stroke-width:1.0;"/><polygon fill="#181818" points="323.36,328.02,313.5885,326.7882,318.5728,329.4633,315.8977,334.4477,323.36,328.02" style="stroke:#181818;stroke-width:1.0;"/></g><!--link Employee2 to UC4--><g id="link_Employee2_UC4"><path d="M199.33,451.01 C244.52,445.85 300.99,439.39 353.09,433.43 " fill="none" id="Employee2-to-UC4" style="stroke:#181818;stroke-width:1.0;"/><polygon fill="#181818" points="358.12,432.85,348.7221,429.9039,353.1527,433.421,349.6356,437.8516,358.12,432.85" style="stroke:#181818;stroke-width:1.0;"/></g><!--link Employee2 to UC5--><g id="link_Employee2_UC5"><path d="M199.33,474.76 C248.67,482.53 311.48,492.43 367.35,501.23 " fill="none" id="Employee2-to-UC5" style="stroke:#181818;stroke-width:1.0;"/><polygon fill="#181818" points="372.39,502.03,364.1296,496.6667,367.452,501.2451,362.8736,504.5675,372.39,502.03" style="stroke:#181818;stroke-width:1.0;"/></g><!--link Employee to UC6--><g id="link_Employee_UC6"><path d="M157.14,577.05 C219.26,583.99 332.56,596.66 413.07,605.66 " fill="none" id="Employee-to-UC6" style="stroke:#181818;stroke-width:1.0;"/><polygon fill="#181818" points="418.33,606.25,409.8315,601.2725,413.3611,605.6931,408.9405,609.2228,418.33,606.25" style="stroke:#181818;stroke-width:1.0;"/></g><!--link Employee to UC7--><g id="link_Employee_UC7"><path d="M157.06,608.87 C179.3,625.32 207.26,643.54 235,655 C274.71,671.41 319.87,682.7 361.76,690.45 " fill="none" id="Employee-to-UC7" style="stroke:#181818;stroke-width:1.0;"/><polygon fill="#181818" points="366.85,691.38,358.7178,685.8241,361.9318,690.4793,357.2767,693.6933,366.85,691.38" style="stroke:#181818;stroke-width:1.0;"/></g><!--link Employee to UC8--><g id="link_Employee_UC8"><path d="M126.62,610.38 C145.09,653.43 181.12,721.92 235,758 C267.54,779.79 306.91,793.06 345.43,801.04 " fill="none" id="Employee-to-UC8" style="stroke:#181818;stroke-width:1.0;"/><polygon fill="#181818" points="350.61,802.08,342.5756,796.3836,345.7082,801.0939,340.9979,804.2265,350.61,802.08" style="stroke:#181818;stroke-width:1.0;"/></g><!--SRC=[TP9DRjim48NtFCN0UnUD_rS5KYFz0P9DWXnWJ4qanXGfSAW6GX0WryZrUfAEQKcG75KhSi3tlSSdyj6u2WEMKA4-OauFiR44WNH4brjIYliJ_V1LWNpVVSWexBtr0V90vDIRKfQU8aGFmUH5XCoSDCOxfNenp1uQZbJ2jOu-y0oG0TCIpjoqWTclkaG7zyI-3feOxj19l93EtvILzGtHOYZuOOdYv349Dh1_P88zCfsjQoPzshmgrQtboFxh5Sp5F3SILP992TOon08ZbDZ0WG2hoXiNAJjT5q5xQ_7W0qgMBudykBzAyVgmC9z_IzEnqsBW9A1dV-ZqYqdzuaA_72KT9u4N4uip5D1by5Ix34jo4IteGlwg5f4eZURET9bCfuoNOZnqNednDRF97NX786wb3zHtzRzMLcgIlhgurbheFycHQALiY7Hwey5NdYKxrj6NAB7HsgO3hoVhMgiq7g8tuyR_K66qfPQo6L5QoEOC6L6sGlaj1NEH7lmdtj_t3vQIIH_dTTLbt8ult-AtBNx4tmd_LfZowgXZCZYYpBWy3JiujF2TWYdwJgctVm00]--></g></svg>