<svg xmlns="http://www.w3.org/2000/svg" xmlns:xlink="http://www.w3.org/1999/xlink" contentStyleType="text/css" height="599px" preserveAspectRatio="none" style="width:1196px;height:599px;background:#FFFFFF;" version="1.1" viewBox="0 0 1196 599" width="1196px" zoomAndPan="magnify"><defs/><g><rect fill="#FFFFFF" height="404.4824" style="stroke:#181818;stroke-width:1.0;" width="10" x="37.6274" y="93.6211"/><rect fill="#FFFFFF" height="31.291" style="stroke:#181818;stroke-width:1.0;" width="10" x="186.7925" y="466.8125"/><rect fill="#FFFFFF" height="349.9004" style="stroke:#181818;stroke-width:1.0;" width="10" x="397.1436" y="116.9121"/><rect fill="#FFFFFF" height="200.0762" style="stroke:#181818;stroke-width:1.0;" width="10" x="628.1152" y="191.8242"/><rect fill="#FFFFFF" height="93.873" style="stroke:#181818;stroke-width:1.0;" width="10" x="871.5352" y="266.7363"/><rect fill="#FFFFFF" height="31.291" style="stroke:#181818;stroke-width:1.0;" width="10" x="1088.8999" y="298.0273"/><line style="stroke:#181818;stroke-width:0.5;stroke-dasharray:5.0,5.0;" x1="42" x2="42" y1="83.6211" y2="516.1035"/><line style="stroke:#181818;stroke-width:0.5;stroke-dasharray:5.0,5.0;" x1="191.2549" x2="191.2549" y1="431.7109" y2="516.1035"/><line style="stroke:#181818;stroke-width:0.5;stroke-dasharray:5.0,5.0;" x1="401.3301" x2="401.3301" y1="83.6211" y2="516.1035"/><line style="stroke:#181818;stroke-width:0.5;stroke-dasharray:5.0,5.0;" x1="632.957" x2="632.957" y1="156.7227" y2="516.1035"/><line style="stroke:#181818;stroke-width:0.5;stroke-dasharray:5.0,5.0;" x1="876.2734" x2="876.2734" y1="231.6348" y2="516.1035"/><line style="stroke:#181818;stroke-width:0.5;stroke-dasharray:5.0,5.0;" x1="1093.7969" x2="1093.7969" y1="83.6211" y2="516.1035"/><text fill="#000000" font-family="sans-serif" font-size="14" lengthAdjust="spacing" textLength="69.2549" x="5" y="80.1074">DroneTech</text><ellipse cx="42.6274" cy="13.5" fill="#E2E2F0" rx="8" ry="8" style="stroke:#181818;stroke-width:0.5;"/><path d="M42.6274,21.5 L42.6274,48.5 M29.6274,29.5 L55.6274,29.5 M42.6274,48.5 L29.6274,63.5 M42.6274,48.5 L55.6274,63.5 " fill="none" style="stroke:#181818;stroke-width:0.5;"/><text fill="#000000" font-family="sans-serif" font-size="14" lengthAdjust="spacing" textLength="69.2549" x="5" y="530.2109">DroneTech</text><ellipse cx="42.6274" cy="542.2246" fill="#E2E2F0" rx="8" ry="8" style="stroke:#181818;stroke-width:0.5;"/><path d="M42.6274,550.2246 L42.6274,577.2246 M29.6274,558.2246 L55.6274,558.2246 M42.6274,577.2246 L29.6274,592.2246 M42.6274,577.2246 L55.6274,592.2246 " fill="none" style="stroke:#181818;stroke-width:0.5;"/><rect fill="#E2E2F0" height="32.6211" rx="2.5" ry="2.5" style="stroke:#181818;stroke-width:0.5;" width="203.0752" x="90.2549" y="515.1035"/><text fill="#000000" font-family="sans-serif" font-size="14" lengthAdjust="spacing" textLength="189.0752" x="97.2549" y="537.2109">MaintenanceTypesDTOPrinter</text><rect fill="#E2E2F0" height="32.6211" rx="2.5" ry="2.5" style="stroke:#181818;stroke-width:0.5;" width="197.627" x="303.3301" y="50"/><text fill="#000000" font-family="sans-serif" font-size="14" lengthAdjust="spacing" textLength="183.627" x="310.3301" y="72.1074">ListMaintenanceTypesDTOUI</text><rect fill="#E2E2F0" height="32.6211" rx="2.5" ry="2.5" style="stroke:#181818;stroke-width:0.5;" width="197.627" x="303.3301" y="515.1035"/><text fill="#000000" font-family="sans-serif" font-size="14" lengthAdjust="spacing" textLength="183.627" x="310.3301" y="537.2109">ListMaintenanceTypesDTOUI</text><rect fill="#E2E2F0" height="32.6211" rx="2.5" ry="2.5" style="stroke:#181818;stroke-width:0.5;" width="244.3164" x="510.957" y="515.1035"/><text fill="#000000" font-family="sans-serif" font-size="14" lengthAdjust="spacing" textLength="230.3164" x="517.957" y="537.2109">ListMaintenanceTypesDTOController</text><rect fill="#E2E2F0" height="32.6211" rx="2.5" ry="2.5" style="stroke:#181818;stroke-width:0.5;" width="222.5234" x="765.2734" y="515.1035"/><text fill="#000000" font-family="sans-serif" font-size="14" lengthAdjust="spacing" textLength="208.5234" x="772.2734" y="537.2109">ListMaintenaceTypesDTOService</text><rect fill="#E2E2F0" height="32.6211" rx="2.5" ry="2.5" style="stroke:#181818;stroke-width:0.5;" width="192.2061" x="997.7969" y="50"/><text fill="#000000" font-family="sans-serif" font-size="14" lengthAdjust="spacing" textLength="178.2061" x="1004.7969" y="72.1074">MaintenanceTypeRepository</text><rect fill="#E2E2F0" height="32.6211" rx="2.5" ry="2.5" style="stroke:#181818;stroke-width:0.5;" width="192.2061" x="997.7969" y="515.1035"/><text fill="#000000" font-family="sans-serif" font-size="14" lengthAdjust="spacing" textLength="178.2061" x="1004.7969" y="537.2109">MaintenanceTypeRepository</text><rect fill="#FFFFFF" height="404.4824" style="stroke:#181818;stroke-width:1.0;" width="10" x="37.6274" y="93.6211"/><rect fill="#FFFFFF" height="31.291" style="stroke:#181818;stroke-width:1.0;" width="10" x="186.7925" y="466.8125"/><rect fill="#FFFFFF" height="349.9004" style="stroke:#181818;stroke-width:1.0;" width="10" x="397.1436" y="116.9121"/><rect fill="#FFFFFF" height="200.0762" style="stroke:#181818;stroke-width:1.0;" width="10" x="628.1152" y="191.8242"/><rect fill="#FFFFFF" height="93.873" style="stroke:#181818;stroke-width:1.0;" width="10" x="871.5352" y="266.7363"/><rect fill="#FFFFFF" height="31.291" style="stroke:#181818;stroke-width:1.0;" width="10" x="1088.8999" y="298.0273"/><polygon fill="#181818" points="385.1436,112.9121,395.1436,116.9121,385.1436,120.9121,389.1436,116.9121" style="stroke:#181818;stroke-width:1.0;"/><line style="stroke:#181818;stroke-width:1.0;" x1="47.6274" x2="391.1436" y1="116.9121" y2="116.9121"/><text fill="#000000" font-family="sans-serif" font-size="13" font-weight="bold" lengthAdjust="spacing" textLength="7.23" x="54.6274" y="111.6494">1</text><text fill="#000000" font-family="sans-serif" font-size="13" lengthAdjust="spacing" textLength="173.418" x="65.8574" y="111.6494">asks to list maintenance types</text><polygon fill="#181818" points="498.957,144.2031,508.957,148.2031,498.957,152.2031,502.957,148.2031" style="stroke:#181818;stroke-width:1.0;"/><line style="stroke:#181818;stroke-width:1.0;stroke-dasharray:2.0,2.0;" x1="407.1436" x2="504.957" y1="148.2031" y2="148.2031"/><text fill="#000000" font-family="sans-serif" font-size="13" font-weight="bold" lengthAdjust="spacing" textLength="7.23" x="414.1436" y="142.9404">2</text><text fill="#000000" font-family="sans-serif" font-size="13" lengthAdjust="spacing" textLength="44.7891" x="425.3735" y="142.9404">create()</text><rect fill="#E2E2F0" height="32.6211" rx="2.5" ry="2.5" style="stroke:#181818;stroke-width:0.5;" width="244.3164" x="510.957" y="124.9121"/><text fill="#000000" font-family="sans-serif" font-size="14" lengthAdjust="spacing" textLength="230.3164" x="517.957" y="147.0195">ListMaintenanceTypesDTOController</text><polygon fill="#181818" points="616.1152,187.8242,626.1152,191.8242,616.1152,195.8242,620.1152,191.8242" style="stroke:#181818;stroke-width:1.0;"/><line style="stroke:#181818;stroke-width:1.0;" x1="407.1436" x2="622.1152" y1="191.8242" y2="191.8242"/><text fill="#000000" font-family="sans-serif" font-size="13" font-weight="bold" lengthAdjust="spacing" textLength="7.23" x="414.1436" y="186.5615">3</text><text fill="#000000" font-family="sans-serif" font-size="13" lengthAdjust="spacing" textLength="57.0654" x="425.3735" y="186.5615">allTypes()</text><polygon fill="#181818" points="753.2734,219.1152,763.2734,223.1152,753.2734,227.1152,757.2734,223.1152" style="stroke:#181818;stroke-width:1.0;"/><line style="stroke:#181818;stroke-width:1.0;stroke-dasharray:2.0,2.0;" x1="638.1152" x2="759.2734" y1="223.1152" y2="223.1152"/><text fill="#000000" font-family="sans-serif" font-size="13" font-weight="bold" lengthAdjust="spacing" textLength="7.23" x="645.1152" y="217.8525">4</text><text fill="#000000" font-family="sans-serif" font-size="13" lengthAdjust="spacing" textLength="44.7891" x="656.3452" y="217.8525">create()</text><rect fill="#E2E2F0" height="32.6211" rx="2.5" ry="2.5" style="stroke:#181818;stroke-width:0.5;" width="222.5234" x="765.2734" y="199.8242"/><text fill="#000000" font-family="sans-serif" font-size="14" lengthAdjust="spacing" textLength="208.5234" x="772.2734" y="221.9316">ListMaintenaceTypesDTOService</text><polygon fill="#181818" points="859.5352,262.7363,869.5352,266.7363,859.5352,270.7363,863.5352,266.7363" style="stroke:#181818;stroke-width:1.0;"/><line style="stroke:#181818;stroke-width:1.0;" x1="638.1152" x2="865.5352" y1="266.7363" y2="266.7363"/><text fill="#000000" font-family="sans-serif" font-size="13" font-weight="bold" lengthAdjust="spacing" textLength="7.23" x="645.1152" y="261.4736">5</text><text fill="#000000" font-family="sans-serif" font-size="13" lengthAdjust="spacing" textLength="148.8335" x="656.3452" y="261.4736">listAllMaintenanceTypes()</text><polygon fill="#181818" points="1076.8999,294.0273,1086.8999,298.0273,1076.8999,302.0273,1080.8999,298.0273" style="stroke:#181818;stroke-width:1.0;"/><line style="stroke:#181818;stroke-width:1.0;" x1="881.5352" x2="1082.8999" y1="298.0273" y2="298.0273"/><text fill="#000000" font-family="sans-serif" font-size="13" font-weight="bold" lengthAdjust="spacing" textLength="7.23" x="888.5352" y="292.7646">6</text><text fill="#000000" font-family="sans-serif" font-size="13" lengthAdjust="spacing" textLength="44.0654" x="899.7651" y="292.7646">findAll()</text><polygon fill="#181818" points="892.5352,325.3184,882.5352,329.3184,892.5352,333.3184,888.5352,329.3184" style="stroke:#181818;stroke-width:1.0;"/><line style="stroke:#181818;stroke-width:1.0;stroke-dasharray:2.0,2.0;" x1="886.5352" x2="1092.8999" y1="329.3184" y2="329.3184"/><text fill="#000000" font-family="sans-serif" font-size="13" font-weight="bold" lengthAdjust="spacing" textLength="7.23" x="898.5352" y="324.0557">7</text><text fill="#000000" font-family="sans-serif" font-size="13" lengthAdjust="spacing" textLength="166.1943" x="909.7651" y="324.0557">List&lt;MaintenanceTypeDTO&gt;</text><polygon fill="#181818" points="649.1152,356.6094,639.1152,360.6094,649.1152,364.6094,645.1152,360.6094" style="stroke:#181818;stroke-width:1.0;"/><line style="stroke:#181818;stroke-width:1.0;stroke-dasharray:2.0,2.0;" x1="643.1152" x2="875.5352" y1="360.6094" y2="360.6094"/><text fill="#000000" font-family="sans-serif" font-size="13" font-weight="bold" lengthAdjust="spacing" textLength="7.23" x="655.1152" y="355.3467">8</text><text fill="#000000" font-family="sans-serif" font-size="13" lengthAdjust="spacing" textLength="166.1943" x="666.3452" y="355.3467">List&lt;MaintenanceTypeDTO&gt;</text><polygon fill="#181818" points="418.1436,387.9004,408.1436,391.9004,418.1436,395.9004,414.1436,391.9004" style="stroke:#181818;stroke-width:1.0;"/><line style="stroke:#181818;stroke-width:1.0;stroke-dasharray:2.0,2.0;" x1="412.1436" x2="632.1152" y1="391.9004" y2="391.9004"/><text fill="#000000" font-family="sans-serif" font-size="13" font-weight="bold" lengthAdjust="spacing" textLength="7.23" x="424.1436" y="386.6377">9</text><text fill="#000000" font-family="sans-serif" font-size="13" lengthAdjust="spacing" textLength="166.1943" x="435.3735" y="386.6377">List&lt;MaintenanceTypeDTO&gt;</text><polygon fill="#181818" points="304.3301,419.1914,294.3301,423.1914,304.3301,427.1914,300.3301,423.1914" style="stroke:#181818;stroke-width:1.0;"/><line style="stroke:#181818;stroke-width:1.0;stroke-dasharray:2.0,2.0;" x1="298.3301" x2="396.1436" y1="423.1914" y2="423.1914"/><text fill="#000000" font-family="sans-serif" font-size="13" font-weight="bold" lengthAdjust="spacing" textLength="14.46" x="310.3301" y="417.9287">10</text><text fill="#000000" font-family="sans-serif" font-size="13" lengthAdjust="spacing" textLength="44.7891" x="328.79" y="417.9287">create()</text><rect fill="#E2E2F0" height="32.6211" rx="2.5" ry="2.5" style="stroke:#181818;stroke-width:0.5;" width="203.0752" x="90.2549" y="399.9004"/><text fill="#000000" font-family="sans-serif" font-size="14" lengthAdjust="spacing" textLength="189.0752" x="97.2549" y="422.0078">MaintenanceTypesDTOPrinter</text><polygon fill="#181818" points="207.7925,462.8125,197.7925,466.8125,207.7925,470.8125,203.7925,466.8125" style="stroke:#181818;stroke-width:1.0;"/><line style="stroke:#181818;stroke-width:1.0;stroke-dasharray:2.0,2.0;" x1="201.7925" x2="401.1436" y1="466.8125" y2="466.8125"/><text fill="#000000" font-family="sans-serif" font-size="13" font-weight="bold" lengthAdjust="spacing" textLength="14.46" x="213.7925" y="461.5498">11</text><text fill="#000000" font-family="sans-serif" font-size="13" lengthAdjust="spacing" textLength="109.8398" x="232.2524" y="461.5498">maintenanceTypes</text><polygon fill="#181818" points="53.6274,494.1035,43.6274,498.1035,53.6274,502.1035,49.6274,498.1035" style="stroke:#181818;stroke-width:1.0;"/><line style="stroke:#181818;stroke-width:1.0;" x1="47.6274" x2="190.7925" y1="498.1035" y2="498.1035"/><text fill="#000000" font-family="sans-serif" font-size="13" font-weight="bold" lengthAdjust="spacing" textLength="14.46" x="59.6274" y="492.8408">12</text><text fill="#000000" font-family="sans-serif" font-size="13" lengthAdjust="spacing" textLength="66.4663" x="78.0874" y="492.8408">displays list</text><!--SRC=[ZPFFRW8X4CRlFCN4YsqJNy0q9erwCB7Lh6llo8vAP643QElRTy1r_rLRkS7CzsFc6-YxWzG5jpo7t6WZzjRa2DuUaTMHWei3t-7AdnM2HU6vtgbcWjlpp7n9lOCjLmuPuqTlz37Ve6MilvSPmjOOlp7VZ0jlBFGcrcXCKUnxm1rKEqOyBuKikFRGU-TIUzHS2qpF1Rf9kbZQS6IZQfdCFj9fqjRCfVCtTEjPbAnd3sMFZVRMA5LUD4wJ-NrTBLkXFKc1KRDAFiT_TfDWOPmaCyunFvak5oou8q_SOyCHe5NjO32Y7c18YeC3Rq1H8P3NPF2XbYYgMDGqb8kq0qA4XbvU22CiKiRJSolX4W-NA1LRQyGhQFJaUXhp0pXqVHjyIRbaK3pK_QPKr_k6e7LRTBCPYHZ21Ti8jvKw8rn7ta94WxlHA1_KPOMvldQAei6EVWapl0- -r5RR-12q0MmrMraRn_ulge5fJQWSVFbbxi- -pg6Cl3CTrhcXV5ZL_leXm-6LGi3wzGuXawvG_EpY0-Zohlh6KQNz0G00]--></g></svg>