<svg xmlns="http://www.w3.org/2000/svg" xmlns:xlink="http://www.w3.org/1999/xlink" contentStyleType="text/css" height="682px" preserveAspectRatio="none" style="width:763px;height:682px;background:#FFFFFF;" version="1.1" viewBox="0 0 763 682" width="763px" zoomAndPan="magnify"><defs/><g><!--class MaintenanceType--><g id="elem_MaintenanceType"><rect codeLine="5" fill="#F1F1F1" height="66.6211" id="MaintenanceType" rx="2.5" ry="2.5" style="stroke:#181818;stroke-width:0.5;" width="219.3477" x="7" y="590.5"/><ellipse cx="56.7793" cy="606.5" fill="#ADD1B2" rx="11" ry="11" style="stroke:#181818;stroke-width:1.0;"/><path d="M59.5449,602.375 Q59.7012,602.1563 59.8887,602.0469 Q60.0762,601.9375 60.2949,601.9375 Q60.6699,601.9375 60.9043,602.2031 Q61.1387,602.4531 61.1387,603.0625 L61.1387,604.5156 Q61.1387,605.125 60.9043,605.3906 Q60.6699,605.6563 60.2949,605.6563 Q59.9512,605.6563 59.748,605.4531 Q59.5449,605.2656 59.4355,604.75 Q59.3887,604.3906 59.2012,604.2031 Q58.873,603.8281 58.2637,603.6094 Q57.6543,603.3906 57.0293,603.3906 Q56.2637,603.3906 55.623,603.7188 Q54.998,604.0469 54.498,604.7969 Q54.0137,605.5469 54.0137,606.5781 L54.0137,607.6719 Q54.0137,608.9063 54.9043,609.7344 Q55.7949,610.5469 57.3887,610.5469 Q58.3262,610.5469 58.9824,610.2969 Q59.373,610.1406 59.7949,609.7031 Q60.0605,609.4375 60.2012,609.3594 Q60.3574,609.2813 60.5605,609.2813 Q60.8887,609.2813 61.1387,609.5469 Q61.4043,609.7969 61.4043,610.1406 Q61.4043,610.4844 61.0605,610.8906 Q60.5605,611.4688 59.7637,611.7969 Q58.6855,612.25 57.3887,612.25 Q55.873,612.25 54.6699,611.625 Q53.6855,611.125 52.998,610.0625 Q52.3105,608.9844 52.3105,607.7031 L52.3105,606.5469 Q52.3105,605.2188 52.9199,604.0781 Q53.5449,602.9219 54.6387,602.3125 Q55.7324,601.6875 56.9668,601.6875 Q57.7012,601.6875 58.3418,601.8594 Q58.998,602.0156 59.5449,602.375 Z " fill="#000000"/><text fill="#000000" font-family="sans-serif" font-size="14" lengthAdjust="spacing" textLength="111.2891" x="77.2793" y="612.2969">MaintenanceType</text><line style="stroke:#181818;stroke-width:0.5;" x1="8" x2="225.3477" y1="622.5" y2="622.5"/><line style="stroke:#181818;stroke-width:0.5;" x1="8" x2="225.3477" y1="630.5" y2="630.5"/><text fill="#000000" font-family="sans-serif" font-size="14" lengthAdjust="spacing" textLength="207.3477" x="13" y="649.6074">+toDTO(): MaintenanceTypeDTO</text></g><!--class MaintenanceTypeDTO--><g id="elem_MaintenanceTypeDTO"><rect codeLine="9" fill="#F1F1F1" height="122.4844" id="MaintenanceTypeDTO" rx="2.5" ry="2.5" style="stroke:#181818;stroke-width:0.5;" width="172.8408" x="532" y="390"/><ellipse cx="547" cy="406" fill="#ADD1B2" rx="11" ry="11" style="stroke:#181818;stroke-width:1.0;"/><path d="M549.7656,401.875 Q549.9219,401.6563 550.1094,401.5469 Q550.2969,401.4375 550.5156,401.4375 Q550.8906,401.4375 551.125,401.7031 Q551.3594,401.9531 551.3594,402.5625 L551.3594,404.0156 Q551.3594,404.625 551.125,404.8906 Q550.8906,405.1563 550.5156,405.1563 Q550.1719,405.1563 549.9688,404.9531 Q549.7656,404.7656 549.6563,404.25 Q549.6094,403.8906 549.4219,403.7031 Q549.0938,403.3281 548.4844,403.1094 Q547.875,402.8906 547.25,402.8906 Q546.4844,402.8906 545.8438,403.2188 Q545.2188,403.5469 544.7188,404.2969 Q544.2344,405.0469 544.2344,406.0781 L544.2344,407.1719 Q544.2344,408.4063 545.125,409.2344 Q546.0156,410.0469 547.6094,410.0469 Q548.5469,410.0469 549.2031,409.7969 Q549.5938,409.6406 550.0156,409.2031 Q550.2813,408.9375 550.4219,408.8594 Q550.5781,408.7813 550.7813,408.7813 Q551.1094,408.7813 551.3594,409.0469 Q551.625,409.2969 551.625,409.6406 Q551.625,409.9844 551.2813,410.3906 Q550.7813,410.9688 549.9844,411.2969 Q548.9063,411.75 547.6094,411.75 Q546.0938,411.75 544.8906,411.125 Q543.9063,410.625 543.2188,409.5625 Q542.5313,408.4844 542.5313,407.2031 L542.5313,406.0469 Q542.5313,404.7188 543.1406,403.5781 Q543.7656,402.4219 544.8594,401.8125 Q545.9531,401.1875 547.1875,401.1875 Q547.9219,401.1875 548.5625,401.3594 Q549.2188,401.5156 549.7656,401.875 Z " fill="#000000"/><text fill="#000000" font-family="sans-serif" font-size="14" lengthAdjust="spacing" textLength="140.8408" x="561" y="411.7969">MaintenanceTypeDTO</text><line style="stroke:#181818;stroke-width:0.5;" x1="533" x2="703.8408" y1="422" y2="422"/><text fill="#000000" font-family="sans-serif" font-size="14" lengthAdjust="spacing" textLength="84.0342" x="538" y="441.1074">-name: String</text><text fill="#000000" font-family="sans-serif" font-size="14" lengthAdjust="spacing" textLength="116.7168" x="538" y="459.7285">-description: String</text><line style="stroke:#181818;stroke-width:0.5;" x1="533" x2="703.8408" y1="467.2422" y2="467.2422"/><text fill="#000000" font-family="sans-serif" font-size="14" lengthAdjust="spacing" textLength="118.6582" x="538" y="486.3496">+getName(): String</text><text fill="#000000" font-family="sans-serif" font-size="14" lengthAdjust="spacing" textLength="151.3408" x="538" y="504.9707">+getDescription(): String</text></g><!--class ListMaintenanceTypesDTOUI--><g id="elem_ListMaintenanceTypesDTOUI"><rect codeLine="17" fill="#F1F1F1" height="178.3477" id="ListMaintenanceTypesDTOUI" rx="2.5" ry="2.5" style="stroke:#181818;stroke-width:0.5;" width="334.9092" x="291" y="7"/><ellipse cx="362.3911" cy="23" fill="#ADD1B2" rx="11" ry="11" style="stroke:#181818;stroke-width:1.0;"/><path d="M365.1567,18.875 Q365.313,18.6563 365.5005,18.5469 Q365.688,18.4375 365.9067,18.4375 Q366.2817,18.4375 366.5161,18.7031 Q366.7505,18.9531 366.7505,19.5625 L366.7505,21.0156 Q366.7505,21.625 366.5161,21.8906 Q366.2817,22.1563 365.9067,22.1563 Q365.563,22.1563 365.3599,21.9531 Q365.1567,21.7656 365.0474,21.25 Q365.0005,20.8906 364.813,20.7031 Q364.4849,20.3281 363.8755,20.1094 Q363.2661,19.8906 362.6411,19.8906 Q361.8755,19.8906 361.2349,20.2188 Q360.6099,20.5469 360.1099,21.2969 Q359.6255,22.0469 359.6255,23.0781 L359.6255,24.1719 Q359.6255,25.4063 360.5161,26.2344 Q361.4067,27.0469 363.0005,27.0469 Q363.938,27.0469 364.5942,26.7969 Q364.9849,26.6406 365.4067,26.2031 Q365.6724,25.9375 365.813,25.8594 Q365.9692,25.7813 366.1724,25.7813 Q366.5005,25.7813 366.7505,26.0469 Q367.0161,26.2969 367.0161,26.6406 Q367.0161,26.9844 366.6724,27.3906 Q366.1724,27.9688 365.3755,28.2969 Q364.2974,28.75 363.0005,28.75 Q361.4849,28.75 360.2817,28.125 Q359.2974,27.625 358.6099,26.5625 Q357.9224,25.4844 357.9224,24.2031 L357.9224,23.0469 Q357.9224,21.7188 358.5317,20.5781 Q359.1567,19.4219 360.2505,18.8125 Q361.3442,18.1875 362.5786,18.1875 Q363.313,18.1875 363.9536,18.3594 Q364.6099,18.5156 365.1567,18.875 Z " fill="#000000"/><text fill="#000000" font-family="sans-serif" font-size="14" lengthAdjust="spacing" textLength="183.627" x="382.8911" y="28.7969">ListMaintenanceTypesDTOUI</text><line style="stroke:#181818;stroke-width:0.5;" x1="292" x2="624.9092" y1="39" y2="39"/><text fill="#000000" font-family="sans-serif" font-size="14" lengthAdjust="spacing" textLength="322.9092" x="297" y="58.1074">-theController: ListMaintenanceTypesDTOController</text><line style="stroke:#181818;stroke-width:0.5;" x1="292" x2="624.9092" y1="65.6211" y2="65.6211"/><text fill="#000000" font-family="sans-serif" font-size="14" lengthAdjust="spacing" textLength="285.9746" x="297" y="84.7285">+elements(): Iterable&lt;MaintenanceTypeDTO&gt;</text><text fill="#000000" font-family="sans-serif" font-size="14" lengthAdjust="spacing" textLength="312.4092" x="297" y="103.3496">+elementPrinter(): Visitor&lt;MaintenanceTypeDTO&gt;</text><text fill="#000000" font-family="sans-serif" font-size="14" lengthAdjust="spacing" textLength="149.0029" x="297" y="121.9707">+elementName(): String</text><text fill="#000000" font-family="sans-serif" font-size="14" lengthAdjust="spacing" textLength="124.8789" x="297" y="140.5918">+listHeader(): String</text><text fill="#000000" font-family="sans-serif" font-size="14" lengthAdjust="spacing" textLength="156.7822" x="297" y="159.2129">+emptyMessage(): String</text><text fill="#000000" font-family="sans-serif" font-size="14" lengthAdjust="spacing" textLength="114.7891" x="297" y="177.834">+headline(): String</text></g><!--class ListMaintenanceTypesDTOController--><g id="elem_ListMaintenanceTypesDTOController"><rect codeLine="38" fill="#F1F1F1" height="85.2422" id="ListMaintenanceTypesDTOController" rx="2.5" ry="2.5" style="stroke:#181818;stroke-width:0.5;" width="293.2988" x="153" y="245"/><ellipse cx="181.9421" cy="261" fill="#ADD1B2" rx="11" ry="11" style="stroke:#181818;stroke-width:1.0;"/><path d="M184.7077,256.875 Q184.864,256.6563 185.0515,256.5469 Q185.239,256.4375 185.4577,256.4375 Q185.8327,256.4375 186.0671,256.7031 Q186.3015,256.9531 186.3015,257.5625 L186.3015,259.0156 Q186.3015,259.625 186.0671,259.8906 Q185.8327,260.1563 185.4577,260.1563 Q185.114,260.1563 184.9108,259.9531 Q184.7077,259.7656 184.5983,259.25 Q184.5515,258.8906 184.364,258.7031 Q184.0358,258.3281 183.4265,258.1094 Q182.8171,257.8906 182.1921,257.8906 Q181.4265,257.8906 180.7858,258.2188 Q180.1608,258.5469 179.6608,259.2969 Q179.1765,260.0469 179.1765,261.0781 L179.1765,262.1719 Q179.1765,263.4063 180.0671,264.2344 Q180.9577,265.0469 182.5515,265.0469 Q183.489,265.0469 184.1452,264.7969 Q184.5358,264.6406 184.9577,264.2031 Q185.2233,263.9375 185.364,263.8594 Q185.5202,263.7813 185.7233,263.7813 Q186.0515,263.7813 186.3015,264.0469 Q186.5671,264.2969 186.5671,264.6406 Q186.5671,264.9844 186.2233,265.3906 Q185.7233,265.9688 184.9265,266.2969 Q183.8483,266.75 182.5515,266.75 Q181.0358,266.75 179.8327,266.125 Q178.8483,265.625 178.1608,264.5625 Q177.4733,263.4844 177.4733,262.2031 L177.4733,261.0469 Q177.4733,259.7188 178.0827,258.5781 Q178.7077,257.4219 179.8015,256.8125 Q180.8952,256.1875 182.1296,256.1875 Q182.864,256.1875 183.5046,256.3594 Q184.1608,256.5156 184.7077,256.875 Z " fill="#000000"/><text fill="#000000" font-family="sans-serif" font-size="14" lengthAdjust="spacing" textLength="230.3164" x="199.0403" y="266.7969">ListMaintenanceTypesDTOController</text><line style="stroke:#181818;stroke-width:0.5;" x1="154" x2="445.2988" y1="277" y2="277"/><text fill="#000000" font-family="sans-serif" font-size="14" lengthAdjust="spacing" textLength="265.3096" x="159" y="296.1074">-service: ListMaintenaceTypesDTOService</text><line style="stroke:#181818;stroke-width:0.5;" x1="154" x2="445.2988" y1="303.6211" y2="303.6211"/><text fill="#000000" font-family="sans-serif" font-size="14" lengthAdjust="spacing" textLength="281.2988" x="159" y="322.7285">+allTypes(): Iterable&lt;MaintenanceTypeDTO&gt;</text></g><!--class MaintenanceTypesDTOPrinter--><g id="elem_MaintenanceTypesDTOPrinter"><rect codeLine="31" fill="#F1F1F1" height="66.6211" id="MaintenanceTypesDTOPrinter" rx="2.5" ry="2.5" style="stroke:#181818;stroke-width:0.5;" width="275.375" x="481" y="254"/><ellipse cx="520.4349" cy="270" fill="#ADD1B2" rx="11" ry="11" style="stroke:#181818;stroke-width:1.0;"/><path d="M523.2005,265.875 Q523.3568,265.6563 523.5443,265.5469 Q523.7318,265.4375 523.9505,265.4375 Q524.3255,265.4375 524.5599,265.7031 Q524.7943,265.9531 524.7943,266.5625 L524.7943,268.0156 Q524.7943,268.625 524.5599,268.8906 Q524.3255,269.1563 523.9505,269.1563 Q523.6068,269.1563 523.4037,268.9531 Q523.2005,268.7656 523.0912,268.25 Q523.0443,267.8906 522.8568,267.7031 Q522.5287,267.3281 521.9193,267.1094 Q521.3099,266.8906 520.6849,266.8906 Q519.9193,266.8906 519.2787,267.2188 Q518.6537,267.5469 518.1537,268.2969 Q517.6693,269.0469 517.6693,270.0781 L517.6693,271.1719 Q517.6693,272.4063 518.5599,273.2344 Q519.4505,274.0469 521.0443,274.0469 Q521.9818,274.0469 522.638,273.7969 Q523.0287,273.6406 523.4505,273.2031 Q523.7162,272.9375 523.8568,272.8594 Q524.013,272.7813 524.2162,272.7813 Q524.5443,272.7813 524.7943,273.0469 Q525.0599,273.2969 525.0599,273.6406 Q525.0599,273.9844 524.7162,274.3906 Q524.2162,274.9688 523.4193,275.2969 Q522.3412,275.75 521.0443,275.75 Q519.5287,275.75 518.3255,275.125 Q517.3412,274.625 516.6537,273.5625 Q515.9662,272.4844 515.9662,271.2031 L515.9662,270.0469 Q515.9662,268.7188 516.5755,267.5781 Q517.2005,266.4219 518.2943,265.8125 Q519.388,265.1875 520.6224,265.1875 Q521.3568,265.1875 521.9974,265.3594 Q522.6537,265.5156 523.2005,265.875 Z " fill="#000000"/><text fill="#000000" font-family="sans-serif" font-size="14" lengthAdjust="spacing" textLength="189.0752" x="539.8649" y="275.7969">MaintenanceTypesDTOPrinter</text><line style="stroke:#181818;stroke-width:0.5;" x1="482" x2="755.375" y1="286" y2="286"/><line style="stroke:#181818;stroke-width:0.5;" x1="482" x2="755.375" y1="294" y2="294"/><text fill="#000000" font-family="sans-serif" font-size="14" lengthAdjust="spacing" textLength="263.375" x="487" y="313.1074">+visit(visitee: MaintenanceTypeDTO): void</text></g><!--class ListMaintenaceTypesDTOService--><g id="elem_ListMaintenaceTypesDTOService"><rect codeLine="46" fill="#F1F1F1" height="103.8633" id="ListMaintenaceTypesDTOService" rx="2.5" ry="2.5" style="stroke:#181818;stroke-width:0.5;" width="392.126" x="103.5" y="399"/><ellipse cx="191.0513" cy="415" fill="#ADD1B2" rx="11" ry="11" style="stroke:#181818;stroke-width:1.0;"/><path d="M193.8169,410.875 Q193.9731,410.6563 194.1606,410.5469 Q194.3481,410.4375 194.5669,410.4375 Q194.9419,410.4375 195.1763,410.7031 Q195.4106,410.9531 195.4106,411.5625 L195.4106,413.0156 Q195.4106,413.625 195.1763,413.8906 Q194.9419,414.1563 194.5669,414.1563 Q194.2231,414.1563 194.02,413.9531 Q193.8169,413.7656 193.7075,413.25 Q193.6606,412.8906 193.4731,412.7031 Q193.145,412.3281 192.5356,412.1094 Q191.9263,411.8906 191.3013,411.8906 Q190.5356,411.8906 189.895,412.2188 Q189.27,412.5469 188.77,413.2969 Q188.2856,414.0469 188.2856,415.0781 L188.2856,416.1719 Q188.2856,417.4063 189.1763,418.2344 Q190.0669,419.0469 191.6606,419.0469 Q192.5981,419.0469 193.2544,418.7969 Q193.645,418.6406 194.0669,418.2031 Q194.3325,417.9375 194.4731,417.8594 Q194.6294,417.7813 194.8325,417.7813 Q195.1606,417.7813 195.4106,418.0469 Q195.6763,418.2969 195.6763,418.6406 Q195.6763,418.9844 195.3325,419.3906 Q194.8325,419.9688 194.0356,420.2969 Q192.9575,420.75 191.6606,420.75 Q190.145,420.75 188.9419,420.125 Q187.9575,419.625 187.27,418.5625 Q186.5825,417.4844 186.5825,416.2031 L186.5825,415.0469 Q186.5825,413.7188 187.1919,412.5781 Q187.8169,411.4219 188.9106,410.8125 Q190.0044,410.1875 191.2388,410.1875 Q191.9731,410.1875 192.6138,410.3594 Q193.27,410.5156 193.8169,410.875 Z " fill="#000000"/><text fill="#000000" font-family="sans-serif" font-size="14" lengthAdjust="spacing" textLength="208.5234" x="211.5513" y="420.7969">ListMaintenaceTypesDTOService</text><line style="stroke:#181818;stroke-width:0.5;" x1="104.5" x2="494.626" y1="431" y2="431"/><text fill="#000000" font-family="sans-serif" font-size="14" lengthAdjust="spacing" textLength="175.0889" x="109.5" y="450.1074">-authz: AuthorizationService</text><text fill="#000000" font-family="sans-serif" font-size="14" lengthAdjust="spacing" textLength="368.8535" x="109.5" y="468.7285">-maintenanceTypeRepository: MaintenanceTypeRepository</text><line style="stroke:#181818;stroke-width:0.5;" x1="104.5" x2="494.626" y1="476.2422" y2="476.2422"/><text fill="#000000" font-family="sans-serif" font-size="14" lengthAdjust="spacing" textLength="380.126" x="109.5" y="495.3496">+listAllMaintenanceTypes(): Iterable&lt;MaintenanceTypeDTO&gt;</text></g><!--class MaintenanceTypeRepository--><g id="elem_MaintenanceTypeRepository"><rect codeLine="56" fill="#F1F1F1" height="103.8633" id="MaintenanceTypeRepository" rx="2.5" ry="2.5" style="stroke:#181818;stroke-width:0.5;" width="445.0703" x="261" y="572"/><ellipse cx="390.1821" cy="588" fill="#B4A7E5" rx="11" ry="11" style="stroke:#181818;stroke-width:1.0;"/><path d="M391.1353,584.6406 L391.1353,591.2969 L392.854,591.2969 Q393.4634,591.2969 393.729,591.5313 Q393.9946,591.7656 393.9946,592.1563 Q393.9946,592.5313 393.729,592.7656 Q393.4634,593 392.854,593 L387.7134,593 Q387.104,593 386.8384,592.7656 Q386.5728,592.5313 386.5728,592.1406 Q386.5728,591.7656 386.8384,591.5313 Q387.104,591.2969 387.7134,591.2969 L389.4321,591.2969 L389.4321,584.6406 L387.7134,584.6406 Q387.104,584.6406 386.8384,584.4063 Q386.5728,584.1719 386.5728,583.7813 Q386.5728,583.4063 386.8384,583.1719 Q387.104,582.9375 387.7134,582.9375 L392.854,582.9375 Q393.4634,582.9375 393.729,583.1719 Q393.9946,583.4063 393.9946,583.7813 Q393.9946,584.1719 393.729,584.4063 Q393.4634,584.6406 392.854,584.6406 L391.1353,584.6406 Z " fill="#000000"/><text fill="#000000" font-family="sans-serif" font-size="14" font-style="italic" lengthAdjust="spacing" textLength="178.2061" x="410.6821" y="593.7969">MaintenanceTypeRepository</text><line style="stroke:#181818;stroke-width:0.5;" x1="262" x2="705.0703" y1="604" y2="604"/><line style="stroke:#181818;stroke-width:0.5;" x1="262" x2="705.0703" y1="612" y2="612"/><text fill="#000000" font-family="sans-serif" font-size="14" lengthAdjust="spacing" textLength="433.0703" x="267" y="631.1074">+findByNameIgnoreCase(name: String): Optional&lt;MaintenanceType&gt;</text><text fill="#000000" font-family="sans-serif" font-size="14" lengthAdjust="spacing" textLength="275.8711" x="267" y="649.7285">+findAllTypes(): Iterable&lt;MaintenanceType&gt;</text><text fill="#000000" font-family="sans-serif" font-size="14" lengthAdjust="spacing" textLength="237.7471" x="267" y="668.3496">+findAll(): Iterable&lt;MaintenanceType&gt;</text></g><!--link ListMaintenanceTypesDTOUI to ListMaintenanceTypesDTOController--><g id="link_ListMaintenanceTypesDTOUI_ListMaintenanceTypesDTOController"><path codeLine="27" d="M384.59,185.09 C367.07,205.97 353.047,222.6839 338.227,240.3439 " fill="none" id="ListMaintenanceTypesDTOUI-to-ListMaintenanceTypesDTOController" style="stroke:#181818;stroke-width:1.0;"/><polygon fill="#181818" points="334.37,244.94,343.2195,240.6172,337.5841,241.1099,337.0914,235.4746,334.37,244.94" style="stroke:#181818;stroke-width:1.0;"/></g><!--link ListMaintenanceTypesDTOUI to MaintenanceTypesDTOPrinter--><g id="link_ListMaintenanceTypesDTOUI_MaintenanceTypesDTOPrinter"><path codeLine="28" d="M532.88,185.09 C553.61,209.64 570.9685,230.2061 587.1085,249.3161 " fill="none" id="ListMaintenanceTypesDTOUI-to-MaintenanceTypesDTOPrinter" style="stroke:#181818;stroke-width:1.0;"/><polygon fill="#181818" points="590.98,253.9,588.2287,244.4432,587.7538,250.0801,582.1169,249.6052,590.98,253.9" style="stroke:#181818;stroke-width:1.0;"/></g><!--link MaintenanceTypesDTOPrinter to MaintenanceTypeDTO--><g id="link_MaintenanceTypesDTOPrinter_MaintenanceTypeDTO"><path codeLine="35" d="M618.5,321.18 C618.5,340.91 618.5,360.65 618.5,383.93 " fill="none" id="MaintenanceTypesDTOPrinter-to-MaintenanceTypeDTO" style="stroke:#181818;stroke-width:1.0;"/><polygon fill="#181818" points="618.5,389.93,622.5,380.93,618.5,384.93,614.5,380.93,618.5,389.93" style="stroke:#181818;stroke-width:1.0;"/></g><!--link ListMaintenanceTypesDTOController to ListMaintenaceTypesDTOService--><g id="link_ListMaintenanceTypesDTOController_ListMaintenaceTypesDTOService"><path codeLine="43" d="M299.5,330.09 C299.5,351.03 299.5,370.59 299.5,392.73 " fill="none" id="ListMaintenanceTypesDTOController-to-ListMaintenaceTypesDTOService" style="stroke:#181818;stroke-width:1.0;"/><polygon fill="#181818" points="299.5,398.73,303.5,389.73,299.5,393.73,295.5,389.73,299.5,398.73" style="stroke:#181818;stroke-width:1.0;"/></g><!--link ListMaintenaceTypesDTOService to MaintenanceTypeRepository--><g id="link_ListMaintenaceTypesDTOService_MaintenanceTypeRepository"><path codeLine="52" d="M354.71,503.31 C377.99,524.95 400.6554,546.005 423.9354,567.645 " fill="none" id="ListMaintenaceTypesDTOService-to-MaintenanceTypeRepository" style="stroke:#181818;stroke-width:1.0;"/><polygon fill="#181818" points="428.33,571.73,424.4614,562.6727,424.6678,568.3258,419.0147,568.5322,428.33,571.73" style="stroke:#181818;stroke-width:1.0;"/></g><!--link ListMaintenaceTypesDTOService to MaintenanceType--><g id="link_ListMaintenaceTypesDTOService_MaintenanceType"><path codeLine="53" d="M244.59,503.31 C214.38,531.54 182.1742,561.6338 155.8442,586.2338 " fill="none" id="ListMaintenaceTypesDTOService-to-MaintenanceType" style="stroke:#181818;stroke-width:1.0;"/><polygon fill="#181818" points="151.46,590.33,160.7671,587.1086,155.1135,586.9165,155.3056,581.2629,151.46,590.33" style="stroke:#181818;stroke-width:1.0;"/></g><!--SRC=[bLJBReCm4Bpp5RurLOJKCseZqUPGfAIfchHt1pR4gh6HxKGYLVwzDezWdaauWDZTMS_i3iXVmb8iS892YgNqbH9aUr0GX9ojoGdGa-Cu3-X5NsZE4qmOMl88Q1vnSWnQwgW2Xba8com5zESWVKqLdszMaqUldTTHv-pqOtMkXBiC9-2XjUR3uY8IWGm5IHNXh96Ong0-TBKvgnMUrn0hUxv8-WxG0cSWR3aB8bMBbjIyT6d9JEtXZJCbEAKWlA7wkgHW0nGIO4eQ7e42WRSKdhloPutgJs7omc1-Y2IAYwkGlabGJV4TS5HqiZEGf2fRWfGuxg3s6a49W-RaXiVZkhCRXZ6ExycKCxZih7mVSQ25ginuDDERv7U0FajgZKTE8gDmf5iFHMFdYbejysPRMP3INXB4aOJGD5ODM1VfGXQcD8zVDTNmuYm2xGLs3ws4bk_ZAZlmIY4-gFt9Gxv-S45Es7oUjYmtQTByWfJdviywcwjJjTDzIjiwxvrFbthFvgspxyPU9batASQO-sodcmoVLdbwHrZqcfdlFOWP5_269KpitwOMlSh_VPYsHS_g5luD7cgMZrUUdNy0]--></g></svg>