<svg xmlns="http://www.w3.org/2000/svg" xmlns:xlink="http://www.w3.org/1999/xlink" contentStyleType="text/css" height="556px" preserveAspectRatio="none" style="width:1348px;height:556px;background:#FFFFFF;" version="1.1" viewBox="0 0 1348 556" width="1348px" zoomAndPan="magnify"><defs/><g><!--class ListAllMaintenanceTypesAction--><g id="elem_ListAllMaintenanceTypesAction"><rect codeLine="11" fill="#F1F1F1" height="48" id="ListAllMaintenanceTypesAction" rx="2.5" ry="2.5" style="stroke:#181818;stroke-width:0.5;" width="226.5439" x="7" y="7"/><ellipse cx="22" cy="23" fill="#ADD1B2" rx="11" ry="11" style="stroke:#181818;stroke-width:1.0;"/><path d="M24.7656,18.875 Q24.9219,18.6563 25.1094,18.5469 Q25.2969,18.4375 25.5156,18.4375 Q25.8906,18.4375 26.125,18.7031 Q26.3594,18.9531 26.3594,19.5625 L26.3594,21.0156 Q26.3594,21.625 26.125,21.8906 Q25.8906,22.1563 25.5156,22.1563 Q25.1719,22.1563 24.9688,21.9531 Q24.7656,21.7656 24.6563,21.25 Q24.6094,20.8906 24.4219,20.7031 Q24.0938,20.3281 23.4844,20.1094 Q22.875,19.8906 22.25,19.8906 Q21.4844,19.8906 20.8438,20.2188 Q20.2188,20.5469 19.7188,21.2969 Q19.2344,22.0469 19.2344,23.0781 L19.2344,24.1719 Q19.2344,25.4063 20.125,26.2344 Q21.0156,27.0469 22.6094,27.0469 Q23.5469,27.0469 24.2031,26.7969 Q24.5938,26.6406 25.0156,26.2031 Q25.2813,25.9375 25.4219,25.8594 Q25.5781,25.7813 25.7813,25.7813 Q26.1094,25.7813 26.3594,26.0469 Q26.625,26.2969 26.625,26.6406 Q26.625,26.9844 26.2813,27.3906 Q25.7813,27.9688 24.9844,28.2969 Q23.9063,28.75 22.6094,28.75 Q21.0938,28.75 19.8906,28.125 Q18.9063,27.625 18.2188,26.5625 Q17.5313,25.4844 17.5313,24.2031 L17.5313,23.0469 Q17.5313,21.7188 18.1406,20.5781 Q18.7656,19.4219 19.8594,18.8125 Q20.9531,18.1875 22.1875,18.1875 Q22.9219,18.1875 23.5625,18.3594 Q24.2188,18.5156 24.7656,18.875 Z " fill="#000000"/><text fill="#000000" font-family="sans-serif" font-size="14" lengthAdjust="spacing" textLength="194.5439" x="36" y="28.7969">ListAllMaintenanceTypesAction</text><line style="stroke:#181818;stroke-width:0.5;" x1="8" x2="232.5439" y1="39" y2="39"/><line style="stroke:#181818;stroke-width:0.5;" x1="8" x2="232.5439" y1="47" y2="47"/></g><!--class ListAllMaintenanceTypesUI--><g id="elem_ListAllMaintenanceTypesUI"><rect codeLine="14" fill="#F1F1F1" height="48" id="ListAllMaintenanceTypesUI" rx="2.5" ry="2.5" style="stroke:#181818;stroke-width:0.5;" width="201.6338" x="269.5" y="7"/><ellipse cx="284.5" cy="23" fill="#ADD1B2" rx="11" ry="11" style="stroke:#181818;stroke-width:1.0;"/><path d="M287.2656,18.875 Q287.4219,18.6563 287.6094,18.5469 Q287.7969,18.4375 288.0156,18.4375 Q288.3906,18.4375 288.625,18.7031 Q288.8594,18.9531 288.8594,19.5625 L288.8594,21.0156 Q288.8594,21.625 288.625,21.8906 Q288.3906,22.1563 288.0156,22.1563 Q287.6719,22.1563 287.4688,21.9531 Q287.2656,21.7656 287.1563,21.25 Q287.1094,20.8906 286.9219,20.7031 Q286.5938,20.3281 285.9844,20.1094 Q285.375,19.8906 284.75,19.8906 Q283.9844,19.8906 283.3438,20.2188 Q282.7188,20.5469 282.2188,21.2969 Q281.7344,22.0469 281.7344,23.0781 L281.7344,24.1719 Q281.7344,25.4063 282.625,26.2344 Q283.5156,27.0469 285.1094,27.0469 Q286.0469,27.0469 286.7031,26.7969 Q287.0938,26.6406 287.5156,26.2031 Q287.7813,25.9375 287.9219,25.8594 Q288.0781,25.7813 288.2813,25.7813 Q288.6094,25.7813 288.8594,26.0469 Q289.125,26.2969 289.125,26.6406 Q289.125,26.9844 288.7813,27.3906 Q288.2813,27.9688 287.4844,28.2969 Q286.4063,28.75 285.1094,28.75 Q283.5938,28.75 282.3906,28.125 Q281.4063,27.625 280.7188,26.5625 Q280.0313,25.4844 280.0313,24.2031 L280.0313,23.0469 Q280.0313,21.7188 280.6406,20.5781 Q281.2656,19.4219 282.3594,18.8125 Q283.4531,18.1875 284.6875,18.1875 Q285.4219,18.1875 286.0625,18.3594 Q286.7188,18.5156 287.2656,18.875 Z " fill="#000000"/><text fill="#000000" font-family="sans-serif" font-size="14" lengthAdjust="spacing" textLength="169.6338" x="298.5" y="28.7969">ListAllMaintenanceTypesUI</text><line style="stroke:#181818;stroke-width:0.5;" x1="270.5" x2="470.1338" y1="39" y2="39"/><line style="stroke:#181818;stroke-width:0.5;" x1="270.5" x2="470.1338" y1="47" y2="47"/></g><!--class ListAllMaintenanceTypesController--><g id="elem_ListAllMaintenanceTypesController"><rect codeLine="17" fill="#F1F1F1" height="103.8633" id="ListAllMaintenanceTypesController" rx="2.5" ry="2.5" style="stroke:#181818;stroke-width:0.5;" width="371.9258" x="184.5" y="198.5"/><ellipse cx="258.0513" cy="214.5" fill="#ADD1B2" rx="11" ry="11" style="stroke:#181818;stroke-width:1.0;"/><path d="M260.8169,210.375 Q260.9731,210.1563 261.1606,210.0469 Q261.3481,209.9375 261.5669,209.9375 Q261.9419,209.9375 262.1763,210.2031 Q262.4106,210.4531 262.4106,211.0625 L262.4106,212.5156 Q262.4106,213.125 262.1763,213.3906 Q261.9419,213.6563 261.5669,213.6563 Q261.2231,213.6563 261.02,213.4531 Q260.8169,213.2656 260.7075,212.75 Q260.6606,212.3906 260.4731,212.2031 Q260.145,211.8281 259.5356,211.6094 Q258.9263,211.3906 258.3013,211.3906 Q257.5356,211.3906 256.895,211.7188 Q256.27,212.0469 255.77,212.7969 Q255.2856,213.5469 255.2856,214.5781 L255.2856,215.6719 Q255.2856,216.9063 256.1763,217.7344 Q257.0669,218.5469 258.6606,218.5469 Q259.5981,218.5469 260.2544,218.2969 Q260.645,218.1406 261.0669,217.7031 Q261.3325,217.4375 261.4731,217.3594 Q261.6294,217.2813 261.8325,217.2813 Q262.1606,217.2813 262.4106,217.5469 Q262.6763,217.7969 262.6763,218.1406 Q262.6763,218.4844 262.3325,218.8906 Q261.8325,219.4688 261.0356,219.7969 Q259.9575,220.25 258.6606,220.25 Q257.145,220.25 255.9419,219.625 Q254.9575,219.125 254.27,218.0625 Q253.5825,216.9844 253.5825,215.7031 L253.5825,214.5469 Q253.5825,213.2188 254.1919,212.0781 Q254.8169,210.9219 255.9106,210.3125 Q257.0044,209.6875 258.2388,209.6875 Q258.9731,209.6875 259.6138,209.8594 Q260.27,210.0156 260.8169,210.375 Z " fill="#000000"/><text fill="#000000" font-family="sans-serif" font-size="14" lengthAdjust="spacing" textLength="216.3232" x="278.5513" y="220.2969">ListAllMaintenanceTypesController</text><line style="stroke:#181818;stroke-width:0.5;" x1="185.5" x2="555.4258" y1="230.5" y2="230.5"/><text fill="#000000" font-family="sans-serif" font-size="14" lengthAdjust="spacing" textLength="307.3779" x="190.5" y="249.6074">-AuthorizationService : authzAuthorizationService</text><text fill="#000000" font-family="sans-serif" font-size="14" lengthAdjust="spacing" textLength="203.0752" x="190.5" y="268.2285">-service : DroneInventoryService</text><line style="stroke:#181818;stroke-width:0.5;" x1="185.5" x2="555.4258" y1="275.7422" y2="275.7422"/><text fill="#000000" font-family="sans-serif" font-size="14" lengthAdjust="spacing" textLength="359.9258" x="190.5" y="294.8496">+findAllMaintenanceTypes() : Iterable&lt;MaintenanceType&gt;</text></g><!--class DroneInventoryService--><g id="elem_DroneInventoryService"><rect codeLine="23" fill="#F1F1F1" height="122.4844" id="DroneInventoryService" rx="2.5" ry="2.5" style="stroke:#181818;stroke-width:0.5;" width="384.7432" x="592" y="189.5"/><ellipse cx="708.9219" cy="205.5" fill="#ADD1B2" rx="11" ry="11" style="stroke:#181818;stroke-width:1.0;"/><path d="M711.6875,201.375 Q711.8438,201.1563 712.0313,201.0469 Q712.2188,200.9375 712.4375,200.9375 Q712.8125,200.9375 713.0469,201.2031 Q713.2813,201.4531 713.2813,202.0625 L713.2813,203.5156 Q713.2813,204.125 713.0469,204.3906 Q712.8125,204.6563 712.4375,204.6563 Q712.0938,204.6563 711.8906,204.4531 Q711.6875,204.2656 711.5781,203.75 Q711.5313,203.3906 711.3438,203.2031 Q711.0156,202.8281 710.4063,202.6094 Q709.7969,202.3906 709.1719,202.3906 Q708.4063,202.3906 707.7656,202.7188 Q707.1406,203.0469 706.6406,203.7969 Q706.1563,204.5469 706.1563,205.5781 L706.1563,206.6719 Q706.1563,207.9063 707.0469,208.7344 Q707.9375,209.5469 709.5313,209.5469 Q710.4688,209.5469 711.125,209.2969 Q711.5156,209.1406 711.9375,208.7031 Q712.2031,208.4375 712.3438,208.3594 Q712.5,208.2813 712.7031,208.2813 Q713.0313,208.2813 713.2813,208.5469 Q713.5469,208.7969 713.5469,209.1406 Q713.5469,209.4844 713.2031,209.8906 Q712.7031,210.4688 711.9063,210.7969 Q710.8281,211.25 709.5313,211.25 Q708.0156,211.25 706.8125,210.625 Q705.8281,210.125 705.1406,209.0625 Q704.4531,207.9844 704.4531,206.7031 L704.4531,205.5469 Q704.4531,204.2188 705.0625,203.0781 Q705.6875,201.9219 706.7813,201.3125 Q707.875,200.6875 709.1094,200.6875 Q709.8438,200.6875 710.4844,200.8594 Q711.1406,201.0156 711.6875,201.375 Z " fill="#000000"/><text fill="#000000" font-family="sans-serif" font-size="14" lengthAdjust="spacing" textLength="142.3994" x="729.4219" y="211.2969">DroneInventoryService</text><line style="stroke:#181818;stroke-width:0.5;" x1="593" x2="975.7432" y1="221.5" y2="221.5"/><text fill="#000000" font-family="sans-serif" font-size="14" lengthAdjust="spacing" textLength="280.123" x="598" y="240.6074">-categoryRepository : DroneModelRepository</text><text fill="#000000" font-family="sans-serif" font-size="14" lengthAdjust="spacing" textLength="224.1025" x="598" y="259.2285">-droneRepository : DroneRepository</text><text fill="#000000" font-family="sans-serif" font-size="14" lengthAdjust="spacing" textLength="372.7432" x="598" y="277.8496">-maintenanceTypeRepository : MaintenanceTypeRepository</text><line style="stroke:#181818;stroke-width:0.5;" x1="593" x2="975.7432" y1="285.3633" y2="285.3633"/><text fill="#000000" font-family="sans-serif" font-size="14" lengthAdjust="spacing" textLength="359.9258" x="598" y="304.4707">+findAllMaintenanceTypes() : Iterable&lt;MaintenanceType&gt;</text></g><!--class JpaMaintenanceTypeRepository--><g id="elem_JpaMaintenanceTypeRepository"><rect codeLine="30" fill="#F1F1F1" height="103.8633" id="JpaMaintenanceTypeRepository" rx="2.5" ry="2.5" style="stroke:#181818;stroke-width:0.5;" width="291.7607" x="638.5" y="446"/><ellipse cx="680.0421" cy="462" fill="#ADD1B2" rx="11" ry="11" style="stroke:#181818;stroke-width:1.0;"/><path d="M682.8077,457.875 Q682.964,457.6563 683.1515,457.5469 Q683.339,457.4375 683.5577,457.4375 Q683.9327,457.4375 684.1671,457.7031 Q684.4015,457.9531 684.4015,458.5625 L684.4015,460.0156 Q684.4015,460.625 684.1671,460.8906 Q683.9327,461.1563 683.5577,461.1563 Q683.214,461.1563 683.0108,460.9531 Q682.8077,460.7656 682.6983,460.25 Q682.6515,459.8906 682.464,459.7031 Q682.1358,459.3281 681.5265,459.1094 Q680.9171,458.8906 680.2921,458.8906 Q679.5265,458.8906 678.8858,459.2188 Q678.2608,459.5469 677.7608,460.2969 Q677.2765,461.0469 677.2765,462.0781 L677.2765,463.1719 Q677.2765,464.4063 678.1671,465.2344 Q679.0577,466.0469 680.6515,466.0469 Q681.589,466.0469 682.2452,465.7969 Q682.6358,465.6406 683.0577,465.2031 Q683.3233,464.9375 683.464,464.8594 Q683.6202,464.7813 683.8233,464.7813 Q684.1515,464.7813 684.4015,465.0469 Q684.6671,465.2969 684.6671,465.6406 Q684.6671,465.9844 684.3233,466.3906 Q683.8233,466.9688 683.0265,467.2969 Q681.9483,467.75 680.6515,467.75 Q679.1358,467.75 677.9327,467.125 Q676.9483,466.625 676.2608,465.5625 Q675.5733,464.4844 675.5733,463.2031 L675.5733,462.0469 Q675.5733,460.7188 676.1827,459.5781 Q676.8077,458.4219 677.9015,457.8125 Q678.9952,457.1875 680.2296,457.1875 Q680.964,457.1875 681.6046,457.3594 Q682.2608,457.5156 682.8077,457.875 Z " fill="#000000"/><text fill="#000000" font-family="sans-serif" font-size="14" lengthAdjust="spacing" textLength="200.7783" x="699.9403" y="467.7969">JpaMaintenanceTypeRepository</text><line style="stroke:#181818;stroke-width:0.5;" x1="639.5" x2="929.2607" y1="478" y2="478"/><line style="stroke:#181818;stroke-width:0.5;" x1="639.5" x2="929.2607" y1="486" y2="486"/><text fill="#000000" font-family="sans-serif" font-size="14" lengthAdjust="spacing" textLength="268.8711" x="644.5" y="505.1074">+JpaMaintenanceTypeRepository(puname)</text><text fill="#000000" font-family="sans-serif" font-size="14" lengthAdjust="spacing" textLength="261.0781" x="644.5" y="523.7285">+JpaMaintenanceTypeRepository(autoTx)</text><text fill="#000000" font-family="sans-serif" font-size="14" lengthAdjust="spacing" textLength="279.7607" x="644.5" y="542.3496">+findAllTypes() : Iterable&lt;MaintenanceType&gt;</text></g><!--class JpaRepositoryFactory--><g id="elem_JpaRepositoryFactory"><rect codeLine="36" fill="#F1F1F1" height="85.2422" id="JpaRepositoryFactory" rx="2.5" ry="2.5" style="stroke:#181818;stroke-width:0.5;" width="375.8018" x="965.5" y="455.5"/><ellipse cx="1081.0684" cy="471.5" fill="#ADD1B2" rx="11" ry="11" style="stroke:#181818;stroke-width:1.0;"/><path d="M1083.834,467.375 Q1083.9902,467.1563 1084.1777,467.0469 Q1084.3652,466.9375 1084.584,466.9375 Q1084.959,466.9375 1085.1934,467.2031 Q1085.4277,467.4531 1085.4277,468.0625 L1085.4277,469.5156 Q1085.4277,470.125 1085.1934,470.3906 Q1084.959,470.6563 1084.584,470.6563 Q1084.2402,470.6563 1084.0371,470.4531 Q1083.834,470.2656 1083.7246,469.75 Q1083.6777,469.3906 1083.4902,469.2031 Q1083.1621,468.8281 1082.5527,468.6094 Q1081.9434,468.3906 1081.3184,468.3906 Q1080.5527,468.3906 1079.9121,468.7188 Q1079.2871,469.0469 1078.7871,469.7969 Q1078.3027,470.5469 1078.3027,471.5781 L1078.3027,472.6719 Q1078.3027,473.9063 1079.1934,474.7344 Q1080.084,475.5469 1081.6777,475.5469 Q1082.6152,475.5469 1083.2715,475.2969 Q1083.6621,475.1406 1084.084,474.7031 Q1084.3496,474.4375 1084.4902,474.3594 Q1084.6465,474.2813 1084.8496,474.2813 Q1085.1777,474.2813 1085.4277,474.5469 Q1085.6934,474.7969 1085.6934,475.1406 Q1085.6934,475.4844 1085.3496,475.8906 Q1084.8496,476.4688 1084.0527,476.7969 Q1082.9746,477.25 1081.6777,477.25 Q1080.1621,477.25 1078.959,476.625 Q1077.9746,476.125 1077.2871,475.0625 Q1076.5996,473.9844 1076.5996,472.7031 L1076.5996,471.5469 Q1076.5996,470.2188 1077.209,469.0781 Q1077.834,467.9219 1078.9277,467.3125 Q1080.0215,466.6875 1081.2559,466.6875 Q1081.9902,466.6875 1082.6309,466.8594 Q1083.2871,467.0156 1083.834,467.375 Z " fill="#000000"/><text fill="#000000" font-family="sans-serif" font-size="14" lengthAdjust="spacing" textLength="136.165" x="1101.5684" y="477.2969">JpaRepositoryFactory</text><line style="stroke:#181818;stroke-width:0.5;" x1="966.5" x2="1340.3018" y1="487.5" y2="487.5"/><line style="stroke:#181818;stroke-width:0.5;" x1="966.5" x2="1340.3018" y1="495.5" y2="495.5"/><text fill="#000000" font-family="sans-serif" font-size="14" lengthAdjust="spacing" textLength="318.6641" x="971.5" y="514.6074">+maintenanceType() : MaintenanceTypeRepository</text><text fill="#000000" font-family="sans-serif" font-size="14" lengthAdjust="spacing" textLength="363.8018" x="971.5" y="533.2285">+maintenanceType(autoTX) : MaintenanceTypeRepository</text></g><!--class MaintenanceType--><g id="elem_MaintenanceType"><rect codeLine="41" fill="#F1F1F1" height="271.4531" id="MaintenanceType" rx="2.5" ry="2.5" style="stroke:#181818;stroke-width:0.5;" width="247.4023" x="1012" y="115"/><ellipse cx="1075.8066" cy="131" fill="#ADD1B2" rx="11" ry="11" style="stroke:#181818;stroke-width:1.0;"/><path d="M1078.5723,126.875 Q1078.7285,126.6563 1078.916,126.5469 Q1079.1035,126.4375 1079.3223,126.4375 Q1079.6973,126.4375 1079.9316,126.7031 Q1080.166,126.9531 1080.166,127.5625 L1080.166,129.0156 Q1080.166,129.625 1079.9316,129.8906 Q1079.6973,130.1563 1079.3223,130.1563 Q1078.9785,130.1563 1078.7754,129.9531 Q1078.5723,129.7656 1078.4629,129.25 Q1078.416,128.8906 1078.2285,128.7031 Q1077.9004,128.3281 1077.291,128.1094 Q1076.6816,127.8906 1076.0566,127.8906 Q1075.291,127.8906 1074.6504,128.2188 Q1074.0254,128.5469 1073.5254,129.2969 Q1073.041,130.0469 1073.041,131.0781 L1073.041,132.1719 Q1073.041,133.4063 1073.9316,134.2344 Q1074.8223,135.0469 1076.416,135.0469 Q1077.3535,135.0469 1078.0098,134.7969 Q1078.4004,134.6406 1078.8223,134.2031 Q1079.0879,133.9375 1079.2285,133.8594 Q1079.3848,133.7813 1079.5879,133.7813 Q1079.916,133.7813 1080.166,134.0469 Q1080.4316,134.2969 1080.4316,134.6406 Q1080.4316,134.9844 1080.0879,135.3906 Q1079.5879,135.9688 1078.791,136.2969 Q1077.7129,136.75 1076.416,136.75 Q1074.9004,136.75 1073.6973,136.125 Q1072.7129,135.625 1072.0254,134.5625 Q1071.3379,133.4844 1071.3379,132.2031 L1071.3379,131.0469 Q1071.3379,129.7188 1071.9473,128.5781 Q1072.5723,127.4219 1073.666,126.8125 Q1074.7598,126.1875 1075.9941,126.1875 Q1076.7285,126.1875 1077.3691,126.3594 Q1078.0254,126.5156 1078.5723,126.875 Z " fill="#000000"/><text fill="#000000" font-family="sans-serif" font-size="14" lengthAdjust="spacing" textLength="111.2891" x="1096.3066" y="136.7969">MaintenanceType</text><line style="stroke:#181818;stroke-width:0.5;" x1="1013" x2="1258.4023" y1="147" y2="147"/><text fill="#000000" font-family="sans-serif" font-size="14" lengthAdjust="spacing" textLength="15.5586" x="1018" y="166.1074">-id</text><text fill="#000000" font-family="sans-serif" font-size="14" lengthAdjust="spacing" textLength="39.6826" x="1018" y="184.7285">-name</text><text fill="#000000" font-family="sans-serif" font-size="14" lengthAdjust="spacing" textLength="72.3652" x="1018" y="203.3496">-description</text><line style="stroke:#181818;stroke-width:0.5;" x1="1013" x2="1258.4023" y1="210.8633" y2="210.8633"/><text fill="#000000" font-family="sans-serif" font-size="14" lengthAdjust="spacing" textLength="235.4023" x="1018" y="229.9707">+MaintenanceType(name,description)</text><text fill="#000000" font-family="sans-serif" font-size="14" lengthAdjust="spacing" textLength="128.7891" x="1018" y="248.5918">+MaintenanceType()</text><text fill="#000000" font-family="sans-serif" font-size="14" lengthAdjust="spacing" textLength="100.7617" x="1018" y="267.2129">+name() : String</text><text fill="#000000" font-family="sans-serif" font-size="14" lengthAdjust="spacing" textLength="133.4443" x="1018" y="285.834">+description() : String</text><text fill="#000000" font-family="sans-serif" font-size="14" lengthAdjust="spacing" textLength="205.8301" x="1018" y="304.4551">+sameAs(Object other) : boolean</text><text fill="#000000" font-family="sans-serif" font-size="14" lengthAdjust="spacing" textLength="104.6719" x="1018" y="323.0762">+identity() : Long</text><text fill="#000000" font-family="sans-serif" font-size="14" lengthAdjust="spacing" textLength="107.7822" x="1018" y="341.6973">+hashCode() : int</text><text fill="#000000" font-family="sans-serif" font-size="14" lengthAdjust="spacing" textLength="172.3887" x="1018" y="360.3184">+equals(Object o) : boolean</text><text fill="#000000" font-family="sans-serif" font-size="14" lengthAdjust="spacing" textLength="113.9893" x="1018" y="378.9395">+toString() : String</text></g><!--link ListAllMaintenanceTypesAction to ListAllMaintenanceTypesUI--><g id="link_ListAllMaintenanceTypesAction_ListAllMaintenanceTypesUI"><path codeLine="60" d="M234.39,31 C246.1,31 253.06,31 263.22,31 " fill="none" id="ListAllMaintenanceTypesAction-to-ListAllMaintenanceTypesUI" style="stroke:#181818;stroke-width:1.0;stroke-dasharray:7.0,7.0;"/><polygon fill="#181818" points="269.22,31,260.22,27,264.22,31,260.22,35,269.22,31" style="stroke:#181818;stroke-width:1.0;"/></g><!--link ListAllMaintenanceTypesUI to ListAllMaintenanceTypesController--><g id="link_ListAllMaintenanceTypesUI_ListAllMaintenanceTypesController"><path codeLine="62" d="M370.5,55.28 C370.5,89.14 370.5,146.87 370.5,192.08 " fill="none" id="ListAllMaintenanceTypesUI-to-ListAllMaintenanceTypesController" style="stroke:#181818;stroke-width:1.0;"/><polygon fill="#181818" points="370.5,198.08,374.5,189.08,370.5,193.08,366.5,189.08,370.5,198.08" style="stroke:#181818;stroke-width:1.0;"/></g><!--link ListAllMaintenanceTypesController to DroneInventoryService--><g id="link_ListAllMaintenanceTypesController_DroneInventoryService"><path codeLine="64" d="M556.77,250.5 C568.11,250.5 574.29,250.5 585.89,250.5 " fill="none" id="ListAllMaintenanceTypesController-to-DroneInventoryService" style="stroke:#181818;stroke-width:1.0;"/><polygon fill="#181818" points="591.89,250.5,582.89,246.5,586.89,250.5,582.89,254.5,591.89,250.5" style="stroke:#181818;stroke-width:1.0;"/></g><!--link DroneInventoryService to MaintenanceType--><g id="link_DroneInventoryService_MaintenanceType"><path codeLine="66" d="M977.25,250.5 C991.66,250.5 998.54,250.5 1005.93,250.5 " fill="none" id="DroneInventoryService-to-MaintenanceType" style="stroke:#181818;stroke-width:1.0;"/><polygon fill="#181818" points="1011.93,250.5,1002.93,246.5,1006.93,250.5,1002.93,254.5,1011.93,250.5" style="stroke:#181818;stroke-width:1.0;"/></g><!--link DroneInventoryService to JpaMaintenanceTypeRepository--><g id="link_DroneInventoryService_JpaMaintenanceTypeRepository"><path codeLine="67" d="M784.5,311.56 C784.5,352.72 784.5,400.75 784.5,439.86 " fill="none" id="DroneInventoryService-to-JpaMaintenanceTypeRepository" style="stroke:#181818;stroke-width:1.0;"/><polygon fill="#181818" points="784.5,445.86,788.5,436.86,784.5,440.86,780.5,436.86,784.5,445.86" style="stroke:#181818;stroke-width:1.0;"/></g><!--link JpaMaintenanceTypeRepository to JpaRepositoryFactory--><g id="link_JpaMaintenanceTypeRepository_JpaRepositoryFactory"><path codeLine="70" d="M930.64,498 C940.66,498 946.94,498 959.42,498 " fill="none" id="JpaMaintenanceTypeRepository-to-JpaRepositoryFactory" style="stroke:#181818;stroke-width:1.0;"/><polygon fill="#181818" points="965.42,498,956.42,494,960.42,498,956.42,502,965.42,498" style="stroke:#181818;stroke-width:1.0;"/></g><!--SRC=[fPHDZzCm48Rl_XM-jTLIn1cXIj4YfAwsGgABnDLrfebt7K-m9mifuhzZ9scQvgiWUcfdddVyZkkPXNjH9XTMP3n3WpArc04dMm2xP78XNqG2UoerS0kIX4bq5t2fYF67CWa_2ksw6QqCK9a3pr6NuGTRZ2JH4hAEIchXN4HarQ4Ws4eqUtK2_ewnXOOZSK9kLP8IZrMmez0mLcduet8KQRqJoX0OOIGy-GDSL46_sEyRtDSjlmtTeo6BMeFrCFUVDOyAIj6gamZ7xC6-AWdyFHS-V1hBDJBNaXyj6jYQLp24jknITqTbuX4NovMNRGciE6ZuqCjkBasCLcwDIq6G-FWNoD6fG9pDx306VGatV1nIGtZ0PTT-hXIxgLpTB__FXXzoCNb2q_VTBBJC2oCoMFqDwlzXVFgvkdR-htOlzJu9UMMpTurLpLlNrzTK5h_DAritFQHz9ofkleIRERy5SDAgl1w_-koUV1deDnrkDS6Tuu6lcjpxsJT94-qK62QTbqHk-Vdmx3S1Hqh11kQ0g46O1bAnV_wAoah-YAqu5Iwzzm-zYdjBJHY-5twFjJM7zGXh3rqxuH8Pcrr0_ErcUlDCQlrIMgytjxVHP87Eml9rnbSD6zyJdkzLcm8zEJSf_cfc1xEM3oQ1_G40]--></g></svg>