<svg xmlns="http://www.w3.org/2000/svg" xmlns:xlink="http://www.w3.org/1999/xlink" contentStyleType="text/css" height="574px" preserveAspectRatio="none" style="width:1369px;height:574px;background:#FFFFFF;" version="1.1" viewBox="0 0 1369 574" width="1369px" zoomAndPan="magnify"><defs/><g><rect fill="#FFFFFF" height="379.8223" style="stroke:#181818;stroke-width:1.0;" width="10" x="37.6274" y="93.6211"/><rect fill="#FFFFFF" height="31.291" style="stroke:#181818;stroke-width:1.0;" width="10" x="251.2754" y="116.9121"/><rect fill="#FFFFFF" height="325.2402" style="stroke:#181818;stroke-width:1.0;" width="10" x="469.8262" y="148.2031"/><rect fill="#FFFFFF" height="219.0371" style="stroke:#181818;stroke-width:1.0;" width="10" x="699.2666" y="223.1152"/><rect fill="#FFFFFF" height="156.4551" style="stroke:#181818;stroke-width:1.0;" width="10" x="910.8037" y="254.4063"/><rect fill="#FFFFFF" height="93.873" style="stroke:#181818;stroke-width:1.0;" width="10" x="1110.2822" y="285.6973"/><rect fill="#FFFFFF" height="31.291" style="stroke:#181818;stroke-width:1.0;" width="10" x="1294.2056" y="316.9883"/><line style="stroke:#181818;stroke-width:0.5;stroke-dasharray:5.0,5.0;" x1="42" x2="42" y1="83.6211" y2="491.4434"/><line style="stroke:#181818;stroke-width:0.5;stroke-dasharray:5.0,5.0;" x1="255.7725" x2="255.7725" y1="83.6211" y2="491.4434"/><line style="stroke:#181818;stroke-width:0.5;stroke-dasharray:5.0,5.0;" x1="474.7783" x2="474.7783" y1="83.6211" y2="491.4434"/><line style="stroke:#181818;stroke-width:0.5;stroke-dasharray:5.0,5.0;" x1="703.874" x2="703.874" y1="188.0137" y2="491.4434"/><line style="stroke:#181818;stroke-width:0.5;stroke-dasharray:5.0,5.0;" x1="915.6592" x2="915.6592" y1="83.6211" y2="491.4434"/><line style="stroke:#181818;stroke-width:0.5;stroke-dasharray:5.0,5.0;" x1="1114.9482" x2="1114.9482" y1="83.6211" y2="491.4434"/><line style="stroke:#181818;stroke-width:0.5;stroke-dasharray:5.0,5.0;" x1="1298.6162" x2="1298.6162" y1="83.6211" y2="491.4434"/><text fill="#000000" font-family="sans-serif" font-size="14" lengthAdjust="spacing" textLength="69.2549" x="5" y="80.1074">DroneTech</text><ellipse cx="42.6274" cy="13.5" fill="#E2E2F0" rx="8" ry="8" style="stroke:#181818;stroke-width:0.5;"/><path d="M42.6274,21.5 L42.6274,48.5 M29.6274,29.5 L55.6274,29.5 M42.6274,48.5 L29.6274,63.5 M42.6274,48.5 L55.6274,63.5 " fill="none" style="stroke:#181818;stroke-width:0.5;"/><text fill="#000000" font-family="sans-serif" font-size="14" lengthAdjust="spacing" textLength="69.2549" x="5" y="505.5508">DroneTech</text><ellipse cx="42.6274" cy="517.5645" fill="#E2E2F0" rx="8" ry="8" style="stroke:#181818;stroke-width:0.5;"/><path d="M42.6274,525.5645 L42.6274,552.5645 M29.6274,533.5645 L55.6274,533.5645 M42.6274,552.5645 L29.6274,567.5645 M42.6274,552.5645 L55.6274,567.5645 " fill="none" style="stroke:#181818;stroke-width:0.5;"/><rect fill="#E2E2F0" height="32.6211" rx="2.5" ry="2.5" style="stroke:#181818;stroke-width:0.5;" width="221.0059" x="145.7725" y="50"/><text fill="#000000" font-family="sans-serif" font-size="14" lengthAdjust="spacing" textLength="207.0059" x="152.7725" y="72.1074">:MaintenanceTypeCreationAction</text><rect fill="#E2E2F0" height="32.6211" rx="2.5" ry="2.5" style="stroke:#181818;stroke-width:0.5;" width="221.0059" x="145.7725" y="490.4434"/><text fill="#000000" font-family="sans-serif" font-size="14" lengthAdjust="spacing" textLength="207.0059" x="152.7725" y="512.5508">:MaintenanceTypeCreationAction</text><rect fill="#E2E2F0" height="32.6211" rx="2.5" ry="2.5" style="stroke:#181818;stroke-width:0.5;" width="196.0957" x="376.7783" y="50"/><text fill="#000000" font-family="sans-serif" font-size="14" lengthAdjust="spacing" textLength="182.0957" x="383.7783" y="72.1074">:MaintenanceTypeCreationUI</text><rect fill="#E2E2F0" height="32.6211" rx="2.5" ry="2.5" style="stroke:#181818;stroke-width:0.5;" width="196.0957" x="376.7783" y="490.4434"/><text fill="#000000" font-family="sans-serif" font-size="14" lengthAdjust="spacing" textLength="182.0957" x="383.7783" y="512.5508">:MaintenanceTypeCreationUI</text><rect fill="#E2E2F0" height="32.6211" rx="2.5" ry="2.5" style="stroke:#181818;stroke-width:0.5;" width="242.7852" x="582.874" y="490.4434"/><text fill="#000000" font-family="sans-serif" font-size="14" lengthAdjust="spacing" textLength="228.7852" x="589.874" y="512.5508">:MaintenanceTypeCreationController</text><rect fill="#E2E2F0" height="32.6211" rx="2.5" ry="2.5" style="stroke:#181818;stroke-width:0.5;" width="160.2891" x="835.6592" y="50"/><text fill="#000000" font-family="sans-serif" font-size="14" lengthAdjust="spacing" textLength="146.2891" x="842.6592" y="72.1074">:DroneInventoryService</text><rect fill="#E2E2F0" height="32.6211" rx="2.5" ry="2.5" style="stroke:#181818;stroke-width:0.5;" width="160.2891" x="835.6592" y="490.4434"/><text fill="#000000" font-family="sans-serif" font-size="14" lengthAdjust="spacing" textLength="146.2891" x="842.6592" y="512.5508">:DroneInventoryService</text><rect fill="#E2E2F0" height="32.6211" rx="2.5" ry="2.5" style="stroke:#181818;stroke-width:0.5;" width="218.668" x="1005.9482" y="50"/><text fill="#000000" font-family="sans-serif" font-size="14" lengthAdjust="spacing" textLength="204.668" x="1012.9482" y="72.1074">:JpaMaintenanceTypeRepository</text><rect fill="#E2E2F0" height="32.6211" rx="2.5" ry="2.5" style="stroke:#181818;stroke-width:0.5;" width="218.668" x="1005.9482" y="490.4434"/><text fill="#000000" font-family="sans-serif" font-size="14" lengthAdjust="spacing" textLength="204.668" x="1012.9482" y="512.5508">:JpaMaintenanceTypeRepository</text><rect fill="#E2E2F0" height="32.6211" rx="2.5" ry="2.5" style="stroke:#181818;stroke-width:0.5;" width="129.1787" x="1234.6162" y="50"/><text fill="#000000" font-family="sans-serif" font-size="14" lengthAdjust="spacing" textLength="115.1787" x="1241.6162" y="72.1074">:MaintenanceType</text><rect fill="#E2E2F0" height="32.6211" rx="2.5" ry="2.5" style="stroke:#181818;stroke-width:0.5;" width="129.1787" x="1234.6162" y="490.4434"/><text fill="#000000" font-family="sans-serif" font-size="14" lengthAdjust="spacing" textLength="115.1787" x="1241.6162" y="512.5508">:MaintenanceType</text><rect fill="#FFFFFF" height="379.8223" style="stroke:#181818;stroke-width:1.0;" width="10" x="37.6274" y="93.6211"/><rect fill="#FFFFFF" height="31.291" style="stroke:#181818;stroke-width:1.0;" width="10" x="251.2754" y="116.9121"/><rect fill="#FFFFFF" height="325.2402" style="stroke:#181818;stroke-width:1.0;" width="10" x="469.8262" y="148.2031"/><rect fill="#FFFFFF" height="219.0371" style="stroke:#181818;stroke-width:1.0;" width="10" x="699.2666" y="223.1152"/><rect fill="#FFFFFF" height="156.4551" style="stroke:#181818;stroke-width:1.0;" width="10" x="910.8037" y="254.4063"/><rect fill="#FFFFFF" height="93.873" style="stroke:#181818;stroke-width:1.0;" width="10" x="1110.2822" y="285.6973"/><rect fill="#FFFFFF" height="31.291" style="stroke:#181818;stroke-width:1.0;" width="10" x="1294.2056" y="316.9883"/><polygon fill="#181818" points="239.2754,112.9121,249.2754,116.9121,239.2754,120.9121,243.2754,116.9121" style="stroke:#181818;stroke-width:1.0;"/><line style="stroke:#181818;stroke-width:1.0;" x1="47.6274" x2="245.2754" y1="116.9121" y2="116.9121"/><text fill="#000000" font-family="sans-serif" font-size="13" font-weight="bold" lengthAdjust="spacing" textLength="7.23" x="54.6274" y="111.6494">1</text><text fill="#000000" font-family="sans-serif" font-size="13" lengthAdjust="spacing" textLength="173.418" x="65.8574" y="111.6494">asks to list maintenance types</text><polygon fill="#181818" points="457.8262,144.2031,467.8262,148.2031,457.8262,152.2031,461.8262,148.2031" style="stroke:#181818;stroke-width:1.0;"/><line style="stroke:#181818;stroke-width:1.0;" x1="256.2754" x2="463.8262" y1="148.2031" y2="148.2031"/><text fill="#000000" font-family="sans-serif" font-size="13" font-weight="bold" lengthAdjust="spacing" textLength="7.23" x="263.2754" y="142.9404">2</text><text fill="#000000" font-family="sans-serif" font-size="13" lengthAdjust="spacing" textLength="39.0063" x="274.5054" y="142.9404">show()</text><polygon fill="#181818" points="570.874,175.4941,580.874,179.4941,570.874,183.4941,574.874,179.4941" style="stroke:#181818;stroke-width:1.0;"/><line style="stroke:#181818;stroke-width:1.0;stroke-dasharray:2.0,2.0;" x1="479.8262" x2="576.874" y1="179.4941" y2="179.4941"/><text fill="#000000" font-family="sans-serif" font-size="13" font-weight="bold" lengthAdjust="spacing" textLength="7.23" x="486.8262" y="174.2314">3</text><text fill="#000000" font-family="sans-serif" font-size="13" lengthAdjust="spacing" textLength="44.7891" x="498.0562" y="174.2314">create()</text><rect fill="#E2E2F0" height="32.6211" rx="2.5" ry="2.5" style="stroke:#181818;stroke-width:0.5;" width="242.7852" x="582.874" y="156.2031"/><text fill="#000000" font-family="sans-serif" font-size="14" lengthAdjust="spacing" textLength="228.7852" x="589.874" y="178.3105">:MaintenanceTypeCreationController</text><polygon fill="#181818" points="687.2666,219.1152,697.2666,223.1152,687.2666,227.1152,691.2666,223.1152" style="stroke:#181818;stroke-width:1.0;"/><line style="stroke:#181818;stroke-width:1.0;" x1="479.8262" x2="693.2666" y1="223.1152" y2="223.1152"/><text fill="#000000" font-family="sans-serif" font-size="13" font-weight="bold" lengthAdjust="spacing" textLength="7.23" x="486.8262" y="217.8525">4</text><text fill="#000000" font-family="sans-serif" font-size="13" lengthAdjust="spacing" textLength="153.9053" x="498.0562" y="217.8525">findAllMaintenanceTypes()</text><polygon fill="#181818" points="898.8037,250.4063,908.8037,254.4063,898.8037,258.4063,902.8037,254.4063" style="stroke:#181818;stroke-width:1.0;"/><line style="stroke:#181818;stroke-width:1.0;" x1="709.2666" x2="904.8037" y1="254.4063" y2="254.4063"/><text fill="#000000" font-family="sans-serif" font-size="13" font-weight="bold" lengthAdjust="spacing" textLength="7.23" x="716.2666" y="249.1436">5</text><text fill="#000000" font-family="sans-serif" font-size="13" lengthAdjust="spacing" textLength="153.9053" x="727.4966" y="249.1436">findAllMaintenanceTypes()</text><polygon fill="#181818" points="1098.2822,281.6973,1108.2822,285.6973,1098.2822,289.6973,1102.2822,285.6973" style="stroke:#181818;stroke-width:1.0;"/><line style="stroke:#181818;stroke-width:1.0;" x1="920.8037" x2="1104.2822" y1="285.6973" y2="285.6973"/><text fill="#000000" font-family="sans-serif" font-size="13" font-weight="bold" lengthAdjust="spacing" textLength="7.23" x="927.8037" y="280.4346">6</text><text fill="#000000" font-family="sans-serif" font-size="13" lengthAdjust="spacing" textLength="153.9053" x="939.0337" y="280.4346">findAllMaintenanceTypes()</text><polygon fill="#181818" points="1282.2056,312.9883,1292.2056,316.9883,1282.2056,320.9883,1286.2056,316.9883" style="stroke:#181818;stroke-width:1.0;"/><line style="stroke:#181818;stroke-width:1.0;" x1="1120.2822" x2="1288.2056" y1="316.9883" y2="316.9883"/><text fill="#000000" font-family="sans-serif" font-size="13" font-weight="bold" lengthAdjust="spacing" textLength="7.23" x="1127.2822" y="311.7256">7</text><text fill="#000000" font-family="sans-serif" font-size="13" lengthAdjust="spacing" textLength="79.4663" x="1138.5122" y="311.7256">findAllTypes()</text><polygon fill="#181818" points="1131.2822,344.2793,1121.2822,348.2793,1131.2822,352.2793,1127.2822,348.2793" style="stroke:#181818;stroke-width:1.0;"/><line style="stroke:#181818;stroke-width:1.0;" x1="1125.2822" x2="1298.2056" y1="348.2793" y2="348.2793"/><text fill="#000000" font-family="sans-serif" font-size="13" font-weight="bold" lengthAdjust="spacing" textLength="7.23" x="1137.2822" y="343.0166">8</text><text fill="#000000" font-family="sans-serif" font-size="13" lengthAdjust="spacing" textLength="31.0718" x="1148.5122" y="343.0166">types</text><polygon fill="#181818" points="931.8037,375.5703,921.8037,379.5703,931.8037,383.5703,927.8037,379.5703" style="stroke:#181818;stroke-width:1.0;"/><line style="stroke:#181818;stroke-width:1.0;" x1="925.8037" x2="1114.2822" y1="379.5703" y2="379.5703"/><text fill="#000000" font-family="sans-serif" font-size="13" font-weight="bold" lengthAdjust="spacing" textLength="7.23" x="937.8037" y="374.3076">9</text><text fill="#000000" font-family="sans-serif" font-size="13" lengthAdjust="spacing" textLength="31.0718" x="949.0337" y="374.3076">types</text><polygon fill="#181818" points="720.2666,406.8613,710.2666,410.8613,720.2666,414.8613,716.2666,410.8613" style="stroke:#181818;stroke-width:1.0;"/><line style="stroke:#181818;stroke-width:1.0;" x1="714.2666" x2="914.8037" y1="410.8613" y2="410.8613"/><text fill="#000000" font-family="sans-serif" font-size="13" font-weight="bold" lengthAdjust="spacing" textLength="14.46" x="726.2666" y="405.5986">10</text><text fill="#000000" font-family="sans-serif" font-size="13" lengthAdjust="spacing" textLength="31.0718" x="744.7266" y="405.5986">types</text><polygon fill="#181818" points="490.8262,438.1523,480.8262,442.1523,490.8262,446.1523,486.8262,442.1523" style="stroke:#181818;stroke-width:1.0;"/><line style="stroke:#181818;stroke-width:1.0;" x1="484.8262" x2="703.2666" y1="442.1523" y2="442.1523"/><text fill="#000000" font-family="sans-serif" font-size="13" font-weight="bold" lengthAdjust="spacing" textLength="14.46" x="496.8262" y="436.8896">11</text><text fill="#000000" font-family="sans-serif" font-size="13" lengthAdjust="spacing" textLength="31.0718" x="515.2861" y="436.8896">types</text><polygon fill="#181818" points="53.6274,469.4434,43.6274,473.4434,53.6274,477.4434,49.6274,473.4434" style="stroke:#181818;stroke-width:1.0;"/><line style="stroke:#181818;stroke-width:1.0;" x1="47.6274" x2="473.8262" y1="473.4434" y2="473.4434"/><text fill="#000000" font-family="sans-serif" font-size="13" font-weight="bold" lengthAdjust="spacing" textLength="14.46" x="59.6274" y="468.1807">12</text><text fill="#000000" font-family="sans-serif" font-size="13" lengthAdjust="spacing" textLength="143.0762" x="78.0874" y="468.1807">list of maintenance types</text><!--SRC=[bPFFRi8m3CRlUGgB2niIBy1X4c8xC0rjAcNt40oDQECg2J3UVcuez8yewtn0fFNtS_hP7hgzDhcqCeEC3Ad4KeRWxG55zIQNQYztkFJd5C6YyjBiqdg2I-I6JjhiO2jJXqB8WoTpoDPeXHWcUeEm9V9h-X5IUR8mUBLaC4QL340wk9q4yxnMEfV6ms2oaDfuDD8eZCyvpYnAhybCLV4Rb9U__MIhUP2ivltIPsIyfJH56sIpEFfe2SErv-Q8Xh_fl4Hxr0f3yZBwdhMIttFPAXHXJauNqg29thu-7zyif2rYKPYeZz9ZpJW17BSZZ5zAQs32ehq3Jv1gvo6haE2PwOBm1YpzX39A1jDMSoQvX4vFp-7j1hiq3HwRNN_Eb3732Yz78mQgmciiaVMaImvdRBNPJDEqvOHhIMxrGfUW5G75oA8hlP4DREWdt8c0P7JHl7-X6_ZGUkY8WEOIYxWgy8ZQ8FEqTEKmhxfuDGhtejRi1y3hHKkRkv4rtCCllvfRZaBlEtPsgpuCOQ1x8-_ELNDWg-MRN5QDjXtRzaSjtfdQgLhnNm00]--></g></svg>