<?xml version="1.0" encoding="us-ascii" standalone="no"?><svg xmlns="http://www.w3.org/2000/svg" xmlns:xlink="http://www.w3.org/1999/xlink" contentStyleType="text/css" height="547.8px" preserveAspectRatio="none" style="width:581px;height:547px;background:#FFFFFF;" version="1.1" viewBox="0 0 581 547" width="581.4px" zoomAndPan="magnify"><defs/><g><!--class User--><g id="elem_User"><rect codeLine="9" fill="#F1F1F1" height="95.2594" id="User" rx="1.5" ry="1.5" style="stroke:#181818;stroke-width:0.3;" width="122.4" x="161.4" y="4.2"/><text fill="#000000" font-family="sans-serif" font-size="8.4" lengthAdjust="spacing" textLength="17.4" x="213.9" y="14.8043">User</text><line style="stroke:#181818;stroke-width:0.3;" x1="162" x2="283.2" y1="19.5844" y2="19.5844"/><text fill="#000000" font-family="sans-serif" font-size="8.4" lengthAdjust="spacing" textLength="21.6" x="165" y="29.5887">Name</text><text fill="#000000" font-family="sans-serif" font-size="8.4" lengthAdjust="spacing" textLength="35.4" x="165" y="38.973">BirthDate</text><text fill="#000000" font-family="sans-serif" font-size="8.4" lengthAdjust="spacing" textLength="56.4" x="165" y="48.3574">AdmissionDate</text><text fill="#000000" font-family="sans-serif" font-size="8.4" lengthAdjust="spacing" textLength="31.2" x="165" y="57.7418">Address</text><text fill="#000000" font-family="sans-serif" font-size="8.4" lengthAdjust="spacing" textLength="54" x="165" y="67.1262">MobileNumber</text><text fill="#000000" font-family="sans-serif" font-size="8.4" lengthAdjust="spacing" textLength="20.4" x="165" y="76.5105">Email</text><text fill="#000000" font-family="sans-serif" font-size="8.4" lengthAdjust="spacing" textLength="65.4" x="165" y="85.8949">TaxPayerNumber</text><text fill="#000000" font-family="sans-serif" font-size="8.4" lengthAdjust="spacing" textLength="115.2" x="165" y="95.2793">DocumentIdentificationNumber</text></g><!--class UserType--><g id="elem_UserType"><rect codeLine="20" fill="#F1F1F1" height="29.5687" id="UserType" rx="1.5" ry="1.5" style="stroke:#181818;stroke-width:0.3;" width="74.4" x="211.8" y="179.4"/><text fill="#000000" font-family="sans-serif" font-size="8.4" lengthAdjust="spacing" textLength="36.6" x="230.7" y="190.0043">UserType</text><line style="stroke:#181818;stroke-width:0.3;" x1="212.4" x2="285.6" y1="194.7844" y2="194.7844"/><text fill="#000000" font-family="sans-serif" font-size="8.4" lengthAdjust="spacing" textLength="67.2" x="215.4" y="204.7887">NameOfUserType</text></g><!--class Feedback--><g id="elem_Feedback"><rect codeLine="24" fill="#F1F1F1" height="38.9531" id="Feedback" rx="1.5" ry="1.5" style="stroke:#181818;stroke-width:0.3;" width="55.2" x="32.4" y="270"/><text fill="#000000" font-family="sans-serif" font-size="8.4" lengthAdjust="spacing" textLength="37.8" x="41.1" y="280.6043">Feedback</text><line style="stroke:#181818;stroke-width:0.3;" x1="33" x2="87" y1="285.3844" y2="285.3844"/><text fill="#000000" font-family="sans-serif" font-size="8.4" lengthAdjust="spacing" textLength="48" x="36" y="295.3887">Commentary</text><text fill="#000000" font-family="sans-serif" font-size="8.4" lengthAdjust="spacing" textLength="25.8" x="36" y="304.773">Report</text></g><!--class UserPortal--><g id="elem_UserPortal"><rect codeLine="29" fill="#F1F1F1" height="20.1844" id="UserPortal" rx="1.5" ry="1.5" style="stroke:#181818;stroke-width:0.3;" width="43.2" x="4.2" y="183.9"/><text fill="#000000" font-family="sans-serif" font-size="8.4" lengthAdjust="spacing" textLength="39.6" x="6" y="194.5043">UserPortal</text><line style="stroke:#181818;stroke-width:0.3;" x1="4.8" x2="46.8" y1="199.2844" y2="199.2844"/></g><!--class Team--><g id="elem_Team"><rect codeLine="32" fill="#F1F1F1" height="20.1844" id="Team" rx="1.5" ry="1.5" style="stroke:#181818;stroke-width:0.3;" width="25.2" x="363" y="231.6"/><text fill="#000000" font-family="sans-serif" font-size="8.4" lengthAdjust="spacing" textLength="21.6" x="364.8" y="242.2043">Team</text><line style="stroke:#181818;stroke-width:0.3;" x1="363.6" x2="387.6" y1="246.9844" y2="246.9844"/></g><!--class Job--><g id="elem_Job"><rect codeLine="35" fill="#F1F1F1" height="38.9531" id="Job" rx="1.5" ry="1.5" style="stroke:#181818;stroke-width:0.3;" width="49.8" x="140.7" y="174.6"/><text fill="#000000" font-family="sans-serif" font-size="8.4" lengthAdjust="spacing" textLength="13.2" x="159" y="185.2043">Job</text><line style="stroke:#181818;stroke-width:0.3;" x1="141.3" x2="189.9" y1="189.9844" y2="189.9844"/><text fill="#000000" font-family="sans-serif" font-size="8.4" lengthAdjust="spacing" textLength="21.6" x="144.3" y="199.9887">Name</text><text fill="#000000" font-family="sans-serif" font-size="8.4" lengthAdjust="spacing" textLength="42.6" x="144.3" y="209.373">Description</text></g><!--class Skill--><g id="elem_Skill"><rect codeLine="40" fill="#F1F1F1" height="38.9531" id="Skill" rx="1.5" ry="1.5" style="stroke:#181818;stroke-width:0.3;" width="88.8" x="279" y="117.6"/><text fill="#000000" font-family="sans-serif" font-size="8.4" lengthAdjust="spacing" textLength="15" x="315.9" y="128.2043">Skill</text><line style="stroke:#181818;stroke-width:0.3;" x1="279.6" x2="367.2" y1="132.9844" y2="132.9844"/><text fill="#000000" font-family="sans-serif" font-size="8.4" lengthAdjust="spacing" textLength="60.6" x="282.6" y="142.9887">NameOfTheSkill</text><text fill="#000000" font-family="sans-serif" font-size="8.4" lengthAdjust="spacing" textLength="81.6" x="282.6" y="152.373">DescriptionOfTheSkill</text></g><!--class Task--><g id="elem_Task"><rect codeLine="45" fill="#F1F1F1" height="29.5687" id="Task" rx="1.5" ry="1.5" style="stroke:#181818;stroke-width:0.3;" width="68.4" x="294" y="274.8"/><text fill="#000000" font-family="sans-serif" font-size="8.4" lengthAdjust="spacing" textLength="18.6" x="318.9" y="285.4043">Task</text><line style="stroke:#181818;stroke-width:0.3;" x1="294.6" x2="361.8" y1="290.1844" y2="290.1844"/><text fill="#000000" font-family="sans-serif" font-size="8.4" lengthAdjust="spacing" textLength="61.2" x="297.6" y="300.1887">TaskDescription</text></g><!--class Entry--><g id="elem_Entry"><rect codeLine="50" fill="#F1F1F1" height="29.5687" id="Entry" rx="1.5" ry="1.5" style="stroke:#181818;stroke-width:0.3;" width="54" x="434.4" y="274.8"/><text fill="#000000" font-family="sans-serif" font-size="8.4" lengthAdjust="spacing" textLength="19.8" x="451.5" y="285.4043">Entry</text><line style="stroke:#181818;stroke-width:0.3;" x1="435" x2="487.8" y1="290.1844" y2="290.1844"/><text fill="#000000" font-family="sans-serif" font-size="8.4" lengthAdjust="spacing" textLength="46.8" x="438" y="300.1887">DateOfEntry</text></g><!--class GreenSpace--><g id="elem_GreenSpace"><rect codeLine="54" fill="#F1F1F1" height="29.5687" id="GreenSpace" rx="1.5" ry="1.5" style="stroke:#181818;stroke-width:0.3;" width="83.4" x="494.1" y="396.9"/><text fill="#000000" font-family="sans-serif" font-size="8.4" lengthAdjust="spacing" textLength="48" x="511.8" y="407.5043">GreenSpace</text><line style="stroke:#181818;stroke-width:0.3;" x1="494.7" x2="576.9" y1="412.2844" y2="412.2844"/><text fill="#000000" font-family="sans-serif" font-size="8.4" lengthAdjust="spacing" textLength="76.2" x="497.7" y="422.2887">TypeOfGreenSpace</text></g><!--class Diary--><g id="elem_Diary"><rect codeLine="58" fill="#F1F1F1" height="20.1844" id="Diary" rx="1.5" ry="1.5" style="stroke:#181818;stroke-width:0.3;" width="23.4" x="449.7" y="401.4"/><text fill="#000000" font-family="sans-serif" font-size="8.4" lengthAdjust="spacing" textLength="19.8" x="451.5" y="412.0043">Diary</text><line style="stroke:#181818;stroke-width:0.3;" x1="450.3" x2="472.5" y1="416.7844" y2="416.7844"/></g><!--class Vehicle--><g id="elem_Vehicle"><rect codeLine="61" fill="#F1F1F1" height="114.0281" id="Vehicle" rx="1.5" ry="1.5" style="stroke:#181818;stroke-width:0.3;" width="158.4" x="198" y="354.6"/><text fill="#000000" font-family="sans-serif" font-size="8.4" lengthAdjust="spacing" textLength="27.6" x="263.4" y="365.2043">Vehicle</text><line style="stroke:#181818;stroke-width:0.3;" x1="198.6" x2="355.8" y1="369.9844" y2="369.9844"/><text fill="#000000" font-family="sans-serif" font-size="8.4" lengthAdjust="spacing" textLength="54.6" x="201.6" y="379.9887">VehiclePlateID</text><text fill="#000000" font-family="sans-serif" font-size="8.4" lengthAdjust="spacing" textLength="50.4" x="201.6" y="389.373">VehicleModel</text><text fill="#000000" font-family="sans-serif" font-size="8.4" lengthAdjust="spacing" textLength="50.4" x="201.6" y="398.7574">VehicleBrand</text><text fill="#000000" font-family="sans-serif" font-size="8.4" lengthAdjust="spacing" textLength="46.8" x="201.6" y="408.1418">VehicleType</text><text fill="#000000" font-family="sans-serif" font-size="8.4" lengthAdjust="spacing" textLength="45.6" x="201.6" y="417.5262">VehicleTare</text><text fill="#000000" font-family="sans-serif" font-size="8.4" lengthAdjust="spacing" textLength="76.8" x="201.6" y="426.9105">VehicleGrossWeight</text><text fill="#000000" font-family="sans-serif" font-size="8.4" lengthAdjust="spacing" textLength="68.4" x="201.6" y="436.2949">VehicleCurrentKm</text><text fill="#000000" font-family="sans-serif" font-size="8.4" lengthAdjust="spacing" textLength="77.4" x="201.6" y="445.6793">VehicleRegisterDate</text><text fill="#000000" font-family="sans-serif" font-size="8.4" lengthAdjust="spacing" textLength="86.4" x="201.6" y="455.0637">VehicleAcquisitionDate</text><text fill="#000000" font-family="sans-serif" font-size="8.4" lengthAdjust="spacing" textLength="151.2" x="201.6" y="464.448">VehicleMaintenanceCheckUpFrequency</text></g><!--class Machines--><g id="elem_Machines"><rect codeLine="75" fill="#F1F1F1" height="29.5687" id="Machines" rx="1.5" ry="1.5" style="stroke:#181818;stroke-width:0.3;" width="71.4" x="284.7" y="514.2"/><text fill="#000000" font-family="sans-serif" font-size="8.4" lengthAdjust="spacing" textLength="36" x="302.4" y="524.8043">Machines</text><line style="stroke:#181818;stroke-width:0.3;" x1="285.3" x2="355.5" y1="529.5844" y2="529.5844"/><text fill="#000000" font-family="sans-serif" font-size="8.4" lengthAdjust="spacing" textLength="64.2" x="288.3" y="539.5887">TypeOfMachines</text></g><!--class Equipment--><g id="elem_Equipment"><rect codeLine="79" fill="#F1F1F1" height="20.1844" id="Equipment" rx="1.5" ry="1.5" style="stroke:#181818;stroke-width:0.3;" width="43.8" x="194.1" y="518.7"/><text fill="#000000" font-family="sans-serif" font-size="8.4" lengthAdjust="spacing" textLength="40.2" x="195.9" y="529.3043">Equipment</text><line style="stroke:#181818;stroke-width:0.3;" x1="194.7" x2="237.3" y1="534.0844" y2="534.0844"/></g><!--link User to UserType--><g id="link_User_UserType"><path codeLine="85" d="M231.426,99.648 C236.646,127.506 242.886,160.854 246.354,179.358 " fill="none" id="User-UserType" style="stroke:#181818;stroke-width:0.6;"/><polygon fill="#000000" points="245.9522,140.2058,246.6865,134.5469,243.22,135.1961,245.9522,140.2058" style="stroke:#000000;stroke-width:0.6;"/><text fill="#000000" font-family="sans-serif" font-size="7.8" lengthAdjust="spacing" textLength="12.6" x="250.8" y="139.9611">has</text><text fill="#000000" font-family="sans-serif" font-size="7.8" lengthAdjust="spacing" textLength="3" x="229.0785" y="111.356">*</text><text fill="#000000" font-family="sans-serif" font-size="7.8" lengthAdjust="spacing" textLength="4.2" x="240.8785" y="172.948">1</text></g><!--link User to Feedback--><g id="link_User_Feedback"><path codeLine="86" d="M164.298,99.636 C141.6,120.552 117.048,146.73 100.2,174.6 C81.57,205.422 88.794,218.256 76.2,252 C73.998,257.898 71.34,264.21 68.826,269.916 " fill="none" id="User-Feedback" style="stroke:#181818;stroke-width:0.6;"/><polygon fill="#000000" points="101.7328,196.8738,105.9251,193.0024,102.8489,191.2777,101.7328,196.8738" style="stroke:#000000;stroke-width:0.6;"/><text fill="#000000" font-family="sans-serif" font-size="7.8" lengthAdjust="spacing" textLength="21" x="108.6" y="196.9611">sends</text><text fill="#000000" font-family="sans-serif" font-size="7.8" lengthAdjust="spacing" textLength="4.2" x="154.7184" y="111.3429">1</text><text fill="#000000" font-family="sans-serif" font-size="7.8" lengthAdjust="spacing" textLength="3" x="67.4286" y="263.4139">*</text></g><!--link User to UserPortal--><g id="link_User_UserPortal"><path codeLine="87" d="M161.34,61.182 C123.804,69.57 77.472,85.92 48,117.6 C30.606,136.296 26.772,167.892 25.968,183.774 " fill="none" id="User-UserPortal" style="stroke:#181818;stroke-width:0.6;"/><polygon fill="#000000" points="48.7763,139.2708,53.9827,136.9349,51.6153,134.3208,48.7763,139.2708" style="stroke:#000000;stroke-width:0.6;"/><text fill="#000000" font-family="sans-serif" font-size="7.8" lengthAdjust="spacing" textLength="16.8" x="56.4" y="139.9611">uses</text><text fill="#000000" font-family="sans-serif" font-size="7.8" lengthAdjust="spacing" textLength="3" x="153.5349" y="60.2496">*</text><text fill="#000000" font-family="sans-serif" font-size="7.8" lengthAdjust="spacing" textLength="4.2" x="21.1039" y="177.5329">1</text></g><!--link UserPortal to Feedback--><g id="link_UserPortal_Feedback"><path codeLine="88" d="M25.404,204.402 C25.266,216.102 26.112,236.184 32.4,252 C34.914,258.318 38.802,264.51 42.87,269.958 " fill="none" id="UserPortal-Feedback" style="stroke:#181818;stroke-width:0.6;"/><polygon fill="#000000" points="36.1723,244.8559,36.4791,239.1578,33.0712,240.0658,36.1723,244.8559" style="stroke:#000000;stroke-width:0.6;"/><text fill="#000000" font-family="sans-serif" font-size="7.8" lengthAdjust="spacing" textLength="32.4" x="40.8" y="244.6611">reeceives</text><text fill="#000000" font-family="sans-serif" font-size="7.8" lengthAdjust="spacing" textLength="4.2" x="20.4396" y="215.9855">1</text><text fill="#000000" font-family="sans-serif" font-size="7.8" lengthAdjust="spacing" textLength="3" x="35.7947" y="263.465">*</text></g><!--link User to Team--><g id="link_User_Team"><path codeLine="89" d="M283.806,62.652 C316.11,71.436 353.118,87.684 373.2,117.6 C397.242,153.42 385.008,209.19 378.642,231.498 " fill="none" id="User-Team" style="stroke:#181818;stroke-width:0.6;"/><polygon fill="#000000" points="387.3309,134.6414,388.4511,140.2367,391.526,138.5096,387.3309,134.6414" style="stroke:#000000;stroke-width:0.6;"/><text fill="#000000" font-family="sans-serif" font-size="7.8" lengthAdjust="spacing" textLength="37.8" x="394.2" y="139.9611">associated</text><text fill="#000000" font-family="sans-serif" font-size="7.8" lengthAdjust="spacing" textLength="3" x="288.6069" y="61.8322">*</text><text fill="#000000" font-family="sans-serif" font-size="7.8" lengthAdjust="spacing" textLength="4.2" x="374.7776" y="225.0871">1</text></g><!--link User to Job--><g id="link_User_Job"><path codeLine="90" d="M203.538,99.648 C193.218,125.184 181.032,155.334 173.31,174.432 " fill="none" id="User-Job" style="stroke:#181818;stroke-width:0.6;"/><polygon fill="#000000" points="198.0758,140.0384,201.7444,135.6677,198.4747,134.346,198.0758,140.0384" style="stroke:#000000;stroke-width:0.6;"/><text fill="#000000" font-family="sans-serif" font-size="7.8" lengthAdjust="spacing" textLength="19.2" x="204.6" y="139.9611">has a</text><text fill="#000000" font-family="sans-serif" font-size="7.8" lengthAdjust="spacing" textLength="3" x="198.7067" y="111.356">*</text><text fill="#000000" font-family="sans-serif" font-size="7.8" lengthAdjust="spacing" textLength="4.2" x="170.2671" y="168.2076">1</text></g><!--link User to Skill--><g id="link_User_Skill"><path codeLine="91" d="M279.186,99.654 C286.728,105.942 294.078,112.068 300.552,117.462 " fill="none" id="User-Skill" style="stroke:#181818;stroke-width:0.6;"/><polygon fill="#000000" points="295.5725,106.1718,292.5326,101.3426,290.2746,104.0517,295.5725,106.1718" style="stroke:#000000;stroke-width:0.6;"/><text fill="#000000" font-family="sans-serif" font-size="7.8" lengthAdjust="spacing" textLength="12.6" x="298.668" y="106.9551">has</text><text fill="#000000" font-family="sans-serif" font-size="7.8" lengthAdjust="spacing" textLength="3" x="280.7733" y="111.1405">*</text><text fill="#000000" font-family="sans-serif" font-size="7.8" lengthAdjust="spacing" textLength="3" x="292.5302" y="111.2438">*</text></g><!--link Team to Task--><g id="link_Team_Task"><path codeLine="94" d="M365.778,252.036 C359.106,258.576 350.172,267.342 342.69,274.686 " fill="none" id="Team-Task" style="stroke:#181818;stroke-width:0.6;"/><polygon fill="#000000" points="316.3985,260.5219,321.5074,257.9801,319.0377,255.4626,316.3985,260.5219" style="stroke:#000000;stroke-width:0.6;"/><text fill="#000000" font-family="sans-serif" font-size="7.8" lengthAdjust="spacing" textLength="30" x="323.94" y="261.1251">performs</text><text fill="#000000" font-family="sans-serif" font-size="7.8" lengthAdjust="spacing" textLength="4.2" x="357.9269" y="263.5993">1</text><text fill="#000000" font-family="sans-serif" font-size="7.8" lengthAdjust="spacing" textLength="3" x="343.1811" y="268.2566">*</text></g><!--link Job to Task--><g id="link_Job_Task"><path codeLine="95" d="M190.65,209.214 C221.382,227.016 273.15,257.01 303.654,274.68 " fill="none" id="Job-Task" style="stroke:#181818;stroke-width:0.6;"/><polygon fill="#000000" points="267.1959,243.4609,263.3838,239.2146,261.616,242.2662,267.1959,243.4609" style="stroke:#000000;stroke-width:0.6;"/><text fill="#000000" font-family="sans-serif" font-size="7.8" lengthAdjust="spacing" textLength="12.6" x="270" y="244.6611">has</text><text fill="#000000" font-family="sans-serif" font-size="7.8" lengthAdjust="spacing" textLength="4.2" x="195.3164" y="209.782">1</text><text fill="#000000" font-family="sans-serif" font-size="7.8" lengthAdjust="spacing" textLength="3" x="293.6541" y="268.249">*</text></g><!--link Skill to Task--><g id="link_Skill_Task"><path codeLine="96" d="M324.006,156.696 C324.978,187.392 326.874,247.218 327.744,274.596 " fill="none" id="Skill-Task" style="stroke:#181818;stroke-width:0.6;"/><polygon fill="#000000" points="328.7049,191.2585,327.1144,196.7387,330.6394,196.627,328.7049,191.2585" style="stroke:#000000;stroke-width:0.6;"/><text fill="#000000" font-family="sans-serif" font-size="7.8" lengthAdjust="spacing" textLength="27.6" x="334.2" y="196.9611">requires</text><text fill="#000000" font-family="sans-serif" font-size="7.8" lengthAdjust="spacing" textLength="3" x="320.83" y="168.4775">*</text><text fill="#000000" font-family="sans-serif" font-size="7.8" lengthAdjust="spacing" textLength="4.2" x="322.889" y="268.3804">1</text></g><!--link Task to Entry--><g id="link_Task_Entry"><path codeLine="99" d="M362.502,289.5 C384.858,289.5 413.616,289.5 434.352,289.5 " fill="none" id="Task-Entry" style="stroke:#181818;stroke-width:0.6;"/><polygon fill="#000000" points="381.6,283.057,387.0271,284.8204,387.0271,281.2937,381.6,283.057" style="stroke:#000000;stroke-width:0.6;"/><text fill="#000000" font-family="sans-serif" font-size="7.8" lengthAdjust="spacing" textLength="24.6" x="390" y="285.7611">defines</text><text fill="#000000" font-family="sans-serif" font-size="7.8" lengthAdjust="spacing" textLength="4.2" x="367.166" y="287.6323">1</text><text fill="#000000" font-family="sans-serif" font-size="7.8" lengthAdjust="spacing" textLength="4.2" x="425.3244" y="287.4775">1</text></g><!--link Task to Machines--><g id="link_Task_Machines"><path codeLine="100" d="M340.008,304.392 C349.446,316.8 361.926,335.694 367.2,354.6 C380.808,403.404 376.596,418.812 367.2,468.6 C364.758,481.542 363.924,485.388 356.4,496.2 C351.81,502.8 345.6,508.962 339.63,514.092 " fill="none" id="Task-Machines" style="stroke:#181818;stroke-width:0.6;"/><polygon fill="#000000" points="378.5946,414.757,380.3677,409.3332,376.841,409.3268,378.5946,414.757" style="stroke:#000000;stroke-width:0.6;"/><text fill="#000000" font-family="sans-serif" font-size="7.8" lengthAdjust="spacing" textLength="21" x="384" y="414.4611">needs</text><text fill="#000000" font-family="sans-serif" font-size="7.8" lengthAdjust="spacing" textLength="4.2" x="338.1743" y="316.1245">1</text><text fill="#000000" font-family="sans-serif" font-size="7.8" lengthAdjust="spacing" textLength="3" x="341.3949" y="507.6643">*</text></g><!--link Task to Vehicle--><g id="link_Task_Vehicle"><path codeLine="101" d="M322.248,304.206 C316.968,316.728 308.892,335.874 301.026,354.516 " fill="none" id="Task-Vehicle" style="stroke:#181818;stroke-width:0.6;"/><polygon fill="#000000" points="316.166,329.1929,312.432,333.5079,315.6814,334.8786,316.166,329.1929" style="stroke:#000000;stroke-width:0.6;"/><text fill="#000000" font-family="sans-serif" font-size="7.8" lengthAdjust="spacing" textLength="21" x="320.4" y="334.6611">needs</text><text fill="#000000" font-family="sans-serif" font-size="7.8" lengthAdjust="spacing" textLength="4.2" x="315.9847" y="316.1304">1</text><text fill="#000000" font-family="sans-serif" font-size="7.8" lengthAdjust="spacing" textLength="3" x="299.8749" y="348.1139">*</text></g><!--link Task to Equipment--><g id="link_Task_Equipment"><path codeLine="102" d="M293.838,292.008 C253.416,296.31 187.926,310.17 157.2,354.6 C128.382,396.27 137.988,421.716 157.2,468.6 C166.08,490.272 187.05,508.296 201.384,518.694 " fill="none" id="Task-Equipment" style="stroke:#181818;stroke-width:0.6;"/><polygon fill="#000000" points="159.0671,414.5349,162.7494,410.1756,159.4838,408.8438,159.0671,414.5349" style="stroke:#000000;stroke-width:0.6;"/><text fill="#000000" font-family="sans-serif" font-size="7.8" lengthAdjust="spacing" textLength="21" x="165.6" y="414.4611">needs</text><text fill="#000000" font-family="sans-serif" font-size="7.8" lengthAdjust="spacing" textLength="4.2" x="284.9663" y="290.4617">1</text><text fill="#000000" font-family="sans-serif" font-size="7.8" lengthAdjust="spacing" textLength="3" x="192.6427" y="512.3173">*</text></g><!--link Entry to GreenSpace--><g id="link_Entry_GreenSpace"><path codeLine="105" d="M472.026,304.236 C476.988,311.01 482.868,319.308 487.8,327 C503.118,350.898 519.132,379.848 528.246,396.768 " fill="none" id="Entry-GreenSpace" style="stroke:#181818;stroke-width:0.6;"/><polygon fill="#000000" points="497.7577,334.5209,496.4468,328.9672,493.4328,330.7984,497.7577,334.5209" style="stroke:#000000;stroke-width:0.6;"/><text fill="#000000" font-family="sans-serif" font-size="7.8" lengthAdjust="spacing" textLength="25.2" x="501.6" y="334.6611">located</text><text fill="#000000" font-family="sans-serif" font-size="7.8" lengthAdjust="spacing" textLength="4.2" x="470.0108" y="316.1681">1</text><text fill="#000000" font-family="sans-serif" font-size="7.8" lengthAdjust="spacing" textLength="4.2" x="521.4515" y="390.3338">1</text></g><!--link Entry to Diary--><g id="link_Entry_Diary"><path codeLine="106" d="M461.4,304.206 C461.4,329.058 461.4,380.034 461.4,401.322 " fill="none" id="Entry-Diary" style="stroke:#181818;stroke-width:0.6;"/><polygon fill="#000000" points="464.4,328.957,462.6366,334.3841,466.1634,334.3841,464.4,328.957" style="stroke:#000000;stroke-width:0.6;"/><text fill="#000000" font-family="sans-serif" font-size="7.8" lengthAdjust="spacing" textLength="12.6" x="469.8" y="334.6611">has</text><text fill="#000000" font-family="sans-serif" font-size="7.8" lengthAdjust="spacing" textLength="3" x="458.0156" y="316.1304">*</text><text fill="#000000" font-family="sans-serif" font-size="7.8" lengthAdjust="spacing" textLength="3" x="457.8656" y="394.9197">*</text></g><!--link Vehicle to Machines--><g id="link_Vehicle_Machines"><path codeLine="110" d="M298.23,468.72 C304.494,485.556 310.824,502.572 315.108,514.08 " fill="none" id="Vehicle-Machines" style="stroke:#181818;stroke-width:0.6;"/><polygon fill="#000000" points="311.8462,494.3687,311.6063,488.6674,308.301,489.8973,311.8462,494.3687" style="stroke:#000000;stroke-width:0.6;"/><text fill="#000000" font-family="sans-serif" font-size="7.8" lengthAdjust="spacing" textLength="34.8" x="316.2" y="494.2611">transports</text></g><!--link Vehicle to Equipment--><g id="link_Vehicle_Equipment"><path codeLine="111" d="M247.404,468.72 C237.252,487.98 226.98,507.468 221.07,518.688 " fill="none" id="Vehicle-Equipment" style="stroke:#181818;stroke-width:0.6;"/><polygon fill="#000000" points="239.2013,494.211,243.2915,490.232,240.1716,488.5878,239.2013,494.211" style="stroke:#000000;stroke-width:0.6;"/><text fill="#000000" font-family="sans-serif" font-size="7.8" lengthAdjust="spacing" textLength="34.8" x="246" y="494.2611">transports</text></g><!--SRC=[RLHDRzmW4BtpAz0U8qLghbOKASacKLhbGzbDUsRnU3rQ6np0RRTL_ti7i0rqkmSMtZpU3FDXUq0r22DwtckbPMjq3zoP4PXTB8EG1x67ZJjsm0r89zI-omcs5RN-WMhF6z7Pt28xOUsrSmPteuD7gTK6Vm7_n5giWKiqaeJ2lWVNwjeoni8T_cx1yD-C-z-pw27kRj2uTYtSTBokUxGMjSgXse2ryV2aTzZ1yzZlm4JahXVOnUrM_7mLHp2vUQtbs8DoZpKjsA0KZjGdnfyyjkrnW3o-bsP64-yUeDvHycRUhUwzk337U7w3GHjNwhuI8ZgwiQ1Re4HcvyzwTvgODLXfSF3H9kRcW5rN1hbj8Q0djp9JyYpi4hlVvquIwquvSvnflX0lJO0Iuy40g0srqP8ndwUN9k69kqOHr1RWAxH8NJ9Td4wl7VbvN1VOawwXAv0R8rHT8A4-1I1C2JmORUqtm7th2lnsD8PgzwKlq3VOetLWKlzDXclvCQ95L_Jc7AX0vK099U6s1Nbu7-uDV8oWv35BwvEGBIgmCMKnOJFcQLvmAW2v6dnZ4TNVPomCp-finS_F-UfYbHgsugsm_6eYaEKyqEP6hRW5LIT2gH1Ri-AZXPaoTMjGAgN85LLN0dw7_-dvfguuHQybKdvgVdb2eJwFuOhYVbX3eywFOIoCI7gExzMA3s0QRNhFy2EJnHZjyNASaKdvOhRvUY1zHoWiKlTZCAdJ6fgxuZKqeJoNcJtAprMgkA9aU2V_CgP6c0cd4aj9amPZST1c5lsb-QbufsN8uzLCErl4maZ5z_hdiCcxDwTG7SsAzPyZxojZP94K5FON]--></g></svg>