<?xml version="1.0" encoding="us-ascii" standalone="no"?><svg xmlns="http://www.w3.org/2000/svg" xmlns:xlink="http://www.w3.org/1999/xlink" contentStyleType="text/css" height="533px" preserveAspectRatio="none" style="width:577px;height:533px;background:#FFFFFF;" version="1.1" viewBox="0 0 577 533" width="577px" zoomAndPan="magnify"><defs/><g><text fill="#000000" font-family="sans-serif" font-size="14" font-weight="bold" lengthAdjust="spacing" textLength="276" x="152.25" y="27.6738">System Sequence Diagram (SSD) - US01</text><rect fill="#FFFFFF" height="285.7109" style="stroke:#181818;stroke-width:1.0;" width="10" x="72.5" y="142.9219"/><rect fill="#FFFFFF" height="28.5234" style="stroke:#181818;stroke-width:1.0;" width="10" x="425.5" y="163.4453"/><rect fill="#FFFFFF" height="70.0469" style="stroke:#181818;stroke-width:1.0;" width="10" x="425.5" y="244.0156"/><rect fill="#FFFFFF" height="77.0469" style="stroke:#181818;stroke-width:1.0;" width="10" x="425.5" y="342.5859"/><rect fill="none" height="185.1406" style="stroke:#000000;stroke-width:1.5;" width="561.5" x="10" y="206.9688"/><line style="stroke:#181818;stroke-width:0.5;stroke-dasharray:5.0,5.0;" x1="77" x2="77" y1="132.9219" y2="437.6328"/><line style="stroke:#181818;stroke-width:0.5;stroke-dasharray:5.0,5.0;" x1="430.5" x2="430.5" y1="132.9219" y2="437.6328"/><text fill="#000000" font-family="sans-serif" font-size="14" lengthAdjust="spacing" textLength="109" x="20" y="114.3145">Human Resource</text><text fill="#000000" font-family="sans-serif" font-size="14" lengthAdjust="spacing" textLength="56" x="46.5" y="129.9551">Manager</text><ellipse cx="77.5" cy="50.1406" fill="#E3E3E3" rx="8" ry="8" style="stroke:#181818;stroke-width:0.5;"/><path d="M77.5,58.1406 L77.5,85.1406 M64.5,66.1406 L90.5,66.1406 M77.5,85.1406 L64.5,100.1406 M77.5,85.1406 L90.5,100.1406 " fill="none" style="stroke:#181818;stroke-width:0.5;"/><text fill="#000000" font-family="sans-serif" font-size="14" lengthAdjust="spacing" textLength="109" x="20" y="449.3066">Human Resource</text><text fill="#000000" font-family="sans-serif" font-size="14" lengthAdjust="spacing" textLength="56" x="46.5" y="464.9473">Manager</text><ellipse cx="77.5" cy="476.4141" fill="#E3E3E3" rx="8" ry="8" style="stroke:#181818;stroke-width:0.5;"/><path d="M77.5,484.4141 L77.5,511.4141 M64.5,492.4141 L90.5,492.4141 M77.5,511.4141 L64.5,526.4141 M77.5,511.4141 L90.5,526.4141 " fill="none" style="stroke:#181818;stroke-width:0.5;"/><rect fill="#E3E3E3" height="29.6406" rx="2.5" ry="2.5" style="stroke:#181818;stroke-width:0.5;" width="64" x="398.5" y="102.2813"/><text fill="#000000" font-family="sans-serif" font-size="14" lengthAdjust="spacing" textLength="50" x="405.5" y="121.9551">:System</text><rect fill="#E3E3E3" height="29.6406" rx="2.5" ry="2.5" style="stroke:#181818;stroke-width:0.5;" width="64" x="398.5" y="436.6328"/><text fill="#000000" font-family="sans-serif" font-size="14" lengthAdjust="spacing" textLength="50" x="405.5" y="456.3066">:System</text><rect fill="#FFFFFF" height="285.7109" style="stroke:#181818;stroke-width:1.0;" width="10" x="72.5" y="142.9219"/><rect fill="#FFFFFF" height="28.5234" style="stroke:#181818;stroke-width:1.0;" width="10" x="425.5" y="163.4453"/><rect fill="#FFFFFF" height="70.0469" style="stroke:#181818;stroke-width:1.0;" width="10" x="425.5" y="244.0156"/><rect fill="#FFFFFF" height="77.0469" style="stroke:#181818;stroke-width:1.0;" width="10" x="425.5" y="342.5859"/><polygon fill="#181818" points="413.5,159.4453,423.5,163.4453,413.5,167.4453,417.5,163.4453" style="stroke:#181818;stroke-width:1.0;"/><line style="stroke:#181818;stroke-width:1.0;" x1="82.5" x2="419.5" y1="163.4453" y2="163.4453"/><text fill="#000000" font-family="sans-serif" font-size="13" font-weight="bold" lengthAdjust="spacing" textLength="7" x="89.5" y="158.6904">1</text><text fill="#000000" font-family="sans-serif" font-size="13" lengthAdjust="spacing" textLength="148" x="100.5" y="158.6904">asks to create a new skill</text><polygon fill="#181818" points="93.5,187.9688,83.5,191.9688,93.5,195.9688,89.5,191.9688" style="stroke:#181818;stroke-width:1.0;"/><line style="stroke:#181818;stroke-width:1.0;stroke-dasharray:2.0,2.0;" x1="87.5" x2="429.5" y1="191.9688" y2="191.9688"/><text fill="#000000" font-family="sans-serif" font-size="13" font-weight="bold" lengthAdjust="spacing" textLength="7" x="99.5" y="187.2139">2</text><text fill="#000000" font-family="sans-serif" font-size="13" lengthAdjust="spacing" textLength="308" x="110.5" y="187.2139">requests data (a description of the skill to be created)</text><path d="M10,206.9688 L83,206.9688 L83,213.4922 L73,223.4922 L10,223.4922 L10,206.9688 " fill="#EEEEEE" style="stroke:#000000;stroke-width:1.5;"/><rect fill="none" height="185.1406" style="stroke:#000000;stroke-width:1.5;" width="561.5" x="10" y="206.9688"/><text fill="#000000" font-family="sans-serif" font-size="13" font-weight="bold" lengthAdjust="spacing" textLength="28" x="25" y="219.7373">loop</text><text fill="#000000" font-family="sans-serif" font-size="11" font-weight="bold" lengthAdjust="spacing" textLength="165" x="98" y="218.9268">[until information is accepted]</text><polygon fill="#181818" points="413.5,240.0156,423.5,244.0156,413.5,248.0156,417.5,244.0156" style="stroke:#181818;stroke-width:1.0;"/><line style="stroke:#181818;stroke-width:1.0;" x1="82.5" x2="419.5" y1="244.0156" y2="244.0156"/><text fill="#000000" font-family="sans-serif" font-size="13" font-weight="bold" lengthAdjust="spacing" textLength="7" x="89.5" y="239.2607">3</text><text fill="#000000" font-family="sans-serif" font-size="13" lengthAdjust="spacing" textLength="122" x="100.5" y="239.2607">types requested data</text><line style="stroke:#181818;stroke-width:1.0;" x1="435.5" x2="477.5" y1="272.5391" y2="272.5391"/><line style="stroke:#181818;stroke-width:1.0;" x1="477.5" x2="477.5" y1="272.5391" y2="285.5391"/><line style="stroke:#181818;stroke-width:1.0;" x1="436.5" x2="477.5" y1="285.5391" y2="285.5391"/><polygon fill="#181818" points="446.5,281.5391,436.5,285.5391,446.5,289.5391,442.5,285.5391" style="stroke:#181818;stroke-width:1.0;"/><text fill="#000000" font-family="sans-serif" font-size="13" font-weight="bold" lengthAdjust="spacing" textLength="7" x="442.5" y="267.7842">4</text><text fill="#000000" font-family="sans-serif" font-size="13" lengthAdjust="spacing" textLength="68" x="453.5" y="267.7842">verifies data</text><polygon fill="#181818" points="93.5,310.0625,83.5,314.0625,93.5,318.0625,89.5,314.0625" style="stroke:#181818;stroke-width:1.0;"/><line style="stroke:#181818;stroke-width:1.0;stroke-dasharray:2.0,2.0;" x1="87.5" x2="429.5" y1="314.0625" y2="314.0625"/><text fill="#000000" font-family="sans-serif" font-size="13" font-weight="bold" lengthAdjust="spacing" textLength="7" x="99.5" y="309.3076">5</text><text fill="#000000" font-family="sans-serif" font-size="13" lengthAdjust="spacing" textLength="185" x="110.5" y="309.3076">displays a confirmation dialogue</text><polygon fill="#181818" points="413.5,338.5859,423.5,342.5859,413.5,346.5859,417.5,342.5859" style="stroke:#181818;stroke-width:1.0;"/><line style="stroke:#181818;stroke-width:1.0;" x1="82.5" x2="419.5" y1="342.5859" y2="342.5859"/><text fill="#000000" font-family="sans-serif" font-size="13" font-weight="bold" lengthAdjust="spacing" textLength="7" x="89.5" y="337.8311">6</text><text fill="#000000" font-family="sans-serif" font-size="13" lengthAdjust="spacing" textLength="78" x="100.5" y="337.8311">confirms data</text><line style="stroke:#181818;stroke-width:1.0;" x1="435.5" x2="477.5" y1="371.1094" y2="371.1094"/><line style="stroke:#181818;stroke-width:1.0;" x1="477.5" x2="477.5" y1="371.1094" y2="384.1094"/><line style="stroke:#181818;stroke-width:1.0;" x1="436.5" x2="477.5" y1="384.1094" y2="384.1094"/><polygon fill="#181818" points="446.5,380.1094,436.5,384.1094,446.5,388.1094,442.5,384.1094" style="stroke:#181818;stroke-width:1.0;"/><text fill="#000000" font-family="sans-serif" font-size="13" font-weight="bold" lengthAdjust="spacing" textLength="7" x="442.5" y="366.3545">7</text><text fill="#000000" font-family="sans-serif" font-size="13" lengthAdjust="spacing" textLength="106" x="453.5" y="366.3545">verifies information</text><polygon fill="#181818" points="93.5,415.6328,83.5,419.6328,93.5,423.6328,89.5,419.6328" style="stroke:#181818;stroke-width:1.0;"/><line style="stroke:#181818;stroke-width:1.0;stroke-dasharray:2.0,2.0;" x1="87.5" x2="429.5" y1="419.6328" y2="419.6328"/><text fill="#000000" font-family="sans-serif" font-size="13" font-weight="bold" lengthAdjust="spacing" textLength="7" x="99.5" y="414.8779">8</text><text fill="#000000" font-family="sans-serif" font-size="13" lengthAdjust="spacing" textLength="158" x="110.5" y="414.8779">displays operation success</text><!--SRC=[ZP8nRy8m48Nt_8eJ4mn8xPgX4mCB2r6tBeTz2ISSs_LTGFdtTHA2K0MqdaxoytlVErbEx2CcRA4DFfXZ2Ys1feuAkTr4D2TigDBU4IGoYhvnzm8veWqNzWtKw8IAGbcpjEf5gOMAlZloXc33s0poPLLjLh26p-hjlIYmq-2xza0fpqP3WiMsQz73dYHqoT2Ntw7F-Ma1AB3TxugSgcmuebTOb5FCU3cDem-VKMbK5v1F7c3zCIELMNmIq00cqQ13y7I1tCYvKNupc1tXUgu6w-mrM9Pv7xcTg815HLWYM1AJE2e73w46FTBaEwGTw1feLwEZfOT1BeG8dLTsmBuEgSNHZILp6Ohv-UDIsaUIcOZiYFIgpbncjYZXJ8bhfgdDYzQM9JhiCn2Ou6kU4IsZ2qt-FI_Q_QQ-6iXpt3zOxtOq9P2t_s4FaTA4BLtUgyWJwXy0]--></g></svg>