<?xml version="1.0" encoding="us-ascii" standalone="no"?><svg xmlns="http://www.w3.org/2000/svg" xmlns:xlink="http://www.w3.org/1999/xlink" contentStyleType="text/css" height="1608px" preserveAspectRatio="none" style="width:3175px;height:1608px;background:#FFFFFF;" version="1.1" viewBox="0 0 3175 1608" width="3175px" zoomAndPan="magnify"><defs/><g><text fill="#000000" font-family="sans-serif" font-size="14" font-weight="bold" lengthAdjust="spacing" textLength="200" x="1486.5" y="28.5352">US07 - View station details</text><text fill="#000000" font-family="sans-serif" font-size="14" font-weight="bold" lengthAdjust="spacing" textLength="427" x="1375.5" y="45.0234">(buildings + cargo demand/supply from nearby industries)</text><rect fill="#FFFFFF" height="1364.3516" style="stroke:#181818;stroke-width:1.0;" width="10" x="23.5" y="145.4648"/><rect fill="#FFFFFF" height="556.123" style="stroke:#181818;stroke-width:1.0;" width="10" x="215.5" y="166.7754"/><rect fill="#FFFFFF" height="757.6074" style="stroke:#181818;stroke-width:1.0;" width="10" x="215.5" y="752.209"/><rect fill="#FFFFFF" height="456.0137" style="stroke:#181818;stroke-width:1.0;" width="10" x="449.5" y="237.5742"/><rect fill="#FFFFFF" height="698.9863" style="stroke:#181818;stroke-width:1.0;" width="10" x="449.5" y="781.5195"/><rect fill="#FFFFFF" height="29.3105" style="stroke:#181818;stroke-width:1.0;" width="10" x="616" y="266.8848"/><rect fill="#FFFFFF" height="29.3105" style="stroke:#181818;stroke-width:1.0;" width="10" x="727" y="325.5059"/><rect fill="#FFFFFF" height="280.1504" style="stroke:#181818;stroke-width:1.0;" width="10" x="856" y="384.127"/><rect fill="#FFFFFF" height="29.3105" style="stroke:#181818;stroke-width:1.0;" width="10" x="856" y="810.8301"/><rect fill="#FFFFFF" height="221.5293" style="stroke:#181818;stroke-width:1.0;" width="10" x="1022" y="413.4375"/><rect fill="#FFFFFF" height="34.3105" style="stroke:#181818;stroke-width:1.0;" width="10" x="1027" y="499.3691"/><rect fill="#FFFFFF" height="280.1504" style="stroke:#181818;stroke-width:1.0;" width="10" x="1392" y="869.4512"/><rect fill="#FFFFFF" height="221.5293" style="stroke:#181818;stroke-width:1.0;" width="10" x="1569" y="898.7617"/><rect fill="#FFFFFF" height="34.3105" style="stroke:#181818;stroke-width:1.0;" width="10" x="1574" y="984.6934"/><rect fill="#FFFFFF" height="29.3105" style="stroke:#181818;stroke-width:1.0;" width="10" x="2513.5" y="1223.3555"/><rect fill="#FFFFFF" height="79.9316" style="stroke:#181818;stroke-width:1.0;" width="10" x="3119" y="1306.2871"/><rect fill="none" height="178.2188" style="stroke:#000000;stroke-width:1.5;" width="428" x="948" y="428.4375"/><rect fill="none" height="146.9082" style="stroke:#000000;stroke-width:1.5;" width="408" x="958" y="452.748"/><rect fill="none" height="178.2188" style="stroke:#000000;stroke-width:1.5;" width="446" x="1493" y="913.7617"/><rect fill="none" height="146.9082" style="stroke:#000000;stroke-width:1.5;" width="426" x="1503" y="938.0723"/><rect fill="none" height="126.5527" style="stroke:#000000;stroke-width:1.5;" width="2831.5" x="337.5" y="1267.666"/><line style="stroke:#181818;stroke-width:0.5;stroke-dasharray:5.0,5.0;" x1="28" x2="28" y1="135.4648" y2="1527.8164"/><line style="stroke:#181818;stroke-width:0.5;stroke-dasharray:5.0,5.0;" x1="220.5" x2="220.5" y1="135.4648" y2="1527.8164"/><line style="stroke:#181818;stroke-width:0.5;stroke-dasharray:5.0,5.0;" x1="454.5" x2="454.5" y1="205.5195" y2="1527.8164"/><line style="stroke:#181818;stroke-width:0.5;stroke-dasharray:5.0,5.0;" x1="620.5" x2="620.5" y1="135.4648" y2="1527.8164"/><line style="stroke:#181818;stroke-width:0.5;stroke-dasharray:5.0,5.0;" x1="731.5" x2="731.5" y1="135.4648" y2="1527.8164"/><line style="stroke:#181818;stroke-width:0.5;stroke-dasharray:5.0,5.0;" x1="860.5" x2="860.5" y1="135.4648" y2="1527.8164"/><line style="stroke:#181818;stroke-width:0.5;stroke-dasharray:5.0,5.0;" x1="1027" x2="1027" y1="135.4648" y2="1527.8164"/><line style="stroke:#181818;stroke-width:0.5;stroke-dasharray:5.0,5.0;" x1="1166" x2="1166" y1="551.3574" y2="1527.8164"/><line style="stroke:#181818;stroke-width:0.5;stroke-dasharray:5.0,5.0;" x1="1288" x2="1288" y1="135.4648" y2="1527.8164"/><line style="stroke:#181818;stroke-width:0.5;stroke-dasharray:5.0,5.0;" x1="1397" x2="1397" y1="135.4648" y2="1527.8164"/><line style="stroke:#181818;stroke-width:0.5;stroke-dasharray:5.0,5.0;" x1="1574" x2="1574" y1="135.4648" y2="1527.8164"/><line style="stroke:#181818;stroke-width:0.5;stroke-dasharray:5.0,5.0;" x1="1717" x2="1717" y1="1036.6816" y2="1527.8164"/><line style="stroke:#181818;stroke-width:0.5;stroke-dasharray:5.0,5.0;" x1="1847" x2="1847" y1="135.4648" y2="1527.8164"/><line style="stroke:#181818;stroke-width:0.5;stroke-dasharray:5.0,5.0;" x1="2001" x2="2001" y1="135.4648" y2="1527.8164"/><line style="stroke:#181818;stroke-width:0.5;stroke-dasharray:5.0,5.0;" x1="2157" x2="2157" y1="135.4648" y2="1527.8164"/><line style="stroke:#181818;stroke-width:0.5;stroke-dasharray:5.0,5.0;" x1="2299" x2="2299" y1="135.4648" y2="1527.8164"/><line style="stroke:#181818;stroke-width:0.5;stroke-dasharray:5.0,5.0;" x1="2427" x2="2427" y1="135.4648" y2="1527.8164"/><line style="stroke:#181818;stroke-width:0.5;stroke-dasharray:5.0,5.0;" x1="2518" x2="2518" y1="135.4648" y2="1527.8164"/><line style="stroke:#181818;stroke-width:0.5;stroke-dasharray:5.0,5.0;" x1="2613" x2="2613" y1="135.4648" y2="1527.8164"/><line style="stroke:#181818;stroke-width:0.5;stroke-dasharray:5.0,5.0;" x1="2733" x2="2733" y1="135.4648" y2="1527.8164"/><line style="stroke:#181818;stroke-width:0.5;stroke-dasharray:5.0,5.0;" x1="2861" x2="2861" y1="135.4648" y2="1527.8164"/><line style="stroke:#181818;stroke-width:0.5;stroke-dasharray:5.0,5.0;" x1="3011" x2="3011" y1="1440.207" y2="1527.8164"/><line style="stroke:#181818;stroke-width:0.5;stroke-dasharray:5.0,5.0;" x1="3124" x2="3124" y1="135.4648" y2="1527.8164"/><text fill="#000000" font-family="sans-serif" font-size="14" lengthAdjust="spacing" textLength="41" x="5" y="132.5117">Player</text><ellipse cx="28.5" cy="67.4766" fill="#E2E2F0" rx="8" ry="8" style="stroke:#181818;stroke-width:0.5;"/><path d="M28.5,75.4766 L28.5,102.4766 M15.5,83.4766 L41.5,83.4766 M28.5,102.4766 L15.5,117.4766 M28.5,102.4766 L41.5,117.4766 " fill="none" style="stroke:#181818;stroke-width:0.5;"/><text fill="#000000" font-family="sans-serif" font-size="14" lengthAdjust="spacing" textLength="41" x="5" y="1540.3516">Player</text><ellipse cx="28.5" cy="1551.8047" fill="#E2E2F0" rx="8" ry="8" style="stroke:#181818;stroke-width:0.5;"/><path d="M28.5,1559.8047 L28.5,1586.8047 M15.5,1567.8047 L41.5,1567.8047 M28.5,1586.8047 L15.5,1601.8047 M28.5,1586.8047 L41.5,1601.8047 " fill="none" style="stroke:#181818;stroke-width:0.5;"/><rect fill="#E2E2F0" height="30.4883" rx="2.5" ry="2.5" style="stroke:#181818;stroke-width:0.5;" width="158" x="141.5" y="103.9766"/><text fill="#000000" font-family="sans-serif" font-size="14" lengthAdjust="spacing" textLength="144" x="148.5" y="124.5117">:ViewStationDetailsUI</text><rect fill="#E2E2F0" height="30.4883" rx="2.5" ry="2.5" style="stroke:#181818;stroke-width:0.5;" width="158" x="141.5" y="1526.8164"/><text fill="#000000" font-family="sans-serif" font-size="14" lengthAdjust="spacing" textLength="144" x="148.5" y="1547.3516">:ViewStationDetailsUI</text><rect fill="#E2E2F0" height="30.4883" rx="2.5" ry="2.5" style="stroke:#181818;stroke-width:0.5;" width="214" x="347.5" y="1526.8164"/><text fill="#000000" font-family="sans-serif" font-size="14" lengthAdjust="spacing" textLength="200" x="354.5" y="1547.3516">:ViewStationDetailsController</text><rect fill="#E2E2F0" height="30.4883" rx="2.5" ry="2.5" style="stroke:#181818;stroke-width:0.5;" width="99" x="571.5" y="103.9766"/><text fill="#000000" font-family="sans-serif" font-size="14" lengthAdjust="spacing" textLength="85" x="578.5" y="124.5117">Repositories</text><rect fill="#E2E2F0" height="30.4883" rx="2.5" ry="2.5" style="stroke:#181818;stroke-width:0.5;" width="99" x="571.5" y="1526.8164"/><text fill="#000000" font-family="sans-serif" font-size="14" lengthAdjust="spacing" textLength="85" x="578.5" y="1547.3516">Repositories</text><rect fill="#E2E2F0" height="46.9766" rx="2.5" ry="2.5" style="stroke:#181818;stroke-width:0.5;" width="103" x="680.5" y="87.4883"/><text fill="#000000" font-family="sans-serif" font-size="14" lengthAdjust="spacing" textLength="82" x="691" y="108.0234">repositories</text><text fill="#000000" font-family="sans-serif" font-size="14" lengthAdjust="spacing" textLength="89" x="687.5" y="124.5117">:Repositories</text><rect fill="#E2E2F0" height="46.9766" rx="2.5" ry="2.5" style="stroke:#181818;stroke-width:0.5;" width="103" x="680.5" y="1526.8164"/><text fill="#000000" font-family="sans-serif" font-size="14" lengthAdjust="spacing" textLength="82" x="691" y="1547.3516">repositories</text><text fill="#000000" font-family="sans-serif" font-size="14" lengthAdjust="spacing" textLength="89" x="687.5" y="1563.8398">:Repositories</text><rect fill="#E2E2F0" height="30.4883" rx="2.5" ry="2.5" style="stroke:#181818;stroke-width:0.5;" width="135" x="793.5" y="103.9766"/><text fill="#000000" font-family="sans-serif" font-size="14" lengthAdjust="spacing" textLength="121" x="800.5" y="124.5117">StationRepository</text><rect fill="#E2E2F0" height="30.4883" rx="2.5" ry="2.5" style="stroke:#181818;stroke-width:0.5;" width="135" x="793.5" y="1526.8164"/><text fill="#000000" font-family="sans-serif" font-size="14" lengthAdjust="spacing" textLength="121" x="800.5" y="1547.3516">StationRepository</text><rect fill="#E2E2F0" height="30.4883" rx="2.5" ry="2.5" style="stroke:#181818;stroke-width:0.5;" width="118" x="968" y="103.9766"/><text fill="#000000" font-family="sans-serif" font-size="14" lengthAdjust="spacing" textLength="104" x="975" y="124.5117">:StationMapper</text><rect fill="#E2E2F0" height="30.4883" rx="2.5" ry="2.5" style="stroke:#181818;stroke-width:0.5;" width="118" x="968" y="1526.8164"/><text fill="#000000" font-family="sans-serif" font-size="14" lengthAdjust="spacing" textLength="104" x="975" y="1547.3516">:StationMapper</text><rect fill="#E2E2F0" height="46.9766" rx="2.5" ry="2.5" style="stroke:#181818;stroke-width:0.5;" width="90" x="1121" y="1526.8164"/><text fill="#000000" font-family="sans-serif" font-size="14" lengthAdjust="spacing" textLength="46" x="1143" y="1547.3516">objDto</text><text fill="#000000" font-family="sans-serif" font-size="14" lengthAdjust="spacing" textLength="76" x="1128" y="1563.8398">:StationDto</text><rect fill="#E2E2F0" height="46.9766" rx="2.5" ry="2.5" style="stroke:#181818;stroke-width:0.5;" width="135" x="1221" y="87.4883"/><text fill="#000000" font-family="sans-serif" font-size="14" lengthAdjust="spacing" textLength="95" x="1241" y="108.0234">StationDtoList</text><text fill="#000000" font-family="sans-serif" font-size="14" lengthAdjust="spacing" textLength="121" x="1228" y="124.5117">:List&lt;StationDto&gt;</text><rect fill="#E2E2F0" height="46.9766" rx="2.5" ry="2.5" style="stroke:#181818;stroke-width:0.5;" width="135" x="1221" y="1526.8164"/><text fill="#000000" font-family="sans-serif" font-size="14" lengthAdjust="spacing" textLength="95" x="1241" y="1547.3516">StationDtoList</text><text fill="#000000" font-family="sans-serif" font-size="14" lengthAdjust="spacing" textLength="121" x="1228" y="1563.8398">:List&lt;StationDto&gt;</text><rect fill="#E2E2F0" height="30.4883" rx="2.5" ry="2.5" style="stroke:#181818;stroke-width:0.5;" width="62" x="1366" y="103.9766"/><text fill="#000000" font-family="sans-serif" font-size="14" lengthAdjust="spacing" textLength="48" x="1373" y="124.5117">Station</text><rect fill="#E2E2F0" height="30.4883" rx="2.5" ry="2.5" style="stroke:#181818;stroke-width:0.5;" width="62" x="1366" y="1526.8164"/><text fill="#000000" font-family="sans-serif" font-size="14" lengthAdjust="spacing" textLength="48" x="1373" y="1547.3516">Station</text><rect fill="#E2E2F0" height="30.4883" rx="2.5" ry="2.5" style="stroke:#181818;stroke-width:0.5;" width="122" x="1513" y="103.9766"/><text fill="#000000" font-family="sans-serif" font-size="14" lengthAdjust="spacing" textLength="108" x="1520" y="124.5117">BuildingMapper</text><rect fill="#E2E2F0" height="30.4883" rx="2.5" ry="2.5" style="stroke:#181818;stroke-width:0.5;" width="122" x="1513" y="1526.8164"/><text fill="#000000" font-family="sans-serif" font-size="14" lengthAdjust="spacing" textLength="108" x="1520" y="1547.3516">BuildingMapper</text><rect fill="#E2E2F0" height="46.9766" rx="2.5" ry="2.5" style="stroke:#181818;stroke-width:0.5;" width="98" x="1668" y="1526.8164"/><text fill="#000000" font-family="sans-serif" font-size="14" lengthAdjust="spacing" textLength="81" x="1676.5" y="1547.3516">buildingDto</text><text fill="#000000" font-family="sans-serif" font-size="14" lengthAdjust="spacing" textLength="84" x="1675" y="1563.8398">:BuildingDto</text><rect fill="#E2E2F0" height="46.9766" rx="2.5" ry="2.5" style="stroke:#181818;stroke-width:0.5;" width="143" x="1776" y="87.4883"/><text fill="#000000" font-family="sans-serif" font-size="14" lengthAdjust="spacing" textLength="104" x="1795.5" y="108.0234">buildingDtoList</text><text fill="#000000" font-family="sans-serif" font-size="14" lengthAdjust="spacing" textLength="129" x="1783" y="124.5117">:List&lt;BuildingDto&gt;</text><rect fill="#E2E2F0" height="46.9766" rx="2.5" ry="2.5" style="stroke:#181818;stroke-width:0.5;" width="143" x="1776" y="1526.8164"/><text fill="#000000" font-family="sans-serif" font-size="14" lengthAdjust="spacing" textLength="104" x="1795.5" y="1547.3516">buildingDtoList</text><text fill="#000000" font-family="sans-serif" font-size="14" lengthAdjust="spacing" textLength="129" x="1783" y="1563.8398">:List&lt;BuildingDto&gt;</text><rect fill="#E2E2F0" height="30.4883" rx="2.5" ry="2.5" style="stroke:#181818;stroke-width:0.5;" width="144" x="1929" y="103.9766"/><text fill="#000000" font-family="sans-serif" font-size="14" lengthAdjust="spacing" textLength="130" x="1936" y="124.5117">ApplicationSession</text><rect fill="#E2E2F0" height="30.4883" rx="2.5" ry="2.5" style="stroke:#181818;stroke-width:0.5;" width="144" x="1929" y="1526.8164"/><text fill="#000000" font-family="sans-serif" font-size="14" lengthAdjust="spacing" textLength="130" x="1936" y="1547.3516">ApplicationSession</text><rect fill="#E2E2F0" height="46.9766" rx="2.5" ry="2.5" style="stroke:#181818;stroke-width:0.5;" width="148" x="2083" y="87.4883"/><text fill="#000000" font-family="sans-serif" font-size="14" lengthAdjust="spacing" textLength="78" x="2118" y="108.0234">appSession</text><text fill="#000000" font-family="sans-serif" font-size="14" lengthAdjust="spacing" textLength="134" x="2090" y="124.5117">:ApplicationSession</text><rect fill="#E2E2F0" height="46.9766" rx="2.5" ry="2.5" style="stroke:#181818;stroke-width:0.5;" width="148" x="2083" y="1526.8164"/><text fill="#000000" font-family="sans-serif" font-size="14" lengthAdjust="spacing" textLength="78" x="2118" y="1547.3516">appSession</text><text fill="#000000" font-family="sans-serif" font-size="14" lengthAdjust="spacing" textLength="134" x="2090" y="1563.8398">:ApplicationSession</text><rect fill="#E2E2F0" height="46.9766" rx="2.5" ry="2.5" style="stroke:#181818;stroke-width:0.5;" width="116" x="2241" y="87.4883"/><text fill="#000000" font-family="sans-serif" font-size="14" lengthAdjust="spacing" textLength="102" x="2248" y="108.0234">currentSession</text><text fill="#000000" font-family="sans-serif" font-size="14" lengthAdjust="spacing" textLength="87" x="2255.5" y="124.5117">:UserSession</text><rect fill="#E2E2F0" height="46.9766" rx="2.5" ry="2.5" style="stroke:#181818;stroke-width:0.5;" width="116" x="2241" y="1526.8164"/><text fill="#000000" font-family="sans-serif" font-size="14" lengthAdjust="spacing" textLength="102" x="2248" y="1547.3516">currentSession</text><text fill="#000000" font-family="sans-serif" font-size="14" lengthAdjust="spacing" textLength="87" x="2255.5" y="1563.8398">:UserSession</text><rect fill="#E2E2F0" height="46.9766" rx="2.5" ry="2.5" style="stroke:#181818;stroke-width:0.5;" width="120" x="2367" y="87.4883"/><text fill="#000000" font-family="sans-serif" font-size="14" lengthAdjust="spacing" textLength="103" x="2375.5" y="108.0234">mapRepository</text><text fill="#000000" font-family="sans-serif" font-size="14" lengthAdjust="spacing" textLength="106" x="2374" y="124.5117">:MapRepository</text><rect fill="#E2E2F0" height="46.9766" rx="2.5" ry="2.5" style="stroke:#181818;stroke-width:0.5;" width="120" x="2367" y="1526.8164"/><text fill="#000000" font-family="sans-serif" font-size="14" lengthAdjust="spacing" textLength="103" x="2375.5" y="1547.3516">mapRepository</text><text fill="#000000" font-family="sans-serif" font-size="14" lengthAdjust="spacing" textLength="106" x="2374" y="1563.8398">:MapRepository</text><rect fill="#E2E2F0" height="30.4883" rx="2.5" ry="2.5" style="stroke:#181818;stroke-width:0.5;" width="43" x="2497" y="103.9766"/><text fill="#000000" font-family="sans-serif" font-size="14" lengthAdjust="spacing" textLength="29" x="2504" y="124.5117">Map</text><rect fill="#E2E2F0" height="30.4883" rx="2.5" ry="2.5" style="stroke:#181818;stroke-width:0.5;" width="43" x="2497" y="1526.8164"/><text fill="#000000" font-family="sans-serif" font-size="14" lengthAdjust="spacing" textLength="29" x="2504" y="1547.3516">Map</text><rect fill="#E2E2F0" height="30.4883" rx="2.5" ry="2.5" style="stroke:#181818;stroke-width:0.5;" width="126" x="2550" y="103.9766"/><text fill="#000000" font-family="sans-serif" font-size="14" lengthAdjust="spacing" textLength="112" x="2557" y="124.5117">:IndustryMapper</text><rect fill="#E2E2F0" height="30.4883" rx="2.5" ry="2.5" style="stroke:#181818;stroke-width:0.5;" width="126" x="2550" y="1526.8164"/><text fill="#000000" font-family="sans-serif" font-size="14" lengthAdjust="spacing" textLength="112" x="2557" y="1547.3516">:IndustryMapper</text><rect fill="#E2E2F0" height="46.9766" rx="2.5" ry="2.5" style="stroke:#181818;stroke-width:0.5;" width="94" x="2686" y="87.4883"/><text fill="#000000" font-family="sans-serif" font-size="14" lengthAdjust="spacing" textLength="80" x="2693" y="108.0234">industryDto</text><text fill="#000000" font-family="sans-serif" font-size="14" lengthAdjust="spacing" textLength="80" x="2693" y="124.5117">IndustryDto</text><rect fill="#E2E2F0" height="46.9766" rx="2.5" ry="2.5" style="stroke:#181818;stroke-width:0.5;" width="94" x="2686" y="1526.8164"/><text fill="#000000" font-family="sans-serif" font-size="14" lengthAdjust="spacing" textLength="80" x="2693" y="1547.3516">industryDto</text><text fill="#000000" font-family="sans-serif" font-size="14" lengthAdjust="spacing" textLength="80" x="2693" y="1563.8398">IndustryDto</text><rect fill="#E2E2F0" height="46.9766" rx="2.5" ry="2.5" style="stroke:#181818;stroke-width:0.5;" width="143" x="2790" y="87.4883"/><text fill="#000000" font-family="sans-serif" font-size="14" lengthAdjust="spacing" textLength="103" x="2810" y="108.0234">industryDtoList</text><text fill="#000000" font-family="sans-serif" font-size="14" lengthAdjust="spacing" textLength="129" x="2797" y="124.5117">:List&lt;IndustryDto&gt;</text><rect fill="#E2E2F0" height="46.9766" rx="2.5" ry="2.5" style="stroke:#181818;stroke-width:0.5;" width="143" x="2790" y="1526.8164"/><text fill="#000000" font-family="sans-serif" font-size="14" lengthAdjust="spacing" textLength="103" x="2810" y="1547.3516">industryDtoList</text><text fill="#000000" font-family="sans-serif" font-size="14" lengthAdjust="spacing" textLength="129" x="2797" y="1563.8398">:List&lt;IndustryDto&gt;</text><rect fill="#E2E2F0" height="46.9766" rx="2.5" ry="2.5" style="stroke:#181818;stroke-width:0.5;" width="136" x="2943" y="1526.8164"/><text fill="#000000" font-family="sans-serif" font-size="14" lengthAdjust="spacing" textLength="117" x="2952.5" y="1547.3516">stationDetailsDto</text><text fill="#000000" font-family="sans-serif" font-size="14" lengthAdjust="spacing" textLength="122" x="2950" y="1563.8398">:StationDetailsDto</text><rect fill="#E2E2F0" height="30.4883" rx="2.5" ry="2.5" style="stroke:#181818;stroke-width:0.5;" width="70" x="3089" y="103.9766"/><text fill="#000000" font-family="sans-serif" font-size="14" lengthAdjust="spacing" textLength="56" x="3096" y="124.5117">Industry</text><rect fill="#E2E2F0" height="30.4883" rx="2.5" ry="2.5" style="stroke:#181818;stroke-width:0.5;" width="70" x="3089" y="1526.8164"/><text fill="#000000" font-family="sans-serif" font-size="14" lengthAdjust="spacing" textLength="56" x="3096" y="1547.3516">Industry</text><rect fill="#FFFFFF" height="1364.3516" style="stroke:#181818;stroke-width:1.0;" width="10" x="23.5" y="145.4648"/><rect fill="#FFFFFF" height="556.123" style="stroke:#181818;stroke-width:1.0;" width="10" x="215.5" y="166.7754"/><rect fill="#FFFFFF" height="757.6074" style="stroke:#181818;stroke-width:1.0;" width="10" x="215.5" y="752.209"/><rect fill="#FFFFFF" height="456.0137" style="stroke:#181818;stroke-width:1.0;" width="10" x="449.5" y="237.5742"/><rect fill="#FFFFFF" height="698.9863" style="stroke:#181818;stroke-width:1.0;" width="10" x="449.5" y="781.5195"/><rect fill="#FFFFFF" height="29.3105" style="stroke:#181818;stroke-width:1.0;" width="10" x="616" y="266.8848"/><rect fill="#FFFFFF" height="29.3105" style="stroke:#181818;stroke-width:1.0;" width="10" x="727" y="325.5059"/><rect fill="#FFFFFF" height="280.1504" style="stroke:#181818;stroke-width:1.0;" width="10" x="856" y="384.127"/><rect fill="#FFFFFF" height="29.3105" style="stroke:#181818;stroke-width:1.0;" width="10" x="856" y="810.8301"/><rect fill="#FFFFFF" height="221.5293" style="stroke:#181818;stroke-width:1.0;" width="10" x="1022" y="413.4375"/><rect fill="#FFFFFF" height="34.3105" style="stroke:#181818;stroke-width:1.0;" width="10" x="1027" y="499.3691"/><rect fill="#FFFFFF" height="280.1504" style="stroke:#181818;stroke-width:1.0;" width="10" x="1392" y="869.4512"/><rect fill="#FFFFFF" height="221.5293" style="stroke:#181818;stroke-width:1.0;" width="10" x="1569" y="898.7617"/><rect fill="#FFFFFF" height="34.3105" style="stroke:#181818;stroke-width:1.0;" width="10" x="1574" y="984.6934"/><rect fill="#FFFFFF" height="29.3105" style="stroke:#181818;stroke-width:1.0;" width="10" x="2513.5" y="1223.3555"/><rect fill="#FFFFFF" height="79.9316" style="stroke:#181818;stroke-width:1.0;" width="10" x="3119" y="1306.2871"/><polygon fill="#181818" points="203.5,162.7754,213.5,166.7754,203.5,170.7754,207.5,166.7754" style="stroke:#181818;stroke-width:1.0;"/><line style="stroke:#181818;stroke-width:1.0;" x1="33.5" x2="209.5" y1="166.7754" y2="166.7754"/><text fill="#000000" font-family="sans-serif" font-size="13" font-weight="bold" lengthAdjust="spacing" textLength="9" x="40.5" y="162.0332">1</text><text fill="#000000" font-family="sans-serif" font-size="13" lengthAdjust="spacing" textLength="150" x="53.5" y="162.0332">requests list of stations</text><polygon fill="#181818" points="335.5,192.0859,345.5,196.0859,335.5,200.0859,339.5,196.0859" style="stroke:#181818;stroke-width:1.0;"/><line style="stroke:#181818;stroke-width:1.0;stroke-dasharray:2.0,2.0;" x1="225.5" x2="341.5" y1="196.0859" y2="196.0859"/><text fill="#000000" font-family="sans-serif" font-size="13" font-weight="bold" lengthAdjust="spacing" textLength="9" x="232.5" y="191.3438">2</text><text fill="#000000" font-family="sans-serif" font-size="13" lengthAdjust="spacing" textLength="38" x="245.5" y="191.3438">create</text><rect fill="#E2E2F0" height="30.4883" rx="2.5" ry="2.5" style="stroke:#181818;stroke-width:0.5;" width="214" x="347.5" y="174.7754"/><text fill="#000000" font-family="sans-serif" font-size="14" lengthAdjust="spacing" textLength="200" x="354.5" y="195.3105">:ViewStationDetailsController</text><polygon fill="#181818" points="437.5,233.5742,447.5,237.5742,437.5,241.5742,441.5,237.5742" style="stroke:#181818;stroke-width:1.0;"/><line style="stroke:#181818;stroke-width:1.0;" x1="225.5" x2="443.5" y1="237.5742" y2="237.5742"/><text fill="#000000" font-family="sans-serif" font-size="13" font-weight="bold" lengthAdjust="spacing" textLength="9" x="232.5" y="232.832">3</text><text fill="#000000" font-family="sans-serif" font-size="13" lengthAdjust="spacing" textLength="136" x="245.5" y="232.832">getAvailableStations()</text><polygon fill="#181818" points="604,262.8848,614,266.8848,604,270.8848,608,266.8848" style="stroke:#181818;stroke-width:1.0;"/><line style="stroke:#181818;stroke-width:1.0;" x1="459.5" x2="610" y1="266.8848" y2="266.8848"/><text fill="#000000" font-family="sans-serif" font-size="13" font-weight="bold" lengthAdjust="spacing" textLength="9" x="466.5" y="262.1426">4</text><text fill="#000000" font-family="sans-serif" font-size="13" lengthAdjust="spacing" textLength="81" x="479.5" y="262.1426">getInstance()</text><polygon fill="#181818" points="470.5,292.1953,460.5,296.1953,470.5,300.1953,466.5,296.1953" style="stroke:#181818;stroke-width:1.0;"/><line style="stroke:#181818;stroke-width:1.0;stroke-dasharray:2.0,2.0;" x1="464.5" x2="620" y1="296.1953" y2="296.1953"/><text fill="#000000" font-family="sans-serif" font-size="13" font-weight="bold" lengthAdjust="spacing" textLength="9" x="476.5" y="291.4531">5</text><text fill="#000000" font-family="sans-serif" font-size="13" lengthAdjust="spacing" textLength="75" x="489.5" y="291.4531">repositories</text><polygon fill="#181818" points="715,321.5059,725,325.5059,715,329.5059,719,325.5059" style="stroke:#181818;stroke-width:1.0;"/><line style="stroke:#181818;stroke-width:1.0;" x1="459.5" x2="721" y1="325.5059" y2="325.5059"/><text fill="#000000" font-family="sans-serif" font-size="13" font-weight="bold" lengthAdjust="spacing" textLength="9" x="466.5" y="320.7637">6</text><text fill="#000000" font-family="sans-serif" font-size="13" lengthAdjust="spacing" textLength="139" x="479.5" y="320.7637">getStationRepository()</text><polygon fill="#181818" points="470.5,350.8164,460.5,354.8164,470.5,358.8164,466.5,354.8164" style="stroke:#181818;stroke-width:1.0;"/><line style="stroke:#181818;stroke-width:1.0;stroke-dasharray:2.0,2.0;" x1="464.5" x2="731" y1="354.8164" y2="354.8164"/><text fill="#000000" font-family="sans-serif" font-size="13" font-weight="bold" lengthAdjust="spacing" textLength="9" x="476.5" y="350.0742">7</text><text fill="#000000" font-family="sans-serif" font-size="13" lengthAdjust="spacing" textLength="111" x="489.5" y="350.0742">stationRepository</text><polygon fill="#181818" points="844,380.127,854,384.127,844,388.127,848,384.127" style="stroke:#181818;stroke-width:1.0;"/><line style="stroke:#181818;stroke-width:1.0;" x1="459.5" x2="850" y1="384.127" y2="384.127"/><text fill="#000000" font-family="sans-serif" font-size="13" font-weight="bold" lengthAdjust="spacing" textLength="9" x="466.5" y="379.3848">8</text><text fill="#000000" font-family="sans-serif" font-size="13" lengthAdjust="spacing" textLength="96" x="479.5" y="379.3848">getAllStations()</text><polygon fill="#181818" points="1010,409.4375,1020,413.4375,1010,417.4375,1014,413.4375" style="stroke:#181818;stroke-width:1.0;"/><line style="stroke:#181818;stroke-width:1.0;" x1="866" x2="1016" y1="413.4375" y2="413.4375"/><text fill="#000000" font-family="sans-serif" font-size="13" font-weight="bold" lengthAdjust="spacing" textLength="9" x="873" y="408.6953">9</text><text fill="#000000" font-family="sans-serif" font-size="13" lengthAdjust="spacing" textLength="118" x="886" y="408.6953">toDtoList(stations)</text><path d="M948,428.4375 L1169,428.4375 L1169,435.748 L1159,445.748 L948,445.748 L948,428.4375 " fill="#EEEEEE" style="stroke:#000000;stroke-width:1.5;"/><rect fill="none" height="178.2188" style="stroke:#000000;stroke-width:1.5;" width="428" x="948" y="428.4375"/><text fill="#000000" font-family="sans-serif" font-size="13" font-weight="bold" lengthAdjust="spacing" textLength="176" x="963" y="442.0059">Transform the List to DTO</text><path d="M958,452.748 L1032,452.748 L1032,460.0586 L1022,470.0586 L958,470.0586 L958,452.748 " fill="#EEEEEE" style="stroke:#000000;stroke-width:1.5;"/><rect fill="none" height="146.9082" style="stroke:#000000;stroke-width:1.5;" width="408" x="958" y="452.748"/><text fill="#000000" font-family="sans-serif" font-size="13" font-weight="bold" lengthAdjust="spacing" textLength="29" x="973" y="466.3164">loop</text><text fill="#000000" font-family="sans-serif" font-size="11" font-weight="bold" lengthAdjust="spacing" textLength="202" x="1047" y="465.3828">[for each Station in the list stations]</text><line style="stroke:#181818;stroke-width:1.0;" x1="1032" x2="1079" y1="486.3691" y2="486.3691"/><line style="stroke:#181818;stroke-width:1.0;" x1="1079" x2="1079" y1="486.3691" y2="499.3691"/><line style="stroke:#181818;stroke-width:1.0;" x1="1038" x2="1079" y1="499.3691" y2="499.3691"/><polygon fill="#181818" points="1048,495.3691,1038,499.3691,1048,503.3691,1044,499.3691" style="stroke:#181818;stroke-width:1.0;"/><text fill="#000000" font-family="sans-serif" font-size="13" font-weight="bold" lengthAdjust="spacing" textLength="18" x="1044" y="481.627">10</text><text fill="#000000" font-family="sans-serif" font-size="13" lengthAdjust="spacing" textLength="88" x="1066" y="481.627">toDto(station)</text><polygon fill="#181818" points="1109,529.6797,1119,533.6797,1109,537.6797,1113,533.6797" style="stroke:#181818;stroke-width:1.0;"/><line style="stroke:#181818;stroke-width:1.0;stroke-dasharray:2.0,2.0;" x1="1032" x2="1115" y1="533.6797" y2="533.6797"/><text fill="#000000" font-family="sans-serif" font-size="13" font-weight="bold" lengthAdjust="spacing" textLength="18" x="1039" y="528.9375">11</text><text fill="#000000" font-family="sans-serif" font-size="13" lengthAdjust="spacing" textLength="38" x="1061" y="528.9375">create</text><rect fill="#E2E2F0" height="46.9766" rx="2.5" ry="2.5" style="stroke:#181818;stroke-width:0.5;" width="90" x="1121" y="512.3691"/><text fill="#000000" font-family="sans-serif" font-size="14" lengthAdjust="spacing" textLength="46" x="1143" y="532.9043">objDto</text><text fill="#000000" font-family="sans-serif" font-size="14" lengthAdjust="spacing" textLength="76" x="1128" y="549.3926">:StationDto</text><polygon fill="#181818" points="1276.5,587.6563,1286.5,591.6563,1276.5,595.6563,1280.5,591.6563" style="stroke:#181818;stroke-width:1.0;"/><line style="stroke:#181818;stroke-width:1.0;" x1="1032" x2="1282.5" y1="591.6563" y2="591.6563"/><text fill="#000000" font-family="sans-serif" font-size="13" font-weight="bold" lengthAdjust="spacing" textLength="18" x="1039" y="586.9141">12</text><text fill="#000000" font-family="sans-serif" font-size="13" lengthAdjust="spacing" textLength="74" x="1061" y="586.9141">add(objDto)</text><polygon fill="#181818" points="877,630.9668,867,634.9668,877,638.9668,873,634.9668" style="stroke:#181818;stroke-width:1.0;"/><line style="stroke:#181818;stroke-width:1.0;stroke-dasharray:2.0,2.0;" x1="871" x2="1026" y1="634.9668" y2="634.9668"/><text fill="#000000" font-family="sans-serif" font-size="13" font-weight="bold" lengthAdjust="spacing" textLength="18" x="883" y="630.2246">13</text><text fill="#000000" font-family="sans-serif" font-size="13" lengthAdjust="spacing" textLength="110" x="905" y="630.2246">List&lt;StationDto&gt;</text><polygon fill="#181818" points="470.5,660.2773,460.5,664.2773,470.5,668.2773,466.5,664.2773" style="stroke:#181818;stroke-width:1.0;"/><line style="stroke:#181818;stroke-width:1.0;stroke-dasharray:2.0,2.0;" x1="464.5" x2="860" y1="664.2773" y2="664.2773"/><text fill="#000000" font-family="sans-serif" font-size="13" font-weight="bold" lengthAdjust="spacing" textLength="18" x="476.5" y="659.5352">14</text><text fill="#000000" font-family="sans-serif" font-size="13" lengthAdjust="spacing" textLength="110" x="498.5" y="659.5352">List&lt;StationDto&gt;</text><polygon fill="#181818" points="236.5,689.5879,226.5,693.5879,236.5,697.5879,232.5,693.5879" style="stroke:#181818;stroke-width:1.0;"/><line style="stroke:#181818;stroke-width:1.0;stroke-dasharray:2.0,2.0;" x1="230.5" x2="453.5" y1="693.5879" y2="693.5879"/><text fill="#000000" font-family="sans-serif" font-size="13" font-weight="bold" lengthAdjust="spacing" textLength="18" x="242.5" y="688.8457">15</text><text fill="#000000" font-family="sans-serif" font-size="13" lengthAdjust="spacing" textLength="92" x="264.5" y="688.8457">list of stations</text><polygon fill="#181818" points="44.5,718.8984,34.5,722.8984,44.5,726.8984,40.5,722.8984" style="stroke:#181818;stroke-width:1.0;"/><line style="stroke:#181818;stroke-width:1.0;stroke-dasharray:2.0,2.0;" x1="38.5" x2="219.5" y1="722.8984" y2="722.8984"/><text fill="#000000" font-family="sans-serif" font-size="13" font-weight="bold" lengthAdjust="spacing" textLength="18" x="50.5" y="718.1563">16</text><text fill="#000000" font-family="sans-serif" font-size="13" lengthAdjust="spacing" textLength="136" x="72.5" y="718.1563">shows list of stations</text><polygon fill="#181818" points="203.5,748.209,213.5,752.209,203.5,756.209,207.5,752.209" style="stroke:#181818;stroke-width:1.0;"/><line style="stroke:#181818;stroke-width:1.0;" x1="33.5" x2="209.5" y1="752.209" y2="752.209"/><text fill="#000000" font-family="sans-serif" font-size="13" font-weight="bold" lengthAdjust="spacing" textLength="18" x="40.5" y="747.4668">17</text><text fill="#000000" font-family="sans-serif" font-size="13" lengthAdjust="spacing" textLength="103" x="62.5" y="747.4668">selects a station</text><polygon fill="#181818" points="437.5,777.5195,447.5,781.5195,437.5,785.5195,441.5,781.5195" style="stroke:#181818;stroke-width:1.0;"/><line style="stroke:#181818;stroke-width:1.0;" x1="225.5" x2="443.5" y1="781.5195" y2="781.5195"/><text fill="#000000" font-family="sans-serif" font-size="13" font-weight="bold" lengthAdjust="spacing" textLength="18" x="232.5" y="776.7773">18</text><text fill="#000000" font-family="sans-serif" font-size="13" lengthAdjust="spacing" textLength="183" x="254.5" y="776.7773">getStationDetails(stationDto)</text><polygon fill="#181818" points="844,806.8301,854,810.8301,844,814.8301,848,810.8301" style="stroke:#181818;stroke-width:1.0;"/><line style="stroke:#181818;stroke-width:1.0;" x1="459.5" x2="850" y1="810.8301" y2="810.8301"/><text fill="#000000" font-family="sans-serif" font-size="13" font-weight="bold" lengthAdjust="spacing" textLength="18" x="466.5" y="806.0879">19</text><text fill="#000000" font-family="sans-serif" font-size="13" lengthAdjust="spacing" textLength="172" x="488.5" y="806.0879">getStationDetails(stationId)</text><polygon fill="#181818" points="470.5,836.1406,460.5,840.1406,470.5,844.1406,466.5,840.1406" style="stroke:#181818;stroke-width:1.0;"/><line style="stroke:#181818;stroke-width:1.0;stroke-dasharray:2.0,2.0;" x1="464.5" x2="860" y1="840.1406" y2="840.1406"/><text fill="#000000" font-family="sans-serif" font-size="13" font-weight="bold" lengthAdjust="spacing" textLength="18" x="476.5" y="835.3984">20</text><text fill="#000000" font-family="sans-serif" font-size="13" lengthAdjust="spacing" textLength="44" x="498.5" y="835.3984">station</text><polygon fill="#181818" points="1380,865.4512,1390,869.4512,1380,873.4512,1384,869.4512" style="stroke:#181818;stroke-width:1.0;"/><line style="stroke:#181818;stroke-width:1.0;" x1="459.5" x2="1386" y1="869.4512" y2="869.4512"/><text fill="#000000" font-family="sans-serif" font-size="13" font-weight="bold" lengthAdjust="spacing" textLength="18" x="466.5" y="864.709">21</text><text fill="#000000" font-family="sans-serif" font-size="13" lengthAdjust="spacing" textLength="86" x="488.5" y="864.709">getBuildings()</text><polygon fill="#181818" points="1557,894.7617,1567,898.7617,1557,902.7617,1561,898.7617" style="stroke:#181818;stroke-width:1.0;"/><line style="stroke:#181818;stroke-width:1.0;" x1="1402" x2="1563" y1="898.7617" y2="898.7617"/><text fill="#000000" font-family="sans-serif" font-size="13" font-weight="bold" lengthAdjust="spacing" textLength="18" x="1409" y="894.0195">22</text><text fill="#000000" font-family="sans-serif" font-size="13" lengthAdjust="spacing" textLength="126" x="1431" y="894.0195">toDtoList(buildings)</text><path d="M1493,913.7617 L1714,913.7617 L1714,921.0723 L1704,931.0723 L1493,931.0723 L1493,913.7617 " fill="#EEEEEE" style="stroke:#000000;stroke-width:1.5;"/><rect fill="none" height="178.2188" style="stroke:#000000;stroke-width:1.5;" width="446" x="1493" y="913.7617"/><text fill="#000000" font-family="sans-serif" font-size="13" font-weight="bold" lengthAdjust="spacing" textLength="176" x="1508" y="927.3301">Transform the List to DTO</text><path d="M1503,938.0723 L1577,938.0723 L1577,945.3828 L1567,955.3828 L1503,955.3828 L1503,938.0723 " fill="#EEEEEE" style="stroke:#000000;stroke-width:1.5;"/><rect fill="none" height="146.9082" style="stroke:#000000;stroke-width:1.5;" width="426" x="1503" y="938.0723"/><text fill="#000000" font-family="sans-serif" font-size="13" font-weight="bold" lengthAdjust="spacing" textLength="29" x="1518" y="951.6406">loop</text><text fill="#000000" font-family="sans-serif" font-size="11" font-weight="bold" lengthAdjust="spacing" textLength="220" x="1592" y="950.707">[for each Building in the list buildings]</text><line style="stroke:#181818;stroke-width:1.0;" x1="1579" x2="1626" y1="971.6934" y2="971.6934"/><line style="stroke:#181818;stroke-width:1.0;" x1="1626" x2="1626" y1="971.6934" y2="984.6934"/><line style="stroke:#181818;stroke-width:1.0;" x1="1585" x2="1626" y1="984.6934" y2="984.6934"/><polygon fill="#181818" points="1595,980.6934,1585,984.6934,1595,988.6934,1591,984.6934" style="stroke:#181818;stroke-width:1.0;"/><text fill="#000000" font-family="sans-serif" font-size="13" font-weight="bold" lengthAdjust="spacing" textLength="18" x="1591" y="966.9512">23</text><text fill="#000000" font-family="sans-serif" font-size="13" lengthAdjust="spacing" textLength="96" x="1613" y="966.9512">toDto(building)</text><polygon fill="#181818" points="1656,1015.0039,1666,1019.0039,1656,1023.0039,1660,1019.0039" style="stroke:#181818;stroke-width:1.0;"/><line style="stroke:#181818;stroke-width:1.0;stroke-dasharray:2.0,2.0;" x1="1579" x2="1662" y1="1019.0039" y2="1019.0039"/><text fill="#000000" font-family="sans-serif" font-size="13" font-weight="bold" lengthAdjust="spacing" textLength="18" x="1586" y="1014.2617">24</text><text fill="#000000" font-family="sans-serif" font-size="13" lengthAdjust="spacing" textLength="38" x="1608" y="1014.2617">create</text><rect fill="#E2E2F0" height="46.9766" rx="2.5" ry="2.5" style="stroke:#181818;stroke-width:0.5;" width="98" x="1668" y="997.6934"/><text fill="#000000" font-family="sans-serif" font-size="14" lengthAdjust="spacing" textLength="81" x="1676.5" y="1018.2285">buildingDto</text><text fill="#000000" font-family="sans-serif" font-size="14" lengthAdjust="spacing" textLength="84" x="1675" y="1034.7168">:BuildingDto</text><polygon fill="#181818" points="1835.5,1072.9805,1845.5,1076.9805,1835.5,1080.9805,1839.5,1076.9805" style="stroke:#181818;stroke-width:1.0;"/><line style="stroke:#181818;stroke-width:1.0;" x1="1579" x2="1841.5" y1="1076.9805" y2="1076.9805"/><text fill="#000000" font-family="sans-serif" font-size="13" font-weight="bold" lengthAdjust="spacing" textLength="18" x="1586" y="1072.2383">25</text><text fill="#000000" font-family="sans-serif" font-size="13" lengthAdjust="spacing" textLength="106" x="1608" y="1072.2383">add(buildingDto)</text><polygon fill="#181818" points="1413,1116.291,1403,1120.291,1413,1124.291,1409,1120.291" style="stroke:#181818;stroke-width:1.0;"/><line style="stroke:#181818;stroke-width:1.0;stroke-dasharray:2.0,2.0;" x1="1407" x2="1573" y1="1120.291" y2="1120.291"/><text fill="#000000" font-family="sans-serif" font-size="13" font-weight="bold" lengthAdjust="spacing" textLength="18" x="1419" y="1115.5488">26</text><text fill="#000000" font-family="sans-serif" font-size="13" lengthAdjust="spacing" textLength="117" x="1441" y="1115.5488">List&lt;BuildingDto&gt;</text><polygon fill="#181818" points="470.5,1145.6016,460.5,1149.6016,470.5,1153.6016,466.5,1149.6016" style="stroke:#181818;stroke-width:1.0;"/><line style="stroke:#181818;stroke-width:1.0;stroke-dasharray:2.0,2.0;" x1="464.5" x2="1396" y1="1149.6016" y2="1149.6016"/><text fill="#000000" font-family="sans-serif" font-size="13" font-weight="bold" lengthAdjust="spacing" textLength="18" x="476.5" y="1144.8594">27</text><text fill="#000000" font-family="sans-serif" font-size="13" lengthAdjust="spacing" textLength="117" x="498.5" y="1144.8594">List&lt;BuildingDto&gt;</text><rect fill="none" height="39.4434" style="stroke:#000000;stroke-width:1.5;" width="220" x="344.5" y="1157.6016"/><path d="M344.5,1157.6016 L408.5,1157.6016 L408.5,1164.6016 L398.5,1174.6016 L344.5,1174.6016 L344.5,1157.6016 " fill="#EEEEEE" style="stroke:#000000;stroke-width:2.0;"/><text fill="#000000" font-family="sans-serif" font-size="13" font-weight="bold" lengthAdjust="spacing" textLength="19" x="357.5" y="1172.1699">ref</text><text fill="#000000" font-family="sans-serif" font-size="12" lengthAdjust="spacing" textLength="151" x="379" y="1190.2031">partial-SD_getCurrentMap</text><polygon fill="#181818" points="2501.5,1219.3555,2511.5,1223.3555,2501.5,1227.3555,2505.5,1223.3555" style="stroke:#181818;stroke-width:1.0;"/><line style="stroke:#181818;stroke-width:1.0;" x1="459.5" x2="2507.5" y1="1223.3555" y2="1223.3555"/><text fill="#000000" font-family="sans-serif" font-size="13" font-weight="bold" lengthAdjust="spacing" textLength="18" x="466.5" y="1218.6133">28</text><text fill="#000000" font-family="sans-serif" font-size="13" lengthAdjust="spacing" textLength="179" x="488.5" y="1218.6133">getNearbyIndustries(station)</text><polygon fill="#181818" points="470.5,1248.666,460.5,1252.666,470.5,1256.666,466.5,1252.666" style="stroke:#181818;stroke-width:1.0;"/><line style="stroke:#181818;stroke-width:1.0;stroke-dasharray:2.0,2.0;" x1="464.5" x2="2517.5" y1="1252.666" y2="1252.666"/><text fill="#000000" font-family="sans-serif" font-size="13" font-weight="bold" lengthAdjust="spacing" textLength="18" x="476.5" y="1247.9238">29</text><text fill="#000000" font-family="sans-serif" font-size="13" lengthAdjust="spacing" textLength="95" x="498.5" y="1247.9238">List&lt;Industry&gt;</text><path d="M337.5,1267.666 L411.5,1267.666 L411.5,1274.9766 L401.5,1284.9766 L337.5,1284.9766 L337.5,1267.666 " fill="#EEEEEE" style="stroke:#000000;stroke-width:1.5;"/><rect fill="none" height="126.5527" style="stroke:#000000;stroke-width:1.5;" width="2831.5" x="337.5" y="1267.666"/><text fill="#000000" font-family="sans-serif" font-size="13" font-weight="bold" lengthAdjust="spacing" textLength="29" x="352.5" y="1281.2344">loop</text><text fill="#000000" font-family="sans-serif" font-size="11" font-weight="bold" lengthAdjust="spacing" textLength="162" x="426.5" y="1280.3008">[for each Industry in the list]</text><polygon fill="#181818" points="3107,1302.2871,3117,1306.2871,3107,1310.2871,3111,1306.2871" style="stroke:#181818;stroke-width:1.0;"/><line style="stroke:#181818;stroke-width:1.0;" x1="459.5" x2="3113" y1="1306.2871" y2="1306.2871"/><text fill="#000000" font-family="sans-serif" font-size="13" font-weight="bold" lengthAdjust="spacing" textLength="18" x="466.5" y="1301.5449">30</text><text fill="#000000" font-family="sans-serif" font-size="13" lengthAdjust="spacing" textLength="92" x="488.5" y="1301.5449">getResources()</text><path d="M464,1319.2871 L464,1359.2871 L742,1359.2871 L742,1329.2871 L732,1319.2871 L464,1319.2871 " fill="#FEFFDD" style="stroke:#181818;stroke-width:0.5;"/><path d="M732,1319.2871 L732,1329.2871 L742,1329.2871 L732,1319.2871 " fill="#FEFFDD" style="stroke:#181818;stroke-width:0.5;"/><text fill="#000000" font-family="sans-serif" font-size="13" lengthAdjust="spacing" textLength="257" x="470" y="1336.8555">Add produced and demanded resource\n</text><text fill="#000000" font-family="sans-serif" font-size="13" lengthAdjust="spacing" textLength="204" x="470" y="1352.166">to cargo list (for later UI display)</text><polygon fill="#181818" points="470.5,1382.2188,460.5,1386.2188,470.5,1390.2188,466.5,1386.2188" style="stroke:#181818;stroke-width:1.0;"/><line style="stroke:#181818;stroke-width:1.0;stroke-dasharray:2.0,2.0;" x1="464.5" x2="3123" y1="1386.2188" y2="1386.2188"/><text fill="#000000" font-family="sans-serif" font-size="13" font-weight="bold" lengthAdjust="spacing" textLength="18" x="476.5" y="1381.4766">31</text><text fill="#000000" font-family="sans-serif" font-size="13" lengthAdjust="spacing" textLength="123" x="498.5" y="1381.4766">List&lt;ResourceDto&gt;</text><polygon fill="#181818" points="2931,1418.5293,2941,1422.5293,2931,1426.5293,2935,1422.5293" style="stroke:#181818;stroke-width:1.0;"/><line style="stroke:#181818;stroke-width:1.0;stroke-dasharray:2.0,2.0;" x1="459.5" x2="2937" y1="1422.5293" y2="1422.5293"/><text fill="#000000" font-family="sans-serif" font-size="13" font-weight="bold" lengthAdjust="spacing" textLength="18" x="466.5" y="1417.7871">32</text><text fill="#000000" font-family="sans-serif" font-size="13" lengthAdjust="spacing" textLength="291" x="488.5" y="1417.7871">create(buildingsDto, industries, resourcesDto)</text><rect fill="#E2E2F0" height="46.9766" rx="2.5" ry="2.5" style="stroke:#181818;stroke-width:0.5;" width="136" x="2943" y="1401.2188"/><text fill="#000000" font-family="sans-serif" font-size="14" lengthAdjust="spacing" textLength="117" x="2952.5" y="1421.7539">stationDetailsDto</text><text fill="#000000" font-family="sans-serif" font-size="14" lengthAdjust="spacing" textLength="122" x="2950" y="1438.2422">:StationDetailsDto</text><polygon fill="#181818" points="236.5,1476.5059,226.5,1480.5059,236.5,1484.5059,232.5,1480.5059" style="stroke:#181818;stroke-width:1.0;"/><line style="stroke:#181818;stroke-width:1.0;stroke-dasharray:2.0,2.0;" x1="230.5" x2="453.5" y1="1480.5059" y2="1480.5059"/><text fill="#000000" font-family="sans-serif" font-size="13" font-weight="bold" lengthAdjust="spacing" textLength="18" x="242.5" y="1475.7637">33</text><text fill="#000000" font-family="sans-serif" font-size="13" lengthAdjust="spacing" textLength="111" x="264.5" y="1475.7637">stationDetailsDto</text><polygon fill="#181818" points="39.5,1505.8164,29.5,1509.8164,39.5,1513.8164,35.5,1509.8164" style="stroke:#181818;stroke-width:1.0;"/><line style="stroke:#181818;stroke-width:1.0;stroke-dasharray:2.0,2.0;" x1="33.5" x2="219.5" y1="1509.8164" y2="1509.8164"/><text fill="#000000" font-family="sans-serif" font-size="13" font-weight="bold" lengthAdjust="spacing" textLength="18" x="45.5" y="1505.0742">34</text><text fill="#000000" font-family="sans-serif" font-size="13" lengthAdjust="spacing" textLength="134" x="67.5" y="1505.0742">shows station details</text><!--SRC=[hLXTQ-Cu57tthxZqAPcTiFEsK9P2seJ5aAOXTWO62aMnrTGxZkMLv0xPNx_NjYHBijmFM2YqjkwvEaUwEhgk-5bKDU7a33N9Vf8JJUIbfC1f9abrAcaaJ41M4Y6MKlBYs4WQPwnAYdyfV8iYMKZ4799lVy02lXVq5mX9PC4goAaaHIdWiPeTcwBCY-eau3V823yn73oJAlzTD7LTNk2PipDKbF3Z1OegRmHEHCKyYaWZMTMSZvJZtvba7Avs9RbGVWL4m6wp_B7UHqXH5bbHaqh2rNNB8Uafh7e6XxYBFiJlHjwnId9MbYh_NRhVk9WzhPaea0VIwqBswzr3yfJ4sxysw_HXwqPpA_gnkWw3NOZYOq8lNM2IBWEnrohudjIrOeo1QVomlL_kTlx2iEFVAycGXfOicGrPfGz19XYsAOH4NFlhp-7jZOVUn4aQp637kG6tgYmi0RU7UBF2rGmfq5NKoxWTdXpaI8W5ivLO-1i_GQV5pRB4GYsoJb12XT2waEPJiawIaJQKfE9mmlV1KoMKDPpJIWwf3e9oEyVTORzVRrD3meMVIJsK4gBlxUSEZmlzrDQMYyCuFUhLNDmVpukrP_5sTKZI_O_GdgdJVEdsB1uU7E1eoooKlMKM_iPFC2u_uHnjj_RDEwU8r-aotYGZDdfQPyhEZufN8gcseGZKNx2uGRE1QtJIVnegf80IsGDxrjOeC1H_J09q9do45hH0R6ixNxuWFkCKXxiXCzuFu-29okKhgY37aYfPOZOVWatspiMwLz1ZCOTdMtswk49-LKQxB0fWilX6rm-hNp1Ak1Y8sYxemd8wcJx4jsSvSaYa6oGRkUHiIiBF4Kqmydbe8rRhNvRMoliaZ6aR7WRTPngS6jD9fefzfejaFW3jd9Q_ct604sTD3IadbNXc_0poXKAR3VD2Mz1MA439M0qO1gZs1PG4l7WxL5Uhfb0T77YifsHe2NCV_hwEu3J3F2Z5FXaUqDgzDoUOKg5i1FEJF9_r5wQdWLQv_S9x3FBM1UFVdmONVPp_K453CO_oHg5iWNBMDXLm9qNAIZ6uY78fvNLuc5xOhocBinBq9kSvfA0bTfi2YCP5Kxve-vxhuhhQkitwYFcvXpYSBCu_Tw17tZBfTE6zC3NOazBDYNRqiH_hXYhoQgzDvJPHZhcOJZpaBbxpzV_OYvRY-8kXuHzDZ_ga62DascEcrOIdikRwiCsyFSUq6DTfh0xrKtOJK31KqQZ9VTDlF25UeAajptK2wQCfAzF4ENq6zafvVpJr35t3HSf5idh2yh_hkrxiCICZl0NwPmRPzkTbstqxnkRJSRY1mgUdxMizZMqkNv_k_AR5jOcYKDbhg5tsmzvf0RgRx5NigM0DpwZLJLYSXyvJ3rKCN_FYzD8vhxEU0CiyXvgplCbe3lYjhJwvQRkG_JIFbHME1xd_Ck_EvwpLKUAil3NVl10rVdNF8wiEkydjOZHIz2AgDTIYxAl9MKAZorbZgzJDRJNgqwr3EZWRJlJL-Y_2LwDNg1l2ciMz24TV37Rm9-v2xpyWqVWYj1xLryD_]--></g></svg>