<?xml version="1.0" encoding="us-ascii" standalone="no"?><svg xmlns="http://www.w3.org/2000/svg" xmlns:xlink="http://www.w3.org/1999/xlink" contentStyleType="text/css" height="793px" preserveAspectRatio="none" style="width:1273px;height:793px;background:#FFFFFF;" version="1.1" viewBox="0 0 1273 793" width="1273px" zoomAndPan="magnify"><defs/><g><!--class ViewStationDetailsUI--><g id="elem_ViewStationDetailsUI"><rect codeLine="6" fill="#F1F1F1" height="48" id="ViewStationDetailsUI" rx="2.5" ry="2.5" style="stroke:#181818;stroke-width:0.5;" width="172" x="770" y="7"/><ellipse cx="785" cy="23" fill="#ADD1B2" rx="11" ry="11" style="stroke:#181818;stroke-width:1.0;"/><path d="M787.4731,29.1431 Q786.8921,29.4419 786.2529,29.5913 Q785.6138,29.7407 784.9082,29.7407 Q782.4014,29.7407 781.0815,28.0889 Q779.7617,26.437 779.7617,23.3159 Q779.7617,20.1865 781.0815,18.5347 Q782.4014,16.8828 784.9082,16.8828 Q785.6138,16.8828 786.2612,17.0322 Q786.9087,17.1816 787.4731,17.4805 L787.4731,20.2031 Q786.8423,19.6221 786.2488,19.3523 Q785.6553,19.0825 785.0244,19.0825 Q783.6797,19.0825 782.9949,20.1492 Q782.3101,21.2158 782.3101,23.3159 Q782.3101,25.4077 782.9949,26.4744 Q783.6797,27.541 785.0244,27.541 Q785.6553,27.541 786.2488,27.2712 Q786.8423,27.0015 787.4731,26.4204 Z " fill="#000000"/><text fill="#000000" font-family="sans-serif" font-size="14" lengthAdjust="spacing" textLength="140" x="799" y="28.291">ViewStationDetailsUI</text><line style="stroke:#181818;stroke-width:0.5;" x1="771" x2="941" y1="39" y2="39"/><line style="stroke:#181818;stroke-width:0.5;" x1="771" x2="941" y1="47" y2="47"/></g><!--class ViewStationDetailsController--><g id="elem_ViewStationDetailsController"><rect codeLine="9" fill="#F1F1F1" height="97.4648" id="ViewStationDetailsController" rx="2.5" ry="2.5" style="stroke:#181818;stroke-width:0.5;" width="358" x="677" y="116"/><ellipse cx="753.75" cy="132" fill="#ADD1B2" rx="11" ry="11" style="stroke:#181818;stroke-width:1.0;"/><path d="M756.2231,138.1431 Q755.6421,138.4419 755.0029,138.5913 Q754.3638,138.7407 753.6582,138.7407 Q751.1514,138.7407 749.8315,137.0889 Q748.5117,135.437 748.5117,132.3159 Q748.5117,129.1865 749.8315,127.5347 Q751.1514,125.8828 753.6582,125.8828 Q754.3638,125.8828 755.0112,126.0322 Q755.6587,126.1816 756.2231,126.4805 L756.2231,129.2031 Q755.5923,128.6221 754.9988,128.3523 Q754.4053,128.0825 753.7744,128.0825 Q752.4297,128.0825 751.7449,129.1492 Q751.0601,130.2158 751.0601,132.3159 Q751.0601,134.4077 751.7449,135.4744 Q752.4297,136.541 753.7744,136.541 Q754.4053,136.541 754.9988,136.2712 Q755.5923,136.0015 756.2231,135.4204 Z " fill="#000000"/><text fill="#000000" font-family="sans-serif" font-size="14" lengthAdjust="spacing" textLength="196" x="774.25" y="137.291">ViewStationDetailsController</text><line style="stroke:#181818;stroke-width:0.5;" x1="678" x2="1034" y1="148" y2="148"/><line style="stroke:#181818;stroke-width:0.5;" x1="678" x2="1034" y1="156" y2="156"/><text fill="#000000" font-family="sans-serif" font-size="14" lengthAdjust="spacing" textLength="217" x="683" y="173.5352">+ViewStationDetailsController()</text><text fill="#000000" font-family="sans-serif" font-size="14" lengthAdjust="spacing" textLength="265" x="683" y="190.0234">+getAvailableStations() : List&lt;Station&gt;</text><text fill="#000000" font-family="sans-serif" font-size="14" lengthAdjust="spacing" textLength="346" x="683" y="206.5117">+getStationDetails(station: Station) : StationDetails</text></g><!--class Map--><g id="elem_Map"><rect codeLine="15" fill="#F1F1F1" height="113.9531" id="Map" rx="2.5" ry="2.5" style="stroke:#181818;stroke-width:0.5;" width="387" x="861.5" y="290.95"/><ellipse cx="1036.25" cy="306.95" fill="#ADD1B2" rx="11" ry="11" style="stroke:#181818;stroke-width:1.0;"/><path d="M1038.7231,313.0931 Q1038.1421,313.3919 1037.5029,313.5413 Q1036.8638,313.6907 1036.1582,313.6907 Q1033.6514,313.6907 1032.3315,312.0389 Q1031.0117,310.387 1031.0117,307.2659 Q1031.0117,304.1365 1032.3315,302.4847 Q1033.6514,300.8328 1036.1582,300.8328 Q1036.8638,300.8328 1037.5112,300.9822 Q1038.1587,301.1316 1038.7231,301.4305 L1038.7231,304.1531 Q1038.0923,303.5721 1037.4988,303.3023 Q1036.9053,303.0325 1036.2744,303.0325 Q1034.9297,303.0325 1034.2449,304.0992 Q1033.5601,305.1658 1033.5601,307.2659 Q1033.5601,309.3577 1034.2449,310.4244 Q1034.9297,311.491 1036.2744,311.491 Q1036.9053,311.491 1037.4988,311.2212 Q1038.0923,310.9515 1038.7231,310.3704 Z " fill="#000000"/><text fill="#000000" font-family="sans-serif" font-size="14" lengthAdjust="spacing" textLength="29" x="1056.75" y="312.241">Map</text><line style="stroke:#181818;stroke-width:0.5;" x1="862.5" x2="1247.5" y1="322.95" y2="322.95"/><text fill="#000000" font-family="sans-serif" font-size="14" lengthAdjust="spacing" textLength="99" x="867.5" y="340.4852">-name : String</text><text fill="#000000" font-family="sans-serif" font-size="14" lengthAdjust="spacing" textLength="76" x="867.5" y="356.9734">-width : int</text><text fill="#000000" font-family="sans-serif" font-size="14" lengthAdjust="spacing" textLength="82" x="867.5" y="373.4617">-length : int</text><line style="stroke:#181818;stroke-width:0.5;" x1="862.5" x2="1247.5" y1="380.4148" y2="380.4148"/><text fill="#000000" font-family="sans-serif" font-size="14" lengthAdjust="spacing" textLength="375" x="867.5" y="397.95">+getNearbyIndustries(station: Station) : List&lt;Industry&gt;</text></g><!--class Repositories--><g id="elem_Repositories"><rect codeLine="22" fill="#F1F1F1" height="97.4648" id="Repositories" rx="2.5" ry="2.5" style="stroke:#181818;stroke-width:0.5;" width="176" x="568" y="299.19"/><ellipse cx="609.55" cy="315.19" fill="#ADD1B2" rx="11" ry="11" style="stroke:#181818;stroke-width:1.0;"/><path d="M612.0231,321.3331 Q611.4421,321.6319 610.8029,321.7813 Q610.1638,321.9307 609.4582,321.9307 Q606.9514,321.9307 605.6315,320.2789 Q604.3117,318.627 604.3117,315.5059 Q604.3117,312.3765 605.6315,310.7247 Q606.9514,309.0728 609.4582,309.0728 Q610.1638,309.0728 610.8112,309.2222 Q611.4587,309.3716 612.0231,309.6705 L612.0231,312.3931 Q611.3923,311.8121 610.7988,311.5423 Q610.2053,311.2725 609.5744,311.2725 Q608.2297,311.2725 607.5449,312.3392 Q606.8601,313.4058 606.8601,315.5059 Q606.8601,317.5977 607.5449,318.6644 Q608.2297,319.731 609.5744,319.731 Q610.2053,319.731 610.7988,319.4612 Q611.3923,319.1915 612.0231,318.6104 Z " fill="#000000"/><text fill="#000000" font-family="sans-serif" font-size="14" lengthAdjust="spacing" textLength="85" x="629.45" y="320.481">Repositories</text><line style="stroke:#181818;stroke-width:0.5;" x1="569" x2="743" y1="331.19" y2="331.19"/><line style="stroke:#181818;stroke-width:0.5;" x1="569" x2="743" y1="339.19" y2="339.19"/><text fill="#000000" font-family="sans-serif" font-size="14" lengthAdjust="spacing" textLength="103" x="574" y="356.7252">-Repositories()</text><text fill="#000000" font-family="sans-serif" font-size="14" lengthAdjust="spacing" textLength="100" x="574" y="373.2134">+getInstance()</text><text fill="#000000" font-family="sans-serif" font-size="14" lengthAdjust="spacing" textLength="164" x="574" y="389.7017">+getStationRepository()</text></g><!--class StationRepository--><g id="elem_StationRepository"><rect codeLine="28" fill="#F1F1F1" height="80.9766" id="StationRepository" rx="2.5" ry="2.5" style="stroke:#181818;stroke-width:0.5;" width="295" x="958.5" y="514.88"/><ellipse cx="1041.25" cy="530.88" fill="#ADD1B2" rx="11" ry="11" style="stroke:#181818;stroke-width:1.0;"/><path d="M1043.7231,537.0231 Q1043.1421,537.3219 1042.5029,537.4713 Q1041.8638,537.6207 1041.1582,537.6207 Q1038.6514,537.6207 1037.3315,535.9689 Q1036.0117,534.317 1036.0117,531.1959 Q1036.0117,528.0665 1037.3315,526.4147 Q1038.6514,524.7628 1041.1582,524.7628 Q1041.8638,524.7628 1042.5112,524.9122 Q1043.1587,525.0616 1043.7231,525.3605 L1043.7231,528.0831 Q1043.0923,527.5021 1042.4988,527.2323 Q1041.9053,526.9625 1041.2744,526.9625 Q1039.9297,526.9625 1039.2449,528.0292 Q1038.5601,529.0958 1038.5601,531.1959 Q1038.5601,533.2877 1039.2449,534.3544 Q1039.9297,535.421 1041.2744,535.421 Q1041.9053,535.421 1042.4988,535.1512 Q1043.0923,534.8815 1043.7231,534.3004 Z " fill="#000000"/><text fill="#000000" font-family="sans-serif" font-size="14" lengthAdjust="spacing" textLength="121" x="1061.75" y="536.171">StationRepository</text><line style="stroke:#181818;stroke-width:0.5;" x1="959.5" x2="1252.5" y1="546.88" y2="546.88"/><line style="stroke:#181818;stroke-width:0.5;" x1="959.5" x2="1252.5" y1="554.88" y2="554.88"/><text fill="#000000" font-family="sans-serif" font-size="14" lengthAdjust="spacing" textLength="221" x="964.5" y="572.4152">+getAllStations() : List&lt;Station&gt;</text><text fill="#000000" font-family="sans-serif" font-size="14" lengthAdjust="spacing" textLength="283" x="964.5" y="588.9034">+getStationDetails(stationId: int) : Station</text></g><!--class Station--><g id="elem_Station"><rect codeLine="33" fill="#F1F1F1" height="146.9297" id="Station" rx="2.5" ry="2.5" style="stroke:#181818;stroke-width:0.5;" width="231" x="154.5" y="274.46"/><ellipse cx="241.75" cy="290.46" fill="#ADD1B2" rx="11" ry="11" style="stroke:#181818;stroke-width:1.0;"/><path d="M244.2231,296.6031 Q243.6421,296.9019 243.0029,297.0513 Q242.3638,297.2007 241.6582,297.2007 Q239.1514,297.2007 237.8315,295.5489 Q236.5117,293.897 236.5117,290.7759 Q236.5117,287.6465 237.8315,285.9947 Q239.1514,284.3428 241.6582,284.3428 Q242.3638,284.3428 243.0112,284.4922 Q243.6587,284.6416 244.2231,284.9405 L244.2231,287.6631 Q243.5923,287.0821 242.9988,286.8123 Q242.4053,286.5425 241.7744,286.5425 Q240.4297,286.5425 239.7449,287.6092 Q239.0601,288.6758 239.0601,290.7759 Q239.0601,292.8677 239.7449,293.9344 Q240.4297,295.001 241.7744,295.001 Q242.4053,295.001 242.9988,294.7312 Q243.5923,294.4615 244.2231,293.8804 Z " fill="#000000"/><text fill="#000000" font-family="sans-serif" font-size="14" lengthAdjust="spacing" textLength="48" x="262.25" y="295.751">Station</text><line style="stroke:#181818;stroke-width:0.5;" x1="155.5" x2="384.5" y1="306.46" y2="306.46"/><text fill="#000000" font-family="sans-serif" font-size="14" lengthAdjust="spacing" textLength="131" x="160.5" y="323.9952">-position : Position</text><text fill="#000000" font-family="sans-serif" font-size="14" lengthAdjust="spacing" textLength="130" x="160.5" y="340.4834">-type : StationType</text><text fill="#000000" font-family="sans-serif" font-size="14" lengthAdjust="spacing" textLength="99" x="160.5" y="356.9717">-name : String</text><text fill="#000000" font-family="sans-serif" font-size="14" lengthAdjust="spacing" textLength="177" x="160.5" y="373.46">-List&lt;Building&gt; buildings</text><text fill="#000000" font-family="sans-serif" font-size="14" lengthAdjust="spacing" textLength="189" x="160.5" y="389.9483">-industries : List&lt;Industry&gt;</text><line style="stroke:#181818;stroke-width:0.5;" x1="155.5" x2="384.5" y1="396.9014" y2="396.9014"/><text fill="#000000" font-family="sans-serif" font-size="14" lengthAdjust="spacing" textLength="219" x="160.5" y="414.4366">+getBuildings() : List&lt;Building&gt;</text></g><!--class Building--><g id="elem_Building"><rect codeLine="42" fill="#F1F1F1" height="97.4648" id="Building" rx="2.5" ry="2.5" style="stroke:#181818;stroke-width:0.5;" width="182" x="49" y="506.64"/><ellipse cx="107.75" cy="522.64" fill="#ADD1B2" rx="11" ry="11" style="stroke:#181818;stroke-width:1.0;"/><path d="M110.2231,528.7831 Q109.6421,529.0819 109.0029,529.2313 Q108.3638,529.3807 107.6582,529.3807 Q105.1514,529.3807 103.8315,527.7289 Q102.5117,526.077 102.5117,522.9559 Q102.5117,519.8265 103.8315,518.1747 Q105.1514,516.5228 107.6582,516.5228 Q108.3638,516.5228 109.0112,516.6722 Q109.6587,516.8216 110.2231,517.1205 L110.2231,519.8431 Q109.5923,519.2621 108.9988,518.9923 Q108.4053,518.7225 107.7744,518.7225 Q106.4297,518.7225 105.7449,519.7892 Q105.0601,520.8558 105.0601,522.9559 Q105.0601,525.0477 105.7449,526.1144 Q106.4297,527.181 107.7744,527.181 Q108.4053,527.181 108.9988,526.9112 Q109.5923,526.6415 110.2231,526.0604 Z " fill="#000000"/><text fill="#000000" font-family="sans-serif" font-size="14" lengthAdjust="spacing" textLength="56" x="128.25" y="527.931">Building</text><line style="stroke:#181818;stroke-width:0.5;" x1="50" x2="230" y1="538.64" y2="538.64"/><text fill="#000000" font-family="sans-serif" font-size="14" lengthAdjust="spacing" textLength="99" x="55" y="556.1752">-name : String</text><text fill="#000000" font-family="sans-serif" font-size="14" lengthAdjust="spacing" textLength="138" x="55" y="572.6634">-type : BuildingType</text><line style="stroke:#181818;stroke-width:0.5;" x1="50" x2="230" y1="579.6166" y2="579.6166"/><text fill="#000000" font-family="sans-serif" font-size="14" lengthAdjust="spacing" textLength="170" x="55" y="597.1517">+Building(position, type)</text></g><!--class BuildingType--><g id="elem_BuildingType"><rect codeLine="48" fill="#F1F1F1" height="48" id="BuildingType" rx="2.5" ry="2.5" style="stroke:#181818;stroke-width:0.5;" width="121" x="79.5" y="714.08"/><ellipse cx="94.5" cy="730.08" fill="#EB937F" rx="11" ry="11" style="stroke:#181818;stroke-width:1.0;"/><path d="M98.1143,736.58 L90.3945,736.58 L90.3945,724.1869 L98.1143,724.1869 L98.1143,726.3451 L92.8433,726.3451 L92.8433,729.018 L97.6162,729.018 L97.6162,731.1762 L92.8433,731.1762 L92.8433,734.4218 L98.1143,734.4218 Z " fill="#000000"/><text fill="#000000" font-family="sans-serif" font-size="14" lengthAdjust="spacing" textLength="89" x="108.5" y="735.371">BuildingType</text><line style="stroke:#181818;stroke-width:0.5;" x1="80.5" x2="199.5" y1="746.08" y2="746.08"/><line style="stroke:#181818;stroke-width:0.5;" x1="80.5" x2="199.5" y1="754.08" y2="754.08"/></g><!--class Industry--><g id="elem_Industry"><rect codeLine="51" fill="#F1F1F1" height="113.9531" id="Industry" rx="2.5" ry="2.5" style="stroke:#181818;stroke-width:0.5;" width="283" x="286.5" y="498.39"/><ellipse cx="395.75" cy="514.39" fill="#ADD1B2" rx="11" ry="11" style="stroke:#181818;stroke-width:1.0;"/><path d="M398.2231,520.5331 Q397.6421,520.8319 397.0029,520.9813 Q396.3638,521.1307 395.6582,521.1307 Q393.1514,521.1307 391.8315,519.4789 Q390.5117,517.827 390.5117,514.7059 Q390.5117,511.5765 391.8315,509.9247 Q393.1514,508.2728 395.6582,508.2728 Q396.3638,508.2728 397.0112,508.4222 Q397.6587,508.5716 398.2231,508.8705 L398.2231,511.5931 Q397.5923,511.0121 396.9988,510.7423 Q396.4053,510.4725 395.7744,510.4725 Q394.4297,510.4725 393.7449,511.5392 Q393.0601,512.6058 393.0601,514.7059 Q393.0601,516.7977 393.7449,517.8644 Q394.4297,518.931 395.7744,518.931 Q396.4053,518.931 396.9988,518.6612 Q397.5923,518.3915 398.2231,517.8104 Z " fill="#000000"/><text fill="#000000" font-family="sans-serif" font-size="14" lengthAdjust="spacing" textLength="56" x="416.25" y="519.681">Industry</text><line style="stroke:#181818;stroke-width:0.5;" x1="287.5" x2="568.5" y1="530.39" y2="530.39"/><text fill="#000000" font-family="sans-serif" font-size="14" lengthAdjust="spacing" textLength="131" x="292.5" y="547.9252">-position : Position</text><text fill="#000000" font-family="sans-serif" font-size="14" lengthAdjust="spacing" textLength="138" x="292.5" y="564.4134">-type : IndustryType</text><text fill="#000000" font-family="sans-serif" font-size="14" lengthAdjust="spacing" textLength="205" x="292.5" y="580.9017">-resourceType: ResourceType</text><line style="stroke:#181818;stroke-width:0.5;" x1="287.5" x2="568.5" y1="587.8548" y2="587.8548"/><text fill="#000000" font-family="sans-serif" font-size="14" lengthAdjust="spacing" textLength="271" x="292.5" y="605.39">+Industry(position, type, resourceType)</text></g><!--class IndustryType--><g id="elem_IndustryType"><rect codeLine="58" fill="#F1F1F1" height="97.4648" id="IndustryType" rx="2.5" ry="2.5" style="stroke:#181818;stroke-width:0.5;" width="121" x="531.5" y="689.35"/><ellipse cx="546.5" cy="705.35" fill="#EB937F" rx="11" ry="11" style="stroke:#181818;stroke-width:1.0;"/><path d="M550.1143,711.85 L542.3945,711.85 L542.3945,699.4569 L550.1143,699.4569 L550.1143,701.6151 L544.8433,701.6151 L544.8433,704.288 L549.6162,704.288 L549.6162,706.4462 L544.8433,706.4462 L544.8433,709.6918 L550.1143,709.6918 Z " fill="#000000"/><text fill="#000000" font-family="sans-serif" font-size="14" lengthAdjust="spacing" textLength="89" x="560.5" y="710.641">IndustryType</text><line style="stroke:#181818;stroke-width:0.5;" x1="532.5" x2="651.5" y1="721.35" y2="721.35"/><text fill="#000000" font-family="sans-serif" font-size="14" lengthAdjust="spacing" textLength="99" x="537.5" y="738.8852">Primary Sector</text><text fill="#000000" font-family="sans-serif" font-size="14" lengthAdjust="spacing" textLength="94" x="537.5" y="755.3734">Transforming</text><text fill="#000000" font-family="sans-serif" font-size="14" lengthAdjust="spacing" textLength="42" x="537.5" y="771.8617">Mixed</text><line style="stroke:#181818;stroke-width:0.5;" x1="532.5" x2="651.5" y1="778.8148" y2="778.8148"/></g><!--class ResourceType--><g id="elem_ResourceType"><rect codeLine="64" fill="#F1F1F1" height="80.9766" id="ResourceType" rx="2.5" ry="2.5" style="stroke:#181818;stroke-width:0.5;" width="147" x="302.5" y="697.59"/><ellipse cx="326.05" cy="713.59" fill="#ADD1B2" rx="11" ry="11" style="stroke:#181818;stroke-width:1.0;"/><path d="M328.5231,719.7331 Q327.9421,720.0319 327.3029,720.1813 Q326.6638,720.3307 325.9582,720.3307 Q323.4514,720.3307 322.1315,718.6789 Q320.8117,717.027 320.8117,713.9059 Q320.8117,710.7765 322.1315,709.1247 Q323.4514,707.4728 325.9582,707.4728 Q326.6638,707.4728 327.3112,707.6222 Q327.9587,707.7716 328.5231,708.0705 L328.5231,710.7931 Q327.8923,710.2121 327.2988,709.9423 Q326.7053,709.6725 326.0744,709.6725 Q324.7297,709.6725 324.0449,710.7392 Q323.3601,711.8058 323.3601,713.9059 Q323.3601,715.9977 324.0449,717.0644 Q324.7297,718.131 326.0744,718.131 Q326.7053,718.131 327.2988,717.8612 Q327.8923,717.5915 328.5231,717.0104 Z " fill="#000000"/><text fill="#000000" font-family="sans-serif" font-size="14" lengthAdjust="spacing" textLength="96" x="341.95" y="718.881">ResourceType</text><line style="stroke:#181818;stroke-width:0.5;" x1="303.5" x2="448.5" y1="729.59" y2="729.59"/><text fill="#000000" font-family="sans-serif" font-size="14" lengthAdjust="spacing" textLength="99" x="308.5" y="747.1252">-name : String</text><line style="stroke:#181818;stroke-width:0.5;" x1="303.5" x2="448.5" y1="754.0783" y2="754.0783"/><text fill="#000000" font-family="sans-serif" font-size="14" lengthAdjust="spacing" textLength="135" x="308.5" y="771.6134">+getName() : String</text></g><!--class StationDto--><g id="elem_StationDto"><rect codeLine="69" fill="#F1F1F1" height="48" id="StationDto" rx="2.5" ry="2.5" style="stroke:#181818;stroke-width:0.5;" width="104" x="218" y="140.73"/><ellipse cx="233" cy="156.73" fill="#ADD1B2" rx="11" ry="11" style="stroke:#181818;stroke-width:1.0;"/><path d="M235.4731,162.8731 Q234.8921,163.1719 234.2529,163.3213 Q233.6138,163.4707 232.9082,163.4707 Q230.4014,163.4707 229.0815,161.8189 Q227.7617,160.167 227.7617,157.0459 Q227.7617,153.9165 229.0815,152.2647 Q230.4014,150.6128 232.9082,150.6128 Q233.6138,150.6128 234.2612,150.7622 Q234.9087,150.9116 235.4731,151.2105 L235.4731,153.9331 Q234.8423,153.3521 234.2488,153.0823 Q233.6553,152.8125 233.0244,152.8125 Q231.6797,152.8125 230.9949,153.8792 Q230.3101,154.9458 230.3101,157.0459 Q230.3101,159.1377 230.9949,160.2044 Q231.6797,161.271 233.0244,161.271 Q233.6553,161.271 234.2488,161.0012 Q234.8423,160.7315 235.4731,160.1504 Z " fill="#000000"/><text fill="#000000" font-family="sans-serif" font-size="14" lengthAdjust="spacing" textLength="72" x="247" y="162.021">StationDto</text><line style="stroke:#181818;stroke-width:0.5;" x1="219" x2="321" y1="172.73" y2="172.73"/><line style="stroke:#181818;stroke-width:0.5;" x1="219" x2="321" y1="180.73" y2="180.73"/></g><!--class BuildingDto--><g id="elem_BuildingDto"><rect codeLine="71" fill="#F1F1F1" height="48" id="BuildingDto" rx="2.5" ry="2.5" style="stroke:#181818;stroke-width:0.5;" width="112" x="7" y="323.93"/><ellipse cx="22" cy="339.93" fill="#ADD1B2" rx="11" ry="11" style="stroke:#181818;stroke-width:1.0;"/><path d="M24.4731,346.0731 Q23.8921,346.3719 23.2529,346.5213 Q22.6138,346.6707 21.9082,346.6707 Q19.4014,346.6707 18.0815,345.0189 Q16.7617,343.367 16.7617,340.2459 Q16.7617,337.1165 18.0815,335.4647 Q19.4014,333.8128 21.9082,333.8128 Q22.6138,333.8128 23.2612,333.9622 Q23.9087,334.1116 24.4731,334.4105 L24.4731,337.1331 Q23.8423,336.5521 23.2488,336.2823 Q22.6553,336.0125 22.0244,336.0125 Q20.6797,336.0125 19.9949,337.0792 Q19.3101,338.1458 19.3101,340.2459 Q19.3101,342.3377 19.9949,343.4044 Q20.6797,344.471 22.0244,344.471 Q22.6553,344.471 23.2488,344.2012 Q23.8423,343.9315 24.4731,343.3504 Z " fill="#000000"/><text fill="#000000" font-family="sans-serif" font-size="14" lengthAdjust="spacing" textLength="80" x="36" y="345.221">BuildingDto</text><line style="stroke:#181818;stroke-width:0.5;" x1="8" x2="118" y1="355.93" y2="355.93"/><line style="stroke:#181818;stroke-width:0.5;" x1="8" x2="118" y1="363.93" y2="363.93"/></g><!--class IndustryDto--><g id="elem_IndustryDto"><rect codeLine="73" fill="#F1F1F1" height="48" id="IndustryDto" rx="2.5" ry="2.5" style="stroke:#181818;stroke-width:0.5;" width="112" x="421" y="323.93"/><ellipse cx="436" cy="339.93" fill="#ADD1B2" rx="11" ry="11" style="stroke:#181818;stroke-width:1.0;"/><path d="M438.4731,346.0731 Q437.8921,346.3719 437.2529,346.5213 Q436.6138,346.6707 435.9082,346.6707 Q433.4014,346.6707 432.0815,345.0189 Q430.7617,343.367 430.7617,340.2459 Q430.7617,337.1165 432.0815,335.4647 Q433.4014,333.8128 435.9082,333.8128 Q436.6138,333.8128 437.2612,333.9622 Q437.9087,334.1116 438.4731,334.4105 L438.4731,337.1331 Q437.8423,336.5521 437.2488,336.2823 Q436.6553,336.0125 436.0244,336.0125 Q434.6797,336.0125 433.9949,337.0792 Q433.3101,338.1458 433.3101,340.2459 Q433.3101,342.3377 433.9949,343.4044 Q434.6797,344.471 436.0244,344.471 Q436.6553,344.471 437.2488,344.2012 Q437.8423,343.9315 438.4731,343.3504 Z " fill="#000000"/><text fill="#000000" font-family="sans-serif" font-size="14" lengthAdjust="spacing" textLength="80" x="450" y="345.221">IndustryDto</text><line style="stroke:#181818;stroke-width:0.5;" x1="422" x2="532" y1="355.93" y2="355.93"/><line style="stroke:#181818;stroke-width:0.5;" x1="422" x2="532" y1="363.93" y2="363.93"/></g><!--link BuildingDto to Building--><g id="link_BuildingDto_Building"><path codeLine="75" d="M71.68,372.09 C83.84,404.52 104.0936,458.5819 119.9236,500.8019 " fill="none" id="BuildingDto-to-Building" style="stroke:#181818;stroke-width:1.0;"/><polygon fill="#181818" points="122.03,506.42,122.6157,496.5886,120.2746,501.7383,115.1249,499.3972,122.03,506.42" style="stroke:#181818;stroke-width:1.0;"/></g><!--link Building to BuildingType--><g id="link_Building_BuildingType"><path codeLine="76" d="M140,604.32 C140,639.66 140,680.2 140,707.75 " fill="none" id="Building-to-BuildingType" style="stroke:#181818;stroke-width:1.0;"/><polygon fill="#181818" points="140,713.75,144,704.75,140,708.75,136,704.75,140,713.75" style="stroke:#181818;stroke-width:1.0;"/><text fill="#000000" font-family="sans-serif" font-size="13" lengthAdjust="spacing" textLength="27" x="141" y="655.9184">type</text><text fill="#000000" font-family="sans-serif" font-size="13" lengthAdjust="spacing" textLength="8" x="130.975" y="703.2017">1</text></g><!--link ViewStationDetailsUI to ViewStationDetailsController--><g id="link_ViewStationDetailsUI_ViewStationDetailsController"><path codeLine="79" d="M856,55.25 C856,71.94 856,89.03 856,109.62 " fill="none" id="ViewStationDetailsUI-to-ViewStationDetailsController" style="stroke:#181818;stroke-width:1.0;stroke-dasharray:7.0,7.0;"/><polygon fill="#181818" points="856,115.62,860,106.62,856,110.62,852,106.62,856,115.62" style="stroke:#181818;stroke-width:1.0;"/></g><!--link ViewStationDetailsController to Repositories--><g id="link_ViewStationDetailsController_Repositories"><path codeLine="80" d="M802.93,213.81 C773.88,240.13 742.4458,268.6008 713.4158,294.9108 " fill="none" id="ViewStationDetailsController-to-Repositories" style="stroke:#181818;stroke-width:1.0;stroke-dasharray:7.0,7.0;"/><polygon fill="#181818" points="708.97,298.94,718.3249,295.86,712.6748,295.5823,712.9525,289.9323,708.97,298.94" style="stroke:#181818;stroke-width:1.0;"/></g><!--link ViewStationDetailsController to StationRepository--><g id="link_ViewStationDetailsController_StationRepository"><path codeLine="81" d="M1035.24,213.26 C1145.56,242.52 1266,274.46 1266,274.46 C1266,274.46 1266,421.39 1266,421.39 C1266,421.39 1205.744,471.4645 1158.624,510.6345 " fill="none" id="ViewStationDetailsController-to-StationRepository" style="stroke:#181818;stroke-width:1.0;stroke-dasharray:7.0,7.0;"/><polygon fill="#181818" points="1154.01,514.47,1163.488,511.7927,1157.855,511.2737,1158.374,505.6407,1154.01,514.47" style="stroke:#181818;stroke-width:1.0;"/></g><!--link ViewStationDetailsController to Station--><g id="link_ViewStationDetailsController_Station"><path codeLine="82" d="M676.64,208.78 C550.09,239.16 403,274.46 403,274.46 C403,274.46 401.5591,275.2501 391.1491,280.9201 " fill="none" id="ViewStationDetailsController-to-Station" style="stroke:#181818;stroke-width:1.0;stroke-dasharray:7.0,7.0;"/><polygon fill="#181818" points="385.88,283.79,395.697,282.9979,390.2709,281.3984,391.8704,275.9724,385.88,283.79" style="stroke:#181818;stroke-width:1.0;"/></g><!--link ViewStationDetailsController to Map--><g id="link_ViewStationDetailsController_Map"><path codeLine="83" d="M908.81,213.81 C934.71,237.4 961.6434,261.9306 988.6734,286.5406 " fill="none" id="ViewStationDetailsController-to-Map" style="stroke:#181818;stroke-width:1.0;stroke-dasharray:7.0,7.0;"/><polygon fill="#181818" points="993.11,290.58,989.148,281.5632,989.4128,287.2138,983.7622,287.4787,993.11,290.58" style="stroke:#181818;stroke-width:1.0;"/></g><!--link Repositories to StationRepository--><g id="link_Repositories_StationRepository"><path codeLine="85" d="M744.37,389.27 C823.72,425.5 934.0919,475.8881 1013.1419,511.9781 " fill="none" id="Repositories-to-StationRepository" style="stroke:#181818;stroke-width:1.0;"/><polygon fill="#181818" points="1018.6,514.47,1012.0741,507.0935,1014.0516,512.3934,1008.7516,514.3709,1018.6,514.47" style="stroke:#181818;stroke-width:1.0;"/><text fill="#000000" font-family="sans-serif" font-size="13" lengthAdjust="spacing" textLength="112" x="908.94" y="464.9584">station repository</text><text fill="#000000" font-family="sans-serif" font-size="13" lengthAdjust="spacing" textLength="8" x="995.4619" y="504.0481">1</text></g><!--link Repositories to Repositories--><g id="link_Repositories_Repositories"><path codeLine="86" d="M744.45,328.91 C764.41,330.62 779,336.96 779,347.93 C779,358.89 770.3881,364.7178 750.4281,366.4278 " fill="none" id="Repositories-to-Repositories" style="stroke:#181818;stroke-width:1.0;"/><polygon fill="#181818" points="744.45,366.94,753.7586,370.1572,749.4318,366.5132,753.0757,362.1864,744.45,366.94" style="stroke:#181818;stroke-width:1.0;"/><text fill="#000000" font-family="sans-serif" font-size="13" lengthAdjust="spacing" textLength="53" x="785" y="352.9984">instance</text><text fill="#000000" font-family="sans-serif" font-size="13" lengthAdjust="spacing" textLength="8" x="752.106" y="365.475">1</text></g><!--link Station to Building--><g id="link_Station_Building"><path codeLine="88" d="M221.67,421.76 C210.59,438.44 202,451.39 202,451.39 C202,451.39 188.2354,474.2601 172.0954,501.0601 " fill="none" id="Station-to-Building" style="stroke:#181818;stroke-width:1.0;"/><polygon fill="#181818" points="169,506.2,177.0697,500.5538,171.5795,501.9168,170.2166,496.4266,169,506.2" style="stroke:#181818;stroke-width:1.0;"/><text fill="#000000" font-family="sans-serif" font-size="13" lengthAdjust="spacing" textLength="59" x="203" y="464.9584">buildings</text><text fill="#000000" font-family="sans-serif" font-size="13" lengthAdjust="spacing" textLength="6" x="166.6563" y="495.8206">*</text></g><!--link Station to Industry--><g id="link_Station_Industry"><path codeLine="89" d="M307.24,421.86 C319.94,446.73 331,468.39 331,468.39 C331,468.39 341.6108,477.7892 359.8908,493.9992 " fill="none" id="Station-to-Industry" style="stroke:#181818;stroke-width:1.0;"/><polygon fill="#181818" points="364.38,497.98,360.3001,489.0159,360.639,494.6626,354.9923,495.0015,364.38,497.98" style="stroke:#181818;stroke-width:1.0;"/><text fill="#000000" font-family="sans-serif" font-size="13" lengthAdjust="spacing" textLength="109" x="332" y="464.9584">nearby industries</text><text fill="#000000" font-family="sans-serif" font-size="13" lengthAdjust="spacing" textLength="6" x="350.2607" y="487.6592">*</text></g><!--link StationDto to Station--><g id="link_StationDto_Station"><path codeLine="90" d="M270,189.05 C270,210.55 270,237.65 270,267.99 " fill="none" id="StationDto-to-Station" style="stroke:#181818;stroke-width:1.0;"/><polygon fill="#181818" points="270,273.99,274,264.99,270,268.99,266,264.99,270,273.99" style="stroke:#181818;stroke-width:1.0;"/></g><!--link IndustryDto to Industry--><g id="link_IndustryDto_Industry"><path codeLine="92" d="M471.47,372.09 C464.24,402.42 452.7118,450.7537 442.8318,492.1837 " fill="none" id="IndustryDto-to-Industry" style="stroke:#181818;stroke-width:1.0;"/><polygon fill="#181818" points="441.44,498.02,447.4186,490.1934,442.5998,493.1564,439.6368,488.3376,441.44,498.02" style="stroke:#181818;stroke-width:1.0;"/></g><!--link Industry to ResourceType--><g id="link_Industry_ResourceType"><path codeLine="93" d="M322.41,612.76 C292.06,628.96 267,642.35 267,642.35 C267,642.35 267,659.35 267,659.35 C267,659.35 288.525,674.6962 315.335,693.8162 " fill="none" id="Industry-to-ResourceType" style="stroke:#181818;stroke-width:1.0;"/><polygon fill="#181818" points="320.22,697.3,315.2151,688.8176,316.1492,694.3968,310.57,695.3309,320.22,697.3" style="stroke:#181818;stroke-width:1.0;"/><text fill="#000000" font-family="sans-serif" font-size="13" lengthAdjust="spacing" textLength="116" x="268" y="655.9184">producedResource</text><text fill="#000000" font-family="sans-serif" font-size="13" lengthAdjust="spacing" textLength="8" x="302.3189" y="686.898">1</text></g><!--link Industry to ResourceType--><g id="link_Industry_ResourceType"><path codeLine="94" d="M411.83,612.56 C403.93,640.01 396.2678,666.6336 389.1178,691.5036 " fill="none" id="Industry-to-ResourceType-1" style="stroke:#181818;stroke-width:1.0;"/><polygon fill="#181818" points="387.46,697.27,393.791,689.7256,388.8415,692.4646,386.1024,687.5152,387.46,697.27" style="stroke:#181818;stroke-width:1.0;"/><text fill="#000000" font-family="sans-serif" font-size="13" lengthAdjust="spacing" textLength="122" x="403" y="655.9184">consumedResource</text><text fill="#000000" font-family="sans-serif" font-size="13" lengthAdjust="spacing" textLength="8" x="380.6956" y="686.863">1</text></g><!--link Industry to IndustryType--><g id="link_Industry_IndustryType"><path codeLine="95" d="M497.52,612.76 C517.5,628.96 534,642.35 534,642.35 C534,642.35 545.0265,660.3632 559.3565,683.7632 " fill="none" id="Industry-to-IndustryType" style="stroke:#181818;stroke-width:1.0;"/><polygon fill="#181818" points="562.49,688.88,561.201,679.1159,559.8788,684.616,554.3786,683.2938,562.49,688.88" style="stroke:#181818;stroke-width:1.0;"/><text fill="#000000" font-family="sans-serif" font-size="13" lengthAdjust="spacing" textLength="83" x="544.72" y="655.9184">industry type</text><text fill="#000000" font-family="sans-serif" font-size="13" lengthAdjust="spacing" textLength="8" x="549.7777" y="678.4964">1</text></g><!--SRC=[dLLDRzim3BthLn2zB5cQOhiQGu1klGHOYsBfTbTiDH4gIuOaB_EA_VVfsrAS9iDkvkEZ-4IHj7gXlCCIjz3X-WNlo4OFZ80ajSPynmXIYQ3sk147odVmZ9dAFOnoeeUEG2VOO8tCLpEirAtMacvxJTQru1lwcy07X9m7Vb1os6YigU1tH6FArFSrlA8_R_k_2AwbO8n8mmDOd6FCvfQn8_hsft7WBIE1gMPpgE0hLVfJG5Q1MHurKzwi8E0shAICMkznvoG1B87ZbZYgD1KBs84sUcz0odL06E6x0bg0aV10iDmEQzxqoeIJqoASzi0PLgE8RwGJYcfX0vsQPG7vYjWiQswEvJKPaN1weW_6bSwTE7trRMqP-y-ghXjtywocatone2whjIju39_UuHelnJyPo-Cd7i09-znJrXXe1TlmfRoNfdfFg-kUnbmZ1cSNJUUDqYFaotyi92gEh21v4UrPlEerMAPx0iBxjWZ8HoJAzEbE5oecZToGT2c94hsiYRKhqoYZPIL5zf6aQyZ3He7vuKxCewGjDi8sPfq8QO0dYRbw5hBrfRYdlqYJj-vuwkdQsJTuCDXiFgB77NEd1RnEtg94ezA8vgpbSfMYaiEXLn-loaUeN3aGUcUaCpy1UzefT7AftToipcupT7RLsUXyZY-p9mFxpo6NYMRJ8LHicbYVwPge84oxwPeafOpreGLc5uFVJmZ5LU1ol1_Vm9366JucfQceWBjz2kE0ewnLB3_U6-LzOHtHJevqpw9NA-YaQFgQD16-661-XAflpmKKqrH5zKDekRy0]--></g></svg>