<svg xmlns="http://www.w3.org/2000/svg" xmlns:xlink="http://www.w3.org/1999/xlink" contentStyleType="text/css" height="446px" preserveAspectRatio="none" style="width:1103px;height:446px;background:#FFFFFF;" version="1.1" viewBox="0 0 1103 446" width="1103px" zoomAndPan="magnify"><defs/><g><rect fill="#FFFFFF" height="318.6973" style="stroke:#181818;stroke-width:1.0;" width="10" x="182.6689" y="71.9121"/><rect fill="#FFFFFF" height="36.291" style="stroke:#181818;stroke-width:1.0;" width="10" x="187.6689" y="242.4063"/><rect fill="#FFFFFF" height="30" style="stroke:#181818;stroke-width:1.0;" width="10" x="403.9233" y="173.1152"/><rect fill="#FFFFFF" height="30" style="stroke:#181818;stroke-width:1.0;" width="10" x="403.9233" y="322.3184"/><rect fill="none" height="229.7852" style="stroke:#000000;stroke-width:1.5;" width="996.1074" x="101.4141" y="130.5332"/><line style="stroke:#181818;stroke-width:0.5;stroke-dasharray:5.0,5.0;" x1="187.4141" x2="187.4141" y1="38.6211" y2="408.6094"/><line style="stroke:#181818;stroke-width:0.5;stroke-dasharray:5.0,5.0;" x1="407.9238" x2="407.9238" y1="38.6211" y2="408.6094"/><line style="stroke:#181818;stroke-width:0.5;stroke-dasharray:5.0,5.0;" x1="717.9229" x2="717.9229" y1="111.7227" y2="408.6094"/><line style="stroke:#181818;stroke-width:0.5;stroke-dasharray:5.0,5.0;" x1="990.0254" x2="990.0254" y1="287.2168" y2="408.6094"/><rect fill="#E3E3E3" height="32.6211" rx="2.5" ry="2.5" style="stroke:#181818;stroke-width:0.5;" width="152.5098" x="111.4141" y="5"/><text fill="#000000" font-family="sans-serif" font-size="14" lengthAdjust="spacing" textLength="138.5098" x="118.4141" y="27.1074">ResourceTypeMapper</text><rect fill="#E3E3E3" height="32.6211" rx="2.5" ry="2.5" style="stroke:#181818;stroke-width:0.5;" width="152.5098" x="111.4141" y="407.6094"/><text fill="#000000" font-family="sans-serif" font-size="14" lengthAdjust="spacing" textLength="138.5098" x="118.4141" y="429.7168">ResourceTypeMapper</text><rect fill="#E3E3E3" height="32.6211" rx="2.5" ry="2.5" style="stroke:#181818;stroke-width:0.5;" width="269.999" x="273.9238" y="5"/><text fill="#000000" font-family="sans-serif" font-size="14" lengthAdjust="spacing" textLength="255.999" x="280.9238" y="27.1074">listResourceTypes : List&lt;ResourceType&gt;</text><rect fill="#E3E3E3" height="32.6211" rx="2.5" ry="2.5" style="stroke:#181818;stroke-width:0.5;" width="269.999" x="273.9238" y="407.6094"/><text fill="#000000" font-family="sans-serif" font-size="14" lengthAdjust="spacing" textLength="255.999" x="280.9238" y="429.7168">listResourceTypes : List&lt;ResourceType&gt;</text><rect fill="#E3E3E3" height="32.6211" rx="2.5" ry="2.5" style="stroke:#181818;stroke-width:0.5;" width="329.1025" x="553.9229" y="407.6094"/><text fill="#000000" font-family="sans-serif" font-size="14" lengthAdjust="spacing" textLength="315.1025" x="560.9229" y="429.7168">listResourceTypesDTO : List&lt;ResourceTypeDTO&gt;</text><rect fill="#E3E3E3" height="32.6211" rx="2.5" ry="2.5" style="stroke:#181818;stroke-width:0.5;" width="194.4961" x="893.0254" y="407.6094"/><text fill="#000000" font-family="sans-serif" font-size="14" lengthAdjust="spacing" textLength="180.4961" x="900.0254" y="429.7168">objDTO : ResourceTypeDTO</text><rect fill="#FFFFFF" height="318.6973" style="stroke:#181818;stroke-width:1.0;" width="10" x="182.6689" y="71.9121"/><rect fill="#FFFFFF" height="36.291" style="stroke:#181818;stroke-width:1.0;" width="10" x="187.6689" y="242.4063"/><rect fill="#FFFFFF" height="30" style="stroke:#181818;stroke-width:1.0;" width="10" x="403.9233" y="173.1152"/><rect fill="#FFFFFF" height="30" style="stroke:#181818;stroke-width:1.0;" width="10" x="403.9233" y="322.3184"/><polygon fill="#181818" points="170.6689,67.9121,180.6689,71.9121,170.6689,75.9121,174.6689,71.9121" style="stroke:#181818;stroke-width:1.0;"/><line style="stroke:#181818;stroke-width:1.0;" x1="0" x2="176.6689" y1="71.9121" y2="71.9121"/><text fill="#000000" font-family="sans-serif" font-size="13" font-weight="bold" lengthAdjust="spacing" textLength="14.46" x="7" y="66.6494">39</text><text fill="#000000" font-family="sans-serif" font-size="13" lengthAdjust="spacing" textLength="3.6118" x="25.46" y="66.6494">&#160;</text><polygon fill="#181818" points="541.9229,99.2031,551.9229,103.2031,541.9229,107.2031,545.9229,103.2031" style="stroke:#181818;stroke-width:1.0;"/><line style="stroke:#181818;stroke-width:1.0;stroke-dasharray:2.0,2.0;" x1="192.6689" x2="547.9229" y1="103.2031" y2="103.2031"/><text fill="#000000" font-family="sans-serif" font-size="13" font-weight="bold" lengthAdjust="spacing" textLength="25.3018" x="199.6689" y="97.9404">39.1</text><text fill="#000000" font-family="sans-serif" font-size="13" lengthAdjust="spacing" textLength="44.7891" x="228.9707" y="97.9404">create()</text><rect fill="#E3E3E3" height="32.6211" rx="2.5" ry="2.5" style="stroke:#181818;stroke-width:0.5;" width="329.1025" x="553.9229" y="79.9121"/><text fill="#000000" font-family="sans-serif" font-size="14" lengthAdjust="spacing" textLength="315.1025" x="560.9229" y="102.0195">listResourceTypesDTO : List&lt;ResourceTypeDTO&gt;</text><path d="M101.4141,130.5332 L173.8486,130.5332 L173.8486,139.8242 L163.8486,149.8242 L101.4141,149.8242 L101.4141,130.5332 " fill="#EEEEEE" style="stroke:#000000;stroke-width:1.5;"/><rect fill="none" height="229.7852" style="stroke:#000000;stroke-width:1.5;" width="996.1074" x="101.4141" y="130.5332"/><text fill="#000000" font-family="sans-serif" font-size="13" font-weight="bold" lengthAdjust="spacing" textLength="27.4346" x="116.4141" y="145.5615">loop</text><text fill="#000000" font-family="sans-serif" font-size="11" font-weight="bold" lengthAdjust="spacing" textLength="199.2729" x="188.8486" y="144.4033">[for each object in listResourceTypes]</text><polygon fill="#181818" points="391.9233,169.1152,401.9233,173.1152,391.9233,177.1152,395.9233,173.1152" style="stroke:#181818;stroke-width:1.0;"/><line style="stroke:#181818;stroke-width:1.0;" x1="192.6689" x2="397.9233" y1="173.1152" y2="173.1152"/><text fill="#000000" font-family="sans-serif" font-size="13" font-weight="bold" lengthAdjust="spacing" textLength="25.3018" x="199.6689" y="167.8525">39.2</text><text fill="#000000" font-family="sans-serif" font-size="13" lengthAdjust="spacing" textLength="61.7817" x="228.9707" y="167.8525">obj = get(i)</text><line style="stroke:#181818;stroke-width:1.0;" x1="192.6689" x2="239.6689" y1="229.4063" y2="229.4063"/><line style="stroke:#181818;stroke-width:1.0;" x1="239.6689" x2="239.6689" y1="229.4063" y2="242.4063"/><line style="stroke:#181818;stroke-width:1.0;" x1="198.6689" x2="239.6689" y1="242.4063" y2="242.4063"/><polygon fill="#181818" points="208.6689,238.4063,198.6689,242.4063,208.6689,246.4063,204.6689,242.4063" style="stroke:#181818;stroke-width:1.0;"/><text fill="#000000" font-family="sans-serif" font-size="13" font-weight="bold" lengthAdjust="spacing" textLength="25.3018" x="204.6689" y="224.1436">39.3</text><text fill="#000000" font-family="sans-serif" font-size="13" lengthAdjust="spacing" textLength="123.8936" x="233.9707" y="224.1436">objDTO = toDTO(obj)</text><polygon fill="#181818" points="881.0254,274.6973,891.0254,278.6973,881.0254,282.6973,885.0254,278.6973" style="stroke:#181818;stroke-width:1.0;"/><line style="stroke:#181818;stroke-width:1.0;stroke-dasharray:2.0,2.0;" x1="192.6689" x2="887.0254" y1="278.6973" y2="278.6973"/><text fill="#000000" font-family="sans-serif" font-size="13" font-weight="bold" lengthAdjust="spacing" textLength="25.3018" x="199.6689" y="273.4346">39.4</text><text fill="#000000" font-family="sans-serif" font-size="13" lengthAdjust="spacing" textLength="44.7891" x="228.9707" y="273.4346">create()</text><rect fill="#E3E3E3" height="32.6211" rx="2.5" ry="2.5" style="stroke:#181818;stroke-width:0.5;" width="194.4961" x="893.0254" y="255.4063"/><text fill="#000000" font-family="sans-serif" font-size="14" lengthAdjust="spacing" textLength="180.4961" x="900.0254" y="277.5137">objDTO : ResourceTypeDTO</text><polygon fill="#181818" points="391.9233,318.3184,401.9233,322.3184,391.9233,326.3184,395.9233,322.3184" style="stroke:#181818;stroke-width:1.0;"/><line style="stroke:#181818;stroke-width:1.0;" x1="192.6689" x2="397.9233" y1="322.3184" y2="322.3184"/><text fill="#000000" font-family="sans-serif" font-size="13" font-weight="bold" lengthAdjust="spacing" textLength="25.3018" x="199.6689" y="317.0557">39.5</text><text fill="#000000" font-family="sans-serif" font-size="13" lengthAdjust="spacing" textLength="75.1372" x="228.9707" y="317.0557">add(objDTO)</text><polygon fill="#181818" points="11,386.6094,1,390.6094,11,394.6094,7,390.6094" style="stroke:#181818;stroke-width:1.0;"/><line style="stroke:#181818;stroke-width:1.0;" x1="5" x2="186.6689" y1="390.6094" y2="390.6094"/><text fill="#000000" font-family="sans-serif" font-size="13" font-weight="bold" lengthAdjust="spacing" textLength="25.3018" x="17" y="385.3467">39.6</text><text fill="#000000" font-family="sans-serif" font-size="13" lengthAdjust="spacing" textLength="134.3672" x="46.3018" y="385.3467">listResourceTypesDTO</text><!--SRC=[hLBBRi8m4BpxArOz1IGgLJsr0gG-EBG2WG8zLukp19V4jcod5N_V9I2Qa02NvX9bF3CxdetVA6tHOGwvqKQkdSa9WYj8-EE9HRd1bEPXcn4uaW5rcbK9Ves9-L4wXHLcdeHWE2YfBEe0Dp5vKpX9Ywsb2LfBxWRGGpoQJp_Ybz7dv6as6yLrJQPygEeyFCAOiNuL7DPznc_pnHMNryMqpOZX4oz6wbPc-RKNd-XAsVJvlLG8B8BHHRua1_SFeZTiNB96kBqJm0_AeBunK8EyEpp1e5SrvPdTBcUIZbWVTKf5Peo5bN50ADV0kNbXe3GqoYZPhJE6zL9v0jl0058AaUeSTUtXopLKAGbT8LsQVu3A1Bi5320OVaVy-HVaOeFdMZmihLdWkSpNF9kjOP94-zp_Mnhff5opwFTQcchxwyNv2_q2]--></g></svg>