<svg xmlns="http://www.w3.org/2000/svg" xmlns:xlink="http://www.w3.org/1999/xlink" contentStyleType="text/css" height="1165px" preserveAspectRatio="none" style="width:2746px;height:1165px;background:#FFFFFF;" version="1.1" viewBox="0 0 2746 1165" width="2746px" zoomAndPan="magnify"><defs/><g><!--class ApplicationSession--><g id="elem_ApplicationSession"><rect codeLine="8" fill="#F1F1F1" height="103.8633" id="ApplicationSession" rx="2.5" ry="2.5" style="stroke:#181818;stroke-width:0.5;" width="150.2959" x="267" y="376"/><ellipse cx="282" cy="392" fill="#ADD1B2" rx="11" ry="11" style="stroke:#181818;stroke-width:1.0;"/><path d="M284.7656,387.875 Q284.9219,387.6563 285.1094,387.5469 Q285.2969,387.4375 285.5156,387.4375 Q285.8906,387.4375 286.125,387.7031 Q286.3594,387.9531 286.3594,388.5625 L286.3594,390.0156 Q286.3594,390.625 286.125,390.8906 Q285.8906,391.1563 285.5156,391.1563 Q285.1719,391.1563 284.9688,390.9531 Q284.7656,390.7656 284.6563,390.25 Q284.6094,389.8906 284.4219,389.7031 Q284.0938,389.3281 283.4844,389.1094 Q282.875,388.8906 282.25,388.8906 Q281.4844,388.8906 280.8438,389.2188 Q280.2188,389.5469 279.7188,390.2969 Q279.2344,391.0469 279.2344,392.0781 L279.2344,393.1719 Q279.2344,394.4063 280.125,395.2344 Q281.0156,396.0469 282.6094,396.0469 Q283.5469,396.0469 284.2031,395.7969 Q284.5938,395.6406 285.0156,395.2031 Q285.2813,394.9375 285.4219,394.8594 Q285.5781,394.7813 285.7813,394.7813 Q286.1094,394.7813 286.3594,395.0469 Q286.625,395.2969 286.625,395.6406 Q286.625,395.9844 286.2813,396.3906 Q285.7813,396.9688 284.9844,397.2969 Q283.9063,397.75 282.6094,397.75 Q281.0938,397.75 279.8906,397.125 Q278.9063,396.625 278.2188,395.5625 Q277.5313,394.4844 277.5313,393.2031 L277.5313,392.0469 Q277.5313,390.7188 278.1406,389.5781 Q278.7656,388.4219 279.8594,387.8125 Q280.9531,387.1875 282.1875,387.1875 Q282.9219,387.1875 283.5625,387.3594 Q284.2188,387.5156 284.7656,387.875 Z " fill="#000000"/><text fill="#000000" font-family="sans-serif" font-size="14" lengthAdjust="spacing" textLength="118.2959" x="296" y="397.7969">ApplicationSession</text><line style="stroke:#181818;stroke-width:0.5;" x1="268" x2="416.2959" y1="408" y2="408"/><line style="stroke:#181818;stroke-width:0.5;" x1="268" x2="416.2959" y1="416" y2="416"/><text fill="#000000" font-family="sans-serif" font-size="14" lengthAdjust="spacing" textLength="132.2822" x="273" y="435.1074">-ApplicationSession()</text><text fill="#000000" font-family="sans-serif" font-size="14" lengthAdjust="spacing" text-decoration="underline" textLength="89.8857" x="273" y="453.7285">+getInstance()</text><text fill="#000000" font-family="sans-serif" font-size="14" lengthAdjust="spacing" textLength="133.4512" x="273" y="472.3496">+getCurrentSession()</text></g><!--class UserSession--><g id="elem_UserSession"><rect codeLine="14" fill="#F1F1F1" height="85.2422" id="UserSession" rx="2.5" ry="2.5" style="stroke:#181818;stroke-width:0.5;" width="160.2236" x="336" y="615"/><ellipse cx="372.9863" cy="631" fill="#ADD1B2" rx="11" ry="11" style="stroke:#181818;stroke-width:1.0;"/><path d="M375.7519,626.875 Q375.9082,626.6563 376.0957,626.5469 Q376.2832,626.4375 376.5019,626.4375 Q376.8769,626.4375 377.1113,626.7031 Q377.3457,626.9531 377.3457,627.5625 L377.3457,629.0156 Q377.3457,629.625 377.1113,629.8906 Q376.8769,630.1563 376.5019,630.1563 Q376.1582,630.1563 375.955,629.9531 Q375.7519,629.7656 375.6425,629.25 Q375.5957,628.8906 375.4082,628.7031 Q375.08,628.3281 374.4707,628.1094 Q373.8613,627.8906 373.2363,627.8906 Q372.4707,627.8906 371.83,628.2188 Q371.205,628.5469 370.705,629.2969 Q370.2207,630.0469 370.2207,631.0781 L370.2207,632.1719 Q370.2207,633.4063 371.1113,634.2344 Q372.0019,635.0469 373.5957,635.0469 Q374.5332,635.0469 375.1894,634.7969 Q375.58,634.6406 376.0019,634.2031 Q376.2675,633.9375 376.4082,633.8594 Q376.5644,633.7813 376.7675,633.7813 Q377.0957,633.7813 377.3457,634.0469 Q377.6113,634.2969 377.6113,634.6406 Q377.6113,634.9844 377.2675,635.3906 Q376.7675,635.9688 375.9707,636.2969 Q374.8925,636.75 373.5957,636.75 Q372.08,636.75 370.8769,636.125 Q369.8925,635.625 369.205,634.5625 Q368.5175,633.4844 368.5175,632.2031 L368.5175,631.0469 Q368.5175,629.7188 369.1269,628.5781 Q369.7519,627.4219 370.8457,626.8125 Q371.9394,626.1875 373.1738,626.1875 Q373.9082,626.1875 374.5488,626.3594 Q375.205,626.5156 375.7519,626.875 Z " fill="#000000"/><text fill="#000000" font-family="sans-serif" font-size="14" lengthAdjust="spacing" textLength="79.3652" x="391.8721" y="636.7969">UserSession</text><line style="stroke:#181818;stroke-width:0.5;" x1="337" x2="495.2236" y1="647" y2="647"/><line style="stroke:#181818;stroke-width:0.5;" x1="337" x2="495.2236" y1="655" y2="655"/><text fill="#000000" font-family="sans-serif" font-size="14" lengthAdjust="spacing" textLength="101.5273" x="342" y="674.1074">+getUserEmail()</text><text fill="#000000" font-family="sans-serif" font-size="14" lengthAdjust="spacing" textLength="148.2236" x="342" y="692.7285">+getCurrentMapName()</text></g><!--class Repositories--><g id="elem_Repositories"><rect codeLine="19" fill="#F1F1F1" height="122.4844" id="Repositories" rx="2.5" ry="2.5" style="stroke:#181818;stroke-width:0.5;" width="165.6787" x="1657" y="100.5"/><ellipse cx="1697.1394" cy="116.5" fill="#ADD1B2" rx="11" ry="11" style="stroke:#181818;stroke-width:1.0;"/><path d="M1699.905,112.375 Q1700.0612,112.1563 1700.2487,112.0469 Q1700.4362,111.9375 1700.655,111.9375 Q1701.03,111.9375 1701.2644,112.2031 Q1701.4987,112.4531 1701.4987,113.0625 L1701.4987,114.5156 Q1701.4987,115.125 1701.2644,115.3906 Q1701.03,115.6563 1700.655,115.6563 Q1700.3112,115.6563 1700.1081,115.4531 Q1699.905,115.2656 1699.7956,114.75 Q1699.7487,114.3906 1699.5612,114.2031 Q1699.2331,113.8281 1698.6237,113.6094 Q1698.0144,113.3906 1697.3894,113.3906 Q1696.6237,113.3906 1695.9831,113.7188 Q1695.3581,114.0469 1694.8581,114.7969 Q1694.3737,115.5469 1694.3737,116.5781 L1694.3737,117.6719 Q1694.3737,118.9063 1695.2644,119.7344 Q1696.155,120.5469 1697.7487,120.5469 Q1698.6862,120.5469 1699.3425,120.2969 Q1699.7331,120.1406 1700.155,119.7031 Q1700.4206,119.4375 1700.5612,119.3594 Q1700.7175,119.2813 1700.9206,119.2813 Q1701.2487,119.2813 1701.4987,119.5469 Q1701.7644,119.7969 1701.7644,120.1406 Q1701.7644,120.4844 1701.4206,120.8906 Q1700.9206,121.4688 1700.1237,121.7969 Q1699.0456,122.25 1697.7487,122.25 Q1696.2331,122.25 1695.03,121.625 Q1694.0456,121.125 1693.3581,120.0625 Q1692.6706,118.9844 1692.6706,117.7031 L1692.6706,116.5469 Q1692.6706,115.2188 1693.28,114.0781 Q1693.905,112.9219 1694.9987,112.3125 Q1696.0925,111.6875 1697.3269,111.6875 Q1698.0612,111.6875 1698.7019,111.8594 Q1699.3581,112.0156 1699.905,112.375 Z " fill="#000000"/><text fill="#000000" font-family="sans-serif" font-size="14" lengthAdjust="spacing" textLength="77.8135" x="1716.7259" y="122.2969">Repositories</text><line style="stroke:#181818;stroke-width:0.5;" x1="1658" x2="1821.6787" y1="132.5" y2="132.5"/><line style="stroke:#181818;stroke-width:0.5;" x1="1658" x2="1821.6787" y1="140.5" y2="140.5"/><text fill="#000000" font-family="sans-serif" font-size="14" lengthAdjust="spacing" textLength="91.7998" x="1663" y="159.6074">-Repositories()</text><text fill="#000000" font-family="sans-serif" font-size="14" lengthAdjust="spacing" text-decoration="underline" textLength="89.8857" x="1663" y="178.2285">+getInstance()</text><text fill="#000000" font-family="sans-serif" font-size="14" lengthAdjust="spacing" textLength="131.1133" x="1663" y="196.8496">+getMapRepository()</text><text fill="#000000" font-family="sans-serif" font-size="14" lengthAdjust="spacing" textLength="153.6787" x="1663" y="215.4707">+getIndustryRepository()</text></g><!--class MapRepository--><g id="elem_MapRepository"><rect codeLine="26" fill="#F1F1F1" height="66.6211" id="MapRepository" rx="2.5" ry="2.5" style="stroke:#181818;stroke-width:0.5;" width="164.8994" x="1657.5" y="394.5"/><ellipse cx="1689.9366" cy="410.5" fill="#ADD1B2" rx="11" ry="11" style="stroke:#181818;stroke-width:1.0;"/><path d="M1692.7022,406.375 Q1692.8585,406.1563 1693.046,406.0469 Q1693.2335,405.9375 1693.4522,405.9375 Q1693.8272,405.9375 1694.0616,406.2031 Q1694.296,406.4531 1694.296,407.0625 L1694.296,408.5156 Q1694.296,409.125 1694.0616,409.3906 Q1693.8272,409.6563 1693.4522,409.6563 Q1693.1085,409.6563 1692.9054,409.4531 Q1692.7022,409.2656 1692.5929,408.75 Q1692.546,408.3906 1692.3585,408.2031 Q1692.0304,407.8281 1691.421,407.6094 Q1690.8116,407.3906 1690.1866,407.3906 Q1689.421,407.3906 1688.7804,407.7188 Q1688.1554,408.0469 1687.6554,408.7969 Q1687.171,409.5469 1687.171,410.5781 L1687.171,411.6719 Q1687.171,412.9063 1688.0616,413.7344 Q1688.9522,414.5469 1690.546,414.5469 Q1691.4835,414.5469 1692.1397,414.2969 Q1692.5304,414.1406 1692.9522,413.7031 Q1693.2179,413.4375 1693.3585,413.3594 Q1693.5147,413.2813 1693.7179,413.2813 Q1694.046,413.2813 1694.296,413.5469 Q1694.5616,413.7969 1694.5616,414.1406 Q1694.5616,414.4844 1694.2179,414.8906 Q1693.7179,415.4688 1692.921,415.7969 Q1691.8429,416.25 1690.546,416.25 Q1689.0304,416.25 1687.8272,415.625 Q1686.8429,415.125 1686.1554,414.0625 Q1685.4679,412.9844 1685.4679,411.7031 L1685.4679,410.5469 Q1685.4679,409.2188 1686.0772,408.0781 Q1686.7022,406.9219 1687.796,406.3125 Q1688.8897,405.6875 1690.1241,405.6875 Q1690.8585,405.6875 1691.4991,405.8594 Q1692.1554,406.0156 1692.7022,406.375 Z " fill="#000000"/><text fill="#000000" font-family="sans-serif" font-size="14" lengthAdjust="spacing" textLength="94.1514" x="1707.8114" y="416.2969">MapRepository</text><line style="stroke:#181818;stroke-width:0.5;" x1="1658.5" x2="1821.3994" y1="426.5" y2="426.5"/><line style="stroke:#181818;stroke-width:0.5;" x1="1658.5" x2="1821.3994" y1="434.5" y2="434.5"/><text fill="#000000" font-family="sans-serif" font-size="14" lengthAdjust="spacing" textLength="152.8994" x="1663.5" y="453.6074">+getMapByName(name)</text></g><!--class IndustryRepository--><g id="elem_IndustryRepository"><rect codeLine="30" fill="#F1F1F1" height="85.2422" id="IndustryRepository" rx="2.5" ry="2.5" style="stroke:#181818;stroke-width:0.5;" width="148.7168" x="722.5" y="385.5"/><ellipse cx="737.5" cy="401.5" fill="#ADD1B2" rx="11" ry="11" style="stroke:#181818;stroke-width:1.0;"/><path d="M740.2656,397.375 Q740.4219,397.1563 740.6094,397.0469 Q740.7969,396.9375 741.0156,396.9375 Q741.3906,396.9375 741.625,397.2031 Q741.8594,397.4531 741.8594,398.0625 L741.8594,399.5156 Q741.8594,400.125 741.625,400.3906 Q741.3906,400.6563 741.0156,400.6563 Q740.6719,400.6563 740.4688,400.4531 Q740.2656,400.2656 740.1563,399.75 Q740.1094,399.3906 739.9219,399.2031 Q739.5938,398.8281 738.9844,398.6094 Q738.375,398.3906 737.75,398.3906 Q736.9844,398.3906 736.3438,398.7188 Q735.7188,399.0469 735.2188,399.7969 Q734.7344,400.5469 734.7344,401.5781 L734.7344,402.6719 Q734.7344,403.9063 735.625,404.7344 Q736.5156,405.5469 738.1094,405.5469 Q739.0469,405.5469 739.7031,405.2969 Q740.0938,405.1406 740.5156,404.7031 Q740.7813,404.4375 740.9219,404.3594 Q741.0781,404.2813 741.2813,404.2813 Q741.6094,404.2813 741.8594,404.5469 Q742.125,404.7969 742.125,405.1406 Q742.125,405.4844 741.7813,405.8906 Q741.2813,406.4688 740.4844,406.7969 Q739.4063,407.25 738.1094,407.25 Q736.5938,407.25 735.3906,406.625 Q734.4063,406.125 733.7188,405.0625 Q733.0313,403.9844 733.0313,402.7031 L733.0313,401.5469 Q733.0313,400.2188 733.6406,399.0781 Q734.2656,397.9219 735.3594,397.3125 Q736.4531,396.6875 737.6875,396.6875 Q738.4219,396.6875 739.0625,396.8594 Q739.7188,397.0156 740.2656,397.375 Z " fill="#000000"/><text fill="#000000" font-family="sans-serif" font-size="14" lengthAdjust="spacing" textLength="116.7168" x="751.5" y="407.2969">IndustryRepository</text><line style="stroke:#181818;stroke-width:0.5;" x1="723.5" x2="870.2168" y1="417.5" y2="417.5"/><line style="stroke:#181818;stroke-width:0.5;" x1="723.5" x2="870.2168" y1="425.5" y2="425.5"/><text fill="#000000" font-family="sans-serif" font-size="14" lengthAdjust="spacing" textLength="89.8789" x="728.5" y="444.6074">+add(industry)</text><text fill="#000000" font-family="sans-serif" font-size="14" lengthAdjust="spacing" textLength="92.5791" x="728.5" y="463.2285">-save(industry)</text></g><!--class Map--><g id="elem_Map"><rect codeLine="35" fill="#F1F1F1" height="196.9688" id="Map" rx="2.5" ry="2.5" style="stroke:#181818;stroke-width:0.5;" width="201.4717" x="1345.5" y="559"/><ellipse cx="1428.3687" cy="575" fill="#ADD1B2" rx="11" ry="11" style="stroke:#181818;stroke-width:1.0;"/><path d="M1431.1343,570.875 Q1431.2905,570.6563 1431.478,570.5469 Q1431.6655,570.4375 1431.8843,570.4375 Q1432.2593,570.4375 1432.4937,570.7031 Q1432.728,570.9531 1432.728,571.5625 L1432.728,573.0156 Q1432.728,573.625 1432.4937,573.8906 Q1432.2593,574.1563 1431.8843,574.1563 Q1431.5405,574.1563 1431.3374,573.9531 Q1431.1343,573.7656 1431.0249,573.25 Q1430.978,572.8906 1430.7905,572.7031 Q1430.4624,572.3281 1429.853,572.1094 Q1429.2437,571.8906 1428.6187,571.8906 Q1427.853,571.8906 1427.2124,572.2188 Q1426.5874,572.5469 1426.0874,573.2969 Q1425.603,574.0469 1425.603,575.0781 L1425.603,576.1719 Q1425.603,577.4063 1426.4937,578.2344 Q1427.3843,579.0469 1428.978,579.0469 Q1429.9155,579.0469 1430.5718,578.7969 Q1430.9624,578.6406 1431.3843,578.2031 Q1431.6499,577.9375 1431.7905,577.8594 Q1431.9468,577.7813 1432.1499,577.7813 Q1432.478,577.7813 1432.728,578.0469 Q1432.9937,578.2969 1432.9937,578.6406 Q1432.9937,578.9844 1432.6499,579.3906 Q1432.1499,579.9688 1431.353,580.2969 Q1430.2749,580.75 1428.978,580.75 Q1427.4624,580.75 1426.2593,580.125 Q1425.2749,579.625 1424.5874,578.5625 Q1423.8999,577.4844 1423.8999,576.2031 L1423.8999,575.0469 Q1423.8999,573.7188 1424.5093,572.5781 Q1425.1343,571.4219 1426.228,570.8125 Q1427.3218,570.1875 1428.5562,570.1875 Q1429.2905,570.1875 1429.9312,570.3594 Q1430.5874,570.5156 1431.1343,570.875 Z " fill="#000000"/><text fill="#000000" font-family="sans-serif" font-size="14" lengthAdjust="spacing" textLength="27.2344" x="1448.8687" y="580.7969">Map</text><line style="stroke:#181818;stroke-width:0.5;" x1="1346.5" x2="1545.9717" y1="591" y2="591"/><text fill="#000000" font-family="sans-serif" font-size="14" lengthAdjust="spacing" textLength="87.9238" x="1351.5" y="610.1074">-name : String</text><text fill="#000000" font-family="sans-serif" font-size="14" lengthAdjust="spacing" textLength="66.124" x="1351.5" y="628.7285">-grid : Grid</text><line style="stroke:#181818;stroke-width:0.5;" x1="1346.5" x2="1545.9717" y1="636.2422" y2="636.2422"/><text fill="#000000" font-family="sans-serif" font-size="14" lengthAdjust="spacing" textLength="76.6309" x="1351.5" y="655.3496">+showGrid()</text><text fill="#000000" font-family="sans-serif" font-size="14" lengthAdjust="spacing" textLength="133.4512" x="1351.5" y="673.9707">+isValidLocation(x, y)</text><text fill="#000000" font-family="sans-serif" font-size="14" lengthAdjust="spacing" textLength="171.5684" x="1351.5" y="692.5918">+getListOfResourceTypes()</text><text fill="#000000" font-family="sans-serif" font-size="14" lengthAdjust="spacing" textLength="124.8857" x="1351.5" y="711.2129">+getIndustryTypes()</text><text fill="#000000" font-family="sans-serif" font-size="14" lengthAdjust="spacing" textLength="189.4717" x="1351.5" y="729.834">+getListOfGenerationFactors()</text><text fill="#000000" font-family="sans-serif" font-size="14" lengthAdjust="spacing" textLength="139.6787" x="1351.5" y="748.4551">+addIndustry(industry)</text></g><!--class Location--><g id="elem_Location"><rect codeLine="46" fill="#F1F1F1" height="103.8633" id="Location" rx="2.5" ry="2.5" style="stroke:#181818;stroke-width:0.5;" width="104.21" x="7" y="1055"/><ellipse cx="30.6757" cy="1071" fill="#ADD1B2" rx="11" ry="11" style="stroke:#181818;stroke-width:1.0;"/><path d="M33.4413,1066.875 Q33.5976,1066.6563 33.7851,1066.5469 Q33.9726,1066.4375 34.1913,1066.4375 Q34.5663,1066.4375 34.8007,1066.7031 Q35.0351,1066.9531 35.0351,1067.5625 L35.0351,1069.0156 Q35.0351,1069.625 34.8007,1069.8906 Q34.5663,1070.1563 34.1913,1070.1563 Q33.8476,1070.1563 33.6444,1069.9531 Q33.4413,1069.7656 33.3319,1069.25 Q33.2851,1068.8906 33.0976,1068.7031 Q32.7694,1068.3281 32.1601,1068.1094 Q31.5507,1067.8906 30.9257,1067.8906 Q30.1601,1067.8906 29.5194,1068.2188 Q28.8944,1068.5469 28.3944,1069.2969 Q27.9101,1070.0469 27.9101,1071.0781 L27.9101,1072.1719 Q27.9101,1073.4063 28.8007,1074.2344 Q29.6913,1075.0469 31.2851,1075.0469 Q32.2226,1075.0469 32.8788,1074.7969 Q33.2694,1074.6406 33.6913,1074.2031 Q33.9569,1073.9375 34.0976,1073.8594 Q34.2538,1073.7813 34.4569,1073.7813 Q34.7851,1073.7813 35.0351,1074.0469 Q35.3007,1074.2969 35.3007,1074.6406 Q35.3007,1074.9844 34.9569,1075.3906 Q34.4569,1075.9688 33.6601,1076.2969 Q32.5819,1076.75 31.2851,1076.75 Q29.7694,1076.75 28.5663,1076.125 Q27.5819,1075.625 26.8944,1074.5625 Q26.2069,1073.4844 26.2069,1072.2031 L26.2069,1071.0469 Q26.2069,1069.7188 26.8163,1068.5781 Q27.4413,1067.4219 28.5351,1066.8125 Q29.6288,1066.1875 30.8632,1066.1875 Q31.5976,1066.1875 32.2382,1066.3594 Q32.8944,1066.5156 33.4413,1066.875 Z " fill="#000000"/><text fill="#000000" font-family="sans-serif" font-size="14" lengthAdjust="spacing" textLength="52.9307" x="46.6036" y="1076.7969">Location</text><line style="stroke:#181818;stroke-width:0.5;" x1="8" x2="110.21" y1="1087" y2="1087"/><text fill="#000000" font-family="sans-serif" font-size="14" lengthAdjust="spacing" textLength="38.1172" x="13" y="1106.1074">-x : int</text><text fill="#000000" font-family="sans-serif" font-size="14" lengthAdjust="spacing" textLength="38.1172" x="13" y="1124.7285">-y : int</text><line style="stroke:#181818;stroke-width:0.5;" x1="8" x2="110.21" y1="1132.2422" y2="1132.2422"/><text fill="#000000" font-family="sans-serif" font-size="14" lengthAdjust="spacing" textLength="92.21" x="13" y="1151.3496">+Location(x, y)</text></g><!--class ResourceType--><g id="elem_ResourceType"><rect codeLine="52" fill="#F1F1F1" height="85.2422" id="ResourceType" rx="2.5" ry="2.5" style="stroke:#181818;stroke-width:0.5;" width="132.6064" x="914.5" y="1064.5"/><ellipse cx="933.8044" cy="1080.5" fill="#ADD1B2" rx="11" ry="11" style="stroke:#181818;stroke-width:1.0;"/><path d="M936.5701,1076.375 Q936.7263,1076.1563 936.9138,1076.0469 Q937.1013,1075.9375 937.3201,1075.9375 Q937.6951,1075.9375 937.9294,1076.2031 Q938.1638,1076.4531 938.1638,1077.0625 L938.1638,1078.5156 Q938.1638,1079.125 937.9294,1079.3906 Q937.6951,1079.6563 937.3201,1079.6563 Q936.9763,1079.6563 936.7732,1079.4531 Q936.5701,1079.2656 936.4607,1078.75 Q936.4138,1078.3906 936.2263,1078.2031 Q935.8982,1077.8281 935.2888,1077.6094 Q934.6794,1077.3906 934.0544,1077.3906 Q933.2888,1077.3906 932.6482,1077.7188 Q932.0232,1078.0469 931.5232,1078.7969 Q931.0388,1079.5469 931.0388,1080.5781 L931.0388,1081.6719 Q931.0388,1082.9063 931.9294,1083.7344 Q932.8201,1084.5469 934.4138,1084.5469 Q935.3513,1084.5469 936.0076,1084.2969 Q936.3982,1084.1406 936.8201,1083.7031 Q937.0857,1083.4375 937.2263,1083.3594 Q937.3826,1083.2813 937.5857,1083.2813 Q937.9138,1083.2813 938.1638,1083.5469 Q938.4294,1083.7969 938.4294,1084.1406 Q938.4294,1084.4844 938.0857,1084.8906 Q937.5857,1085.4688 936.7888,1085.7969 Q935.7107,1086.25 934.4138,1086.25 Q932.8982,1086.25 931.6951,1085.625 Q930.7107,1085.125 930.0232,1084.0625 Q929.3357,1082.9844 929.3357,1081.7031 L929.3357,1080.5469 Q929.3357,1079.2188 929.9451,1078.0781 Q930.5701,1076.9219 931.6638,1076.3125 Q932.7576,1075.6875 933.9919,1075.6875 Q934.7263,1075.6875 935.3669,1075.8594 Q936.0232,1076.0156 936.5701,1076.375 Z " fill="#000000"/><text fill="#000000" font-family="sans-serif" font-size="14" lengthAdjust="spacing" textLength="91.041" x="948.761" y="1086.2969">ResourceType</text><line style="stroke:#181818;stroke-width:0.5;" x1="915.5" x2="1046.1064" y1="1096.5" y2="1096.5"/><text fill="#000000" font-family="sans-serif" font-size="14" lengthAdjust="spacing" textLength="87.9238" x="920.5" y="1115.6074">-name : String</text><text fill="#000000" font-family="sans-serif" font-size="14" lengthAdjust="spacing" textLength="120.6064" x="920.5" y="1134.2285">-description : String</text><line style="stroke:#181818;stroke-width:0.5;" x1="915.5" x2="1046.1064" y1="1141.7422" y2="1141.7422"/></g><!--class IndustryType--><g id="elem_IndustryType"><rect codeLine="57" fill="#F1F1F1" height="85.2422" id="IndustryType" rx="2.5" ry="2.5" style="stroke:#181818;stroke-width:0.5;" width="132.6064" x="2112.5" y="1064.5"/><ellipse cx="2136.3572" cy="1080.5" fill="#ADD1B2" rx="11" ry="11" style="stroke:#181818;stroke-width:1.0;"/><path d="M2139.1228,1076.375 Q2139.2791,1076.1563 2139.4666,1076.0469 Q2139.6541,1075.9375 2139.8728,1075.9375 Q2140.2478,1075.9375 2140.4822,1076.2031 Q2140.7166,1076.4531 2140.7166,1077.0625 L2140.7166,1078.5156 Q2140.7166,1079.125 2140.4822,1079.3906 Q2140.2478,1079.6563 2139.8728,1079.6563 Q2139.5291,1079.6563 2139.3259,1079.4531 Q2139.1228,1079.2656 2139.0134,1078.75 Q2138.9666,1078.3906 2138.7791,1078.2031 Q2138.4509,1077.8281 2137.8416,1077.6094 Q2137.2322,1077.3906 2136.6072,1077.3906 Q2135.8416,1077.3906 2135.2009,1077.7188 Q2134.5759,1078.0469 2134.0759,1078.7969 Q2133.5916,1079.5469 2133.5916,1080.5781 L2133.5916,1081.6719 Q2133.5916,1082.9063 2134.4822,1083.7344 Q2135.3728,1084.5469 2136.9666,1084.5469 Q2137.9041,1084.5469 2138.5603,1084.2969 Q2138.9509,1084.1406 2139.3728,1083.7031 Q2139.6384,1083.4375 2139.7791,1083.3594 Q2139.9353,1083.2813 2140.1384,1083.2813 Q2140.4666,1083.2813 2140.7166,1083.5469 Q2140.9822,1083.7969 2140.9822,1084.1406 Q2140.9822,1084.4844 2140.6384,1084.8906 Q2140.1384,1085.4688 2139.3416,1085.7969 Q2138.2634,1086.25 2136.9666,1086.25 Q2135.4509,1086.25 2134.2478,1085.625 Q2133.2634,1085.125 2132.5759,1084.0625 Q2131.8884,1082.9844 2131.8884,1081.7031 L2131.8884,1080.5469 Q2131.8884,1079.2188 2132.4978,1078.0781 Q2133.1228,1076.9219 2134.2166,1076.3125 Q2135.3103,1075.6875 2136.5447,1075.6875 Q2137.2791,1075.6875 2137.9197,1075.8594 Q2138.5759,1076.0156 2139.1228,1076.375 Z " fill="#000000"/><text fill="#000000" font-family="sans-serif" font-size="14" lengthAdjust="spacing" textLength="80.9238" x="2152.3254" y="1086.2969">IndustryType</text><line style="stroke:#181818;stroke-width:0.5;" x1="2113.5" x2="2244.1064" y1="1096.5" y2="1096.5"/><text fill="#000000" font-family="sans-serif" font-size="14" lengthAdjust="spacing" textLength="87.9238" x="2118.5" y="1115.6074">-name : String</text><text fill="#000000" font-family="sans-serif" font-size="14" lengthAdjust="spacing" textLength="120.6064" x="2118.5" y="1134.2285">-description : String</text><line style="stroke:#181818;stroke-width:0.5;" x1="2113.5" x2="2244.1064" y1="1141.7422" y2="1141.7422"/></g><!--class GenerationFactors--><g id="elem_GenerationFactors"><rect codeLine="62" fill="#F1F1F1" height="85.2422" id="GenerationFactors" rx="2.5" ry="2.5" style="stroke:#181818;stroke-width:0.5;" width="147.9443" x="1875" y="1064.5"/><ellipse cx="1890" cy="1080.5" fill="#ADD1B2" rx="11" ry="11" style="stroke:#181818;stroke-width:1.0;"/><path d="M1892.7656,1076.375 Q1892.9219,1076.1563 1893.1094,1076.0469 Q1893.2969,1075.9375 1893.5156,1075.9375 Q1893.8906,1075.9375 1894.125,1076.2031 Q1894.3594,1076.4531 1894.3594,1077.0625 L1894.3594,1078.5156 Q1894.3594,1079.125 1894.125,1079.3906 Q1893.8906,1079.6563 1893.5156,1079.6563 Q1893.1719,1079.6563 1892.9688,1079.4531 Q1892.7656,1079.2656 1892.6563,1078.75 Q1892.6094,1078.3906 1892.4219,1078.2031 Q1892.0938,1077.8281 1891.4844,1077.6094 Q1890.875,1077.3906 1890.25,1077.3906 Q1889.4844,1077.3906 1888.8438,1077.7188 Q1888.2188,1078.0469 1887.7188,1078.7969 Q1887.2344,1079.5469 1887.2344,1080.5781 L1887.2344,1081.6719 Q1887.2344,1082.9063 1888.125,1083.7344 Q1889.0156,1084.5469 1890.6094,1084.5469 Q1891.5469,1084.5469 1892.2031,1084.2969 Q1892.5938,1084.1406 1893.0156,1083.7031 Q1893.2813,1083.4375 1893.4219,1083.3594 Q1893.5781,1083.2813 1893.7813,1083.2813 Q1894.1094,1083.2813 1894.3594,1083.5469 Q1894.625,1083.7969 1894.625,1084.1406 Q1894.625,1084.4844 1894.2813,1084.8906 Q1893.7813,1085.4688 1892.9844,1085.7969 Q1891.9063,1086.25 1890.6094,1086.25 Q1889.0938,1086.25 1887.8906,1085.625 Q1886.9063,1085.125 1886.2188,1084.0625 Q1885.5313,1082.9844 1885.5313,1081.7031 L1885.5313,1080.5469 Q1885.5313,1079.2188 1886.1406,1078.0781 Q1886.7656,1076.9219 1887.8594,1076.3125 Q1888.9531,1075.6875 1890.1875,1075.6875 Q1890.9219,1075.6875 1891.5625,1075.8594 Q1892.2188,1076.0156 1892.7656,1076.375 Z " fill="#000000"/><text fill="#000000" font-family="sans-serif" font-size="14" lengthAdjust="spacing" textLength="115.9443" x="1904" y="1086.2969">GenerationFactors</text><line style="stroke:#181818;stroke-width:0.5;" x1="1876" x2="2021.9443" y1="1096.5" y2="1096.5"/><text fill="#000000" font-family="sans-serif" font-size="14" lengthAdjust="spacing" textLength="87.9238" x="1881" y="1115.6074">-name : String</text><text fill="#000000" font-family="sans-serif" font-size="14" lengthAdjust="spacing" textLength="120.6064" x="1881" y="1134.2285">-description : String</text><line style="stroke:#181818;stroke-width:0.5;" x1="1876" x2="2021.9443" y1="1141.7422" y2="1141.7422"/></g><!--class Industry--><g id="elem_Industry"><rect codeLine="67" fill="#F1F1F1" height="141.1055" id="Industry" rx="2.5" ry="2.5" style="stroke:#181818;stroke-width:0.5;" width="422.4707" x="598" y="835"/><ellipse cx="780.0854" cy="851" fill="#ADD1B2" rx="11" ry="11" style="stroke:#181818;stroke-width:1.0;"/><path d="M782.8511,846.875 Q783.0073,846.6563 783.1948,846.5469 Q783.3823,846.4375 783.6011,846.4375 Q783.9761,846.4375 784.2104,846.7031 Q784.4448,846.9531 784.4448,847.5625 L784.4448,849.0156 Q784.4448,849.625 784.2104,849.8906 Q783.9761,850.1563 783.6011,850.1563 Q783.2573,850.1563 783.0542,849.9531 Q782.8511,849.7656 782.7417,849.25 Q782.6948,848.8906 782.5073,848.7031 Q782.1792,848.3281 781.5698,848.1094 Q780.9604,847.8906 780.3354,847.8906 Q779.5698,847.8906 778.9292,848.2188 Q778.3042,848.5469 777.8042,849.2969 Q777.3198,850.0469 777.3198,851.0781 L777.3198,852.1719 Q777.3198,853.4063 778.2104,854.2344 Q779.1011,855.0469 780.6948,855.0469 Q781.6323,855.0469 782.2886,854.7969 Q782.6792,854.6406 783.1011,854.2031 Q783.3667,853.9375 783.5073,853.8594 Q783.6636,853.7813 783.8667,853.7813 Q784.1948,853.7813 784.4448,854.0469 Q784.7104,854.2969 784.7104,854.6406 Q784.7104,854.9844 784.3667,855.3906 Q783.8667,855.9688 783.0698,856.2969 Q781.9917,856.75 780.6948,856.75 Q779.1792,856.75 777.9761,856.125 Q776.9917,855.625 776.3042,854.5625 Q775.6167,853.4844 775.6167,852.2031 L775.6167,851.0469 Q775.6167,849.7188 776.2261,848.5781 Q776.8511,847.4219 777.9448,846.8125 Q779.0386,846.1875 780.2729,846.1875 Q781.0073,846.1875 781.6479,846.3594 Q782.3042,846.5156 782.8511,846.875 Z " fill="#000000"/><text fill="#000000" font-family="sans-serif" font-size="14" lengthAdjust="spacing" textLength="49.7998" x="800.5854" y="856.7969">Industry</text><line style="stroke:#181818;stroke-width:0.5;" x1="599" x2="1019.4707" y1="867" y2="867"/><text fill="#000000" font-family="sans-serif" font-size="14" lengthAdjust="spacing" textLength="117.5166" x="604" y="886.1074">-location : Location</text><text fill="#000000" font-family="sans-serif" font-size="14" lengthAdjust="spacing" textLength="192.9648" x="604" y="904.7285">-resourceType : ResourceType</text><text fill="#000000" font-family="sans-serif" font-size="14" lengthAdjust="spacing" textLength="177.3994" x="604" y="923.3496">-industryType : IndustryType</text><text fill="#000000" font-family="sans-serif" font-size="14" lengthAdjust="spacing" textLength="238.1162" x="604" y="941.9707">-generationFactor : GenerationFactors</text><line style="stroke:#181818;stroke-width:0.5;" x1="599" x2="1019.4707" y1="949.4844" y2="949.4844"/><text fill="#000000" font-family="sans-serif" font-size="14" lengthAdjust="spacing" textLength="410.4707" x="604" y="968.5918">+Industry(location, resourceType, industryType, generationFactor)</text></g><!--class IndustryDTO--><g id="elem_IndustryDTO"><rect codeLine="75" fill="#F1F1F1" height="122.4844" id="IndustryDTO" rx="2.5" ry="2.5" style="stroke:#181818;stroke-width:0.5;" width="302.2402" x="918" y="100.5"/><ellipse cx="1025.1943" cy="116.5" fill="#ADD1B2" rx="11" ry="11" style="stroke:#181818;stroke-width:1.0;"/><path d="M1027.96,112.375 Q1028.1162,112.1563 1028.3037,112.0469 Q1028.4912,111.9375 1028.71,111.9375 Q1029.085,111.9375 1029.3193,112.2031 Q1029.5537,112.4531 1029.5537,113.0625 L1029.5537,114.5156 Q1029.5537,115.125 1029.3193,115.3906 Q1029.085,115.6563 1028.71,115.6563 Q1028.3662,115.6563 1028.1631,115.4531 Q1027.96,115.2656 1027.8506,114.75 Q1027.8037,114.3906 1027.6162,114.2031 Q1027.2881,113.8281 1026.6787,113.6094 Q1026.0693,113.3906 1025.4443,113.3906 Q1024.6787,113.3906 1024.0381,113.7188 Q1023.4131,114.0469 1022.9131,114.7969 Q1022.4287,115.5469 1022.4287,116.5781 L1022.4287,117.6719 Q1022.4287,118.9063 1023.3193,119.7344 Q1024.21,120.5469 1025.8037,120.5469 Q1026.7412,120.5469 1027.3975,120.2969 Q1027.7881,120.1406 1028.21,119.7031 Q1028.4756,119.4375 1028.6162,119.3594 Q1028.7725,119.2813 1028.9756,119.2813 Q1029.3037,119.2813 1029.5537,119.5469 Q1029.8193,119.7969 1029.8193,120.1406 Q1029.8193,120.4844 1029.4756,120.8906 Q1028.9756,121.4688 1028.1787,121.7969 Q1027.1006,122.25 1025.8037,122.25 Q1024.2881,122.25 1023.085,121.625 Q1022.1006,121.125 1021.4131,120.0625 Q1020.7256,118.9844 1020.7256,117.7031 L1020.7256,116.5469 Q1020.7256,115.2188 1021.335,114.0781 Q1021.96,112.9219 1023.0537,112.3125 Q1024.1475,111.6875 1025.3818,111.6875 Q1026.1162,111.6875 1026.7568,111.8594 Q1027.4131,112.0156 1027.96,112.375 Z " fill="#000000"/><text fill="#000000" font-family="sans-serif" font-size="14" lengthAdjust="spacing" textLength="79.3516" x="1045.6943" y="122.2969">IndustryDTO</text><line style="stroke:#181818;stroke-width:0.5;" x1="919" x2="1219.2402" y1="132.5" y2="132.5"/><text fill="#000000" font-family="sans-serif" font-size="14" lengthAdjust="spacing" textLength="117.5166" x="924" y="151.6074">-location : Location</text><text fill="#000000" font-family="sans-serif" font-size="14" lengthAdjust="spacing" textLength="192.9648" x="924" y="170.2285">-resourceType : ResourceType</text><text fill="#000000" font-family="sans-serif" font-size="14" lengthAdjust="spacing" textLength="177.3994" x="924" y="188.8496">-industryType : IndustryType</text><text fill="#000000" font-family="sans-serif" font-size="14" lengthAdjust="spacing" textLength="290.2402" x="924" y="207.4707">-industryGenerationFactor : GenerationFactors</text><line style="stroke:#181818;stroke-width:0.5;" x1="919" x2="1219.2402" y1="214.9844" y2="214.9844"/></g><!--class ResourceTypeDTO--><g id="elem_ResourceTypeDTO"><rect codeLine="82" fill="#F1F1F1" height="85.2422" id="ResourceTypeDTO" rx="2.5" ry="2.5" style="stroke:#181818;stroke-width:0.5;" width="152.5928" x="1468.5" y="119"/><ellipse cx="1483.5" cy="135" fill="#ADD1B2" rx="11" ry="11" style="stroke:#181818;stroke-width:1.0;"/><path d="M1486.2656,130.875 Q1486.4219,130.6563 1486.6094,130.5469 Q1486.7969,130.4375 1487.0156,130.4375 Q1487.3906,130.4375 1487.625,130.7031 Q1487.8594,130.9531 1487.8594,131.5625 L1487.8594,133.0156 Q1487.8594,133.625 1487.625,133.8906 Q1487.3906,134.1563 1487.0156,134.1563 Q1486.6719,134.1563 1486.4688,133.9531 Q1486.2656,133.7656 1486.1563,133.25 Q1486.1094,132.8906 1485.9219,132.7031 Q1485.5938,132.3281 1484.9844,132.1094 Q1484.375,131.8906 1483.75,131.8906 Q1482.9844,131.8906 1482.3438,132.2188 Q1481.7188,132.5469 1481.2188,133.2969 Q1480.7344,134.0469 1480.7344,135.0781 L1480.7344,136.1719 Q1480.7344,137.4063 1481.625,138.2344 Q1482.5156,139.0469 1484.1094,139.0469 Q1485.0469,139.0469 1485.7031,138.7969 Q1486.0938,138.6406 1486.5156,138.2031 Q1486.7813,137.9375 1486.9219,137.8594 Q1487.0781,137.7813 1487.2813,137.7813 Q1487.6094,137.7813 1487.8594,138.0469 Q1488.125,138.2969 1488.125,138.6406 Q1488.125,138.9844 1487.7813,139.3906 Q1487.2813,139.9688 1486.4844,140.2969 Q1485.4063,140.75 1484.1094,140.75 Q1482.5938,140.75 1481.3906,140.125 Q1480.4063,139.625 1479.7188,138.5625 Q1479.0313,137.4844 1479.0313,136.2031 L1479.0313,135.0469 Q1479.0313,133.7188 1479.6406,132.5781 Q1480.2656,131.4219 1481.3594,130.8125 Q1482.4531,130.1875 1483.6875,130.1875 Q1484.4219,130.1875 1485.0625,130.3594 Q1485.7188,130.5156 1486.2656,130.875 Z " fill="#000000"/><text fill="#000000" font-family="sans-serif" font-size="14" lengthAdjust="spacing" textLength="120.5928" x="1497.5" y="140.7969">ResourceTypeDTO</text><line style="stroke:#181818;stroke-width:0.5;" x1="1469.5" x2="1620.0928" y1="151" y2="151"/><text fill="#000000" font-family="sans-serif" font-size="14" lengthAdjust="spacing" textLength="87.9238" x="1474.5" y="170.1074">-name : String</text><text fill="#000000" font-family="sans-serif" font-size="14" lengthAdjust="spacing" textLength="120.6064" x="1474.5" y="188.7285">-description : String</text><line style="stroke:#181818;stroke-width:0.5;" x1="1469.5" x2="1620.0928" y1="196.2422" y2="196.2422"/></g><!--class GenerationFactorsDTO--><g id="elem_GenerationFactorsDTO"><rect codeLine="87" fill="#F1F1F1" height="85.2422" id="GenerationFactorsDTO" rx="2.5" ry="2.5" style="stroke:#181818;stroke-width:0.5;" width="177.4961" x="2176.5" y="119"/><ellipse cx="2191.5" cy="135" fill="#ADD1B2" rx="11" ry="11" style="stroke:#181818;stroke-width:1.0;"/><path d="M2194.2656,130.875 Q2194.4219,130.6563 2194.6094,130.5469 Q2194.7969,130.4375 2195.0156,130.4375 Q2195.3906,130.4375 2195.625,130.7031 Q2195.8594,130.9531 2195.8594,131.5625 L2195.8594,133.0156 Q2195.8594,133.625 2195.625,133.8906 Q2195.3906,134.1563 2195.0156,134.1563 Q2194.6719,134.1563 2194.4688,133.9531 Q2194.2656,133.7656 2194.1563,133.25 Q2194.1094,132.8906 2193.9219,132.7031 Q2193.5938,132.3281 2192.9844,132.1094 Q2192.375,131.8906 2191.75,131.8906 Q2190.9844,131.8906 2190.3438,132.2188 Q2189.7188,132.5469 2189.2188,133.2969 Q2188.7344,134.0469 2188.7344,135.0781 L2188.7344,136.1719 Q2188.7344,137.4063 2189.625,138.2344 Q2190.5156,139.0469 2192.1094,139.0469 Q2193.0469,139.0469 2193.7031,138.7969 Q2194.0938,138.6406 2194.5156,138.2031 Q2194.7813,137.9375 2194.9219,137.8594 Q2195.0781,137.7813 2195.2813,137.7813 Q2195.6094,137.7813 2195.8594,138.0469 Q2196.125,138.2969 2196.125,138.6406 Q2196.125,138.9844 2195.7813,139.3906 Q2195.2813,139.9688 2194.4844,140.2969 Q2193.4063,140.75 2192.1094,140.75 Q2190.5938,140.75 2189.3906,140.125 Q2188.4063,139.625 2187.7188,138.5625 Q2187.0313,137.4844 2187.0313,136.2031 L2187.0313,135.0469 Q2187.0313,133.7188 2187.6406,132.5781 Q2188.2656,131.4219 2189.3594,130.8125 Q2190.4531,130.1875 2191.6875,130.1875 Q2192.4219,130.1875 2193.0625,130.3594 Q2193.7188,130.5156 2194.2656,130.875 Z " fill="#000000"/><text fill="#000000" font-family="sans-serif" font-size="14" lengthAdjust="spacing" textLength="145.4961" x="2205.5" y="140.7969">GenerationFactorsDTO</text><line style="stroke:#181818;stroke-width:0.5;" x1="2177.5" x2="2352.9961" y1="151" y2="151"/><text fill="#000000" font-family="sans-serif" font-size="14" lengthAdjust="spacing" textLength="87.9238" x="2182.5" y="170.1074">-name : String</text><text fill="#000000" font-family="sans-serif" font-size="14" lengthAdjust="spacing" textLength="120.6064" x="2182.5" y="188.7285">-description : String</text><line style="stroke:#181818;stroke-width:0.5;" x1="2177.5" x2="2352.9961" y1="196.2422" y2="196.2422"/></g><!--class IndustryTypeDTO--><g id="elem_IndustryTypeDTO"><rect codeLine="92" fill="#F1F1F1" height="85.2422" id="IndustryTypeDTO" rx="2.5" ry="2.5" style="stroke:#181818;stroke-width:0.5;" width="142.4756" x="2597" y="119"/><ellipse cx="2612" cy="135" fill="#ADD1B2" rx="11" ry="11" style="stroke:#181818;stroke-width:1.0;"/><path d="M2614.7656,130.875 Q2614.9219,130.6563 2615.1094,130.5469 Q2615.2969,130.4375 2615.5156,130.4375 Q2615.8906,130.4375 2616.125,130.7031 Q2616.3594,130.9531 2616.3594,131.5625 L2616.3594,133.0156 Q2616.3594,133.625 2616.125,133.8906 Q2615.8906,134.1563 2615.5156,134.1563 Q2615.1719,134.1563 2614.9688,133.9531 Q2614.7656,133.7656 2614.6563,133.25 Q2614.6094,132.8906 2614.4219,132.7031 Q2614.0938,132.3281 2613.4844,132.1094 Q2612.875,131.8906 2612.25,131.8906 Q2611.4844,131.8906 2610.8438,132.2188 Q2610.2188,132.5469 2609.7188,133.2969 Q2609.2344,134.0469 2609.2344,135.0781 L2609.2344,136.1719 Q2609.2344,137.4063 2610.125,138.2344 Q2611.0156,139.0469 2612.6094,139.0469 Q2613.5469,139.0469 2614.2031,138.7969 Q2614.5938,138.6406 2615.0156,138.2031 Q2615.2813,137.9375 2615.4219,137.8594 Q2615.5781,137.7813 2615.7813,137.7813 Q2616.1094,137.7813 2616.3594,138.0469 Q2616.625,138.2969 2616.625,138.6406 Q2616.625,138.9844 2616.2813,139.3906 Q2615.7813,139.9688 2614.9844,140.2969 Q2613.9063,140.75 2612.6094,140.75 Q2611.0938,140.75 2609.8906,140.125 Q2608.9063,139.625 2608.2188,138.5625 Q2607.5313,137.4844 2607.5313,136.2031 L2607.5313,135.0469 Q2607.5313,133.7188 2608.1406,132.5781 Q2608.7656,131.4219 2609.8594,130.8125 Q2610.9531,130.1875 2612.1875,130.1875 Q2612.9219,130.1875 2613.5625,130.3594 Q2614.2188,130.5156 2614.7656,130.875 Z " fill="#000000"/><text fill="#000000" font-family="sans-serif" font-size="14" lengthAdjust="spacing" textLength="110.4756" x="2626" y="140.7969">IndustryTypeDTO</text><line style="stroke:#181818;stroke-width:0.5;" x1="2598" x2="2738.4756" y1="151" y2="151"/><text fill="#000000" font-family="sans-serif" font-size="14" lengthAdjust="spacing" textLength="87.9238" x="2603" y="170.1074">-name : String</text><text fill="#000000" font-family="sans-serif" font-size="14" lengthAdjust="spacing" textLength="120.6064" x="2603" y="188.7285">-description : String</text><line style="stroke:#181818;stroke-width:0.5;" x1="2598" x2="2738.4756" y1="196.2422" y2="196.2422"/></g><!--class IndustryMapper--><g id="elem_IndustryMapper"><rect codeLine="97" fill="#F1F1F1" height="85.2422" id="IndustryMapper" rx="2.5" ry="2.5" style="stroke:#181818;stroke-width:0.5;" width="129.2686" x="753.5" y="119"/><ellipse cx="768.5" cy="135" fill="#ADD1B2" rx="11" ry="11" style="stroke:#181818;stroke-width:1.0;"/><path d="M771.2656,130.875 Q771.4219,130.6563 771.6094,130.5469 Q771.7969,130.4375 772.0156,130.4375 Q772.3906,130.4375 772.625,130.7031 Q772.8594,130.9531 772.8594,131.5625 L772.8594,133.0156 Q772.8594,133.625 772.625,133.8906 Q772.3906,134.1563 772.0156,134.1563 Q771.6719,134.1563 771.4688,133.9531 Q771.2656,133.7656 771.1563,133.25 Q771.1094,132.8906 770.9219,132.7031 Q770.5938,132.3281 769.9844,132.1094 Q769.375,131.8906 768.75,131.8906 Q767.9844,131.8906 767.3438,132.2188 Q766.7188,132.5469 766.2188,133.2969 Q765.7344,134.0469 765.7344,135.0781 L765.7344,136.1719 Q765.7344,137.4063 766.625,138.2344 Q767.5156,139.0469 769.1094,139.0469 Q770.0469,139.0469 770.7031,138.7969 Q771.0938,138.6406 771.5156,138.2031 Q771.7813,137.9375 771.9219,137.8594 Q772.0781,137.7813 772.2813,137.7813 Q772.6094,137.7813 772.8594,138.0469 Q773.125,138.2969 773.125,138.6406 Q773.125,138.9844 772.7813,139.3906 Q772.2813,139.9688 771.4844,140.2969 Q770.4063,140.75 769.1094,140.75 Q767.5938,140.75 766.3906,140.125 Q765.4063,139.625 764.7188,138.5625 Q764.0313,137.4844 764.0313,136.2031 L764.0313,135.0469 Q764.0313,133.7188 764.6406,132.5781 Q765.2656,131.4219 766.3594,130.8125 Q767.4531,130.1875 768.6875,130.1875 Q769.4219,130.1875 770.0625,130.3594 Q770.7188,130.5156 771.2656,130.875 Z " fill="#000000"/><text fill="#000000" font-family="sans-serif" font-size="14" lengthAdjust="spacing" textLength="97.2686" x="782.5" y="140.7969">IndustryMapper</text><line style="stroke:#181818;stroke-width:0.5;" x1="754.5" x2="881.7686" y1="151" y2="151"/><line style="stroke:#181818;stroke-width:0.5;" x1="754.5" x2="881.7686" y1="159" y2="159"/><text fill="#000000" font-family="sans-serif" font-size="14" lengthAdjust="spacing" textLength="86.7686" x="759.5" y="178.1074">+toModel(dto)</text><text fill="#000000" font-family="sans-serif" font-size="14" lengthAdjust="spacing" textLength="107.748" x="759.5" y="196.7285">+toDTO(industry)</text></g><!--class ResourceTypeMapper--><g id="elem_ResourceTypeMapper"><rect codeLine="102" fill="#F1F1F1" height="66.6211" id="ResourceTypeMapper" rx="2.5" ry="2.5" style="stroke:#181818;stroke-width:0.5;" width="178.1064" x="1255" y="128"/><ellipse cx="1273.4185" cy="144" fill="#ADD1B2" rx="11" ry="11" style="stroke:#181818;stroke-width:1.0;"/><path d="M1276.1841,139.875 Q1276.3404,139.6563 1276.5279,139.5469 Q1276.7154,139.4375 1276.9341,139.4375 Q1277.3091,139.4375 1277.5435,139.7031 Q1277.7779,139.9531 1277.7779,140.5625 L1277.7779,142.0156 Q1277.7779,142.625 1277.5435,142.8906 Q1277.3091,143.1563 1276.9341,143.1563 Q1276.5904,143.1563 1276.3873,142.9531 Q1276.1841,142.7656 1276.0748,142.25 Q1276.0279,141.8906 1275.8404,141.7031 Q1275.5123,141.3281 1274.9029,141.1094 Q1274.2935,140.8906 1273.6685,140.8906 Q1272.9029,140.8906 1272.2623,141.2188 Q1271.6373,141.5469 1271.1373,142.2969 Q1270.6529,143.0469 1270.6529,144.0781 L1270.6529,145.1719 Q1270.6529,146.4063 1271.5435,147.2344 Q1272.4341,148.0469 1274.0279,148.0469 Q1274.9654,148.0469 1275.6216,147.7969 Q1276.0123,147.6406 1276.4341,147.2031 Q1276.6998,146.9375 1276.8404,146.8594 Q1276.9966,146.7813 1277.1998,146.7813 Q1277.5279,146.7813 1277.7779,147.0469 Q1278.0435,147.2969 1278.0435,147.6406 Q1278.0435,147.9844 1277.6998,148.3906 Q1277.1998,148.9688 1276.4029,149.2969 Q1275.3248,149.75 1274.0279,149.75 Q1272.5123,149.75 1271.3091,149.125 Q1270.3248,148.625 1269.6373,147.5625 Q1268.9498,146.4844 1268.9498,145.2031 L1268.9498,144.0469 Q1268.9498,142.7188 1269.5591,141.5781 Q1270.1841,140.4219 1271.2779,139.8125 Q1272.3716,139.1875 1273.606,139.1875 Q1274.3404,139.1875 1274.981,139.3594 Q1275.6373,139.5156 1276.1841,139.875 Z " fill="#000000"/><text fill="#000000" font-family="sans-serif" font-size="14" lengthAdjust="spacing" textLength="138.5098" x="1288.1782" y="149.7969">ResourceTypeMapper</text><line style="stroke:#181818;stroke-width:0.5;" x1="1256" x2="1432.1064" y1="160" y2="160"/><line style="stroke:#181818;stroke-width:0.5;" x1="1256" x2="1432.1064" y1="168" y2="168"/><text fill="#000000" font-family="sans-serif" font-size="14" lengthAdjust="spacing" textLength="166.1064" x="1261" y="187.1074">+toDTO(resourceTypeList)</text></g><!--class IndustryTypeMapper--><g id="elem_IndustryTypeMapper"><rect codeLine="106" fill="#F1F1F1" height="66.6211" id="IndustryTypeMapper" rx="2.5" ry="2.5" style="stroke:#181818;stroke-width:0.5;" width="172.6582" x="2388.5" y="128"/><ellipse cx="2409.0195" cy="144" fill="#ADD1B2" rx="11" ry="11" style="stroke:#181818;stroke-width:1.0;"/><path d="M2411.7852,139.875 Q2411.9414,139.6563 2412.1289,139.5469 Q2412.3164,139.4375 2412.5352,139.4375 Q2412.9102,139.4375 2413.1445,139.7031 Q2413.3789,139.9531 2413.3789,140.5625 L2413.3789,142.0156 Q2413.3789,142.625 2413.1445,142.8906 Q2412.9102,143.1563 2412.5352,143.1563 Q2412.1914,143.1563 2411.9883,142.9531 Q2411.7852,142.7656 2411.6758,142.25 Q2411.6289,141.8906 2411.4414,141.7031 Q2411.1133,141.3281 2410.5039,141.1094 Q2409.8945,140.8906 2409.2695,140.8906 Q2408.5039,140.8906 2407.8633,141.2188 Q2407.2383,141.5469 2406.7383,142.2969 Q2406.2539,143.0469 2406.2539,144.0781 L2406.2539,145.1719 Q2406.2539,146.4063 2407.1445,147.2344 Q2408.0352,148.0469 2409.6289,148.0469 Q2410.5664,148.0469 2411.2227,147.7969 Q2411.6133,147.6406 2412.0352,147.2031 Q2412.3008,146.9375 2412.4414,146.8594 Q2412.5977,146.7813 2412.8008,146.7813 Q2413.1289,146.7813 2413.3789,147.0469 Q2413.6445,147.2969 2413.6445,147.6406 Q2413.6445,147.9844 2413.3008,148.3906 Q2412.8008,148.9688 2412.0039,149.2969 Q2410.9258,149.75 2409.6289,149.75 Q2408.1133,149.75 2406.9102,149.125 Q2405.9258,148.625 2405.2383,147.5625 Q2404.5508,146.4844 2404.5508,145.2031 L2404.5508,144.0469 Q2404.5508,142.7188 2405.1602,141.5781 Q2405.7852,140.4219 2406.8789,139.8125 Q2407.9727,139.1875 2409.207,139.1875 Q2409.9414,139.1875 2410.582,139.3594 Q2411.2383,139.5156 2411.7852,139.875 Z " fill="#000000"/><text fill="#000000" font-family="sans-serif" font-size="14" lengthAdjust="spacing" textLength="128.3926" x="2424.2461" y="149.7969">IndustryTypeMapper</text><line style="stroke:#181818;stroke-width:0.5;" x1="2389.5" x2="2560.1582" y1="160" y2="160"/><line style="stroke:#181818;stroke-width:0.5;" x1="2389.5" x2="2560.1582" y1="168" y2="168"/><text fill="#000000" font-family="sans-serif" font-size="14" lengthAdjust="spacing" textLength="160.6582" x="2394.5" y="187.1074">+toDTO(industryTypeList)</text></g><!--class GenerationFactorsMapper--><g id="elem_GenerationFactorsMapper"><rect codeLine="110" fill="#F1F1F1" height="66.6211" id="GenerationFactorsMapper" rx="2.5" ry="2.5" style="stroke:#181818;stroke-width:0.5;" width="205.3545" x="1936.5" y="128"/><ellipse cx="1955.9736" cy="144" fill="#ADD1B2" rx="11" ry="11" style="stroke:#181818;stroke-width:1.0;"/><path d="M1958.7393,139.875 Q1958.8955,139.6563 1959.083,139.5469 Q1959.2705,139.4375 1959.4893,139.4375 Q1959.8643,139.4375 1960.0986,139.7031 Q1960.333,139.9531 1960.333,140.5625 L1960.333,142.0156 Q1960.333,142.625 1960.0986,142.8906 Q1959.8643,143.1563 1959.4893,143.1563 Q1959.1455,143.1563 1958.9424,142.9531 Q1958.7393,142.7656 1958.6299,142.25 Q1958.583,141.8906 1958.3955,141.7031 Q1958.0674,141.3281 1957.458,141.1094 Q1956.8486,140.8906 1956.2236,140.8906 Q1955.458,140.8906 1954.8174,141.2188 Q1954.1924,141.5469 1953.6924,142.2969 Q1953.208,143.0469 1953.208,144.0781 L1953.208,145.1719 Q1953.208,146.4063 1954.0986,147.2344 Q1954.9893,148.0469 1956.583,148.0469 Q1957.5205,148.0469 1958.1768,147.7969 Q1958.5674,147.6406 1958.9893,147.2031 Q1959.2549,146.9375 1959.3955,146.8594 Q1959.5518,146.7813 1959.7549,146.7813 Q1960.083,146.7813 1960.333,147.0469 Q1960.5986,147.2969 1960.5986,147.6406 Q1960.5986,147.9844 1960.2549,148.3906 Q1959.7549,148.9688 1958.958,149.2969 Q1957.8799,149.75 1956.583,149.75 Q1955.0674,149.75 1953.8643,149.125 Q1952.8799,148.625 1952.1924,147.5625 Q1951.5049,146.4844 1951.5049,145.2031 L1951.5049,144.0469 Q1951.5049,142.7188 1952.1143,141.5781 Q1952.7393,140.4219 1953.833,139.8125 Q1954.9268,139.1875 1956.1611,139.1875 Q1956.8955,139.1875 1957.5361,139.3594 Q1958.1924,139.5156 1958.7393,139.875 Z " fill="#000000"/><text fill="#000000" font-family="sans-serif" font-size="14" lengthAdjust="spacing" textLength="163.4131" x="1970.9678" y="149.7969">GenerationFactorsMapper</text><line style="stroke:#181818;stroke-width:0.5;" x1="1937.5" x2="2140.8545" y1="160" y2="160"/><line style="stroke:#181818;stroke-width:0.5;" x1="1937.5" x2="2140.8545" y1="168" y2="168"/><text fill="#000000" font-family="sans-serif" font-size="14" lengthAdjust="spacing" textLength="193.3545" x="1942.5" y="187.1074">+toDTO(generationFactorsList)</text></g><!--class AddIndustryUI--><g id="elem_AddIndustryUI"><rect codeLine="114" fill="#F1F1F1" height="48" id="AddIndustryUI" rx="2.5" ry="2.5" style="stroke:#181818;stroke-width:0.5;" width="120.71" x="85.5" y="137.5"/><ellipse cx="100.5" cy="153.5" fill="#ADD1B2" rx="11" ry="11" style="stroke:#181818;stroke-width:1.0;"/><path d="M103.2656,149.375 Q103.4219,149.1563 103.6094,149.0469 Q103.7969,148.9375 104.0156,148.9375 Q104.3906,148.9375 104.625,149.2031 Q104.8594,149.4531 104.8594,150.0625 L104.8594,151.5156 Q104.8594,152.125 104.625,152.3906 Q104.3906,152.6563 104.0156,152.6563 Q103.6719,152.6563 103.4688,152.4531 Q103.2656,152.2656 103.1563,151.75 Q103.1094,151.3906 102.9219,151.2031 Q102.5938,150.8281 101.9844,150.6094 Q101.375,150.3906 100.75,150.3906 Q99.9844,150.3906 99.3438,150.7188 Q98.7188,151.0469 98.2188,151.7969 Q97.7344,152.5469 97.7344,153.5781 L97.7344,154.6719 Q97.7344,155.9063 98.625,156.7344 Q99.5156,157.5469 101.1094,157.5469 Q102.0469,157.5469 102.7031,157.2969 Q103.0938,157.1406 103.5156,156.7031 Q103.7813,156.4375 103.9219,156.3594 Q104.0781,156.2813 104.2813,156.2813 Q104.6094,156.2813 104.8594,156.5469 Q105.125,156.7969 105.125,157.1406 Q105.125,157.4844 104.7813,157.8906 Q104.2813,158.4688 103.4844,158.7969 Q102.4063,159.25 101.1094,159.25 Q99.5938,159.25 98.3906,158.625 Q97.4063,158.125 96.7188,157.0625 Q96.0313,155.9844 96.0313,154.7031 L96.0313,153.5469 Q96.0313,152.2188 96.6406,151.0781 Q97.2656,149.9219 98.3594,149.3125 Q99.4531,148.6875 100.6875,148.6875 Q101.4219,148.6875 102.0625,148.8594 Q102.7188,149.0156 103.2656,149.375 Z " fill="#000000"/><text fill="#000000" font-family="sans-serif" font-size="14" lengthAdjust="spacing" textLength="88.71" x="114.5" y="159.2969">AddIndustryUI</text><line style="stroke:#181818;stroke-width:0.5;" x1="86.5" x2="205.21" y1="169.5" y2="169.5"/><line style="stroke:#181818;stroke-width:0.5;" x1="86.5" x2="205.21" y1="177.5" y2="177.5"/></g><!--class CreateIndustryController--><g id="elem_CreateIndustryController"><rect codeLine="117" fill="#F1F1F1" height="271.4531" id="CreateIndustryController" rx="2.5" ry="2.5" style="stroke:#181818;stroke-width:0.5;" width="241.9609" x="242" y="26"/><ellipse cx="282.853" cy="42" fill="#ADD1B2" rx="11" ry="11" style="stroke:#181818;stroke-width:1.0;"/><path d="M285.6187,37.875 Q285.7749,37.6563 285.9624,37.5469 Q286.1499,37.4375 286.3687,37.4375 Q286.7437,37.4375 286.978,37.7031 Q287.2124,37.9531 287.2124,38.5625 L287.2124,40.0156 Q287.2124,40.625 286.978,40.8906 Q286.7437,41.1563 286.3687,41.1563 Q286.0249,41.1563 285.8218,40.9531 Q285.6187,40.7656 285.5093,40.25 Q285.4624,39.8906 285.2749,39.7031 Q284.9468,39.3281 284.3374,39.1094 Q283.728,38.8906 283.103,38.8906 Q282.3374,38.8906 281.6968,39.2188 Q281.0718,39.5469 280.5718,40.2969 Q280.0874,41.0469 280.0874,42.0781 L280.0874,43.1719 Q280.0874,44.4063 280.978,45.2344 Q281.8687,46.0469 283.4624,46.0469 Q284.3999,46.0469 285.0562,45.7969 Q285.4468,45.6406 285.8687,45.2031 Q286.1343,44.9375 286.2749,44.8594 Q286.4312,44.7813 286.6343,44.7813 Q286.9624,44.7813 287.2124,45.0469 Q287.478,45.2969 287.478,45.6406 Q287.478,45.9844 287.1343,46.3906 Q286.6343,46.9688 285.8374,47.2969 Q284.7593,47.75 283.4624,47.75 Q281.9468,47.75 280.7437,47.125 Q279.7593,46.625 279.0718,45.5625 Q278.3843,44.4844 278.3843,43.2031 L278.3843,42.0469 Q278.3843,40.7188 278.9937,39.5781 Q279.6187,38.4219 280.7124,37.8125 Q281.8062,37.1875 283.0405,37.1875 Q283.7749,37.1875 284.4155,37.3594 Q285.0718,37.5156 285.6187,37.875 Z " fill="#000000"/><text fill="#000000" font-family="sans-serif" font-size="14" lengthAdjust="spacing" textLength="152.5098" x="302.5981" y="47.7969">CreateIndustryController</text><line style="stroke:#181818;stroke-width:0.5;" x1="243" x2="482.9609" y1="58" y2="58"/><line style="stroke:#181818;stroke-width:0.5;" x1="243" x2="482.9609" y1="66" y2="66"/><text fill="#000000" font-family="sans-serif" font-size="14" lengthAdjust="spacing" textLength="170.0098" x="248" y="85.1074">+CreateIndustryController()</text><text fill="#000000" font-family="sans-serif" font-size="14" lengthAdjust="spacing" textLength="76.6309" x="248" y="103.7285">+showGrid()</text><text fill="#000000" font-family="sans-serif" font-size="14" lengthAdjust="spacing" textLength="184.0576" x="248" y="122.3496">+validateLocation(input, map)</text><text fill="#000000" font-family="sans-serif" font-size="14" lengthAdjust="spacing" textLength="131.1201" x="248" y="140.9707">+createLocation(x, y)</text><text fill="#000000" font-family="sans-serif" font-size="14" lengthAdjust="spacing" textLength="171.5684" x="248" y="159.5918">+getListOfResourceTypes()</text><text fill="#000000" font-family="sans-serif" font-size="14" lengthAdjust="spacing" textLength="212.0576" x="248" y="178.2129">+getResourceTypeByIndex(index)</text><text fill="#000000" font-family="sans-serif" font-size="14" lengthAdjust="spacing" textLength="124.8857" x="248" y="196.834">+getIndustryTypes()</text><text fill="#000000" font-family="sans-serif" font-size="14" lengthAdjust="spacing" textLength="201.9404" x="248" y="215.4551">+getIndustryTypeByIndex(index)</text><text fill="#000000" font-family="sans-serif" font-size="14" lengthAdjust="spacing" textLength="189.4717" x="248" y="234.0762">+getListOfGenerationFactors()</text><text fill="#000000" font-family="sans-serif" font-size="14" lengthAdjust="spacing" textLength="229.9609" x="248" y="252.6973">+getGenerationFactorByIndex(index)</text><text fill="#000000" font-family="sans-serif" font-size="14" lengthAdjust="spacing" textLength="125.6719" x="248" y="271.3184">+createIndustry(dto)</text><text fill="#000000" font-family="sans-serif" font-size="14" lengthAdjust="spacing" textLength="143.1514" x="248" y="289.9395">-getMapFromSession()</text></g><g id="elem_GMN72"><path d="M519.5,130.5 L519.5,157.5 L484.03,161.5 L519.5,165.5 L519.5,192.373 A0,0 0 0 0 519.5,192.373 L718.2534,192.373 A0,0 0 0 0 718.2534,192.373 L718.2534,140.5 L708.2534,130.5 L519.5,130.5 A0,0 0 0 0 519.5,130.5 " fill="#FEFFDD" style="stroke:#181818;stroke-width:0.5;"/><path d="M708.2534,130.5 L708.2534,140.5 L718.2534,140.5 L708.2534,130.5 " fill="#FEFFDD" style="stroke:#181818;stroke-width:0.5;"/><text fill="#000000" font-family="sans-serif" font-size="13" lengthAdjust="spacing" textLength="177.7534" x="525.5" y="149.5283">mapName is obtained from the</text><text fill="#000000" font-family="sans-serif" font-size="13" lengthAdjust="spacing" textLength="137.998" x="525.5" y="166.8193">current UserSession via</text><text fill="#000000" font-family="sans-serif" font-size="13" lengthAdjust="spacing" textLength="113.458" x="525.5" y="184.1104">ApplicationSession.</text></g><g id="elem_GMN75"><path d="M1653.5,635 L1653.5,679.582 A0,0 0 0 0 1653.5,679.582 L1858.0488,679.582 A0,0 0 0 0 1858.0488,679.582 L1858.0488,645 L1848.0488,635 L1758.48,635 L1742.29,461.6 L1750.48,635 L1653.5,635 A0,0 0 0 0 1653.5,635 " fill="#FEFFDD" style="stroke:#181818;stroke-width:0.5;"/><path d="M1848.0488,635 L1848.0488,645 L1858.0488,645 L1848.0488,635 " fill="#FEFFDD" style="stroke:#181818;stroke-width:0.5;"/><text fill="#000000" font-family="sans-serif" font-size="13" lengthAdjust="spacing" textLength="183.5488" x="1659.5" y="654.0283">- Responsible for loading a Map</text><text fill="#000000" font-family="sans-serif" font-size="13" lengthAdjust="spacing" textLength="112.7344" x="1666.7236" y="671.3193">by its unique name.</text></g><g id="elem_GMN78"><path d="M1354.5,866 L1354.5,945.1641 A0,0 0 0 0 1354.5,945.1641 L1567.0088,945.1641 A0,0 0 0 0 1567.0088,945.1641 L1567.0088,876 L1557.0088,866 L1462.63,866 L1451.95,756.08 L1454.63,866 L1354.5,866 A0,0 0 0 0 1354.5,866 " fill="#FEFFDD" style="stroke:#181818;stroke-width:0.5;"/><path d="M1557.0088,866 L1557.0088,876 L1567.0088,876 L1557.0088,866 " fill="#FEFFDD" style="stroke:#181818;stroke-width:0.5;"/><text fill="#000000" font-family="sans-serif" font-size="13" lengthAdjust="spacing" textLength="147.4053" x="1360.5" y="885.0283">- Knows the collections of</text><text fill="#000000" font-family="sans-serif" font-size="13" lengthAdjust="spacing" textLength="173.418" x="1367.7236" y="902.3193">resources, industry types, and</text><text fill="#000000" font-family="sans-serif" font-size="13" lengthAdjust="spacing" textLength="184.2852" x="1367.7236" y="919.6104">generation factors and validates</text><text fill="#000000" font-family="sans-serif" font-size="13" lengthAdjust="spacing" textLength="130.7935" x="1367.7236" y="936.9014">coordinates on its grid.</text></g><g id="elem_GMN81"><path d="M706,626.5 L706,688.373 A0,0 0 0 0 706,688.373 L883.8188,688.373 A0,0 0 0 0 883.8188,688.373 L883.8188,636.5 L873.8188,626.5 L799.27,626.5 L796.63,470.73 L791.27,626.5 L706,626.5 A0,0 0 0 0 706,626.5 " fill="#FEFFDD" style="stroke:#181818;stroke-width:0.5;"/><path d="M873.8188,626.5 L873.8188,636.5 L883.8188,636.5 L873.8188,626.5 " fill="#FEFFDD" style="stroke:#181818;stroke-width:0.5;"/><text fill="#000000" font-family="sans-serif" font-size="13" lengthAdjust="spacing" textLength="131.4854" x="712" y="645.5283">- Persists new Industry</text><text fill="#000000" font-family="sans-serif" font-size="13" lengthAdjust="spacing" textLength="149.5952" x="719.2236" y="662.8193">instances created through</text><text fill="#000000" font-family="sans-serif" font-size="13" lengthAdjust="spacing" textLength="78.7617" x="719.2236" y="680.1104">the controller.</text></g><!--link AddIndustryUI to CreateIndustryController--><g id="link_AddIndustryUI_CreateIndustryController"><path codeLine="133" d="M206.71,161.5 C213.67,161.5 218.33,161.5 218.33,161.5 C218.33,161.5 222.72,161.5 235.62,161.5 " fill="none" id="AddIndustryUI-to-CreateIndustryController" style="stroke:#181818;stroke-width:1.0;stroke-dasharray:7.0,7.0;"/><polygon fill="#181818" points="241.62,161.5,232.62,157.5,236.62,161.5,232.62,165.5,241.62,161.5" style="stroke:#181818;stroke-width:1.0;"/></g><!--link AddIndustryUI to IndustryDTO--><g id="link_AddIndustryUI_IndustryDTO"><path codeLine="134" d="M159.94,137.28 C182.38,98.3 224,26 224,26 C224,26 241.5,11 241.5,11 C241.5,11 882.5,11 882.5,11 C882.5,11 936.841,54.8517 988.471,96.5217 " fill="none" id="AddIndustryUI-to-IndustryDTO" style="stroke:#181818;stroke-width:1.0;stroke-dasharray:7.0,7.0;"/><polygon fill="#181818" points="993.14,100.29,988.6487,91.5248,989.2491,97.1497,983.6243,97.7502,993.14,100.29" style="stroke:#181818;stroke-width:1.0;"/></g><!--link CreateIndustryController to ApplicationSession--><g id="link_CreateIndustryController_ApplicationSession"><path codeLine="136" d="M352.32,297.07 C350.09,325.15 348.3463,347.1089 346.5363,369.8389 " fill="none" id="CreateIndustryController-to-ApplicationSession" style="stroke:#181818;stroke-width:1.0;stroke-dasharray:7.0,7.0;"/><polygon fill="#181818" points="346.06,375.82,350.7618,367.1659,346.4569,370.8358,342.787,366.5309,346.06,375.82" style="stroke:#181818;stroke-width:1.0;"/></g><!--link CreateIndustryController to UserSession--><g id="link_CreateIndustryController_UserSession"><path codeLine="137" d="M456.94,297.11 C486.69,339.74 512,376 512,376 C512,376 512,480 512,480 C512,480 470.0071,557.2093 441.6171,609.3993 " fill="none" id="CreateIndustryController-to-UserSession" style="stroke:#181818;stroke-width:1.0;stroke-dasharray:7.0,7.0;"/><polygon fill="#181818" points="438.75,614.67,446.5644,608.6754,441.1392,610.2778,439.5369,604.8526,438.75,614.67" style="stroke:#181818;stroke-width:1.0;"/></g><!--link CreateIndustryController to Map--><g id="link_CreateIndustryController_Map"><path codeLine="138" d="M484.11,279.69 C494.99,290.21 502,297 502,297 C502,297 714,327 714,327 C714,327 889,376 889,376 C889,376 1002,529 1002,529 C1002,529 1247,559 1247,559 C1247,559 1290.592,580.36 1339.942,604.54 " fill="none" id="CreateIndustryController-to-Map" style="stroke:#181818;stroke-width:1.0;stroke-dasharray:7.0,7.0;"/><polygon fill="#181818" points="1345.33,607.18,1339.008,599.6281,1340.84,604.98,1335.488,606.8121,1345.33,607.18" style="stroke:#181818;stroke-width:1.0;"/></g><!--link CreateIndustryController to Location--><g id="link_CreateIndustryController_Location"><path codeLine="139" d="M241.89,279.69 C231.01,290.21 224,297 224,297 C224,297 154,327 154,327 C154,327 30,427 30,427 C30,427 30,427 30,906.5 C30,906.5 42.1171,989.8324 50.7071,1048.9424 " fill="none" id="CreateIndustryController-to-Location" style="stroke:#181818;stroke-width:1.0;stroke-dasharray:7.0,7.0;"/><polygon fill="#181818" points="51.57,1054.88,54.2341,1045.3983,50.8509,1049.932,46.3173,1046.5488,51.57,1054.88" style="stroke:#181818;stroke-width:1.0;"/></g><!--link CreateIndustryController to ResourceType--><g id="link_CreateIndustryController_ResourceType"><path codeLine="140" d="M263.59,297.07 C220.53,362.42 180,427 180,427 C180,427 180,427 180,906.5 C180,906.5 715.6377,1042.8813 908.3577,1089.4313 " fill="none" id="CreateIndustryController-to-ResourceType" style="stroke:#181818;stroke-width:1.0;stroke-dasharray:7.0,7.0;"/><polygon fill="#181818" points="914.19,1090.84,906.3807,1084.8387,909.3298,1089.666,904.5024,1092.6151,914.19,1090.84" style="stroke:#181818;stroke-width:1.0;"/></g><!--link CreateIndustryController to ResourceType--><g id="link_CreateIndustryController_ResourceType"><path codeLine="155" d="M294.37,297.07 C255.53,362.42 215,427 215,427 C215,427 215,427 215,906.5 C215,906.5 721.8037,1035.3899 908.5137,1085.3199 " fill="none" id="CreateIndustryController-to-ResourceType-1" style="stroke:#181818;stroke-width:1.0;stroke-dasharray:7.0,7.0;"/><polygon fill="#181818" points="914.31,1086.87,906.6489,1080.6807,909.4797,1085.5783,904.5822,1088.4091,914.31,1086.87" style="stroke:#181818;stroke-width:1.0;"/></g><!--link CreateIndustryController to ResourceTypeMapper--><g id="link_CreateIndustryController_ResourceTypeMapper"><path codeLine="141" d="M484.11,43.44 C494.99,32.84 502,26 502,26 C502,26 513.67,16 513.67,16 C513.67,16 1226.33,16 1226.33,16 C1226.33,16 1238,26 1238,26 C1238,26 1282.4332,82.7942 1313.8332,122.9342 " fill="none" id="CreateIndustryController-to-ResourceTypeMapper" style="stroke:#181818;stroke-width:1.0;stroke-dasharray:7.0,7.0;"/><polygon fill="#181818" points="1317.53,127.66,1315.1353,118.1067,1314.4493,123.7218,1308.8342,123.0358,1317.53,127.66" style="stroke:#181818;stroke-width:1.0;"/></g><!--link CreateIndustryController to ResourceTypeMapper--><g id="link_CreateIndustryController_ResourceTypeMapper"><path codeLine="154" d="M484.11,43.44 C494.99,32.84 502,26 502,26 C502,26 525.33,6 525.33,6 C525.33,6 1214.67,6 1214.67,6 C1214.67,6 1238,26 1238,26 C1238,26 1282.4332,82.7942 1313.8332,122.9342 " fill="none" id="CreateIndustryController-to-ResourceTypeMapper-1" style="stroke:#181818;stroke-width:1.0;stroke-dasharray:7.0,7.0;"/><polygon fill="#181818" points="1317.53,127.66,1315.1353,118.1067,1314.4493,123.7218,1308.8342,123.0358,1317.53,127.66" style="stroke:#181818;stroke-width:1.0;"/></g><!--link CreateIndustryController to IndustryType--><g id="link_CreateIndustryController_IndustryType"><path codeLine="142" d="M484.11,296.14 C484.69,296.7 485,297 485,297 C485,297 1217,327 1217,327 C1217,327 1823,376 1823,376 C1823,376 2067.9881,904.325 2150.4781,1059.105 " fill="none" id="CreateIndustryController-to-IndustryType" style="stroke:#181818;stroke-width:1.0;stroke-dasharray:7.0,7.0;"/><polygon fill="#181818" points="2153.3,1064.4,2152.597,1054.5763,2150.9484,1059.9875,2145.5371,1058.3389,2153.3,1064.4" style="stroke:#181818;stroke-width:1.0;"/></g><!--link CreateIndustryController to IndustryType--><g id="link_CreateIndustryController_IndustryType"><path codeLine="156" d="M484.29,263.06 C505.03,282.52 520,297 520,297 C520,297 1252,327 1252,327 C1252,327 1858,376 1858,376 C1858,376 2103.6219,904.0332 2164.2419,1058.8132 " fill="none" id="CreateIndustryController-to-IndustryType-1" style="stroke:#181818;stroke-width:1.0;stroke-dasharray:7.0,7.0;"/><polygon fill="#181818" points="2166.43,1064.4,2166.8724,1054.5611,2164.6066,1059.7443,2159.4233,1057.4785,2166.43,1064.4" style="stroke:#181818;stroke-width:1.0;"/></g><!--link CreateIndustryController to IndustryTypeMapper--><g id="link_CreateIndustryController_IndustryTypeMapper"><path codeLine="143" d="M484.11,43.44 C494.99,32.84 502,26 502,26 C502,26 513.67,16 513.67,16 C513.67,16 2359.33,16 2359.33,16 C2359.33,16 2371,26 2371,26 C2371,26 2414.5675,82.7599 2445.3675,122.8999 " fill="none" id="CreateIndustryController-to-IndustryTypeMapper" style="stroke:#181818;stroke-width:1.0;stroke-dasharray:7.0,7.0;"/><polygon fill="#181818" points="2449.02,127.66,2446.7146,118.0848,2445.9762,123.6932,2440.3678,122.9548,2449.02,127.66" style="stroke:#181818;stroke-width:1.0;"/></g><!--link CreateIndustryController to IndustryTypeMapper--><g id="link_CreateIndustryController_IndustryTypeMapper"><path codeLine="153" d="M484.11,43.44 C494.99,32.84 502,26 502,26 C502,26 525.33,6 525.33,6 C525.33,6 2347.67,6 2347.67,6 C2347.67,6 2371,26 2371,26 C2371,26 2414.5675,82.7599 2445.3675,122.8999 " fill="none" id="CreateIndustryController-to-IndustryTypeMapper-1" style="stroke:#181818;stroke-width:1.0;stroke-dasharray:7.0,7.0;"/><polygon fill="#181818" points="2449.02,127.66,2446.7146,118.0848,2445.9762,123.6932,2440.3678,122.9548,2449.02,127.66" style="stroke:#181818;stroke-width:1.0;"/></g><!--link CreateIndustryController to GenerationFactors--><g id="link_CreateIndustryController_GenerationFactors"><path codeLine="144" d="M484.11,279.69 C494.99,290.21 502,297 502,297 C502,297 773,327 773,327 C773,327 953,376 953,376 C953,376 1564,559 1564,559 C1564,559 1636,756 1636,756 C1636,756 1927,835 1927,835 C1927,835 1938.9546,982.2497 1945.1246,1058.2697 " fill="none" id="CreateIndustryController-to-GenerationFactors" style="stroke:#181818;stroke-width:1.0;stroke-dasharray:7.0,7.0;"/><polygon fill="#181818" points="1945.61,1064.25,1948.8688,1054.9559,1945.2055,1059.2664,1940.895,1055.6031,1945.61,1064.25" style="stroke:#181818;stroke-width:1.0;"/></g><!--link CreateIndustryController to GenerationFactorsMapper--><g id="link_CreateIndustryController_GenerationFactorsMapper"><path codeLine="145" d="M484.11,43.44 C494.99,32.84 502,26 502,26 C502,26 513.67,16 513.67,16 C513.67,16 1907.33,16 1907.33,16 C1907.33,16 1919,26 1919,26 C1919,26 1969.5126,83.0278 2005.0526,123.1678 " fill="none" id="CreateIndustryController-to-GenerationFactorsMapper" style="stroke:#181818;stroke-width:1.0;stroke-dasharray:7.0,7.0;"/><polygon fill="#181818" points="2009.03,127.66,2006.0587,118.27,2005.7155,123.9165,2000.069,123.5733,2009.03,127.66" style="stroke:#181818;stroke-width:1.0;"/></g><!--link CreateIndustryController to GenerationFactorsMapper--><g id="link_CreateIndustryController_GenerationFactorsMapper"><path codeLine="152" d="M484.11,43.44 C494.99,32.84 502,26 502,26 C502,26 525.33,6 525.33,6 C525.33,6 1895.67,6 1895.67,6 C1895.67,6 1919,26 1919,26 C1919,26 1969.5126,83.0278 2005.0526,123.1678 " fill="none" id="CreateIndustryController-to-GenerationFactorsMapper-1" style="stroke:#181818;stroke-width:1.0;stroke-dasharray:7.0,7.0;"/><polygon fill="#181818" points="2009.03,127.66,2006.0587,118.27,2005.7155,123.9165,2000.069,123.5733,2009.03,127.66" style="stroke:#181818;stroke-width:1.0;"/></g><!--link CreateIndustryController to Industry--><g id="link_CreateIndustryController_Industry"><path codeLine="146" d="M467.54,297.21 C483.09,314.88 494,327 494,327 C494,327 521,376 521,376 C521,376 672,756 672,756 C672,756 700.452,791.5532 733.962,830.0732 " fill="none" id="CreateIndustryController-to-Industry" style="stroke:#181818;stroke-width:1.0;stroke-dasharray:7.0,7.0;"/><polygon fill="#181818" points="737.9,834.6,735.0108,825.1844,734.6183,830.8277,728.9751,830.4352,737.9,834.6" style="stroke:#181818;stroke-width:1.0;"/></g><!--link CreateIndustryController to Industry--><g id="link_CreateIndustryController_Industry"><path codeLine="151" d="M484.15,278.09 C509.68,305.52 529,327 529,327 C529,327 556,376 556,376 C556,376 707,756 707,756 C707,756 735.8133,791.2626 764.4133,829.7826 " fill="none" id="CreateIndustryController-to-Industry-1" style="stroke:#181818;stroke-width:1.0;stroke-dasharray:7.0,7.0;"/><polygon fill="#181818" points="767.99,834.6,765.8364,824.9895,765.0094,830.5855,759.4133,829.7585,767.99,834.6" style="stroke:#181818;stroke-width:1.0;"/></g><!--link CreateIndustryController to IndustryRepository--><g id="link_CreateIndustryController_IndustryRepository"><path codeLine="147" d="M484.11,279.69 C494.99,290.21 502,297 502,297 C502,297 679,327 679,327 C679,327 710.983,354.1004 743.403,381.5804 " fill="none" id="CreateIndustryController-to-IndustryRepository" style="stroke:#181818;stroke-width:1.0;stroke-dasharray:7.0,7.0;"/><polygon fill="#181818" points="747.98,385.46,743.7009,376.5893,744.1658,382.227,738.5281,382.692,747.98,385.46" style="stroke:#181818;stroke-width:1.0;"/></g><!--link CreateIndustryController to Repositories--><g id="link_CreateIndustryController_Repositories"><path codeLine="148" d="M484.11,43.44 C494.99,32.84 502,26 502,26 C502,26 519.5,11 519.5,11 C519.5,11 1621.5,11 1621.5,11 C1621.5,11 1639,26 1639,26 C1639,26 1664.1244,59.7093 1690.9344,95.6793 " fill="none" id="CreateIndustryController-to-Repositories" style="stroke:#181818;stroke-width:1.0;stroke-dasharray:7.0,7.0;"/><polygon fill="#181818" points="1694.52,100.49,1692.3487,90.8835,1691.532,96.4811,1685.9344,95.6643,1694.52,100.49" style="stroke:#181818;stroke-width:1.0;"/></g><!--link CreateIndustryController to IndustryDTO--><g id="link_CreateIndustryController_IndustryDTO"><path codeLine="149" d="M484.11,43.44 C494.99,32.84 502,26 502,26 C502,26 519.5,11 519.5,11 C519.5,11 882.5,11 882.5,11 C882.5,11 936.841,54.8517 988.471,96.5217 " fill="none" id="CreateIndustryController-to-IndustryDTO" style="stroke:#181818;stroke-width:1.0;stroke-dasharray:7.0,7.0;"/><polygon fill="#181818" points="993.14,100.29,988.6487,91.5248,989.2491,97.1497,983.6243,97.7502,993.14,100.29" style="stroke:#181818;stroke-width:1.0;"/></g><!--link CreateIndustryController to IndustryMapper--><g id="link_CreateIndustryController_IndustryMapper"><path codeLine="150" d="M484.11,43.44 C494.99,32.84 502,26 502,26 C502,26 519.5,11 519.5,11 C519.5,11 718.5,11 718.5,11 C718.5,11 736,26 736,26 C736,26 765.1235,74.1268 789.1735,113.8668 " fill="none" id="CreateIndustryController-to-IndustryMapper" style="stroke:#181818;stroke-width:1.0;stroke-dasharray:7.0,7.0;"/><polygon fill="#181818" points="792.28,119,791.0423,109.2292,789.6912,114.7223,784.1981,113.3712,792.28,119" style="stroke:#181818;stroke-width:1.0;"/></g><!--link ResourceTypeMapper to ResourceType--><g id="link_ResourceTypeMapper_ResourceType"><path codeLine="158" d="M1339.92,195.25 C1324.4,319.68 1270,756 1270,756 C1270,756 1182,835 1182,835 C1182,835 1105,976 1105,976 C1105,976 1061.3115,1021.8086 1025.0615,1059.8086 " fill="none" id="ResourceTypeMapper-to-ResourceType" style="stroke:#181818;stroke-width:1.0;stroke-dasharray:7.0,7.0;"/><polygon fill="#181818" points="1020.92,1064.15,1030.0265,1060.3989,1024.3712,1060.5321,1024.238,1054.8769,1020.92,1064.15" style="stroke:#181818;stroke-width:1.0;"/></g><!--link ResourceTypeMapper to ResourceType--><g id="link_ResourceTypeMapper_ResourceType"><path codeLine="190" d="M1330.36,195.28 C1290.83,290.28 1179,559 1179,559 C1179,559 1129,805 1129,805 C1129,805 1044.6675,976.5057 1004.0675,1059.0757 " fill="none" id="ResourceTypeMapper-to-ResourceType-1" style="stroke:#181818;stroke-width:1.0;"/><polygon fill="#181818" points="1001.42,1064.46,1008.9808,1058.1485,1003.6262,1059.9731,1001.8017,1054.6185,1001.42,1064.46" style="stroke:#181818;stroke-width:1.0;"/><text fill="#000000" font-family="sans-serif" font-size="13" lengthAdjust="spacing" textLength="85.979" x="1180" y="663.0283">resourceTypes</text><text fill="#000000" font-family="sans-serif" font-size="13" lengthAdjust="spacing" textLength="5.0591" x="999.3121" y="1053.3577">*</text></g><!--link ResourceTypeMapper to ResourceTypeDTO--><g id="link_ResourceTypeMapper_ResourceTypeDTO"><path codeLine="159" d="M1433.31,161.5 C1445.19,161.5 1453.18,161.5 1462.31,161.5 " fill="none" id="ResourceTypeMapper-to-ResourceTypeDTO" style="stroke:#181818;stroke-width:1.0;stroke-dasharray:7.0,7.0;"/><polygon fill="#181818" points="1468.31,161.5,1459.31,157.5,1463.31,161.5,1459.31,165.5,1468.31,161.5" style="stroke:#181818;stroke-width:1.0;"/></g><!--link GenerationFactorsMapper to GenerationFactors--><g id="link_GenerationFactorsMapper_GenerationFactors"><path codeLine="161" d="M2036.57,195.26 C2024.88,352.8 1975,1025 1975,1025 C1975,1025 1970.6322,1038.5966 1964.2922,1058.3666 " fill="none" id="GenerationFactorsMapper-to-GenerationFactors" style="stroke:#181818;stroke-width:1.0;stroke-dasharray:7.0,7.0;"/><polygon fill="#181818" points="1962.46,1064.08,1969.0173,1056.7314,1963.9868,1059.3188,1961.3994,1054.2884,1962.46,1064.08" style="stroke:#181818;stroke-width:1.0;"/></g><!--link GenerationFactorsMapper to GenerationFactors--><g id="link_GenerationFactorsMapper_GenerationFactors"><path codeLine="192" d="M2039.8,195.39 C2040.97,243.4 2043,327 2043,327 C2043,327 2046,835 2046,835 C2046,835 2046,1025 2046,1025 C2046,1025 2027.2963,1040.6253 2003.5263,1060.4653 " fill="none" id="GenerationFactorsMapper-to-GenerationFactors-1" style="stroke:#181818;stroke-width:1.0;"/><polygon fill="#181818" points="1998.92,1064.31,2008.3926,1061.6138,2002.7586,1061.1061,2003.2663,1055.472,1998.92,1064.31" style="stroke:#181818;stroke-width:1.0;"/><text fill="#000000" font-family="sans-serif" font-size="13" lengthAdjust="spacing" textLength="104.7808" x="2046" y="663.0283">generationFactors</text><text fill="#000000" font-family="sans-serif" font-size="13" lengthAdjust="spacing" textLength="5.0591" x="2001.4867" y="1053.1838">*</text></g><!--link GenerationFactorsMapper to GenerationFactorsDTO--><g id="link_GenerationFactorsMapper_GenerationFactorsDTO"><path codeLine="162" d="M2141.53,161.5 C2153.33,161.5 2160.62,161.5 2170.24,161.5 " fill="none" id="GenerationFactorsMapper-to-GenerationFactorsDTO" style="stroke:#181818;stroke-width:1.0;stroke-dasharray:7.0,7.0;"/><polygon fill="#181818" points="2176.24,161.5,2167.24,157.5,2171.24,161.5,2167.24,165.5,2176.24,161.5" style="stroke:#181818;stroke-width:1.0;"/></g><!--link IndustryMapper to Industry--><g id="link_IndustryMapper_Industry"><path codeLine="164" d="M843.81,204.32 C868.17,243.8 901,297 901,297 C901,297 1089,327 1089,327 C1089,327 1089,346 1089,346 C1089,346 967,756 967,756 C967,756 928.7218,791.9706 887.7418,830.4906 " fill="none" id="IndustryMapper-to-Industry" style="stroke:#181818;stroke-width:1.0;stroke-dasharray:7.0,7.0;"/><polygon fill="#181818" points="883.37,834.6,892.6673,831.3505,887.0132,831.1755,887.1882,825.5214,883.37,834.6" style="stroke:#181818;stroke-width:1.0;"/></g><!--link IndustryMapper to IndustryDTO--><g id="link_IndustryMapper_IndustryDTO"><path codeLine="165" d="M882.68,161.5 C893.7,161.5 901.67,161.5 901.67,161.5 C901.67,161.5 902.28,161.5 911.8,161.5 " fill="none" id="IndustryMapper-to-IndustryDTO" style="stroke:#181818;stroke-width:1.0;stroke-dasharray:7.0,7.0;"/><polygon fill="#181818" points="917.8,161.5,908.8,157.5,912.8,161.5,908.8,165.5,917.8,161.5" style="stroke:#181818;stroke-width:1.0;"/></g><!--link IndustryTypeMapper to IndustryType--><g id="link_IndustryTypeMapper_IndustryType"><path codeLine="167" d="M2471.17,195.2 C2462.87,265.97 2444,427 2444,427 C2444,427 2444,427 2444,906.5 C2444,906.5 2316.6833,1002.3411 2239.0233,1060.8111 " fill="none" id="IndustryTypeMapper-to-IndustryType" style="stroke:#181818;stroke-width:1.0;stroke-dasharray:7.0,7.0;"/><polygon fill="#181818" points="2234.23,1064.42,2243.8259,1062.2022,2238.2244,1061.4126,2239.0141,1055.8111,2234.23,1064.42" style="stroke:#181818;stroke-width:1.0;"/></g><!--link IndustryTypeMapper to IndustryType--><g id="link_IndustryTypeMapper_IndustryType"><path codeLine="191" d="M2453.37,195.2 C2406.54,265.97 2300,427 2300,427 C2300,427 2300,427 2300,906.5 C2300,906.5 2242.9614,1000.5498 2207.4814,1059.0498 " fill="none" id="IndustryTypeMapper-to-IndustryType-1" style="stroke:#181818;stroke-width:1.0;"/><polygon fill="#181818" points="2204.37,1064.18,2212.4573,1058.559,2206.9629,1059.9048,2205.617,1054.4104,2204.37,1064.18" style="stroke:#181818;stroke-width:1.0;"/><text fill="#000000" font-family="sans-serif" font-size="13" lengthAdjust="spacing" textLength="80.9199" x="2301" y="663.0283">industryTypes</text><text fill="#000000" font-family="sans-serif" font-size="13" lengthAdjust="spacing" textLength="5.0591" x="2202.9066" y="1053.3537">*</text></g><!--link IndustryTypeMapper to IndustryTypeDTO--><g id="link_IndustryTypeMapper_IndustryTypeDTO"><path codeLine="168" d="M2561.83,161.5 C2574.15,161.5 2582.56,161.5 2590.85,161.5 " fill="none" id="IndustryTypeMapper-to-IndustryTypeDTO" style="stroke:#181818;stroke-width:1.0;stroke-dasharray:7.0,7.0;"/><polygon fill="#181818" points="2596.85,161.5,2587.85,157.5,2591.85,161.5,2587.85,165.5,2596.85,161.5" style="stroke:#181818;stroke-width:1.0;"/></g><!--link Repositories to Repositories--><g id="link_Repositories_Repositories"><path codeLine="170" d="M1823.25,129.45 C1843.21,131.96 1858,142.64 1858,161.5 C1858,180.36 1849.1631,190.2914 1829.2031,192.8014 " fill="none" id="Repositories-to-Repositories" style="stroke:#181818;stroke-width:1.0;"/><polygon fill="#181818" points="1823.25,193.55,1832.6787,196.3958,1828.2109,192.9262,1831.6806,188.4583,1823.25,193.55" style="stroke:#181818;stroke-width:1.0;"/><text fill="#000000" font-family="sans-serif" font-size="13" lengthAdjust="spacing" textLength="48.4199" x="1864" y="167.0283">instance</text><text fill="#000000" font-family="sans-serif" font-size="13" lengthAdjust="spacing" textLength="7.23" x="1830.7288" y="192.5938">1</text></g><!--link Repositories to MapRepository--><g id="link_Repositories_MapRepository"><path codeLine="171" d="M1740,222.52 C1740,275.71 1740,345.4 1740,388.2 " fill="none" id="Repositories-to-MapRepository" style="stroke:#181818;stroke-width:1.0;"/><polygon fill="#181818" points="1740,394.2,1744,385.2,1740,389.2,1736,385.2,1740,394.2" style="stroke:#181818;stroke-width:1.0;"/><text fill="#000000" font-family="sans-serif" font-size="13" lengthAdjust="spacing" textLength="87.4263" x="1741" y="342.0283">mapRepository</text><text fill="#000000" font-family="sans-serif" font-size="13" lengthAdjust="spacing" textLength="7.23" x="1732.3643" y="383.2287">1</text></g><!--link Repositories to IndustryRepository--><g id="link_Repositories_IndustryRepository"><path codeLine="172" d="M1694.82,222.67 C1667.93,258.48 1639,297 1639,297 C1639,297 1083.7198,382.7347 877.6498,414.5447 " fill="none" id="Repositories-to-IndustryRepository" style="stroke:#181818;stroke-width:1.0;"/><polygon fill="#181818" points="871.72,415.46,881.2249,418.0402,876.6615,414.6972,880.0044,410.1338,871.72,415.46" style="stroke:#181818;stroke-width:1.0;"/><text fill="#000000" font-family="sans-serif" font-size="13" lengthAdjust="spacing" textLength="107.6563" x="1436" y="342.0283">industryRepository</text><text fill="#000000" font-family="sans-serif" font-size="13" lengthAdjust="spacing" textLength="7.23" x="879.1998" y="410.4853">1</text></g><!--link ApplicationSession to ApplicationSession--><g id="link_ApplicationSession_ApplicationSession"><path codeLine="174" d="M417.06,411.27 C436.94,412.23 452,417.8 452,428 C452,438.2 442.933,443.4806 423.053,444.4406 " fill="none" id="ApplicationSession-to-ApplicationSession" style="stroke:#181818;stroke-width:1.0;"/><polygon fill="#181818" points="417.06,444.73,426.2425,448.2912,422.0542,444.4888,425.8566,440.3006,417.06,444.73" style="stroke:#181818;stroke-width:1.0;"/><text fill="#000000" font-family="sans-serif" font-size="13" lengthAdjust="spacing" textLength="48.4199" x="458" y="433.5283">instance</text><text fill="#000000" font-family="sans-serif" font-size="13" lengthAdjust="spacing" textLength="7.23" x="425.1581" y="442.6291">1</text></g><!--link ApplicationSession to UserSession--><g id="link_ApplicationSession_UserSession"><path codeLine="175" d="M358.61,480.06 C371.82,520.67 388.2137,571.0744 400.5637,609.0344 " fill="none" id="ApplicationSession-to-UserSession" style="stroke:#181818;stroke-width:1.0;stroke-dasharray:7.0,7.0;"/><polygon fill="#181818" points="402.42,614.74,403.4393,604.944,400.8731,609.9853,395.8318,607.4191,402.42,614.74" style="stroke:#181818;stroke-width:1.0;"/></g><!--link MapRepository to Map--><g id="link_MapRepository_Map"><path codeLine="177" d="M1697.88,461.6 C1658.58,492 1603.1653,534.8883 1551.4953,574.8683 " fill="none" id="MapRepository-to-Map" style="stroke:#181818;stroke-width:1.0;"/><polygon fill="#181818" points="1546.75,578.54,1556.3158,576.196,1550.7045,575.4802,1551.4202,569.8688,1546.75,578.54" style="stroke:#181818;stroke-width:1.0;"/><text fill="#000000" font-family="sans-serif" font-size="13" lengthAdjust="spacing" textLength="31.7891" x="1628" y="525.0283">maps</text><text fill="#000000" font-family="sans-serif" font-size="13" lengthAdjust="spacing" textLength="5.0591" x="1554.9613" y="568.6117">*</text></g><!--link IndustryRepository to Industry--><g id="link_IndustryRepository_Industry"><path codeLine="178" d="M830.8,470.85 C861.5,508.85 902,559 902,559 C902,559 902,756 902,756 C902,756 880.0843,790.9947 855.9643,829.5147 " fill="none" id="IndustryRepository-to-Industry" style="stroke:#181818;stroke-width:1.0;"/><polygon fill="#181818" points="852.78,834.6,860.9466,829.0949,855.4336,830.3622,854.1662,824.8492,852.78,834.6" style="stroke:#181818;stroke-width:1.0;"/><text fill="#000000" font-family="sans-serif" font-size="13" lengthAdjust="spacing" textLength="55.6372" x="903" y="663.0283">industries</text><text fill="#000000" font-family="sans-serif" font-size="13" lengthAdjust="spacing" textLength="5.0591" x="851.8232" y="823.8215">*</text></g><!--link Map to Industry--><g id="link_Map_Industry"><path codeLine="180" d="M1345.33,707.82 C1295.98,732 1247,756 1247,756 C1247,756 1150,786 1150,786 C1150,786 1089.2277,807.1209 1014.9977,832.9109 " fill="none" id="Map-to-Industry" style="stroke:#181818;stroke-width:1.0;"/><polygon fill="#181818" points="1009.33,834.88,1019.1443,835.7047,1014.0531,833.2391,1016.5187,828.1478,1009.33,834.88" style="stroke:#181818;stroke-width:1.0;"/><text fill="#000000" font-family="sans-serif" font-size="13" lengthAdjust="spacing" textLength="55.6372" x="1151" y="801.0283">industries</text><text fill="#000000" font-family="sans-serif" font-size="13" lengthAdjust="spacing" textLength="5.0591" x="1024.71" y="823.7586">*</text></g><!--link Map to ResourceType--><g id="link_Map_ResourceType"><path codeLine="181" d="M1345.42,749.08 C1297.29,792.41 1250,835 1250,835 C1250,835 1170,1025 1170,1025 C1170,1025 1107.565,1051.7567 1053.145,1075.0767 " fill="none" id="Map-to-ResourceType" style="stroke:#181818;stroke-width:1.0;"/><polygon fill="#181818" points="1047.63,1077.44,1057.478,1077.5717,1052.2258,1075.4706,1054.3269,1070.2184,1047.63,1077.44" style="stroke:#181818;stroke-width:1.0;"/><text fill="#000000" font-family="sans-serif" font-size="13" lengthAdjust="spacing" textLength="85.979" x="1251" y="911.0283">resourceTypes</text><text fill="#000000" font-family="sans-serif" font-size="13" lengthAdjust="spacing" textLength="5.0591" x="1055.2158" y="1070.3082">*</text></g><!--link Map to IndustryType--><g id="link_Map_IndustryType"><path codeLine="182" d="M1546.54,735.08 C1562.57,747.29 1574,756 1574,756 C1574,756 1775,835 1775,835 C1775,835 1998.4573,984.8874 2111.7773,1060.9074 " fill="none" id="Map-to-IndustryType" style="stroke:#181818;stroke-width:1.0;"/><polygon fill="#181818" points="2116.76,1064.25,2111.5144,1055.9143,2112.6078,1061.4645,2107.0576,1062.5579,2116.76,1064.25" style="stroke:#181818;stroke-width:1.0;"/><text fill="#000000" font-family="sans-serif" font-size="13" lengthAdjust="spacing" textLength="80.9199" x="1984" y="911.0283">industryTypes</text><text fill="#000000" font-family="sans-serif" font-size="13" lengthAdjust="spacing" textLength="5.0591" x="2101.4781" y="1053.1142">*</text></g><!--link Map to GenerationFactors--><g id="link_Map_GenerationFactors"><path codeLine="183" d="M1522.82,756.04 C1554.96,796.86 1585,835 1585,835 C1585,835 1665,976 1665,976 C1665,976 1785.1543,1031.003 1869.2943,1069.513 " fill="none" id="Map-to-GenerationFactors" style="stroke:#181818;stroke-width:1.0;"/><polygon fill="#181818" points="1874.75,1072.01,1868.2311,1064.6273,1870.2036,1069.9291,1864.9017,1071.9016,1874.75,1072.01" style="stroke:#181818;stroke-width:1.0;"/><text fill="#000000" font-family="sans-serif" font-size="13" lengthAdjust="spacing" textLength="104.7808" x="1666" y="911.0283">generationFactors</text><text fill="#000000" font-family="sans-serif" font-size="13" lengthAdjust="spacing" textLength="5.0591" x="1861.8411" y="1064.5559">*</text></g><!--link Industry to Location--><g id="link_Industry_Location"><path codeLine="185" d="M597.84,962.67 C431.04,1007.04 216.2083,1064.1773 117.0183,1090.5673 " fill="none" id="Industry-to-Location" style="stroke:#181818;stroke-width:1.0;"/><polygon fill="#181818" points="111.22,1092.11,120.9459,1093.6615,116.0519,1090.8244,118.889,1085.9305,111.22,1092.11" style="stroke:#181818;stroke-width:1.0;"/><text fill="#000000" font-family="sans-serif" font-size="13" lengthAdjust="spacing" textLength="67.209" x="435" y="1021.0283">coordinates</text><text fill="#000000" font-family="sans-serif" font-size="13" lengthAdjust="spacing" textLength="7.23" x="119.057" y="1085.8792">1</text></g><!--link Industry to ResourceType--><g id="link_Industry_ResourceType"><path codeLine="186" d="M869.16,976.28 C894.54,1005.71 919.3119,1034.4459 941.2819,1059.9259 " fill="none" id="Industry-to-ResourceType" style="stroke:#181818;stroke-width:1.0;"/><polygon fill="#181818" points="945.2,1064.47,942.3522,1055.0418,941.9349,1060.6833,936.2935,1060.266,945.2,1064.47" style="stroke:#181818;stroke-width:1.0;"/><text fill="#000000" font-family="sans-serif" font-size="13" lengthAdjust="spacing" textLength="79.479" x="911" y="1021.0283">resourceType</text><text fill="#000000" font-family="sans-serif" font-size="13" lengthAdjust="spacing" textLength="7.23" x="931.9863" y="1053.3693">1</text></g><!--link Industry to IndustryType--><g id="link_Industry_IndustryType"><path codeLine="187" d="M1020.11,945.11 C1107.58,961.11 1189,976 1189,976 C1189,976 1712,1025 1712,1025 C1712,1025 2041,1055 2041,1055 C2041,1055 2071.5125,1066.269 2106.8025,1079.319 " fill="none" id="Industry-to-IndustryType" style="stroke:#181818;stroke-width:1.0;"/><polygon fill="#181818" points="2112.43,1081.4,2105.376,1074.5268,2107.7404,1079.6658,2102.6013,1082.0302,2112.43,1081.4" style="stroke:#181818;stroke-width:1.0;"/><text fill="#000000" font-family="sans-serif" font-size="13" lengthAdjust="spacing" textLength="74.4199" x="1713" y="1021.0283">industryType</text><text fill="#000000" font-family="sans-serif" font-size="13" lengthAdjust="spacing" textLength="7.23" x="2097.3642" y="1074.4883">1</text></g><!--link Industry to GenerationFactors--><g id="link_Industry_GenerationFactors"><path codeLine="188" d="M1020.04,953.42 C1168.94,986.52 1342,1025 1342,1025 C1342,1025 1707.0027,1073.7063 1868.9227,1095.3163 " fill="none" id="Industry-to-GenerationFactors" style="stroke:#181818;stroke-width:1.0;"/><polygon fill="#181818" points="1874.87,1096.11,1866.4783,1090.9546,1869.9139,1095.4486,1865.4199,1098.8843,1874.87,1096.11" style="stroke:#181818;stroke-width:1.0;"/><text fill="#000000" font-family="sans-serif" font-size="13" lengthAdjust="spacing" textLength="98.2808" x="1343" y="1021.0283">generationFactor</text><text fill="#000000" font-family="sans-serif" font-size="13" lengthAdjust="spacing" textLength="7.23" x="1859.8791" y="1091.1412">1</text></g><!--SRC=[lLXHRzis47xNho3wqcHrWktL3m7Ih0s2fUkGj7kdfRDDL2OraawY5VtlEr8KHOgqBBV5_910lEy-tXsFnoFL5yORAkcEDBJyGZVmgDiQY8HIKxwfeL0UeBQq4i-CRyYQrYgKr8o3RXiWZQXRyn78ofegTQsrPAkzXhjIy4VsBv1VYzSrh3NHWaYssMfICJCd4xme2gj3hfkcPYKrOu-W5FuZNmk2lukCwEpSYjwGhqhZUFcDR43VSVpW9NWXZjtifGIk1xLl_NoV5SXu8gjWXj_jAAipB1zeyoVTGSZo08rGJ0l9G7bxmy7PbYAvrsj3mHslzahBDf9w0oArq14Kl6sjkHp_11efdrUZLNN6dFZSEQFe4mI3uSJUOJC3MP97N7Q-SMCRoIeSkyL_ZbrjnRFvzCunzJUjMNKlkhKzUrcGDd3ydYdzSVq0Iknb2PymurGkBecWqxi53jBolgSbUZb0qCjUD-TORuxtxWNTO5oxhpRuUaD6jWTvCLWz6QOAL2bPOoVqecIjVf0cYSKarqoRF4VT1spfm-4aCep2CWgAGx3GmMNaRvz78zjDJetTSOlXLxMtQ15Pi8XcMoJCcJto-wUF_vERFU9sZhlPD0jj_GafycDqeOS_XmdhJGFIboejFeWAwhDAYtC_X3FbTdGOfOJ6w8GBQAh7UTwHh6wuj2FT9APPWd4QgX7BzL2kFj-XhXVSIA1unZhPZU1QYheE-0y1V2LCAlAJgSUeuyiQdkjxlI0xslIGqf9-PyqE1MzRj0nUJ03XPKvT3mM7b8_LVeICXLcgCWhTa6KNxcXzByKkQYgAU9akhmv6FqK6rQOe3gxg9IBJJcWQ7pGvqq1qQHhWIzuaAYfziv7TjfZ6HoLpDd8ESrfUJuEVOlqyrD2PJU2leZPp4XZcrnpSKOzcEVGzeJfnzKvCezdvEKgt8dE0ZCcEG-pkFdGaPFFm5B1b7vsLuJeT5aMQiVbH58v3B5Dq8xgu8gz-UnNVaapxt5r_HbW7ZcyqItFs11iYgvAvqYnzHnKe5vbBfgF8I093Cz9nUIrYkwrflrXlEXzKaR6oH_cUsfjjzhIXF0894Gzn6nesDIfBvO1X1nC3qtl3CkcQrP0yVZtkXrQv549MZED6Kobkmk8KF65r2fvZUNPVpmfcPYlCYksX3NrYlBdGuDvHnFfmds7wbLttP85NRI9McZ8E5LbZxqBqjhjvbDtJHlGSyiIebQLPVra0huYPtrcn4beZ6veHfRz_256Du8gjQY1hlClKWbRcHOdQVeFOtwebJ2kov-oVFTZxmVGaZleFBfwLyG8p3BsrRqdeuzgnzkkbXaiVCMzM-4rvvK13QCdQnHk5lWbM3XQaC46eiTOyRaoOcJd8Ewl_0gcmGrM4m_DGcxjf-cAZNFDPeNTIx3TR9-zyxLTtcFq_]--></g></svg>