<svg xmlns="http://www.w3.org/2000/svg" xmlns:xlink="http://www.w3.org/1999/xlink" contentStyleType="text/css" height="446px" preserveAspectRatio="none" style="width:1018px;height:446px;background:#FFFFFF;" version="1.1" viewBox="0 0 1018 446" width="1018px" zoomAndPan="magnify"><defs/><g><rect fill="#FFFFFF" height="318.6973" style="stroke:#181818;stroke-width:1.0;" width="10" x="182.6689" y="71.9121"/><rect fill="#FFFFFF" height="36.291" style="stroke:#181818;stroke-width:1.0;" width="10" x="187.6689" y="242.4063"/><rect fill="#FFFFFF" height="30" style="stroke:#181818;stroke-width:1.0;" width="10" x="388.7476" y="173.1152"/><rect fill="#FFFFFF" height="30" style="stroke:#181818;stroke-width:1.0;" width="10" x="388.7476" y="322.3184"/><rect fill="none" height="229.7852" style="stroke:#000000;stroke-width:1.5;" width="905.8525" x="106.4727" y="130.5332"/><line style="stroke:#181818;stroke-width:0.5;stroke-dasharray:5.0,5.0;" x1="187.4727" x2="187.4727" y1="38.6211" y2="408.6094"/><line style="stroke:#181818;stroke-width:0.5;stroke-dasharray:5.0,5.0;" x1="392.8652" x2="392.8652" y1="38.6211" y2="408.6094"/><line style="stroke:#181818;stroke-width:0.5;stroke-dasharray:5.0,5.0;" x1="667.6299" x2="667.6299" y1="111.7227" y2="408.6094"/><line style="stroke:#181818;stroke-width:0.5;stroke-dasharray:5.0,5.0;" x1="909.9463" x2="909.9463" y1="287.2168" y2="408.6094"/><rect fill="#E3E3E3" height="32.6211" rx="2.5" ry="2.5" style="stroke:#181818;stroke-width:0.5;" width="142.3926" x="116.4727" y="5"/><text fill="#000000" font-family="sans-serif" font-size="14" lengthAdjust="spacing" textLength="128.3926" x="123.4727" y="27.1074">IndustryTypeMapper</text><rect fill="#E3E3E3" height="32.6211" rx="2.5" ry="2.5" style="stroke:#181818;stroke-width:0.5;" width="142.3926" x="116.4727" y="407.6094"/><text fill="#000000" font-family="sans-serif" font-size="14" lengthAdjust="spacing" textLength="128.3926" x="123.4727" y="429.7168">IndustryTypeMapper</text><rect fill="#E3E3E3" height="32.6211" rx="2.5" ry="2.5" style="stroke:#181818;stroke-width:0.5;" width="249.7646" x="268.8652" y="5"/><text fill="#000000" font-family="sans-serif" font-size="14" lengthAdjust="spacing" textLength="235.7646" x="275.8652" y="27.1074">listIndustryTypes : List&lt;IndustryType&gt;</text><rect fill="#E3E3E3" height="32.6211" rx="2.5" ry="2.5" style="stroke:#181818;stroke-width:0.5;" width="249.7646" x="268.8652" y="407.6094"/><text fill="#000000" font-family="sans-serif" font-size="14" lengthAdjust="spacing" textLength="235.7646" x="275.8652" y="429.7168">listIndustryTypes : List&lt;IndustryType&gt;</text><rect fill="#E3E3E3" height="32.6211" rx="2.5" ry="2.5" style="stroke:#181818;stroke-width:0.5;" width="279.3164" x="528.6299" y="407.6094"/><text fill="#000000" font-family="sans-serif" font-size="14" lengthAdjust="spacing" textLength="265.3164" x="535.6299" y="429.7168">listIndsutryTypesDTO : List&lt;IndustryType&gt;</text><rect fill="#E3E3E3" height="32.6211" rx="2.5" ry="2.5" style="stroke:#181818;stroke-width:0.5;" width="184.3789" x="817.9463" y="407.6094"/><text fill="#000000" font-family="sans-serif" font-size="14" lengthAdjust="spacing" textLength="170.3789" x="824.9463" y="429.7168">objDTO : IndustryTypeDTO</text><rect fill="#FFFFFF" height="318.6973" style="stroke:#181818;stroke-width:1.0;" width="10" x="182.6689" y="71.9121"/><rect fill="#FFFFFF" height="36.291" style="stroke:#181818;stroke-width:1.0;" width="10" x="187.6689" y="242.4063"/><rect fill="#FFFFFF" height="30" style="stroke:#181818;stroke-width:1.0;" width="10" x="388.7476" y="173.1152"/><rect fill="#FFFFFF" height="30" style="stroke:#181818;stroke-width:1.0;" width="10" x="388.7476" y="322.3184"/><polygon fill="#181818" points="170.6689,67.9121,180.6689,71.9121,170.6689,75.9121,174.6689,71.9121" style="stroke:#181818;stroke-width:1.0;"/><line style="stroke:#181818;stroke-width:1.0;" x1="0" x2="176.6689" y1="71.9121" y2="71.9121"/><text fill="#000000" font-family="sans-serif" font-size="13" font-weight="bold" lengthAdjust="spacing" textLength="14.46" x="7" y="66.6494">55</text><text fill="#000000" font-family="sans-serif" font-size="13" lengthAdjust="spacing" textLength="3.6118" x="25.46" y="66.6494">&#160;</text><polygon fill="#181818" points="516.6299,99.2031,526.6299,103.2031,516.6299,107.2031,520.6299,103.2031" style="stroke:#181818;stroke-width:1.0;"/><line style="stroke:#181818;stroke-width:1.0;stroke-dasharray:2.0,2.0;" x1="192.6689" x2="522.6299" y1="103.2031" y2="103.2031"/><text fill="#000000" font-family="sans-serif" font-size="13" font-weight="bold" lengthAdjust="spacing" textLength="25.3018" x="199.6689" y="97.9404">55.1</text><text fill="#000000" font-family="sans-serif" font-size="13" lengthAdjust="spacing" textLength="44.7891" x="228.9707" y="97.9404">create()</text><rect fill="#E3E3E3" height="32.6211" rx="2.5" ry="2.5" style="stroke:#181818;stroke-width:0.5;" width="279.3164" x="528.6299" y="79.9121"/><text fill="#000000" font-family="sans-serif" font-size="14" lengthAdjust="spacing" textLength="265.3164" x="535.6299" y="102.0195">listIndsutryTypesDTO : List&lt;IndustryType&gt;</text><path d="M106.4727,130.5332 L178.9072,130.5332 L178.9072,139.8242 L168.9072,149.8242 L106.4727,149.8242 L106.4727,130.5332 " fill="#EEEEEE" style="stroke:#000000;stroke-width:1.5;"/><rect fill="none" height="229.7852" style="stroke:#000000;stroke-width:1.5;" width="905.8525" x="106.4727" y="130.5332"/><text fill="#000000" font-family="sans-serif" font-size="13" font-weight="bold" lengthAdjust="spacing" textLength="27.4346" x="121.4727" y="145.5615">loop</text><text fill="#000000" font-family="sans-serif" font-size="11" font-weight="bold" lengthAdjust="spacing" textLength="192.5322" x="193.9072" y="144.4033">[for each object in listIndustryTypes]</text><polygon fill="#181818" points="376.7476,169.1152,386.7476,173.1152,376.7476,177.1152,380.7476,173.1152" style="stroke:#181818;stroke-width:1.0;"/><line style="stroke:#181818;stroke-width:1.0;" x1="192.6689" x2="382.7476" y1="173.1152" y2="173.1152"/><text fill="#000000" font-family="sans-serif" font-size="13" font-weight="bold" lengthAdjust="spacing" textLength="25.3018" x="199.6689" y="167.8525">55.2</text><text fill="#000000" font-family="sans-serif" font-size="13" lengthAdjust="spacing" textLength="61.7817" x="228.9707" y="167.8525">obj = get(i)</text><line style="stroke:#181818;stroke-width:1.0;" x1="192.6689" x2="239.6689" y1="229.4063" y2="229.4063"/><line style="stroke:#181818;stroke-width:1.0;" x1="239.6689" x2="239.6689" y1="229.4063" y2="242.4063"/><line style="stroke:#181818;stroke-width:1.0;" x1="198.6689" x2="239.6689" y1="242.4063" y2="242.4063"/><polygon fill="#181818" points="208.6689,238.4063,198.6689,242.4063,208.6689,246.4063,204.6689,242.4063" style="stroke:#181818;stroke-width:1.0;"/><text fill="#000000" font-family="sans-serif" font-size="13" font-weight="bold" lengthAdjust="spacing" textLength="25.3018" x="204.6689" y="224.1436">55.3</text><text fill="#000000" font-family="sans-serif" font-size="13" lengthAdjust="spacing" textLength="123.8936" x="233.9707" y="224.1436">objDTO = toDTO(obj)</text><polygon fill="#181818" points="805.9463,274.6973,815.9463,278.6973,805.9463,282.6973,809.9463,278.6973" style="stroke:#181818;stroke-width:1.0;"/><line style="stroke:#181818;stroke-width:1.0;stroke-dasharray:2.0,2.0;" x1="192.6689" x2="811.9463" y1="278.6973" y2="278.6973"/><text fill="#000000" font-family="sans-serif" font-size="13" font-weight="bold" lengthAdjust="spacing" textLength="25.3018" x="199.6689" y="273.4346">55.4</text><text fill="#000000" font-family="sans-serif" font-size="13" lengthAdjust="spacing" textLength="44.7891" x="228.9707" y="273.4346">create()</text><rect fill="#E3E3E3" height="32.6211" rx="2.5" ry="2.5" style="stroke:#181818;stroke-width:0.5;" width="184.3789" x="817.9463" y="255.4063"/><text fill="#000000" font-family="sans-serif" font-size="14" lengthAdjust="spacing" textLength="170.3789" x="824.9463" y="277.5137">objDTO : IndustryTypeDTO</text><polygon fill="#181818" points="376.7476,318.3184,386.7476,322.3184,376.7476,326.3184,380.7476,322.3184" style="stroke:#181818;stroke-width:1.0;"/><line style="stroke:#181818;stroke-width:1.0;" x1="192.6689" x2="382.7476" y1="322.3184" y2="322.3184"/><text fill="#000000" font-family="sans-serif" font-size="13" font-weight="bold" lengthAdjust="spacing" textLength="25.3018" x="199.6689" y="317.0557">55.5</text><text fill="#000000" font-family="sans-serif" font-size="13" lengthAdjust="spacing" textLength="75.1372" x="228.9707" y="317.0557">add(objDTO)</text><polygon fill="#181818" points="11,386.6094,1,390.6094,11,394.6094,7,390.6094" style="stroke:#181818;stroke-width:1.0;"/><line style="stroke:#181818;stroke-width:1.0;" x1="5" x2="186.6689" y1="390.6094" y2="390.6094"/><text fill="#000000" font-family="sans-serif" font-size="13" font-weight="bold" lengthAdjust="spacing" textLength="25.3018" x="17" y="385.3467">55.6</text><text fill="#000000" font-family="sans-serif" font-size="13" lengthAdjust="spacing" textLength="134.3672" x="46.3018" y="385.3467">listResourceTypesDTO</text><!--SRC=[hLBBRi8m4BpxArQS0XALUk1I0L8V7AX0e43FrU8imIMnBTjfnT_Nc4UJ9a0FpINAU6PsF1kx5LAZmHno9HNV69KJE5CGi-SJZNoBAItSBYCmn1tAD2iJx0OJzILa2clCB37cOIUuq2WTjCOoAQmpk-LEqnIr9jC2j12F5hEt-7dqFdsSpqTnLPC9wyew2mymyLY_30whFfFnOjdeOekJoyjozWSZpwhwgDN7GLaMUIJ8Pa-lGS6mS4eM-OeCz7giEwpTi4AuksVW7-HEVAAZ6db_-0k3RjdKp-nqV2PkoEkZTb1aIcbOAmE4V0C-jzyM20crFWExSSQmsgYVu6rW02cvIBJFkkRmOGTbIa8tIDVc7w6GOB-00JZbtv7__0bojS5BBHwNLY_mKkPRdlNMC4cYG-x_BOra4jRC-js6flQBZicgmd0w_VBiyeM-0G00]--></g></svg>