<svg xmlns="http://www.w3.org/2000/svg" xmlns:xlink="http://www.w3.org/1999/xlink" contentStyleType="text/css" height="446px" preserveAspectRatio="none" style="width:1222px;height:446px;background:#FFFFFF;" version="1.1" viewBox="0 0 1222 446" width="1222px" zoomAndPan="magnify"><defs/><g><rect fill="#FFFFFF" height="318.6973" style="stroke:#181818;stroke-width:1.0;" width="10" x="182.6689" y="71.9121"/><rect fill="#FFFFFF" height="36.291" style="stroke:#181818;stroke-width:1.0;" width="10" x="187.6689" y="242.4063"/><rect fill="#FFFFFF" height="30" style="stroke:#181818;stroke-width:1.0;" width="10" x="434.2783" y="173.1152"/><rect fill="#FFFFFF" height="30" style="stroke:#181818;stroke-width:1.0;" width="10" x="434.2783" y="322.3184"/><rect fill="none" height="229.7852" style="stroke:#000000;stroke-width:1.5;" width="1124.5273" x="92.4624" y="130.5332"/><line style="stroke:#181818;stroke-width:0.5;stroke-dasharray:5.0,5.0;" x1="187.4624" x2="187.4624" y1="38.6211" y2="408.6094"/><line style="stroke:#181818;stroke-width:0.5;stroke-dasharray:5.0,5.0;" x1="438.8755" x2="438.8755" y1="38.6211" y2="408.6094"/><line style="stroke:#181818;stroke-width:0.5;stroke-dasharray:5.0,5.0;" x1="790.6812" x2="790.6812" y1="111.7227" y2="408.6094"/><line style="stroke:#181818;stroke-width:0.5;stroke-dasharray:5.0,5.0;" x1="1096.5903" x2="1096.5903" y1="287.2168" y2="408.6094"/><rect fill="#E3E3E3" height="32.6211" rx="2.5" ry="2.5" style="stroke:#181818;stroke-width:0.5;" width="170.4131" x="102.4624" y="5"/><text fill="#000000" font-family="sans-serif" font-size="14" lengthAdjust="spacing" textLength="156.4131" x="109.4624" y="27.1074">GenerationFactorMapper</text><rect fill="#E3E3E3" height="32.6211" rx="2.5" ry="2.5" style="stroke:#181818;stroke-width:0.5;" width="170.4131" x="102.4624" y="407.6094"/><text fill="#000000" font-family="sans-serif" font-size="14" lengthAdjust="spacing" textLength="156.4131" x="109.4624" y="429.7168">GenerationFactorMapper</text><rect fill="#E3E3E3" height="32.6211" rx="2.5" ry="2.5" style="stroke:#181818;stroke-width:0.5;" width="312.8057" x="282.8755" y="5"/><text fill="#000000" font-family="sans-serif" font-size="14" lengthAdjust="spacing" textLength="298.8057" x="289.8755" y="27.1074">listGenerationFactors : List&lt;GenerationFactors&gt;</text><rect fill="#E3E3E3" height="32.6211" rx="2.5" ry="2.5" style="stroke:#181818;stroke-width:0.5;" width="312.8057" x="282.8755" y="407.6094"/><text fill="#000000" font-family="sans-serif" font-size="14" lengthAdjust="spacing" textLength="298.8057" x="289.8755" y="429.7168">listGenerationFactors : List&lt;GenerationFactors&gt;</text><rect fill="#E3E3E3" height="32.6211" rx="2.5" ry="2.5" style="stroke:#181818;stroke-width:0.5;" width="371.9092" x="605.6812" y="407.6094"/><text fill="#000000" font-family="sans-serif" font-size="14" lengthAdjust="spacing" textLength="357.9092" x="612.6812" y="429.7168">listGenerationFactorsDTO : List&lt;GenerationFactorsDTO&gt;</text><rect fill="#E3E3E3" height="32.6211" rx="2.5" ry="2.5" style="stroke:#181818;stroke-width:0.5;" width="219.3994" x="987.5903" y="407.6094"/><text fill="#000000" font-family="sans-serif" font-size="14" lengthAdjust="spacing" textLength="205.3994" x="994.5903" y="429.7168">objDTO : GenerationFactorsDTO</text><rect fill="#FFFFFF" height="318.6973" style="stroke:#181818;stroke-width:1.0;" width="10" x="182.6689" y="71.9121"/><rect fill="#FFFFFF" height="36.291" style="stroke:#181818;stroke-width:1.0;" width="10" x="187.6689" y="242.4063"/><rect fill="#FFFFFF" height="30" style="stroke:#181818;stroke-width:1.0;" width="10" x="434.2783" y="173.1152"/><rect fill="#FFFFFF" height="30" style="stroke:#181818;stroke-width:1.0;" width="10" x="434.2783" y="322.3184"/><polygon fill="#181818" points="170.6689,67.9121,180.6689,71.9121,170.6689,75.9121,174.6689,71.9121" style="stroke:#181818;stroke-width:1.0;"/><line style="stroke:#181818;stroke-width:1.0;" x1="0" x2="176.6689" y1="71.9121" y2="71.9121"/><text fill="#000000" font-family="sans-serif" font-size="13" font-weight="bold" lengthAdjust="spacing" textLength="14.46" x="7" y="66.6494">71</text><text fill="#000000" font-family="sans-serif" font-size="13" lengthAdjust="spacing" textLength="3.6118" x="25.46" y="66.6494">&#160;</text><polygon fill="#181818" points="593.6812,99.2031,603.6812,103.2031,593.6812,107.2031,597.6812,103.2031" style="stroke:#181818;stroke-width:1.0;"/><line style="stroke:#181818;stroke-width:1.0;stroke-dasharray:2.0,2.0;" x1="192.6689" x2="599.6812" y1="103.2031" y2="103.2031"/><text fill="#000000" font-family="sans-serif" font-size="13" font-weight="bold" lengthAdjust="spacing" textLength="25.3018" x="199.6689" y="97.9404">71.1</text><text fill="#000000" font-family="sans-serif" font-size="13" lengthAdjust="spacing" textLength="44.7891" x="228.9707" y="97.9404">create()</text><rect fill="#E3E3E3" height="32.6211" rx="2.5" ry="2.5" style="stroke:#181818;stroke-width:0.5;" width="371.9092" x="605.6812" y="79.9121"/><text fill="#000000" font-family="sans-serif" font-size="14" lengthAdjust="spacing" textLength="357.9092" x="612.6812" y="102.0195">listGenerationFactorsDTO : List&lt;GenerationFactorsDTO&gt;</text><path d="M92.4624,130.5332 L164.897,130.5332 L164.897,139.8242 L154.897,149.8242 L92.4624,149.8242 L92.4624,130.5332 " fill="#EEEEEE" style="stroke:#000000;stroke-width:1.5;"/><rect fill="none" height="229.7852" style="stroke:#000000;stroke-width:1.5;" width="1124.5273" x="92.4624" y="130.5332"/><text fill="#000000" font-family="sans-serif" font-size="13" font-weight="bold" lengthAdjust="spacing" textLength="27.4346" x="107.4624" y="145.5615">loop</text><text fill="#000000" font-family="sans-serif" font-size="11" font-weight="bold" lengthAdjust="spacing" textLength="215.1499" x="179.897" y="144.4033">[for each object in listGenerationFactors]</text><polygon fill="#181818" points="422.2783,169.1152,432.2783,173.1152,422.2783,177.1152,426.2783,173.1152" style="stroke:#181818;stroke-width:1.0;"/><line style="stroke:#181818;stroke-width:1.0;" x1="192.6689" x2="428.2783" y1="173.1152" y2="173.1152"/><text fill="#000000" font-family="sans-serif" font-size="13" font-weight="bold" lengthAdjust="spacing" textLength="25.3018" x="199.6689" y="167.8525">71.2</text><text fill="#000000" font-family="sans-serif" font-size="13" lengthAdjust="spacing" textLength="61.7817" x="228.9707" y="167.8525">obj = get(i)</text><line style="stroke:#181818;stroke-width:1.0;" x1="192.6689" x2="239.6689" y1="229.4063" y2="229.4063"/><line style="stroke:#181818;stroke-width:1.0;" x1="239.6689" x2="239.6689" y1="229.4063" y2="242.4063"/><line style="stroke:#181818;stroke-width:1.0;" x1="198.6689" x2="239.6689" y1="242.4063" y2="242.4063"/><polygon fill="#181818" points="208.6689,238.4063,198.6689,242.4063,208.6689,246.4063,204.6689,242.4063" style="stroke:#181818;stroke-width:1.0;"/><text fill="#000000" font-family="sans-serif" font-size="13" font-weight="bold" lengthAdjust="spacing" textLength="25.3018" x="204.6689" y="224.1436">71.3</text><text fill="#000000" font-family="sans-serif" font-size="13" lengthAdjust="spacing" textLength="123.8936" x="233.9707" y="224.1436">objDTO = toDTO(obj)</text><polygon fill="#181818" points="975.5903,274.6973,985.5903,278.6973,975.5903,282.6973,979.5903,278.6973" style="stroke:#181818;stroke-width:1.0;"/><line style="stroke:#181818;stroke-width:1.0;stroke-dasharray:2.0,2.0;" x1="192.6689" x2="981.5903" y1="278.6973" y2="278.6973"/><text fill="#000000" font-family="sans-serif" font-size="13" font-weight="bold" lengthAdjust="spacing" textLength="25.3018" x="199.6689" y="273.4346">71.4</text><text fill="#000000" font-family="sans-serif" font-size="13" lengthAdjust="spacing" textLength="44.7891" x="228.9707" y="273.4346">create()</text><rect fill="#E3E3E3" height="32.6211" rx="2.5" ry="2.5" style="stroke:#181818;stroke-width:0.5;" width="219.3994" x="987.5903" y="255.4063"/><text fill="#000000" font-family="sans-serif" font-size="14" lengthAdjust="spacing" textLength="205.3994" x="994.5903" y="277.5137">objDTO : GenerationFactorsDTO</text><polygon fill="#181818" points="422.2783,318.3184,432.2783,322.3184,422.2783,326.3184,426.2783,322.3184" style="stroke:#181818;stroke-width:1.0;"/><line style="stroke:#181818;stroke-width:1.0;" x1="192.6689" x2="428.2783" y1="322.3184" y2="322.3184"/><text fill="#000000" font-family="sans-serif" font-size="13" font-weight="bold" lengthAdjust="spacing" textLength="25.3018" x="199.6689" y="317.0557">71.5</text><text fill="#000000" font-family="sans-serif" font-size="13" lengthAdjust="spacing" textLength="75.1372" x="228.9707" y="317.0557">add(objDTO)</text><polygon fill="#181818" points="11,386.6094,1,390.6094,11,394.6094,7,390.6094" style="stroke:#181818;stroke-width:1.0;"/><line style="stroke:#181818;stroke-width:1.0;" x1="5" x2="186.6689" y1="390.6094" y2="390.6094"/><text fill="#000000" font-family="sans-serif" font-size="13" font-weight="bold" lengthAdjust="spacing" textLength="25.3018" x="17" y="385.3467">71.6</text><text fill="#000000" font-family="sans-serif" font-size="13" lengthAdjust="spacing" textLength="134.3672" x="46.3018" y="385.3467">listResourceTypesDTO</text><!--SRC=[hL9DQy904BtlhnWyHS62fq9HeH-sj2XAjESoRiQuDTaDkviM_tt7ADQOH7jeBY4pyzwyUIzketI65bD8ZJPoRKrAu6rEmXqx6SeDnZJtsuJ0alIeu-HqmAqnCjzAnx32n94GNFPAgWorXzOBQRBebT7FABsn4ymoiYr01-5eFdqF7qSVa_lPR1IMSObo_Xphu0x6NEzN6iCouVXrllW3tTDYsiZ8lJDIhfGvpV9ppr07Bh3JXxS29Z3tHkVfaYpSzaHtMBczD73J4y0FSwalz5GPtZNFQj0z9UMTdGuBavOO7xGBH69C1YjZWL2kWSLpbg0qr5fJ86ht3CisynQcWW74v0FLFkBg3oY2EHs9wChGfVs7Kg5WbyG0lE5tm9-_GYwwsEJa8RYgYKsQht5MNSCe2lQw_zSqqb4HjUXtQvpQXHsICxcLjDXcjFjLHVD1Fm00]--></g></svg>