<svg xmlns="http://www.w3.org/2000/svg" xmlns:xlink="http://www.w3.org/1999/xlink" contentStyleType="text/css" height="808.8px" preserveAspectRatio="none" style="width:3084px;height:808px;background:#FFFFFF;" version="1.1" viewBox="0 0 3084 808" width="3084.8px" zoomAndPan="magnify"><defs/><g><!--cluster shodrone--><g id="cluster_shodrone"><path d="M6.8,4.8109 L58.6234,4.8109 A3,3 0 0 1 60.6234,6.8109 L66.2234,24.5078 L3077.2,24.5078 A2,2 0 0 1 3079.2,26.5078 L3079.2,801.2109 A2,2 0 0 1 3077.2,803.2109 L6.8,803.2109 A2,2 0 0 1 4.8,801.2109 L4.8,6.8109 A2,2 0 0 1 6.8,4.8109 " fill="#D6EAF8" style="stroke:#000000;stroke-width:1.2000000000000002;"/><line style="stroke:#000000;stroke-width:1.2000000000000002;" x1="4.8" x2="66.2234" y1="24.5078" y2="24.5078"/><text fill="#000000" font-family="sans-serif" font-size="11.2" font-weight="bold" lengthAdjust="spacing" textLength="51.0234" x="8" y="18.4969">shodrone</text></g><!--cluster core--><g id="cluster_core"><path d="M26,40.8109 L50.4578,40.8109 A3,3 0 0 1 52.4578,42.8109 L58.0578,60.5078 L3058,60.5078 A2,2 0 0 1 3060,62.5078 L3060,782.0109 A2,2 0 0 1 3058,784.0109 L26,784.0109 A2,2 0 0 1 24,782.0109 L24,42.8109 A2,2 0 0 1 26,40.8109 " fill="#D6EAF8" style="stroke:#000000;stroke-width:1.2000000000000002;"/><line style="stroke:#000000;stroke-width:1.2000000000000002;" x1="24" x2="58.0578" y1="60.5078" y2="60.5078"/><text fill="#000000" font-family="sans-serif" font-size="11.2" font-weight="bold" lengthAdjust="spacing" textLength="23.6578" x="27.2" y="54.4969">core</text></g><!--cluster customermanagement--><g id="cluster_customermanagement"><path d="M1993.2,106.8109 L2113.5031,106.8109 A3,3 0 0 1 2115.5031,108.8109 L2121.1031,126.5078 L3038.8,126.5078 A2,2 0 0 1 3040.8,128.5078 L3040.8,762.8109 A2,2 0 0 1 3038.8,764.8109 L1993.2,764.8109 A2,2 0 0 1 1991.2,762.8109 L1991.2,108.8109 A2,2 0 0 1 1993.2,106.8109 " fill="#D6EAF8" style="stroke:#000000;stroke-width:1.2000000000000002;"/><line style="stroke:#000000;stroke-width:1.2000000000000002;" x1="1991.2" x2="2121.1031" y1="126.5078" y2="126.5078"/><text fill="#000000" font-family="sans-serif" font-size="11.2" font-weight="bold" lengthAdjust="spacing" textLength="119.5031" x="1994.4" y="120.4969">customermanagement</text></g><!--cluster domain--><g id="cluster_domain"><path d="M2012.4,327.2109 L2053.0234,327.2109 A3,3 0 0 1 2055.0234,329.2109 L2060.6234,346.9078 L2793.2,346.9078 A2,2 0 0 1 2795.2,348.9078 L2795.2,743.6109 A2,2 0 0 1 2793.2,745.6109 L2012.4,745.6109 A2,2 0 0 1 2010.4,743.6109 L2010.4,329.2109 A2,2 0 0 1 2012.4,327.2109 " fill="#D6EAF8" style="stroke:#000000;stroke-width:1.2000000000000002;"/><line style="stroke:#000000;stroke-width:1.2000000000000002;" x1="2010.4" x2="2060.6234" y1="346.9078" y2="346.9078"/><text fill="#000000" font-family="sans-serif" font-size="11.2" font-weight="bold" lengthAdjust="spacing" textLength="39.8234" x="2013.6" y="340.8969">domain</text><text fill="#000000" font-family="sans-serif" font-size="11.2" font-style="italic" lengthAdjust="spacing" textLength="64.143" x="2373.9285" y="360.5938">&#171;Aggregate&#187;</text></g><!--cluster service--><g id="cluster_service"><path d="M2185.2,142.8109 L2224.6148,142.8109 A3,3 0 0 1 2226.6148,144.8109 L2232.2148,162.5078 L3019.6,162.5078 A2,2 0 0 1 3021.6,164.5078 L3021.6,276.0109 A2,2 0 0 1 3019.6,278.0109 L2185.2,278.0109 A2,2 0 0 1 2183.2,276.0109 L2183.2,144.8109 A2,2 0 0 1 2185.2,142.8109 " fill="#D6EAF8" style="stroke:#000000;stroke-width:1.2000000000000002;"/><line style="stroke:#000000;stroke-width:1.2000000000000002;" x1="2183.2" x2="2232.2148" y1="162.5078" y2="162.5078"/><text fill="#000000" font-family="sans-serif" font-size="11.2" font-weight="bold" lengthAdjust="spacing" textLength="38.6148" x="2186.4" y="156.4969">service</text></g><!--cluster repository--><g id="cluster_repository"><path d="M2012.4,170.0109 L2067.9695,170.0109 A3,3 0 0 1 2069.9695,172.0109 L2075.5695,189.7078 L2162,189.7078 A2,2 0 0 1 2164,191.7078 L2164,248.8109 A2,2 0 0 1 2162,250.8109 L2012.4,250.8109 A2,2 0 0 1 2010.4,248.8109 L2010.4,172.0109 A2,2 0 0 1 2012.4,170.0109 " fill="#D6EAF8" style="stroke:#000000;stroke-width:1.2000000000000002;"/><line style="stroke:#000000;stroke-width:1.2000000000000002;" x1="2010.4" x2="2075.5695" y1="189.7078" y2="189.7078"/><text fill="#000000" font-family="sans-serif" font-size="11.2" font-weight="bold" lengthAdjust="spacing" textLength="54.7695" x="2013.6" y="183.6969">repository</text></g><!--cluster showproposalmanagement--><g id="cluster_showproposalmanagement"><path d="M45.2,76.8109 L191.0039,76.8109 A3,3 0 0 1 193.0039,78.8109 L198.6039,96.5078 L1013.2,96.5078 A2,2 0 0 1 1015.2,98.5078 L1015.2,621.6109 A2,2 0 0 1 1013.2,623.6109 L45.2,623.6109 A2,2 0 0 1 43.2,621.6109 L43.2,78.8109 A2,2 0 0 1 45.2,76.8109 " fill="#D6EAF8" style="stroke:#000000;stroke-width:1.2000000000000002;"/><line style="stroke:#000000;stroke-width:1.2000000000000002;" x1="43.2" x2="198.6039" y1="96.5078" y2="96.5078"/><text fill="#000000" font-family="sans-serif" font-size="11.2" font-weight="bold" lengthAdjust="spacing" textLength="145.0039" x="46.4" y="90.4969">showproposalmanagement</text></g><!--cluster domain--><g id="cluster_domain"><path d="M64.4,327.2109 L105.0234,327.2109 A3,3 0 0 1 107.0234,329.2109 L112.6234,346.9078 L994,346.9078 A2,2 0 0 1 996,348.9078 L996,602.4109 A2,2 0 0 1 994,604.4109 L64.4,604.4109 A2,2 0 0 1 62.4,602.4109 L62.4,329.2109 A2,2 0 0 1 64.4,327.2109 " fill="#D6EAF8" style="stroke:#000000;stroke-width:1.2000000000000002;"/><line style="stroke:#000000;stroke-width:1.2000000000000002;" x1="62.4" x2="112.6234" y1="346.9078" y2="346.9078"/><text fill="#000000" font-family="sans-serif" font-size="11.2" font-weight="bold" lengthAdjust="spacing" textLength="39.8234" x="65.6" y="340.8969">domain</text><text fill="#000000" font-family="sans-serif" font-size="11.2" font-style="italic" lengthAdjust="spacing" textLength="64.143" x="500.3285" y="360.5938">&#171;Aggregate&#187;</text></g><!--cluster service--><g id="cluster_service"><path d="M509.2,112.8109 L548.6148,112.8109 A3,3 0 0 1 550.6148,114.8109 L556.2148,132.5078 L881.2,132.5078 A2,2 0 0 1 883.2,134.5078 L883.2,306.0109 A2,2 0 0 1 881.2,308.0109 L509.2,308.0109 A2,2 0 0 1 507.2,306.0109 L507.2,114.8109 A2,2 0 0 1 509.2,112.8109 " fill="#D6EAF8" style="stroke:#000000;stroke-width:1.2000000000000002;"/><line style="stroke:#000000;stroke-width:1.2000000000000002;" x1="507.2" x2="556.2148" y1="132.5078" y2="132.5078"/><text fill="#000000" font-family="sans-serif" font-size="11.2" font-weight="bold" lengthAdjust="spacing" textLength="38.6148" x="510.4" y="126.4969">service</text></g><!--cluster repository--><g id="cluster_repository"><path d="M312.4,170.0109 L367.9695,170.0109 A3,3 0 0 1 369.9695,172.0109 L375.5695,189.7078 L486,189.7078 A2,2 0 0 1 488,191.7078 L488,248.8109 A2,2 0 0 1 486,250.8109 L312.4,250.8109 A2,2 0 0 1 310.4,248.8109 L310.4,172.0109 A2,2 0 0 1 312.4,170.0109 " fill="#D6EAF8" style="stroke:#000000;stroke-width:1.2000000000000002;"/><line style="stroke:#000000;stroke-width:1.2000000000000002;" x1="310.4" x2="375.5695" y1="189.7078" y2="189.7078"/><text fill="#000000" font-family="sans-serif" font-size="11.2" font-weight="bold" lengthAdjust="spacing" textLength="54.7695" x="313.6" y="183.6969">repository</text></g><!--cluster showrequestmanagement--><g id="cluster_showrequestmanagement"><path d="M1036.4,84.4109 L1175.368,84.4109 A3,3 0 0 1 1177.368,86.4109 L1182.968,104.1078 L1970,104.1078 A2,2 0 0 1 1972,106.1078 L1972,636.4109 A2,2 0 0 1 1970,638.4109 L1036.4,638.4109 A2,2 0 0 1 1034.4,636.4109 L1034.4,86.4109 A2,2 0 0 1 1036.4,84.4109 " fill="#D6EAF8" style="stroke:#000000;stroke-width:1.2000000000000002;"/><line style="stroke:#000000;stroke-width:1.2000000000000002;" x1="1034.4" x2="1182.968" y1="104.1078" y2="104.1078"/><text fill="#000000" font-family="sans-serif" font-size="11.2" font-weight="bold" lengthAdjust="spacing" textLength="138.168" x="1037.6" y="98.0969">showrequestmanagement</text></g><!--cluster domain--><g id="cluster_domain"><path d="M1055.6,327.2109 L1096.2234,327.2109 A3,3 0 0 1 1098.2234,329.2109 L1103.8234,346.9078 L1950.8,346.9078 A2,2 0 0 1 1952.8,348.9078 L1952.8,617.2109 A2,2 0 0 1 1950.8,619.2109 L1055.6,619.2109 A2,2 0 0 1 1053.6,617.2109 L1053.6,329.2109 A2,2 0 0 1 1055.6,327.2109 " fill="#D6EAF8" style="stroke:#000000;stroke-width:1.2000000000000002;"/><line style="stroke:#000000;stroke-width:1.2000000000000002;" x1="1053.6" x2="1103.8234" y1="346.9078" y2="346.9078"/><text fill="#000000" font-family="sans-serif" font-size="11.2" font-weight="bold" lengthAdjust="spacing" textLength="39.8234" x="1056.8" y="340.8969">domain</text><text fill="#000000" font-family="sans-serif" font-size="11.2" font-style="italic" lengthAdjust="spacing" textLength="64.143" x="1474.3285" y="360.5938">&#171;Aggregate&#187;</text></g><!--cluster service--><g id="cluster_service"><path d="M1239.6,120.4109 L1279.0148,120.4109 A3,3 0 0 1 1281.0148,122.4109 L1286.6148,140.1078 L1627.6,140.1078 A2,2 0 0 1 1629.6,142.1078 L1629.6,298.4109 A2,2 0 0 1 1627.6,300.4109 L1239.6,300.4109 A2,2 0 0 1 1237.6,298.4109 L1237.6,122.4109 A2,2 0 0 1 1239.6,120.4109 " fill="#D6EAF8" style="stroke:#000000;stroke-width:1.2000000000000002;"/><line style="stroke:#000000;stroke-width:1.2000000000000002;" x1="1237.6" x2="1286.6148" y1="140.1078" y2="140.1078"/><text fill="#000000" font-family="sans-serif" font-size="11.2" font-weight="bold" lengthAdjust="spacing" textLength="38.6148" x="1240.8" y="134.0969">service</text></g><!--cluster repository--><g id="cluster_repository"><path d="M1650.8,170.0109 L1706.3695,170.0109 A3,3 0 0 1 1708.3695,172.0109 L1713.9695,189.7078 L1821.2,189.7078 A2,2 0 0 1 1823.2,191.7078 L1823.2,248.8109 A2,2 0 0 1 1821.2,250.8109 L1650.8,250.8109 A2,2 0 0 1 1648.8,248.8109 L1648.8,172.0109 A2,2 0 0 1 1650.8,170.0109 " fill="#D6EAF8" style="stroke:#000000;stroke-width:1.2000000000000002;"/><line style="stroke:#000000;stroke-width:1.2000000000000002;" x1="1648.8" x2="1713.9695" y1="189.7078" y2="189.7078"/><text fill="#000000" font-family="sans-serif" font-size="11.2" font-weight="bold" lengthAdjust="spacing" textLength="54.7695" x="1652" y="183.6969">repository</text></g><!--class Customer--><g id="elem_Customer"><rect codeLine="14" fill="#F1F1F1" height="48.4656" id="Customer" rx="2" ry="2" style="stroke:#181818;stroke-width:0.4000000000000001;" width="127.0016" x="2383.6" y="372.0109"/><ellipse cx="2395.6" cy="389.8438" fill="#ADD1B2" rx="8.8" ry="8.8" style="stroke:#181818;stroke-width:0.8000000000000002;"/><path d="M2397.8125,386.5438 Q2397.9375,386.3688 2398.0875,386.2813 Q2398.2375,386.1938 2398.4125,386.1938 Q2398.7125,386.1938 2398.9,386.4063 Q2399.0875,386.6063 2399.0875,387.0938 L2399.0875,388.2563 Q2399.0875,388.7438 2398.9,388.9563 Q2398.7125,389.1688 2398.4125,389.1688 Q2398.1375,389.1688 2397.975,389.0063 Q2397.8125,388.8563 2397.725,388.4438 Q2397.6875,388.1563 2397.5375,388.0063 Q2397.275,387.7063 2396.7875,387.5313 Q2396.3,387.3563 2395.8,387.3563 Q2395.1875,387.3563 2394.675,387.6188 Q2394.175,387.8813 2393.775,388.4813 Q2393.3875,389.0813 2393.3875,389.9063 L2393.3875,390.7813 Q2393.3875,391.7688 2394.1,392.4313 Q2394.8125,393.0813 2396.0875,393.0813 Q2396.8375,393.0813 2397.3625,392.8813 Q2397.675,392.7563 2398.0125,392.4063 Q2398.225,392.1938 2398.3375,392.1313 Q2398.4625,392.0688 2398.625,392.0688 Q2398.8875,392.0688 2399.0875,392.2813 Q2399.3,392.4813 2399.3,392.7563 Q2399.3,393.0313 2399.025,393.3563 Q2398.625,393.8188 2397.9875,394.0813 Q2397.125,394.4438 2396.0875,394.4438 Q2394.875,394.4438 2393.9125,393.9438 Q2393.125,393.5438 2392.575,392.6938 Q2392.025,391.8313 2392.025,390.8063 L2392.025,389.8813 Q2392.025,388.8188 2392.5125,387.9063 Q2393.0125,386.9813 2393.8875,386.4938 Q2394.7625,385.9938 2395.75,385.9938 Q2396.3375,385.9938 2396.85,386.1313 Q2397.375,386.2563 2397.8125,386.5438 Z " fill="#000000"/><text fill="#000000" font-family="sans-serif" font-size="9.6" font-style="italic" lengthAdjust="spacing" textLength="104.6016" x="2405.2" y="386.3703">&#171;Entity, AggregateRoot&#187;</text><text fill="#000000" font-family="sans-serif" font-size="11.2" lengthAdjust="spacing" textLength="48.5461" x="2433.2277" y="400.8656">Customer</text><line style="stroke:#181818;stroke-width:0.4000000000000001;" x1="2384.4" x2="2509.8016" y1="407.6766" y2="407.6766"/><line style="stroke:#181818;stroke-width:0.4000000000000001;" x1="2384.4" x2="2509.8016" y1="414.0766" y2="414.0766"/></g><!--class CustomerName--><g id="elem_CustomerName"><rect codeLine="15" fill="#F1F1F1" height="48.4656" id="CustomerName" rx="2" ry="2" style="stroke:#181818;stroke-width:0.4000000000000001;" width="104.0219" x="2271.2" y="513.2109"/><ellipse cx="2283.2" cy="531.0438" fill="#ADD1B2" rx="8.8" ry="8.8" style="stroke:#181818;stroke-width:0.8000000000000002;"/><path d="M2285.4125,527.7438 Q2285.5375,527.5688 2285.6875,527.4813 Q2285.8375,527.3938 2286.0125,527.3938 Q2286.3125,527.3938 2286.5,527.6063 Q2286.6875,527.8063 2286.6875,528.2938 L2286.6875,529.4563 Q2286.6875,529.9438 2286.5,530.1563 Q2286.3125,530.3688 2286.0125,530.3688 Q2285.7375,530.3688 2285.575,530.2063 Q2285.4125,530.0563 2285.325,529.6438 Q2285.2875,529.3563 2285.1375,529.2063 Q2284.875,528.9063 2284.3875,528.7313 Q2283.9,528.5563 2283.4,528.5563 Q2282.7875,528.5563 2282.275,528.8188 Q2281.775,529.0813 2281.375,529.6813 Q2280.9875,530.2813 2280.9875,531.1063 L2280.9875,531.9813 Q2280.9875,532.9688 2281.7,533.6313 Q2282.4125,534.2813 2283.6875,534.2813 Q2284.4375,534.2813 2284.9625,534.0813 Q2285.275,533.9563 2285.6125,533.6063 Q2285.825,533.3938 2285.9375,533.3313 Q2286.0625,533.2688 2286.225,533.2688 Q2286.4875,533.2688 2286.6875,533.4813 Q2286.9,533.6813 2286.9,533.9563 Q2286.9,534.2313 2286.625,534.5563 Q2286.225,535.0188 2285.5875,535.2813 Q2284.725,535.6438 2283.6875,535.6438 Q2282.475,535.6438 2281.5125,535.1438 Q2280.725,534.7438 2280.175,533.8938 Q2279.625,533.0313 2279.625,532.0063 L2279.625,531.0813 Q2279.625,530.0188 2280.1125,529.1063 Q2280.6125,528.1813 2281.4875,527.6938 Q2282.3625,527.1938 2283.35,527.1938 Q2283.9375,527.1938 2284.45,527.3313 Q2284.975,527.4563 2285.4125,527.7438 Z " fill="#000000"/><text fill="#000000" font-family="sans-serif" font-size="9.6" font-style="italic" lengthAdjust="spacing" textLength="62.9766" x="2302.1227" y="527.5703">&#171;ValueObject&#187;</text><text fill="#000000" font-family="sans-serif" font-size="11.2" lengthAdjust="spacing" textLength="78.4219" x="2294.4" y="542.0656">CustomerName</text><line style="stroke:#181818;stroke-width:0.4000000000000001;" x1="2272" x2="2374.4219" y1="548.8766" y2="548.8766"/><line style="stroke:#181818;stroke-width:0.4000000000000001;" x1="2272" x2="2374.4219" y1="555.2766" y2="555.2766"/></g><!--class CustomerID--><g id="elem_CustomerID"><rect codeLine="16" fill="#F1F1F1" height="48.4656" id="CustomerID" rx="2" ry="2" style="stroke:#181818;stroke-width:0.4000000000000001;" width="85.3766" x="2023.6" y="513.2109"/><ellipse cx="2035.6" cy="531.0438" fill="#ADD1B2" rx="8.8" ry="8.8" style="stroke:#181818;stroke-width:0.8000000000000002;"/><path d="M2037.8125,527.7438 Q2037.9375,527.5688 2038.0875,527.4813 Q2038.2375,527.3938 2038.4125,527.3938 Q2038.7125,527.3938 2038.9,527.6063 Q2039.0875,527.8063 2039.0875,528.2938 L2039.0875,529.4563 Q2039.0875,529.9438 2038.9,530.1563 Q2038.7125,530.3688 2038.4125,530.3688 Q2038.1375,530.3688 2037.975,530.2063 Q2037.8125,530.0563 2037.725,529.6438 Q2037.6875,529.3563 2037.5375,529.2063 Q2037.275,528.9063 2036.7875,528.7313 Q2036.3,528.5563 2035.8,528.5563 Q2035.1875,528.5563 2034.675,528.8188 Q2034.175,529.0813 2033.775,529.6813 Q2033.3875,530.2813 2033.3875,531.1063 L2033.3875,531.9813 Q2033.3875,532.9688 2034.1,533.6313 Q2034.8125,534.2813 2036.0875,534.2813 Q2036.8375,534.2813 2037.3625,534.0813 Q2037.675,533.9563 2038.0125,533.6063 Q2038.225,533.3938 2038.3375,533.3313 Q2038.4625,533.2688 2038.625,533.2688 Q2038.8875,533.2688 2039.0875,533.4813 Q2039.3,533.6813 2039.3,533.9563 Q2039.3,534.2313 2039.025,534.5563 Q2038.625,535.0188 2037.9875,535.2813 Q2037.125,535.6438 2036.0875,535.6438 Q2034.875,535.6438 2033.9125,535.1438 Q2033.125,534.7438 2032.575,533.8938 Q2032.025,533.0313 2032.025,532.0063 L2032.025,531.0813 Q2032.025,530.0188 2032.5125,529.1063 Q2033.0125,528.1813 2033.8875,527.6938 Q2034.7625,527.1938 2035.75,527.1938 Q2036.3375,527.1938 2036.85,527.3313 Q2037.375,527.4563 2037.8125,527.7438 Z " fill="#000000"/><text fill="#000000" font-family="sans-serif" font-size="9.6" font-style="italic" lengthAdjust="spacing" textLength="62.9766" x="2045.2" y="527.5703">&#171;ValueObject&#187;</text><text fill="#000000" font-family="sans-serif" font-size="11.2" lengthAdjust="spacing" textLength="59.7461" x="2046.8152" y="542.0656">CustomerID</text><line style="stroke:#181818;stroke-width:0.4000000000000001;" x1="2024.4" x2="2108.1766" y1="548.8766" y2="548.8766"/><line style="stroke:#181818;stroke-width:0.4000000000000001;" x1="2024.4" x2="2108.1766" y1="555.2766" y2="555.2766"/></g><!--class VATNumber--><g id="elem_VATNumber"><rect codeLine="17" fill="#F1F1F1" height="48.4656" id="VATNumber" rx="2" ry="2" style="stroke:#181818;stroke-width:0.4000000000000001;" width="87.2164" x="2403.6" y="513.2109"/><ellipse cx="2415.6" cy="531.0438" fill="#ADD1B2" rx="8.8" ry="8.8" style="stroke:#181818;stroke-width:0.8000000000000002;"/><path d="M2417.8125,527.7438 Q2417.9375,527.5688 2418.0875,527.4813 Q2418.2375,527.3938 2418.4125,527.3938 Q2418.7125,527.3938 2418.9,527.6063 Q2419.0875,527.8063 2419.0875,528.2938 L2419.0875,529.4563 Q2419.0875,529.9438 2418.9,530.1563 Q2418.7125,530.3688 2418.4125,530.3688 Q2418.1375,530.3688 2417.975,530.2063 Q2417.8125,530.0563 2417.725,529.6438 Q2417.6875,529.3563 2417.5375,529.2063 Q2417.275,528.9063 2416.7875,528.7313 Q2416.3,528.5563 2415.8,528.5563 Q2415.1875,528.5563 2414.675,528.8188 Q2414.175,529.0813 2413.775,529.6813 Q2413.3875,530.2813 2413.3875,531.1063 L2413.3875,531.9813 Q2413.3875,532.9688 2414.1,533.6313 Q2414.8125,534.2813 2416.0875,534.2813 Q2416.8375,534.2813 2417.3625,534.0813 Q2417.675,533.9563 2418.0125,533.6063 Q2418.225,533.3938 2418.3375,533.3313 Q2418.4625,533.2688 2418.625,533.2688 Q2418.8875,533.2688 2419.0875,533.4813 Q2419.3,533.6813 2419.3,533.9563 Q2419.3,534.2313 2419.025,534.5563 Q2418.625,535.0188 2417.9875,535.2813 Q2417.125,535.6438 2416.0875,535.6438 Q2414.875,535.6438 2413.9125,535.1438 Q2413.125,534.7438 2412.575,533.8938 Q2412.025,533.0313 2412.025,532.0063 L2412.025,531.0813 Q2412.025,530.0188 2412.5125,529.1063 Q2413.0125,528.1813 2413.8875,527.6938 Q2414.7625,527.1938 2415.75,527.1938 Q2416.3375,527.1938 2416.85,527.3313 Q2417.375,527.4563 2417.8125,527.7438 Z " fill="#000000"/><text fill="#000000" font-family="sans-serif" font-size="9.6" font-style="italic" lengthAdjust="spacing" textLength="62.9766" x="2426.1199" y="527.5703">&#171;ValueObject&#187;</text><text fill="#000000" font-family="sans-serif" font-size="11.2" lengthAdjust="spacing" textLength="61.6164" x="2426.8" y="542.0656">VATNumber</text><line style="stroke:#181818;stroke-width:0.4000000000000001;" x1="2404.4" x2="2490.0164" y1="548.8766" y2="548.8766"/><line style="stroke:#181818;stroke-width:0.4000000000000001;" x1="2404.4" x2="2490.0164" y1="555.2766" y2="555.2766"/></g><!--class Address--><g id="elem_Address"><rect codeLine="18" fill="#F1F1F1" height="48.4656" id="Address" rx="2" ry="2" style="stroke:#181818;stroke-width:0.4000000000000001;" width="85.3766" x="2518.8" y="513.2109"/><ellipse cx="2530.8" cy="531.0438" fill="#ADD1B2" rx="8.8" ry="8.8" style="stroke:#181818;stroke-width:0.8000000000000002;"/><path d="M2533.0125,527.7438 Q2533.1375,527.5688 2533.2875,527.4813 Q2533.4375,527.3938 2533.6125,527.3938 Q2533.9125,527.3938 2534.1,527.6063 Q2534.2875,527.8063 2534.2875,528.2938 L2534.2875,529.4563 Q2534.2875,529.9438 2534.1,530.1563 Q2533.9125,530.3688 2533.6125,530.3688 Q2533.3375,530.3688 2533.175,530.2063 Q2533.0125,530.0563 2532.925,529.6438 Q2532.8875,529.3563 2532.7375,529.2063 Q2532.475,528.9063 2531.9875,528.7313 Q2531.5,528.5563 2531,528.5563 Q2530.3875,528.5563 2529.875,528.8188 Q2529.375,529.0813 2528.975,529.6813 Q2528.5875,530.2813 2528.5875,531.1063 L2528.5875,531.9813 Q2528.5875,532.9688 2529.3,533.6313 Q2530.0125,534.2813 2531.2875,534.2813 Q2532.0375,534.2813 2532.5625,534.0813 Q2532.875,533.9563 2533.2125,533.6063 Q2533.425,533.3938 2533.5375,533.3313 Q2533.6625,533.2688 2533.825,533.2688 Q2534.0875,533.2688 2534.2875,533.4813 Q2534.5,533.6813 2534.5,533.9563 Q2534.5,534.2313 2534.225,534.5563 Q2533.825,535.0188 2533.1875,535.2813 Q2532.325,535.6438 2531.2875,535.6438 Q2530.075,535.6438 2529.1125,535.1438 Q2528.325,534.7438 2527.775,533.8938 Q2527.225,533.0313 2527.225,532.0063 L2527.225,531.0813 Q2527.225,530.0188 2527.7125,529.1063 Q2528.2125,528.1813 2529.0875,527.6938 Q2529.9625,527.1938 2530.95,527.1938 Q2531.5375,527.1938 2532.05,527.3313 Q2532.575,527.4563 2533.0125,527.7438 Z " fill="#000000"/><text fill="#000000" font-family="sans-serif" font-size="9.6" font-style="italic" lengthAdjust="spacing" textLength="62.9766" x="2540.4" y="527.5703">&#171;ValueObject&#187;</text><text fill="#000000" font-family="sans-serif" font-size="11.2" lengthAdjust="spacing" textLength="41.0867" x="2551.3449" y="542.0656">Address</text><line style="stroke:#181818;stroke-width:0.4000000000000001;" x1="2519.6" x2="2603.3766" y1="548.8766" y2="548.8766"/><line style="stroke:#181818;stroke-width:0.4000000000000001;" x1="2519.6" x2="2603.3766" y1="555.2766" y2="555.2766"/></g><!--class CustomerRepresentative--><g id="elem_CustomerRepresentative"><rect codeLine="20" fill="#F1F1F1" height="63.3625" id="CustomerRepresentative" rx="2" ry="2" style="stroke:#181818;stroke-width:0.4000000000000001;" width="149.4781" x="2632.4" y="506.0109"/><ellipse cx="2644.4" cy="523.8438" fill="#ADD1B2" rx="8.8" ry="8.8" style="stroke:#181818;stroke-width:0.8000000000000002;"/><path d="M2646.6125,520.5438 Q2646.7375,520.3688 2646.8875,520.2813 Q2647.0375,520.1938 2647.2125,520.1938 Q2647.5125,520.1938 2647.7,520.4063 Q2647.8875,520.6063 2647.8875,521.0938 L2647.8875,522.2563 Q2647.8875,522.7438 2647.7,522.9563 Q2647.5125,523.1688 2647.2125,523.1688 Q2646.9375,523.1688 2646.775,523.0063 Q2646.6125,522.8563 2646.525,522.4438 Q2646.4875,522.1563 2646.3375,522.0063 Q2646.075,521.7063 2645.5875,521.5313 Q2645.1,521.3563 2644.6,521.3563 Q2643.9875,521.3563 2643.475,521.6188 Q2642.975,521.8813 2642.575,522.4813 Q2642.1875,523.0813 2642.1875,523.9063 L2642.1875,524.7813 Q2642.1875,525.7688 2642.9,526.4313 Q2643.6125,527.0813 2644.8875,527.0813 Q2645.6375,527.0813 2646.1625,526.8813 Q2646.475,526.7563 2646.8125,526.4063 Q2647.025,526.1938 2647.1375,526.1313 Q2647.2625,526.0688 2647.425,526.0688 Q2647.6875,526.0688 2647.8875,526.2813 Q2648.1,526.4813 2648.1,526.7563 Q2648.1,527.0313 2647.825,527.3563 Q2647.425,527.8188 2646.7875,528.0813 Q2645.925,528.4438 2644.8875,528.4438 Q2643.675,528.4438 2642.7125,527.9438 Q2641.925,527.5438 2641.375,526.6938 Q2640.825,525.8313 2640.825,524.8063 L2640.825,523.8813 Q2640.825,522.8188 2641.3125,521.9063 Q2641.8125,520.9813 2642.6875,520.4938 Q2643.5625,519.9938 2644.55,519.9938 Q2645.1375,519.9938 2645.65,520.1313 Q2646.175,520.2563 2646.6125,520.5438 Z " fill="#000000"/><text fill="#000000" font-family="sans-serif" font-size="9.6" font-style="italic" lengthAdjust="spacing" textLength="34.6875" x="2700.1953" y="520.3703">&#171;Entity&#187;</text><text fill="#000000" font-family="sans-serif" font-size="11.2" lengthAdjust="spacing" textLength="123.8781" x="2655.6" y="534.8656">CustomerRepresentative</text><line style="stroke:#181818;stroke-width:0.4000000000000001;" x1="2633.2" x2="2781.0781" y1="541.6766" y2="541.6766"/><rect fill="none" height="4.8" style="stroke:#C82930;stroke-width:0.8000000000000002;" width="4.8" x="2638.8" y="551.125"/><text fill="#000000" font-family="sans-serif" font-size="11.2" lengthAdjust="spacing" textLength="70.9734" x="2648.4" y="556.9625">String position</text><line style="stroke:#181818;stroke-width:0.4000000000000001;" x1="2633.2" x2="2781.0781" y1="562.9734" y2="562.9734"/></g><!--class CustomerStatus--><g id="elem_CustomerStatus"><rect codeLine="24" fill="#F1F1F1" height="122.95" id="CustomerStatus" rx="2" ry="2" style="stroke:#181818;stroke-width:0.4000000000000001;" width="105.8977" x="2137.6" y="476.0109"/><ellipse cx="2149.6" cy="493.8438" fill="#EB937F" rx="8.8" ry="8.8" style="stroke:#181818;stroke-width:0.8000000000000002;"/><path d="M2148.6875,494.4813 L2148.6875,496.4813 L2152.15,496.4813 L2152.15,495.7438 Q2152.15,495.2563 2152.3375,495.0438 Q2152.5375,494.8313 2152.8375,494.8313 Q2153.1375,494.8313 2153.325,495.0438 Q2153.5125,495.2563 2153.5125,495.7438 L2153.5125,497.8438 L2147.1125,497.8438 Q2146.6125,497.8438 2146.4,497.6563 Q2146.2,497.4688 2146.2,497.1563 Q2146.2,496.8563 2146.4125,496.6688 Q2146.625,496.4813 2147.1125,496.4813 L2147.325,496.4813 L2147.325,491.1563 L2147.1125,491.1563 Q2146.6125,491.1563 2146.4,490.9688 Q2146.2,490.7813 2146.2,490.4688 Q2146.2,490.1688 2146.4,489.9813 Q2146.6125,489.7938 2147.1125,489.7938 L2153.2125,489.7938 L2153.2125,491.8688 Q2153.2125,492.3563 2153.025,492.5688 Q2152.85,492.7688 2152.5375,492.7688 Q2152.2375,492.7688 2152.05,492.5688 Q2151.8625,492.3563 2151.8625,491.8688 L2151.8625,491.1563 L2148.6875,491.1563 L2148.6875,493.1188 L2149.875,493.1188 Q2149.875,492.5938 2149.975,492.4438 Q2150.1875,492.1188 2150.5625,492.1188 Q2150.8625,492.1188 2151.05,492.3313 Q2151.2375,492.5313 2151.2375,493.0188 L2151.2375,494.5938 Q2151.2375,495.0313 2151.1375,495.1813 Q2150.925,495.4938 2150.5625,495.4938 Q2150.1875,495.4938 2149.975,495.1688 Q2149.875,495.0188 2149.875,494.4813 L2148.6875,494.4813 Z " fill="#000000"/><text fill="#000000" font-family="sans-serif" font-size="9.6" font-style="italic" lengthAdjust="spacing" textLength="35.7563" x="2183.0707" y="490.3703">&#171;Enum&#187;</text><text fill="#000000" font-family="sans-serif" font-size="11.2" lengthAdjust="spacing" textLength="80.2977" x="2160.8" y="504.8656">CustomerStatus</text><line style="stroke:#181818;stroke-width:0.4000000000000001;" x1="2138.4" x2="2242.6977" y1="511.6766" y2="511.6766"/><text fill="#000000" font-family="sans-serif" font-size="11.2" lengthAdjust="spacing" textLength="57.2578" x="2142.4" y="526.9625">REGULAR,</text><text fill="#000000" font-family="sans-serif" font-size="11.2" lengthAdjust="spacing" textLength="21.1641" x="2142.4" y="541.8594">VIP,</text><text fill="#000000" font-family="sans-serif" font-size="11.2" lengthAdjust="spacing" textLength="88.3531" x="2142.4" y="556.7563">INFRINGEMENT,</text><text fill="#000000" font-family="sans-serif" font-size="11.2" lengthAdjust="spacing" textLength="54.7695" x="2142.4" y="571.6531">DELETED,</text><text fill="#000000" font-family="sans-serif" font-size="11.2" lengthAdjust="spacing" textLength="53.5172" x="2142.4" y="586.55">CREATED</text><line style="stroke:#181818;stroke-width:0.4000000000000001;" x1="2138.4" x2="2242.6977" y1="592.5609" y2="592.5609"/></g><!--class CustomerRepresentativeStatus--><g id="elem_CustomerRepresentativeStatus"><rect codeLine="32" fill="#F1F1F1" height="78.2594" id="CustomerRepresentativeStatus" rx="2" ry="2" style="stroke:#181818;stroke-width:0.4000000000000001;" width="181.2297" x="2600.4" y="654.4109"/><ellipse cx="2612.4" cy="672.2438" fill="#EB937F" rx="8.8" ry="8.8" style="stroke:#181818;stroke-width:0.8000000000000002;"/><path d="M2611.4875,672.8813 L2611.4875,674.8813 L2614.95,674.8813 L2614.95,674.1438 Q2614.95,673.6563 2615.1375,673.4438 Q2615.3375,673.2313 2615.6375,673.2313 Q2615.9375,673.2313 2616.125,673.4438 Q2616.3125,673.6563 2616.3125,674.1438 L2616.3125,676.2438 L2609.9125,676.2438 Q2609.4125,676.2438 2609.2,676.0563 Q2609,675.8688 2609,675.5563 Q2609,675.2563 2609.2125,675.0688 Q2609.425,674.8813 2609.9125,674.8813 L2610.125,674.8813 L2610.125,669.5563 L2609.9125,669.5563 Q2609.4125,669.5563 2609.2,669.3688 Q2609,669.1813 2609,668.8688 Q2609,668.5688 2609.2,668.3813 Q2609.4125,668.1938 2609.9125,668.1938 L2616.0125,668.1938 L2616.0125,670.2688 Q2616.0125,670.7563 2615.825,670.9688 Q2615.65,671.1688 2615.3375,671.1688 Q2615.0375,671.1688 2614.85,670.9688 Q2614.6625,670.7563 2614.6625,670.2688 L2614.6625,669.5563 L2611.4875,669.5563 L2611.4875,671.5188 L2612.675,671.5188 Q2612.675,670.9938 2612.775,670.8438 Q2612.9875,670.5188 2613.3625,670.5188 Q2613.6625,670.5188 2613.85,670.7313 Q2614.0375,670.9313 2614.0375,671.4188 L2614.0375,672.9938 Q2614.0375,673.4313 2613.9375,673.5813 Q2613.725,673.8938 2613.3625,673.8938 Q2612.9875,673.8938 2612.775,673.5688 Q2612.675,673.4188 2612.675,672.8813 L2611.4875,672.8813 Z " fill="#000000"/><text fill="#000000" font-family="sans-serif" font-size="9.6" font-style="italic" lengthAdjust="spacing" textLength="35.7563" x="2683.5367" y="668.7703">&#171;Enum&#187;</text><text fill="#000000" font-family="sans-serif" font-size="11.2" lengthAdjust="spacing" textLength="155.6297" x="2623.6" y="683.2656">CustomerRepresentativeStatus</text><line style="stroke:#181818;stroke-width:0.4000000000000001;" x1="2601.2" x2="2780.8297" y1="690.0766" y2="690.0766"/><text fill="#000000" font-family="sans-serif" font-size="11.2" lengthAdjust="spacing" textLength="65.9641" x="2605.2" y="705.3625">ACTIVATED,</text><text fill="#000000" font-family="sans-serif" font-size="11.2" lengthAdjust="spacing" textLength="55.3984" x="2605.2" y="720.2594">DISABLED</text><line style="stroke:#181818;stroke-width:0.4000000000000001;" x1="2601.2" x2="2780.8297" y1="726.2703" y2="726.2703"/></g><!--class CustomerService--><g id="elem_CustomerService"><rect codeLine="41" fill="#F1F1F1" height="78.2594" id="CustomerService" rx="2" ry="2" style="stroke:#181818;stroke-width:0.4000000000000001;" width="229.3781" x="2778.8" y="179.6109"/><ellipse cx="2847.143" cy="197.4438" fill="#ADD1B2" rx="8.8" ry="8.8" style="stroke:#181818;stroke-width:0.8000000000000002;"/><path d="M2849.3555,194.1438 Q2849.4805,193.9688 2849.6305,193.8813 Q2849.7805,193.7938 2849.9555,193.7938 Q2850.2555,193.7938 2850.443,194.0063 Q2850.6305,194.2063 2850.6305,194.6938 L2850.6305,195.8563 Q2850.6305,196.3438 2850.443,196.5563 Q2850.2555,196.7688 2849.9555,196.7688 Q2849.6805,196.7688 2849.518,196.6063 Q2849.3555,196.4563 2849.268,196.0438 Q2849.2305,195.7563 2849.0805,195.6063 Q2848.818,195.3063 2848.3305,195.1313 Q2847.843,194.9563 2847.343,194.9563 Q2846.7305,194.9563 2846.218,195.2188 Q2845.718,195.4813 2845.318,196.0813 Q2844.9305,196.6813 2844.9305,197.5063 L2844.9305,198.3813 Q2844.9305,199.3688 2845.643,200.0313 Q2846.3555,200.6813 2847.6305,200.6813 Q2848.3805,200.6813 2848.9055,200.4813 Q2849.218,200.3563 2849.5555,200.0063 Q2849.768,199.7938 2849.8805,199.7313 Q2850.0055,199.6688 2850.168,199.6688 Q2850.4305,199.6688 2850.6305,199.8813 Q2850.843,200.0813 2850.843,200.3563 Q2850.843,200.6313 2850.568,200.9563 Q2850.168,201.4188 2849.5305,201.6813 Q2848.668,202.0438 2847.6305,202.0438 Q2846.418,202.0438 2845.4555,201.5438 Q2844.668,201.1438 2844.118,200.2938 Q2843.568,199.4313 2843.568,198.4063 L2843.568,197.4813 Q2843.568,196.4188 2844.0555,195.5063 Q2844.5555,194.5813 2845.4305,194.0938 Q2846.3055,193.5938 2847.293,193.5938 Q2847.8805,193.5938 2848.393,193.7313 Q2848.918,193.8563 2849.3555,194.1438 Z " fill="#000000"/><text fill="#000000" font-family="sans-serif" font-size="9.6" font-style="italic" lengthAdjust="spacing" textLength="75.7688" x="2868.6047" y="193.9703">&#171;DomainService&#187;</text><text fill="#000000" font-family="sans-serif" font-size="11.2" lengthAdjust="spacing" textLength="85.8922" x="2863.543" y="208.4656">CustomerService</text><line style="stroke:#181818;stroke-width:0.4000000000000001;" x1="2779.6" x2="3007.3781" y1="215.2766" y2="215.2766"/><text fill="#000000" font-family="sans-serif" font-size="11.2" lengthAdjust="spacing" textLength="176.143" x="2783.6" y="230.5625">Determines customer priority status</text><text fill="#000000" font-family="sans-serif" font-size="11.2" lengthAdjust="spacing" textLength="219.7781" x="2783.6" y="245.4594">based on customer data and business rules.</text><line style="stroke:#181818;stroke-width:0.4000000000000001;" x1="2779.6" x2="3007.3781" y1="251.4703" y2="251.4703"/></g><!--class CustomerRepresentativeService--><g id="elem_CustomerRepresentativeService"><rect codeLine="46" fill="#F1F1F1" height="93.1563" id="CustomerRepresentativeService" rx="2" ry="2" style="stroke:#181818;stroke-width:0.4000000000000001;" width="554.3148" x="2196.4" y="172.4109"/><ellipse cx="2389.5453" cy="190.2438" fill="#ADD1B2" rx="8.8" ry="8.8" style="stroke:#181818;stroke-width:0.8000000000000002;"/><path d="M2391.7578,186.9438 Q2391.8828,186.7688 2392.0328,186.6813 Q2392.1828,186.5938 2392.3578,186.5938 Q2392.6578,186.5938 2392.8453,186.8063 Q2393.0328,187.0063 2393.0328,187.4938 L2393.0328,188.6563 Q2393.0328,189.1438 2392.8453,189.3563 Q2392.6578,189.5688 2392.3578,189.5688 Q2392.0828,189.5688 2391.9203,189.4063 Q2391.7578,189.2563 2391.6703,188.8438 Q2391.6328,188.5563 2391.4828,188.4063 Q2391.2203,188.1063 2390.7328,187.9313 Q2390.2453,187.7563 2389.7453,187.7563 Q2389.1328,187.7563 2388.6203,188.0188 Q2388.1203,188.2813 2387.7203,188.8813 Q2387.3328,189.4813 2387.3328,190.3063 L2387.3328,191.1813 Q2387.3328,192.1688 2388.0453,192.8313 Q2388.7578,193.4813 2390.0328,193.4813 Q2390.7828,193.4813 2391.3078,193.2813 Q2391.6203,193.1563 2391.9578,192.8063 Q2392.1703,192.5938 2392.2828,192.5313 Q2392.4078,192.4688 2392.5703,192.4688 Q2392.8328,192.4688 2393.0328,192.6813 Q2393.2453,192.8813 2393.2453,193.1563 Q2393.2453,193.4313 2392.9703,193.7563 Q2392.5703,194.2188 2391.9328,194.4813 Q2391.0703,194.8438 2390.0328,194.8438 Q2388.8203,194.8438 2387.8578,194.3438 Q2387.0703,193.9438 2386.5203,193.0938 Q2385.9703,192.2313 2385.9703,191.2063 L2385.9703,190.2813 Q2385.9703,189.2188 2386.4578,188.3063 Q2386.9578,187.3813 2387.8328,186.8938 Q2388.7078,186.3938 2389.6953,186.3938 Q2390.2828,186.3938 2390.7953,186.5313 Q2391.3203,186.6563 2391.7578,186.9438 Z " fill="#000000"/><text fill="#000000" font-family="sans-serif" font-size="9.6" font-style="italic" lengthAdjust="spacing" textLength="75.7688" x="2448.673" y="186.7703">&#171;DomainService&#187;</text><text fill="#000000" font-family="sans-serif" font-size="11.2" lengthAdjust="spacing" textLength="161.2242" x="2405.9453" y="201.2656">CustomerRepresentativeService</text><line style="stroke:#181818;stroke-width:0.4000000000000001;" x1="2197.2" x2="2749.9148" y1="208.0766" y2="208.0766"/><text fill="#000000" font-family="sans-serif" font-size="11.2" lengthAdjust="spacing" textLength="544.7148" x="2201.2" y="223.3625">This Domain Service encapsulates the business logic required to assign a User to a CustomerRepresentative.</text><text fill="#000000" font-family="sans-serif" font-size="11.2" lengthAdjust="spacing" textLength="450.6742" x="2201.2" y="238.2594">It ensures that only users with the CUSTOMER_REPRESENTATIVE role can be assigned,</text><text fill="#000000" font-family="sans-serif" font-size="11.2" lengthAdjust="spacing" textLength="411.4852" x="2201.2" y="253.1563">enforcing the domain rule that links user permissions with customer representation.</text><line style="stroke:#181818;stroke-width:0.4000000000000001;" x1="2197.2" x2="2749.9148" y1="259.1672" y2="259.1672"/></g><!--class CustomerRepository--><g id="elem_CustomerRepository"><rect codeLine="56" fill="#F1F1F1" height="38.4" id="CustomerRepository" rx="2" ry="2" style="stroke:#181818;stroke-width:0.4000000000000001;" width="127.6797" x="2023.2" y="199.6109"/><ellipse cx="2035.2" cy="212.4109" fill="#B4A7E5" rx="8.8" ry="8.8" style="stroke:#181818;stroke-width:0.8000000000000002;"/><path d="M2035.9625,209.7234 L2035.9625,215.0484 L2037.3375,215.0484 Q2037.825,215.0484 2038.0375,215.2359 Q2038.25,215.4234 2038.25,215.7359 Q2038.25,216.0359 2038.0375,216.2234 Q2037.825,216.4109 2037.3375,216.4109 L2033.225,216.4109 Q2032.7375,216.4109 2032.525,216.2234 Q2032.3125,216.0359 2032.3125,215.7234 Q2032.3125,215.4234 2032.525,215.2359 Q2032.7375,215.0484 2033.225,215.0484 L2034.6,215.0484 L2034.6,209.7234 L2033.225,209.7234 Q2032.7375,209.7234 2032.525,209.5359 Q2032.3125,209.3484 2032.3125,209.0359 Q2032.3125,208.7359 2032.525,208.5484 Q2032.7375,208.3609 2033.225,208.3609 L2037.3375,208.3609 Q2037.825,208.3609 2038.0375,208.5484 Q2038.25,208.7359 2038.25,209.0359 Q2038.25,209.3484 2038.0375,209.5359 Q2037.825,209.7234 2037.3375,209.7234 L2035.9625,209.7234 Z " fill="#000000"/><text fill="#000000" font-family="sans-serif" font-size="11.2" font-style="italic" lengthAdjust="spacing" textLength="102.0797" x="2046.4" y="217.0484">CustomerRepository</text><line style="stroke:#181818;stroke-width:0.4000000000000001;" x1="2024" x2="2150.0797" y1="225.2109" y2="225.2109"/><line style="stroke:#181818;stroke-width:0.4000000000000001;" x1="2024" x2="2150.0797" y1="231.6109" y2="231.6109"/></g><!--class ShowProposal--><g id="elem_ShowProposal"><rect codeLine="64" fill="#F1F1F1" height="48.4656" id="ShowProposal" rx="2" ry="2" style="stroke:#181818;stroke-width:0.4000000000000001;" width="127.0016" x="574.8" y="372.0109"/><ellipse cx="586.8" cy="389.8438" fill="#ADD1B2" rx="8.8" ry="8.8" style="stroke:#181818;stroke-width:0.8000000000000002;"/><path d="M589.0125,386.5438 Q589.1375,386.3688 589.2875,386.2813 Q589.4375,386.1938 589.6125,386.1938 Q589.9125,386.1938 590.1,386.4063 Q590.2875,386.6063 590.2875,387.0938 L590.2875,388.2563 Q590.2875,388.7438 590.1,388.9563 Q589.9125,389.1688 589.6125,389.1688 Q589.3375,389.1688 589.175,389.0063 Q589.0125,388.8563 588.925,388.4438 Q588.8875,388.1563 588.7375,388.0063 Q588.475,387.7063 587.9875,387.5313 Q587.5,387.3563 587,387.3563 Q586.3875,387.3563 585.875,387.6188 Q585.375,387.8813 584.975,388.4813 Q584.5875,389.0813 584.5875,389.9063 L584.5875,390.7813 Q584.5875,391.7688 585.3,392.4313 Q586.0125,393.0813 587.2875,393.0813 Q588.0375,393.0813 588.5625,392.8813 Q588.875,392.7563 589.2125,392.4063 Q589.425,392.1938 589.5375,392.1313 Q589.6625,392.0688 589.825,392.0688 Q590.0875,392.0688 590.2875,392.2813 Q590.5,392.4813 590.5,392.7563 Q590.5,393.0313 590.225,393.3563 Q589.825,393.8188 589.1875,394.0813 Q588.325,394.4438 587.2875,394.4438 Q586.075,394.4438 585.1125,393.9438 Q584.325,393.5438 583.775,392.6938 Q583.225,391.8313 583.225,390.8063 L583.225,389.8813 Q583.225,388.8188 583.7125,387.9063 Q584.2125,386.9813 585.0875,386.4938 Q585.9625,385.9938 586.95,385.9938 Q587.5375,385.9938 588.05,386.1313 Q588.575,386.2563 589.0125,386.5438 Z " fill="#000000"/><text fill="#000000" font-family="sans-serif" font-size="9.6" font-style="italic" lengthAdjust="spacing" textLength="104.6016" x="596.4" y="386.3703">&#171;Entity, AggregateRoot&#187;</text><text fill="#000000" font-family="sans-serif" font-size="11.2" lengthAdjust="spacing" textLength="72.2203" x="612.5906" y="400.8656">ShowProposal</text><line style="stroke:#181818;stroke-width:0.4000000000000001;" x1="575.6" x2="701.0016" y1="407.6766" y2="407.6766"/><line style="stroke:#181818;stroke-width:0.4000000000000001;" x1="575.6" x2="701.0016" y1="414.0766" y2="414.0766"/></g><!--class ShowProposalID--><g id="elem_ShowProposalID"><rect codeLine="65" fill="#F1F1F1" height="48.4656" id="ShowProposalID" rx="2" ry="2" style="stroke:#181818;stroke-width:0.4000000000000001;" width="109.0203" x="75.2" y="513.2109"/><ellipse cx="87.2" cy="531.0438" fill="#ADD1B2" rx="8.8" ry="8.8" style="stroke:#181818;stroke-width:0.8000000000000002;"/><path d="M89.4125,527.7438 Q89.5375,527.5688 89.6875,527.4813 Q89.8375,527.3938 90.0125,527.3938 Q90.3125,527.3938 90.5,527.6063 Q90.6875,527.8063 90.6875,528.2938 L90.6875,529.4563 Q90.6875,529.9438 90.5,530.1563 Q90.3125,530.3688 90.0125,530.3688 Q89.7375,530.3688 89.575,530.2063 Q89.4125,530.0563 89.325,529.6438 Q89.2875,529.3563 89.1375,529.2063 Q88.875,528.9063 88.3875,528.7313 Q87.9,528.5563 87.4,528.5563 Q86.7875,528.5563 86.275,528.8188 Q85.775,529.0813 85.375,529.6813 Q84.9875,530.2813 84.9875,531.1063 L84.9875,531.9813 Q84.9875,532.9688 85.7,533.6313 Q86.4125,534.2813 87.6875,534.2813 Q88.4375,534.2813 88.9625,534.0813 Q89.275,533.9563 89.6125,533.6063 Q89.825,533.3938 89.9375,533.3313 Q90.0625,533.2688 90.225,533.2688 Q90.4875,533.2688 90.6875,533.4813 Q90.9,533.6813 90.9,533.9563 Q90.9,534.2313 90.625,534.5563 Q90.225,535.0188 89.5875,535.2813 Q88.725,535.6438 87.6875,535.6438 Q86.475,535.6438 85.5125,535.1438 Q84.725,534.7438 84.175,533.8938 Q83.625,533.0313 83.625,532.0063 L83.625,531.0813 Q83.625,530.0188 84.1125,529.1063 Q84.6125,528.1813 85.4875,527.6938 Q86.3625,527.1938 87.35,527.1938 Q87.9375,527.1938 88.45,527.3313 Q88.975,527.4563 89.4125,527.7438 Z " fill="#000000"/><text fill="#000000" font-family="sans-serif" font-size="9.6" font-style="italic" lengthAdjust="spacing" textLength="62.9766" x="108.6219" y="527.5703">&#171;ValueObject&#187;</text><text fill="#000000" font-family="sans-serif" font-size="11.2" lengthAdjust="spacing" textLength="83.4203" x="98.4" y="542.0656">ShowProposalID</text><line style="stroke:#181818;stroke-width:0.4000000000000001;" x1="76" x2="183.4203" y1="548.8766" y2="548.8766"/><line style="stroke:#181818;stroke-width:0.4000000000000001;" x1="76" x2="183.4203" y1="555.2766" y2="555.2766"/></g><!--class Video--><g id="elem_Video"><rect codeLine="66" fill="#F1F1F1" height="48.4656" id="Video" rx="2" ry="2" style="stroke:#181818;stroke-width:0.4000000000000001;" width="85.3766" x="212.4" y="513.2109"/><ellipse cx="224.4" cy="531.0438" fill="#ADD1B2" rx="8.8" ry="8.8" style="stroke:#181818;stroke-width:0.8000000000000002;"/><path d="M226.6125,527.7438 Q226.7375,527.5688 226.8875,527.4813 Q227.0375,527.3938 227.2125,527.3938 Q227.5125,527.3938 227.7,527.6063 Q227.8875,527.8063 227.8875,528.2938 L227.8875,529.4563 Q227.8875,529.9438 227.7,530.1563 Q227.5125,530.3688 227.2125,530.3688 Q226.9375,530.3688 226.775,530.2063 Q226.6125,530.0563 226.525,529.6438 Q226.4875,529.3563 226.3375,529.2063 Q226.075,528.9063 225.5875,528.7313 Q225.1,528.5563 224.6,528.5563 Q223.9875,528.5563 223.475,528.8188 Q222.975,529.0813 222.575,529.6813 Q222.1875,530.2813 222.1875,531.1063 L222.1875,531.9813 Q222.1875,532.9688 222.9,533.6313 Q223.6125,534.2813 224.8875,534.2813 Q225.6375,534.2813 226.1625,534.0813 Q226.475,533.9563 226.8125,533.6063 Q227.025,533.3938 227.1375,533.3313 Q227.2625,533.2688 227.425,533.2688 Q227.6875,533.2688 227.8875,533.4813 Q228.1,533.6813 228.1,533.9563 Q228.1,534.2313 227.825,534.5563 Q227.425,535.0188 226.7875,535.2813 Q225.925,535.6438 224.8875,535.6438 Q223.675,535.6438 222.7125,535.1438 Q221.925,534.7438 221.375,533.8938 Q220.825,533.0313 220.825,532.0063 L220.825,531.0813 Q220.825,530.0188 221.3125,529.1063 Q221.8125,528.1813 222.6875,527.6938 Q223.5625,527.1938 224.55,527.1938 Q225.1375,527.1938 225.65,527.3313 Q226.175,527.4563 226.6125,527.7438 Z " fill="#000000"/><text fill="#000000" font-family="sans-serif" font-size="9.6" font-style="italic" lengthAdjust="spacing" textLength="62.9766" x="234" y="527.5703">&#171;ValueObject&#187;</text><text fill="#000000" font-family="sans-serif" font-size="11.2" lengthAdjust="spacing" textLength="28.6453" x="251.1656" y="542.0656">Video</text><line style="stroke:#181818;stroke-width:0.4000000000000001;" x1="213.2" x2="296.9766" y1="548.8766" y2="548.8766"/><line style="stroke:#181818;stroke-width:0.4000000000000001;" x1="213.2" x2="296.9766" y1="555.2766" y2="555.2766"/></g><!--class ShowProposalTotalDrone--><g id="elem_ShowProposalTotalDrone"><rect codeLine="67" fill="#F1F1F1" height="48.4656" id="ShowProposalTotalDrone" rx="2" ry="2" style="stroke:#181818;stroke-width:0.4000000000000001;" width="153.2242" x="326.4" y="513.2109"/><ellipse cx="338.4" cy="531.0438" fill="#ADD1B2" rx="8.8" ry="8.8" style="stroke:#181818;stroke-width:0.8000000000000002;"/><path d="M340.6125,527.7438 Q340.7375,527.5688 340.8875,527.4813 Q341.0375,527.3938 341.2125,527.3938 Q341.5125,527.3938 341.7,527.6063 Q341.8875,527.8063 341.8875,528.2938 L341.8875,529.4563 Q341.8875,529.9438 341.7,530.1563 Q341.5125,530.3688 341.2125,530.3688 Q340.9375,530.3688 340.775,530.2063 Q340.6125,530.0563 340.525,529.6438 Q340.4875,529.3563 340.3375,529.2063 Q340.075,528.9063 339.5875,528.7313 Q339.1,528.5563 338.6,528.5563 Q337.9875,528.5563 337.475,528.8188 Q336.975,529.0813 336.575,529.6813 Q336.1875,530.2813 336.1875,531.1063 L336.1875,531.9813 Q336.1875,532.9688 336.9,533.6313 Q337.6125,534.2813 338.8875,534.2813 Q339.6375,534.2813 340.1625,534.0813 Q340.475,533.9563 340.8125,533.6063 Q341.025,533.3938 341.1375,533.3313 Q341.2625,533.2688 341.425,533.2688 Q341.6875,533.2688 341.8875,533.4813 Q342.1,533.6813 342.1,533.9563 Q342.1,534.2313 341.825,534.5563 Q341.425,535.0188 340.7875,535.2813 Q339.925,535.6438 338.8875,535.6438 Q337.675,535.6438 336.7125,535.1438 Q335.925,534.7438 335.375,533.8938 Q334.825,533.0313 334.825,532.0063 L334.825,531.0813 Q334.825,530.0188 335.3125,529.1063 Q335.8125,528.1813 336.6875,527.6938 Q337.5625,527.1938 338.55,527.1938 Q339.1375,527.1938 339.65,527.3313 Q340.175,527.4563 340.6125,527.7438 Z " fill="#000000"/><text fill="#000000" font-family="sans-serif" font-size="9.6" font-style="italic" lengthAdjust="spacing" textLength="62.9766" x="381.9238" y="527.5703">&#171;ValueObject&#187;</text><text fill="#000000" font-family="sans-serif" font-size="11.2" lengthAdjust="spacing" textLength="127.6242" x="349.6" y="542.0656">ShowProposalTotalDrone</text><line style="stroke:#181818;stroke-width:0.4000000000000001;" x1="327.2" x2="478.8242" y1="548.8766" y2="548.8766"/><line style="stroke:#181818;stroke-width:0.4000000000000001;" x1="327.2" x2="478.8242" y1="555.2766" y2="555.2766"/></g><!--class ShowProposalDocument--><g id="elem_ShowProposalDocument"><rect codeLine="69" fill="#F1F1F1" height="93.1563" id="ShowProposalDocument" rx="2" ry="2" style="stroke:#181818;stroke-width:0.4000000000000001;" width="148.8656" x="508" y="491.2109"/><ellipse cx="520" cy="509.0438" fill="#ADD1B2" rx="8.8" ry="8.8" style="stroke:#181818;stroke-width:0.8000000000000002;"/><path d="M522.2125,505.7438 Q522.3375,505.5688 522.4875,505.4813 Q522.6375,505.3938 522.8125,505.3938 Q523.1125,505.3938 523.3,505.6063 Q523.4875,505.8063 523.4875,506.2938 L523.4875,507.4563 Q523.4875,507.9438 523.3,508.1563 Q523.1125,508.3688 522.8125,508.3688 Q522.5375,508.3688 522.375,508.2063 Q522.2125,508.0563 522.125,507.6438 Q522.0875,507.3563 521.9375,507.2063 Q521.675,506.9063 521.1875,506.7313 Q520.7,506.5563 520.2,506.5563 Q519.5875,506.5563 519.075,506.8188 Q518.575,507.0813 518.175,507.6813 Q517.7875,508.2813 517.7875,509.1063 L517.7875,509.9813 Q517.7875,510.9688 518.5,511.6313 Q519.2125,512.2813 520.4875,512.2813 Q521.2375,512.2813 521.7625,512.0813 Q522.075,511.9563 522.4125,511.6063 Q522.625,511.3938 522.7375,511.3313 Q522.8625,511.2688 523.025,511.2688 Q523.2875,511.2688 523.4875,511.4813 Q523.7,511.6813 523.7,511.9563 Q523.7,512.2313 523.425,512.5563 Q523.025,513.0188 522.3875,513.2813 Q521.525,513.6438 520.4875,513.6438 Q519.275,513.6438 518.3125,513.1438 Q517.525,512.7438 516.975,511.8938 Q516.425,511.0313 516.425,510.0063 L516.425,509.0813 Q516.425,508.0188 516.9125,507.1063 Q517.4125,506.1813 518.2875,505.6938 Q519.1625,505.1938 520.15,505.1938 Q520.7375,505.1938 521.25,505.3313 Q521.775,505.4563 522.2125,505.7438 Z " fill="#000000"/><text fill="#000000" font-family="sans-serif" font-size="9.6" font-style="italic" lengthAdjust="spacing" textLength="62.9766" x="561.3445" y="505.5703">&#171;ValueObject&#187;</text><text fill="#000000" font-family="sans-serif" font-size="11.2" lengthAdjust="spacing" textLength="123.2656" x="531.2" y="520.0656">ShowProposalDocument</text><line style="stroke:#181818;stroke-width:0.4000000000000001;" x1="508.8" x2="656.0656" y1="526.8766" y2="526.8766"/><rect fill="none" height="4.8" style="stroke:#C82930;stroke-width:0.8000000000000002;" width="4.8" x="514.4" y="536.325"/><text fill="#000000" font-family="sans-serif" font-size="11.2" lengthAdjust="spacing" textLength="60.3859" x="524" y="542.1625">String name</text><rect fill="none" height="4.8" style="stroke:#C82930;stroke-width:0.8000000000000002;" width="4.8" x="514.4" y="551.2219"/><text fill="#000000" font-family="sans-serif" font-size="11.2" lengthAdjust="spacing" textLength="86.532" x="524" y="557.0594">String description</text><rect fill="none" height="4.8" style="stroke:#C82930;stroke-width:0.8000000000000002;" width="4.8" x="514.4" y="566.1188"/><text fill="#000000" font-family="sans-serif" font-size="11.2" lengthAdjust="spacing" textLength="90.2672" x="524" y="571.9563">String pluginClass</text><line style="stroke:#181818;stroke-width:0.4000000000000001;" x1="508.8" x2="656.0656" y1="577.9672" y2="577.9672"/></g><!--class ShowProposalDuration--><g id="elem_ShowProposalDuration"><rect codeLine="75" fill="#F1F1F1" height="48.4656" id="ShowProposalDuration" rx="2" ry="2" style="stroke:#181818;stroke-width:0.4000000000000001;" width="140.1539" x="685.2" y="513.2109"/><ellipse cx="697.2" cy="531.0438" fill="#ADD1B2" rx="8.8" ry="8.8" style="stroke:#181818;stroke-width:0.8000000000000002;"/><path d="M699.4125,527.7438 Q699.5375,527.5688 699.6875,527.4813 Q699.8375,527.3938 700.0125,527.3938 Q700.3125,527.3938 700.5,527.6063 Q700.6875,527.8063 700.6875,528.2938 L700.6875,529.4563 Q700.6875,529.9438 700.5,530.1563 Q700.3125,530.3688 700.0125,530.3688 Q699.7375,530.3688 699.575,530.2063 Q699.4125,530.0563 699.325,529.6438 Q699.2875,529.3563 699.1375,529.2063 Q698.875,528.9063 698.3875,528.7313 Q697.9,528.5563 697.4,528.5563 Q696.7875,528.5563 696.275,528.8188 Q695.775,529.0813 695.375,529.6813 Q694.9875,530.2813 694.9875,531.1063 L694.9875,531.9813 Q694.9875,532.9688 695.7,533.6313 Q696.4125,534.2813 697.6875,534.2813 Q698.4375,534.2813 698.9625,534.0813 Q699.275,533.9563 699.6125,533.6063 Q699.825,533.3938 699.9375,533.3313 Q700.0625,533.2688 700.225,533.2688 Q700.4875,533.2688 700.6875,533.4813 Q700.9,533.6813 700.9,533.9563 Q700.9,534.2313 700.625,534.5563 Q700.225,535.0188 699.5875,535.2813 Q698.725,535.6438 697.6875,535.6438 Q696.475,535.6438 695.5125,535.1438 Q694.725,534.7438 694.175,533.8938 Q693.625,533.0313 693.625,532.0063 L693.625,531.0813 Q693.625,530.0188 694.1125,529.1063 Q694.6125,528.1813 695.4875,527.6938 Q696.3625,527.1938 697.35,527.1938 Q697.9375,527.1938 698.45,527.3313 Q698.975,527.4563 699.4125,527.7438 Z " fill="#000000"/><text fill="#000000" font-family="sans-serif" font-size="9.6" font-style="italic" lengthAdjust="spacing" textLength="62.9766" x="734.1887" y="527.5703">&#171;ValueObject&#187;</text><text fill="#000000" font-family="sans-serif" font-size="11.2" lengthAdjust="spacing" textLength="114.5539" x="708.4" y="542.0656">ShowProposalDuration</text><line style="stroke:#181818;stroke-width:0.4000000000000001;" x1="686" x2="824.5539" y1="548.8766" y2="548.8766"/><line style="stroke:#181818;stroke-width:0.4000000000000001;" x1="686" x2="824.5539" y1="555.2766" y2="555.2766"/></g><!--class ShowProposalStatus--><g id="elem_ShowProposalStatus"><rect codeLine="77" fill="#F1F1F1" height="108.0531" id="ShowProposalStatus" rx="2" ry="2" style="stroke:#181818;stroke-width:0.4000000000000001;" width="129.5719" x="853.6" y="483.6109"/><ellipse cx="865.6" cy="501.4438" fill="#EB937F" rx="8.8" ry="8.8" style="stroke:#181818;stroke-width:0.8000000000000002;"/><path d="M864.6875,502.0813 L864.6875,504.0813 L868.15,504.0813 L868.15,503.3438 Q868.15,502.8563 868.3375,502.6438 Q868.5375,502.4313 868.8375,502.4313 Q869.1375,502.4313 869.325,502.6438 Q869.5125,502.8563 869.5125,503.3438 L869.5125,505.4438 L863.1125,505.4438 Q862.6125,505.4438 862.4,505.2563 Q862.2,505.0688 862.2,504.7563 Q862.2,504.4563 862.4125,504.2688 Q862.625,504.0813 863.1125,504.0813 L863.325,504.0813 L863.325,498.7563 L863.1125,498.7563 Q862.6125,498.7563 862.4,498.5688 Q862.2,498.3813 862.2,498.0688 Q862.2,497.7688 862.4,497.5813 Q862.6125,497.3938 863.1125,497.3938 L869.2125,497.3938 L869.2125,499.4688 Q869.2125,499.9563 869.025,500.1688 Q868.85,500.3688 868.5375,500.3688 Q868.2375,500.3688 868.05,500.1688 Q867.8625,499.9563 867.8625,499.4688 L867.8625,498.7563 L864.6875,498.7563 L864.6875,500.7188 L865.875,500.7188 Q865.875,500.1938 865.975,500.0438 Q866.1875,499.7188 866.5625,499.7188 Q866.8625,499.7188 867.05,499.9313 Q867.2375,500.1313 867.2375,500.6188 L867.2375,502.1938 Q867.2375,502.6313 867.1375,502.7813 Q866.925,503.0938 866.5625,503.0938 Q866.1875,503.0938 865.975,502.7688 Q865.875,502.6188 865.875,502.0813 L864.6875,502.0813 Z " fill="#000000"/><text fill="#000000" font-family="sans-serif" font-size="9.6" font-style="italic" lengthAdjust="spacing" textLength="35.7563" x="910.9078" y="497.9703">&#171;Enum&#187;</text><text fill="#000000" font-family="sans-serif" font-size="11.2" lengthAdjust="spacing" textLength="103.9719" x="876.8" y="512.4656">ShowProposalStatus</text><line style="stroke:#181818;stroke-width:0.4000000000000001;" x1="854.4" x2="982.3719" y1="519.2766" y2="519.2766"/><text fill="#000000" font-family="sans-serif" font-size="11.2" lengthAdjust="spacing" textLength="56.6289" x="858.4" y="534.5625">CREATED,</text><text fill="#000000" font-family="sans-serif" font-size="11.2" lengthAdjust="spacing" textLength="32.982" x="858.4" y="549.4594">SENT,</text><text fill="#000000" font-family="sans-serif" font-size="11.2" lengthAdjust="spacing" textLength="64.0992" x="858.4" y="564.3563">ACCEPTED,</text><text fill="#000000" font-family="sans-serif" font-size="11.2" lengthAdjust="spacing" textLength="59.1172" x="858.4" y="579.2531">REJECTED</text><line style="stroke:#181818;stroke-width:0.4000000000000001;" x1="854.4" x2="982.3719" y1="585.2641" y2="585.2641"/></g><!--class ShowProposalService--><g id="elem_ShowProposalService"><rect codeLine="89" fill="#F1F1F1" height="152.7438" id="ShowProposalService" rx="2" ry="2" style="stroke:#181818;stroke-width:0.4000000000000001;" width="349.5102" x="520.4" y="142.4109"/><ellipse cx="636.9719" cy="160.2438" fill="#ADD1B2" rx="8.8" ry="8.8" style="stroke:#181818;stroke-width:0.8000000000000002;"/><path d="M639.1844,156.9438 Q639.3094,156.7688 639.4594,156.6813 Q639.6094,156.5938 639.7844,156.5938 Q640.0844,156.5938 640.2719,156.8063 Q640.4594,157.0063 640.4594,157.4938 L640.4594,158.6563 Q640.4594,159.1438 640.2719,159.3563 Q640.0844,159.5688 639.7844,159.5688 Q639.5094,159.5688 639.3469,159.4063 Q639.1844,159.2563 639.0969,158.8438 Q639.0594,158.5563 638.9094,158.4063 Q638.6469,158.1063 638.1594,157.9313 Q637.6719,157.7563 637.1719,157.7563 Q636.5594,157.7563 636.0469,158.0188 Q635.5469,158.2813 635.1469,158.8813 Q634.7594,159.4813 634.7594,160.3063 L634.7594,161.1813 Q634.7594,162.1688 635.4719,162.8313 Q636.1844,163.4813 637.4594,163.4813 Q638.2094,163.4813 638.7344,163.2813 Q639.0469,163.1563 639.3844,162.8063 Q639.5969,162.5938 639.7094,162.5313 Q639.8344,162.4688 639.9969,162.4688 Q640.2594,162.4688 640.4594,162.6813 Q640.6719,162.8813 640.6719,163.1563 Q640.6719,163.4313 640.3969,163.7563 Q639.9969,164.2188 639.3594,164.4813 Q638.4969,164.8438 637.4594,164.8438 Q636.2469,164.8438 635.2844,164.3438 Q634.4969,163.9438 633.9469,163.0938 Q633.3969,162.2313 633.3969,161.2063 L633.3969,160.2813 Q633.3969,159.2188 633.8844,158.3063 Q634.3844,157.3813 635.2594,156.8938 Q636.1344,156.3938 637.1219,156.3938 Q637.7094,156.3938 638.2219,156.5313 Q638.7469,156.6563 639.1844,156.9438 Z " fill="#000000"/><text fill="#000000" font-family="sans-serif" font-size="9.6" font-style="italic" lengthAdjust="spacing" textLength="75.7688" x="670.2707" y="156.7703">&#171;DomainService&#187;</text><text fill="#000000" font-family="sans-serif" font-size="11.2" lengthAdjust="spacing" textLength="109.5664" x="653.3719" y="171.2656">ShowProposalService</text><line style="stroke:#181818;stroke-width:0.4000000000000001;" x1="521.2" x2="869.1102" y1="178.0766" y2="178.0766"/><text fill="#000000" font-family="sans-serif" font-size="11.2" lengthAdjust="spacing" textLength="339.9102" x="525.2" y="193.3625">This domain service orchestrates the preparation of a show proposal</text><text fill="#000000" font-family="sans-serif" font-size="11.2" lengthAdjust="spacing" textLength="272.0594" x="525.2" y="208.2594">based on a specific ShowRequest. It is responsible for:</text><text fill="#000000" font-family="sans-serif" font-size="11.2" lengthAdjust="spacing" textLength="292.6055" x="525.2" y="223.1563">selecting figures from the catalogue or newly created ones,</text><text fill="#000000" font-family="sans-serif" font-size="11.2" lengthAdjust="spacing" textLength="257.1352" x="525.2" y="238.0531">assigning drones and mapping them to figure types,</text><text fill="#000000" font-family="sans-serif" font-size="11.2" lengthAdjust="spacing" textLength="257.1297" x="525.2" y="252.95">initiating and attaching a SimulationID for validation,</text><text fill="#000000" font-family="sans-serif" font-size="11.2" lengthAdjust="spacing" textLength="257.1242" x="525.2" y="267.8469">generating video previews and formatted templates,</text><text fill="#000000" font-family="sans-serif" font-size="11.2" lengthAdjust="spacing" textLength="298.8508" x="525.2" y="282.7438">and managing the proposal&#8217;s acceptance or rejection status.</text><line style="stroke:#181818;stroke-width:0.4000000000000001;" x1="521.2" x2="869.1102" y1="288.7547" y2="288.7547"/></g><!--class ShowProposalRepository--><g id="elem_ShowProposalRepository"><rect codeLine="103" fill="#F1F1F1" height="38.4" id="ShowProposalRepository" rx="2" ry="2" style="stroke:#181818;stroke-width:0.4000000000000001;" width="151.3539" x="323.6" y="199.6109"/><ellipse cx="335.6" cy="212.4109" fill="#B4A7E5" rx="8.8" ry="8.8" style="stroke:#181818;stroke-width:0.8000000000000002;"/><path d="M336.3625,209.7234 L336.3625,215.0484 L337.7375,215.0484 Q338.225,215.0484 338.4375,215.2359 Q338.65,215.4234 338.65,215.7359 Q338.65,216.0359 338.4375,216.2234 Q338.225,216.4109 337.7375,216.4109 L333.625,216.4109 Q333.1375,216.4109 332.925,216.2234 Q332.7125,216.0359 332.7125,215.7234 Q332.7125,215.4234 332.925,215.2359 Q333.1375,215.0484 333.625,215.0484 L335,215.0484 L335,209.7234 L333.625,209.7234 Q333.1375,209.7234 332.925,209.5359 Q332.7125,209.3484 332.7125,209.0359 Q332.7125,208.7359 332.925,208.5484 Q333.1375,208.3609 333.625,208.3609 L337.7375,208.3609 Q338.225,208.3609 338.4375,208.5484 Q338.65,208.7359 338.65,209.0359 Q338.65,209.3484 338.4375,209.5359 Q338.225,209.7234 337.7375,209.7234 L336.3625,209.7234 Z " fill="#000000"/><text fill="#000000" font-family="sans-serif" font-size="11.2" font-style="italic" lengthAdjust="spacing" textLength="125.7539" x="346.8" y="217.0484">ShowProposalRepository</text><line style="stroke:#181818;stroke-width:0.4000000000000001;" x1="324.4" x2="474.1539" y1="225.2109" y2="225.2109"/><line style="stroke:#181818;stroke-width:0.4000000000000001;" x1="324.4" x2="474.1539" y1="231.6109" y2="231.6109"/></g><!--class ShowRequest--><g id="elem_ShowRequest"><rect codeLine="111" fill="#F1F1F1" height="48.4656" id="ShowRequest" rx="2" ry="2" style="stroke:#181818;stroke-width:0.4000000000000001;" width="127.0016" x="1542" y="372.0109"/><ellipse cx="1554" cy="389.8438" fill="#ADD1B2" rx="8.8" ry="8.8" style="stroke:#181818;stroke-width:0.8000000000000002;"/><path d="M1556.2125,386.5438 Q1556.3375,386.3688 1556.4875,386.2813 Q1556.6375,386.1938 1556.8125,386.1938 Q1557.1125,386.1938 1557.3,386.4063 Q1557.4875,386.6063 1557.4875,387.0938 L1557.4875,388.2563 Q1557.4875,388.7438 1557.3,388.9563 Q1557.1125,389.1688 1556.8125,389.1688 Q1556.5375,389.1688 1556.375,389.0063 Q1556.2125,388.8563 1556.125,388.4438 Q1556.0875,388.1563 1555.9375,388.0063 Q1555.675,387.7063 1555.1875,387.5313 Q1554.7,387.3563 1554.2,387.3563 Q1553.5875,387.3563 1553.075,387.6188 Q1552.575,387.8813 1552.175,388.4813 Q1551.7875,389.0813 1551.7875,389.9063 L1551.7875,390.7813 Q1551.7875,391.7688 1552.5,392.4313 Q1553.2125,393.0813 1554.4875,393.0813 Q1555.2375,393.0813 1555.7625,392.8813 Q1556.075,392.7563 1556.4125,392.4063 Q1556.625,392.1938 1556.7375,392.1313 Q1556.8625,392.0688 1557.025,392.0688 Q1557.2875,392.0688 1557.4875,392.2813 Q1557.7,392.4813 1557.7,392.7563 Q1557.7,393.0313 1557.425,393.3563 Q1557.025,393.8188 1556.3875,394.0813 Q1555.525,394.4438 1554.4875,394.4438 Q1553.275,394.4438 1552.3125,393.9438 Q1551.525,393.5438 1550.975,392.6938 Q1550.425,391.8313 1550.425,390.8063 L1550.425,389.8813 Q1550.425,388.8188 1550.9125,387.9063 Q1551.4125,386.9813 1552.2875,386.4938 Q1553.1625,385.9938 1554.15,385.9938 Q1554.7375,385.9938 1555.25,386.1313 Q1555.775,386.2563 1556.2125,386.5438 Z " fill="#000000"/><text fill="#000000" font-family="sans-serif" font-size="9.6" font-style="italic" lengthAdjust="spacing" textLength="104.6016" x="1563.6" y="386.3703">&#171;Entity, AggregateRoot&#187;</text><text fill="#000000" font-family="sans-serif" font-size="11.2" lengthAdjust="spacing" textLength="69.732" x="1581.0348" y="400.8656">ShowRequest</text><line style="stroke:#181818;stroke-width:0.4000000000000001;" x1="1542.8" x2="1668.2016" y1="407.6766" y2="407.6766"/><line style="stroke:#181818;stroke-width:0.4000000000000001;" x1="1542.8" x2="1668.2016" y1="414.0766" y2="414.0766"/></g><!--class ShowRequestID--><g id="elem_ShowRequestID"><rect codeLine="112" fill="#F1F1F1" height="48.4656" id="ShowRequestID" rx="2" ry="2" style="stroke:#181818;stroke-width:0.4000000000000001;" width="106.532" x="1066.8" y="513.2109"/><ellipse cx="1078.8" cy="531.0438" fill="#ADD1B2" rx="8.8" ry="8.8" style="stroke:#181818;stroke-width:0.8000000000000002;"/><path d="M1081.0125,527.7438 Q1081.1375,527.5688 1081.2875,527.4813 Q1081.4375,527.3938 1081.6125,527.3938 Q1081.9125,527.3938 1082.1,527.6063 Q1082.2875,527.8063 1082.2875,528.2938 L1082.2875,529.4563 Q1082.2875,529.9438 1082.1,530.1563 Q1081.9125,530.3688 1081.6125,530.3688 Q1081.3375,530.3688 1081.175,530.2063 Q1081.0125,530.0563 1080.925,529.6438 Q1080.8875,529.3563 1080.7375,529.2063 Q1080.475,528.9063 1079.9875,528.7313 Q1079.5,528.5563 1079,528.5563 Q1078.3875,528.5563 1077.875,528.8188 Q1077.375,529.0813 1076.975,529.6813 Q1076.5875,530.2813 1076.5875,531.1063 L1076.5875,531.9813 Q1076.5875,532.9688 1077.3,533.6313 Q1078.0125,534.2813 1079.2875,534.2813 Q1080.0375,534.2813 1080.5625,534.0813 Q1080.875,533.9563 1081.2125,533.6063 Q1081.425,533.3938 1081.5375,533.3313 Q1081.6625,533.2688 1081.825,533.2688 Q1082.0875,533.2688 1082.2875,533.4813 Q1082.5,533.6813 1082.5,533.9563 Q1082.5,534.2313 1082.225,534.5563 Q1081.825,535.0188 1081.1875,535.2813 Q1080.325,535.6438 1079.2875,535.6438 Q1078.075,535.6438 1077.1125,535.1438 Q1076.325,534.7438 1075.775,533.8938 Q1075.225,533.0313 1075.225,532.0063 L1075.225,531.0813 Q1075.225,530.0188 1075.7125,529.1063 Q1076.2125,528.1813 1077.0875,527.6938 Q1077.9625,527.1938 1078.95,527.1938 Q1079.5375,527.1938 1080.05,527.3313 Q1080.575,527.4563 1081.0125,527.7438 Z " fill="#000000"/><text fill="#000000" font-family="sans-serif" font-size="9.6" font-style="italic" lengthAdjust="spacing" textLength="62.9766" x="1098.9777" y="527.5703">&#171;ValueObject&#187;</text><text fill="#000000" font-family="sans-serif" font-size="11.2" lengthAdjust="spacing" textLength="80.932" x="1090" y="542.0656">ShowRequestID</text><line style="stroke:#181818;stroke-width:0.4000000000000001;" x1="1067.6" x2="1172.532" y1="548.8766" y2="548.8766"/><line style="stroke:#181818;stroke-width:0.4000000000000001;" x1="1067.6" x2="1172.532" y1="555.2766" y2="555.2766"/></g><!--class AddressRequest--><g id="elem_AddressRequest"><rect codeLine="113" fill="#F1F1F1" height="48.4656" id="AddressRequest" rx="2" ry="2" style="stroke:#181818;stroke-width:0.4000000000000001;" width="108.4023" x="1551.2" y="513.2109"/><ellipse cx="1563.2" cy="531.0438" fill="#ADD1B2" rx="8.8" ry="8.8" style="stroke:#181818;stroke-width:0.8000000000000002;"/><path d="M1565.4125,527.7438 Q1565.5375,527.5688 1565.6875,527.4813 Q1565.8375,527.3938 1566.0125,527.3938 Q1566.3125,527.3938 1566.5,527.6063 Q1566.6875,527.8063 1566.6875,528.2938 L1566.6875,529.4563 Q1566.6875,529.9438 1566.5,530.1563 Q1566.3125,530.3688 1566.0125,530.3688 Q1565.7375,530.3688 1565.575,530.2063 Q1565.4125,530.0563 1565.325,529.6438 Q1565.2875,529.3563 1565.1375,529.2063 Q1564.875,528.9063 1564.3875,528.7313 Q1563.9,528.5563 1563.4,528.5563 Q1562.7875,528.5563 1562.275,528.8188 Q1561.775,529.0813 1561.375,529.6813 Q1560.9875,530.2813 1560.9875,531.1063 L1560.9875,531.9813 Q1560.9875,532.9688 1561.7,533.6313 Q1562.4125,534.2813 1563.6875,534.2813 Q1564.4375,534.2813 1564.9625,534.0813 Q1565.275,533.9563 1565.6125,533.6063 Q1565.825,533.3938 1565.9375,533.3313 Q1566.0625,533.2688 1566.225,533.2688 Q1566.4875,533.2688 1566.6875,533.4813 Q1566.9,533.6813 1566.9,533.9563 Q1566.9,534.2313 1566.625,534.5563 Q1566.225,535.0188 1565.5875,535.2813 Q1564.725,535.6438 1563.6875,535.6438 Q1562.475,535.6438 1561.5125,535.1438 Q1560.725,534.7438 1560.175,533.8938 Q1559.625,533.0313 1559.625,532.0063 L1559.625,531.0813 Q1559.625,530.0188 1560.1125,529.1063 Q1560.6125,528.1813 1561.4875,527.6938 Q1562.3625,527.1938 1563.35,527.1938 Q1563.9375,527.1938 1564.45,527.3313 Q1564.975,527.4563 1565.4125,527.7438 Z " fill="#000000"/><text fill="#000000" font-family="sans-serif" font-size="9.6" font-style="italic" lengthAdjust="spacing" textLength="62.9766" x="1584.3129" y="527.5703">&#171;ValueObject&#187;</text><text fill="#000000" font-family="sans-serif" font-size="11.2" lengthAdjust="spacing" textLength="82.8023" x="1574.4" y="542.0656">AddressRequest</text><line style="stroke:#181818;stroke-width:0.4000000000000001;" x1="1552" x2="1658.8023" y1="548.8766" y2="548.8766"/><line style="stroke:#181818;stroke-width:0.4000000000000001;" x1="1552" x2="1658.8023" y1="555.2766" y2="555.2766"/></g><!--class Date--><g id="elem_Date"><rect codeLine="114" fill="#F1F1F1" height="48.4656" id="Date" rx="2" ry="2" style="stroke:#181818;stroke-width:0.4000000000000001;" width="85.3766" x="1688.4" y="513.2109"/><ellipse cx="1700.4" cy="531.0438" fill="#ADD1B2" rx="8.8" ry="8.8" style="stroke:#181818;stroke-width:0.8000000000000002;"/><path d="M1702.6125,527.7438 Q1702.7375,527.5688 1702.8875,527.4813 Q1703.0375,527.3938 1703.2125,527.3938 Q1703.5125,527.3938 1703.7,527.6063 Q1703.8875,527.8063 1703.8875,528.2938 L1703.8875,529.4563 Q1703.8875,529.9438 1703.7,530.1563 Q1703.5125,530.3688 1703.2125,530.3688 Q1702.9375,530.3688 1702.775,530.2063 Q1702.6125,530.0563 1702.525,529.6438 Q1702.4875,529.3563 1702.3375,529.2063 Q1702.075,528.9063 1701.5875,528.7313 Q1701.1,528.5563 1700.6,528.5563 Q1699.9875,528.5563 1699.475,528.8188 Q1698.975,529.0813 1698.575,529.6813 Q1698.1875,530.2813 1698.1875,531.1063 L1698.1875,531.9813 Q1698.1875,532.9688 1698.9,533.6313 Q1699.6125,534.2813 1700.8875,534.2813 Q1701.6375,534.2813 1702.1625,534.0813 Q1702.475,533.9563 1702.8125,533.6063 Q1703.025,533.3938 1703.1375,533.3313 Q1703.2625,533.2688 1703.425,533.2688 Q1703.6875,533.2688 1703.8875,533.4813 Q1704.1,533.6813 1704.1,533.9563 Q1704.1,534.2313 1703.825,534.5563 Q1703.425,535.0188 1702.7875,535.2813 Q1701.925,535.6438 1700.8875,535.6438 Q1699.675,535.6438 1698.7125,535.1438 Q1697.925,534.7438 1697.375,533.8938 Q1696.825,533.0313 1696.825,532.0063 L1696.825,531.0813 Q1696.825,530.0188 1697.3125,529.1063 Q1697.8125,528.1813 1698.6875,527.6938 Q1699.5625,527.1938 1700.55,527.1938 Q1701.1375,527.1938 1701.65,527.3313 Q1702.175,527.4563 1702.6125,527.7438 Z " fill="#000000"/><text fill="#000000" font-family="sans-serif" font-size="9.6" font-style="italic" lengthAdjust="spacing" textLength="62.9766" x="1710" y="527.5703">&#171;ValueObject&#187;</text><text fill="#000000" font-family="sans-serif" font-size="11.2" lengthAdjust="spacing" textLength="23.6578" x="1729.6594" y="542.0656">Date</text><line style="stroke:#181818;stroke-width:0.4000000000000001;" x1="1689.2" x2="1772.9766" y1="548.8766" y2="548.8766"/><line style="stroke:#181818;stroke-width:0.4000000000000001;" x1="1689.2" x2="1772.9766" y1="555.2766" y2="555.2766"/></g><!--class ShowRequestDuration--><g id="elem_ShowRequestDuration"><rect codeLine="115" fill="#F1F1F1" height="48.4656" id="ShowRequestDuration" rx="2" ry="2" style="stroke:#181818;stroke-width:0.4000000000000001;" width="137.6656" x="1802.4" y="513.2109"/><ellipse cx="1814.4" cy="531.0438" fill="#ADD1B2" rx="8.8" ry="8.8" style="stroke:#181818;stroke-width:0.8000000000000002;"/><path d="M1816.6125,527.7438 Q1816.7375,527.5688 1816.8875,527.4813 Q1817.0375,527.3938 1817.2125,527.3938 Q1817.5125,527.3938 1817.7,527.6063 Q1817.8875,527.8063 1817.8875,528.2938 L1817.8875,529.4563 Q1817.8875,529.9438 1817.7,530.1563 Q1817.5125,530.3688 1817.2125,530.3688 Q1816.9375,530.3688 1816.775,530.2063 Q1816.6125,530.0563 1816.525,529.6438 Q1816.4875,529.3563 1816.3375,529.2063 Q1816.075,528.9063 1815.5875,528.7313 Q1815.1,528.5563 1814.6,528.5563 Q1813.9875,528.5563 1813.475,528.8188 Q1812.975,529.0813 1812.575,529.6813 Q1812.1875,530.2813 1812.1875,531.1063 L1812.1875,531.9813 Q1812.1875,532.9688 1812.9,533.6313 Q1813.6125,534.2813 1814.8875,534.2813 Q1815.6375,534.2813 1816.1625,534.0813 Q1816.475,533.9563 1816.8125,533.6063 Q1817.025,533.3938 1817.1375,533.3313 Q1817.2625,533.2688 1817.425,533.2688 Q1817.6875,533.2688 1817.8875,533.4813 Q1818.1,533.6813 1818.1,533.9563 Q1818.1,534.2313 1817.825,534.5563 Q1817.425,535.0188 1816.7875,535.2813 Q1815.925,535.6438 1814.8875,535.6438 Q1813.675,535.6438 1812.7125,535.1438 Q1811.925,534.7438 1811.375,533.8938 Q1810.825,533.0313 1810.825,532.0063 L1810.825,531.0813 Q1810.825,530.0188 1811.3125,529.1063 Q1811.8125,528.1813 1812.6875,527.6938 Q1813.5625,527.1938 1814.55,527.1938 Q1815.1375,527.1938 1815.65,527.3313 Q1816.175,527.4563 1816.6125,527.7438 Z " fill="#000000"/><text fill="#000000" font-family="sans-serif" font-size="9.6" font-style="italic" lengthAdjust="spacing" textLength="62.9766" x="1850.1445" y="527.5703">&#171;ValueObject&#187;</text><text fill="#000000" font-family="sans-serif" font-size="11.2" lengthAdjust="spacing" textLength="112.0656" x="1825.6" y="542.0656">ShowRequestDuration</text><line style="stroke:#181818;stroke-width:0.4000000000000001;" x1="1803.2" x2="1939.2656" y1="548.8766" y2="548.8766"/><line style="stroke:#181818;stroke-width:0.4000000000000001;" x1="1803.2" x2="1939.2656" y1="555.2766" y2="555.2766"/></g><!--class ShowRequestDescription--><g id="elem_ShowRequestDescription"><rect codeLine="116" fill="#F1F1F1" height="48.4656" id="ShowRequestDescription" rx="2" ry="2" style="stroke:#181818;stroke-width:0.4000000000000001;" width="151.3539" x="1201.2" y="513.2109"/><ellipse cx="1213.2" cy="531.0438" fill="#ADD1B2" rx="8.8" ry="8.8" style="stroke:#181818;stroke-width:0.8000000000000002;"/><path d="M1215.4125,527.7438 Q1215.5375,527.5688 1215.6875,527.4813 Q1215.8375,527.3938 1216.0125,527.3938 Q1216.3125,527.3938 1216.5,527.6063 Q1216.6875,527.8063 1216.6875,528.2938 L1216.6875,529.4563 Q1216.6875,529.9438 1216.5,530.1563 Q1216.3125,530.3688 1216.0125,530.3688 Q1215.7375,530.3688 1215.575,530.2063 Q1215.4125,530.0563 1215.325,529.6438 Q1215.2875,529.3563 1215.1375,529.2063 Q1214.875,528.9063 1214.3875,528.7313 Q1213.9,528.5563 1213.4,528.5563 Q1212.7875,528.5563 1212.275,528.8188 Q1211.775,529.0813 1211.375,529.6813 Q1210.9875,530.2813 1210.9875,531.1063 L1210.9875,531.9813 Q1210.9875,532.9688 1211.7,533.6313 Q1212.4125,534.2813 1213.6875,534.2813 Q1214.4375,534.2813 1214.9625,534.0813 Q1215.275,533.9563 1215.6125,533.6063 Q1215.825,533.3938 1215.9375,533.3313 Q1216.0625,533.2688 1216.225,533.2688 Q1216.4875,533.2688 1216.6875,533.4813 Q1216.9,533.6813 1216.9,533.9563 Q1216.9,534.2313 1216.625,534.5563 Q1216.225,535.0188 1215.5875,535.2813 Q1214.725,535.6438 1213.6875,535.6438 Q1212.475,535.6438 1211.5125,535.1438 Q1210.725,534.7438 1210.175,533.8938 Q1209.625,533.0313 1209.625,532.0063 L1209.625,531.0813 Q1209.625,530.0188 1210.1125,529.1063 Q1210.6125,528.1813 1211.4875,527.6938 Q1212.3625,527.1938 1213.35,527.1938 Q1213.9375,527.1938 1214.45,527.3313 Q1214.975,527.4563 1215.4125,527.7438 Z " fill="#000000"/><text fill="#000000" font-family="sans-serif" font-size="9.6" font-style="italic" lengthAdjust="spacing" textLength="62.9766" x="1255.7887" y="527.5703">&#171;ValueObject&#187;</text><text fill="#000000" font-family="sans-serif" font-size="11.2" lengthAdjust="spacing" textLength="125.7539" x="1224.4" y="542.0656">ShowRequestDescription</text><line style="stroke:#181818;stroke-width:0.4000000000000001;" x1="1202" x2="1351.7539" y1="548.8766" y2="548.8766"/><line style="stroke:#181818;stroke-width:0.4000000000000001;" x1="1202" x2="1351.7539" y1="555.2766" y2="555.2766"/></g><!--class ShowRequestStatus--><g id="elem_ShowRequestStatus"><rect codeLine="118" fill="#F1F1F1" height="137.8469" id="ShowRequestStatus" rx="2" ry="2" style="stroke:#181818;stroke-width:0.4000000000000001;" width="142.1789" x="1380.8" y="468.8109"/><ellipse cx="1399.5929" cy="486.6438" fill="#EB937F" rx="8.8" ry="8.8" style="stroke:#181818;stroke-width:0.8000000000000002;"/><path d="M1398.6804,487.2813 L1398.6804,489.2813 L1402.1429,489.2813 L1402.1429,488.5438 Q1402.1429,488.0563 1402.3304,487.8438 Q1402.5304,487.6313 1402.8304,487.6313 Q1403.1304,487.6313 1403.3179,487.8438 Q1403.5054,488.0563 1403.5054,488.5438 L1403.5054,490.6438 L1397.1054,490.6438 Q1396.6054,490.6438 1396.3929,490.4563 Q1396.1929,490.2688 1396.1929,489.9563 Q1396.1929,489.6563 1396.4054,489.4688 Q1396.6179,489.2813 1397.1054,489.2813 L1397.3179,489.2813 L1397.3179,483.9563 L1397.1054,483.9563 Q1396.6054,483.9563 1396.3929,483.7688 Q1396.1929,483.5813 1396.1929,483.2688 Q1396.1929,482.9688 1396.3929,482.7813 Q1396.6054,482.5938 1397.1054,482.5938 L1403.2054,482.5938 L1403.2054,484.6688 Q1403.2054,485.1563 1403.0179,485.3688 Q1402.8429,485.5688 1402.5304,485.5688 Q1402.2304,485.5688 1402.0429,485.3688 Q1401.8554,485.1563 1401.8554,484.6688 L1401.8554,483.9563 L1398.6804,483.9563 L1398.6804,485.9188 L1399.8679,485.9188 Q1399.8679,485.3938 1399.9679,485.2438 Q1400.1804,484.9188 1400.5554,484.9188 Q1400.8554,484.9188 1401.0429,485.1313 Q1401.2304,485.3313 1401.2304,485.8188 L1401.2304,487.3938 Q1401.2304,487.8313 1401.1304,487.9813 Q1400.9179,488.2938 1400.5554,488.2938 Q1400.1804,488.2938 1399.9679,487.9688 Q1399.8679,487.8188 1399.8679,487.2813 L1398.6804,487.2813 Z " fill="#000000"/><text fill="#000000" font-family="sans-serif" font-size="9.6" font-style="italic" lengthAdjust="spacing" textLength="35.7563" x="1445.1661" y="483.1703">&#171;Enum&#187;</text><text fill="#000000" font-family="sans-serif" font-size="11.2" lengthAdjust="spacing" textLength="101.4836" x="1412.3024" y="497.6656">ShowRequestStatus</text><line style="stroke:#181818;stroke-width:0.4000000000000001;" x1="1381.6" x2="1522.1789" y1="504.4766" y2="504.4766"/><text fill="#000000" font-family="sans-serif" font-size="11.2" lengthAdjust="spacing" textLength="67.8234" x="1385.6" y="519.7625">SUBMITTED,</text><text fill="#000000" font-family="sans-serif" font-size="11.2" lengthAdjust="spacing" textLength="125.7211" x="1385.6" y="534.6594">DESIGNER_ASSIGNED,</text><text fill="#000000" font-family="sans-serif" font-size="11.2" lengthAdjust="spacing" textLength="132.5789" x="1385.6" y="549.5563">PROPOSAL_PREPARED,</text><text fill="#000000" font-family="sans-serif" font-size="11.2" lengthAdjust="spacing" textLength="100.8328" x="1385.6" y="564.4531">PROPOSAL_SENT,</text><text fill="#000000" font-family="sans-serif" font-size="11.2" lengthAdjust="spacing" textLength="72.193" x="1385.6" y="579.35">SCHEDULED,</text><text fill="#000000" font-family="sans-serif" font-size="11.2" lengthAdjust="spacing" textLength="60.993" x="1385.6" y="594.2469">CANCELED</text><line style="stroke:#181818;stroke-width:0.4000000000000001;" x1="1381.6" x2="1522.1789" y1="600.2578" y2="600.2578"/></g><!--class ShowRequestService--><g id="elem_ShowRequestService"><rect codeLine="131" fill="#F1F1F1" height="137.8469" id="ShowRequestService" rx="2" ry="2" style="stroke:#181818;stroke-width:0.4000000000000001;" width="365.725" x="1250.8" y="150.0109"/><ellipse cx="1376.7234" cy="167.8438" fill="#ADD1B2" rx="8.8" ry="8.8" style="stroke:#181818;stroke-width:0.8000000000000002;"/><path d="M1378.9359,164.5438 Q1379.0609,164.3688 1379.2109,164.2813 Q1379.3609,164.1938 1379.5359,164.1938 Q1379.8359,164.1938 1380.0234,164.4063 Q1380.2109,164.6063 1380.2109,165.0938 L1380.2109,166.2563 Q1380.2109,166.7438 1380.0234,166.9563 Q1379.8359,167.1688 1379.5359,167.1688 Q1379.2609,167.1688 1379.0984,167.0063 Q1378.9359,166.8563 1378.8484,166.4438 Q1378.8109,166.1563 1378.6609,166.0063 Q1378.3984,165.7063 1377.9109,165.5313 Q1377.4234,165.3563 1376.9234,165.3563 Q1376.3109,165.3563 1375.7984,165.6188 Q1375.2984,165.8813 1374.8984,166.4813 Q1374.5109,167.0813 1374.5109,167.9063 L1374.5109,168.7813 Q1374.5109,169.7688 1375.2234,170.4313 Q1375.9359,171.0813 1377.2109,171.0813 Q1377.9609,171.0813 1378.4859,170.8813 Q1378.7984,170.7563 1379.1359,170.4063 Q1379.3484,170.1938 1379.4609,170.1313 Q1379.5859,170.0688 1379.7484,170.0688 Q1380.0109,170.0688 1380.2109,170.2813 Q1380.4234,170.4813 1380.4234,170.7563 Q1380.4234,171.0313 1380.1484,171.3563 Q1379.7484,171.8188 1379.1109,172.0813 Q1378.2484,172.4438 1377.2109,172.4438 Q1375.9984,172.4438 1375.0359,171.9438 Q1374.2484,171.5438 1373.6984,170.6938 Q1373.1484,169.8313 1373.1484,168.8063 L1373.1484,167.8813 Q1373.1484,166.8188 1373.6359,165.9063 Q1374.1359,164.9813 1375.0109,164.4938 Q1375.8859,163.9938 1376.8734,163.9938 Q1377.4609,163.9938 1377.9734,164.1313 Q1378.4984,164.2563 1378.9359,164.5438 Z " fill="#000000"/><text fill="#000000" font-family="sans-serif" font-size="9.6" font-style="italic" lengthAdjust="spacing" textLength="75.7688" x="1408.7781" y="164.3703">&#171;DomainService&#187;</text><text fill="#000000" font-family="sans-serif" font-size="11.2" lengthAdjust="spacing" textLength="107.0781" x="1393.1234" y="178.8656">ShowRequestService</text><line style="stroke:#181818;stroke-width:0.4000000000000001;" x1="1251.6" x2="1615.725" y1="185.6766" y2="185.6766"/><text fill="#000000" font-family="sans-serif" font-size="11.2" lengthAdjust="spacing" textLength="316.8813" x="1255.6" y="200.9625">This domain service handles the management of show requests</text><text fill="#000000" font-family="sans-serif" font-size="11.2" lengthAdjust="spacing" textLength="281.3672" x="1255.6" y="215.8594">submitted by CRM Collaborators on behalf of customers.</text><text fill="#000000" font-family="sans-serif" font-size="11.2" lengthAdjust="spacing" textLength="328.743" x="1255.6" y="230.7563">It enables the creation, editing and state management of requests,</text><text fill="#000000" font-family="sans-serif" font-size="11.2" lengthAdjust="spacing" textLength="356.125" x="1255.6" y="245.6531">including the assignment of a Show Designer if new figures are needed.</text><text fill="#000000" font-family="sans-serif" font-size="11.2" lengthAdjust="spacing" textLength="288.2523" x="1255.6" y="260.55">It ensures the request includes all required details such as</text><text fill="#000000" font-family="sans-serif" font-size="11.2" lengthAdjust="spacing" textLength="216.6719" x="1255.6" y="275.4469">place, date, duration, and figure references.</text><line style="stroke:#181818;stroke-width:0.4000000000000001;" x1="1251.6" x2="1615.725" y1="281.4578" y2="281.4578"/></g><!--class ShowRequestRepository--><g id="elem_ShowRequestRepository"><rect codeLine="144" fill="#F1F1F1" height="38.4" id="ShowRequestRepository" rx="2" ry="2" style="stroke:#181818;stroke-width:0.4000000000000001;" width="148.8656" x="1661.6" y="199.6109"/><ellipse cx="1673.6" cy="212.4109" fill="#B4A7E5" rx="8.8" ry="8.8" style="stroke:#181818;stroke-width:0.8000000000000002;"/><path d="M1674.3625,209.7234 L1674.3625,215.0484 L1675.7375,215.0484 Q1676.225,215.0484 1676.4375,215.2359 Q1676.65,215.4234 1676.65,215.7359 Q1676.65,216.0359 1676.4375,216.2234 Q1676.225,216.4109 1675.7375,216.4109 L1671.625,216.4109 Q1671.1375,216.4109 1670.925,216.2234 Q1670.7125,216.0359 1670.7125,215.7234 Q1670.7125,215.4234 1670.925,215.2359 Q1671.1375,215.0484 1671.625,215.0484 L1673,215.0484 L1673,209.7234 L1671.625,209.7234 Q1671.1375,209.7234 1670.925,209.5359 Q1670.7125,209.3484 1670.7125,209.0359 Q1670.7125,208.7359 1670.925,208.5484 Q1671.1375,208.3609 1671.625,208.3609 L1675.7375,208.3609 Q1676.225,208.3609 1676.4375,208.5484 Q1676.65,208.7359 1676.65,209.0359 Q1676.65,209.3484 1676.4375,209.5359 Q1676.225,209.7234 1675.7375,209.7234 L1674.3625,209.7234 Z " fill="#000000"/><text fill="#000000" font-family="sans-serif" font-size="11.2" font-style="italic" lengthAdjust="spacing" textLength="123.2656" x="1684.8" y="217.0484">ShowRequestRepository</text><line style="stroke:#181818;stroke-width:0.4000000000000001;" x1="1662.4" x2="1809.6656" y1="225.2109" y2="225.2109"/><line style="stroke:#181818;stroke-width:0.4000000000000001;" x1="1662.4" x2="1809.6656" y1="231.6109" y2="231.6109"/></g><!--reverse link Customer to VATNumber--><g id="link_Customer_VATNumber"><path codeLine="151" d="M2447.2,430.6029 C2447.2,456.4429 2447.2,487.2429 2447.2,513.0589 " fill="none" id="Customer-backto-VATNumber" style="stroke:#181818;stroke-width:0.8000000000000002;"/><polygon fill="#181818" points="2447.2,421.0029,2444,425.8029,2447.2,430.6029,2450.4,425.8029,2447.2,421.0029" style="stroke:#181818;stroke-width:0.8000000000000002;"/></g><!--reverse link Customer to CustomerName--><g id="link_Customer_CustomerName"><path codeLine="152" d="M2396.936,430.6029 C2396.936,471.0589 2396.936,537.6109 2396.936,537.6109 C2396.936,537.6109 2387.408,537.6109 2375.208,537.6109 " fill="none" id="Customer-backto-CustomerName" style="stroke:#181818;stroke-width:0.8000000000000002;"/><polygon fill="#181818" points="2396.936,421.0029,2393.736,425.8029,2396.936,430.6029,2400.136,425.8029,2396.936,421.0029" style="stroke:#181818;stroke-width:0.8000000000000002;"/></g><!--reverse link Customer to Address--><g id="link_Customer_Address"><path codeLine="153" d="M2497.464,430.6029 C2497.464,471.0589 2497.464,537.6109 2497.464,537.6109 C2497.464,537.6109 2506.864,537.6109 2518.464,537.6109 " fill="none" id="Customer-backto-Address" style="stroke:#181818;stroke-width:0.8000000000000002;"/><polygon fill="#181818" points="2497.464,421.0029,2494.264,425.8029,2497.464,430.6029,2500.664,425.8029,2497.464,421.0029" style="stroke:#181818;stroke-width:0.8000000000000002;"/></g><!--link Customer to CustomerStatus--><g id="link_Customer_CustomerStatus"><path codeLine="154" d="M2390.264,420.8269 C2390.264,448.9149 2390.264,491.2109 2390.264,491.2109 C2390.264,491.2109 2307.448,491.2109 2248.232,491.2109 " fill="none" id="Customer-to-CustomerStatus" style="stroke:#181818;stroke-width:0.8000000000000002;"/><polygon fill="#181818" points="2243.432,491.2109,2250.632,494.4109,2247.432,491.2109,2250.632,488.0109,2243.432,491.2109" style="stroke:#181818;stroke-width:0.8000000000000002;"/></g><!--reverse link Customer to CustomerRepresentative--><g id="link_Customer_CustomerRepresentative"><path codeLine="155" d="M2504.136,430.5709 C2504.136,463.8669 2504.136,509.6109 2504.136,509.6109 C2504.136,509.6109 2574.32,509.6109 2632.16,509.6109 " fill="none" id="Customer-backto-CustomerRepresentative" style="stroke:#181818;stroke-width:0.8000000000000002;"/><polygon fill="#181818" points="2504.136,420.9709,2500.936,425.7709,2504.136,430.5709,2507.336,425.7709,2504.136,420.9709" style="stroke:#181818;stroke-width:0.8000000000000002;"/><text fill="#000000" font-family="sans-serif" font-size="10.4" lengthAdjust="spacing" textLength="5.784" x="2508.5526" y="438.0279">1</text><text fill="#000000" font-family="sans-serif" font-size="10.4" lengthAdjust="spacing" textLength="18.4996" x="2607.5818" y="504.6806">0...*</text></g><!--link Customer to CustomerID--><g id="link_Customer_CustomerID"><path codeLine="156" d="M2383.568,401.6109 C2280.344,401.6109 2087.8,401.6109 2087.8,401.6109 C2087.8,401.6109 2087.8,468.9869 2087.8,508.1789 " fill="none" id="Customer-to-CustomerID" style="stroke:#181818;stroke-width:0.8000000000000002;"/><polygon fill="#181818" points="2087.8,512.9789,2091,505.7789,2087.8,508.9789,2084.6,505.7789,2087.8,512.9789" style="stroke:#181818;stroke-width:0.8000000000000002;"/></g><!--link CustomerRepresentative to CustomerRepresentativeStatus--><g id="link_CustomerRepresentative_CustomerRepresentativeStatus"><path codeLine="158" d="M2707.2,569.5549 C2707.2,594.0669 2707.2,623.2349 2707.2,649.4349 " fill="none" id="CustomerRepresentative-to-CustomerRepresentativeStatus" style="stroke:#181818;stroke-width:0.8000000000000002;"/><polygon fill="#181818" points="2707.2,654.2349,2710.4,647.0349,2707.2,650.2349,2704,647.0349,2707.2,654.2349" style="stroke:#181818;stroke-width:0.8000000000000002;"/></g><!--link ShowProposal to ShowProposalStatus--><g id="link_ShowProposal_ShowProposalStatus"><path codeLine="160" d="M697.8,420.9549 C697.8,448.0909 697.8,488.0109 697.8,488.0109 C697.8,488.0109 783.536,488.0109 848.608,488.0109 " fill="none" id="ShowProposal-to-ShowProposalStatus" style="stroke:#181818;stroke-width:0.8000000000000002;"/><polygon fill="#181818" points="853.408,488.0109,846.208,484.8109,849.408,488.0109,846.208,491.2109,853.408,488.0109" style="stroke:#181818;stroke-width:0.8000000000000002;"/></g><!--reverse link ShowProposal to Video--><g id="link_ShowProposal_Video"><path codeLine="161" d="M565.096,401.6109 C456.128,401.6109 255.2,401.6109 255.2,401.6109 C255.2,401.6109 255.2,473.7869 255.2,512.9789 " fill="none" id="ShowProposal-backto-Video" style="stroke:#181818;stroke-width:0.8000000000000002;"/><polygon fill="#181818" points="574.696,401.6109,569.896,398.4109,565.096,401.6109,569.896,404.8109,574.696,401.6109" style="stroke:#181818;stroke-width:0.8000000000000002;"/></g><!--reverse link ShowProposal to ShowProposalDocument--><g id="link_ShowProposal_ShowProposalDocument"><path codeLine="162" d="M615.8,430.6029 C615.8,449.8829 615.8,467.6749 615.8,491.0589 " fill="none" id="ShowProposal-backto-ShowProposalDocument" style="stroke:#181818;stroke-width:0.8000000000000002;"/><polygon fill="#181818" points="615.8,421.0029,612.6,425.8029,615.8,430.6029,619,425.8029,615.8,421.0029" style="stroke:#181818;stroke-width:0.8000000000000002;"/></g><!--reverse link ShowProposal to ShowProposalTotalDrone--><g id="link_ShowProposal_ShowProposalTotalDrone"><path codeLine="163" d="M565.16,411.2109 C502.376,411.2109 425.336,411.2109 425.336,411.2109 C425.336,411.2109 425.336,476.1549 425.336,512.9389 " fill="none" id="ShowProposal-backto-ShowProposalTotalDrone" style="stroke:#181818;stroke-width:0.8000000000000002;"/><polygon fill="#181818" points="574.76,411.2109,569.96,408.0109,565.16,411.2109,569.96,414.4109,574.76,411.2109" style="stroke:#181818;stroke-width:0.8000000000000002;"/></g><!--reverse link ShowProposal to ShowProposalDuration--><g id="link_ShowProposal_ShowProposalDuration"><path codeLine="165" d="M693.6,430.6029 C693.6,456.4429 693.6,487.2429 693.6,513.0589 " fill="none" id="ShowProposal-backto-ShowProposalDuration" style="stroke:#181818;stroke-width:0.8000000000000002;"/><polygon fill="#181818" points="693.6,421.0029,690.4,425.8029,693.6,430.6029,696.8,425.8029,693.6,421.0029" style="stroke:#181818;stroke-width:0.8000000000000002;"/></g><!--reverse link ShowProposal to ShowProposalID--><g id="link_ShowProposal_ShowProposalID"><path codeLine="166" d="M565.136,392.0109 C428.608,392.0109 129.6,392.0109 129.6,392.0109 C129.6,392.0109 129.6,471.3709 129.6,512.9149 " fill="none" id="ShowProposal-backto-ShowProposalID" style="stroke:#181818;stroke-width:0.8000000000000002;"/><polygon fill="#181818" points="574.736,392.0109,569.936,388.8109,565.136,392.0109,569.936,395.2109,574.736,392.0109" style="stroke:#181818;stroke-width:0.8000000000000002;"/></g><!--link ShowProposal to CustomerID--><g id="link_ShowProposal_CustomerID"><path codeLine="167" d="M689.4,420.8909 C689.4,432.8989 689.4,444.8109 689.4,444.8109 C689.4,444.8109 2045,444.8109 2045,444.8109 C2045,444.8109 2045,480.6909 2045,508.1869 " fill="none" id="ShowProposal-to-CustomerID" style="stroke:#181818;stroke-width:0.8000000000000002;"/><polygon fill="#181818" points="2045,512.9869,2048.2,505.7869,2045,508.9869,2041.8,505.7869,2045,512.9869" style="stroke:#181818;stroke-width:0.8000000000000002;"/></g><!--link ShowProposal to ShowRequestID--><g id="link_ShowProposal_ShowRequestID"><path codeLine="168" d="M702.168,396.8109 C829.312,396.8109 1102.264,396.8109 1102.264,396.8109 C1102.264,396.8109 1102.264,467.9469 1102.264,508.2829 " fill="none" id="ShowProposal-to-ShowRequestID" style="stroke:#181818;stroke-width:0.8000000000000002;"/><polygon fill="#181818" points="1102.264,513.0829,1105.464,505.8829,1102.264,509.0829,1099.064,505.8829,1102.264,513.0829" style="stroke:#181818;stroke-width:0.8000000000000002;"/></g><!--link ShowRequest to CustomerID--><g id="link_ShowRequest_CustomerID"><path codeLine="170" d="M1669.432,382.4109 C1795.944,382.4109 2066.4,382.4109 2066.4,382.4109 C2066.4,382.4109 2066.4,464.4589 2066.4,508.2189 " fill="none" id="ShowRequest-to-CustomerID" style="stroke:#181818;stroke-width:0.8000000000000002;"/><polygon fill="#181818" points="2066.4,513.0189,2069.6,505.8189,2066.4,509.0189,2063.2,505.8189,2066.4,513.0189" style="stroke:#181818;stroke-width:0.8000000000000002;"/></g><!--reverse link ShowRequest to AddressRequest--><g id="link_ShowRequest_AddressRequest"><path codeLine="171" d="M1605.6,430.6029 C1605.6,456.4429 1605.6,487.2429 1605.6,513.0589 " fill="none" id="ShowRequest-backto-AddressRequest" style="stroke:#181818;stroke-width:0.8000000000000002;"/><polygon fill="#181818" points="1605.6,421.0029,1602.4,425.8029,1605.6,430.6029,1608.8,425.8029,1605.6,421.0029" style="stroke:#181818;stroke-width:0.8000000000000002;"/></g><!--reverse link ShowRequest to Date--><g id="link_ShowRequest_Date"><path codeLine="172" d="M1664.6,430.6029 C1664.6,471.0589 1664.6,537.6109 1664.6,537.6109 C1664.6,537.6109 1675.384,537.6109 1688.272,537.6109 " fill="none" id="ShowRequest-backto-Date" style="stroke:#181818;stroke-width:0.8000000000000002;"/><polygon fill="#181818" points="1664.6,421.0029,1661.4,425.8029,1664.6,430.6029,1667.8,425.8029,1664.6,421.0029" style="stroke:#181818;stroke-width:0.8000000000000002;"/></g><!--reverse link ShowRequest to ShowRequestDuration--><g id="link_ShowRequest_ShowRequestDuration"><path codeLine="173" d="M1679.008,411.2109 C1737.808,411.2109 1806.4,411.2109 1806.4,411.2109 C1806.4,411.2109 1806.4,476.1549 1806.4,512.9389 " fill="none" id="ShowRequest-backto-ShowRequestDuration" style="stroke:#181818;stroke-width:0.8000000000000002;"/><polygon fill="#181818" points="1669.408,411.2109,1674.208,414.4109,1679.008,411.2109,1674.208,408.0109,1669.408,411.2109" style="stroke:#181818;stroke-width:0.8000000000000002;"/></g><!--reverse link ShowRequest to ShowRequestDescription--><g id="link_ShowRequest_ShowRequestDescription"><path codeLine="174" d="M1532.272,408.8109 C1443.128,408.8109 1301.6,408.8109 1301.6,408.8109 C1301.6,408.8109 1301.6,475.7149 1301.6,513.0829 " fill="none" id="ShowRequest-backto-ShowRequestDescription" style="stroke:#181818;stroke-width:0.8000000000000002;"/><polygon fill="#181818" points="1541.872,408.8109,1537.072,405.6109,1532.272,408.8109,1537.072,412.0109,1541.872,408.8109" style="stroke:#181818;stroke-width:0.8000000000000002;"/></g><!--link ShowRequest to ShowRequestStatus--><g id="link_ShowRequest_ShowRequestStatus"><path codeLine="175" d="M1546.6,421.0029 C1546.6,443.3389 1546.6,472.8109 1546.6,472.8109 C1546.6,472.8109 1541.456,472.8109 1528.016,472.8109 " fill="none" id="ShowRequest-to-ShowRequestStatus" style="stroke:#181818;stroke-width:0.8000000000000002;"/><polygon fill="#181818" points="1523.216,472.8109,1530.416,476.0109,1527.216,472.8109,1530.416,469.6109,1523.216,472.8109" style="stroke:#181818;stroke-width:0.8000000000000002;"/></g><!--reverse link ShowRequest to ShowRequestID--><g id="link_ShowRequest_ShowRequestID"><path codeLine="176" d="M1532.168,384.8109 C1404.144,384.8109 1137.736,384.8109 1137.736,384.8109 C1137.736,384.8109 1137.736,469.8669 1137.736,513.0589 " fill="none" id="ShowRequest-backto-ShowRequestID" style="stroke:#181818;stroke-width:0.8000000000000002;"/><polygon fill="#181818" points="1541.768,384.8109,1536.968,381.6109,1532.168,384.8109,1536.968,388.0109,1541.768,384.8109" style="stroke:#181818;stroke-width:0.8000000000000002;"/></g><!--link CustomerService to Customer--><g id="link_CustomerService_Customer"><path codeLine="178" d="M2895.2,258.0909 C2895.2,310.5149 2895.2,396.8109 2895.2,396.8109 C2895.2,396.8109 2639.4,396.8109 2515.712,396.8109 " fill="none" id="CustomerService-to-Customer" style="stroke:#181818;stroke-width:0.8000000000000002;stroke-dasharray:7.0,7.0;"/><polygon fill="#181818" points="2510.912,396.8109,2518.112,400.0109,2514.912,396.8109,2518.112,393.6109,2510.912,396.8109" style="stroke:#181818;stroke-width:0.8000000000000002;"/></g><!--link CustomerRepresentativeService to Customer--><g id="link_CustomerRepresentativeService_Customer"><path codeLine="179" d="M2447.2,265.2429 C2447.2,299.3629 2447.2,339.5869 2447.2,367.0269 " fill="none" id="CustomerRepresentativeService-to-Customer" style="stroke:#181818;stroke-width:0.8000000000000002;stroke-dasharray:7.0,7.0;"/><polygon fill="#181818" points="2447.2,371.8269,2450.4,364.6269,2447.2,367.8269,2444,364.6269,2447.2,371.8269" style="stroke:#181818;stroke-width:0.8000000000000002;"/></g><!--link ShowProposalService to ShowProposal--><g id="link_ShowProposalService_ShowProposal"><path codeLine="180" d="M638.4,295.4189 C638.4,322.9229 638.4,347.2269 638.4,367.0829 " fill="none" id="ShowProposalService-to-ShowProposal" style="stroke:#181818;stroke-width:0.8000000000000002;stroke-dasharray:7.0,7.0;"/><polygon fill="#181818" points="638.4,371.8829,641.6,364.6829,638.4,367.8829,635.2,364.6829,638.4,371.8829" style="stroke:#181818;stroke-width:0.8000000000000002;"/></g><!--link ShowRequestService to ShowRequest--><g id="link_ShowRequestService_ShowRequest"><path codeLine="181" d="M1579.2,287.7309 C1579.2,317.3709 1579.2,345.3309 1579.2,367.0509 " fill="none" id="ShowRequestService-to-ShowRequest" style="stroke:#181818;stroke-width:0.8000000000000002;stroke-dasharray:7.0,7.0;"/><polygon fill="#181818" points="1579.2,371.8509,1582.4,364.6509,1579.2,367.8509,1576,364.6509,1579.2,371.8509" style="stroke:#181818;stroke-width:0.8000000000000002;"/></g><!--link ShowProposalRepository to ShowProposal--><g id="link_ShowProposalRepository_ShowProposal"><path codeLine="183" d="M375.864,238.2189 C375.864,281.5549 375.864,382.4109 375.864,382.4109 C375.864,382.4109 492,382.4109 569.712,382.4109 " fill="none" id="ShowProposalRepository-to-ShowProposal" style="stroke:#181818;stroke-width:0.8000000000000002;stroke-dasharray:7.0,7.0;"/><polygon fill="#181818" points="574.512,382.4109,567.312,379.2109,570.512,382.4109,567.312,385.6109,574.512,382.4109" style="stroke:#181818;stroke-width:0.8000000000000002;"/></g><!--link CustomerRepository to Customer--><g id="link_CustomerRepository_Customer"><path codeLine="184" d="M2144.4,238.3389 C2144.4,283.6349 2144.4,392.0109 2144.4,392.0109 C2144.4,392.0109 2289.712,392.0109 2378.552,392.0109 " fill="none" id="CustomerRepository-to-Customer" style="stroke:#181818;stroke-width:0.8000000000000002;stroke-dasharray:7.0,7.0;"/><polygon fill="#181818" points="2383.352,392.0109,2376.152,388.8109,2379.352,392.0109,2376.152,395.2109,2383.352,392.0109" style="stroke:#181818;stroke-width:0.8000000000000002;"/></g><!--link ShowRequestRepository to ShowRequest--><g id="link_ShowRequestRepository_ShowRequest"><path codeLine="185" d="M1665.4,238.1549 C1665.4,270.6989 1665.4,331.5389 1665.4,367.2029 " fill="none" id="ShowRequestRepository-to-ShowRequest" style="stroke:#181818;stroke-width:0.8000000000000002;stroke-dasharray:7.0,7.0;"/><polygon fill="#181818" points="1665.4,372.0029,1668.6,364.8029,1665.4,368.0029,1662.2,364.8029,1665.4,372.0029" style="stroke:#181818;stroke-width:0.8000000000000002;"/></g><!--SRC=[dLVDRkCs4BxpAGRkeS32CTfBKHJR08gjJLmaZYlPwN51IsERZKIgf9GWM0JeQ_Jr-YGTKf8bMxAID0T78h_vuVny79b78JEkUGg9a9Y_P0XAvtl5c3diP3nwv3k4RmpWYfvtMXKodgf4QVXkzfFlVVdPxYWTeovNhnA2CVRAsFVmA_t1T1skxk_ymBqnLciScRsAjP8uYPIcdyBaAaMTSacxASfy4gkK2pc2pv-ztKxZZkTuUKcUi2ZXni2qag1zN-OYVnd30HSebLliwmbsmLCa_0DF2hpV_8bHBse-Euzvy5QB8jquisSWNXnhfFyzW1D30MQ4fBFoN3pXuI3kb1SGvbh87MJAY5meQKEAiaWFqY695SP95QcJ2VphzQqNZDd3V3bcyyMNOBwuzk_ynMhCPlwjl_9dOpODV8yUEkgEdUagzwQh-OFdLCpceNTrM-fu_KXA3Ued4U78PX7WE1XXkKScPoxnrRkpFSESz52L6gYrGgQ5qXGjCCvLjk46Or2oGSGyvy1b39l2M5a3kaZGJDWRYHZoPBKN1ifbg74e8vwP8g72Cv3liR6Ng9s8GEDVXT3aNAw0h8gT10vhYeLREEF4XCrpqcmAxPJod8wMl411OWQUHRvtbkhc-Xhuoy0FATCUPSa7hHA4Y4lOO6KIup7bUwjqP8lAofRzvM9I6Y0QU3JE0cGst2IdP6Ni45JTybB9oOTBWEHjGIlzugf0IChibbCKMs6e06qM2M_k_u1bSB-y3xtROIgXj-TCAzB2a_VJIKXIoqhgFPJInWyIXeXHdTzkgrcfd2SpUv01xcWBp5HKsBDruGrzIAAyvYr64scHEJvf62OfTa9EhNhMRwVGBjkzRZaIQQExr55HpfY5ZegywTHVklV0_ysVMZ8QBgCp6MspITVfDxkuglzA2zrzqHvDhWzTJ7LkBq5tSBMbHhLkGEr7mpUqaM4ajjJfrdv0tKvw9a3zIrQeMJBg8h6XBgFk-uKPJ2XuDkvRiNFTlTKgTHOZ8YoYZC8w0nAVgTyZZUIGjODcpCfMTecqqJ6EtLAUPLLFfvPHIhLWBtGI4P9k3-xiMJ3FSnxjtHk48hMaHUUZ0YRVu8ad8dOBOxP3YRgKUt8bJE5u4lXSsYHqIgeifs6QEUOZxvmpb9wQOUfO_VltFoGMHPZbNBfGKrXi2TdGblGz-LyLS9PCseKmG2Y1__lQ3rTlyuaka_enEgaguRriKi67oAGQBHh5Pt0pCZ7CEPMAeSxkWXlo66Q22jybWd1zTJTVbJE47ywl5tHpUQ5xeAMQth_ILRRqWgEbaZd2wOq_Mz-wCSPRJFqtPv3-tFKJH-tr1tbZJsMVL9JHsB2CuVYYicwOAJQfS2spUO5fS0SqBoTyeoW1YgvqPU_gFK-sLhA-Dqqr1V1DRS7nWMrGm5WSkjhsqAdrsh2bW2WfuhefImwfKTmT7IYrTaRG8BQMU0xKn8b896ACySayWhL-ABLRR98qeqwCEHU90LD4UpB9Y2CY7DkHpFvMLJSkkQJaAurRr3HAuNkue9lJGIgeKdl213KL1FujJKttY_1clWmhBZXyNS2dYmjenlxJZVQNnUbUrQsjvOkBIpYPtvlTqOyZ9pVwOJAPV1gTcGlFQPlF6gTFlYkEWNrpFcD7uqyfqBtJJr1bPEpbqBVHDwYyXMice1EFBB9l8Xb6KKoEzksnMl7gx1snSEb1JRMTO1zjjjDTBVO0B2ltBFVGyHkerX3NzR53m4UOEaIjOvv-W4qcJPJOy1VI4RHl-BA0zZhh8TeQKmUEzL_UNLtTBuQkGvtExvZx3m00]--></g></svg>