<svg xmlns="http://www.w3.org/2000/svg" xmlns:xlink="http://www.w3.org/1999/xlink" contentStyleType="text/css" height="869px" preserveAspectRatio="none" style="width:1398px;height:869px;background:#FFFFFF;" version="1.1" viewBox="0 0 1398 869" width="1398px" zoomAndPan="magnify"><title>US316 - Send Show Proposal (Actual Implementation)</title><defs/><g><text fill="#000000" font-family="sans-serif" font-size="14" font-weight="bold" lengthAdjust="spacing" textLength="357.834" x="521.3738" y="30.1074">US316 - Send Show Proposal (Actual Implementation)</text><rect fill="none" height="503.8691" style="stroke:#000000;stroke-width:1.5;" width="1381.5815" x="10" y="265.4063"/><line style="stroke:#181818;stroke-width:0.5;stroke-dasharray:5.0,5.0;" x1="79" x2="79" y1="123.2422" y2="786.2754"/><line style="stroke:#181818;stroke-width:0.5;stroke-dasharray:5.0,5.0;" x1="453.5313" x2="453.5313" y1="123.2422" y2="786.2754"/><line style="stroke:#181818;stroke-width:0.5;stroke-dasharray:5.0,5.0;" x1="687.4336" x2="687.4336" y1="123.2422" y2="786.2754"/><line style="stroke:#181818;stroke-width:0.5;stroke-dasharray:5.0,5.0;" x1="900.7559" x2="900.7559" y1="123.2422" y2="786.2754"/><line style="stroke:#181818;stroke-width:0.5;stroke-dasharray:5.0,5.0;" x1="1088.4102" x2="1088.4102" y1="123.2422" y2="786.2754"/><line style="stroke:#181818;stroke-width:0.5;stroke-dasharray:5.0,5.0;" x1="1264.6025" x2="1264.6025" y1="123.2422" y2="786.2754"/><text fill="#000000" font-family="sans-serif" font-size="14" lengthAdjust="spacing" textLength="112.0342" x="20" y="119.7285">CRM Collaborator</text><ellipse cx="79.0171" cy="53.1211" fill="#E2E2F0" rx="8" ry="8" style="stroke:#181818;stroke-width:0.5;"/><path d="M79.0171,61.1211 L79.0171,88.1211 M66.0171,69.1211 L92.0171,69.1211 M79.0171,88.1211 L66.0171,103.1211 M79.0171,88.1211 L92.0171,103.1211 " fill="none" style="stroke:#181818;stroke-width:0.5;"/><text fill="#000000" font-family="sans-serif" font-size="14" lengthAdjust="spacing" textLength="112.0342" x="20" y="800.3828">CRM Collaborator</text><ellipse cx="79.0171" cy="812.3965" fill="#E2E2F0" rx="8" ry="8" style="stroke:#181818;stroke-width:0.5;"/><path d="M79.0171,820.3965 L79.0171,847.3965 M66.0171,828.3965 L92.0171,828.3965 M79.0171,847.3965 L66.0171,862.3965 M79.0171,847.3965 L92.0171,862.3965 " fill="none" style="stroke:#181818;stroke-width:0.5;"/><rect fill="#E2E2F0" height="32.6211" rx="2.5" ry="2.5" style="stroke:#181818;stroke-width:0.5;" width="150.9717" x="378.5313" y="89.6211"/><text fill="#000000" font-family="sans-serif" font-size="14" lengthAdjust="spacing" textLength="136.9717" x="385.5313" y="111.7285">SendShowProposalUI</text><rect fill="#E2E2F0" height="32.6211" rx="2.5" ry="2.5" style="stroke:#181818;stroke-width:0.5;" width="150.9717" x="378.5313" y="785.2754"/><text fill="#000000" font-family="sans-serif" font-size="14" lengthAdjust="spacing" textLength="136.9717" x="385.5313" y="807.3828">SendShowProposalUI</text><rect fill="#E2E2F0" height="32.6211" rx="2.5" ry="2.5" style="stroke:#181818;stroke-width:0.5;" width="197.6611" x="589.4336" y="89.6211"/><text fill="#000000" font-family="sans-serif" font-size="14" lengthAdjust="spacing" textLength="183.6611" x="596.4336" y="111.7285">SendShowProposalController</text><rect fill="#E2E2F0" height="32.6211" rx="2.5" ry="2.5" style="stroke:#181818;stroke-width:0.5;" width="197.6611" x="589.4336" y="785.2754"/><text fill="#000000" font-family="sans-serif" font-size="14" lengthAdjust="spacing" textLength="183.6611" x="596.4336" y="807.3828">SendShowProposalController</text><rect fill="#E2E2F0" height="32.6211" rx="2.5" ry="2.5" style="stroke:#181818;stroke-width:0.5;" width="183.6543" x="809.7559" y="89.6211"/><text fill="#000000" font-family="sans-serif" font-size="14" lengthAdjust="spacing" textLength="169.6543" x="816.7559" y="111.7285">SendShowProposalService</text><rect fill="#E2E2F0" height="32.6211" rx="2.5" ry="2.5" style="stroke:#181818;stroke-width:0.5;" width="183.6543" x="809.7559" y="785.2754"/><text fill="#000000" font-family="sans-serif" font-size="14" lengthAdjust="spacing" textLength="169.6543" x="816.7559" y="807.3828">SendShowProposalService</text><rect fill="#E2E2F0" height="32.6211" rx="2.5" ry="2.5" style="stroke:#181818;stroke-width:0.5;" width="171.1924" x="1003.4102" y="89.6211"/><text fill="#000000" font-family="sans-serif" font-size="14" lengthAdjust="spacing" textLength="157.1924" x="1010.4102" y="111.7285">ShowProposalRepository</text><rect fill="#E2E2F0" height="32.6211" rx="2.5" ry="2.5" style="stroke:#181818;stroke-width:0.5;" width="171.1924" x="1003.4102" y="785.2754"/><text fill="#000000" font-family="sans-serif" font-size="14" lengthAdjust="spacing" textLength="157.1924" x="1010.4102" y="807.3828">ShowProposalRepository</text><rect fill="#E2E2F0" height="32.6211" rx="2.5" ry="2.5" style="stroke:#181818;stroke-width:0.5;" width="161.8682" x="1184.6025" y="89.6211"/><text fill="#000000" font-family="sans-serif" font-size="14" lengthAdjust="spacing" textLength="147.8682" x="1191.6025" y="111.7285">proposal:ShowProposal</text><rect fill="#E2E2F0" height="32.6211" rx="2.5" ry="2.5" style="stroke:#181818;stroke-width:0.5;" width="161.8682" x="1184.6025" y="785.2754"/><text fill="#000000" font-family="sans-serif" font-size="14" lengthAdjust="spacing" textLength="147.8682" x="1191.6025" y="807.3828">proposal:ShowProposal</text><polygon fill="#181818" points="442.0171,152.5332,452.0171,156.5332,442.0171,160.5332,446.0171,156.5332" style="stroke:#181818;stroke-width:1.0;"/><line style="stroke:#181818;stroke-width:1.0;" x1="79.0171" x2="448.0171" y1="156.5332" y2="156.5332"/><text fill="#000000" font-family="sans-serif" font-size="13" lengthAdjust="spacing" textLength="165.4961" x="86.0171" y="151.2705">Requests to send a proposal</text><polygon fill="#181818" points="676.2642,183.8242,686.2642,187.8242,676.2642,191.8242,680.2642,187.8242" style="stroke:#181818;stroke-width:1.0;"/><line style="stroke:#181818;stroke-width:1.0;" x1="454.0171" x2="682.2642" y1="187.8242" y2="187.8242"/><text fill="#000000" font-family="sans-serif" font-size="13" lengthAdjust="spacing" textLength="151.0234" x="461.0171" y="182.5615">sendProposal(proposalID)</text><polygon fill="#181818" points="889.583,215.1152,899.583,219.1152,889.583,223.1152,893.583,219.1152" style="stroke:#181818;stroke-width:1.0;"/><line style="stroke:#181818;stroke-width:1.0;" x1="688.2642" x2="895.583" y1="219.1152" y2="219.1152"/><text fill="#000000" font-family="sans-serif" font-size="13" lengthAdjust="spacing" textLength="98.2744" x="695.2642" y="213.8525">sendProposal(id)</text><polygon fill="#181818" points="1077.0063,246.4063,1087.0063,250.4063,1077.0063,254.4063,1081.0063,250.4063" style="stroke:#181818;stroke-width:1.0;"/><line style="stroke:#181818;stroke-width:1.0;" x1="901.583" x2="1083.0063" y1="250.4063" y2="250.4063"/><text fill="#000000" font-family="sans-serif" font-size="13" lengthAdjust="spacing" textLength="71.5317" x="908.583" y="245.1436">ofIdentity(id)</text><path d="M10,265.4063 L70.1709,265.4063 L70.1709,274.6973 L60.1709,284.6973 L10,284.6973 L10,265.4063 " fill="#EEEEEE" style="stroke:#000000;stroke-width:1.5;"/><rect fill="none" height="503.8691" style="stroke:#000000;stroke-width:1.5;" width="1381.5815" x="10" y="265.4063"/><text fill="#000000" font-family="sans-serif" font-size="13" font-weight="bold" lengthAdjust="spacing" textLength="15.1709" x="25" y="280.4346">alt</text><text fill="#000000" font-family="sans-serif" font-size="11" font-weight="bold" lengthAdjust="spacing" textLength="108.147" x="85.1709" y="279.2764">[Proposal not found]</text><polygon fill="#181818" points="912.583,303.9883,902.583,307.9883,912.583,311.9883,908.583,307.9883" style="stroke:#181818;stroke-width:1.0;"/><line style="stroke:#181818;stroke-width:1.0;stroke-dasharray:2.0,2.0;" x1="906.583" x2="1088.0063" y1="307.9883" y2="307.9883"/><text fill="#000000" font-family="sans-serif" font-size="13" lengthAdjust="spacing" textLength="35.4009" x="918.583" y="302.7256">empty</text><polygon fill="#181818" points="699.2642,335.2793,689.2642,339.2793,699.2642,343.2793,695.2642,339.2793" style="stroke:#181818;stroke-width:1.0;"/><line style="stroke:#181818;stroke-width:1.0;stroke-dasharray:2.0,2.0;" x1="693.2642" x2="900.583" y1="339.2793" y2="339.2793"/><text fill="#000000" font-family="sans-serif" font-size="13" lengthAdjust="spacing" textLength="189.3188" x="705.2642" y="334.0166">throws IllegalArgumentException</text><polygon fill="#181818" points="465.0171,366.5703,455.0171,370.5703,465.0171,374.5703,461.0171,370.5703" style="stroke:#181818;stroke-width:1.0;"/><line style="stroke:#181818;stroke-width:1.0;stroke-dasharray:2.0,2.0;" x1="459.0171" x2="687.2642" y1="370.5703" y2="370.5703"/><text fill="#000000" font-family="sans-serif" font-size="13" lengthAdjust="spacing" textLength="88.1309" x="471.0171" y="365.3076">informs of error</text><polygon fill="#181818" points="90.0171,397.8613,80.0171,401.8613,90.0171,405.8613,86.0171,401.8613" style="stroke:#181818;stroke-width:1.0;"/><line style="stroke:#181818;stroke-width:1.0;" x1="84.0171" x2="453.0171" y1="401.8613" y2="401.8613"/><text fill="#000000" font-family="sans-serif" font-size="13" lengthAdjust="spacing" textLength="256.3628" x="96.0171" y="396.5986">displays error message "Proposal not found"</text><line style="stroke:#000000;stroke-width:1.0;stroke-dasharray:2.0,2.0;" x1="10" x2="1391.5815" y1="410.8613" y2="410.8613"/><text fill="#000000" font-family="sans-serif" font-size="11" font-weight="bold" lengthAdjust="spacing" textLength="87.9893" x="15" y="422.7314">[Proposal found]</text><polygon fill="#181818" points="912.583,445.7832,902.583,449.7832,912.583,453.7832,908.583,449.7832" style="stroke:#181818;stroke-width:1.0;"/><line style="stroke:#181818;stroke-width:1.0;stroke-dasharray:2.0,2.0;" x1="906.583" x2="1088.0063" y1="449.7832" y2="449.7832"/><text fill="#000000" font-family="sans-serif" font-size="13" lengthAdjust="spacing" textLength="49.8672" x="918.583" y="444.5205">proposal</text><line style="stroke:#181818;stroke-width:1.0;" x1="901.583" x2="943.583" y1="520.8018" y2="520.8018"/><line style="stroke:#181818;stroke-width:1.0;" x1="943.583" x2="943.583" y1="520.8018" y2="533.8018"/><line style="stroke:#181818;stroke-width:1.0;" x1="902.583" x2="943.583" y1="533.8018" y2="533.8018"/><polygon fill="#181818" points="912.583,529.8018,902.583,533.8018,912.583,537.8018,908.583,533.8018" style="stroke:#181818;stroke-width:1.0;"/><text fill="#000000" font-family="sans-serif" font-size="13" lengthAdjust="spacing" textLength="154.6416" x="908.583" y="515.5391">validateProposal(proposal)</text><path d="M1074.6416,462.7832 L1074.6416,575.7832 L1375.6416,575.7832 L1375.6416,472.7832 L1365.6416,462.7832 L1074.6416,462.7832 " fill="#FEFFDD" style="stroke:#181818;stroke-width:0.5;"/><path d="M1365.6416,462.7832 L1365.6416,472.7832 L1375.6416,472.7832 L1365.6416,462.7832 " fill="#FEFFDD" style="stroke:#181818;stroke-width:0.5;"/><text fill="#000000" font-family="sans-serif" font-size="13" lengthAdjust="spacing" textLength="141.6099" x="1080.6416" y="481.8115">This step internally calls:</text><text fill="#000000" font-family="sans-serif" font-size="13" lengthAdjust="spacing" textLength="125.0044" x="1080.6416" y="499.1025">- proposal.videoLink()</text><text fill="#000000" font-family="sans-serif" font-size="13" lengthAdjust="spacing" textLength="143.0571" x="1080.6416" y="516.3936">- proposal.figureEntries()</text><text fill="#000000" font-family="sans-serif" font-size="13" lengthAdjust="spacing" textLength="152.458" x="1080.6416" y="533.6846">- proposal.getDroneFleet()</text><text fill="#000000" font-family="sans-serif" font-size="13" lengthAdjust="spacing" textLength="104.7617" x="1080.6416" y="550.9756">- proposal.status()</text><text fill="#000000" font-family="sans-serif" font-size="13" lengthAdjust="spacing" textLength="280.3569" x="1080.6416" y="568.2666">If any check fails, it throws IllegalStateException.</text><polygon fill="#181818" points="1253.5366,600.8203,1263.5366,604.8203,1253.5366,608.8203,1257.5366,604.8203" style="stroke:#181818;stroke-width:1.0;"/><line style="stroke:#181818;stroke-width:1.0;" x1="901.583" x2="1259.5366" y1="604.8203" y2="604.8203"/><text fill="#000000" font-family="sans-serif" font-size="13" lengthAdjust="spacing" textLength="229.7725" x="908.583" y="599.5576">markAsSentAndGenerateAccessCode()</text><polygon fill="#181818" points="912.583,632.1113,902.583,636.1113,912.583,640.1113,908.583,636.1113" style="stroke:#181818;stroke-width:1.0;"/><line style="stroke:#181818;stroke-width:1.0;stroke-dasharray:2.0,2.0;" x1="906.583" x2="1264.5366" y1="636.1113" y2="636.1113"/><text fill="#000000" font-family="sans-serif" font-size="13" lengthAdjust="spacing" textLength="71.5381" x="918.583" y="630.8486">accessCode</text><polygon fill="#181818" points="1077.0063,663.4023,1087.0063,667.4023,1077.0063,671.4023,1081.0063,667.4023" style="stroke:#181818;stroke-width:1.0;"/><line style="stroke:#181818;stroke-width:1.0;" x1="901.583" x2="1083.0063" y1="667.4023" y2="667.4023"/><text fill="#000000" font-family="sans-serif" font-size="13" lengthAdjust="spacing" textLength="85.9854" x="908.583" y="662.1396">save(proposal)</text><polygon fill="#181818" points="699.2642,694.6934,689.2642,698.6934,699.2642,702.6934,695.2642,698.6934" style="stroke:#181818;stroke-width:1.0;"/><line style="stroke:#181818;stroke-width:1.0;stroke-dasharray:2.0,2.0;" x1="693.2642" x2="900.583" y1="698.6934" y2="698.6934"/><text fill="#000000" font-family="sans-serif" font-size="13" lengthAdjust="spacing" textLength="71.5381" x="705.2642" y="693.4307">accessCode</text><polygon fill="#181818" points="465.0171,725.9844,455.0171,729.9844,465.0171,733.9844,461.0171,729.9844" style="stroke:#181818;stroke-width:1.0;"/><line style="stroke:#181818;stroke-width:1.0;stroke-dasharray:2.0,2.0;" x1="459.0171" x2="687.2642" y1="729.9844" y2="729.9844"/><text fill="#000000" font-family="sans-serif" font-size="13" lengthAdjust="spacing" textLength="210.2471" x="471.0171" y="724.7217">informs of success with access code</text><polygon fill="#181818" points="90.0171,757.2754,80.0171,761.2754,90.0171,765.2754,86.0171,761.2754" style="stroke:#181818;stroke-width:1.0;"/><line style="stroke:#181818;stroke-width:1.0;stroke-dasharray:2.0,2.0;" x1="84.0171" x2="453.0171" y1="761.2754" y2="761.2754"/><text fill="#000000" font-family="sans-serif" font-size="13" lengthAdjust="spacing" textLength="351" x="96.0171" y="756.0127">displays "Operation successful. Access Code: [accessCode]"</text><!--SRC=[ZLJ1Yjim4BtxAuPSke5ceHHwyA4GijjYQDcowPvA3werTiJAaYkDiytV57fOzj3JVe9_h2CbSfna2JKXjgptHlFcpPWKQOIxvTitxs06IpGIbYlx05-SRQqN6Yxc9NLyBvfMOuE612bhfbacIh8E9elRpx2mMeiVrWb-Cm7XWLzchN2aIjKAGp5k29kYtXK1TLUS1Isi8SUHqSMGm-eiQObkhKeCZDtZ8Nm4lKM-AKvv4z1XTG2Tj3jSFYP5UMcHPK7zx3qhWPmZ_EpGamUou4CX1QGG6GCODbAKHqWAT960nTKq6w6OamGT4PHa2z8UmqBwZB5L8TaZHPijGcZQMsaiGMKx8pFWAp9c1oTWqz8cRWwHZxEcbRCF7WfUraBFNTs5dhZ-LM8R-YAInm9ISPIfh6iy9mZed7KHkAiArp07gNohnSPljw51xqMDC3dDVfAXzhYNTLRIu404l88vh8LMKlIF_HyB_HDq3JJz4rbf6QlMWkyo-CS1-aSBR2ddlhQbI30F9XbBuh1OuuEtnn2UM3oD75Q3u5IzehWCrzULyk09MpwGq1cXzGPA_lVvW9aDWYxNIgBzfCpznVIbxKhLdSDhTaAXVnbI8rqvQ_23HgIN8IoHkZ6zg40OJck5vJrKGcd_6XGTjSMIMJZqn6KaXu48elT6wFwvLbnNYM2mxfzB5GsH66980Vrl2Aqi1GF2ppRzNwFiSSc7FiYX4Uv-xlcJG7CZFw91_YBXl2ovbnPMuax6G3Zi537WKeet-pPeqNd5tl1CyqXnt6t_S5eyyTmpnqdjnj6BDOwCFpzQemJ-Oufy5-7me6YreqAPk66mJYThSjE6Yh0bYLrr-XAs1O9mS0xVzbbyvq7ZmVe7]--></g></svg>