<svg xmlns="http://www.w3.org/2000/svg" xmlns:xlink="http://www.w3.org/1999/xlink" contentStyleType="text/css" height="311px" preserveAspectRatio="none" style="width:289px;height:311px;background:#FFFFFF;" version="1.1" viewBox="0 0 289 311" width="289px" zoomAndPan="magnify"><defs/><g><line style="stroke:#181818;stroke-width:0.5;stroke-dasharray:5.0,5.0;" x1="64" x2="64" y1="83.6211" y2="228.7852"/><line style="stroke:#181818;stroke-width:0.5;stroke-dasharray:5.0,5.0;" x1="252.4326" x2="252.4326" y1="83.6211" y2="228.7852"/><text fill="#000000" font-family="sans-serif" font-size="14" lengthAdjust="spacing" textLength="112.0342" x="5" y="80.1074">CRM Collaborator</text><ellipse cx="64.0171" cy="13.5" fill="#E2E2F0" rx="8" ry="8" style="stroke:#181818;stroke-width:0.5;"/><path d="M64.0171,21.5 L64.0171,48.5 M51.0171,29.5 L77.0171,29.5 M64.0171,48.5 L51.0171,63.5 M64.0171,48.5 L77.0171,63.5 " fill="none" style="stroke:#181818;stroke-width:0.5;"/><text fill="#000000" font-family="sans-serif" font-size="14" lengthAdjust="spacing" textLength="112.0342" x="5" y="242.8926">CRM Collaborator</text><ellipse cx="64.0171" cy="254.9063" fill="#E2E2F0" rx="8" ry="8" style="stroke:#181818;stroke-width:0.5;"/><path d="M64.0171,262.9063 L64.0171,289.9063 M51.0171,270.9063 L77.0171,270.9063 M64.0171,289.9063 L51.0171,304.9063 M64.0171,289.9063 L77.0171,304.9063 " fill="none" style="stroke:#181818;stroke-width:0.5;"/><rect fill="#E2E2F0" height="32.6211" rx="2.5" ry="2.5" style="stroke:#181818;stroke-width:0.5;" width="60.6758" x="222.4326" y="50"/><text fill="#000000" font-family="sans-serif" font-size="14" lengthAdjust="spacing" textLength="46.6758" x="229.4326" y="72.1074">System</text><rect fill="#E2E2F0" height="32.6211" rx="2.5" ry="2.5" style="stroke:#181818;stroke-width:0.5;" width="60.6758" x="222.4326" y="227.7852"/><text fill="#000000" font-family="sans-serif" font-size="14" lengthAdjust="spacing" textLength="46.6758" x="229.4326" y="249.8926">System</text><polygon fill="#181818" points="240.7705,112.9121,250.7705,116.9121,240.7705,120.9121,244.7705,116.9121" style="stroke:#181818;stroke-width:1.0;"/><line style="stroke:#181818;stroke-width:1.0;" x1="64.0171" x2="246.7705" y1="116.9121" y2="116.9121"/><text fill="#000000" font-family="sans-serif" font-size="13" lengthAdjust="spacing" textLength="134.4116" x="71.0171" y="111.6494">starts proposal sending</text><polygon fill="#181818" points="75.0171,144.2031,65.0171,148.2031,75.0171,152.2031,71.0171,148.2031" style="stroke:#181818;stroke-width:1.0;"/><line style="stroke:#181818;stroke-width:1.0;" x1="69.0171" x2="251.7705" y1="148.2031" y2="148.2031"/><text fill="#000000" font-family="sans-serif" font-size="13" lengthAdjust="spacing" textLength="164.7534" x="81.0171" y="142.9404">lists proposals ready to send</text><polygon fill="#181818" points="240.7705,175.4941,250.7705,179.4941,240.7705,183.4941,244.7705,179.4941" style="stroke:#181818;stroke-width:1.0;"/><line style="stroke:#181818;stroke-width:1.0;" x1="64.0171" x2="246.7705" y1="179.4941" y2="179.4941"/><text fill="#000000" font-family="sans-serif" font-size="13" lengthAdjust="spacing" textLength="93.939" x="71.0171" y="174.2314">selects proposal</text><polygon fill="#181818" points="75.0171,206.7852,65.0171,210.7852,75.0171,214.7852,71.0171,210.7852" style="stroke:#181818;stroke-width:1.0;"/><line style="stroke:#181818;stroke-width:1.0;" x1="69.0171" x2="251.7705" y1="210.7852" y2="210.7852"/><text fill="#000000" font-family="sans-serif" font-size="13" lengthAdjust="spacing" textLength="155.3589" x="81.0171" y="205.5225">displays operation success</text><!--SRC=[PSwn3W8X40JGdg-OqFi3LzXSRQDViCBcGe8iOR3Wx-NKuf8hT_9ciXAwDVZrViDgESlJcip4GuWPkYgjfv2gb0x_6Epwyixj_7B5xyO2zic8sgmQ9ODQOYgR-uD9zyQ2d7XWH5E90zs-XVEgPWq7VvgBYJNB8ApgV3jP0TyXAFa1]--></g></svg>