<svg xmlns="http://www.w3.org/2000/svg" xmlns:xlink="http://www.w3.org/1999/xlink" contentStyleType="text/css" height="1868px" preserveAspectRatio="none" style="width:1949px;height:1868px;background:#FFFFFF;" version="1.1" viewBox="0 0 1949 1868" width="1949px" zoomAndPan="magnify"><defs/><g><!--class ApplicationSession--><g id="elem_ApplicationSession"><rect codeLine="6" fill="#F1F1F1" height="103.8633" id="ApplicationSession" rx="2.5" ry="2.5" style="stroke:#181818;stroke-width:0.5;" width="150.2959" x="884.5" y="287.5"/><ellipse cx="899.5" cy="303.5" fill="#ADD1B2" rx="11" ry="11" style="stroke:#181818;stroke-width:1.0;"/><path d="M902.2656,299.375 Q902.4219,299.1563 902.6094,299.0469 Q902.7969,298.9375 903.0156,298.9375 Q903.3906,298.9375 903.625,299.2031 Q903.8594,299.4531 903.8594,300.0625 L903.8594,301.5156 Q903.8594,302.125 903.625,302.3906 Q903.3906,302.6563 903.0156,302.6563 Q902.6719,302.6563 902.4688,302.4531 Q902.2656,302.2656 902.1563,301.75 Q902.1094,301.3906 901.9219,301.2031 Q901.5938,300.8281 900.9844,300.6094 Q900.375,300.3906 899.75,300.3906 Q898.9844,300.3906 898.3438,300.7188 Q897.7188,301.0469 897.2188,301.7969 Q896.7344,302.5469 896.7344,303.5781 L896.7344,304.6719 Q896.7344,305.9063 897.625,306.7344 Q898.5156,307.5469 900.1094,307.5469 Q901.0469,307.5469 901.7031,307.2969 Q902.0938,307.1406 902.5156,306.7031 Q902.7813,306.4375 902.9219,306.3594 Q903.0781,306.2813 903.2813,306.2813 Q903.6094,306.2813 903.8594,306.5469 Q904.125,306.7969 904.125,307.1406 Q904.125,307.4844 903.7813,307.8906 Q903.2813,308.4688 902.4844,308.7969 Q901.4063,309.25 900.1094,309.25 Q898.5938,309.25 897.3906,308.625 Q896.4063,308.125 895.7188,307.0625 Q895.0313,305.9844 895.0313,304.7031 L895.0313,303.5469 Q895.0313,302.2188 895.6406,301.0781 Q896.2656,299.9219 897.3594,299.3125 Q898.4531,298.6875 899.6875,298.6875 Q900.4219,298.6875 901.0625,298.8594 Q901.7188,299.0156 902.2656,299.375 Z " fill="#000000"/><text fill="#000000" font-family="sans-serif" font-size="14" lengthAdjust="spacing" textLength="118.2959" x="913.5" y="309.2969">ApplicationSession</text><line style="stroke:#181818;stroke-width:0.5;" x1="885.5" x2="1033.7959" y1="319.5" y2="319.5"/><line style="stroke:#181818;stroke-width:0.5;" x1="885.5" x2="1033.7959" y1="327.5" y2="327.5"/><text fill="#000000" font-family="sans-serif" font-size="14" lengthAdjust="spacing" textLength="132.2822" x="890.5" y="346.6074">-ApplicationSession()</text><text fill="#000000" font-family="sans-serif" font-size="14" lengthAdjust="spacing" text-decoration="underline" textLength="89.8857" x="890.5" y="365.2285">+getInstance()</text><text fill="#000000" font-family="sans-serif" font-size="14" lengthAdjust="spacing" textLength="133.4512" x="890.5" y="383.8496">+getCurrentSession()</text></g><!--class UserSession--><g id="elem_UserSession"><rect codeLine="12" fill="#F1F1F1" height="85.2422" id="UserSession" rx="2.5" ry="2.5" style="stroke:#181818;stroke-width:0.5;" width="160.2236" x="784.5" y="610"/><ellipse cx="821.4863" cy="626" fill="#ADD1B2" rx="11" ry="11" style="stroke:#181818;stroke-width:1.0;"/><path d="M824.2519,621.875 Q824.4082,621.6563 824.5957,621.5469 Q824.7832,621.4375 825.0019,621.4375 Q825.3769,621.4375 825.6113,621.7031 Q825.8457,621.9531 825.8457,622.5625 L825.8457,624.0156 Q825.8457,624.625 825.6113,624.8906 Q825.3769,625.1563 825.0019,625.1563 Q824.6582,625.1563 824.455,624.9531 Q824.2519,624.7656 824.1425,624.25 Q824.0957,623.8906 823.9082,623.7031 Q823.58,623.3281 822.9707,623.1094 Q822.3613,622.8906 821.7363,622.8906 Q820.9707,622.8906 820.33,623.2188 Q819.705,623.5469 819.205,624.2969 Q818.7207,625.0469 818.7207,626.0781 L818.7207,627.1719 Q818.7207,628.4063 819.6113,629.2344 Q820.5019,630.0469 822.0957,630.0469 Q823.0332,630.0469 823.6894,629.7969 Q824.08,629.6406 824.5019,629.2031 Q824.7675,628.9375 824.9082,628.8594 Q825.0644,628.7813 825.2675,628.7813 Q825.5957,628.7813 825.8457,629.0469 Q826.1113,629.2969 826.1113,629.6406 Q826.1113,629.9844 825.7675,630.3906 Q825.2675,630.9688 824.4707,631.2969 Q823.3925,631.75 822.0957,631.75 Q820.58,631.75 819.3769,631.125 Q818.3925,630.625 817.705,629.5625 Q817.0175,628.4844 817.0175,627.2031 L817.0175,626.0469 Q817.0175,624.7188 817.6269,623.5781 Q818.2519,622.4219 819.3457,621.8125 Q820.4394,621.1875 821.6738,621.1875 Q822.4082,621.1875 823.0488,621.3594 Q823.705,621.5156 824.2519,621.875 Z " fill="#000000"/><text fill="#000000" font-family="sans-serif" font-size="14" lengthAdjust="spacing" textLength="79.3652" x="840.3721" y="631.7969">UserSession</text><line style="stroke:#181818;stroke-width:0.5;" x1="785.5" x2="943.7236" y1="642" y2="642"/><line style="stroke:#181818;stroke-width:0.5;" x1="785.5" x2="943.7236" y1="650" y2="650"/><text fill="#000000" font-family="sans-serif" font-size="14" lengthAdjust="spacing" textLength="148.2236" x="790.5" y="669.1074">+getCurrentMapName()</text><text fill="#000000" font-family="sans-serif" font-size="14" lengthAdjust="spacing" textLength="123.3271" x="790.5" y="687.7285">+getCurrentPlayer()</text></g><!--class Repositories--><g id="elem_Repositories"><rect codeLine="17" fill="#F1F1F1" height="122.4844" id="Repositories" rx="2.5" ry="2.5" style="stroke:#181818;stroke-width:0.5;" width="187.4717" x="1522" y="30.5"/><ellipse cx="1572.5791" cy="46.5" fill="#ADD1B2" rx="11" ry="11" style="stroke:#181818;stroke-width:1.0;"/><path d="M1575.3447,42.375 Q1575.501,42.1563 1575.6885,42.0469 Q1575.876,41.9375 1576.0947,41.9375 Q1576.4697,41.9375 1576.7041,42.2031 Q1576.9385,42.4531 1576.9385,43.0625 L1576.9385,44.5156 Q1576.9385,45.125 1576.7041,45.3906 Q1576.4697,45.6563 1576.0947,45.6563 Q1575.751,45.6563 1575.5479,45.4531 Q1575.3447,45.2656 1575.2354,44.75 Q1575.1885,44.3906 1575.001,44.2031 Q1574.6729,43.8281 1574.0635,43.6094 Q1573.4541,43.3906 1572.8291,43.3906 Q1572.0635,43.3906 1571.4229,43.7188 Q1570.7979,44.0469 1570.2979,44.7969 Q1569.8135,45.5469 1569.8135,46.5781 L1569.8135,47.6719 Q1569.8135,48.9063 1570.7041,49.7344 Q1571.5947,50.5469 1573.1885,50.5469 Q1574.126,50.5469 1574.7822,50.2969 Q1575.1729,50.1406 1575.5947,49.7031 Q1575.8604,49.4375 1576.001,49.3594 Q1576.1572,49.2813 1576.3604,49.2813 Q1576.6885,49.2813 1576.9385,49.5469 Q1577.2041,49.7969 1577.2041,50.1406 Q1577.2041,50.4844 1576.8604,50.8906 Q1576.3604,51.4688 1575.5635,51.7969 Q1574.4854,52.25 1573.1885,52.25 Q1571.6729,52.25 1570.4697,51.625 Q1569.4854,51.125 1568.7979,50.0625 Q1568.1104,48.9844 1568.1104,47.7031 L1568.1104,46.5469 Q1568.1104,45.2188 1568.7197,44.0781 Q1569.3447,42.9219 1570.4385,42.3125 Q1571.5322,41.6875 1572.7666,41.6875 Q1573.501,41.6875 1574.1416,41.8594 Q1574.7979,42.0156 1575.3447,42.375 Z " fill="#000000"/><text fill="#000000" font-family="sans-serif" font-size="14" lengthAdjust="spacing" textLength="77.8135" x="1593.0791" y="52.2969">Repositories</text><line style="stroke:#181818;stroke-width:0.5;" x1="1523" x2="1708.4717" y1="62.5" y2="62.5"/><line style="stroke:#181818;stroke-width:0.5;" x1="1523" x2="1708.4717" y1="70.5" y2="70.5"/><text fill="#000000" font-family="sans-serif" font-size="14" lengthAdjust="spacing" textLength="91.7998" x="1528" y="89.6074">-Repositories()</text><text fill="#000000" font-family="sans-serif" font-size="14" lengthAdjust="spacing" text-decoration="underline" textLength="89.8857" x="1528" y="108.2285">+getInstance()</text><text fill="#000000" font-family="sans-serif" font-size="14" lengthAdjust="spacing" textLength="131.1133" x="1528" y="126.8496">+getMapRepository()</text><text fill="#000000" font-family="sans-serif" font-size="14" lengthAdjust="spacing" textLength="175.4717" x="1528" y="145.4707">+getLocomotiveRepository()</text></g><!--class MapRepository--><g id="elem_MapRepository"><rect codeLine="24" fill="#F1F1F1" height="66.6211" id="MapRepository" rx="2.5" ry="2.5" style="stroke:#181818;stroke-width:0.5;" width="164.8994" x="1533" y="306"/><ellipse cx="1565.4366" cy="322" fill="#ADD1B2" rx="11" ry="11" style="stroke:#181818;stroke-width:1.0;"/><path d="M1568.2022,317.875 Q1568.3585,317.6563 1568.546,317.5469 Q1568.7335,317.4375 1568.9522,317.4375 Q1569.3272,317.4375 1569.5616,317.7031 Q1569.796,317.9531 1569.796,318.5625 L1569.796,320.0156 Q1569.796,320.625 1569.5616,320.8906 Q1569.3272,321.1563 1568.9522,321.1563 Q1568.6085,321.1563 1568.4054,320.9531 Q1568.2022,320.7656 1568.0929,320.25 Q1568.046,319.8906 1567.8585,319.7031 Q1567.5304,319.3281 1566.921,319.1094 Q1566.3116,318.8906 1565.6866,318.8906 Q1564.921,318.8906 1564.2804,319.2188 Q1563.6554,319.5469 1563.1554,320.2969 Q1562.671,321.0469 1562.671,322.0781 L1562.671,323.1719 Q1562.671,324.4063 1563.5616,325.2344 Q1564.4522,326.0469 1566.046,326.0469 Q1566.9835,326.0469 1567.6397,325.7969 Q1568.0304,325.6406 1568.4522,325.2031 Q1568.7179,324.9375 1568.8585,324.8594 Q1569.0147,324.7813 1569.2179,324.7813 Q1569.546,324.7813 1569.796,325.0469 Q1570.0616,325.2969 1570.0616,325.6406 Q1570.0616,325.9844 1569.7179,326.3906 Q1569.2179,326.9688 1568.421,327.2969 Q1567.3429,327.75 1566.046,327.75 Q1564.5304,327.75 1563.3272,327.125 Q1562.3429,326.625 1561.6554,325.5625 Q1560.9679,324.4844 1560.9679,323.2031 L1560.9679,322.0469 Q1560.9679,320.7188 1561.5772,319.5781 Q1562.2022,318.4219 1563.296,317.8125 Q1564.3897,317.1875 1565.6241,317.1875 Q1566.3585,317.1875 1566.9991,317.3594 Q1567.6554,317.5156 1568.2022,317.875 Z " fill="#000000"/><text fill="#000000" font-family="sans-serif" font-size="14" lengthAdjust="spacing" textLength="94.1514" x="1583.3114" y="327.7969">MapRepository</text><line style="stroke:#181818;stroke-width:0.5;" x1="1534" x2="1696.8994" y1="338" y2="338"/><line style="stroke:#181818;stroke-width:0.5;" x1="1534" x2="1696.8994" y1="346" y2="346"/><text fill="#000000" font-family="sans-serif" font-size="14" lengthAdjust="spacing" textLength="152.8994" x="1539" y="365.1074">+getMapByName(name)</text></g><!--class LocomotiveRepository--><g id="elem_LocomotiveRepository"><rect codeLine="28" fill="#F1F1F1" height="66.6211" id="LocomotiveRepository" rx="2.5" ry="2.5" style="stroke:#181818;stroke-width:0.5;" width="209.2578" x="1733" y="306"/><ellipse cx="1765.4366" cy="322" fill="#ADD1B2" rx="11" ry="11" style="stroke:#181818;stroke-width:1.0;"/><path d="M1768.2022,317.875 Q1768.3585,317.6563 1768.546,317.5469 Q1768.7335,317.4375 1768.9522,317.4375 Q1769.3272,317.4375 1769.5616,317.7031 Q1769.796,317.9531 1769.796,318.5625 L1769.796,320.0156 Q1769.796,320.625 1769.5616,320.8906 Q1769.3272,321.1563 1768.9522,321.1563 Q1768.6085,321.1563 1768.4054,320.9531 Q1768.2022,320.7656 1768.0929,320.25 Q1768.046,319.8906 1767.8585,319.7031 Q1767.5304,319.3281 1766.921,319.1094 Q1766.3116,318.8906 1765.6866,318.8906 Q1764.921,318.8906 1764.2804,319.2188 Q1763.6554,319.5469 1763.1554,320.2969 Q1762.671,321.0469 1762.671,322.0781 L1762.671,323.1719 Q1762.671,324.4063 1763.5616,325.2344 Q1764.4522,326.0469 1766.046,326.0469 Q1766.9835,326.0469 1767.6397,325.7969 Q1768.0304,325.6406 1768.4522,325.2031 Q1768.7179,324.9375 1768.8585,324.8594 Q1769.0147,324.7813 1769.2179,324.7813 Q1769.546,324.7813 1769.796,325.0469 Q1770.0616,325.2969 1770.0616,325.6406 Q1770.0616,325.9844 1769.7179,326.3906 Q1769.2179,326.9688 1768.421,327.2969 Q1767.3429,327.75 1766.046,327.75 Q1764.5304,327.75 1763.3272,327.125 Q1762.3429,326.625 1761.6554,325.5625 Q1760.9679,324.4844 1760.9679,323.2031 L1760.9679,322.0469 Q1760.9679,320.7188 1761.5772,319.5781 Q1762.2022,318.4219 1763.296,317.8125 Q1764.3897,317.1875 1765.6241,317.1875 Q1766.3585,317.1875 1766.9991,317.3594 Q1767.6554,317.5156 1768.2022,317.875 Z " fill="#000000"/><text fill="#000000" font-family="sans-serif" font-size="14" lengthAdjust="spacing" textLength="138.5098" x="1783.3114" y="327.7969">LocomotiveRepository</text><line style="stroke:#181818;stroke-width:0.5;" x1="1734" x2="1941.2578" y1="338" y2="338"/><line style="stroke:#181818;stroke-width:0.5;" x1="1734" x2="1941.2578" y1="346" y2="346"/><text fill="#000000" font-family="sans-serif" font-size="14" lengthAdjust="spacing" textLength="197.2578" x="1739" y="365.1074">+getLocomotiveByName(name)</text></g><!--class Map--><g id="elem_Map"><rect codeLine="32" fill="#F1F1F1" height="271.4531" id="Map" rx="2.5" ry="2.5" style="stroke:#181818;stroke-width:0.5;" width="303.416" x="980" y="517"/><ellipse cx="1113.8408" cy="533" fill="#ADD1B2" rx="11" ry="11" style="stroke:#181818;stroke-width:1.0;"/><path d="M1116.6064,528.875 Q1116.7627,528.6563 1116.9502,528.5469 Q1117.1377,528.4375 1117.3564,528.4375 Q1117.7314,528.4375 1117.9658,528.7031 Q1118.2002,528.9531 1118.2002,529.5625 L1118.2002,531.0156 Q1118.2002,531.625 1117.9658,531.8906 Q1117.7314,532.1563 1117.3564,532.1563 Q1117.0127,532.1563 1116.8096,531.9531 Q1116.6064,531.7656 1116.4971,531.25 Q1116.4502,530.8906 1116.2627,530.7031 Q1115.9346,530.3281 1115.3252,530.1094 Q1114.7158,529.8906 1114.0908,529.8906 Q1113.3252,529.8906 1112.6846,530.2188 Q1112.0596,530.5469 1111.5596,531.2969 Q1111.0752,532.0469 1111.0752,533.0781 L1111.0752,534.1719 Q1111.0752,535.4063 1111.9658,536.2344 Q1112.8564,537.0469 1114.4502,537.0469 Q1115.3877,537.0469 1116.0439,536.7969 Q1116.4346,536.6406 1116.8564,536.2031 Q1117.1221,535.9375 1117.2627,535.8594 Q1117.4189,535.7813 1117.6221,535.7813 Q1117.9502,535.7813 1118.2002,536.0469 Q1118.4658,536.2969 1118.4658,536.6406 Q1118.4658,536.9844 1118.1221,537.3906 Q1117.6221,537.9688 1116.8252,538.2969 Q1115.7471,538.75 1114.4502,538.75 Q1112.9346,538.75 1111.7314,538.125 Q1110.7471,537.625 1110.0596,536.5625 Q1109.3721,535.4844 1109.3721,534.2031 L1109.3721,533.0469 Q1109.3721,531.7188 1109.9814,530.5781 Q1110.6064,529.4219 1111.7002,528.8125 Q1112.7939,528.1875 1114.0283,528.1875 Q1114.7627,528.1875 1115.4033,528.3594 Q1116.0596,528.5156 1116.6064,528.875 Z " fill="#000000"/><text fill="#000000" font-family="sans-serif" font-size="14" lengthAdjust="spacing" textLength="27.2344" x="1134.3408" y="538.7969">Map</text><line style="stroke:#181818;stroke-width:0.5;" x1="981" x2="1282.416" y1="549" y2="549"/><text fill="#000000" font-family="sans-serif" font-size="14" lengthAdjust="spacing" textLength="87.9238" x="986" y="568.1074">-name : String</text><text fill="#000000" font-family="sans-serif" font-size="14" lengthAdjust="spacing" textLength="164.1855" x="986" y="586.7285">-industries : List&lt;Industry&gt;</text><text fill="#000000" font-family="sans-serif" font-size="14" lengthAdjust="spacing" textLength="169.6406" x="986" y="605.3496">-scenarios : List&lt;Scenario&gt;</text><text fill="#000000" font-family="sans-serif" font-size="14" lengthAdjust="spacing" textLength="170.4131" x="986" y="623.9707">-currentScenario : Scenario</text><line style="stroke:#181818;stroke-width:0.5;" x1="981" x2="1282.416" y1="631.4844" y2="631.4844"/><text fill="#000000" font-family="sans-serif" font-size="14" lengthAdjust="spacing" textLength="255.623" x="986" y="650.5918">+Map(name: String, width: int, length: int)</text><text fill="#000000" font-family="sans-serif" font-size="14" lengthAdjust="spacing" textLength="127.9893" x="986" y="669.2129">+Map(grid: String[][])</text><text fill="#000000" font-family="sans-serif" font-size="14" lengthAdjust="spacing" textLength="3.8896" x="986" y="687.834">&#160;</text><text fill="#000000" font-family="sans-serif" font-size="14" lengthAdjust="spacing" textLength="197.2646" x="986" y="706.4551">+getIndustries() : List&lt;Industry&gt;</text><text fill="#000000" font-family="sans-serif" font-size="14" lengthAdjust="spacing" textLength="204.2783" x="986" y="725.0762">+getScenarios() : List&lt;Scenario&gt;</text><text fill="#000000" font-family="sans-serif" font-size="14" lengthAdjust="spacing" textLength="205.8232" x="986" y="743.6973">+getCurrentScenario() : Scenario</text><text fill="#000000" font-family="sans-serif" font-size="14" lengthAdjust="spacing" textLength="291.416" x="986" y="762.3184">+setCurrentScenario(scenario: Scenario) : void</text><text fill="#000000" font-family="sans-serif" font-size="14" lengthAdjust="spacing" textLength="249.416" x="986" y="780.9395">+addScenario(scenario: Scenario) : void</text></g><!--class Scenario--><g id="elem_Scenario"><rect codeLine="50" fill="#F1F1F1" height="383.1797" id="Scenario" rx="2.5" ry="2.5" style="stroke:#181818;stroke-width:0.5;" width="474.6221" x="894" y="867"/><ellipse cx="1099.4336" cy="883" fill="#ADD1B2" rx="11" ry="11" style="stroke:#181818;stroke-width:1.0;"/><path d="M1102.1992,878.875 Q1102.3555,878.6563 1102.543,878.5469 Q1102.7305,878.4375 1102.9492,878.4375 Q1103.3242,878.4375 1103.5586,878.7031 Q1103.793,878.9531 1103.793,879.5625 L1103.793,881.0156 Q1103.793,881.625 1103.5586,881.8906 Q1103.3242,882.1563 1102.9492,882.1563 Q1102.6055,882.1563 1102.4023,881.9531 Q1102.1992,881.7656 1102.0898,881.25 Q1102.043,880.8906 1101.8555,880.7031 Q1101.5273,880.3281 1100.918,880.1094 Q1100.3086,879.8906 1099.6836,879.8906 Q1098.918,879.8906 1098.2773,880.2188 Q1097.6523,880.5469 1097.1523,881.2969 Q1096.668,882.0469 1096.668,883.0781 L1096.668,884.1719 Q1096.668,885.4063 1097.5586,886.2344 Q1098.4492,887.0469 1100.043,887.0469 Q1100.9805,887.0469 1101.6367,886.7969 Q1102.0273,886.6406 1102.4492,886.2031 Q1102.7148,885.9375 1102.8555,885.8594 Q1103.0117,885.7813 1103.2148,885.7813 Q1103.543,885.7813 1103.793,886.0469 Q1104.0586,886.2969 1104.0586,886.6406 Q1104.0586,886.9844 1103.7148,887.3906 Q1103.2148,887.9688 1102.418,888.2969 Q1101.3398,888.75 1100.043,888.75 Q1098.5273,888.75 1097.3242,888.125 Q1096.3398,887.625 1095.6523,886.5625 Q1094.9648,885.4844 1094.9648,884.2031 L1094.9648,883.0469 Q1094.9648,881.7188 1095.5742,880.5781 Q1096.1992,879.4219 1097.293,878.8125 Q1098.3867,878.1875 1099.6211,878.1875 Q1100.3555,878.1875 1100.9961,878.3594 Q1101.6523,878.5156 1102.1992,878.875 Z " fill="#000000"/><text fill="#000000" font-family="sans-serif" font-size="14" lengthAdjust="spacing" textLength="55.2549" x="1119.9336" y="888.7969">Scenario</text><line style="stroke:#181818;stroke-width:0.5;" x1="895" x2="1367.6221" y1="899" y2="899"/><text fill="#000000" font-family="sans-serif" font-size="14" lengthAdjust="spacing" textLength="87.9238" x="900" y="918.1074">-name : String</text><text fill="#000000" font-family="sans-serif" font-size="14" lengthAdjust="spacing" textLength="120.6064" x="900" y="936.7285">-description : String</text><text fill="#000000" font-family="sans-serif" font-size="14" lengthAdjust="spacing" textLength="70.7998" x="900" y="955.3496">-map : Map</text><text fill="#000000" font-family="sans-serif" font-size="14" lengthAdjust="spacing" textLength="121.4063" x="900" y="973.9707">-dateRange : String</text><text fill="#000000" font-family="sans-serif" font-size="14" lengthAdjust="spacing" textLength="232.6543" x="900" y="992.5918">-industryTypes : List&lt;ResourceType&gt;</text><text fill="#000000" font-family="sans-serif" font-size="14" lengthAdjust="spacing" textLength="262.2266" x="900" y="1011.2129">-locomotiveTypes : List&lt;LocomotiveType&gt;</text><line style="stroke:#181818;stroke-width:0.5;" x1="895" x2="1367.6221" y1="1018.7266" y2="1018.7266"/><text fill="#000000" font-family="sans-serif" font-size="14" lengthAdjust="spacing" textLength="462.6221" x="900" y="1037.834">+Scenario(name: String, description: String, dateRange: String, map: Map)</text><text fill="#000000" font-family="sans-serif" font-size="14" lengthAdjust="spacing" textLength="3.8896" x="900" y="1056.4551">&#160;</text><text fill="#000000" font-family="sans-serif" font-size="14" lengthAdjust="spacing" textLength="216.7334" x="900" y="1075.0762">+validateMap(map: Map) : boolean</text><text fill="#000000" font-family="sans-serif" font-size="14" lengthAdjust="spacing" textLength="257.209" x="900" y="1093.6973">+setDateRange(dateRange: String) : void</text><text fill="#000000" font-family="sans-serif" font-size="14" lengthAdjust="spacing" textLength="3.8896" x="900" y="1112.3184">&#160;</text><text fill="#000000" font-family="sans-serif" font-size="14" lengthAdjust="spacing" textLength="150.9375" x="900" y="1130.9395">-setIndustryType() : void</text><text fill="#000000" font-family="sans-serif" font-size="14" lengthAdjust="spacing" textLength="179.7305" x="900" y="1149.5605">-setLocomotiveTypes() : void</text><text fill="#000000" font-family="sans-serif" font-size="14" lengthAdjust="spacing" textLength="3.8896" x="900" y="1168.1816">&#160;</text><text fill="#000000" font-family="sans-serif" font-size="14" lengthAdjust="spacing" textLength="265.7334" x="900" y="1186.8027">+getIndustryTypes() : List&lt;ResourceType&gt;</text><text fill="#000000" font-family="sans-serif" font-size="14" lengthAdjust="spacing" textLength="299.2021" x="900" y="1205.4238">+getLocomotiveTypes() : List&lt;LocomotiveType&gt;</text><text fill="#000000" font-family="sans-serif" font-size="14" lengthAdjust="spacing" textLength="185.5957" x="900" y="1224.0449">+getDateRangeStart() : String</text><text fill="#000000" font-family="sans-serif" font-size="14" lengthAdjust="spacing" textLength="180.9404" x="900" y="1242.666">+getDateRangeEnd() : String</text></g><!--class Locomotive--><g id="elem_Locomotive"><rect codeLine="73" fill="#F1F1F1" height="532.1484" id="Locomotive" rx="2.5" ry="2.5" style="stroke:#181818;stroke-width:0.5;" width="785.1104" x="7" y="1329"/><ellipse cx="359.5088" cy="1345" fill="#ADD1B2" rx="11" ry="11" style="stroke:#181818;stroke-width:1.0;"/><path d="M362.2744,1340.875 Q362.4307,1340.6563 362.6182,1340.5469 Q362.8057,1340.4375 363.0244,1340.4375 Q363.3994,1340.4375 363.6338,1340.7031 Q363.8682,1340.9531 363.8682,1341.5625 L363.8682,1343.0156 Q363.8682,1343.625 363.6338,1343.8906 Q363.3994,1344.1563 363.0244,1344.1563 Q362.6807,1344.1563 362.4775,1343.9531 Q362.2744,1343.7656 362.165,1343.25 Q362.1182,1342.8906 361.9307,1342.7031 Q361.6025,1342.3281 360.9932,1342.1094 Q360.3838,1341.8906 359.7588,1341.8906 Q358.9932,1341.8906 358.3525,1342.2188 Q357.7275,1342.5469 357.2275,1343.2969 Q356.7432,1344.0469 356.7432,1345.0781 L356.7432,1346.1719 Q356.7432,1347.4063 357.6338,1348.2344 Q358.5244,1349.0469 360.1182,1349.0469 Q361.0557,1349.0469 361.7119,1348.7969 Q362.1025,1348.6406 362.5244,1348.2031 Q362.79,1347.9375 362.9307,1347.8594 Q363.0869,1347.7813 363.29,1347.7813 Q363.6182,1347.7813 363.8682,1348.0469 Q364.1338,1348.2969 364.1338,1348.6406 Q364.1338,1348.9844 363.79,1349.3906 Q363.29,1349.9688 362.4932,1350.2969 Q361.415,1350.75 360.1182,1350.75 Q358.6025,1350.75 357.3994,1350.125 Q356.415,1349.625 355.7275,1348.5625 Q355.04,1347.4844 355.04,1346.2031 L355.04,1345.0469 Q355.04,1343.7188 355.6494,1342.5781 Q356.2744,1341.4219 357.3682,1340.8125 Q358.4619,1340.1875 359.6963,1340.1875 Q360.4307,1340.1875 361.0713,1340.3594 Q361.7275,1340.5156 362.2744,1340.875 Z " fill="#000000"/><text fill="#000000" font-family="sans-serif" font-size="14" lengthAdjust="spacing" textLength="71.5928" x="380.0088" y="1350.7969">Locomotive</text><line style="stroke:#181818;stroke-width:0.5;" x1="8" x2="791.1104" y1="1361" y2="1361"/><text fill="#000000" font-family="sans-serif" font-size="14" lengthAdjust="spacing" textLength="87.9238" x="13" y="1380.1074">-name : String</text><text fill="#000000" font-family="sans-serif" font-size="14" lengthAdjust="spacing" textLength="217.0889" x="13" y="1398.7285">-locomotiveType : LocomotiveType</text><text fill="#000000" font-family="sans-serif" font-size="14" lengthAdjust="spacing" textLength="96.5029" x="13" y="1417.3496">-power : double</text><text fill="#000000" font-family="sans-serif" font-size="14" lengthAdjust="spacing" textLength="133.8613" x="13" y="1435.9707">-acceleration : double</text><text fill="#000000" font-family="sans-serif" font-size="14" lengthAdjust="spacing" textLength="118.3164" x="13" y="1454.5918">-topSpeed : double</text><text fill="#000000" font-family="sans-serif" font-size="14" lengthAdjust="spacing" textLength="109.7305" x="13" y="1473.2129">-fuelCost : double</text><text fill="#000000" font-family="sans-serif" font-size="14" lengthAdjust="spacing" textLength="167.3232" x="13" y="1491.834">-maintenanceCost : double</text><text fill="#000000" font-family="sans-serif" font-size="14" lengthAdjust="spacing" textLength="156.4199" x="13" y="1510.4551">-acquisitionPrice : double</text><line style="stroke:#181818;stroke-width:0.5;" x1="8" x2="791.1104" y1="1517.9688" y2="1517.9688"/><text fill="#000000" font-family="sans-serif" font-size="14" lengthAdjust="spacing" textLength="773.1104" x="13" y="1537.0762">+Locomotive(name, locomotiveType, power, acceleration, topSpeed, startYear, fuelCost, maintenanceCost, acquisitionPrice)</text><text fill="#000000" font-family="sans-serif" font-size="14" lengthAdjust="spacing" textLength="74.3066" x="13" y="1555.6973">+getName()</text><text fill="#000000" font-family="sans-serif" font-size="14" lengthAdjust="spacing" textLength="108.541" x="13" y="1574.3184">+setName(name)</text><text fill="#000000" font-family="sans-serif" font-size="14" lengthAdjust="spacing" textLength="139.6787" x="13" y="1592.9395">+getLocomotiveType()</text><text fill="#000000" font-family="sans-serif" font-size="14" lengthAdjust="spacing" textLength="236.9336" x="13" y="1611.5605">+setLocomotiveType(locomotiveType)</text><text fill="#000000" font-family="sans-serif" font-size="14" lengthAdjust="spacing" textLength="76.6445" x="13" y="1630.1816">+getPower()</text><text fill="#000000" font-family="sans-serif" font-size="14" lengthAdjust="spacing" textLength="113.9893" x="13" y="1648.8027">+setPower(power)</text><text fill="#000000" font-family="sans-serif" font-size="14" lengthAdjust="spacing" textLength="114.0029" x="13" y="1667.4238">+getAcceleration()</text><text fill="#000000" font-family="sans-serif" font-size="14" lengthAdjust="spacing" textLength="188.7061" x="13" y="1686.0449">+setAcceleration(acceleration)</text><text fill="#000000" font-family="sans-serif" font-size="14" lengthAdjust="spacing" textLength="101.5684" x="13" y="1704.666">+getTopSpeed()</text><text fill="#000000" font-family="sans-serif" font-size="14" lengthAdjust="spacing" textLength="160.7266" x="13" y="1723.2871">+setTopSpeed(topSpeed)</text><text fill="#000000" font-family="sans-serif" font-size="14" lengthAdjust="spacing" textLength="92.9824" x="13" y="1741.9082">+getFuelCost()</text><text fill="#000000" font-family="sans-serif" font-size="14" lengthAdjust="spacing" textLength="143.5547" x="13" y="1760.5293">+setFuelCost(fuelCost)</text><text fill="#000000" font-family="sans-serif" font-size="14" lengthAdjust="spacing" textLength="145.9131" x="13" y="1779.1504">+getMaintenanceCost()</text><text fill="#000000" font-family="sans-serif" font-size="14" lengthAdjust="spacing" textLength="254.0781" x="13" y="1797.7715">+setMaintenanceCost(maintenanceCost)</text><text fill="#000000" font-family="sans-serif" font-size="14" lengthAdjust="spacing" textLength="136.5615" x="13" y="1816.3926">+getAcquisitionPrice()</text><text fill="#000000" font-family="sans-serif" font-size="14" lengthAdjust="spacing" textLength="233.8232" x="13" y="1835.0137">+setAcquisitionPrice(acquisitionPrice)</text><text fill="#000000" font-family="sans-serif" font-size="14" lengthAdjust="spacing" textLength="65.748" x="13" y="1853.6348">+toString()</text></g><!--class LocomotiveType--><g id="elem_LocomotiveType"><rect codeLine="102" fill="#F1F1F1" height="85.2422" id="LocomotiveType" rx="2.5" ry="2.5" style="stroke:#181818;stroke-width:0.5;" width="134.7168" x="849" y="1552.5"/><ellipse cx="864" cy="1568.5" fill="#ADD1B2" rx="11" ry="11" style="stroke:#181818;stroke-width:1.0;"/><path d="M866.7656,1564.375 Q866.9219,1564.1563 867.1094,1564.0469 Q867.2969,1563.9375 867.5156,1563.9375 Q867.8906,1563.9375 868.125,1564.2031 Q868.3594,1564.4531 868.3594,1565.0625 L868.3594,1566.5156 Q868.3594,1567.125 868.125,1567.3906 Q867.8906,1567.6563 867.5156,1567.6563 Q867.1719,1567.6563 866.9688,1567.4531 Q866.7656,1567.2656 866.6563,1566.75 Q866.6094,1566.3906 866.4219,1566.2031 Q866.0938,1565.8281 865.4844,1565.6094 Q864.875,1565.3906 864.25,1565.3906 Q863.4844,1565.3906 862.8438,1565.7188 Q862.2188,1566.0469 861.7188,1566.7969 Q861.2344,1567.5469 861.2344,1568.5781 L861.2344,1569.6719 Q861.2344,1570.9063 862.125,1571.7344 Q863.0156,1572.5469 864.6094,1572.5469 Q865.5469,1572.5469 866.2031,1572.2969 Q866.5938,1572.1406 867.0156,1571.7031 Q867.2813,1571.4375 867.4219,1571.3594 Q867.5781,1571.2813 867.7813,1571.2813 Q868.1094,1571.2813 868.3594,1571.5469 Q868.625,1571.7969 868.625,1572.1406 Q868.625,1572.4844 868.2813,1572.8906 Q867.7813,1573.4688 866.9844,1573.7969 Q865.9063,1574.25 864.6094,1574.25 Q863.0938,1574.25 861.8906,1573.625 Q860.9063,1573.125 860.2188,1572.0625 Q859.5313,1570.9844 859.5313,1569.7031 L859.5313,1568.5469 Q859.5313,1567.2188 860.1406,1566.0781 Q860.7656,1564.9219 861.8594,1564.3125 Q862.9531,1563.6875 864.1875,1563.6875 Q864.9219,1563.6875 865.5625,1563.8594 Q866.2188,1564.0156 866.7656,1564.375 Z " fill="#000000"/><text fill="#000000" font-family="sans-serif" font-size="14" lengthAdjust="spacing" textLength="102.7168" x="878" y="1574.2969">LocomotiveType</text><line style="stroke:#181818;stroke-width:0.5;" x1="850" x2="982.7168" y1="1584.5" y2="1584.5"/><text fill="#000000" font-family="sans-serif" font-size="14" lengthAdjust="spacing" textLength="87.9238" x="855" y="1603.6074">-name : String</text><text fill="#000000" font-family="sans-serif" font-size="14" lengthAdjust="spacing" textLength="72.3652" x="855" y="1622.2285">-description</text><line style="stroke:#181818;stroke-width:0.5;" x1="850" x2="982.7168" y1="1629.7422" y2="1629.7422"/></g><!--class LocomotiveDTO--><g id="elem_LocomotiveDTO"><rect codeLine="107" fill="#F1F1F1" height="85.2422" id="LocomotiveDTO" rx="2.5" ry="2.5" style="stroke:#181818;stroke-width:0.5;" width="168.4199" x="336.5" y="297"/><ellipse cx="367.3739" cy="313" fill="#ADD1B2" rx="11" ry="11" style="stroke:#181818;stroke-width:1.0;"/><path d="M370.1396,308.875 Q370.2958,308.6563 370.4833,308.5469 Q370.6708,308.4375 370.8896,308.4375 Q371.2646,308.4375 371.4989,308.7031 Q371.7333,308.9531 371.7333,309.5625 L371.7333,311.0156 Q371.7333,311.625 371.4989,311.8906 Q371.2646,312.1563 370.8896,312.1563 Q370.5458,312.1563 370.3427,311.9531 Q370.1396,311.7656 370.0302,311.25 Q369.9833,310.8906 369.7958,310.7031 Q369.4677,310.3281 368.8583,310.1094 Q368.2489,309.8906 367.6239,309.8906 Q366.8583,309.8906 366.2177,310.2188 Q365.5927,310.5469 365.0927,311.2969 Q364.6083,312.0469 364.6083,313.0781 L364.6083,314.1719 Q364.6083,315.4063 365.4989,316.2344 Q366.3896,317.0469 367.9833,317.0469 Q368.9208,317.0469 369.5771,316.7969 Q369.9677,316.6406 370.3896,316.2031 Q370.6552,315.9375 370.7958,315.8594 Q370.9521,315.7813 371.1552,315.7813 Q371.4833,315.7813 371.7333,316.0469 Q371.9989,316.2969 371.9989,316.6406 Q371.9989,316.9844 371.6552,317.3906 Q371.1552,317.9688 370.3583,318.2969 Q369.2802,318.75 367.9833,318.75 Q366.4677,318.75 365.2646,318.125 Q364.2802,317.625 363.5927,316.5625 Q362.9052,315.4844 362.9052,314.2031 L362.9052,313.0469 Q362.9052,311.7188 363.5146,310.5781 Q364.1396,309.4219 365.2333,308.8125 Q366.3271,308.1875 367.5614,308.1875 Q368.2958,308.1875 368.9364,308.3594 Q369.5927,308.5156 370.1396,308.875 Z " fill="#000000"/><text fill="#000000" font-family="sans-serif" font-size="14" lengthAdjust="spacing" textLength="101.1445" x="384.9015" y="318.7969">LocomotiveDTO</text><line style="stroke:#181818;stroke-width:0.5;" x1="337.5" x2="503.9199" y1="329" y2="329"/><text fill="#000000" font-family="sans-serif" font-size="14" lengthAdjust="spacing" textLength="87.9238" x="342.5" y="348.1074">-name : String</text><text fill="#000000" font-family="sans-serif" font-size="14" lengthAdjust="spacing" textLength="156.4199" x="342.5" y="366.7285">-acquisitionPrice : double</text><line style="stroke:#181818;stroke-width:0.5;" x1="337.5" x2="503.9199" y1="374.2422" y2="374.2422"/></g><!--class LocomotiveMapper--><g id="elem_LocomotiveMapper"><rect codeLine="112" fill="#F1F1F1" height="66.6211" id="LocomotiveMapper" rx="2.5" ry="2.5" style="stroke:#181818;stroke-width:0.5;" width="159.4307" x="142" y="306"/><ellipse cx="160.7661" cy="322" fill="#ADD1B2" rx="11" ry="11" style="stroke:#181818;stroke-width:1.0;"/><path d="M163.5317,317.875 Q163.688,317.6563 163.8755,317.5469 Q164.063,317.4375 164.2817,317.4375 Q164.6567,317.4375 164.8911,317.7031 Q165.1255,317.9531 165.1255,318.5625 L165.1255,320.0156 Q165.1255,320.625 164.8911,320.8906 Q164.6567,321.1563 164.2817,321.1563 Q163.938,321.1563 163.7349,320.9531 Q163.5317,320.7656 163.4224,320.25 Q163.3755,319.8906 163.188,319.7031 Q162.8599,319.3281 162.2505,319.1094 Q161.6411,318.8906 161.0161,318.8906 Q160.2505,318.8906 159.6099,319.2188 Q158.9849,319.5469 158.4849,320.2969 Q158.0005,321.0469 158.0005,322.0781 L158.0005,323.1719 Q158.0005,324.4063 158.8911,325.2344 Q159.7817,326.0469 161.3755,326.0469 Q162.313,326.0469 162.9692,325.7969 Q163.3599,325.6406 163.7817,325.2031 Q164.0474,324.9375 164.188,324.8594 Q164.3442,324.7813 164.5474,324.7813 Q164.8755,324.7813 165.1255,325.0469 Q165.3911,325.2969 165.3911,325.6406 Q165.3911,325.9844 165.0474,326.3906 Q164.5474,326.9688 163.7505,327.2969 Q162.6724,327.75 161.3755,327.75 Q159.8599,327.75 158.6567,327.125 Q157.6724,326.625 156.9849,325.5625 Q156.2974,324.4844 156.2974,323.2031 L156.2974,322.0469 Q156.2974,320.7188 156.9067,319.5781 Q157.5317,318.4219 158.6255,317.8125 Q159.7192,317.1875 160.9536,317.1875 Q161.688,317.1875 162.3286,317.3594 Q162.9849,317.5156 163.5317,317.875 Z " fill="#000000"/><text fill="#000000" font-family="sans-serif" font-size="14" lengthAdjust="spacing" textLength="119.0615" x="175.603" y="327.7969">LocomotiveMapper</text><line style="stroke:#181818;stroke-width:0.5;" x1="143" x2="300.4307" y1="338" y2="338"/><line style="stroke:#181818;stroke-width:0.5;" x1="143" x2="300.4307" y1="346" y2="346"/><text fill="#000000" font-family="sans-serif" font-size="14" lengthAdjust="spacing" textLength="147.4307" x="148" y="365.1074">+toDTO(locomotiveList)</text></g><!--class Player--><g id="elem_Player"><rect codeLine="116" fill="#F1F1F1" height="196.9688" id="Player" rx="2.5" ry="2.5" style="stroke:#181818;stroke-width:0.5;" width="168.0508" x="610.5" y="241"/><ellipse cx="670.4341" cy="257" fill="#ADD1B2" rx="11" ry="11" style="stroke:#181818;stroke-width:1.0;"/><path d="M673.1997,252.875 Q673.356,252.6563 673.5435,252.5469 Q673.731,252.4375 673.9497,252.4375 Q674.3247,252.4375 674.5591,252.7031 Q674.7935,252.9531 674.7935,253.5625 L674.7935,255.0156 Q674.7935,255.625 674.5591,255.8906 Q674.3247,256.1563 673.9497,256.1563 Q673.606,256.1563 673.4028,255.9531 Q673.1997,255.7656 673.0903,255.25 Q673.0435,254.8906 672.856,254.7031 Q672.5278,254.3281 671.9185,254.1094 Q671.3091,253.8906 670.6841,253.8906 Q669.9185,253.8906 669.2778,254.2188 Q668.6528,254.5469 668.1528,255.2969 Q667.6685,256.0469 667.6685,257.0781 L667.6685,258.1719 Q667.6685,259.4063 668.5591,260.2344 Q669.4497,261.0469 671.0435,261.0469 Q671.981,261.0469 672.6372,260.7969 Q673.0278,260.6406 673.4497,260.2031 Q673.7153,259.9375 673.856,259.8594 Q674.0122,259.7813 674.2153,259.7813 Q674.5435,259.7813 674.7935,260.0469 Q675.0591,260.2969 675.0591,260.6406 Q675.0591,260.9844 674.7153,261.3906 Q674.2153,261.9688 673.4185,262.2969 Q672.3403,262.75 671.0435,262.75 Q669.5278,262.75 668.3247,262.125 Q667.3403,261.625 666.6528,260.5625 Q665.9653,259.4844 665.9653,258.2031 L665.9653,257.0469 Q665.9653,255.7188 666.5747,254.5781 Q667.1997,253.4219 668.2935,252.8125 Q669.3872,252.1875 670.6216,252.1875 Q671.356,252.1875 671.9966,252.3594 Q672.6528,252.5156 673.1997,252.875 Z " fill="#000000"/><text fill="#000000" font-family="sans-serif" font-size="14" lengthAdjust="spacing" textLength="39.6826" x="690.9341" y="262.7969">Player</text><line style="stroke:#181818;stroke-width:0.5;" x1="611.5" x2="777.5508" y1="273" y2="273"/><text fill="#000000" font-family="sans-serif" font-size="14" lengthAdjust="spacing" textLength="87.9238" x="616.5" y="292.1074">-name : String</text><text fill="#000000" font-family="sans-serif" font-size="14" lengthAdjust="spacing" textLength="100.3926" x="616.5" y="310.7285">-money : double</text><line style="stroke:#181818;stroke-width:0.5;" x1="611.5" x2="777.5508" y1="318.2422" y2="318.2422"/><text fill="#000000" font-family="sans-serif" font-size="14" lengthAdjust="spacing" textLength="142.0029" x="616.5" y="337.3496">+Player(name, money)</text><text fill="#000000" font-family="sans-serif" font-size="14" lengthAdjust="spacing" textLength="74.3066" x="616.5" y="355.9707">+getName()</text><text fill="#000000" font-family="sans-serif" font-size="14" lengthAdjust="spacing" textLength="108.541" x="616.5" y="374.5918">+setName(name)</text><text fill="#000000" font-family="sans-serif" font-size="14" lengthAdjust="spacing" textLength="78.9824" x="616.5" y="393.2129">+getMoney()</text><text fill="#000000" font-family="sans-serif" font-size="14" lengthAdjust="spacing" textLength="120.2168" x="616.5" y="411.834">+setMoney(money)</text><text fill="#000000" font-family="sans-serif" font-size="14" lengthAdjust="spacing" textLength="156.0508" x="616.5" y="430.4551">+debit(amount) : boolean</text></g><!--class SystemClock--><g id="elem_SystemClock"><rect codeLine="129" fill="#F1F1F1" height="66.6211" id="SystemClock" rx="2.5" ry="2.5" style="stroke:#181818;stroke-width:0.5;" width="125.2168" x="1373" y="306"/><ellipse cx="1393.1904" cy="322" fill="#ADD1B2" rx="11" ry="11" style="stroke:#181818;stroke-width:1.0;"/><path d="M1395.956,317.875 Q1396.1123,317.6563 1396.2998,317.5469 Q1396.4873,317.4375 1396.706,317.4375 Q1397.081,317.4375 1397.3154,317.7031 Q1397.5498,317.9531 1397.5498,318.5625 L1397.5498,320.0156 Q1397.5498,320.625 1397.3154,320.8906 Q1397.081,321.1563 1396.706,321.1563 Q1396.3623,321.1563 1396.1591,320.9531 Q1395.956,320.7656 1395.8466,320.25 Q1395.7998,319.8906 1395.6123,319.7031 Q1395.2841,319.3281 1394.6748,319.1094 Q1394.0654,318.8906 1393.4404,318.8906 Q1392.6748,318.8906 1392.0341,319.2188 Q1391.4091,319.5469 1390.9091,320.2969 Q1390.4248,321.0469 1390.4248,322.0781 L1390.4248,323.1719 Q1390.4248,324.4063 1391.3154,325.2344 Q1392.206,326.0469 1393.7998,326.0469 Q1394.7373,326.0469 1395.3935,325.7969 Q1395.7841,325.6406 1396.206,325.2031 Q1396.4716,324.9375 1396.6123,324.8594 Q1396.7685,324.7813 1396.9716,324.7813 Q1397.2998,324.7813 1397.5498,325.0469 Q1397.8154,325.2969 1397.8154,325.6406 Q1397.8154,325.9844 1397.4716,326.3906 Q1396.9716,326.9688 1396.1748,327.2969 Q1395.0966,327.75 1393.7998,327.75 Q1392.2841,327.75 1391.081,327.125 Q1390.0966,326.625 1389.4091,325.5625 Q1388.7216,324.4844 1388.7216,323.2031 L1388.7216,322.0469 Q1388.7216,320.7188 1389.331,319.5781 Q1389.956,318.4219 1391.0498,317.8125 Q1392.1435,317.1875 1393.3779,317.1875 Q1394.1123,317.1875 1394.7529,317.3594 Q1395.4091,317.5156 1395.956,317.875 Z " fill="#000000"/><text fill="#000000" font-family="sans-serif" font-size="14" lengthAdjust="spacing" textLength="81.6826" x="1408.3438" y="327.7969">SystemClock</text><line style="stroke:#181818;stroke-width:0.5;" x1="1374" x2="1497.2168" y1="338" y2="338"/><line style="stroke:#181818;stroke-width:0.5;" x1="1374" x2="1497.2168" y1="346" y2="346"/><text fill="#000000" font-family="sans-serif" font-size="14" lengthAdjust="spacing" text-decoration="underline" textLength="113.2168" x="1379" y="365.1074">+getCurrentDate()</text></g><!--class BuyLocomotiveUI--><g id="elem_BuyLocomotiveUI"><rect codeLine="133" fill="#F1F1F1" height="48" id="BuyLocomotiveUI" rx="2.5" ry="2.5" style="stroke:#181818;stroke-width:0.5;" width="141.7168" x="517.5" y="67.5"/><ellipse cx="532.5" cy="83.5" fill="#ADD1B2" rx="11" ry="11" style="stroke:#181818;stroke-width:1.0;"/><path d="M535.2656,79.375 Q535.4219,79.1563 535.6094,79.0469 Q535.7969,78.9375 536.0156,78.9375 Q536.3906,78.9375 536.625,79.2031 Q536.8594,79.4531 536.8594,80.0625 L536.8594,81.5156 Q536.8594,82.125 536.625,82.3906 Q536.3906,82.6563 536.0156,82.6563 Q535.6719,82.6563 535.4688,82.4531 Q535.2656,82.2656 535.1563,81.75 Q535.1094,81.3906 534.9219,81.2031 Q534.5938,80.8281 533.9844,80.6094 Q533.375,80.3906 532.75,80.3906 Q531.9844,80.3906 531.3438,80.7188 Q530.7188,81.0469 530.2188,81.7969 Q529.7344,82.5469 529.7344,83.5781 L529.7344,84.6719 Q529.7344,85.9063 530.625,86.7344 Q531.5156,87.5469 533.1094,87.5469 Q534.0469,87.5469 534.7031,87.2969 Q535.0938,87.1406 535.5156,86.7031 Q535.7813,86.4375 535.9219,86.3594 Q536.0781,86.2813 536.2813,86.2813 Q536.6094,86.2813 536.8594,86.5469 Q537.125,86.7969 537.125,87.1406 Q537.125,87.4844 536.7813,87.8906 Q536.2813,88.4688 535.4844,88.7969 Q534.4063,89.25 533.1094,89.25 Q531.5938,89.25 530.3906,88.625 Q529.4063,88.125 528.7188,87.0625 Q528.0313,85.9844 528.0313,84.7031 L528.0313,83.5469 Q528.0313,82.2188 528.6406,81.0781 Q529.2656,79.9219 530.3594,79.3125 Q531.4531,78.6875 532.6875,78.6875 Q533.4219,78.6875 534.0625,78.8594 Q534.7188,79.0156 535.2656,79.375 Z " fill="#000000"/><text fill="#000000" font-family="sans-serif" font-size="14" lengthAdjust="spacing" textLength="109.7168" x="546.5" y="89.2969">BuyLocomotiveUI</text><line style="stroke:#181818;stroke-width:0.5;" x1="518.5" x2="658.2168" y1="99.5" y2="99.5"/><line style="stroke:#181818;stroke-width:0.5;" x1="518.5" x2="658.2168" y1="107.5" y2="107.5"/></g><!--class BuyLocomotiveController--><g id="elem_BuyLocomotiveController"><rect codeLine="136" fill="#F1F1F1" height="141.1055" id="BuyLocomotiveController" rx="2.5" ry="2.5" style="stroke:#181818;stroke-width:0.5;" width="208.4854" x="791.5" y="21"/><ellipse cx="815.5356" cy="37" fill="#ADD1B2" rx="11" ry="11" style="stroke:#181818;stroke-width:1.0;"/><path d="M818.3012,32.875 Q818.4575,32.6563 818.645,32.5469 Q818.8325,32.4375 819.0512,32.4375 Q819.4262,32.4375 819.6606,32.7031 Q819.895,32.9531 819.895,33.5625 L819.895,35.0156 Q819.895,35.625 819.6606,35.8906 Q819.4262,36.1563 819.0512,36.1563 Q818.7075,36.1563 818.5043,35.9531 Q818.3012,35.7656 818.1918,35.25 Q818.145,34.8906 817.9575,34.7031 Q817.6293,34.3281 817.02,34.1094 Q816.4106,33.8906 815.7856,33.8906 Q815.02,33.8906 814.3793,34.2188 Q813.7543,34.5469 813.2543,35.2969 Q812.77,36.0469 812.77,37.0781 L812.77,38.1719 Q812.77,39.4063 813.6606,40.2344 Q814.5512,41.0469 816.145,41.0469 Q817.0825,41.0469 817.7387,40.7969 Q818.1293,40.6406 818.5512,40.2031 Q818.8168,39.9375 818.9575,39.8594 Q819.1137,39.7813 819.3168,39.7813 Q819.645,39.7813 819.895,40.0469 Q820.1606,40.2969 820.1606,40.6406 Q820.1606,40.9844 819.8168,41.3906 Q819.3168,41.9688 818.52,42.2969 Q817.4418,42.75 816.145,42.75 Q814.6293,42.75 813.4262,42.125 Q812.4418,41.625 811.7543,40.5625 Q811.0668,39.4844 811.0668,38.2031 L811.0668,37.0469 Q811.0668,35.7188 811.6762,34.5781 Q812.3012,33.4219 813.395,32.8125 Q814.4887,32.1875 815.7231,32.1875 Q816.4575,32.1875 817.0981,32.3594 Q817.7543,32.5156 818.3012,32.875 Z " fill="#000000"/><text fill="#000000" font-family="sans-serif" font-size="14" lengthAdjust="spacing" textLength="156.4063" x="831.5435" y="42.7969">BuyLocomotiveController</text><line style="stroke:#181818;stroke-width:0.5;" x1="792.5" x2="998.9854" y1="53" y2="53"/><line style="stroke:#181818;stroke-width:0.5;" x1="792.5" x2="998.9854" y1="61" y2="61"/><text fill="#000000" font-family="sans-serif" font-size="14" lengthAdjust="spacing" textLength="173.9063" x="797.5" y="80.1074">+BuyLocomotiveController()</text><text fill="#000000" font-family="sans-serif" font-size="14" lengthAdjust="spacing" textLength="196.4854" x="797.5" y="98.7285">+displayAvailableLocomotives()</text><text fill="#000000" font-family="sans-serif" font-size="14" lengthAdjust="spacing" textLength="186.3682" x="797.5" y="117.3496">+getLocomotiveDetails(name)</text><text fill="#000000" font-family="sans-serif" font-size="14" lengthAdjust="spacing" textLength="178.582" x="797.5" y="135.9707">+buyLocomotive(locomotive)</text><text fill="#000000" font-family="sans-serif" font-size="14" lengthAdjust="spacing" textLength="143.1514" x="797.5" y="154.5918">-getMapFromSession()</text></g><g id="elem_GMN42"><path d="M1035,60.5 L1035,87.5 L999.5,91.5 L1035,95.5 L1035,122.373 A0,0 0 0 0 1035,122.373 L1233.7534,122.373 A0,0 0 0 0 1233.7534,122.373 L1233.7534,70.5 L1223.7534,60.5 L1035,60.5 A0,0 0 0 0 1035,60.5 " fill="#FEFFDD" style="stroke:#181818;stroke-width:0.5;"/><path d="M1223.7534,60.5 L1223.7534,70.5 L1233.7534,70.5 L1223.7534,60.5 " fill="#FEFFDD" style="stroke:#181818;stroke-width:0.5;"/><text fill="#000000" font-family="sans-serif" font-size="13" lengthAdjust="spacing" textLength="177.7534" x="1041" y="79.5283">mapName is obtained from the</text><text fill="#000000" font-family="sans-serif" font-size="13" lengthAdjust="spacing" textLength="137.998" x="1041" y="96.8193">current UserSession via</text><text fill="#000000" font-family="sans-serif" font-size="13" lengthAdjust="spacing" textLength="113.458" x="1041" y="114.1104">ApplicationSession.</text></g><g id="elem_GMN45"><path d="M1036.5,1564 L1036.5,1625.873 A0,0 0 0 0 1036.5,1625.873 L1226.5825,1625.873 A0,0 0 0 0 1226.5825,1625.873 L1226.5825,1574 L1216.5825,1564 L1135.5,1564 L1131.5,1250.2 L1127.5,1564 L1036.5,1564 A0,0 0 0 0 1036.5,1564 " fill="#FEFFDD" style="stroke:#181818;stroke-width:0.5;"/><path d="M1216.5825,1564 L1216.5825,1574 L1226.5825,1574 L1216.5825,1564 " fill="#FEFFDD" style="stroke:#181818;stroke-width:0.5;"/><text fill="#000000" font-family="sans-serif" font-size="13" lengthAdjust="spacing" textLength="169.0825" x="1042.5" y="1583.0283">- Provides the list of available</text><text fill="#000000" font-family="sans-serif" font-size="13" lengthAdjust="spacing" textLength="148.1226" x="1049.7236" y="1600.3193">locomotives in the current</text><text fill="#000000" font-family="sans-serif" font-size="13" lengthAdjust="spacing" textLength="107.6626" x="1049.7236" y="1617.6104">simulation context.</text></g><g id="elem_GMN48"><path d="M1749.5,630 L1749.5,674.582 A0,0 0 0 0 1749.5,674.582 L1925.8589,674.582 A0,0 0 0 0 1925.8589,674.582 L1925.8589,640 L1915.8589,630 L1841.5,630 L1837.5,373.19 L1833.5,630 L1749.5,630 A0,0 0 0 0 1749.5,630 " fill="#FEFFDD" style="stroke:#181818;stroke-width:0.5;"/><path d="M1915.8589,630 L1915.8589,640 L1925.8589,640 L1915.8589,630 " fill="#FEFFDD" style="stroke:#181818;stroke-width:0.5;"/><text fill="#000000" font-family="sans-serif" font-size="13" lengthAdjust="spacing" textLength="147.4116" x="1755.5" y="649.0283">- Responsible for fetching</text><text fill="#000000" font-family="sans-serif" font-size="13" lengthAdjust="spacing" textLength="148.1353" x="1762.7236" y="666.3193">locomotive data by name.</text></g><g id="elem_GMN51"><path d="M547.5,630 L547.5,674.582 A0,0 0 0 0 547.5,674.582 L749.1606,674.582 A0,0 0 0 0 749.1606,674.582 L749.1606,640 L739.1606,630 L655.72,630 L680.07,438.05 L647.72,630 L547.5,630 A0,0 0 0 0 547.5,630 " fill="#FEFFDD" style="stroke:#181818;stroke-width:0.5;"/><path d="M739.1606,630 L739.1606,640 L749.1606,640 L739.1606,630 " fill="#FEFFDD" style="stroke:#181818;stroke-width:0.5;"/><text fill="#000000" font-family="sans-serif" font-size="13" lengthAdjust="spacing" textLength="180.6606" x="553.5" y="649.0283">- Validates purchase ability and</text><text fill="#000000" font-family="sans-serif" font-size="13" lengthAdjust="spacing" textLength="168.3906" x="560.7236" y="666.3193">updates balance accordingly.</text></g><g id="elem_GMN54"><path d="M1390,630 L1390,674.582 A0,0 0 0 0 1390,674.582 L1629.2134,674.582 A0,0 0 0 0 1629.2134,674.582 L1629.2134,640 L1619.2134,630 L1508.38,630 L1443.28,373.19 L1500.38,630 L1390,630 A0,0 0 0 0 1390,630 " fill="#FEFFDD" style="stroke:#181818;stroke-width:0.5;"/><path d="M1619.2134,630 L1619.2134,640 L1629.2134,640 L1619.2134,630 " fill="#FEFFDD" style="stroke:#181818;stroke-width:0.5;"/><text fill="#000000" font-family="sans-serif" font-size="13" lengthAdjust="spacing" textLength="197.9707" x="1396" y="649.0283">- Provides the current system date</text><text fill="#000000" font-family="sans-serif" font-size="13" lengthAdjust="spacing" textLength="210.9897" x="1403.2236" y="666.3193">used to assign locomotive start year.</text></g><!--link BuyLocomotiveUI to BuyLocomotiveController--><g id="link_BuyLocomotiveUI_BuyLocomotiveController"><path codeLine="144" d="M659.57,91.5 C677.04,91.5 690.83,91.5 690.83,91.5 C690.83,91.5 771.8,91.5 785.39,91.5 " fill="none" id="BuyLocomotiveUI-to-BuyLocomotiveController" style="stroke:#181818;stroke-width:1.0;stroke-dasharray:7.0,7.0;"/><polygon fill="#181818" points="791.39,91.5,782.39,87.5,786.39,91.5,782.39,95.5,791.39,91.5" style="stroke:#181818;stroke-width:1.0;"/></g><!--link BuyLocomotiveUI to LocomotiveDTO--><g id="link_BuyLocomotiveUI_LocomotiveDTO"><path codeLine="145" d="M564.15,115.58 C533.13,144.97 483.5,192 483.5,192 C483.5,192 459.3809,248.0883 440.7509,291.3983 " fill="none" id="BuyLocomotiveUI-to-LocomotiveDTO" style="stroke:#181818;stroke-width:1.0;stroke-dasharray:7.0,7.0;"/><polygon fill="#181818" points="438.38,296.91,445.6108,290.223,440.3557,292.3169,438.2619,287.0619,438.38,296.91" style="stroke:#181818;stroke-width:1.0;"/></g><!--link BuyLocomotiveController to ApplicationSession--><g id="link_BuyLocomotiveController_ApplicationSession"><path codeLine="147" d="M913.58,162.01 C923.93,201.79 935.1895,245.0332 944.6295,281.3232 " fill="none" id="BuyLocomotiveController-to-ApplicationSession" style="stroke:#181818;stroke-width:1.0;stroke-dasharray:7.0,7.0;"/><polygon fill="#181818" points="946.14,287.13,947.7454,277.4129,944.8813,282.291,940.0031,279.4269,946.14,287.13" style="stroke:#181818;stroke-width:1.0;"/></g><!--link BuyLocomotiveController to UserSession--><g id="link_BuyLocomotiveController_UserSession"><path codeLine="148" d="M881.85,162.4 C874.33,200.92 866.5,241 866.5,241 C866.5,241 865.2393,499.5201 864.7293,603.8801 " fill="none" id="BuyLocomotiveController-to-UserSession" style="stroke:#181818;stroke-width:1.0;stroke-dasharray:7.0,7.0;"/><polygon fill="#181818" points="864.7,609.88,868.7439,600.8997,864.7244,604.8801,860.744,600.8606,864.7,609.88" style="stroke:#181818;stroke-width:1.0;"/></g><!--link BuyLocomotiveController to Map--><g id="link_BuyLocomotiveController_Map"><path codeLine="149" d="M999.84,158.72 C1062.24,198.32 1129.5,241 1129.5,241 C1129.5,241 1130.2309,391.1201 1130.8109,510.8001 " fill="none" id="BuyLocomotiveController-to-Map" style="stroke:#181818;stroke-width:1.0;stroke-dasharray:7.0,7.0;"/><polygon fill="#181818" points="1130.84,516.8,1134.7963,507.7807,1130.8158,511.8001,1126.7964,507.8195,1130.84,516.8" style="stroke:#181818;stroke-width:1.0;"/></g><!--link BuyLocomotiveController to Scenario--><g id="link_BuyLocomotiveController_Scenario"><path codeLine="150" d="M999.76,151.89 C1010.46,157.99 1017.5,162 1017.5,162 C1017.5,162 1094.5,192 1094.5,192 C1094.5,192 1156.5,241 1156.5,241 C1156.5,241 1300.5,517 1300.5,517 C1300.5,517 1300.5,788 1300.5,788 C1300.5,788 1282.0977,817.3469 1254.3477,861.5969 " fill="none" id="BuyLocomotiveController-to-Scenario" style="stroke:#181818;stroke-width:1.0;stroke-dasharray:7.0,7.0;"/><polygon fill="#181818" points="1251.16,866.68,1259.3304,861.1804,1253.8164,862.444,1252.5528,856.9301,1251.16,866.68" style="stroke:#181818;stroke-width:1.0;"/></g><!--link BuyLocomotiveController to Locomotive--><g id="link_BuyLocomotiveController_Locomotive"><path codeLine="151" d="M791.22,143.61 C703.58,186.56 592.5,241 592.5,241 C592.5,241 529.5,517 529.5,517 C529.5,517 470.719,1003.9532 432.229,1322.8532 " fill="none" id="BuyLocomotiveController-to-Locomotive" style="stroke:#181818;stroke-width:1.0;stroke-dasharray:7.0,7.0;"/><polygon fill="#181818" points="431.51,1328.81,436.5596,1320.3542,432.1091,1323.846,428.6173,1319.3955,431.51,1328.81" style="stroke:#181818;stroke-width:1.0;"/></g><!--link BuyLocomotiveController to LocomotiveMapper--><g id="link_BuyLocomotiveController_LocomotiveMapper"><path codeLine="152" d="M791.45,125.52 C734.95,143.45 676.5,162 676.5,162 C676.5,162 510.5,192 510.5,192 C510.5,192 318.5,241 318.5,241 C318.5,241 286.4821,273.1869 258.3021,301.5069 " fill="none" id="BuyLocomotiveController-to-LocomotiveMapper" style="stroke:#181818;stroke-width:1.0;stroke-dasharray:7.0,7.0;"/><polygon fill="#181818" points="254.07,305.76,263.2536,302.2017,257.5968,302.2157,257.5827,296.5589,254.07,305.76" style="stroke:#181818;stroke-width:1.0;"/></g><!--link BuyLocomotiveController to LocomotiveRepository--><g id="link_BuyLocomotiveController_LocomotiveRepository"><path codeLine="153" d="M999.76,151.89 C1010.46,157.99 1017.5,162 1017.5,162 C1017.5,162 1377.5,192 1377.5,192 C1377.5,192 1715.5,241 1715.5,241 C1715.5,241 1756.4022,273.6951 1791.8522,302.0151 " fill="none" id="BuyLocomotiveController-to-LocomotiveRepository" style="stroke:#181818;stroke-width:1.0;stroke-dasharray:7.0,7.0;"/><polygon fill="#181818" points="1796.54,305.76,1792.0049,297.0174,1792.6335,302.6392,1787.0117,303.2678,1796.54,305.76" style="stroke:#181818;stroke-width:1.0;"/></g><!--link BuyLocomotiveController to Player--><g id="link_BuyLocomotiveController_Player"><path codeLine="154" d="M832.5,162.15 C817.38,178.87 805.5,192 805.5,192 C805.5,192 792.5236,209.1278 772.1636,235.9978 " fill="none" id="BuyLocomotiveController-to-Player" style="stroke:#181818;stroke-width:1.0;stroke-dasharray:7.0,7.0;"/><polygon fill="#181818" points="768.54,240.78,777.1635,236.0224,771.5597,236.7948,770.7872,231.1909,768.54,240.78" style="stroke:#181818;stroke-width:1.0;"/></g><!--link BuyLocomotiveController to SystemClock--><g id="link_BuyLocomotiveController_SystemClock"><path codeLine="155" d="M999.76,151.89 C1010.46,157.99 1017.5,162 1017.5,162 C1017.5,162 1345.5,192 1345.5,192 C1345.5,192 1385.8689,257.7179 1412.3889,300.8779 " fill="none" id="BuyLocomotiveController-to-SystemClock" style="stroke:#181818;stroke-width:1.0;stroke-dasharray:7.0,7.0;"/><polygon fill="#181818" points="1415.53,305.99,1414.2263,296.2278,1412.9124,301.7299,1407.4102,300.416,1415.53,305.99" style="stroke:#181818;stroke-width:1.0;"/></g><!--link BuyLocomotiveController to Repositories--><g id="link_BuyLocomotiveController_Repositories"><path codeLine="156" d="M999.8,27.58 C1019.98,15.21 1035,6 1035,6 C1035,6 1234,6 1234,6 C1234,6 1402.8752,43.8482 1515.8352,69.1582 " fill="none" id="BuyLocomotiveController-to-Repositories" style="stroke:#181818;stroke-width:1.0;stroke-dasharray:7.0,7.0;"/><polygon fill="#181818" points="1521.69,70.47,1513.7823,64.599,1516.811,69.3768,1512.0332,72.4055,1521.69,70.47" style="stroke:#181818;stroke-width:1.0;"/></g><!--link BuyLocomotiveController to LocomotiveDTO--><g id="link_BuyLocomotiveController_LocomotiveDTO"><path codeLine="157" d="M791.45,125.52 C734.95,143.45 676.5,162 676.5,162 C676.5,162 531.5,192 531.5,192 C531.5,192 488.4538,248.8179 455.6338,292.1279 " fill="none" id="BuyLocomotiveController-to-LocomotiveDTO" style="stroke:#181818;stroke-width:1.0;stroke-dasharray:7.0,7.0;"/><polygon fill="#181818" points="452.01,296.91,460.6337,292.1528,455.0298,292.925,454.2577,287.321,452.01,296.91" style="stroke:#181818;stroke-width:1.0;"/></g><!--link Repositories to Repositories--><g id="link_Repositories_Repositories"><path codeLine="159" d="M1709.06,71.48 C1729.31,73.44 1744,80.11 1744,91.5 C1744,102.89 1735.2821,108.982 1715.0321,110.942 " fill="none" id="Repositories-to-Repositories" style="stroke:#181818;stroke-width:1.0;"/><polygon fill="#181818" points="1709.06,111.52,1718.4035,114.6343,1714.0367,111.0383,1717.6328,106.6715,1709.06,111.52" style="stroke:#181818;stroke-width:1.0;"/><text fill="#000000" font-family="sans-serif" font-size="13" lengthAdjust="spacing" textLength="48.4199" x="1750" y="97.0283">instance</text><text fill="#000000" font-family="sans-serif" font-size="13" lengthAdjust="spacing" textLength="7.23" x="1717.3907" y="109.53">1</text></g><!--link Repositories to MapRepository--><g id="link_Repositories_MapRepository"><path codeLine="160" d="M1615.5,152.68 C1615.5,200.9 1615.5,260.73 1615.5,299.71 " fill="none" id="Repositories-to-MapRepository" style="stroke:#181818;stroke-width:1.0;"/><polygon fill="#181818" points="1615.5,305.71,1619.5,296.71,1615.5,300.71,1611.5,296.71,1615.5,305.71" style="stroke:#181818;stroke-width:1.0;"/><text fill="#000000" font-family="sans-serif" font-size="13" lengthAdjust="spacing" textLength="87.4263" x="1616.5" y="207.0283">mapRepository</text><text fill="#000000" font-family="sans-serif" font-size="13" lengthAdjust="spacing" textLength="7.23" x="1607.8643" y="294.7406">1</text></g><!--link Repositories to LocomotiveRepository--><g id="link_Repositories_LocomotiveRepository"><path codeLine="161" d="M1674.16,152.67 C1694.59,173.63 1712.5,192 1712.5,192 C1712.5,192 1769.0353,258.2659 1805.8653,301.4259 " fill="none" id="Repositories-to-LocomotiveRepository" style="stroke:#181818;stroke-width:1.0;"/><polygon fill="#181818" points="1809.76,305.99,1806.9607,296.5473,1806.5144,302.1866,1800.8752,301.7403,1809.76,305.99" style="stroke:#181818;stroke-width:1.0;"/><text fill="#000000" font-family="sans-serif" font-size="13" lengthAdjust="spacing" textLength="124.2744" x="1728.5" y="207.0283">locomotiveRepository</text><text fill="#000000" font-family="sans-serif" font-size="13" lengthAdjust="spacing" textLength="7.23" x="1796.6069" y="294.8135">1</text></g><!--link ApplicationSession to ApplicationSession--><g id="link_ApplicationSession_ApplicationSession"><path codeLine="163" d="M1034.56,313.85 C1054.44,315.32 1069.5,323.87 1069.5,339.5 C1069.5,355.13 1060.4237,363.2375 1040.5437,364.7075 " fill="none" id="ApplicationSession-to-ApplicationSession" style="stroke:#181818;stroke-width:1.0;"/><polygon fill="#181818" points="1034.56,365.15,1043.8305,368.4754,1039.5464,364.7813,1043.2405,360.4972,1034.56,365.15" style="stroke:#181818;stroke-width:1.0;"/><text fill="#000000" font-family="sans-serif" font-size="13" lengthAdjust="spacing" textLength="48.4199" x="1075.5" y="345.0283">instance</text><text fill="#000000" font-family="sans-serif" font-size="13" lengthAdjust="spacing" textLength="7.23" x="1042.6581" y="363.969">1</text></g><!--link ApplicationSession to UserSession--><g id="link_ApplicationSession_UserSession"><path codeLine="164" d="M943.92,391.51 C925.28,452.51 896.2023,547.7016 878.9523,604.1916 " fill="none" id="ApplicationSession-to-UserSession" style="stroke:#181818;stroke-width:1.0;stroke-dasharray:7.0,7.0;"/><polygon fill="#181818" points="877.2,609.93,883.6541,602.4906,878.6603,605.148,876.0028,600.1542,877.2,609.93" style="stroke:#181818;stroke-width:1.0;"/></g><!--link MapRepository to Map--><g id="link_MapRepository_Map"><path codeLine="166" d="M1581.92,373.24 C1552.87,401.56 1515.5,438 1515.5,438 C1515.5,438 1372.5,517 1372.5,517 C1372.5,517 1336.6195,537.0264 1288.3395,563.9664 " fill="none" id="MapRepository-to-Map" style="stroke:#181818;stroke-width:1.0;"/><polygon fill="#181818" points="1283.1,566.89,1292.9083,565.9976,1287.4663,564.4537,1289.0102,559.0116,1283.1,566.89" style="stroke:#181818;stroke-width:1.0;"/><text fill="#000000" font-family="sans-serif" font-size="13" lengthAdjust="spacing" textLength="31.7891" x="1462.5" y="483.0283">maps</text><text fill="#000000" font-family="sans-serif" font-size="13" lengthAdjust="spacing" textLength="5.0591" x="1291.5176" y="558.7672">*</text></g><!--link Map to Scenario--><g id="link_Map_Scenario"><path codeLine="167" d="M1131.5,788.03 C1131.5,813.28 1131.5,834.11 1131.5,860.69 " fill="none" id="Map-to-Scenario" style="stroke:#181818;stroke-width:1.0;"/><polygon fill="#181818" points="1131.5,866.69,1135.5,857.69,1131.5,861.69,1127.5,857.69,1131.5,866.69" style="stroke:#181818;stroke-width:1.0;"/><text fill="#000000" font-family="sans-serif" font-size="13" lengthAdjust="spacing" textLength="91.7681" x="1132.5" y="833.0283">currentScenario</text><text fill="#000000" font-family="sans-serif" font-size="13" lengthAdjust="spacing" textLength="7.23" x="1124.3752" y="855.8959">1</text></g><!--link Scenario to Locomotive--><g id="link_Scenario_Locomotive"><path codeLine="168" d="M893.84,1233.04 C851.78,1263.75 811.9756,1292.8117 767.3856,1325.3717 " fill="none" id="Scenario-to-Locomotive" style="stroke:#181818;stroke-width:1.0;"/><polygon fill="#181818" points="762.54,1328.91,772.1673,1326.8329,766.578,1325.9614,767.4496,1320.3721,762.54,1328.91" style="stroke:#181818;stroke-width:1.0;"/><text fill="#000000" font-family="sans-serif" font-size="13" lengthAdjust="spacing" textLength="68.6372" x="810.5" y="1295.0283">locomotives</text><text fill="#000000" font-family="sans-serif" font-size="13" lengthAdjust="spacing" textLength="5.0591" x="768.2428" y="1317.7885">*</text></g><!--link LocomotiveMapper to Locomotive--><g id="link_LocomotiveMapper_Locomotive"><path codeLine="170" d="M225.34,373.14 C244.46,535.67 328.5,1250 328.5,1250 C328.5,1250 334.1373,1277.3038 343.5773,1323.0438 " fill="none" id="LocomotiveMapper-to-Locomotive" style="stroke:#181818;stroke-width:1.0;stroke-dasharray:7.0,7.0;"/><polygon fill="#181818" points="344.79,1328.92,346.8883,1319.2973,343.7794,1324.0232,339.0534,1320.9143,344.79,1328.92" style="stroke:#181818;stroke-width:1.0;"/></g><!--link LocomotiveMapper to Locomotive--><g id="link_LocomotiveMapper_Locomotive"><path codeLine="172" d="M241.38,373 C264.49,410.78 299.5,468 299.5,468 C299.5,468 345.8693,990.0835 375.4293,1322.9635 " fill="none" id="LocomotiveMapper-to-Locomotive-1" style="stroke:#181818;stroke-width:1.0;"/><polygon fill="#181818" points="375.96,1328.94,379.1482,1319.6215,375.5177,1323.9596,371.1796,1320.3291,375.96,1328.94" style="stroke:#181818;stroke-width:1.0;"/><text fill="#000000" font-family="sans-serif" font-size="13" lengthAdjust="spacing" textLength="68.6372" x="332.5" y="833.0283">locomotives</text><text fill="#000000" font-family="sans-serif" font-size="13" lengthAdjust="spacing" textLength="5.0591" x="370.1862" y="1317.8194">*</text></g><!--link LocomotiveMapper to LocomotiveDTO--><g id="link_LocomotiveMapper_LocomotiveDTO"><path codeLine="171" d="M301.26,339.5 C311.4,339.5 319.42,339.5 330.48,339.5 " fill="none" id="LocomotiveMapper-to-LocomotiveDTO" style="stroke:#181818;stroke-width:1.0;stroke-dasharray:7.0,7.0;"/><polygon fill="#181818" points="336.48,339.5,327.48,335.5,331.48,339.5,327.48,343.5,336.48,339.5" style="stroke:#181818;stroke-width:1.0;"/></g><!--link Locomotive to LocomotiveType--><g id="link_Locomotive_LocomotiveType"><path codeLine="174" d="M792.01,1595 C812.89,1595 826.17,1595 843,1595 " fill="none" id="Locomotive-to-LocomotiveType" style="stroke:#181818;stroke-width:1.0;"/><polygon fill="#181818" points="849,1595,840,1591,844,1595,840,1599,849,1595" style="stroke:#181818;stroke-width:1.0;"/><text fill="#000000" font-family="sans-serif" font-size="13" lengthAdjust="spacing" textLength="20.96" x="810.5" y="1588.0283">has</text><text fill="#000000" font-family="sans-serif" font-size="13" lengthAdjust="spacing" textLength="5.0591" x="800.0331" y="1591.8571">*</text><text fill="#000000" font-family="sans-serif" font-size="13" lengthAdjust="spacing" textLength="7.23" x="833.8203" y="1591.0483">1</text></g><!--SRC=[bLTVRzis47_Nfo3wvAnEiBqQGu0qMO40wHR4QO6Xw0CjqJOHYjH8ofaMvBllI97KKPO5Dmz9TFUxu_tZySwySDbGJMlIqFA5xjZQTe8HpKfBvKwmmYI0sTDAlNAv8rig3EO8Bfdj6aOQ9JhtWNYbeCRSMAlvfhNilbHopVzZvDUYy1noqpI2bzHoO31Zu0zvAmZyN4wm5XUUzP6y6GlqyfticBsNy25BbfX0kssrPj8EOk_nlA-6wVmWBF25Dd_IUahLew0TqrZJ4skKuLPfpaoo6HFFjXPEJN8TPZoeKjNAyWFB-Cc4J12x0unFdVT4mYyaCQKH2mxyQNbGd7nrBB8YQyYjt0KQbrLhh0_9YZnmOt-_xodTTK2OaacgkKg0TI14G1bo5yZkXF1l4Um48xnTyUmbUUMLtQ_WTBiaWibT-BX00ZlDgoZm_SVt7nV5uFLzidfnCMstXqKx42etFgkzmF7Ov46FCiUe69O1w-GEYbT1XbRLEM38LCnLYk1SmYfcIiqRTyd6h1folNAnYr1gsHDqXLD9xvwX1wIqFZ6ZMbqoHuof5QcwCkX3HhwEYKdkvhb65YDYj6qWWVdU-fJe0nNSuLmr92ROi55AC2g7tDn5POiZjIdEiPfJyNZl5rdIF3jtpYno3RZykW5m8eAZAph2ZyEO998_QqkrxGjoo5yE-KDM6F1U77UEsNhAK-nComW1rQXNfe5PgNOZ8f6M9HDCqr2B6S-gPjqmLetfsvQ9MsNic5vJkFvGFj1ffzYq_AVbqFtWf4VDIvRpFoAZVV4jHsujUmUMcSdBPEII61Velna5IBHmERPfUMG5wlpPAsJ2Tz-BJnG2HeyukV58mwFp0Wls1EySWjqWBp4we-DG8Ddd41CibsWnO0Z_EOGBunCjnZ9xExEWOh4nQnJ_pC4y4RcJ8zwfh5dLNuJ5v7FhRyEPZNXA_kxvhrdnqnKzeGmQNmFtxorP3jfHbRXkWfpeHv_PqsibMJU-H65awY-GH_naWNznCbb6FI5JLR4DjmjQgnQUUzJCKUTQTyQo-XRyUqakuv4iFCMk1UBSVMgx8M9Vxq5qcdMhfDLA21JG4_paIiLD0y6vEL0kA0Hi09lfyU-EMO2QB40RV0ZAtaN8IJy6VjQgpiRWiLjNrwVCdO9c1JbIXW9n1T3ZyNqMZWRpMPoRH-RuQTIQ0msCCs7zZJaJF8pMimBz_PXtPYZTqxZhREkOmusobsqmbzVamsyVygt63T7zkZB21d2-VwpSo8LydnIPN41Mw7r52eg9vJ2ecU0WOoUuun8hSjkzURzuZte_Z0Cagz4oCbfFYiIAAj2WXFqoHN7KWFDAd6UxZ1qXVkPC3ppAGfZIzXImKbbO_VbkRudQdkmAhhlK_PvCk25g0wr9mcIsXKv3xBxl_Y5AsRfzuDJpZhDpLJ1P4NTyC6AZh0LjO4MsELsIHwqE79vATn0Hy4uv38rzr8C83W3KX8S6UmB0yBeL_PnPWcFiNpjZmUIzZjk-QPGq78ucMwN9bjbo7rz5R8VRJoZPTFxnd3ahj8HU-xUmhnZIm1e06MA4RhZWjYDKLk6CjkaX6ofSwRk9LEaAR13TN5HHNva8RCoUyJ2_NCNZ36JQAWAl8Dz9xA4VUKa7C-zmxly0]--></g></svg>