<svg xmlns="http://www.w3.org/2000/svg" xmlns:xlink="http://www.w3.org/1999/xlink" contentStyleType="text/css" height="1451px" preserveAspectRatio="none" style="width:1744px;height:1451px;background:#FFFFFF;" version="1.1" viewBox="0 0 1744 1451" width="1744px" zoomAndPan="magnify"><defs/><g><!--class BuildStationUI--><g id="elem_BuildStationUI"><rect codeLine="6" fill="#F1F1F1" height="48" id="BuildStationUI" rx="2.5" ry="2.5" style="stroke:#181818;stroke-width:0.5;" width="120.7168" x="778.5" y="7"/><ellipse cx="793.5" cy="23" fill="#ADD1B2" rx="11" ry="11" style="stroke:#181818;stroke-width:1.0;"/><path d="M796.2656,18.875 Q796.4219,18.6563 796.6094,18.5469 Q796.7969,18.4375 797.0156,18.4375 Q797.3906,18.4375 797.625,18.7031 Q797.8594,18.9531 797.8594,19.5625 L797.8594,21.0156 Q797.8594,21.625 797.625,21.8906 Q797.3906,22.1563 797.0156,22.1563 Q796.6719,22.1563 796.4688,21.9531 Q796.2656,21.7656 796.1563,21.25 Q796.1094,20.8906 795.9219,20.7031 Q795.5938,20.3281 794.9844,20.1094 Q794.375,19.8906 793.75,19.8906 Q792.9844,19.8906 792.3438,20.2188 Q791.7188,20.5469 791.2188,21.2969 Q790.7344,22.0469 790.7344,23.0781 L790.7344,24.1719 Q790.7344,25.4063 791.625,26.2344 Q792.5156,27.0469 794.1094,27.0469 Q795.0469,27.0469 795.7031,26.7969 Q796.0938,26.6406 796.5156,26.2031 Q796.7813,25.9375 796.9219,25.8594 Q797.0781,25.7813 797.2813,25.7813 Q797.6094,25.7813 797.8594,26.0469 Q798.125,26.2969 798.125,26.6406 Q798.125,26.9844 797.7813,27.3906 Q797.2813,27.9688 796.4844,28.2969 Q795.4063,28.75 794.1094,28.75 Q792.5938,28.75 791.3906,28.125 Q790.4063,27.625 789.7188,26.5625 Q789.0313,25.4844 789.0313,24.2031 L789.0313,23.0469 Q789.0313,21.7188 789.6406,20.5781 Q790.2656,19.4219 791.3594,18.8125 Q792.4531,18.1875 793.6875,18.1875 Q794.4219,18.1875 795.0625,18.3594 Q795.7188,18.5156 796.2656,18.875 Z " fill="#000000"/><text fill="#000000" font-family="sans-serif" font-size="14" lengthAdjust="spacing" textLength="88.7168" x="807.5" y="28.7969">BuildStationUI</text><line style="stroke:#181818;stroke-width:0.5;" x1="779.5" x2="898.2168" y1="39" y2="39"/><line style="stroke:#181818;stroke-width:0.5;" x1="779.5" x2="898.2168" y1="47" y2="47"/></g><!--class ApplicationSession--><g id="elem_ApplicationSession"><rect codeLine="9" fill="#F1F1F1" height="85.2422" id="ApplicationSession" rx="2.5" ry="2.5" style="stroke:#181818;stroke-width:0.5;" width="150.2959" x="7" y="485.5"/><ellipse cx="22" cy="501.5" fill="#ADD1B2" rx="11" ry="11" style="stroke:#181818;stroke-width:1.0;"/><path d="M24.7656,497.375 Q24.9219,497.1563 25.1094,497.0469 Q25.2969,496.9375 25.5156,496.9375 Q25.8906,496.9375 26.125,497.2031 Q26.3594,497.4531 26.3594,498.0625 L26.3594,499.5156 Q26.3594,500.125 26.125,500.3906 Q25.8906,500.6563 25.5156,500.6563 Q25.1719,500.6563 24.9688,500.4531 Q24.7656,500.2656 24.6563,499.75 Q24.6094,499.3906 24.4219,499.2031 Q24.0938,498.8281 23.4844,498.6094 Q22.875,498.3906 22.25,498.3906 Q21.4844,498.3906 20.8438,498.7188 Q20.2188,499.0469 19.7188,499.7969 Q19.2344,500.5469 19.2344,501.5781 L19.2344,502.6719 Q19.2344,503.9063 20.125,504.7344 Q21.0156,505.5469 22.6094,505.5469 Q23.5469,505.5469 24.2031,505.2969 Q24.5938,505.1406 25.0156,504.7031 Q25.2813,504.4375 25.4219,504.3594 Q25.5781,504.2813 25.7813,504.2813 Q26.1094,504.2813 26.3594,504.5469 Q26.625,504.7969 26.625,505.1406 Q26.625,505.4844 26.2813,505.8906 Q25.7813,506.4688 24.9844,506.7969 Q23.9063,507.25 22.6094,507.25 Q21.0938,507.25 19.8906,506.625 Q18.9063,506.125 18.2188,505.0625 Q17.5313,503.9844 17.5313,502.7031 L17.5313,501.5469 Q17.5313,500.2188 18.1406,499.0781 Q18.7656,497.9219 19.8594,497.3125 Q20.9531,496.6875 22.1875,496.6875 Q22.9219,496.6875 23.5625,496.8594 Q24.2188,497.0156 24.7656,497.375 Z " fill="#000000"/><text fill="#000000" font-family="sans-serif" font-size="14" lengthAdjust="spacing" textLength="118.2959" x="36" y="507.2969">ApplicationSession</text><line style="stroke:#181818;stroke-width:0.5;" x1="8" x2="156.2959" y1="517.5" y2="517.5"/><line style="stroke:#181818;stroke-width:0.5;" x1="8" x2="156.2959" y1="525.5" y2="525.5"/><text fill="#000000" font-family="sans-serif" font-size="14" lengthAdjust="spacing" textLength="126.4512" x="13" y="544.6074">+static getInstance()</text><text fill="#000000" font-family="sans-serif" font-size="14" lengthAdjust="spacing" textLength="133.4512" x="13" y="563.2285">+getCurrentSession()</text></g><!--class UserSession--><g id="elem_UserSession"><rect codeLine="14" fill="#F1F1F1" height="66.6211" id="UserSession" rx="2.5" ry="2.5" style="stroke:#181818;stroke-width:0.5;" width="115.8652" x="24" y="781.5"/><ellipse cx="41.025" cy="797.5" fill="#ADD1B2" rx="11" ry="11" style="stroke:#181818;stroke-width:1.0;"/><path d="M43.7906,793.375 Q43.9469,793.1563 44.1344,793.0469 Q44.3219,792.9375 44.5406,792.9375 Q44.9156,792.9375 45.15,793.2031 Q45.3844,793.4531 45.3844,794.0625 L45.3844,795.5156 Q45.3844,796.125 45.15,796.3906 Q44.9156,796.6563 44.5406,796.6563 Q44.1969,796.6563 43.9938,796.4531 Q43.7906,796.2656 43.6813,795.75 Q43.6344,795.3906 43.4469,795.2031 Q43.1188,794.8281 42.5094,794.6094 Q41.9,794.3906 41.275,794.3906 Q40.5094,794.3906 39.8688,794.7188 Q39.2438,795.0469 38.7438,795.7969 Q38.2594,796.5469 38.2594,797.5781 L38.2594,798.6719 Q38.2594,799.9063 39.15,800.7344 Q40.0406,801.5469 41.6344,801.5469 Q42.5719,801.5469 43.2281,801.2969 Q43.6188,801.1406 44.0406,800.7031 Q44.3063,800.4375 44.4469,800.3594 Q44.6031,800.2813 44.8063,800.2813 Q45.1344,800.2813 45.3844,800.5469 Q45.65,800.7969 45.65,801.1406 Q45.65,801.4844 45.3063,801.8906 Q44.8063,802.4688 44.0094,802.7969 Q42.9313,803.25 41.6344,803.25 Q40.1188,803.25 38.9156,802.625 Q37.9313,802.125 37.2438,801.0625 Q36.5563,799.9844 36.5563,798.7031 L36.5563,797.5469 Q36.5563,796.2188 37.1656,795.0781 Q37.7906,793.9219 38.8844,793.3125 Q39.9781,792.6875 41.2125,792.6875 Q41.9469,792.6875 42.5875,792.8594 Q43.2438,793.0156 43.7906,793.375 Z " fill="#000000"/><text fill="#000000" font-family="sans-serif" font-size="14" lengthAdjust="spacing" textLength="79.3652" x="55.475" y="803.2969">UserSession</text><line style="stroke:#181818;stroke-width:0.5;" x1="25" x2="138.8652" y1="813.5" y2="813.5"/><line style="stroke:#181818;stroke-width:0.5;" x1="25" x2="138.8652" y1="821.5" y2="821.5"/><text fill="#000000" font-family="sans-serif" font-size="14" lengthAdjust="spacing" textLength="103.8652" x="30" y="840.6074">+getUserName()</text></g><!--class BuildStationController--><g id="elem_BuildStationController"><rect codeLine="18" fill="#F1F1F1" height="271.4531" id="BuildStationController" rx="2.5" ry="2.5" style="stroke:#181818;stroke-width:0.5;" width="311.25" x="683.5" y="116"/><ellipse cx="767.1719" cy="132" fill="#ADD1B2" rx="11" ry="11" style="stroke:#181818;stroke-width:1.0;"/><path d="M769.9375,127.875 Q770.0938,127.6563 770.2813,127.5469 Q770.4688,127.4375 770.6875,127.4375 Q771.0625,127.4375 771.2969,127.7031 Q771.5313,127.9531 771.5313,128.5625 L771.5313,130.0156 Q771.5313,130.625 771.2969,130.8906 Q771.0625,131.1563 770.6875,131.1563 Q770.3438,131.1563 770.1406,130.9531 Q769.9375,130.7656 769.8281,130.25 Q769.7813,129.8906 769.5938,129.7031 Q769.2656,129.3281 768.6563,129.1094 Q768.0469,128.8906 767.4219,128.8906 Q766.6563,128.8906 766.0156,129.2188 Q765.3906,129.5469 764.8906,130.2969 Q764.4063,131.0469 764.4063,132.0781 L764.4063,133.1719 Q764.4063,134.4063 765.2969,135.2344 Q766.1875,136.0469 767.7813,136.0469 Q768.7188,136.0469 769.375,135.7969 Q769.7656,135.6406 770.1875,135.2031 Q770.4531,134.9375 770.5938,134.8594 Q770.75,134.7813 770.9531,134.7813 Q771.2813,134.7813 771.5313,135.0469 Q771.7969,135.2969 771.7969,135.6406 Q771.7969,135.9844 771.4531,136.3906 Q770.9531,136.9688 770.1563,137.2969 Q769.0781,137.75 767.7813,137.75 Q766.2656,137.75 765.0625,137.125 Q764.0781,136.625 763.3906,135.5625 Q762.7031,134.4844 762.7031,133.2031 L762.7031,132.0469 Q762.7031,130.7188 763.3125,129.5781 Q763.9375,128.4219 765.0313,127.8125 Q766.125,127.1875 767.3594,127.1875 Q768.0938,127.1875 768.7344,127.3594 Q769.3906,127.5156 769.9375,127.875 Z " fill="#000000"/><text fill="#000000" font-family="sans-serif" font-size="14" lengthAdjust="spacing" textLength="135.4063" x="787.6719" y="137.7969">BuildStationController</text><line style="stroke:#181818;stroke-width:0.5;" x1="684.5" x2="993.75" y1="148" y2="148"/><line style="stroke:#181818;stroke-width:0.5;" x1="684.5" x2="993.75" y1="156" y2="156"/><text fill="#000000" font-family="sans-serif" font-size="14" lengthAdjust="spacing" textLength="152.9063" x="689.5" y="175.1074">+BuildStationController()</text><text fill="#000000" font-family="sans-serif" font-size="14" lengthAdjust="spacing" textLength="128.0098" x="689.5" y="193.7285">+getAvailableMaps()</text><text fill="#000000" font-family="sans-serif" font-size="14" lengthAdjust="spacing" textLength="90.6445" x="689.5" y="212.3496">+setMap(map)</text><text fill="#000000" font-family="sans-serif" font-size="14" lengthAdjust="spacing" textLength="127.9961" x="689.5" y="230.9707">+createPosition(x, y)</text><text fill="#000000" font-family="sans-serif" font-size="14" lengthAdjust="spacing" textLength="177.8164" x="689.5" y="249.5918">+checkCoordinates(position)</text><text fill="#000000" font-family="sans-serif" font-size="14" lengthAdjust="spacing" textLength="118.6719" x="689.5" y="268.2129">+getStationTypes()</text><text fill="#000000" font-family="sans-serif" font-size="14" lengthAdjust="spacing" textLength="93.7617" x="689.5" y="286.834">+setType(type)</text><text fill="#000000" font-family="sans-serif" font-size="14" lengthAdjust="spacing" textLength="102.334" x="689.5" y="305.4551">+getQuadrants()</text><text fill="#000000" font-family="sans-serif" font-size="14" lengthAdjust="spacing" textLength="149.8164" x="689.5" y="324.0762">+setQuadrant(quadrant)</text><text fill="#000000" font-family="sans-serif" font-size="14" lengthAdjust="spacing" textLength="299.25" x="689.5" y="342.6973">+buildStation(type, position, quadrant, buildings)</text><text fill="#000000" font-family="sans-serif" font-size="14" lengthAdjust="spacing" textLength="229.9609" x="689.5" y="361.3184">+suggestStationName(position, type)</text><text fill="#000000" font-family="sans-serif" font-size="14" lengthAdjust="spacing" textLength="124.8994" x="689.5" y="379.9395">+getBuildingTypes()</text></g><!--class Station--><g id="elem_Station"><rect codeLine="33" fill="#F1F1F1" height="159.7266" id="Station" rx="2.5" ry="2.5" style="stroke:#181818;stroke-width:0.5;" width="261.4229" x="620.5" y="974"/><ellipse cx="725.1685" cy="990" fill="#ADD1B2" rx="11" ry="11" style="stroke:#181818;stroke-width:1.0;"/><path d="M727.9341,985.875 Q728.0903,985.6563 728.2778,985.5469 Q728.4653,985.4375 728.6841,985.4375 Q729.0591,985.4375 729.2935,985.7031 Q729.5278,985.9531 729.5278,986.5625 L729.5278,988.0156 Q729.5278,988.625 729.2935,988.8906 Q729.0591,989.1563 728.6841,989.1563 Q728.3403,989.1563 728.1372,988.9531 Q727.9341,988.7656 727.8247,988.25 Q727.7778,987.8906 727.5903,987.7031 Q727.2622,987.3281 726.6528,987.1094 Q726.0435,986.8906 725.4185,986.8906 Q724.6528,986.8906 724.0122,987.2188 Q723.3872,987.5469 722.8872,988.2969 Q722.4028,989.0469 722.4028,990.0781 L722.4028,991.1719 Q722.4028,992.4063 723.2935,993.2344 Q724.1841,994.0469 725.7778,994.0469 Q726.7153,994.0469 727.3716,993.7969 Q727.7622,993.6406 728.1841,993.2031 Q728.4497,992.9375 728.5903,992.8594 Q728.7466,992.7813 728.9497,992.7813 Q729.2778,992.7813 729.5278,993.0469 Q729.7935,993.2969 729.7935,993.6406 Q729.7935,993.9844 729.4497,994.3906 Q728.9497,994.9688 728.1528,995.2969 Q727.0747,995.75 725.7778,995.75 Q724.2622,995.75 723.0591,995.125 Q722.0747,994.625 721.3872,993.5625 Q720.6997,992.4844 720.6997,991.2031 L720.6997,990.0469 Q720.6997,988.7188 721.3091,987.5781 Q721.9341,986.4219 723.0278,985.8125 Q724.1216,985.1875 725.356,985.1875 Q726.0903,985.1875 726.731,985.3594 Q727.3872,985.5156 727.9341,985.875 Z " fill="#000000"/><text fill="#000000" font-family="sans-serif" font-size="14" lengthAdjust="spacing" textLength="43.5859" x="745.6685" y="995.7969">Station</text><line style="stroke:#181818;stroke-width:0.5;" x1="621.5" x2="880.9229" y1="1006" y2="1006"/><text fill="#000000" font-family="sans-serif" font-size="14" lengthAdjust="spacing" textLength="114.3926" x="626.5" y="1025.1074">-position : Position</text><text fill="#000000" font-family="sans-serif" font-size="14" lengthAdjust="spacing" textLength="117.5029" x="626.5" y="1043.7285">-type : StationType</text><text fill="#000000" font-family="sans-serif" font-size="14" lengthAdjust="spacing" textLength="87.9238" x="626.5" y="1062.3496">-name : String</text><text fill="#000000" font-family="sans-serif" font-size="14" lengthAdjust="spacing" textLength="151.7646" x="626.5" y="1080.9707">-List&lt;Building&gt; buildings</text><text fill="#000000" font-family="sans-serif" font-size="14" lengthAdjust="spacing" textLength="164.1855" x="626.5" y="1099.5918">-industries : List&lt;Industry&gt;</text><line style="stroke:#181818;stroke-width:0.5;" x1="621.5" x2="880.9229" y1="1107.1055" y2="1107.1055"/><text fill="#000000" font-family="sans-serif" font-size="14" lengthAdjust="spacing" textLength="249.4229" x="626.5" y="1126.2129">+Station(position, type, name, buildings)</text></g><!--class Building--><g id="elem_Building"><rect codeLine="42" fill="#F1F1F1" height="103.8633" id="Building" rx="2.5" ry="2.5" style="stroke:#181818;stroke-width:0.5;" width="161.8096" x="341" y="1213"/><ellipse cx="392.748" cy="1229" fill="#ADD1B2" rx="11" ry="11" style="stroke:#181818;stroke-width:1.0;"/><path d="M395.5137,1224.875 Q395.6699,1224.6563 395.8574,1224.5469 Q396.0449,1224.4375 396.2637,1224.4375 Q396.6387,1224.4375 396.873,1224.7031 Q397.1074,1224.9531 397.1074,1225.5625 L397.1074,1227.0156 Q397.1074,1227.625 396.873,1227.8906 Q396.6387,1228.1563 396.2637,1228.1563 Q395.9199,1228.1563 395.7168,1227.9531 Q395.5137,1227.7656 395.4043,1227.25 Q395.3574,1226.8906 395.1699,1226.7031 Q394.8418,1226.3281 394.2324,1226.1094 Q393.623,1225.8906 392.998,1225.8906 Q392.2324,1225.8906 391.5918,1226.2188 Q390.9668,1226.5469 390.4668,1227.2969 Q389.9824,1228.0469 389.9824,1229.0781 L389.9824,1230.1719 Q389.9824,1231.4063 390.873,1232.2344 Q391.7637,1233.0469 393.3574,1233.0469 Q394.2949,1233.0469 394.9512,1232.7969 Q395.3418,1232.6406 395.7637,1232.2031 Q396.0293,1231.9375 396.1699,1231.8594 Q396.3262,1231.7813 396.5293,1231.7813 Q396.8574,1231.7813 397.1074,1232.0469 Q397.373,1232.2969 397.373,1232.6406 Q397.373,1232.9844 397.0293,1233.3906 Q396.5293,1233.9688 395.7324,1234.2969 Q394.6543,1234.75 393.3574,1234.75 Q391.8418,1234.75 390.6387,1234.125 Q389.6543,1233.625 388.9668,1232.5625 Q388.2793,1231.4844 388.2793,1230.2031 L388.2793,1229.0469 Q388.2793,1227.7188 388.8887,1226.5781 Q389.5137,1225.4219 390.6074,1224.8125 Q391.7012,1224.1875 392.9355,1224.1875 Q393.6699,1224.1875 394.3105,1224.3594 Q394.9668,1224.5156 395.5137,1224.875 Z " fill="#000000"/><text fill="#000000" font-family="sans-serif" font-size="14" lengthAdjust="spacing" textLength="49.8135" x="413.248" y="1234.7969">Building</text><line style="stroke:#181818;stroke-width:0.5;" x1="342" x2="501.8096" y1="1245" y2="1245"/><text fill="#000000" font-family="sans-serif" font-size="14" lengthAdjust="spacing" textLength="87.9238" x="347" y="1264.1074">-name : String</text><text fill="#000000" font-family="sans-serif" font-size="14" lengthAdjust="spacing" textLength="123.7305" x="347" y="1282.7285">-type : BuildingType</text><line style="stroke:#181818;stroke-width:0.5;" x1="342" x2="501.8096" y1="1290.2422" y2="1290.2422"/><text fill="#000000" font-family="sans-serif" font-size="14" lengthAdjust="spacing" textLength="149.8096" x="347" y="1309.3496">+Building(position, type)</text></g><!--class StationType--><g id="elem_StationType"><rect codeLine="48" fill="#F1F1F1" height="66.6211" id="StationType" rx="2.5" ry="2.5" style="stroke:#181818;stroke-width:0.5;" width="106.71" x="591.5" y="1231.5"/><ellipse cx="606.5" cy="1247.5" fill="#A9DCDF" rx="11" ry="11" style="stroke:#181818;stroke-width:1.0;"/><path d="M608.6875,1249.2656 L604.5469,1249.2656 L604.125,1250.2969 L604.5469,1250.2969 Q605.1563,1250.2969 605.4219,1250.5313 Q605.6875,1250.7656 605.6875,1251.1563 Q605.6875,1251.5313 605.4219,1251.7656 Q605.1563,1252 604.5469,1252 L602.25,1252 Q601.6406,1252 601.3906,1251.7656 Q601.125,1251.5313 601.125,1251.1406 Q601.125,1250.7656 601.4063,1250.5313 Q601.6719,1250.2813 602.2969,1250.2969 L604.9688,1243.6406 L603.8594,1243.6406 Q603.25,1243.6406 602.9844,1243.4063 Q602.7188,1243.1719 602.7188,1242.7813 Q602.7188,1242.4063 602.9844,1242.1719 Q603.25,1241.9375 603.8594,1241.9375 L607.5313,1241.9375 L610.9219,1250.2969 Q611.5156,1250.2969 611.7031,1250.4375 Q612.0938,1250.7031 612.0938,1251.1563 Q612.0938,1251.5313 611.8281,1251.7656 Q611.5781,1252 610.9688,1252 L608.6719,1252 Q608.0625,1252 607.7969,1251.7656 Q607.5313,1251.5313 607.5313,1251.1406 Q607.5313,1250.7656 607.7969,1250.5313 Q608.0625,1250.2969 608.6719,1250.2969 L609.0938,1250.2969 L608.6875,1249.2656 Z M607.9688,1247.5625 L606.6094,1244.1875 L605.2344,1247.5625 L607.9688,1247.5625 Z " fill="#000000"/><text fill="#000000" font-family="sans-serif" font-size="14" font-style="italic" lengthAdjust="spacing" textLength="74.71" x="620.5" y="1253.2969">StationType</text><line style="stroke:#181818;stroke-width:0.5;" x1="592.5" x2="697.21" y1="1263.5" y2="1263.5"/><text fill="#000000" font-family="sans-serif" font-size="14" lengthAdjust="spacing" textLength="91.4375" x="597.5" y="1282.6074">+name : String</text><line style="stroke:#181818;stroke-width:0.5;" x1="592.5" x2="697.21" y1="1290.1211" y2="1290.1211"/></g><!--class Depot--><g id="elem_Depot"><rect codeLine="52" fill="#F1F1F1" height="48" id="Depot" rx="2.5" ry="2.5" style="stroke:#181818;stroke-width:0.5;" width="69.3584" x="610.5" y="1396"/><ellipse cx="625.5" cy="1412" fill="#ADD1B2" rx="11" ry="11" style="stroke:#181818;stroke-width:1.0;"/><path d="M628.2656,1407.875 Q628.4219,1407.6563 628.6094,1407.5469 Q628.7969,1407.4375 629.0156,1407.4375 Q629.3906,1407.4375 629.625,1407.7031 Q629.8594,1407.9531 629.8594,1408.5625 L629.8594,1410.0156 Q629.8594,1410.625 629.625,1410.8906 Q629.3906,1411.1563 629.0156,1411.1563 Q628.6719,1411.1563 628.4688,1410.9531 Q628.2656,1410.7656 628.1563,1410.25 Q628.1094,1409.8906 627.9219,1409.7031 Q627.5938,1409.3281 626.9844,1409.1094 Q626.375,1408.8906 625.75,1408.8906 Q624.9844,1408.8906 624.3438,1409.2188 Q623.7188,1409.5469 623.2188,1410.2969 Q622.7344,1411.0469 622.7344,1412.0781 L622.7344,1413.1719 Q622.7344,1414.4063 623.625,1415.2344 Q624.5156,1416.0469 626.1094,1416.0469 Q627.0469,1416.0469 627.7031,1415.7969 Q628.0938,1415.6406 628.5156,1415.2031 Q628.7813,1414.9375 628.9219,1414.8594 Q629.0781,1414.7813 629.2813,1414.7813 Q629.6094,1414.7813 629.8594,1415.0469 Q630.125,1415.2969 630.125,1415.6406 Q630.125,1415.9844 629.7813,1416.3906 Q629.2813,1416.9688 628.4844,1417.2969 Q627.4063,1417.75 626.1094,1417.75 Q624.5938,1417.75 623.3906,1417.125 Q622.4063,1416.625 621.7188,1415.5625 Q621.0313,1414.4844 621.0313,1413.2031 L621.0313,1412.0469 Q621.0313,1410.7188 621.6406,1409.5781 Q622.2656,1408.4219 623.3594,1407.8125 Q624.4531,1407.1875 625.6875,1407.1875 Q626.4219,1407.1875 627.0625,1407.3594 Q627.7188,1407.5156 628.2656,1407.875 Z " fill="#000000"/><text fill="#000000" font-family="sans-serif" font-size="14" lengthAdjust="spacing" textLength="37.3584" x="639.5" y="1417.7969">Depot</text><line style="stroke:#181818;stroke-width:0.5;" x1="611.5" x2="678.8584" y1="1428" y2="1428"/><line style="stroke:#181818;stroke-width:0.5;" x1="611.5" x2="678.8584" y1="1436" y2="1436"/></g><!--class RegularStation--><g id="elem_RegularStation"><rect codeLine="55" fill="#F1F1F1" height="48" id="RegularStation" rx="2.5" ry="2.5" style="stroke:#181818;stroke-width:0.5;" width="124.6133" x="714.5" y="1396"/><ellipse cx="729.5" cy="1412" fill="#ADD1B2" rx="11" ry="11" style="stroke:#181818;stroke-width:1.0;"/><path d="M732.2656,1407.875 Q732.4219,1407.6563 732.6094,1407.5469 Q732.7969,1407.4375 733.0156,1407.4375 Q733.3906,1407.4375 733.625,1407.7031 Q733.8594,1407.9531 733.8594,1408.5625 L733.8594,1410.0156 Q733.8594,1410.625 733.625,1410.8906 Q733.3906,1411.1563 733.0156,1411.1563 Q732.6719,1411.1563 732.4688,1410.9531 Q732.2656,1410.7656 732.1563,1410.25 Q732.1094,1409.8906 731.9219,1409.7031 Q731.5938,1409.3281 730.9844,1409.1094 Q730.375,1408.8906 729.75,1408.8906 Q728.9844,1408.8906 728.3438,1409.2188 Q727.7188,1409.5469 727.2188,1410.2969 Q726.7344,1411.0469 726.7344,1412.0781 L726.7344,1413.1719 Q726.7344,1414.4063 727.625,1415.2344 Q728.5156,1416.0469 730.1094,1416.0469 Q731.0469,1416.0469 731.7031,1415.7969 Q732.0938,1415.6406 732.5156,1415.2031 Q732.7813,1414.9375 732.9219,1414.8594 Q733.0781,1414.7813 733.2813,1414.7813 Q733.6094,1414.7813 733.8594,1415.0469 Q734.125,1415.2969 734.125,1415.6406 Q734.125,1415.9844 733.7813,1416.3906 Q733.2813,1416.9688 732.4844,1417.2969 Q731.4063,1417.75 730.1094,1417.75 Q728.5938,1417.75 727.3906,1417.125 Q726.4063,1416.625 725.7188,1415.5625 Q725.0313,1414.4844 725.0313,1413.2031 L725.0313,1412.0469 Q725.0313,1410.7188 725.6406,1409.5781 Q726.2656,1408.4219 727.3594,1407.8125 Q728.4531,1407.1875 729.6875,1407.1875 Q730.4219,1407.1875 731.0625,1407.3594 Q731.7188,1407.5156 732.2656,1407.875 Z " fill="#000000"/><text fill="#000000" font-family="sans-serif" font-size="14" lengthAdjust="spacing" textLength="92.6133" x="743.5" y="1417.7969">RegularStation</text><line style="stroke:#181818;stroke-width:0.5;" x1="715.5" x2="838.1133" y1="1428" y2="1428"/><line style="stroke:#181818;stroke-width:0.5;" x1="715.5" x2="838.1133" y1="1436" y2="1436"/></g><!--class Terminal--><g id="elem_Terminal"><rect codeLine="58" fill="#F1F1F1" height="48" id="Terminal" rx="2.5" ry="2.5" style="stroke:#181818;stroke-width:0.5;" width="86.4551" x="489" y="1396"/><ellipse cx="504" cy="1412" fill="#ADD1B2" rx="11" ry="11" style="stroke:#181818;stroke-width:1.0;"/><path d="M506.7656,1407.875 Q506.9219,1407.6563 507.1094,1407.5469 Q507.2969,1407.4375 507.5156,1407.4375 Q507.8906,1407.4375 508.125,1407.7031 Q508.3594,1407.9531 508.3594,1408.5625 L508.3594,1410.0156 Q508.3594,1410.625 508.125,1410.8906 Q507.8906,1411.1563 507.5156,1411.1563 Q507.1719,1411.1563 506.9688,1410.9531 Q506.7656,1410.7656 506.6563,1410.25 Q506.6094,1409.8906 506.4219,1409.7031 Q506.0938,1409.3281 505.4844,1409.1094 Q504.875,1408.8906 504.25,1408.8906 Q503.4844,1408.8906 502.8438,1409.2188 Q502.2188,1409.5469 501.7188,1410.2969 Q501.2344,1411.0469 501.2344,1412.0781 L501.2344,1413.1719 Q501.2344,1414.4063 502.125,1415.2344 Q503.0156,1416.0469 504.6094,1416.0469 Q505.5469,1416.0469 506.2031,1415.7969 Q506.5938,1415.6406 507.0156,1415.2031 Q507.2813,1414.9375 507.4219,1414.8594 Q507.5781,1414.7813 507.7813,1414.7813 Q508.1094,1414.7813 508.3594,1415.0469 Q508.625,1415.2969 508.625,1415.6406 Q508.625,1415.9844 508.2813,1416.3906 Q507.7813,1416.9688 506.9844,1417.2969 Q505.9063,1417.75 504.6094,1417.75 Q503.0938,1417.75 501.8906,1417.125 Q500.9063,1416.625 500.2188,1415.5625 Q499.5313,1414.4844 499.5313,1413.2031 L499.5313,1412.0469 Q499.5313,1410.7188 500.1406,1409.5781 Q500.7656,1408.4219 501.8594,1407.8125 Q502.9531,1407.1875 504.1875,1407.1875 Q504.9219,1407.1875 505.5625,1407.3594 Q506.2188,1407.5156 506.7656,1407.875 Z " fill="#000000"/><text fill="#000000" font-family="sans-serif" font-size="14" lengthAdjust="spacing" textLength="54.4551" x="518" y="1417.7969">Terminal</text><line style="stroke:#181818;stroke-width:0.5;" x1="490" x2="574.4551" y1="1428" y2="1428"/><line style="stroke:#181818;stroke-width:0.5;" x1="490" x2="574.4551" y1="1436" y2="1436"/></g><!--class StationTypeRepository--><g id="elem_StationTypeRepository"><rect codeLine="61" fill="#F1F1F1" height="66.6211" id="StationTypeRepository" rx="2.5" ry="2.5" style="stroke:#181818;stroke-width:0.5;" width="227.1611" x="453.5" y="638"/><ellipse cx="492.5904" cy="654" fill="#ADD1B2" rx="11" ry="11" style="stroke:#181818;stroke-width:1.0;"/><path d="M495.356,649.875 Q495.5123,649.6563 495.6998,649.5469 Q495.8873,649.4375 496.106,649.4375 Q496.481,649.4375 496.7154,649.7031 Q496.9498,649.9531 496.9498,650.5625 L496.9498,652.0156 Q496.9498,652.625 496.7154,652.8906 Q496.481,653.1563 496.106,653.1563 Q495.7623,653.1563 495.5591,652.9531 Q495.356,652.7656 495.2466,652.25 Q495.1998,651.8906 495.0123,651.7031 Q494.6841,651.3281 494.0748,651.1094 Q493.4654,650.8906 492.8404,650.8906 Q492.0748,650.8906 491.4341,651.2188 Q490.8091,651.5469 490.3091,652.2969 Q489.8248,653.0469 489.8248,654.0781 L489.8248,655.1719 Q489.8248,656.4063 490.7154,657.2344 Q491.606,658.0469 493.1998,658.0469 Q494.1373,658.0469 494.7935,657.7969 Q495.1841,657.6406 495.606,657.2031 Q495.8716,656.9375 496.0123,656.8594 Q496.1685,656.7813 496.3716,656.7813 Q496.6998,656.7813 496.9498,657.0469 Q497.2154,657.2969 497.2154,657.6406 Q497.2154,657.9844 496.8716,658.3906 Q496.3716,658.9688 495.5748,659.2969 Q494.4966,659.75 493.1998,659.75 Q491.6841,659.75 490.481,659.125 Q489.4966,658.625 488.8091,657.5625 Q488.1216,656.4844 488.1216,655.2031 L488.1216,654.0469 Q488.1216,652.7188 488.731,651.5781 Q489.356,650.4219 490.4498,649.8125 Q491.5435,649.1875 492.7779,649.1875 Q493.5123,649.1875 494.1529,649.3594 Q494.8091,649.5156 495.356,649.875 Z " fill="#000000"/><text fill="#000000" font-family="sans-serif" font-size="14" lengthAdjust="spacing" textLength="141.627" x="511.9438" y="659.7969">StationTypeRepository</text><line style="stroke:#181818;stroke-width:0.5;" x1="454.5" x2="679.6611" y1="670" y2="670"/><line style="stroke:#181818;stroke-width:0.5;" x1="454.5" x2="679.6611" y1="678" y2="678"/><text fill="#000000" font-family="sans-serif" font-size="14" lengthAdjust="spacing" textLength="215.1611" x="459.5" y="697.1074">+getAllTypes() : List&lt;StationType&gt;</text></g><!--class Position--><g id="elem_Position"><rect codeLine="65" fill="#F1F1F1" height="103.8633" id="Position" rx="2.5" ry="2.5" style="stroke:#181818;stroke-width:0.5;" width="101.0859" x="868.5" y="1213"/><ellipse cx="892.1757" cy="1229" fill="#ADD1B2" rx="11" ry="11" style="stroke:#181818;stroke-width:1.0;"/><path d="M894.9413,1224.875 Q895.0976,1224.6563 895.2851,1224.5469 Q895.4726,1224.4375 895.6913,1224.4375 Q896.0663,1224.4375 896.3007,1224.7031 Q896.5351,1224.9531 896.5351,1225.5625 L896.5351,1227.0156 Q896.5351,1227.625 896.3007,1227.8906 Q896.0663,1228.1563 895.6913,1228.1563 Q895.3476,1228.1563 895.1444,1227.9531 Q894.9413,1227.7656 894.8319,1227.25 Q894.7851,1226.8906 894.5976,1226.7031 Q894.2694,1226.3281 893.6601,1226.1094 Q893.0507,1225.8906 892.4257,1225.8906 Q891.6601,1225.8906 891.0194,1226.2188 Q890.3944,1226.5469 889.8944,1227.2969 Q889.4101,1228.0469 889.4101,1229.0781 L889.4101,1230.1719 Q889.4101,1231.4063 890.3007,1232.2344 Q891.1913,1233.0469 892.7851,1233.0469 Q893.7226,1233.0469 894.3788,1232.7969 Q894.7694,1232.6406 895.1913,1232.2031 Q895.4569,1231.9375 895.5976,1231.8594 Q895.7538,1231.7813 895.9569,1231.7813 Q896.2851,1231.7813 896.5351,1232.0469 Q896.8007,1232.2969 896.8007,1232.6406 Q896.8007,1232.9844 896.4569,1233.3906 Q895.9569,1233.9688 895.1601,1234.2969 Q894.0819,1234.75 892.7851,1234.75 Q891.2694,1234.75 890.0663,1234.125 Q889.0819,1233.625 888.3944,1232.5625 Q887.7069,1231.4844 887.7069,1230.2031 L887.7069,1229.0469 Q887.7069,1227.7188 888.3163,1226.5781 Q888.9413,1225.4219 890.0351,1224.8125 Q891.1288,1224.1875 892.3632,1224.1875 Q893.0976,1224.1875 893.7382,1224.3594 Q894.3944,1224.5156 894.9413,1224.875 Z " fill="#000000"/><text fill="#000000" font-family="sans-serif" font-size="14" lengthAdjust="spacing" textLength="49.8066" x="908.1036" y="1234.7969">Position</text><line style="stroke:#181818;stroke-width:0.5;" x1="869.5" x2="968.5859" y1="1245" y2="1245"/><text fill="#000000" font-family="sans-serif" font-size="14" lengthAdjust="spacing" textLength="38.1172" x="874.5" y="1264.1074">-x : int</text><text fill="#000000" font-family="sans-serif" font-size="14" lengthAdjust="spacing" textLength="38.1172" x="874.5" y="1282.7285">-y : int</text><line style="stroke:#181818;stroke-width:0.5;" x1="869.5" x2="968.5859" y1="1290.2422" y2="1290.2422"/><text fill="#000000" font-family="sans-serif" font-size="14" lengthAdjust="spacing" textLength="89.0859" x="874.5" y="1309.3496">+Position(x, y)</text></g><!--class Quadrant--><g id="elem_Quadrant"><rect codeLine="71" fill="#F1F1F1" height="122.4844" id="Quadrant" rx="2.5" ry="2.5" style="stroke:#181818;stroke-width:0.5;" width="90.3721" x="1034" y="467"/><ellipse cx="1049" cy="483" fill="#EB937F" rx="11" ry="11" style="stroke:#181818;stroke-width:1.0;"/><path d="M1047.8594,483.7969 L1047.8594,486.2969 L1052.1875,486.2969 L1052.1875,485.375 Q1052.1875,484.7656 1052.4219,484.5 Q1052.6719,484.2344 1053.0469,484.2344 Q1053.4219,484.2344 1053.6563,484.5 Q1053.8906,484.7656 1053.8906,485.375 L1053.8906,488 L1045.8906,488 Q1045.2656,488 1045,487.7656 Q1044.75,487.5313 1044.75,487.1406 Q1044.75,486.7656 1045.0156,486.5313 Q1045.2813,486.2969 1045.8906,486.2969 L1046.1563,486.2969 L1046.1563,479.6406 L1045.8906,479.6406 Q1045.2656,479.6406 1045,479.4063 Q1044.75,479.1719 1044.75,478.7813 Q1044.75,478.4063 1045,478.1719 Q1045.2656,477.9375 1045.8906,477.9375 L1053.5156,477.9375 L1053.5156,480.5313 Q1053.5156,481.1406 1053.2813,481.4063 Q1053.0625,481.6563 1052.6719,481.6563 Q1052.2969,481.6563 1052.0625,481.4063 Q1051.8281,481.1406 1051.8281,480.5313 L1051.8281,479.6406 L1047.8594,479.6406 L1047.8594,482.0938 L1049.3438,482.0938 Q1049.3438,481.4375 1049.4688,481.25 Q1049.7344,480.8438 1050.2031,480.8438 Q1050.5781,480.8438 1050.8125,481.1094 Q1051.0469,481.3594 1051.0469,481.9688 L1051.0469,483.9375 Q1051.0469,484.4844 1050.9219,484.6719 Q1050.6563,485.0625 1050.2031,485.0625 Q1049.7344,485.0625 1049.4688,484.6563 Q1049.3438,484.4688 1049.3438,483.7969 L1047.8594,483.7969 Z " fill="#000000"/><text fill="#000000" font-family="sans-serif" font-size="14" lengthAdjust="spacing" textLength="58.3721" x="1063" y="488.7969">Quadrant</text><line style="stroke:#181818;stroke-width:0.5;" x1="1035" x2="1123.3721" y1="499" y2="499"/><text fill="#000000" font-family="sans-serif" font-size="14" lengthAdjust="spacing" textLength="19.4482" x="1040" y="518.1074">NE</text><text fill="#000000" font-family="sans-serif" font-size="14" lengthAdjust="spacing" textLength="18.6758" x="1040" y="536.7285">SE</text><text fill="#000000" font-family="sans-serif" font-size="14" lengthAdjust="spacing" textLength="23.3242" x="1040" y="555.3496">NW</text><text fill="#000000" font-family="sans-serif" font-size="14" lengthAdjust="spacing" textLength="22.5518" x="1040" y="573.9707">SW</text><line style="stroke:#181818;stroke-width:0.5;" x1="1035" x2="1123.3721" y1="581.4844" y2="581.4844"/></g><!--class Map--><g id="elem_Map"><rect codeLine="78" fill="#F1F1F1" height="159.7266" id="Map" rx="2.5" ry="2.5" style="stroke:#181818;stroke-width:0.5;" width="189.8164" x="1159" y="448"/><ellipse cx="1236.041" cy="464" fill="#ADD1B2" rx="11" ry="11" style="stroke:#181818;stroke-width:1.0;"/><path d="M1238.8066,459.875 Q1238.9629,459.6563 1239.1504,459.5469 Q1239.3379,459.4375 1239.5566,459.4375 Q1239.9316,459.4375 1240.166,459.7031 Q1240.4004,459.9531 1240.4004,460.5625 L1240.4004,462.0156 Q1240.4004,462.625 1240.166,462.8906 Q1239.9316,463.1563 1239.5566,463.1563 Q1239.2129,463.1563 1239.0098,462.9531 Q1238.8066,462.7656 1238.6973,462.25 Q1238.6504,461.8906 1238.4629,461.7031 Q1238.1348,461.3281 1237.5254,461.1094 Q1236.916,460.8906 1236.291,460.8906 Q1235.5254,460.8906 1234.8848,461.2188 Q1234.2598,461.5469 1233.7598,462.2969 Q1233.2754,463.0469 1233.2754,464.0781 L1233.2754,465.1719 Q1233.2754,466.4063 1234.166,467.2344 Q1235.0566,468.0469 1236.6504,468.0469 Q1237.5879,468.0469 1238.2441,467.7969 Q1238.6348,467.6406 1239.0566,467.2031 Q1239.3223,466.9375 1239.4629,466.8594 Q1239.6191,466.7813 1239.8223,466.7813 Q1240.1504,466.7813 1240.4004,467.0469 Q1240.666,467.2969 1240.666,467.6406 Q1240.666,467.9844 1240.3223,468.3906 Q1239.8223,468.9688 1239.0254,469.2969 Q1237.9473,469.75 1236.6504,469.75 Q1235.1348,469.75 1233.9316,469.125 Q1232.9473,468.625 1232.2598,467.5625 Q1231.5723,466.4844 1231.5723,465.2031 L1231.5723,464.0469 Q1231.5723,462.7188 1232.1816,461.5781 Q1232.8066,460.4219 1233.9004,459.8125 Q1234.9941,459.1875 1236.2285,459.1875 Q1236.9629,459.1875 1237.6035,459.3594 Q1238.2598,459.5156 1238.8066,459.875 Z " fill="#000000"/><text fill="#000000" font-family="sans-serif" font-size="14" lengthAdjust="spacing" textLength="27.2344" x="1256.541" y="469.7969">Map</text><line style="stroke:#181818;stroke-width:0.5;" x1="1160" x2="1347.8164" y1="480" y2="480"/><text fill="#000000" font-family="sans-serif" font-size="14" lengthAdjust="spacing" textLength="87.9238" x="1165" y="499.1074">-name : String</text><text fill="#000000" font-family="sans-serif" font-size="14" lengthAdjust="spacing" textLength="63.7998" x="1165" y="517.7285">-width : int</text><text fill="#000000" font-family="sans-serif" font-size="14" lengthAdjust="spacing" textLength="69.2617" x="1165" y="536.3496">-length : int</text><text fill="#000000" font-family="sans-serif" font-size="14" lengthAdjust="spacing" textLength="124.5029" x="1165" y="554.9707">-scenario : Scenario</text><line style="stroke:#181818;stroke-width:0.5;" x1="1160" x2="1347.8164" y1="562.4844" y2="562.4844"/><text fill="#000000" font-family="sans-serif" font-size="14" lengthAdjust="spacing" textLength="92.2168" x="1165" y="581.5918">+getScenario()</text><text fill="#000000" font-family="sans-serif" font-size="14" lengthAdjust="spacing" textLength="177.8164" x="1165" y="600.2129">+checkCoordinates(location)</text></g><!--class Scenario--><g id="elem_Scenario"><rect codeLine="87" fill="#F1F1F1" height="48" id="Scenario" rx="2.5" ry="2.5" style="stroke:#181818;stroke-width:0.5;" width="87.2549" x="1210.5" y="791"/><ellipse cx="1225.5" cy="807" fill="#ADD1B2" rx="11" ry="11" style="stroke:#181818;stroke-width:1.0;"/><path d="M1228.2656,802.875 Q1228.4219,802.6563 1228.6094,802.5469 Q1228.7969,802.4375 1229.0156,802.4375 Q1229.3906,802.4375 1229.625,802.7031 Q1229.8594,802.9531 1229.8594,803.5625 L1229.8594,805.0156 Q1229.8594,805.625 1229.625,805.8906 Q1229.3906,806.1563 1229.0156,806.1563 Q1228.6719,806.1563 1228.4688,805.9531 Q1228.2656,805.7656 1228.1563,805.25 Q1228.1094,804.8906 1227.9219,804.7031 Q1227.5938,804.3281 1226.9844,804.1094 Q1226.375,803.8906 1225.75,803.8906 Q1224.9844,803.8906 1224.3438,804.2188 Q1223.7188,804.5469 1223.2188,805.2969 Q1222.7344,806.0469 1222.7344,807.0781 L1222.7344,808.1719 Q1222.7344,809.4063 1223.625,810.2344 Q1224.5156,811.0469 1226.1094,811.0469 Q1227.0469,811.0469 1227.7031,810.7969 Q1228.0938,810.6406 1228.5156,810.2031 Q1228.7813,809.9375 1228.9219,809.8594 Q1229.0781,809.7813 1229.2813,809.7813 Q1229.6094,809.7813 1229.8594,810.0469 Q1230.125,810.2969 1230.125,810.6406 Q1230.125,810.9844 1229.7813,811.3906 Q1229.2813,811.9688 1228.4844,812.2969 Q1227.4063,812.75 1226.1094,812.75 Q1224.5938,812.75 1223.3906,812.125 Q1222.4063,811.625 1221.7188,810.5625 Q1221.0313,809.4844 1221.0313,808.2031 L1221.0313,807.0469 Q1221.0313,805.7188 1221.6406,804.5781 Q1222.2656,803.4219 1223.3594,802.8125 Q1224.4531,802.1875 1225.6875,802.1875 Q1226.4219,802.1875 1227.0625,802.3594 Q1227.7188,802.5156 1228.2656,802.875 Z " fill="#000000"/><text fill="#000000" font-family="sans-serif" font-size="14" lengthAdjust="spacing" textLength="55.2549" x="1239.5" y="812.7969">Scenario</text><line style="stroke:#181818;stroke-width:0.5;" x1="1211.5" x2="1296.7549" y1="823" y2="823"/><line style="stroke:#181818;stroke-width:0.5;" x1="1211.5" x2="1296.7549" y1="831" y2="831"/></g><!--class Repositories--><g id="elem_Repositories"><rect codeLine="90" fill="#F1F1F1" height="141.1055" id="Repositories" rx="2.5" ry="2.5" style="stroke:#181818;stroke-width:0.5;" width="190.5889" x="1384.5" y="457.5"/><ellipse cx="1436.6377" cy="473.5" fill="#ADD1B2" rx="11" ry="11" style="stroke:#181818;stroke-width:1.0;"/><path d="M1439.4033,469.375 Q1439.5596,469.1563 1439.7471,469.0469 Q1439.9346,468.9375 1440.1533,468.9375 Q1440.5283,468.9375 1440.7627,469.2031 Q1440.9971,469.4531 1440.9971,470.0625 L1440.9971,471.5156 Q1440.9971,472.125 1440.7627,472.3906 Q1440.5283,472.6563 1440.1533,472.6563 Q1439.8096,472.6563 1439.6064,472.4531 Q1439.4033,472.2656 1439.2939,471.75 Q1439.2471,471.3906 1439.0596,471.2031 Q1438.7314,470.8281 1438.1221,470.6094 Q1437.5127,470.3906 1436.8877,470.3906 Q1436.1221,470.3906 1435.4814,470.7188 Q1434.8564,471.0469 1434.3564,471.7969 Q1433.8721,472.5469 1433.8721,473.5781 L1433.8721,474.6719 Q1433.8721,475.9063 1434.7627,476.7344 Q1435.6533,477.5469 1437.2471,477.5469 Q1438.1846,477.5469 1438.8408,477.2969 Q1439.2314,477.1406 1439.6533,476.7031 Q1439.9189,476.4375 1440.0596,476.3594 Q1440.2158,476.2813 1440.4189,476.2813 Q1440.7471,476.2813 1440.9971,476.5469 Q1441.2627,476.7969 1441.2627,477.1406 Q1441.2627,477.4844 1440.9189,477.8906 Q1440.4189,478.4688 1439.6221,478.7969 Q1438.5439,479.25 1437.2471,479.25 Q1435.7314,479.25 1434.5283,478.625 Q1433.5439,478.125 1432.8564,477.0625 Q1432.1689,475.9844 1432.1689,474.7031 L1432.1689,473.5469 Q1432.1689,472.2188 1432.7783,471.0781 Q1433.4033,469.9219 1434.4971,469.3125 Q1435.5908,468.6875 1436.8252,468.6875 Q1437.5596,468.6875 1438.2002,468.8594 Q1438.8564,469.0156 1439.4033,469.375 Z " fill="#000000"/><text fill="#000000" font-family="sans-serif" font-size="14" lengthAdjust="spacing" textLength="77.8135" x="1457.1377" y="479.2969">Repositories</text><line style="stroke:#181818;stroke-width:0.5;" x1="1385.5" x2="1574.0889" y1="489.5" y2="489.5"/><line style="stroke:#181818;stroke-width:0.5;" x1="1385.5" x2="1574.0889" y1="497.5" y2="497.5"/><text fill="#000000" font-family="sans-serif" font-size="14" lengthAdjust="spacing" textLength="91.7998" x="1390.5" y="516.6074">-Repositories()</text><text fill="#000000" font-family="sans-serif" font-size="14" lengthAdjust="spacing" textLength="89.8857" x="1390.5" y="535.2285">+getInstance()</text><text fill="#000000" font-family="sans-serif" font-size="14" lengthAdjust="spacing" textLength="131.1133" x="1390.5" y="553.8496">+getMapRepository()</text><text fill="#000000" font-family="sans-serif" font-size="14" lengthAdjust="spacing" textLength="143.5615" x="1390.5" y="572.4707">+getPlayerRepository()</text><text fill="#000000" font-family="sans-serif" font-size="14" lengthAdjust="spacing" textLength="178.5889" x="1390.5" y="591.0918">+getStationTypeRepository()</text></g><!--class MapRepository--><g id="elem_MapRepository"><rect codeLine="98" fill="#F1F1F1" height="66.6211" id="MapRepository" rx="2.5" ry="2.5" style="stroke:#181818;stroke-width:0.5;" width="126.1514" x="1611" y="494.5"/><ellipse cx="1626" cy="510.5" fill="#ADD1B2" rx="11" ry="11" style="stroke:#181818;stroke-width:1.0;"/><path d="M1628.7656,506.375 Q1628.9219,506.1563 1629.1094,506.0469 Q1629.2969,505.9375 1629.5156,505.9375 Q1629.8906,505.9375 1630.125,506.2031 Q1630.3594,506.4531 1630.3594,507.0625 L1630.3594,508.5156 Q1630.3594,509.125 1630.125,509.3906 Q1629.8906,509.6563 1629.5156,509.6563 Q1629.1719,509.6563 1628.9688,509.4531 Q1628.7656,509.2656 1628.6563,508.75 Q1628.6094,508.3906 1628.4219,508.2031 Q1628.0938,507.8281 1627.4844,507.6094 Q1626.875,507.3906 1626.25,507.3906 Q1625.4844,507.3906 1624.8438,507.7188 Q1624.2188,508.0469 1623.7188,508.7969 Q1623.2344,509.5469 1623.2344,510.5781 L1623.2344,511.6719 Q1623.2344,512.9063 1624.125,513.7344 Q1625.0156,514.5469 1626.6094,514.5469 Q1627.5469,514.5469 1628.2031,514.2969 Q1628.5938,514.1406 1629.0156,513.7031 Q1629.2813,513.4375 1629.4219,513.3594 Q1629.5781,513.2813 1629.7813,513.2813 Q1630.1094,513.2813 1630.3594,513.5469 Q1630.625,513.7969 1630.625,514.1406 Q1630.625,514.4844 1630.2813,514.8906 Q1629.7813,515.4688 1628.9844,515.7969 Q1627.9063,516.25 1626.6094,516.25 Q1625.0938,516.25 1623.8906,515.625 Q1622.9063,515.125 1622.2188,514.0625 Q1621.5313,512.9844 1621.5313,511.7031 L1621.5313,510.5469 Q1621.5313,509.2188 1622.1406,508.0781 Q1622.7656,506.9219 1623.8594,506.3125 Q1624.9531,505.6875 1626.1875,505.6875 Q1626.9219,505.6875 1627.5625,505.8594 Q1628.2188,506.0156 1628.7656,506.375 Z " fill="#000000"/><text fill="#000000" font-family="sans-serif" font-size="14" lengthAdjust="spacing" textLength="94.1514" x="1640" y="516.2969">MapRepository</text><line style="stroke:#181818;stroke-width:0.5;" x1="1612" x2="1736.1514" y1="526.5" y2="526.5"/><line style="stroke:#181818;stroke-width:0.5;" x1="1612" x2="1736.1514" y1="534.5" y2="534.5"/><text fill="#000000" font-family="sans-serif" font-size="14" lengthAdjust="spacing" textLength="71.1963" x="1617" y="553.6074">+getMaps()</text></g><!--class PlayerRepository--><g id="elem_PlayerRepository"><rect codeLine="102" fill="#F1F1F1" height="66.6211" id="PlayerRepository" rx="2.5" ry="2.5" style="stroke:#181818;stroke-width:0.5;" width="231.8164" x="554" y="494.5"/><ellipse cx="612.3584" cy="510.5" fill="#ADD1B2" rx="11" ry="11" style="stroke:#181818;stroke-width:1.0;"/><path d="M615.124,506.375 Q615.2803,506.1563 615.4678,506.0469 Q615.6553,505.9375 615.874,505.9375 Q616.249,505.9375 616.4834,506.2031 Q616.7178,506.4531 616.7178,507.0625 L616.7178,508.5156 Q616.7178,509.125 616.4834,509.3906 Q616.249,509.6563 615.874,509.6563 Q615.5303,509.6563 615.3271,509.4531 Q615.124,509.2656 615.0146,508.75 Q614.9678,508.3906 614.7803,508.2031 Q614.4521,507.8281 613.8428,507.6094 Q613.2334,507.3906 612.6084,507.3906 Q611.8428,507.3906 611.2021,507.7188 Q610.5771,508.0469 610.0771,508.7969 Q609.5928,509.5469 609.5928,510.5781 L609.5928,511.6719 Q609.5928,512.9063 610.4834,513.7344 Q611.374,514.5469 612.9678,514.5469 Q613.9053,514.5469 614.5615,514.2969 Q614.9521,514.1406 615.374,513.7031 Q615.6396,513.4375 615.7803,513.3594 Q615.9365,513.2813 616.1396,513.2813 Q616.4678,513.2813 616.7178,513.5469 Q616.9834,513.7969 616.9834,514.1406 Q616.9834,514.4844 616.6396,514.8906 Q616.1396,515.4688 615.3428,515.7969 Q614.2646,516.25 612.9678,516.25 Q611.4521,516.25 610.249,515.625 Q609.2646,515.125 608.5771,514.0625 Q607.8896,512.9844 607.8896,511.7031 L607.8896,510.5469 Q607.8896,509.2188 608.499,508.0781 Q609.124,506.9219 610.2178,506.3125 Q611.3115,505.6875 612.5459,505.6875 Q613.2803,505.6875 613.9209,505.8594 Q614.5771,506.0156 615.124,506.375 Z " fill="#000000"/><text fill="#000000" font-family="sans-serif" font-size="14" lengthAdjust="spacing" textLength="106.5996" x="632.8584" y="516.2969">PlayerRepository</text><line style="stroke:#181818;stroke-width:0.5;" x1="555" x2="784.8164" y1="526.5" y2="526.5"/><line style="stroke:#181818;stroke-width:0.5;" x1="555" x2="784.8164" y1="534.5" y2="534.5"/><text fill="#000000" font-family="sans-serif" font-size="14" lengthAdjust="spacing" textLength="219.8164" x="560" y="553.6074">+getPlayerByUsername(username)</text></g><!--class Player--><g id="elem_Player"><rect codeLine="106" fill="#F1F1F1" height="159.7266" id="Player" rx="2.5" ry="2.5" style="stroke:#181818;stroke-width:0.5;" width="218.6367" x="637.5" y="735"/><ellipse cx="722.7271" cy="751" fill="#ADD1B2" rx="11" ry="11" style="stroke:#181818;stroke-width:1.0;"/><path d="M725.4927,746.875 Q725.6489,746.6563 725.8364,746.5469 Q726.0239,746.4375 726.2427,746.4375 Q726.6177,746.4375 726.8521,746.7031 Q727.0864,746.9531 727.0864,747.5625 L727.0864,749.0156 Q727.0864,749.625 726.8521,749.8906 Q726.6177,750.1563 726.2427,750.1563 Q725.8989,750.1563 725.6958,749.9531 Q725.4927,749.7656 725.3833,749.25 Q725.3364,748.8906 725.1489,748.7031 Q724.8208,748.3281 724.2114,748.1094 Q723.6021,747.8906 722.9771,747.8906 Q722.2114,747.8906 721.5708,748.2188 Q720.9458,748.5469 720.4458,749.2969 Q719.9614,750.0469 719.9614,751.0781 L719.9614,752.1719 Q719.9614,753.4063 720.8521,754.2344 Q721.7427,755.0469 723.3364,755.0469 Q724.2739,755.0469 724.9302,754.7969 Q725.3208,754.6406 725.7427,754.2031 Q726.0083,753.9375 726.1489,753.8594 Q726.3052,753.7813 726.5083,753.7813 Q726.8364,753.7813 727.0864,754.0469 Q727.3521,754.2969 727.3521,754.6406 Q727.3521,754.9844 727.0083,755.3906 Q726.5083,755.9688 725.7114,756.2969 Q724.6333,756.75 723.3364,756.75 Q721.8208,756.75 720.6177,756.125 Q719.6333,755.625 718.9458,754.5625 Q718.2583,753.4844 718.2583,752.2031 L718.2583,751.0469 Q718.2583,749.7188 718.8677,748.5781 Q719.4927,747.4219 720.5864,746.8125 Q721.6802,746.1875 722.9146,746.1875 Q723.6489,746.1875 724.2896,746.3594 Q724.9458,746.5156 725.4927,746.875 Z " fill="#000000"/><text fill="#000000" font-family="sans-serif" font-size="14" lengthAdjust="spacing" textLength="39.6826" x="743.2271" y="756.7969">Player</text><line style="stroke:#181818;stroke-width:0.5;" x1="638.5" x2="855.1367" y1="767" y2="767"/><text fill="#000000" font-family="sans-serif" font-size="14" lengthAdjust="spacing" textLength="115.1582" x="643.5" y="786.1074">-username : String</text><text fill="#000000" font-family="sans-serif" font-size="14" lengthAdjust="spacing" textLength="86.3584" x="643.5" y="804.7285">-email : String</text><text fill="#000000" font-family="sans-serif" font-size="14" lengthAdjust="spacing" textLength="112.8203" x="643.5" y="823.3496">-password : String</text><text fill="#000000" font-family="sans-serif" font-size="14" lengthAdjust="spacing" textLength="125.2549" x="643.5" y="841.9707">-virtualCurrency : int</text><line style="stroke:#181818;stroke-width:0.5;" x1="638.5" x2="855.1367" y1="849.4844" y2="849.4844"/><text fill="#000000" font-family="sans-serif" font-size="14" lengthAdjust="spacing" textLength="156.0508" x="643.5" y="868.5918">+debit(amount) : boolean</text><text fill="#000000" font-family="sans-serif" font-size="14" lengthAdjust="spacing" textLength="206.6367" x="643.5" y="887.2129">+checkBudget(amount) : boolean</text></g><!--class StationTypeDTO--><g id="elem_StationTypeDTO"><rect codeLine="116" fill="#F1F1F1" height="48" id="StationTypeDTO" rx="2.5" ry="2.5" style="stroke:#181818;stroke-width:0.5;" width="136.2617" x="1158" y="1241"/><ellipse cx="1173" cy="1257" fill="#ADD1B2" rx="11" ry="11" style="stroke:#181818;stroke-width:1.0;"/><path d="M1175.7656,1252.875 Q1175.9219,1252.6563 1176.1094,1252.5469 Q1176.2969,1252.4375 1176.5156,1252.4375 Q1176.8906,1252.4375 1177.125,1252.7031 Q1177.3594,1252.9531 1177.3594,1253.5625 L1177.3594,1255.0156 Q1177.3594,1255.625 1177.125,1255.8906 Q1176.8906,1256.1563 1176.5156,1256.1563 Q1176.1719,1256.1563 1175.9688,1255.9531 Q1175.7656,1255.7656 1175.6563,1255.25 Q1175.6094,1254.8906 1175.4219,1254.7031 Q1175.0938,1254.3281 1174.4844,1254.1094 Q1173.875,1253.8906 1173.25,1253.8906 Q1172.4844,1253.8906 1171.8438,1254.2188 Q1171.2188,1254.5469 1170.7188,1255.2969 Q1170.2344,1256.0469 1170.2344,1257.0781 L1170.2344,1258.1719 Q1170.2344,1259.4063 1171.125,1260.2344 Q1172.0156,1261.0469 1173.6094,1261.0469 Q1174.5469,1261.0469 1175.2031,1260.7969 Q1175.5938,1260.6406 1176.0156,1260.2031 Q1176.2813,1259.9375 1176.4219,1259.8594 Q1176.5781,1259.7813 1176.7813,1259.7813 Q1177.1094,1259.7813 1177.3594,1260.0469 Q1177.625,1260.2969 1177.625,1260.6406 Q1177.625,1260.9844 1177.2813,1261.3906 Q1176.7813,1261.9688 1175.9844,1262.2969 Q1174.9063,1262.75 1173.6094,1262.75 Q1172.0938,1262.75 1170.8906,1262.125 Q1169.9063,1261.625 1169.2188,1260.5625 Q1168.5313,1259.4844 1168.5313,1258.2031 L1168.5313,1257.0469 Q1168.5313,1255.7188 1169.1406,1254.5781 Q1169.7656,1253.4219 1170.8594,1252.8125 Q1171.9531,1252.1875 1173.1875,1252.1875 Q1173.9219,1252.1875 1174.5625,1252.3594 Q1175.2188,1252.5156 1175.7656,1252.875 Z " fill="#000000"/><text fill="#000000" font-family="sans-serif" font-size="14" lengthAdjust="spacing" textLength="104.2617" x="1187" y="1262.7969">StationTypeDTO</text><line style="stroke:#181818;stroke-width:0.5;" x1="1159" x2="1293.2617" y1="1273" y2="1273"/><line style="stroke:#181818;stroke-width:0.5;" x1="1159" x2="1293.2617" y1="1281" y2="1281"/></g><!--class StationTypeMapper--><g id="elem_StationTypeMapper"><rect codeLine="119" fill="#F1F1F1" height="85.2422" id="StationTypeMapper" rx="2.5" ry="2.5" style="stroke:#181818;stroke-width:0.5;" width="384.3193" x="1034" y="1011.5"/><ellipse cx="1160.8203" cy="1027.5" fill="#ADD1B2" rx="11" ry="11" style="stroke:#181818;stroke-width:1.0;"/><path d="M1163.5859,1023.375 Q1163.7422,1023.1563 1163.9297,1023.0469 Q1164.1172,1022.9375 1164.3359,1022.9375 Q1164.7109,1022.9375 1164.9453,1023.2031 Q1165.1797,1023.4531 1165.1797,1024.0625 L1165.1797,1025.5156 Q1165.1797,1026.125 1164.9453,1026.3906 Q1164.7109,1026.6563 1164.3359,1026.6563 Q1163.9922,1026.6563 1163.7891,1026.4531 Q1163.5859,1026.2656 1163.4766,1025.75 Q1163.4297,1025.3906 1163.2422,1025.2031 Q1162.9141,1024.8281 1162.3047,1024.6094 Q1161.6953,1024.3906 1161.0703,1024.3906 Q1160.3047,1024.3906 1159.6641,1024.7188 Q1159.0391,1025.0469 1158.5391,1025.7969 Q1158.0547,1026.5469 1158.0547,1027.5781 L1158.0547,1028.6719 Q1158.0547,1029.9063 1158.9453,1030.7344 Q1159.8359,1031.5469 1161.4297,1031.5469 Q1162.3672,1031.5469 1163.0234,1031.2969 Q1163.4141,1031.1406 1163.8359,1030.7031 Q1164.1016,1030.4375 1164.2422,1030.3594 Q1164.3984,1030.2813 1164.6016,1030.2813 Q1164.9297,1030.2813 1165.1797,1030.5469 Q1165.4453,1030.7969 1165.4453,1031.1406 Q1165.4453,1031.4844 1165.1016,1031.8906 Q1164.6016,1032.4688 1163.8047,1032.7969 Q1162.7266,1033.25 1161.4297,1033.25 Q1159.9141,1033.25 1158.7109,1032.625 Q1157.7266,1032.125 1157.0391,1031.0625 Q1156.3516,1029.9844 1156.3516,1028.7031 L1156.3516,1027.5469 Q1156.3516,1026.2188 1156.9609,1025.0781 Q1157.5859,1023.9219 1158.6797,1023.3125 Q1159.7734,1022.6875 1161.0078,1022.6875 Q1161.7422,1022.6875 1162.3828,1022.8594 Q1163.0391,1023.0156 1163.5859,1023.375 Z " fill="#000000"/><text fill="#000000" font-family="sans-serif" font-size="14" lengthAdjust="spacing" textLength="122.1787" x="1181.3203" y="1033.2969">StationTypeMapper</text><line style="stroke:#181818;stroke-width:0.5;" x1="1035" x2="1417.3193" y1="1043.5" y2="1043.5"/><line style="stroke:#181818;stroke-width:0.5;" x1="1035" x2="1417.3193" y1="1051.5" y2="1051.5"/><text fill="#000000" font-family="sans-serif" font-size="14" lengthAdjust="spacing" textLength="268.0371" x="1040" y="1070.6074">+toDTO(st: StationType) : StationTypeDTO</text><text fill="#000000" font-family="sans-serif" font-size="14" lengthAdjust="spacing" textLength="372.3193" x="1040" y="1089.2285">+toDTOList(list: List&lt;StationType&gt;) : List&lt;StationTypeDTO&gt;</text></g><!--class BuildingType--><g id="elem_BuildingType"><rect fill="#F1F1F1" height="48" id="BuildingType" rx="2.5" ry="2.5" style="stroke:#181818;stroke-width:0.5;" width="112.9375" x="312.5" y="1396"/><ellipse cx="327.5" cy="1412" fill="#ADD1B2" rx="11" ry="11" style="stroke:#181818;stroke-width:1.0;"/><path d="M330.2656,1407.875 Q330.4219,1407.6563 330.6094,1407.5469 Q330.7969,1407.4375 331.0156,1407.4375 Q331.3906,1407.4375 331.625,1407.7031 Q331.8594,1407.9531 331.8594,1408.5625 L331.8594,1410.0156 Q331.8594,1410.625 331.625,1410.8906 Q331.3906,1411.1563 331.0156,1411.1563 Q330.6719,1411.1563 330.4688,1410.9531 Q330.2656,1410.7656 330.1563,1410.25 Q330.1094,1409.8906 329.9219,1409.7031 Q329.5938,1409.3281 328.9844,1409.1094 Q328.375,1408.8906 327.75,1408.8906 Q326.9844,1408.8906 326.3438,1409.2188 Q325.7188,1409.5469 325.2188,1410.2969 Q324.7344,1411.0469 324.7344,1412.0781 L324.7344,1413.1719 Q324.7344,1414.4063 325.625,1415.2344 Q326.5156,1416.0469 328.1094,1416.0469 Q329.0469,1416.0469 329.7031,1415.7969 Q330.0938,1415.6406 330.5156,1415.2031 Q330.7813,1414.9375 330.9219,1414.8594 Q331.0781,1414.7813 331.2813,1414.7813 Q331.6094,1414.7813 331.8594,1415.0469 Q332.125,1415.2969 332.125,1415.6406 Q332.125,1415.9844 331.7813,1416.3906 Q331.2813,1416.9688 330.4844,1417.2969 Q329.4063,1417.75 328.1094,1417.75 Q326.5938,1417.75 325.3906,1417.125 Q324.4063,1416.625 323.7188,1415.5625 Q323.0313,1414.4844 323.0313,1413.2031 L323.0313,1412.0469 Q323.0313,1410.7188 323.6406,1409.5781 Q324.2656,1408.4219 325.3594,1407.8125 Q326.4531,1407.1875 327.6875,1407.1875 Q328.4219,1407.1875 329.0625,1407.3594 Q329.7188,1407.5156 330.2656,1407.875 Z " fill="#000000"/><text fill="#000000" font-family="sans-serif" font-size="14" lengthAdjust="spacing" textLength="80.9375" x="341.5" y="1417.7969">BuildingType</text><line style="stroke:#181818;stroke-width:0.5;" x1="313.5" x2="424.4375" y1="1428" y2="1428"/><line style="stroke:#181818;stroke-width:0.5;" x1="313.5" x2="424.4375" y1="1436" y2="1436"/></g><!--reverse link StationType to Depot--><g id="link_StationType_Depot"><path d="M645,1316.82 C645,1345.97 645,1369.85 645,1395.69 " fill="none" id="StationType-backto-Depot" style="stroke:#181818;stroke-width:1.0;"/><polygon fill="none" points="645,1298.82,639,1316.82,651,1316.82,645,1298.82" style="stroke:#181818;stroke-width:1.0;"/></g><!--reverse link StationType to RegularStation--><g id="link_StationType_RegularStation"><path d="M685.0785,1312.4486 C710.2285,1341.5986 734.6,1369.85 756.89,1395.69 " fill="none" id="StationType-backto-RegularStation" style="stroke:#181818;stroke-width:1.0;"/><polygon fill="none" points="673.32,1298.82,680.5356,1316.3681,689.6213,1308.5291,673.32,1298.82" style="stroke:#181818;stroke-width:1.0;"/></g><!--reverse link StationType to Terminal--><g id="link_StationType_Terminal"><path d="M610.066,1313.2989 C588.536,1342.4489 568.3,1369.85 549.21,1395.69 " fill="none" id="StationType-backto-Terminal" style="stroke:#181818;stroke-width:1.0;"/><polygon fill="none" points="620.76,1298.82,605.2397,1309.7342,614.8923,1316.8636,620.76,1298.82" style="stroke:#181818;stroke-width:1.0;"/></g><!--link ApplicationSession to ApplicationSession--><g id="link_ApplicationSession_ApplicationSession"><path codeLine="124" d="M157.06,507.56 C176.94,508.72 192,515.54 192,528 C192,540.46 182.9298,546.9305 163.0498,548.0905 " fill="none" id="ApplicationSession-to-ApplicationSession" style="stroke:#181818;stroke-width:1.0;"/><polygon fill="#181818" points="157.06,548.44,166.2777,551.9089,162.0515,548.1487,165.8117,543.9225,157.06,548.44" style="stroke:#181818;stroke-width:1.0;"/><text fill="#000000" font-family="sans-serif" font-size="13" lengthAdjust="spacing" textLength="48.4199" x="198" y="533.5283">instance</text></g><!--link ApplicationSession to UserSession--><g id="link_ApplicationSession_UserSession"><path codeLine="125" d="M82,570.75 C82,627.95 82,723.51 82,775.45 " fill="none" id="ApplicationSession-to-UserSession" style="stroke:#181818;stroke-width:1.0;"/><polygon fill="#181818" points="82,781.45,86,772.45,82,776.45,78,772.45,82,781.45" style="stroke:#181818;stroke-width:1.0;"/><text fill="#000000" font-family="sans-serif" font-size="13" lengthAdjust="spacing" textLength="71.5381" x="83" y="677.0283">userSession</text><text fill="#000000" font-family="sans-serif" font-size="13" lengthAdjust="spacing" textLength="7.23" x="74.3468" y="770.2657">1</text></g><!--link BuildStationUI to BuildStationController--><g id="link_BuildStationUI_BuildStationController"><path codeLine="127" d="M839,55.38 C839,70.8 839,86.37 839,109.58 " fill="none" id="BuildStationUI-to-BuildStationController" style="stroke:#181818;stroke-width:1.0;stroke-dasharray:7.0,7.0;"/><polygon fill="#181818" points="839,115.58,843,106.58,839,110.58,835,106.58,839,115.58" style="stroke:#181818;stroke-width:1.0;"/></g><!--link BuildStationController to Repositories--><g id="link_BuildStationController_Repositories"><path codeLine="129" d="M994.56,310.1 C1150.31,367.77 1367,448 1367,448 C1367,448 1368.9237,449.3405 1379.2437,456.5605 " fill="none" id="BuildStationController-to-Repositories" style="stroke:#181818;stroke-width:1.0;stroke-dasharray:7.0,7.0;"/><polygon fill="#181818" points="1384.16,460,1379.0786,451.5632,1380.0631,457.1338,1374.4926,458.1183,1384.16,460" style="stroke:#181818;stroke-width:1.0;"/></g><!--link BuildStationController to MapRepository--><g id="link_BuildStationController_MapRepository"><path codeLine="130" d="M994.77,292.89 C1215.56,350.14 1593,448 1593,448 C1593,448 1613.9738,468.4616 1636.2938,490.2216 " fill="none" id="BuildStationController-to-MapRepository" style="stroke:#181818;stroke-width:1.0;stroke-dasharray:7.0,7.0;"/><polygon fill="#181818" points="1640.59,494.41,1636.938,485.2633,1637.0098,490.9197,1631.3534,490.9915,1640.59,494.41" style="stroke:#181818;stroke-width:1.0;"/></g><!--link BuildStationController to Map--><g id="link_BuildStationController_Map"><path codeLine="131" d="M994.87,353.4 C1068.71,401.2 1141,448 1141,448 C1141,448 1143.2529,449.5717 1153.9929,457.0817 " fill="none" id="BuildStationController-to-Map" style="stroke:#181818;stroke-width:1.0;stroke-dasharray:7.0,7.0;"/><polygon fill="#181818" points="1158.91,460.52,1153.8265,452.0845,1154.8124,457.6547,1149.2421,458.6406,1158.91,460.52" style="stroke:#181818;stroke-width:1.0;"/></g><!--link BuildStationController to Position--><g id="link_BuildStationController_Position"><path codeLine="132" d="M908.75,387.34 C944.66,456.76 981,527 981,527 C981,527 981,527 981,1055 C981,1055 954.2261,1145.2477 935.8761,1207.1177 " fill="none" id="BuildStationController-to-Position" style="stroke:#181818;stroke-width:1.0;stroke-dasharray:7.0,7.0;"/><polygon fill="#181818" points="934.17,1212.87,940.564,1205.3789,935.5917,1208.0764,932.8942,1203.1041,934.17,1212.87" style="stroke:#181818;stroke-width:1.0;"/></g><!--link BuildStationController to StationType--><g id="link_BuildStationController_StationType"><path codeLine="133" d="M683.35,349.85 C626.56,385.37 576,417 576,417 C576,417 528,448 528,448 C528,448 430,527 430,527 C430,527 430,527 430,1055 C430,1055 546.6377,1168.3779 607.1077,1227.1579 " fill="none" id="BuildStationController-to-StationType" style="stroke:#181818;stroke-width:1.0;stroke-dasharray:7.0,7.0;"/><polygon fill="#181818" points="611.41,1231.34,607.7446,1222.1986,607.8247,1227.8549,602.1684,1227.9351,611.41,1231.34" style="stroke:#181818;stroke-width:1.0;"/></g><!--link BuildStationController to Quadrant--><g id="link_BuildStationController_Quadrant"><path codeLine="134" d="M976.58,387.21 C994.62,404.88 1007,417 1007,417 C1007,417 1019.5339,436.1499 1036.3439,461.8299 " fill="none" id="BuildStationController-to-Quadrant" style="stroke:#181818;stroke-width:1.0;stroke-dasharray:7.0,7.0;"/><polygon fill="#181818" points="1039.63,466.85,1038.0475,457.1291,1036.8916,462.6666,1031.3541,461.5106,1039.63,466.85" style="stroke:#181818;stroke-width:1.0;"/></g><!--link BuildStationController to Station--><g id="link_BuildStationController_Station"><path codeLine="135" d="M848.77,387.22 C859.13,529.98 874,735 874,735 C874,735 874,895 874,895 C874,895 847.1755,929.4553 816.5455,968.8053 " fill="none" id="BuildStationController-to-Station" style="stroke:#181818;stroke-width:1.0;stroke-dasharray:7.0,7.0;"/><polygon fill="#181818" points="812.86,973.54,821.5447,968.895,815.9312,969.5944,815.2318,963.981,812.86,973.54" style="stroke:#181818;stroke-width:1.0;"/></g><!--link BuildStationController to Building--><g id="link_BuildStationController_Building"><path codeLine="136" d="M683.43,325.44 C564.93,380.99 422,448 422,448 C422,448 359,527 359,527 C359,527 359,527 359,1055 C359,1055 386.2083,1145.2553 404.8583,1207.1253 " fill="none" id="BuildStationController-to-Building" style="stroke:#181818;stroke-width:1.0;stroke-dasharray:7.0,7.0;"/><polygon fill="#181818" points="406.59,1212.87,407.8223,1203.0985,405.1469,1208.0828,400.1627,1205.4074,406.59,1212.87" style="stroke:#181818;stroke-width:1.0;"/></g><!--link BuildStationController to BuildingType--><g id="link_BuildStationController_BuildingType"><path codeLine="137" d="M683.25,314.89 C540.44,372.11 351,448 351,448 C351,448 288,527 288,527 C288,527 288,527 288,1266 C288,1266 331.2326,1347.6573 353.8926,1390.4573 " fill="none" id="BuildStationController-to-BuildingType" style="stroke:#181818;stroke-width:1.0;stroke-dasharray:7.0,7.0;"/><polygon fill="#181818" points="356.7,1395.76,356.024,1385.9344,354.3605,1391.3411,348.9537,1389.6776,356.7,1395.76" style="stroke:#181818;stroke-width:1.0;"/></g><!--link BuildStationController to Player--><g id="link_BuildStationController_Player"><path codeLine="138" d="M825.36,387.15 C815.17,487.77 803,608 803,608 C803,608 785.8538,671.0601 770.0638,729.1501 " fill="none" id="BuildStationController-to-Player" style="stroke:#181818;stroke-width:1.0;stroke-dasharray:7.0,7.0;"/><polygon fill="#181818" points="768.49,734.94,774.7107,727.3043,769.8015,730.1151,766.9908,725.2059,768.49,734.94" style="stroke:#181818;stroke-width:1.0;"/></g><!--link BuildStationController to PlayerRepository--><g id="link_BuildStationController_PlayerRepository"><path codeLine="139" d="M755.99,387.34 C731.44,427.2 709.8753,462.2205 693.2853,489.1705 " fill="none" id="BuildStationController-to-PlayerRepository" style="stroke:#181818;stroke-width:1.0;stroke-dasharray:7.0,7.0;"/><polygon fill="#181818" points="690.14,494.28,698.2643,488.7126,692.7611,490.0221,691.4517,484.5189,690.14,494.28" style="stroke:#181818;stroke-width:1.0;"/></g><!--link BuildStationController to ApplicationSession--><g id="link_BuildStationController_ApplicationSession"><path codeLine="140" d="M683.24,296.91 C512.35,345.63 262,417 262,417 C262,417 206.1396,451.1312 155.1696,482.2812 " fill="none" id="BuildStationController-to-ApplicationSession" style="stroke:#181818;stroke-width:1.0;stroke-dasharray:7.0,7.0;"/><polygon fill="#181818" points="150.05,485.41,159.8153,484.1298,154.3163,482.8026,155.6435,477.3037,150.05,485.41" style="stroke:#181818;stroke-width:1.0;"/></g><!--link BuildStationController to StationTypeRepository--><g id="link_BuildStationController_StationTypeRepository"><path codeLine="141" d="M683.06,353.11 C608.82,401.02 536,448 536,448 C536,448 536,608 536,608 C536,608 540.6052,617.2842 548.1052,632.4142 " fill="none" id="BuildStationController-to-StationTypeRepository" style="stroke:#181818;stroke-width:1.0;stroke-dasharray:7.0,7.0;"/><polygon fill="#181818" points="550.77,637.79,550.3567,627.9498,548.5493,633.3102,543.189,631.5029,550.77,637.79" style="stroke:#181818;stroke-width:1.0;"/></g><!--link PlayerRepository to Player--><g id="link_PlayerRepository_Player"><path codeLine="143" d="M678.83,561.69 C690.17,603.66 708.655,672.0577 724.085,729.1677 " fill="none" id="PlayerRepository-to-Player" style="stroke:#181818;stroke-width:1.0;"/><polygon fill="#181818" points="725.65,734.96,727.1641,725.2282,724.3459,730.1331,719.441,727.3148,725.65,734.96" style="stroke:#181818;stroke-width:1.0;"/><text fill="#000000" font-family="sans-serif" font-size="13" lengthAdjust="spacing" textLength="41.9072" x="717" y="677.0283">players</text><text fill="#000000" font-family="sans-serif" font-size="13" lengthAdjust="spacing" textLength="5.0591" x="718.4708" y="723.8521">*</text></g><!--link Player to Station--><g id="link_Player_Station"><path codeLine="144" d="M748.34,895.25 C748.76,920.55 749.1404,942.5308 749.5604,967.8308 " fill="none" id="Player-to-Station" style="stroke:#181818;stroke-width:1.0;"/><polygon fill="#181818" points="749.66,973.83,753.5101,964.7648,749.577,968.8307,745.5112,964.8976,749.66,973.83" style="stroke:#181818;stroke-width:1.0;"/><polygon fill="#000000" points="755.0841,939.6448,757.8705,930.5516,751.9935,930.6504,755.0841,939.6448" style="stroke:#000000;stroke-width:1.0;"/><text fill="#000000" font-family="sans-serif" font-size="13" lengthAdjust="spacing" textLength="30.3481" x="764" y="940.0283">owns</text><text fill="#000000" font-family="sans-serif" font-size="13" lengthAdjust="spacing" textLength="5.0591" x="744.2892" y="962.7101">*</text></g><!--link Station to Position--><g id="link_Station_Position"><path codeLine="146" d="M814.51,1134.01 C835.7,1160.37 854.9815,1184.3531 874.0115,1208.0331 " fill="none" id="Station-to-Position" style="stroke:#181818;stroke-width:1.0;"/><polygon fill="#181818" points="877.77,1212.71,875.2502,1203.1889,874.6379,1208.8126,869.0143,1208.2003,877.77,1212.71" style="stroke:#181818;stroke-width:1.0;"/><text fill="#000000" font-family="sans-serif" font-size="13" lengthAdjust="spacing" textLength="44.8081" x="852" y="1179.0283">position</text><text fill="#000000" font-family="sans-serif" font-size="13" lengthAdjust="spacing" textLength="7.23" x="864.7691" y="1201.5984">1</text></g><!--link Station to Building--><g id="link_Station_Building"><path codeLine="147" d="M626.62,1134.01 C585.13,1160.37 545.085,1185.8136 507.795,1209.4936 " fill="none" id="Station-to-Building" style="stroke:#181818;stroke-width:1.0;"/><polygon fill="#181818" points="502.73,1212.71,512.4718,1211.2621,506.9509,1210.0297,508.1833,1204.5087,502.73,1212.71" style="stroke:#181818;stroke-width:1.0;"/><text fill="#000000" font-family="sans-serif" font-size="13" lengthAdjust="spacing" textLength="51.3145" x="578" y="1179.0283">buildings</text><text fill="#000000" font-family="sans-serif" font-size="13" lengthAdjust="spacing" textLength="19.5127" x="493.3488" y="1201.5984">0..*</text></g><!--link Building to BuildingType--><g id="link_Building_BuildingType"><path codeLine="148" d="M404.2,1317.37 C395,1343.94 386.1837,1369.3804 379.0037,1390.1104 " fill="none" id="Building-to-BuildingType" style="stroke:#181818;stroke-width:1.0;"/><polygon fill="#181818" points="377.04,1395.78,383.7653,1388.5848,378.6764,1391.0554,376.2058,1385.9665,377.04,1395.78" style="stroke:#181818;stroke-width:1.0;"/><text fill="#000000" font-family="sans-serif" font-size="13" lengthAdjust="spacing" textLength="24.5718" x="395" y="1362.0283">type</text><text fill="#000000" font-family="sans-serif" font-size="13" lengthAdjust="spacing" textLength="7.23" x="371.1823" y="1384.8683">1</text></g><!--link Station to StationType--><g id="link_Station_StationType"><path codeLine="149" d="M716.33,1134.24 C704.87,1160.43 695,1183 695,1183 C695,1183 682.3317,1203.5244 668.4917,1225.9444 " fill="none" id="Station-to-StationType" style="stroke:#181818;stroke-width:1.0;"/><polygon fill="#181818" points="665.34,1231.05,673.4713,1225.4928,667.9664,1226.7954,666.6638,1221.2905,665.34,1231.05" style="stroke:#181818;stroke-width:1.0;"/><text fill="#000000" font-family="sans-serif" font-size="13" lengthAdjust="spacing" textLength="24.5718" x="705" y="1179.0283">type</text><text fill="#000000" font-family="sans-serif" font-size="13" lengthAdjust="spacing" textLength="7.23" x="661.4928" y="1220.3134">1</text></g><!--link Map to Scenario--><g id="link_Map_Scenario"><path codeLine="150" d="M1254,608.01 C1254,669.79 1254,745.57 1254,784.92 " fill="none" id="Map-to-Scenario" style="stroke:#181818;stroke-width:1.0;"/><polygon fill="#181818" points="1254,790.92,1258,781.92,1254,785.92,1250,781.92,1254,790.92" style="stroke:#181818;stroke-width:1.0;"/><text fill="#000000" font-family="sans-serif" font-size="13" lengthAdjust="spacing" textLength="49.1372" x="1255" y="677.0283">scenario</text><text fill="#000000" font-family="sans-serif" font-size="13" lengthAdjust="spacing" textLength="7.23" x="1246.0999" y="779.637">1</text></g><!--link StationTypeRepository to StationType--><g id="link_StationTypeRepository_StationType"><path codeLine="152" d="M568.41,705.21 C573.27,817.88 589,1183 589,1183 C589,1183 603.3079,1203.6946 618.8079,1226.1146 " fill="none" id="StationTypeRepository-to-StationType" style="stroke:#181818;stroke-width:1.0;"/><polygon fill="#181818" points="622.22,1231.05,620.3922,1221.3722,619.3766,1226.9372,613.8117,1225.9216,622.22,1231.05" style="stroke:#181818;stroke-width:1.0;"/><text fill="#000000" font-family="sans-serif" font-size="13" lengthAdjust="spacing" textLength="73.7026" x="580" y="940.0283">stationTypes</text><text fill="#000000" font-family="sans-serif" font-size="13" lengthAdjust="spacing" textLength="5.0591" x="612.5912" y="1220.3134">*</text></g><!--link StationTypeMapper to StationType--><g id="link_StationTypeMapper_StationType"><path codeLine="155" d="M1121.78,1096.56 C1028.05,1133.93 905,1183 905,1183 C905,1183 780.3985,1221.8155 704.2885,1245.5255 " fill="none" id="StationTypeMapper-to-StationType" style="stroke:#181818;stroke-width:1.0;"/><polygon fill="#181818" points="698.56,1247.31,708.3424,1248.4522,703.3337,1245.8229,705.963,1240.8142,698.56,1247.31" style="stroke:#181818;stroke-width:1.0;"/><text fill="#000000" font-family="sans-serif" font-size="13" lengthAdjust="spacing" textLength="28.1899" x="953" y="1179.0283">input</text></g><!--link StationTypeMapper to StationTypeDTO--><g id="link_StationTypeMapper_StationTypeDTO"><path codeLine="156" d="M1226,1096.54 C1226,1139.87 1226,1200.23 1226,1234.97 " fill="none" id="StationTypeMapper-to-StationTypeDTO" style="stroke:#181818;stroke-width:1.0;"/><polygon fill="#181818" points="1226,1240.97,1230,1231.97,1226,1235.97,1222,1231.97,1226,1240.97" style="stroke:#181818;stroke-width:1.0;"/><text fill="#000000" font-family="sans-serif" font-size="13" lengthAdjust="spacing" textLength="36.1436" x="1227" y="1179.0283">output</text></g><!--SRC=[ZLPDSzCm4BtxLsXwmONGWMk6oKnQE7G6IY5bE2lsacggI4QIQGt3VsTNicmfDaalYRJxzccrsW_R1w4QRlYUDRnwu3lOk4u2Cr0vhdOI2Zi0x3slzQDGE_Q3Ivjgf53WkWPOesL7cqHNIMxjsZaZjgs3wqghZVWDx4rHU0sxR8MiDuuxeTMtQ_Qd-1irwwQHelAA3LYBVwXbx1MpXAxO3jormhMge3pt2fHSjSQ0Shq1oWUwRnPCpeDm4jxmFQJ0rAChhPpHKe89DlEwS3pIhNzn8VbMmYVUs22ru71JxddZjvK1xk1MMq4KvTE2TK5-3zN3bTQc5We1jcnwIAJk3xt3C8_Cj2ifyX7rfUMruSgDa2WfV_OBhzWcz_042nOFNB28N30FmnUtWQtTxS16JtpOHgFKYylUB3exXBOtzR5y7MtPaiLuaDWdqf8bzoMfmjEyr20l2JuAwzx5WrQZfwGJgcuj8i6YYGTU1qct8W_ZlNFd5upEoEwSfmHb_fzPNtgNqsiFoOBxIPIGbs_H7LuvbWM6B4EYvMSCZho7HZi6JmvKVMWrWBx2hfNSn62VGD-1sMFEoLEuHFmL_8sqwSPAMalPFtUCUMAm6cdYKuTGFY5OA4VBRbY-EYWFj0NLxbbCPMzwym5_DlHpyvrMtySZiDu2Evky57iKjRiV3sKIr2uJs0eKDqAJMR-CLupxljjCIbRgqAtIX8zisVFqqQFy37wceh6NJRiRtcoC_IY-bRm3CwUPVRIq8ZF6y9hXdAnk3myOW45nsL4VfM2NRR-O6FStZVhyLM2FVJCNDMZwYB7DfR-4SIsNeSjNISgm6hR2bNolMsnnADzgBO6hyQKksneTda6Weo_O-xlF58k6YdnTro55ooHyvzCo89lv0Y6cE3AOqmWihSjwsddUuX0nOgbwIYd8Ob98SzM59hx0PWRcwzNS6AMeXTIQjK6ZixTdsS1S-eVhTqLnCBGlBbR_cPevD9ccP99c_J5SbgCdWCVKmvGvWad7pX5OR4NFe3e6YHFYEPXJBeKoEuruNYYdUV7Cg2NqnQHj-DHwUHPRmf8rVc5xvA2Fesl9zAEoR5KKKHAJytRyU8ZJDSUykRX0ec5mBvClX44OoT8G8vA6zEJ0T2hs49epWteS6t6234uVZCo3I_QCDlc-Ymt9WFH2Mqnx2x7a3FZ5tRhJI2B6kBQEqFy0]--></g></svg>