<?xml version="1.0" encoding="us-ascii" standalone="no"?><svg xmlns="http://www.w3.org/2000/svg" xmlns:xlink="http://www.w3.org/1999/xlink" contentStyleType="text/css" height="591px" preserveAspectRatio="none" style="width:633px;height:591px;background:#FFFFFF;" version="1.1" viewBox="0 0 633 591" width="633px" zoomAndPan="magnify"><defs/><g><text fill="#000000" font-family="sans-serif" font-size="14" font-weight="bold" lengthAdjust="spacing" textLength="276" x="180.75" y="30.1074">System Sequence Diagram (SSD) - US23</text><rect fill="#FFFFFF" height="365.9102" style="stroke:#181818;stroke-width:1.0;" width="10" x="97.5" y="133.2422"/><rect fill="#FFFFFF" height="31.291" style="stroke:#181818;stroke-width:1.0;" width="10" x="329.5" y="156.5332"/><rect fill="#FFFFFF" height="75.582" style="stroke:#181818;stroke-width:1.0;" width="10" x="329.5" y="219.1152"/><rect fill="#FFFFFF" height="164.1641" style="stroke:#181818;stroke-width:1.0;" width="10" x="329.5" y="325.9883"/><line style="stroke:#181818;stroke-width:0.5;stroke-dasharray:5.0,5.0;" x1="102" x2="102" y1="123.2422" y2="508.1523"/><line style="stroke:#181818;stroke-width:0.5;stroke-dasharray:5.0,5.0;" x1="334.5" x2="334.5" y1="123.2422" y2="508.1523"/><text fill="#000000" font-family="sans-serif" font-size="14" lengthAdjust="spacing" textLength="189" x="5" y="119.7285">Green Space Manager (GSM)</text><ellipse cx="102.5" cy="53.1211" fill="#E3E3E3" rx="8" ry="8" style="stroke:#181818;stroke-width:0.5;"/><path d="M102.5,61.1211 L102.5,88.1211 M89.5,69.1211 L115.5,69.1211 M102.5,88.1211 L89.5,103.1211 M102.5,88.1211 L115.5,103.1211 " fill="none" style="stroke:#181818;stroke-width:0.5;"/><text fill="#000000" font-family="sans-serif" font-size="14" lengthAdjust="spacing" textLength="189" x="5" y="522.2598">Green Space Manager (GSM)</text><ellipse cx="102.5" cy="534.2734" fill="#E3E3E3" rx="8" ry="8" style="stroke:#181818;stroke-width:0.5;"/><path d="M102.5,542.2734 L102.5,569.2734 M89.5,550.2734 L115.5,550.2734 M102.5,569.2734 L89.5,584.2734 M102.5,569.2734 L115.5,584.2734 " fill="none" style="stroke:#181818;stroke-width:0.5;"/><rect fill="#E3E3E3" height="32.6211" rx="2.5" ry="2.5" style="stroke:#181818;stroke-width:0.5;" width="64" x="302.5" y="89.6211"/><text fill="#000000" font-family="sans-serif" font-size="14" lengthAdjust="spacing" textLength="50" x="309.5" y="111.7285">:System</text><rect fill="#E3E3E3" height="32.6211" rx="2.5" ry="2.5" style="stroke:#181818;stroke-width:0.5;" width="64" x="302.5" y="507.1523"/><text fill="#000000" font-family="sans-serif" font-size="14" lengthAdjust="spacing" textLength="50" x="309.5" y="529.2598">:System</text><rect fill="#FFFFFF" height="365.9102" style="stroke:#181818;stroke-width:1.0;" width="10" x="97.5" y="133.2422"/><rect fill="#FFFFFF" height="31.291" style="stroke:#181818;stroke-width:1.0;" width="10" x="329.5" y="156.5332"/><rect fill="#FFFFFF" height="75.582" style="stroke:#181818;stroke-width:1.0;" width="10" x="329.5" y="219.1152"/><rect fill="#FFFFFF" height="164.1641" style="stroke:#181818;stroke-width:1.0;" width="10" x="329.5" y="325.9883"/><polygon fill="#181818" points="317.5,152.5332,327.5,156.5332,317.5,160.5332,321.5,156.5332" style="stroke:#181818;stroke-width:1.0;"/><line style="stroke:#181818;stroke-width:1.0;" x1="107.5" x2="323.5" y1="156.5332" y2="156.5332"/><text fill="#000000" font-family="sans-serif" font-size="13" font-weight="bold" lengthAdjust="spacing" textLength="7" x="114.5" y="151.2705">1</text><text fill="#000000" font-family="sans-serif" font-size="13" lengthAdjust="spacing" textLength="139" x="125.5" y="151.2705">selects an agenda entry</text><polygon fill="#181818" points="118.5,183.8242,108.5,187.8242,118.5,191.8242,114.5,187.8242" style="stroke:#181818;stroke-width:1.0;"/><line style="stroke:#181818;stroke-width:1.0;stroke-dasharray:2.0,2.0;" x1="112.5" x2="333.5" y1="187.8242" y2="187.8242"/><text fill="#000000" font-family="sans-serif" font-size="13" font-weight="bold" lengthAdjust="spacing" textLength="7" x="124.5" y="182.5615">2</text><text fill="#000000" font-family="sans-serif" font-size="13" lengthAdjust="spacing" textLength="187" x="135.5" y="182.5615">displays a list of available teams</text><polygon fill="#181818" points="317.5,215.1152,327.5,219.1152,317.5,223.1152,321.5,219.1152" style="stroke:#181818;stroke-width:1.0;"/><line style="stroke:#181818;stroke-width:1.0;" x1="107.5" x2="323.5" y1="219.1152" y2="219.1152"/><text fill="#000000" font-family="sans-serif" font-size="13" font-weight="bold" lengthAdjust="spacing" textLength="7" x="114.5" y="213.8525">3</text><text fill="#000000" font-family="sans-serif" font-size="13" lengthAdjust="spacing" textLength="86" x="125.5" y="213.8525">selects a team</text><line style="stroke:#181818;stroke-width:1.0;" x1="339.5" x2="381.5" y1="250.4063" y2="250.4063"/><line style="stroke:#181818;stroke-width:1.0;" x1="381.5" x2="381.5" y1="250.4063" y2="263.4063"/><line style="stroke:#181818;stroke-width:1.0;" x1="340.5" x2="381.5" y1="263.4063" y2="263.4063"/><polygon fill="#181818" points="350.5,259.4063,340.5,263.4063,350.5,267.4063,346.5,263.4063" style="stroke:#181818;stroke-width:1.0;"/><text fill="#000000" font-family="sans-serif" font-size="13" font-weight="bold" lengthAdjust="spacing" textLength="7" x="346.5" y="245.1436">4</text><text fill="#000000" font-family="sans-serif" font-size="13" lengthAdjust="spacing" textLength="227" x="357.5" y="245.1436">checks if the selected team is available</text><polygon fill="#181818" points="118.5,290.6973,108.5,294.6973,118.5,298.6973,114.5,294.6973" style="stroke:#181818;stroke-width:1.0;"/><line style="stroke:#181818;stroke-width:1.0;stroke-dasharray:2.0,2.0;" x1="112.5" x2="333.5" y1="294.6973" y2="294.6973"/><text fill="#000000" font-family="sans-serif" font-size="13" font-weight="bold" lengthAdjust="spacing" textLength="7" x="124.5" y="289.4346">5</text><text fill="#000000" font-family="sans-serif" font-size="13" lengthAdjust="spacing" textLength="145" x="135.5" y="289.4346">confirms team availability</text><polygon fill="#181818" points="317.5,321.9883,327.5,325.9883,317.5,329.9883,321.5,325.9883" style="stroke:#181818;stroke-width:1.0;"/><line style="stroke:#181818;stroke-width:1.0;" x1="107.5" x2="323.5" y1="325.9883" y2="325.9883"/><text fill="#000000" font-family="sans-serif" font-size="13" font-weight="bold" lengthAdjust="spacing" textLength="7" x="114.5" y="320.7256">6</text><text fill="#000000" font-family="sans-serif" font-size="13" lengthAdjust="spacing" textLength="153" x="125.5" y="320.7256">confirms team assignment</text><line style="stroke:#181818;stroke-width:1.0;" x1="339.5" x2="381.5" y1="357.2793" y2="357.2793"/><line style="stroke:#181818;stroke-width:1.0;" x1="381.5" x2="381.5" y1="357.2793" y2="370.2793"/><line style="stroke:#181818;stroke-width:1.0;" x1="340.5" x2="381.5" y1="370.2793" y2="370.2793"/><polygon fill="#181818" points="350.5,366.2793,340.5,370.2793,350.5,374.2793,346.5,370.2793" style="stroke:#181818;stroke-width:1.0;"/><text fill="#000000" font-family="sans-serif" font-size="13" font-weight="bold" lengthAdjust="spacing" textLength="7" x="346.5" y="352.0166">7</text><text fill="#000000" font-family="sans-serif" font-size="13" lengthAdjust="spacing" textLength="269" x="357.5" y="352.0166">assigns the selected team to the agenda entry</text><line style="stroke:#181818;stroke-width:1.0;" x1="339.5" x2="381.5" y1="401.5703" y2="401.5703"/><line style="stroke:#181818;stroke-width:1.0;" x1="381.5" x2="381.5" y1="401.5703" y2="414.5703"/><line style="stroke:#181818;stroke-width:1.0;" x1="340.5" x2="381.5" y1="414.5703" y2="414.5703"/><polygon fill="#181818" points="350.5,410.5703,340.5,414.5703,350.5,418.5703,346.5,414.5703" style="stroke:#181818;stroke-width:1.0;"/><text fill="#000000" font-family="sans-serif" font-size="13" font-weight="bold" lengthAdjust="spacing" textLength="7" x="346.5" y="396.3076">8</text><text fill="#000000" font-family="sans-serif" font-size="13" lengthAdjust="spacing" textLength="225" x="357.5" y="396.3076">creates a new thread to send the email</text><line style="stroke:#181818;stroke-width:1.0;" x1="339.5" x2="381.5" y1="445.8613" y2="445.8613"/><line style="stroke:#181818;stroke-width:1.0;" x1="381.5" x2="381.5" y1="445.8613" y2="458.8613"/><line style="stroke:#181818;stroke-width:1.0;" x1="340.5" x2="381.5" y1="458.8613" y2="458.8613"/><polygon fill="#181818" points="350.5,454.8613,340.5,458.8613,350.5,462.8613,346.5,458.8613" style="stroke:#181818;stroke-width:1.0;"/><text fill="#000000" font-family="sans-serif" font-size="13" font-weight="bold" lengthAdjust="spacing" textLength="7" x="346.5" y="440.5986">9</text><text fill="#000000" font-family="sans-serif" font-size="13" lengthAdjust="spacing" textLength="193" x="357.5" y="440.5986">sends email to all team members</text><polygon fill="#181818" points="118.5,486.1523,108.5,490.1523,118.5,494.1523,114.5,490.1523" style="stroke:#181818;stroke-width:1.0;"/><line style="stroke:#181818;stroke-width:1.0;stroke-dasharray:2.0,2.0;" x1="112.5" x2="333.5" y1="490.1523" y2="490.1523"/><text fill="#000000" font-family="sans-serif" font-size="13" font-weight="bold" lengthAdjust="spacing" textLength="14" x="124.5" y="484.8896">10</text><text fill="#000000" font-family="sans-serif" font-size="13" lengthAdjust="spacing" textLength="158" x="142.5" y="484.8896">displays success message</text><!--SRC=[bLAzRi8m4Dxp52Sc65ZQZQ4J4bEdg0zmE9V4mZ_KTm7bxNjsWA8s297fOd-_b_31XYCczE1ZYAPFqHD86gZYsyqHpG4xgcLq18cCOEZSFO1xREBPXWvQT4nL9LOKMeyivA6cxu628TXQx39yMTVR5QpXgtvxhoeS98R1xodfR2GcMEmIKO1QVGa-CQXtWkMk_bmj01bqgDHNhB5730ABpMHKBgUnADaJ2XLq1Vhe0EkFQwWDC3cjme01r20q21GaZGLxOr_byk65kLQHhBM1nlBHuQWIu2mBn1RmXDRXNiiBeUV2QsXMxc6UGdqUuuvgUZ871jk2z7GHegReWENVKFCrJ0ojJPud_0LidPNnbVX_L9Xj5xnkzAKY4urdQaWiX_- -rDms4gbLNcIWixBqjSbyLceH8QyL7x4pYYT89g5pKm1F-HVb9ty23yOGiwAPDUk31Vu0]--></g></svg>