<svg xmlns="http://www.w3.org/2000/svg" xmlns:xlink="http://www.w3.org/1999/xlink" contentStyleType="text/css" height="790px" preserveAspectRatio="none" style="width:1487px;height:790px;background:#FFFFFF;" version="1.1" viewBox="0 0 1487 790" width="1487px" zoomAndPan="magnify"><defs/><g><rect fill="#FFFFFF" height="31.291" style="stroke:#181818;stroke-width:1.0;" width="10" x="256.4189" y="116.9121"/><rect fill="#FFFFFF" height="31.291" style="stroke:#181818;stroke-width:1.0;" width="10" x="474.9697" y="148.2031"/><rect fill="#FFFFFF" height="478.4043" style="stroke:#181818;stroke-width:1.0;" width="10" x="474.9697" y="210.7852"/><rect fill="#FFFFFF" height="405.8223" style="stroke:#181818;stroke-width:1.0;" width="10" x="704.4102" y="252.0762"/><rect fill="#FFFFFF" height="340.9102" style="stroke:#181818;stroke-width:1.0;" width="10" x="977.3262" y="285.6973"/><rect fill="#FFFFFF" height="75.582" style="stroke:#181818;stroke-width:1.0;" width="10" x="1196.7505" y="394.5703"/><rect fill="#FFFFFF" height="31.291" style="stroke:#181818;stroke-width:1.0;" width="10" x="1196.7505" y="564.0254"/><rect fill="#FFFFFF" height="31.291" style="stroke:#181818;stroke-width:1.0;" width="10" x="1411.7739" y="501.4434"/><rect fill="none" height="63.582" style="stroke:#000000;stroke-width:1.5;" width="265.4253" x="892.1816" y="300.6973"/><line style="stroke:#181818;stroke-width:0.5;stroke-dasharray:5.0,5.0;" x1="42" x2="42" y1="83.6211" y2="707.1895"/><line style="stroke:#181818;stroke-width:0.5;stroke-dasharray:5.0,5.0;" x1="260.916" x2="260.916" y1="83.6211" y2="707.1895"/><line style="stroke:#181818;stroke-width:0.5;stroke-dasharray:5.0,5.0;" x1="479.9219" x2="479.9219" y1="83.6211" y2="707.1895"/><line style="stroke:#181818;stroke-width:0.5;stroke-dasharray:5.0,5.0;" x1="709.0176" x2="709.0176" y1="250.5957" y2="707.1895"/><line style="stroke:#181818;stroke-width:0.5;stroke-dasharray:5.0,5.0;" x1="982.1816" x2="982.1816" y1="83.6211" y2="707.1895"/><line style="stroke:#181818;stroke-width:0.5;stroke-dasharray:5.0,5.0;" x1="1201.4165" x2="1201.4165" y1="83.6211" y2="707.1895"/><line style="stroke:#181818;stroke-width:0.5;stroke-dasharray:5.0,5.0;" x1="1416.1846" x2="1416.1846" y1="83.6211" y2="707.1895"/><text fill="#000000" font-family="sans-serif" font-size="14" lengthAdjust="spacing" textLength="69.2549" x="5" y="80.1074">DroneTech</text><ellipse cx="42.6274" cy="13.5" fill="#E2E2F0" rx="8" ry="8" style="stroke:#181818;stroke-width:0.5;"/><path d="M42.6274,21.5 L42.6274,48.5 M29.6274,29.5 L55.6274,29.5 M42.6274,48.5 L29.6274,63.5 M42.6274,48.5 L55.6274,63.5 " fill="none" style="stroke:#181818;stroke-width:0.5;"/><text fill="#000000" font-family="sans-serif" font-size="14" lengthAdjust="spacing" textLength="69.2549" x="5" y="721.2969">DroneTech</text><ellipse cx="42.6274" cy="733.3105" fill="#E2E2F0" rx="8" ry="8" style="stroke:#181818;stroke-width:0.5;"/><path d="M42.6274,741.3105 L42.6274,768.3105 M29.6274,749.3105 L55.6274,749.3105 M42.6274,768.3105 L29.6274,783.3105 M42.6274,768.3105 L55.6274,783.3105 " fill="none" style="stroke:#181818;stroke-width:0.5;"/><rect fill="#E2E2F0" height="32.6211" rx="2.5" ry="2.5" style="stroke:#181818;stroke-width:0.5;" width="221.0059" x="150.916" y="50"/><text fill="#000000" font-family="sans-serif" font-size="14" lengthAdjust="spacing" textLength="207.0059" x="157.916" y="72.1074">:MaintenanceTypeCreationAction</text><rect fill="#E2E2F0" height="32.6211" rx="2.5" ry="2.5" style="stroke:#181818;stroke-width:0.5;" width="221.0059" x="150.916" y="706.1895"/><text fill="#000000" font-family="sans-serif" font-size="14" lengthAdjust="spacing" textLength="207.0059" x="157.916" y="728.2969">:MaintenanceTypeCreationAction</text><rect fill="#E2E2F0" height="32.6211" rx="2.5" ry="2.5" style="stroke:#181818;stroke-width:0.5;" width="196.0957" x="381.9219" y="50"/><text fill="#000000" font-family="sans-serif" font-size="14" lengthAdjust="spacing" textLength="182.0957" x="388.9219" y="72.1074">:MaintenanceTypeCreationUI</text><rect fill="#E2E2F0" height="32.6211" rx="2.5" ry="2.5" style="stroke:#181818;stroke-width:0.5;" width="196.0957" x="381.9219" y="706.1895"/><text fill="#000000" font-family="sans-serif" font-size="14" lengthAdjust="spacing" textLength="182.0957" x="388.9219" y="728.2969">:MaintenanceTypeCreationUI</text><rect fill="#E2E2F0" height="32.6211" rx="2.5" ry="2.5" style="stroke:#181818;stroke-width:0.5;" width="242.7852" x="588.0176" y="706.1895"/><text fill="#000000" font-family="sans-serif" font-size="14" lengthAdjust="spacing" textLength="228.7852" x="595.0176" y="728.2969">:MaintenanceTypeCreationController</text><rect fill="#E2E2F0" height="32.6211" rx="2.5" ry="2.5" style="stroke:#181818;stroke-width:0.5;" width="160.2891" x="902.1816" y="50"/><text fill="#000000" font-family="sans-serif" font-size="14" lengthAdjust="spacing" textLength="146.2891" x="909.1816" y="72.1074">:DroneInventoryService</text><rect fill="#E2E2F0" height="32.6211" rx="2.5" ry="2.5" style="stroke:#181818;stroke-width:0.5;" width="160.2891" x="902.1816" y="706.1895"/><text fill="#000000" font-family="sans-serif" font-size="14" lengthAdjust="spacing" textLength="146.2891" x="909.1816" y="728.2969">:DroneInventoryService</text><rect fill="#E2E2F0" height="32.6211" rx="2.5" ry="2.5" style="stroke:#181818;stroke-width:0.5;" width="218.668" x="1092.4165" y="50"/><text fill="#000000" font-family="sans-serif" font-size="14" lengthAdjust="spacing" textLength="204.668" x="1099.4165" y="72.1074">:JpaMaintenanceTypeRepository</text><rect fill="#E2E2F0" height="32.6211" rx="2.5" ry="2.5" style="stroke:#181818;stroke-width:0.5;" width="218.668" x="1092.4165" y="706.1895"/><text fill="#000000" font-family="sans-serif" font-size="14" lengthAdjust="spacing" textLength="204.668" x="1099.4165" y="728.2969">:JpaMaintenanceTypeRepository</text><rect fill="#E2E2F0" height="32.6211" rx="2.5" ry="2.5" style="stroke:#181818;stroke-width:0.5;" width="129.1787" x="1352.1846" y="50"/><text fill="#000000" font-family="sans-serif" font-size="14" lengthAdjust="spacing" textLength="115.1787" x="1359.1846" y="72.1074">:MaintenanceType</text><rect fill="#E2E2F0" height="32.6211" rx="2.5" ry="2.5" style="stroke:#181818;stroke-width:0.5;" width="129.1787" x="1352.1846" y="706.1895"/><text fill="#000000" font-family="sans-serif" font-size="14" lengthAdjust="spacing" textLength="115.1787" x="1359.1846" y="728.2969">:MaintenanceType</text><rect fill="#FFFFFF" height="31.291" style="stroke:#181818;stroke-width:1.0;" width="10" x="256.4189" y="116.9121"/><rect fill="#FFFFFF" height="31.291" style="stroke:#181818;stroke-width:1.0;" width="10" x="474.9697" y="148.2031"/><rect fill="#FFFFFF" height="478.4043" style="stroke:#181818;stroke-width:1.0;" width="10" x="474.9697" y="210.7852"/><rect fill="#FFFFFF" height="405.8223" style="stroke:#181818;stroke-width:1.0;" width="10" x="704.4102" y="252.0762"/><rect fill="#FFFFFF" height="340.9102" style="stroke:#181818;stroke-width:1.0;" width="10" x="977.3262" y="285.6973"/><rect fill="#FFFFFF" height="75.582" style="stroke:#181818;stroke-width:1.0;" width="10" x="1196.7505" y="394.5703"/><rect fill="#FFFFFF" height="31.291" style="stroke:#181818;stroke-width:1.0;" width="10" x="1196.7505" y="564.0254"/><rect fill="#FFFFFF" height="31.291" style="stroke:#181818;stroke-width:1.0;" width="10" x="1411.7739" y="501.4434"/><polygon fill="#181818" points="244.4189,112.9121,254.4189,116.9121,244.4189,120.9121,248.4189,116.9121" style="stroke:#181818;stroke-width:1.0;"/><line style="stroke:#181818;stroke-width:1.0;" x1="42.6274" x2="250.4189" y1="116.9121" y2="116.9121"/><text fill="#000000" font-family="sans-serif" font-size="13" font-weight="bold" lengthAdjust="spacing" textLength="7.23" x="49.6274" y="111.6494">1</text><text fill="#000000" font-family="sans-serif" font-size="13" lengthAdjust="spacing" textLength="183.5615" x="60.8574" y="111.6494">asks to add a maintenance type</text><polygon fill="#181818" points="462.9697,144.2031,472.9697,148.2031,462.9697,152.2031,466.9697,148.2031" style="stroke:#181818;stroke-width:1.0;"/><line style="stroke:#181818;stroke-width:1.0;" x1="261.4189" x2="468.9697" y1="148.2031" y2="148.2031"/><text fill="#000000" font-family="sans-serif" font-size="13" font-weight="bold" lengthAdjust="spacing" textLength="7.23" x="268.4189" y="142.9404">2</text><text fill="#000000" font-family="sans-serif" font-size="13" lengthAdjust="spacing" textLength="39.0063" x="279.6489" y="142.9404">show()</text><polygon fill="#181818" points="53.6274,175.4941,43.6274,179.4941,53.6274,183.4941,49.6274,179.4941" style="stroke:#181818;stroke-width:1.0;"/><line style="stroke:#181818;stroke-width:1.0;" x1="47.6274" x2="478.9697" y1="179.4941" y2="179.4941"/><text fill="#000000" font-family="sans-serif" font-size="13" font-weight="bold" lengthAdjust="spacing" textLength="7.23" x="59.6274" y="174.2314">3</text><text fill="#000000" font-family="sans-serif" font-size="13" lengthAdjust="spacing" textLength="190.0425" x="70.8574" y="174.2314">requests data (name,description)</text><polygon fill="#181818" points="462.9697,206.7852,472.9697,210.7852,462.9697,214.7852,466.9697,210.7852" style="stroke:#181818;stroke-width:1.0;"/><line style="stroke:#181818;stroke-width:1.0;" x1="42.6274" x2="468.9697" y1="210.7852" y2="210.7852"/><text fill="#000000" font-family="sans-serif" font-size="13" font-weight="bold" lengthAdjust="spacing" textLength="7.23" x="49.6274" y="205.5225">4</text><text fill="#000000" font-family="sans-serif" font-size="13" lengthAdjust="spacing" textLength="78.0508" x="60.8574" y="205.5225">provides data</text><polygon fill="#181818" points="576.0176,238.0762,586.0176,242.0762,576.0176,246.0762,580.0176,242.0762" style="stroke:#181818;stroke-width:1.0;"/><line style="stroke:#181818;stroke-width:1.0;stroke-dasharray:2.0,2.0;" x1="484.9697" x2="582.0176" y1="242.0762" y2="242.0762"/><text fill="#000000" font-family="sans-serif" font-size="13" font-weight="bold" lengthAdjust="spacing" textLength="7.23" x="491.9697" y="236.8135">5</text><text fill="#000000" font-family="sans-serif" font-size="13" lengthAdjust="spacing" textLength="44.7891" x="503.1997" y="236.8135">create()</text><rect fill="#E2E2F0" height="32.6211" rx="2.5" ry="2.5" style="stroke:#181818;stroke-width:0.5;" width="242.7852" x="588.0176" y="218.7852"/><text fill="#000000" font-family="sans-serif" font-size="14" lengthAdjust="spacing" textLength="228.7852" x="595.0176" y="240.8926">:MaintenanceTypeCreationController</text><polygon fill="#181818" points="965.3262,281.6973,975.3262,285.6973,965.3262,289.6973,969.3262,285.6973" style="stroke:#181818;stroke-width:1.0;"/><line style="stroke:#181818;stroke-width:1.0;" x1="714.4102" x2="971.3262" y1="285.6973" y2="285.6973"/><text fill="#000000" font-family="sans-serif" font-size="13" font-weight="bold" lengthAdjust="spacing" textLength="7.23" x="721.4102" y="280.4346">6</text><text fill="#000000" font-family="sans-serif" font-size="13" lengthAdjust="spacing" textLength="232.686" x="732.6401" y="280.4346">addMaintenanceType(name,description)</text><path d="M892.1816,300.6973 L964.6162,300.6973 L964.6162,309.9883 L954.6162,319.9883 L892.1816,319.9883 L892.1816,300.6973 " fill="#EEEEEE" style="stroke:#000000;stroke-width:1.5;"/><rect fill="none" height="63.582" style="stroke:#000000;stroke-width:1.5;" width="265.4253" x="892.1816" y="300.6973"/><text fill="#000000" font-family="sans-serif" font-size="13" font-weight="bold" lengthAdjust="spacing" textLength="27.4346" x="907.1816" y="315.7256">loop</text><line style="stroke:#181818;stroke-width:1.0;" x1="987.3262" x2="1029.3262" y1="343.2793" y2="343.2793"/><line style="stroke:#181818;stroke-width:1.0;" x1="1029.3262" x2="1029.3262" y1="343.2793" y2="356.2793"/><line style="stroke:#181818;stroke-width:1.0;" x1="988.3262" x2="1029.3262" y1="356.2793" y2="356.2793"/><polygon fill="#181818" points="998.3262,352.2793,988.3262,356.2793,998.3262,360.2793,994.3262,356.2793" style="stroke:#181818;stroke-width:1.0;"/><text fill="#000000" font-family="sans-serif" font-size="13" font-weight="bold" lengthAdjust="spacing" textLength="7.23" x="994.3262" y="338.0166">7</text><text fill="#000000" font-family="sans-serif" font-size="13" lengthAdjust="spacing" textLength="130.0508" x="1005.5562" y="338.0166">checks if name is valid</text><polygon fill="#181818" points="1184.7505,390.5703,1194.7505,394.5703,1184.7505,398.5703,1188.7505,394.5703" style="stroke:#181818;stroke-width:1.0;"/><line style="stroke:#181818;stroke-width:1.0;" x1="987.3262" x2="1190.7505" y1="394.5703" y2="394.5703"/><text fill="#000000" font-family="sans-serif" font-size="13" font-weight="bold" lengthAdjust="spacing" textLength="7.23" x="994.3262" y="389.3076">8</text><text fill="#000000" font-family="sans-serif" font-size="13" lengthAdjust="spacing" textLength="179.1943" x="1005.5562" y="389.3076">findByNameIgnoreCase(name)</text><line style="stroke:#181818;stroke-width:1.0;" x1="1206.7505" x2="1248.7505" y1="425.8613" y2="425.8613"/><line style="stroke:#181818;stroke-width:1.0;" x1="1248.7505" x2="1248.7505" y1="425.8613" y2="438.8613"/><line style="stroke:#181818;stroke-width:1.0;" x1="1207.7505" x2="1248.7505" y1="438.8613" y2="438.8613"/><polygon fill="#181818" points="1217.7505,434.8613,1207.7505,438.8613,1217.7505,442.8613,1213.7505,438.8613" style="stroke:#181818;stroke-width:1.0;"/><text fill="#000000" font-family="sans-serif" font-size="13" font-weight="bold" lengthAdjust="spacing" textLength="7.23" x="1213.7505" y="420.5986">9</text><text fill="#000000" font-family="sans-serif" font-size="13" lengthAdjust="spacing" textLength="169.7935" x="1224.9805" y="420.5986">checks if name already exists</text><polygon fill="#181818" points="998.3262,466.1523,988.3262,470.1523,998.3262,474.1523,994.3262,470.1523" style="stroke:#181818;stroke-width:1.0;"/><line style="stroke:#181818;stroke-width:1.0;" x1="992.3262" x2="1200.7505" y1="470.1523" y2="470.1523"/><text fill="#000000" font-family="sans-serif" font-size="13" font-weight="bold" lengthAdjust="spacing" textLength="14.46" x="1004.3262" y="464.8896">10</text><text fill="#000000" font-family="sans-serif" font-size="13" lengthAdjust="spacing" textLength="32.519" x="1022.7861" y="464.8896">name</text><polygon fill="#181818" points="1399.7739,497.4434,1409.7739,501.4434,1399.7739,505.4434,1403.7739,501.4434" style="stroke:#181818;stroke-width:1.0;"/><line style="stroke:#181818;stroke-width:1.0;" x1="987.3262" x2="1405.7739" y1="501.4434" y2="501.4434"/><text fill="#000000" font-family="sans-serif" font-size="13" font-weight="bold" lengthAdjust="spacing" textLength="14.46" x="994.3262" y="496.1807">11</text><text fill="#000000" font-family="sans-serif" font-size="13" lengthAdjust="spacing" textLength="210.9961" x="1012.7861" y="496.1807">MaintenanceType(name,description)</text><polygon fill="#181818" points="998.3262,528.7344,988.3262,532.7344,998.3262,536.7344,994.3262,532.7344" style="stroke:#181818;stroke-width:1.0;"/><line style="stroke:#181818;stroke-width:1.0;" x1="992.3262" x2="1415.7739" y1="532.7344" y2="532.7344"/><text fill="#000000" font-family="sans-serif" font-size="13" font-weight="bold" lengthAdjust="spacing" textLength="14.46" x="1004.3262" y="527.4717">12</text><text fill="#000000" font-family="sans-serif" font-size="13" lengthAdjust="spacing" textLength="120.6689" x="1022.7861" y="527.4717">validates parameters</text><polygon fill="#181818" points="1184.7505,560.0254,1194.7505,564.0254,1184.7505,568.0254,1188.7505,564.0254" style="stroke:#181818;stroke-width:1.0;"/><line style="stroke:#181818;stroke-width:1.0;" x1="987.3262" x2="1190.7505" y1="564.0254" y2="564.0254"/><text fill="#000000" font-family="sans-serif" font-size="13" font-weight="bold" lengthAdjust="spacing" textLength="14.46" x="994.3262" y="558.7627">13</text><text fill="#000000" font-family="sans-serif" font-size="13" lengthAdjust="spacing" textLength="88.8672" x="1012.7861" y="558.7627">save(newType)</text><polygon fill="#181818" points="998.3262,591.3164,988.3262,595.3164,998.3262,599.3164,994.3262,595.3164" style="stroke:#181818;stroke-width:1.0;"/><line style="stroke:#181818;stroke-width:1.0;" x1="992.3262" x2="1200.7505" y1="595.3164" y2="595.3164"/><text fill="#000000" font-family="sans-serif" font-size="13" font-weight="bold" lengthAdjust="spacing" textLength="14.46" x="1004.3262" y="590.0537">14</text><text fill="#000000" font-family="sans-serif" font-size="13" lengthAdjust="spacing" textLength="52.749" x="1022.7861" y="590.0537">newType</text><polygon fill="#181818" points="725.4102,622.6074,715.4102,626.6074,725.4102,630.6074,721.4102,626.6074" style="stroke:#181818;stroke-width:1.0;"/><line style="stroke:#181818;stroke-width:1.0;" x1="719.4102" x2="981.3262" y1="626.6074" y2="626.6074"/><text fill="#000000" font-family="sans-serif" font-size="13" font-weight="bold" lengthAdjust="spacing" textLength="14.46" x="731.4102" y="621.3447">15</text><text fill="#000000" font-family="sans-serif" font-size="13" lengthAdjust="spacing" textLength="52.749" x="749.8701" y="621.3447">newType</text><polygon fill="#181818" points="495.9697,653.8984,485.9697,657.8984,495.9697,661.8984,491.9697,657.8984" style="stroke:#181818;stroke-width:1.0;"/><line style="stroke:#181818;stroke-width:1.0;" x1="489.9697" x2="708.4102" y1="657.8984" y2="657.8984"/><text fill="#000000" font-family="sans-serif" font-size="13" font-weight="bold" lengthAdjust="spacing" textLength="14.46" x="501.9697" y="652.6357">16</text><text fill="#000000" font-family="sans-serif" font-size="13" lengthAdjust="spacing" textLength="52.749" x="520.4297" y="652.6357">newType</text><polygon fill="#181818" points="53.6274,685.1895,43.6274,689.1895,53.6274,693.1895,49.6274,689.1895" style="stroke:#181818;stroke-width:1.0;"/><line style="stroke:#181818;stroke-width:1.0;" x1="47.6274" x2="478.9697" y1="689.1895" y2="689.1895"/><text fill="#000000" font-family="sans-serif" font-size="13" font-weight="bold" lengthAdjust="spacing" textLength="14.46" x="59.6274" y="683.9268">17</text><text fill="#000000" font-family="sans-serif" font-size="13" lengthAdjust="spacing" textLength="124.9917" x="78.0874" y="683.9268">(In)Success Message</text><!--SRC=[bPN9ajem48RlVeekBWDJoGjmI5L2vk1KI58ikVT83LPXIuuapF3sQOd5nWl3wE3oql_Ng-GdjrEwH8i554ORaLbJ47YxfwJ-KgBOuPQM_fWJM18UzJPl6hWCfJaelOKDvewI1FVUw7tnIZP9dZ8b2JR6-5Vpbg3mniBekpMQLYIo4Q23wrF2FA-4Ab5x64tdgBGdZLhGwbZIp19wPVHN4QvHURfzJBPEesITFcO-CzfRa-TaesosMlni2MFOgQv8Sqx79TbA2Oh6oyNVMSluHuajHmigZLD16ZMBbp-_xqSMpUQh905Urvh1vo_dCi2K3NOEl06K4X2AMW-U0L787L0LUhhK3ixhp63QEcMIoynXF8bV9GrfRdXSsEPxfZ2h3dFAe_DlJyuxaEWHnXeB-YJ92QlAG9tSo1jEM-2Rp6EifJKL3za9_71mh0vDVNvcWWXDf_6aNnnx3wqLNeO8Ggz3vQLijUkT16yyn85fVysDAJilmuekQzSY8y5jLni87a4vg31NiYCbBU_YmWGoRgEq_7RynQXqgusb6RfJBfDUzJM7EC0mi2Axzj4A6NEklpm2lIcUZtSXvxo3jDUsCJjtWxeaFbynxUFTwrI0z-QG3Rke0u_jOO63U7wI9pkST2EPE_nM3nrMd04TGYR3WJ_Ulhxgd-Xt9HzjHDnJm-W6hdV3NBPaF1Jw80r0PqztpwjngYVBlH3a-DZb2_y3a_xZgV5K_yl-0m00]--></g></svg>