<svg xmlns="http://www.w3.org/2000/svg" xmlns:xlink="http://www.w3.org/1999/xlink" contentStyleType="text/css" height="374px" preserveAspectRatio="none" style="width:488px;height:374px;background:#FFFFFF;" version="1.1" viewBox="0 0 488 374" width="488px" zoomAndPan="magnify"><defs/><g><rect fill="#FFFFFF" height="188.7461" style="stroke:#181818;stroke-width:1.0;" width="10" x="22.8413" y="93.6211"/><rect fill="#FFFFFF" height="31.291" style="stroke:#181818;stroke-width:1.0;" width="10" x="444.8555" y="116.9121"/><rect fill="#FFFFFF" height="31.291" style="stroke:#181818;stroke-width:1.0;" width="10" x="444.8555" y="179.4941"/><rect fill="#FFFFFF" height="31.291" style="stroke:#181818;stroke-width:1.0;" width="10" x="444.8555" y="242.0762"/><line style="stroke:#181818;stroke-width:0.5;stroke-dasharray:5.0,5.0;" x1="27" x2="27" y1="83.6211" y2="291.3672"/><line style="stroke:#181818;stroke-width:0.5;stroke-dasharray:5.0,5.0;" x1="449.5728" x2="449.5728" y1="83.6211" y2="291.3672"/><text fill="#000000" font-family="sans-serif" font-size="14" lengthAdjust="spacing" textLength="39.6826" x="5" y="80.1074">Player</text><ellipse cx="27.8413" cy="13.5" fill="#E3E3E3" rx="8" ry="8" style="stroke:#181818;stroke-width:0.5;"/><path d="M27.8413,21.5 L27.8413,48.5 M14.8413,29.5 L40.8413,29.5 M27.8413,48.5 L14.8413,63.5 M27.8413,48.5 L40.8413,63.5 " fill="none" style="stroke:#181818;stroke-width:0.5;"/><text fill="#000000" font-family="sans-serif" font-size="14" lengthAdjust="spacing" textLength="39.6826" x="5" y="305.4746">Player</text><ellipse cx="27.8413" cy="317.4883" fill="#E3E3E3" rx="8" ry="8" style="stroke:#181818;stroke-width:0.5;"/><path d="M27.8413,325.4883 L27.8413,352.4883 M14.8413,333.4883 L40.8413,333.4883 M27.8413,352.4883 L14.8413,367.4883 M27.8413,352.4883 L40.8413,367.4883 " fill="none" style="stroke:#181818;stroke-width:0.5;"/><rect fill="#E3E3E3" height="32.6211" rx="2.5" ry="2.5" style="stroke:#181818;stroke-width:0.5;" width="64.5654" x="417.5728" y="50"/><text fill="#000000" font-family="sans-serif" font-size="14" lengthAdjust="spacing" textLength="50.5654" x="424.5728" y="72.1074">:System</text><rect fill="#E3E3E3" height="32.6211" rx="2.5" ry="2.5" style="stroke:#181818;stroke-width:0.5;" width="64.5654" x="417.5728" y="290.3672"/><text fill="#000000" font-family="sans-serif" font-size="14" lengthAdjust="spacing" textLength="50.5654" x="424.5728" y="312.4746">:System</text><rect fill="#FFFFFF" height="188.7461" style="stroke:#181818;stroke-width:1.0;" width="10" x="22.8413" y="93.6211"/><rect fill="#FFFFFF" height="31.291" style="stroke:#181818;stroke-width:1.0;" width="10" x="444.8555" y="116.9121"/><rect fill="#FFFFFF" height="31.291" style="stroke:#181818;stroke-width:1.0;" width="10" x="444.8555" y="179.4941"/><rect fill="#FFFFFF" height="31.291" style="stroke:#181818;stroke-width:1.0;" width="10" x="444.8555" y="242.0762"/><polygon fill="#181818" points="432.8555,112.9121,442.8555,116.9121,432.8555,120.9121,436.8555,116.9121" style="stroke:#181818;stroke-width:1.0;"/><line style="stroke:#181818;stroke-width:1.0;" x1="32.8413" x2="438.8555" y1="116.9121" y2="116.9121"/><text fill="#000000" font-family="sans-serif" font-size="13" font-weight="bold" lengthAdjust="spacing" textLength="7.23" x="39.8413" y="111.6494">1</text><text fill="#000000" font-family="sans-serif" font-size="13" lengthAdjust="spacing" textLength="143.7871" x="51.0713" y="111.6494">Asks to buy a locomotive</text><polygon fill="#181818" points="43.8413,144.2031,33.8413,148.2031,43.8413,152.2031,39.8413,148.2031" style="stroke:#181818;stroke-width:1.0;"/><line style="stroke:#181818;stroke-width:1.0;stroke-dasharray:2.0,2.0;" x1="37.8413" x2="448.8555" y1="148.2031" y2="148.2031"/><text fill="#000000" font-family="sans-serif" font-size="13" font-weight="bold" lengthAdjust="spacing" textLength="7.23" x="49.8413" y="142.9404">2</text><text fill="#000000" font-family="sans-serif" font-size="13" lengthAdjust="spacing" textLength="369.9731" x="61.0713" y="142.9404">Provides the list of available locomotives and asks to select one.</text><polygon fill="#181818" points="432.8555,175.4941,442.8555,179.4941,432.8555,183.4941,436.8555,179.4941" style="stroke:#181818;stroke-width:1.0;"/><line style="stroke:#181818;stroke-width:1.0;" x1="32.8413" x2="438.8555" y1="179.4941" y2="179.4941"/><text fill="#000000" font-family="sans-serif" font-size="13" font-weight="bold" lengthAdjust="spacing" textLength="7.23" x="39.8413" y="174.2314">3</text><text fill="#000000" font-family="sans-serif" font-size="13" lengthAdjust="spacing" textLength="130.0635" x="51.0713" y="174.2314">Selects the locomotive</text><polygon fill="#181818" points="43.8413,206.7852,33.8413,210.7852,43.8413,214.7852,39.8413,210.7852" style="stroke:#181818;stroke-width:1.0;"/><line style="stroke:#181818;stroke-width:1.0;stroke-dasharray:2.0,2.0;" x1="37.8413" x2="448.8555" y1="210.7852" y2="210.7852"/><text fill="#000000" font-family="sans-serif" font-size="13" font-weight="bold" lengthAdjust="spacing" textLength="7.23" x="49.8413" y="205.5225">4</text><text fill="#000000" font-family="sans-serif" font-size="13" lengthAdjust="spacing" textLength="376.7842" x="61.0713" y="205.5225">Provides the selected locomotive's data and asks for confirmation</text><polygon fill="#181818" points="432.8555,238.0762,442.8555,242.0762,432.8555,246.0762,436.8555,242.0762" style="stroke:#181818;stroke-width:1.0;"/><line style="stroke:#181818;stroke-width:1.0;" x1="32.8413" x2="438.8555" y1="242.0762" y2="242.0762"/><text fill="#000000" font-family="sans-serif" font-size="13" font-weight="bold" lengthAdjust="spacing" textLength="7.23" x="39.8413" y="236.8135">5</text><text fill="#000000" font-family="sans-serif" font-size="13" lengthAdjust="spacing" textLength="128.6099" x="51.0713" y="236.8135">Confirms the selection</text><polygon fill="#181818" points="43.8413,269.3672,33.8413,273.3672,43.8413,277.3672,39.8413,273.3672" style="stroke:#181818;stroke-width:1.0;"/><line style="stroke:#181818;stroke-width:1.0;stroke-dasharray:2.0,2.0;" x1="37.8413" x2="448.8555" y1="273.3672" y2="273.3672"/><text fill="#000000" font-family="sans-serif" font-size="13" font-weight="bold" lengthAdjust="spacing" textLength="7.23" x="49.8413" y="268.1045">6</text><text fill="#000000" font-family="sans-serif" font-size="13" lengthAdjust="spacing" textLength="179.188" x="61.0713" y="268.1045">Displays operation (In)Success</text><!--SRC=[hP4zRiCm38Ltd-8XIziXEO270aMxT0lW4p0oxGYHH4EaK_ZsLMtdPyZG0lNqOF5z_6JhoQU1CaL4IUAEMIB3yiYLNay6SYVgkR4fC38xezI7-m4zKYjVFlNeA2XN5OqcQOm7pYKxaupDFj34UGDIBB4gNVFE3vGCcxgPr3ZEvqkSc_vCnfT2XV8i6TlNTGmrtlIaCC5Xd408uYHAQV8yVuLSg3ylr-gsK5PUZNsMis-va8wCuDKW7UXCFj2XtFk6LL1gY-UoL3cKBm99l9lHBJ_S-42xcPlhll-GNbIulQCzALeokXbtvLyuIPtFaSnB-gFp-rAzttU1_Dhvm-jGia86phC4dZ_JIpCwnwgFXRu1]--></g></svg>