<?xml version="1.0" encoding="us-ascii" standalone="no"?><svg xmlns="http://www.w3.org/2000/svg" xmlns:xlink="http://www.w3.org/1999/xlink" contentStyleType="text/css" height="667.2px" preserveAspectRatio="none" style="width:687px;height:667px;background:#FFFFFF;" version="1.1" viewBox="0 0 687 667" width="687.6px" zoomAndPan="magnify"><defs/><g><!--class MyGreenSpacesGUI--><g id="elem_MyGreenSpacesGUI"><rect codeLine="2" fill="#F1F1F1" height="73.4906" id="MyGreenSpacesGUI" rx="1.5" ry="1.5" style="stroke:#181818;stroke-width:0.3;" width="227.4" x="271.2" y="4.2"/><ellipse cx="343.95" cy="13.8" fill="#ADD1B2" rx="6.6" ry="6.6" style="stroke:#181818;stroke-width:0.6;"/><path d="M345.6094,11.325 Q345.7031,11.1938 345.8156,11.1281 Q345.9281,11.0625 346.0594,11.0625 Q346.2844,11.0625 346.425,11.2219 Q346.5656,11.3719 346.5656,11.7375 L346.5656,12.6094 Q346.5656,12.975 346.425,13.1344 Q346.2844,13.2938 346.0594,13.2938 Q345.8531,13.2938 345.7313,13.1719 Q345.6094,13.0594 345.5438,12.75 Q345.5156,12.5344 345.4031,12.4219 Q345.2063,12.1969 344.8406,12.0656 Q344.475,11.9344 344.1,11.9344 Q343.6406,11.9344 343.2562,12.1313 Q342.8812,12.3281 342.5813,12.7781 Q342.2906,13.2281 342.2906,13.8469 L342.2906,14.5031 Q342.2906,15.2437 342.825,15.7406 Q343.3594,16.2281 344.3156,16.2281 Q344.8781,16.2281 345.2719,16.0781 Q345.5062,15.9844 345.7594,15.7219 Q345.9188,15.5625 346.0031,15.5156 Q346.0969,15.4688 346.2188,15.4688 Q346.4156,15.4688 346.5656,15.6281 Q346.725,15.7781 346.725,15.9844 Q346.725,16.1906 346.5188,16.4344 Q346.2188,16.7813 345.7406,16.9781 Q345.0938,17.25 344.3156,17.25 Q343.4063,17.25 342.6844,16.875 Q342.0938,16.575 341.6813,15.9375 Q341.2688,15.2906 341.2688,14.5219 L341.2688,13.8281 Q341.2688,13.0313 341.6344,12.3469 Q342.0094,11.6531 342.6656,11.2875 Q343.3219,10.9125 344.0625,10.9125 Q344.5031,10.9125 344.8875,11.0156 Q345.2813,11.1094 345.6094,11.325 Z " fill="#000000"/><text fill="#000000" font-family="sans-serif" font-size="8.4" lengthAdjust="spacing" textLength="76.8" x="356.25" y="17.2781">MyGreenSpacesGUI</text><line style="stroke:#181818;stroke-width:0.3;" x1="271.8" x2="498" y1="23.4" y2="23.4"/><rect fill="none" height="3.6" style="stroke:#C82930;stroke-width:0.6;" width="3.6" x="276" y="30.4863"/><text fill="#000000" font-family="sans-serif" font-size="8.4" lengthAdjust="spacing" textLength="170.4" x="283.2" y="34.8645">greenSpaceList: ListView&lt;GreenSpaceDTO&gt;</text><rect fill="none" height="3.6" style="stroke:#C82930;stroke-width:0.6;" width="3.6" x="276" y="41.659"/><text fill="#000000" font-family="sans-serif" font-size="8.4" lengthAdjust="spacing" textLength="205.2" x="283.2" y="46.0371">myGreenSpacesController: MyGreenSpacesController</text><line style="stroke:#181818;stroke-width:0.3;" x1="271.8" x2="498" y1="50.5453" y2="50.5453"/><ellipse cx="277.8" cy="59.4316" fill="#84BE84" rx="1.8" ry="1.8" style="stroke:#038048;stroke-width:0.6;"/><text fill="#000000" font-family="sans-serif" font-size="8.4" lengthAdjust="spacing" textLength="103.2" x="283.2" y="62.0098">MyGreenSpacesGUI(): void</text><ellipse cx="277.8" cy="70.6043" fill="#84BE84" rx="1.8" ry="1.8" style="stroke:#038048;stroke-width:0.6;"/><text fill="#000000" font-family="sans-serif" font-size="8.4" lengthAdjust="spacing" textLength="211.8" x="283.2" y="73.1824">initialize(URL location, ResourceBundle resources): void</text></g><!--class MyGreenSpacesController--><g id="elem_MyGreenSpacesController"><rect codeLine="9" fill="#F1F1F1" height="84.6633" id="MyGreenSpacesController" rx="1.5" ry="1.5" style="stroke:#181818;stroke-width:0.3;" width="272.4" x="248.7" y="114"/><ellipse cx="332.25" cy="123.6" fill="#ADD1B2" rx="6.6" ry="6.6" style="stroke:#181818;stroke-width:0.6;"/><path d="M333.9094,121.125 Q334.0031,120.9937 334.1156,120.9281 Q334.2281,120.8625 334.3594,120.8625 Q334.5844,120.8625 334.725,121.0219 Q334.8656,121.1719 334.8656,121.5375 L334.8656,122.4094 Q334.8656,122.775 334.725,122.9344 Q334.5844,123.0938 334.3594,123.0938 Q334.1531,123.0938 334.0313,122.9719 Q333.9094,122.8594 333.8438,122.55 Q333.8156,122.3344 333.7031,122.2219 Q333.5062,121.9969 333.1406,121.8656 Q332.775,121.7344 332.4,121.7344 Q331.9406,121.7344 331.5563,121.9312 Q331.1813,122.1281 330.8812,122.5781 Q330.5906,123.0281 330.5906,123.6469 L330.5906,124.3031 Q330.5906,125.0437 331.125,125.5406 Q331.6594,126.0281 332.6156,126.0281 Q333.1781,126.0281 333.5719,125.8781 Q333.8063,125.7844 334.0594,125.5219 Q334.2188,125.3625 334.3031,125.3156 Q334.3969,125.2688 334.5188,125.2688 Q334.7156,125.2688 334.8656,125.4281 Q335.025,125.5781 335.025,125.7844 Q335.025,125.9906 334.8187,126.2344 Q334.5188,126.5813 334.0406,126.7781 Q333.3938,127.05 332.6156,127.05 Q331.7063,127.05 330.9844,126.675 Q330.3938,126.375 329.9813,125.7375 Q329.5687,125.0906 329.5687,124.3219 L329.5687,123.6281 Q329.5687,122.8313 329.9344,122.1469 Q330.3094,121.4531 330.9656,121.0875 Q331.6219,120.7125 332.3625,120.7125 Q332.8031,120.7125 333.1875,120.8156 Q333.5813,120.9094 333.9094,121.125 Z " fill="#000000"/><text fill="#000000" font-family="sans-serif" font-size="8.4" lengthAdjust="spacing" textLength="100.2" x="344.55" y="127.0781">MyGreenSpacesController</text><line style="stroke:#181818;stroke-width:0.3;" x1="249.3" x2="520.5" y1="133.2" y2="133.2"/><rect fill="none" height="3.6" style="stroke:#C82930;stroke-width:0.6;" width="3.6" x="253.5" y="140.2863"/><text fill="#000000" font-family="sans-serif" font-size="8.4" lengthAdjust="spacing" textLength="96.6" x="260.7" y="144.6645">repositories: Repositories</text><line style="stroke:#181818;stroke-width:0.3;" x1="249.3" x2="520.5" y1="149.1727" y2="149.1727"/><ellipse cx="255.3" cy="158.059" fill="#84BE84" rx="1.8" ry="1.8" style="stroke:#038048;stroke-width:0.6;"/><text fill="#000000" font-family="sans-serif" font-size="8.4" lengthAdjust="spacing" textLength="106.2" x="260.7" y="160.6371">MyGreenSpacesController()</text><ellipse cx="255.3" cy="169.2316" fill="#84BE84" rx="1.8" ry="1.8" style="stroke:#038048;stroke-width:0.6;"/><text fill="#000000" font-family="sans-serif" font-size="8.4" lengthAdjust="spacing" textLength="100.2" x="260.7" y="171.8098">getSortingMethod(): String</text><ellipse cx="255.3" cy="180.4043" fill="#84BE84" rx="1.8" ry="1.8" style="stroke:#038048;stroke-width:0.6;"/><text fill="#000000" font-family="sans-serif" font-size="8.4" lengthAdjust="spacing" textLength="249" x="260.7" y="182.9824">bubbleSort(greenSpaces: List&lt;GreenSpace&gt;): List&lt;GreenSpace&gt;</text><ellipse cx="255.3" cy="191.577" fill="#84BE84" rx="1.8" ry="1.8" style="stroke:#038048;stroke-width:0.6;"/><text fill="#000000" font-family="sans-serif" font-size="8.4" lengthAdjust="spacing" textLength="256.8" x="260.7" y="194.1551">selectionSort(greenSpaces: List&lt;GreenSpace&gt;): List&lt;GreenSpace&gt;</text></g><!--class Repositories--><g id="elem_Repositories"><rect codeLine="17" fill="#F1F1F1" height="95.8359" id="Repositories" rx="1.5" ry="1.5" style="stroke:#181818;stroke-width:0.3;" width="228" x="111.3" y="235.2"/><ellipse cx="199.05" cy="244.8" fill="#ADD1B2" rx="6.6" ry="6.6" style="stroke:#181818;stroke-width:0.6;"/><path d="M200.7094,242.325 Q200.8031,242.1938 200.9156,242.1281 Q201.0281,242.0625 201.1594,242.0625 Q201.3844,242.0625 201.525,242.2219 Q201.6656,242.3719 201.6656,242.7375 L201.6656,243.6094 Q201.6656,243.975 201.525,244.1344 Q201.3844,244.2938 201.1594,244.2938 Q200.9531,244.2938 200.8312,244.1719 Q200.7094,244.0594 200.6437,243.75 Q200.6156,243.5344 200.5031,243.4219 Q200.3063,243.1969 199.9406,243.0656 Q199.575,242.9344 199.2,242.9344 Q198.7406,242.9344 198.3563,243.1313 Q197.9813,243.3281 197.6813,243.7781 Q197.3906,244.2281 197.3906,244.8469 L197.3906,245.5031 Q197.3906,246.2437 197.925,246.7406 Q198.4594,247.2281 199.4156,247.2281 Q199.9781,247.2281 200.3719,247.0781 Q200.6063,246.9844 200.8594,246.7219 Q201.0187,246.5625 201.1031,246.5156 Q201.1969,246.4688 201.3188,246.4688 Q201.5156,246.4688 201.6656,246.6281 Q201.825,246.7781 201.825,246.9844 Q201.825,247.1906 201.6188,247.4344 Q201.3188,247.7813 200.8406,247.9781 Q200.1938,248.25 199.4156,248.25 Q198.5063,248.25 197.7844,247.875 Q197.1938,247.575 196.7813,246.9375 Q196.3688,246.2906 196.3688,245.5219 L196.3688,244.8281 Q196.3688,244.0313 196.7344,243.3469 Q197.1094,242.6531 197.7656,242.2875 Q198.4219,241.9125 199.1625,241.9125 Q199.6031,241.9125 199.9875,242.0156 Q200.3813,242.1094 200.7094,242.325 Z " fill="#000000"/><text fill="#000000" font-family="sans-serif" font-size="8.4" lengthAdjust="spacing" textLength="47.4" x="211.35" y="248.2781">Repositories</text><line style="stroke:#181818;stroke-width:0.3;" x1="111.9" x2="338.7" y1="254.4" y2="254.4"/><rect fill="none" height="3.6" style="stroke:#C82930;stroke-width:0.6;" width="3.6" x="116.1" y="261.4863"/><text fill="#000000" font-family="sans-serif" font-size="8.4" lengthAdjust="spacing" textLength="84" x="123.3" y="265.8645">instance: Repositories</text><rect fill="none" height="3.6" style="stroke:#C82930;stroke-width:0.6;" width="3.6" x="116.1" y="272.659"/><text fill="#000000" font-family="sans-serif" font-size="8.4" lengthAdjust="spacing" textLength="180.6" x="123.3" y="277.0371">greenSpaceRepository: GreenSpaceRepository</text><rect fill="none" height="3.6" style="stroke:#C82930;stroke-width:0.6;" width="3.6" x="116.1" y="283.8316"/><text fill="#000000" font-family="sans-serif" font-size="8.4" lengthAdjust="spacing" textLength="193.8" x="123.3" y="288.2098">authenticationRepository: AuthenticationRepository</text><line style="stroke:#181818;stroke-width:0.3;" x1="111.9" x2="338.7" y1="292.718" y2="292.718"/><ellipse cx="117.9" cy="301.6043" fill="#84BE84" rx="1.8" ry="1.8" style="stroke:#038048;stroke-width:0.6;"/><text fill="#000000" font-family="sans-serif" font-size="8.4" lengthAdjust="spacing" textLength="102" x="123.3" y="304.1824">getInstance(): Repositories</text><ellipse cx="117.9" cy="312.777" fill="#84BE84" rx="1.8" ry="1.8" style="stroke:#038048;stroke-width:0.6;"/><text fill="#000000" font-family="sans-serif" font-size="8.4" lengthAdjust="spacing" textLength="200.4" x="123.3" y="315.3551">getGreenSpaceRepository(): GreenSpaceRepository</text><ellipse cx="117.9" cy="323.9496" fill="#84BE84" rx="1.8" ry="1.8" style="stroke:#038048;stroke-width:0.6;"/><text fill="#000000" font-family="sans-serif" font-size="8.4" lengthAdjust="spacing" textLength="212.4" x="123.3" y="326.5277">getAuthenticationRepository(): AuthenticationRepository</text></g><!--class GreenSpaceRepository--><g id="elem_GreenSpaceRepository"><rect codeLine="26" fill="#F1F1F1" height="39.9727" id="GreenSpaceRepository" rx="1.5" ry="1.5" style="stroke:#181818;stroke-width:0.3;" width="267.6" x="7.5" y="378.9"/><ellipse cx="94.35" cy="388.5" fill="#ADD1B2" rx="6.6" ry="6.6" style="stroke:#181818;stroke-width:0.6;"/><path d="M96.0094,386.025 Q96.1031,385.8938 96.2156,385.8281 Q96.3281,385.7625 96.4594,385.7625 Q96.6844,385.7625 96.825,385.9219 Q96.9656,386.0719 96.9656,386.4375 L96.9656,387.3094 Q96.9656,387.675 96.825,387.8344 Q96.6844,387.9938 96.4594,387.9938 Q96.2531,387.9938 96.1313,387.8719 Q96.0094,387.7594 95.9438,387.45 Q95.9156,387.2344 95.8031,387.1219 Q95.6063,386.8969 95.2406,386.7656 Q94.875,386.6344 94.5,386.6344 Q94.0406,386.6344 93.6563,386.8313 Q93.2813,387.0281 92.9813,387.4781 Q92.6906,387.9281 92.6906,388.5469 L92.6906,389.2031 Q92.6906,389.9437 93.225,390.4406 Q93.7594,390.9281 94.7156,390.9281 Q95.2781,390.9281 95.6719,390.7781 Q95.9063,390.6844 96.1594,390.4219 Q96.3188,390.2625 96.4031,390.2156 Q96.4969,390.1688 96.6187,390.1688 Q96.8156,390.1688 96.9656,390.3281 Q97.125,390.4781 97.125,390.6844 Q97.125,390.8906 96.9188,391.1344 Q96.6187,391.4813 96.1406,391.6781 Q95.4937,391.95 94.7156,391.95 Q93.8062,391.95 93.0844,391.575 Q92.4937,391.275 92.0813,390.6375 Q91.6688,389.9906 91.6688,389.2219 L91.6688,388.5281 Q91.6688,387.7313 92.0344,387.0469 Q92.4094,386.3531 93.0656,385.9875 Q93.7219,385.6125 94.4625,385.6125 Q94.9031,385.6125 95.2875,385.7156 Q95.6812,385.8094 96.0094,386.025 Z " fill="#000000"/><text fill="#000000" font-family="sans-serif" font-size="8.4" lengthAdjust="spacing" textLength="88.8" x="106.65" y="391.9781">GreenSpaceRepository</text><line style="stroke:#181818;stroke-width:0.3;" x1="8.1" x2="274.5" y1="398.1" y2="398.1"/><line style="stroke:#181818;stroke-width:0.3;" x1="8.1" x2="274.5" y1="402.9" y2="402.9"/><ellipse cx="14.1" cy="411.7863" fill="#84BE84" rx="1.8" ry="1.8" style="stroke:#038048;stroke-width:0.6;"/><text fill="#000000" font-family="sans-serif" font-size="8.4" lengthAdjust="spacing" textLength="252" x="19.5" y="414.3645">getGreenSpaceByManagerEmail(email: String): List&lt;GreenSpace&gt;</text></g><!--class AuthenticationRepository--><g id="elem_AuthenticationRepository"><rect codeLine="30" fill="#F1F1F1" height="39.9727" id="AuthenticationRepository" rx="1.5" ry="1.5" style="stroke:#181818;stroke-width:0.3;" width="162" x="296.1" y="378.9"/><ellipse cx="327.15" cy="388.5" fill="#ADD1B2" rx="6.6" ry="6.6" style="stroke:#181818;stroke-width:0.6;"/><path d="M328.8094,386.025 Q328.9031,385.8938 329.0156,385.8281 Q329.1281,385.7625 329.2594,385.7625 Q329.4844,385.7625 329.625,385.9219 Q329.7656,386.0719 329.7656,386.4375 L329.7656,387.3094 Q329.7656,387.675 329.625,387.8344 Q329.4844,387.9938 329.2594,387.9938 Q329.0531,387.9938 328.9313,387.8719 Q328.8094,387.7594 328.7438,387.45 Q328.7156,387.2344 328.6031,387.1219 Q328.4063,386.8969 328.0406,386.7656 Q327.675,386.6344 327.3,386.6344 Q326.8406,386.6344 326.4563,386.8313 Q326.0813,387.0281 325.7813,387.4781 Q325.4906,387.9281 325.4906,388.5469 L325.4906,389.2031 Q325.4906,389.9437 326.025,390.4406 Q326.5594,390.9281 327.5156,390.9281 Q328.0781,390.9281 328.4719,390.7781 Q328.7063,390.6844 328.9594,390.4219 Q329.1188,390.2625 329.2031,390.2156 Q329.2969,390.1688 329.4188,390.1688 Q329.6156,390.1688 329.7656,390.3281 Q329.925,390.4781 329.925,390.6844 Q329.925,390.8906 329.7188,391.1344 Q329.4188,391.4813 328.9406,391.6781 Q328.2938,391.95 327.5156,391.95 Q326.6063,391.95 325.8844,391.575 Q325.2938,391.275 324.8812,390.6375 Q324.4688,389.9906 324.4688,389.2219 L324.4688,388.5281 Q324.4688,387.7313 324.8344,387.0469 Q325.2094,386.3531 325.8656,385.9875 Q326.5219,385.6125 327.2625,385.6125 Q327.7031,385.6125 328.0875,385.7156 Q328.4813,385.8094 328.8094,386.025 Z " fill="#000000"/><text fill="#000000" font-family="sans-serif" font-size="8.4" lengthAdjust="spacing" textLength="94.8" x="339.45" y="391.9781">AuthenticationRepository</text><line style="stroke:#181818;stroke-width:0.3;" x1="296.7" x2="457.5" y1="398.1" y2="398.1"/><line style="stroke:#181818;stroke-width:0.3;" x1="296.7" x2="457.5" y1="402.9" y2="402.9"/><ellipse cx="302.7" cy="411.7863" fill="#84BE84" rx="1.8" ry="1.8" style="stroke:#038048;stroke-width:0.6;"/><text fill="#000000" font-family="sans-serif" font-size="8.4" lengthAdjust="spacing" textLength="146.4" x="308.1" y="414.3645">getCurrentUserSession(): UserSession</text></g><!--class GreenSpace--><g id="elem_GreenSpace"><rect codeLine="34" fill="#F1F1F1" height="196.3898" id="GreenSpace" rx="1.5" ry="1.5" style="stroke:#181818;stroke-width:0.3;" width="622.2" x="4.2" y="466.8"/><ellipse cx="288.75" cy="476.4" fill="#ADD1B2" rx="6.6" ry="6.6" style="stroke:#181818;stroke-width:0.6;"/><path d="M290.4094,473.925 Q290.5031,473.7938 290.6156,473.7281 Q290.7281,473.6625 290.8594,473.6625 Q291.0844,473.6625 291.225,473.8219 Q291.3656,473.9719 291.3656,474.3375 L291.3656,475.2094 Q291.3656,475.575 291.225,475.7344 Q291.0844,475.8937 290.8594,475.8937 Q290.6531,475.8937 290.5313,475.7719 Q290.4094,475.6594 290.3438,475.35 Q290.3156,475.1344 290.2031,475.0219 Q290.0062,474.7969 289.6406,474.6656 Q289.275,474.5344 288.9,474.5344 Q288.4406,474.5344 288.0563,474.7313 Q287.6813,474.9281 287.3812,475.3781 Q287.0906,475.8281 287.0906,476.4469 L287.0906,477.1031 Q287.0906,477.8438 287.625,478.3406 Q288.1594,478.8281 289.1156,478.8281 Q289.6781,478.8281 290.0719,478.6781 Q290.3063,478.5844 290.5594,478.3219 Q290.7188,478.1625 290.8031,478.1156 Q290.8969,478.0687 291.0188,478.0687 Q291.2156,478.0687 291.3656,478.2281 Q291.525,478.3781 291.525,478.5844 Q291.525,478.7906 291.3187,479.0344 Q291.0188,479.3812 290.5406,479.5781 Q289.8938,479.85 289.1156,479.85 Q288.2063,479.85 287.4844,479.475 Q286.8938,479.175 286.4813,478.5375 Q286.0687,477.8906 286.0687,477.1219 L286.0687,476.4281 Q286.0687,475.6312 286.4344,474.9469 Q286.8094,474.2531 287.4656,473.8875 Q288.1219,473.5125 288.8625,473.5125 Q289.3031,473.5125 289.6875,473.6156 Q290.0813,473.7094 290.4094,473.925 Z " fill="#000000"/><text fill="#000000" font-family="sans-serif" font-size="8.4" lengthAdjust="spacing" textLength="48" x="301.05" y="479.8781">GreenSpace</text><line style="stroke:#181818;stroke-width:0.3;" x1="4.8" x2="625.8" y1="486" y2="486"/><rect fill="none" height="3.6" style="stroke:#C82930;stroke-width:0.6;" width="3.6" x="9" y="493.0863"/><text fill="#000000" font-family="sans-serif" font-size="8.4" lengthAdjust="spacing" textLength="94.8" x="16.2" y="497.4645">greenSpaceName: String</text><rect fill="none" height="3.6" style="stroke:#C82930;stroke-width:0.6;" width="3.6" x="9" y="504.259"/><text fill="#000000" font-family="sans-serif" font-size="8.4" lengthAdjust="spacing" textLength="96" x="16.2" y="508.6371">greenSpaceStreet: String</text><rect fill="none" height="3.6" style="stroke:#C82930;stroke-width:0.6;" width="3.6" x="9" y="515.4316"/><text fill="#000000" font-family="sans-serif" font-size="8.4" lengthAdjust="spacing" textLength="137.4" x="16.2" y="519.8098">greenSpaceType: GreenSpaceType</text><rect fill="none" height="3.6" style="stroke:#C82930;stroke-width:0.6;" width="3.6" x="9" y="526.6043"/><text fill="#000000" font-family="sans-serif" font-size="8.4" lengthAdjust="spacing" textLength="127.2" x="16.2" y="530.9824">greenSpaceManagerEmail: String</text><rect fill="none" height="3.6" style="stroke:#C82930;stroke-width:0.6;" width="3.6" x="9" y="537.777"/><text fill="#000000" font-family="sans-serif" font-size="8.4" lengthAdjust="spacing" textLength="78" x="16.2" y="542.1551">greenSpaceArea: int</text><line style="stroke:#181818;stroke-width:0.3;" x1="4.8" x2="625.8" y1="546.6633" y2="546.6633"/><ellipse cx="10.8" cy="555.5496" fill="#84BE84" rx="1.8" ry="1.8" style="stroke:#038048;stroke-width:0.6;"/><text fill="#000000" font-family="sans-serif" font-size="8.4" lengthAdjust="spacing" textLength="606.6" x="16.2" y="558.1277">GreenSpace(greenSpaceName: String, greenSpaceStreet: String, greenSpaceType: GreenSpaceType, greenSpaceManagerEmail: String, greenSpaceArea: int)</text><ellipse cx="10.8" cy="566.7223" fill="#84BE84" rx="1.8" ry="1.8" style="stroke:#038048;stroke-width:0.6;"/><text fill="#000000" font-family="sans-serif" font-size="8.4" lengthAdjust="spacing" textLength="114.6" x="16.2" y="569.3004">getGreenSpaceName(): String</text><ellipse cx="10.8" cy="577.8949" fill="#84BE84" rx="1.8" ry="1.8" style="stroke:#038048;stroke-width:0.6;"/><text fill="#000000" font-family="sans-serif" font-size="8.4" lengthAdjust="spacing" textLength="202.2" x="16.2" y="580.473">setGreenSpaceName(greenSpaceName: String): void</text><ellipse cx="10.8" cy="589.0676" fill="#84BE84" rx="1.8" ry="1.8" style="stroke:#038048;stroke-width:0.6;"/><text fill="#000000" font-family="sans-serif" font-size="8.4" lengthAdjust="spacing" textLength="115.8" x="16.2" y="591.6457">getGreenSpaceStreet(): String</text><ellipse cx="10.8" cy="600.2402" fill="#84BE84" rx="1.8" ry="1.8" style="stroke:#038048;stroke-width:0.6;"/><text fill="#000000" font-family="sans-serif" font-size="8.4" lengthAdjust="spacing" textLength="204.6" x="16.2" y="602.8184">setGreenSpaceStreet(greenSpaceStreet: String): void</text><ellipse cx="10.8" cy="611.4129" fill="#84BE84" rx="1.8" ry="1.8" style="stroke:#038048;stroke-width:0.6;"/><text fill="#000000" font-family="sans-serif" font-size="8.4" lengthAdjust="spacing" textLength="147" x="16.2" y="613.991">getGreenSpaceManagerEmail(): String</text><ellipse cx="10.8" cy="622.5855" fill="#84BE84" rx="1.8" ry="1.8" style="stroke:#038048;stroke-width:0.6;"/><text fill="#000000" font-family="sans-serif" font-size="8.4" lengthAdjust="spacing" textLength="267" x="16.2" y="625.1637">setGreenSpaceManagerEmail(greenSpaceManagerEmail: String): void</text><ellipse cx="10.8" cy="633.7582" fill="#84BE84" rx="1.8" ry="1.8" style="stroke:#038048;stroke-width:0.6;"/><text fill="#000000" font-family="sans-serif" font-size="8.4" lengthAdjust="spacing" textLength="97.8" x="16.2" y="636.3363">getGreenSpaceArea(): int</text><ellipse cx="10.8" cy="644.9309" fill="#84BE84" rx="1.8" ry="1.8" style="stroke:#038048;stroke-width:0.6;"/><text fill="#000000" font-family="sans-serif" font-size="8.4" lengthAdjust="spacing" textLength="181.8" x="16.2" y="647.509">setGreenSpaceArea(greenSpaceArea: int): void</text><ellipse cx="10.8" cy="656.1035" fill="#84BE84" rx="1.8" ry="1.8" style="stroke:#038048;stroke-width:0.6;"/><text fill="#000000" font-family="sans-serif" font-size="8.4" lengthAdjust="spacing" textLength="62.4" x="16.2" y="658.6816">toString(): String</text></g><!--class GreenSpaceMapper--><g id="elem_GreenSpaceMapper"><rect codeLine="52" fill="#F1F1F1" height="51.1453" id="GreenSpaceMapper" rx="1.5" ry="1.5" style="stroke:#181818;stroke-width:0.3;" width="275.4" x="408" y="257.7"/><ellipse cx="504.75" cy="267.3" fill="#ADD1B2" rx="6.6" ry="6.6" style="stroke:#181818;stroke-width:0.6;"/><path d="M506.4094,264.825 Q506.5031,264.6937 506.6156,264.6281 Q506.7281,264.5625 506.8594,264.5625 Q507.0844,264.5625 507.225,264.7219 Q507.3656,264.8719 507.3656,265.2375 L507.3656,266.1094 Q507.3656,266.475 507.225,266.6344 Q507.0844,266.7938 506.8594,266.7938 Q506.6531,266.7938 506.5313,266.6719 Q506.4094,266.5594 506.3438,266.25 Q506.3156,266.0344 506.2031,265.9219 Q506.0062,265.6969 505.6406,265.5656 Q505.275,265.4344 504.9,265.4344 Q504.4406,265.4344 504.0563,265.6312 Q503.6813,265.8281 503.3812,266.2781 Q503.0906,266.7281 503.0906,267.3469 L503.0906,268.0031 Q503.0906,268.7438 503.625,269.2406 Q504.1594,269.7281 505.1156,269.7281 Q505.6781,269.7281 506.0719,269.5781 Q506.3063,269.4844 506.5594,269.2219 Q506.7188,269.0625 506.8031,269.0156 Q506.8969,268.9688 507.0187,268.9688 Q507.2156,268.9688 507.3656,269.1281 Q507.525,269.2781 507.525,269.4844 Q507.525,269.6906 507.3187,269.9344 Q507.0187,270.2813 506.5406,270.4781 Q505.8937,270.75 505.1156,270.75 Q504.2062,270.75 503.4844,270.375 Q502.8937,270.075 502.4813,269.4375 Q502.0687,268.7906 502.0687,268.0219 L502.0687,267.3281 Q502.0687,266.5313 502.4344,265.8469 Q502.8094,265.1531 503.4656,264.7875 Q504.1219,264.4125 504.8625,264.4125 Q505.3031,264.4125 505.6875,264.5156 Q506.0812,264.6094 506.4094,264.825 Z " fill="#000000"/><text fill="#000000" font-family="sans-serif" font-size="8.4" lengthAdjust="spacing" textLength="76.8" x="517.05" y="270.7781">GreenSpaceMapper</text><line style="stroke:#181818;stroke-width:0.3;" x1="408.6" x2="682.8" y1="276.9" y2="276.9"/><line style="stroke:#181818;stroke-width:0.3;" x1="408.6" x2="682.8" y1="281.7" y2="281.7"/><ellipse cx="414.6" cy="290.5863" fill="#84BE84" rx="1.8" ry="1.8" style="stroke:#038048;stroke-width:0.6;"/><text fill="#000000" font-family="sans-serif" font-size="8.4" lengthAdjust="spacing" textLength="259.8" x="420" y="293.1645">toDTO(greenSpaceList: List&lt;GreenSpace&gt;): List&lt;GreenSpaceDTO&gt;</text><ellipse cx="414.6" cy="301.759" fill="#84BE84" rx="1.8" ry="1.8" style="stroke:#038048;stroke-width:0.6;"/><text fill="#000000" font-family="sans-serif" font-size="8.4" lengthAdjust="spacing" textLength="229.8" x="420" y="304.3371">toDomain(greenSpaceDTO: GreenSpaceDTO): GreenSpace</text></g><!--class GreenSpaceDTO--><g id="elem_GreenSpaceDTO"><rect codeLine="57" fill="#F1F1F1" height="62.318" id="GreenSpaceDTO" rx="1.5" ry="1.5" style="stroke:#181818;stroke-width:0.3;" width="103.8" x="522" y="367.8"/><ellipse cx="539.37" cy="377.4" fill="#ADD1B2" rx="6.6" ry="6.6" style="stroke:#181818;stroke-width:0.6;"/><path d="M541.0294,374.925 Q541.1231,374.7938 541.2356,374.7281 Q541.3481,374.6625 541.4794,374.6625 Q541.7044,374.6625 541.845,374.8219 Q541.9856,374.9719 541.9856,375.3375 L541.9856,376.2094 Q541.9856,376.575 541.845,376.7344 Q541.7044,376.8938 541.4794,376.8938 Q541.2731,376.8938 541.1513,376.7719 Q541.0294,376.6594 540.9638,376.35 Q540.9356,376.1344 540.8231,376.0219 Q540.6263,375.7969 540.2606,375.6656 Q539.895,375.5344 539.52,375.5344 Q539.0606,375.5344 538.6763,375.7313 Q538.3013,375.9281 538.0013,376.3781 Q537.7106,376.8281 537.7106,377.4469 L537.7106,378.1031 Q537.7106,378.8438 538.245,379.3406 Q538.7794,379.8281 539.7356,379.8281 Q540.2981,379.8281 540.6919,379.6781 Q540.9263,379.5844 541.1794,379.3219 Q541.3388,379.1625 541.4231,379.1156 Q541.5169,379.0687 541.6388,379.0687 Q541.8356,379.0687 541.9856,379.2281 Q542.145,379.3781 542.145,379.5844 Q542.145,379.7906 541.9388,380.0344 Q541.6388,380.3812 541.1606,380.5781 Q540.5138,380.85 539.7356,380.85 Q538.8263,380.85 538.1044,380.475 Q537.5138,380.175 537.1013,379.5375 Q536.6888,378.8906 536.6888,378.1219 L536.6888,377.4281 Q536.6888,376.6312 537.0544,375.9469 Q537.4294,375.2531 538.0856,374.8875 Q538.7419,374.5125 539.4825,374.5125 Q539.9231,374.5125 540.3075,374.6156 Q540.7013,374.7094 541.0294,374.925 Z " fill="#000000"/><text fill="#000000" font-family="sans-serif" font-size="8.4" lengthAdjust="spacing" textLength="66" x="549.63" y="380.8781">GreenSpaceDTO</text><line style="stroke:#181818;stroke-width:0.3;" x1="522.6" x2="625.2" y1="387" y2="387"/><ellipse cx="528.6" cy="395.8863" fill="none" rx="1.8" ry="1.8" style="stroke:#038048;stroke-width:0.6;"/><text fill="#000000" font-family="sans-serif" font-size="8.4" lengthAdjust="spacing" textLength="48" x="534" y="398.4645">name: String</text><ellipse cx="528.6" cy="407.059" fill="none" rx="1.8" ry="1.8" style="stroke:#038048;stroke-width:0.6;"/><text fill="#000000" font-family="sans-serif" font-size="8.4" lengthAdjust="spacing" textLength="56.4" x="534" y="409.6371">location: String</text><ellipse cx="528.6" cy="418.2316" fill="none" rx="1.8" ry="1.8" style="stroke:#038048;stroke-width:0.6;"/><text fill="#000000" font-family="sans-serif" font-size="8.4" lengthAdjust="spacing" textLength="88.2" x="534" y="420.8098">areaInHectares: double</text><line style="stroke:#181818;stroke-width:0.3;" x1="522.6" x2="625.2" y1="425.318" y2="425.318"/></g><!--link Repositories to Repositories--><g id="link_Repositories_Repositories"><path codeLine="63" d="M339.3,272.754 C352.05,274.722 360.3,278.202 360.3,283.2 C360.3,288.198 355.6079,291.1288 342.8579,293.0968 " fill="none" id="Repositories-to-Repositories" style="stroke:#181818;stroke-width:0.6;"/><polygon fill="#181818" points="339.3,293.646,345.0029,295.1942,342.2649,293.1884,344.2707,290.4503,339.3,293.646" style="stroke:#181818;stroke-width:0.6;"/><text fill="#000000" font-family="sans-serif" font-size="7.8" lengthAdjust="spacing" textLength="29.4" x="363.9" y="286.517">instance</text></g><!--link MyGreenSpacesGUI to MyGreenSpacesController--><g id="link_MyGreenSpacesGUI_MyGreenSpacesController"><path codeLine="64" d="M384.9,77.406 C384.9,88.992 384.9,98.322 384.9,110.286 " fill="none" id="MyGreenSpacesGUI-to-MyGreenSpacesController" style="stroke:#181818;stroke-width:0.6;stroke-dasharray:7.0,7.0;"/><polygon fill="#181818" points="384.9,113.886,387.3,108.486,384.9,110.886,382.5,108.486,384.9,113.886" style="stroke:#181818;stroke-width:0.6;"/></g><!--link Repositories to GreenSpaceRepository--><g id="link_Repositories_GreenSpaceRepository"><path codeLine="65" d="M190.53,331.242 C178.344,347.868 171.703,356.9236 162.115,370.0036 " fill="none" id="Repositories-to-GreenSpaceRepository" style="stroke:#181818;stroke-width:0.6;"/><polygon fill="none" points="155.73,378.714,165.0185,372.1319,159.2115,367.8752,155.73,378.714" style="stroke:#181818;stroke-width:0.6;"/><text fill="#000000" font-family="sans-serif" font-size="7.8" lengthAdjust="spacing" textLength="4.2" x="183.1615" y="344.2404">1</text><text fill="#000000" font-family="sans-serif" font-size="7.8" lengthAdjust="spacing" textLength="4.2" x="153.8804" y="372.1301">1</text></g><!--link Repositories to AuthenticationRepository--><g id="link_Repositories_AuthenticationRepository"><path codeLine="66" d="M288.138,331.242 C310.242,347.928 325.2497,359.2598 342.5957,372.3518 " fill="none" id="Repositories-to-AuthenticationRepository" style="stroke:#181818;stroke-width:0.6;"/><polygon fill="none" points="351.216,378.858,344.7645,369.4784,340.427,375.2252,351.216,378.858" style="stroke:#181818;stroke-width:0.6;"/><text fill="#000000" font-family="sans-serif" font-size="7.8" lengthAdjust="spacing" textLength="4.2" x="289.1577" y="344.2404">1</text><text fill="#000000" font-family="sans-serif" font-size="7.8" lengthAdjust="spacing" textLength="4.2" x="341.5067" y="372.145">1</text></g><!--link MyGreenSpacesController to Repositories--><g id="link_MyGreenSpacesController_Repositories"><path codeLine="67" d="M331.758,198.756 C316.974,210.396 303.6438,220.894 288.4818,232.84 " fill="none" id="MyGreenSpacesController-to-Repositories" style="stroke:#181818;stroke-width:0.6;"/><polygon fill="#181818" points="285.654,235.068,291.3809,233.6112,288.0105,233.2114,288.4103,229.8409,285.654,235.068" style="stroke:#181818;stroke-width:0.6;"/></g><!--link MyGreenSpacesController to GreenSpaceMapper--><g id="link_MyGreenSpacesController_GreenSpaceMapper"><path codeLine="68" d="M438.444,198.756 C463.386,218.256 489.3856,238.581 510.8716,255.375 " fill="none" id="MyGreenSpacesController-to-GreenSpaceMapper" style="stroke:#181818;stroke-width:0.6;"/><polygon fill="#181818" points="513.708,257.592,510.9314,252.3756,511.3444,255.7445,507.9755,256.1574,513.708,257.592" style="stroke:#181818;stroke-width:0.6;"/></g><!--link GreenSpaceMapper to GreenSpaceDTO--><g id="link_GreenSpaceMapper_GreenSpaceDTO"><path codeLine="69" d="M551.886,308.952 C556.134,326.214 560.937,345.7345 565.461,364.1005 " fill="none" id="GreenSpaceMapper-to-GreenSpaceDTO" style="stroke:#181818;stroke-width:0.6;stroke-dasharray:7.0,7.0;"/><polygon fill="#181818" points="566.322,367.596,567.3608,361.7787,565.6045,364.6831,562.7001,362.9267,566.322,367.596" style="stroke:#181818;stroke-width:0.6;"/></g><!--link GreenSpaceMapper to GreenSpace--><g id="link_GreenSpaceMapper_GreenSpace"><path codeLine="70" d="M535.98,308.76 C523.356,339.294 499.302,391.674 468.9,430.2 C459.03,442.704 450.4297,452.4065 438.7597,464.1125 " fill="none" id="GreenSpaceMapper-to-GreenSpace" style="stroke:#181818;stroke-width:0.6;stroke-dasharray:7.0,7.0;"/><polygon fill="#181818" points="436.218,466.662,441.7302,464.5322,438.3361,464.5374,438.3308,461.1433,436.218,466.662" style="stroke:#181818;stroke-width:0.6;"/></g><!--link GreenSpaceRepository to GreenSpace--><g id="link_GreenSpaceRepository_GreenSpace"><path codeLine="71" d="M161.946,419.142 C175.044,431.538 190.4652,446.1396 209.5812,464.2296 " fill="none" id="GreenSpaceRepository-to-GreenSpace" style="stroke:#181818;stroke-width:0.6;"/><polygon fill="#181818" points="212.196,466.704,209.9234,461.2491,210.017,464.642,206.6242,464.7355,212.196,466.704" style="stroke:#181818;stroke-width:0.6;"/></g><!--SRC=[dLN1RkCW4BtxAr1FZkfKwjMgBBNTAetKx4fDitVYZ58a1op0NMMx- -yx91I33OwqELY1URnvyu2XRgXIP7LSI02-RcaDQh5Pai-Cu6zEzcxwXIbT4lFzoU3NNO__zlQZikY3J_Cek9QYQK2M8NyVE2sx7cNFPoNv46ndmumppMZ3VaE-UNqXZQYfPe8Nv1MKw6GD3ntVDK2a7QglvN-ph1wNrwTtLKfeXM9QI0QgHDf-55FO4-Gp6z-3NWkf6T-lGB-BdQbWhIMEBM3RRRSD64pUMwhEVdfULhFnb6LGq41jwlu_4kU5NvqpW76bAQyXKhn_1bpmM995PDOke9r-1wxPUP_yHVU9I6_ZqYen3aOs0X6nn0QT57HQbSfiLYPLETDYtDQyWQQ7uufokWVvTA2ioS5ylyx2vBwaHFXf7Zif4RDH8DUW5EACV6yOKnovoz_f0O83wWTn6a0dms_75doppNW4yZr8CjrBe2KUFMqBx3dpkDGYgRAu8B2ueAs8oPh5zjVe6TrkDKB42mZxMi1xhcUQsM9I9aom1sToCaU0d3Pj8f_nqEJfDrUDmZ770qOjpda6WYD7V4NRrhLpin3Vf3psT4rtIVUIdIW4riez5epwnmg7GTE9NJt4E55yUEUktKiscAPenv8_OxV7VzZUTwB3jyFm1xrxFg_2PbwwDfwDtlERcohv20SaLxTNoFodEls9jjGqFDb7K-_li8H9u72xiz7-co83yoz1icXV3vDb_m00]--></g></svg>