<?xml version="1.0" encoding="us-ascii" standalone="no"?><svg xmlns="http://www.w3.org/2000/svg" xmlns:xlink="http://www.w3.org/1999/xlink" contentStyleType="text/css" height="838.4px" preserveAspectRatio="none" style="width:1569px;height:838px;background:#FFFFFF;" version="1.1" viewBox="0 0 1569 838" width="1569.6px" zoomAndPan="magnify"><defs/><g><rect fill="#FFFFFF" height="682.6203" style="stroke:#181818;stroke-width:0.8000000000000002;" width="8" x="60" y="74.8969"/><rect fill="#FFFFFF" height="663.9875" style="stroke:#181818;stroke-width:0.8000000000000002;" width="8" x="325.6" y="93.5297"/><rect fill="#FFFFFF" height="553.9922" style="stroke:#181818;stroke-width:0.8000000000000002;" width="8" x="592" y="153.4594"/><rect fill="#FFFFFF" height="25.0328" style="stroke:#181818;stroke-width:0.8000000000000002;" width="8" x="799.2" y="178.4922"/><rect fill="#FFFFFF" height="25.0328" style="stroke:#181818;stroke-width:0.8000000000000002;" width="8" x="884.8" y="228.5578"/><rect fill="#FFFFFF" height="25.0328" style="stroke:#181818;stroke-width:0.8000000000000002;" width="8" x="996.8" y="328.6891"/><rect fill="#FFFFFF" height="25.0328" style="stroke:#181818;stroke-width:0.8000000000000002;" width="8" x="1140" y="278.6234"/><rect fill="#FFFFFF" height="111.5953" style="stroke:#181818;stroke-width:0.8000000000000002;" width="8" x="1274.8" y="595.8563"/><rect fill="#FFFFFF" height="26.8969" style="stroke:#181818;stroke-width:0.8000000000000002;" width="8" x="1503.6" y="649.9219"/><rect fill="none" height="99.6031" style="stroke:#000000;stroke-width:1.2000000000000002;" width="289.2" x="514" y="436.5875"/><rect fill="none" height="75.3625" style="stroke:#000000;stroke-width:1.2000000000000002;" width="351.2" x="1214" y="607.8563"/><line style="stroke:#181818;stroke-width:0.4000000000000001;stroke-dasharray:5.0,5.0;" x1="64" x2="64" y1="66.8969" y2="771.9172"/><line style="stroke:#181818;stroke-width:0.4000000000000001;stroke-dasharray:5.0,5.0;" x1="329.6" x2="329.6" y1="66.8969" y2="771.9172"/><line style="stroke:#181818;stroke-width:0.4000000000000001;stroke-dasharray:5.0,5.0;" x1="595.6" x2="595.6" y1="125.3781" y2="771.9172"/><line style="stroke:#181818;stroke-width:0.4000000000000001;stroke-dasharray:5.0,5.0;" x1="802.8" x2="802.8" y1="66.8969" y2="771.9172"/><line style="stroke:#181818;stroke-width:0.4000000000000001;stroke-dasharray:5.0,5.0;" x1="888.4" x2="888.4" y1="66.8969" y2="771.9172"/><line style="stroke:#181818;stroke-width:0.4000000000000001;stroke-dasharray:5.0,5.0;" x1="1000.4" x2="1000.4" y1="66.8969" y2="771.9172"/><line style="stroke:#181818;stroke-width:0.4000000000000001;stroke-dasharray:5.0,5.0;" x1="1143.6" x2="1143.6" y1="66.8969" y2="771.9172"/><line style="stroke:#181818;stroke-width:0.4000000000000001;stroke-dasharray:5.0,5.0;" x1="1278.8" x2="1278.8" y1="66.8969" y2="771.9172"/><line style="stroke:#181818;stroke-width:0.4000000000000001;stroke-dasharray:5.0,5.0;" x1="1507.6" x2="1507.6" y1="648.7375" y2="771.9172"/><text fill="#000000" font-family="sans-serif" font-size="11.2" lengthAdjust="spacing" textLength="115.2" x="4" y="64.0859">Green Space Manager</text><ellipse cx="64" cy="10.8" fill="#E3E3E3" rx="6.4" ry="6.4" style="stroke:#181818;stroke-width:0.4000000000000001;"/><path d="M64,17.2 L64,38.8 M53.6,23.6 L74.4,23.6 M64,38.8 L53.6,50.8 M64,38.8 L74.4,50.8 " fill="none" style="stroke:#181818;stroke-width:0.4000000000000001;"/><text fill="#000000" font-family="sans-serif" font-size="11.2" lengthAdjust="spacing" textLength="115.2" x="4" y="783.2031">Green Space Manager</text><ellipse cx="64" cy="792.8141" fill="#E3E3E3" rx="6.4" ry="6.4" style="stroke:#181818;stroke-width:0.4000000000000001;"/><path d="M64,799.2141 L64,820.8141 M53.6,805.6141 L74.4,805.6141 M64,820.8141 L53.6,832.8141 M64,820.8141 L74.4,832.8141 " fill="none" style="stroke:#181818;stroke-width:0.4000000000000001;"/><rect fill="#E3E3E3" height="26.0969" rx="2" ry="2" style="stroke:#181818;stroke-width:0.4000000000000001;" width="116.8" x="271.2" y="40"/><text fill="#000000" font-family="sans-serif" font-size="11.2" lengthAdjust="spacing" textLength="105.6" x="276.8" y="57.6859">:MyGreenSpacesGUI</text><rect fill="#E3E3E3" height="26.0969" rx="2" ry="2" style="stroke:#181818;stroke-width:0.4000000000000001;" width="116.8" x="271.2" y="771.1172"/><text fill="#000000" font-family="sans-serif" font-size="11.2" lengthAdjust="spacing" textLength="105.6" x="276.8" y="788.8031">:MyGreenSpacesGUI</text><rect fill="#E3E3E3" height="26.0969" rx="2" ry="2" style="stroke:#181818;stroke-width:0.4000000000000001;" width="148" x="522" y="771.1172"/><text fill="#000000" font-family="sans-serif" font-size="11.2" lengthAdjust="spacing" textLength="136.8" x="527.6" y="788.8031">:MyGreenSpacesController</text><rect fill="#E3E3E3" height="26.0969" rx="2" ry="2" style="stroke:#181818;stroke-width:0.4000000000000001;" width="77.6" x="764.4" y="40"/><text fill="#000000" font-family="sans-serif" font-size="11.2" lengthAdjust="spacing" textLength="66.4" x="770" y="57.6859">:Repositories</text><rect fill="#E3E3E3" height="26.0969" rx="2" ry="2" style="stroke:#181818;stroke-width:0.4000000000000001;" width="77.6" x="764.4" y="771.1172"/><text fill="#000000" font-family="sans-serif" font-size="11.2" lengthAdjust="spacing" textLength="66.4" x="770" y="788.8031">:Repositories</text><rect fill="#E3E3E3" height="40.9938" rx="2" ry="2" style="stroke:#181818;stroke-width:0.4000000000000001;" width="77.6" x="850" y="25.1031"/><text fill="#000000" font-family="sans-serif" font-size="11.2" lengthAdjust="spacing" textLength="59.2" x="859.2" y="42.7891">repositories</text><text fill="#000000" font-family="sans-serif" font-size="11.2" lengthAdjust="spacing" textLength="66.4" x="855.6" y="57.6859">:Repositories</text><rect fill="#E3E3E3" height="40.9938" rx="2" ry="2" style="stroke:#181818;stroke-width:0.4000000000000001;" width="77.6" x="850" y="771.1172"/><text fill="#000000" font-family="sans-serif" font-size="11.2" lengthAdjust="spacing" textLength="59.2" x="859.2" y="788.8031">repositories</text><text fill="#000000" font-family="sans-serif" font-size="11.2" lengthAdjust="spacing" textLength="66.4" x="855.6" y="803.7">:Repositories</text><rect fill="#E3E3E3" height="40.9938" rx="2" ry="2" style="stroke:#181818;stroke-width:0.4000000000000001;" width="130.4" x="935.6" y="25.1031"/><text fill="#000000" font-family="sans-serif" font-size="11.2" lengthAdjust="spacing" textLength="119.2" x="941.2" y="42.7891">greenSpaceRepository:</text><text fill="#000000" font-family="sans-serif" font-size="11.2" lengthAdjust="spacing" textLength="118.4" x="941.6" y="57.6859">GreenSpaceRepository</text><rect fill="#E3E3E3" height="40.9938" rx="2" ry="2" style="stroke:#181818;stroke-width:0.4000000000000001;" width="130.4" x="935.6" y="771.1172"/><text fill="#000000" font-family="sans-serif" font-size="11.2" lengthAdjust="spacing" textLength="119.2" x="941.2" y="788.8031">greenSpaceRepository:</text><text fill="#000000" font-family="sans-serif" font-size="11.2" lengthAdjust="spacing" textLength="118.4" x="941.6" y="803.7">GreenSpaceRepository</text><rect fill="#E3E3E3" height="40.9938" rx="2" ry="2" style="stroke:#181818;stroke-width:0.4000000000000001;" width="140" x="1074" y="25.1031"/><text fill="#000000" font-family="sans-serif" font-size="11.2" lengthAdjust="spacing" textLength="128.8" x="1079.6" y="42.7891">authenticationRepository:</text><text fill="#000000" font-family="sans-serif" font-size="11.2" lengthAdjust="spacing" textLength="126.4" x="1080.8" y="57.6859">AuthenticationRepository</text><rect fill="#E3E3E3" height="40.9938" rx="2" ry="2" style="stroke:#181818;stroke-width:0.4000000000000001;" width="140" x="1074" y="771.1172"/><text fill="#000000" font-family="sans-serif" font-size="11.2" lengthAdjust="spacing" textLength="128.8" x="1079.6" y="788.8031">authenticationRepository:</text><text fill="#000000" font-family="sans-serif" font-size="11.2" lengthAdjust="spacing" textLength="126.4" x="1080.8" y="803.7">AuthenticationRepository</text><rect fill="#E3E3E3" height="26.0969" rx="2" ry="2" style="stroke:#181818;stroke-width:0.4000000000000001;" width="113.6" x="1222" y="40"/><text fill="#000000" font-family="sans-serif" font-size="11.2" lengthAdjust="spacing" textLength="102.4" x="1227.6" y="57.6859">GreenSpaceMapper</text><rect fill="#E3E3E3" height="26.0969" rx="2" ry="2" style="stroke:#181818;stroke-width:0.4000000000000001;" width="113.6" x="1222" y="771.1172"/><text fill="#000000" font-family="sans-serif" font-size="11.2" lengthAdjust="spacing" textLength="102.4" x="1227.6" y="788.8031">GreenSpaceMapper</text><rect fill="#E3E3E3" height="26.0969" rx="2" ry="2" style="stroke:#181818;stroke-width:0.4000000000000001;" width="99.2" x="1458" y="771.1172"/><text fill="#000000" font-family="sans-serif" font-size="11.2" lengthAdjust="spacing" textLength="88" x="1463.6" y="788.8031">GreenSpaceDTO</text><rect fill="#FFFFFF" height="682.6203" style="stroke:#181818;stroke-width:0.8000000000000002;" width="8" x="60" y="74.8969"/><rect fill="#FFFFFF" height="663.9875" style="stroke:#181818;stroke-width:0.8000000000000002;" width="8" x="325.6" y="93.5297"/><rect fill="#FFFFFF" height="553.9922" style="stroke:#181818;stroke-width:0.8000000000000002;" width="8" x="592" y="153.4594"/><rect fill="#FFFFFF" height="25.0328" style="stroke:#181818;stroke-width:0.8000000000000002;" width="8" x="799.2" y="178.4922"/><rect fill="#FFFFFF" height="25.0328" style="stroke:#181818;stroke-width:0.8000000000000002;" width="8" x="884.8" y="228.5578"/><rect fill="#FFFFFF" height="25.0328" style="stroke:#181818;stroke-width:0.8000000000000002;" width="8" x="996.8" y="328.6891"/><rect fill="#FFFFFF" height="25.0328" style="stroke:#181818;stroke-width:0.8000000000000002;" width="8" x="1140" y="278.6234"/><rect fill="#FFFFFF" height="111.5953" style="stroke:#181818;stroke-width:0.8000000000000002;" width="8" x="1274.8" y="595.8563"/><rect fill="#FFFFFF" height="26.8969" style="stroke:#181818;stroke-width:0.8000000000000002;" width="8" x="1503.6" y="649.9219"/><polygon fill="#181818" points="316,90.3297,324,93.5297,316,96.7297,319.2,93.5297" style="stroke:#181818;stroke-width:0.8000000000000002;"/><line style="stroke:#181818;stroke-width:0.8000000000000002;" x1="68" x2="320.8" y1="93.5297" y2="93.5297"/><text fill="#000000" font-family="sans-serif" font-size="10.4" font-weight="bold" lengthAdjust="spacing" textLength="5.6" x="73.6" y="89.3195">1</text><text fill="#000000" font-family="sans-serif" font-size="10.4" lengthAdjust="spacing" textLength="233.6" x="82.4" y="89.3195">requests list of all green spaces managed by them</text><polygon fill="#181818" points="512.4,115.3625,520.4,118.5625,512.4,121.7625,515.6,118.5625" style="stroke:#181818;stroke-width:0.8000000000000002;"/><line style="stroke:#181818;stroke-width:0.8000000000000002;" x1="333.6" x2="517.2" y1="118.5625" y2="118.5625"/><text fill="#000000" font-family="sans-serif" font-size="10.4" font-weight="bold" lengthAdjust="spacing" textLength="5.6" x="339.2" y="114.3523">2</text><text fill="#000000" font-family="sans-serif" font-size="10.4" lengthAdjust="spacing" textLength="28.8" x="348" y="114.3523">create</text><rect fill="#E3E3E3" height="26.0969" rx="2" ry="2" style="stroke:#181818;stroke-width:0.4000000000000001;" width="148" x="522" y="99.9297"/><text fill="#000000" font-family="sans-serif" font-size="11.2" lengthAdjust="spacing" textLength="136.8" x="527.6" y="117.6156">:MyGreenSpacesController</text><polygon fill="#181818" points="582.4,150.2594,590.4,153.4594,582.4,156.6594,585.6,153.4594" style="stroke:#181818;stroke-width:0.8000000000000002;"/><line style="stroke:#181818;stroke-width:0.8000000000000002;" x1="333.6" x2="587.2" y1="153.4594" y2="153.4594"/><text fill="#000000" font-family="sans-serif" font-size="10.4" font-weight="bold" lengthAdjust="spacing" textLength="5.6" x="339.2" y="149.2492">3</text><text fill="#000000" font-family="sans-serif" font-size="10.4" lengthAdjust="spacing" textLength="234.4" x="348" y="149.2492">initialize(URL location, ResourceBundle resources)</text><polygon fill="#181818" points="789.6,175.2922,797.6,178.4922,789.6,181.6922,792.8,178.4922" style="stroke:#181818;stroke-width:0.8000000000000002;"/><line style="stroke:#181818;stroke-width:0.8000000000000002;" x1="600" x2="794.4" y1="178.4922" y2="178.4922"/><text fill="#000000" font-family="sans-serif" font-size="10.4" font-weight="bold" lengthAdjust="spacing" textLength="5.6" x="605.6" y="174.282">4</text><text fill="#000000" font-family="sans-serif" font-size="10.4" lengthAdjust="spacing" textLength="60" x="614.4" y="174.282">getInstance()</text><polygon fill="#181818" points="608.8,200.325,600.8,203.525,608.8,206.725,605.6,203.525" style="stroke:#181818;stroke-width:0.8000000000000002;"/><line style="stroke:#181818;stroke-width:0.8000000000000002;stroke-dasharray:2.0,2.0;" x1="604" x2="802.4" y1="203.525" y2="203.525"/><text fill="#000000" font-family="sans-serif" font-size="10.4" font-weight="bold" lengthAdjust="spacing" textLength="5.6" x="613.6" y="199.3148">5</text><text fill="#000000" font-family="sans-serif" font-size="10.4" lengthAdjust="spacing" textLength="53.6" x="622.4" y="199.3148">repositories</text><polygon fill="#181818" points="875.2,225.3578,883.2,228.5578,875.2,231.7578,878.4,228.5578" style="stroke:#181818;stroke-width:0.8000000000000002;"/><line style="stroke:#181818;stroke-width:0.8000000000000002;" x1="600" x2="880" y1="228.5578" y2="228.5578"/><text fill="#000000" font-family="sans-serif" font-size="10.4" font-weight="bold" lengthAdjust="spacing" textLength="5.6" x="605.6" y="224.3477">6</text><text fill="#000000" font-family="sans-serif" font-size="10.4" lengthAdjust="spacing" textLength="128" x="614.4" y="224.3477">getGreenSpaceRepository()</text><polygon fill="#181818" points="608.8,250.3906,600.8,253.5906,608.8,256.7906,605.6,253.5906" style="stroke:#181818;stroke-width:0.8000000000000002;"/><line style="stroke:#181818;stroke-width:0.8000000000000002;stroke-dasharray:2.0,2.0;" x1="604" x2="888" y1="253.5906" y2="253.5906"/><text fill="#000000" font-family="sans-serif" font-size="10.4" font-weight="bold" lengthAdjust="spacing" textLength="5.6" x="613.6" y="249.3805">7</text><text fill="#000000" font-family="sans-serif" font-size="10.4" lengthAdjust="spacing" textLength="110.4" x="622.4" y="249.3805">greenSpacesRepository</text><polygon fill="#181818" points="1130.4,275.4234,1138.4,278.6234,1130.4,281.8234,1133.6,278.6234" style="stroke:#181818;stroke-width:0.8000000000000002;"/><line style="stroke:#181818;stroke-width:0.8000000000000002;" x1="600" x2="1135.2" y1="278.6234" y2="278.6234"/><text fill="#000000" font-family="sans-serif" font-size="10.4" font-weight="bold" lengthAdjust="spacing" textLength="5.6" x="605.6" y="274.4133">8</text><text fill="#000000" font-family="sans-serif" font-size="10.4" lengthAdjust="spacing" textLength="357.6" x="614.4" y="274.4133">getAuthenticationRepository().getCurrentUserSession().getUserId().getEmail()</text><polygon fill="#181818" points="608.8,300.4563,600.8,303.6563,608.8,306.8563,605.6,303.6563" style="stroke:#181818;stroke-width:0.8000000000000002;"/><line style="stroke:#181818;stroke-width:0.8000000000000002;stroke-dasharray:2.0,2.0;" x1="604" x2="1143.2" y1="303.6563" y2="303.6563"/><text fill="#000000" font-family="sans-serif" font-size="10.4" font-weight="bold" lengthAdjust="spacing" textLength="5.6" x="613.6" y="299.4461">9</text><text fill="#000000" font-family="sans-serif" font-size="10.4" lengthAdjust="spacing" textLength="24.8" x="622.4" y="299.4461">email</text><polygon fill="#181818" points="987.2,325.4891,995.2,328.6891,987.2,331.8891,990.4,328.6891" style="stroke:#181818;stroke-width:0.8000000000000002;"/><line style="stroke:#181818;stroke-width:0.8000000000000002;" x1="600" x2="992" y1="328.6891" y2="328.6891"/><text fill="#000000" font-family="sans-serif" font-size="10.4" font-weight="bold" lengthAdjust="spacing" textLength="11.2" x="605.6" y="324.4789">10</text><text fill="#000000" font-family="sans-serif" font-size="10.4" lengthAdjust="spacing" textLength="182.4" x="620" y="324.4789">getGreenSpaceByManagerEmail(email)</text><polygon fill="#181818" points="608.8,350.5219,600.8,353.7219,608.8,356.9219,605.6,353.7219" style="stroke:#181818;stroke-width:0.8000000000000002;"/><line style="stroke:#181818;stroke-width:0.8000000000000002;stroke-dasharray:2.0,2.0;" x1="604" x2="1000" y1="353.7219" y2="353.7219"/><text fill="#000000" font-family="sans-serif" font-size="10.4" font-weight="bold" lengthAdjust="spacing" textLength="11.2" x="613.6" y="349.5117">11</text><text fill="#000000" font-family="sans-serif" font-size="10.4" lengthAdjust="spacing" textLength="103.2" x="628" y="349.5117">greenSpacesManaged</text><line style="stroke:#181818;stroke-width:0.8000000000000002;" x1="600" x2="633.6" y1="378.7547" y2="378.7547"/><line style="stroke:#181818;stroke-width:0.8000000000000002;" x1="633.6" x2="633.6" y1="378.7547" y2="389.1547"/><line style="stroke:#181818;stroke-width:0.8000000000000002;" x1="600.8" x2="633.6" y1="389.1547" y2="389.1547"/><polygon fill="#181818" points="608.8,385.9547,600.8,389.1547,608.8,392.3547,605.6,389.1547" style="stroke:#181818;stroke-width:0.8000000000000002;"/><text fill="#000000" font-family="sans-serif" font-size="10.4" font-weight="bold" lengthAdjust="spacing" textLength="11.2" x="605.6" y="374.5445">12</text><text fill="#000000" font-family="sans-serif" font-size="10.4" lengthAdjust="spacing" textLength="88" x="620" y="374.5445">getSortingMethod()</text><line style="stroke:#181818;stroke-width:0.8000000000000002;stroke-dasharray:2.0,2.0;" x1="600" x2="633.6" y1="414.1875" y2="414.1875"/><line style="stroke:#181818;stroke-width:0.8000000000000002;stroke-dasharray:2.0,2.0;" x1="633.6" x2="633.6" y1="414.1875" y2="424.5875"/><line style="stroke:#181818;stroke-width:0.8000000000000002;stroke-dasharray:2.0,2.0;" x1="600.8" x2="633.6" y1="424.5875" y2="424.5875"/><polygon fill="#181818" points="608.8,421.3875,600.8,424.5875,608.8,427.7875,605.6,424.5875" style="stroke:#181818;stroke-width:0.8000000000000002;"/><text fill="#000000" font-family="sans-serif" font-size="10.4" font-weight="bold" lengthAdjust="spacing" textLength="11.2" x="605.6" y="409.9773">13</text><text fill="#000000" font-family="sans-serif" font-size="10.4" lengthAdjust="spacing" textLength="65.6" x="620" y="409.9773">sortingMethod</text><path d="M514,436.5875 L562.8,436.5875 L562.8,444.0203 L554.8,452.0203 L514,452.0203 L514,436.5875 " fill="#EEEEEE" style="stroke:#000000;stroke-width:1.2000000000000002;"/><rect fill="none" height="99.6031" style="stroke:#000000;stroke-width:1.2000000000000002;" width="289.2" x="514" y="436.5875"/><text fill="#000000" font-family="sans-serif" font-size="10.4" font-weight="bold" lengthAdjust="spacing" textLength="12.8" x="526" y="448.6102">alt</text><text fill="#000000" font-family="sans-serif" font-size="8.8" font-weight="bold" lengthAdjust="spacing" textLength="143.2" x="574.8" y="447.6836">[sortingMethod == "bubbleSort"]</text><line style="stroke:#181818;stroke-width:0.8000000000000002;" x1="600" x2="633.6" y1="470.6531" y2="470.6531"/><line style="stroke:#181818;stroke-width:0.8000000000000002;" x1="633.6" x2="633.6" y1="470.6531" y2="481.0531"/><line style="stroke:#181818;stroke-width:0.8000000000000002;" x1="600.8" x2="633.6" y1="481.0531" y2="481.0531"/><polygon fill="#181818" points="608.8,477.8531,600.8,481.0531,608.8,484.2531,605.6,481.0531" style="stroke:#181818;stroke-width:0.8000000000000002;"/><text fill="#000000" font-family="sans-serif" font-size="10.4" font-weight="bold" lengthAdjust="spacing" textLength="11.2" x="605.6" y="466.443">14</text><text fill="#000000" font-family="sans-serif" font-size="10.4" lengthAdjust="spacing" textLength="162.4" x="620" y="466.443">bubbleSort (greenSpacesManaged)</text><line style="stroke:#000000;stroke-width:0.8000000000000002;stroke-dasharray:2.0,2.0;" x1="514" x2="803.2" y1="488.2531" y2="488.2531"/><text fill="#000000" font-family="sans-serif" font-size="8.8" font-weight="bold" lengthAdjust="spacing" textLength="153.6" x="518" y="497.7492">[sortingMethod == "selectionSort"]</text><line style="stroke:#181818;stroke-width:0.8000000000000002;" x1="600" x2="633.6" y1="519.3906" y2="519.3906"/><line style="stroke:#181818;stroke-width:0.8000000000000002;" x1="633.6" x2="633.6" y1="519.3906" y2="529.7906"/><line style="stroke:#181818;stroke-width:0.8000000000000002;" x1="600.8" x2="633.6" y1="529.7906" y2="529.7906"/><polygon fill="#181818" points="608.8,526.5906,600.8,529.7906,608.8,532.9906,605.6,529.7906" style="stroke:#181818;stroke-width:0.8000000000000002;"/><text fill="#000000" font-family="sans-serif" font-size="10.4" font-weight="bold" lengthAdjust="spacing" textLength="11.2" x="605.6" y="515.1805">15</text><text fill="#000000" font-family="sans-serif" font-size="10.4" lengthAdjust="spacing" textLength="173.6" x="620" y="515.1805">selectionSort (greenSpacesManaged)</text><line style="stroke:#181818;stroke-width:0.8000000000000002;" x1="600" x2="633.6" y1="560.4234" y2="560.4234"/><line style="stroke:#181818;stroke-width:0.8000000000000002;" x1="633.6" x2="633.6" y1="560.4234" y2="570.8234"/><line style="stroke:#181818;stroke-width:0.8000000000000002;" x1="600.8" x2="633.6" y1="570.8234" y2="570.8234"/><polygon fill="#181818" points="608.8,567.6234,600.8,570.8234,608.8,574.0234,605.6,570.8234" style="stroke:#181818;stroke-width:0.8000000000000002;"/><text fill="#000000" font-family="sans-serif" font-size="10.4" font-weight="bold" lengthAdjust="spacing" textLength="11.2" x="605.6" y="556.2133">16</text><text fill="#000000" font-family="sans-serif" font-size="10.4" lengthAdjust="spacing" textLength="92" x="620" y="556.2133">sortedGreenSpaces</text><polygon fill="#181818" points="1265.2,592.6563,1273.2,595.8563,1265.2,599.0563,1268.4,595.8563" style="stroke:#181818;stroke-width:0.8000000000000002;"/><line style="stroke:#181818;stroke-width:0.8000000000000002;" x1="600" x2="1270" y1="595.8563" y2="595.8563"/><text fill="#000000" font-family="sans-serif" font-size="10.4" font-weight="bold" lengthAdjust="spacing" textLength="11.2" x="605.6" y="591.6461">17</text><text fill="#000000" font-family="sans-serif" font-size="10.4" lengthAdjust="spacing" textLength="131.2" x="620" y="591.6461">toDTO (sortedGreenSpaces)</text><path d="M1214,607.8563 L1272.4,607.8563 L1272.4,615.2891 L1264.4,623.2891 L1214,623.2891 L1214,607.8563 " fill="#EEEEEE" style="stroke:#000000;stroke-width:1.2000000000000002;"/><rect fill="none" height="75.3625" style="stroke:#000000;stroke-width:1.2000000000000002;" width="351.2" x="1214" y="607.8563"/><text fill="#000000" font-family="sans-serif" font-size="10.4" font-weight="bold" lengthAdjust="spacing" textLength="22.4" x="1226" y="619.8789">loop</text><text fill="#000000" font-family="sans-serif" font-size="8.8" font-weight="bold" lengthAdjust="spacing" textLength="199.2" x="1284.4" y="618.9523">[for each greenSpace in sortedGreenSpaces]</text><polygon fill="#181818" points="1448.4,638.7219,1456.4,641.9219,1448.4,645.1219,1451.6,641.9219" style="stroke:#181818;stroke-width:0.8000000000000002;"/><line style="stroke:#181818;stroke-width:0.8000000000000002;" x1="1282.8" x2="1453.2" y1="641.9219" y2="641.9219"/><text fill="#000000" font-family="sans-serif" font-size="10.4" font-weight="bold" lengthAdjust="spacing" textLength="11.2" x="1288.4" y="637.7117">18</text><text fill="#000000" font-family="sans-serif" font-size="10.4" lengthAdjust="spacing" textLength="141.6" x="1302.8" y="637.7117">create (greenSpacesManaged)</text><rect fill="#E3E3E3" height="26.0969" rx="2" ry="2" style="stroke:#181818;stroke-width:0.4000000000000001;" width="99.2" x="1458" y="623.2891"/><text fill="#000000" font-family="sans-serif" font-size="11.2" lengthAdjust="spacing" textLength="88" x="1463.6" y="640.975">GreenSpaceDTO</text><polygon fill="#181818" points="1291.6,673.6188,1283.6,676.8188,1291.6,680.0188,1288.4,676.8188" style="stroke:#181818;stroke-width:0.8000000000000002;"/><line style="stroke:#181818;stroke-width:0.8000000000000002;stroke-dasharray:2.0,2.0;" x1="1286.8" x2="1506.8" y1="676.8188" y2="676.8188"/><text fill="#000000" font-family="sans-serif" font-size="10.4" font-weight="bold" lengthAdjust="spacing" textLength="11.2" x="1296.4" y="672.6086">19</text><text fill="#000000" font-family="sans-serif" font-size="10.4" lengthAdjust="spacing" textLength="76" x="1310.8" y="672.6086">greenSpaceDTO</text><polygon fill="#181818" points="604.8,704.2516,596.8,707.4516,604.8,710.6516,601.6,707.4516" style="stroke:#181818;stroke-width:0.8000000000000002;"/><line style="stroke:#181818;stroke-width:0.8000000000000002;stroke-dasharray:2.0,2.0;" x1="600" x2="1278" y1="707.4516" y2="707.4516"/><text fill="#000000" font-family="sans-serif" font-size="10.4" font-weight="bold" lengthAdjust="spacing" textLength="11.2" x="609.6" y="703.2414">20</text><text fill="#000000" font-family="sans-serif" font-size="10.4" lengthAdjust="spacing" textLength="92.8" x="624" y="703.2414">greenSpaceDTOList</text><polygon fill="#181818" points="342.4,729.2844,334.4,732.4844,342.4,735.6844,339.2,732.4844" style="stroke:#181818;stroke-width:0.8000000000000002;"/><line style="stroke:#181818;stroke-width:0.8000000000000002;stroke-dasharray:2.0,2.0;" x1="337.6" x2="595.2" y1="732.4844" y2="732.4844"/><text fill="#000000" font-family="sans-serif" font-size="10.4" font-weight="bold" lengthAdjust="spacing" textLength="11.2" x="347.2" y="728.2742">21</text><text fill="#000000" font-family="sans-serif" font-size="10.4" lengthAdjust="spacing" textLength="92.8" x="361.6" y="728.2742">greenSpaceDTOList</text><polygon fill="#181818" points="72.8,754.3172,64.8,757.5172,72.8,760.7172,69.6,757.5172" style="stroke:#181818;stroke-width:0.8000000000000002;"/><line style="stroke:#181818;stroke-width:0.8000000000000002;stroke-dasharray:2.0,2.0;" x1="68" x2="328.8" y1="757.5172" y2="757.5172"/><text fill="#000000" font-family="sans-serif" font-size="10.4" font-weight="bold" lengthAdjust="spacing" textLength="11.2" x="77.6" y="753.307">22</text><text fill="#000000" font-family="sans-serif" font-size="10.4" lengthAdjust="spacing" textLength="164" x="92" y="753.307">displays list of sorted green spaces</text><!--SRC=[ZLRBRjim4BphAnO-EK7J3p2G0abQ60PYj8ZZMowqj969KAHAKYtSh- -IiXwKoDWwIUJix6kefVdWicQQLL0fgVAZLXM2rGrcfj-fMVx1IjpPaq3Gc5icIp46c2Chr5ykItXdmc2MiSOgsLG7rFIUMwLXiTQ84dR4XR1balZq0fY1zMwR4OlbEQ-PjB1ORKyUww5clTzus7xp6Uf9IQkL46VEfzUNvmdy1MjbE4N2qNXClt3QSPSE1HoQw975cvmJ_7f-U0qjoZwWWNpr9jUHvJRro4R8I7KyegHlPhcI0Uj3OiipfpP3zi7_bjLrru_9Oiha- -lF2PvMVBVv7sRHzpK3UkW5xhvH0s55uldTeB4613SMr3im8S2N3Onl95HU6WKSJa0fL2r5Jqegy0lk8KAYTQs-lINgN2CXOjkqoIMtd0d-3vTxMX2gBSmNKe5HZSxniP655tVxQMvwdjwt5rM_x1vFJauYKYAV9TgDD7HMSbpU17OzPKo30T8zCVQxSsgkeeCi0zC2htVJ9U8atKOUasOg2tyGPc5xhY7EuMoOaHmJ0SyPkmXJmcwZJkqkRxxIxbEZDUtk3UeT6aE8TjqjR8hs_KV5k4WbcZnLi-IJOTuDcaJdAbM1wrnrLObrQzh7nzFvhzkcwBqdyep-bsOvHfsEyXjrlFLSf9AzxAzBjAD6krFqLvBb5krHKU-oUNojpM1anXO1Ego2i24KxkzXSMWE1u7EwIBXgFSpG64vhq5OSgHf6V5cKD2KfSPVvJ10N-5J5fyMruM3nMYuPfT4rmuAChMAPW0iPmmNTNOUDG5CA5N3ErqTI2Z7aPhePnw9CQtEStH1n1JcQ6XShbaYR3_n8F8442_2IBNAW6TA4JqVK-2ib_EqOmUIQ9vf05y-Z-U-972fYTXD-xJ398cRsgvQT6TOGS5DBTXfk2sqRGyk3Dc4pjqGngdGBUG_]--></g></svg>