<svg xmlns="http://www.w3.org/2000/svg" xmlns:xlink="http://www.w3.org/1999/xlink" contentStyleType="text/css" height="1533px" preserveAspectRatio="none" style="width:2185px;height:1533px;background:#FFFFFF;" version="1.1" viewBox="0 0 2185 1533" width="2185px" zoomAndPan="magnify"><defs/><g><!--class AssignTrainUI--><g id="elem_AssignTrainUI"><rect codeLine="6" fill="#F1F1F1" height="48" id="AssignTrainUI" rx="2.5" ry="2.5" style="stroke:#181818;stroke-width:0.5;" width="119.917" x="1292.5" y="7"/><ellipse cx="1307.5" cy="23" fill="#ADD1B2" rx="11" ry="11" style="stroke:#181818;stroke-width:1.0;"/><path d="M1310.2656,18.875 Q1310.4219,18.6563 1310.6094,18.5469 Q1310.7969,18.4375 1311.0156,18.4375 Q1311.3906,18.4375 1311.625,18.7031 Q1311.8594,18.9531 1311.8594,19.5625 L1311.8594,21.0156 Q1311.8594,21.625 1311.625,21.8906 Q1311.3906,22.1563 1311.0156,22.1563 Q1310.6719,22.1563 1310.4688,21.9531 Q1310.2656,21.7656 1310.1563,21.25 Q1310.1094,20.8906 1309.9219,20.7031 Q1309.5938,20.3281 1308.9844,20.1094 Q1308.375,19.8906 1307.75,19.8906 Q1306.9844,19.8906 1306.3438,20.2188 Q1305.7188,20.5469 1305.2188,21.2969 Q1304.7344,22.0469 1304.7344,23.0781 L1304.7344,24.1719 Q1304.7344,25.4063 1305.625,26.2344 Q1306.5156,27.0469 1308.1094,27.0469 Q1309.0469,27.0469 1309.7031,26.7969 Q1310.0938,26.6406 1310.5156,26.2031 Q1310.7813,25.9375 1310.9219,25.8594 Q1311.0781,25.7813 1311.2813,25.7813 Q1311.6094,25.7813 1311.8594,26.0469 Q1312.125,26.2969 1312.125,26.6406 Q1312.125,26.9844 1311.7813,27.3906 Q1311.2813,27.9688 1310.4844,28.2969 Q1309.4063,28.75 1308.1094,28.75 Q1306.5938,28.75 1305.3906,28.125 Q1304.4063,27.625 1303.7188,26.5625 Q1303.0313,25.4844 1303.0313,24.2031 L1303.0313,23.0469 Q1303.0313,21.7188 1303.6406,20.5781 Q1304.2656,19.4219 1305.3594,18.8125 Q1306.4531,18.1875 1307.6875,18.1875 Q1308.4219,18.1875 1309.0625,18.3594 Q1309.7188,18.5156 1310.2656,18.875 Z " fill="#000000"/><text fill="#000000" font-family="sans-serif" font-size="14" lengthAdjust="spacing" textLength="87.917" x="1321.5" y="28.7969">AssignTrainUI</text><line style="stroke:#181818;stroke-width:0.5;" x1="1293.5" x2="1411.417" y1="39" y2="39"/><line style="stroke:#181818;stroke-width:0.5;" x1="1293.5" x2="1411.417" y1="47" y2="47"/></g><!--class AssignTrainController--><g id="elem_AssignTrainController"><rect codeLine="9" fill="#F1F1F1" height="252.832" id="AssignTrainController" rx="2.5" ry="2.5" style="stroke:#181818;stroke-width:0.5;" width="271.5127" x="1216.5" y="116"/><ellipse cx="1280.7031" cy="132" fill="#ADD1B2" rx="11" ry="11" style="stroke:#181818;stroke-width:1.0;"/><path d="M1283.4688,127.875 Q1283.625,127.6563 1283.8125,127.5469 Q1284,127.4375 1284.2188,127.4375 Q1284.5938,127.4375 1284.8281,127.7031 Q1285.0625,127.9531 1285.0625,128.5625 L1285.0625,130.0156 Q1285.0625,130.625 1284.8281,130.8906 Q1284.5938,131.1563 1284.2188,131.1563 Q1283.875,131.1563 1283.6719,130.9531 Q1283.4688,130.7656 1283.3594,130.25 Q1283.3125,129.8906 1283.125,129.7031 Q1282.7969,129.3281 1282.1875,129.1094 Q1281.5781,128.8906 1280.9531,128.8906 Q1280.1875,128.8906 1279.5469,129.2188 Q1278.9219,129.5469 1278.4219,130.2969 Q1277.9375,131.0469 1277.9375,132.0781 L1277.9375,133.1719 Q1277.9375,134.4063 1278.8281,135.2344 Q1279.7188,136.0469 1281.3125,136.0469 Q1282.25,136.0469 1282.9063,135.7969 Q1283.2969,135.6406 1283.7188,135.2031 Q1283.9844,134.9375 1284.125,134.8594 Q1284.2813,134.7813 1284.4844,134.7813 Q1284.8125,134.7813 1285.0625,135.0469 Q1285.3281,135.2969 1285.3281,135.6406 Q1285.3281,135.9844 1284.9844,136.3906 Q1284.4844,136.9688 1283.6875,137.2969 Q1282.6094,137.75 1281.3125,137.75 Q1279.7969,137.75 1278.5938,137.125 Q1277.6094,136.625 1276.9219,135.5625 Q1276.2344,134.4844 1276.2344,133.2031 L1276.2344,132.0469 Q1276.2344,130.7188 1276.8438,129.5781 Q1277.4688,128.4219 1278.5625,127.8125 Q1279.6563,127.1875 1280.8906,127.1875 Q1281.625,127.1875 1282.2656,127.3594 Q1282.9219,127.5156 1283.4688,127.875 Z " fill="#000000"/><text fill="#000000" font-family="sans-serif" font-size="14" lengthAdjust="spacing" textLength="134.6064" x="1301.2031" y="137.7969">AssignTrainController</text><line style="stroke:#181818;stroke-width:0.5;" x1="1217.5" x2="1487.0127" y1="148" y2="148"/><line style="stroke:#181818;stroke-width:0.5;" x1="1217.5" x2="1487.0127" y1="156" y2="156"/><text fill="#000000" font-family="sans-serif" font-size="14" lengthAdjust="spacing" textLength="152.1064" x="1222.5" y="175.1074">+AssignTrainController()</text><text fill="#000000" font-family="sans-serif" font-size="14" lengthAdjust="spacing" textLength="192.5957" x="1222.5" y="193.7285">+getListOfAvailableScenarios()</text><text fill="#000000" font-family="sans-serif" font-size="14" lengthAdjust="spacing" textLength="144.3477" x="1222.5" y="212.3496">+setScenario(scenario)</text><text fill="#000000" font-family="sans-serif" font-size="14" lengthAdjust="spacing" textLength="201.9336" x="1222.5" y="230.9707">+getListOfAvailableLocomotive()</text><text fill="#000000" font-family="sans-serif" font-size="14" lengthAdjust="spacing" textLength="174.6855" x="1222.5" y="249.5918">+setLocomotive(locomotive)</text><text fill="#000000" font-family="sans-serif" font-size="14" lengthAdjust="spacing" textLength="180.9268" x="1222.5" y="268.2129">+getListOfAvailableStations()</text><text fill="#000000" font-family="sans-serif" font-size="14" lengthAdjust="spacing" textLength="125.6924" x="1222.5" y="286.834">+addStation(station)</text><text fill="#000000" font-family="sans-serif" font-size="14" lengthAdjust="spacing" textLength="250.9814" x="1222.5" y="305.4551">+areConnected(previousStation, station)</text><text fill="#000000" font-family="sans-serif" font-size="14" lengthAdjust="spacing" textLength="133.4512" x="1222.5" y="324.0762">+checkCargo(station)</text><text fill="#000000" font-family="sans-serif" font-size="14" lengthAdjust="spacing" textLength="109.3271" x="1222.5" y="342.6973">+setCargo(cargo)</text><text fill="#000000" font-family="sans-serif" font-size="14" lengthAdjust="spacing" textLength="259.5127" x="1222.5" y="361.3184">+createRoute(locomotive, stations, cargo)</text></g><!--class Repositories--><g id="elem_Repositories"><rect codeLine="23" fill="#F1F1F1" height="122.4844" id="Repositories" rx="2.5" ry="2.5" style="stroke:#181818;stroke-width:0.5;" width="187.4717" x="792" y="430"/><ellipse cx="842.5791" cy="446" fill="#ADD1B2" rx="11" ry="11" style="stroke:#181818;stroke-width:1.0;"/><path d="M845.3447,441.875 Q845.501,441.6563 845.6885,441.5469 Q845.876,441.4375 846.0947,441.4375 Q846.4697,441.4375 846.7041,441.7031 Q846.9385,441.9531 846.9385,442.5625 L846.9385,444.0156 Q846.9385,444.625 846.7041,444.8906 Q846.4697,445.1563 846.0947,445.1563 Q845.751,445.1563 845.5479,444.9531 Q845.3447,444.7656 845.2354,444.25 Q845.1885,443.8906 845.001,443.7031 Q844.6729,443.3281 844.0635,443.1094 Q843.4541,442.8906 842.8291,442.8906 Q842.0635,442.8906 841.4229,443.2188 Q840.7979,443.5469 840.2979,444.2969 Q839.8135,445.0469 839.8135,446.0781 L839.8135,447.1719 Q839.8135,448.4063 840.7041,449.2344 Q841.5947,450.0469 843.1885,450.0469 Q844.126,450.0469 844.7822,449.7969 Q845.1729,449.6406 845.5947,449.2031 Q845.8604,448.9375 846.001,448.8594 Q846.1572,448.7813 846.3604,448.7813 Q846.6885,448.7813 846.9385,449.0469 Q847.2041,449.2969 847.2041,449.6406 Q847.2041,449.9844 846.8604,450.3906 Q846.3604,450.9688 845.5635,451.2969 Q844.4854,451.75 843.1885,451.75 Q841.6729,451.75 840.4697,451.125 Q839.4854,450.625 838.7979,449.5625 Q838.1104,448.4844 838.1104,447.2031 L838.1104,446.0469 Q838.1104,444.7188 838.7197,443.5781 Q839.3447,442.4219 840.4385,441.8125 Q841.5322,441.1875 842.7666,441.1875 Q843.501,441.1875 844.1416,441.3594 Q844.7979,441.5156 845.3447,441.875 Z " fill="#000000"/><text fill="#000000" font-family="sans-serif" font-size="14" lengthAdjust="spacing" textLength="77.8135" x="863.0791" y="451.7969">Repositories</text><line style="stroke:#181818;stroke-width:0.5;" x1="793" x2="978.4717" y1="462" y2="462"/><line style="stroke:#181818;stroke-width:0.5;" x1="793" x2="978.4717" y1="470" y2="470"/><text fill="#000000" font-family="sans-serif" font-size="14" lengthAdjust="spacing" textLength="89.8857" x="798" y="489.1074">+getInstance()</text><text fill="#000000" font-family="sans-serif" font-size="14" lengthAdjust="spacing" textLength="159.1338" x="798" y="507.7285">+getScenarioRepository()</text><text fill="#000000" font-family="sans-serif" font-size="14" lengthAdjust="spacing" textLength="147.4648" x="798" y="526.3496">+getStationRepository()</text><text fill="#000000" font-family="sans-serif" font-size="14" lengthAdjust="spacing" textLength="175.4717" x="798" y="544.9707">+getLocomotiveRepository()</text></g><!--class Scenario--><g id="elem_Scenario"><rect codeLine="30" fill="#F1F1F1" height="215.5898" id="Scenario" rx="2.5" ry="2.5" style="stroke:#181818;stroke-width:0.5;" width="299.1504" x="549" y="870"/><ellipse cx="666.6978" cy="886" fill="#ADD1B2" rx="11" ry="11" style="stroke:#181818;stroke-width:1.0;"/><path d="M669.4634,881.875 Q669.6196,881.6563 669.8071,881.5469 Q669.9946,881.4375 670.2134,881.4375 Q670.5884,881.4375 670.8228,881.7031 Q671.0571,881.9531 671.0571,882.5625 L671.0571,884.0156 Q671.0571,884.625 670.8228,884.8906 Q670.5884,885.1563 670.2134,885.1563 Q669.8696,885.1563 669.6665,884.9531 Q669.4634,884.7656 669.354,884.25 Q669.3071,883.8906 669.1196,883.7031 Q668.7915,883.3281 668.1821,883.1094 Q667.5728,882.8906 666.9478,882.8906 Q666.1821,882.8906 665.5415,883.2188 Q664.9165,883.5469 664.4165,884.2969 Q663.9321,885.0469 663.9321,886.0781 L663.9321,887.1719 Q663.9321,888.4063 664.8228,889.2344 Q665.7134,890.0469 667.3071,890.0469 Q668.2446,890.0469 668.9009,889.7969 Q669.2915,889.6406 669.7134,889.2031 Q669.979,888.9375 670.1196,888.8594 Q670.2759,888.7813 670.479,888.7813 Q670.8071,888.7813 671.0571,889.0469 Q671.3228,889.2969 671.3228,889.6406 Q671.3228,889.9844 670.979,890.3906 Q670.479,890.9688 669.6821,891.2969 Q668.604,891.75 667.3071,891.75 Q665.7915,891.75 664.5884,891.125 Q663.604,890.625 662.9165,889.5625 Q662.229,888.4844 662.229,887.2031 L662.229,886.0469 Q662.229,884.7188 662.8384,883.5781 Q663.4634,882.4219 664.5571,881.8125 Q665.6509,881.1875 666.8853,881.1875 Q667.6196,881.1875 668.2603,881.3594 Q668.9165,881.5156 669.4634,881.875 Z " fill="#000000"/><text fill="#000000" font-family="sans-serif" font-size="14" lengthAdjust="spacing" textLength="55.2549" x="687.1978" y="891.7969">Scenario</text><line style="stroke:#181818;stroke-width:0.5;" x1="550" x2="847.1504" y1="902" y2="902"/><text fill="#000000" font-family="sans-serif" font-size="14" lengthAdjust="spacing" textLength="84.0342" x="555" y="921.1074">-name: String</text><text fill="#000000" font-family="sans-serif" font-size="14" lengthAdjust="spacing" textLength="116.7168" x="555" y="939.7285">-description: String</text><text fill="#000000" font-family="sans-serif" font-size="14" lengthAdjust="spacing" textLength="100.3516" x="555" y="958.3496">-startTime: Date</text><text fill="#000000" font-family="sans-serif" font-size="14" lengthAdjust="spacing" textLength="96.4824" x="555" y="976.9707">-endTime: Date</text><text fill="#000000" font-family="sans-serif" font-size="14" lengthAdjust="spacing" textLength="66.9102" x="555" y="995.5918">-map: Map</text><text fill="#000000" font-family="sans-serif" font-size="14" lengthAdjust="spacing" textLength="287.1504" x="555" y="1014.2129">-availableLocomotives: List&lt;LocomotiveType&gt;</text><text fill="#000000" font-family="sans-serif" font-size="14" lengthAdjust="spacing" textLength="107.3789" x="555" y="1032.834">-ports: List&lt;Port&gt;</text><text fill="#000000" font-family="sans-serif" font-size="14" lengthAdjust="spacing" textLength="160.2959" x="555" y="1051.4551">-industries: List&lt;Industry&gt;</text><line style="stroke:#181818;stroke-width:0.5;" x1="550" x2="847.1504" y1="1058.9688" y2="1058.9688"/><text fill="#000000" font-family="sans-serif" font-size="14" lengthAdjust="spacing" textLength="206.582" x="555" y="1078.0762">+getScenarioByStartTime(): Date</text></g><!--class HistoricalEvent--><g id="elem_HistoricalEvent"><rect codeLine="42" fill="#F1F1F1" height="103.8633" id="HistoricalEvent" rx="2.5" ry="2.5" style="stroke:#181818;stroke-width:0.5;" width="169.1719" x="708" y="1193"/><ellipse cx="742.713" cy="1209" fill="#ADD1B2" rx="11" ry="11" style="stroke:#181818;stroke-width:1.0;"/><path d="M745.4786,1204.875 Q745.6349,1204.6563 745.8224,1204.5469 Q746.0099,1204.4375 746.2286,1204.4375 Q746.6036,1204.4375 746.838,1204.7031 Q747.0724,1204.9531 747.0724,1205.5625 L747.0724,1207.0156 Q747.0724,1207.625 746.838,1207.8906 Q746.6036,1208.1563 746.2286,1208.1563 Q745.8849,1208.1563 745.6817,1207.9531 Q745.4786,1207.7656 745.3692,1207.25 Q745.3224,1206.8906 745.1349,1206.7031 Q744.8067,1206.3281 744.1974,1206.1094 Q743.588,1205.8906 742.963,1205.8906 Q742.1974,1205.8906 741.5567,1206.2188 Q740.9317,1206.5469 740.4317,1207.2969 Q739.9474,1208.0469 739.9474,1209.0781 L739.9474,1210.1719 Q739.9474,1211.4063 740.838,1212.2344 Q741.7286,1213.0469 743.3224,1213.0469 Q744.2599,1213.0469 744.9161,1212.7969 Q745.3067,1212.6406 745.7286,1212.2031 Q745.9942,1211.9375 746.1349,1211.8594 Q746.2911,1211.7813 746.4942,1211.7813 Q746.8224,1211.7813 747.0724,1212.0469 Q747.338,1212.2969 747.338,1212.6406 Q747.338,1212.9844 746.9942,1213.3906 Q746.4942,1213.9688 745.6974,1214.2969 Q744.6192,1214.75 743.3224,1214.75 Q741.8067,1214.75 740.6036,1214.125 Q739.6192,1213.625 738.9317,1212.5625 Q738.2442,1211.4844 738.2442,1210.2031 L738.2442,1209.0469 Q738.2442,1207.7188 738.8536,1206.5781 Q739.4786,1205.4219 740.5724,1204.8125 Q741.6661,1204.1875 742.9005,1204.1875 Q743.6349,1204.1875 744.2755,1204.3594 Q744.9317,1204.5156 745.4786,1204.875 Z " fill="#000000"/><text fill="#000000" font-family="sans-serif" font-size="14" lengthAdjust="spacing" textLength="93.3652" x="761.0937" y="1214.7969">HistoricalEvent</text><line style="stroke:#181818;stroke-width:0.5;" x1="709" x2="876.1719" y1="1225" y2="1225"/><text fill="#000000" font-family="sans-serif" font-size="14" lengthAdjust="spacing" textLength="87.9238" x="714" y="1244.1074">-name : String</text><text fill="#000000" font-family="sans-serif" font-size="14" lengthAdjust="spacing" textLength="120.6064" x="714" y="1262.7285">-description : String</text><text fill="#000000" font-family="sans-serif" font-size="14" lengthAdjust="spacing" textLength="157.1719" x="714" y="1281.3496">-effectDescription : String</text><line style="stroke:#181818;stroke-width:0.5;" x1="709" x2="876.1719" y1="1288.8633" y2="1288.8633"/></g><!--class Map--><g id="elem_Map"><rect codeLine="48" fill="#F1F1F1" height="122.4844" id="Map" rx="2.5" ry="2.5" style="stroke:#181818;stroke-width:0.5;" width="178.1201" x="912.5" y="1184"/><ellipse cx="983.6929" cy="1200" fill="#ADD1B2" rx="11" ry="11" style="stroke:#181818;stroke-width:1.0;"/><path d="M986.4585,1195.875 Q986.6147,1195.6563 986.8022,1195.5469 Q986.9897,1195.4375 987.2085,1195.4375 Q987.5835,1195.4375 987.8179,1195.7031 Q988.0522,1195.9531 988.0522,1196.5625 L988.0522,1198.0156 Q988.0522,1198.625 987.8179,1198.8906 Q987.5835,1199.1563 987.2085,1199.1563 Q986.8647,1199.1563 986.6616,1198.9531 Q986.4585,1198.7656 986.3491,1198.25 Q986.3022,1197.8906 986.1147,1197.7031 Q985.7866,1197.3281 985.1772,1197.1094 Q984.5679,1196.8906 983.9429,1196.8906 Q983.1772,1196.8906 982.5366,1197.2188 Q981.9116,1197.5469 981.4116,1198.2969 Q980.9272,1199.0469 980.9272,1200.0781 L980.9272,1201.1719 Q980.9272,1202.4063 981.8179,1203.2344 Q982.7085,1204.0469 984.3022,1204.0469 Q985.2397,1204.0469 985.896,1203.7969 Q986.2866,1203.6406 986.7085,1203.2031 Q986.9741,1202.9375 987.1147,1202.8594 Q987.271,1202.7813 987.4741,1202.7813 Q987.8022,1202.7813 988.0522,1203.0469 Q988.3179,1203.2969 988.3179,1203.6406 Q988.3179,1203.9844 987.9741,1204.3906 Q987.4741,1204.9688 986.6772,1205.2969 Q985.5991,1205.75 984.3022,1205.75 Q982.7866,1205.75 981.5835,1205.125 Q980.5991,1204.625 979.9116,1203.5625 Q979.2241,1202.4844 979.2241,1201.2031 L979.2241,1200.0469 Q979.2241,1198.7188 979.8335,1197.5781 Q980.4585,1196.4219 981.5522,1195.8125 Q982.646,1195.1875 983.8804,1195.1875 Q984.6147,1195.1875 985.2554,1195.3594 Q985.9116,1195.5156 986.4585,1195.875 Z " fill="#000000"/><text fill="#000000" font-family="sans-serif" font-size="14" lengthAdjust="spacing" textLength="27.2344" x="1004.1929" y="1205.7969">Map</text><line style="stroke:#181818;stroke-width:0.5;" x1="913.5" x2="1089.6201" y1="1216" y2="1216"/><text fill="#000000" font-family="sans-serif" font-size="14" lengthAdjust="spacing" textLength="87.9238" x="918.5" y="1235.1074">-name : String</text><text fill="#000000" font-family="sans-serif" font-size="14" lengthAdjust="spacing" textLength="63.7998" x="918.5" y="1253.7285">-width : int</text><text fill="#000000" font-family="sans-serif" font-size="14" lengthAdjust="spacing" textLength="69.2617" x="918.5" y="1272.3496">-length : int</text><line style="stroke:#181818;stroke-width:0.5;" x1="913.5" x2="1089.6201" y1="1279.8633" y2="1279.8633"/><text fill="#000000" font-family="sans-serif" font-size="14" lengthAdjust="spacing" textLength="166.1201" x="918.5" y="1298.9707">+getMapByName() : String</text></g><!--class ScenarioRepository--><g id="elem_ScenarioRepository"><rect codeLine="55" fill="#F1F1F1" height="66.6211" id="ScenarioRepository" rx="2.5" ry="2.5" style="stroke:#181818;stroke-width:0.5;" width="204.5957" x="480" y="677.5"/><ellipse cx="517.6907" cy="693.5" fill="#ADD1B2" rx="11" ry="11" style="stroke:#181818;stroke-width:1.0;"/><path d="M520.4563,689.375 Q520.6126,689.1563 520.8001,689.0469 Q520.9876,688.9375 521.2063,688.9375 Q521.5813,688.9375 521.8157,689.2031 Q522.0501,689.4531 522.0501,690.0625 L522.0501,691.5156 Q522.0501,692.125 521.8157,692.3906 Q521.5813,692.6563 521.2063,692.6563 Q520.8626,692.6563 520.6595,692.4531 Q520.4563,692.2656 520.347,691.75 Q520.3001,691.3906 520.1126,691.2031 Q519.7845,690.8281 519.1751,690.6094 Q518.5657,690.3906 517.9407,690.3906 Q517.1751,690.3906 516.5345,690.7188 Q515.9095,691.0469 515.4095,691.7969 Q514.9251,692.5469 514.9251,693.5781 L514.9251,694.6719 Q514.9251,695.9063 515.8157,696.7344 Q516.7063,697.5469 518.3001,697.5469 Q519.2376,697.5469 519.8938,697.2969 Q520.2845,697.1406 520.7063,696.7031 Q520.972,696.4375 521.1126,696.3594 Q521.2688,696.2813 521.472,696.2813 Q521.8001,696.2813 522.0501,696.5469 Q522.3157,696.7969 522.3157,697.1406 Q522.3157,697.4844 521.972,697.8906 Q521.472,698.4688 520.6751,698.7969 Q519.597,699.25 518.3001,699.25 Q516.7845,699.25 515.5813,698.625 Q514.597,698.125 513.9095,697.0625 Q513.222,695.9844 513.222,694.7031 L513.222,693.5469 Q513.222,692.2188 513.8313,691.0781 Q514.4563,689.9219 515.5501,689.3125 Q516.6438,688.6875 517.8782,688.6875 Q518.6126,688.6875 519.2532,688.8594 Q519.9095,689.0156 520.4563,689.375 Z " fill="#000000"/><text fill="#000000" font-family="sans-serif" font-size="14" lengthAdjust="spacing" textLength="122.1719" x="536.7331" y="699.2969">ScenarioRepository</text><line style="stroke:#181818;stroke-width:0.5;" x1="481" x2="683.5957" y1="709.5" y2="709.5"/><line style="stroke:#181818;stroke-width:0.5;" x1="481" x2="683.5957" y1="717.5" y2="717.5"/><text fill="#000000" font-family="sans-serif" font-size="14" lengthAdjust="spacing" textLength="192.5957" x="486" y="736.6074">+getListOfAvailableScenarios()</text></g><!--class LocomotiveRepository--><g id="elem_LocomotiveRepository"><rect codeLine="59" fill="#F1F1F1" height="66.6211" id="LocomotiveRepository" rx="2.5" ry="2.5" style="stroke:#181818;stroke-width:0.5;" width="220.9336" x="1153" y="677.5"/><ellipse cx="1190.6907" cy="693.5" fill="#ADD1B2" rx="11" ry="11" style="stroke:#181818;stroke-width:1.0;"/><path d="M1193.4563,689.375 Q1193.6126,689.1563 1193.8001,689.0469 Q1193.9876,688.9375 1194.2063,688.9375 Q1194.5813,688.9375 1194.8157,689.2031 Q1195.0501,689.4531 1195.0501,690.0625 L1195.0501,691.5156 Q1195.0501,692.125 1194.8157,692.3906 Q1194.5813,692.6563 1194.2063,692.6563 Q1193.8626,692.6563 1193.6595,692.4531 Q1193.4563,692.2656 1193.347,691.75 Q1193.3001,691.3906 1193.1126,691.2031 Q1192.7845,690.8281 1192.1751,690.6094 Q1191.5657,690.3906 1190.9407,690.3906 Q1190.1751,690.3906 1189.5345,690.7188 Q1188.9095,691.0469 1188.4095,691.7969 Q1187.9251,692.5469 1187.9251,693.5781 L1187.9251,694.6719 Q1187.9251,695.9063 1188.8157,696.7344 Q1189.7063,697.5469 1191.3001,697.5469 Q1192.2376,697.5469 1192.8938,697.2969 Q1193.2845,697.1406 1193.7063,696.7031 Q1193.972,696.4375 1194.1126,696.3594 Q1194.2688,696.2813 1194.472,696.2813 Q1194.8001,696.2813 1195.0501,696.5469 Q1195.3157,696.7969 1195.3157,697.1406 Q1195.3157,697.4844 1194.972,697.8906 Q1194.472,698.4688 1193.6751,698.7969 Q1192.597,699.25 1191.3001,699.25 Q1189.7845,699.25 1188.5813,698.625 Q1187.597,698.125 1186.9095,697.0625 Q1186.222,695.9844 1186.222,694.7031 L1186.222,693.5469 Q1186.222,692.2188 1186.8313,691.0781 Q1187.4563,689.9219 1188.5501,689.3125 Q1189.6438,688.6875 1190.8782,688.6875 Q1191.6126,688.6875 1192.2532,688.8594 Q1192.9095,689.0156 1193.4563,689.375 Z " fill="#000000"/><text fill="#000000" font-family="sans-serif" font-size="14" lengthAdjust="spacing" textLength="138.5098" x="1209.7331" y="699.2969">LocomotiveRepository</text><line style="stroke:#181818;stroke-width:0.5;" x1="1154" x2="1372.9336" y1="709.5" y2="709.5"/><line style="stroke:#181818;stroke-width:0.5;" x1="1154" x2="1372.9336" y1="717.5" y2="717.5"/><text fill="#000000" font-family="sans-serif" font-size="14" lengthAdjust="spacing" textLength="208.9336" x="1159" y="736.6074">+getListOfAvailableLocomotives()</text></g><!--class Station--><g id="elem_Station"><rect codeLine="63" fill="#F1F1F1" height="178.3477" id="Station" rx="2.5" ry="2.5" style="stroke:#181818;stroke-width:0.5;" width="175.4131" x="1009" y="889"/><ellipse cx="1070.6636" cy="905" fill="#ADD1B2" rx="11" ry="11" style="stroke:#181818;stroke-width:1.0;"/><path d="M1073.4292,900.875 Q1073.5854,900.6563 1073.7729,900.5469 Q1073.9604,900.4375 1074.1792,900.4375 Q1074.5542,900.4375 1074.7886,900.7031 Q1075.0229,900.9531 1075.0229,901.5625 L1075.0229,903.0156 Q1075.0229,903.625 1074.7886,903.8906 Q1074.5542,904.1563 1074.1792,904.1563 Q1073.8354,904.1563 1073.6323,903.9531 Q1073.4292,903.7656 1073.3198,903.25 Q1073.2729,902.8906 1073.0854,902.7031 Q1072.7573,902.3281 1072.1479,902.1094 Q1071.5386,901.8906 1070.9136,901.8906 Q1070.1479,901.8906 1069.5073,902.2188 Q1068.8823,902.5469 1068.3823,903.2969 Q1067.8979,904.0469 1067.8979,905.0781 L1067.8979,906.1719 Q1067.8979,907.4063 1068.7886,908.2344 Q1069.6792,909.0469 1071.2729,909.0469 Q1072.2104,909.0469 1072.8667,908.7969 Q1073.2573,908.6406 1073.6792,908.2031 Q1073.9448,907.9375 1074.0854,907.8594 Q1074.2417,907.7813 1074.4448,907.7813 Q1074.7729,907.7813 1075.0229,908.0469 Q1075.2886,908.2969 1075.2886,908.6406 Q1075.2886,908.9844 1074.9448,909.3906 Q1074.4448,909.9688 1073.6479,910.2969 Q1072.5698,910.75 1071.2729,910.75 Q1069.7573,910.75 1068.5542,910.125 Q1067.5698,909.625 1066.8823,908.5625 Q1066.1948,907.4844 1066.1948,906.2031 L1066.1948,905.0469 Q1066.1948,903.7188 1066.8042,902.5781 Q1067.4292,901.4219 1068.5229,900.8125 Q1069.6167,900.1875 1070.8511,900.1875 Q1071.5854,900.1875 1072.2261,900.3594 Q1072.8823,900.5156 1073.4292,900.875 Z " fill="#000000"/><text fill="#000000" font-family="sans-serif" font-size="14" lengthAdjust="spacing" textLength="43.5859" x="1091.1636" y="910.7969">Station</text><line style="stroke:#181818;stroke-width:0.5;" x1="1010" x2="1183.4131" y1="921" y2="921"/><text fill="#000000" font-family="sans-serif" font-size="14" lengthAdjust="spacing" textLength="87.9238" x="1015" y="940.1074">-name : String</text><text fill="#000000" font-family="sans-serif" font-size="14" lengthAdjust="spacing" textLength="117.5166" x="1015" y="958.7285">-location : Location</text><text fill="#000000" font-family="sans-serif" font-size="14" lengthAdjust="spacing" textLength="163.4131" x="1015" y="977.3496">-stationType : StationType</text><text fill="#000000" font-family="sans-serif" font-size="14" lengthAdjust="spacing" textLength="108.1719" x="1015" y="995.9707">-center : Location</text><text fill="#000000" font-family="sans-serif" font-size="14" lengthAdjust="spacing" textLength="114.4063" x="1015" y="1014.5918">-building : Building</text><text fill="#000000" font-family="sans-serif" font-size="14" lengthAdjust="spacing" textLength="89.4824" x="1015" y="1033.2129">-cargo : Cargo</text><line style="stroke:#181818;stroke-width:0.5;" x1="1010" x2="1183.4131" y1="1040.7266" y2="1040.7266"/><text fill="#000000" font-family="sans-serif" font-size="14" lengthAdjust="spacing" textLength="133.4512" x="1015" y="1059.834">+checkCargo(station)</text></g><!--class StationRepository--><g id="elem_StationRepository"><rect codeLine="74" fill="#F1F1F1" height="66.6211" id="StationRepository" rx="2.5" ry="2.5" style="stroke:#181818;stroke-width:0.5;" width="192.9268" x="853" y="677.5"/><ellipse cx="890.6907" cy="693.5" fill="#ADD1B2" rx="11" ry="11" style="stroke:#181818;stroke-width:1.0;"/><path d="M893.4563,689.375 Q893.6126,689.1563 893.8001,689.0469 Q893.9876,688.9375 894.2063,688.9375 Q894.5813,688.9375 894.8157,689.2031 Q895.0501,689.4531 895.0501,690.0625 L895.0501,691.5156 Q895.0501,692.125 894.8157,692.3906 Q894.5813,692.6563 894.2063,692.6563 Q893.8626,692.6563 893.6595,692.4531 Q893.4563,692.2656 893.347,691.75 Q893.3001,691.3906 893.1126,691.2031 Q892.7845,690.8281 892.1751,690.6094 Q891.5657,690.3906 890.9407,690.3906 Q890.1751,690.3906 889.5345,690.7188 Q888.9095,691.0469 888.4095,691.7969 Q887.9251,692.5469 887.9251,693.5781 L887.9251,694.6719 Q887.9251,695.9063 888.8157,696.7344 Q889.7063,697.5469 891.3001,697.5469 Q892.2376,697.5469 892.8938,697.2969 Q893.2845,697.1406 893.7063,696.7031 Q893.972,696.4375 894.1126,696.3594 Q894.2688,696.2813 894.472,696.2813 Q894.8001,696.2813 895.0501,696.5469 Q895.3157,696.7969 895.3157,697.1406 Q895.3157,697.4844 894.972,697.8906 Q894.472,698.4688 893.6751,698.7969 Q892.597,699.25 891.3001,699.25 Q889.7845,699.25 888.5813,698.625 Q887.597,698.125 886.9095,697.0625 Q886.222,695.9844 886.222,694.7031 L886.222,693.5469 Q886.222,692.2188 886.8313,691.0781 Q887.4563,689.9219 888.5501,689.3125 Q889.6438,688.6875 890.8782,688.6875 Q891.6126,688.6875 892.2532,688.8594 Q892.9095,689.0156 893.4563,689.375 Z " fill="#000000"/><text fill="#000000" font-family="sans-serif" font-size="14" lengthAdjust="spacing" textLength="110.5029" x="909.7331" y="699.2969">StationRepository</text><line style="stroke:#181818;stroke-width:0.5;" x1="854" x2="1044.9268" y1="709.5" y2="709.5"/><line style="stroke:#181818;stroke-width:0.5;" x1="854" x2="1044.9268" y1="717.5" y2="717.5"/><text fill="#000000" font-family="sans-serif" font-size="14" lengthAdjust="spacing" textLength="180.9268" x="859" y="736.6074">+getListOfAvailableStations()</text></g><!--class RailwayLine--><g id="elem_RailwayLine"><rect codeLine="78" fill="#F1F1F1" height="122.4844" id="RailwayLine" rx="2.5" ry="2.5" style="stroke:#181818;stroke-width:0.5;" width="262.9814" x="1694" y="917"/><ellipse cx="1783.4995" cy="933" fill="#ADD1B2" rx="11" ry="11" style="stroke:#181818;stroke-width:1.0;"/><path d="M1786.2651,928.875 Q1786.4214,928.6563 1786.6089,928.5469 Q1786.7964,928.4375 1787.0151,928.4375 Q1787.3901,928.4375 1787.6245,928.7031 Q1787.8589,928.9531 1787.8589,929.5625 L1787.8589,931.0156 Q1787.8589,931.625 1787.6245,931.8906 Q1787.3901,932.1563 1787.0151,932.1563 Q1786.6714,932.1563 1786.4683,931.9531 Q1786.2651,931.7656 1786.1558,931.25 Q1786.1089,930.8906 1785.9214,930.7031 Q1785.5933,930.3281 1784.9839,930.1094 Q1784.3745,929.8906 1783.7495,929.8906 Q1782.9839,929.8906 1782.3433,930.2188 Q1781.7183,930.5469 1781.2183,931.2969 Q1780.7339,932.0469 1780.7339,933.0781 L1780.7339,934.1719 Q1780.7339,935.4063 1781.6245,936.2344 Q1782.5151,937.0469 1784.1089,937.0469 Q1785.0464,937.0469 1785.7026,936.7969 Q1786.0933,936.6406 1786.5151,936.2031 Q1786.7808,935.9375 1786.9214,935.8594 Q1787.0776,935.7813 1787.2808,935.7813 Q1787.6089,935.7813 1787.8589,936.0469 Q1788.1245,936.2969 1788.1245,936.6406 Q1788.1245,936.9844 1787.7808,937.3906 Q1787.2808,937.9688 1786.4839,938.2969 Q1785.4058,938.75 1784.1089,938.75 Q1782.5933,938.75 1781.3901,938.125 Q1780.4058,937.625 1779.7183,936.5625 Q1779.0308,935.4844 1779.0308,934.2031 L1779.0308,933.0469 Q1779.0308,931.7188 1779.6401,930.5781 Q1780.2651,929.4219 1781.3589,928.8125 Q1782.4526,928.1875 1783.687,928.1875 Q1784.4214,928.1875 1785.062,928.3594 Q1785.7183,928.5156 1786.2651,928.875 Z " fill="#000000"/><text fill="#000000" font-family="sans-serif" font-size="14" lengthAdjust="spacing" textLength="75.4824" x="1803.9995" y="938.7969">RailwayLine</text><line style="stroke:#181818;stroke-width:0.5;" x1="1695" x2="1955.9814" y1="949" y2="949"/><text fill="#000000" font-family="sans-serif" font-size="14" lengthAdjust="spacing" textLength="87.1445" x="1700" y="968.1074">-start : Station</text><text fill="#000000" font-family="sans-serif" font-size="14" lengthAdjust="spacing" textLength="83.2754" x="1700" y="986.7285">-end : Station</text><text fill="#000000" font-family="sans-serif" font-size="14" lengthAdjust="spacing" textLength="131.5166" x="1700" y="1005.3496">-stops : List&lt;Station&gt;</text><line style="stroke:#181818;stroke-width:0.5;" x1="1695" x2="1955.9814" y1="1012.8633" y2="1012.8633"/><text fill="#000000" font-family="sans-serif" font-size="14" lengthAdjust="spacing" textLength="250.9814" x="1700" y="1031.9707">+areConnected(previousStation, station)</text></g><!--class Route--><g id="elem_Route"><rect codeLine="86" fill="#F1F1F1" height="159.7266" id="Route" rx="2.5" ry="2.5" style="stroke:#181818;stroke-width:0.5;" width="232.6025" x="1481" y="631"/><ellipse cx="1574.3721" cy="647" fill="#ADD1B2" rx="11" ry="11" style="stroke:#181818;stroke-width:1.0;"/><path d="M1577.1377,642.875 Q1577.2939,642.6563 1577.4814,642.5469 Q1577.6689,642.4375 1577.8877,642.4375 Q1578.2627,642.4375 1578.4971,642.7031 Q1578.7314,642.9531 1578.7314,643.5625 L1578.7314,645.0156 Q1578.7314,645.625 1578.4971,645.8906 Q1578.2627,646.1563 1577.8877,646.1563 Q1577.5439,646.1563 1577.3408,645.9531 Q1577.1377,645.7656 1577.0283,645.25 Q1576.9814,644.8906 1576.7939,644.7031 Q1576.4658,644.3281 1575.8564,644.1094 Q1575.2471,643.8906 1574.6221,643.8906 Q1573.8564,643.8906 1573.2158,644.2188 Q1572.5908,644.5469 1572.0908,645.2969 Q1571.6064,646.0469 1571.6064,647.0781 L1571.6064,648.1719 Q1571.6064,649.4063 1572.4971,650.2344 Q1573.3877,651.0469 1574.9814,651.0469 Q1575.9189,651.0469 1576.5752,650.7969 Q1576.9658,650.6406 1577.3877,650.2031 Q1577.6533,649.9375 1577.7939,649.8594 Q1577.9502,649.7813 1578.1533,649.7813 Q1578.4814,649.7813 1578.7314,650.0469 Q1578.9971,650.2969 1578.9971,650.6406 Q1578.9971,650.9844 1578.6533,651.3906 Q1578.1533,651.9688 1577.3564,652.2969 Q1576.2783,652.75 1574.9814,652.75 Q1573.4658,652.75 1572.2627,652.125 Q1571.2783,651.625 1570.5908,650.5625 Q1569.9033,649.4844 1569.9033,648.2031 L1569.9033,647.0469 Q1569.9033,645.7188 1570.5127,644.5781 Q1571.1377,643.4219 1572.2314,642.8125 Q1573.3252,642.1875 1574.5596,642.1875 Q1575.2939,642.1875 1575.9346,642.3594 Q1576.5908,642.5156 1577.1377,642.875 Z " fill="#000000"/><text fill="#000000" font-family="sans-serif" font-size="14" lengthAdjust="spacing" textLength="37.3584" x="1594.8721" y="652.7969">Route</text><line style="stroke:#181818;stroke-width:0.5;" x1="1482" x2="1712.6025" y1="663" y2="663"/><text fill="#000000" font-family="sans-serif" font-size="14" lengthAdjust="spacing" textLength="126.0547" x="1487" y="682.1074">-firstStation : Station</text><text fill="#000000" font-family="sans-serif" font-size="14" lengthAdjust="spacing" textLength="125.2891" x="1487" y="700.7285">-lastStation : Station</text><text fill="#000000" font-family="sans-serif" font-size="14" lengthAdjust="spacing" textLength="131.5166" x="1487" y="719.3496">-stops : List&lt;Station&gt;</text><text fill="#000000" font-family="sans-serif" font-size="14" lengthAdjust="spacing" textLength="148.6338" x="1487" y="737.9707">-assignedCargo : Cargo</text><text fill="#000000" font-family="sans-serif" font-size="14" lengthAdjust="spacing" textLength="154.8408" x="1487" y="756.5918">-locomotive : Locomotive</text><line style="stroke:#181818;stroke-width:0.5;" x1="1482" x2="1712.6025" y1="764.1055" y2="764.1055"/><text fill="#000000" font-family="sans-serif" font-size="14" lengthAdjust="spacing" textLength="220.6025" x="1487" y="783.2129">+Route(locomotive, stations, cargo)</text></g><!--class Locomotive--><g id="elem_Locomotive"><rect codeLine="96" fill="#F1F1F1" height="196.9688" id="Locomotive" rx="2.5" ry="2.5" style="stroke:#181818;stroke-width:0.5;" width="368.0156" x="1219.5" y="879.5"/><ellipse cx="1363.4614" cy="895.5" fill="#ADD1B2" rx="11" ry="11" style="stroke:#181818;stroke-width:1.0;"/><path d="M1366.2271,891.375 Q1366.3833,891.1563 1366.5708,891.0469 Q1366.7583,890.9375 1366.9771,890.9375 Q1367.3521,890.9375 1367.5864,891.2031 Q1367.8208,891.4531 1367.8208,892.0625 L1367.8208,893.5156 Q1367.8208,894.125 1367.5864,894.3906 Q1367.3521,894.6563 1366.9771,894.6563 Q1366.6333,894.6563 1366.4302,894.4531 Q1366.2271,894.2656 1366.1177,893.75 Q1366.0708,893.3906 1365.8833,893.2031 Q1365.5552,892.8281 1364.9458,892.6094 Q1364.3364,892.3906 1363.7114,892.3906 Q1362.9458,892.3906 1362.3052,892.7188 Q1361.6802,893.0469 1361.1802,893.7969 Q1360.6958,894.5469 1360.6958,895.5781 L1360.6958,896.6719 Q1360.6958,897.9063 1361.5864,898.7344 Q1362.4771,899.5469 1364.0708,899.5469 Q1365.0083,899.5469 1365.6646,899.2969 Q1366.0552,899.1406 1366.4771,898.7031 Q1366.7427,898.4375 1366.8833,898.3594 Q1367.0396,898.2813 1367.2427,898.2813 Q1367.5708,898.2813 1367.8208,898.5469 Q1368.0864,898.7969 1368.0864,899.1406 Q1368.0864,899.4844 1367.7427,899.8906 Q1367.2427,900.4688 1366.4458,900.7969 Q1365.3677,901.25 1364.0708,901.25 Q1362.5552,901.25 1361.3521,900.625 Q1360.3677,900.125 1359.6802,899.0625 Q1358.9927,897.9844 1358.9927,896.7031 L1358.9927,895.5469 Q1358.9927,894.2188 1359.6021,893.0781 Q1360.2271,891.9219 1361.3208,891.3125 Q1362.4146,890.6875 1363.6489,890.6875 Q1364.3833,890.6875 1365.0239,890.8594 Q1365.6802,891.0156 1366.2271,891.375 Z " fill="#000000"/><text fill="#000000" font-family="sans-serif" font-size="14" lengthAdjust="spacing" textLength="71.5928" x="1383.9614" y="901.2969">Locomotive</text><line style="stroke:#181818;stroke-width:0.5;" x1="1220.5" x2="1586.5156" y1="911.5" y2="911.5"/><text fill="#000000" font-family="sans-serif" font-size="14" lengthAdjust="spacing" textLength="63.7998" x="1225.5" y="930.6074">-id : String</text><text fill="#000000" font-family="sans-serif" font-size="14" lengthAdjust="spacing" textLength="69.248" x="1225.5" y="949.2285">-power : int</text><text fill="#000000" font-family="sans-serif" font-size="14" lengthAdjust="spacing" textLength="106.6064" x="1225.5" y="967.8496">-acceleration : int</text><text fill="#000000" font-family="sans-serif" font-size="14" lengthAdjust="spacing" textLength="102.7373" x="1225.5" y="986.4707">-topSpeed : float</text><text fill="#000000" font-family="sans-serif" font-size="14" lengthAdjust="spacing" textLength="178.9648" x="1225.5" y="1005.0918">-startYearOfOperation : Date</text><text fill="#000000" font-family="sans-serif" font-size="14" lengthAdjust="spacing" textLength="129.165" x="1225.5" y="1023.7129">-acquisitionPrice : int</text><text fill="#000000" font-family="sans-serif" font-size="14" lengthAdjust="spacing" textLength="145.5098" x="1225.5" y="1042.334">-type : LocomotiveType</text><line style="stroke:#181818;stroke-width:0.5;" x1="1220.5" x2="1586.5156" y1="1049.8477" y2="1049.8477"/><text fill="#000000" font-family="sans-serif" font-size="14" lengthAdjust="spacing" textLength="356.0156" x="1225.5" y="1068.9551">+isAvailableForScenario(scenario, currentDate) : boolean</text></g><!--class LocomotiveType--><g id="elem_LocomotiveType"><rect codeLine="107" fill="#F1F1F1" height="103.8633" id="LocomotiveType" rx="2.5" ry="2.5" style="stroke:#181818;stroke-width:0.5;" width="134.7168" x="538" y="1193"/><ellipse cx="553" cy="1209" fill="#EB937F" rx="11" ry="11" style="stroke:#181818;stroke-width:1.0;"/><path d="M551.8594,1209.7969 L551.8594,1212.2969 L556.1875,1212.2969 L556.1875,1211.375 Q556.1875,1210.7656 556.4219,1210.5 Q556.6719,1210.2344 557.0469,1210.2344 Q557.4219,1210.2344 557.6563,1210.5 Q557.8906,1210.7656 557.8906,1211.375 L557.8906,1214 L549.8906,1214 Q549.2656,1214 549,1213.7656 Q548.75,1213.5313 548.75,1213.1406 Q548.75,1212.7656 549.0156,1212.5313 Q549.2813,1212.2969 549.8906,1212.2969 L550.1563,1212.2969 L550.1563,1205.6406 L549.8906,1205.6406 Q549.2656,1205.6406 549,1205.4063 Q548.75,1205.1719 548.75,1204.7813 Q548.75,1204.4063 549,1204.1719 Q549.2656,1203.9375 549.8906,1203.9375 L557.5156,1203.9375 L557.5156,1206.5313 Q557.5156,1207.1406 557.2813,1207.4063 Q557.0625,1207.6563 556.6719,1207.6563 Q556.2969,1207.6563 556.0625,1207.4063 Q555.8281,1207.1406 555.8281,1206.5313 L555.8281,1205.6406 L551.8594,1205.6406 L551.8594,1208.0938 L553.3438,1208.0938 Q553.3438,1207.4375 553.4688,1207.25 Q553.7344,1206.8438 554.2031,1206.8438 Q554.5781,1206.8438 554.8125,1207.1094 Q555.0469,1207.3594 555.0469,1207.9688 L555.0469,1209.9375 Q555.0469,1210.4844 554.9219,1210.6719 Q554.6563,1211.0625 554.2031,1211.0625 Q553.7344,1211.0625 553.4688,1210.6563 Q553.3438,1210.4688 553.3438,1209.7969 L551.8594,1209.7969 Z " fill="#000000"/><text fill="#000000" font-family="sans-serif" font-size="14" lengthAdjust="spacing" textLength="102.7168" x="567" y="1214.7969">LocomotiveType</text><line style="stroke:#181818;stroke-width:0.5;" x1="539" x2="671.7168" y1="1225" y2="1225"/><text fill="#000000" font-family="sans-serif" font-size="14" lengthAdjust="spacing" textLength="49.7998" x="544" y="1244.1074">DIESEL</text><text fill="#000000" font-family="sans-serif" font-size="14" lengthAdjust="spacing" textLength="48.2275" x="544" y="1262.7285">STEAM</text><text fill="#000000" font-family="sans-serif" font-size="14" lengthAdjust="spacing" textLength="69.2344" x="544" y="1281.3496">ELECTRIC</text><line style="stroke:#181818;stroke-width:0.5;" x1="539" x2="671.7168" y1="1288.8633" y2="1288.8633"/></g><!--class Cargo--><g id="elem_Cargo"><rect codeLine="113" fill="#F1F1F1" height="122.4844" id="Cargo" rx="2.5" ry="2.5" style="stroke:#181818;stroke-width:0.5;" width="130.6582" x="1329" y="1404"/><ellipse cx="1371.2373" cy="1420" fill="#ADD1B2" rx="11" ry="11" style="stroke:#181818;stroke-width:1.0;"/><path d="M1374.0029,1415.875 Q1374.1592,1415.6563 1374.3467,1415.5469 Q1374.5342,1415.4375 1374.7529,1415.4375 Q1375.1279,1415.4375 1375.3623,1415.7031 Q1375.5967,1415.9531 1375.5967,1416.5625 L1375.5967,1418.0156 Q1375.5967,1418.625 1375.3623,1418.8906 Q1375.1279,1419.1563 1374.7529,1419.1563 Q1374.4092,1419.1563 1374.2061,1418.9531 Q1374.0029,1418.7656 1373.8936,1418.25 Q1373.8467,1417.8906 1373.6592,1417.7031 Q1373.3311,1417.3281 1372.7217,1417.1094 Q1372.1123,1416.8906 1371.4873,1416.8906 Q1370.7217,1416.8906 1370.0811,1417.2188 Q1369.4561,1417.5469 1368.9561,1418.2969 Q1368.4717,1419.0469 1368.4717,1420.0781 L1368.4717,1421.1719 Q1368.4717,1422.4063 1369.3623,1423.2344 Q1370.2529,1424.0469 1371.8467,1424.0469 Q1372.7842,1424.0469 1373.4404,1423.7969 Q1373.8311,1423.6406 1374.2529,1423.2031 Q1374.5186,1422.9375 1374.6592,1422.8594 Q1374.8154,1422.7813 1375.0186,1422.7813 Q1375.3467,1422.7813 1375.5967,1423.0469 Q1375.8623,1423.2969 1375.8623,1423.6406 Q1375.8623,1423.9844 1375.5186,1424.3906 Q1375.0186,1424.9688 1374.2217,1425.2969 Q1373.1436,1425.75 1371.8467,1425.75 Q1370.3311,1425.75 1369.1279,1425.125 Q1368.1436,1424.625 1367.4561,1423.5625 Q1366.7686,1422.4844 1366.7686,1421.2031 L1366.7686,1420.0469 Q1366.7686,1418.7188 1367.3779,1417.5781 Q1368.0029,1416.4219 1369.0967,1415.8125 Q1370.1904,1415.1875 1371.4248,1415.1875 Q1372.1592,1415.1875 1372.7998,1415.3594 Q1373.4561,1415.5156 1374.0029,1415.875 Z " fill="#000000"/><text fill="#000000" font-family="sans-serif" font-size="14" lengthAdjust="spacing" textLength="38.1309" x="1391.29" y="1425.7969">Cargo</text><line style="stroke:#181818;stroke-width:0.5;" x1="1330" x2="1458.6582" y1="1436" y2="1436"/><text fill="#000000" font-family="sans-serif" font-size="14" lengthAdjust="spacing" textLength="84.0342" x="1335" y="1455.1074">-name: String</text><text fill="#000000" font-family="sans-serif" font-size="14" lengthAdjust="spacing" textLength="73.9238" x="1335" y="1473.7285">-amount: int</text><line style="stroke:#181818;stroke-width:0.5;" x1="1330" x2="1458.6582" y1="1481.2422" y2="1481.2422"/><text fill="#000000" font-family="sans-serif" font-size="14" lengthAdjust="spacing" textLength="118.6582" x="1335" y="1500.3496">+getName(): String</text><text fill="#000000" font-family="sans-serif" font-size="14" lengthAdjust="spacing" textLength="107.7754" x="1335" y="1518.9707">+getAmount(): int</text></g><!--class Port--><g id="elem_Port"><rect codeLine="120" fill="#F1F1F1" height="159.7266" id="Port" rx="2.5" ry="2.5" style="stroke:#181818;stroke-width:0.5;" width="180.0957" x="1125.5" y="1165"/><ellipse cx="1198.46" cy="1181" fill="#ADD1B2" rx="11" ry="11" style="stroke:#181818;stroke-width:1.0;"/><path d="M1201.2256,1176.875 Q1201.3818,1176.6563 1201.5693,1176.5469 Q1201.7568,1176.4375 1201.9756,1176.4375 Q1202.3506,1176.4375 1202.585,1176.7031 Q1202.8193,1176.9531 1202.8193,1177.5625 L1202.8193,1179.0156 Q1202.8193,1179.625 1202.585,1179.8906 Q1202.3506,1180.1563 1201.9756,1180.1563 Q1201.6318,1180.1563 1201.4287,1179.9531 Q1201.2256,1179.7656 1201.1162,1179.25 Q1201.0693,1178.8906 1200.8818,1178.7031 Q1200.5537,1178.3281 1199.9443,1178.1094 Q1199.335,1177.8906 1198.71,1177.8906 Q1197.9443,1177.8906 1197.3037,1178.2188 Q1196.6787,1178.5469 1196.1787,1179.2969 Q1195.6943,1180.0469 1195.6943,1181.0781 L1195.6943,1182.1719 Q1195.6943,1183.4063 1196.585,1184.2344 Q1197.4756,1185.0469 1199.0693,1185.0469 Q1200.0068,1185.0469 1200.6631,1184.7969 Q1201.0537,1184.6406 1201.4756,1184.2031 Q1201.7412,1183.9375 1201.8818,1183.8594 Q1202.0381,1183.7813 1202.2412,1183.7813 Q1202.5693,1183.7813 1202.8193,1184.0469 Q1203.085,1184.2969 1203.085,1184.6406 Q1203.085,1184.9844 1202.7412,1185.3906 Q1202.2412,1185.9688 1201.4443,1186.2969 Q1200.3662,1186.75 1199.0693,1186.75 Q1197.5537,1186.75 1196.3506,1186.125 Q1195.3662,1185.625 1194.6787,1184.5625 Q1193.9912,1183.4844 1193.9912,1182.2031 L1193.9912,1181.0469 Q1193.9912,1179.7188 1194.6006,1178.5781 Q1195.2256,1177.4219 1196.3193,1176.8125 Q1197.4131,1176.1875 1198.6475,1176.1875 Q1199.3818,1176.1875 1200.0225,1176.3594 Q1200.6787,1176.5156 1201.2256,1176.875 Z " fill="#000000"/><text fill="#000000" font-family="sans-serif" font-size="14" lengthAdjust="spacing" textLength="25.6758" x="1218.96" y="1186.7969">Port</text><line style="stroke:#181818;stroke-width:0.5;" x1="1126.5" x2="1304.5957" y1="1197" y2="1197"/><text fill="#000000" font-family="sans-serif" font-size="14" lengthAdjust="spacing" textLength="84.0342" x="1131.5" y="1216.1074">-name: String</text><text fill="#000000" font-family="sans-serif" font-size="14" lengthAdjust="spacing" textLength="102.7168" x="1131.5" y="1234.7285">-xCoordinate: int</text><text fill="#000000" font-family="sans-serif" font-size="14" lengthAdjust="spacing" textLength="102.7168" x="1131.5" y="1253.3496">-yCoordinate: int</text><text fill="#000000" font-family="sans-serif" font-size="14" lengthAdjust="spacing" textLength="129.9443" x="1131.5" y="1271.9707">-typeOfCargo: Cargo</text><text fill="#000000" font-family="sans-serif" font-size="14" lengthAdjust="spacing" textLength="168.0957" x="1131.5" y="1290.5918">-behaviour: BehaviourType</text><line style="stroke:#181818;stroke-width:0.5;" x1="1126.5" x2="1304.5957" y1="1298.1055" y2="1298.1055"/><text fill="#000000" font-family="sans-serif" font-size="14" lengthAdjust="spacing" textLength="118.6582" x="1131.5" y="1317.2129">+getName(): String</text></g><!--class BehaviourType--><g id="elem_BehaviourType"><rect codeLine="129" fill="#F1F1F1" height="122.4844" id="BehaviourType" rx="2.5" ry="2.5" style="stroke:#181818;stroke-width:0.5;" width="131.793" x="1131.5" y="1404"/><ellipse cx="1149.0326" cy="1420" fill="#EB937F" rx="11" ry="11" style="stroke:#181818;stroke-width:1.0;"/><path d="M1147.8919,1420.7969 L1147.8919,1423.2969 L1152.2201,1423.2969 L1152.2201,1422.375 Q1152.2201,1421.7656 1152.4544,1421.5 Q1152.7044,1421.2344 1153.0794,1421.2344 Q1153.4544,1421.2344 1153.6888,1421.5 Q1153.9232,1421.7656 1153.9232,1422.375 L1153.9232,1425 L1145.9232,1425 Q1145.2982,1425 1145.0326,1424.7656 Q1144.7826,1424.5313 1144.7826,1424.1406 Q1144.7826,1423.7656 1145.0482,1423.5313 Q1145.3138,1423.2969 1145.9232,1423.2969 L1146.1888,1423.2969 L1146.1888,1416.6406 L1145.9232,1416.6406 Q1145.2982,1416.6406 1145.0326,1416.4063 Q1144.7826,1416.1719 1144.7826,1415.7813 Q1144.7826,1415.4063 1145.0326,1415.1719 Q1145.2982,1414.9375 1145.9232,1414.9375 L1153.5482,1414.9375 L1153.5482,1417.5313 Q1153.5482,1418.1406 1153.3138,1418.4063 Q1153.0951,1418.6563 1152.7044,1418.6563 Q1152.3294,1418.6563 1152.0951,1418.4063 Q1151.8607,1418.1406 1151.8607,1417.5313 L1151.8607,1416.6406 L1147.8919,1416.6406 L1147.8919,1419.0938 L1149.3763,1419.0938 Q1149.3763,1418.4375 1149.5013,1418.25 Q1149.7669,1417.8438 1150.2357,1417.8438 Q1150.6107,1417.8438 1150.8451,1418.1094 Q1151.0794,1418.3594 1151.0794,1418.9688 L1151.0794,1420.9375 Q1151.0794,1421.4844 1150.9544,1421.6719 Q1150.6888,1422.0625 1150.2357,1422.0625 Q1149.7669,1422.0625 1149.5013,1421.6563 Q1149.3763,1421.4688 1149.3763,1420.7969 L1147.8919,1420.7969 Z " fill="#000000"/><text fill="#000000" font-family="sans-serif" font-size="14" lengthAdjust="spacing" textLength="94.165" x="1163.5954" y="1425.7969">BehaviourType</text><line style="stroke:#181818;stroke-width:0.5;" x1="1132.5" x2="1262.293" y1="1436" y2="1436"/><text fill="#000000" font-family="sans-serif" font-size="14" lengthAdjust="spacing" textLength="54.4414" x="1137.5" y="1455.1074">IMPORT</text><text fill="#000000" font-family="sans-serif" font-size="14" lengthAdjust="spacing" textLength="57.5654" x="1137.5" y="1473.7285">EXPORT</text><text fill="#000000" font-family="sans-serif" font-size="14" lengthAdjust="spacing" textLength="119.793" x="1137.5" y="1492.3496">IMPORT_EXPORT</text><text fill="#000000" font-family="sans-serif" font-size="14" lengthAdjust="spacing" textLength="88.6621" x="1137.5" y="1510.9707">TRANSFORM</text><line style="stroke:#181818;stroke-width:0.5;" x1="1132.5" x2="1262.293" y1="1518.4844" y2="1518.4844"/></g><!--class Industry--><g id="elem_Industry"><rect codeLine="136" fill="#F1F1F1" height="141.1055" id="Industry" rx="2.5" ry="2.5" style="stroke:#181818;stroke-width:0.5;" width="289.0264" x="50" y="1174.5"/><ellipse cx="165.3633" cy="1190.5" fill="#ADD1B2" rx="11" ry="11" style="stroke:#181818;stroke-width:1.0;"/><path d="M168.1289,1186.375 Q168.2852,1186.1563 168.4727,1186.0469 Q168.6602,1185.9375 168.8789,1185.9375 Q169.2539,1185.9375 169.4883,1186.2031 Q169.7227,1186.4531 169.7227,1187.0625 L169.7227,1188.5156 Q169.7227,1189.125 169.4883,1189.3906 Q169.2539,1189.6563 168.8789,1189.6563 Q168.5352,1189.6563 168.332,1189.4531 Q168.1289,1189.2656 168.0195,1188.75 Q167.9727,1188.3906 167.7852,1188.2031 Q167.457,1187.8281 166.8477,1187.6094 Q166.2383,1187.3906 165.6133,1187.3906 Q164.8477,1187.3906 164.207,1187.7188 Q163.582,1188.0469 163.082,1188.7969 Q162.5977,1189.5469 162.5977,1190.5781 L162.5977,1191.6719 Q162.5977,1192.9063 163.4883,1193.7344 Q164.3789,1194.5469 165.9727,1194.5469 Q166.9102,1194.5469 167.5664,1194.2969 Q167.957,1194.1406 168.3789,1193.7031 Q168.6445,1193.4375 168.7852,1193.3594 Q168.9414,1193.2813 169.1445,1193.2813 Q169.4727,1193.2813 169.7227,1193.5469 Q169.9883,1193.7969 169.9883,1194.1406 Q169.9883,1194.4844 169.6445,1194.8906 Q169.1445,1195.4688 168.3477,1195.7969 Q167.2695,1196.25 165.9727,1196.25 Q164.457,1196.25 163.2539,1195.625 Q162.2695,1195.125 161.582,1194.0625 Q160.8945,1192.9844 160.8945,1191.7031 L160.8945,1190.5469 Q160.8945,1189.2188 161.5039,1188.0781 Q162.1289,1186.9219 163.2227,1186.3125 Q164.3164,1185.6875 165.5508,1185.6875 Q166.2852,1185.6875 166.9258,1185.8594 Q167.582,1186.0156 168.1289,1186.375 Z " fill="#000000"/><text fill="#000000" font-family="sans-serif" font-size="14" lengthAdjust="spacing" textLength="49.7998" x="185.8633" y="1196.2969">Industry</text><line style="stroke:#181818;stroke-width:0.5;" x1="51" x2="338.0264" y1="1206.5" y2="1206.5"/><text fill="#000000" font-family="sans-serif" font-size="14" lengthAdjust="spacing" textLength="84.0342" x="56" y="1225.6074">-name: String</text><text fill="#000000" font-family="sans-serif" font-size="14" lengthAdjust="spacing" textLength="124.5029" x="56" y="1244.2285">-xCoordinate: String</text><text fill="#000000" font-family="sans-serif" font-size="14" lengthAdjust="spacing" textLength="124.5029" x="56" y="1262.8496">-yCoordinate: String</text><text fill="#000000" font-family="sans-serif" font-size="14" lengthAdjust="spacing" textLength="119.8271" x="56" y="1281.4707">-type: IndustryType</text><text fill="#000000" font-family="sans-serif" font-size="14" lengthAdjust="spacing" textLength="277.0264" x="56" y="1300.0918">-generationFactor: IndustryGenerationFactor</text><line style="stroke:#181818;stroke-width:0.5;" x1="51" x2="338.0264" y1="1307.6055" y2="1307.6055"/></g><!--class IndustryType--><g id="elem_IndustryType"><rect codeLine="144" fill="#F1F1F1" height="122.4844" id="IndustryType" rx="2.5" ry="2.5" style="stroke:#181818;stroke-width:0.5;" width="163.3408" x="7" y="1404"/><ellipse cx="44.6876" cy="1420" fill="#ADD1B2" rx="11" ry="11" style="stroke:#181818;stroke-width:1.0;"/><path d="M47.4533,1415.875 Q47.6095,1415.6563 47.797,1415.5469 Q47.9845,1415.4375 48.2033,1415.4375 Q48.5783,1415.4375 48.8126,1415.7031 Q49.047,1415.9531 49.047,1416.5625 L49.047,1418.0156 Q49.047,1418.625 48.8126,1418.8906 Q48.5783,1419.1563 48.2033,1419.1563 Q47.8595,1419.1563 47.6564,1418.9531 Q47.4533,1418.7656 47.3439,1418.25 Q47.297,1417.8906 47.1095,1417.7031 Q46.7814,1417.3281 46.172,1417.1094 Q45.5626,1416.8906 44.9376,1416.8906 Q44.172,1416.8906 43.5314,1417.2188 Q42.9064,1417.5469 42.4064,1418.2969 Q41.922,1419.0469 41.922,1420.0781 L41.922,1421.1719 Q41.922,1422.4063 42.8126,1423.2344 Q43.7033,1424.0469 45.297,1424.0469 Q46.2345,1424.0469 46.8908,1423.7969 Q47.2814,1423.6406 47.7033,1423.2031 Q47.9689,1422.9375 48.1095,1422.8594 Q48.2658,1422.7813 48.4689,1422.7813 Q48.797,1422.7813 49.047,1423.0469 Q49.3126,1423.2969 49.3126,1423.6406 Q49.3126,1423.9844 48.9689,1424.3906 Q48.4689,1424.9688 47.672,1425.2969 Q46.5939,1425.75 45.297,1425.75 Q43.7814,1425.75 42.5783,1425.125 Q41.5939,1424.625 40.9064,1423.5625 Q40.2189,1422.4844 40.2189,1421.2031 L40.2189,1420.0469 Q40.2189,1418.7188 40.8283,1417.5781 Q41.4533,1416.4219 42.547,1415.8125 Q43.6408,1415.1875 44.8751,1415.1875 Q45.6095,1415.1875 46.2501,1415.3594 Q46.9064,1415.5156 47.4533,1415.875 Z " fill="#000000"/><text fill="#000000" font-family="sans-serif" font-size="14" lengthAdjust="spacing" textLength="80.9238" x="63.7293" y="1425.7969">IndustryType</text><line style="stroke:#181818;stroke-width:0.5;" x1="8" x2="169.3408" y1="1436" y2="1436"/><text fill="#000000" font-family="sans-serif" font-size="14" lengthAdjust="spacing" textLength="75.4756" x="13" y="1455.1074">-type: String</text><text fill="#000000" font-family="sans-serif" font-size="14" lengthAdjust="spacing" textLength="116.7168" x="13" y="1473.7285">-description: String</text><line style="stroke:#181818;stroke-width:0.5;" x1="8" x2="169.3408" y1="1481.2422" y2="1481.2422"/><text fill="#000000" font-family="sans-serif" font-size="14" lengthAdjust="spacing" textLength="112.4375" x="13" y="1500.3496">+getType(): String</text><text fill="#000000" font-family="sans-serif" font-size="14" lengthAdjust="spacing" textLength="151.3408" x="13" y="1518.9707">+getDescription(): String</text></g><!--class IndustryGenerationFactor--><g id="elem_IndustryGenerationFactor"><rect codeLine="151" fill="#F1F1F1" height="103.8633" id="IndustryGenerationFactor" rx="2.5" ry="2.5" style="stroke:#181818;stroke-width:0.5;" width="190.7441" x="205" y="1413"/><ellipse cx="220" cy="1429" fill="#EB937F" rx="11" ry="11" style="stroke:#181818;stroke-width:1.0;"/><path d="M218.8594,1429.7969 L218.8594,1432.2969 L223.1875,1432.2969 L223.1875,1431.375 Q223.1875,1430.7656 223.4219,1430.5 Q223.6719,1430.2344 224.0469,1430.2344 Q224.4219,1430.2344 224.6563,1430.5 Q224.8906,1430.7656 224.8906,1431.375 L224.8906,1434 L216.8906,1434 Q216.2656,1434 216,1433.7656 Q215.75,1433.5313 215.75,1433.1406 Q215.75,1432.7656 216.0156,1432.5313 Q216.2813,1432.2969 216.8906,1432.2969 L217.1563,1432.2969 L217.1563,1425.6406 L216.8906,1425.6406 Q216.2656,1425.6406 216,1425.4063 Q215.75,1425.1719 215.75,1424.7813 Q215.75,1424.4063 216,1424.1719 Q216.2656,1423.9375 216.8906,1423.9375 L224.5156,1423.9375 L224.5156,1426.5313 Q224.5156,1427.1406 224.2813,1427.4063 Q224.0625,1427.6563 223.6719,1427.6563 Q223.2969,1427.6563 223.0625,1427.4063 Q222.8281,1427.1406 222.8281,1426.5313 L222.8281,1425.6406 L218.8594,1425.6406 L218.8594,1428.0938 L220.3438,1428.0938 Q220.3438,1427.4375 220.4688,1427.25 Q220.7344,1426.8438 221.2031,1426.8438 Q221.5781,1426.8438 221.8125,1427.1094 Q222.0469,1427.3594 222.0469,1427.9688 L222.0469,1429.9375 Q222.0469,1430.4844 221.9219,1430.6719 Q221.6563,1431.0625 221.2031,1431.0625 Q220.7344,1431.0625 220.4688,1430.6563 Q220.3438,1430.4688 220.3438,1429.7969 L218.8594,1429.7969 Z " fill="#000000"/><text fill="#000000" font-family="sans-serif" font-size="14" lengthAdjust="spacing" textLength="158.7441" x="234" y="1434.7969">IndustryGenerationFactor</text><line style="stroke:#181818;stroke-width:0.5;" x1="206" x2="394.7441" y1="1445" y2="1445"/><text fill="#000000" font-family="sans-serif" font-size="14" lengthAdjust="spacing" textLength="149.3584" x="211" y="1464.1074">HEAVY_PRODUCTION</text><text fill="#000000" font-family="sans-serif" font-size="14" lengthAdjust="spacing" textLength="127.5586" x="211" y="1482.7285">MID_PRODUCTION</text><text fill="#000000" font-family="sans-serif" font-size="14" lengthAdjust="spacing" textLength="133.7861" x="211" y="1501.3496">LOW_PRODUCTION</text><line style="stroke:#181818;stroke-width:0.5;" x1="206" x2="394.7441" y1="1508.8633" y2="1508.8633"/></g><!--class Editor--><g id="elem_Editor"><rect codeLine="157" fill="#F1F1F1" height="103.8633" id="Editor" rx="2.5" ry="2.5" style="stroke:#181818;stroke-width:0.5;" width="127.9512" x="374.5" y="1193"/><ellipse cx="416.2205" cy="1209" fill="#ADD1B2" rx="11" ry="11" style="stroke:#181818;stroke-width:1.0;"/><path d="M418.9861,1204.875 Q419.1424,1204.6563 419.3299,1204.5469 Q419.5174,1204.4375 419.7361,1204.4375 Q420.1111,1204.4375 420.3455,1204.7031 Q420.5799,1204.9531 420.5799,1205.5625 L420.5799,1207.0156 Q420.5799,1207.625 420.3455,1207.8906 Q420.1111,1208.1563 419.7361,1208.1563 Q419.3924,1208.1563 419.1893,1207.9531 Q418.9861,1207.7656 418.8768,1207.25 Q418.8299,1206.8906 418.6424,1206.7031 Q418.3143,1206.3281 417.7049,1206.1094 Q417.0955,1205.8906 416.4705,1205.8906 Q415.7049,1205.8906 415.0643,1206.2188 Q414.4393,1206.5469 413.9393,1207.2969 Q413.4549,1208.0469 413.4549,1209.0781 L413.4549,1210.1719 Q413.4549,1211.4063 414.3455,1212.2344 Q415.2361,1213.0469 416.8299,1213.0469 Q417.7674,1213.0469 418.4236,1212.7969 Q418.8143,1212.6406 419.2361,1212.2031 Q419.5018,1211.9375 419.6424,1211.8594 Q419.7986,1211.7813 420.0018,1211.7813 Q420.3299,1211.7813 420.5799,1212.0469 Q420.8455,1212.2969 420.8455,1212.6406 Q420.8455,1212.9844 420.5018,1213.3906 Q420.0018,1213.9688 419.2049,1214.2969 Q418.1268,1214.75 416.8299,1214.75 Q415.3143,1214.75 414.1111,1214.125 Q413.1268,1213.625 412.4393,1212.5625 Q411.7518,1211.4844 411.7518,1210.2031 L411.7518,1209.0469 Q411.7518,1207.7188 412.3611,1206.5781 Q412.9861,1205.4219 414.0799,1204.8125 Q415.1736,1204.1875 416.408,1204.1875 Q417.1424,1204.1875 417.783,1204.3594 Q418.4393,1204.5156 418.9861,1204.875 Z " fill="#000000"/><text fill="#000000" font-family="sans-serif" font-size="14" lengthAdjust="spacing" textLength="36.5723" x="436.1584" y="1214.7969">Editor</text><line style="stroke:#181818;stroke-width:0.5;" x1="375.5" x2="501.4512" y1="1225" y2="1225"/><text fill="#000000" font-family="sans-serif" font-size="14" lengthAdjust="spacing" textLength="84.0342" x="380.5" y="1244.1074">-name: String</text><text fill="#000000" font-family="sans-serif" font-size="14" lengthAdjust="spacing" textLength="82.4688" x="380.5" y="1262.7285">-email: String</text><text fill="#000000" font-family="sans-serif" font-size="14" lengthAdjust="spacing" textLength="115.9512" x="380.5" y="1281.3496">-phoneNumber: int</text><line style="stroke:#181818;stroke-width:0.5;" x1="375.5" x2="501.4512" y1="1288.8633" y2="1288.8633"/></g><!--class ApplicationSession--><g id="elem_ApplicationSession"><rect codeLine="163" fill="#F1F1F1" height="103.8633" id="ApplicationSession" rx="2.5" ry="2.5" style="stroke:#181818;stroke-width:0.5;" width="150.2959" x="1822.5" y="439"/><ellipse cx="1837.5" cy="455" fill="#ADD1B2" rx="11" ry="11" style="stroke:#181818;stroke-width:1.0;"/><path d="M1840.2656,450.875 Q1840.4219,450.6563 1840.6094,450.5469 Q1840.7969,450.4375 1841.0156,450.4375 Q1841.3906,450.4375 1841.625,450.7031 Q1841.8594,450.9531 1841.8594,451.5625 L1841.8594,453.0156 Q1841.8594,453.625 1841.625,453.8906 Q1841.3906,454.1563 1841.0156,454.1563 Q1840.6719,454.1563 1840.4688,453.9531 Q1840.2656,453.7656 1840.1563,453.25 Q1840.1094,452.8906 1839.9219,452.7031 Q1839.5938,452.3281 1838.9844,452.1094 Q1838.375,451.8906 1837.75,451.8906 Q1836.9844,451.8906 1836.3438,452.2188 Q1835.7188,452.5469 1835.2188,453.2969 Q1834.7344,454.0469 1834.7344,455.0781 L1834.7344,456.1719 Q1834.7344,457.4063 1835.625,458.2344 Q1836.5156,459.0469 1838.1094,459.0469 Q1839.0469,459.0469 1839.7031,458.7969 Q1840.0938,458.6406 1840.5156,458.2031 Q1840.7813,457.9375 1840.9219,457.8594 Q1841.0781,457.7813 1841.2813,457.7813 Q1841.6094,457.7813 1841.8594,458.0469 Q1842.125,458.2969 1842.125,458.6406 Q1842.125,458.9844 1841.7813,459.3906 Q1841.2813,459.9688 1840.4844,460.2969 Q1839.4063,460.75 1838.1094,460.75 Q1836.5938,460.75 1835.3906,460.125 Q1834.4063,459.625 1833.7188,458.5625 Q1833.0313,457.4844 1833.0313,456.2031 L1833.0313,455.0469 Q1833.0313,453.7188 1833.6406,452.5781 Q1834.2656,451.4219 1835.3594,450.8125 Q1836.4531,450.1875 1837.6875,450.1875 Q1838.4219,450.1875 1839.0625,450.3594 Q1839.7188,450.5156 1840.2656,450.875 Z " fill="#000000"/><text fill="#000000" font-family="sans-serif" font-size="14" lengthAdjust="spacing" textLength="118.2959" x="1851.5" y="460.7969">ApplicationSession</text><line style="stroke:#181818;stroke-width:0.5;" x1="1823.5" x2="1971.7959" y1="471" y2="471"/><line style="stroke:#181818;stroke-width:0.5;" x1="1823.5" x2="1971.7959" y1="479" y2="479"/><text fill="#000000" font-family="sans-serif" font-size="14" lengthAdjust="spacing" textLength="132.2822" x="1828.5" y="498.1074">-ApplicationSession()</text><text fill="#000000" font-family="sans-serif" font-size="14" lengthAdjust="spacing" text-decoration="underline" textLength="89.8857" x="1828.5" y="516.7285">+getInstance()</text><text fill="#000000" font-family="sans-serif" font-size="14" lengthAdjust="spacing" textLength="133.4512" x="1828.5" y="535.3496">+getCurrentSession()</text></g><!--class UserSession--><g id="elem_UserSession"><rect codeLine="169" fill="#F1F1F1" height="85.2422" id="UserSession" rx="2.5" ry="2.5" style="stroke:#181818;stroke-width:0.5;" width="194.499" x="1928.5" y="668.5"/><ellipse cx="1981.8169" cy="684.5" fill="#ADD1B2" rx="11" ry="11" style="stroke:#181818;stroke-width:1.0;"/><path d="M1984.5825,680.375 Q1984.7388,680.1563 1984.9263,680.0469 Q1985.1138,679.9375 1985.3325,679.9375 Q1985.7075,679.9375 1985.9419,680.2031 Q1986.1763,680.4531 1986.1763,681.0625 L1986.1763,682.5156 Q1986.1763,683.125 1985.9419,683.3906 Q1985.7075,683.6563 1985.3325,683.6563 Q1984.9888,683.6563 1984.7856,683.4531 Q1984.5825,683.2656 1984.4731,682.75 Q1984.4263,682.3906 1984.2388,682.2031 Q1983.9106,681.8281 1983.3013,681.6094 Q1982.6919,681.3906 1982.0669,681.3906 Q1981.3013,681.3906 1980.6606,681.7188 Q1980.0356,682.0469 1979.5356,682.7969 Q1979.0513,683.5469 1979.0513,684.5781 L1979.0513,685.6719 Q1979.0513,686.9063 1979.9419,687.7344 Q1980.8325,688.5469 1982.4263,688.5469 Q1983.3638,688.5469 1984.02,688.2969 Q1984.4106,688.1406 1984.8325,687.7031 Q1985.0981,687.4375 1985.2388,687.3594 Q1985.395,687.2813 1985.5981,687.2813 Q1985.9263,687.2813 1986.1763,687.5469 Q1986.4419,687.7969 1986.4419,688.1406 Q1986.4419,688.4844 1986.0981,688.8906 Q1985.5981,689.4688 1984.8013,689.7969 Q1983.7231,690.25 1982.4263,690.25 Q1980.9106,690.25 1979.7075,689.625 Q1978.7231,689.125 1978.0356,688.0625 Q1977.3481,686.9844 1977.3481,685.7031 L1977.3481,684.5469 Q1977.3481,683.2188 1977.9575,682.0781 Q1978.5825,680.9219 1979.6763,680.3125 Q1980.77,679.6875 1982.0044,679.6875 Q1982.7388,679.6875 1983.3794,679.8594 Q1984.0356,680.0156 1984.5825,680.375 Z " fill="#000000"/><text fill="#000000" font-family="sans-serif" font-size="14" lengthAdjust="spacing" textLength="79.3652" x="2002.3169" y="690.2969">UserSession</text><line style="stroke:#181818;stroke-width:0.5;" x1="1929.5" x2="2121.999" y1="700.5" y2="700.5"/><line style="stroke:#181818;stroke-width:0.5;" x1="1929.5" x2="2121.999" y1="708.5" y2="708.5"/><text fill="#000000" font-family="sans-serif" font-size="14" lengthAdjust="spacing" textLength="101.5273" x="1934.5" y="727.6074">+getUserEmail()</text><text fill="#000000" font-family="sans-serif" font-size="14" lengthAdjust="spacing" textLength="182.499" x="1934.5" y="746.2285">+getLoggedInPlayer(): Player</text></g><!--class Player--><g id="elem_Player"><rect codeLine="174" fill="#F1F1F1" height="122.4844" id="Player" rx="2.5" ry="2.5" style="stroke:#181818;stroke-width:0.5;" width="186.7266" x="1992" y="917"/><ellipse cx="2061.272" cy="933" fill="#ADD1B2" rx="11" ry="11" style="stroke:#181818;stroke-width:1.0;"/><path d="M2064.0376,928.875 Q2064.1938,928.6563 2064.3813,928.5469 Q2064.5688,928.4375 2064.7876,928.4375 Q2065.1626,928.4375 2065.397,928.7031 Q2065.6313,928.9531 2065.6313,929.5625 L2065.6313,931.0156 Q2065.6313,931.625 2065.397,931.8906 Q2065.1626,932.1563 2064.7876,932.1563 Q2064.4438,932.1563 2064.2407,931.9531 Q2064.0376,931.7656 2063.9282,931.25 Q2063.8813,930.8906 2063.6938,930.7031 Q2063.3657,930.3281 2062.7563,930.1094 Q2062.147,929.8906 2061.522,929.8906 Q2060.7563,929.8906 2060.1157,930.2188 Q2059.4907,930.5469 2058.9907,931.2969 Q2058.5063,932.0469 2058.5063,933.0781 L2058.5063,934.1719 Q2058.5063,935.4063 2059.397,936.2344 Q2060.2876,937.0469 2061.8813,937.0469 Q2062.8188,937.0469 2063.4751,936.7969 Q2063.8657,936.6406 2064.2876,936.2031 Q2064.5532,935.9375 2064.6938,935.8594 Q2064.8501,935.7813 2065.0532,935.7813 Q2065.3813,935.7813 2065.6313,936.0469 Q2065.897,936.2969 2065.897,936.6406 Q2065.897,936.9844 2065.5532,937.3906 Q2065.0532,937.9688 2064.2563,938.2969 Q2063.1782,938.75 2061.8813,938.75 Q2060.3657,938.75 2059.1626,938.125 Q2058.1782,937.625 2057.4907,936.5625 Q2056.8032,935.4844 2056.8032,934.2031 L2056.8032,933.0469 Q2056.8032,931.7188 2057.4126,930.5781 Q2058.0376,929.4219 2059.1313,928.8125 Q2060.2251,928.1875 2061.4595,928.1875 Q2062.1938,928.1875 2062.8345,928.3594 Q2063.4907,928.5156 2064.0376,928.875 Z " fill="#000000"/><text fill="#000000" font-family="sans-serif" font-size="14" lengthAdjust="spacing" textLength="39.6826" x="2081.772" y="938.7969">Player</text><line style="stroke:#181818;stroke-width:0.5;" x1="1993" x2="2177.7266" y1="949" y2="949"/><text fill="#000000" font-family="sans-serif" font-size="14" lengthAdjust="spacing" textLength="111.2686" x="1998" y="968.1074">-username: String</text><text fill="#000000" font-family="sans-serif" font-size="14" lengthAdjust="spacing" textLength="82.4688" x="1998" y="986.7285">-email: String</text><text fill="#000000" font-family="sans-serif" font-size="14" lengthAdjust="spacing" textLength="121.3652" x="1998" y="1005.3496">-virtualCurrency: int</text><line style="stroke:#181818;stroke-width:0.5;" x1="1993" x2="2177.7266" y1="1012.8633" y2="1012.8633"/><text fill="#000000" font-family="sans-serif" font-size="14" lengthAdjust="spacing" textLength="174.7266" x="1998" y="1031.9707">+debit(amount: int): boolean</text></g><!--link AssignTrainUI to AssignTrainController--><g id="link_AssignTrainUI_AssignTrainController"><path codeLine="181" d="M1352.5,55.22 C1352.5,70.77 1352.5,86.61 1352.5,109.87 " fill="none" id="AssignTrainUI-to-AssignTrainController" style="stroke:#181818;stroke-width:1.0;stroke-dasharray:7.0,7.0;"/><polygon fill="#181818" points="1352.5,115.87,1356.5,106.87,1352.5,110.87,1348.5,106.87,1352.5,115.87" style="stroke:#181818;stroke-width:1.0;"/></g><!--link AssignTrainController to Repositories--><g id="link_AssignTrainController_Repositories"><path codeLine="183" d="M1216.48,315.29 C1140.28,355.52 1052.5063,401.8494 984.4863,437.7494 " fill="none" id="AssignTrainController-to-Repositories" style="stroke:#181818;stroke-width:1.0;stroke-dasharray:7.0,7.0;"/><polygon fill="#181818" points="979.18,440.55,989.0065,439.8866,983.6019,438.2162,985.2724,432.8116,979.18,440.55" style="stroke:#181818;stroke-width:1.0;"/></g><!--link AssignTrainController to Route--><g id="link_AssignTrainController_Route"><path codeLine="184" d="M1434.03,369.02 C1445.51,386.7 1453.5,399 1453.5,399 C1453.5,399 1515.6091,533.1353 1558.2691,625.2753 " fill="none" id="AssignTrainController-to-Route" style="stroke:#181818;stroke-width:1.0;stroke-dasharray:7.0,7.0;"/><polygon fill="#181818" points="1560.79,630.72,1560.6385,620.8723,1558.6893,626.1827,1553.3789,624.2335,1560.79,630.72" style="stroke:#181818;stroke-width:1.0;"/></g><!--link AssignTrainController to Scenario--><g id="link_AssignTrainController_Scenario"><path codeLine="185" d="M1216.25,287.46 C1045.37,342.6 774.5,430 774.5,430 C774.5,430 736.3255,704.7171 714.2055,863.9671 " fill="none" id="AssignTrainController-to-Scenario" style="stroke:#181818;stroke-width:1.0;stroke-dasharray:7.0,7.0;"/><polygon fill="#181818" points="713.38,869.91,718.5802,861.5459,714.0679,864.9575,710.6563,860.4453,713.38,869.91" style="stroke:#181818;stroke-width:1.0;"/></g><!--link AssignTrainController to ScenarioRepository--><g id="link_AssignTrainController_ScenarioRepository"><path codeLine="186" d="M1216.38,276.57 C1028.47,322.23 712.5,399 712.5,399 C712.5,399 631.8535,591.924 598.4835,671.774 " fill="none" id="AssignTrainController-to-ScenarioRepository" style="stroke:#181818;stroke-width:1.0;stroke-dasharray:7.0,7.0;"/><polygon fill="#181818" points="596.17,677.31,603.331,670.5483,598.098,672.6967,595.9496,667.4636,596.17,677.31" style="stroke:#181818;stroke-width:1.0;"/></g><!--link AssignTrainController to Locomotive--><g id="link_AssignTrainController_Locomotive"><path codeLine="187" d="M1365.14,369.04 C1376.53,482.22 1391.5,631 1391.5,631 C1391.5,631 1396.352,770.9236 1399.902,873.2436 " fill="none" id="AssignTrainController-to-Locomotive" style="stroke:#181818;stroke-width:1.0;stroke-dasharray:7.0,7.0;"/><polygon fill="#181818" points="1400.11,879.24,1403.7955,870.1067,1399.9366,874.243,1395.8003,870.3841,1400.11,879.24" style="stroke:#181818;stroke-width:1.0;"/></g><!--link AssignTrainController to LocomotiveRepository--><g id="link_AssignTrainController_LocomotiveRepository"><path codeLine="188" d="M1336.7,369.04 C1323.73,472.05 1307.5,601 1307.5,601 C1307.5,601 1291.9057,639.6261 1278.9457,671.7361 " fill="none" id="AssignTrainController-to-LocomotiveRepository" style="stroke:#181818;stroke-width:1.0;stroke-dasharray:7.0,7.0;"/><polygon fill="#181818" points="1276.7,677.3,1283.7778,670.4513,1278.5714,672.6634,1276.3592,667.457,1276.7,677.3" style="stroke:#181818;stroke-width:1.0;"/></g><!--link AssignTrainController to Station--><g id="link_AssignTrainController_Station"><path codeLine="189" d="M1301.93,369.04 C1260.44,472.05 1208.5,601 1208.5,601 C1208.5,601 1135.5,631 1135.5,631 C1135.5,631 1118.6724,780.3178 1107.1124,882.8278 " fill="none" id="AssignTrainController-to-Station" style="stroke:#181818;stroke-width:1.0;stroke-dasharray:7.0,7.0;"/><polygon fill="#181818" points="1106.44,888.79,1111.4233,880.2949,1107.0003,883.8215,1103.4737,879.3984,1106.44,888.79" style="stroke:#181818;stroke-width:1.0;"/></g><!--link AssignTrainController to StationRepository--><g id="link_AssignTrainController_StationRepository"><path codeLine="190" d="M1243.97,369.13 C1153.99,473.29 1036.2326,609.5999 981.7926,672.6099 " fill="none" id="AssignTrainController-to-StationRepository" style="stroke:#181818;stroke-width:1.0;stroke-dasharray:7.0,7.0;"/><polygon fill="#181818" points="977.87,677.15,986.7807,672.9549,981.1389,673.3665,980.7272,667.7247,977.87,677.15" style="stroke:#181818;stroke-width:1.0;"/></g><!--link AssignTrainController to RailwayLine--><g id="link_AssignTrainController_RailwayLine"><path codeLine="191" d="M1475.29,369.04 C1585.99,482.22 1731.5,631 1731.5,631 C1731.5,631 1780.6165,811.81 1807.5565,910.94 " fill="none" id="AssignTrainController-to-RailwayLine" style="stroke:#181818;stroke-width:1.0;stroke-dasharray:7.0,7.0;"/><polygon fill="#181818" points="1809.13,916.73,1810.6297,906.996,1807.8187,911.905,1802.9097,909.094,1809.13,916.73" style="stroke:#181818;stroke-width:1.0;"/></g><!--link AssignTrainController to ApplicationSession--><g id="link_AssignTrainController_ApplicationSession"><path codeLine="192" d="M1488.73,291.32 C1618.92,337.02 1795.5,399 1795.5,399 C1795.5,399 1812.5126,414.1759 1835.7626,434.9159 " fill="none" id="AssignTrainController-to-ApplicationSession" style="stroke:#181818;stroke-width:1.0;stroke-dasharray:7.0,7.0;"/><polygon fill="#181818" points="1840.24,438.91,1836.1866,429.9339,1836.5088,435.5816,1830.8611,435.9039,1840.24,438.91" style="stroke:#181818;stroke-width:1.0;"/></g><!--link AssignTrainController to UserSession--><g id="link_AssignTrainController_UserSession"><path codeLine="193" d="M1488.76,283.39 C1675.89,338.18 1989.5,430 1989.5,430 C1989.5,430 2009.3548,584.429 2019.3848,662.429 " fill="none" id="AssignTrainController-to-UserSession" style="stroke:#181818;stroke-width:1.0;stroke-dasharray:7.0,7.0;"/><polygon fill="#181818" points="2020.15,668.38,2022.9695,658.9433,2019.5123,663.4208,2015.0348,659.9637,2020.15,668.38" style="stroke:#181818;stroke-width:1.0;"/></g><!--link Repositories to Repositories--><g id="link_Repositories_Repositories"><path codeLine="195" d="M979.06,474.62 C999.31,476.22 1014,481.68 1014,491 C1014,500.32 1005.2914,505.3074 985.0414,506.9074 " fill="none" id="Repositories-to-Repositories" style="stroke:#181818;stroke-width:1.0;"/><polygon fill="#181818" points="979.06,507.38,988.3471,510.6587,984.0445,506.9862,987.717,502.6835,979.06,507.38" style="stroke:#181818;stroke-width:1.0;"/><text fill="#000000" font-family="sans-serif" font-size="13" lengthAdjust="spacing" textLength="48.4199" x="1020" y="496.5283">instance</text><text fill="#000000" font-family="sans-serif" font-size="13" lengthAdjust="spacing" textLength="7.23" x="987.3907" y="505.0772">1</text></g><!--link Repositories to ScenarioRepository--><g id="link_Repositories_ScenarioRepository"><path codeLine="196" d="M801.9,552.15 C745.67,592.6 678.5805,640.876 632.7105,673.876 " fill="none" id="Repositories-to-ScenarioRepository" style="stroke:#181818;stroke-width:1.0;"/><polygon fill="#181818" points="627.84,677.38,637.4818,675.3711,631.8988,674.46,632.8098,668.877,627.84,677.38" style="stroke:#181818;stroke-width:1.0;"/><text fill="#000000" font-family="sans-serif" font-size="13" lengthAdjust="spacing" textLength="111.2744" x="753.5" y="597.0283">scenarioRepository</text><text fill="#000000" font-family="sans-serif" font-size="13" lengthAdjust="spacing" textLength="7.23" x="629.1397" y="666.1819">1</text></g><!--link Repositories to LocomotiveRepository--><g id="link_Repositories_LocomotiveRepository"><path codeLine="197" d="M979.42,546.17 C1050.92,587.4 1141.7727,639.792 1201.8427,674.442 " fill="none" id="Repositories-to-LocomotiveRepository" style="stroke:#181818;stroke-width:1.0;"/><polygon fill="#181818" points="1207.04,677.44,1201.2426,669.4782,1202.7089,674.9417,1197.2454,676.4079,1207.04,677.44" style="stroke:#181818;stroke-width:1.0;"/><text fill="#000000" font-family="sans-serif" font-size="13" lengthAdjust="spacing" textLength="124.2744" x="1075.5" y="597.0283">locomotiveRepository</text><text fill="#000000" font-family="sans-serif" font-size="13" lengthAdjust="spacing" textLength="7.23" x="1188.2646" y="666.2537">1</text></g><!--link Repositories to StationRepository--><g id="link_Repositories_StationRepository"><path codeLine="198" d="M903.16,552.15 C915.03,592.6 928.5396,638.6231 938.2296,671.6231 " fill="none" id="Repositories-to-StationRepository" style="stroke:#181818;stroke-width:1.0;"/><polygon fill="#181818" points="939.92,677.38,941.2223,667.6176,938.5113,672.5825,933.5464,669.8716,939.92,677.38" style="stroke:#181818;stroke-width:1.0;"/><text fill="#000000" font-family="sans-serif" font-size="13" lengthAdjust="spacing" textLength="100.439" x="918.5" y="597.0283">stationRepository</text><text fill="#000000" font-family="sans-serif" font-size="13" lengthAdjust="spacing" textLength="7.23" x="930.3747" y="666.1819">1</text></g><!--link ScenarioRepository to Scenario--><g id="link_ScenarioRepository_Scenario"><path codeLine="200" d="M596.84,744.76 C610.54,776.06 629.544,819.4735 649.194,864.3635 " fill="none" id="ScenarioRepository-to-Scenario" style="stroke:#181818;stroke-width:1.0;"/><polygon fill="#181818" points="651.6,869.86,651.6553,860.0113,649.595,865.2796,644.3267,863.2193,651.6,869.86" style="stroke:#181818;stroke-width:1.0;"/><text fill="#000000" font-family="sans-serif" font-size="13" lengthAdjust="spacing" textLength="55.6372" x="638.5" y="836.0283">scenarios</text><text fill="#000000" font-family="sans-serif" font-size="13" lengthAdjust="spacing" textLength="5.0591" x="643.1234" y="858.7117">*</text></g><!--link Scenario to Map--><g id="link_Scenario_Map"><path codeLine="202" d="M825.35,1086.27 C845.84,1103.61 860.5,1116 860.5,1116 C860.5,1116 894.1176,1146.517 930.6876,1179.717 " fill="none" id="Scenario-to-Map" style="stroke:#181818;stroke-width:1.0;"/><polygon fill="#181818" points="935.13,1183.75,931.1551,1174.7389,931.428,1180.3892,925.7777,1180.6621,935.13,1183.75" style="stroke:#181818;stroke-width:1.0;"/><text fill="#000000" font-family="sans-serif" font-size="13" lengthAdjust="spacing" textLength="7.23" x="920.0576" y="1172.7023">1</text></g><!--link Scenario to Editor--><g id="link_Scenario_Editor"><path codeLine="203" d="M584.96,1086.27 C566.62,1103.61 553.5,1116 553.5,1116 C553.5,1116 520.6198,1152.5966 488.6198,1188.2166 " fill="none" id="Scenario-to-Editor" style="stroke:#181818;stroke-width:1.0;"/><polygon fill="#181818" points="484.61,1192.68,493.6002,1188.6581,487.9515,1188.9605,487.6491,1183.3118,484.61,1192.68" style="stroke:#181818;stroke-width:1.0;"/><text fill="#000000" font-family="sans-serif" font-size="13" lengthAdjust="spacing" textLength="58.5317" x="554.5" y="1131.0283">createdBy</text><text fill="#000000" font-family="sans-serif" font-size="13" lengthAdjust="spacing" textLength="7.23" x="483.3545" y="1181.5644">1</text></g><!--link Scenario to Port--><g id="link_Scenario_Port"><path codeLine="204" d="M848.18,1047.07 C964.97,1100.18 1107.5,1165 1107.5,1165 C1107.5,1165 1109.8394,1166.7048 1120.4894,1174.5048 " fill="none" id="Scenario-to-Port" style="stroke:#181818;stroke-width:1.0;"/><polygon fill="#181818" points="1125.33,1178.05,1120.4326,1169.5051,1121.2962,1175.0956,1115.7056,1175.9592,1125.33,1178.05" style="stroke:#181818;stroke-width:1.0;"/><text fill="#000000" font-family="sans-serif" font-size="13" lengthAdjust="spacing" textLength="28.9009" x="1040.5" y="1131.0283">ports</text><text fill="#000000" font-family="sans-serif" font-size="13" lengthAdjust="spacing" textLength="5.0591" x="1112.3646" y="1168.6186">*</text></g><!--link Scenario to Industry--><g id="link_Scenario_Industry"><path codeLine="205" d="M548.99,1057.61 C478.47,1094.69 400.3406,1135.7676 332.1406,1171.6276 " fill="none" id="Scenario-to-Industry" style="stroke:#181818;stroke-width:1.0;"/><polygon fill="#181818" points="326.83,1174.42,336.6575,1173.7719,331.2555,1172.093,332.9344,1166.691,326.83,1174.42" style="stroke:#181818;stroke-width:1.0;"/><text fill="#000000" font-family="sans-serif" font-size="13" lengthAdjust="spacing" textLength="55.6372" x="432.5" y="1131.0283">industries</text><text fill="#000000" font-family="sans-serif" font-size="13" lengthAdjust="spacing" textLength="5.0591" x="335.2204" y="1163.3028">*</text></g><!--link Scenario to LocomotiveType--><g id="link_Scenario_LocomotiveType"><path codeLine="206" d="M639.77,1086.27 C630.29,1103.61 623.5,1116 623.5,1116 C623.5,1116 618.5657,1151.1185 613.5557,1186.7385 " fill="none" id="Scenario-to-LocomotiveType" style="stroke:#181818;stroke-width:1.0;"/><polygon fill="#181818" points="612.72,1192.68,617.9345,1184.3248,613.4164,1187.7287,610.0125,1183.2106,612.72,1192.68" style="stroke:#181818;stroke-width:1.0;"/><text fill="#000000" font-family="sans-serif" font-size="13" lengthAdjust="spacing" textLength="124.2935" x="624.5" y="1131.0283">availableLocomotives</text><text fill="#000000" font-family="sans-serif" font-size="13" lengthAdjust="spacing" textLength="5.0591" x="608.3772" y="1181.5644">*</text></g><!--link Port to Cargo--><g id="link_Port_Cargo"><path codeLine="208" d="M1258.84,1325.24 C1273.16,1351.43 1285.5,1374 1285.5,1374 C1285.5,1374 1301.1836,1386.9494 1324.2636,1406.0094 " fill="none" id="Port-to-Cargo" style="stroke:#181818;stroke-width:1.0;"/><polygon fill="#181818" points="1328.89,1409.83,1324.4975,1401.0149,1325.0347,1406.6462,1319.4034,1407.1834,1328.89,1409.83" style="stroke:#181818;stroke-width:1.0;"/><text fill="#000000" font-family="sans-serif" font-size="13" lengthAdjust="spacing" textLength="81.6753" x="1286.5" y="1370.0283">handledCargo</text><text fill="#000000" font-family="sans-serif" font-size="13" lengthAdjust="spacing" textLength="5.0591" x="1316.038" y="1399.4853">*</text></g><!--link Port to BehaviourType--><g id="link_Port_BehaviourType"><path codeLine="209" d="M1200.24,1325.22 C1196.98,1342.12 1194.5,1355 1194.5,1355 C1194.5,1355 1194.5,1374 1194.5,1374 C1194.5,1374 1194.7502,1381.4633 1195.3002,1397.9733 " fill="none" id="Port-to-BehaviourType" style="stroke:#181818;stroke-width:1.0;"/><polygon fill="#181818" points="1195.5,1403.97,1199.1981,1394.8418,1195.3335,1398.9728,1191.2026,1395.1082,1195.5,1403.97" style="stroke:#181818;stroke-width:1.0;"/><text fill="#000000" font-family="sans-serif" font-size="13" lengthAdjust="spacing" textLength="49.8672" x="1195.5" y="1370.0283">behavior</text><text fill="#000000" font-family="sans-serif" font-size="13" lengthAdjust="spacing" textLength="7.23" x="1187.8893" y="1392.9477">1</text></g><!--link Industry to IndustryType--><g id="link_Industry_IndustryType"><path codeLine="211" d="M160.67,1315.58 C146.86,1343.99 133.6532,1371.1338 120.3532,1398.4938 " fill="none" id="Industry-to-IndustryType" style="stroke:#181818;stroke-width:1.0;"/><polygon fill="#181818" points="117.73,1403.89,125.2622,1397.5445,119.916,1399.3932,118.0673,1394.0469,117.73,1403.89" style="stroke:#181818;stroke-width:1.0;"/><text fill="#000000" font-family="sans-serif" font-size="13" lengthAdjust="spacing" textLength="7.23" x="113.6986" y="1392.8585">1</text></g><!--link Industry to IndustryGenerationFactor--><g id="link_Industry_IndustryGenerationFactor"><path codeLine="212" d="M228.33,1315.58 C243.66,1347.1 258.8365,1378.314 272.9265,1407.294 " fill="none" id="Industry-to-IndustryGenerationFactor" style="stroke:#181818;stroke-width:1.0;"/><polygon fill="#181818" points="275.55,1412.69,275.2121,1402.8469,273.3637,1408.1933,268.0174,1406.345,275.55,1412.69" style="stroke:#181818;stroke-width:1.0;"/><text fill="#000000" font-family="sans-serif" font-size="13" lengthAdjust="spacing" textLength="98.2808" x="255.5" y="1370.0283">generationFactor</text><text fill="#000000" font-family="sans-serif" font-size="13" lengthAdjust="spacing" textLength="7.23" x="264.7597" y="1401.5757">1</text></g><!--link StationRepository to Station--><g id="link_StationRepository_Station"><path codeLine="214" d="M967.67,744.76 C987.53,780.56 1017.2594,834.1633 1044.7194,883.6633 " fill="none" id="StationRepository-to-Station" style="stroke:#181818;stroke-width:1.0;"/><polygon fill="#181818" points="1047.63,888.91,1046.7619,879.0995,1045.2045,884.5377,1039.7662,882.9803,1047.63,888.91" style="stroke:#181818;stroke-width:1.0;"/><text fill="#000000" font-family="sans-serif" font-size="13" lengthAdjust="spacing" textLength="44.8018" x="1020.5" y="836.0283">stations</text><text fill="#000000" font-family="sans-serif" font-size="13" lengthAdjust="spacing" textLength="5.0591" x="1038.3613" y="877.8543">*</text></g><!--link LocomotiveRepository to Locomotive--><g id="link_LocomotiveRepository_Locomotive"><path codeLine="215" d="M1276.25,744.63 C1291.06,782.55 1313.5,840 1313.5,840 C1313.5,840 1321.4564,852.1048 1335.9964,874.2448 " fill="none" id="LocomotiveRepository-to-Locomotive" style="stroke:#181818;stroke-width:1.0;"/><polygon fill="#181818" points="1339.29,879.26,1337.693,869.5415,1336.5453,875.0807,1331.0061,873.933,1339.29,879.26" style="stroke:#181818;stroke-width:1.0;"/><text fill="#000000" font-family="sans-serif" font-size="13" lengthAdjust="spacing" textLength="68.6372" x="1314.5" y="836.0283">locomotives</text><text fill="#000000" font-family="sans-serif" font-size="13" lengthAdjust="spacing" textLength="5.0591" x="1329.1842" y="868.0901">*</text></g><!--link Station to Cargo--><g id="link_Station_Cargo"><path codeLine="217" d="M1183.21,1067.36 C1194.09,1078.45 1201.5,1086 1201.5,1086 C1201.5,1086 1322.5,1165 1322.5,1165 C1322.5,1165 1372.5,1355 1372.5,1355 C1372.5,1355 1376.0625,1372.6687 1381.1525,1397.8787 " fill="none" id="Station-to-Cargo" style="stroke:#181818;stroke-width:1.0;"/><polygon fill="#181818" points="1382.34,1403.76,1384.4797,1394.1464,1381.3504,1398.8589,1376.6379,1395.7297,1382.34,1403.76" style="stroke:#181818;stroke-width:1.0;"/><text fill="#000000" font-family="sans-serif" font-size="13" lengthAdjust="spacing" textLength="32.519" x="1365.5" y="1250.5283">cargo</text><text fill="#000000" font-family="sans-serif" font-size="13" lengthAdjust="spacing" textLength="5.0591" x="1375.6681" y="1392.7135">*</text></g><!--link Route to RailwayLine--><g id="link_Route_RailwayLine"><path codeLine="218" d="M1658.17,791.24 C1678.22,817.43 1695.5,840 1695.5,840 C1695.5,840 1729.42,875.7477 1764.35,912.5577 " fill="none" id="Route-to-RailwayLine" style="stroke:#181818;stroke-width:1.0;"/><polygon fill="#181818" points="1768.48,916.91,1765.1865,907.6281,1765.0383,913.2831,1759.3834,913.1349,1768.48,916.91" style="stroke:#181818;stroke-width:1.0;"/><text fill="#000000" font-family="sans-serif" font-size="13" lengthAdjust="spacing" textLength="46.9536" x="1696.5" y="836.0283">railways</text><text fill="#000000" font-family="sans-serif" font-size="13" lengthAdjust="spacing" textLength="19.5127" x="1741.8193" y="905.8808">1..*</text></g><!--link Route to Station--><g id="link_Route_Station"><path codeLine="219" d="M1480.96,784.42 C1434.35,813.38 1391.5,840 1391.5,840 C1391.5,840 1201.5,870 1201.5,870 C1201.5,870 1198.2919,873.267 1187.4119,884.357 " fill="none" id="Route-to-Station" style="stroke:#181818;stroke-width:1.0;"/><polygon fill="#181818" points="1183.21,888.64,1192.3682,885.0168,1186.7116,885.0708,1186.6575,879.4142,1183.21,888.64" style="stroke:#181818;stroke-width:1.0;"/><text fill="#000000" font-family="sans-serif" font-size="13" lengthAdjust="spacing" textLength="44.8018" x="1422.5" y="836.0283">stations</text><text fill="#000000" font-family="sans-serif" font-size="13" lengthAdjust="spacing" textLength="19.5127" x="1170.3666" y="877.8678">2..*</text></g><!--link Route to Locomotive--><g id="link_Route_Locomotive"><path codeLine="220" d="M1546.12,791.24 C1529.14,817.43 1514.5,840 1514.5,840 C1514.5,840 1504.4074,852.4583 1486.4674,874.5983 " fill="none" id="Route-to-Locomotive" style="stroke:#181818;stroke-width:1.0;"/><polygon fill="#181818" points="1482.69,879.26,1491.4639,874.7857,1485.8378,875.3752,1485.2483,869.7492,1482.69,879.26" style="stroke:#181818;stroke-width:1.0;"/><text fill="#000000" font-family="sans-serif" font-size="13" lengthAdjust="spacing" textLength="62.1372" x="1528.5" y="836.0283">locomotive</text><text fill="#000000" font-family="sans-serif" font-size="13" lengthAdjust="spacing" textLength="7.23" x="1481.4932" y="868.0901">1</text></g><!--link Route to Cargo--><g id="link_Route_Cargo"><path codeLine="221" d="M1601.02,791.46 C1602.76,830.81 1604.5,870 1604.5,870 C1604.5,870 1604.5,1086 1604.5,1086 C1604.5,1086 1490.2139,1291.7251 1430.9239,1398.4451 " fill="none" id="Route-to-Cargo" style="stroke:#181818;stroke-width:1.0;"/><polygon fill="#181818" points="1428.01,1403.69,1435.8775,1397.7652,1430.4382,1399.3192,1428.8842,1393.88,1428.01,1403.69" style="stroke:#181818;stroke-width:1.0;"/><text fill="#000000" font-family="sans-serif" font-size="13" lengthAdjust="spacing" textLength="32.519" x="1588.5" y="1131.0283">cargo</text><text fill="#000000" font-family="sans-serif" font-size="13" lengthAdjust="spacing" textLength="19.5127" x="1411.8356" y="1392.6354">1..*</text></g><!--link Scenario to HistoricalEvent--><g id="link_Scenario_HistoricalEvent"><path codeLine="222" d="M741.57,1086.27 C748.52,1103.61 753.5,1116 753.5,1116 C753.5,1116 764.2617,1151.3204 775.1117,1186.9404 " fill="none" id="Scenario-to-HistoricalEvent" style="stroke:#181818;stroke-width:1.0;"/><polygon fill="#181818" points="776.86,1192.68,778.0639,1182.905,775.4031,1187.897,770.4111,1185.2361,776.86,1192.68" style="stroke:#181818;stroke-width:1.0;"/><text fill="#000000" font-family="sans-serif" font-size="13" lengthAdjust="spacing" textLength="91.0381" x="760.5" y="1131.0283">historicalEvents</text><text fill="#000000" font-family="sans-serif" font-size="13" lengthAdjust="spacing" textLength="5.0591" x="769.4149" y="1181.5644">*</text></g><!--link ApplicationSession to UserSession--><g id="link_ApplicationSession_UserSession"><path codeLine="225" d="M1927.51,543.11 C1949.9,581.24 1977.0723,627.5158 1998.0023,663.1658 " fill="none" id="ApplicationSession-to-UserSession" style="stroke:#181818;stroke-width:1.0;stroke-dasharray:7.0,7.0;"/><polygon fill="#181818" points="2001.04,668.34,1999.9328,658.5536,1998.5085,664.0282,1993.0339,662.6039,2001.04,668.34" style="stroke:#181818;stroke-width:1.0;"/></g><!--link UserSession to Player--><g id="link_UserSession_Player"><path codeLine="226" d="M2034.94,753.7 C2044.87,797.57 2059.2745,861.1882 2070.5545,910.9882 " fill="none" id="UserSession-to-Player" style="stroke:#181818;stroke-width:1.0;"/><polygon fill="#181818" points="2071.88,916.84,2073.793,907.1787,2070.7754,911.9635,2065.9906,908.946,2071.88,916.84" style="stroke:#181818;stroke-width:1.0;"/><text fill="#000000" font-family="sans-serif" font-size="13" lengthAdjust="spacing" textLength="86.728" x="2055.5" y="836.0283">loggedInPlayer</text><text fill="#000000" font-family="sans-serif" font-size="13" lengthAdjust="spacing" textLength="7.23" x="2062.9296" y="905.8027">1</text></g><!--SRC=[bHVBRkCsyAwl4FRaj9kWxL4e0ZYEqpNWn87jjDtJWfR6CX6PL4awgRhOV-zGeYXIbBNU71ngNfpt3EKhPIKHv1YN97qbEMnKLK0i85M4vGL4qXB80yduEsLvl2U5T345PQ2g4kAI5vN-S71fGQISAYNexgHWaNAseVz1_4iKrPXuAYNDsLOGobuMyTVesm1YnfaIl2X0846CVpyFOoTN1fk3MbAfLllf6w45sHMmIO4HGRcqD19K2vn8SpZFl-GfFt95ty0Lu40BUnnHGX55EUjq85bcO1FP_BSO0MWNmp10DYa5l55-aeRsOzmZJW-Gliw8o7bV3EhOm5FzQ-a540LhZW5nzBPYvSVOaDjWhA7aaYekA4WR0pHmmP27fU1wllMgvQayR7F7CBBpfuUtQhIYZGhNCID7IE8DPXVB3IW3cGfQwajw65HLg2tL7FTelu42omBOaPH9_4XAyqd2B919h8FxUmVPOW7S6eQI2zLIFEEvXLEMdQJIJZJ8HGEeRaFttLMRLj_9bT7EEk8JCcCmKbBCtu0fpn_nUOVqKR3VOuRT3n7Ogz0De-BVQQOE2AHC6KW1BFT0jLqevwvw8jgQWLl2f77JRAIOhOIXt1cHuOJIox0cFKSjnf8XnbbBS-moJ7_fLAYPx9V1ezuAcrZ0jplH8jETDOdlpB7bq8M8uBgAev5wxrjmcIExXjILEkBUIRN4DcwzK5TEPr5NEG4CqxAKiSbkWxgDVgofTQhe3cMLs5CXs_OHt8lqPt73EfdIhkS8P3FFppRE9aMQY9cFrfeVwPyTjpM7PlsyAlbxdHnT9P4q1PnhhLaT0YtQb01QnBxWHBbn-Wn4hFQhikDpEXj9_pbHp0j4F6F_05zgaxT-JpFMKccpve6BO7AYoISXCBtrNRh0TvmNG9Xs0R3JiIVKUE5-CT_Cb_LnivrF7-lJV3cVRTUBMUUz9ZWZFPyS-OcfNiDfUer7MSEdDR76Q79xYUxJOtVyE-DSO6MYVQxFgc6mTkLgNolk9zKE3aJdlS1IRu-EcqEzMmTwr4RHnUFpQhrjlFQtFJRGBmvakvu-RHvMwyVEt7RoN6ooXwdEOhJXYPNkzBuScCd81v9YN-g8_kXXGYKTaziRBfhvjJyryr0UE6DlmDtdb3DgV9fF__pyvNczkd-PRHUhfnhukBZlWvQhlroGjMoUqKxOeFFXYENMxn07pk3fTDo1w6Nlj2mBsioK3M1FSqPOYB8hrzUwOwNVpgroiwQcEpPxtui4uLzKCsZmN2lkRtLv3jc2FHUaqajw4ZSdf_RgRwln2QLSw94tAjI958sYQUMsW0nsL4sSrd3bTIN_uN5pSplyfl08dOU8Pd2tuZ4oFIX6y6qplO2ac-eZnCwekeJe8fdjHFqknKNId1rZX2fCt15Y9o6Zo7kkN5_VnXz-_U2_ONH2DFa-J3omZoQn3ACmo3ouYYREFl4z0U4EbxJBXSCQ3IXPI_Yfqz_HMdOCzYBznWc0fZSbvfsOtLKz6fHVJykaUUY4M3jS4kV94vBrTe9ayA4LHVLTBK-xg1q8omgpjpaKgBu_A9Dsuc8bMxLQKczCdSK68o09XXcwDWYP3OLTIzlzC1fCaD0hNiv8UqVWYthRZ9fjkL7-vWRHxYQVnABvaYxTRpNTW8AkhBCQXJVw2WNnxhzQCOe-16sC1YPPlxxTuTFgQ4Q8ri-TDj7_]--></g></svg>