<svg xmlns="http://www.w3.org/2000/svg" xmlns:xlink="http://www.w3.org/1999/xlink" contentStyleType="text/css" data-diagram-type="CLASS" height="1181px" preserveAspectRatio="none" style="width:1487px;height:1181px;background:#FFFFFF;" version="1.1" viewBox="0 0 1487 1181" width="1487px" zoomAndPan="magnify"><defs/><g><!--class GameScreen--><g class="entity" data-entity="GameScreen" data-source-line="8" data-uid="ent0002" id="entity_GameScreen"><rect fill="#F1F1F1" height="113.1875" rx="2.5" ry="2.5" style="stroke:#181818;stroke-width:0.5;" width="927.332" x="392.5" y="7"/><ellipse cx="806.8569" cy="23" fill="#ADD1B2" rx="11" ry="11" style="stroke:#181818;stroke-width:1;"/><path d="M809.8257,28.6406 Q809.2476,28.9375 808.6069,29.0781 Q807.9663,29.2344 807.2632,29.2344 Q804.7632,29.2344 803.4351,27.5938 Q802.1226,25.9375 802.1226,22.8125 Q802.1226,19.6875 803.4351,18.0313 Q804.7632,16.375 807.2632,16.375 Q807.9663,16.375 808.6069,16.5313 Q809.2632,16.6875 809.8257,16.9844 L809.8257,19.7031 Q809.2007,19.125 808.6069,18.8594 Q808.0132,18.5781 807.3882,18.5781 Q806.0444,18.5781 805.3569,19.6563 Q804.6694,20.7188 804.6694,22.8125 Q804.6694,24.9063 805.3569,25.9844 Q806.0444,27.0469 807.3882,27.0469 Q808.0132,27.0469 808.6069,26.7813 Q809.2007,26.5 809.8257,25.9219 L809.8257,28.6406 Z " fill="#000000"/><text fill="#000000" font-family="sans-serif" font-size="14" lengthAdjust="spacing" textLength="90.1182" x="827.3569" y="27.8467">GameScreen</text><line style="stroke:#181818;stroke-width:0.5;" x1="393.5" x2="1318.832" y1="39" y2="39"/><line style="stroke:#181818;stroke-width:0.5;" x1="393.5" x2="1318.832" y1="47" y2="47"/><text fill="#000000" font-family="sans-serif" font-size="14" lengthAdjust="spacing" textLength="216.1387" x="398.5" y="63.9951">+getTrains() : List&lt;TrainDTO&gt;</text><text fill="#000000" font-family="sans-serif" font-size="14" lengthAdjust="spacing" textLength="244.3848" x="398.5" y="80.292">+getStations() : List&lt;StationDTO&gt;</text><text fill="#000000" font-family="sans-serif" font-size="14" lengthAdjust="spacing" textLength="487.5938" x="398.5" y="96.5889">+getConnectedStations(stationDTO: StationDTO) : List&lt;StationDTO&gt;</text><text fill="#000000" font-family="sans-serif" font-size="14" lengthAdjust="spacing" textLength="915.332" x="398.5" y="112.8857">+assignTrain(trainDTO: TrainDTO, stations: List&lt;StationDTO&gt;, cargos: List&lt;CargoDTO&gt;, pickUpModes: List&lt;PickUpMode&gt;) : void</text></g><!--class GameController--><g class="entity" data-entity="GameController" data-source-line="16" data-uid="ent0003" id="entity_GameController"><rect fill="#F1F1F1" height="113.1875" rx="2.5" ry="2.5" style="stroke:#181818;stroke-width:0.5;" width="927.332" x="392.5" y="180"/><ellipse cx="796.4902" cy="196" fill="#ADD1B2" rx="11" ry="11" style="stroke:#181818;stroke-width:1;"/><path d="M799.459,201.6406 Q798.8809,201.9375 798.2402,202.0781 Q797.5996,202.2344 796.8965,202.2344 Q794.3965,202.2344 793.0684,200.5938 Q791.7559,198.9375 791.7559,195.8125 Q791.7559,192.6875 793.0684,191.0313 Q794.3965,189.375 796.8965,189.375 Q797.5996,189.375 798.2402,189.5313 Q798.8965,189.6875 799.459,189.9844 L799.459,192.7031 Q798.834,192.125 798.2402,191.8594 Q797.6465,191.5781 797.0215,191.5781 Q795.6777,191.5781 794.9902,192.6563 Q794.3027,193.7188 794.3027,195.8125 Q794.3027,197.9063 794.9902,198.9844 Q795.6777,200.0469 797.0215,200.0469 Q797.6465,200.0469 798.2402,199.7813 Q798.834,199.5 799.459,198.9219 L799.459,201.6406 Z " fill="#000000"/><text fill="#000000" font-family="sans-serif" font-size="14" lengthAdjust="spacing" textLength="110.8516" x="816.9902" y="200.8467">GameController</text><line style="stroke:#181818;stroke-width:0.5;" x1="393.5" x2="1318.832" y1="212" y2="212"/><line style="stroke:#181818;stroke-width:0.5;" x1="393.5" x2="1318.832" y1="220" y2="220"/><text fill="#000000" font-family="sans-serif" font-size="14" lengthAdjust="spacing" textLength="216.1387" x="398.5" y="236.9951">+getTrains() : List&lt;TrainDTO&gt;</text><text fill="#000000" font-family="sans-serif" font-size="14" lengthAdjust="spacing" textLength="244.3848" x="398.5" y="253.292">+getStations() : List&lt;StationDTO&gt;</text><text fill="#000000" font-family="sans-serif" font-size="14" lengthAdjust="spacing" textLength="487.5938" x="398.5" y="269.5889">+getConnectedStations(stationDTO: StationDTO) : List&lt;StationDTO&gt;</text><text fill="#000000" font-family="sans-serif" font-size="14" lengthAdjust="spacing" textLength="915.332" x="398.5" y="285.8857">+assignTrain(trainDTO: TrainDTO, stations: List&lt;StationDTO&gt;, cargos: List&lt;CargoDTO&gt;, pickUpModes: List&lt;PickUpMode&gt;) : void</text></g><!--class CurrentGame--><g class="entity" data-entity="CurrentGame" data-source-line="24" data-uid="ent0004" id="entity_CurrentGame"><rect fill="#F1F1F1" height="113.1875" rx="2.5" ry="2.5" style="stroke:#181818;stroke-width:0.5;" width="408.5391" x="229.5" y="353"/><ellipse cx="382.1123" cy="369" fill="#ADD1B2" rx="11" ry="11" style="stroke:#181818;stroke-width:1;"/><path d="M385.0811,374.6406 Q384.5029,374.9375 383.8623,375.0781 Q383.2217,375.2344 382.5186,375.2344 Q380.0186,375.2344 378.6904,373.5938 Q377.3779,371.9375 377.3779,368.8125 Q377.3779,365.6875 378.6904,364.0313 Q380.0186,362.375 382.5186,362.375 Q383.2217,362.375 383.8623,362.5313 Q384.5186,362.6875 385.0811,362.9844 L385.0811,365.7031 Q384.4561,365.125 383.8623,364.8594 Q383.2686,364.5781 382.6436,364.5781 Q381.2998,364.5781 380.6123,365.6563 Q379.9248,366.7188 379.9248,368.8125 Q379.9248,370.9063 380.6123,371.9844 Q381.2998,373.0469 382.6436,373.0469 Q383.2686,373.0469 383.8623,372.7813 Q384.4561,372.5 385.0811,371.9219 L385.0811,374.6406 Z " fill="#000000"/><text fill="#000000" font-family="sans-serif" font-size="14" lengthAdjust="spacing" textLength="94.8145" x="402.6123" y="373.8467">CurrentGame</text><line style="stroke:#181818;stroke-width:0.5;" x1="230.5" x2="637.0391" y1="385" y2="385"/><line style="stroke:#181818;stroke-width:0.5;" x1="230.5" x2="637.0391" y1="393" y2="393"/><text fill="#000000" font-family="sans-serif" font-size="14" lengthAdjust="spacing" textLength="229.3525" x="235.5" y="409.9951">+getPlayerTrains() : List&lt;Train&gt;</text><text fill="#000000" font-family="sans-serif" font-size="14" lengthAdjust="spacing" textLength="214.0332" x="235.5" y="426.292">+getStations() : List&lt;Station&gt;</text><text fill="#000000" font-family="sans-serif" font-size="14" lengthAdjust="spacing" textLength="396.5391" x="235.5" y="442.5889">+getConnectedStations(station: Station) : List&lt;Station&gt;</text><text fill="#000000" font-family="sans-serif" font-size="14" lengthAdjust="spacing" textLength="381.1035" x="235.5" y="458.8857">+assignTrain(trainDTO: TrainDTO, route: Route) : void</text></g><!--class TrainMapper--><g class="entity" data-entity="TrainMapper" data-source-line="31" data-uid="ent0005" id="entity_TrainMapper"><rect fill="#F1F1F1" height="80.5938" rx="2.5" ry="2.5" style="stroke:#181818;stroke-width:0.5;" width="363.7158" x="674" y="369"/><ellipse cx="807.3828" cy="385" fill="#ADD1B2" rx="11" ry="11" style="stroke:#181818;stroke-width:1;"/><path d="M810.3516,390.6406 Q809.7734,390.9375 809.1328,391.0781 Q808.4922,391.2344 807.7891,391.2344 Q805.2891,391.2344 803.9609,389.5938 Q802.6484,387.9375 802.6484,384.8125 Q802.6484,381.6875 803.9609,380.0313 Q805.2891,378.375 807.7891,378.375 Q808.4922,378.375 809.1328,378.5313 Q809.7891,378.6875 810.3516,378.9844 L810.3516,381.7031 Q809.7266,381.125 809.1328,380.8594 Q808.5391,380.5781 807.9141,380.5781 Q806.5703,380.5781 805.8828,381.6563 Q805.1953,382.7188 805.1953,384.8125 Q805.1953,386.9063 805.8828,387.9844 Q806.5703,389.0469 807.9141,389.0469 Q808.5391,389.0469 809.1328,388.7813 Q809.7266,388.5 810.3516,387.9219 L810.3516,390.6406 Z " fill="#000000"/><text fill="#000000" font-family="sans-serif" font-size="14" lengthAdjust="spacing" textLength="88.4502" x="827.8828" y="389.8467">TrainMapper</text><line style="stroke:#181818;stroke-width:0.5;" x1="675" x2="1036.7158" y1="401" y2="401"/><line style="stroke:#181818;stroke-width:0.5;" x1="675" x2="1036.7158" y1="409" y2="409"/><text fill="#000000" font-family="sans-serif" font-size="14" lengthAdjust="spacing" textLength="351.7158" x="680" y="425.9951">+toDTOList(trains: List&lt;Train&gt;) : List&lt;TrainDTO&gt;</text><text fill="#000000" font-family="sans-serif" font-size="14" lengthAdjust="spacing" textLength="224.082" x="680" y="442.292">+toDTO(train: Train) : TrainDTO</text></g><!--class StationMapper--><g class="entity" data-entity="StationMapper" data-source-line="36" data-uid="ent0006" id="entity_StationMapper"><rect fill="#F1F1F1" height="80.5938" rx="2.5" ry="2.5" style="stroke:#181818;stroke-width:0.5;" width="407.5547" x="1073" y="369"/><ellipse cx="1221.2407" cy="385" fill="#ADD1B2" rx="11" ry="11" style="stroke:#181818;stroke-width:1;"/><path d="M1224.2095,390.6406 Q1223.6313,390.9375 1222.9907,391.0781 Q1222.3501,391.2344 1221.647,391.2344 Q1219.147,391.2344 1217.8188,389.5938 Q1216.5063,387.9375 1216.5063,384.8125 Q1216.5063,381.6875 1217.8188,380.0313 Q1219.147,378.375 1221.647,378.375 Q1222.3501,378.375 1222.9907,378.5313 Q1223.647,378.6875 1224.2095,378.9844 L1224.2095,381.7031 Q1223.5845,381.125 1222.9907,380.8594 Q1222.397,380.5781 1221.772,380.5781 Q1220.4282,380.5781 1219.7407,381.6563 Q1219.0532,382.7188 1219.0532,384.8125 Q1219.0532,386.9063 1219.7407,387.9844 Q1220.4282,389.0469 1221.772,389.0469 Q1222.397,389.0469 1222.9907,388.7813 Q1223.5845,388.5 1224.2095,387.9219 L1224.2095,390.6406 Z " fill="#000000"/><text fill="#000000" font-family="sans-serif" font-size="14" lengthAdjust="spacing" textLength="102.5732" x="1241.7407" y="389.8467">StationMapper</text><line style="stroke:#181818;stroke-width:0.5;" x1="1074" x2="1479.5547" y1="401" y2="401"/><line style="stroke:#181818;stroke-width:0.5;" x1="1074" x2="1479.5547" y1="409" y2="409"/><text fill="#000000" font-family="sans-serif" font-size="14" lengthAdjust="spacing" textLength="395.5547" x="1079" y="425.9951">+toDTOList(stations: List&lt;Station&gt;) : List&lt;StationDTO&gt;</text><text fill="#000000" font-family="sans-serif" font-size="14" lengthAdjust="spacing" textLength="267.9209" x="1079" y="442.292">+toDTO(station: Station) : StationDTO</text></g><!--class Train--><g class="entity" data-entity="Train" data-source-line="42" data-uid="ent0007" id="entity_Train"><rect fill="#F1F1F1" height="113.1875" rx="2.5" ry="2.5" style="stroke:#181818;stroke-width:0.5;" width="497.9463" x="7" y="699"/><ellipse cx="233.8984" cy="715" fill="#ADD1B2" rx="11" ry="11" style="stroke:#181818;stroke-width:1;"/><path d="M236.8672,720.6406 Q236.2891,720.9375 235.6484,721.0781 Q235.0078,721.2344 234.3047,721.2344 Q231.8047,721.2344 230.4766,719.5938 Q229.1641,717.9375 229.1641,714.8125 Q229.1641,711.6875 230.4766,710.0313 Q231.8047,708.375 234.3047,708.375 Q235.0078,708.375 235.6484,708.5313 Q236.3047,708.6875 236.8672,708.9844 L236.8672,711.7031 Q236.2422,711.125 235.6484,710.8594 Q235.0547,710.5781 234.4297,710.5781 Q233.0859,710.5781 232.3984,711.6563 Q231.7109,712.7188 231.7109,714.8125 Q231.7109,716.9063 232.3984,717.9844 Q233.0859,719.0469 234.4297,719.0469 Q235.0547,719.0469 235.6484,718.7813 Q236.2422,718.5 236.8672,717.9219 L236.8672,720.6406 Z " fill="#000000"/><text fill="#000000" font-family="sans-serif" font-size="14" lengthAdjust="spacing" textLength="35.6494" x="254.3984" y="719.8467">Train</text><line style="stroke:#181818;stroke-width:0.5;" x1="8" x2="503.9463" y1="731" y2="731"/><text fill="#000000" font-family="sans-serif" font-size="14" lengthAdjust="spacing" textLength="56.376" x="13" y="747.9951">+id : int</text><text fill="#000000" font-family="sans-serif" font-size="14" lengthAdjust="spacing" textLength="183.6543" x="13" y="764.292">+locomotive : Locomotive</text><text fill="#000000" font-family="sans-serif" font-size="14" lengthAdjust="spacing" textLength="198.167" x="13" y="780.5889">+carriages : List&lt;Carriage&gt;</text><line style="stroke:#181818;stroke-width:0.5;" x1="8" x2="503.9463" y1="787.8906" y2="787.8906"/><text fill="#000000" font-family="sans-serif" font-size="14" lengthAdjust="spacing" textLength="485.9463" x="13" y="804.8857">+assignTrain(trainDTO: TrainDTO, points: List&lt;PointOfRoute&gt;) : void</text></g><!--class Locomotive--><g class="entity" data-entity="Locomotive" data-source-line="49" data-uid="ent0008" id="entity_Locomotive"><rect fill="#F1F1F1" height="162.0781" rx="2.5" ry="2.5" style="stroke:#181818;stroke-width:0.5;" width="205.3271" x="76.5" y="872"/><ellipse cx="134.3594" cy="888" fill="#ADD1B2" rx="11" ry="11" style="stroke:#181818;stroke-width:1;"/><path d="M137.3281,893.6406 Q136.75,893.9375 136.1094,894.0781 Q135.4688,894.2344 134.7656,894.2344 Q132.2656,894.2344 130.9375,892.5938 Q129.625,890.9375 129.625,887.8125 Q129.625,884.6875 130.9375,883.0313 Q132.2656,881.375 134.7656,881.375 Q135.4688,881.375 136.1094,881.5313 Q136.7656,881.6875 137.3281,881.9844 L137.3281,884.7031 Q136.7031,884.125 136.1094,883.8594 Q135.5156,883.5781 134.8906,883.5781 Q133.5469,883.5781 132.8594,884.6563 Q132.1719,885.7188 132.1719,887.8125 Q132.1719,889.9063 132.8594,890.9844 Q133.5469,892.0469 134.8906,892.0469 Q135.5156,892.0469 136.1094,891.7813 Q136.7031,891.5 137.3281,890.9219 L137.3281,893.6406 Z " fill="#000000"/><text fill="#000000" font-family="sans-serif" font-size="14" lengthAdjust="spacing" textLength="81.1084" x="154.8594" y="892.8467">Locomotive</text><line style="stroke:#181818;stroke-width:0.5;" x1="77.5" x2="280.8271" y1="904" y2="904"/><text fill="#000000" font-family="sans-serif" font-size="14" lengthAdjust="spacing" textLength="56.376" x="82.5" y="920.9951">+id : int</text><text fill="#000000" font-family="sans-serif" font-size="14" lengthAdjust="spacing" textLength="116.334" x="82.5" y="937.292">+power : double</text><text fill="#000000" font-family="sans-serif" font-size="14" lengthAdjust="spacing" textLength="159.3047" x="82.5" y="953.5889">+acceleration : double</text><text fill="#000000" font-family="sans-serif" font-size="14" lengthAdjust="spacing" textLength="139.8906" x="82.5" y="969.8857">+topSpeed : double</text><text fill="#000000" font-family="sans-serif" font-size="14" lengthAdjust="spacing" textLength="193.3271" x="82.5" y="986.1826">+startYearOfOperation : int</text><text fill="#000000" font-family="sans-serif" font-size="14" lengthAdjust="spacing" textLength="175.6904" x="82.5" y="1002.4795">+aquisitionPrice : double</text><text fill="#000000" font-family="sans-serif" font-size="14" lengthAdjust="spacing" textLength="172.0674" x="82.5" y="1018.7764">+type : LocomotiveType</text><line style="stroke:#181818;stroke-width:0.5;" x1="77.5" x2="280.8271" y1="1026.0781" y2="1026.0781"/></g><!--class Carriage--><g class="entity" data-entity="Carriage" data-source-line="59" data-uid="ent0009" id="entity_Carriage"><rect fill="#F1F1F1" height="113.1875" rx="2.5" ry="2.5" style="stroke:#181818;stroke-width:0.5;" width="162.7939" x="316.5" y="896.5"/><ellipse cx="363.7295" cy="912.5" fill="#ADD1B2" rx="11" ry="11" style="stroke:#181818;stroke-width:1;"/><path d="M366.6982,918.1406 Q366.1201,918.4375 365.4795,918.5781 Q364.8389,918.7344 364.1357,918.7344 Q361.6357,918.7344 360.3076,917.0938 Q358.9951,915.4375 358.9951,912.3125 Q358.9951,909.1875 360.3076,907.5313 Q361.6357,905.875 364.1357,905.875 Q364.8389,905.875 365.4795,906.0313 Q366.1357,906.1875 366.6982,906.4844 L366.6982,909.2031 Q366.0732,908.625 365.4795,908.3594 Q364.8857,908.0781 364.2607,908.0781 Q362.917,908.0781 362.2295,909.1563 Q361.542,910.2188 361.542,912.3125 Q361.542,914.4063 362.2295,915.4844 Q362.917,916.5469 364.2607,916.5469 Q364.8857,916.5469 365.4795,916.2813 Q366.0732,916 366.6982,915.4219 L366.6982,918.1406 Z " fill="#000000"/><text fill="#000000" font-family="sans-serif" font-size="14" lengthAdjust="spacing" textLength="59.835" x="384.2295" y="917.3467">Carriage</text><line style="stroke:#181818;stroke-width:0.5;" x1="317.5" x2="478.2939" y1="928.5" y2="928.5"/><text fill="#000000" font-family="sans-serif" font-size="14" lengthAdjust="spacing" textLength="56.376" x="322.5" y="945.4951">+id : int</text><text fill="#000000" font-family="sans-serif" font-size="14" lengthAdjust="spacing" textLength="102.7031" x="322.5" y="961.792">+capacity : int</text><text fill="#000000" font-family="sans-serif" font-size="14" lengthAdjust="spacing" textLength="150.7939" x="322.5" y="978.0889">+type : CarriageType</text><text fill="#000000" font-family="sans-serif" font-size="14" lengthAdjust="spacing" textLength="106.3945" x="322.5" y="994.3857">+cargo : Cargo</text><line style="stroke:#181818;stroke-width:0.5;" x1="317.5" x2="478.2939" y1="1001.6875" y2="1001.6875"/></g><!--class LocomotiveType--><g class="entity" data-entity="LocomotiveType" data-source-line="66" data-uid="ent0010" id="entity_LocomotiveType"><rect fill="#F1F1F1" height="80.5938" rx="2.5" ry="2.5" style="stroke:#181818;stroke-width:0.5;" width="156.9697" x="100.5" y="1094"/><ellipse cx="119.786" cy="1110" fill="#ADD1B2" rx="11" ry="11" style="stroke:#181818;stroke-width:1;"/><path d="M122.7547,1115.6406 Q122.1766,1115.9375 121.536,1116.0781 Q120.8954,1116.2344 120.1922,1116.2344 Q117.6922,1116.2344 116.3641,1114.5938 Q115.0516,1112.9375 115.0516,1109.8125 Q115.0516,1106.6875 116.3641,1105.0313 Q117.6922,1103.375 120.1922,1103.375 Q120.8954,1103.375 121.536,1103.5313 Q122.1922,1103.6875 122.7547,1103.9844 L122.7547,1106.7031 Q122.1297,1106.125 121.536,1105.8594 Q120.9422,1105.5781 120.3172,1105.5781 Q118.9735,1105.5781 118.286,1106.6563 Q117.5985,1107.7188 117.5985,1109.8125 Q117.5985,1111.9063 118.286,1112.9844 Q118.9735,1114.0469 120.3172,1114.0469 Q120.9422,1114.0469 121.536,1113.7813 Q122.1297,1113.5 122.7547,1112.9219 L122.7547,1115.6406 Z " fill="#000000"/><text fill="#000000" font-family="sans-serif" font-size="14" lengthAdjust="spacing" textLength="115.4453" x="134.7384" y="1114.8467">LocomotiveType</text><line style="stroke:#181818;stroke-width:0.5;" x1="101.5" x2="256.4697" y1="1126" y2="1126"/><text fill="#000000" font-family="sans-serif" font-size="14" lengthAdjust="spacing" textLength="106.832" x="106.5" y="1142.9951">+name : String</text><text fill="#000000" font-family="sans-serif" font-size="14" lengthAdjust="spacing" textLength="144.9697" x="106.5" y="1159.292">+description : String</text><line style="stroke:#181818;stroke-width:0.5;" x1="101.5" x2="256.4697" y1="1166.5938" y2="1166.5938"/></g><!--class CarriageType--><g class="entity" data-entity="CarriageType" data-source-line="71" data-uid="ent0011" id="entity_CarriageType"><rect fill="#F1F1F1" height="64.2969" rx="2.5" ry="2.5" style="stroke:#181818;stroke-width:0.5;" width="126.1719" x="314" y="1102.5"/><ellipse cx="329" cy="1118.5" fill="#ADD1B2" rx="11" ry="11" style="stroke:#181818;stroke-width:1;"/><path d="M331.9688,1124.1406 Q331.3906,1124.4375 330.75,1124.5781 Q330.1094,1124.7344 329.4063,1124.7344 Q326.9063,1124.7344 325.5781,1123.0938 Q324.2656,1121.4375 324.2656,1118.3125 Q324.2656,1115.1875 325.5781,1113.5313 Q326.9063,1111.875 329.4063,1111.875 Q330.1094,1111.875 330.75,1112.0313 Q331.4063,1112.1875 331.9688,1112.4844 L331.9688,1115.2031 Q331.3438,1114.625 330.75,1114.3594 Q330.1563,1114.0781 329.5313,1114.0781 Q328.1875,1114.0781 327.5,1115.1563 Q326.8125,1116.2188 326.8125,1118.3125 Q326.8125,1120.4063 327.5,1121.4844 Q328.1875,1122.5469 329.5313,1122.5469 Q330.1563,1122.5469 330.75,1122.2813 Q331.3438,1122 331.9688,1121.4219 L331.9688,1124.1406 Z " fill="#000000"/><text fill="#000000" font-family="sans-serif" font-size="14" lengthAdjust="spacing" textLength="94.1719" x="343" y="1123.3467">CarriageType</text><line style="stroke:#181818;stroke-width:0.5;" x1="315" x2="439.1719" y1="1134.5" y2="1134.5"/><text fill="#000000" font-family="sans-serif" font-size="14" lengthAdjust="spacing" textLength="106.832" x="320" y="1151.4951">+name : String</text><line style="stroke:#181818;stroke-width:0.5;" x1="315" x2="439.1719" y1="1158.7969" y2="1158.7969"/></g><!--class Cargo--><g class="entity" data-entity="Cargo" data-source-line="75" data-uid="ent0012" id="entity_Cargo"><rect fill="#F1F1F1" height="64.2969" rx="2.5" ry="2.5" style="stroke:#181818;stroke-width:0.5;" width="113.9648" x="475" y="1102.5"/><ellipse cx="508.1811" cy="1118.5" fill="#ADD1B2" rx="11" ry="11" style="stroke:#181818;stroke-width:1;"/><path d="M511.1498,1124.1406 Q510.5717,1124.4375 509.9311,1124.5781 Q509.2904,1124.7344 508.5873,1124.7344 Q506.0873,1124.7344 504.7592,1123.0938 Q503.4467,1121.4375 503.4467,1118.3125 Q503.4467,1115.1875 504.7592,1113.5313 Q506.0873,1111.875 508.5873,1111.875 Q509.2904,1111.875 509.9311,1112.0313 Q510.5873,1112.1875 511.1498,1112.4844 L511.1498,1115.2031 Q510.5248,1114.625 509.9311,1114.3594 Q509.3373,1114.0781 508.7123,1114.0781 Q507.3686,1114.0781 506.6811,1115.1563 Q505.9936,1116.2188 505.9936,1118.3125 Q505.9936,1120.4063 506.6811,1121.4844 Q507.3686,1122.5469 508.7123,1122.5469 Q509.3373,1122.5469 509.9311,1122.2813 Q510.5248,1122 511.1498,1121.4219 L511.1498,1124.1406 Z " fill="#000000"/><text fill="#000000" font-family="sans-serif" font-size="14" lengthAdjust="spacing" textLength="41.5625" x="526.2213" y="1123.3467">Cargo</text><line style="stroke:#181818;stroke-width:0.5;" x1="476" x2="587.9648" y1="1134.5" y2="1134.5"/><text fill="#000000" font-family="sans-serif" font-size="14" lengthAdjust="spacing" textLength="101.9648" x="481" y="1151.4951">+quantity : int</text><line style="stroke:#181818;stroke-width:0.5;" x1="476" x2="587.9648" y1="1158.7969" y2="1158.7969"/></g><!--class Map--><g class="entity" data-entity="Map" data-source-line="79" data-uid="ent0013" id="entity_Map"><rect fill="#F1F1F1" height="113.1875" rx="2.5" ry="2.5" style="stroke:#181818;stroke-width:0.5;" width="408.5391" x="260.5" y="526"/><ellipse cx="445.7471" cy="542" fill="#ADD1B2" rx="11" ry="11" style="stroke:#181818;stroke-width:1;"/><path d="M448.7158,547.6406 Q448.1377,547.9375 447.4971,548.0781 Q446.8564,548.2344 446.1533,548.2344 Q443.6533,548.2344 442.3252,546.5938 Q441.0127,544.9375 441.0127,541.8125 Q441.0127,538.6875 442.3252,537.0313 Q443.6533,535.375 446.1533,535.375 Q446.8564,535.375 447.4971,535.5313 Q448.1533,535.6875 448.7158,535.9844 L448.7158,538.7031 Q448.0908,538.125 447.4971,537.8594 Q446.9033,537.5781 446.2783,537.5781 Q444.9346,537.5781 444.2471,538.6563 Q443.5596,539.7188 443.5596,541.8125 Q443.5596,543.9063 444.2471,544.9844 Q444.9346,546.0469 446.2783,546.0469 Q446.9033,546.0469 447.4971,545.7813 Q448.0908,545.5 448.7158,544.9219 L448.7158,547.6406 Z " fill="#000000"/><text fill="#000000" font-family="sans-serif" font-size="14" lengthAdjust="spacing" textLength="29.5449" x="466.2471" y="546.8467">Map</text><line style="stroke:#181818;stroke-width:0.5;" x1="261.5" x2="668.0391" y1="558" y2="558"/><text fill="#000000" font-family="sans-serif" font-size="14" lengthAdjust="spacing" textLength="148.8115" x="266.5" y="574.9951">+trains : List&lt;Train&gt;</text><text fill="#000000" font-family="sans-serif" font-size="14" lengthAdjust="spacing" textLength="178.5273" x="266.5" y="591.292">+stations : List&lt;Station&gt;</text><line style="stroke:#181818;stroke-width:0.5;" x1="261.5" x2="668.0391" y1="598.5938" y2="598.5938"/><text fill="#000000" font-family="sans-serif" font-size="14" lengthAdjust="spacing" textLength="214.0332" x="266.5" y="615.5889">+getStations() : List&lt;Station&gt;</text><text fill="#000000" font-family="sans-serif" font-size="14" lengthAdjust="spacing" textLength="396.5391" x="266.5" y="631.8857">+getConnectedStations(station: Station) : List&lt;Station&gt;</text></g><!--class Station--><g class="entity" data-entity="Station" data-source-line="86" data-uid="ent0014" id="entity_Station"><rect fill="#F1F1F1" height="113.1875" rx="2.5" ry="2.5" style="stroke:#181818;stroke-width:0.5;" width="267.7051" x="589" y="699"/><ellipse cx="693.7163" cy="715" fill="#ADD1B2" rx="11" ry="11" style="stroke:#181818;stroke-width:1;"/><path d="M696.6851,720.6406 Q696.1069,720.9375 695.4663,721.0781 Q694.8257,721.2344 694.1226,721.2344 Q691.6226,721.2344 690.2944,719.5938 Q688.9819,717.9375 688.9819,714.8125 Q688.9819,711.6875 690.2944,710.0313 Q691.6226,708.375 694.1226,708.375 Q694.8257,708.375 695.4663,708.5313 Q696.1226,708.6875 696.6851,708.9844 L696.6851,711.7031 Q696.0601,711.125 695.4663,710.8594 Q694.8726,710.5781 694.2476,710.5781 Q692.9038,710.5781 692.2163,711.6563 Q691.5288,712.7188 691.5288,714.8125 Q691.5288,716.9063 692.2163,717.9844 Q692.9038,719.0469 694.2476,719.0469 Q694.8726,719.0469 695.4663,718.7813 Q696.0601,718.5 696.6851,717.9219 L696.6851,720.6406 Z " fill="#000000"/><text fill="#000000" font-family="sans-serif" font-size="14" lengthAdjust="spacing" textLength="49.7725" x="714.2163" y="719.8467">Station</text><line style="stroke:#181818;stroke-width:0.5;" x1="590" x2="855.7051" y1="731" y2="731"/><text fill="#000000" font-family="sans-serif" font-size="14" lengthAdjust="spacing" textLength="106.832" x="595" y="747.9951">+name : String</text><text fill="#000000" font-family="sans-serif" font-size="14" lengthAdjust="spacing" textLength="255.7051" x="595" y="764.292">+upgrades : List&lt;BuildingUpgrade&gt;</text><text fill="#000000" font-family="sans-serif" font-size="14" lengthAdjust="spacing" textLength="140.3555" x="595" y="780.5889">+location : Location</text><text fill="#000000" font-family="sans-serif" font-size="14" lengthAdjust="spacing" textLength="140.7314" x="595" y="796.8857">+type : StationType</text><line style="stroke:#181818;stroke-width:0.5;" x1="590" x2="855.7051" y1="804.1875" y2="804.1875"/></g><!--class StationType--><g class="entity" data-entity="StationType" data-source-line="93" data-uid="ent0015" id="entity_StationType"><rect fill="#F1F1F1" height="80.5938" rx="2.5" ry="2.5" style="stroke:#181818;stroke-width:0.5;" width="156.9697" x="554.5" y="912.5"/><ellipse cx="587.8872" cy="928.5" fill="#ADD1B2" rx="11" ry="11" style="stroke:#181818;stroke-width:1;"/><path d="M590.8559,934.1406 Q590.2778,934.4375 589.6372,934.5781 Q588.9965,934.7344 588.2934,934.7344 Q585.7934,934.7344 584.4653,933.0938 Q583.1528,931.4375 583.1528,928.3125 Q583.1528,925.1875 584.4653,923.5313 Q585.7934,921.875 588.2934,921.875 Q588.9965,921.875 589.6372,922.0313 Q590.2934,922.1875 590.8559,922.4844 L590.8559,925.2031 Q590.2309,924.625 589.6372,924.3594 Q589.0434,924.0781 588.4184,924.0781 Q587.0747,924.0781 586.3872,925.1563 Q585.6997,926.2188 585.6997,928.3125 Q585.6997,930.4063 586.3872,931.4844 Q587.0747,932.5469 588.4184,932.5469 Q589.0434,932.5469 589.6372,932.2813 Q590.2309,932 590.8559,931.4219 L590.8559,934.1406 Z " fill="#000000"/><text fill="#000000" font-family="sans-serif" font-size="14" lengthAdjust="spacing" textLength="84.1094" x="605.9732" y="933.3467">StationType</text><line style="stroke:#181818;stroke-width:0.5;" x1="555.5" x2="710.4697" y1="944.5" y2="944.5"/><text fill="#000000" font-family="sans-serif" font-size="14" lengthAdjust="spacing" textLength="106.832" x="560.5" y="961.4951">+name : String</text><text fill="#000000" font-family="sans-serif" font-size="14" lengthAdjust="spacing" textLength="144.9697" x="560.5" y="977.792">+description : String</text><line style="stroke:#181818;stroke-width:0.5;" x1="555.5" x2="710.4697" y1="985.0938" y2="985.0938"/></g><!--class Location--><g class="entity" data-entity="Location" data-source-line="98" data-uid="ent0016" id="entity_Location"><rect fill="#F1F1F1" height="80.5938" rx="2.5" ry="2.5" style="stroke:#181818;stroke-width:0.5;" width="91.459" x="746.5" y="912.5"/><ellipse cx="761.5" cy="928.5" fill="#ADD1B2" rx="11" ry="11" style="stroke:#181818;stroke-width:1;"/><path d="M764.4688,934.1406 Q763.8906,934.4375 763.25,934.5781 Q762.6094,934.7344 761.9063,934.7344 Q759.4063,934.7344 758.0781,933.0938 Q756.7656,931.4375 756.7656,928.3125 Q756.7656,925.1875 758.0781,923.5313 Q759.4063,921.875 761.9063,921.875 Q762.6094,921.875 763.25,922.0313 Q763.9063,922.1875 764.4688,922.4844 L764.4688,925.2031 Q763.8438,924.625 763.25,924.3594 Q762.6563,924.0781 762.0313,924.0781 Q760.6875,924.0781 760,925.1563 Q759.3125,926.2188 759.3125,928.3125 Q759.3125,930.4063 760,931.4844 Q760.6875,932.5469 762.0313,932.5469 Q762.6563,932.5469 763.25,932.2813 Q763.8438,932 764.4688,931.4219 L764.4688,934.1406 Z " fill="#000000"/><text fill="#000000" font-family="sans-serif" font-size="14" lengthAdjust="spacing" textLength="59.459" x="775.5" y="933.3467">Location</text><line style="stroke:#181818;stroke-width:0.5;" x1="747.5" x2="836.959" y1="944.5" y2="944.5"/><text fill="#000000" font-family="sans-serif" font-size="14" lengthAdjust="spacing" textLength="51.8848" x="752.5" y="961.4951">+x : int</text><text fill="#000000" font-family="sans-serif" font-size="14" lengthAdjust="spacing" textLength="51.8848" x="752.5" y="977.792">+y : int</text><line style="stroke:#181818;stroke-width:0.5;" x1="747.5" x2="836.959" y1="985.0938" y2="985.0938"/></g><!--class Route--><g class="entity" data-entity="Route" data-source-line="103" data-uid="ent0017" id="entity_Route"><rect fill="#F1F1F1" height="80.5938" rx="2.5" ry="2.5" style="stroke:#181818;stroke-width:0.5;" width="220.7559" x="1227.5" y="542"/><ellipse cx="1312.9937" cy="558" fill="#ADD1B2" rx="11" ry="11" style="stroke:#181818;stroke-width:1;"/><path d="M1315.9624,563.6406 Q1315.3843,563.9375 1314.7437,564.0781 Q1314.103,564.2344 1313.3999,564.2344 Q1310.8999,564.2344 1309.5718,562.5938 Q1308.2593,560.9375 1308.2593,557.8125 Q1308.2593,554.6875 1309.5718,553.0313 Q1310.8999,551.375 1313.3999,551.375 Q1314.103,551.375 1314.7437,551.5313 Q1315.3999,551.6875 1315.9624,551.9844 L1315.9624,554.7031 Q1315.3374,554.125 1314.7437,553.8594 Q1314.1499,553.5781 1313.5249,553.5781 Q1312.1812,553.5781 1311.4937,554.6563 Q1310.8062,555.7188 1310.8062,557.8125 Q1310.8062,559.9063 1311.4937,560.9844 Q1312.1812,562.0469 1313.5249,562.0469 Q1314.1499,562.0469 1314.7437,561.7813 Q1315.3374,561.5 1315.9624,560.9219 L1315.9624,563.6406 Z " fill="#000000"/><text fill="#000000" font-family="sans-serif" font-size="14" lengthAdjust="spacing" textLength="41.2686" x="1333.4937" y="562.8467">Route</text><line style="stroke:#181818;stroke-width:0.5;" x1="1228.5" x2="1447.2559" y1="574" y2="574"/><text fill="#000000" font-family="sans-serif" font-size="14" lengthAdjust="spacing" textLength="56.376" x="1233.5" y="590.9951">+id : int</text><text fill="#000000" font-family="sans-serif" font-size="14" lengthAdjust="spacing" textLength="208.7559" x="1233.5" y="607.292">+points : List&lt;PointOfRoute&gt;</text><line style="stroke:#181818;stroke-width:0.5;" x1="1228.5" x2="1447.2559" y1="614.5938" y2="614.5938"/></g><!--class PointOfRoute--><g class="entity" data-entity="PointOfRoute" data-source-line="108" data-uid="ent0018" id="entity_PointOfRoute"><rect fill="#F1F1F1" height="48" rx="2.5" ry="2.5" style="stroke:#181818;stroke-width:0.5;" width="124.4766" x="1276" y="731.5"/><ellipse cx="1291" cy="747.5" fill="#ADD1B2" rx="11" ry="11" style="stroke:#181818;stroke-width:1;"/><path d="M1293.9688,753.1406 Q1293.3906,753.4375 1292.75,753.5781 Q1292.1094,753.7344 1291.4063,753.7344 Q1288.9063,753.7344 1287.5781,752.0938 Q1286.2656,750.4375 1286.2656,747.3125 Q1286.2656,744.1875 1287.5781,742.5313 Q1288.9063,740.875 1291.4063,740.875 Q1292.1094,740.875 1292.75,741.0313 Q1293.4063,741.1875 1293.9688,741.4844 L1293.9688,744.2031 Q1293.3438,743.625 1292.75,743.3594 Q1292.1563,743.0781 1291.5313,743.0781 Q1290.1875,743.0781 1289.5,744.1563 Q1288.8125,745.2188 1288.8125,747.3125 Q1288.8125,749.4063 1289.5,750.4844 Q1290.1875,751.5469 1291.5313,751.5469 Q1292.1563,751.5469 1292.75,751.2813 Q1293.3438,751 1293.9688,750.4219 L1293.9688,753.1406 Z " fill="#000000"/><text fill="#000000" font-family="sans-serif" font-size="14" lengthAdjust="spacing" textLength="92.4766" x="1305" y="752.3467">PointOfRoute</text><line style="stroke:#181818;stroke-width:0.5;" x1="1277" x2="1399.4766" y1="763.5" y2="763.5"/><line style="stroke:#181818;stroke-width:0.5;" x1="1277" x2="1399.4766" y1="771.5" y2="771.5"/></g><!--class TrainDTO--><g class="entity" data-entity="TrainDTO" data-source-line="116" data-uid="ent0023" id="entity_TrainDTO"><rect fill="#F1F1F1" height="48" rx="2.5" ry="2.5" style="stroke:#181818;stroke-width:0.5;" width="98.001" x="807" y="558.5"/><ellipse cx="822" cy="574.5" fill="#ADD1B2" rx="11" ry="11" style="stroke:#181818;stroke-width:1;"/><path d="M824.9688,580.1406 Q824.3906,580.4375 823.75,580.5781 Q823.1094,580.7344 822.4063,580.7344 Q819.9063,580.7344 818.5781,579.0938 Q817.2656,577.4375 817.2656,574.3125 Q817.2656,571.1875 818.5781,569.5313 Q819.9063,567.875 822.4063,567.875 Q823.1094,567.875 823.75,568.0313 Q824.4063,568.1875 824.9688,568.4844 L824.9688,571.2031 Q824.3438,570.625 823.75,570.3594 Q823.1563,570.0781 822.5313,570.0781 Q821.1875,570.0781 820.5,571.1563 Q819.8125,572.2188 819.8125,574.3125 Q819.8125,576.4063 820.5,577.4844 Q821.1875,578.5469 822.5313,578.5469 Q823.1563,578.5469 823.75,578.2813 Q824.3438,578 824.9688,577.4219 L824.9688,580.1406 Z " fill="#000000"/><text fill="#000000" font-family="sans-serif" font-size="14" lengthAdjust="spacing" textLength="66.001" x="836" y="579.3467">TrainDTO</text><line style="stroke:#181818;stroke-width:0.5;" x1="808" x2="904.001" y1="590.5" y2="590.5"/><line style="stroke:#181818;stroke-width:0.5;" x1="808" x2="904.001" y1="598.5" y2="598.5"/></g><!--class StationDTO--><g class="entity" data-entity="StationDTO" data-source-line="117" data-uid="ent0025" id="entity_StationDTO"><rect fill="#F1F1F1" height="48" rx="2.5" ry="2.5" style="stroke:#181818;stroke-width:0.5;" width="112.124" x="1080" y="558.5"/><ellipse cx="1095" cy="574.5" fill="#ADD1B2" rx="11" ry="11" style="stroke:#181818;stroke-width:1;"/><path d="M1097.9688,580.1406 Q1097.3906,580.4375 1096.75,580.5781 Q1096.1094,580.7344 1095.4063,580.7344 Q1092.9063,580.7344 1091.5781,579.0938 Q1090.2656,577.4375 1090.2656,574.3125 Q1090.2656,571.1875 1091.5781,569.5313 Q1092.9063,567.875 1095.4063,567.875 Q1096.1094,567.875 1096.75,568.0313 Q1097.4063,568.1875 1097.9688,568.4844 L1097.9688,571.2031 Q1097.3438,570.625 1096.75,570.3594 Q1096.1563,570.0781 1095.5313,570.0781 Q1094.1875,570.0781 1093.5,571.1563 Q1092.8125,572.2188 1092.8125,574.3125 Q1092.8125,576.4063 1093.5,577.4844 Q1094.1875,578.5469 1095.5313,578.5469 Q1096.1563,578.5469 1096.75,578.2813 Q1097.3438,578 1097.9688,577.4219 L1097.9688,580.1406 Z " fill="#000000"/><text fill="#000000" font-family="sans-serif" font-size="14" lengthAdjust="spacing" textLength="80.124" x="1109" y="579.3467">StationDTO</text><line style="stroke:#181818;stroke-width:0.5;" x1="1081" x2="1191.124" y1="590.5" y2="590.5"/><line style="stroke:#181818;stroke-width:0.5;" x1="1081" x2="1191.124" y1="598.5" y2="598.5"/></g><!--link GameScreen to GameController--><g class="link" data-entity-1="GameScreen" data-entity-2="GameController" data-source-line="112" data-uid="lnk19" id="link_GameScreen_GameController"><path codeLine="112" d="M856,120.02 C856,139.23 856,154.75 856,173.97" fill="none" id="GameScreen-to-GameController" style="stroke:#181818;stroke-width:1;"/><polygon fill="#181818" points="856,179.97,860,170.97,856,174.97,852,170.97,856,179.97" style="stroke:#181818;stroke-width:1;"/></g><!--link GameController to CurrentGame--><g class="link" data-entity-1="GameController" data-entity-2="CurrentGame" data-source-line="113" data-uid="lnk20" id="link_GameController_CurrentGame"><path codeLine="113" d="M718.99,293.02 C671.58,312.23 624.0204,331.4958 576.6104,350.7158" fill="none" id="GameController-to-CurrentGame" style="stroke:#181818;stroke-width:1;"/><polygon fill="#181818" points="571.05,352.97,580.8935,353.2957,575.6837,351.0915,577.8879,345.8817,571.05,352.97" style="stroke:#181818;stroke-width:1;"/></g><!--link GameController to TrainMapper--><g class="link" data-entity-1="GameController" data-entity-2="TrainMapper" data-source-line="114" data-uid="lnk21" id="link_GameController_TrainMapper"><path codeLine="114" d="M856,293.02 C856,317.79 856,340.4 856,362.95" fill="none" id="GameController-to-TrainMapper" style="stroke:#181818;stroke-width:1;"/><polygon fill="#181818" points="856,368.95,860,359.95,856,363.95,852,359.95,856,368.95" style="stroke:#181818;stroke-width:1;"/></g><!--link GameController to StationMapper--><g class="link" data-entity-1="GameController" data-entity-2="StationMapper" data-source-line="115" data-uid="lnk22" id="link_GameController_StationMapper"><path codeLine="115" d="M992.69,293.02 C1053.67,317.79 1118.5612,344.1418 1174.0712,366.6918" fill="none" id="GameController-to-StationMapper" style="stroke:#181818;stroke-width:1;"/><polygon fill="#181818" points="1179.63,368.95,1172.7972,361.8568,1174.9976,367.0682,1169.7863,369.2686,1179.63,368.95" style="stroke:#181818;stroke-width:1;"/></g><!--link TrainMapper to TrainDTO--><g class="link" data-entity-1="TrainMapper" data-entity-2="TrainDTO" data-source-line="116" data-uid="lnk24" id="link_TrainMapper_TrainDTO"><path codeLine="116" d="M856,450.16 C856,483.71 856,524.62 856,552.35" fill="none" id="TrainMapper-to-TrainDTO" style="stroke:#181818;stroke-width:1;"/><polygon fill="#181818" points="856,558.35,860,549.35,856,553.35,852,549.35,856,558.35" style="stroke:#181818;stroke-width:1;"/></g><!--link StationMapper to StationDTO--><g class="link" data-entity-1="StationMapper" data-entity-2="StationDTO" data-source-line="117" data-uid="lnk26" id="link_StationMapper_StationDTO"><path codeLine="117" d="M1244.3,450.16 C1216.64,483.71 1181.7776,525.9912 1158.9076,553.7212" fill="none" id="StationMapper-to-StationDTO" style="stroke:#181818;stroke-width:1;"/><polygon fill="#181818" points="1155.09,558.35,1163.9023,553.9518,1158.2713,554.4926,1157.7305,548.8617,1155.09,558.35" style="stroke:#181818;stroke-width:1;"/></g><!--link CurrentGame to Train--><g class="link" data-entity-1="CurrentGame" data-entity-2="Train" data-source-line="118" data-uid="lnk27" id="link_CurrentGame_Train"><path codeLine="118" d="M342.14,466.05 C293.21,495.64 243,526 243,526 C243,526 243,639 243,639 C243,639 245.7279,663.2778 249.0579,692.8178" fill="none" id="CurrentGame-to-Train" style="stroke:#181818;stroke-width:1;"/><polygon fill="#181818" points="249.73,698.78,252.6967,689.3886,249.1699,693.8115,244.747,690.2847,249.73,698.78" style="stroke:#181818;stroke-width:1;"/></g><!--link CurrentGame to Station--><g class="link" data-entity-1="CurrentGame" data-entity-2="Station" data-source-line="119" data-uid="lnk28" id="link_CurrentGame_Station"><path codeLine="119" d="M555.68,466.05 C620.5,495.64 687,526 687,526 C687,526 702.6458,625.3332 713.3058,692.9632" fill="none" id="CurrentGame-to-Station" style="stroke:#181818;stroke-width:1;"/><polygon fill="#181818" points="714.24,698.89,716.7899,689.377,713.4615,693.951,708.8875,690.6226,714.24,698.89" style="stroke:#181818;stroke-width:1;"/></g><!--link CurrentGame to Map--><g class="link" data-entity-1="CurrentGame" data-entity-2="Map" data-source-line="120" data-uid="lnk29" id="link_CurrentGame_Map"><path codeLine="120" d="M444.06,466.02 C447.55,485.23 450.381,500.846 453.861,520.066" fill="none" id="CurrentGame-to-Map" style="stroke:#181818;stroke-width:1;"/><polygon fill="#181818" points="454.93,525.97,457.2625,516.4013,454.0392,521.05,449.3905,517.8267,454.93,525.97" style="stroke:#181818;stroke-width:1;"/></g><!--link Train to Locomotive--><g class="link" data-entity-1="Train" data-entity-2="Locomotive" data-source-line="121" data-uid="lnk30" id="link_Train_Locomotive"><path codeLine="121" d="M234.04,812.26 C226.75,830.77 220.6789,846.1775 212.8089,866.1575" fill="none" id="Train-to-Locomotive" style="stroke:#181818;stroke-width:1;"/><polygon fill="#181818" points="210.61,871.74,217.6301,864.8321,212.4424,867.0879,210.1867,861.9002,210.61,871.74" style="stroke:#181818;stroke-width:1;"/></g><!--link Train to Carriage--><g class="link" data-entity-1="Train" data-entity-2="Carriage" data-source-line="122" data-uid="lnk31" id="link_Train_Carriage"><path codeLine="122" d="M296.5,812.26 C315.6,838.56 334.8151,865.0046 353.9151,891.3146" fill="none" id="Train-to-Carriage" style="stroke:#181818;stroke-width:1;"/><polygon fill="#181818" points="357.44,896.17,355.3897,886.5369,354.5026,892.1238,348.9157,891.2367,357.44,896.17" style="stroke:#181818;stroke-width:1;"/></g><!--link Carriage to CarriageType--><g class="link" data-entity-1="Carriage" data-entity-2="CarriageType" data-source-line="123" data-uid="lnk32" id="link_Carriage_CarriageType"><path codeLine="123" d="M391.47,1009.81 C387.91,1040.27 384.3278,1070.8907 381.3478,1096.3407" fill="none" id="Carriage-to-CarriageType" style="stroke:#181818;stroke-width:1;"/><polygon fill="#181818" points="380.65,1102.3,385.6695,1093.8263,381.2315,1097.3339,377.7238,1092.8959,380.65,1102.3" style="stroke:#181818;stroke-width:1;"/></g><!--link Carriage to Cargo--><g class="link" data-entity-1="Carriage" data-entity-2="Cargo" data-source-line="124" data-uid="lnk33" id="link_Carriage_Cargo"><path codeLine="124" d="M439.66,1009.81 C462.41,1040.27 486.1206,1072.0421 505.1206,1097.4921" fill="none" id="Carriage-to-Cargo" style="stroke:#181818;stroke-width:1;"/><polygon fill="#181818" points="508.71,1102.3,506.5312,1092.6952,505.7188,1098.2934,500.1206,1097.4811,508.71,1102.3" style="stroke:#181818;stroke-width:1;"/></g><!--link Locomotive to LocomotiveType--><g class="link" data-entity-1="Locomotive" data-entity-2="LocomotiveType" data-source-line="125" data-uid="lnk34" id="link_Locomotive_LocomotiveType"><path codeLine="125" d="M179,1034.04 C179,1054.79 179,1070.25 179,1087.9" fill="none" id="Locomotive-to-LocomotiveType" style="stroke:#181818;stroke-width:1;"/><polygon fill="#181818" points="179,1093.9,183,1084.9,179,1088.9,175,1084.9,179,1093.9" style="stroke:#181818;stroke-width:1;"/></g><!--link Map to Train--><g class="link" data-entity-1="Map" data-entity-2="Train" data-source-line="126" data-uid="lnk35" id="link_Map_Train"><path codeLine="126" d="M397.14,639.02 C373.66,658.23 352.0037,675.9505 328.5137,695.1705" fill="none" id="Map-to-Train" style="stroke:#181818;stroke-width:1;"/><polygon fill="#181818" points="323.87,698.97,333.3685,696.3665,327.7397,695.8037,328.3025,690.1749,323.87,698.97" style="stroke:#181818;stroke-width:1;"/></g><!--link Map to Station--><g class="link" data-entity-1="Map" data-entity-2="Station" data-source-line="127" data-uid="lnk36" id="link_Map_Station"><path codeLine="127" d="M548.77,639.02 C577.75,658.23 605.2297,676.4338 634.2097,695.6538" fill="none" id="Map-to-Station" style="stroke:#181818;stroke-width:1;"/><polygon fill="#181818" points="639.21,698.97,633.9205,690.6621,635.0431,696.2065,629.4988,697.3291,639.21,698.97" style="stroke:#181818;stroke-width:1;"/></g><!--link Station to StationType--><g class="link" data-entity-1="Station" data-entity-2="StationType" data-source-line="128" data-uid="lnk37" id="link_Station_StationType"><path codeLine="128" d="M697.33,812.26 C682.63,844.2 667.0285,878.0695 653.7785,906.8595" fill="none" id="Station-to-StationType" style="stroke:#181818;stroke-width:1;"/><polygon fill="#181818" points="651.27,912.31,658.6663,905.8066,653.3604,907.7679,651.3991,902.462,651.27,912.31" style="stroke:#181818;stroke-width:1;"/></g><!--link Station to Location--><g class="link" data-entity-1="Station" data-entity-2="Location" data-source-line="129" data-uid="lnk38" id="link_Station_Location"><path codeLine="129" d="M742.68,812.26 C753.95,844.2 765.8333,877.862 775.9933,906.652" fill="none" id="Station-to-Location" style="stroke:#181818;stroke-width:1;"/><polygon fill="#181818" points="777.99,912.31,778.7669,902.4918,776.3261,907.595,771.2229,905.1541,777.99,912.31" style="stroke:#181818;stroke-width:1;"/></g><!--link Route to PointOfRoute--><g class="link" data-entity-1="Route" data-entity-2="PointOfRoute" data-source-line="130" data-uid="lnk39" id="link_Route_PointOfRoute"><path codeLine="130" d="M1338,623.16 C1338,656.71 1338,697.62 1338,725.35" fill="none" id="Route-to-PointOfRoute" style="stroke:#181818;stroke-width:1;"/><polygon fill="#181818" points="1338,731.35,1342,722.35,1338,726.35,1334,722.35,1338,731.35" style="stroke:#181818;stroke-width:1;"/></g><!--link Route to Station--><g class="link" data-entity-1="Route" data-entity-2="Station" data-source-line="131" data-uid="lnk40" id="link_Route_Station"><path codeLine="131" d="M1246.68,623.1 C1226,632.06 1210,639 1210,639 C1210,639 1007.0381,687.1354 862.8781,721.3254" fill="none" id="Route-to-Station" style="stroke:#181818;stroke-width:1;"/><polygon fill="#181818" points="857.04,722.71,866.7201,724.5251,861.905,721.5562,864.874,716.7411,857.04,722.71" style="stroke:#181818;stroke-width:1;"/></g><!--SRC=[xLRDRXCn4BxlK_X6AuZW7A589P4GKakgfZrmTBtJnQfZkxQt9I2UXWCdJeWdo8jXU_stcrrQ8N4ZbyJV_7-U6KVVKYwnmbiaCRd53MpCZW5IG0pc3ODA9mNz4TVYWV86tM2cImcZ7CnE0fA2xToXa166jJunHj7hri0x8lY6VWRqggggPsWscw4btk8QenhGYLIWWHky_xx_9fomyjReBTx2XYW0ZhvKo7wUDs0k5QPS7nsZEJgbshpsvzNbUf4qDWORAagTWFIqbe9pMotKILqdhJdA5jDER8gquJx-aGbPp57CvmKA_lIX_Gj4i6f4b2pTeSCb9RTNyapK48Nd2LcuLEu5hQklOoGoIaOPj8KQ9HW3zP_5nrXSYUt-1wVYvNjezZy9BRbSjahPBdMK5aIUCxm3DKhd4xXy0f69nGdRn_XJmixV75suhxBqhYYlTuQbpDrX78akKETEzqgQQXXlr1c4u4upAkLu8VUfYEENlPZkdYxk65LPDLzql5vqL0kqEZikRjUd6XEYjNL0kNaQmr9OrTHexh2-yNJdLlD-c21YAmoz1rTEEdH2sygAsZsiKMvd3omoUTbcF54f7YofSrIBzfe5lvWGiAFlkHY8Z90R2L0FO4kcCXy0g_NDMcRBJCTTIpLrwBcY18PEtNjGbdTfWLn2h6gy08BjQqJDhiI2msZetKN66j596Z56abEDSRYRMjSKoZva7MIN0r5KXlA2v23HQIUbgaqawDorc9jSGbAo7LziZN-v4Bgf7Tj4SReEx8RZ-GVMMjaeNESsVTDILblfLOSlKgl7lZaDFtkt6UBqUwC0__hQOhJeu5FPIWUNugTqQfRSKAEngSxs9MpTf3rp0SmznRyiJMxJR5O8qhef_jJCPel12rqD7codKRmxO-9YWu-9UmktAjTzCdOhih-N2qCdB5- -P7M01eC3tFhiulfJiVSo68UjIkkXH7sN32Lsv8jrsFVi3Tp0vMJZAIOP6xt0l5M9fyxjxjT1vOKNSFJw6m00]--></g></svg>