<?xml version="1.0" encoding="us-ascii" standalone="no"?><svg xmlns="http://www.w3.org/2000/svg" xmlns:xlink="http://www.w3.org/1999/xlink" contentStyleType="text/css" height="502px" preserveAspectRatio="none" style="width:518px;height:502px;background:#FFFFFF;" version="1.1" viewBox="0 0 518 502" width="518px" zoomAndPan="magnify"><defs/><g><text fill="#000000" font-family="sans-serif" font-size="14" font-weight="bold" lengthAdjust="spacing" textLength="443" x="39.75" y="30.1074">System Sequence Diagram (SSD) - US310 Create Show Proposal</text><rect fill="#FFFFFF" height="268.3281" style="stroke:#181818;stroke-width:1.0;" width="10" x="59.5" y="133.2422"/><rect fill="#FFFFFF" height="31.291" style="stroke:#181818;stroke-width:1.0;" width="10" x="317.5" y="156.5332"/><rect fill="#FFFFFF" height="31.291" style="stroke:#181818;stroke-width:1.0;" width="10" x="317.5" y="219.1152"/><rect fill="#FFFFFF" height="119.873" style="stroke:#181818;stroke-width:1.0;" width="10" x="317.5" y="281.6973"/><line style="stroke:#181818;stroke-width:0.5;stroke-dasharray:5.0,5.0;" x1="64" x2="64" y1="123.2422" y2="419.5703"/><line style="stroke:#181818;stroke-width:0.5;stroke-dasharray:5.0,5.0;" x1="322.5" x2="322.5" y1="123.2422" y2="419.5703"/><text fill="#000000" font-family="sans-serif" font-size="14" lengthAdjust="spacing" textLength="113" x="5" y="119.7285">CRM Collaborator</text><ellipse cx="64.5" cy="53.1211" fill="#E3E3E3" rx="8" ry="8" style="stroke:#181818;stroke-width:0.5;"/><path d="M64.5,61.1211 L64.5,88.1211 M51.5,69.1211 L77.5,69.1211 M64.5,88.1211 L51.5,103.1211 M64.5,88.1211 L77.5,103.1211 " fill="none" style="stroke:#181818;stroke-width:0.5;"/><text fill="#000000" font-family="sans-serif" font-size="14" lengthAdjust="spacing" textLength="113" x="5" y="433.6777">CRM Collaborator</text><ellipse cx="64.5" cy="445.6914" fill="#E3E3E3" rx="8" ry="8" style="stroke:#181818;stroke-width:0.5;"/><path d="M64.5,453.6914 L64.5,480.6914 M51.5,461.6914 L77.5,461.6914 M64.5,480.6914 L51.5,495.6914 M64.5,480.6914 L77.5,495.6914 " fill="none" style="stroke:#181818;stroke-width:0.5;"/><rect fill="#E3E3E3" height="32.6211" rx="2.5" ry="2.5" style="stroke:#181818;stroke-width:0.5;" width="64" x="290.5" y="89.6211"/><text fill="#000000" font-family="sans-serif" font-size="14" lengthAdjust="spacing" textLength="50" x="297.5" y="111.7285">:System</text><rect fill="#E3E3E3" height="32.6211" rx="2.5" ry="2.5" style="stroke:#181818;stroke-width:0.5;" width="64" x="290.5" y="418.5703"/><text fill="#000000" font-family="sans-serif" font-size="14" lengthAdjust="spacing" textLength="50" x="297.5" y="440.6777">:System</text><rect fill="#FFFFFF" height="268.3281" style="stroke:#181818;stroke-width:1.0;" width="10" x="59.5" y="133.2422"/><rect fill="#FFFFFF" height="31.291" style="stroke:#181818;stroke-width:1.0;" width="10" x="317.5" y="156.5332"/><rect fill="#FFFFFF" height="31.291" style="stroke:#181818;stroke-width:1.0;" width="10" x="317.5" y="219.1152"/><rect fill="#FFFFFF" height="119.873" style="stroke:#181818;stroke-width:1.0;" width="10" x="317.5" y="281.6973"/><polygon fill="#181818" points="305.5,152.5332,315.5,156.5332,305.5,160.5332,309.5,156.5332" style="stroke:#181818;stroke-width:1.0;"/><line style="stroke:#181818;stroke-width:1.0;" x1="69.5" x2="311.5" y1="156.5332" y2="156.5332"/><text fill="#000000" font-family="sans-serif" font-size="13" font-weight="bold" lengthAdjust="spacing" textLength="7" x="76.5" y="151.2705">1</text><text fill="#000000" font-family="sans-serif" font-size="13" lengthAdjust="spacing" textLength="191" x="87.5" y="151.2705">requests to list all show requests</text><polygon fill="#181818" points="80.5,183.8242,70.5,187.8242,80.5,191.8242,76.5,187.8242" style="stroke:#181818;stroke-width:1.0;"/><line style="stroke:#181818;stroke-width:1.0;stroke-dasharray:2.0,2.0;" x1="74.5" x2="321.5" y1="187.8242" y2="187.8242"/><text fill="#000000" font-family="sans-serif" font-size="13" font-weight="bold" lengthAdjust="spacing" textLength="7" x="86.5" y="182.5615">2</text><text fill="#000000" font-family="sans-serif" font-size="13" lengthAdjust="spacing" textLength="160" x="97.5" y="182.5615">shows list of show requests</text><polygon fill="#181818" points="305.5,215.1152,315.5,219.1152,305.5,223.1152,309.5,219.1152" style="stroke:#181818;stroke-width:1.0;"/><line style="stroke:#181818;stroke-width:1.0;" x1="69.5" x2="311.5" y1="219.1152" y2="219.1152"/><text fill="#000000" font-family="sans-serif" font-size="13" font-weight="bold" lengthAdjust="spacing" textLength="7" x="76.5" y="213.8525">3</text><text fill="#000000" font-family="sans-serif" font-size="13" lengthAdjust="spacing" textLength="134" x="87.5" y="213.8525">selects a show request</text><polygon fill="#181818" points="80.5,246.4063,70.5,250.4063,80.5,254.4063,76.5,250.4063" style="stroke:#181818;stroke-width:1.0;"/><line style="stroke:#181818;stroke-width:1.0;stroke-dasharray:2.0,2.0;" x1="74.5" x2="321.5" y1="250.4063" y2="250.4063"/><text fill="#000000" font-family="sans-serif" font-size="13" font-weight="bold" lengthAdjust="spacing" textLength="7" x="86.5" y="245.1436">4</text><text fill="#000000" font-family="sans-serif" font-size="13" lengthAdjust="spacing" textLength="213" x="97.5" y="245.1436">shows selected show request details</text><polygon fill="#181818" points="305.5,277.6973,315.5,281.6973,305.5,285.6973,309.5,281.6973" style="stroke:#181818;stroke-width:1.0;"/><line style="stroke:#181818;stroke-width:1.0;" x1="69.5" x2="311.5" y1="281.6973" y2="281.6973"/><text fill="#000000" font-family="sans-serif" font-size="13" font-weight="bold" lengthAdjust="spacing" textLength="7" x="76.5" y="276.4346">5</text><text fill="#000000" font-family="sans-serif" font-size="13" lengthAdjust="spacing" textLength="200" x="87.5" y="276.4346">confirms creation of show proposal</text><line style="stroke:#181818;stroke-width:1.0;" x1="327.5" x2="369.5" y1="312.9883" y2="312.9883"/><line style="stroke:#181818;stroke-width:1.0;" x1="369.5" x2="369.5" y1="312.9883" y2="325.9883"/><line style="stroke:#181818;stroke-width:1.0;" x1="328.5" x2="369.5" y1="325.9883" y2="325.9883"/><polygon fill="#181818" points="338.5,321.9883,328.5,325.9883,338.5,329.9883,334.5,325.9883" style="stroke:#181818;stroke-width:1.0;"/><text fill="#000000" font-family="sans-serif" font-size="13" font-weight="bold" lengthAdjust="spacing" textLength="7" x="334.5" y="307.7256">6</text><text fill="#000000" font-family="sans-serif" font-size="13" lengthAdjust="spacing" textLength="166" x="345.5" y="307.7256">creates ShowProposal entity</text><line style="stroke:#181818;stroke-width:1.0;" x1="327.5" x2="369.5" y1="357.2793" y2="357.2793"/><line style="stroke:#181818;stroke-width:1.0;" x1="369.5" x2="369.5" y1="357.2793" y2="370.2793"/><line style="stroke:#181818;stroke-width:1.0;" x1="328.5" x2="369.5" y1="370.2793" y2="370.2793"/><polygon fill="#181818" points="338.5,366.2793,328.5,370.2793,338.5,374.2793,334.5,370.2793" style="stroke:#181818;stroke-width:1.0;"/><text fill="#000000" font-family="sans-serif" font-size="13" font-weight="bold" lengthAdjust="spacing" textLength="7" x="334.5" y="352.0166">7</text><text fill="#000000" font-family="sans-serif" font-size="13" lengthAdjust="spacing" textLength="133" x="345.5" y="352.0166">persists ShowProposal</text><polygon fill="#181818" points="75.5,397.5703,65.5,401.5703,75.5,405.5703,71.5,401.5703" style="stroke:#181818;stroke-width:1.0;"/><line style="stroke:#181818;stroke-width:1.0;stroke-dasharray:2.0,2.0;" x1="69.5" x2="321.5" y1="401.5703" y2="401.5703"/><text fill="#000000" font-family="sans-serif" font-size="13" font-weight="bold" lengthAdjust="spacing" textLength="7" x="81.5" y="396.3076">8</text><text fill="#000000" font-family="sans-serif" font-size="13" lengthAdjust="spacing" textLength="152" x="92.5" y="396.3076">confirms proposal creation</text><!--SRC=[dPBFJiCm3CRlVGfh9pXC0d7RWSjsHK9KF82NUMsqD2wnoxItnsdNgaCR0dAA_EUNxuij1nzRJDX0mv5TdRWXqDHH8LEcHNV0Yaez1O94JZ5MOLuWDUxuw6C5Umn2HQ5UhRGyYL839Nrq51t1ncELo-_ASdCFItWldnuVO9q8rOfhFi9hufO5Gr5WfnoxPal9xauvmMBzzW9h3W6tdD0Y2q012nOcGhtpBKQ5nMfujKyErnxWF_CZkRe0EvcrV1uLhioLQHGLK8RWHG53C5icQSpqRHFeJ8RpENEMXipaLTyg0udtLq0x-ewwAaies7SBu0NYFr864kqkG2P3qOS_IN8Szpur0YxFpNES3BRZy7uZRqxi5q3w3HWN02ZQ3fr-QcifYSyZc_VT_eP9zoXpCd3B_IoKz-OB]--></g></svg>