<?xml version="1.0" encoding="us-ascii" standalone="no"?><svg xmlns="http://www.w3.org/2000/svg" xmlns:xlink="http://www.w3.org/1999/xlink" contentStyleType="text/css" height="691px" preserveAspectRatio="none" style="width:667px;height:691px;background:#FFFFFF;" version="1.1" viewBox="0 0 667 691" width="667px" zoomAndPan="magnify"><defs/><g><text fill="#000000" font-family="sans-serif" font-size="14" font-weight="bold" lengthAdjust="spacing" textLength="228" x="221.25" y="27.6738">System Sequence Diagram (SSD)</text><rect fill="#FFFFFF" height="443.375" style="stroke:#181818;stroke-width:1.0;" width="10" x="68.5" y="142.9219"/><rect fill="#FFFFFF" height="57.5703" style="stroke:#181818;stroke-width:1.0;" width="10" x="504.5" y="163.4453"/><rect fill="#FFFFFF" height="52.0469" style="stroke:#181818;stroke-width:1.0;" width="10" x="504.5" y="249.5391"/><rect fill="#FFFFFF" height="70.0469" style="stroke:#181818;stroke-width:1.0;" width="10" x="504.5" y="330.1094"/><rect fill="#FFFFFF" height="43.0469" style="stroke:#181818;stroke-width:1.0;" width="10" x="504.5" y="428.6797"/><rect fill="#FFFFFF" height="77.0469" style="stroke:#181818;stroke-width:1.0;" width="10" x="504.5" y="500.25"/><rect fill="none" height="285.2344" style="stroke:#000000;stroke-width:1.5;" width="651.5" x="10" y="264.5391"/><line style="stroke:#181818;stroke-width:0.5;stroke-dasharray:5.0,5.0;" x1="73" x2="73" y1="132.9219" y2="595.2969"/><line style="stroke:#181818;stroke-width:0.5;stroke-dasharray:5.0,5.0;" x1="509.5" x2="509.5" y1="132.9219" y2="595.2969"/><text fill="#000000" font-family="sans-serif" font-size="14" lengthAdjust="spacing" textLength="91" x="23" y="114.3145">Green Spaces</text><text fill="#000000" font-family="sans-serif" font-size="14" lengthAdjust="spacing" textLength="101" x="20" y="129.9551">Manager (GSM)</text><ellipse cx="73.5" cy="50.1406" fill="#E3E3E3" rx="8" ry="8" style="stroke:#181818;stroke-width:0.5;"/><path d="M73.5,58.1406 L73.5,85.1406 M60.5,66.1406 L86.5,66.1406 M73.5,85.1406 L60.5,100.1406 M73.5,85.1406 L86.5,100.1406 " fill="none" style="stroke:#181818;stroke-width:0.5;"/><text fill="#000000" font-family="sans-serif" font-size="14" lengthAdjust="spacing" textLength="91" x="23" y="606.9707">Green Spaces</text><text fill="#000000" font-family="sans-serif" font-size="14" lengthAdjust="spacing" textLength="101" x="20" y="622.6113">Manager (GSM)</text><ellipse cx="73.5" cy="634.0781" fill="#E3E3E3" rx="8" ry="8" style="stroke:#181818;stroke-width:0.5;"/><path d="M73.5,642.0781 L73.5,669.0781 M60.5,650.0781 L86.5,650.0781 M73.5,669.0781 L60.5,684.0781 M73.5,669.0781 L86.5,684.0781 " fill="none" style="stroke:#181818;stroke-width:0.5;"/><rect fill="#E3E3E3" height="29.6406" rx="2.5" ry="2.5" style="stroke:#181818;stroke-width:0.5;" width="64" x="477.5" y="102.2813"/><text fill="#000000" font-family="sans-serif" font-size="14" lengthAdjust="spacing" textLength="50" x="484.5" y="121.9551">:System</text><rect fill="#E3E3E3" height="29.6406" rx="2.5" ry="2.5" style="stroke:#181818;stroke-width:0.5;" width="64" x="477.5" y="594.2969"/><text fill="#000000" font-family="sans-serif" font-size="14" lengthAdjust="spacing" textLength="50" x="484.5" y="613.9707">:System</text><rect fill="#FFFFFF" height="443.375" style="stroke:#181818;stroke-width:1.0;" width="10" x="68.5" y="142.9219"/><rect fill="#FFFFFF" height="57.5703" style="stroke:#181818;stroke-width:1.0;" width="10" x="504.5" y="163.4453"/><rect fill="#FFFFFF" height="52.0469" style="stroke:#181818;stroke-width:1.0;" width="10" x="504.5" y="249.5391"/><rect fill="#FFFFFF" height="70.0469" style="stroke:#181818;stroke-width:1.0;" width="10" x="504.5" y="330.1094"/><rect fill="#FFFFFF" height="43.0469" style="stroke:#181818;stroke-width:1.0;" width="10" x="504.5" y="428.6797"/><rect fill="#FFFFFF" height="77.0469" style="stroke:#181818;stroke-width:1.0;" width="10" x="504.5" y="500.25"/><polygon fill="#181818" points="492.5,159.4453,502.5,163.4453,492.5,167.4453,496.5,163.4453" style="stroke:#181818;stroke-width:1.0;"/><line style="stroke:#181818;stroke-width:1.0;" x1="78.5" x2="498.5" y1="163.4453" y2="163.4453"/><text fill="#000000" font-family="sans-serif" font-size="13" font-weight="bold" lengthAdjust="spacing" textLength="7" x="85.5" y="158.6904">1</text><text fill="#000000" font-family="sans-serif" font-size="13" lengthAdjust="spacing" textLength="223" x="96.5" y="158.6904">asks to add a new entry in the Agenda</text><polygon fill="#181818" points="89.5,217.0156,79.5,221.0156,89.5,225.0156,85.5,221.0156" style="stroke:#181818;stroke-width:1.0;"/><line style="stroke:#181818;stroke-width:1.0;stroke-dasharray:2.0,2.0;" x1="83.5" x2="508.5" y1="221.0156" y2="221.0156"/><text fill="#000000" font-family="sans-serif" font-size="13" font-weight="bold" lengthAdjust="spacing" textLength="7" x="95.5" y="201.7373">2</text><text fill="#000000" font-family="sans-serif" font-size="13" lengthAdjust="spacing" textLength="306" x="106.5" y="187.2139">It shows the entries from the To-Do List and requests</text><text fill="#000000" font-family="sans-serif" font-size="13" lengthAdjust="spacing" textLength="318" x="106.5" y="201.7373">for the selection of one containing the specific task and</text><text fill="#000000" font-family="sans-serif" font-size="13" lengthAdjust="spacing" textLength="387" x="110.5" y="216.2607">its corresponding duration to assign to the new entry in the Agenda</text><polygon fill="#181818" points="492.5,245.5391,502.5,249.5391,492.5,253.5391,496.5,249.5391" style="stroke:#181818;stroke-width:1.0;"/><line style="stroke:#181818;stroke-width:1.0;" x1="78.5" x2="498.5" y1="249.5391" y2="249.5391"/><text fill="#000000" font-family="sans-serif" font-size="13" font-weight="bold" lengthAdjust="spacing" textLength="7" x="85.5" y="244.7842">3</text><text fill="#000000" font-family="sans-serif" font-size="13" lengthAdjust="spacing" textLength="214" x="96.5" y="244.7842">chooses an entry from the To-Do List</text><path d="M10,264.5391 L83,264.5391 L83,271.0625 L73,281.0625 L10,281.0625 L10,264.5391 " fill="#EEEEEE" style="stroke:#000000;stroke-width:1.5;"/><rect fill="none" height="285.2344" style="stroke:#000000;stroke-width:1.5;" width="651.5" x="10" y="264.5391"/><text fill="#000000" font-family="sans-serif" font-size="13" font-weight="bold" lengthAdjust="spacing" textLength="28" x="25" y="277.3076">loop</text><text fill="#000000" font-family="sans-serif" font-size="11" font-weight="bold" lengthAdjust="spacing" textLength="179" x="98" y="276.4971">[until all information is validated]</text><polygon fill="#181818" points="89.5,297.5859,79.5,301.5859,89.5,305.5859,85.5,301.5859" style="stroke:#181818;stroke-width:1.0;"/><line style="stroke:#181818;stroke-width:1.0;stroke-dasharray:2.0,2.0;" x1="83.5" x2="508.5" y1="301.5859" y2="301.5859"/><text fill="#000000" font-family="sans-serif" font-size="13" font-weight="bold" lengthAdjust="spacing" textLength="7" x="95.5" y="296.8311">4</text><text fill="#000000" font-family="sans-serif" font-size="13" lengthAdjust="spacing" textLength="308" x="106.5" y="296.8311">requests the date when the task is scheduled to start</text><polygon fill="#181818" points="492.5,326.1094,502.5,330.1094,492.5,334.1094,496.5,330.1094" style="stroke:#181818;stroke-width:1.0;"/><line style="stroke:#181818;stroke-width:1.0;" x1="78.5" x2="498.5" y1="330.1094" y2="330.1094"/><text fill="#000000" font-family="sans-serif" font-size="13" font-weight="bold" lengthAdjust="spacing" textLength="7" x="85.5" y="325.3545">5</text><text fill="#000000" font-family="sans-serif" font-size="13" lengthAdjust="spacing" textLength="134" x="96.5" y="325.3545">enters the starting date</text><line style="stroke:#181818;stroke-width:1.0;" x1="514.5" x2="556.5" y1="358.6328" y2="358.6328"/><line style="stroke:#181818;stroke-width:1.0;" x1="556.5" x2="556.5" y1="358.6328" y2="371.6328"/><line style="stroke:#181818;stroke-width:1.0;" x1="515.5" x2="556.5" y1="371.6328" y2="371.6328"/><polygon fill="#181818" points="525.5,367.6328,515.5,371.6328,525.5,375.6328,521.5,371.6328" style="stroke:#181818;stroke-width:1.0;"/><text fill="#000000" font-family="sans-serif" font-size="13" font-weight="bold" lengthAdjust="spacing" textLength="7" x="521.5" y="353.8779">6</text><text fill="#000000" font-family="sans-serif" font-size="13" lengthAdjust="spacing" textLength="110" x="532.5" y="353.8779">validate information</text><polygon fill="#181818" points="89.5,396.1563,79.5,400.1563,89.5,404.1563,85.5,400.1563" style="stroke:#181818;stroke-width:1.0;"/><line style="stroke:#181818;stroke-width:1.0;stroke-dasharray:2.0,2.0;" x1="83.5" x2="508.5" y1="400.1563" y2="400.1563"/><text fill="#000000" font-family="sans-serif" font-size="13" font-weight="bold" lengthAdjust="spacing" textLength="7" x="95.5" y="395.4014">7</text><text fill="#000000" font-family="sans-serif" font-size="13" lengthAdjust="spacing" textLength="148" x="106.5" y="395.4014">requests the starting time</text><polygon fill="#181818" points="492.5,424.6797,502.5,428.6797,492.5,432.6797,496.5,428.6797" style="stroke:#181818;stroke-width:1.0;"/><line style="stroke:#181818;stroke-width:1.0;" x1="78.5" x2="498.5" y1="428.6797" y2="428.6797"/><text fill="#000000" font-family="sans-serif" font-size="13" font-weight="bold" lengthAdjust="spacing" textLength="7" x="85.5" y="423.9248">8</text><text fill="#000000" font-family="sans-serif" font-size="13" lengthAdjust="spacing" textLength="134" x="96.5" y="423.9248">enters the starting time</text><polygon fill="#181818" points="89.5,467.7266,79.5,471.7266,89.5,475.7266,85.5,471.7266" style="stroke:#181818;stroke-width:1.0;"/><line style="stroke:#181818;stroke-width:1.0;stroke-dasharray:2.0,2.0;" x1="83.5" x2="508.5" y1="471.7266" y2="471.7266"/><text fill="#000000" font-family="sans-serif" font-size="13" font-weight="bold" lengthAdjust="spacing" textLength="7" x="95.5" y="459.71">9</text><text fill="#000000" font-family="sans-serif" font-size="13" lengthAdjust="spacing" textLength="285" x="106.5" y="452.4482">displays all information regarding the new entry in</text><text fill="#000000" font-family="sans-serif" font-size="13" lengthAdjust="spacing" textLength="215" x="110.5" y="466.9717">the Agenda and asks for confirmation</text><polygon fill="#181818" points="492.5,496.25,502.5,500.25,492.5,504.25,496.5,500.25" style="stroke:#181818;stroke-width:1.0;"/><line style="stroke:#181818;stroke-width:1.0;" x1="78.5" x2="498.5" y1="500.25" y2="500.25"/><text fill="#000000" font-family="sans-serif" font-size="13" font-weight="bold" lengthAdjust="spacing" textLength="14" x="85.5" y="495.4951">10</text><text fill="#000000" font-family="sans-serif" font-size="13" lengthAdjust="spacing" textLength="78" x="103.5" y="495.4951">confirms data</text><line style="stroke:#181818;stroke-width:1.0;" x1="514.5" x2="556.5" y1="528.7734" y2="528.7734"/><line style="stroke:#181818;stroke-width:1.0;" x1="556.5" x2="556.5" y1="528.7734" y2="541.7734"/><line style="stroke:#181818;stroke-width:1.0;" x1="515.5" x2="556.5" y1="541.7734" y2="541.7734"/><polygon fill="#181818" points="525.5,537.7734,515.5,541.7734,525.5,545.7734,521.5,541.7734" style="stroke:#181818;stroke-width:1.0;"/><text fill="#000000" font-family="sans-serif" font-size="13" font-weight="bold" lengthAdjust="spacing" textLength="14" x="521.5" y="524.0186">11</text><text fill="#000000" font-family="sans-serif" font-size="13" lengthAdjust="spacing" textLength="110" x="539.5" y="524.0186">validate information</text><polygon fill="#181818" points="89.5,573.2969,79.5,577.2969,89.5,581.2969,85.5,577.2969" style="stroke:#181818;stroke-width:1.0;"/><line style="stroke:#181818;stroke-width:1.0;stroke-dasharray:2.0,2.0;" x1="83.5" x2="508.5" y1="577.2969" y2="577.2969"/><text fill="#000000" font-family="sans-serif" font-size="13" font-weight="bold" lengthAdjust="spacing" textLength="14" x="95.5" y="572.542">12</text><text fill="#000000" font-family="sans-serif" font-size="13" lengthAdjust="spacing" textLength="158" x="113.5" y="572.542">displays operation success</text><!--SRC=[fLHDJzj04BtxLumu9OSWuWALVAZQ4efA4nLXoedBiZjsLgndtVr8b7_VMHi7Q24YQauRxyoRzzxC3lW7JQrmee76afLBPnk4u29cy7JL2laWQYp3nY0ub45GRLv4-ALGTgsfXaeOZra6GGSEBZS-O0Cb_ev84c6cHPtYHsKv6tEKYC5IRExHfJyoM0S75mwHeEIYwE6E5eAujeFHHRaO7u3mm8UCERcWfMu51JWe-ZhTRN_iuVHA1EpYCqW_Fi7aqy2guF073y62K0e44Au1ARWDQ8AmHFXI8odHfsxHjlZ3xn5jmi09lu3lWVsmQzzX943DGYfsjljmOoSp2tFj0mXIR2TRuqDIMh7w5E7HiCVQ4jWAB258Iq5eIlPszorANMa9WVada3i2pGZIEeU-jQHIf8fET219d_UwxaufVwTEXQyh_TiwkRJMiov1ZrYl27p3EMDj2v62DY2COH8ilEcvQWyhORJYSBNBugrhgM2AXlKIUp6TAOpZvH9LDAYIR1zuNFOJoAhGzGMwxCvJpjer3WFF0QROgdckyjt2jdM3Rl3_sJ-Xx3dGIllMY8t_frqEQ-7KC9Slvkhk-MXrazuzjZJZFCwL7hpOR-ZwJ9yQiVjTlhCJJEvTmcsBZw_9HybxoR_D-pDZniPasPNXtVHhCOSLToAbJW_pe_p3OJug8y4tl8Vy5AP7HNvI77-4i_CRIDVZR7HnDGTle-DzoGHuVTp7L7gSNOgLWElqSXeiu6UBT3dxCNo0SrffPwdX5cINjukdWDFZoLSTU0axPWAtYso6bOWcS8QqgNi5dBNJ_2JFvhpO8s_R0jgGdTcOcbd0rSqV]--></g></svg>