<svg xmlns="http://www.w3.org/2000/svg" xmlns:xlink="http://www.w3.org/1999/xlink" contentStyleType="text/css" height="657px" preserveAspectRatio="none" style="width:1171px;height:657px;background:#FFFFFF;" version="1.1" viewBox="0 0 1171 657" width="1171px" zoomAndPan="magnify"><defs/><g><rect fill="#AED6F1" height="304.9102" style="stroke:#000000;stroke-width:1.5;" width="1144.54" x="20" y="252.0762"/><rect fill="#AED6F1" height="191.7461" style="stroke:none;stroke-width:1.0;" width="1144.54" x="20" y="365.2402"/><rect fill="#AED6F1" height="19.291" style="stroke:#000000;stroke-width:1.5;" width="84.6899" x="40" y="530.6953"/><line style="stroke:#181818;stroke-width:0.5;stroke-dasharray:5.0,5.0;" x1="89" x2="89" y1="83.6211" y2="573.9863"/><line style="stroke:#181818;stroke-width:0.5;stroke-dasharray:5.0,5.0;" x1="306.7217" x2="306.7217" y1="83.6211" y2="573.9863"/><line style="stroke:#181818;stroke-width:0.5;stroke-dasharray:5.0,5.0;" x1="507.0176" x2="507.0176" y1="83.6211" y2="573.9863"/><line style="stroke:#181818;stroke-width:0.5;stroke-dasharray:5.0,5.0;" x1="750.0107" x2="750.0107" y1="83.6211" y2="573.9863"/><line style="stroke:#181818;stroke-width:0.5;stroke-dasharray:5.0,5.0;" x1="904.8584" x2="904.8584" y1="83.6211" y2="573.9863"/><line style="stroke:#181818;stroke-width:0.5;stroke-dasharray:5.0,5.0;" x1="1070.458" x2="1070.458" y1="83.6211" y2="573.9863"/><text fill="#000000" font-family="sans-serif" font-size="14" lengthAdjust="spacing" textLength="112.0342" x="30" y="80.1074">CRM Collaborator</text><ellipse cx="89.0171" cy="13.5" fill="#E2E2F0" rx="8" ry="8" style="stroke:#181818;stroke-width:0.5;"/><path d="M89.0171,21.5 L89.0171,48.5 M76.0171,29.5 L102.0171,29.5 M89.0171,48.5 L76.0171,63.5 M89.0171,48.5 L102.0171,63.5 " fill="none" style="stroke:#181818;stroke-width:0.5;"/><text fill="#000000" font-family="sans-serif" font-size="14" lengthAdjust="spacing" textLength="112.0342" x="30" y="588.0938">CRM Collaborator</text><ellipse cx="89.0171" cy="600.1074" fill="#E2E2F0" rx="8" ry="8" style="stroke:#181818;stroke-width:0.5;"/><path d="M89.0171,608.1074 L89.0171,635.1074 M76.0171,616.1074 L102.0171,616.1074 M89.0171,635.1074 L76.0171,650.1074 M89.0171,635.1074 L102.0171,650.1074 " fill="none" style="stroke:#181818;stroke-width:0.5;"/><rect fill="#E2E2F0" height="32.6211" rx="2.5" ry="2.5" style="stroke:#181818;stroke-width:0.5;" width="167.2959" x="223.7217" y="50"/><text fill="#000000" font-family="sans-serif" font-size="14" lengthAdjust="spacing" textLength="153.2959" x="230.7217" y="72.1074">RegisterShowRequestUI</text><rect fill="#E2E2F0" height="32.6211" rx="2.5" ry="2.5" style="stroke:#181818;stroke-width:0.5;" width="167.2959" x="223.7217" y="572.9863"/><text fill="#000000" font-family="sans-serif" font-size="14" lengthAdjust="spacing" textLength="153.2959" x="230.7217" y="595.0938">RegisterShowRequestUI</text><rect fill="#E2E2F0" height="32.6211" rx="2.5" ry="2.5" style="stroke:#181818;stroke-width:0.5;" width="213.9854" x="401.0176" y="50"/><text fill="#000000" font-family="sans-serif" font-size="14" lengthAdjust="spacing" textLength="199.9854" x="408.0176" y="72.1074">RegisterShowRequestController</text><rect fill="#E2E2F0" height="32.6211" rx="2.5" ry="2.5" style="stroke:#181818;stroke-width:0.5;" width="213.9854" x="401.0176" y="572.9863"/><text fill="#000000" font-family="sans-serif" font-size="14" lengthAdjust="spacing" textLength="199.9854" x="408.0176" y="595.0938">RegisterShowRequestController</text><rect fill="#E2E2F0" height="32.6211" rx="2.5" ry="2.5" style="stroke:#181818;stroke-width:0.5;" width="147.8477" x="677.0107" y="50"/><text fill="#000000" font-family="sans-serif" font-size="14" lengthAdjust="spacing" textLength="133.8477" x="684.0107" y="72.1074">ShowRequestService</text><rect fill="#E2E2F0" height="32.6211" rx="2.5" ry="2.5" style="stroke:#181818;stroke-width:0.5;" width="147.8477" x="677.0107" y="572.9863"/><text fill="#000000" font-family="sans-serif" font-size="14" lengthAdjust="spacing" textLength="133.8477" x="684.0107" y="595.0938">ShowRequestService</text><rect fill="#E2E2F0" height="32.6211" rx="2.5" ry="2.5" style="stroke:#181818;stroke-width:0.5;" width="141.5996" x="834.8584" y="50"/><text fill="#000000" font-family="sans-serif" font-size="14" lengthAdjust="spacing" textLength="127.5996" x="841.8584" y="72.1074">CustomerRepository</text><rect fill="#E2E2F0" height="32.6211" rx="2.5" ry="2.5" style="stroke:#181818;stroke-width:0.5;" width="141.5996" x="834.8584" y="572.9863"/><text fill="#000000" font-family="sans-serif" font-size="14" lengthAdjust="spacing" textLength="127.5996" x="841.8584" y="595.0938">CustomerRepository</text><rect fill="#E2E2F0" height="32.6211" rx="2.5" ry="2.5" style="stroke:#181818;stroke-width:0.5;" width="168.082" x="986.458" y="50"/><text fill="#000000" font-family="sans-serif" font-size="14" lengthAdjust="spacing" textLength="154.082" x="993.458" y="72.1074">ShowRequestRepository</text><rect fill="#E2E2F0" height="32.6211" rx="2.5" ry="2.5" style="stroke:#181818;stroke-width:0.5;" width="168.082" x="986.458" y="572.9863"/><text fill="#000000" font-family="sans-serif" font-size="14" lengthAdjust="spacing" textLength="154.082" x="993.458" y="595.0938">ShowRequestRepository</text><polygon fill="#181818" points="295.3696,139.2031,305.3696,143.2031,295.3696,147.2031,299.3696,143.2031" style="stroke:#181818;stroke-width:1.0;"/><line style="stroke:#181818;stroke-width:1.0;" x1="89.0171" x2="301.3696" y1="143.2031" y2="143.2031"/><text fill="#000000" font-family="sans-serif" font-size="13" lengthAdjust="spacing" textLength="194.3525" x="96.0171" y="137.9404">Fill and submit show request form</text><polygon fill="#181818" points="496.0103,170.4941,506.0103,174.4941,496.0103,178.4941,500.0103,174.4941" style="stroke:#181818;stroke-width:1.0;"/><line style="stroke:#181818;stroke-width:1.0;" x1="307.3696" x2="502.0103" y1="174.4941" y2="174.4941"/><text fill="#000000" font-family="sans-serif" font-size="13" lengthAdjust="spacing" textLength="151.0171" x="314.3696" y="169.2314">registerShowRequest(dto)</text><polygon fill="#181818" points="738.9346,201.7852,748.9346,205.7852,738.9346,209.7852,742.9346,205.7852" style="stroke:#181818;stroke-width:1.0;"/><line style="stroke:#181818;stroke-width:1.0;" x1="508.0103" x2="744.9346" y1="205.7852" y2="205.7852"/><text fill="#000000" font-family="sans-serif" font-size="13" lengthAdjust="spacing" textLength="218.9243" x="515.0103" y="200.5225">registerShowRequest(dto.toDomain())</text><polygon fill="#181818" points="893.6582,233.0762,903.6582,237.0762,893.6582,241.0762,897.6582,237.0762" style="stroke:#181818;stroke-width:1.0;"/><line style="stroke:#181818;stroke-width:1.0;" x1="750.9346" x2="899.6582" y1="237.0762" y2="237.0762"/><text fill="#000000" font-family="sans-serif" font-size="13" lengthAdjust="spacing" textLength="106.9072" x="757.9346" y="231.8135">isActive(customer)</text><path d="M20,252.0762 L80.1709,252.0762 L80.1709,261.3672 L70.1709,271.3672 L20,271.3672 L20,252.0762 " fill="#EEEEEE" style="stroke:#000000;stroke-width:1.5;"/><rect fill="none" height="304.9102" style="stroke:#000000;stroke-width:1.5;" width="1144.54" x="20" y="252.0762"/><text fill="#000000" font-family="sans-serif" font-size="13" font-weight="bold" lengthAdjust="spacing" textLength="15.1709" x="35" y="267.1045">alt</text><text fill="#000000" font-family="sans-serif" font-size="11" font-weight="bold" lengthAdjust="spacing" textLength="125.3022" x="95.1709" y="265.9463">[Customer is not active]</text><polygon fill="#181818" points="519.0103,290.6582,509.0103,294.6582,519.0103,298.6582,515.0103,294.6582" style="stroke:#181818;stroke-width:1.0;"/><line style="stroke:#181818;stroke-width:1.0;" x1="513.0103" x2="749.9346" y1="294.6582" y2="294.6582"/><text fill="#000000" font-family="sans-serif" font-size="13" lengthAdjust="spacing" textLength="193.6416" x="525.0103" y="289.3955">throw InactiveCustomerException</text><polygon fill="#181818" points="318.3696,321.9492,308.3696,325.9492,318.3696,329.9492,314.3696,325.9492" style="stroke:#181818;stroke-width:1.0;"/><line style="stroke:#181818;stroke-width:1.0;" x1="312.3696" x2="507.0103" y1="325.9492" y2="325.9492"/><text fill="#000000" font-family="sans-serif" font-size="13" lengthAdjust="spacing" textLength="61.4072" x="324.3696" y="320.6865">show error</text><polygon fill="#181818" points="100.0171,353.2402,90.0171,357.2402,100.0171,361.2402,96.0171,357.2402" style="stroke:#181818;stroke-width:1.0;"/><line style="stroke:#181818;stroke-width:1.0;" x1="94.0171" x2="306.3696" y1="357.2402" y2="357.2402"/><text fill="#000000" font-family="sans-serif" font-size="13" lengthAdjust="spacing" textLength="127.8862" x="106.0171" y="351.9775">display error message</text><line style="stroke:#000000;stroke-width:1.0;stroke-dasharray:2.0,2.0;" x1="20" x2="1164.54" y1="366.2402" y2="366.2402"/><polygon fill="#181818" points="1058.499,386.5313,1068.499,390.5313,1058.499,394.5313,1062.499,390.5313" style="stroke:#181818;stroke-width:1.0;"/><line style="stroke:#181818;stroke-width:1.0;" x1="750.9346" x2="1064.499" y1="390.5313" y2="390.5313"/><text fill="#000000" font-family="sans-serif" font-size="13" lengthAdjust="spacing" textLength="79.479" x="757.9346" y="385.2686">save(request)</text><polygon fill="#181818" points="761.9346,417.8223,751.9346,421.8223,761.9346,425.8223,757.9346,421.8223" style="stroke:#181818;stroke-width:1.0;"/><line style="stroke:#181818;stroke-width:1.0;stroke-dasharray:2.0,2.0;" x1="755.9346" x2="1069.499" y1="421.8223" y2="421.8223"/><text fill="#000000" font-family="sans-serif" font-size="13" lengthAdjust="spacing" textLength="70.8081" x="767.9346" y="416.5596">confirmation</text><polygon fill="#181818" points="519.0103,449.1133,509.0103,453.1133,519.0103,457.1133,515.0103,453.1133" style="stroke:#181818;stroke-width:1.0;"/><line style="stroke:#181818;stroke-width:1.0;stroke-dasharray:2.0,2.0;" x1="513.0103" x2="749.9346" y1="453.1133" y2="453.1133"/><text fill="#000000" font-family="sans-serif" font-size="13" lengthAdjust="spacing" textLength="46.96" x="525.0103" y="447.8506">success</text><polygon fill="#181818" points="318.3696,480.4043,308.3696,484.4043,318.3696,488.4043,314.3696,484.4043" style="stroke:#181818;stroke-width:1.0;"/><line style="stroke:#181818;stroke-width:1.0;stroke-dasharray:2.0,2.0;" x1="312.3696" x2="507.0103" y1="484.4043" y2="484.4043"/><text fill="#000000" font-family="sans-serif" font-size="13" lengthAdjust="spacing" textLength="103.3208" x="324.3696" y="479.1416">success message</text><polygon fill="#181818" points="100.0171,511.6953,90.0171,515.6953,100.0171,519.6953,96.0171,515.6953" style="stroke:#181818;stroke-width:1.0;"/><line style="stroke:#181818;stroke-width:1.0;" x1="94.0171" x2="306.3696" y1="515.6953" y2="515.6953"/><text fill="#000000" font-family="sans-serif" font-size="13" lengthAdjust="spacing" textLength="80.9199" x="106.0171" y="510.4326">show success</text><path d="M40,530.6953 L119.6899,530.6953 L119.6899,539.9863 L109.6899,549.9863 L40,549.9863 L40,530.6953 " fill="#EEEEEE" style="stroke:#000000;stroke-width:1.5;"/><rect fill="none" height="19.291" style="stroke:#000000;stroke-width:1.5;" width="84.6899" x="40" y="530.6953"/><text fill="#000000" font-family="sans-serif" font-size="13" font-weight="bold" lengthAdjust="spacing" textLength="34.6899" x="55" y="545.7236">break</text><!--SRC=[XP8nRzj038Lt_Gh2NUmX1Rfqo50WSHB0GnS7GMVwnDY4JqULTt9h5FtlfUva9L8JP11m8h_7utjIF79eKR41pu7IkIKGJGUfujXeqHrnJ_2d0hYryrwb2_LQl2Xykhc_-_hmfU-8rgIbUkiDg_vM5RfahulrzZjOn-DE5Aso08nWnSekIEounP1WiQKznqJwU91VM_hPKKnFcum-RJuarnAIsXKq31zVfyfNYaVI4plA-72Uikik9cb8jzHAP5lxN4PRkI-zEtZ6MpNZbHTfuSU1FK4q6hJWm14udD1pRJ52dmjSVJFFS0qFx3rWg25skuRJLFSiscI5eIPuiMn2_J-XPPraLMvu8KqtU7zVz3d9dJJ8ORag-ekYltG8mzGSRrpY4otTa5k1qIUu9DbR3P80CvZRytclJQI3cjrDAFXboFrlHsrY2QD-wYS7buCYLT6H6bAoTA-XvjXwF1S26ehHVl1CaezlBZPynNuqciVX6wn6zDA_cYJg93opDZXPTvmwznixvsoLDtsDnWepsNdkBfkV3zifuR5O37Lbppy0]--></g></svg>