<svg xmlns="http://www.w3.org/2000/svg" xmlns:xlink="http://www.w3.org/1999/xlink" contentStyleType="text/css" height="927px" preserveAspectRatio="none" style="width:2117px;height:927px;background:#FFFFFF;" version="1.1" viewBox="0 0 2117 927" width="2117px" zoomAndPan="magnify"><defs/><g><!--cluster shodrone--><g id="cluster_shodrone"><path d="M8.5,6.0137 L73.2793,6.0137 A3.75,3.75 0 0 1 75.7793,8.5137 L82.7793,30.6348 L2107.5,30.6348 A2.5,2.5 0 0 1 2110,33.1348 L2110,918.0137 A2.5,2.5 0 0 1 2107.5,920.5137 L8.5,920.5137 A2.5,2.5 0 0 1 6,918.0137 L6,8.5137 A2.5,2.5 0 0 1 8.5,6.0137 " fill="#D6EAF8" style="stroke:#000000;stroke-width:1.5;"/><line style="stroke:#000000;stroke-width:1.5;" x1="6" x2="82.7793" y1="30.6348" y2="30.6348"/><text fill="#000000" font-family="sans-serif" font-size="14" font-weight="bold" lengthAdjust="spacing" textLength="63.7793" x="10" y="23.1211">shodrone</text></g><!--cluster core--><g id="cluster_core"><path d="M32.5,51.0137 L63.0723,51.0137 A3.75,3.75 0 0 1 65.5723,53.5137 L72.5723,75.6348 L1058.5,75.6348 A2.5,2.5 0 0 1 1061,78.1348 L1061,894.0137 A2.5,2.5 0 0 1 1058.5,896.5137 L32.5,896.5137 A2.5,2.5 0 0 1 30,894.0137 L30,53.5137 A2.5,2.5 0 0 1 32.5,51.0137 " fill="#D6EAF8" style="stroke:#000000;stroke-width:1.5;"/><line style="stroke:#000000;stroke-width:1.5;" x1="30" x2="72.5723" y1="75.6348" y2="75.6348"/><text fill="#000000" font-family="sans-serif" font-size="14" font-weight="bold" lengthAdjust="spacing" textLength="29.5723" x="34" y="68.1211">core</text></g><!--cluster dronemanagement--><g id="cluster_dronemanagement"><path d="M56.5,96.0137 L182.748,96.0137 A3.75,3.75 0 0 1 185.248,98.5137 L192.248,120.6348 L1034.5,120.6348 A2.5,2.5 0 0 1 1037,123.1348 L1037,870.0137 A2.5,2.5 0 0 1 1034.5,872.5137 L56.5,872.5137 A2.5,2.5 0 0 1 54,870.0137 L54,98.5137 A2.5,2.5 0 0 1 56.5,96.0137 " fill="#D6EAF8" style="stroke:#000000;stroke-width:1.5;"/><line style="stroke:#000000;stroke-width:1.5;" x1="54" x2="192.248" y1="120.6348" y2="120.6348"/><text fill="#000000" font-family="sans-serif" font-size="14" font-weight="bold" lengthAdjust="spacing" textLength="125.248" x="58" y="113.1211">dronemanagement</text></g><!--cluster domain--><g id="cluster_domain"><path d="M192.5,363.5137 L243.2793,363.5137 A3.75,3.75 0 0 1 245.7793,366.0137 L252.7793,388.1348 L926.5,388.1348 A2.5,2.5 0 0 1 929,390.6348 L929,846.0137 A2.5,2.5 0 0 1 926.5,848.5137 L192.5,848.5137 A2.5,2.5 0 0 1 190,846.0137 L190,366.0137 A2.5,2.5 0 0 1 192.5,363.5137 " fill="#D6EAF8" style="stroke:#000000;stroke-width:1.5;"/><line style="stroke:#000000;stroke-width:1.5;" x1="190" x2="252.7793" y1="388.1348" y2="388.1348"/><text fill="#000000" font-family="sans-serif" font-size="14" font-weight="bold" lengthAdjust="spacing" textLength="49.7793" x="194" y="380.6211">domain</text><text fill="#000000" font-family="sans-serif" font-size="14" font-style="italic" lengthAdjust="spacing" textLength="80.1787" x="523.4106" y="405.2422">&#171;Aggregate&#187;</text></g><!--cluster service--><g id="cluster_service"><path d="M80.5,141.0137 L129.7686,141.0137 A3.75,3.75 0 0 1 132.2686,143.5137 L139.2686,165.6348 L606.5,165.6348 A2.5,2.5 0 0 1 609,168.1348 L609,326.5137 A2.5,2.5 0 0 1 606.5,329.0137 L80.5,329.0137 A2.5,2.5 0 0 1 78,326.5137 L78,143.5137 A2.5,2.5 0 0 1 80.5,141.0137 " fill="#D6EAF8" style="stroke:#000000;stroke-width:1.5;"/><line style="stroke:#000000;stroke-width:1.5;" x1="78" x2="139.2686" y1="165.6348" y2="165.6348"/><text fill="#000000" font-family="sans-serif" font-size="14" font-weight="bold" lengthAdjust="spacing" textLength="48.2686" x="82" y="158.1211">service</text></g><!--cluster repository--><g id="cluster_repository"><path d="M635.5,184.5137 L704.9619,184.5137 A3.75,3.75 0 0 1 707.4619,187.0137 L714.4619,209.1348 L1010.5,209.1348 A2.5,2.5 0 0 1 1013,211.6348 L1013,283.0137 A2.5,2.5 0 0 1 1010.5,285.5137 L635.5,285.5137 A2.5,2.5 0 0 1 633,283.0137 L633,187.0137 A2.5,2.5 0 0 1 635.5,184.5137 " fill="#D6EAF8" style="stroke:#000000;stroke-width:1.5;"/><line style="stroke:#000000;stroke-width:1.5;" x1="633" x2="714.4619" y1="209.1348" y2="209.1348"/><text fill="#000000" font-family="sans-serif" font-size="14" font-weight="bold" lengthAdjust="spacing" textLength="68.4619" x="637" y="201.6211">repository</text></g><!--cluster persistence--><g id="cluster_persistence"><path d="M1087.5,353.0137 L1166.3203,353.0137 A3.75,3.75 0 0 1 1168.8203,355.5137 L1175.8203,377.6348 L2083.5,377.6348 A2.5,2.5 0 0 1 2086,380.1348 L2086,520.5137 A2.5,2.5 0 0 1 2083.5,523.0137 L1087.5,523.0137 A2.5,2.5 0 0 1 1085,520.5137 L1085,355.5137 A2.5,2.5 0 0 1 1087.5,353.0137 " fill="#D6EAF8" style="stroke:#000000;stroke-width:1.5;"/><line style="stroke:#000000;stroke-width:1.5;" x1="1085" x2="1175.8203" y1="377.6348" y2="377.6348"/><text fill="#000000" font-family="sans-serif" font-size="14" font-weight="bold" lengthAdjust="spacing" textLength="77.8203" x="1089" y="370.1211">persistence</text></g><!--cluster JPARepository--><g id="cluster_JPARepository"><path d="M1111.5,398.0137 L1212.8584,398.0137 A3.75,3.75 0 0 1 1215.3584,400.5137 L1222.3584,422.6348 L1531.5,422.6348 A2.5,2.5 0 0 1 1534,425.1348 L1534,496.5137 A2.5,2.5 0 0 1 1531.5,499.0137 L1111.5,499.0137 A2.5,2.5 0 0 1 1109,496.5137 L1109,400.5137 A2.5,2.5 0 0 1 1111.5,398.0137 " fill="#D6EAF8" style="stroke:#000000;stroke-width:1.5;"/><line style="stroke:#000000;stroke-width:1.5;" x1="1109" x2="1222.3584" y1="422.6348" y2="422.6348"/><text fill="#000000" font-family="sans-serif" font-size="14" font-weight="bold" lengthAdjust="spacing" textLength="100.3584" x="1113" y="415.1211">JPARepository</text></g><!--cluster InMemoryRepository--><g id="cluster_InMemoryRepository"><path d="M1560.5,398.0137 L1700.748,398.0137 A3.75,3.75 0 0 1 1703.248,400.5137 L1710.248,422.6348 L2059.5,422.6348 A2.5,2.5 0 0 1 2062,425.1348 L2062,496.5137 A2.5,2.5 0 0 1 2059.5,499.0137 L1560.5,499.0137 A2.5,2.5 0 0 1 1558,496.5137 L1558,400.5137 A2.5,2.5 0 0 1 1560.5,398.0137 " fill="#D6EAF8" style="stroke:#000000;stroke-width:1.5;"/><line style="stroke:#000000;stroke-width:1.5;" x1="1558" x2="1710.248" y1="422.6348" y2="422.6348"/><text fill="#000000" font-family="sans-serif" font-size="14" font-weight="bold" lengthAdjust="spacing" textLength="139.248" x="1562" y="415.1211">InMemoryRepository</text></g><!--class Drone--><g id="elem_Drone"><rect codeLine="14" fill="#F1F1F1" height="79.2031" id="Drone" rx="2.5" ry="2.5" style="stroke:#181818;stroke-width:0.5;" width="188.6543" x="428.5" y="419.5137"/><ellipse cx="456.9561" cy="441.8047" fill="#ADD1B2" rx="11" ry="11" style="stroke:#181818;stroke-width:1.0;"/><path d="M459.7217,437.6797 Q459.8779,437.4609 460.0654,437.3516 Q460.2529,437.2422 460.4717,437.2422 Q460.8467,437.2422 461.0811,437.5078 Q461.3154,437.7578 461.3154,438.3672 L461.3154,439.8203 Q461.3154,440.4297 461.0811,440.6953 Q460.8467,440.9609 460.4717,440.9609 Q460.1279,440.9609 459.9248,440.7578 Q459.7217,440.5703 459.6123,440.0547 Q459.5654,439.6953 459.3779,439.5078 Q459.0498,439.1328 458.4404,438.9141 Q457.8311,438.6953 457.2061,438.6953 Q456.4404,438.6953 455.7998,439.0234 Q455.1748,439.3516 454.6748,440.1016 Q454.1904,440.8516 454.1904,441.8828 L454.1904,442.9766 Q454.1904,444.2109 455.0811,445.0391 Q455.9717,445.8516 457.5654,445.8516 Q458.5029,445.8516 459.1592,445.6016 Q459.5498,445.4453 459.9717,445.0078 Q460.2373,444.7422 460.3779,444.6641 Q460.5342,444.5859 460.7373,444.5859 Q461.0654,444.5859 461.3154,444.8516 Q461.5811,445.1016 461.5811,445.4453 Q461.5811,445.7891 461.2373,446.1953 Q460.7373,446.7734 459.9404,447.1016 Q458.8623,447.5547 457.5654,447.5547 Q456.0498,447.5547 454.8467,446.9297 Q453.8623,446.4297 453.1748,445.3672 Q452.4873,444.2891 452.4873,443.0078 L452.4873,441.8516 Q452.4873,440.5234 453.0967,439.3828 Q453.7217,438.2266 454.8154,437.6172 Q455.9092,436.9922 457.1436,436.9922 Q457.8779,436.9922 458.5186,437.1641 Q459.1748,437.3203 459.7217,437.6797 Z " fill="#000000"/><text fill="#000000" font-family="sans-serif" font-size="12" font-style="italic" lengthAdjust="spacing" textLength="130.752" x="471.9463" y="437.4629">&#171;Entity, AggregateRoot&#187;</text><text fill="#000000" font-family="sans-serif" font-size="14" lengthAdjust="spacing" textLength="38.1309" x="518.2568" y="455.582">Drone</text><line style="stroke:#181818;stroke-width:0.5;" x1="429.5" x2="616.1543" y1="464.0957" y2="464.0957"/><rect fill="none" height="6" style="stroke:#C82930;stroke-width:1.0;" width="6" x="436.5" y="475.9063"/><text fill="#000000" font-family="sans-serif" font-size="14" lengthAdjust="spacing" textLength="162.6543" x="448.5" y="483.2031">LocalDate acquisitionDate</text><line style="stroke:#181818;stroke-width:0.5;" x1="429.5" x2="616.1543" y1="490.7168" y2="490.7168"/></g><!--class DroneStatus--><g id="elem_DroneStatus"><rect codeLine="18" fill="#F1F1F1" height="116.4453" id="DroneStatus" rx="2.5" ry="2.5" style="stroke:#181818;stroke-width:0.5;" width="142.6758" x="769.5" y="558.5137"/><ellipse cx="799.285" cy="580.8047" fill="#EB937F" rx="11" ry="11" style="stroke:#181818;stroke-width:1.0;"/><path d="M798.1443,581.6016 L798.1443,584.1016 L802.4725,584.1016 L802.4725,583.1797 Q802.4725,582.5703 802.7068,582.3047 Q802.9568,582.0391 803.3318,582.0391 Q803.7068,582.0391 803.9412,582.3047 Q804.1756,582.5703 804.1756,583.1797 L804.1756,585.8047 L796.1756,585.8047 Q795.5506,585.8047 795.285,585.5703 Q795.035,585.3359 795.035,584.9453 Q795.035,584.5703 795.3006,584.3359 Q795.5662,584.1016 796.1756,584.1016 L796.4412,584.1016 L796.4412,577.4453 L796.1756,577.4453 Q795.5506,577.4453 795.285,577.2109 Q795.035,576.9766 795.035,576.5859 Q795.035,576.2109 795.285,575.9766 Q795.5506,575.7422 796.1756,575.7422 L803.8006,575.7422 L803.8006,578.3359 Q803.8006,578.9453 803.5662,579.2109 Q803.3475,579.4609 802.9568,579.4609 Q802.5818,579.4609 802.3475,579.2109 Q802.1131,578.9453 802.1131,578.3359 L802.1131,577.4453 L798.1443,577.4453 L798.1443,579.8984 L799.6287,579.8984 Q799.6287,579.2422 799.7537,579.0547 Q800.0193,578.6484 800.4881,578.6484 Q800.8631,578.6484 801.0975,578.9141 Q801.3318,579.1641 801.3318,579.7734 L801.3318,581.7422 Q801.3318,582.2891 801.2068,582.4766 Q800.9412,582.8672 800.4881,582.8672 Q800.0193,582.8672 799.7537,582.4609 Q799.6287,582.2734 799.6287,581.6016 L798.1443,581.6016 Z " fill="#000000"/><text fill="#000000" font-family="sans-serif" font-size="12" font-style="italic" lengthAdjust="spacing" textLength="44.6953" x="833.133" y="576.4629">&#171;Enum&#187;</text><text fill="#000000" font-family="sans-serif" font-size="14" lengthAdjust="spacing" textLength="77.8203" x="816.5705" y="594.582">DroneStatus</text><line style="stroke:#181818;stroke-width:0.5;" x1="770.5" x2="911.1758" y1="603.0957" y2="603.0957"/><text fill="#000000" font-family="sans-serif" font-size="14" lengthAdjust="spacing" textLength="54.4551" x="775.5" y="622.2031">ACTIVE,</text><text fill="#000000" font-family="sans-serif" font-size="14" lengthAdjust="spacing" textLength="77.7998" x="775.5" y="640.8242">IN_REPAIR,</text><text fill="#000000" font-family="sans-serif" font-size="14" lengthAdjust="spacing" textLength="130.6758" x="775.5" y="659.4453">DECOMMISSIONED</text><line style="stroke:#181818;stroke-width:0.5;" x1="770.5" x2="911.1758" y1="666.959" y2="666.959"/></g><!--class DroneMaintenance--><g id="elem_DroneMaintenance"><rect codeLine="24" fill="#F1F1F1" height="97.8242" id="DroneMaintenance" rx="2.5" ry="2.5" style="stroke:#181818;stroke-width:0.5;" width="229.1299" x="363.5" y="567.5137"/><ellipse cx="414.667" cy="589.8047" fill="#ADD1B2" rx="11" ry="11" style="stroke:#181818;stroke-width:1.0;"/><path d="M417.4326,585.6797 Q417.5889,585.4609 417.7764,585.3516 Q417.9639,585.2422 418.1826,585.2422 Q418.5576,585.2422 418.792,585.5078 Q419.0264,585.7578 419.0264,586.3672 L419.0264,587.8203 Q419.0264,588.4297 418.792,588.6953 Q418.5576,588.9609 418.1826,588.9609 Q417.8389,588.9609 417.6357,588.7578 Q417.4326,588.5703 417.3232,588.0547 Q417.2764,587.6953 417.0889,587.5078 Q416.7607,587.1328 416.1514,586.9141 Q415.542,586.6953 414.917,586.6953 Q414.1514,586.6953 413.5107,587.0234 Q412.8857,587.3516 412.3857,588.1016 Q411.9014,588.8516 411.9014,589.8828 L411.9014,590.9766 Q411.9014,592.2109 412.792,593.0391 Q413.6826,593.8516 415.2764,593.8516 Q416.2139,593.8516 416.8701,593.6016 Q417.2607,593.4453 417.6826,593.0078 Q417.9482,592.7422 418.0889,592.6641 Q418.2451,592.5859 418.4482,592.5859 Q418.7764,592.5859 419.0264,592.8516 Q419.292,593.1016 419.292,593.4453 Q419.292,593.7891 418.9482,594.1953 Q418.4482,594.7734 417.6514,595.1016 Q416.5732,595.5547 415.2764,595.5547 Q413.7607,595.5547 412.5576,594.9297 Q411.5732,594.4297 410.8857,593.3672 Q410.1982,592.2891 410.1982,591.0078 L410.1982,589.8516 Q410.1982,588.5234 410.8076,587.3828 Q411.4326,586.2266 412.5264,585.6172 Q413.6201,584.9922 414.8545,584.9922 Q415.5889,584.9922 416.2295,585.1641 Q416.8857,585.3203 417.4326,585.6797 Z " fill="#000000"/><text fill="#000000" font-family="sans-serif" font-size="12" font-style="italic" lengthAdjust="spacing" textLength="43.3594" x="472.6353" y="585.4629">&#171;Entity&#187;</text><text fill="#000000" font-family="sans-serif" font-size="14" lengthAdjust="spacing" textLength="118.2959" x="435.167" y="603.582">DroneMaintenance</text><line style="stroke:#181818;stroke-width:0.5;" x1="364.5" x2="591.6299" y1="612.0957" y2="612.0957"/><rect fill="none" height="6" style="stroke:#C82930;stroke-width:1.0;" width="6" x="371.5" y="623.9063"/><text fill="#000000" font-family="sans-serif" font-size="14" lengthAdjust="spacing" textLength="176.668" x="383.5" y="631.2031">LocalDate maintenanceDate</text><rect fill="none" height="6" style="stroke:#C82930;stroke-width:1.0;" width="6" x="371.5" y="642.5273"/><text fill="#000000" font-family="sans-serif" font-size="14" lengthAdjust="spacing" textLength="203.1299" x="383.5" y="649.8242">LocalDate nextMaintenanceDate</text><line style="stroke:#181818;stroke-width:0.5;" x1="364.5" x2="591.6299" y1="657.3379" y2="657.3379"/></g><!--class MaintenanceType--><g id="elem_MaintenanceType"><rect codeLine="29" fill="#F1F1F1" height="97.8242" id="MaintenanceType" rx="2.5" ry="2.5" style="stroke:#181818;stroke-width:0.5;" width="143.2891" x="406.5" y="734.5137"/><ellipse cx="421.5" cy="756.8047" fill="#EB937F" rx="11" ry="11" style="stroke:#181818;stroke-width:1.0;"/><path d="M420.3594,757.6016 L420.3594,760.1016 L424.6875,760.1016 L424.6875,759.1797 Q424.6875,758.5703 424.9219,758.3047 Q425.1719,758.0391 425.5469,758.0391 Q425.9219,758.0391 426.1563,758.3047 Q426.3906,758.5703 426.3906,759.1797 L426.3906,761.8047 L418.3906,761.8047 Q417.7656,761.8047 417.5,761.5703 Q417.25,761.3359 417.25,760.9453 Q417.25,760.5703 417.5156,760.3359 Q417.7813,760.1016 418.3906,760.1016 L418.6563,760.1016 L418.6563,753.4453 L418.3906,753.4453 Q417.7656,753.4453 417.5,753.2109 Q417.25,752.9766 417.25,752.5859 Q417.25,752.2109 417.5,751.9766 Q417.7656,751.7422 418.3906,751.7422 L426.0156,751.7422 L426.0156,754.3359 Q426.0156,754.9453 425.7813,755.2109 Q425.5625,755.4609 425.1719,755.4609 Q424.7969,755.4609 424.5625,755.2109 Q424.3281,754.9453 424.3281,754.3359 L424.3281,753.4453 L420.3594,753.4453 L420.3594,755.8984 L421.8438,755.8984 Q421.8438,755.2422 421.9688,755.0547 Q422.2344,754.6484 422.7031,754.6484 Q423.0781,754.6484 423.3125,754.9141 Q423.5469,755.1641 423.5469,755.7734 L423.5469,757.7422 Q423.5469,758.2891 423.4219,758.4766 Q423.1563,758.8672 422.7031,758.8672 Q422.2344,758.8672 421.9688,758.4609 Q421.8438,758.2734 421.8438,757.6016 L420.3594,757.6016 Z " fill="#000000"/><text fill="#000000" font-family="sans-serif" font-size="12" font-style="italic" lengthAdjust="spacing" textLength="44.6953" x="468.7969" y="752.4629">&#171;Enum&#187;</text><text fill="#000000" font-family="sans-serif" font-size="14" lengthAdjust="spacing" textLength="111.2891" x="435.5" y="770.582">MaintenanceType</text><line style="stroke:#181818;stroke-width:0.5;" x1="407.5" x2="548.7891" y1="779.0957" y2="779.0957"/><text fill="#000000" font-family="sans-serif" font-size="14" lengthAdjust="spacing" textLength="92.5791" x="412.5" y="798.2031">PREVENTIVE,</text><text fill="#000000" font-family="sans-serif" font-size="14" lengthAdjust="spacing" textLength="52.124" x="412.5" y="816.8242">REPAIR</text><line style="stroke:#181818;stroke-width:0.5;" x1="407.5" x2="548.7891" y1="824.3379" y2="824.3379"/></g><!--class DroneModel--><g id="elem_DroneModel"><rect codeLine="34" fill="#F1F1F1" height="60.582" id="DroneModel" rx="2.5" ry="2.5" style="stroke:#181818;stroke-width:0.5;" width="158.752" x="206.5" y="428.5137"/><ellipse cx="221.5" cy="450.8047" fill="#ADD1B2" rx="11" ry="11" style="stroke:#181818;stroke-width:1.0;"/><path d="M224.2656,446.6797 Q224.4219,446.4609 224.6094,446.3516 Q224.7969,446.2422 225.0156,446.2422 Q225.3906,446.2422 225.625,446.5078 Q225.8594,446.7578 225.8594,447.3672 L225.8594,448.8203 Q225.8594,449.4297 225.625,449.6953 Q225.3906,449.9609 225.0156,449.9609 Q224.6719,449.9609 224.4688,449.7578 Q224.2656,449.5703 224.1563,449.0547 Q224.1094,448.6953 223.9219,448.5078 Q223.5938,448.1328 222.9844,447.9141 Q222.375,447.6953 221.75,447.6953 Q220.9844,447.6953 220.3438,448.0234 Q219.7188,448.3516 219.2188,449.1016 Q218.7344,449.8516 218.7344,450.8828 L218.7344,451.9766 Q218.7344,453.2109 219.625,454.0391 Q220.5156,454.8516 222.1094,454.8516 Q223.0469,454.8516 223.7031,454.6016 Q224.0938,454.4453 224.5156,454.0078 Q224.7813,453.7422 224.9219,453.6641 Q225.0781,453.5859 225.2813,453.5859 Q225.6094,453.5859 225.8594,453.8516 Q226.125,454.1016 226.125,454.4453 Q226.125,454.7891 225.7813,455.1953 Q225.2813,455.7734 224.4844,456.1016 Q223.4063,456.5547 222.1094,456.5547 Q220.5938,456.5547 219.3906,455.9297 Q218.4063,455.4297 217.7188,454.3672 Q217.0313,453.2891 217.0313,452.0078 L217.0313,450.8516 Q217.0313,449.5234 217.6406,448.3828 Q218.2656,447.2266 219.3594,446.6172 Q220.4531,445.9922 221.6875,445.9922 Q222.4219,445.9922 223.0625,446.1641 Q223.7188,446.3203 224.2656,446.6797 Z " fill="#000000"/><text fill="#000000" font-family="sans-serif" font-size="12" font-style="italic" lengthAdjust="spacing" textLength="130.752" x="233.5" y="446.4629">&#171;Entity, AggregateRoot&#187;</text><text fill="#000000" font-family="sans-serif" font-size="14" lengthAdjust="spacing" textLength="76.2617" x="260.7451" y="464.582">DroneModel</text><line style="stroke:#181818;stroke-width:0.5;" x1="207.5" x2="364.252" y1="473.0957" y2="473.0957"/><line style="stroke:#181818;stroke-width:0.5;" x1="207.5" x2="364.252" y1="481.0957" y2="481.0957"/></g><!--class DroneModelID--><g id="elem_DroneModelID"><rect codeLine="37" fill="#F1F1F1" height="60.582" id="DroneModelID" rx="2.5" ry="2.5" style="stroke:#181818;stroke-width:0.5;" width="122.2617" x="206" y="586.0137"/><ellipse cx="221" cy="608.3047" fill="#ADD1B2" rx="11" ry="11" style="stroke:#181818;stroke-width:1.0;"/><path d="M223.7656,604.1797 Q223.9219,603.9609 224.1094,603.8516 Q224.2969,603.7422 224.5156,603.7422 Q224.8906,603.7422 225.125,604.0078 Q225.3594,604.2578 225.3594,604.8672 L225.3594,606.3203 Q225.3594,606.9297 225.125,607.1953 Q224.8906,607.4609 224.5156,607.4609 Q224.1719,607.4609 223.9688,607.2578 Q223.7656,607.0703 223.6563,606.5547 Q223.6094,606.1953 223.4219,606.0078 Q223.0938,605.6328 222.4844,605.4141 Q221.875,605.1953 221.25,605.1953 Q220.4844,605.1953 219.8438,605.5234 Q219.2188,605.8516 218.7188,606.6016 Q218.2344,607.3516 218.2344,608.3828 L218.2344,609.4766 Q218.2344,610.7109 219.125,611.5391 Q220.0156,612.3516 221.6094,612.3516 Q222.5469,612.3516 223.2031,612.1016 Q223.5938,611.9453 224.0156,611.5078 Q224.2813,611.2422 224.4219,611.1641 Q224.5781,611.0859 224.7813,611.0859 Q225.1094,611.0859 225.3594,611.3516 Q225.625,611.6016 225.625,611.9453 Q225.625,612.2891 225.2813,612.6953 Q224.7813,613.2734 223.9844,613.6016 Q222.9063,614.0547 221.6094,614.0547 Q220.0938,614.0547 218.8906,613.4297 Q217.9063,612.9297 217.2188,611.8672 Q216.5313,610.7891 216.5313,609.5078 L216.5313,608.3516 Q216.5313,607.0234 217.1406,605.8828 Q217.7656,604.7266 218.8594,604.1172 Q219.9531,603.4922 221.1875,603.4922 Q221.9219,603.4922 222.5625,603.6641 Q223.2188,603.8203 223.7656,604.1797 Z " fill="#000000"/><text fill="#000000" font-family="sans-serif" font-size="12" font-style="italic" lengthAdjust="spacing" textLength="78.7207" x="240.7705" y="603.9629">&#171;ValueObject&#187;</text><text fill="#000000" font-family="sans-serif" font-size="14" lengthAdjust="spacing" textLength="90.2617" x="235" y="622.082">DroneModelID</text><line style="stroke:#181818;stroke-width:0.5;" x1="207" x2="327.2617" y1="630.5957" y2="630.5957"/><line style="stroke:#181818;stroke-width:0.5;" x1="207" x2="327.2617" y1="638.5957" y2="638.5957"/></g><!--class DroneID--><g id="elem_DroneID"><rect codeLine="39" fill="#F1F1F1" height="60.582" id="DroneID" rx="2.5" ry="2.5" style="stroke:#181818;stroke-width:0.5;" width="106.7207" x="627.5" y="586.0137"/><ellipse cx="642.5" cy="608.3047" fill="#ADD1B2" rx="11" ry="11" style="stroke:#181818;stroke-width:1.0;"/><path d="M645.2656,604.1797 Q645.4219,603.9609 645.6094,603.8516 Q645.7969,603.7422 646.0156,603.7422 Q646.3906,603.7422 646.625,604.0078 Q646.8594,604.2578 646.8594,604.8672 L646.8594,606.3203 Q646.8594,606.9297 646.625,607.1953 Q646.3906,607.4609 646.0156,607.4609 Q645.6719,607.4609 645.4688,607.2578 Q645.2656,607.0703 645.1563,606.5547 Q645.1094,606.1953 644.9219,606.0078 Q644.5938,605.6328 643.9844,605.4141 Q643.375,605.1953 642.75,605.1953 Q641.9844,605.1953 641.3438,605.5234 Q640.7188,605.8516 640.2188,606.6016 Q639.7344,607.3516 639.7344,608.3828 L639.7344,609.4766 Q639.7344,610.7109 640.625,611.5391 Q641.5156,612.3516 643.1094,612.3516 Q644.0469,612.3516 644.7031,612.1016 Q645.0938,611.9453 645.5156,611.5078 Q645.7813,611.2422 645.9219,611.1641 Q646.0781,611.0859 646.2813,611.0859 Q646.6094,611.0859 646.8594,611.3516 Q647.125,611.6016 647.125,611.9453 Q647.125,612.2891 646.7813,612.6953 Q646.2813,613.2734 645.4844,613.6016 Q644.4063,614.0547 643.1094,614.0547 Q641.5938,614.0547 640.3906,613.4297 Q639.4063,612.9297 638.7188,611.8672 Q638.0313,610.7891 638.0313,609.5078 L638.0313,608.3516 Q638.0313,607.0234 638.6406,605.8828 Q639.2656,604.7266 640.3594,604.1172 Q641.4531,603.4922 642.6875,603.4922 Q643.4219,603.4922 644.0625,603.6641 Q644.7188,603.8203 645.2656,604.1797 Z " fill="#000000"/><text fill="#000000" font-family="sans-serif" font-size="12" font-style="italic" lengthAdjust="spacing" textLength="78.7207" x="654.5" y="603.9629">&#171;ValueObject&#187;</text><text fill="#000000" font-family="sans-serif" font-size="14" lengthAdjust="spacing" textLength="52.1309" x="667.7949" y="622.082">DroneID</text><line style="stroke:#181818;stroke-width:0.5;" x1="628.5" x2="733.2207" y1="630.5957" y2="630.5957"/><line style="stroke:#181818;stroke-width:0.5;" x1="628.5" x2="733.2207" y1="638.5957" y2="638.5957"/></g><!--class DroneModelService--><g id="elem_DroneModelService"><rect codeLine="46" fill="#F1F1F1" height="60.582" id="DroneModelService" rx="2.5" ry="2.5" style="stroke:#181818;stroke-width:0.5;" width="154.9443" x="94.5" y="215.0137"/><ellipse cx="109.5" cy="237.3047" fill="#ADD1B2" rx="11" ry="11" style="stroke:#181818;stroke-width:1.0;"/><path d="M112.2656,233.1797 Q112.4219,232.9609 112.6094,232.8516 Q112.7969,232.7422 113.0156,232.7422 Q113.3906,232.7422 113.625,233.0078 Q113.8594,233.2578 113.8594,233.8672 L113.8594,235.3203 Q113.8594,235.9297 113.625,236.1953 Q113.3906,236.4609 113.0156,236.4609 Q112.6719,236.4609 112.4688,236.2578 Q112.2656,236.0703 112.1563,235.5547 Q112.1094,235.1953 111.9219,235.0078 Q111.5938,234.6328 110.9844,234.4141 Q110.375,234.1953 109.75,234.1953 Q108.9844,234.1953 108.3438,234.5234 Q107.7188,234.8516 107.2188,235.6016 Q106.7344,236.3516 106.7344,237.3828 L106.7344,238.4766 Q106.7344,239.7109 107.625,240.5391 Q108.5156,241.3516 110.1094,241.3516 Q111.0469,241.3516 111.7031,241.1016 Q112.0938,240.9453 112.5156,240.5078 Q112.7813,240.2422 112.9219,240.1641 Q113.0781,240.0859 113.2813,240.0859 Q113.6094,240.0859 113.8594,240.3516 Q114.125,240.6016 114.125,240.9453 Q114.125,241.2891 113.7813,241.6953 Q113.2813,242.2734 112.4844,242.6016 Q111.4063,243.0547 110.1094,243.0547 Q108.5938,243.0547 107.3906,242.4297 Q106.4063,241.9297 105.7188,240.8672 Q105.0313,239.7891 105.0313,238.5078 L105.0313,237.3516 Q105.0313,236.0234 105.6406,234.8828 Q106.2656,233.7266 107.3594,233.1172 Q108.4531,232.4922 109.6875,232.4922 Q110.4219,232.4922 111.0625,232.6641 Q111.7188,232.8203 112.2656,233.1797 Z " fill="#000000"/><text fill="#000000" font-family="sans-serif" font-size="12" font-style="italic" lengthAdjust="spacing" textLength="94.7109" x="137.6167" y="232.9629">&#171;DomainService&#187;</text><text fill="#000000" font-family="sans-serif" font-size="14" lengthAdjust="spacing" textLength="122.9443" x="123.5" y="251.082">DroneModelService</text><line style="stroke:#181818;stroke-width:0.5;" x1="95.5" x2="248.4443" y1="259.5957" y2="259.5957"/><line style="stroke:#181818;stroke-width:0.5;" x1="95.5" x2="248.4443" y1="267.5957" y2="267.5957"/></g><!--class DroneService--><g id="elem_DroneService"><rect codeLine="50" fill="#F1F1F1" height="135.0664" id="DroneService" rx="2.5" ry="2.5" style="stroke:#181818;stroke-width:0.5;" width="307.6816" x="285" y="178.0137"/><ellipse cx="389.2354" cy="200.3047" fill="#ADD1B2" rx="11" ry="11" style="stroke:#181818;stroke-width:1.0;"/><path d="M392.001,196.1797 Q392.1572,195.9609 392.3447,195.8516 Q392.5322,195.7422 392.751,195.7422 Q393.126,195.7422 393.3604,196.0078 Q393.5947,196.2578 393.5947,196.8672 L393.5947,198.3203 Q393.5947,198.9297 393.3604,199.1953 Q393.126,199.4609 392.751,199.4609 Q392.4072,199.4609 392.2041,199.2578 Q392.001,199.0703 391.8916,198.5547 Q391.8447,198.1953 391.6572,198.0078 Q391.3291,197.6328 390.7197,197.4141 Q390.1104,197.1953 389.4854,197.1953 Q388.7197,197.1953 388.0791,197.5234 Q387.4541,197.8516 386.9541,198.6016 Q386.4697,199.3516 386.4697,200.3828 L386.4697,201.4766 Q386.4697,202.7109 387.3604,203.5391 Q388.251,204.3516 389.8447,204.3516 Q390.7822,204.3516 391.4385,204.1016 Q391.8291,203.9453 392.251,203.5078 Q392.5166,203.2422 392.6572,203.1641 Q392.8135,203.0859 393.0166,203.0859 Q393.3447,203.0859 393.5947,203.3516 Q393.8604,203.6016 393.8604,203.9453 Q393.8604,204.2891 393.5166,204.6953 Q393.0166,205.2734 392.2197,205.6016 Q391.1416,206.0547 389.8447,206.0547 Q388.3291,206.0547 387.126,205.4297 Q386.1416,204.9297 385.4541,203.8672 Q384.7666,202.7891 384.7666,201.5078 L384.7666,200.3516 Q384.7666,199.0234 385.376,197.8828 Q386.001,196.7266 387.0947,196.1172 Q388.1885,195.4922 389.4229,195.4922 Q390.1572,195.4922 390.7979,195.6641 Q391.4541,195.8203 392.001,196.1797 Z " fill="#000000"/><text fill="#000000" font-family="sans-serif" font-size="12" font-style="italic" lengthAdjust="spacing" textLength="94.7109" x="407.7354" y="195.9629">&#171;DomainService&#187;</text><text fill="#000000" font-family="sans-serif" font-size="14" lengthAdjust="spacing" textLength="84.8135" x="412.6841" y="214.082">DroneService</text><line style="stroke:#181818;stroke-width:0.5;" x1="286" x2="591.6816" y1="222.5957" y2="222.5957"/><text fill="#000000" font-family="sans-serif" font-size="14" lengthAdjust="spacing" textLength="295.6816" x="291" y="241.7031">Checks availability of drones for specific shows,</text><text fill="#000000" font-family="sans-serif" font-size="14" lengthAdjust="spacing" textLength="264.6055" x="291" y="260.3242">considering inventory status and schedule.</text><text fill="#000000" font-family="sans-serif" font-size="14" lengthAdjust="spacing" textLength="238.9092" x="291" y="278.9453">Manages drone inventory: registration,</text><text fill="#000000" font-family="sans-serif" font-size="14" lengthAdjust="spacing" textLength="263.0537" x="291" y="297.5664">repair status and maintenance scheduling.</text><line style="stroke:#181818;stroke-width:0.5;" x1="286" x2="591.6816" y1="305.0801" y2="305.0801"/></g><!--class DroneRepository--><g id="elem_DroneRepository"><rect codeLine="61" fill="#F1F1F1" height="48" id="DroneRepository" rx="2.5" ry="2.5" style="stroke:#181818;stroke-width:0.5;" width="137.0479" x="859.5" y="221.5137"/><ellipse cx="874.5" cy="237.5137" fill="#B4A7E5" rx="11" ry="11" style="stroke:#181818;stroke-width:1.0;"/><path d="M875.4531,234.1543 L875.4531,240.8105 L877.1719,240.8105 Q877.7813,240.8105 878.0469,241.0449 Q878.3125,241.2793 878.3125,241.6699 Q878.3125,242.0449 878.0469,242.2793 Q877.7813,242.5137 877.1719,242.5137 L872.0313,242.5137 Q871.4219,242.5137 871.1563,242.2793 Q870.8906,242.0449 870.8906,241.6543 Q870.8906,241.2793 871.1563,241.0449 Q871.4219,240.8105 872.0313,240.8105 L873.75,240.8105 L873.75,234.1543 L872.0313,234.1543 Q871.4219,234.1543 871.1563,233.9199 Q870.8906,233.6855 870.8906,233.2949 Q870.8906,232.9199 871.1563,232.6855 Q871.4219,232.4512 872.0313,232.4512 L877.1719,232.4512 Q877.7813,232.4512 878.0469,232.6855 Q878.3125,232.9199 878.3125,233.2949 Q878.3125,233.6855 878.0469,233.9199 Q877.7813,234.1543 877.1719,234.1543 L875.4531,234.1543 Z " fill="#000000"/><text fill="#000000" font-family="sans-serif" font-size="14" font-style="italic" lengthAdjust="spacing" textLength="105.0479" x="888.5" y="243.3105">DroneRepository</text><line style="stroke:#181818;stroke-width:0.5;" x1="860.5" x2="995.5479" y1="253.5137" y2="253.5137"/><line style="stroke:#181818;stroke-width:0.5;" x1="860.5" x2="995.5479" y1="261.5137" y2="261.5137"/></g><!--class DroneModelRepository--><g id="elem_DroneModelRepository"><rect codeLine="62" fill="#F1F1F1" height="48" id="DroneModelRepository" rx="2.5" ry="2.5" style="stroke:#181818;stroke-width:0.5;" width="175.1787" x="649.5" y="221.5137"/><ellipse cx="664.5" cy="237.5137" fill="#B4A7E5" rx="11" ry="11" style="stroke:#181818;stroke-width:1.0;"/><path d="M665.4531,234.1543 L665.4531,240.8105 L667.1719,240.8105 Q667.7813,240.8105 668.0469,241.0449 Q668.3125,241.2793 668.3125,241.6699 Q668.3125,242.0449 668.0469,242.2793 Q667.7813,242.5137 667.1719,242.5137 L662.0313,242.5137 Q661.4219,242.5137 661.1563,242.2793 Q660.8906,242.0449 660.8906,241.6543 Q660.8906,241.2793 661.1563,241.0449 Q661.4219,240.8105 662.0313,240.8105 L663.75,240.8105 L663.75,234.1543 L662.0313,234.1543 Q661.4219,234.1543 661.1563,233.9199 Q660.8906,233.6855 660.8906,233.2949 Q660.8906,232.9199 661.1563,232.6855 Q661.4219,232.4512 662.0313,232.4512 L667.1719,232.4512 Q667.7813,232.4512 668.0469,232.6855 Q668.3125,232.9199 668.3125,233.2949 Q668.3125,233.6855 668.0469,233.9199 Q667.7813,234.1543 667.1719,234.1543 L665.4531,234.1543 Z " fill="#000000"/><text fill="#000000" font-family="sans-serif" font-size="14" font-style="italic" lengthAdjust="spacing" textLength="143.1787" x="678.5" y="243.3105">DroneModelRepository</text><line style="stroke:#181818;stroke-width:0.5;" x1="650.5" x2="823.6787" y1="253.5137" y2="253.5137"/><line style="stroke:#181818;stroke-width:0.5;" x1="650.5" x2="823.6787" y1="261.5137" y2="261.5137"/></g><!--class JpaDroneRepository--><g id="elem_JpaDroneRepository"><rect codeLine="70" fill="#F1F1F1" height="48" id="JpaDroneRepository" rx="2.5" ry="2.5" style="stroke:#181818;stroke-width:0.5;" width="159.6201" x="1358" y="435.0137"/><ellipse cx="1373" cy="451.0137" fill="#ADD1B2" rx="11" ry="11" style="stroke:#181818;stroke-width:1.0;"/><path d="M1375.7656,446.8887 Q1375.9219,446.6699 1376.1094,446.5605 Q1376.2969,446.4512 1376.5156,446.4512 Q1376.8906,446.4512 1377.125,446.7168 Q1377.3594,446.9668 1377.3594,447.5762 L1377.3594,449.0293 Q1377.3594,449.6387 1377.125,449.9043 Q1376.8906,450.1699 1376.5156,450.1699 Q1376.1719,450.1699 1375.9688,449.9668 Q1375.7656,449.7793 1375.6563,449.2637 Q1375.6094,448.9043 1375.4219,448.7168 Q1375.0938,448.3418 1374.4844,448.123 Q1373.875,447.9043 1373.25,447.9043 Q1372.4844,447.9043 1371.8438,448.2324 Q1371.2188,448.5605 1370.7188,449.3105 Q1370.2344,450.0605 1370.2344,451.0918 L1370.2344,452.1855 Q1370.2344,453.4199 1371.125,454.248 Q1372.0156,455.0605 1373.6094,455.0605 Q1374.5469,455.0605 1375.2031,454.8105 Q1375.5938,454.6543 1376.0156,454.2168 Q1376.2813,453.9512 1376.4219,453.873 Q1376.5781,453.7949 1376.7813,453.7949 Q1377.1094,453.7949 1377.3594,454.0605 Q1377.625,454.3105 1377.625,454.6543 Q1377.625,454.998 1377.2813,455.4043 Q1376.7813,455.9824 1375.9844,456.3105 Q1374.9063,456.7637 1373.6094,456.7637 Q1372.0938,456.7637 1370.8906,456.1387 Q1369.9063,455.6387 1369.2188,454.5762 Q1368.5313,453.498 1368.5313,452.2168 L1368.5313,451.0605 Q1368.5313,449.7324 1369.1406,448.5918 Q1369.7656,447.4355 1370.8594,446.8262 Q1371.9531,446.2012 1373.1875,446.2012 Q1373.9219,446.2012 1374.5625,446.373 Q1375.2188,446.5293 1375.7656,446.8887 Z " fill="#000000"/><text fill="#000000" font-family="sans-serif" font-size="14" lengthAdjust="spacing" textLength="127.6201" x="1387" y="456.8105">JpaDroneRepository</text><line style="stroke:#181818;stroke-width:0.5;" x1="1359" x2="1516.6201" y1="467.0137" y2="467.0137"/><line style="stroke:#181818;stroke-width:0.5;" x1="1359" x2="1516.6201" y1="475.0137" y2="475.0137"/></g><!--class JpaDroneModelRepository--><g id="elem_JpaDroneModelRepository"><rect codeLine="71" fill="#F1F1F1" height="48" id="JpaDroneModelRepository" rx="2.5" ry="2.5" style="stroke:#181818;stroke-width:0.5;" width="197.751" x="1125" y="435.0137"/><ellipse cx="1140" cy="451.0137" fill="#ADD1B2" rx="11" ry="11" style="stroke:#181818;stroke-width:1.0;"/><path d="M1142.7656,446.8887 Q1142.9219,446.6699 1143.1094,446.5605 Q1143.2969,446.4512 1143.5156,446.4512 Q1143.8906,446.4512 1144.125,446.7168 Q1144.3594,446.9668 1144.3594,447.5762 L1144.3594,449.0293 Q1144.3594,449.6387 1144.125,449.9043 Q1143.8906,450.1699 1143.5156,450.1699 Q1143.1719,450.1699 1142.9688,449.9668 Q1142.7656,449.7793 1142.6563,449.2637 Q1142.6094,448.9043 1142.4219,448.7168 Q1142.0938,448.3418 1141.4844,448.123 Q1140.875,447.9043 1140.25,447.9043 Q1139.4844,447.9043 1138.8438,448.2324 Q1138.2188,448.5605 1137.7188,449.3105 Q1137.2344,450.0605 1137.2344,451.0918 L1137.2344,452.1855 Q1137.2344,453.4199 1138.125,454.248 Q1139.0156,455.0605 1140.6094,455.0605 Q1141.5469,455.0605 1142.2031,454.8105 Q1142.5938,454.6543 1143.0156,454.2168 Q1143.2813,453.9512 1143.4219,453.873 Q1143.5781,453.7949 1143.7813,453.7949 Q1144.1094,453.7949 1144.3594,454.0605 Q1144.625,454.3105 1144.625,454.6543 Q1144.625,454.998 1144.2813,455.4043 Q1143.7813,455.9824 1142.9844,456.3105 Q1141.9063,456.7637 1140.6094,456.7637 Q1139.0938,456.7637 1137.8906,456.1387 Q1136.9063,455.6387 1136.2188,454.5762 Q1135.5313,453.498 1135.5313,452.2168 L1135.5313,451.0605 Q1135.5313,449.7324 1136.1406,448.5918 Q1136.7656,447.4355 1137.8594,446.8262 Q1138.9531,446.2012 1140.1875,446.2012 Q1140.9219,446.2012 1141.5625,446.373 Q1142.2188,446.5293 1142.7656,446.8887 Z " fill="#000000"/><text fill="#000000" font-family="sans-serif" font-size="14" lengthAdjust="spacing" textLength="165.751" x="1154" y="456.8105">JpaDroneModelRepository</text><line style="stroke:#181818;stroke-width:0.5;" x1="1126" x2="1321.751" y1="467.0137" y2="467.0137"/><line style="stroke:#181818;stroke-width:0.5;" x1="1126" x2="1321.751" y1="475.0137" y2="475.0137"/></g><!--class InMemoryDroneRepository--><g id="elem_InMemoryDroneRepository"><rect codeLine="77" fill="#F1F1F1" height="48" id="InMemoryDroneRepository" rx="2.5" ry="2.5" style="stroke:#181818;stroke-width:0.5;" width="199.2822" x="1846.5" y="435.0137"/><ellipse cx="1861.5" cy="451.0137" fill="#ADD1B2" rx="11" ry="11" style="stroke:#181818;stroke-width:1.0;"/><path d="M1864.2656,446.8887 Q1864.4219,446.6699 1864.6094,446.5605 Q1864.7969,446.4512 1865.0156,446.4512 Q1865.3906,446.4512 1865.625,446.7168 Q1865.8594,446.9668 1865.8594,447.5762 L1865.8594,449.0293 Q1865.8594,449.6387 1865.625,449.9043 Q1865.3906,450.1699 1865.0156,450.1699 Q1864.6719,450.1699 1864.4688,449.9668 Q1864.2656,449.7793 1864.1563,449.2637 Q1864.1094,448.9043 1863.9219,448.7168 Q1863.5938,448.3418 1862.9844,448.123 Q1862.375,447.9043 1861.75,447.9043 Q1860.9844,447.9043 1860.3438,448.2324 Q1859.7188,448.5605 1859.2188,449.3105 Q1858.7344,450.0605 1858.7344,451.0918 L1858.7344,452.1855 Q1858.7344,453.4199 1859.625,454.248 Q1860.5156,455.0605 1862.1094,455.0605 Q1863.0469,455.0605 1863.7031,454.8105 Q1864.0938,454.6543 1864.5156,454.2168 Q1864.7813,453.9512 1864.9219,453.873 Q1865.0781,453.7949 1865.2813,453.7949 Q1865.6094,453.7949 1865.8594,454.0605 Q1866.125,454.3105 1866.125,454.6543 Q1866.125,454.998 1865.7813,455.4043 Q1865.2813,455.9824 1864.4844,456.3105 Q1863.4063,456.7637 1862.1094,456.7637 Q1860.5938,456.7637 1859.3906,456.1387 Q1858.4063,455.6387 1857.7188,454.5762 Q1857.0313,453.498 1857.0313,452.2168 L1857.0313,451.0605 Q1857.0313,449.7324 1857.6406,448.5918 Q1858.2656,447.4355 1859.3594,446.8262 Q1860.4531,446.2012 1861.6875,446.2012 Q1862.4219,446.2012 1863.0625,446.373 Q1863.7188,446.5293 1864.2656,446.8887 Z " fill="#000000"/><text fill="#000000" font-family="sans-serif" font-size="14" lengthAdjust="spacing" textLength="167.2822" x="1875.5" y="456.8105">InMemoryDroneRepository</text><line style="stroke:#181818;stroke-width:0.5;" x1="1847.5" x2="2044.7822" y1="467.0137" y2="467.0137"/><line style="stroke:#181818;stroke-width:0.5;" x1="1847.5" x2="2044.7822" y1="475.0137" y2="475.0137"/></g><!--class InMemoryDroneModelRepository--><g id="elem_InMemoryDroneModelRepository"><rect codeLine="78" fill="#F1F1F1" height="48" id="InMemoryDroneModelRepository" rx="2.5" ry="2.5" style="stroke:#181818;stroke-width:0.5;" width="237.4131" x="1574.5" y="435.0137"/><ellipse cx="1589.5" cy="451.0137" fill="#ADD1B2" rx="11" ry="11" style="stroke:#181818;stroke-width:1.0;"/><path d="M1592.2656,446.8887 Q1592.4219,446.6699 1592.6094,446.5605 Q1592.7969,446.4512 1593.0156,446.4512 Q1593.3906,446.4512 1593.625,446.7168 Q1593.8594,446.9668 1593.8594,447.5762 L1593.8594,449.0293 Q1593.8594,449.6387 1593.625,449.9043 Q1593.3906,450.1699 1593.0156,450.1699 Q1592.6719,450.1699 1592.4688,449.9668 Q1592.2656,449.7793 1592.1563,449.2637 Q1592.1094,448.9043 1591.9219,448.7168 Q1591.5938,448.3418 1590.9844,448.123 Q1590.375,447.9043 1589.75,447.9043 Q1588.9844,447.9043 1588.3438,448.2324 Q1587.7188,448.5605 1587.2188,449.3105 Q1586.7344,450.0605 1586.7344,451.0918 L1586.7344,452.1855 Q1586.7344,453.4199 1587.625,454.248 Q1588.5156,455.0605 1590.1094,455.0605 Q1591.0469,455.0605 1591.7031,454.8105 Q1592.0938,454.6543 1592.5156,454.2168 Q1592.7813,453.9512 1592.9219,453.873 Q1593.0781,453.7949 1593.2813,453.7949 Q1593.6094,453.7949 1593.8594,454.0605 Q1594.125,454.3105 1594.125,454.6543 Q1594.125,454.998 1593.7813,455.4043 Q1593.2813,455.9824 1592.4844,456.3105 Q1591.4063,456.7637 1590.1094,456.7637 Q1588.5938,456.7637 1587.3906,456.1387 Q1586.4063,455.6387 1585.7188,454.5762 Q1585.0313,453.498 1585.0313,452.2168 L1585.0313,451.0605 Q1585.0313,449.7324 1585.6406,448.5918 Q1586.2656,447.4355 1587.3594,446.8262 Q1588.4531,446.2012 1589.6875,446.2012 Q1590.4219,446.2012 1591.0625,446.373 Q1591.7188,446.5293 1592.2656,446.8887 Z " fill="#000000"/><text fill="#000000" font-family="sans-serif" font-size="14" lengthAdjust="spacing" textLength="205.4131" x="1603.5" y="456.8105">InMemoryDroneModelRepository</text><line style="stroke:#181818;stroke-width:0.5;" x1="1575.5" x2="1810.9131" y1="467.0137" y2="467.0137"/><line style="stroke:#181818;stroke-width:0.5;" x1="1575.5" x2="1810.9131" y1="475.0137" y2="475.0137"/></g><!--link Drone to DroneStatus--><g id="link_Drone_DroneStatus"><path codeLine="83" d="M605,498.5237 C605,528.1137 605,563.5137 605,563.5137 C605,563.5137 693.8,563.5137 763.23,563.5137 " fill="none" id="Drone-to-DroneStatus" style="stroke:#181818;stroke-width:1.0;"/><polygon fill="#181818" points="769.23,563.5137,760.23,559.5137,764.23,563.5137,760.23,567.5137,769.23,563.5137" style="stroke:#181818;stroke-width:1.0;"/></g><!--reverse link Drone to DroneMaintenance--><g id="link_Drone_DroneMaintenance"><path codeLine="84" d="M510.5,510.7537 C510.5,531.6237 510.5,545.3837 510.5,567.4837 " fill="none" id="Drone-backto-DroneMaintenance" style="stroke:#181818;stroke-width:1.0;"/><polygon fill="#181818" points="510.5,498.7537,506.5,504.7537,510.5,510.7537,514.5,504.7537,510.5,498.7537" style="stroke:#181818;stroke-width:1.0;"/><text fill="#000000" font-family="sans-serif" font-size="13" lengthAdjust="spacing" textLength="7.23" x="500.8977" y="520.779">1</text><text fill="#000000" font-family="sans-serif" font-size="13" lengthAdjust="spacing" textLength="23.1245" x="490.584" y="556.0966">0...*</text></g><!--reverse link Drone to DroneModelID--><g id="link_Drone_DroneModelID"><path codeLine="85" d="M416.23,494.5137 C350.79,494.5137 287.5,494.5137 287.5,494.5137 C287.5,494.5137 287.5,549.5837 287.5,585.7237 " fill="none" id="Drone-backto-DroneModelID" style="stroke:#181818;stroke-width:1.0;"/><polygon fill="#181818" points="428.23,494.5137,422.23,490.5137,416.23,494.5137,422.23,498.5137,428.23,494.5137" style="stroke:#181818;stroke-width:1.0;"/><text fill="#000000" font-family="sans-serif" font-size="13" lengthAdjust="spacing" textLength="7.23" x="413.422" y="493.6971">1</text><text fill="#000000" font-family="sans-serif" font-size="13" lengthAdjust="spacing" textLength="23.1245" x="266.3421" y="574.7215">1...*</text></g><!--reverse link DroneModel to DroneModelID--><g id="link_DroneModel_DroneModelID"><path codeLine="86" d="M247,501.7537 C247,529.5037 247,558.1237 247,585.8537 " fill="none" id="DroneModel-backto-DroneModelID" style="stroke:#181818;stroke-width:1.0;"/><polygon fill="#181818" points="247,489.7537,243,495.7537,247,501.7537,251,495.7537,247,489.7537" style="stroke:#181818;stroke-width:1.0;"/></g><!--reverse link Drone to DroneID--><g id="link_Drone_DroneID"><path codeLine="87" d="M629.58,491.5137 C641.99,491.5137 638.5,491.5137 638.5,491.5137 C638.5,491.5137 638.5,548.9337 638.5,585.9337 " fill="none" id="Drone-backto-DroneID" style="stroke:#181818;stroke-width:1.0;"/><polygon fill="#181818" points="617.58,491.5137,623.58,495.5137,629.58,491.5137,623.58,487.5137,617.58,491.5137" style="stroke:#181818;stroke-width:1.0;"/></g><!--link DroneMaintenance to MaintenanceType--><g id="link_DroneMaintenance_MaintenanceType"><path codeLine="89" d="M478,665.7137 C478,687.3637 478,706.7337 478,728.3737 " fill="none" id="DroneMaintenance-to-MaintenanceType" style="stroke:#181818;stroke-width:1.0;"/><polygon fill="#181818" points="478,734.3737,482,725.3737,478,729.3737,474,725.3737,478,734.3737" style="stroke:#181818;stroke-width:1.0;"/></g><!--link DroneService to Drone--><g id="link_DroneService_Drone"><path codeLine="91" d="M510.75,313.0637 C510.75,348.0037 510.75,383.4537 510.75,413.2337 " fill="none" id="DroneService-to-Drone" style="stroke:#181818;stroke-width:1.0;stroke-dasharray:7.0,7.0;"/><polygon fill="#181818" points="510.75,419.2337,514.75,410.2337,510.75,414.2337,506.75,410.2337,510.75,419.2337" style="stroke:#181818;stroke-width:1.0;"/></g><!--link DroneModelService to DroneModel--><g id="link_DroneModelService_DroneModel"><path codeLine="92" d="M228,276.1037 C228,316.6937 228,381.9237 228,422.4837 " fill="none" id="DroneModelService-to-DroneModel" style="stroke:#181818;stroke-width:1.0;stroke-dasharray:7.0,7.0;"/><polygon fill="#181818" points="228,428.4837,232,419.4837,228,423.4837,224,419.4837,228,428.4837" style="stroke:#181818;stroke-width:1.0;"/></g><!--reverse link DroneRepository to JpaDroneRepository--><g id="link_DroneRepository_JpaDroneRepository"><path codeLine="94" d="M1014.52,253.5137 C1153.61,253.5137 1438,253.5137 1438,253.5137 C1438,253.5137 1438,380.1937 1438,434.6337 " fill="none" id="DroneRepository-backto-JpaDroneRepository" style="stroke:#181818;stroke-width:1.0;stroke-dasharray:7.0,7.0;"/><polygon fill="none" points="996.52,253.5137,1014.52,259.5137,1014.52,247.5137,996.52,253.5137" style="stroke:#181818;stroke-width:1.0;"/></g><!--reverse link DroneRepository to InMemoryDroneRepository--><g id="link_DroneRepository_InMemoryDroneRepository"><path codeLine="95" d="M1014.77,237.5137 C1243.46,237.5137 1946,237.5137 1946,237.5137 C1946,237.5137 1946,377.4837 1946,434.8837 " fill="none" id="DroneRepository-backto-InMemoryDroneRepository" style="stroke:#181818;stroke-width:1.0;stroke-dasharray:7.0,7.0;"/><polygon fill="none" points="996.77,237.5137,1014.77,243.5137,1014.77,231.5137,996.77,237.5137" style="stroke:#181818;stroke-width:1.0;"/></g><!--link DroneRepository to Drone--><g id="link_DroneRepository_Drone"><path codeLine="96" d="M886,269.6837 C886,319.1937 886,427.5137 886,427.5137 C886,427.5137 731.45,427.5137 623.9,427.5137 " fill="none" id="DroneRepository-to-Drone" style="stroke:#181818;stroke-width:1.0;stroke-dasharray:7.0,7.0;"/><polygon fill="#181818" points="617.9,427.5137,626.9,431.5137,622.9,427.5137,626.9,423.5137,617.9,427.5137" style="stroke:#181818;stroke-width:1.0;"/></g><!--reverse link DroneModelRepository to JpaDroneModelRepository--><g id="link_DroneModelRepository_JpaDroneModelRepository"><path codeLine="97" d="M787.83,287.6437 C787.83,343.6137 787.83,459.5137 787.83,459.5137 C787.83,459.5137 996.05,459.5137 1124.75,459.5137 " fill="none" id="DroneModelRepository-backto-JpaDroneModelRepository" style="stroke:#181818;stroke-width:1.0;stroke-dasharray:7.0,7.0;"/><polygon fill="none" points="787.83,269.6437,781.83,287.6437,793.83,287.6437,787.83,269.6437" style="stroke:#181818;stroke-width:1.0;"/></g><!--reverse link DroneModelRepository to InMemoryDroneModelRepository--><g id="link_DroneModelRepository_InMemoryDroneModelRepository"><path codeLine="98" d="M806.17,287.6637 C806.17,318.1037 806.17,348.5137 806.17,348.5137 C806.17,348.5137 1693,348.5137 1693,348.5137 C1693,348.5137 1693,402.2337 1693,434.7637 " fill="none" id="DroneModelRepository-backto-InMemoryDroneModelRepository" style="stroke:#181818;stroke-width:1.0;stroke-dasharray:7.0,7.0;"/><polygon fill="none" points="806.17,269.6637,800.17,287.6637,812.17,287.6637,806.17,269.6637" style="stroke:#181818;stroke-width:1.0;"/></g><!--link DroneModelRepository to DroneModel--><g id="link_DroneModelRepository_DroneModel"><path codeLine="99" d="M692,269.7237 C692,309.5537 692,384.5137 692,384.5137 C692,384.5137 325.25,384.5137 325.25,384.5137 C325.25,384.5137 325.25,401.7637 325.25,422.2837 " fill="none" id="DroneModelRepository-to-DroneModel" style="stroke:#181818;stroke-width:1.0;stroke-dasharray:7.0,7.0;"/><polygon fill="#181818" points="325.25,428.2837,329.25,419.2837,325.25,423.2837,321.25,419.2837,325.25,428.2837" style="stroke:#181818;stroke-width:1.0;"/></g><!--SRC=[bLJ1ZjCm4BtxAqRXWBHg3Nj129LAtIP8MP7jAbsjn0bv4xSrJUnWEmihwBypSP8sJTC2EJb-ps_UZ6Tija8MJBCSCY6vVIauA6qtYX2pHmgMRDcQmoy2S8FhjLQbJESgKnfU-U-2sQVt5Q9qodMzUvCXZP0T8Q_X8txWnukxm2q9QUKyir6fLfBJH6bEtJ9d4g6SIqjJbJCXFPXCPkkrvcjc-NIA7Z0K91ap1lpg1EA1jCA-Z63FYvMoZelKCNnM2Sjyt0QMV2-54LOeMVqZlAlak2ppMcnfcIsDaoppLW5cyuVmCHYvTNZtDGxkPs5S__h1V155uN8POdv-AzYn5s4EbaicauFJlN3NMtuWDjwESSb_skY4S_3VmHwgM-pbS1y7Zy7T8OywYI73AkNPNuewU2RqyTGZoqg-UFh64yTrn2Fg4CjnTgvT_h4t3DVF8k6UQuU-aMKDOXpVjL3ptpJFxlZ49V9ymvEj0VRCHCQUH8Rr0BK2PyR02llS53mHAv40slrXHYHHqWYS0Y7N8EGpMbNw1KpTLKocO98DJykCKnAvR4ojTY1_0AosC5Qpgaj7HFE22TsLw3HAAuVXAFc_2gAkmad0YAw8bQHUCPHqLOdtQ1zn5Ux0dHc_lP_16nmGY89e4N-fMcon31-gvRd1BxWsc2p7N2WUZuzDrTTqMx2-fsDWoDBbKA6CU8xKmNWjE1pq23s9N8MkNoKOZwVGVLIQVU_QWwln6BotbD8hx-IHwDEkkxHwp4XdJYlEAGPklnsunbBt9QhTzPwCXjTE1ANJMe6SZjOUSxlDmKCXOFARqg6B6-ITAtYVF6JeNCp-pPm_SV521u_raly3]--></g></svg>