<?xml version="1.0" encoding="us-ascii" standalone="no"?><svg xmlns="http://www.w3.org/2000/svg" xmlns:xlink="http://www.w3.org/1999/xlink" contentStyleType="text/css" height="966px" preserveAspectRatio="none" style="width:2017px;height:966px;background:#FFFFFF;" version="1.1" viewBox="0 0 2017 966" width="2017px" zoomAndPan="magnify"><defs/><g><rect fill="#FFFFFF" height="778.0078" style="stroke:#181818;stroke-width:1.0;" width="10" x="116" y="90.6406"/><rect fill="#FFFFFF" height="297.3516" style="stroke:#181818;stroke-width:1.0;" width="10" x="636" y="111.1641"/><rect fill="#FFFFFF" height="66.5703" style="stroke:#181818;stroke-width:1.0;" width="10" x="636" y="437.0391"/><rect fill="#FFFFFF" height="28.5234" style="stroke:#181818;stroke-width:1.0;" width="10" x="636" y="532.1328"/><rect fill="#FFFFFF" height="199.6641" style="stroke:#181818;stroke-width:1.0;" width="10" x="1175" y="180.3281"/><rect fill="#FFFFFF" height="148.8516" style="stroke:#181818;stroke-width:1.0;" width="10" x="1175" y="691.2734"/><rect fill="#FFFFFF" height="28.5234" style="stroke:#181818;stroke-width:1.0;" width="10" x="1339" y="208.8516"/><rect fill="#FFFFFF" height="28.5234" style="stroke:#181818;stroke-width:1.0;" width="10" x="1446" y="265.8984"/><rect fill="#FFFFFF" height="28.5234" style="stroke:#181818;stroke-width:1.0;" width="10" x="1586" y="322.9453"/><rect fill="#FFFFFF" height="91.8047" style="stroke:#181818;stroke-width:1.0;" width="10" x="1758" y="719.7969"/><rect fill="none" height="332.0391" style="stroke:#000000;stroke-width:1.5;" width="2001" x="10" y="452.0391"/><rect fill="none" height="45.0469" style="stroke:#000000;stroke-width:1.5;" width="711.5" x="20" y="604.1797"/><line style="stroke:#181818;stroke-width:0.5;stroke-dasharray:5.0,5.0;" x1="121" x2="121" y1="80.6406" y2="886.6484"/><line style="stroke:#181818;stroke-width:0.5;stroke-dasharray:5.0,5.0;" x1="640.5" x2="640.5" y1="80.6406" y2="886.6484"/><line style="stroke:#181818;stroke-width:0.5;stroke-dasharray:5.0,5.0;" x1="1179.5" x2="1179.5" y1="149.4844" y2="886.6484"/><line style="stroke:#181818;stroke-width:0.5;stroke-dasharray:5.0,5.0;" x1="1343.5" x2="1343.5" y1="80.6406" y2="886.6484"/><line style="stroke:#181818;stroke-width:0.5;stroke-dasharray:5.0,5.0;" x1="1450.5" x2="1450.5" y1="80.6406" y2="886.6484"/><line style="stroke:#181818;stroke-width:0.5;stroke-dasharray:5.0,5.0;" x1="1590.5" x2="1590.5" y1="80.6406" y2="886.6484"/><line style="stroke:#181818;stroke-width:0.5;stroke-dasharray:5.0,5.0;" x1="1762.5" x2="1762.5" y1="80.6406" y2="886.6484"/><line style="stroke:#181818;stroke-width:0.5;stroke-dasharray:5.0,5.0;" x1="1954" x2="1954" y1="765.9375" y2="886.6484"/><text fill="#000000" font-family="sans-serif" font-size="14" lengthAdjust="spacing" textLength="176" x="30" y="77.6738">Human Recourses Manager</text><ellipse cx="121" cy="13.5" fill="#E3E3E3" rx="8" ry="8" style="stroke:#181818;stroke-width:0.5;"/><path d="M121,21.5 L121,48.5 M108,29.5 L134,29.5 M121,48.5 L108,63.5 M121,48.5 L134,63.5 " fill="none" style="stroke:#181818;stroke-width:0.5;"/><text fill="#000000" font-family="sans-serif" font-size="14" lengthAdjust="spacing" textLength="176" x="30" y="898.3223">Human Recourses Manager</text><ellipse cx="121" cy="909.7891" fill="#E3E3E3" rx="8" ry="8" style="stroke:#181818;stroke-width:0.5;"/><path d="M121,917.7891 L121,944.7891 M108,925.7891 L134,925.7891 M121,944.7891 L108,959.7891 M121,944.7891 L134,959.7891 " fill="none" style="stroke:#181818;stroke-width:0.5;"/><rect fill="#E3E3E3" height="29.6406" rx="2.5" ry="2.5" style="stroke:#181818;stroke-width:0.5;" width="161" x="560.5" y="50"/><text fill="#000000" font-family="sans-serif" font-size="14" lengthAdjust="spacing" textLength="147" x="567.5" y="69.6738">:RegisterCollaboratorUI</text><rect fill="#E3E3E3" height="29.6406" rx="2.5" ry="2.5" style="stroke:#181818;stroke-width:0.5;" width="161" x="560.5" y="885.6484"/><text fill="#000000" font-family="sans-serif" font-size="14" lengthAdjust="spacing" textLength="147" x="567.5" y="905.3223">:RegisterCollaboratorUI</text><rect fill="#E3E3E3" height="29.6406" rx="2.5" ry="2.5" style="stroke:#181818;stroke-width:0.5;" width="211" x="1074.5" y="885.6484"/><text fill="#000000" font-family="sans-serif" font-size="14" lengthAdjust="spacing" textLength="197" x="1081.5" y="905.3223">:RegisterCollaboratorController</text><rect fill="#E3E3E3" height="29.6406" rx="2.5" ry="2.5" style="stroke:#181818;stroke-width:0.5;" width="97" x="1295.5" y="50"/><text fill="#000000" font-family="sans-serif" font-size="14" lengthAdjust="spacing" textLength="83" x="1302.5" y="69.6738">:Repositories</text><rect fill="#E3E3E3" height="29.6406" rx="2.5" ry="2.5" style="stroke:#181818;stroke-width:0.5;" width="97" x="1295.5" y="885.6484"/><text fill="#000000" font-family="sans-serif" font-size="14" lengthAdjust="spacing" textLength="83" x="1302.5" y="905.3223">:Repositories</text><rect fill="#E3E3E3" height="45.2813" rx="2.5" ry="2.5" style="stroke:#181818;stroke-width:0.5;" width="97" x="1402.5" y="34.3594"/><text fill="#000000" font-family="sans-serif" font-size="14" lengthAdjust="spacing" textLength="74" x="1414" y="54.0332">repositories</text><text fill="#000000" font-family="sans-serif" font-size="14" lengthAdjust="spacing" textLength="83" x="1409.5" y="69.6738">:Repositories</text><rect fill="#E3E3E3" height="45.2813" rx="2.5" ry="2.5" style="stroke:#181818;stroke-width:0.5;" width="97" x="1402.5" y="885.6484"/><text fill="#000000" font-family="sans-serif" font-size="14" lengthAdjust="spacing" textLength="74" x="1414" y="905.3223">repositories</text><text fill="#000000" font-family="sans-serif" font-size="14" lengthAdjust="spacing" textLength="83" x="1409.5" y="920.9629">:Repositories</text><rect fill="#E3E3E3" height="45.2813" rx="2.5" ry="2.5" style="stroke:#181818;stroke-width:0.5;" width="163" x="1509.5" y="34.3594"/><text fill="#000000" font-family="sans-serif" font-size="14" lengthAdjust="spacing" textLength="149" x="1516.5" y="54.0332">jobCategoryRepository:</text><text fill="#000000" font-family="sans-serif" font-size="14" lengthAdjust="spacing" textLength="148" x="1517" y="69.6738">JobCategoryRepository</text><rect fill="#E3E3E3" height="45.2813" rx="2.5" ry="2.5" style="stroke:#181818;stroke-width:0.5;" width="163" x="1509.5" y="885.6484"/><text fill="#000000" font-family="sans-serif" font-size="14" lengthAdjust="spacing" textLength="149" x="1516.5" y="905.3223">jobCategoryRepository:</text><text fill="#000000" font-family="sans-serif" font-size="14" lengthAdjust="spacing" textLength="148" x="1517" y="920.9629">JobCategoryRepository</text><rect fill="#E3E3E3" height="45.2813" rx="2.5" ry="2.5" style="stroke:#181818;stroke-width:0.5;" width="161" x="1682.5" y="34.3594"/><text fill="#000000" font-family="sans-serif" font-size="14" lengthAdjust="spacing" textLength="147" x="1689.5" y="54.0332">collaboratorRepository:</text><text fill="#000000" font-family="sans-serif" font-size="14" lengthAdjust="spacing" textLength="146" x="1690" y="69.6738">CollaboratorRepository</text><rect fill="#E3E3E3" height="45.2813" rx="2.5" ry="2.5" style="stroke:#181818;stroke-width:0.5;" width="161" x="1682.5" y="885.6484"/><text fill="#000000" font-family="sans-serif" font-size="14" lengthAdjust="spacing" textLength="147" x="1689.5" y="905.3223">collaboratorRepository:</text><text fill="#000000" font-family="sans-serif" font-size="14" lengthAdjust="spacing" textLength="146" x="1690" y="920.9629">CollaboratorRepository</text><rect fill="#E3E3E3" height="45.2813" rx="2.5" ry="2.5" style="stroke:#181818;stroke-width:0.5;" width="93" x="1908" y="885.6484"/><text fill="#000000" font-family="sans-serif" font-size="14" lengthAdjust="spacing" textLength="79" x="1915" y="905.3223">collaborator:</text><text fill="#000000" font-family="sans-serif" font-size="14" lengthAdjust="spacing" textLength="78" x="1915.5" y="920.9629">Collaborator</text><rect fill="#FFFFFF" height="778.0078" style="stroke:#181818;stroke-width:1.0;" width="10" x="116" y="90.6406"/><rect fill="#FFFFFF" height="297.3516" style="stroke:#181818;stroke-width:1.0;" width="10" x="636" y="111.1641"/><rect fill="#FFFFFF" height="66.5703" style="stroke:#181818;stroke-width:1.0;" width="10" x="636" y="437.0391"/><rect fill="#FFFFFF" height="28.5234" style="stroke:#181818;stroke-width:1.0;" width="10" x="636" y="532.1328"/><rect fill="#FFFFFF" height="199.6641" style="stroke:#181818;stroke-width:1.0;" width="10" x="1175" y="180.3281"/><rect fill="#FFFFFF" height="148.8516" style="stroke:#181818;stroke-width:1.0;" width="10" x="1175" y="691.2734"/><rect fill="#FFFFFF" height="28.5234" style="stroke:#181818;stroke-width:1.0;" width="10" x="1339" y="208.8516"/><rect fill="#FFFFFF" height="28.5234" style="stroke:#181818;stroke-width:1.0;" width="10" x="1446" y="265.8984"/><rect fill="#FFFFFF" height="28.5234" style="stroke:#181818;stroke-width:1.0;" width="10" x="1586" y="322.9453"/><rect fill="#FFFFFF" height="91.8047" style="stroke:#181818;stroke-width:1.0;" width="10" x="1758" y="719.7969"/><polygon fill="#181818" points="624,107.1641,634,111.1641,624,115.1641,628,111.1641" style="stroke:#181818;stroke-width:1.0;"/><line style="stroke:#181818;stroke-width:1.0;" x1="126" x2="630" y1="111.1641" y2="111.1641"/><text fill="#000000" font-family="sans-serif" font-size="13" font-weight="bold" lengthAdjust="spacing" textLength="7" x="133" y="106.4092">1</text><text fill="#000000" font-family="sans-serif" font-size="13" lengthAdjust="spacing" textLength="241" x="144" y="106.4092">requests registration of a new collaborator</text><polygon fill="#181818" points="1062.5,135.6875,1072.5,139.6875,1062.5,143.6875,1066.5,139.6875" style="stroke:#181818;stroke-width:1.0;"/><line style="stroke:#181818;stroke-width:1.0;" x1="646" x2="1068.5" y1="139.6875" y2="139.6875"/><text fill="#000000" font-family="sans-serif" font-size="13" font-weight="bold" lengthAdjust="spacing" textLength="7" x="653" y="134.9326">2</text><text fill="#000000" font-family="sans-serif" font-size="13" lengthAdjust="spacing" textLength="36" x="664" y="134.9326">create</text><rect fill="#E3E3E3" height="29.6406" rx="2.5" ry="2.5" style="stroke:#181818;stroke-width:0.5;" width="211" x="1074.5" y="119.1641"/><text fill="#000000" font-family="sans-serif" font-size="14" lengthAdjust="spacing" textLength="197" x="1081.5" y="138.8379">:RegisterCollaboratorController</text><polygon fill="#181818" points="1163,176.3281,1173,180.3281,1163,184.3281,1167,180.3281" style="stroke:#181818;stroke-width:1.0;"/><line style="stroke:#181818;stroke-width:1.0;" x1="646" x2="1169" y1="180.3281" y2="180.3281"/><text fill="#000000" font-family="sans-serif" font-size="13" font-weight="bold" lengthAdjust="spacing" textLength="7" x="653" y="175.5732">3</text><text fill="#000000" font-family="sans-serif" font-size="13" lengthAdjust="spacing" textLength="98" x="664" y="175.5732">getJobCategory()</text><polygon fill="#181818" points="1327,204.8516,1337,208.8516,1327,212.8516,1331,208.8516" style="stroke:#181818;stroke-width:1.0;"/><line style="stroke:#181818;stroke-width:1.0;" x1="1185" x2="1333" y1="208.8516" y2="208.8516"/><text fill="#000000" font-family="sans-serif" font-size="13" font-weight="bold" lengthAdjust="spacing" textLength="7" x="1192" y="204.0967">4</text><text fill="#000000" font-family="sans-serif" font-size="13" lengthAdjust="spacing" textLength="75" x="1203" y="204.0967">getInstance()</text><polygon fill="#181818" points="1196,233.375,1186,237.375,1196,241.375,1192,237.375" style="stroke:#181818;stroke-width:1.0;"/><line style="stroke:#181818;stroke-width:1.0;stroke-dasharray:2.0,2.0;" x1="1190" x2="1343" y1="237.375" y2="237.375"/><text fill="#000000" font-family="sans-serif" font-size="13" font-weight="bold" lengthAdjust="spacing" textLength="7" x="1202" y="232.6201">5</text><text fill="#000000" font-family="sans-serif" font-size="13" lengthAdjust="spacing" textLength="67" x="1213" y="232.6201">repositories</text><polygon fill="#181818" points="1434,261.8984,1444,265.8984,1434,269.8984,1438,265.8984" style="stroke:#181818;stroke-width:1.0;"/><line style="stroke:#181818;stroke-width:1.0;" x1="1185" x2="1440" y1="265.8984" y2="265.8984"/><text fill="#000000" font-family="sans-serif" font-size="13" font-weight="bold" lengthAdjust="spacing" textLength="7" x="1192" y="261.1436">6</text><text fill="#000000" font-family="sans-serif" font-size="13" lengthAdjust="spacing" textLength="160" x="1203" y="261.1436">getJobCategoryRepository()</text><polygon fill="#181818" points="1196,290.4219,1186,294.4219,1196,298.4219,1192,294.4219" style="stroke:#181818;stroke-width:1.0;"/><line style="stroke:#181818;stroke-width:1.0;stroke-dasharray:2.0,2.0;" x1="1190" x2="1450" y1="294.4219" y2="294.4219"/><text fill="#000000" font-family="sans-serif" font-size="13" font-weight="bold" lengthAdjust="spacing" textLength="7" x="1202" y="289.667">7</text><text fill="#000000" font-family="sans-serif" font-size="13" lengthAdjust="spacing" textLength="131" x="1213" y="289.667">jobCategoryRepository</text><polygon fill="#181818" points="1574,318.9453,1584,322.9453,1574,326.9453,1578,322.9453" style="stroke:#181818;stroke-width:1.0;"/><line style="stroke:#181818;stroke-width:1.0;" x1="1185" x2="1580" y1="322.9453" y2="322.9453"/><text fill="#000000" font-family="sans-serif" font-size="13" font-weight="bold" lengthAdjust="spacing" textLength="7" x="1192" y="318.1904">8</text><text fill="#000000" font-family="sans-serif" font-size="13" lengthAdjust="spacing" textLength="119" x="1203" y="318.1904">getJobCategoryList()</text><polygon fill="#181818" points="1196,347.4688,1186,351.4688,1196,355.4688,1192,351.4688" style="stroke:#181818;stroke-width:1.0;"/><line style="stroke:#181818;stroke-width:1.0;stroke-dasharray:2.0,2.0;" x1="1190" x2="1590" y1="351.4688" y2="351.4688"/><text fill="#000000" font-family="sans-serif" font-size="13" font-weight="bold" lengthAdjust="spacing" textLength="7" x="1202" y="346.7139">9</text><text fill="#000000" font-family="sans-serif" font-size="13" lengthAdjust="spacing" textLength="90" x="1213" y="346.7139">jobCategoryList</text><polygon fill="#181818" points="657,375.9922,647,379.9922,657,383.9922,653,379.9922" style="stroke:#181818;stroke-width:1.0;"/><line style="stroke:#181818;stroke-width:1.0;stroke-dasharray:2.0,2.0;" x1="651" x2="1179" y1="379.9922" y2="379.9922"/><text fill="#000000" font-family="sans-serif" font-size="13" font-weight="bold" lengthAdjust="spacing" textLength="14" x="663" y="375.2373">10</text><text fill="#000000" font-family="sans-serif" font-size="13" lengthAdjust="spacing" textLength="90" x="681" y="375.2373">jobCategoryList</text><polygon fill="#181818" points="137,404.5156,127,408.5156,137,412.5156,133,408.5156" style="stroke:#181818;stroke-width:1.0;"/><line style="stroke:#181818;stroke-width:1.0;stroke-dasharray:2.0,2.0;" x1="131" x2="640" y1="408.5156" y2="408.5156"/><text fill="#000000" font-family="sans-serif" font-size="13" font-weight="bold" lengthAdjust="spacing" textLength="14" x="143" y="403.7607">11</text><text fill="#000000" font-family="sans-serif" font-size="13" lengthAdjust="spacing" textLength="402" x="161" y="403.7607">displays list of available job categories and requests selecetion of one</text><polygon fill="#181818" points="624,433.0391,634,437.0391,624,441.0391,628,437.0391" style="stroke:#181818;stroke-width:1.0;"/><line style="stroke:#181818;stroke-width:1.0;" x1="126" x2="630" y1="437.0391" y2="437.0391"/><text fill="#000000" font-family="sans-serif" font-size="13" font-weight="bold" lengthAdjust="spacing" textLength="14" x="133" y="432.2842">12</text><text fill="#000000" font-family="sans-serif" font-size="13" lengthAdjust="spacing" textLength="199" x="151" y="432.2842">chooses and select a job category</text><path d="M10,452.0391 L83,452.0391 L83,458.5625 L73,468.5625 L10,468.5625 L10,452.0391 " fill="#EEEEEE" style="stroke:#000000;stroke-width:1.5;"/><rect fill="none" height="332.0391" style="stroke:#000000;stroke-width:1.5;" width="2001" x="10" y="452.0391"/><text fill="#000000" font-family="sans-serif" font-size="13" font-weight="bold" lengthAdjust="spacing" textLength="28" x="25" y="464.8076">loop</text><text fill="#000000" font-family="sans-serif" font-size="11" font-weight="bold" lengthAdjust="spacing" textLength="190" x="98" y="463.9971">[until collaborator details are valid]</text><polygon fill="#181818" points="137,499.6094,127,503.6094,137,507.6094,133,503.6094" style="stroke:#181818;stroke-width:1.0;"/><line style="stroke:#181818;stroke-width:1.0;stroke-dasharray:2.0,2.0;" x1="131" x2="640" y1="503.6094" y2="503.6094"/><text fill="#000000" font-family="sans-serif" font-size="13" font-weight="bold" lengthAdjust="spacing" textLength="14" x="143" y="491.5928">13</text><text fill="#000000" font-family="sans-serif" font-size="13" lengthAdjust="spacing" textLength="464" x="161" y="484.3311">asks for collaborator information (name, residence, date of birth, admission date,</text><text fill="#000000" font-family="sans-serif" font-size="13" lengthAdjust="spacing" textLength="427" x="165" y="498.8545">contact details (phone and email), document identification and its number)</text><polygon fill="#181818" points="624,528.1328,634,532.1328,624,536.1328,628,532.1328" style="stroke:#181818;stroke-width:1.0;"/><line style="stroke:#181818;stroke-width:1.0;" x1="126" x2="630" y1="532.1328" y2="532.1328"/><text fill="#000000" font-family="sans-serif" font-size="13" font-weight="bold" lengthAdjust="spacing" textLength="14" x="133" y="527.3779">14</text><text fill="#000000" font-family="sans-serif" font-size="13" lengthAdjust="spacing" textLength="188" x="151" y="527.3779">Supplies collaborator information</text><polygon fill="#181818" points="137,556.6563,127,560.6563,137,564.6563,133,560.6563" style="stroke:#181818;stroke-width:1.0;"/><line style="stroke:#181818;stroke-width:1.0;stroke-dasharray:2.0,2.0;" x1="131" x2="640" y1="560.6563" y2="560.6563"/><text fill="#000000" font-family="sans-serif" font-size="13" font-weight="bold" lengthAdjust="spacing" textLength="14" x="143" y="555.9014">15</text><text fill="#000000" font-family="sans-serif" font-size="13" lengthAdjust="spacing" textLength="421" x="161" y="555.9014">displays collaborator information and requests confirmation of all the data</text><polygon fill="#181818" points="629,585.1797,639,589.1797,629,593.1797,633,589.1797" style="stroke:#181818;stroke-width:1.0;"/><line style="stroke:#181818;stroke-width:1.0;" x1="126" x2="635" y1="589.1797" y2="589.1797"/><text fill="#000000" font-family="sans-serif" font-size="13" font-weight="bold" lengthAdjust="spacing" textLength="14" x="133" y="584.4248">16</text><text fill="#000000" font-family="sans-serif" font-size="13" lengthAdjust="spacing" textLength="100" x="151" y="584.4248">confirms the data</text><path d="M20,604.1797 L81,604.1797 L81,610.7031 L71,620.7031 L20,620.7031 L20,604.1797 " fill="#EEEEEE" style="stroke:#000000;stroke-width:1.5;"/><rect fill="none" height="45.0469" style="stroke:#000000;stroke-width:1.5;" width="711.5" x="20" y="604.1797"/><text fill="#000000" font-family="sans-serif" font-size="13" font-weight="bold" lengthAdjust="spacing" textLength="16" x="35" y="616.9482">alt</text><text fill="#000000" font-family="sans-serif" font-size="11" font-weight="bold" lengthAdjust="spacing" textLength="254" x="96" y="616.1377">[if the data is invalid or the job does not exist.]</text><polygon fill="#181818" points="137,637.2266,127,641.2266,137,645.2266,133,641.2266" style="stroke:#181818;stroke-width:1.0;"/><line style="stroke:#181818;stroke-width:1.0;stroke-dasharray:2.0,2.0;" x1="131" x2="640" y1="641.2266" y2="641.2266"/><text fill="#000000" font-family="sans-serif" font-size="13" font-weight="bold" lengthAdjust="spacing" textLength="14" x="143" y="636.4717">17</text><text fill="#000000" font-family="sans-serif" font-size="13" lengthAdjust="spacing" textLength="343" x="161" y="636.4717">Shows canceled operation (invalid data or job non-existent).</text><polygon fill="#181818" points="1163,687.2734,1173,691.2734,1163,695.2734,1167,691.2734" style="stroke:#181818;stroke-width:1.0;"/><line style="stroke:#181818;stroke-width:1.0;" x1="641" x2="1169" y1="691.2734" y2="691.2734"/><text fill="#000000" font-family="sans-serif" font-size="13" font-weight="bold" lengthAdjust="spacing" textLength="14" x="648" y="679.2568">18</text><text fill="#000000" font-family="sans-serif" font-size="13" lengthAdjust="spacing" textLength="493" x="666" y="671.9951">registerNewCollaborator(nameOfCollaborator, dateOfBirth, dateOfAdmission, address,</text><text fill="#000000" font-family="sans-serif" font-size="13" lengthAdjust="spacing" textLength="446" x="666" y="686.5186">phoneNumber, email, identificationDocument, identificationDocumentNumber)</text><polygon fill="#181818" points="1746,715.7969,1756,719.7969,1746,723.7969,1750,719.7969" style="stroke:#181818;stroke-width:1.0;"/><line style="stroke:#181818;stroke-width:1.0;" x1="1185" x2="1752" y1="719.7969" y2="719.7969"/><text fill="#000000" font-family="sans-serif" font-size="13" font-weight="bold" lengthAdjust="spacing" textLength="14" x="1192" y="715.042">19</text><text fill="#000000" font-family="sans-serif" font-size="13" lengthAdjust="spacing" textLength="98" x="1210" y="715.042">addCollaborator()</text><polygon fill="#181818" points="1896,744.3203,1906,748.3203,1896,752.3203,1900,748.3203" style="stroke:#181818;stroke-width:1.0;"/><line style="stroke:#181818;stroke-width:1.0;" x1="1768" x2="1902" y1="748.3203" y2="748.3203"/><text fill="#000000" font-family="sans-serif" font-size="13" font-weight="bold" lengthAdjust="spacing" textLength="14" x="1775" y="743.5654">20</text><text fill="#000000" font-family="sans-serif" font-size="13" lengthAdjust="spacing" textLength="98" x="1793" y="743.5654">addCollaborator()</text><rect fill="#E3E3E3" height="45.2813" rx="2.5" ry="2.5" style="stroke:#181818;stroke-width:0.5;" width="93" x="1908" y="727.7969"/><text fill="#000000" font-family="sans-serif" font-size="14" lengthAdjust="spacing" textLength="79" x="1915" y="747.4707">collaborator:</text><text fill="#000000" font-family="sans-serif" font-size="14" lengthAdjust="spacing" textLength="78" x="1915.5" y="763.1113">Collaborator</text><polygon fill="#181818" points="1196,807.6016,1186,811.6016,1196,815.6016,1192,811.6016" style="stroke:#181818;stroke-width:1.0;"/><line style="stroke:#181818;stroke-width:1.0;stroke-dasharray:2.0,2.0;" x1="1190" x2="1762" y1="811.6016" y2="811.6016"/><text fill="#000000" font-family="sans-serif" font-size="13" font-weight="bold" lengthAdjust="spacing" textLength="14" x="1202" y="806.8467">21</text><text fill="#000000" font-family="sans-serif" font-size="13" lengthAdjust="spacing" textLength="49" x="1220" y="806.8467">success</text><polygon fill="#181818" points="652,836.125,642,840.125,652,844.125,648,840.125" style="stroke:#181818;stroke-width:1.0;"/><line style="stroke:#181818;stroke-width:1.0;stroke-dasharray:2.0,2.0;" x1="646" x2="1179" y1="840.125" y2="840.125"/><text fill="#000000" font-family="sans-serif" font-size="13" font-weight="bold" lengthAdjust="spacing" textLength="14" x="658" y="835.3701">22</text><text fill="#000000" font-family="sans-serif" font-size="13" lengthAdjust="spacing" textLength="49" x="676" y="835.3701">success</text><polygon fill="#181818" points="132,864.6484,122,868.6484,132,872.6484,128,868.6484" style="stroke:#181818;stroke-width:1.0;"/><line style="stroke:#181818;stroke-width:1.0;stroke-dasharray:2.0,2.0;" x1="126" x2="640" y1="868.6484" y2="868.6484"/><text fill="#000000" font-family="sans-serif" font-size="13" font-weight="bold" lengthAdjust="spacing" textLength="14" x="138" y="863.8936">23</text><text fill="#000000" font-family="sans-serif" font-size="13" lengthAdjust="spacing" textLength="158" x="156" y="863.8936">displays operation success</text><!--SRC=[bLRBSjim3BphAp2vrExO_G0VEfEwXwQJ9fqukUL2Kv35X29LaehZloz8ITQBSbET919SO845AFigLCaCAw3GIlFSw0B1cGeJUzuf6Nzb1zovaqGmo1rJ1zati3bBzL6e0sHCMamILZcjgcAF9aa-vI95oBHsU_rEMznf0rS_ge8fU42kAsFHmY-co8Mv0cRXEYs4IWZQ2IvAfXnSRHxm8An3izLIihqsZ52UReBvqyq7RBTQEKFVZOljuyFjv5IfhI1JWJROd1TEE-494wNX4TCxyQoc0Bzlhn-79rxqViiS7WYpGzyygv-nzO0HtHc2yXxD0Ueskb7pZsxDuuxG9XX9AAnuer2RyYNGFE4Jrb-fJh0X-Vofq3fBBxv8T5Xe1Je31WgFm0UOBSGPcafzNlGFGHAmB-RdpmJE3PBLd0aP7D3r4hfO3YpFNe8u1bl-2H045P55ZNoZB7K6nn7i03gcgOcrVs9UrWqHdyLEQfFZAVwVkvQOb-iaHnt29Lf1wL4U0RGBFDe0bnZ4aTkGeu5EEDoIq2v57- -nA9sumtMdi9UXsqlKFkYsvjhspoNy7lPKmhuF2AJknWsamfQIdIn8GWdzzyO4jHvDU781lFP1yWAcqgvhBKhasFQiLfX4dBTTEknydcjj6xm0uwZdUxvEyNxttrBh4YhbX1mC2FBfA6Y2D0XlJ8eqMhCHSnfThvRk8pF44egMYdeSBHGhS4MiBLrTrD4hI7qqn7WlZCjNm0ZBMc_gDrRmh0XCEOhx7DEYp2azWIqMjB8a4Csh0ccqUbGdCi5hTzv6K7Bh6tEPN19Dczj_fdjNbQNqzPjZcSnErZcfpEPh815AH2RQ7IyiAS7bw3F5FXXx0s5xvsep9YbvsNaPXAKuGkM1GlBBNb2f9jfAEy1t4lUN-kY8r2xNHuhLpsk9TBh4vYfQj8310Q5wHANLEe1HtPO4Y2gTfgyDSdBhcEP_v0wF_JipgEm-wo_LGhlFljKogp-kMx5vtQKaIki55-Hr5nIpgXMs6kdgUoEtkVMxiTmkJ8zsuCR_6uWZHJRWDdUrnlyxw2znElVYhaP1X7j_wdm0rrRh8-XTrMp5EULwTiB6cSnFxZ7UxBIUQxzEeorKgxXHG_K-wt-nlm00]--></g></svg>