<?xml version="1.0" encoding="us-ascii" standalone="no"?><svg xmlns="http://www.w3.org/2000/svg" xmlns:xlink="http://www.w3.org/1999/xlink" contentStyleType="text/css" height="343px" preserveAspectRatio="none" style="width:909px;height:343px;background:#FFFFFF;" version="1.1" viewBox="0 0 909 343" width="909px" zoomAndPan="magnify"><defs/><g><line style="stroke:#181818;stroke-width:0.5;stroke-dasharray:5.0,5.0;" x1="66" x2="66" y1="83.6211" y2="260.0762"/><line style="stroke:#181818;stroke-width:0.5;stroke-dasharray:5.0,5.0;" x1="233.5" x2="233.5" y1="83.6211" y2="260.0762"/><line style="stroke:#181818;stroke-width:0.5;stroke-dasharray:5.0,5.0;" x1="453.5" x2="453.5" y1="83.6211" y2="260.0762"/><line style="stroke:#181818;stroke-width:0.5;stroke-dasharray:5.0,5.0;" x1="614.5" x2="614.5" y1="83.6211" y2="260.0762"/><line style="stroke:#181818;stroke-width:0.5;stroke-dasharray:5.0,5.0;" x1="810.5" x2="810.5" y1="83.6211" y2="260.0762"/><text fill="#000000" font-family="sans-serif" font-size="14" lengthAdjust="spacing" textLength="117" x="5" y="80.1074">CRM_Collaborator</text><ellipse cx="66.5" cy="13.5" fill="#E2E2F0" rx="8" ry="8" style="stroke:#181818;stroke-width:0.5;"/><path d="M66.5,21.5 L66.5,48.5 M53.5,29.5 L79.5,29.5 M66.5,48.5 L53.5,63.5 M66.5,48.5 L79.5,63.5 " fill="none" style="stroke:#181818;stroke-width:0.5;"/><text fill="#000000" font-family="sans-serif" font-size="14" lengthAdjust="spacing" textLength="117" x="5" y="274.1836">CRM_Collaborator</text><ellipse cx="66.5" cy="286.1973" fill="#E2E2F0" rx="8" ry="8" style="stroke:#181818;stroke-width:0.5;"/><path d="M66.5,294.1973 L66.5,321.1973 M53.5,302.1973 L79.5,302.1973 M66.5,321.1973 L53.5,336.1973 M66.5,321.1973 L79.5,336.1973 " fill="none" style="stroke:#181818;stroke-width:0.5;"/><rect fill="#E2E2F0" height="32.6211" rx="2.5" ry="2.5" style="stroke:#181818;stroke-width:0.5;" width="134" x="166.5" y="50"/><text fill="#000000" font-family="sans-serif" font-size="14" lengthAdjust="spacing" textLength="116" x="173.5" y="72.1074">CreateCustomerUI</text><rect fill="#E2E2F0" height="32.6211" rx="2.5" ry="2.5" style="stroke:#181818;stroke-width:0.5;" width="134" x="166.5" y="259.0762"/><text fill="#000000" font-family="sans-serif" font-size="14" lengthAdjust="spacing" textLength="116" x="173.5" y="281.1836">CreateCustomerUI</text><rect fill="#E2E2F0" height="32.6211" rx="2.5" ry="2.5" style="stroke:#181818;stroke-width:0.5;" width="180" x="363.5" y="50"/><text fill="#000000" font-family="sans-serif" font-size="14" lengthAdjust="spacing" textLength="166" x="370.5" y="72.1074">CreateCustomerController</text><rect fill="#E2E2F0" height="32.6211" rx="2.5" ry="2.5" style="stroke:#181818;stroke-width:0.5;" width="180" x="363.5" y="259.0762"/><text fill="#000000" font-family="sans-serif" font-size="14" lengthAdjust="spacing" textLength="166" x="370.5" y="281.1836">CreateCustomerController</text><rect fill="#E2E2F0" height="32.6211" rx="2.5" ry="2.5" style="stroke:#181818;stroke-width:0.5;" width="122" x="553.5" y="50"/><text fill="#000000" font-family="sans-serif" font-size="14" lengthAdjust="spacing" textLength="108" x="560.5" y="72.1074">CustomerService</text><rect fill="#E2E2F0" height="32.6211" rx="2.5" ry="2.5" style="stroke:#181818;stroke-width:0.5;" width="122" x="553.5" y="259.0762"/><text fill="#000000" font-family="sans-serif" font-size="14" lengthAdjust="spacing" textLength="108" x="560.5" y="281.1836">CustomerService</text><rect fill="#E2E2F0" height="32.6211" rx="2.5" ry="2.5" style="stroke:#181818;stroke-width:0.5;" width="186" x="717.5" y="50"/><text fill="#000000" font-family="sans-serif" font-size="14" lengthAdjust="spacing" textLength="172" x="724.5" y="72.1074">CreateCustomerRepository</text><rect fill="#E2E2F0" height="32.6211" rx="2.5" ry="2.5" style="stroke:#181818;stroke-width:0.5;" width="186" x="717.5" y="259.0762"/><text fill="#000000" font-family="sans-serif" font-size="14" lengthAdjust="spacing" textLength="172" x="724.5" y="281.1836">CreateCustomerRepository</text><polygon fill="#181818" points="221.5,112.9121,231.5,116.9121,221.5,120.9121,225.5,116.9121" style="stroke:#181818;stroke-width:1.0;"/><line style="stroke:#181818;stroke-width:1.0;" x1="66.5" x2="227.5" y1="116.9121" y2="116.9121"/><text fill="#000000" font-family="sans-serif" font-size="13" lengthAdjust="spacing" textLength="143" x="73.5" y="111.6494">Asks to create customer</text><polygon fill="#181818" points="441.5,144.2031,451.5,148.2031,441.5,152.2031,445.5,148.2031" style="stroke:#181818;stroke-width:1.0;"/><line style="stroke:#181818;stroke-width:1.0;" x1="233.5" x2="447.5" y1="148.2031" y2="148.2031"/><text fill="#000000" font-family="sans-serif" font-size="13" lengthAdjust="spacing" textLength="196" x="240.5" y="142.9404">Sends customer data to controller</text><polygon fill="#181818" points="602.5,175.4941,612.5,179.4941,602.5,183.4941,606.5,179.4941" style="stroke:#181818;stroke-width:1.0;"/><line style="stroke:#181818;stroke-width:1.0;" x1="453.5" x2="608.5" y1="179.4941" y2="179.4941"/><text fill="#000000" font-family="sans-serif" font-size="13" lengthAdjust="spacing" textLength="73" x="460.5" y="174.2314">Checks data</text><polygon fill="#181818" points="798.5,206.7852,808.5,210.7852,798.5,214.7852,802.5,210.7852" style="stroke:#181818;stroke-width:1.0;"/><line style="stroke:#181818;stroke-width:1.0;" x1="614.5" x2="804.5" y1="210.7852" y2="210.7852"/><text fill="#000000" font-family="sans-serif" font-size="13" lengthAdjust="spacing" textLength="172" x="621.5" y="205.5225">Saves customer in  repository</text><polygon fill="#181818" points="77.5,238.0762,67.5,242.0762,77.5,246.0762,73.5,242.0762" style="stroke:#181818;stroke-width:1.0;"/><line style="stroke:#181818;stroke-width:1.0;" x1="71.5" x2="809.5" y1="242.0762" y2="242.0762"/><text fill="#000000" font-family="sans-serif" font-size="13" lengthAdjust="spacing" textLength="138" x="83.5" y="236.8135">Returns operation result</text><!--SRC=[VP4nJyD038Nt-nLMcHbO61YGsW1I1vPKdP6vMEafwVdaSof5YF-ESoGfOkXsjh_t_ApBNOW91S_GXqWw9W8MFR7Bwo2Xxx0b-780EtktmaDiAkvPu6xx-lBuzZ1DM1gIt-wkDynzEuTUhTnKzVk7JNhyP47hR00pMDFP0Wq-98ngb10gLKDMFfCSzr2mu_uMLN5KCMUQFTVodsZ63oINuAcmy_kMUqs9Sx30Or48jI6hZCxPlJ0T0FVF5X2UO9kx3ChWYnxyR50u0moxHZFyGB79AmKDAXRrDNvPS9MOmPpNr52ToDk-ILR0PMJKad5QWXVwioH4iEboKD6jy9JFhZ7hcdIGc84JsLS5ZWRbeLVt0m00]--></g></svg>