<?xml version="1.0" encoding="us-ascii" standalone="no"?><svg xmlns="http://www.w3.org/2000/svg" xmlns:xlink="http://www.w3.org/1999/xlink" contentStyleType="text/css" height="479px" preserveAspectRatio="none" style="width:499px;height:479px;background:#FFFFFF;" version="1.1" viewBox="0 0 499 479" width="499px" zoomAndPan="magnify"><defs/><g><rect fill="#FFFFFF" height="298.1055" style="stroke:#181818;stroke-width:1.0;" width="10" x="79" y="91.4883"/><rect fill="#FFFFFF" height="29.3105" style="stroke:#181818;stroke-width:1.0;" width="10" x="435" y="112.7988"/><rect fill="#FFFFFF" height="29.3105" style="stroke:#181818;stroke-width:1.0;" width="10" x="435" y="171.4199"/><rect fill="#FFFFFF" height="29.3105" style="stroke:#181818;stroke-width:1.0;" width="10" x="435" y="307.9727"/><rect fill="none" height="165.8633" style="stroke:#000000;stroke-width:1.5;" width="483" x="10" y="215.7305"/><rect fill="none" height="75.9316" style="stroke:#000000;stroke-width:1.5;" width="463" x="20" y="269.3516"/><line style="stroke:#181818;stroke-width:0.5;stroke-dasharray:5.0,5.0;" x1="84" x2="84" y1="81.4883" y2="398.5938"/><line style="stroke:#181818;stroke-width:0.5;stroke-dasharray:5.0,5.0;" x1="440" x2="440" y1="81.4883" y2="398.5938"/><text fill="#000000" font-family="sans-serif" font-size="14" lengthAdjust="spacing" textLength="102" x="30" y="78.5352">Product Owner</text><ellipse cx="84" cy="13.5" fill="#E3E3E3" rx="8" ry="8" style="stroke:#181818;stroke-width:0.5;"/><path d="M84,21.5 L84,48.5 M71,29.5 L97,29.5 M84,48.5 L71,63.5 M84,48.5 L97,63.5 " fill="none" style="stroke:#181818;stroke-width:0.5;"/><text fill="#000000" font-family="sans-serif" font-size="14" lengthAdjust="spacing" textLength="102" x="30" y="411.1289">Product Owner</text><ellipse cx="84" cy="422.582" fill="#E3E3E3" rx="8" ry="8" style="stroke:#181818;stroke-width:0.5;"/><path d="M84,430.582 L84,457.582 M71,438.582 L97,438.582 M84,457.582 L71,472.582 M84,457.582 L97,472.582 " fill="none" style="stroke:#181818;stroke-width:0.5;"/><rect fill="#E3E3E3" height="30.4883" rx="2.5" ry="2.5" style="stroke:#181818;stroke-width:0.5;" width="66" x="407" y="50"/><text fill="#000000" font-family="sans-serif" font-size="14" lengthAdjust="spacing" textLength="52" x="414" y="70.5352">:System</text><rect fill="#E3E3E3" height="30.4883" rx="2.5" ry="2.5" style="stroke:#181818;stroke-width:0.5;" width="66" x="407" y="397.5938"/><text fill="#000000" font-family="sans-serif" font-size="14" lengthAdjust="spacing" textLength="52" x="414" y="418.1289">:System</text><rect fill="#FFFFFF" height="298.1055" style="stroke:#181818;stroke-width:1.0;" width="10" x="79" y="91.4883"/><rect fill="#FFFFFF" height="29.3105" style="stroke:#181818;stroke-width:1.0;" width="10" x="435" y="112.7988"/><rect fill="#FFFFFF" height="29.3105" style="stroke:#181818;stroke-width:1.0;" width="10" x="435" y="171.4199"/><rect fill="#FFFFFF" height="29.3105" style="stroke:#181818;stroke-width:1.0;" width="10" x="435" y="307.9727"/><polygon fill="#181818" points="423,108.7988,433,112.7988,423,116.7988,427,112.7988" style="stroke:#181818;stroke-width:1.0;"/><line style="stroke:#181818;stroke-width:1.0;" x1="89" x2="429" y1="112.7988" y2="112.7988"/><text fill="#000000" font-family="sans-serif" font-size="13" font-weight="bold" lengthAdjust="spacing" textLength="9" x="96" y="108.0566">1</text><text fill="#000000" font-family="sans-serif" font-size="13" lengthAdjust="spacing" textLength="199" x="109" y="108.0566">asks to create a new simulation</text><polygon fill="#181818" points="100,138.1094,90,142.1094,100,146.1094,96,142.1094" style="stroke:#181818;stroke-width:1.0;"/><line style="stroke:#181818;stroke-width:1.0;stroke-dasharray:2.0,2.0;" x1="94" x2="439" y1="142.1094" y2="142.1094"/><text fill="#000000" font-family="sans-serif" font-size="13" font-weight="bold" lengthAdjust="spacing" textLength="9" x="106" y="137.3672">2</text><text fill="#000000" font-family="sans-serif" font-size="13" lengthAdjust="spacing" textLength="309" x="119" y="137.3672">shows all the maps available &amp; asks for selection</text><polygon fill="#181818" points="423,167.4199,433,171.4199,423,175.4199,427,171.4199" style="stroke:#181818;stroke-width:1.0;"/><line style="stroke:#181818;stroke-width:1.0;" x1="89" x2="429" y1="171.4199" y2="171.4199"/><text fill="#000000" font-family="sans-serif" font-size="13" font-weight="bold" lengthAdjust="spacing" textLength="9" x="96" y="166.6777">3</text><text fill="#000000" font-family="sans-serif" font-size="13" lengthAdjust="spacing" textLength="86" x="109" y="166.6777">selects a map</text><polygon fill="#181818" points="100,196.7305,90,200.7305,100,204.7305,96,200.7305" style="stroke:#181818;stroke-width:1.0;"/><line style="stroke:#181818;stroke-width:1.0;stroke-dasharray:2.0,2.0;" x1="94" x2="439" y1="200.7305" y2="200.7305"/><text fill="#000000" font-family="sans-serif" font-size="13" font-weight="bold" lengthAdjust="spacing" textLength="9" x="106" y="195.9883">4</text><text fill="#000000" font-family="sans-serif" font-size="13" lengthAdjust="spacing" textLength="83" x="119" y="195.9883">displays map</text><path d="M10,215.7305 L84,215.7305 L84,223.041 L74,233.041 L10,233.041 L10,215.7305 " fill="#EEEEEE" style="stroke:#000000;stroke-width:1.5;"/><rect fill="none" height="165.8633" style="stroke:#000000;stroke-width:1.5;" width="483" x="10" y="215.7305"/><text fill="#000000" font-family="sans-serif" font-size="13" font-weight="bold" lengthAdjust="spacing" textLength="29" x="25" y="229.2988">loop</text><text fill="#000000" font-family="sans-serif" font-size="11" font-weight="bold" lengthAdjust="spacing" textLength="165" x="99" y="228.3652">[While simulation is running]</text><polygon fill="#181818" points="428,250.3516,438,254.3516,428,258.3516,432,254.3516" style="stroke:#181818;stroke-width:1.0;"/><line style="stroke:#181818;stroke-width:1.0;" x1="89" x2="434" y1="254.3516" y2="254.3516"/><text fill="#000000" font-family="sans-serif" font-size="13" font-weight="bold" lengthAdjust="spacing" textLength="9" x="96" y="249.6094">5</text><text fill="#000000" font-family="sans-serif" font-size="13" lengthAdjust="spacing" textLength="125" x="109" y="249.6094">asks for cargo state</text><path d="M20,269.3516 L87,269.3516 L87,276.6621 L77,286.6621 L20,286.6621 L20,269.3516 " fill="#EEEEEE" style="stroke:#000000;stroke-width:1.5;"/><rect fill="none" height="75.9316" style="stroke:#000000;stroke-width:1.5;" width="463" x="20" y="269.3516"/><text fill="#000000" font-family="sans-serif" font-size="13" font-weight="bold" lengthAdjust="spacing" textLength="22" x="35" y="282.9199">opt</text><text fill="#000000" font-family="sans-serif" font-size="11" font-weight="bold" lengthAdjust="spacing" textLength="129" x="102" y="281.9863">[Wants to change state]</text><polygon fill="#181818" points="423,303.9727,433,307.9727,423,311.9727,427,307.9727" style="stroke:#181818;stroke-width:1.0;"/><line style="stroke:#181818;stroke-width:1.0;" x1="89" x2="429" y1="307.9727" y2="307.9727"/><text fill="#000000" font-family="sans-serif" font-size="13" font-weight="bold" lengthAdjust="spacing" textLength="9" x="96" y="303.2305">6</text><text fill="#000000" font-family="sans-serif" font-size="13" lengthAdjust="spacing" textLength="268" x="109" y="303.2305">asks to change state (selects play / pause)</text><polygon fill="#181818" points="100,333.2832,90,337.2832,100,341.2832,96,337.2832" style="stroke:#181818;stroke-width:1.0;"/><line style="stroke:#181818;stroke-width:1.0;stroke-dasharray:2.0,2.0;" x1="94" x2="439" y1="337.2832" y2="337.2832"/><text fill="#000000" font-family="sans-serif" font-size="13" font-weight="bold" lengthAdjust="spacing" textLength="9" x="106" y="332.541">7</text><text fill="#000000" font-family="sans-serif" font-size="13" lengthAdjust="spacing" textLength="158" x="119" y="332.541">changes simulation state</text><polygon fill="#181818" points="100,369.5938,90,373.5938,100,377.5938,96,373.5938" style="stroke:#181818;stroke-width:1.0;"/><line style="stroke:#181818;stroke-width:1.0;stroke-dasharray:2.0,2.0;" x1="94" x2="439" y1="373.5938" y2="373.5938"/><text fill="#000000" font-family="sans-serif" font-size="13" font-weight="bold" lengthAdjust="spacing" textLength="9" x="106" y="368.8516">8</text><text fill="#000000" font-family="sans-serif" font-size="13" lengthAdjust="spacing" textLength="215" x="119" y="368.8516">display new cargo arrival message</text><!--SRC=[dLDBRy8m3BxtLrWSfks0k7FONzWa3fnDQjg8FAhOeUBVptr0oqHXMaw9c-_XpocVR6WmeGSVGpHrYfv0KgQ2RryQD2UiQ2SNHv3828RApIzmZMLiRQZWY8wfA31B3DaVAEdUI4om-awnp4RWgmsKLe0COwKl54earjW6Wy1gkxkmaEzl3TkUnfvHw1vMWAvv1TQV8mIs2ZynI0IJg4CY16g1hSyEnSOme6_4LoKOrqYpLiOxXQts6ri6T0wa9l3OwE6Crk510teRP8_QD9FJj6vA9JtKMhG_m9Mxa_YtsT9ou_324yc23nTZ0_lQQWzJHc0PKWv1Xpk9FG-ywznWgYAmgCO4Yut0NWSypAJMLqI_h_njd3Cel5zJwfg4ZJxMpFHnpxYOsklq1YsU9_B0yaAYtQ9GJeUdHbwEi7- -GxAOaX8vyCIil-P4jE2aS_43]--></g></svg>