<?xml version="1.0" encoding="us-ascii" standalone="no"?><svg xmlns="http://www.w3.org/2000/svg" xmlns:xlink="http://www.w3.org/1999/xlink" contentStyleType="text/css" height="582px" preserveAspectRatio="none" style="width:417px;height:582px;background:#FFFFFF;" version="1.1" viewBox="0 0 417 582" width="417px" zoomAndPan="magnify"><defs/><g><!--class Agenda--><g id="elem_Agenda"><rect codeLine="12" fill="#F1F1F1" height="33.6406" id="Agenda" rx="2.5" ry="2.5" style="stroke:#181818;stroke-width:0.5;" width="55" x="35.05" y="321"/><text fill="#000000" font-family="sans-serif" font-size="14" lengthAdjust="spacing" textLength="49" x="38.05" y="338.6738">Agenda</text><line style="stroke:#181818;stroke-width:0.5;" x1="36.05" x2="89.05" y1="346.6406" y2="346.6406"/></g><!--class Collaborator--><g id="elem_Collaborator"><rect codeLine="15" fill="#F1F1F1" height="111.8438" id="Collaborator" rx="2.5" ry="2.5" style="stroke:#181818;stroke-width:0.5;" width="171" x="219.05" y="464"/><text fill="#000000" font-family="sans-serif" font-size="14" lengthAdjust="spacing" textLength="78" x="265.55" y="481.6738">Collaborator</text><line style="stroke:#181818;stroke-width:0.5;" x1="220.05" x2="389.05" y1="489.6406" y2="489.6406"/><text fill="#000000" font-family="sans-serif" font-size="14" lengthAdjust="spacing" textLength="56" x="225.05" y="506.3145">birthdate</text><text fill="#000000" font-family="sans-serif" font-size="14" lengthAdjust="spacing" textLength="93" x="225.05" y="521.9551">admissionDate</text><text fill="#000000" font-family="sans-serif" font-size="14" lengthAdjust="spacing" textLength="85" x="225.05" y="537.5957">emailAddress</text><text fill="#000000" font-family="sans-serif" font-size="14" lengthAdjust="spacing" textLength="103" x="225.05" y="553.2363">taxpayerNumber</text><text fill="#000000" font-family="sans-serif" font-size="14" lengthAdjust="spacing" textLength="159" x="225.05" y="568.877">otherRelevantInformation</text></g><!--class Team--><g id="elem_Team"><rect codeLine="23" fill="#F1F1F1" height="80.5625" id="Team" rx="2.5" ry="2.5" style="stroke:#181818;stroke-width:0.5;" width="170" x="240.55" y="164"/><text fill="#000000" font-family="sans-serif" font-size="14" lengthAdjust="spacing" textLength="36" x="307.55" y="181.6738">Team</text><line style="stroke:#181818;stroke-width:0.5;" x1="241.55" x2="409.55" y1="189.6406" y2="189.6406"/><text fill="#000000" font-family="sans-serif" font-size="14" lengthAdjust="spacing" textLength="69" x="246.55" y="206.3145">description</text><text fill="#000000" font-family="sans-serif" font-size="14" lengthAdjust="spacing" textLength="158" x="246.55" y="221.9551">numberMaxCollaborators</text><text fill="#000000" font-family="sans-serif" font-size="14" lengthAdjust="spacing" textLength="155" x="246.55" y="237.5957">numberMinCollaborators</text></g><!--class AgendaEntry--><g id="elem_AgendaEntry"><rect codeLine="30" fill="#F1F1F1" height="80.5625" id="AgendaEntry" rx="2.5" ry="2.5" style="stroke:#181818;stroke-width:0.5;" width="94" x="96.55" y="7"/><text fill="#000000" font-family="sans-serif" font-size="14" lengthAdjust="spacing" textLength="82" x="102.55" y="24.6738">AgendaEntry</text><line style="stroke:#181818;stroke-width:0.5;" x1="97.55" x2="189.55" y1="32.6406" y2="32.6406"/><text fill="#000000" font-family="sans-serif" font-size="14" lengthAdjust="spacing" textLength="77" x="102.55" y="49.3145">startingDate</text><text fill="#000000" font-family="sans-serif" font-size="14" lengthAdjust="spacing" textLength="82" x="102.55" y="64.9551">finishingDate</text><text fill="#000000" font-family="sans-serif" font-size="14" lengthAdjust="spacing" textLength="38" x="102.55" y="80.5957">status</text></g><!--class Task--><g id="elem_Task"><rect codeLine="36" fill="#F1F1F1" height="64.9219" id="Task" rx="2.5" ry="2.5" style="stroke:#181818;stroke-width:0.5;" width="123" x="82.05" y="172"/><text fill="#000000" font-family="sans-serif" font-size="14" lengthAdjust="spacing" textLength="31" x="128.05" y="189.6738">Task</text><line style="stroke:#181818;stroke-width:0.5;" x1="83.05" x2="204.05" y1="197.6406" y2="197.6406"/><text fill="#000000" font-family="sans-serif" font-size="14" lengthAdjust="spacing" textLength="69" x="88.05" y="214.3145">description</text><text fill="#000000" font-family="sans-serif" font-size="14" lengthAdjust="spacing" textLength="111" x="88.05" y="229.9551">expectedDuration</text></g><!--class Skill--><g id="elem_Skill"><rect codeLine="41" fill="#F1F1F1" height="49.2813" id="Skill" rx="2.5" ry="2.5" style="stroke:#181818;stroke-width:0.5;" width="71" x="240.05" y="385"/><text fill="#000000" font-family="sans-serif" font-size="14" lengthAdjust="spacing" textLength="25" x="263.05" y="402.6738">Skill</text><line style="stroke:#181818;stroke-width:0.5;" x1="241.05" x2="310.05" y1="410.6406" y2="410.6406"/><text fill="#000000" font-family="sans-serif" font-size="14" lengthAdjust="spacing" textLength="59" x="246.05" y="427.3145">skillName</text></g><!--link Task to Agenda--><g id="link_Task_Agenda"><path codeLine="45" d="M123.94,237.33 C107.74,263.63 85.4,299.9 72.61,320.66 " fill="none" id="Task-Agenda" style="stroke:#181818;stroke-width:1.0;"/><polygon fill="#000000" points="109.1723,279.0046,101.9262,285.1645,106.9308,288.2472,109.1723,279.0046" style="stroke:#000000;stroke-width:1.0;"/><text fill="#000000" font-family="sans-serif" font-size="13" lengthAdjust="spacing" textLength="56" x="115.55" y="287.7686">organizes</text><text fill="#000000" font-family="sans-serif" font-size="13" lengthAdjust="spacing" textLength="5" x="114.7253" y="256.7485">*</text><text fill="#000000" font-family="sans-serif" font-size="13" lengthAdjust="spacing" textLength="7" x="67.865" y="310.2134">1</text></g><!--link AgendaEntry to Task--><g id="link_AgendaEntry_Task"><path codeLine="46" d="M143.55,88.01 C143.55,114.02 143.55,147.62 143.55,171.86 " fill="none" id="AgendaEntry-Task" style="stroke:#181818;stroke-width:1.0;"/><polygon fill="#000000" points="148.55,131.2617,151.4889,122.2166,145.6111,122.2166,148.55,131.2617" style="stroke:#000000;stroke-width:1.0;"/><text fill="#000000" font-family="sans-serif" font-size="13" lengthAdjust="spacing" textLength="86" x="157.55" y="130.7686">corresponds to</text><text fill="#000000" font-family="sans-serif" font-size="13" lengthAdjust="spacing" textLength="7" x="135.9922" y="107.427">1</text><text fill="#000000" font-family="sans-serif" font-size="13" lengthAdjust="spacing" textLength="7" x="135.7844" y="161.0231">1</text></g><!--link Team to Collaborator--><g id="link_Team_Collaborator"><path codeLine="47" d="M328.86,245.32 C331.94,291.07 334.91,368.28 326.55,434 C325.31,443.68 323.32,453.83 321.03,463.61 " fill="none" id="Team-Collaborator" style="stroke:#181818;stroke-width:1.0;"/><polygon fill="#000000" points="336.3708,343.2585,339.632,334.3246,333.758,334.1139,336.3708,343.2585" style="stroke:#000000;stroke-width:1.0;"/><text fill="#000000" font-family="sans-serif" font-size="13" lengthAdjust="spacing" textLength="35" x="345.55" y="342.7686">needs</text><text fill="#000000" font-family="sans-serif" font-size="13" lengthAdjust="spacing" textLength="5" x="323.979" y="264.1827">*</text><text fill="#000000" font-family="sans-serif" font-size="13" lengthAdjust="spacing" textLength="20" x="302.5978" y="454.0955">1..*</text></g><!--link Team to Skill--><g id="link_Team_Skill"><path codeLine="48" d="M288.45,245.18 C281.92,254.34 276.09,264.51 272.55,275 C260.16,311.68 265.21,357.31 270.22,384.61 " fill="none" id="Team-Skill" style="stroke:#181818;stroke-width:1.0;"/><polygon fill="#000000" points="276.9018,288.2195,280.9885,279.6318,275.1603,278.8698,276.9018,288.2195" style="stroke:#000000;stroke-width:1.0;"/><text fill="#000000" font-family="sans-serif" font-size="13" lengthAdjust="spacing" textLength="35" x="286.55" y="287.7686">needs</text><text fill="#000000" font-family="sans-serif" font-size="13" lengthAdjust="spacing" textLength="5" x="277.3862" y="264.3231">*</text><text fill="#000000" font-family="sans-serif" font-size="13" lengthAdjust="spacing" textLength="20" x="246.2917" y="374.2378">1..*</text></g><!--link Skill to Collaborator--><g id="link_Skill_Collaborator"><path codeLine="49" d="M281.84,434.04 C284.2,442.89 287,453.37 289.82,463.89 " fill="none" id="Skill-Collaborator" style="stroke:#181818;stroke-width:1.0;"/><polygon fill="#000000" points="289.3687,435.7714,288.8655,445.2686,294.5439,443.7505,289.3687,435.7714" style="stroke:#000000;stroke-width:1.0;"/><text fill="#000000" font-family="sans-serif" font-size="13" lengthAdjust="spacing" textLength="21" x="299.66" y="445.1086">has</text><text fill="#000000" font-family="sans-serif" font-size="13" lengthAdjust="spacing" textLength="5" x="277.8112" y="453.9217">*</text><text fill="#000000" font-family="sans-serif" font-size="13" lengthAdjust="spacing" textLength="5" x="282.6968" y="454.0176">*</text></g><!--link Agenda to AgendaEntry--><g id="link_Agenda_AgendaEntry"><path codeLine="50" d="M53.29,320.65 C36.77,289.2 6,218.6 28.55,164 C42.37,130.52 71.12,101.65 96.41,81.14 " fill="none" id="Agenda-AgendaEntry" style="stroke:#181818;stroke-width:1.0;"/><polygon fill="#000000" points="34.4359,199.8408,29.9408,208.2221,35.7257,209.2635,34.4359,199.8408" style="stroke:#000000;stroke-width:1.0;"/><text fill="#000000" font-family="sans-serif" font-size="13" lengthAdjust="spacing" textLength="21" x="42.55" y="209.2686">has</text><text fill="#000000" font-family="sans-serif" font-size="13" lengthAdjust="spacing" textLength="7" x="41.9038" y="310.2">1</text><text fill="#000000" font-family="sans-serif" font-size="13" lengthAdjust="spacing" textLength="5" x="83.4986" y="83.2309">*</text></g><!--link AgendaEntry to Team--><g id="link_AgendaEntry_Team"><path codeLine="51" d="M190.75,74.4 C210.76,86.41 233.75,101.65 252.55,118 C268.16,131.58 283.36,148.57 295.81,163.82 " fill="none" id="AgendaEntry-Team" style="stroke:#181818;stroke-width:1.0;"/><polygon fill="#000000" points="268.7424,123.021,273.7255,131.1216,277.5352,126.6455,268.7424,123.021" style="stroke:#000000;stroke-width:1.0;"/><text fill="#000000" font-family="sans-serif" font-size="13" lengthAdjust="spacing" textLength="84" x="281.55" y="130.7686">responsible for</text><text fill="#000000" font-family="sans-serif" font-size="13" lengthAdjust="spacing" textLength="5" x="198.6709" y="75.4167">*</text><text fill="#000000" font-family="sans-serif" font-size="13" lengthAdjust="spacing" textLength="7" x="282.8891" y="153.1811">1</text></g><!--SRC=[NLF1Rjim3BthAuXS2XHmiLw3eK2mzj33UbZw0xJ4s49aoI3fDLdHVwyinuazNsG_FfBlaR8SVUoHiOCknMHRJXs1ya16hf4UxH4Rskiv431PnTY49K5QTEd3nmOE68ICkGjqKD04x9jMmVanowTe5aaseCXEbNqzABtQ5FV-7y4FOrhl2AndcvkKzuwqJKwCAJcmQoWwX4_pDIE_KWXO9qPDd778J-rPMuTAvGjTvqMoWkSPeGvzs3d79580nLEFP-AteQk92vIq9Vv3WVvYrDTuIDnXiN5j_4xPoQTn99PzNsAnvF_6qrAKpB2FQ_XMQdBr4fNF5mkYo9gdUjLyyD5BkqGoHGTPw44vJibBISNlgSyx8FSyy7yUzaSVGcufu_c67OsXoumtZnkeXhw2pVsc58Sj96umvbK9F9cbwCAjod5XsiHvl7sAJiRBy6JAk7Afgl0U7dBHrUgs48cSh9WpSP9vOwmIHtdLUEacfJEtnPl8gxuSNyfUiovMxczMHY5Rc7o8h_ClaEy1_3Jc6m00]--></g></svg>