<?xml version="1.0" encoding="us-ascii" standalone="no"?><svg xmlns="http://www.w3.org/2000/svg" xmlns:xlink="http://www.w3.org/1999/xlink" contentStyleType="text/css" height="508px" preserveAspectRatio="none" style="width:707px;height:508px;background:#FFFFFF;" version="1.1" viewBox="0 0 707 508" width="707.2px" zoomAndPan="magnify"><defs/><g><text fill="#000000" font-family="sans-serif" font-size="11.2" font-weight="bold" lengthAdjust="spacing" textLength="220.8" x="244.4" y="24.0859">System Sequence Diagram (SSD) - US21</text><rect fill="#FFFFFF" height="298.5609" style="stroke:#181818;stroke-width:0.8000000000000002;" width="8" x="48" y="121.4906"/><rect fill="#FFFFFF" height="25.0328" style="stroke:#181818;stroke-width:0.8000000000000002;" width="8" x="491.2" y="140.1234"/><rect fill="#FFFFFF" height="60.4656" style="stroke:#181818;stroke-width:0.8000000000000002;" width="8" x="491.2" y="211.2219"/><rect fill="#FFFFFF" height="25.0328" style="stroke:#181818;stroke-width:0.8000000000000002;" width="8" x="491.2" y="296.7203"/><rect fill="#FFFFFF" height="66.0656" style="stroke:#181818;stroke-width:0.8000000000000002;" width="8" x="491.2" y="346.7859"/><rect fill="none" height="211.4625" style="stroke:#000000;stroke-width:1.2000000000000002;" width="694.4" x="8" y="177.1563"/><line style="stroke:#181818;stroke-width:0.4000000000000001;stroke-dasharray:5.0,5.0;" x1="52" x2="52" y1="113.4906" y2="427.2516"/><line style="stroke:#181818;stroke-width:0.4000000000000001;stroke-dasharray:5.0,5.0;" x1="495.2" x2="495.2" y1="113.4906" y2="427.2516"/><text fill="#000000" font-family="sans-serif" font-size="11.2" lengthAdjust="spacing" textLength="67.2" x="16" y="95.7828">Green Space</text><text fill="#000000" font-family="sans-serif" font-size="11.2" lengthAdjust="spacing" textLength="44.8" x="28.8" y="110.6797">Manager</text><ellipse cx="52" cy="42.4969" fill="#E3E3E3" rx="6.4" ry="6.4" style="stroke:#181818;stroke-width:0.4000000000000001;"/><path d="M52,48.8969 L52,70.4969 M41.6,55.2969 L62.4,55.2969 M52,70.4969 L41.6,82.4969 M52,70.4969 L62.4,82.4969 " fill="none" style="stroke:#181818;stroke-width:0.4000000000000001;"/><text fill="#000000" font-family="sans-serif" font-size="11.2" lengthAdjust="spacing" textLength="67.2" x="16" y="438.5375">Green Space</text><text fill="#000000" font-family="sans-serif" font-size="11.2" lengthAdjust="spacing" textLength="44.8" x="28.8" y="453.4344">Manager</text><ellipse cx="52" cy="463.0453" fill="#E3E3E3" rx="6.4" ry="6.4" style="stroke:#181818;stroke-width:0.4000000000000001;"/><path d="M52,469.4453 L52,491.0453 M41.6,475.8453 L62.4,475.8453 M52,491.0453 L41.6,503.0453 M52,491.0453 L62.4,503.0453 " fill="none" style="stroke:#181818;stroke-width:0.4000000000000001;"/><rect fill="#E3E3E3" height="26.0969" rx="2" ry="2" style="stroke:#181818;stroke-width:0.4000000000000001;" width="51.2" x="469.6" y="86.5938"/><text fill="#000000" font-family="sans-serif" font-size="11.2" lengthAdjust="spacing" textLength="40" x="475.2" y="104.2797">:System</text><rect fill="#E3E3E3" height="26.0969" rx="2" ry="2" style="stroke:#181818;stroke-width:0.4000000000000001;" width="51.2" x="469.6" y="426.4516"/><text fill="#000000" font-family="sans-serif" font-size="11.2" lengthAdjust="spacing" textLength="40" x="475.2" y="444.1375">:System</text><rect fill="#FFFFFF" height="298.5609" style="stroke:#181818;stroke-width:0.8000000000000002;" width="8" x="48" y="121.4906"/><rect fill="#FFFFFF" height="25.0328" style="stroke:#181818;stroke-width:0.8000000000000002;" width="8" x="491.2" y="140.1234"/><rect fill="#FFFFFF" height="60.4656" style="stroke:#181818;stroke-width:0.8000000000000002;" width="8" x="491.2" y="211.2219"/><rect fill="#FFFFFF" height="25.0328" style="stroke:#181818;stroke-width:0.8000000000000002;" width="8" x="491.2" y="296.7203"/><rect fill="#FFFFFF" height="66.0656" style="stroke:#181818;stroke-width:0.8000000000000002;" width="8" x="491.2" y="346.7859"/><polygon fill="#181818" points="481.6,136.9234,489.6,140.1234,481.6,143.3234,484.8,140.1234" style="stroke:#181818;stroke-width:0.8000000000000002;"/><line style="stroke:#181818;stroke-width:0.8000000000000002;" x1="56" x2="486.4" y1="140.1234" y2="140.1234"/><text fill="#000000" font-family="sans-serif" font-size="10.4" font-weight="bold" lengthAdjust="spacing" textLength="5.6" x="61.6" y="135.9133">1</text><text fill="#000000" font-family="sans-serif" font-size="10.4" lengthAdjust="spacing" textLength="191.2" x="70.4" y="135.9133">asks to add a new entry to the To-Do List</text><polygon fill="#181818" points="64.8,161.9563,56.8,165.1563,64.8,168.3563,61.6,165.1563" style="stroke:#181818;stroke-width:0.8000000000000002;"/><line style="stroke:#181818;stroke-width:0.8000000000000002;stroke-dasharray:2.0,2.0;" x1="60" x2="494.4" y1="165.1563" y2="165.1563"/><text fill="#000000" font-family="sans-serif" font-size="10.4" font-weight="bold" lengthAdjust="spacing" textLength="5.6" x="69.6" y="160.9461">2</text><text fill="#000000" font-family="sans-serif" font-size="10.4" lengthAdjust="spacing" textLength="337.6" x="78.4" y="160.9461">shows a list of the green spaces managed by that Green Space Manager</text><path d="M8,177.1563 L66.4,177.1563 L66.4,184.5891 L58.4,192.5891 L8,192.5891 L8,177.1563 " fill="#EEEEEE" style="stroke:#000000;stroke-width:1.2000000000000002;"/><rect fill="none" height="211.4625" style="stroke:#000000;stroke-width:1.2000000000000002;" width="694.4" x="8" y="177.1563"/><text fill="#000000" font-family="sans-serif" font-size="10.4" font-weight="bold" lengthAdjust="spacing" textLength="22.4" x="20" y="189.1789">loop</text><text fill="#000000" font-family="sans-serif" font-size="8.8" font-weight="bold" lengthAdjust="spacing" textLength="132" x="78.4" y="188.2523">[until information is accepted]</text><polygon fill="#181818" points="481.6,208.0219,489.6,211.2219,481.6,214.4219,484.8,211.2219" style="stroke:#181818;stroke-width:0.8000000000000002;"/><line style="stroke:#181818;stroke-width:0.8000000000000002;" x1="56" x2="486.4" y1="211.2219" y2="211.2219"/><text fill="#000000" font-family="sans-serif" font-size="10.4" font-weight="bold" lengthAdjust="spacing" textLength="5.6" x="61.6" y="207.0117">3</text><text fill="#000000" font-family="sans-serif" font-size="10.4" lengthAdjust="spacing" textLength="111.2" x="70.4" y="207.0117">selects the green space</text><line style="stroke:#181818;stroke-width:0.8000000000000002;" x1="499.2" x2="532.8" y1="236.2547" y2="236.2547"/><line style="stroke:#181818;stroke-width:0.8000000000000002;" x1="532.8" x2="532.8" y1="236.2547" y2="246.6547"/><line style="stroke:#181818;stroke-width:0.8000000000000002;" x1="500" x2="532.8" y1="246.6547" y2="246.6547"/><polygon fill="#181818" points="508,243.4547,500,246.6547,508,249.8547,504.8,246.6547" style="stroke:#181818;stroke-width:0.8000000000000002;"/><text fill="#000000" font-family="sans-serif" font-size="10.4" font-weight="bold" lengthAdjust="spacing" textLength="5.6" x="504.8" y="232.0445">4</text><text fill="#000000" font-family="sans-serif" font-size="10.4" lengthAdjust="spacing" textLength="179.2" x="513.6" y="232.0445">verifies data and green space selection</text><polygon fill="#181818" points="64.8,268.4875,56.8,271.6875,64.8,274.8875,61.6,271.6875" style="stroke:#181818;stroke-width:0.8000000000000002;"/><line style="stroke:#181818;stroke-width:0.8000000000000002;stroke-dasharray:2.0,2.0;" x1="60" x2="494.4" y1="271.6875" y2="271.6875"/><text fill="#000000" font-family="sans-serif" font-size="10.4" font-weight="bold" lengthAdjust="spacing" textLength="5.6" x="69.6" y="267.4773">5</text><text fill="#000000" font-family="sans-serif" font-size="10.4" lengthAdjust="spacing" textLength="407.2" x="78.4" y="267.4773">requests entry data (description, degree of urgency, and approximate expected duration)</text><polygon fill="#181818" points="481.6,293.5203,489.6,296.7203,481.6,299.9203,484.8,296.7203" style="stroke:#181818;stroke-width:0.8000000000000002;"/><line style="stroke:#181818;stroke-width:0.8000000000000002;" x1="56" x2="486.4" y1="296.7203" y2="296.7203"/><text fill="#000000" font-family="sans-serif" font-size="10.4" font-weight="bold" lengthAdjust="spacing" textLength="5.6" x="61.6" y="292.5102">6</text><text fill="#000000" font-family="sans-serif" font-size="10.4" lengthAdjust="spacing" textLength="97.6" x="70.4" y="292.5102">types requested data</text><polygon fill="#181818" points="64.8,318.5531,56.8,321.7531,64.8,324.9531,61.6,321.7531" style="stroke:#181818;stroke-width:0.8000000000000002;"/><line style="stroke:#181818;stroke-width:0.8000000000000002;stroke-dasharray:2.0,2.0;" x1="60" x2="494.4" y1="321.7531" y2="321.7531"/><text fill="#000000" font-family="sans-serif" font-size="10.4" font-weight="bold" lengthAdjust="spacing" textLength="5.6" x="69.6" y="317.543">7</text><text fill="#000000" font-family="sans-serif" font-size="10.4" lengthAdjust="spacing" textLength="215.2" x="78.4" y="317.543">displays all the data and requests confirmation</text><polygon fill="#181818" points="481.6,343.5859,489.6,346.7859,481.6,349.9859,484.8,346.7859" style="stroke:#181818;stroke-width:0.8000000000000002;"/><line style="stroke:#181818;stroke-width:0.8000000000000002;" x1="56" x2="486.4" y1="346.7859" y2="346.7859"/><text fill="#000000" font-family="sans-serif" font-size="10.4" font-weight="bold" lengthAdjust="spacing" textLength="5.6" x="61.6" y="342.5758">8</text><text fill="#000000" font-family="sans-serif" font-size="10.4" lengthAdjust="spacing" textLength="80" x="70.4" y="342.5758">confirms the data</text><line style="stroke:#181818;stroke-width:0.8000000000000002;" x1="499.2" x2="532.8" y1="371.8188" y2="371.8188"/><line style="stroke:#181818;stroke-width:0.8000000000000002;" x1="532.8" x2="532.8" y1="371.8188" y2="382.2188"/><line style="stroke:#181818;stroke-width:0.8000000000000002;" x1="500" x2="532.8" y1="382.2188" y2="382.2188"/><polygon fill="#181818" points="508,379.0188,500,382.2188,508,385.4188,504.8,382.2188" style="stroke:#181818;stroke-width:0.8000000000000002;"/><text fill="#000000" font-family="sans-serif" font-size="10.4" font-weight="bold" lengthAdjust="spacing" textLength="5.6" x="504.8" y="367.6086">9</text><text fill="#000000" font-family="sans-serif" font-size="10.4" lengthAdjust="spacing" textLength="84.8" x="513.6" y="367.6086">verifies information</text><polygon fill="#181818" points="64.8,409.6516,56.8,412.8516,64.8,416.0516,61.6,412.8516" style="stroke:#181818;stroke-width:0.8000000000000002;"/><line style="stroke:#181818;stroke-width:0.8000000000000002;stroke-dasharray:2.0,2.0;" x1="60" x2="494.4" y1="412.8516" y2="412.8516"/><text fill="#000000" font-family="sans-serif" font-size="10.4" font-weight="bold" lengthAdjust="spacing" textLength="11.2" x="69.6" y="408.6414">10</text><text fill="#000000" font-family="sans-serif" font-size="10.4" lengthAdjust="spacing" textLength="280" x="84" y="408.6414">displays success message (Vehicle registered successfully)</text><!--SRC=[bLEzRjim4Dxr50TF3X0FxUYXau4ipQIqKvSBUP88KoJBEyNHs_HP-cGzqh8X66dJQ108wkxxknCVNKYOSOGnXcY674S2oHCrVFsIq1onfrPcJv3928RUhmjuG1jFBlJGeMTg6d6YfUtCGYEqz7EYO0WE3ljIlctRmntiu5lx-LFJu2GnJECpPJqRYHas3vaeGAkyz2F08mPbpnj0XeVsiL5ESSOb30AR_PcaVZmVAufxGQ5QtO0-Ue3TbukWlHOV6IG2MWi8WKv0GV9ShcGWU8gxGuIlZgLsN_4k1ELomTefR47VQmZnn8hcjGrYLu7wQeIB4OQn-h3mh3m32gnSNZnMP4jl4leO4qn1d0SNkfX751S3EEKqXfAGVTihazUHyQsUzvsjC5uekywf1uk2WC6kaHO65VENP79P05O9vv0hnjOIc-nIQRjNomMlf3RbNdTblgyac5AEhsui2karAOd6PwTSdT_zAwpR46HEgduHKa1KmmTcQnqdZxD6xNqDyfh3rPk9eNFBK3wYREdZA-p_3sOrbzL6d6ifsFUyyAHxmxgN-jBbW-rt6fofltYlEqnPSrfgkidx-JRmtxyMSNy0]--></g></svg>