<?xml version="1.0" encoding="us-ascii" standalone="no"?><svg xmlns="http://www.w3.org/2000/svg" xmlns:xlink="http://www.w3.org/1999/xlink" contentStyleType="text/css" height="637px" preserveAspectRatio="none" style="width:418px;height:637px;background:#FFFFFF;" version="1.1" viewBox="0 0 418 637" width="418px" zoomAndPan="magnify"><defs/><g><!--class Agenda--><g id="elem_Agenda"><rect codeLine="12" fill="#F1F1F1" height="36.6211" id="Agenda" rx="2.5" ry="2.5" style="stroke:#181818;stroke-width:0.5;" width="55" x="36" y="349"/><text fill="#000000" font-family="sans-serif" font-size="14" lengthAdjust="spacing" textLength="49" x="39" y="369.1074">Agenda</text><line style="stroke:#181818;stroke-width:0.5;" x1="37" x2="90" y1="377.6211" y2="377.6211"/></g><!--class Collaborator--><g id="elem_Collaborator"><rect codeLine="15" fill="#F1F1F1" height="129.7266" id="Collaborator" rx="2.5" ry="2.5" style="stroke:#181818;stroke-width:0.5;" width="171" x="220" y="501"/><text fill="#000000" font-family="sans-serif" font-size="14" lengthAdjust="spacing" textLength="78" x="266.5" y="521.1074">Collaborator</text><line style="stroke:#181818;stroke-width:0.5;" x1="221" x2="390" y1="529.6211" y2="529.6211"/><text fill="#000000" font-family="sans-serif" font-size="14" lengthAdjust="spacing" textLength="56" x="226" y="548.7285">birthdate</text><text fill="#000000" font-family="sans-serif" font-size="14" lengthAdjust="spacing" textLength="93" x="226" y="567.3496">admissionDate</text><text fill="#000000" font-family="sans-serif" font-size="14" lengthAdjust="spacing" textLength="85" x="226" y="585.9707">emailAddress</text><text fill="#000000" font-family="sans-serif" font-size="14" lengthAdjust="spacing" textLength="103" x="226" y="604.5918">taxpayerNumber</text><text fill="#000000" font-family="sans-serif" font-size="14" lengthAdjust="spacing" textLength="159" x="226" y="623.2129">otherRelevantInformation</text></g><!--class Team--><g id="elem_Team"><rect codeLine="23" fill="#F1F1F1" height="92.4844" id="Team" rx="2.5" ry="2.5" style="stroke:#181818;stroke-width:0.5;" width="170" x="241.5" y="178"/><text fill="#000000" font-family="sans-serif" font-size="14" lengthAdjust="spacing" textLength="36" x="308.5" y="198.1074">Team</text><line style="stroke:#181818;stroke-width:0.5;" x1="242.5" x2="410.5" y1="206.6211" y2="206.6211"/><text fill="#000000" font-family="sans-serif" font-size="14" lengthAdjust="spacing" textLength="69" x="247.5" y="225.7285">description</text><text fill="#000000" font-family="sans-serif" font-size="14" lengthAdjust="spacing" textLength="158" x="247.5" y="244.3496">numberMaxCollaborators</text><text fill="#000000" font-family="sans-serif" font-size="14" lengthAdjust="spacing" textLength="155" x="247.5" y="262.9707">numberMinCollaborators</text></g><!--class AgendaEntry--><g id="elem_AgendaEntry"><rect codeLine="30" fill="#F1F1F1" height="92.4844" id="AgendaEntry" rx="2.5" ry="2.5" style="stroke:#181818;stroke-width:0.5;" width="94" x="97.5" y="7"/><text fill="#000000" font-family="sans-serif" font-size="14" lengthAdjust="spacing" textLength="82" x="103.5" y="27.1074">AgendaEntry</text><line style="stroke:#181818;stroke-width:0.5;" x1="98.5" x2="190.5" y1="35.6211" y2="35.6211"/><text fill="#000000" font-family="sans-serif" font-size="14" lengthAdjust="spacing" textLength="77" x="103.5" y="54.7285">startingDate</text><text fill="#000000" font-family="sans-serif" font-size="14" lengthAdjust="spacing" textLength="82" x="103.5" y="73.3496">finishingDate</text><text fill="#000000" font-family="sans-serif" font-size="14" lengthAdjust="spacing" textLength="38" x="103.5" y="91.9707">status</text></g><!--class Task--><g id="elem_Task"><rect codeLine="36" fill="#F1F1F1" height="73.8633" id="Task" rx="2.5" ry="2.5" style="stroke:#181818;stroke-width:0.5;" width="123" x="83" y="187"/><text fill="#000000" font-family="sans-serif" font-size="14" lengthAdjust="spacing" textLength="31" x="129" y="207.1074">Task</text><line style="stroke:#181818;stroke-width:0.5;" x1="84" x2="205" y1="215.6211" y2="215.6211"/><text fill="#000000" font-family="sans-serif" font-size="14" lengthAdjust="spacing" textLength="69" x="89" y="234.7285">description</text><text fill="#000000" font-family="sans-serif" font-size="14" lengthAdjust="spacing" textLength="111" x="89" y="253.3496">expectedDuration</text></g><!--class Skill--><g id="elem_Skill"><rect codeLine="41" fill="#F1F1F1" height="55.2422" id="Skill" rx="2.5" ry="2.5" style="stroke:#181818;stroke-width:0.5;" width="71" x="241" y="416"/><text fill="#000000" font-family="sans-serif" font-size="14" lengthAdjust="spacing" textLength="25" x="264" y="436.1074">Skill</text><line style="stroke:#181818;stroke-width:0.5;" x1="242" x2="311" y1="444.6211" y2="444.6211"/><text fill="#000000" font-family="sans-serif" font-size="14" lengthAdjust="spacing" textLength="59" x="247" y="463.7285">skillName</text></g><!--link Task to Agenda--><g id="link_Task_Agenda"><path codeLine="45" d="M123.86,261.07 C107.73,289.24 86.03,327.15 73.53,348.99 " fill="none" id="Task-Agenda" style="stroke:#181818;stroke-width:1.0;"/><polygon fill="#000000" points="106.984,305.3062,99.9398,311.696,105.0409,314.6162,106.984,305.3062" style="stroke:#000000;stroke-width:1.0;"/><text fill="#000000" font-family="sans-serif" font-size="13" lengthAdjust="spacing" textLength="56" x="113.5" y="315.0283">organizes</text><text fill="#000000" font-family="sans-serif" font-size="13" lengthAdjust="spacing" textLength="5" x="114.8828" y="282.9674">*</text><text fill="#000000" font-family="sans-serif" font-size="13" lengthAdjust="spacing" textLength="7" x="68.5298" y="337.8491">1</text></g><!--link AgendaEntry to Task--><g id="link_AgendaEntry_Task"><path codeLine="46" d="M144.5,99.29 C144.5,126.76 144.5,161.34 144.5,186.95 " fill="none" id="AgendaEntry-Task" style="stroke:#181818;stroke-width:1.0;"/><polygon fill="#000000" points="149.5,143.6455,152.4389,134.6004,146.5611,134.6004,149.5,143.6455" style="stroke:#000000;stroke-width:1.0;"/><text fill="#000000" font-family="sans-serif" font-size="13" lengthAdjust="spacing" textLength="86" x="158.5" y="144.0283">corresponds to</text><text fill="#000000" font-family="sans-serif" font-size="13" lengthAdjust="spacing" textLength="7" x="136.9859" y="121.3514">1</text><text fill="#000000" font-family="sans-serif" font-size="13" lengthAdjust="spacing" textLength="7" x="136.8547" y="175.6195">1</text></g><!--link Team to Collaborator--><g id="link_Team_Collaborator"><path codeLine="47" d="M327.21,270.21 C327.33,280.03 327.44,290.36 327.5,300 C328.01,376 336.22,395.5 327.5,471 C326.38,480.74 324.62,490.94 322.58,500.87 " fill="none" id="Team-Collaborator" style="stroke:#181818;stroke-width:1.0;"/><polygon fill="#000000" points="335.3997,372.6445,338.5195,363.6602,332.6428,363.5423,335.3997,372.6445" style="stroke:#000000;stroke-width:1.0;"/><text fill="#000000" font-family="sans-serif" font-size="13" lengthAdjust="spacing" textLength="35" x="344.5" y="373.0283">needs</text><text fill="#000000" font-family="sans-serif" font-size="13" lengthAdjust="spacing" textLength="5" x="321.9359" y="292.601">*</text><text fill="#000000" font-family="sans-serif" font-size="13" lengthAdjust="spacing" textLength="20" x="325.5419" y="489.8759">1..*</text></g><!--link Team to Skill--><g id="link_Team_Skill"><path codeLine="48" d="M288.05,270.22 C282.07,279.53 276.79,289.67 273.5,300 C261.18,338.8 265.93,386.57 270.91,415.77 " fill="none" id="Team-Skill" style="stroke:#181818;stroke-width:1.0;"/><polygon fill="#000000" points="277.9152,314.6112,281.8918,305.9719,276.0543,305.2845,277.9152,314.6112" style="stroke:#000000;stroke-width:1.0;"/><text fill="#000000" font-family="sans-serif" font-size="13" lengthAdjust="spacing" textLength="35" x="287.5" y="315.0283">needs</text><text fill="#000000" font-family="sans-serif" font-size="13" lengthAdjust="spacing" textLength="5" x="276.7795" y="292.6125">*</text><text fill="#000000" font-family="sans-serif" font-size="13" lengthAdjust="spacing" textLength="20" x="247.4997" y="404.8783">1..*</text></g><!--link Skill to Collaborator--><g id="link_Skill_Collaborator"><path codeLine="49" d="M282.94,471.24 C285.08,480.12 287.56,490.42 290.07,500.87 " fill="none" id="Skill-Collaborator" style="stroke:#181818;stroke-width:1.0;"/><polygon fill="#000000" points="290.1902,471.2443,289.449,480.7259,295.1637,479.3508,290.1902,471.2443" style="stroke:#000000;stroke-width:1.0;"/><text fill="#000000" font-family="sans-serif" font-size="13" lengthAdjust="spacing" textLength="21" x="300.36" y="481.4883">has</text><text fill="#000000" font-family="sans-serif" font-size="13" lengthAdjust="spacing" textLength="5" x="278.8019" y="493.2012">*</text><text fill="#000000" font-family="sans-serif" font-size="13" lengthAdjust="spacing" textLength="5" x="283.8632" y="493.2606">*</text></g><!--link Agenda to AgendaEntry--><g id="link_Agenda_AgendaEntry"><path codeLine="50" d="M54.21,348.99 C37.45,314.94 6,237.9 29.5,178 C43.23,143.01 71.98,112.01 97.3,89.76 " fill="none" id="Agenda-AgendaEntry" style="stroke:#181818;stroke-width:1.0;"/><polygon fill="#000000" points="35.3199,219.2132,30.9376,227.6539,36.7359,228.6177,35.3199,219.2132" style="stroke:#000000;stroke-width:1.0;"/><text fill="#000000" font-family="sans-serif" font-size="13" lengthAdjust="spacing" textLength="21" x="43.5" y="229.5283">has</text><text fill="#000000" font-family="sans-serif" font-size="13" lengthAdjust="spacing" textLength="7" x="43.2931" y="337.8491">1</text><text fill="#000000" font-family="sans-serif" font-size="13" lengthAdjust="spacing" textLength="5" x="84.3791" y="91.2768">*</text></g><!--link AgendaEntry to Team--><g id="link_AgendaEntry_Team"><path codeLine="51" d="M191.68,81.91 C211.8,94.92 234.88,111.42 253.5,129 C268.83,143.47 283.53,161.33 295.68,177.58 " fill="none" id="AgendaEntry-Team" style="stroke:#181818;stroke-width:1.0;"/><polygon fill="#000000" points="272.8202,135.2604,277.4873,143.5471,281.4668,139.2212,272.8202,135.2604" style="stroke:#000000;stroke-width:1.0;"/><text fill="#000000" font-family="sans-serif" font-size="13" lengthAdjust="spacing" textLength="84" x="285.5" y="144.0283">responsible for</text><text fill="#000000" font-family="sans-serif" font-size="13" lengthAdjust="spacing" textLength="5" x="199.5978" y="82.1758">*</text><text fill="#000000" font-family="sans-serif" font-size="13" lengthAdjust="spacing" textLength="7" x="283.8538" y="166.8716">1</text></g><!--SRC=[NLF1Rjim3BthAuXS2XHmiLw3eK2mzj33UbZw0xJ4s49aoI3fDLdHVwyinuazNsG_FfBlaR8SVUoHiOCknMHRJXs1ya16hf4UxH4Rskiv431PnTY49K5QTEd3nmOE68ICkGjqKD04x9jMmVanowTe5aaseCXEbNqzABtQ5FV-7y4FOrhl2AndcvkKzuwqJKwCAJcmQoWwX4_pDIE_KWXO9qPDd778J-rPMuTAvGjTvqMoWkSPeGvzs3d79580nLEFP-AteQk92vIq9Vv3WVvYrDTuIDnXiN5j_4xPoQTn99PzNsAnvF_6qrAKpB2FQ_XMQdBr4fNF5mkYo9gdUjLyyD5BkqGoHGTPw44vJibBISNlgSyx8FSyy7yUzaSVGcufu_c67OsXoumtZnkeXhw2pVsc58Sj96umvbK9F9cbwCAjod5XsiHvl7sAJiRBy6JAk7Afgl0U7dBHrUgs48cSh9WpSP9vOwmIHtdLUEacfJEtnPl8gxuSNyfUiovMxczMHY5Rc7o8h_ClaEy1_3Jc6m00]--></g></svg>