<?xml version="1.0" encoding="us-ascii" standalone="no"?><svg xmlns="http://www.w3.org/2000/svg" xmlns:xlink="http://www.w3.org/1999/xlink" contentStyleType="text/css" height="1320px" preserveAspectRatio="none" style="width:1291px;height:1320px;background:#FFFFFF;" version="1.1" viewBox="0 0 1291 1320" width="1291px" zoomAndPan="magnify"><defs/><g><text fill="#000000" font-family="sans-serif" font-size="14" font-weight="bold" lengthAdjust="spacing" textLength="111" x="583.2142" y="25.1074">System Diagram</text><!--entity sqatm--><g id="elem_sqatm"><ellipse cx="383" cy="1245.6211" fill="#F1F1F1" rx="8" ry="8" style="stroke:#181818;stroke-width:0.5;"/><path d="M383,1253.6211 L383,1280.6211 M370,1261.6211 L396,1261.6211 M383,1280.6211 L370,1295.6211 M383,1280.6211 L396,1295.6211 " fill="none" style="stroke:#181818;stroke-width:0.5;"/><text fill="#000000" font-family="sans-serif" font-size="14" lengthAdjust="spacing" textLength="283" x="241.5" y="1312.2285">Software Quality Assessment Team Manager</text></g><!--entity gsm--><g id="elem_gsm"><ellipse cx="1052.5" cy="860.6211" fill="#F1F1F1" rx="8" ry="8" style="stroke:#181818;stroke-width:0.5;"/><path d="M1052.5,868.6211 L1052.5,895.6211 M1039.5,876.6211 L1065.5,876.6211 M1052.5,895.6211 L1039.5,910.6211 M1052.5,895.6211 L1065.5,910.6211 " fill="none" style="stroke:#181818;stroke-width:0.5;"/><text fill="#000000" font-family="sans-serif" font-size="14" lengthAdjust="spacing" textLength="144" x="980.5" y="927.2285">Green Space Manager</text></g><!--entity hmr--><g id="elem_hmr"><ellipse cx="383" cy="483.6211" fill="#F1F1F1" rx="8" ry="8" style="stroke:#181818;stroke-width:0.5;"/><path d="M383,491.6211 L383,518.6211 M370,499.6211 L396,499.6211 M383,518.6211 L370,533.6211 M383,518.6211 L396,533.6211 " fill="none" style="stroke:#181818;stroke-width:0.5;"/><text fill="#000000" font-family="sans-serif" font-size="14" lengthAdjust="spacing" textLength="176" x="295" y="550.2285">Human Resources Manager</text></g><!--entity fm--><g id="elem_fm"><ellipse cx="1052.5" cy="156.6211" fill="#F1F1F1" rx="8" ry="8" style="stroke:#181818;stroke-width:0.5;"/><path d="M1052.5,164.6211 L1052.5,191.6211 M1039.5,172.6211 L1065.5,172.6211 M1052.5,191.6211 L1039.5,206.6211 M1052.5,191.6211 L1065.5,206.6211 " fill="none" style="stroke:#181818;stroke-width:0.5;"/><text fill="#000000" font-family="sans-serif" font-size="14" lengthAdjust="spacing" textLength="92" x="1006.5" y="223.2285">Fleet Manager</text></g><g id="elem_Function9"><ellipse cx="383.2064" cy="644.5624" fill="#F1F1F1" rx="262.7064" ry="54.9413" style="stroke:#181818;stroke-width:0.5;"/><text fill="#000000" font-family="sans-serif" font-size="14" lengthAdjust="spacing" textLength="499" x="133.7064" y="648.3592">Analise precise expenses relating to water consumption of specific green space</text></g><g id="elem_Function10"><ellipse cx="383.0073" cy="777.5226" fill="#F1F1F1" rx="202.5073" ry="42.9015" style="stroke:#181818;stroke-width:0.5;"/><text fill="#000000" font-family="sans-serif" font-size="14" lengthAdjust="spacing" textLength="376" x="195.0073" y="781.3194">Identify which piece(s) of equipment is/are used in each day</text></g><g id="elem_Function11"><ellipse cx="382.7564" cy="891.3724" fill="#F1F1F1" rx="166.7564" ry="35.7513" style="stroke:#181818;stroke-width:0.5;"/><text fill="#000000" font-family="sans-serif" font-size="14" lengthAdjust="spacing" textLength="302" x="231.7564" y="895.1692">Collect data from the user portal about park use</text></g><g id="elem_Function12"><ellipse cx="383.0008" cy="986.4212" fill="#F1F1F1" rx="107.0008" ry="23.8002" style="stroke:#181818;stroke-width:0.5;"/><text fill="#000000" font-family="sans-serif" font-size="14" lengthAdjust="spacing" textLength="174" x="296.0008" y="990.2181">Import a .csv file with routes</text></g><g id="elem_Function13"><ellipse cx="382.9093" cy="1123.403" fill="#F1F1F1" rx="376.9093" ry="77.7819" style="stroke:#181818;stroke-width:0.5;"/><text fill="#000000" font-family="sans-serif" font-size="14" lengthAdjust="spacing" textLength="730" x="17.9093" y="1127.1998">Apply an algorithm that returns the routes to be opened and pipes needed to be laid with the least accumulated cost</text></g><g id="elem_Function14"><ellipse cx="1052.3248" cy="1276.4861" fill="#F1F1F1" rx="137.3248" ry="29.865" style="stroke:#181818;stroke-width:0.5;"/><text fill="#000000" font-family="sans-serif" font-size="14" lengthAdjust="spacing" textLength="240" x="932.3248" y="1280.2829">Run tests for inputs with variable sizes</text></g><g id="elem_Function1"><ellipse cx="1052.603" cy="296.8417" fill="#F1F1F1" rx="159.103" ry="34.2206" style="stroke:#181818;stroke-width:0.5;"/><text fill="#000000" font-family="sans-serif" font-size="14" lengthAdjust="spacing" textLength="286" x="909.603" y="300.6386">Registers skills that a collaborator could have</text></g><g id="elem_Function2"><ellipse cx="1052.4039" cy="400.7019" fill="#F1F1F1" rx="163.4039" ry="35.0808" style="stroke:#181818;stroke-width:0.5;"/><text fill="#000000" font-family="sans-serif" font-size="14" lengthAdjust="spacing" textLength="295" x="904.9039" y="404.4987">Registers a job that a collaborator should have</text></g><g id="elem_Function3"><ellipse cx="1052.4526" cy="514.4116" fill="#F1F1F1" rx="204.4526" ry="43.2905" style="stroke:#181818;stroke-width:0.5;"/><text fill="#000000" font-family="sans-serif" font-size="14" lengthAdjust="spacing" textLength="380" x="862.4526" y="518.2085">Registers a collaborator with a job and fundamental features</text></g><g id="elem_Function4"><ellipse cx="1052.7142" cy="642.5639" fill="#F1F1F1" rx="232.7142" ry="48.9428" style="stroke:#181818;stroke-width:0.5;"/><text fill="#000000" font-family="sans-serif" font-size="14" lengthAdjust="spacing" textLength="394" x="855.7142" y="637.0503">Assigns one or more skills to a collaborator to ensure accurate</text><text fill="#000000" font-family="sans-serif" font-size="14" lengthAdjust="spacing" textLength="404" x="852.7142" y="655.6714">representation of their expertise within the organizational system</text></g><g id="elem_Function5"><ellipse cx="1052.2633" cy="756.6738" fill="#F1F1F1" rx="138.2633" ry="30.0527" style="stroke:#181818;stroke-width:0.5;"/><text fill="#000000" font-family="sans-serif" font-size="14" lengthAdjust="spacing" textLength="242" x="931.2633" y="760.4706">Creates a team proposal automatically</text></g><g id="elem_Function6"><ellipse cx="382.9545" cy="85.612" fill="#F1F1F1" rx="187.9545" ry="39.9909" style="stroke:#181818;stroke-width:0.5;"/><text fill="#000000" font-family="sans-serif" font-size="14" lengthAdjust="spacing" textLength="346" x="209.9545" y="89.4089">Registers a vehicle including the requested information</text></g><g id="elem_Function7"><ellipse cx="383.1059" cy="187.6423" fill="#F1F1F1" rx="120.6059" ry="26.5212" style="stroke:#181818;stroke-width:0.5;"/><text fill="#000000" font-family="sans-serif" font-size="14" lengthAdjust="spacing" textLength="204" x="281.1059" y="191.4392">Registers the vehicle's check-up</text></g><g id="elem_Function8"><ellipse cx="383.1144" cy="281.844" fill="#F1F1F1" rx="149.1144" ry="32.2229" style="stroke:#181818;stroke-width:0.5;"/><text fill="#000000" font-family="sans-serif" font-size="14" lengthAdjust="spacing" textLength="265" x="250.6144" y="285.6408">Lists the vehicles that need to be checked</text></g><!--link hmr to Function1--><g id="link_hmr_Function1"><path d="M471.24,477.1711 C558.36,440.7811 696.68,385.7411 820,348.6211 C856.88,337.5211 891.84,328.8798 928.81,320.7498 " fill="none" id="hmr-to-Function1" style="stroke:#181818;stroke-width:1.0;"/><polygon fill="#181818" points="934.67,319.4611,925.0209,317.4874,929.7867,320.535,926.7391,325.3007,934.67,319.4611" style="stroke:#181818;stroke-width:1.0;"/></g><!--link hmr to Function2--><g id="link_hmr_Function2"><path d="M471.26,499.7211 C586.82,479.9811 785.5356,446.0412 918.3256,423.3612 " fill="none" id="hmr-to-Function2" style="stroke:#181818;stroke-width:1.0;"/><polygon fill="#181818" points="924.24,422.3511,914.695,419.9234,919.3114,423.1929,916.0419,427.8092,924.24,422.3511" style="stroke:#181818;stroke-width:1.0;"/></g><!--link hmr to Function3--><g id="link_hmr_Function3"><path d="M471.26,514.6211 C566.32,514.6211 715.66,514.6211 841.7,514.6211 " fill="none" id="hmr-to-Function3" style="stroke:#181818;stroke-width:1.0;"/><polygon fill="#181818" points="847.7,514.6211,838.7,510.6211,842.7,514.6211,838.7,518.6211,847.7,514.6211" style="stroke:#181818;stroke-width:1.0;"/></g><!--link hmr to Function4--><g id="link_hmr_Function4"><path d="M471.35,526.0111 C547.78,536.4711 661.66,553.2611 760,572.6211 C807.24,581.9211 852.5589,592.2276 898.6389,603.3976 " fill="none" id="hmr-to-Function4" style="stroke:#181818;stroke-width:1.0;"/><polygon fill="#181818" points="904.47,604.8111,896.6656,598.8034,899.6107,603.6332,894.781,606.5783,904.47,604.8111" style="stroke:#181818;stroke-width:1.0;"/></g><!--link hmr to Function5--><g id="link_hmr_Function5"><path d="M471.14,505.6311 C553.83,501.8411 677.4,509.1111 760,572.6211 C812.69,613.1411 768.28,667.8711 820,709.6211 C847.2,731.5811 876.08,742.9369 910.35,749.8969 " fill="none" id="hmr-to-Function5" style="stroke:#181818;stroke-width:1.0;"/><polygon fill="#181818" points="916.23,751.0911,908.2062,745.3799,911.33,750.0959,906.6139,753.2198,916.23,751.0911" style="stroke:#181818;stroke-width:1.0;"/></g><!--reverse link Function6 to fm--><g id="link_Function6_fm"><path d="M542.2311,109.7976 C693.8311,132.9676 911.27,166.1911 1006.18,180.6911 " fill="none" id="Function6-backto-fm" style="stroke:#181818;stroke-width:1.0;"/><polygon fill="#181818" points="536.3,108.8911,544.5924,114.2049,541.2426,109.6465,545.801,106.2967,536.3,108.8911" style="stroke:#181818;stroke-width:1.0;"/></g><!--reverse link Function7 to fm--><g id="link_Function7_fm"><path d="M509.72,187.6211 C659.98,187.6211 904.34,187.6211 1006.26,187.6211 " fill="none" id="Function7-backto-fm" style="stroke:#181818;stroke-width:1.0;"/><polygon fill="#181818" points="503.72,187.6211,512.72,191.6211,508.72,187.6211,512.72,183.6211,503.72,187.6211" style="stroke:#181818;stroke-width:1.0;"/></g><!--reverse link Function8 to fm--><g id="link_Function8_fm"><path d="M517.0796,264.5047 C589.9596,254.9947 677.2,243.3711 760,231.6211 C847.16,219.2511 948.78,203.6411 1006.09,194.7311 " fill="none" id="Function8-backto-fm" style="stroke:#181818;stroke-width:1.0;"/><polygon fill="#181818" points="511.13,265.2811,520.5719,268.0829,516.088,264.6341,519.5368,260.1502,511.13,265.2811" style="stroke:#181818;stroke-width:1.0;"/></g><!--reverse link Function9 to gsm--><g id="link_Function9_gsm"><path d="M635.1775,665.2994 C681.1175,676.5594 721.05,692.1311 760,717.6211 C799.3,743.3411 782.99,775.7011 820,804.6211 C867.11,841.4311 931.47,863.9411 980.37,876.8111 " fill="none" id="Function9-backto-gsm" style="stroke:#181818;stroke-width:1.0;"/><polygon fill="#181818" points="629.35,663.8711,637.139,669.8986,634.2063,665.0614,639.0435,662.1286,629.35,663.8711" style="stroke:#181818;stroke-width:1.0;"/></g><!--reverse link Function10 to gsm--><g id="link_Function10_gsm"><path d="M551.9741,804.1726 C618.3441,814.8326 689.94,826.5711 760,838.6211 C835.28,851.5711 921.31,867.3311 980.29,878.2811 " fill="none" id="Function10-backto-gsm" style="stroke:#181818;stroke-width:1.0;"/><polygon fill="#181818" points="546.05,803.2211,554.3018,808.5977,550.9867,804.014,555.5704,800.699,546.05,803.2211" style="stroke:#181818;stroke-width:1.0;"/></g><!--reverse link Function11 to gsm--><g id="link_Function11_gsm"><path d="M556.29,891.6211 C694.52,891.6211 878.49,891.6211 980.26,891.6211 " fill="none" id="Function11-backto-gsm" style="stroke:#181818;stroke-width:1.0;"/><polygon fill="#181818" points="550.29,891.6211,559.29,895.6211,555.29,891.6211,559.29,887.6211,550.29,891.6211" style="stroke:#181818;stroke-width:1.0;"/></g><!--reverse link Function12 to gsm--><g id="link_Function12_gsm"><path d="M488.7932,977.3043 C564.7732,970.0943 666.28,959.3911 760,945.6211 C835.62,934.5111 921.6,918.1211 980.47,906.3111 " fill="none" id="Function12-backto-gsm" style="stroke:#181818;stroke-width:1.0;"/><polygon fill="#181818" points="482.82,977.8711,492.1576,981.003,487.7976,977.3987,491.4019,973.0388,482.82,977.8711" style="stroke:#181818;stroke-width:1.0;"/></g><!--reverse link Function13 to gsm--><g id="link_Function13_gsm"><path d="M644.5965,1064.7149 C685.5265,1053.4949 721.33,1042.4511 760,1028.6211 C837.53,1000.9011 922.31,959.7411 980.36,929.7711 " fill="none" id="Function13-backto-gsm" style="stroke:#181818;stroke-width:1.0;"/><polygon fill="#181818" points="638.81,1066.3011,648.5473,1067.7794,643.6321,1064.9792,646.4323,1060.0641,638.81,1066.3011" style="stroke:#181818;stroke-width:1.0;"/></g><!--link sqatm to Function14--><g id="link_sqatm_Function14"><path d="M524.74,1276.6211 C639.68,1276.6211 795.15,1276.6211 908.94,1276.6211 " fill="none" id="sqatm-to-Function14" style="stroke:#181818;stroke-width:1.0;"/><polygon fill="#181818" points="914.94,1276.6211,905.94,1272.6211,909.94,1276.6211,905.94,1280.6211,914.94,1276.6211" style="stroke:#181818;stroke-width:1.0;"/></g><!--SRC=[RLJBRXin3BplLn2vj3suRHvz0KM184KVG7jeqcClZ9QxgqOhRKKfhllr7Sc9xRLzii4bHyFXa7fd_SIHHng33sQ8OHHACKkZcoywS1kMrlVKiTFTBsnIY3TfvOIYcCI-Tz8qoIO4RbQQPAIFbdkaDesJBb4A56q_96fjAR31DnM3Jcv2bvOSXNvaTZQjw59LL4VnYNuAtlhEddk99yHA-eVJ-5ZvEOfukfdOo2ofrqtAbpoofslHaACHdQKDOtnC- -H4qknZ1-9PnR0AdLnwCCEV2TJBh_oTn8CaUdUSYZveRyb98fdWDOzJQP12HpgXehE6-ifL2zUA_odxgiAxxIjVMxHiknKj1si6cgmOUQhF2epyoNQgYbXzKRH2KKlMap0oMrxDC4zVRa6lWdFG6pc9gSEGAGsrFD8KOc97V1jo8eprheJdGASxxCQIJqpFZTvJPp7efKq3HLIBpilETgIR9hSYp81T7o8A2W5EK2xbwBMoMKCK3M-50gH5R-nRA30Xx4LQ1DPV7Tjs_MufTC8AIiRaCMCGo391qvpB-PRBTVQ4XnAcYw73oXb_AzWzHyktQ4djl_rcBdO0fBVmTeGFxwnpkcw5yQfpa35oCPC9sRKqyFsUbiTWc7w7swCeEXo7EJiECwkjBQsXYunTzYqNys3OdJ1qtsjnHoBidkqnbk0nYOZJ0AyzzXhstq44Qm2uEWB4v9V7OB4bMbvxt05CoiQwCp6LxIdqODqom11xzlPVJGKxhPTZncr7_Qi8ybAwJUKiJ35CGOk1SmeZ80mxDr-4LyV5kXSi68PjlN6vhUjRN8WbWpdgNi4VOoKrWtjz3AwKFW0-KJA3cBj5dcPrRxPrtsontqxDWuUAoHyiNY6adI6yRHfSAreiFkpuQJzoTX0vFuXS74HUDPlswFrYKGxVXlT-uEr-u5qDb7kxlJqbD8kS7YQT7IITRvBgYP-tUl4V]--></g></svg>