<svg xmlns="http://www.w3.org/2000/svg" xmlns:xlink="http://www.w3.org/1999/xlink" contentStyleType="text/css" height="566px" preserveAspectRatio="none" style="width:552px;height:566px;background:#FFFFFF;" version="1.1" viewBox="0 0 552 566" width="552px" zoomAndPan="magnify"><defs/><g><rect fill="#FFFFFF" height="380.4922" style="stroke:#181818;stroke-width:1.0;" width="10" x="46.2861" y="93.6211"/><rect fill="#FFFFFF" height="31.291" style="stroke:#181818;stroke-width:1.0;" width="10" x="489.6538" y="116.9121"/><rect fill="#FFFFFF" height="31.291" style="stroke:#181818;stroke-width:1.0;" width="10" x="489.6538" y="179.4941"/><rect fill="#FFFFFF" height="83.873" style="stroke:#181818;stroke-width:1.0;" width="10" x="489.6538" y="242.0762"/><rect fill="#FFFFFF" height="45.291" style="stroke:#181818;stroke-width:1.0;" width="10" x="489.6538" y="357.2402"/><rect fill="#FFFFFF" height="31.291" style="stroke:#181818;stroke-width:1.0;" width="10" x="489.6538" y="433.8223"/><rect fill="none" height="115.1641" style="stroke:#000000;stroke-width:1.5;" width="536.9365" x="10" y="257.0762"/><rect fill="none" height="81.873" style="stroke:#000000;stroke-width:1.5;" width="516.9365" x="20" y="283.3672"/><line style="stroke:#181818;stroke-width:0.5;stroke-dasharray:5.0,5.0;" x1="51" x2="51" y1="83.6211" y2="483.1133"/><line style="stroke:#181818;stroke-width:0.5;stroke-dasharray:5.0,5.0;" x1="494.3711" x2="494.3711" y1="83.6211" y2="483.1133"/><text fill="#000000" font-family="sans-serif" font-size="14" lengthAdjust="spacing" textLength="36.5723" x="30" y="80.1074">Editor</text><ellipse cx="51.2861" cy="13.5" fill="#E3E3E3" rx="8" ry="8" style="stroke:#181818;stroke-width:0.5;"/><path d="M51.2861,21.5 L51.2861,48.5 M38.2861,29.5 L64.2861,29.5 M51.2861,48.5 L38.2861,63.5 M51.2861,48.5 L64.2861,63.5 " fill="none" style="stroke:#181818;stroke-width:0.5;"/><text fill="#000000" font-family="sans-serif" font-size="14" lengthAdjust="spacing" textLength="36.5723" x="30" y="497.2207">Editor</text><ellipse cx="51.2861" cy="509.2344" fill="#E3E3E3" rx="8" ry="8" style="stroke:#181818;stroke-width:0.5;"/><path d="M51.2861,517.2344 L51.2861,544.2344 M38.2861,525.2344 L64.2861,525.2344 M51.2861,544.2344 L38.2861,559.2344 M51.2861,544.2344 L64.2861,559.2344 " fill="none" style="stroke:#181818;stroke-width:0.5;"/><rect fill="#E3E3E3" height="32.6211" rx="2.5" ry="2.5" style="stroke:#181818;stroke-width:0.5;" width="64.5654" x="462.3711" y="50"/><text fill="#000000" font-family="sans-serif" font-size="14" lengthAdjust="spacing" textLength="50.5654" x="469.3711" y="72.1074">:System</text><rect fill="#E3E3E3" height="32.6211" rx="2.5" ry="2.5" style="stroke:#181818;stroke-width:0.5;" width="64.5654" x="462.3711" y="482.1133"/><text fill="#000000" font-family="sans-serif" font-size="14" lengthAdjust="spacing" textLength="50.5654" x="469.3711" y="504.2207">:System</text><rect fill="#FFFFFF" height="380.4922" style="stroke:#181818;stroke-width:1.0;" width="10" x="46.2861" y="93.6211"/><rect fill="#FFFFFF" height="31.291" style="stroke:#181818;stroke-width:1.0;" width="10" x="489.6538" y="116.9121"/><rect fill="#FFFFFF" height="31.291" style="stroke:#181818;stroke-width:1.0;" width="10" x="489.6538" y="179.4941"/><rect fill="#FFFFFF" height="83.873" style="stroke:#181818;stroke-width:1.0;" width="10" x="489.6538" y="242.0762"/><rect fill="#FFFFFF" height="45.291" style="stroke:#181818;stroke-width:1.0;" width="10" x="489.6538" y="357.2402"/><rect fill="#FFFFFF" height="31.291" style="stroke:#181818;stroke-width:1.0;" width="10" x="489.6538" y="433.8223"/><polygon fill="#181818" points="477.6538,112.9121,487.6538,116.9121,477.6538,120.9121,481.6538,116.9121" style="stroke:#181818;stroke-width:1.0;"/><line style="stroke:#181818;stroke-width:1.0;" x1="56.2861" x2="483.6538" y1="116.9121" y2="116.9121"/><text fill="#000000" font-family="sans-serif" font-size="13" font-weight="bold" lengthAdjust="spacing" textLength="7.23" x="63.2861" y="111.6494">1</text><text fill="#000000" font-family="sans-serif" font-size="13" lengthAdjust="spacing" textLength="165.4707" x="74.5161" y="111.6494">requests to create a new city</text><polygon fill="#181818" points="67.2861,144.2031,57.2861,148.2031,67.2861,152.2031,63.2861,148.2031" style="stroke:#181818;stroke-width:1.0;"/><line style="stroke:#181818;stroke-width:1.0;stroke-dasharray:2.0,2.0;" x1="61.2861" x2="493.6538" y1="148.2031" y2="148.2031"/><text fill="#000000" font-family="sans-serif" font-size="13" font-weight="bold" lengthAdjust="spacing" textLength="7.23" x="73.2861" y="142.9404">2</text><text fill="#000000" font-family="sans-serif" font-size="13" lengthAdjust="spacing" textLength="292.6396" x="84.5161" y="142.9404">requests data (Name, Location XY, numberBlocks)</text><polygon fill="#181818" points="477.6538,175.4941,487.6538,179.4941,477.6538,183.4941,481.6538,179.4941" style="stroke:#181818;stroke-width:1.0;"/><line style="stroke:#181818;stroke-width:1.0;" x1="56.2861" x2="483.6538" y1="179.4941" y2="179.4941"/><text fill="#000000" font-family="sans-serif" font-size="13" font-weight="bold" lengthAdjust="spacing" textLength="7.23" x="63.2861" y="174.2314">3</text><text fill="#000000" font-family="sans-serif" font-size="13" lengthAdjust="spacing" textLength="139.4834" x="74.5161" y="174.2314">provides requested data</text><polygon fill="#181818" points="67.2861,206.7852,57.2861,210.7852,67.2861,214.7852,63.2861,210.7852" style="stroke:#181818;stroke-width:1.0;"/><line style="stroke:#181818;stroke-width:1.0;stroke-dasharray:2.0,2.0;" x1="61.2861" x2="493.6538" y1="210.7852" y2="210.7852"/><text fill="#000000" font-family="sans-serif" font-size="13" font-weight="bold" lengthAdjust="spacing" textLength="7.23" x="73.2861" y="205.5225">4</text><text fill="#000000" font-family="sans-serif" font-size="13" lengthAdjust="spacing" textLength="398.1377" x="84.5161" y="205.5225">shows assignment types and asks to select one (Manual / Automatic)</text><polygon fill="#181818" points="477.6538,238.0762,487.6538,242.0762,477.6538,246.0762,481.6538,242.0762" style="stroke:#181818;stroke-width:1.0;"/><line style="stroke:#181818;stroke-width:1.0;" x1="56.2861" x2="483.6538" y1="242.0762" y2="242.0762"/><text fill="#000000" font-family="sans-serif" font-size="13" font-weight="bold" lengthAdjust="spacing" textLength="7.23" x="63.2861" y="236.8135">5</text><text fill="#000000" font-family="sans-serif" font-size="13" lengthAdjust="spacing" textLength="138.7344" x="74.5161" y="236.8135">selects assignment type</text><path d="M10,257.0762 L75.2109,257.0762 L75.2109,266.3672 L65.2109,276.3672 L10,276.3672 L10,257.0762 " fill="#EEEEEE" style="stroke:#000000;stroke-width:1.5;"/><rect fill="none" height="115.1641" style="stroke:#000000;stroke-width:1.5;" width="536.9365" x="10" y="257.0762"/><text fill="#000000" font-family="sans-serif" font-size="13" font-weight="bold" lengthAdjust="spacing" textLength="20.2109" x="25" y="272.1045">opt</text><text fill="#000000" font-family="sans-serif" font-size="11" font-weight="bold" lengthAdjust="spacing" textLength="111.23" x="90.2109" y="270.9463">[Manual Assignment]</text><path d="M20,283.3672 L92.4346,283.3672 L92.4346,292.6582 L82.4346,302.6582 L20,302.6582 L20,283.3672 " fill="#EEEEEE" style="stroke:#000000;stroke-width:1.5;"/><rect fill="none" height="81.873" style="stroke:#000000;stroke-width:1.5;" width="516.9365" x="20" y="283.3672"/><text fill="#000000" font-family="sans-serif" font-size="13" font-weight="bold" lengthAdjust="spacing" textLength="27.4346" x="35" y="298.3955">loop</text><text fill="#000000" font-family="sans-serif" font-size="11" font-weight="bold" lengthAdjust="spacing" textLength="115.5269" x="107.4346" y="297.2373">[numberBlocks times]</text><polygon fill="#181818" points="67.2861,321.9492,57.2861,325.9492,67.2861,329.9492,63.2861,325.9492" style="stroke:#181818;stroke-width:1.0;"/><line style="stroke:#181818;stroke-width:1.0;stroke-dasharray:2.0,2.0;" x1="61.2861" x2="493.6538" y1="325.9492" y2="325.9492"/><text fill="#000000" font-family="sans-serif" font-size="13" font-weight="bold" lengthAdjust="spacing" textLength="7.23" x="73.2861" y="320.6865">6</text><text fill="#000000" font-family="sans-serif" font-size="13" lengthAdjust="spacing" textLength="111.998" x="84.5161" y="320.6865">requests data(X, Y)</text><polygon fill="#181818" points="477.6538,353.2402,487.6538,357.2402,477.6538,361.2402,481.6538,357.2402" style="stroke:#181818;stroke-width:1.0;"/><line style="stroke:#181818;stroke-width:1.0;" x1="56.2861" x2="483.6538" y1="357.2402" y2="357.2402"/><text fill="#000000" font-family="sans-serif" font-size="13" font-weight="bold" lengthAdjust="spacing" textLength="7.23" x="63.2861" y="351.9775">7</text><text fill="#000000" font-family="sans-serif" font-size="13" lengthAdjust="spacing" textLength="154.6416" x="74.5161" y="351.9775">types requested data(X, Y)</text><polygon fill="#181818" points="67.2861,398.5313,57.2861,402.5313,67.2861,406.5313,63.2861,402.5313" style="stroke:#181818;stroke-width:1.0;"/><line style="stroke:#181818;stroke-width:1.0;stroke-dasharray:2.0,2.0;" x1="61.2861" x2="493.6538" y1="402.5313" y2="402.5313"/><text fill="#000000" font-family="sans-serif" font-size="13" font-weight="bold" lengthAdjust="spacing" textLength="7.23" x="73.2861" y="397.2686">8</text><text fill="#000000" font-family="sans-serif" font-size="13" lengthAdjust="spacing" textLength="276.7769" x="84.5161" y="397.2686">displays entered data and requests confirmation</text><polygon fill="#181818" points="477.6538,429.8223,487.6538,433.8223,477.6538,437.8223,481.6538,433.8223" style="stroke:#181818;stroke-width:1.0;"/><line style="stroke:#181818;stroke-width:1.0;" x1="56.2861" x2="483.6538" y1="433.8223" y2="433.8223"/><text fill="#000000" font-family="sans-serif" font-size="13" font-weight="bold" lengthAdjust="spacing" textLength="7.23" x="63.2861" y="428.5596">9</text><text fill="#000000" font-family="sans-serif" font-size="13" lengthAdjust="spacing" textLength="78.0317" x="74.5161" y="428.5596">confirms data</text><polygon fill="#181818" points="67.2861,461.1133,57.2861,465.1133,67.2861,469.1133,63.2861,465.1133" style="stroke:#181818;stroke-width:1.0;"/><line style="stroke:#181818;stroke-width:1.0;stroke-dasharray:2.0,2.0;" x1="61.2861" x2="493.6538" y1="465.1133" y2="465.1133"/><text fill="#000000" font-family="sans-serif" font-size="13" font-weight="bold" lengthAdjust="spacing" textLength="14.46" x="73.2861" y="459.8506">10</text><text fill="#000000" font-family="sans-serif" font-size="13" lengthAdjust="spacing" textLength="97.5381" x="91.7461" y="459.8506">displays success</text><!--SRC=[dLB1Ri8m3BtdAonE837jpc4IatRRTk42Hoyr9QA9izW5zUyNsbA1QALjkTID_PxVioD75o8czE0vi3qazWIQQZ8oP2BQ8vQqqQOYI6GLGrdT5iW12pwxKC8UAo5Zi5OEjV-Yb6Ehd63sLhZydG4ATA79M7NMHGmAizMc4INVvhkmHReJAbq11lBfOdXwwSjWbILzroGge0msqGM14EWCrcdJWWQcApNqf-TuodGzyGrTWOem_qHFItXdY-eum7QtXCxQQyNsA8kMgw3H5YDYO-AJAqYkRQXe-qpB79Ce1pvB7fMuCdZAyzCcPaeCHRuyjeCGglAcW0F1_0D3ZHKymphlnMSVTc7-ABkZU-WvAljonr6XRxiU8CFOA-PuDqLGvqc6_AzMCzykORUumppwkSsEsEhcTh-A4TufLie3ltWn_S_qnWediS96SfLIwZkr2niyMGvxbtpxpCoqcn4NFLB-yP86NL9RIo8JZNy0]--></g></svg>