<?xml version="1.0" encoding="us-ascii" standalone="no"?><svg xmlns="http://www.w3.org/2000/svg" xmlns:xlink="http://www.w3.org/1999/xlink" contentStyleType="text/css" height="606px" preserveAspectRatio="none" style="width:776px;height:606px;background:#FFFFFF;" version="1.1" viewBox="0 0 776 606" width="776px" zoomAndPan="magnify"><defs/><g><text fill="#000000" font-family="sans-serif" font-size="14" font-weight="bold" lengthAdjust="spacing" textLength="276" x="251.5" y="27.6738">System Sequence Diagram (SSD) - US05</text><rect fill="#FFFFFF" height="358.8047" style="stroke:#181818;stroke-width:1.0;" width="10" x="78" y="142.9219"/><rect fill="#FFFFFF" height="43.0469" style="stroke:#181818;stroke-width:1.0;" width="10" x="510" y="163.4453"/><rect fill="#FFFFFF" height="43.0469" style="stroke:#181818;stroke-width:1.0;" width="10" x="510" y="235.0156"/><rect fill="#FFFFFF" height="93.5703" style="stroke:#181818;stroke-width:1.0;" width="10" x="510" y="306.5859"/><rect fill="#FFFFFF" height="64.0469" style="stroke:#181818;stroke-width:1.0;" width="10" x="510" y="428.6797"/><rect fill="none" height="115.0938" style="stroke:#000000;stroke-width:1.5;" width="760" x="10" y="321.5859"/><line style="stroke:#181818;stroke-width:0.5;stroke-dasharray:5.0,5.0;" x1="83" x2="83" y1="132.9219" y2="510.7266"/><line style="stroke:#181818;stroke-width:0.5;stroke-dasharray:5.0,5.0;" x1="515" x2="515" y1="132.9219" y2="510.7266"/><text fill="#000000" font-family="sans-serif" font-size="14" lengthAdjust="spacing" textLength="116" x="20" y="114.3145">Human Resources</text><text fill="#000000" font-family="sans-serif" font-size="14" lengthAdjust="spacing" textLength="56" x="52" y="129.9551">Manager</text><ellipse cx="83" cy="50.1406" fill="#E3E3E3" rx="8" ry="8" style="stroke:#181818;stroke-width:0.5;"/><path d="M83,58.1406 L83,85.1406 M70,66.1406 L96,66.1406 M83,85.1406 L70,100.1406 M83,85.1406 L96,100.1406 " fill="none" style="stroke:#181818;stroke-width:0.5;"/><text fill="#000000" font-family="sans-serif" font-size="14" lengthAdjust="spacing" textLength="116" x="20" y="522.4004">Human Resources</text><text fill="#000000" font-family="sans-serif" font-size="14" lengthAdjust="spacing" textLength="56" x="52" y="538.041">Manager</text><ellipse cx="83" cy="549.5078" fill="#E3E3E3" rx="8" ry="8" style="stroke:#181818;stroke-width:0.5;"/><path d="M83,557.5078 L83,584.5078 M70,565.5078 L96,565.5078 M83,584.5078 L70,599.5078 M83,584.5078 L96,599.5078 " fill="none" style="stroke:#181818;stroke-width:0.5;"/><rect fill="#E3E3E3" height="29.6406" rx="2.5" ry="2.5" style="stroke:#181818;stroke-width:0.5;" width="64" x="483" y="102.2813"/><text fill="#000000" font-family="sans-serif" font-size="14" lengthAdjust="spacing" textLength="50" x="490" y="121.9551">:System</text><rect fill="#E3E3E3" height="29.6406" rx="2.5" ry="2.5" style="stroke:#181818;stroke-width:0.5;" width="64" x="483" y="509.7266"/><text fill="#000000" font-family="sans-serif" font-size="14" lengthAdjust="spacing" textLength="50" x="490" y="529.4004">:System</text><rect fill="#FFFFFF" height="358.8047" style="stroke:#181818;stroke-width:1.0;" width="10" x="78" y="142.9219"/><rect fill="#FFFFFF" height="43.0469" style="stroke:#181818;stroke-width:1.0;" width="10" x="510" y="163.4453"/><rect fill="#FFFFFF" height="43.0469" style="stroke:#181818;stroke-width:1.0;" width="10" x="510" y="235.0156"/><rect fill="#FFFFFF" height="93.5703" style="stroke:#181818;stroke-width:1.0;" width="10" x="510" y="306.5859"/><rect fill="#FFFFFF" height="64.0469" style="stroke:#181818;stroke-width:1.0;" width="10" x="510" y="428.6797"/><polygon fill="#181818" points="498,159.4453,508,163.4453,498,167.4453,502,163.4453" style="stroke:#181818;stroke-width:1.0;"/><line style="stroke:#181818;stroke-width:1.0;" x1="88" x2="504" y1="163.4453" y2="163.4453"/><text fill="#000000" font-family="sans-serif" font-size="13" font-weight="bold" lengthAdjust="spacing" textLength="7" x="95" y="158.6904">1</text><text fill="#000000" font-family="sans-serif" font-size="13" lengthAdjust="spacing" textLength="315" x="106" y="158.6904">Requests an automatic submission of a team proposal</text><polygon fill="#181818" points="99,202.4922,89,206.4922,99,210.4922,95,206.4922" style="stroke:#181818;stroke-width:1.0;"/><line style="stroke:#181818;stroke-width:1.0;stroke-dasharray:2.0,2.0;" x1="93" x2="514" y1="206.4922" y2="206.4922"/><text fill="#000000" font-family="sans-serif" font-size="13" font-weight="bold" lengthAdjust="spacing" textLength="7" x="105" y="194.4756">2</text><text fill="#000000" font-family="sans-serif" font-size="13" lengthAdjust="spacing" textLength="247" x="116" y="187.2139">displays the users who are available, along</text><text fill="#000000" font-family="sans-serif" font-size="13" lengthAdjust="spacing" textLength="258" x="120" y="201.7373">with their respective roles, for team formation</text><polygon fill="#181818" points="498,231.0156,508,235.0156,498,239.0156,502,235.0156" style="stroke:#181818;stroke-width:1.0;"/><line style="stroke:#181818;stroke-width:1.0;" x1="88" x2="504" y1="235.0156" y2="235.0156"/><text fill="#000000" font-family="sans-serif" font-size="13" font-weight="bold" lengthAdjust="spacing" textLength="7" x="95" y="230.2607">3</text><text fill="#000000" font-family="sans-serif" font-size="13" lengthAdjust="spacing" textLength="78" x="106" y="230.2607">selects users</text><polygon fill="#181818" points="99,274.0625,89,278.0625,99,282.0625,95,278.0625" style="stroke:#181818;stroke-width:1.0;"/><line style="stroke:#181818;stroke-width:1.0;stroke-dasharray:2.0,2.0;" x1="93" x2="514" y1="278.0625" y2="278.0625"/><text fill="#000000" font-family="sans-serif" font-size="13" font-weight="bold" lengthAdjust="spacing" textLength="7" x="105" y="266.0459">4</text><text fill="#000000" font-family="sans-serif" font-size="13" lengthAdjust="spacing" textLength="249" x="116" y="258.7842">asks for specifics regarding the team, such</text><text fill="#000000" font-family="sans-serif" font-size="13" lengthAdjust="spacing" textLength="267" x="116" y="273.3076">as the maximum team size and required skills</text><polygon fill="#181818" points="498,302.5859,508,306.5859,498,310.5859,502,306.5859" style="stroke:#181818;stroke-width:1.0;"/><line style="stroke:#181818;stroke-width:1.0;" x1="88" x2="504" y1="306.5859" y2="306.5859"/><text fill="#000000" font-family="sans-serif" font-size="13" font-weight="bold" lengthAdjust="spacing" textLength="7" x="95" y="301.8311">5</text><text fill="#000000" font-family="sans-serif" font-size="13" lengthAdjust="spacing" textLength="164" x="106" y="301.8311">offers details about the team</text><path d="M10,321.5859 L83,321.5859 L83,328.1094 L73,338.1094 L10,338.1094 L10,321.5859 " fill="#EEEEEE" style="stroke:#000000;stroke-width:1.5;"/><rect fill="none" height="115.0938" style="stroke:#000000;stroke-width:1.5;" width="760" x="10" y="321.5859"/><text fill="#000000" font-family="sans-serif" font-size="13" font-weight="bold" lengthAdjust="spacing" textLength="28" x="25" y="334.3545">loop</text><text fill="#000000" font-family="sans-serif" font-size="11" font-weight="bold" lengthAdjust="spacing" textLength="183" x="98" y="333.5439">[until team proposal is Accepted]</text><line style="stroke:#181818;stroke-width:1.0;stroke-dasharray:2.0,2.0;" x1="520" x2="562" y1="358.6328" y2="358.6328"/><line style="stroke:#181818;stroke-width:1.0;stroke-dasharray:2.0,2.0;" x1="562" x2="562" y1="358.6328" y2="371.6328"/><line style="stroke:#181818;stroke-width:1.0;stroke-dasharray:2.0,2.0;" x1="521" x2="562" y1="371.6328" y2="371.6328"/><polygon fill="#181818" points="531,367.6328,521,371.6328,531,375.6328,527,371.6328" style="stroke:#181818;stroke-width:1.0;"/><text fill="#000000" font-family="sans-serif" font-size="13" font-weight="bold" lengthAdjust="spacing" textLength="7" x="527" y="353.8779">6</text><text fill="#000000" font-family="sans-serif" font-size="13" lengthAdjust="spacing" textLength="220" x="538" y="353.8779">Generate team proposal automatically</text><polygon fill="#181818" points="99,396.1563,89,400.1563,99,404.1563,95,400.1563" style="stroke:#181818;stroke-width:1.0;"/><line style="stroke:#181818;stroke-width:1.0;stroke-dasharray:2.0,2.0;" x1="93" x2="514" y1="400.1563" y2="400.1563"/><text fill="#000000" font-family="sans-serif" font-size="13" font-weight="bold" lengthAdjust="spacing" textLength="7" x="105" y="395.4014">7</text><text fill="#000000" font-family="sans-serif" font-size="13" lengthAdjust="spacing" textLength="387" x="116" y="395.4014">displays team specifics and requests confirmation of all information</text><polygon fill="#181818" points="498,424.6797,508,428.6797,498,432.6797,502,428.6797" style="stroke:#181818;stroke-width:1.0;"/><line style="stroke:#181818;stroke-width:1.0;" x1="88" x2="504" y1="428.6797" y2="428.6797"/><text fill="#000000" font-family="sans-serif" font-size="13" font-weight="bold" lengthAdjust="spacing" textLength="7" x="95" y="423.9248">8</text><text fill="#000000" font-family="sans-serif" font-size="13" lengthAdjust="spacing" textLength="206" x="106" y="423.9248">verifies and confirms the information</text><polygon fill="#181818" points="99,460.2031,89,464.2031,99,468.2031,95,464.2031" style="stroke:#181818;stroke-width:1.0;"/><line style="stroke:#181818;stroke-width:1.0;stroke-dasharray:2.0,2.0;" x1="93" x2="509" y1="464.2031" y2="464.2031"/><text fill="#000000" font-family="sans-serif" font-size="13" font-weight="bold" lengthAdjust="spacing" textLength="7" x="105" y="459.4482">9</text><text fill="#000000" font-family="sans-serif" font-size="13" lengthAdjust="spacing" textLength="119" x="116" y="459.4482">team proposal saved</text><polygon fill="#181818" points="99,488.7266,89,492.7266,99,496.7266,95,492.7266" style="stroke:#181818;stroke-width:1.0;"/><line style="stroke:#181818;stroke-width:1.0;stroke-dasharray:2.0,2.0;" x1="93" x2="514" y1="492.7266" y2="492.7266"/><text fill="#000000" font-family="sans-serif" font-size="13" font-weight="bold" lengthAdjust="spacing" textLength="14" x="105" y="487.9717">10</text><text fill="#000000" font-family="sans-serif" font-size="13" lengthAdjust="spacing" textLength="343" x="123" y="487.9717">displays that the operation has been successfully executed</text><!--SRC=[dLInZjim3Dtz5KIc5aY0Bbqo52XmHRjqEQFRBRHCsq8aqITAoRbVNyfEt4ilnVNgIRR9znxVeoq76qQCwC5pO3D4zWGfPgfaVJEYEM1FTPeSGIIJCFJkUO4CsFB9XXuwT49LbMpIqdgIH1vgUimK3C6TnRwKlwlhk_UmWn_rXuzLXJbnoBwXg6UJECBcM_OOu9w4SpGay12-Or05SGCeyCMFZYUYIicJDNR4a62pNzZcYkKumzaZ9lhTKe5UbplOVRfetDyNaP84bBWeygZG8BdnLiHo0Eu08L6n8_B8Wcu1Mpakf72-piWx9La9zz1Q6HrE0caWo49Hu3GmO2J08rg7ZQCjeEFGFmGusJIKIXlLTncfS6a4x4YsqAbLio0z5BaSgeMzfPkYReqDGavHPP7oFmEX76IMKkJPpXfHgJt6jgn36R98tAgJPj0SSHdSuvFrsI_onVxKuKEhVO_PHcf1DyivUVCit7N5pvQI6gb9DfpJAk4lQJdc4N98rbs72rRWip4q9cflMh2oVgL0iK1UzwzBXCvDrR-lnUp8QkN5bdar3OVEdgEUzz6fpF0i_RSQTgIeDBJGdD6NW5x0_WbQdb5eNvlhsXF1Ot5pxNdz6y4bG1wBnMNiGJUe8GfbeVJN85rMUu6UoEIIr8hyqePV]--></g></svg>