<svg xmlns="http://www.w3.org/2000/svg" xmlns:xlink="http://www.w3.org/1999/xlink" contentStyleType="text/css" data-diagram-type="SEQUENCE" height="545px" preserveAspectRatio="none" style="width:794px;height:545px;background:#FFFFFF;" version="1.1" viewBox="0 0 794 545" width="794px" zoomAndPan="magnify"><defs/><g><g><title>Player</title><rect fill="#FFFFFF" height="364.4609" style="stroke:#181818;stroke-width:1;" width="10" x="39.7827" y="91.2969"/></g><g><title>System</title><rect fill="#FFFFFF" height="29.1328" style="stroke:#181818;stroke-width:1;" width="10" x="469.7822" y="112.4297"/></g><g><title>System</title><rect fill="#FFFFFF" height="110.3984" style="stroke:#181818;stroke-width:1;" width="10" x="469.7822" y="170.6953"/></g><g><title>System</title><rect fill="#FFFFFF" height="144.5313" style="stroke:#181818;stroke-width:1;" width="10" x="469.7822" y="302.2266"/></g><rect fill="none" height="46.2656" style="stroke:#000000;stroke-width:1.5;" width="507.8853" x="10" y="227.8281"/><rect fill="none" height="59.2656" style="stroke:#000000;stroke-width:1.5;" width="310.209" x="431.6792" y="359.3594"/><g><title>Player</title><rect fill="#000000" fill-opacity="0.00000" height="383.4609" width="8" x="40.7827" y="81.2969"/><line style="stroke:#181818;stroke-width:0.5;stroke-dasharray:5.0,5.0;" x1="44" x2="44" y1="81.2969" y2="464.7578"/></g><g><title>System</title><rect fill="#000000" fill-opacity="0.00000" height="383.4609" width="8" x="470.7822" y="81.2969"/><line style="stroke:#181818;stroke-width:0.5;stroke-dasharray:5.0,5.0;" x1="474.6792" x2="474.6792" y1="81.2969" y2="464.7578"/></g><g class="participant participant-head" data-participant="Player"><text fill="#000000" font-family="sans-serif" font-size="14" lengthAdjust="spacing" textLength="43.5654" x="20" y="77.9951">Player</text><ellipse cx="44.7827" cy="13.5" fill="#E3E3E3" rx="8" ry="8" style="stroke:#181818;stroke-width:0.5;"/><path d="M44.7827,21.5 L44.7827,48.5 M31.7827,29.5 L57.7827,29.5 M44.7827,48.5 L31.7827,63.5 M44.7827,48.5 L57.7827,63.5" fill="none" style="stroke:#181818;stroke-width:0.5;"/></g><g class="participant participant-tail" data-participant="Player"><text fill="#000000" font-family="sans-serif" font-size="14" lengthAdjust="spacing" textLength="43.5654" x="20" y="476.7529">Player</text><ellipse cx="44.7827" cy="488.5547" fill="#E3E3E3" rx="8" ry="8" style="stroke:#181818;stroke-width:0.5;"/><path d="M44.7827,496.5547 L44.7827,523.5547 M31.7827,504.5547 L57.7827,504.5547 M44.7827,523.5547 L31.7827,538.5547 M44.7827,523.5547 L57.7827,538.5547" fill="none" style="stroke:#181818;stroke-width:0.5;"/></g><g class="participant participant-head" data-participant="System"><rect fill="#E3E3E3" height="30.2969" rx="2.5" ry="2.5" style="stroke:#181818;stroke-width:0.5;" width="66.2061" x="441.6792" y="50"/><text fill="#000000" font-family="sans-serif" font-size="14" lengthAdjust="spacing" textLength="52.2061" x="448.6792" y="69.9951">System</text></g><g class="participant participant-tail" data-participant="System"><rect fill="#E3E3E3" height="30.2969" rx="2.5" ry="2.5" style="stroke:#181818;stroke-width:0.5;" width="66.2061" x="441.6792" y="463.7578"/><text fill="#000000" font-family="sans-serif" font-size="14" lengthAdjust="spacing" textLength="52.2061" x="448.6792" y="483.7529">System</text></g><g><title>Player</title><rect fill="#FFFFFF" height="364.4609" style="stroke:#181818;stroke-width:1;" width="10" x="39.7827" y="91.2969"/></g><g><title>System</title><rect fill="#FFFFFF" height="29.1328" style="stroke:#181818;stroke-width:1;" width="10" x="469.7822" y="112.4297"/></g><g><title>System</title><rect fill="#FFFFFF" height="110.3984" style="stroke:#181818;stroke-width:1;" width="10" x="469.7822" y="170.6953"/></g><g><title>System</title><rect fill="#FFFFFF" height="144.5313" style="stroke:#181818;stroke-width:1;" width="10" x="469.7822" y="302.2266"/></g><g class="message" data-participant-1="Player" data-participant-2="System"><polygon fill="#181818" points="457.7822,108.4297,467.7822,112.4297,457.7822,116.4297,461.7822,112.4297" style="stroke:#181818;stroke-width:1;"/><line style="stroke:#181818;stroke-width:1;" x1="49.7827" x2="463.7822" y1="112.4297" y2="112.4297"/><text fill="#000000" font-family="sans-serif" font-size="13" font-weight="bold" lengthAdjust="spacing" textLength="9.0454" x="56.7827" y="107.3638">1</text><text fill="#000000" font-family="sans-serif" font-size="13" lengthAdjust="spacing" textLength="74.4961" x="69.8281" y="107.3638">Select train</text></g><g class="message" data-participant-1="System" data-participant-2="Player"><polygon fill="#181818" points="60.7827,137.5625,50.7827,141.5625,60.7827,145.5625,56.7827,141.5625" style="stroke:#181818;stroke-width:1;"/><line style="stroke:#181818;stroke-width:1;" x1="54.7827" x2="473.7822" y1="141.5625" y2="141.5625"/><text fill="#000000" font-family="sans-serif" font-size="13" font-weight="bold" lengthAdjust="spacing" textLength="9.0454" x="66.7827" y="136.4966">2</text><text fill="#000000" font-family="sans-serif" font-size="13" lengthAdjust="spacing" textLength="139.0518" x="79.8281" y="136.4966">Show available trains</text></g><g class="message" data-participant-1="Player" data-participant-2="System"><polygon fill="#181818" points="457.7822,166.6953,467.7822,170.6953,457.7822,174.6953,461.7822,170.6953" style="stroke:#181818;stroke-width:1;"/><line style="stroke:#181818;stroke-width:1;" x1="49.7827" x2="463.7822" y1="170.6953" y2="170.6953"/><text fill="#000000" font-family="sans-serif" font-size="13" font-weight="bold" lengthAdjust="spacing" textLength="9.0454" x="56.7827" y="165.6294">3</text><text fill="#000000" font-family="sans-serif" font-size="13" lengthAdjust="spacing" textLength="188.2334" x="69.8281" y="165.6294">Select Route (list of stations)</text></g><g class="message" data-participant-1="System" data-participant-2="System"><line style="stroke:#181818;stroke-width:1;" x1="479.7822" x2="521.7822" y1="199.8281" y2="199.8281"/><line style="stroke:#181818;stroke-width:1;" x1="521.7822" x2="521.7822" y1="199.8281" y2="212.8281"/><line style="stroke:#181818;stroke-width:1;" x1="480.7822" x2="521.7822" y1="212.8281" y2="212.8281"/><polygon fill="#181818" points="490.7822,208.8281,480.7822,212.8281,490.7822,216.8281,486.7822,212.8281" style="stroke:#181818;stroke-width:1;"/><text fill="#000000" font-family="sans-serif" font-size="13" font-weight="bold" lengthAdjust="spacing" textLength="9.0454" x="486.7822" y="194.7622">4</text><text fill="#000000" font-family="sans-serif" font-size="13" lengthAdjust="spacing" textLength="287.5996" x="499.8276" y="194.7622">Verify railway connections between stations</text></g><path d="M10,227.8281 L74.4429,227.8281 L74.4429,234.9609 L64.4429,244.9609 L10,244.9609 L10,227.8281" fill="#EEEEEE" style="stroke:#000000;stroke-width:1.5;"/><rect fill="none" height="46.2656" style="stroke:#000000;stroke-width:1.5;" width="507.8853" x="10" y="227.8281"/><text fill="#000000" font-family="sans-serif" font-size="13" font-weight="bold" lengthAdjust="spacing" textLength="19.4429" x="25" y="240.895">alt</text><text fill="#000000" font-family="sans-serif" font-size="11" font-weight="bold" lengthAdjust="spacing" textLength="149.0801" x="89.4429" y="240.0386">[If missing connections]</text><g class="message" data-participant-1="System" data-participant-2="Player"><polygon fill="#181818" points="60.7827,262.0938,50.7827,266.0938,60.7827,270.0938,56.7827,266.0938" style="stroke:#181818;stroke-width:1;"/><line style="stroke:#181818;stroke-width:1;" x1="54.7827" x2="468.7822" y1="266.0938" y2="266.0938"/><text fill="#000000" font-family="sans-serif" font-size="13" font-weight="bold" lengthAdjust="spacing" textLength="9.0454" x="66.7827" y="261.0278">5</text><text fill="#000000" font-family="sans-serif" font-size="13" lengthAdjust="spacing" textLength="382.9541" x="79.8281" y="261.0278">Warn about missing connections and offer cancel/continue</text></g><g class="message" data-participant-1="Player" data-participant-2="System"><polygon fill="#181818" points="457.7822,298.2266,467.7822,302.2266,457.7822,306.2266,461.7822,302.2266" style="stroke:#181818;stroke-width:1;"/><line style="stroke:#181818;stroke-width:1;" x1="49.7827" x2="463.7822" y1="302.2266" y2="302.2266"/><text fill="#000000" font-family="sans-serif" font-size="13" font-weight="bold" lengthAdjust="spacing" textLength="9.0454" x="56.7827" y="297.1606">6</text><text fill="#000000" font-family="sans-serif" font-size="13" lengthAdjust="spacing" textLength="189.5918" x="69.8281" y="297.1606">Define cargo for each station</text></g><g class="message" data-participant-1="System" data-participant-2="System"><line style="stroke:#181818;stroke-width:1;" x1="479.7822" x2="521.7822" y1="331.3594" y2="331.3594"/><line style="stroke:#181818;stroke-width:1;" x1="521.7822" x2="521.7822" y1="331.3594" y2="344.3594"/><line style="stroke:#181818;stroke-width:1;" x1="480.7822" x2="521.7822" y1="344.3594" y2="344.3594"/><polygon fill="#181818" points="490.7822,340.3594,480.7822,344.3594,490.7822,348.3594,486.7822,344.3594" style="stroke:#181818;stroke-width:1;"/><text fill="#000000" font-family="sans-serif" font-size="13" font-weight="bold" lengthAdjust="spacing" textLength="9.0454" x="486.7822" y="326.2935">7</text><text fill="#000000" font-family="sans-serif" font-size="13" lengthAdjust="spacing" textLength="269.9404" x="499.8276" y="326.2935">Verify compatibility of wagons with cargo</text></g><path d="M431.6792,359.3594 L496.1221,359.3594 L496.1221,366.4922 L486.1221,376.4922 L431.6792,376.4922 L431.6792,359.3594" fill="#EEEEEE" style="stroke:#000000;stroke-width:1.5;"/><rect fill="none" height="59.2656" style="stroke:#000000;stroke-width:1.5;" width="310.209" x="431.6792" y="359.3594"/><text fill="#000000" font-family="sans-serif" font-size="13" font-weight="bold" lengthAdjust="spacing" textLength="19.4429" x="446.6792" y="372.4263">alt</text><text fill="#000000" font-family="sans-serif" font-size="11" font-weight="bold" lengthAdjust="spacing" textLength="116.6333" x="511.1221" y="371.5698">[If train is electric]</text><g class="message" data-participant-1="System" data-participant-2="System"><line style="stroke:#181818;stroke-width:1;" x1="479.7822" x2="521.7822" y1="397.625" y2="397.625"/><line style="stroke:#181818;stroke-width:1;" x1="521.7822" x2="521.7822" y1="397.625" y2="410.625"/><line style="stroke:#181818;stroke-width:1;" x1="480.7822" x2="521.7822" y1="410.625" y2="410.625"/><polygon fill="#181818" points="490.7822,406.625,480.7822,410.625,490.7822,414.625,486.7822,410.625" style="stroke:#181818;stroke-width:1;"/><text fill="#000000" font-family="sans-serif" font-size="13" font-weight="bold" lengthAdjust="spacing" textLength="9.0454" x="486.7822" y="392.5591">8</text><text fill="#000000" font-family="sans-serif" font-size="13" lengthAdjust="spacing" textLength="220.0605" x="499.8276" y="392.5591">Verify if route has electrified lines</text></g><g class="message" data-participant-1="System" data-participant-2="Player"><polygon fill="#181818" points="60.7827,442.7578,50.7827,446.7578,60.7827,450.7578,56.7827,446.7578" style="stroke:#181818;stroke-width:1;"/><line style="stroke:#181818;stroke-width:1;" x1="54.7827" x2="473.7822" y1="446.7578" y2="446.7578"/><text fill="#000000" font-family="sans-serif" font-size="13" font-weight="bold" lengthAdjust="spacing" textLength="9.0454" x="66.7827" y="441.6919">9</text><text fill="#000000" font-family="sans-serif" font-size="13" lengthAdjust="spacing" textLength="202.6235" x="79.8281" y="441.6919">Confirm successful assignment</text></g><!--SRC=[bP8nJyGm38Nt_0hh9XWGEmCBB6o8as1sKwUrI9rJx5Brt-DhxqudE11qQQIyx-NbEVhEiiEA0mn5Iknh6GYiZXJqjBF3-8uTRMtE19MYeNJvNA0zjcLYwI1XLWe1Hoio3WrLNqSh5JRF6MUg6q25THcSDOwyGp7OR6Sr6fRjTRc0_856HtrO_t1pVv307MmfUnuFZ2ndnD7Ye7FYm3hHbmdm0pbZasabDOIMli4_7_TIHjTTPLQ3aa0DZOlezQy9JYQlL3dDu0Vd2MU8HSHDzmRGa4r4Sd8Cc0sU4Woikg_tJ1l0lmltUyCgW8qdl4G1IkkHaqiZIgHywvl6ulCcQVzQmoCb5dA7sXL8Fbsd-cFeVvKGox1pgk7CDk-xdB3RnvpO-jN_MC4oA625PGILuvS2lZfpWhgCgSSJavXQo1vTrzjUgE-XIEBgJtgCaLJJcFr9AdSoaDYbVZu1]--></g></svg>