<svg xmlns="http://www.w3.org/2000/svg" xmlns:xlink="http://www.w3.org/1999/xlink" contentStyleType="text/css" height="1181.6px" preserveAspectRatio="none" style="width:1890px;height:1181px;background:#FFFFFF;" version="1.1" viewBox="0 0 1890 1181" width="1890.4px" zoomAndPan="magnify"><title>Sequence Diagram - US371 Accept/reject proposal</title><defs/><g><text fill="#000000" font-family="sans-serif" font-size="11.2" font-weight="bold" lengthAdjust="spacing" textLength="268.8984" x="811.7602" y="24.0859">Sequence Diagram - US371 Accept/reject proposal</text><rect fill="none" height="90.5313" style="stroke:#000000;stroke-width:1.2000000000000002;" width="1239.6586" x="8" y="162.2594"/><rect fill="none" height="812.5219" style="stroke:#000000;stroke-width:1.2000000000000002;" width="1877.2188" x="8" y="289.0234"/><rect fill="none" height="65.4984" style="stroke:#000000;stroke-width:1.2000000000000002;" width="1036.8281" x="657.5422" y="796.0797"/><line style="stroke:#181818;stroke-width:0.4000000000000001;stroke-dasharray:5.0,5.0;" x1="42.4" x2="42.4" y1="98.5938" y2="1115.1453"/><line style="stroke:#181818;stroke-width:0.4000000000000001;stroke-dasharray:5.0,5.0;" x1="229.1414" x2="229.1414" y1="98.5938" y2="1115.1453"/><line style="stroke:#181818;stroke-width:0.4000000000000001;stroke-dasharray:5.0,5.0;" x1="349.1133" x2="349.1133" y1="98.5938" y2="1115.1453"/><line style="stroke:#181818;stroke-width:0.4000000000000001;stroke-dasharray:5.0,5.0;" x1="477.4492" x2="477.4492" y1="98.5938" y2="1115.1453"/><line style="stroke:#181818;stroke-width:0.4000000000000001;stroke-dasharray:5.0,5.0;" x1="606.0445" x2="606.0445" y1="98.5938" y2="1115.1453"/><line style="stroke:#181818;stroke-width:0.4000000000000001;stroke-dasharray:5.0,5.0;" x1="733.5422" x2="733.5422" y1="98.5938" y2="1115.1453"/><line style="stroke:#181818;stroke-width:0.4000000000000001;stroke-dasharray:5.0,5.0;" x1="856.0961" x2="856.0961" y1="98.5938" y2="1115.1453"/><line style="stroke:#181818;stroke-width:0.4000000000000001;stroke-dasharray:5.0,5.0;" x1="952.8461" x2="952.8461" y1="98.5938" y2="1115.1453"/><line style="stroke:#181818;stroke-width:0.4000000000000001;stroke-dasharray:5.0,5.0;" x1="1042.6664" x2="1042.6664" y1="98.5938" y2="1115.1453"/><line style="stroke:#181818;stroke-width:0.4000000000000001;stroke-dasharray:5.0,5.0;" x1="1110.7984" x2="1110.7984" y1="98.5938" y2="1115.1453"/><line style="stroke:#181818;stroke-width:0.4000000000000001;stroke-dasharray:5.0,5.0;" x1="1189.2148" x2="1189.2148" y1="98.5938" y2="1115.1453"/><line style="stroke:#181818;stroke-width:0.4000000000000001;stroke-dasharray:5.0,5.0;" x1="1310.8586" x2="1310.8586" y1="98.5938" y2="1115.1453"/><line style="stroke:#181818;stroke-width:0.4000000000000001;stroke-dasharray:5.0,5.0;" x1="1454.6484" x2="1454.6484" y1="98.5938" y2="1115.1453"/><line style="stroke:#181818;stroke-width:0.4000000000000001;stroke-dasharray:5.0,5.0;" x1="1610.9391" x2="1610.9391" y1="98.5938" y2="1115.1453"/><text fill="#000000" font-family="sans-serif" font-size="11.2" lengthAdjust="spacing" textLength="48.5461" x="16" y="95.7828">Customer</text><ellipse cx="42.673" cy="42.4969" fill="#E2E2F0" rx="6.4" ry="6.4" style="stroke:#181818;stroke-width:0.4000000000000001;"/><path d="M42.673,48.8969 L42.673,70.4969 M32.273,55.2969 L53.073,55.2969 M42.673,70.4969 L32.273,82.4969 M42.673,70.4969 L53.073,82.4969 " fill="none" style="stroke:#181818;stroke-width:0.4000000000000001;"/><text fill="#000000" font-family="sans-serif" font-size="11.2" lengthAdjust="spacing" textLength="48.5461" x="16" y="1126.4313">Customer</text><ellipse cx="42.673" cy="1136.0422" fill="#E2E2F0" rx="6.4" ry="6.4" style="stroke:#181818;stroke-width:0.4000000000000001;"/><path d="M42.673,1142.4422 L42.673,1164.0422 M32.273,1148.8422 L53.073,1148.8422 M42.673,1164.0422 L32.273,1176.0422 M42.673,1164.0422 L53.073,1176.0422 " fill="none" style="stroke:#181818;stroke-width:0.4000000000000001;"/><rect fill="#E2E2F0" height="26.0969" rx="2" ry="2" style="stroke:#181818;stroke-width:0.4000000000000001;" width="120.7719" x="169.1414" y="71.6969"/><text fill="#000000" font-family="sans-serif" font-size="11.2" lengthAdjust="spacing" textLength="109.5719" x="174.7414" y="89.3828">AcceptProposalAction</text><rect fill="#E2E2F0" height="26.0969" rx="2" ry="2" style="stroke:#181818;stroke-width:0.4000000000000001;" width="120.7719" x="169.1414" y="1114.3453"/><text fill="#000000" font-family="sans-serif" font-size="11.2" lengthAdjust="spacing" textLength="109.5719" x="174.7414" y="1132.0313">AcceptProposalAction</text><rect fill="#E2E2F0" height="26.0969" rx="2" ry="2" style="stroke:#181818;stroke-width:0.4000000000000001;" width="102.7359" x="297.9133" y="71.6969"/><text fill="#000000" font-family="sans-serif" font-size="11.2" lengthAdjust="spacing" textLength="91.5359" x="303.5133" y="89.3828">DroneLanguageUI</text><rect fill="#E2E2F0" height="26.0969" rx="2" ry="2" style="stroke:#181818;stroke-width:0.4000000000000001;" width="102.7359" x="297.9133" y="1114.3453"/><text fill="#000000" font-family="sans-serif" font-size="11.2" lengthAdjust="spacing" textLength="91.5359" x="303.5133" y="1132.0313">DroneLanguageUI</text><rect fill="#E2E2F0" height="26.0969" rx="2" ry="2" style="stroke:#181818;stroke-width:0.4000000000000001;" width="138.1953" x="408.6492" y="71.6969"/><text fill="#000000" font-family="sans-serif" font-size="11.2" lengthAdjust="spacing" textLength="126.9953" x="414.2492" y="89.3828">AcceptProposalController</text><rect fill="#E2E2F0" height="26.0969" rx="2" ry="2" style="stroke:#181818;stroke-width:0.4000000000000001;" width="138.1953" x="408.6492" y="1114.3453"/><text fill="#000000" font-family="sans-serif" font-size="11.2" lengthAdjust="spacing" textLength="126.9953" x="414.2492" y="1132.0313">AcceptProposalController</text><rect fill="#E2E2F0" height="26.0969" rx="2" ry="2" style="stroke:#181818;stroke-width:0.4000000000000001;" width="102.6977" x="554.8445" y="71.6969"/><text fill="#000000" font-family="sans-serif" font-size="11.2" lengthAdjust="spacing" textLength="91.4977" x="560.4445" y="89.3828">TCP Socket Client</text><rect fill="#E2E2F0" height="26.0969" rx="2" ry="2" style="stroke:#181818;stroke-width:0.4000000000000001;" width="102.6977" x="554.8445" y="1114.3453"/><text fill="#000000" font-family="sans-serif" font-size="11.2" lengthAdjust="spacing" textLength="91.4977" x="560.4445" y="1132.0313">TCP Socket Client</text><rect fill="#E2E2F0" height="26.0969" rx="2" ry="2" style="stroke:#181818;stroke-width:0.4000000000000001;" width="136.9539" x="665.5422" y="71.6969"/><text fill="#000000" font-family="sans-serif" font-size="11.2" lengthAdjust="spacing" textLength="125.7539" x="671.1422" y="89.3828">ShowProposalRepository</text><rect fill="#E2E2F0" height="26.0969" rx="2" ry="2" style="stroke:#181818;stroke-width:0.4000000000000001;" width="136.9539" x="665.5422" y="1114.3453"/><text fill="#000000" font-family="sans-serif" font-size="11.2" lengthAdjust="spacing" textLength="125.7539" x="671.1422" y="1132.0313">ShowProposalRepository</text><rect fill="#E2E2F0" height="26.0969" rx="2" ry="2" style="stroke:#181818;stroke-width:0.4000000000000001;" width="92.75" x="810.4961" y="71.6969"/><text fill="#000000" font-family="sans-serif" font-size="11.2" lengthAdjust="spacing" textLength="81.55" x="816.0961" y="89.3828">ShowRepository</text><rect fill="#E2E2F0" height="26.0969" rx="2" ry="2" style="stroke:#181818;stroke-width:0.4000000000000001;" width="92.75" x="810.4961" y="1114.3453"/><text fill="#000000" font-family="sans-serif" font-size="11.2" lengthAdjust="spacing" textLength="81.55" x="816.0961" y="1132.0313">ShowRepository</text><rect fill="#E2E2F0" height="26.0969" rx="2" ry="2" style="stroke:#181818;stroke-width:0.4000000000000001;" width="83.4203" x="911.2461" y="71.6969"/><text fill="#000000" font-family="sans-serif" font-size="11.2" lengthAdjust="spacing" textLength="72.2203" x="916.8461" y="89.3828">ShowProposal</text><rect fill="#E2E2F0" height="26.0969" rx="2" ry="2" style="stroke:#181818;stroke-width:0.4000000000000001;" width="83.4203" x="911.2461" y="1114.3453"/><text fill="#000000" font-family="sans-serif" font-size="11.2" lengthAdjust="spacing" textLength="72.2203" x="916.8461" y="1132.0313">ShowProposal</text><rect fill="#E2E2F0" height="26.0969" rx="2" ry="2" style="stroke:#181818;stroke-width:0.4000000000000001;" width="80.932" x="1002.6664" y="71.6969"/><text fill="#000000" font-family="sans-serif" font-size="11.2" lengthAdjust="spacing" textLength="69.732" x="1008.2664" y="89.3828">ShowRequest</text><rect fill="#E2E2F0" height="26.0969" rx="2" ry="2" style="stroke:#181818;stroke-width:0.4000000000000001;" width="80.932" x="1002.6664" y="1114.3453"/><text fill="#000000" font-family="sans-serif" font-size="11.2" lengthAdjust="spacing" textLength="69.732" x="1008.2664" y="1132.0313">ShowRequest</text><rect fill="#E2E2F0" height="26.0969" rx="2" ry="2" style="stroke:#181818;stroke-width:0.4000000000000001;" width="39.2164" x="1091.5984" y="71.6969"/><text fill="#000000" font-family="sans-serif" font-size="11.2" lengthAdjust="spacing" textLength="28.0164" x="1097.1984" y="89.3828">Show</text><rect fill="#E2E2F0" height="26.0969" rx="2" ry="2" style="stroke:#181818;stroke-width:0.4000000000000001;" width="39.2164" x="1091.5984" y="1114.3453"/><text fill="#000000" font-family="sans-serif" font-size="11.2" lengthAdjust="spacing" textLength="28.0164" x="1097.1984" y="1132.0313">Show</text><rect fill="#E2E2F0" height="26.0969" rx="2" ry="2" style="stroke:#181818;stroke-width:0.4000000000000001;" width="100.8438" x="1138.8148" y="71.6969"/><text fill="#000000" font-family="sans-serif" font-size="11.2" lengthAdjust="spacing" textLength="89.6438" x="1144.4148" y="89.3828">AcceptProposalUI</text><rect fill="#E2E2F0" height="26.0969" rx="2" ry="2" style="stroke:#181818;stroke-width:0.4000000000000001;" width="100.8438" x="1138.8148" y="1114.3453"/><text fill="#000000" font-family="sans-serif" font-size="11.2" lengthAdjust="spacing" textLength="89.6438" x="1144.4148" y="1132.0313">AcceptProposalUI</text><rect fill="#E2E2F0" height="26.0969" rx="2" ry="2" style="stroke:#181818;stroke-width:0.4000000000000001;" width="126.9898" x="1247.6586" y="71.6969"/><text fill="#000000" font-family="sans-serif" font-size="11.2" lengthAdjust="spacing" textLength="115.7898" x="1253.2586" y="89.3828">AcceptProposalService</text><rect fill="#E2E2F0" height="26.0969" rx="2" ry="2" style="stroke:#181818;stroke-width:0.4000000000000001;" width="126.9898" x="1247.6586" y="1114.3453"/><text fill="#000000" font-family="sans-serif" font-size="11.2" lengthAdjust="spacing" textLength="115.7898" x="1253.2586" y="1132.0313">AcceptProposalService</text><rect fill="#E2E2F0" height="26.0969" rx="2" ry="2" style="stroke:#181818;stroke-width:0.4000000000000001;" width="144.3969" x="1382.6484" y="71.6969"/><text fill="#000000" font-family="sans-serif" font-size="11.2" lengthAdjust="spacing" textLength="133.1969" x="1388.2484" y="89.3828">CustomerCommandServer</text><rect fill="#E2E2F0" height="26.0969" rx="2" ry="2" style="stroke:#181818;stroke-width:0.4000000000000001;" width="144.3969" x="1382.6484" y="1114.3453"/><text fill="#000000" font-family="sans-serif" font-size="11.2" lengthAdjust="spacing" textLength="133.1969" x="1388.2484" y="1132.0313">CustomerCommandServer</text><rect fill="#E2E2F0" height="26.0969" rx="2" ry="2" style="stroke:#181818;stroke-width:0.4000000000000001;" width="150.6313" x="1535.7391" y="71.6969"/><text fill="#000000" font-family="sans-serif" font-size="11.2" lengthAdjust="spacing" textLength="139.4313" x="1541.3391" y="89.3828">CustomerCommandHandler</text><rect fill="#E2E2F0" height="26.0969" rx="2" ry="2" style="stroke:#181818;stroke-width:0.4000000000000001;" width="150.6313" x="1535.7391" y="1114.3453"/><text fill="#000000" font-family="sans-serif" font-size="11.2" lengthAdjust="spacing" textLength="139.4313" x="1541.3391" y="1132.0313">CustomerCommandHandler</text><polygon fill="#181818" points="219.9273,122.0266,227.9273,125.2266,219.9273,128.4266,223.1273,125.2266" style="stroke:#181818;stroke-width:0.8000000000000002;"/><line style="stroke:#181818;stroke-width:0.8000000000000002;stroke-dasharray:2.0,2.0;" x1="42.673" x2="224.7273" y1="125.2266" y2="125.2266"/><text fill="#000000" font-family="sans-serif" font-size="10.4" lengthAdjust="spacing" textLength="167.6543" x="48.273" y="121.0164">Requests to accept a show proposal</text><polygon fill="#181818" points="1179.6367,147.0594,1187.6367,150.2594,1179.6367,153.4594,1182.8367,150.2594" style="stroke:#181818;stroke-width:0.8000000000000002;"/><line style="stroke:#181818;stroke-width:0.8000000000000002;stroke-dasharray:2.0,2.0;" x1="229.5273" x2="1184.4367" y1="150.2594" y2="150.2594"/><text fill="#000000" font-family="sans-serif" font-size="10.4" lengthAdjust="spacing" textLength="31.2051" x="235.1273" y="146.0492">show()</text><path d="M8,162.2594 L65.9477,162.2594 L65.9477,169.6922 L57.9477,177.6922 L8,177.6922 L8,162.2594 " fill="#EEEEEE" style="stroke:#000000;stroke-width:1.2000000000000002;"/><rect fill="none" height="90.5313" style="stroke:#000000;stroke-width:1.2000000000000002;" width="1239.6586" x="8" y="162.2594"/><text fill="#000000" font-family="sans-serif" font-size="10.4" font-weight="bold" lengthAdjust="spacing" textLength="21.9477" x="20" y="174.282">loop</text><text fill="#000000" font-family="sans-serif" font-size="8.8" font-weight="bold" lengthAdjust="spacing" textLength="82.1305" x="77.9477" y="173.3555">[while invalid input]</text><polygon fill="#181818" points="51.473,193.125,43.473,196.325,51.473,199.525,48.273,196.325" style="stroke:#181818;stroke-width:0.8000000000000002;"/><line style="stroke:#181818;stroke-width:0.8000000000000002;stroke-dasharray:2.0,2.0;" x1="46.673" x2="1188.4367" y1="196.325" y2="196.325"/><text fill="#000000" font-family="sans-serif" font-size="10.4" lengthAdjust="spacing" textLength="128.9133" x="56.273" y="192.1148">Ask to enter the proposal ID</text><polygon fill="#181818" points="1179.6367,218.1578,1187.6367,221.3578,1179.6367,224.5578,1182.8367,221.3578" style="stroke:#181818;stroke-width:0.8000000000000002;"/><line style="stroke:#181818;stroke-width:0.8000000000000002;stroke-dasharray:2.0,2.0;" x1="42.673" x2="1184.4367" y1="221.3578" y2="221.3578"/><text fill="#000000" font-family="sans-serif" font-size="10.4" lengthAdjust="spacing" textLength="98.277" x="48.273" y="217.1477">Enter the proposal ID</text><polygon fill="#181818" points="51.473,243.1906,43.473,246.3906,51.473,249.5906,48.273,246.3906" style="stroke:#181818;stroke-width:0.8000000000000002;"/><line style="stroke:#181818;stroke-width:0.8000000000000002;stroke-dasharray:2.0,2.0;" x1="46.673" x2="1188.4367" y1="246.3906" y2="246.3906"/><text fill="#000000" font-family="sans-serif" font-size="10.4" lengthAdjust="spacing" textLength="67.0465" x="56.273" y="242.1805">error message</text><polygon fill="#181818" points="51.473,273.8234,43.473,277.0234,51.473,280.2234,48.273,277.0234" style="stroke:#181818;stroke-width:0.8000000000000002;"/><line style="stroke:#181818;stroke-width:0.8000000000000002;stroke-dasharray:2.0,2.0;" x1="46.673" x2="1188.4367" y1="277.0234" y2="277.0234"/><text fill="#000000" font-family="sans-serif" font-size="10.4" lengthAdjust="spacing" textLength="260.6957" x="56.273" y="272.8133">Ask if the customer want to accept or reject this proposal</text><path d="M8,289.0234 L56.1367,289.0234 L56.1367,296.4563 L48.1367,304.4563 L8,304.4563 L8,289.0234 " fill="#EEEEEE" style="stroke:#000000;stroke-width:1.2000000000000002;"/><rect fill="none" height="812.5219" style="stroke:#000000;stroke-width:1.2000000000000002;" width="1877.2188" x="8" y="289.0234"/><text fill="#000000" font-family="sans-serif" font-size="10.4" font-weight="bold" lengthAdjust="spacing" textLength="12.1367" x="20" y="301.0461">alt</text><text fill="#000000" font-family="sans-serif" font-size="8.8" font-weight="bold" lengthAdjust="spacing" textLength="35.2043" x="68.1367" y="300.1195">[Accept]</text><polygon fill="#181818" points="486.5469,319.8891,478.5469,323.0891,486.5469,326.2891,483.3469,323.0891" style="stroke:#181818;stroke-width:0.8000000000000002;"/><line style="stroke:#181818;stroke-width:0.8000000000000002;stroke-dasharray:2.0,2.0;" x1="481.7469" x2="1188.4367" y1="323.0891" y2="323.0891"/><text fill="#000000" font-family="sans-serif" font-size="10.4" lengthAdjust="spacing" textLength="127.1816" x="491.3469" y="318.8789">acceptProposal(proposalId)</text><polygon fill="#181818" points="1301.5535,344.9219,1309.5535,348.1219,1301.5535,351.3219,1304.7535,348.1219" style="stroke:#181818;stroke-width:0.8000000000000002;"/><line style="stroke:#181818;stroke-width:0.8000000000000002;stroke-dasharray:2.0,2.0;" x1="477.7469" x2="1306.3535" y1="348.1219" y2="348.1219"/><text fill="#000000" font-family="sans-serif" font-size="10.4" lengthAdjust="spacing" textLength="127.1816" x="483.3469" y="343.9117">acceptProposal(proposalId)</text><polygon fill="#181818" points="614.9934,369.9547,606.9934,373.1547,614.9934,376.3547,611.7934,373.1547" style="stroke:#181818;stroke-width:0.8000000000000002;"/><line style="stroke:#181818;stroke-width:0.8000000000000002;stroke-dasharray:2.0,2.0;" x1="610.1934" x2="1310.3535" y1="373.1547" y2="373.1547"/><text fill="#000000" font-family="sans-serif" font-size="10.4" lengthAdjust="spacing" textLength="181.543" x="619.7934" y="368.9445">openSocket(host=localhost, port=8889)</text><polygon fill="#181818" points="614.9934,394.9875,606.9934,398.1875,614.9934,401.3875,611.7934,398.1875" style="stroke:#181818;stroke-width:0.8000000000000002;"/><line style="stroke:#181818;stroke-width:0.8000000000000002;stroke-dasharray:2.0,2.0;" x1="610.1934" x2="1310.3535" y1="398.1875" y2="398.1875"/><text fill="#000000" font-family="sans-serif" font-size="10.4" lengthAdjust="spacing" textLength="207.3805" x="619.7934" y="393.9773">send("ACCEPT_PROPOSAL &lt;proposalID&gt;")</text><polygon fill="#181818" points="1445.2469,420.0203,1453.2469,423.2203,1445.2469,426.4203,1448.4469,423.2203" style="stroke:#181818;stroke-width:0.8000000000000002;"/><line style="stroke:#181818;stroke-width:0.8000000000000002;stroke-dasharray:2.0,2.0;" x1="606.1934" x2="1450.0469" y1="423.2203" y2="423.2203"/><text fill="#000000" font-family="sans-serif" font-size="10.4" lengthAdjust="spacing" textLength="129.4973" x="611.7934" y="419.0102">TCP connection established</text><polygon fill="#181818" points="1601.4547,445.0531,1609.4547,448.2531,1601.4547,451.4531,1604.6547,448.2531" style="stroke:#181818;stroke-width:0.8000000000000002;"/><line style="stroke:#181818;stroke-width:0.8000000000000002;stroke-dasharray:2.0,2.0;" x1="1454.8469" x2="1606.2547" y1="448.2531" y2="448.2531"/><text fill="#000000" font-family="sans-serif" font-size="10.4" lengthAdjust="spacing" textLength="137.0078" x="1460.4469" y="444.043">spawn handler thread(socket)</text><line style="stroke:#181818;stroke-width:0.8000000000000002;stroke-dasharray:2.0,2.0;" x1="1611.0547" x2="1644.6547" y1="473.2859" y2="473.2859"/><line style="stroke:#181818;stroke-width:0.8000000000000002;stroke-dasharray:2.0,2.0;" x1="1644.6547" x2="1644.6547" y1="473.2859" y2="483.6859"/><line style="stroke:#181818;stroke-width:0.8000000000000002;stroke-dasharray:2.0,2.0;" x1="1611.8547" x2="1644.6547" y1="483.6859" y2="483.6859"/><polygon fill="#181818" points="1619.8547,480.4859,1611.8547,483.6859,1619.8547,486.8859,1616.6547,483.6859" style="stroke:#181818;stroke-width:0.8000000000000002;"/><text fill="#000000" font-family="sans-serif" font-size="10.4" lengthAdjust="spacing" textLength="110.9977" x="1616.6547" y="469.0758">handleAcceptProposal()</text><polygon fill="#181818" points="742.8191,505.5188,734.8191,508.7188,742.8191,511.9188,739.6191,508.7188" style="stroke:#181818;stroke-width:0.8000000000000002;"/><line style="stroke:#181818;stroke-width:0.8000000000000002;stroke-dasharray:2.0,2.0;" x1="738.0191" x2="1610.2547" y1="508.7188" y2="508.7188"/><text fill="#000000" font-family="sans-serif" font-size="10.4" lengthAdjust="spacing" textLength="121.9613" x="747.6191" y="504.5086">showProposalRepository()</text><polygon fill="#181818" points="943.3563,530.5516,951.3563,533.7516,943.3563,536.9516,946.5563,533.7516" style="stroke:#181818;stroke-width:0.8000000000000002;"/><line style="stroke:#181818;stroke-width:0.8000000000000002;stroke-dasharray:2.0,2.0;" x1="734.0191" x2="948.1563" y1="533.7516" y2="533.7516"/><text fill="#000000" font-family="sans-serif" font-size="10.4" lengthAdjust="spacing" textLength="49.1309" x="739.6191" y="529.5414">ofIdentity()</text><polygon fill="#181818" points="1601.4547,555.5844,1609.4547,558.7844,1601.4547,561.9844,1604.6547,558.7844" style="stroke:#181818;stroke-width:0.8000000000000002;"/><line style="stroke:#181818;stroke-width:0.8000000000000002;stroke-dasharray:2.0,2.0;" x1="952.9563" x2="1606.2547" y1="558.7844" y2="558.7844"/><text fill="#000000" font-family="sans-serif" font-size="10.4" lengthAdjust="spacing" textLength="73.9984" x="958.5563" y="554.5742">showProposalId</text><polygon fill="#181818" points="865.6711,580.6172,857.6711,583.8172,865.6711,587.0172,862.4711,583.8172" style="stroke:#181818;stroke-width:0.8000000000000002;"/><line style="stroke:#181818;stroke-width:0.8000000000000002;stroke-dasharray:2.0,2.0;" x1="860.8711" x2="1610.2547" y1="583.8172" y2="583.8172"/><text fill="#000000" font-family="sans-serif" font-size="10.4" lengthAdjust="spacing" textLength="80.9148" x="870.4711" y="579.607">showRepository()</text><polygon fill="#181818" points="1033.5324,605.65,1041.5324,608.85,1033.5324,612.05,1036.7324,608.85" style="stroke:#181818;stroke-width:0.8000000000000002;"/><line style="stroke:#181818;stroke-width:0.8000000000000002;stroke-dasharray:2.0,2.0;" x1="856.8711" x2="1038.3324" y1="608.85" y2="608.85"/><text fill="#000000" font-family="sans-serif" font-size="10.4" lengthAdjust="spacing" textLength="69.941" x="862.4711" y="604.6398">showRequest()</text><polygon fill="#181818" points="1601.4547,630.6828,1609.4547,633.8828,1601.4547,637.0828,1604.6547,633.8828" style="stroke:#181818;stroke-width:0.8000000000000002;"/><line style="stroke:#181818;stroke-width:0.8000000000000002;stroke-dasharray:2.0,2.0;" x1="1043.1324" x2="1606.2547" y1="633.8828" y2="633.8828"/><text fill="#000000" font-family="sans-serif" font-size="10.4" lengthAdjust="spacing" textLength="63.0145" x="1048.7324" y="629.6727">showRequest</text><polygon fill="#181818" points="1051.9324,655.7156,1043.9324,658.9156,1051.9324,662.1156,1048.7324,658.9156" style="stroke:#181818;stroke-width:0.8000000000000002;"/><line style="stroke:#181818;stroke-width:0.8000000000000002;stroke-dasharray:2.0,2.0;" x1="1047.1324" x2="1610.2547" y1="658.9156" y2="658.9156"/><text fill="#000000" font-family="sans-serif" font-size="10.4" lengthAdjust="spacing" textLength="54.3359" x="1056.7324" y="654.7055">eventDate()</text><polygon fill="#181818" points="1601.4547,680.7484,1609.4547,683.9484,1601.4547,687.1484,1604.6547,683.9484" style="stroke:#181818;stroke-width:0.8000000000000002;"/><line style="stroke:#181818;stroke-width:0.8000000000000002;stroke-dasharray:2.0,2.0;" x1="1043.1324" x2="1606.2547" y1="683.9484" y2="683.9484"/><text fill="#000000" font-family="sans-serif" font-size="10.4" lengthAdjust="spacing" textLength="47.4094" x="1048.7324" y="679.7383">eventDate</text><polygon fill="#181818" points="1051.9324,705.7813,1043.9324,708.9813,1051.9324,712.1813,1048.7324,708.9813" style="stroke:#181818;stroke-width:0.8000000000000002;"/><line style="stroke:#181818;stroke-width:0.8000000000000002;stroke-dasharray:2.0,2.0;" x1="1047.1324" x2="1610.2547" y1="708.9813" y2="708.9813"/><text fill="#000000" font-family="sans-serif" font-size="10.4" lengthAdjust="spacing" textLength="55.4785" x="1056.7324" y="704.7711">eventTime()</text><polygon fill="#181818" points="1601.4547,730.8141,1609.4547,734.0141,1601.4547,737.2141,1604.6547,734.0141" style="stroke:#181818;stroke-width:0.8000000000000002;"/><line style="stroke:#181818;stroke-width:0.8000000000000002;stroke-dasharray:2.0,2.0;" x1="1043.1324" x2="1606.2547" y1="734.0141" y2="734.0141"/><text fill="#000000" font-family="sans-serif" font-size="10.4" lengthAdjust="spacing" textLength="48.552" x="1048.7324" y="729.8039">eventTime</text><polygon fill="#181818" points="961.7563,755.8469,953.7563,759.0469,961.7563,762.2469,958.5563,759.0469" style="stroke:#181818;stroke-width:0.8000000000000002;"/><line style="stroke:#181818;stroke-width:0.8000000000000002;stroke-dasharray:2.0,2.0;" x1="956.9563" x2="1610.2547" y1="759.0469" y2="759.0469"/><text fill="#000000" font-family="sans-serif" font-size="10.4" lengthAdjust="spacing" textLength="34.6734" x="966.5563" y="754.8367">status()</text><polygon fill="#181818" points="1601.4547,780.8797,1609.4547,784.0797,1601.4547,787.2797,1604.6547,784.0797" style="stroke:#181818;stroke-width:0.8000000000000002;"/><line style="stroke:#181818;stroke-width:0.8000000000000002;stroke-dasharray:2.0,2.0;" x1="952.9563" x2="1606.2547" y1="784.0797" y2="784.0797"/><text fill="#000000" font-family="sans-serif" font-size="10.4" lengthAdjust="spacing" textLength="27.7469" x="958.5563" y="779.8695">status</text><path d="M657.5422,796.0797 L705.6789,796.0797 L705.6789,803.5125 L697.6789,811.5125 L657.5422,811.5125 L657.5422,796.0797 " fill="#EEEEEE" style="stroke:#000000;stroke-width:1.2000000000000002;"/><rect fill="none" height="65.4984" style="stroke:#000000;stroke-width:1.2000000000000002;" width="1036.8281" x="657.5422" y="796.0797"/><text fill="#000000" font-family="sans-serif" font-size="10.4" font-weight="bold" lengthAdjust="spacing" textLength="12.1367" x="669.5422" y="808.1023">alt</text><text fill="#000000" font-family="sans-serif" font-size="8.8" font-weight="bold" lengthAdjust="spacing" textLength="179.9531" x="717.6789" y="807.1758">[if status is not "ACCEPTED_CUSTOMER"]</text><polygon fill="#181818" points="961.7563,826.9453,953.7563,830.1453,961.7563,833.3453,958.5563,830.1453" style="stroke:#181818;stroke-width:0.8000000000000002;"/><line style="stroke:#181818;stroke-width:0.8000000000000002;stroke-dasharray:2.0,2.0;" x1="956.9563" x2="1610.2547" y1="830.1453" y2="830.1453"/><text fill="#000000" font-family="sans-serif" font-size="10.4" lengthAdjust="spacing" textLength="289.5801" x="966.5563" y="825.9352">updateStatus(ShowProposalStatus.ACCEPTED_CUSTOMER)</text><polygon fill="#181818" points="742.8191,851.9781,734.8191,855.1781,742.8191,858.3781,739.6191,855.1781" style="stroke:#181818;stroke-width:0.8000000000000002;"/><line style="stroke:#181818;stroke-width:0.8000000000000002;stroke-dasharray:2.0,2.0;" x1="738.0191" x2="1610.2547" y1="855.1781" y2="855.1781"/><text fill="#000000" font-family="sans-serif" font-size="10.4" lengthAdjust="spacing" textLength="68.7883" x="747.6191" y="850.968">save(proposal)</text><line style="stroke:#181818;stroke-width:0.8000000000000002;stroke-dasharray:2.0,2.0;" x1="1611.0547" x2="1644.6547" y1="885.8109" y2="885.8109"/><line style="stroke:#181818;stroke-width:0.8000000000000002;stroke-dasharray:2.0,2.0;" x1="1644.6547" x2="1644.6547" y1="885.8109" y2="896.2109"/><line style="stroke:#181818;stroke-width:0.8000000000000002;stroke-dasharray:2.0,2.0;" x1="1611.8547" x2="1644.6547" y1="896.2109" y2="896.2109"/><polygon fill="#181818" points="1619.8547,893.0109,1611.8547,896.2109,1619.8547,899.4109,1616.6547,896.2109" style="stroke:#181818;stroke-width:0.8000000000000002;"/><text fill="#000000" font-family="sans-serif" font-size="10.4" lengthAdjust="spacing" textLength="258.9641" x="1616.6547" y="881.6008">createShowFromProposal(proposal, request, date, time)</text><line style="stroke:#181818;stroke-width:0.8000000000000002;stroke-dasharray:2.0,2.0;" x1="1611.0547" x2="1644.6547" y1="921.2438" y2="921.2438"/><line style="stroke:#181818;stroke-width:0.8000000000000002;stroke-dasharray:2.0,2.0;" x1="1644.6547" x2="1644.6547" y1="921.2438" y2="931.6438"/><line style="stroke:#181818;stroke-width:0.8000000000000002;stroke-dasharray:2.0,2.0;" x1="1611.8547" x2="1644.6547" y1="931.6438" y2="931.6438"/><polygon fill="#181818" points="1619.8547,928.4438,1611.8547,931.6438,1619.8547,934.8438,1616.6547,931.6438" style="stroke:#181818;stroke-width:0.8000000000000002;"/><text fill="#000000" font-family="sans-serif" font-size="10.4" lengthAdjust="spacing" textLength="255.5059" x="1616.6547" y="917.0336">return new Show(showId, proposal, request, date, time)</text><polygon fill="#181818" points="865.6711,953.4766,857.6711,956.6766,865.6711,959.8766,862.4711,956.6766" style="stroke:#181818;stroke-width:0.8000000000000002;"/><line style="stroke:#181818;stroke-width:0.8000000000000002;stroke-dasharray:2.0,2.0;" x1="860.8711" x2="1610.2547" y1="956.6766" y2="956.6766"/><text fill="#000000" font-family="sans-serif" font-size="10.4" lengthAdjust="spacing" textLength="53.173" x="870.4711" y="952.4664">save(show)</text><polygon fill="#181818" points="614.9934,978.5094,606.9934,981.7094,614.9934,984.9094,611.7934,981.7094" style="stroke:#181818;stroke-width:0.8000000000000002;"/><line style="stroke:#181818;stroke-width:0.8000000000000002;stroke-dasharray:2.0,2.0;" x1="610.1934" x2="1610.2547" y1="981.7094" y2="981.7094"/><text fill="#000000" font-family="sans-serif" font-size="10.4" lengthAdjust="spacing" textLength="126.0188" x="619.7934" y="977.4992">sends formatted show lines</text><polygon fill="#181818" points="1301.5535,1003.5422,1309.5535,1006.7422,1301.5535,1009.9422,1304.7535,1006.7422" style="stroke:#181818;stroke-width:0.8000000000000002;"/><line style="stroke:#181818;stroke-width:0.8000000000000002;stroke-dasharray:2.0,2.0;" x1="606.1934" x2="1306.3535" y1="1006.7422" y2="1006.7422"/><text fill="#000000" font-family="sans-serif" font-size="10.4" lengthAdjust="spacing" textLength="63.5883" x="611.7934" y="1002.532">lines received</text><polygon fill="#181818" points="1301.5535,1028.575,1309.5535,1031.775,1301.5535,1034.975,1304.7535,1031.775" style="stroke:#181818;stroke-width:0.8000000000000002;"/><line style="stroke:#181818;stroke-width:0.8000000000000002;stroke-dasharray:2.0,2.0;" x1="606.1934" x2="1306.3535" y1="1031.775" y2="1031.775"/><text fill="#000000" font-family="sans-serif" font-size="10.4" lengthAdjust="spacing" textLength="117.2031" x="611.7934" y="1027.5648">receives lines until "END"</text><polygon fill="#181818" points="51.473,1053.6078,43.473,1056.8078,51.473,1060.0078,48.273,1056.8078" style="stroke:#181818;stroke-width:0.8000000000000002;"/><line style="stroke:#181818;stroke-width:0.8000000000000002;stroke-dasharray:2.0,2.0;" x1="46.673" x2="1310.3535" y1="1056.8078" y2="1056.8078"/><text fill="#000000" font-family="sans-serif" font-size="10.4" lengthAdjust="spacing" textLength="153.207" x="56.273" y="1052.5977">Message about the created show</text><line style="stroke:#000000;stroke-width:0.8000000000000002;stroke-dasharray:2.0,2.0;" x1="8" x2="1885.2188" y1="1064.0078" y2="1064.0078"/><text fill="#000000" font-family="sans-serif" font-size="8.8" font-weight="bold" lengthAdjust="spacing" textLength="32.2738" x="12" y="1073.5039">[Reject]</text><polygon fill="#181818" points="51.473,1091.9453,43.473,1095.1453,51.473,1098.3453,48.273,1095.1453" style="stroke:#181818;stroke-width:0.8000000000000002;"/><line style="stroke:#181818;stroke-width:0.8000000000000002;stroke-dasharray:2.0,2.0;" x1="46.673" x2="1188.4367" y1="1095.1453" y2="1095.1453"/><text fill="#000000" font-family="sans-serif" font-size="10.4" lengthAdjust="spacing" textLength="127.6234" x="56.273" y="1090.9352">Message "Reject proposal!"</text><!--SRC=[fLRBRjim4BppAxOwsO3JekYXgT44C6GNDP0qXcMV0qRQH6maKYKf6_txBlNoGx8LfmT39hapEnekbxB29WW1_ibHXWXJmLyqJ-4Ari6NhvzX4eQOsKyQVsDe8TCgKuOdZF7GAWr-RgnAKRECQoj2aN5fAyYY2fs4LYXv433LIk8TboyvVy7r_0pOLz9gbIH76RoLlu10XQzemKy4Iki1Dq2p1s51hBOrqnBf8KZptrR8cQKQtO4XlunjpJDMMm9NLxUTLi0OAhG1gu0N8S3147ndS2UoJRcUZmlWOCWIfJBOne9sKyWDJqH4pootx1XHq3Gonp0nhqu8kKX36sCZ0kRJSwz3J6EOTQBwKgBML3qf6aCLm516Rn8fdej4OJsxTQxlB2J6ganjBCpEIfxKPTMTvLJ9KLP-i3IeAUVHa9r4jIa3r1j1P-i2lXhYo5onZq5bACkI7yJAs9j4XJnn_qQGAMrlhg-ll_Mp6F9wu4ryVxPOFIwM3uk7O787tniXqrjlo9YBtVVVLsdAPUJe2blSUgYanB8igPJvKo9CZ17hXdIG_QHVQRB9-5P2N8rjh9570rEywf2n4x2pZ2NNeHU3yrpTlGBAqzLU8BOJY6CojtNFyuXEbx37i1vVzYBdKQ_wbkgMsWwLLITg4CMe2I_NUaNMpR1VOPqCD-J7b5ky95K3kZ3FIgINvt6WDnUCyy5ocvlBzhU0iA8_KMihXq2TIogwuiepEfi- -kjWzN0_MteNgCcpY7mAIatxQ-NKnnRvy7rdWs-mQMB3ee-_wxo6TEH9BgNveLNQQeyZwkl5let0lTO8B6tEErk3Hfjh2HAtnMiDNFtEen7yHwxsuNEsEEBpk5r7Dl2iTCgjnQZy34Y4HDEquLEtIH55UaCK6sgzVU5LeAbmENMa1BpPhwd7pjmRUtVmVNbV0tzIkIslucBZIj6COMAGlctS5TnxdzTStlBmo_A3vyhe7m00]--></g></svg>