<svg xmlns="http://www.w3.org/2000/svg" xmlns:xlink="http://www.w3.org/1999/xlink" contentStyleType="text/css" height="457.6px" preserveAspectRatio="none" style="width:457px;height:457px;background:#FFFFFF;" version="1.1" viewBox="0 0 457 457" width="457.6px" zoomAndPan="magnify"><title>System Sequence Diagram (SSD) - US371 Accept/reject proposal</title><defs/><g><text fill="#000000" font-family="sans-serif" font-size="11.2" font-weight="bold" lengthAdjust="spacing" textLength="345.4555" x="57.1227" y="24.0859">System Sequence Diagram (SSD) - US371 Accept/reject proposal</text><rect fill="none" height="90.5313" style="stroke:#000000;stroke-width:1.2000000000000002;" width="334.3895" x="8" y="137.2266"/><rect fill="none" height="114.2359" style="stroke:#000000;stroke-width:1.2000000000000002;" width="444.5008" x="8" y="263.9906"/><line style="stroke:#181818;stroke-width:0.4000000000000001;stroke-dasharray:5.0,5.0;" x1="29.6" x2="29.6" y1="98.5938" y2="391.8266"/><line style="stroke:#181818;stroke-width:0.4000000000000001;stroke-dasharray:5.0,5.0;" x1="309.8488" x2="309.8488" y1="98.5938" y2="391.8266"/><text fill="#000000" font-family="sans-serif" font-size="11.2" lengthAdjust="spacing" textLength="23.6469" x="16" y="95.7828">User</text><ellipse cx="30.2234" cy="42.4969" fill="#E2E2F0" rx="6.4" ry="6.4" style="stroke:#181818;stroke-width:0.4000000000000001;"/><path d="M30.2234,48.8969 L30.2234,70.4969 M19.8234,55.2969 L40.6234,55.2969 M30.2234,70.4969 L19.8234,82.4969 M30.2234,70.4969 L40.6234,82.4969 " fill="none" style="stroke:#181818;stroke-width:0.4000000000000001;"/><text fill="#000000" font-family="sans-serif" font-size="11.2" lengthAdjust="spacing" textLength="23.6469" x="16" y="403.1125">User</text><ellipse cx="30.2234" cy="412.7234" fill="#E2E2F0" rx="6.4" ry="6.4" style="stroke:#181818;stroke-width:0.4000000000000001;"/><path d="M30.2234,419.1234 L30.2234,440.7234 M19.8234,425.5234 L40.6234,425.5234 M30.2234,440.7234 L19.8234,452.7234 M30.2234,440.7234 L40.6234,452.7234 " fill="none" style="stroke:#181818;stroke-width:0.4000000000000001;"/><rect fill="#E2E2F0" height="26.0969" rx="2" ry="2" style="stroke:#181818;stroke-width:0.4000000000000001;" width="48.5406" x="285.8488" y="71.6969"/><text fill="#000000" font-family="sans-serif" font-size="11.2" lengthAdjust="spacing" textLength="37.3406" x="291.4488" y="89.3828">System</text><rect fill="#E2E2F0" height="26.0969" rx="2" ry="2" style="stroke:#181818;stroke-width:0.4000000000000001;" width="48.5406" x="285.8488" y="391.0266"/><text fill="#000000" font-family="sans-serif" font-size="11.2" lengthAdjust="spacing" textLength="37.3406" x="291.4488" y="408.7125">System</text><polygon fill="#181818" points="300.5191,122.0266,308.5191,125.2266,300.5191,128.4266,303.7191,125.2266" style="stroke:#181818;stroke-width:0.8000000000000002;"/><line style="stroke:#181818;stroke-width:0.8000000000000002;stroke-dasharray:2.0,2.0;" x1="30.2234" x2="305.3191" y1="125.2266" y2="125.2266"/><text fill="#000000" font-family="sans-serif" font-size="10.4" lengthAdjust="spacing" textLength="167.6543" x="35.8234" y="121.0164">Requests to accept a show proposal</text><path d="M8,137.2266 L65.9477,137.2266 L65.9477,144.6594 L57.9477,152.6594 L8,152.6594 L8,137.2266 " fill="#EEEEEE" style="stroke:#000000;stroke-width:1.2000000000000002;"/><rect fill="none" height="90.5313" style="stroke:#000000;stroke-width:1.2000000000000002;" width="334.3895" x="8" y="137.2266"/><text fill="#000000" font-family="sans-serif" font-size="10.4" font-weight="bold" lengthAdjust="spacing" textLength="21.9477" x="20" y="149.2492">loop</text><text fill="#000000" font-family="sans-serif" font-size="8.8" font-weight="bold" lengthAdjust="spacing" textLength="82.1305" x="77.9477" y="148.3227">[while invalid input]</text><polygon fill="#181818" points="39.0234,168.0922,31.0234,171.2922,39.0234,174.4922,35.8234,171.2922" style="stroke:#181818;stroke-width:0.8000000000000002;"/><line style="stroke:#181818;stroke-width:0.8000000000000002;stroke-dasharray:2.0,2.0;" x1="34.2234" x2="309.3191" y1="171.2922" y2="171.2922"/><text fill="#000000" font-family="sans-serif" font-size="10.4" lengthAdjust="spacing" textLength="128.9133" x="43.8234" y="167.082">Ask to enter the proposal ID</text><polygon fill="#181818" points="300.5191,193.125,308.5191,196.325,300.5191,199.525,303.7191,196.325" style="stroke:#181818;stroke-width:0.8000000000000002;"/><line style="stroke:#181818;stroke-width:0.8000000000000002;stroke-dasharray:2.0,2.0;" x1="30.2234" x2="305.3191" y1="196.325" y2="196.325"/><text fill="#000000" font-family="sans-serif" font-size="10.4" lengthAdjust="spacing" textLength="98.277" x="35.8234" y="192.1148">Enter the proposal ID</text><polygon fill="#181818" points="39.0234,218.1578,31.0234,221.3578,39.0234,224.5578,35.8234,221.3578" style="stroke:#181818;stroke-width:0.8000000000000002;"/><line style="stroke:#181818;stroke-width:0.8000000000000002;stroke-dasharray:2.0,2.0;" x1="34.2234" x2="309.3191" y1="221.3578" y2="221.3578"/><text fill="#000000" font-family="sans-serif" font-size="10.4" lengthAdjust="spacing" textLength="67.0465" x="43.8234" y="217.1477">error message</text><polygon fill="#181818" points="39.0234,248.7906,31.0234,251.9906,39.0234,255.1906,35.8234,251.9906" style="stroke:#181818;stroke-width:0.8000000000000002;"/><line style="stroke:#181818;stroke-width:0.8000000000000002;stroke-dasharray:2.0,2.0;" x1="34.2234" x2="309.3191" y1="251.9906" y2="251.9906"/><text fill="#000000" font-family="sans-serif" font-size="10.4" lengthAdjust="spacing" textLength="260.6957" x="43.8234" y="247.7805">Ask if the customer want to accept or reject this proposal</text><path d="M8,263.9906 L56.1367,263.9906 L56.1367,271.4234 L48.1367,279.4234 L8,279.4234 L8,263.9906 " fill="#EEEEEE" style="stroke:#000000;stroke-width:1.2000000000000002;"/><rect fill="none" height="114.2359" style="stroke:#000000;stroke-width:1.2000000000000002;" width="444.5008" x="8" y="263.9906"/><text fill="#000000" font-family="sans-serif" font-size="10.4" font-weight="bold" lengthAdjust="spacing" textLength="12.1367" x="20" y="276.0133">alt</text><text fill="#000000" font-family="sans-serif" font-size="8.8" font-weight="bold" lengthAdjust="spacing" textLength="35.2043" x="68.1367" y="275.0867">[Accept]</text><line style="stroke:#181818;stroke-width:0.8000000000000002;stroke-dasharray:2.0,2.0;" x1="310.1191" x2="343.7191" y1="298.0563" y2="298.0563"/><line style="stroke:#181818;stroke-width:0.8000000000000002;stroke-dasharray:2.0,2.0;" x1="343.7191" x2="343.7191" y1="298.0563" y2="308.4563"/><line style="stroke:#181818;stroke-width:0.8000000000000002;stroke-dasharray:2.0,2.0;" x1="310.9191" x2="343.7191" y1="308.4563" y2="308.4563"/><polygon fill="#181818" points="318.9191,305.2563,310.9191,308.4563,318.9191,311.6563,315.7191,308.4563" style="stroke:#181818;stroke-width:0.8000000000000002;"/><text fill="#000000" font-family="sans-serif" font-size="10.4" lengthAdjust="spacing" textLength="127.1816" x="315.7191" y="293.8461">acceptProposal(proposalId)</text><polygon fill="#181818" points="39.0234,330.2891,31.0234,333.4891,39.0234,336.6891,35.8234,333.4891" style="stroke:#181818;stroke-width:0.8000000000000002;"/><line style="stroke:#181818;stroke-width:0.8000000000000002;stroke-dasharray:2.0,2.0;" x1="34.2234" x2="309.3191" y1="333.4891" y2="333.4891"/><text fill="#000000" font-family="sans-serif" font-size="10.4" lengthAdjust="spacing" textLength="153.207" x="43.8234" y="329.2789">Message about the created show</text><line style="stroke:#000000;stroke-width:0.8000000000000002;stroke-dasharray:2.0,2.0;" x1="8" x2="452.5008" y1="340.6891" y2="340.6891"/><text fill="#000000" font-family="sans-serif" font-size="8.8" font-weight="bold" lengthAdjust="spacing" textLength="32.2738" x="12" y="350.1852">[Reject]</text><polygon fill="#181818" points="39.0234,368.6266,31.0234,371.8266,39.0234,375.0266,35.8234,371.8266" style="stroke:#181818;stroke-width:0.8000000000000002;"/><line style="stroke:#181818;stroke-width:0.8000000000000002;stroke-dasharray:2.0,2.0;" x1="34.2234" x2="309.3191" y1="371.8266" y2="371.8266"/><text fill="#000000" font-family="sans-serif" font-size="10.4" lengthAdjust="spacing" textLength="127.6234" x="43.8234" y="367.6164">Message "Reject proposal!"</text><!--SRC=[VP71JiCm38RlUGgpqtQe4EA0j0FIf7BO0GcjsWEOrAo1j0cnIyNRaxJP2g9mYXpv__pxDsfn0OvCGNaCOhJns0bKdopKAYL6BEKAAdhlgTC4fS5Jm1RMLLLke81ZTNjt0pkjoSjre5VI0ZuuxnYjKWaEHN5_ncpXa40i3E80HnKWSEE6MMMTyp0q9auttGTQKyVNzw8o9F56y1Ps_9P0r4aifQ4B1FRbml27nRxVM0eX9jCICvv8KLV_CTgyZ33TixWs_WufltcnoCY9I6DuNX2jvCI-Soyk9_LJxbwVPVjwis3ZSJ89-EnwcTm4Gg5w35KfiamnzEJY7_NgyFDoLwkqzHS0]--></g></svg>