<svg xmlns="http://www.w3.org/2000/svg" xmlns:xlink="http://www.w3.org/1999/xlink" contentStyleType="text/css" height="673px" preserveAspectRatio="none" style="width:1231px;height:673px;background:#FFFFFF;" version="1.1" viewBox="0 0 1231 673" width="1231px" zoomAndPan="magnify"><defs/><g><!--cluster shodrone--><g id="cluster_shodrone"><path d="M8.5,6.0137 L73.2793,6.0137 A3.75,3.75 0 0 1 75.7793,8.5137 L82.7793,30.6348 L1221.5,30.6348 A2.5,2.5 0 0 1 1224,33.1348 L1224,663.5137 A2.5,2.5 0 0 1 1221.5,666.0137 L8.5,666.0137 A2.5,2.5 0 0 1 6,663.5137 L6,8.5137 A2.5,2.5 0 0 1 8.5,6.0137 " fill="#D6EAF8" style="stroke:#000000;stroke-width:1.5;"/><line style="stroke:#000000;stroke-width:1.5;" x1="6" x2="82.7793" y1="30.6348" y2="30.6348"/><text fill="#000000" font-family="sans-serif" font-size="14" font-weight="bold" lengthAdjust="spacing" textLength="63.7793" x="10" y="23.1211">shodrone</text></g><!--cluster core--><g id="cluster_core"><path d="M32.5,51.0137 L63.0723,51.0137 A3.75,3.75 0 0 1 65.5723,53.5137 L72.5723,75.6348 L561.5,75.6348 A2.5,2.5 0 0 1 564,78.1348 L564,639.5137 A2.5,2.5 0 0 1 561.5,642.0137 L32.5,642.0137 A2.5,2.5 0 0 1 30,639.5137 L30,53.5137 A2.5,2.5 0 0 1 32.5,51.0137 " fill="#D6EAF8" style="stroke:#000000;stroke-width:1.5;"/><line style="stroke:#000000;stroke-width:1.5;" x1="30" x2="72.5723" y1="75.6348" y2="75.6348"/><text fill="#000000" font-family="sans-serif" font-size="14" font-weight="bold" lengthAdjust="spacing" textLength="29.5723" x="34" y="68.1211">core</text></g><!--cluster figuremanagement--><g id="cluster_figuremanagement"><path d="M56.5,96.0137 L182.748,96.0137 A3.75,3.75 0 0 1 185.248,98.5137 L192.248,120.6348 L537.5,120.6348 A2.5,2.5 0 0 1 540,123.1348 L540,615.5137 A2.5,2.5 0 0 1 537.5,618.0137 L56.5,618.0137 A2.5,2.5 0 0 1 54,615.5137 L54,98.5137 A2.5,2.5 0 0 1 56.5,96.0137 " fill="#D6EAF8" style="stroke:#000000;stroke-width:1.5;"/><line style="stroke:#000000;stroke-width:1.5;" x1="54" x2="192.248" y1="120.6348" y2="120.6348"/><text fill="#000000" font-family="sans-serif" font-size="14" font-weight="bold" lengthAdjust="spacing" textLength="125.248" x="58" y="113.1211">figuremanagement</text></g><!--cluster domain--><g id="cluster_domain"><path d="M80.5,266.0137 L131.2793,266.0137 A3.75,3.75 0 0 1 133.7793,268.5137 L140.7793,290.6348 L513.5,290.6348 A2.5,2.5 0 0 1 516,293.1348 L516,591.5137 A2.5,2.5 0 0 1 513.5,594.0137 L80.5,594.0137 A2.5,2.5 0 0 1 78,591.5137 L78,268.5137 A2.5,2.5 0 0 1 80.5,266.0137 " fill="#D6EAF8" style="stroke:#000000;stroke-width:1.5;"/><line style="stroke:#000000;stroke-width:1.5;" x1="78" x2="140.7793" y1="290.6348" y2="290.6348"/><text fill="#000000" font-family="sans-serif" font-size="14" font-weight="bold" lengthAdjust="spacing" textLength="49.7793" x="82" y="283.1211">domain</text><text fill="#000000" font-family="sans-serif" font-size="14" font-style="italic" lengthAdjust="spacing" textLength="80.1787" x="260.9106" y="307.7422">&#171;Aggregate&#187;</text></g><!--cluster repository--><g id="cluster_repository"><path d="M290.5,141.0137 L359.9619,141.0137 A3.75,3.75 0 0 1 362.4619,143.5137 L369.4619,165.6348 L513.5,165.6348 A2.5,2.5 0 0 1 516,168.1348 L516,239.5137 A2.5,2.5 0 0 1 513.5,242.0137 L290.5,242.0137 A2.5,2.5 0 0 1 288,239.5137 L288,143.5137 A2.5,2.5 0 0 1 290.5,141.0137 " fill="#D6EAF8" style="stroke:#000000;stroke-width:1.5;"/><line style="stroke:#000000;stroke-width:1.5;" x1="288" x2="369.4619" y1="165.6348" y2="165.6348"/><text fill="#000000" font-family="sans-serif" font-size="14" font-weight="bold" lengthAdjust="spacing" textLength="68.4619" x="292" y="158.1211">repository</text></g><!--cluster persistence--><g id="cluster_persistence"><path d="M590.5,283.5137 L669.3203,283.5137 A3.75,3.75 0 0 1 671.8203,286.0137 L678.8203,308.1348 L1197.5,308.1348 A2.5,2.5 0 0 1 1200,310.6348 L1200,451.0137 A2.5,2.5 0 0 1 1197.5,453.5137 L590.5,453.5137 A2.5,2.5 0 0 1 588,451.0137 L588,286.0137 A2.5,2.5 0 0 1 590.5,283.5137 " fill="#D6EAF8" style="stroke:#000000;stroke-width:1.5;"/><line style="stroke:#000000;stroke-width:1.5;" x1="588" x2="678.8203" y1="308.1348" y2="308.1348"/><text fill="#000000" font-family="sans-serif" font-size="14" font-weight="bold" lengthAdjust="spacing" textLength="77.8203" x="592" y="300.6211">persistence</text></g><!--cluster JPARepository--><g id="cluster_JPARepository"><path d="M928.5,328.5137 L1029.8584,328.5137 A3.75,3.75 0 0 1 1032.3584,331.0137 L1039.3584,353.1348 L1173.5,353.1348 A2.5,2.5 0 0 1 1176,355.6348 L1176,427.0137 A2.5,2.5 0 0 1 1173.5,429.5137 L928.5,429.5137 A2.5,2.5 0 0 1 926,427.0137 L926,331.0137 A2.5,2.5 0 0 1 928.5,328.5137 " fill="#D6EAF8" style="stroke:#000000;stroke-width:1.5;"/><line style="stroke:#000000;stroke-width:1.5;" x1="926" x2="1039.3584" y1="353.1348" y2="353.1348"/><text fill="#000000" font-family="sans-serif" font-size="14" font-weight="bold" lengthAdjust="spacing" textLength="100.3584" x="930" y="345.6211">JPARepository</text></g><!--cluster InMemoryRepository--><g id="cluster_InMemoryRepository"><path d="M614.5,328.5137 L754.748,328.5137 A3.75,3.75 0 0 1 757.248,331.0137 L764.248,353.1348 L899.5,353.1348 A2.5,2.5 0 0 1 902,355.6348 L902,427.0137 A2.5,2.5 0 0 1 899.5,429.5137 L614.5,429.5137 A2.5,2.5 0 0 1 612,427.0137 L612,331.0137 A2.5,2.5 0 0 1 614.5,328.5137 " fill="#D6EAF8" style="stroke:#000000;stroke-width:1.5;"/><line style="stroke:#000000;stroke-width:1.5;" x1="612" x2="764.248" y1="353.1348" y2="353.1348"/><text fill="#000000" font-family="sans-serif" font-size="14" font-weight="bold" lengthAdjust="spacing" textLength="139.248" x="616" y="345.6211">InMemoryRepository</text></g><!--class FigureCategory--><g id="elem_FigureCategory"><rect codeLine="11" fill="#F1F1F1" height="60.582" id="FigureCategory" rx="2.5" ry="2.5" style="stroke:#181818;stroke-width:0.5;" width="158.752" x="340.5" y="359.0137"/><ellipse cx="355.5" cy="381.3047" fill="#ADD1B2" rx="11" ry="11" style="stroke:#181818;stroke-width:1.0;"/><path d="M358.2656,377.1797 Q358.4219,376.9609 358.6094,376.8516 Q358.7969,376.7422 359.0156,376.7422 Q359.3906,376.7422 359.625,377.0078 Q359.8594,377.2578 359.8594,377.8672 L359.8594,379.3203 Q359.8594,379.9297 359.625,380.1953 Q359.3906,380.4609 359.0156,380.4609 Q358.6719,380.4609 358.4688,380.2578 Q358.2656,380.0703 358.1563,379.5547 Q358.1094,379.1953 357.9219,379.0078 Q357.5938,378.6328 356.9844,378.4141 Q356.375,378.1953 355.75,378.1953 Q354.9844,378.1953 354.3438,378.5234 Q353.7188,378.8516 353.2188,379.6016 Q352.7344,380.3516 352.7344,381.3828 L352.7344,382.4766 Q352.7344,383.7109 353.625,384.5391 Q354.5156,385.3516 356.1094,385.3516 Q357.0469,385.3516 357.7031,385.1016 Q358.0938,384.9453 358.5156,384.5078 Q358.7813,384.2422 358.9219,384.1641 Q359.0781,384.0859 359.2813,384.0859 Q359.6094,384.0859 359.8594,384.3516 Q360.125,384.6016 360.125,384.9453 Q360.125,385.2891 359.7813,385.6953 Q359.2813,386.2734 358.4844,386.6016 Q357.4063,387.0547 356.1094,387.0547 Q354.5938,387.0547 353.3906,386.4297 Q352.4063,385.9297 351.7188,384.8672 Q351.0313,383.7891 351.0313,382.5078 L351.0313,381.3516 Q351.0313,380.0234 351.6406,378.8828 Q352.2656,377.7266 353.3594,377.1172 Q354.4531,376.4922 355.6875,376.4922 Q356.4219,376.4922 357.0625,376.6641 Q357.7188,376.8203 358.2656,377.1797 Z " fill="#000000"/><text fill="#000000" font-family="sans-serif" font-size="12" font-style="italic" lengthAdjust="spacing" textLength="130.752" x="367.5" y="376.9629">&#171;Entity, AggregateRoot&#187;</text><text fill="#000000" font-family="sans-serif" font-size="14" lengthAdjust="spacing" textLength="96.4893" x="384.6313" y="395.082">FigureCategory</text><line style="stroke:#181818;stroke-width:0.5;" x1="341.5" x2="498.252" y1="403.5957" y2="403.5957"/><line style="stroke:#181818;stroke-width:0.5;" x1="341.5" x2="498.252" y1="411.5957" y2="411.5957"/></g><!--class FigureCategoryID--><g id="elem_FigureCategoryID"><rect codeLine="13" fill="#F1F1F1" height="60.582" id="FigureCategoryID" rx="2.5" ry="2.5" style="stroke:#181818;stroke-width:0.5;" width="142.4893" x="239" y="517.0137"/><ellipse cx="254" cy="539.3047" fill="#ADD1B2" rx="11" ry="11" style="stroke:#181818;stroke-width:1.0;"/><path d="M256.7656,535.1797 Q256.9219,534.9609 257.1094,534.8516 Q257.2969,534.7422 257.5156,534.7422 Q257.8906,534.7422 258.125,535.0078 Q258.3594,535.2578 258.3594,535.8672 L258.3594,537.3203 Q258.3594,537.9297 258.125,538.1953 Q257.8906,538.4609 257.5156,538.4609 Q257.1719,538.4609 256.9688,538.2578 Q256.7656,538.0703 256.6563,537.5547 Q256.6094,537.1953 256.4219,537.0078 Q256.0938,536.6328 255.4844,536.4141 Q254.875,536.1953 254.25,536.1953 Q253.4844,536.1953 252.8438,536.5234 Q252.2188,536.8516 251.7188,537.6016 Q251.2344,538.3516 251.2344,539.3828 L251.2344,540.4766 Q251.2344,541.7109 252.125,542.5391 Q253.0156,543.3516 254.6094,543.3516 Q255.5469,543.3516 256.2031,543.1016 Q256.5938,542.9453 257.0156,542.5078 Q257.2813,542.2422 257.4219,542.1641 Q257.5781,542.0859 257.7813,542.0859 Q258.1094,542.0859 258.3594,542.3516 Q258.625,542.6016 258.625,542.9453 Q258.625,543.2891 258.2813,543.6953 Q257.7813,544.2734 256.9844,544.6016 Q255.9063,545.0547 254.6094,545.0547 Q253.0938,545.0547 251.8906,544.4297 Q250.9063,543.9297 250.2188,542.8672 Q249.5313,541.7891 249.5313,540.5078 L249.5313,539.3516 Q249.5313,538.0234 250.1406,536.8828 Q250.7656,535.7266 251.8594,535.1172 Q252.9531,534.4922 254.1875,534.4922 Q254.9219,534.4922 255.5625,534.6641 Q256.2188,534.8203 256.7656,535.1797 Z " fill="#000000"/><text fill="#000000" font-family="sans-serif" font-size="12" font-style="italic" lengthAdjust="spacing" textLength="78.7207" x="283.8843" y="534.9629">&#171;ValueObject&#187;</text><text fill="#000000" font-family="sans-serif" font-size="14" lengthAdjust="spacing" textLength="110.4893" x="268" y="553.082">FigureCategoryID</text><line style="stroke:#181818;stroke-width:0.5;" x1="240" x2="380.4893" y1="561.5957" y2="561.5957"/><line style="stroke:#181818;stroke-width:0.5;" x1="240" x2="380.4893" y1="569.5957" y2="569.5957"/></g><!--class FigureVersion--><g id="elem_FigureVersion"><rect codeLine="15" fill="#F1F1F1" height="135.0664" id="FigureVersion" rx="2.5" ry="2.5" style="stroke:#181818;stroke-width:0.5;" width="211.2061" x="94.5" y="322.0137"/><ellipse cx="152.2773" cy="344.3047" fill="#ADD1B2" rx="11" ry="11" style="stroke:#181818;stroke-width:1.0;"/><path d="M155.043,340.1797 Q155.1992,339.9609 155.3867,339.8516 Q155.5742,339.7422 155.793,339.7422 Q156.168,339.7422 156.4023,340.0078 Q156.6367,340.2578 156.6367,340.8672 L156.6367,342.3203 Q156.6367,342.9297 156.4023,343.1953 Q156.168,343.4609 155.793,343.4609 Q155.4492,343.4609 155.2461,343.2578 Q155.043,343.0703 154.9336,342.5547 Q154.8867,342.1953 154.6992,342.0078 Q154.3711,341.6328 153.7617,341.4141 Q153.1523,341.1953 152.5273,341.1953 Q151.7617,341.1953 151.1211,341.5234 Q150.4961,341.8516 149.9961,342.6016 Q149.5117,343.3516 149.5117,344.3828 L149.5117,345.4766 Q149.5117,346.7109 150.4023,347.5391 Q151.293,348.3516 152.8867,348.3516 Q153.8242,348.3516 154.4805,348.1016 Q154.8711,347.9453 155.293,347.5078 Q155.5586,347.2422 155.6992,347.1641 Q155.8555,347.0859 156.0586,347.0859 Q156.3867,347.0859 156.6367,347.3516 Q156.9023,347.6016 156.9023,347.9453 Q156.9023,348.2891 156.5586,348.6953 Q156.0586,349.2734 155.2617,349.6016 Q154.1836,350.0547 152.8867,350.0547 Q151.3711,350.0547 150.168,349.4297 Q149.1836,348.9297 148.4961,347.8672 Q147.8086,346.7891 147.8086,345.5078 L147.8086,344.3516 Q147.8086,343.0234 148.418,341.8828 Q149.043,340.7266 150.1367,340.1172 Q151.2305,339.4922 152.4648,339.4922 Q153.1992,339.4922 153.8398,339.6641 Q154.4961,339.8203 155.043,340.1797 Z " fill="#000000"/><text fill="#000000" font-family="sans-serif" font-size="12" font-style="italic" lengthAdjust="spacing" textLength="43.3594" x="194.6733" y="339.9629">&#171;Entity&#187;</text><text fill="#000000" font-family="sans-serif" font-size="14" lengthAdjust="spacing" textLength="87.1514" x="172.7773" y="358.082">FigureVersion</text><line style="stroke:#181818;stroke-width:0.5;" x1="95.5" x2="304.7061" y1="366.5957" y2="366.5957"/><rect fill="none" height="6" style="stroke:#C82930;stroke-width:1.0;" width="6" x="102.5" y="378.4063"/><text fill="#000000" font-family="sans-serif" font-size="14" lengthAdjust="spacing" textLength="135.3857" x="114.5" y="385.7031">String versionNumber</text><rect fill="none" height="6" style="stroke:#C82930;stroke-width:1.0;" width="6" x="102.5" y="397.0273"/><text fill="#000000" font-family="sans-serif" font-size="14" lengthAdjust="spacing" textLength="122.958" x="114.5" y="404.3242">boolean isExclusive</text><rect fill="none" height="6" style="stroke:#C82930;stroke-width:1.0;" width="6" x="102.5" y="415.6484"/><text fill="#000000" font-family="sans-serif" font-size="14" lengthAdjust="spacing" textLength="185.2061" x="114.5" y="422.9453">LocalDate exclusivityEndDate</text><rect fill="none" height="6" style="stroke:#C82930;stroke-width:1.0;" width="6" x="102.5" y="434.2695"/><text fill="#000000" font-family="sans-serif" font-size="14" lengthAdjust="spacing" textLength="162.6133" x="114.5" y="441.5664">LocalDateTime timestamp</text><line style="stroke:#181818;stroke-width:0.5;" x1="95.5" x2="304.7061" y1="449.0801" y2="449.0801"/></g><!--class FigureCategoryRepository--><g id="elem_FigureCategoryRepository"><rect codeLine="25" fill="#F1F1F1" height="48" id="FigureCategoryRepository" rx="2.5" ry="2.5" style="stroke:#181818;stroke-width:0.5;" width="195.4063" x="304.5" y="178.0137"/><ellipse cx="319.5" cy="194.0137" fill="#B4A7E5" rx="11" ry="11" style="stroke:#181818;stroke-width:1.0;"/><path d="M320.4531,190.6543 L320.4531,197.3105 L322.1719,197.3105 Q322.7813,197.3105 323.0469,197.5449 Q323.3125,197.7793 323.3125,198.1699 Q323.3125,198.5449 323.0469,198.7793 Q322.7813,199.0137 322.1719,199.0137 L317.0313,199.0137 Q316.4219,199.0137 316.1563,198.7793 Q315.8906,198.5449 315.8906,198.1543 Q315.8906,197.7793 316.1563,197.5449 Q316.4219,197.3105 317.0313,197.3105 L318.75,197.3105 L318.75,190.6543 L317.0313,190.6543 Q316.4219,190.6543 316.1563,190.4199 Q315.8906,190.1855 315.8906,189.7949 Q315.8906,189.4199 316.1563,189.1855 Q316.4219,188.9512 317.0313,188.9512 L322.1719,188.9512 Q322.7813,188.9512 323.0469,189.1855 Q323.3125,189.4199 323.3125,189.7949 Q323.3125,190.1855 323.0469,190.4199 Q322.7813,190.6543 322.1719,190.6543 L320.4531,190.6543 Z " fill="#000000"/><text fill="#000000" font-family="sans-serif" font-size="14" font-style="italic" lengthAdjust="spacing" textLength="163.4063" x="333.5" y="199.8105">FigureCategoryRepository</text><line style="stroke:#181818;stroke-width:0.5;" x1="305.5" x2="498.9063" y1="210.0137" y2="210.0137"/><line style="stroke:#181818;stroke-width:0.5;" x1="305.5" x2="498.9063" y1="218.0137" y2="218.0137"/></g><!--class JpaFigureCategoryRepository--><g id="elem_JpaFigureCategoryRepository"><rect codeLine="29" fill="#F1F1F1" height="48" id="JpaFigureCategoryRepository" rx="2.5" ry="2.5" style="stroke:#181818;stroke-width:0.5;" width="217.9785" x="942" y="365.5137"/><ellipse cx="957" cy="381.5137" fill="#ADD1B2" rx="11" ry="11" style="stroke:#181818;stroke-width:1.0;"/><path d="M959.7656,377.3887 Q959.9219,377.1699 960.1094,377.0605 Q960.2969,376.9512 960.5156,376.9512 Q960.8906,376.9512 961.125,377.2168 Q961.3594,377.4668 961.3594,378.0762 L961.3594,379.5293 Q961.3594,380.1387 961.125,380.4043 Q960.8906,380.6699 960.5156,380.6699 Q960.1719,380.6699 959.9688,380.4668 Q959.7656,380.2793 959.6563,379.7637 Q959.6094,379.4043 959.4219,379.2168 Q959.0938,378.8418 958.4844,378.623 Q957.875,378.4043 957.25,378.4043 Q956.4844,378.4043 955.8438,378.7324 Q955.2188,379.0605 954.7188,379.8105 Q954.2344,380.5605 954.2344,381.5918 L954.2344,382.6855 Q954.2344,383.9199 955.125,384.748 Q956.0156,385.5605 957.6094,385.5605 Q958.5469,385.5605 959.2031,385.3105 Q959.5938,385.1543 960.0156,384.7168 Q960.2813,384.4512 960.4219,384.373 Q960.5781,384.2949 960.7813,384.2949 Q961.1094,384.2949 961.3594,384.5605 Q961.625,384.8105 961.625,385.1543 Q961.625,385.498 961.2813,385.9043 Q960.7813,386.4824 959.9844,386.8105 Q958.9063,387.2637 957.6094,387.2637 Q956.0938,387.2637 954.8906,386.6387 Q953.9063,386.1387 953.2188,385.0762 Q952.5313,383.998 952.5313,382.7168 L952.5313,381.5605 Q952.5313,380.2324 953.1406,379.0918 Q953.7656,377.9355 954.8594,377.3262 Q955.9531,376.7012 957.1875,376.7012 Q957.9219,376.7012 958.5625,376.873 Q959.2188,377.0293 959.7656,377.3887 Z " fill="#000000"/><text fill="#000000" font-family="sans-serif" font-size="14" lengthAdjust="spacing" textLength="185.9785" x="971" y="387.3105">JpaFigureCategoryRepository</text><line style="stroke:#181818;stroke-width:0.5;" x1="943" x2="1158.9785" y1="397.5137" y2="397.5137"/><line style="stroke:#181818;stroke-width:0.5;" x1="943" x2="1158.9785" y1="405.5137" y2="405.5137"/></g><!--class InMemoryFigureCategoryRepository--><g id="elem_InMemoryFigureCategoryRepository"><rect codeLine="33" fill="#F1F1F1" height="48" id="InMemoryFigureCategoryRepository" rx="2.5" ry="2.5" style="stroke:#181818;stroke-width:0.5;" width="257.6406" x="628" y="365.5137"/><ellipse cx="643" cy="381.5137" fill="#ADD1B2" rx="11" ry="11" style="stroke:#181818;stroke-width:1.0;"/><path d="M645.7656,377.3887 Q645.9219,377.1699 646.1094,377.0605 Q646.2969,376.9512 646.5156,376.9512 Q646.8906,376.9512 647.125,377.2168 Q647.3594,377.4668 647.3594,378.0762 L647.3594,379.5293 Q647.3594,380.1387 647.125,380.4043 Q646.8906,380.6699 646.5156,380.6699 Q646.1719,380.6699 645.9688,380.4668 Q645.7656,380.2793 645.6563,379.7637 Q645.6094,379.4043 645.4219,379.2168 Q645.0938,378.8418 644.4844,378.623 Q643.875,378.4043 643.25,378.4043 Q642.4844,378.4043 641.8438,378.7324 Q641.2188,379.0605 640.7188,379.8105 Q640.2344,380.5605 640.2344,381.5918 L640.2344,382.6855 Q640.2344,383.9199 641.125,384.748 Q642.0156,385.5605 643.6094,385.5605 Q644.5469,385.5605 645.2031,385.3105 Q645.5938,385.1543 646.0156,384.7168 Q646.2813,384.4512 646.4219,384.373 Q646.5781,384.2949 646.7813,384.2949 Q647.1094,384.2949 647.3594,384.5605 Q647.625,384.8105 647.625,385.1543 Q647.625,385.498 647.2813,385.9043 Q646.7813,386.4824 645.9844,386.8105 Q644.9063,387.2637 643.6094,387.2637 Q642.0938,387.2637 640.8906,386.6387 Q639.9063,386.1387 639.2188,385.0762 Q638.5313,383.998 638.5313,382.7168 L638.5313,381.5605 Q638.5313,380.2324 639.1406,379.0918 Q639.7656,377.9355 640.8594,377.3262 Q641.9531,376.7012 643.1875,376.7012 Q643.9219,376.7012 644.5625,376.873 Q645.2188,377.0293 645.7656,377.3887 Z " fill="#000000"/><text fill="#000000" font-family="sans-serif" font-size="14" lengthAdjust="spacing" textLength="225.6406" x="657" y="387.3105">InMemoryFigureCategoryRepository</text><line style="stroke:#181818;stroke-width:0.5;" x1="629" x2="884.6406" y1="397.5137" y2="397.5137"/><line style="stroke:#181818;stroke-width:0.5;" x1="629" x2="884.6406" y1="405.5137" y2="405.5137"/></g><!--reverse link FigureVersion to FigureCategoryID--><g id="link_FigureVersion_FigureCategoryID"><path codeLine="37" d="M272.25,469.4337 C272.25,490.1837 272.25,499.9637 272.25,516.9137 " fill="none" id="FigureVersion-backto-FigureCategoryID" style="stroke:#181818;stroke-width:1.0;"/><polygon fill="#181818" points="272.25,457.4337,268.25,463.4337,272.25,469.4337,276.25,463.4337,272.25,457.4337" style="stroke:#181818;stroke-width:1.0;"/></g><!--reverse link FigureCategory to FigureCategoryID--><g id="link_FigureCategory_FigureCategoryID"><path codeLine="38" d="M360.75,432.3537 C360.75,460.1937 360.75,488.9337 360.75,516.7537 " fill="none" id="FigureCategory-backto-FigureCategoryID" style="stroke:#181818;stroke-width:1.0;"/><polygon fill="#181818" points="360.75,420.3537,356.75,426.3537,360.75,432.3537,364.75,426.3537,360.75,420.3537" style="stroke:#181818;stroke-width:1.0;"/></g><!--reverse link FigureCategoryRepository to JpaFigureCategoryRepository--><g id="link_FigureCategoryRepository_JpaFigureCategoryRepository"><path codeLine="39" d="M517.51,194.0137 C698.69,194.0137 1051,194.0137 1051,194.0137 C1051,194.0137 1051,312.7437 1051,365.1537 " fill="none" id="FigureCategoryRepository-backto-JpaFigureCategoryRepository" style="stroke:#181818;stroke-width:1.0;stroke-dasharray:7.0,7.0;"/><polygon fill="none" points="499.51,194.0137,517.51,200.0137,517.51,188.0137,499.51,194.0137" style="stroke:#181818;stroke-width:1.0;"/></g><!--reverse link FigureCategoryRepository to InMemoryFigureCategoryRepository--><g id="link_FigureCategoryRepository_InMemoryFigureCategoryRepository"><path codeLine="40" d="M517.95,210.0137 C623.02,210.0137 757,210.0137 757,210.0137 C757,210.0137 757,316.3137 757,365.3037 " fill="none" id="FigureCategoryRepository-backto-InMemoryFigureCategoryRepository" style="stroke:#181818;stroke-width:1.0;stroke-dasharray:7.0,7.0;"/><polygon fill="none" points="499.95,210.0137,517.95,216.0137,517.95,204.0137,499.95,210.0137" style="stroke:#181818;stroke-width:1.0;"/></g><!--link FigureCategoryRepository to FigureCategory--><g id="link_FigureCategoryRepository_FigureCategory"><path codeLine="41" d="M420,226.1437 C420,260.0637 420,315.8537 420,352.9537 " fill="none" id="FigureCategoryRepository-to-FigureCategory" style="stroke:#181818;stroke-width:1.0;stroke-dasharray:7.0,7.0;"/><polygon fill="#181818" points="420,358.9537,424,349.9537,420,353.9537,416,349.9537,420,358.9537" style="stroke:#181818;stroke-width:1.0;"/></g><!--SRC=[dLB9Ri8m4BtxAqRqKAagELOz82GAGGBHHQ7YRf8XkDYUo7PGKSkvNz0luiVgiAGbPL7hGsJDM-RDE7OcTCODLo25HhV84CYuAJ5cIoJZyOod26yCuCxVKqEvJjeaoS15voPiTMyBX4o2PbEzavx6bepjf3KxfSIGnY0cWy54fBb1nRN756eN9AIuq3LeD5ffQZ3b3fjDtz3xnf9R2zsrekthAPc5vuNQ2RUuXf8V4Rb2ipmcwdMyRCHbZe_Z5umFaqTeh21TDbYd07_gC7H6w1Jc6yP3hiPejj2OI2BN86pu6ilSYZbkaG75N7Py0i0juar3dHIbAkLPA0JdFzPnbNdKf_l33WrcP8NpazRMcOLsQ2OynieUef9ts3qh1hGETOn1_waLLMmts-fd_F-kFNsFQa_pqtg7dlA_X2WSj5OVgyzmoFPV3gxgTVZrzApo0nMaCvplZj1u3uAJ8vzMdfteg3m8cfMOx0i0]--></g></svg>