<svg xmlns="http://www.w3.org/2000/svg" xmlns:xlink="http://www.w3.org/1999/xlink" contentStyleType="text/css" height="1255px" preserveAspectRatio="none" style="width:1360px;height:1255px;background:#FFFFFF;" version="1.1" viewBox="0 0 1360 1255" width="1360px" zoomAndPan="magnify"><defs/><g><rect fill="#F9E79F" height="463.3652" style="stroke:#000000;stroke-width:1.5;" width="1333.417" x="10" y="691.8594"/><rect fill="#F9E79F" height="350.2012" style="stroke:none;stroke-width:1.0;" width="1333.417" x="10" y="805.0234"/><rect fill="#F9E79F" height="302.9102" style="stroke:#000000;stroke-width:1.5;" width="1313.417" x="20" y="845.3145"/><rect fill="#F9E79F" height="189.7461" style="stroke:none;stroke-width:1.0;" width="1313.417" x="20" y="958.4785"/><line style="stroke:#181818;stroke-width:0.5;stroke-dasharray:5.0,5.0;" x1="80" x2="80" y1="83.6211" y2="1172.2246"/><line style="stroke:#181818;stroke-width:0.5;stroke-dasharray:5.0,5.0;" x1="285.1719" x2="285.1719" y1="83.6211" y2="1172.2246"/><line style="stroke:#181818;stroke-width:0.5;stroke-dasharray:5.0,5.0;" x1="467.0615" x2="467.0615" y1="83.6211" y2="1172.2246"/><line style="stroke:#181818;stroke-width:0.5;stroke-dasharray:5.0,5.0;" x1="653.3643" x2="653.3643" y1="83.6211" y2="1172.2246"/><line style="stroke:#181818;stroke-width:0.5;stroke-dasharray:5.0,5.0;" x1="809.5361" x2="809.5361" y1="83.6211" y2="1172.2246"/><line style="stroke:#181818;stroke-width:0.5;stroke-dasharray:5.0,5.0;" x1="950.9287" x2="950.9287" y1="83.6211" y2="1172.2246"/><line style="stroke:#181818;stroke-width:0.5;stroke-dasharray:5.0,5.0;" x1="1113.5215" x2="1113.5215" y1="83.6211" y2="1172.2246"/><line style="stroke:#181818;stroke-width:0.5;stroke-dasharray:5.0,5.0;" x1="1267.9277" x2="1267.9277" y1="83.6211" y2="1172.2246"/><text fill="#000000" font-family="sans-serif" font-size="14" lengthAdjust="spacing" textLength="94.9375" x="30" y="80.1074">Show Designer</text><ellipse cx="80.4688" cy="13.5" fill="#E2E2F0" rx="8" ry="8" style="stroke:#181818;stroke-width:0.5;"/><path d="M80.4688,21.5 L80.4688,48.5 M67.4688,29.5 L93.4688,29.5 M80.4688,48.5 L67.4688,63.5 M80.4688,48.5 L93.4688,63.5 " fill="none" style="stroke:#181818;stroke-width:0.5;"/><text fill="#000000" font-family="sans-serif" font-size="14" lengthAdjust="spacing" textLength="94.9375" x="30" y="1186.332">Show Designer</text><ellipse cx="80.4688" cy="1198.3457" fill="#E2E2F0" rx="8" ry="8" style="stroke:#181818;stroke-width:0.5;"/><path d="M80.4688,1206.3457 L80.4688,1233.3457 M67.4688,1214.3457 L93.4688,1214.3457 M80.4688,1233.3457 L67.4688,1248.3457 M80.4688,1233.3457 L93.4688,1248.3457 " fill="none" style="stroke:#181818;stroke-width:0.5;"/><rect fill="#E2E2F0" height="32.6211" rx="2.5" ry="2.5" style="stroke:#181818;stroke-width:0.5;" width="148.6133" x="211.1719" y="50"/><text fill="#000000" font-family="sans-serif" font-size="14" lengthAdjust="spacing" textLength="134.6133" x="218.1719" y="72.1074">EditFigureCategoryUI</text><rect fill="#E2E2F0" height="32.6211" rx="2.5" ry="2.5" style="stroke:#181818;stroke-width:0.5;" width="148.6133" x="211.1719" y="1171.2246"/><text fill="#000000" font-family="sans-serif" font-size="14" lengthAdjust="spacing" textLength="134.6133" x="218.1719" y="1193.332">EditFigureCategoryUI</text><rect fill="#E2E2F0" height="32.6211" rx="2.5" ry="2.5" style="stroke:#181818;stroke-width:0.5;" width="195.3027" x="370.0615" y="50"/><text fill="#000000" font-family="sans-serif" font-size="14" lengthAdjust="spacing" textLength="181.3027" x="377.0615" y="72.1074">EditFigureCategoryController</text><rect fill="#E2E2F0" height="32.6211" rx="2.5" ry="2.5" style="stroke:#181818;stroke-width:0.5;" width="195.3027" x="370.0615" y="1171.2246"/><text fill="#000000" font-family="sans-serif" font-size="14" lengthAdjust="spacing" textLength="181.3027" x="377.0615" y="1193.332">EditFigureCategoryController</text><rect fill="#E2E2F0" height="32.6211" rx="2.5" ry="2.5" style="stroke:#181818;stroke-width:0.5;" width="157.1719" x="575.3643" y="50"/><text fill="#000000" font-family="sans-serif" font-size="14" lengthAdjust="spacing" textLength="143.1719" x="582.3643" y="72.1074">FigureCategoryService</text><rect fill="#E2E2F0" height="32.6211" rx="2.5" ry="2.5" style="stroke:#181818;stroke-width:0.5;" width="157.1719" x="575.3643" y="1171.2246"/><text fill="#000000" font-family="sans-serif" font-size="14" lengthAdjust="spacing" textLength="143.1719" x="582.3643" y="1193.332">FigureCategoryService</text><rect fill="#E2E2F0" height="32.6211" rx="2.5" ry="2.5" style="stroke:#181818;stroke-width:0.5;" width="135.3926" x="742.5361" y="50"/><text fill="#000000" font-family="sans-serif" font-size="14" lengthAdjust="spacing" textLength="121.3926" x="749.5361" y="72.1074">PersistenceContext</text><rect fill="#E2E2F0" height="32.6211" rx="2.5" ry="2.5" style="stroke:#181818;stroke-width:0.5;" width="135.3926" x="742.5361" y="1171.2246"/><text fill="#000000" font-family="sans-serif" font-size="14" lengthAdjust="spacing" textLength="121.3926" x="749.5361" y="1193.332">PersistenceContext</text><rect fill="#E2E2F0" height="32.6211" rx="2.5" ry="2.5" style="stroke:#181818;stroke-width:0.5;" width="127.5928" x="887.9287" y="50"/><text fill="#000000" font-family="sans-serif" font-size="14" lengthAdjust="spacing" textLength="113.5928" x="894.9287" y="72.1074">RepositoryFactory</text><rect fill="#E2E2F0" height="32.6211" rx="2.5" ry="2.5" style="stroke:#181818;stroke-width:0.5;" width="127.5928" x="887.9287" y="1171.2246"/><text fill="#000000" font-family="sans-serif" font-size="14" lengthAdjust="spacing" textLength="113.5928" x="894.9287" y="1193.332">RepositoryFactory</text><rect fill="#E2E2F0" height="32.6211" rx="2.5" ry="2.5" style="stroke:#181818;stroke-width:0.5;" width="177.4063" x="1025.5215" y="50"/><text fill="#000000" font-family="sans-serif" font-size="14" lengthAdjust="spacing" textLength="163.4063" x="1032.5215" y="72.1074">FigureCategoryRepository</text><rect fill="#E2E2F0" height="32.6211" rx="2.5" ry="2.5" style="stroke:#181818;stroke-width:0.5;" width="177.4063" x="1025.5215" y="1171.2246"/><text fill="#000000" font-family="sans-serif" font-size="14" lengthAdjust="spacing" textLength="163.4063" x="1032.5215" y="1193.332">FigureCategoryRepository</text><rect fill="#E2E2F0" height="32.6211" rx="2.5" ry="2.5" style="stroke:#181818;stroke-width:0.5;" width="110.4893" x="1212.9277" y="50"/><text fill="#000000" font-family="sans-serif" font-size="14" lengthAdjust="spacing" textLength="96.4893" x="1219.9277" y="72.1074">FigureCategory</text><rect fill="#E2E2F0" height="32.6211" rx="2.5" ry="2.5" style="stroke:#181818;stroke-width:0.5;" width="110.4893" x="1212.9277" y="1171.2246"/><text fill="#000000" font-family="sans-serif" font-size="14" lengthAdjust="spacing" textLength="96.4893" x="1219.9277" y="1193.332">FigureCategory</text><rect fill="#EEEEEE" height="3" style="stroke:#EEEEEE;stroke-width:1.0;" width="1353.417" x="0" y="115.2666"/><line style="stroke:#000000;stroke-width:1.0;" x1="0" x2="1353.417" y1="115.2666" y2="115.2666"/><line style="stroke:#000000;stroke-width:1.0;" x1="0" x2="1353.417" y1="118.2666" y2="118.2666"/><rect fill="#EEEEEE" height="25.291" style="stroke:#000000;stroke-width:2.0;" width="109.3672" x="622.0249" y="103.6211"/><text fill="#000000" font-family="sans-serif" font-size="13" font-weight="bold" lengthAdjust="spacing" textLength="91.7554" x="628.0249" y="121.6494">List categories</text><polygon fill="#181818" points="273.4785,158.2031,283.4785,162.2031,273.4785,166.2031,277.4785,162.2031" style="stroke:#181818;stroke-width:1.0;"/><line style="stroke:#181818;stroke-width:1.0;" x1="80.4688" x2="279.4785" y1="162.2031" y2="162.2031"/><text fill="#000000" font-family="sans-serif" font-size="13" lengthAdjust="spacing" textLength="151.7598" x="87.4688" y="156.9404">Request to edit a category</text><polygon fill="#181818" points="455.7129,189.4941,465.7129,193.4941,455.7129,197.4941,459.7129,193.4941" style="stroke:#181818;stroke-width:1.0;"/><line style="stroke:#181818;stroke-width:1.0;" x1="285.4785" x2="461.7129" y1="193.4941" y2="193.4941"/><text fill="#000000" font-family="sans-serif" font-size="13" lengthAdjust="spacing" textLength="36.1309" x="292.4785" y="188.2314">create</text><polygon fill="#181818" points="798.2324,220.7852,808.2324,224.7852,798.2324,228.7852,802.2324,224.7852" style="stroke:#181818;stroke-width:1.0;"/><line style="stroke:#181818;stroke-width:1.0;" x1="467.7129" x2="804.2324" y1="224.7852" y2="224.7852"/><text fill="#000000" font-family="sans-serif" font-size="13" lengthAdjust="spacing" textLength="75.8545" x="474.7129" y="219.5225">repositories()</text><polygon fill="#181818" points="939.7251,252.0762,949.7251,256.0762,939.7251,260.0762,943.7251,256.0762" style="stroke:#181818;stroke-width:1.0;"/><line style="stroke:#181818;stroke-width:1.0;" x1="810.2324" x2="945.7251" y1="256.0762" y2="256.0762"/><text fill="#000000" font-family="sans-serif" font-size="13" lengthAdjust="spacing" textLength="36.1309" x="817.2324" y="250.8135">create</text><polygon fill="#181818" points="1102.2246,283.3672,1112.2246,287.3672,1102.2246,291.3672,1106.2246,287.3672" style="stroke:#181818;stroke-width:1.0;"/><line style="stroke:#181818;stroke-width:1.0;" x1="951.7251" x2="1108.2246" y1="287.3672" y2="287.3672"/><text fill="#000000" font-family="sans-serif" font-size="13" lengthAdjust="spacing" textLength="36.1309" x="958.7251" y="282.1045">create</text><polygon fill="#181818" points="455.7129,314.6582,465.7129,318.6582,455.7129,322.6582,459.7129,318.6582" style="stroke:#181818;stroke-width:1.0;"/><line style="stroke:#181818;stroke-width:1.0;" x1="285.4785" x2="461.7129" y1="318.6582" y2="318.6582"/><text fill="#000000" font-family="sans-serif" font-size="13" lengthAdjust="spacing" textLength="87.4136" x="292.4785" y="313.3955">listCategories()</text><polygon fill="#181818" points="641.9502,345.9492,651.9502,349.9492,641.9502,353.9492,645.9502,349.9492" style="stroke:#181818;stroke-width:1.0;"/><line style="stroke:#181818;stroke-width:1.0;" x1="467.7129" x2="647.9502" y1="349.9492" y2="349.9492"/><text fill="#000000" font-family="sans-serif" font-size="13" lengthAdjust="spacing" textLength="87.4136" x="474.7129" y="344.6865">listCategories()</text><polygon fill="#181818" points="1102.2246,377.2402,1112.2246,381.2402,1102.2246,385.2402,1106.2246,381.2402" style="stroke:#181818;stroke-width:1.0;"/><line style="stroke:#181818;stroke-width:1.0;" x1="653.9502" x2="1108.2246" y1="381.2402" y2="381.2402"/><text fill="#000000" font-family="sans-serif" font-size="13" lengthAdjust="spacing" textLength="44.0654" x="660.9502" y="375.9775">findAll()</text><polygon fill="#181818" points="664.9502,408.5313,654.9502,412.5313,664.9502,416.5313,660.9502,412.5313" style="stroke:#181818;stroke-width:1.0;"/><line style="stroke:#181818;stroke-width:1.0;stroke-dasharray:2.0,2.0;" x1="658.9502" x2="1113.2246" y1="412.5313" y2="412.5313"/><text fill="#000000" font-family="sans-serif" font-size="13" lengthAdjust="spacing" textLength="76.5972" x="670.9502" y="407.2686">all categories</text><polygon fill="#181818" points="478.7129,439.8223,468.7129,443.8223,478.7129,447.8223,474.7129,443.8223" style="stroke:#181818;stroke-width:1.0;"/><line style="stroke:#181818;stroke-width:1.0;stroke-dasharray:2.0,2.0;" x1="472.7129" x2="652.9502" y1="443.8223" y2="443.8223"/><text fill="#000000" font-family="sans-serif" font-size="13" lengthAdjust="spacing" textLength="15.8882" x="484.7129" y="438.5596">list</text><polygon fill="#181818" points="296.4785,471.1133,286.4785,475.1133,296.4785,479.1133,292.4785,475.1133" style="stroke:#181818;stroke-width:1.0;"/><line style="stroke:#181818;stroke-width:1.0;stroke-dasharray:2.0,2.0;" x1="290.4785" x2="466.7129" y1="475.1133" y2="475.1133"/><text fill="#000000" font-family="sans-serif" font-size="13" lengthAdjust="spacing" textLength="15.8882" x="302.4785" y="469.8506">list</text><polygon fill="#181818" points="91.4688,502.4043,81.4688,506.4043,91.4688,510.4043,87.4688,506.4043" style="stroke:#181818;stroke-width:1.0;"/><line style="stroke:#181818;stroke-width:1.0;" x1="85.4688" x2="284.4785" y1="506.4043" y2="506.4043"/><text fill="#000000" font-family="sans-serif" font-size="13" lengthAdjust="spacing" textLength="125.7153" x="97.4688" y="501.1416">Display categories list</text><rect fill="#EEEEEE" height="3" style="stroke:#EEEEEE;stroke-width:1.0;" width="1353.417" x="0" y="536.0498"/><line style="stroke:#000000;stroke-width:1.0;" x1="0" x2="1353.417" y1="536.0498" y2="536.0498"/><line style="stroke:#000000;stroke-width:1.0;" x1="0" x2="1353.417" y1="539.0498" y2="539.0498"/><rect fill="#EEEEEE" height="25.291" style="stroke:#000000;stroke-width:2.0;" width="99.9663" x="626.7253" y="524.4043"/><text fill="#000000" font-family="sans-serif" font-size="13" font-weight="bold" lengthAdjust="spacing" textLength="82.3545" x="632.7253" y="542.4326">Edit category</text><polygon fill="#181818" points="273.4785,578.9863,283.4785,582.9863,273.4785,586.9863,277.4785,582.9863" style="stroke:#181818;stroke-width:1.0;"/><line style="stroke:#181818;stroke-width:1.0;" x1="80.4688" x2="279.4785" y1="582.9863" y2="582.9863"/><text fill="#000000" font-family="sans-serif" font-size="13" lengthAdjust="spacing" textLength="181.0098" x="87.4688" y="577.7236">Select category ID + new name</text><polygon fill="#181818" points="455.7129,610.2773,465.7129,614.2773,455.7129,618.2773,459.7129,614.2773" style="stroke:#181818;stroke-width:1.0;"/><line style="stroke:#181818;stroke-width:1.0;" x1="285.4785" x2="461.7129" y1="614.2773" y2="614.2773"/><text fill="#000000" font-family="sans-serif" font-size="13" lengthAdjust="spacing" textLength="158.2344" x="292.4785" y="609.0146">editCategory(id, newName)</text><polygon fill="#181818" points="641.9502,641.5684,651.9502,645.5684,641.9502,649.5684,645.9502,645.5684" style="stroke:#181818;stroke-width:1.0;"/><line style="stroke:#181818;stroke-width:1.0;" x1="467.7129" x2="647.9502" y1="645.5684" y2="645.5684"/><text fill="#000000" font-family="sans-serif" font-size="13" lengthAdjust="spacing" textLength="158.2344" x="474.7129" y="640.3057">editCategory(id, newName)</text><polygon fill="#181818" points="1102.2246,672.8594,1112.2246,676.8594,1102.2246,680.8594,1106.2246,676.8594" style="stroke:#181818;stroke-width:1.0;"/><line style="stroke:#181818;stroke-width:1.0;" x1="653.9502" x2="1108.2246" y1="676.8594" y2="676.8594"/><text fill="#000000" font-family="sans-serif" font-size="13" lengthAdjust="spacing" textLength="71.5317" x="660.9502" y="671.5967">ofIdentity(id)</text><path d="M10,691.8594 L70.1709,691.8594 L70.1709,701.1504 L60.1709,711.1504 L10,711.1504 L10,691.8594 " fill="#EEEEEE" style="stroke:#000000;stroke-width:1.5;"/><rect fill="none" height="463.3652" style="stroke:#000000;stroke-width:1.5;" width="1333.417" x="10" y="691.8594"/><text fill="#000000" font-family="sans-serif" font-size="13" font-weight="bold" lengthAdjust="spacing" textLength="15.1709" x="25" y="706.8877">alt</text><text fill="#000000" font-family="sans-serif" font-size="11" font-weight="bold" lengthAdjust="spacing" textLength="58.0239" x="85.1709" y="705.7295">[not found]</text><polygon fill="#181818" points="478.7129,730.4414,468.7129,734.4414,478.7129,738.4414,474.7129,734.4414" style="stroke:#181818;stroke-width:1.0;"/><line style="stroke:#181818;stroke-width:1.0;" x1="472.7129" x2="652.9502" y1="734.4414" y2="734.4414"/><text fill="#000000" font-family="sans-serif" font-size="13" lengthAdjust="spacing" textLength="62.8481" x="484.7129" y="729.1787">throw error</text><polygon fill="#181818" points="296.4785,761.7324,286.4785,765.7324,296.4785,769.7324,292.4785,765.7324" style="stroke:#181818;stroke-width:1.0;"/><line style="stroke:#181818;stroke-width:1.0;" x1="290.4785" x2="466.7129" y1="765.7324" y2="765.7324"/><text fill="#000000" font-family="sans-serif" font-size="13" lengthAdjust="spacing" textLength="61.4072" x="302.4785" y="760.4697">show error</text><polygon fill="#181818" points="91.4688,793.0234,81.4688,797.0234,91.4688,801.0234,87.4688,797.0234" style="stroke:#181818;stroke-width:1.0;"/><line style="stroke:#181818;stroke-width:1.0;" x1="85.4688" x2="284.4785" y1="797.0234" y2="797.0234"/><text fill="#000000" font-family="sans-serif" font-size="13" lengthAdjust="spacing" textLength="61.4072" x="97.4688" y="791.7607">show error</text><line style="stroke:#000000;stroke-width:1.0;stroke-dasharray:2.0,2.0;" x1="10" x2="1343.417" y1="806.0234" y2="806.0234"/><polygon fill="#181818" points="1102.2246,826.3145,1112.2246,830.3145,1102.2246,834.3145,1106.2246,830.3145" style="stroke:#181818;stroke-width:1.0;"/><line style="stroke:#181818;stroke-width:1.0;" x1="653.9502" x2="1108.2246" y1="830.3145" y2="830.3145"/><text fill="#000000" font-family="sans-serif" font-size="13" lengthAdjust="spacing" textLength="205.2007" x="660.9502" y="825.0518">findByNameIgnoreCase(newName)</text><path d="M20,845.3145 L80.1709,845.3145 L80.1709,854.6055 L70.1709,864.6055 L20,864.6055 L20,845.3145 " fill="#EEEEEE" style="stroke:#000000;stroke-width:1.5;"/><rect fill="none" height="302.9102" style="stroke:#000000;stroke-width:1.5;" width="1313.417" x="20" y="845.3145"/><text fill="#000000" font-family="sans-serif" font-size="13" font-weight="bold" lengthAdjust="spacing" textLength="15.1709" x="35" y="860.3428">alt</text><text fill="#000000" font-family="sans-serif" font-size="11" font-weight="bold" lengthAdjust="spacing" textLength="111.8906" x="95.1709" y="859.1846">[name already exists]</text><polygon fill="#181818" points="478.7129,883.8965,468.7129,887.8965,478.7129,891.8965,474.7129,887.8965" style="stroke:#181818;stroke-width:1.0;"/><line style="stroke:#181818;stroke-width:1.0;" x1="472.7129" x2="652.9502" y1="887.8965" y2="887.8965"/><text fill="#000000" font-family="sans-serif" font-size="13" lengthAdjust="spacing" textLength="62.8481" x="484.7129" y="882.6338">throw error</text><polygon fill="#181818" points="296.4785,915.1875,286.4785,919.1875,296.4785,923.1875,292.4785,919.1875" style="stroke:#181818;stroke-width:1.0;"/><line style="stroke:#181818;stroke-width:1.0;" x1="290.4785" x2="466.7129" y1="919.1875" y2="919.1875"/><text fill="#000000" font-family="sans-serif" font-size="13" lengthAdjust="spacing" textLength="61.4072" x="302.4785" y="913.9248">show error</text><polygon fill="#181818" points="91.4688,946.4785,81.4688,950.4785,91.4688,954.4785,87.4688,950.4785" style="stroke:#181818;stroke-width:1.0;"/><line style="stroke:#181818;stroke-width:1.0;" x1="85.4688" x2="284.4785" y1="950.4785" y2="950.4785"/><text fill="#000000" font-family="sans-serif" font-size="13" lengthAdjust="spacing" textLength="61.4072" x="97.4688" y="945.2158">show error</text><line style="stroke:#000000;stroke-width:1.0;stroke-dasharray:2.0,2.0;" x1="20" x2="1333.417" y1="959.4785" y2="959.4785"/><polygon fill="#181818" points="1256.1724,979.7695,1266.1724,983.7695,1256.1724,987.7695,1260.1724,983.7695" style="stroke:#181818;stroke-width:1.0;"/><line style="stroke:#181818;stroke-width:1.0;" x1="653.9502" x2="1262.1724" y1="983.7695" y2="983.7695"/><text fill="#000000" font-family="sans-serif" font-size="13" lengthAdjust="spacing" textLength="111.2617" x="660.9502" y="978.5068">rename(newName)</text><polygon fill="#181818" points="1102.2246,1011.0605,1112.2246,1015.0605,1102.2246,1019.0605,1106.2246,1015.0605" style="stroke:#181818;stroke-width:1.0;"/><line style="stroke:#181818;stroke-width:1.0;" x1="653.9502" x2="1108.2246" y1="1015.0605" y2="1015.0605"/><text fill="#000000" font-family="sans-serif" font-size="13" lengthAdjust="spacing" textLength="85.979" x="660.9502" y="1009.7979">save(category)</text><polygon fill="#181818" points="664.9502,1042.3516,654.9502,1046.3516,664.9502,1050.3516,660.9502,1046.3516" style="stroke:#181818;stroke-width:1.0;"/><line style="stroke:#181818;stroke-width:1.0;stroke-dasharray:2.0,2.0;" x1="658.9502" x2="1113.2246" y1="1046.3516" y2="1046.3516"/><text fill="#000000" font-family="sans-serif" font-size="13" lengthAdjust="spacing" textLength="70.8081" x="670.9502" y="1041.0889">confirmation</text><polygon fill="#181818" points="478.7129,1073.6426,468.7129,1077.6426,478.7129,1081.6426,474.7129,1077.6426" style="stroke:#181818;stroke-width:1.0;"/><line style="stroke:#181818;stroke-width:1.0;stroke-dasharray:2.0,2.0;" x1="472.7129" x2="652.9502" y1="1077.6426" y2="1077.6426"/><text fill="#000000" font-family="sans-serif" font-size="13" lengthAdjust="spacing" textLength="46.96" x="484.7129" y="1072.3799">success</text><polygon fill="#181818" points="296.4785,1104.9336,286.4785,1108.9336,296.4785,1112.9336,292.4785,1108.9336" style="stroke:#181818;stroke-width:1.0;"/><line style="stroke:#181818;stroke-width:1.0;stroke-dasharray:2.0,2.0;" x1="290.4785" x2="466.7129" y1="1108.9336" y2="1108.9336"/><text fill="#000000" font-family="sans-serif" font-size="13" lengthAdjust="spacing" textLength="80.9199" x="302.4785" y="1103.6709">show success</text><polygon fill="#181818" points="91.4688,1136.2246,81.4688,1140.2246,91.4688,1144.2246,87.4688,1140.2246" style="stroke:#181818;stroke-width:1.0;"/><line style="stroke:#181818;stroke-width:1.0;" x1="85.4688" x2="284.4785" y1="1140.2246" y2="1140.2246"/><text fill="#000000" font-family="sans-serif" font-size="13" lengthAdjust="spacing" textLength="80.9199" x="97.4688" y="1134.9619">show success</text><!--SRC=[bLFRRjim37tNLn3PIugjpqCBPC1Yru21OGXYz0C4cN64Af8dAMsDOVy-IgvZotLsUJ5adaEHvv1oJrAttF8JAAdHTos2iVvecBi0BHTFl47uoG2sT6wiEUiwCyfO-53SFNo-Am9YR8ssZsuLqTWlnhZmzBkgZkO5SdIoqMXNm1rKEQFBlHIovTh3wg6Mlf3DsMB6FJR6Tezb93wMVoDcHdjhb7gxUVnD4zEa2ksp5DZtqfzJ-WwjaywZ5XXkn5SVkRiifUsnDKwIoAw8Mhl8sXT_gZtcz6JwPMopWMzK3qHFakXWis6iok7s2va0zyJxSKPYU0D89W0Vk1qZd5YZSc8BYuIoIOmOkumGEvId6kiRHZ52ziMOG-SG8TeOMwYWgDtiqYtTbDPwStM9E41ZbOFKzLUb28k1soIVApMnPSnUQYXfOd0k0hq2ylCUSkbQnRkfrv4IXX3swsBiV0GLAXGJkCpX8sXy0SrFYnw5GGrZNylwKo1_9-vriwvdl7VD7CeQjPS-C6yOLnwqyN08pvDU9C0a9MdB7oqzIBJMsCXBcubItJ5XJDoR8AWSpWjD9hhjGkTbeqrOVeVhYvQG4zkbFphGZjKTu2iDmKNiVvh_Dm7NHGJa8cHME7suyV64bbCXomOu_ephOLD6ui9-2wCFqfwubqQ_lt0ktvs5GESMfIVQvyIv-YcEj32CFhy1]--></g></svg>