<?xml version="1.0" encoding="us-ascii" standalone="no"?><svg xmlns="http://www.w3.org/2000/svg" xmlns:xlink="http://www.w3.org/1999/xlink" contentStyleType="text/css" height="399px" preserveAspectRatio="none" style="width:1772px;height:399px;background:#FFFFFF;" version="1.1" viewBox="0 0 1772 399" width="1772px" zoomAndPan="magnify"><defs/><g><rect fill="#FFFFFF" height="57.582" style="stroke:#181818;stroke-width:1.0;" width="10" x="768" y="71.9121"/><rect fill="#FFFFFF" height="37.291" style="stroke:#181818;stroke-width:1.0;" width="10" x="768" y="261.6973"/><rect fill="#FFFFFF" height="122.2031" style="stroke:#181818;stroke-width:1.0;" width="10" x="1578" y="139.4941"/><rect fill="#FFFFFF" height="42.291" style="stroke:#181818;stroke-width:1.0;" width="10" x="1583" y="181.1152"/><rect fill="none" height="227.0762" style="stroke:#000000;stroke-width:1.5;" width="1069" x="697" y="86.9121"/><line style="stroke:#181818;stroke-width:0.5;stroke-dasharray:5.0,5.0;" x1="773" x2="773" y1="38.6211" y2="362.2793"/><line style="stroke:#181818;stroke-width:0.5;stroke-dasharray:5.0,5.0;" x1="1583" x2="1583" y1="138.0137" y2="362.2793"/><rect fill="#E3E3E3" height="32.6211" rx="2.5" ry="2.5" style="stroke:#181818;stroke-width:0.5;" width="132" x="707" y="5"/><text fill="#000000" font-family="sans-serif" font-size="14" lengthAdjust="spacing" textLength="118" x="714" y="27.1074">:VehicleRepository</text><rect fill="#E3E3E3" height="32.6211" rx="2.5" ry="2.5" style="stroke:#181818;stroke-width:0.5;" width="132" x="707" y="361.2793"/><text fill="#000000" font-family="sans-serif" font-size="14" lengthAdjust="spacing" textLength="118" x="714" y="383.3867">:VehicleRepository</text><rect fill="#E3E3E3" height="32.6211" rx="2.5" ry="2.5" style="stroke:#181818;stroke-width:0.5;" width="64" x="1551" y="361.2793"/><text fill="#000000" font-family="sans-serif" font-size="14" lengthAdjust="spacing" textLength="50" x="1558" y="383.3867">:Vehicle</text><rect fill="#FFFFFF" height="57.582" style="stroke:#181818;stroke-width:1.0;" width="10" x="768" y="71.9121"/><rect fill="#FFFFFF" height="37.291" style="stroke:#181818;stroke-width:1.0;" width="10" x="768" y="261.6973"/><rect fill="#FFFFFF" height="122.2031" style="stroke:#181818;stroke-width:1.0;" width="10" x="1578" y="139.4941"/><rect fill="#FFFFFF" height="42.291" style="stroke:#181818;stroke-width:1.0;" width="10" x="1583" y="181.1152"/><polygon fill="#181818" points="756,67.9121,766,71.9121,756,75.9121,760,71.9121" style="stroke:#181818;stroke-width:1.0;"/><line style="stroke:#181818;stroke-width:1.0;" x1="0" x2="762" y1="71.9121" y2="71.9121"/><text fill="#000000" font-family="sans-serif" font-size="13" font-weight="bold" lengthAdjust="spacing" textLength="7" x="7" y="66.6494">3</text><text fill="#000000" font-family="sans-serif" font-size="13" lengthAdjust="spacing" textLength="738" x="18" y="66.6494">addVehicle(Brand, Model, Type, TareWeight, GrossWeight, CurrentKm, RegisterDate, AcquisitionDate, MaintenanceFrequency)</text><path d="M697,86.9121 L834,86.9121 L834,96.2031 L824,106.2031 L697,106.2031 L697,86.9121 " fill="#EEEEEE" style="stroke:#000000;stroke-width:1.5;"/><rect fill="none" height="227.0762" style="stroke:#000000;stroke-width:1.5;" width="1069" x="697" y="86.9121"/><text fill="#000000" font-family="sans-serif" font-size="13" font-weight="bold" lengthAdjust="spacing" textLength="92" x="712" y="101.9404">Create vehicle</text><polygon fill="#181818" points="1539,125.4941,1549,129.4941,1539,133.4941,1543,129.4941" style="stroke:#181818;stroke-width:1.0;"/><line style="stroke:#181818;stroke-width:1.0;" x1="773" x2="1545" y1="129.4941" y2="129.4941"/><text fill="#000000" font-family="sans-serif" font-size="13" font-weight="bold" lengthAdjust="spacing" textLength="7" x="780" y="124.2314">4</text><text fill="#000000" font-family="sans-serif" font-size="13" lengthAdjust="spacing" textLength="738" x="791" y="124.2314">addVehicle(Brand, Model, Type, TareWeight, GrossWeight, CurrentKm, RegisterDate, AcquisitionDate, MaintenanceFrequency)</text><rect fill="#E3E3E3" height="32.6211" rx="2.5" ry="2.5" style="stroke:#181818;stroke-width:0.5;" width="64" x="1551" y="106.2031"/><text fill="#000000" font-family="sans-serif" font-size="14" lengthAdjust="spacing" textLength="50" x="1558" y="128.3105">:Vehicle</text><line style="stroke:#181818;stroke-width:1.0;" x1="1588" x2="1635" y1="168.1152" y2="168.1152"/><line style="stroke:#181818;stroke-width:1.0;" x1="1635" x2="1635" y1="168.1152" y2="181.1152"/><line style="stroke:#181818;stroke-width:1.0;" x1="1594" x2="1635" y1="181.1152" y2="181.1152"/><polygon fill="#181818" points="1604,177.1152,1594,181.1152,1604,185.1152,1600,181.1152" style="stroke:#181818;stroke-width:1.0;"/><text fill="#000000" font-family="sans-serif" font-size="13" font-weight="bold" lengthAdjust="spacing" textLength="7" x="1600" y="162.8525">5</text><text fill="#000000" font-family="sans-serif" font-size="13" lengthAdjust="spacing" textLength="68" x="1611" y="162.8525">verifyFilled()</text><line style="stroke:#181818;stroke-width:1.0;" x1="1593" x2="1635" y1="222.4063" y2="222.4063"/><line style="stroke:#181818;stroke-width:1.0;" x1="1635" x2="1635" y1="222.4063" y2="235.4063"/><line style="stroke:#181818;stroke-width:1.0;" x1="1588" x2="1635" y1="235.4063" y2="235.4063"/><polygon fill="#181818" points="1598,231.4063,1588,235.4063,1598,239.4063,1594,235.4063" style="stroke:#181818;stroke-width:1.0;"/><text fill="#000000" font-family="sans-serif" font-size="13" font-weight="bold" lengthAdjust="spacing" textLength="7" x="1600" y="217.1436">6</text><text fill="#000000" font-family="sans-serif" font-size="13" lengthAdjust="spacing" textLength="143" x="1611" y="217.1436">verifySpecialCharacters()</text><polygon fill="#181818" points="789,257.6973,779,261.6973,789,265.6973,785,261.6973" style="stroke:#181818;stroke-width:1.0;"/><line style="stroke:#181818;stroke-width:1.0;stroke-dasharray:2.0,2.0;" x1="783" x2="1582" y1="261.6973" y2="261.6973"/><text fill="#000000" font-family="sans-serif" font-size="13" font-weight="bold" lengthAdjust="spacing" textLength="7" x="795" y="256.4346">7</text><text fill="#000000" font-family="sans-serif" font-size="13" lengthAdjust="spacing" textLength="39" x="806" y="256.4346">vehicle</text><line style="stroke:#181818;stroke-width:1.0;" x1="778" x2="820" y1="297.9883" y2="297.9883"/><line style="stroke:#181818;stroke-width:1.0;" x1="820" x2="820" y1="297.9883" y2="310.9883"/><line style="stroke:#181818;stroke-width:1.0;" x1="773" x2="820" y1="310.9883" y2="310.9883"/><polygon fill="#181818" points="783,306.9883,773,310.9883,783,314.9883,779,310.9883" style="stroke:#181818;stroke-width:1.0;"/><text fill="#000000" font-family="sans-serif" font-size="13" font-weight="bold" lengthAdjust="spacing" textLength="7" x="785" y="292.7256">8</text><text fill="#000000" font-family="sans-serif" font-size="13" lengthAdjust="spacing" textLength="116" x="796" y="292.7256">check for duplicates</text><polygon fill="#181818" points="11,340.2793,1,344.2793,11,348.2793,7,344.2793" style="stroke:#181818;stroke-width:1.0;"/><line style="stroke:#181818;stroke-width:1.0;stroke-dasharray:2.0,2.0;" x1="5" x2="772" y1="344.2793" y2="344.2793"/><text fill="#000000" font-family="sans-serif" font-size="13" font-weight="bold" lengthAdjust="spacing" textLength="7" x="17" y="339.0166">9</text><text fill="#000000" font-family="sans-serif" font-size="13" lengthAdjust="spacing" textLength="39" x="28" y="339.0166">vehicle</text><!--SRC=[nP9DJm8n48Rl_HKJJq2MapTYJ1I31yC5Z9x7TjXjwBPbscBstrlbGs3NvMWFJJfzvvrvsWbhRJqorb0xwsJ5hYQ8d4Y4uur7kSQIbh4n14moeYtDgI1KgDodjYMiq0GI0bDqDjKVn70hH1P5BRL76-5cyaQLbeOMv5tGqN5p0nYW5UtEEjKACRvlvqq0bTf71u-CLXKmTufC0Q-DfxmZqplfiee5FBCBuN2O9cQoyQKkO46b3f7u2MFEU92RfBExTdONcAEsaInQIJEcJI8hcs6cbb5liw031l8gsIKFKwPloVR00FlLoe5Vkj7e_wWKzM0Tkx_K72zEq4w0O98VWFMgcMbZI0s6P_fUiok6IqzIevbMUJ1bPWqNtcqSqTrhrspzL3blgSFlBuokTxlsysUrPKLo3Il7e98tMcRlqDF8nVYHLRkwT-DnBzeN]--></g></svg>