<?xml version="1.0" encoding="us-ascii" standalone="no"?><svg xmlns="http://www.w3.org/2000/svg" xmlns:xlink="http://www.w3.org/1999/xlink" contentStyleType="text/css" height="353.5px" preserveAspectRatio="none" style="width:1883px;height:353px;background:#FFFFFF;" version="1.1" viewBox="0 0 1883 353" width="1883.7px" zoomAndPan="magnify"><defs/><g><!--class Vehicle--><g id="elem_Vehicle"><rect codeLine="8" fill="#F1F1F1" height="176.9824" id="Vehicle" rx="1.75" ry="1.75" style="stroke:#181818;stroke-width:0.3499999999999999;" width="816.9" x="1062.25" y="4.9"/><ellipse cx="1451.625" cy="16.1" fill="#ADD1B2" rx="7.7" ry="7.7" style="stroke:#181818;stroke-width:0.6999999999999998;"/><path d="M1453.5609,13.2125 Q1453.6703,13.0594 1453.8016,12.9828 Q1453.9328,12.9062 1454.0859,12.9062 Q1454.3484,12.9062 1454.5125,13.0922 Q1454.6766,13.2672 1454.6766,13.6937 L1454.6766,14.7109 Q1454.6766,15.1375 1454.5125,15.3234 Q1454.3484,15.5094 1454.0859,15.5094 Q1453.8453,15.5094 1453.7031,15.3672 Q1453.5609,15.2359 1453.4844,14.875 Q1453.4516,14.6234 1453.3203,14.4922 Q1453.0906,14.2297 1452.6641,14.0766 Q1452.2375,13.9234 1451.8,13.9234 Q1451.2641,13.9234 1450.8156,14.1531 Q1450.3781,14.3828 1450.0281,14.9078 Q1449.6891,15.4328 1449.6891,16.1547 L1449.6891,16.9203 Q1449.6891,17.7844 1450.3125,18.3641 Q1450.9359,18.9328 1452.0516,18.9328 Q1452.7078,18.9328 1453.1672,18.7578 Q1453.4406,18.6484 1453.7359,18.3422 Q1453.9219,18.1562 1454.0203,18.1016 Q1454.1297,18.0469 1454.2719,18.0469 Q1454.5016,18.0469 1454.6766,18.2328 Q1454.8625,18.4078 1454.8625,18.6484 Q1454.8625,18.8891 1454.6219,19.1734 Q1454.2719,19.5781 1453.7141,19.8078 Q1452.9594,20.125 1452.0516,20.125 Q1450.9906,20.125 1450.1484,19.6875 Q1449.4594,19.3375 1448.9781,18.5937 Q1448.4969,17.8391 1448.4969,16.9422 L1448.4969,16.1328 Q1448.4969,15.2031 1448.9234,14.4047 Q1449.3609,13.5953 1450.1266,13.1687 Q1450.8922,12.7312 1451.7562,12.7312 Q1452.2703,12.7312 1452.7187,12.8516 Q1453.1781,12.9609 1453.5609,13.2125 Z " fill="#000000"/><text fill="#000000" font-family="sans-serif" font-size="9.8" lengthAdjust="spacing" textLength="32.2" x="1465.975" y="20.1578">Vehicle</text><line style="stroke:#181818;stroke-width:0.3499999999999999;" x1="1062.95" x2="1878.45" y1="27.3" y2="27.3"/><text fill="#000000" font-family="sans-serif" font-size="9.8" lengthAdjust="spacing" textLength="61.6" x="1066.45" y="40.6752">-Brand: String</text><text fill="#000000" font-family="sans-serif" font-size="9.8" lengthAdjust="spacing" textLength="61.6" x="1066.45" y="53.71">-Model: String</text><text fill="#000000" font-family="sans-serif" font-size="9.8" lengthAdjust="spacing" textLength="57.4" x="1066.45" y="66.7447">-Type: String</text><text fill="#000000" font-family="sans-serif" font-size="9.8" lengthAdjust="spacing" textLength="79.8" x="1066.45" y="79.7795">-TareWeight: float</text><text fill="#000000" font-family="sans-serif" font-size="9.8" lengthAdjust="spacing" textLength="85.4" x="1066.45" y="92.8143">-GrossWeight: float</text><text fill="#000000" font-family="sans-serif" font-size="9.8" lengthAdjust="spacing" textLength="75.6" x="1066.45" y="105.849">-CurrentKm: float</text><text fill="#000000" font-family="sans-serif" font-size="9.8" lengthAdjust="spacing" textLength="93.1" x="1066.45" y="118.8838">-RegisterDate: String</text><text fill="#000000" font-family="sans-serif" font-size="9.8" lengthAdjust="spacing" textLength="103.6" x="1066.45" y="131.9186">-AcquisitionDate: String</text><text fill="#000000" font-family="sans-serif" font-size="9.8" lengthAdjust="spacing" textLength="132.3" x="1066.45" y="144.9533">-MaintenanceFrequency: float</text><text fill="#000000" font-family="sans-serif" font-size="9.8" lengthAdjust="spacing" textLength="69.3" x="1066.45" y="157.9881">+getters/setters</text><line style="stroke:#181818;stroke-width:0.3499999999999999;" x1="1062.95" x2="1878.45" y1="163.2477" y2="163.2477"/><text fill="#000000" font-family="sans-serif" font-size="9.8" lengthAdjust="spacing" textLength="808.5" x="1066.45" y="176.6229">+Vehicle(Brand: String, Model: String, Type: String, TareWeight: float, GrossWeight: float, CurrentKm: float, RegisterDate: String, AcquisitionDate: String, MaintenanceFrequency: float)</text></g><!--class VehicleRepository--><g id="elem_VehicleRepository"><rect codeLine="22" fill="#F1F1F1" height="111.8086" id="VehicleRepository" rx="1.75" ry="1.75" style="stroke:#181818;stroke-width:0.3499999999999999;" width="196" x="1290.1" y="237.3"/><ellipse cx="1345.225" cy="248.5" fill="#ADD1B2" rx="7.7" ry="7.7" style="stroke:#181818;stroke-width:0.6999999999999998;"/><path d="M1347.1609,245.6125 Q1347.2703,245.4594 1347.4016,245.3828 Q1347.5328,245.3062 1347.6859,245.3062 Q1347.9484,245.3062 1348.1125,245.4922 Q1348.2766,245.6672 1348.2766,246.0937 L1348.2766,247.1109 Q1348.2766,247.5375 1348.1125,247.7234 Q1347.9484,247.9094 1347.6859,247.9094 Q1347.4453,247.9094 1347.3031,247.7672 Q1347.1609,247.6359 1347.0844,247.275 Q1347.0516,247.0234 1346.9203,246.8922 Q1346.6906,246.6297 1346.2641,246.4766 Q1345.8375,246.3234 1345.4,246.3234 Q1344.8641,246.3234 1344.4156,246.5531 Q1343.9781,246.7828 1343.6281,247.3078 Q1343.2891,247.8328 1343.2891,248.5547 L1343.2891,249.3203 Q1343.2891,250.1844 1343.9125,250.7641 Q1344.5359,251.3328 1345.6516,251.3328 Q1346.3078,251.3328 1346.7672,251.1578 Q1347.0406,251.0484 1347.3359,250.7422 Q1347.5219,250.5562 1347.6203,250.5016 Q1347.7297,250.4469 1347.8719,250.4469 Q1348.1016,250.4469 1348.2766,250.6328 Q1348.4625,250.8078 1348.4625,251.0484 Q1348.4625,251.2891 1348.2219,251.5734 Q1347.8719,251.9781 1347.3141,252.2078 Q1346.5594,252.525 1345.6516,252.525 Q1344.5906,252.525 1343.7484,252.0875 Q1343.0594,251.7375 1342.5781,250.9937 Q1342.0969,250.2391 1342.0969,249.3422 L1342.0969,248.5328 Q1342.0969,247.6031 1342.5234,246.8047 Q1342.9609,245.9953 1343.7266,245.5687 Q1344.4922,245.1312 1345.3562,245.1312 Q1345.8703,245.1312 1346.3187,245.2516 Q1346.7781,245.3609 1347.1609,245.6125 Z " fill="#000000"/><text fill="#000000" font-family="sans-serif" font-size="9.8" lengthAdjust="spacing" textLength="79.8" x="1359.575" y="252.5578">VehicleRepository</text><line style="stroke:#181818;stroke-width:0.3499999999999999;" x1="1290.8" x2="1485.4" y1="259.7" y2="259.7"/><text fill="#000000" font-family="sans-serif" font-size="9.8" lengthAdjust="spacing" textLength="127.4" x="1294.3" y="273.0752">-vehicles: ArrayList&lt;Vehicle&gt;</text><line style="stroke:#181818;stroke-width:0.3499999999999999;" x1="1290.8" x2="1485.4" y1="278.3348" y2="278.3348"/><text fill="#000000" font-family="sans-serif" font-size="9.8" lengthAdjust="spacing" textLength="171.5" x="1294.3" y="291.71">+addVehicle(vehicle: Vehicle): boolean</text><text fill="#000000" font-family="sans-serif" font-size="9.8" lengthAdjust="spacing" textLength="187.6" x="1294.3" y="304.7447">+removeVehicle(vehicle: Vehicle): boolean</text><text fill="#000000" font-family="sans-serif" font-size="9.8" lengthAdjust="spacing" textLength="185.5" x="1294.3" y="317.7795">+updateVehicle(vehicle: Vehicle): boolean</text><text fill="#000000" font-family="sans-serif" font-size="9.8" lengthAdjust="spacing" textLength="154.7" x="1294.3" y="330.8143">+getVehicleById(id: String): Vehicle</text><text fill="#000000" font-family="sans-serif" font-size="9.8" lengthAdjust="spacing" textLength="162.4" x="1294.3" y="343.849">+getAllVehicles(): ArrayList&lt;Vehicle&gt;</text></g><!--class CreateVehicleController--><g id="elem_CreateVehicleController"><rect codeLine="31" fill="#F1F1F1" height="72.7043" id="CreateVehicleController" rx="1.75" ry="1.75" style="stroke:#181818;stroke-width:0.3499999999999999;" width="875" x="162.4" y="57.05"/><ellipse cx="544.075" cy="68.25" fill="#ADD1B2" rx="7.7" ry="7.7" style="stroke:#181818;stroke-width:0.6999999999999998;"/><path d="M546.0109,65.3625 Q546.1203,65.2094 546.2516,65.1328 Q546.3828,65.0562 546.5359,65.0562 Q546.7984,65.0562 546.9625,65.2422 Q547.1266,65.4172 547.1266,65.8437 L547.1266,66.8609 Q547.1266,67.2875 546.9625,67.4734 Q546.7984,67.6594 546.5359,67.6594 Q546.2953,67.6594 546.1531,67.5172 Q546.0109,67.3859 545.9344,67.025 Q545.9016,66.7734 545.7703,66.6422 Q545.5406,66.3797 545.1141,66.2266 Q544.6875,66.0734 544.25,66.0734 Q543.7141,66.0734 543.2656,66.3031 Q542.8281,66.5328 542.4781,67.0578 Q542.1391,67.5828 542.1391,68.3047 L542.1391,69.0703 Q542.1391,69.9344 542.7625,70.5141 Q543.3859,71.0828 544.5016,71.0828 Q545.1578,71.0828 545.6172,70.9078 Q545.8906,70.7984 546.1859,70.4922 Q546.3719,70.3062 546.4703,70.2516 Q546.5797,70.1969 546.7219,70.1969 Q546.9516,70.1969 547.1266,70.3828 Q547.3125,70.5578 547.3125,70.7984 Q547.3125,71.0391 547.0719,71.3234 Q546.7219,71.7281 546.1641,71.9578 Q545.4094,72.275 544.5016,72.275 Q543.4406,72.275 542.5984,71.8375 Q541.9094,71.4875 541.4281,70.7437 Q540.9469,69.9891 540.9469,69.0922 L540.9469,68.2828 Q540.9469,67.3531 541.3734,66.5547 Q541.8109,65.7453 542.5766,65.3187 Q543.3422,64.8812 544.2062,64.8812 Q544.7203,64.8812 545.1687,65.0016 Q545.6281,65.1109 546.0109,65.3625 Z " fill="#000000"/><text fill="#000000" font-family="sans-serif" font-size="9.8" lengthAdjust="spacing" textLength="105.7" x="558.425" y="72.3078">CreateVehicleController</text><line style="stroke:#181818;stroke-width:0.3499999999999999;" x1="163.1" x2="1036.7" y1="79.45" y2="79.45"/><text fill="#000000" font-family="sans-serif" font-size="9.8" lengthAdjust="spacing" textLength="167.3" x="166.6" y="92.8252">-vehicleRepository: VehicleRepository</text><line style="stroke:#181818;stroke-width:0.3499999999999999;" x1="163.1" x2="1036.7" y1="98.0848" y2="98.0848"/><text fill="#000000" font-family="sans-serif" font-size="9.8" lengthAdjust="spacing" textLength="118.3" x="166.6" y="111.46">+CreateVehicleController()</text><text fill="#000000" font-family="sans-serif" font-size="9.8" lengthAdjust="spacing" textLength="866.6" x="166.6" y="124.4947">+addVehicle(Brand: String, Model: String, Type: String, TareWeight: float, GrossWeight: float, CurrentKm: float, RegisterDate: String, AcquisitionDate: String, MaintenanceFrequency: float): boolean</text></g><!--class Repositories--><g id="elem_Repositories"><rect codeLine="38" fill="#F1F1F1" height="72.7043" id="Repositories" rx="1.75" ry="1.75" style="stroke:#181818;stroke-width:0.3499999999999999;" width="175.7" x="924.35" y="256.9"/><ellipse cx="981.575" cy="268.1" fill="#ADD1B2" rx="7.7" ry="7.7" style="stroke:#181818;stroke-width:0.6999999999999998;"/><path d="M983.5109,265.2125 Q983.6203,265.0594 983.7516,264.9828 Q983.8828,264.9062 984.0359,264.9062 Q984.2984,264.9062 984.4625,265.0922 Q984.6266,265.2672 984.6266,265.6937 L984.6266,266.7109 Q984.6266,267.1375 984.4625,267.3234 Q984.2984,267.5094 984.0359,267.5094 Q983.7953,267.5094 983.6531,267.3672 Q983.5109,267.2359 983.4344,266.875 Q983.4016,266.6234 983.2703,266.4922 Q983.0406,266.2297 982.6141,266.0766 Q982.1875,265.9234 981.75,265.9234 Q981.2141,265.9234 980.7656,266.1531 Q980.3281,266.3828 979.9781,266.9078 Q979.6391,267.4328 979.6391,268.1547 L979.6391,268.9203 Q979.6391,269.7844 980.2625,270.3641 Q980.8859,270.9328 982.0016,270.9328 Q982.6578,270.9328 983.1172,270.7578 Q983.3906,270.6484 983.6859,270.3422 Q983.8719,270.1562 983.9703,270.1016 Q984.0797,270.0469 984.2219,270.0469 Q984.4516,270.0469 984.6266,270.2328 Q984.8125,270.4078 984.8125,270.6484 Q984.8125,270.8891 984.5719,271.1734 Q984.2219,271.5781 983.6641,271.8078 Q982.9094,272.125 982.0016,272.125 Q980.9406,272.125 980.0984,271.6875 Q979.4094,271.3375 978.9281,270.5937 Q978.4469,269.8391 978.4469,268.9422 L978.4469,268.1328 Q978.4469,267.2031 978.8734,266.4047 Q979.3109,265.5953 980.0766,265.1687 Q980.8422,264.7312 981.7062,264.7312 Q982.2203,264.7312 982.6687,264.8516 Q983.1281,264.9609 983.5109,265.2125 Z " fill="#000000"/><text fill="#000000" font-family="sans-serif" font-size="9.8" lengthAdjust="spacing" textLength="55.3" x="995.925" y="272.1578">Repositories</text><line style="stroke:#181818;stroke-width:0.3499999999999999;" x1="925.05" x2="1099.35" y1="279.3" y2="279.3"/><text fill="#000000" font-family="sans-serif" font-size="9.8" lengthAdjust="spacing" textLength="167.3" x="928.55" y="292.6752">-vehicleRepository: VehicleRepository</text><line style="stroke:#181818;stroke-width:0.3499999999999999;" x1="925.05" x2="1099.35" y1="297.9348" y2="297.9348"/><text fill="#000000" font-family="sans-serif" font-size="9.8" lengthAdjust="spacing" textLength="63.7" x="928.55" y="311.31">+getInstance()</text><text fill="#000000" font-family="sans-serif" font-size="9.8" lengthAdjust="spacing" textLength="106.4" x="928.55" y="324.3447">+getVehicleRepository()</text></g><!--class CreateVehicleUI--><g id="elem_CreateVehicleUI"><rect codeLine="44" fill="#F1F1F1" height="98.7738" id="CreateVehicleUI" rx="1.75" ry="1.75" style="stroke:#181818;stroke-width:0.3499999999999999;" width="133" x="4.9" y="44.1"/><ellipse cx="33.355" cy="55.3" fill="#ADD1B2" rx="7.7" ry="7.7" style="stroke:#181818;stroke-width:0.6999999999999998;"/><path d="M35.2909,52.4125 Q35.4003,52.2594 35.5316,52.1828 Q35.6628,52.1062 35.8159,52.1062 Q36.0784,52.1062 36.2425,52.2922 Q36.4066,52.4672 36.4066,52.8937 L36.4066,53.9109 Q36.4066,54.3375 36.2425,54.5234 Q36.0784,54.7094 35.8159,54.7094 Q35.5753,54.7094 35.4331,54.5672 Q35.2909,54.4359 35.2144,54.075 Q35.1816,53.8234 35.0503,53.6922 Q34.8206,53.4297 34.3941,53.2766 Q33.9675,53.1234 33.53,53.1234 Q32.9941,53.1234 32.5456,53.3531 Q32.1081,53.5828 31.7581,54.1078 Q31.4191,54.6328 31.4191,55.3547 L31.4191,56.1203 Q31.4191,56.9844 32.0425,57.5641 Q32.6659,58.1328 33.7816,58.1328 Q34.4378,58.1328 34.8972,57.9578 Q35.1706,57.8484 35.4659,57.5422 Q35.6519,57.3562 35.7503,57.3016 Q35.8597,57.2469 36.0019,57.2469 Q36.2316,57.2469 36.4066,57.4328 Q36.5925,57.6078 36.5925,57.8484 Q36.5925,58.0891 36.3519,58.3734 Q36.0019,58.7781 35.4441,59.0078 Q34.6894,59.325 33.7816,59.325 Q32.7206,59.325 31.8784,58.8875 Q31.1894,58.5375 30.7081,57.7937 Q30.2269,57.0391 30.2269,56.1422 L30.2269,55.3328 Q30.2269,54.4031 30.6534,53.6047 Q31.0909,52.7953 31.8566,52.3687 Q32.6222,51.9312 33.4862,51.9312 Q34.0003,51.9312 34.4487,52.0516 Q34.9081,52.1609 35.2909,52.4125 Z " fill="#000000"/><text fill="#000000" font-family="sans-serif" font-size="9.8" lengthAdjust="spacing" textLength="70.7" x="47.145" y="59.3578">CreateVehicleUI</text><line style="stroke:#181818;stroke-width:0.3499999999999999;" x1="5.6" x2="137.2" y1="66.5" y2="66.5"/><line style="stroke:#181818;stroke-width:0.3499999999999999;" x1="5.6" x2="137.2" y1="72.1" y2="72.1"/><text fill="#000000" font-family="sans-serif" font-size="9.8" lengthAdjust="spacing" textLength="98.7" x="9.1" y="85.4752">+displayVehicleForm()</text><text fill="#000000" font-family="sans-serif" font-size="9.8" lengthAdjust="spacing" textLength="123.2" x="9.1" y="98.51">+getVehicleDataFromUser()</text><text fill="#000000" font-family="sans-serif" font-size="9.8" lengthAdjust="spacing" textLength="124.6" x="9.1" y="111.5447">+displayOperationSuccess()</text><text fill="#000000" font-family="sans-serif" font-size="9.8" lengthAdjust="spacing" textLength="118.3" x="9.1" y="124.5795">+displayOperationFailure()</text><text fill="#000000" font-family="sans-serif" font-size="9.8" lengthAdjust="spacing" textLength="27.3" x="9.1" y="137.6143">+run()</text></g><!--link CreateVehicleUI to CreateVehicleController--><g id="link_CreateVehicleUI_CreateVehicleController"><path codeLine="52" d="M137.977,93.45 C146.097,93.45 150.017,93.45 158.137,93.45 " fill="none" id="CreateVehicleUI-to-CreateVehicleController" style="stroke:#181818;stroke-width:0.6999999999999998;stroke-dasharray:7.0,7.0;"/><polygon fill="#181818" points="162.337,93.45,156.037,90.65,158.837,93.45,156.037,96.25,162.337,93.45" style="stroke:#181818;stroke-width:0.6999999999999998;"/></g><!--link CreateVehicleController to Repositories--><g id="link_CreateVehicleController_Repositories"><path codeLine="53" d="M674.086,129.857 C748.741,165.788 859.4416,219.0704 934.1316,255.0224 " fill="none" id="CreateVehicleController-to-Repositories" style="stroke:#181818;stroke-width:0.6999999999999998;stroke-dasharray:7.0,7.0;"/><polygon fill="#181818" points="937.916,256.844,933.4538,251.5886,934.7623,255.326,931.025,256.6345,937.916,256.844" style="stroke:#181818;stroke-width:0.6999999999999998;"/><text fill="#000000" font-family="sans-serif" font-size="9.1" lengthAdjust="spacing" textLength="46.9" x="844.2" y="213.5198">repositories</text></g><!--link Repositories to VehicleRepository--><g id="link_Repositories_VehicleRepository"><path codeLine="54" d="M1100.12,293.3 C1163.393,293.3 1222.473,293.3 1285.753,293.3 " fill="none" id="Repositories-to-VehicleRepository" style="stroke:#181818;stroke-width:0.6999999999999998;"/><polygon fill="#181818" points="1289.953,293.3,1283.653,290.5,1286.453,293.3,1283.653,296.1,1289.953,293.3" style="stroke:#181818;stroke-width:0.6999999999999998;"/></g><!--reverse link Vehicle to VehicleRepository--><g id="link_Vehicle_VehicleRepository"><path codeLine="55" d="M1432.4964,185.9403 C1424.6844,204.7003 1418.263,220.136 1411.13,237.265 " fill="none" id="Vehicle-backto-VehicleRepository" style="stroke:#181818;stroke-width:0.6999999999999998;"/><polygon fill="#181818" points="1434.111,182.063,1429.1043,186.8025,1432.7655,185.2941,1434.274,188.9553,1434.111,182.063" style="stroke:#181818;stroke-width:0.6999999999999998;"/><text fill="#000000" font-family="sans-serif" font-size="9.1" lengthAdjust="spacing" textLength="14.7" x="1425.2" y="213.5198">has</text><text fill="#000000" font-family="sans-serif" font-size="9.1" lengthAdjust="spacing" textLength="3.5" x="1428.3945" y="197.359">*</text><text fill="#000000" font-family="sans-serif" font-size="9.1" lengthAdjust="spacing" textLength="4.9" x="1408.1272" y="229.4888">1</text></g><!--SRC=[rLHDRzD04BtxLwnoYgbJu6fLaTAWe0Wgf8QMytGzjLTTxxepwoA3-EzioCQEFu8gRlXYUTwRZ_TclVoaJ0K4fP0Qc5VEaNge7MwbDJlr0yMxY5jAQOsL1TaInIDenXEe0la4EUvSer4GIWScrwS4BY2ptvN9HwbQ6NHDXQAokjb_J66Md8sYFpEAUooKz6r-Hi8_2t5DOB9KxFpe9W-n6vkX7iI- -aB3411-GvKNBXMFse8ByOzacQU0TKs4ndqg- -5Rp1Kxf0_WXYrMyhbMh9ooPWAz0MKS6Z0IDuJFDHhPd9Q-EAgTzrGcVO59JriobfLCA4f6Of997Sav2SdVfe_3-3awNu_Vyk4T_HfiyHOhwqjRQjfzlXmGJiMA29hFVgAhm5w6gf1bHry2EpqMZ5FnOAr6C85BMDeNV3MzhZAlyTLqhoz0ryqscwjsHN6Rqp5NMeSOp-D9UQqzQy9kZBKrZgpMI4EJEllIiQEXyPbIytXivlzsoBfjUEE2Swr-XVmlTlazRGsxVRzvFDfoH_VWzBRkjg7jXSWKLngQ06mibHCblLpO-5lrZa-M4ZA_L4YmzsHNIudCP_4DA5rJDp7LvZ3WSBJBvRa34PqxSvS-f-Tgwd-gxZFgOOlbXBF7AtlsPYQk5WinUp-Rk01IKG3_1W00]--></g></svg>