<?xml version="1.0" encoding="us-ascii" standalone="no"?><svg xmlns="http://www.w3.org/2000/svg" xmlns:xlink="http://www.w3.org/1999/xlink" contentStyleType="text/css" height="614px" preserveAspectRatio="none" style="width:802px;height:614px;background:#FFFFFF;" version="1.1" viewBox="0 0 802 614" width="802px" zoomAndPan="magnify"><defs/><g><rect fill="#FFFFFF" height="382.4531" style="stroke:#181818;stroke-width:1.0;" width="10" x="57.5" y="112.2422"/><rect fill="#FFFFFF" height="137.4941" style="stroke:#181818;stroke-width:1.0;" width="10" x="378.5" y="135.5332"/><rect fill="#FFFFFF" height="31.291" style="stroke:#181818;stroke-width:1.0;" width="10" x="378.5" y="463.4043"/><rect fill="#FFFFFF" height="79.543" style="stroke:#181818;stroke-width:1.0;" width="10" x="558.5" y="273.0273"/><rect fill="#FFFFFF" height="79.543" style="stroke:#181818;stroke-width:1.0;" width="10" x="558.5" y="273.0273"/><rect fill="#FFFFFF" height="31.291" style="stroke:#181818;stroke-width:1.0;" width="10" x="553.5" y="432.1133"/><rect fill="#FFFFFF" height="79.543" style="stroke:#181818;stroke-width:1.0;" width="10" x="733.5" y="352.5703"/><line style="stroke:#181818;stroke-width:0.5;stroke-dasharray:5.0,5.0;" x1="62" x2="62" y1="102.2422" y2="512.6953"/><line style="stroke:#181818;stroke-width:0.5;stroke-dasharray:5.0,5.0;" x1="383.5" x2="383.5" y1="102.2422" y2="512.6953"/><line style="stroke:#181818;stroke-width:0.5;stroke-dasharray:5.0,5.0;" x1="558.5" x2="558.5" y1="175.3438" y2="512.6953"/><line style="stroke:#181818;stroke-width:0.5;stroke-dasharray:5.0,5.0;" x1="738" x2="738" y1="102.2422" y2="512.6953"/><text fill="#000000" font-family="sans-serif" font-size="14" lengthAdjust="spacing" textLength="109" x="5" y="80.1074">Human Resource</text><text fill="#000000" font-family="sans-serif" font-size="14" lengthAdjust="spacing" textLength="56" x="33.5" y="98.7285">Manager</text><ellipse cx="62.5" cy="13.5" fill="#E3E3E3" rx="8" ry="8" style="stroke:#181818;stroke-width:0.5;"/><path d="M62.5,21.5 L62.5,48.5 M49.5,29.5 L75.5,29.5 M62.5,48.5 L49.5,63.5 M62.5,48.5 L75.5,63.5 " fill="none" style="stroke:#181818;stroke-width:0.5;"/><text fill="#000000" font-family="sans-serif" font-size="14" lengthAdjust="spacing" textLength="109" x="5" y="526.8027">Human Resource</text><text fill="#000000" font-family="sans-serif" font-size="14" lengthAdjust="spacing" textLength="56" x="33.5" y="545.4238">Manager</text><ellipse cx="62.5" cy="557.4375" fill="#E3E3E3" rx="8" ry="8" style="stroke:#181818;stroke-width:0.5;"/><path d="M62.5,565.4375 L62.5,592.4375 M49.5,573.4375 L75.5,573.4375 M62.5,592.4375 L49.5,607.4375 M62.5,592.4375 L75.5,607.4375 " fill="none" style="stroke:#181818;stroke-width:0.5;"/><rect fill="#E3E3E3" height="32.6211" rx="2.5" ry="2.5" style="stroke:#181818;stroke-width:0.5;" width="98" x="334.5" y="68.6211"/><text fill="#000000" font-family="sans-serif" font-size="14" lengthAdjust="spacing" textLength="84" x="341.5" y="90.7285">:CreateSkillUI</text><rect fill="#E3E3E3" height="32.6211" rx="2.5" ry="2.5" style="stroke:#181818;stroke-width:0.5;" width="98" x="334.5" y="511.6953"/><text fill="#000000" font-family="sans-serif" font-size="14" lengthAdjust="spacing" textLength="84" x="341.5" y="533.8027">:CreateSkillUI</text><rect fill="#E3E3E3" height="32.6211" rx="2.5" ry="2.5" style="stroke:#181818;stroke-width:0.5;" width="148" x="484.5" y="511.6953"/><text fill="#000000" font-family="sans-serif" font-size="14" lengthAdjust="spacing" textLength="134" x="491.5" y="533.8027">:CreateSkillController</text><rect fill="#E3E3E3" height="51.2422" rx="2.5" ry="2.5" style="stroke:#181818;stroke-width:0.5;" width="109" x="684" y="50"/><text fill="#000000" font-family="sans-serif" font-size="14" lengthAdjust="spacing" textLength="95" x="691" y="72.1074">skillRepository:</text><text fill="#000000" font-family="sans-serif" font-size="14" lengthAdjust="spacing" textLength="91" x="693" y="90.7285">skillRepository</text><rect fill="#E3E3E3" height="51.2422" rx="2.5" ry="2.5" style="stroke:#181818;stroke-width:0.5;" width="109" x="684" y="511.6953"/><text fill="#000000" font-family="sans-serif" font-size="14" lengthAdjust="spacing" textLength="95" x="691" y="533.8027">skillRepository:</text><text fill="#000000" font-family="sans-serif" font-size="14" lengthAdjust="spacing" textLength="91" x="693" y="552.4238">skillRepository</text><rect fill="#FFFFFF" height="382.4531" style="stroke:#181818;stroke-width:1.0;" width="10" x="57.5" y="112.2422"/><rect fill="#FFFFFF" height="137.4941" style="stroke:#181818;stroke-width:1.0;" width="10" x="378.5" y="135.5332"/><rect fill="#FFFFFF" height="31.291" style="stroke:#181818;stroke-width:1.0;" width="10" x="378.5" y="463.4043"/><rect fill="#FFFFFF" height="79.543" style="stroke:#181818;stroke-width:1.0;" width="10" x="558.5" y="273.0273"/><rect fill="#FFFFFF" height="79.543" style="stroke:#181818;stroke-width:1.0;" width="10" x="558.5" y="273.0273"/><rect fill="#FFFFFF" height="31.291" style="stroke:#181818;stroke-width:1.0;" width="10" x="553.5" y="432.1133"/><rect fill="#FFFFFF" height="79.543" style="stroke:#181818;stroke-width:1.0;" width="10" x="733.5" y="352.5703"/><polygon fill="#181818" points="366.5,131.5332,376.5,135.5332,366.5,139.5332,370.5,135.5332" style="stroke:#181818;stroke-width:1.0;"/><line style="stroke:#181818;stroke-width:1.0;" x1="67.5" x2="372.5" y1="135.5332" y2="135.5332"/><text fill="#000000" font-family="sans-serif" font-size="13" font-weight="bold" lengthAdjust="spacing" textLength="7" x="74.5" y="130.2705">1</text><text fill="#000000" font-family="sans-serif" font-size="13" lengthAdjust="spacing" textLength="121" x="85.5" y="130.2705">asks to create a skill</text><polygon fill="#181818" points="472.5,162.8242,482.5,166.8242,472.5,170.8242,476.5,166.8242" style="stroke:#181818;stroke-width:1.0;"/><line style="stroke:#181818;stroke-width:1.0;" x1="388.5" x2="478.5" y1="166.8242" y2="166.8242"/><text fill="#000000" font-family="sans-serif" font-size="13" font-weight="bold" lengthAdjust="spacing" textLength="7" x="395.5" y="161.5615">2</text><text fill="#000000" font-family="sans-serif" font-size="13" lengthAdjust="spacing" textLength="36" x="406.5" y="161.5615">create</text><rect fill="#E3E3E3" height="32.6211" rx="2.5" ry="2.5" style="stroke:#181818;stroke-width:0.5;" width="148" x="484.5" y="143.5332"/><text fill="#000000" font-family="sans-serif" font-size="14" lengthAdjust="spacing" textLength="134" x="491.5" y="165.6406">:CreateSkillController</text><polygon fill="#181818" points="78.5,206.4453,68.5,210.4453,78.5,214.4453,74.5,210.4453" style="stroke:#181818;stroke-width:1.0;"/><line style="stroke:#181818;stroke-width:1.0;" x1="72.5" x2="377.5" y1="210.4453" y2="210.4453"/><text fill="#000000" font-family="sans-serif" font-size="13" font-weight="bold" lengthAdjust="spacing" textLength="7" x="84.5" y="205.1826">3</text><text fill="#000000" font-family="sans-serif" font-size="13" lengthAdjust="spacing" textLength="154" x="95.5" y="205.1826">asks for a skill designation</text><polygon fill="#181818" points="366.5,237.7363,376.5,241.7363,366.5,245.7363,370.5,241.7363" style="stroke:#181818;stroke-width:1.0;"/><line style="stroke:#181818;stroke-width:1.0;" x1="67.5" x2="372.5" y1="241.7363" y2="241.7363"/><text fill="#000000" font-family="sans-serif" font-size="13" font-weight="bold" lengthAdjust="spacing" textLength="7" x="74.5" y="236.4736">4</text><text fill="#000000" font-family="sans-serif" font-size="13" lengthAdjust="spacing" textLength="144" x="85.5" y="236.4736">enters a skill designation</text><polygon fill="#181818" points="546.5,269.0273,556.5,273.0273,546.5,277.0273,550.5,273.0273" style="stroke:#181818;stroke-width:1.0;"/><line style="stroke:#181818;stroke-width:1.0;" x1="383.5" x2="552.5" y1="273.0273" y2="273.0273"/><text fill="#000000" font-family="sans-serif" font-size="13" font-weight="bold" lengthAdjust="spacing" textLength="7" x="390.5" y="267.7646">5</text><text fill="#000000" font-family="sans-serif" font-size="13" lengthAdjust="spacing" textLength="135" x="401.5" y="267.7646">createSkill(designation)</text><rect fill="none" height="43.252" style="stroke:#000000;stroke-width:1.5;" width="154" x="481.5" y="281.0273"/><path d="M481.5,281.0273 L543.5,281.0273 L543.5,290.0273 L533.5,300.0273 L481.5,300.0273 L481.5,281.0273 " fill="#EEEEEE" style="stroke:#000000;stroke-width:2.0;"/><text fill="#000000" font-family="sans-serif" font-size="13" font-weight="bold" lengthAdjust="spacing" textLength="17" x="494.5" y="297.0557">ref</text><text fill="#000000" font-family="sans-serif" font-size="12" lengthAdjust="spacing" textLength="107" x="505" y="316.9766">Get Skill Repository</text><polygon fill="#181818" points="721.5,348.5703,731.5,352.5703,721.5,356.5703,725.5,352.5703" style="stroke:#181818;stroke-width:1.0;"/><line style="stroke:#181818;stroke-width:1.0;" x1="558.5" x2="727.5" y1="352.5703" y2="352.5703"/><text fill="#000000" font-family="sans-serif" font-size="13" font-weight="bold" lengthAdjust="spacing" textLength="7" x="565.5" y="347.3076">6</text><text fill="#000000" font-family="sans-serif" font-size="13" lengthAdjust="spacing" textLength="135" x="576.5" y="347.3076">createSkill(designation)</text><rect fill="none" height="43.252" style="stroke:#000000;stroke-width:1.5;" width="115" x="681" y="360.5703"/><path d="M681,360.5703 L743,360.5703 L743,369.5703 L733,379.5703 L681,379.5703 L681,360.5703 " fill="#EEEEEE" style="stroke:#000000;stroke-width:2.0;"/><text fill="#000000" font-family="sans-serif" font-size="13" font-weight="bold" lengthAdjust="spacing" textLength="17" x="694" y="376.5986">ref</text><text fill="#000000" font-family="sans-serif" font-size="12" lengthAdjust="spacing" textLength="63" x="707" y="396.5195">Create Skill</text><polygon fill="#181818" points="574.5,428.1133,564.5,432.1133,574.5,436.1133,570.5,432.1133" style="stroke:#181818;stroke-width:1.0;"/><line style="stroke:#181818;stroke-width:1.0;stroke-dasharray:2.0,2.0;" x1="568.5" x2="737.5" y1="432.1133" y2="432.1133"/><text fill="#000000" font-family="sans-serif" font-size="13" font-weight="bold" lengthAdjust="spacing" textLength="7" x="580.5" y="426.8506">7</text><text fill="#000000" font-family="sans-serif" font-size="13" lengthAdjust="spacing" textLength="23" x="591.5" y="426.8506">skill</text><polygon fill="#181818" points="399.5,459.4043,389.5,463.4043,399.5,467.4043,395.5,463.4043" style="stroke:#181818;stroke-width:1.0;"/><line style="stroke:#181818;stroke-width:1.0;stroke-dasharray:2.0,2.0;" x1="393.5" x2="557.5" y1="463.4043" y2="463.4043"/><text fill="#000000" font-family="sans-serif" font-size="13" font-weight="bold" lengthAdjust="spacing" textLength="7" x="405.5" y="458.1416">8</text><text fill="#000000" font-family="sans-serif" font-size="13" lengthAdjust="spacing" textLength="23" x="416.5" y="458.1416">skill</text><polygon fill="#181818" points="73.5,490.6953,63.5,494.6953,73.5,498.6953,69.5,494.6953" style="stroke:#181818;stroke-width:1.0;"/><line style="stroke:#181818;stroke-width:1.0;stroke-dasharray:2.0,2.0;" x1="67.5" x2="382.5" y1="494.6953" y2="494.6953"/><text fill="#000000" font-family="sans-serif" font-size="13" font-weight="bold" lengthAdjust="spacing" textLength="7" x="79.5" y="489.4326">9</text><text fill="#000000" font-family="sans-serif" font-size="13" lengthAdjust="spacing" textLength="276" x="90.5" y="489.4326">displays successful and unsuccessful operation</text><!--SRC=[XPFFRi8m3CRlVGgBquR42w1f5mu3QLpAk77nKhT4f4cLFqoy_TmKqguKbbFvui_-sJ7k97M35ckeZJRYQ4rDu6sWpAMR1iK9AzhvYoAm93pgIWq3t14ByoDr1IKgHrc6mHiTwc-o_2syiJ1RXnervEHCi88E6hQeEQcT0JfOvzkCKtafP8FQmsovieIUTYUfr7uJO_QRno4hexqrIbtJhRxopx_1hetAgJ5ECirbUT0Z9Vf6McINPouI0JFWmn-mU6SOMBBZvC0R4144iFDtSSd9s55e3xlOszBDv-plVAFRji0rTSbpkoQ5WfoiD7ffT38CMKXxikvfU5yzrOx3Una4ltQm1Ttn9o4Ezv7K7aibc3FPJhwf7-GXbeF1W6-Nf8lMrkU8b4mxUf5du2FkdcbIJDBTcz-rCOv8ZDspHvH_EdbRB2PQSSavG9paUJ3fRagt5PXCDz7nU2FJqXNIDGel_3y8Gf1pPL20t4_G0y4qPFkz6YtAu2Ud_0K0]--></g></svg>