<?xml version="1.0" encoding="us-ascii" standalone="no"?><svg xmlns="http://www.w3.org/2000/svg" xmlns:xlink="http://www.w3.org/1999/xlink" contentStyleType="text/css" height="631px" preserveAspectRatio="none" style="width:1073px;height:631px;background:#FFFFFF;" version="1.1" viewBox="0 0 1073 631" width="1073px" zoomAndPan="magnify"><defs/><g><rect fill="#FFFFFF" height="399.8613" style="stroke:#181818;stroke-width:1.0;" width="10" x="57.5" y="112.2422"/><rect fill="#FFFFFF" height="345.2793" style="stroke:#181818;stroke-width:1.0;" width="10" x="372.5" y="135.5332"/><rect fill="#FFFFFF" height="272.6973" style="stroke:#181818;stroke-width:1.0;" width="10" x="522.5" y="176.8242"/><rect fill="#FFFFFF" height="31.291" style="stroke:#181818;stroke-width:1.0;" width="10" x="697.5" y="210.4453"/><rect fill="#FFFFFF" height="147.1641" style="stroke:#181818;stroke-width:1.0;" width="10" x="697.5" y="373.9395"/><rect fill="#FFFFFF" height="122.2031" style="stroke:#181818;stroke-width:1.0;" width="10" x="867" y="251.7363"/><rect fill="#FFFFFF" height="42.291" style="stroke:#181818;stroke-width:1.0;" width="10" x="872" y="293.3574"/><line style="stroke:#181818;stroke-width:0.5;stroke-dasharray:5.0,5.0;" x1="62" x2="62" y1="102.2422" y2="530.1035"/><line style="stroke:#181818;stroke-width:0.5;stroke-dasharray:5.0,5.0;" x1="377.5" x2="377.5" y1="102.2422" y2="530.1035"/><line style="stroke:#181818;stroke-width:0.5;stroke-dasharray:5.0,5.0;" x1="527.5" x2="527.5" y1="175.3438" y2="530.1035"/><line style="stroke:#181818;stroke-width:0.5;stroke-dasharray:5.0,5.0;" x1="702" x2="702" y1="102.2422" y2="530.1035"/><line style="stroke:#181818;stroke-width:0.5;stroke-dasharray:5.0,5.0;" x1="871.5" x2="871.5" y1="250.2559" y2="530.1035"/><text fill="#000000" font-family="sans-serif" font-size="14" lengthAdjust="spacing" textLength="109" x="5" y="80.1074">Human Resource</text><text fill="#000000" font-family="sans-serif" font-size="14" lengthAdjust="spacing" textLength="56" x="33.5" y="98.7285">Manager</text><ellipse cx="62.5" cy="13.5" fill="#E3E3E3" rx="8" ry="8" style="stroke:#181818;stroke-width:0.5;"/><path d="M62.5,21.5 L62.5,48.5 M49.5,29.5 L75.5,29.5 M62.5,48.5 L49.5,63.5 M62.5,48.5 L75.5,63.5 " fill="none" style="stroke:#181818;stroke-width:0.5;"/><text fill="#000000" font-family="sans-serif" font-size="14" lengthAdjust="spacing" textLength="109" x="5" y="544.2109">Human Resource</text><text fill="#000000" font-family="sans-serif" font-size="14" lengthAdjust="spacing" textLength="56" x="33.5" y="562.832">Manager</text><ellipse cx="62.5" cy="574.8457" fill="#E3E3E3" rx="8" ry="8" style="stroke:#181818;stroke-width:0.5;"/><path d="M62.5,582.8457 L62.5,609.8457 M49.5,590.8457 L75.5,590.8457 M62.5,609.8457 L49.5,624.8457 M62.5,609.8457 L75.5,624.8457 " fill="none" style="stroke:#181818;stroke-width:0.5;"/><rect fill="#E3E3E3" height="32.6211" rx="2.5" ry="2.5" style="stroke:#181818;stroke-width:0.5;" width="98" x="328.5" y="68.6211"/><text fill="#000000" font-family="sans-serif" font-size="14" lengthAdjust="spacing" textLength="84" x="335.5" y="90.7285">:CreateSkillUI</text><rect fill="#E3E3E3" height="32.6211" rx="2.5" ry="2.5" style="stroke:#181818;stroke-width:0.5;" width="98" x="328.5" y="529.1035"/><text fill="#000000" font-family="sans-serif" font-size="14" lengthAdjust="spacing" textLength="84" x="335.5" y="551.2109">:CreateSkillUI</text><rect fill="#E3E3E3" height="32.6211" rx="2.5" ry="2.5" style="stroke:#181818;stroke-width:0.5;" width="148" x="453.5" y="529.1035"/><text fill="#000000" font-family="sans-serif" font-size="14" lengthAdjust="spacing" textLength="134" x="460.5" y="551.2109">:CreateSkillController</text><rect fill="#E3E3E3" height="32.6211" rx="2.5" ry="2.5" style="stroke:#181818;stroke-width:0.5;" width="109" x="648" y="68.6211"/><text fill="#000000" font-family="sans-serif" font-size="14" lengthAdjust="spacing" textLength="95" x="655" y="90.7285">:skillRepository</text><rect fill="#E3E3E3" height="32.6211" rx="2.5" ry="2.5" style="stroke:#181818;stroke-width:0.5;" width="109" x="648" y="529.1035"/><text fill="#000000" font-family="sans-serif" font-size="14" lengthAdjust="spacing" textLength="95" x="655" y="551.2109">:skillRepository</text><rect fill="#E3E3E3" height="32.6211" rx="2.5" ry="2.5" style="stroke:#181818;stroke-width:0.5;" width="39" x="852.5" y="529.1035"/><text fill="#000000" font-family="sans-serif" font-size="14" lengthAdjust="spacing" textLength="25" x="859.5" y="551.2109">Skill</text><rect fill="#FFFFFF" height="399.8613" style="stroke:#181818;stroke-width:1.0;" width="10" x="57.5" y="112.2422"/><rect fill="#FFFFFF" height="345.2793" style="stroke:#181818;stroke-width:1.0;" width="10" x="372.5" y="135.5332"/><rect fill="#FFFFFF" height="272.6973" style="stroke:#181818;stroke-width:1.0;" width="10" x="522.5" y="176.8242"/><rect fill="#FFFFFF" height="31.291" style="stroke:#181818;stroke-width:1.0;" width="10" x="697.5" y="210.4453"/><rect fill="#FFFFFF" height="147.1641" style="stroke:#181818;stroke-width:1.0;" width="10" x="697.5" y="373.9395"/><rect fill="#FFFFFF" height="122.2031" style="stroke:#181818;stroke-width:1.0;" width="10" x="867" y="251.7363"/><rect fill="#FFFFFF" height="42.291" style="stroke:#181818;stroke-width:1.0;" width="10" x="872" y="293.3574"/><polygon fill="#181818" points="360.5,131.5332,370.5,135.5332,360.5,139.5332,364.5,135.5332" style="stroke:#181818;stroke-width:1.0;"/><line style="stroke:#181818;stroke-width:1.0;" x1="67.5" x2="366.5" y1="135.5332" y2="135.5332"/><text fill="#000000" font-family="sans-serif" font-size="13" font-weight="bold" lengthAdjust="spacing" textLength="7" x="74.5" y="130.2705">1</text><text fill="#000000" font-family="sans-serif" font-size="13" lengthAdjust="spacing" textLength="121" x="85.5" y="130.2705">asks to create a skill</text><polygon fill="#181818" points="441.5,162.8242,451.5,166.8242,441.5,170.8242,445.5,166.8242" style="stroke:#181818;stroke-width:1.0;"/><line style="stroke:#181818;stroke-width:1.0;" x1="382.5" x2="447.5" y1="166.8242" y2="166.8242"/><text fill="#000000" font-family="sans-serif" font-size="13" font-weight="bold" lengthAdjust="spacing" textLength="7" x="389.5" y="161.5615">2</text><text fill="#000000" font-family="sans-serif" font-size="13" lengthAdjust="spacing" textLength="36" x="400.5" y="161.5615">create</text><rect fill="#E3E3E3" height="32.6211" rx="2.5" ry="2.5" style="stroke:#181818;stroke-width:0.5;" width="148" x="453.5" y="143.5332"/><text fill="#000000" font-family="sans-serif" font-size="14" lengthAdjust="spacing" textLength="134" x="460.5" y="165.6406">:CreateSkillController</text><polygon fill="#181818" points="685.5,206.4453,695.5,210.4453,685.5,214.4453,689.5,210.4453" style="stroke:#181818;stroke-width:1.0;"/><line style="stroke:#181818;stroke-width:1.0;" x1="532.5" x2="691.5" y1="210.4453" y2="210.4453"/><text fill="#000000" font-family="sans-serif" font-size="13" font-weight="bold" lengthAdjust="spacing" textLength="7" x="539.5" y="205.1826">3</text><text fill="#000000" font-family="sans-serif" font-size="13" lengthAdjust="spacing" textLength="135" x="550.5" y="205.1826">createSkill(designation)</text><polygon fill="#181818" points="840.5,237.7363,850.5,241.7363,840.5,245.7363,844.5,241.7363" style="stroke:#181818;stroke-width:1.0;"/><line style="stroke:#181818;stroke-width:1.0;stroke-dasharray:2.0,2.0;" x1="702.5" x2="846.5" y1="241.7363" y2="241.7363"/><text fill="#000000" font-family="sans-serif" font-size="13" font-weight="bold" lengthAdjust="spacing" textLength="7" x="709.5" y="236.4736">4</text><text fill="#000000" font-family="sans-serif" font-size="13" lengthAdjust="spacing" textLength="110" x="720.5" y="236.4736">create(designation)</text><rect fill="#E3E3E3" height="32.6211" rx="2.5" ry="2.5" style="stroke:#181818;stroke-width:0.5;" width="39" x="852.5" y="218.4453"/><text fill="#000000" font-family="sans-serif" font-size="14" lengthAdjust="spacing" textLength="25" x="859.5" y="240.5527">Skill</text><line style="stroke:#181818;stroke-width:1.0;stroke-dasharray:2.0,2.0;" x1="877" x2="924" y1="280.3574" y2="280.3574"/><line style="stroke:#181818;stroke-width:1.0;stroke-dasharray:2.0,2.0;" x1="924" x2="924" y1="280.3574" y2="293.3574"/><line style="stroke:#181818;stroke-width:1.0;stroke-dasharray:2.0,2.0;" x1="883" x2="924" y1="293.3574" y2="293.3574"/><polygon fill="#181818" points="893,289.3574,883,293.3574,893,297.3574,889,293.3574" style="stroke:#181818;stroke-width:1.0;"/><text fill="#000000" font-family="sans-serif" font-size="13" font-weight="bold" lengthAdjust="spacing" textLength="7" x="889" y="275.0947">5</text><text fill="#000000" font-family="sans-serif" font-size="13" lengthAdjust="spacing" textLength="91" x="900" y="275.0947">verifyFilled(skill)</text><line style="stroke:#181818;stroke-width:1.0;" x1="882" x2="924" y1="334.6484" y2="334.6484"/><line style="stroke:#181818;stroke-width:1.0;" x1="924" x2="924" y1="334.6484" y2="347.6484"/><line style="stroke:#181818;stroke-width:1.0;" x1="877" x2="924" y1="347.6484" y2="347.6484"/><polygon fill="#181818" points="887,343.6484,877,347.6484,887,351.6484,883,347.6484" style="stroke:#181818;stroke-width:1.0;"/><text fill="#000000" font-family="sans-serif" font-size="13" font-weight="bold" lengthAdjust="spacing" textLength="7" x="889" y="329.3857">6</text><text fill="#000000" font-family="sans-serif" font-size="13" lengthAdjust="spacing" textLength="166" x="900" y="329.3857">verifySpecialCharacters(skill)</text><polygon fill="#181818" points="718.5,369.9395,708.5,373.9395,718.5,377.9395,714.5,373.9395" style="stroke:#181818;stroke-width:1.0;"/><line style="stroke:#181818;stroke-width:1.0;stroke-dasharray:2.0,2.0;" x1="712.5" x2="871" y1="373.9395" y2="373.9395"/><text fill="#000000" font-family="sans-serif" font-size="13" font-weight="bold" lengthAdjust="spacing" textLength="7" x="724.5" y="368.6768">7</text><text fill="#000000" font-family="sans-serif" font-size="13" lengthAdjust="spacing" textLength="23" x="735.5" y="368.6768">skill</text><line style="stroke:#181818;stroke-width:1.0;" x1="707.5" x2="749.5" y1="410.2305" y2="410.2305"/><line style="stroke:#181818;stroke-width:1.0;" x1="749.5" x2="749.5" y1="410.2305" y2="423.2305"/><line style="stroke:#181818;stroke-width:1.0;" x1="702.5" x2="749.5" y1="423.2305" y2="423.2305"/><polygon fill="#181818" points="712.5,419.2305,702.5,423.2305,712.5,427.2305,708.5,423.2305" style="stroke:#181818;stroke-width:1.0;"/><text fill="#000000" font-family="sans-serif" font-size="13" font-weight="bold" lengthAdjust="spacing" textLength="7" x="714.5" y="404.9678">8</text><text fill="#000000" font-family="sans-serif" font-size="13" lengthAdjust="spacing" textLength="116" x="725.5" y="404.9678">check for duplicates</text><polygon fill="#181818" points="538.5,445.5215,528.5,449.5215,538.5,453.5215,534.5,449.5215" style="stroke:#181818;stroke-width:1.0;"/><line style="stroke:#181818;stroke-width:1.0;stroke-dasharray:2.0,2.0;" x1="532.5" x2="696.5" y1="449.5215" y2="449.5215"/><text fill="#000000" font-family="sans-serif" font-size="13" font-weight="bold" lengthAdjust="spacing" textLength="7" x="544.5" y="444.2588">9</text><text fill="#000000" font-family="sans-serif" font-size="13" lengthAdjust="spacing" textLength="23" x="555.5" y="444.2588">skill</text><polygon fill="#181818" points="388.5,476.8125,378.5,480.8125,388.5,484.8125,384.5,480.8125" style="stroke:#181818;stroke-width:1.0;"/><line style="stroke:#181818;stroke-width:1.0;stroke-dasharray:2.0,2.0;" x1="382.5" x2="526.5" y1="480.8125" y2="480.8125"/><text fill="#000000" font-family="sans-serif" font-size="13" font-weight="bold" lengthAdjust="spacing" textLength="14" x="394.5" y="475.5498">10</text><text fill="#000000" font-family="sans-serif" font-size="13" lengthAdjust="spacing" textLength="23" x="412.5" y="475.5498">skill</text><polygon fill="#181818" points="73.5,508.1035,63.5,512.1035,73.5,516.1035,69.5,512.1035" style="stroke:#181818;stroke-width:1.0;"/><line style="stroke:#181818;stroke-width:1.0;stroke-dasharray:2.0,2.0;" x1="67.5" x2="376.5" y1="512.1035" y2="512.1035"/><text fill="#000000" font-family="sans-serif" font-size="13" font-weight="bold" lengthAdjust="spacing" textLength="14" x="79.5" y="506.8408">11</text><text fill="#000000" font-family="sans-serif" font-size="13" lengthAdjust="spacing" textLength="268" x="97.5" y="506.8408">Displays successful or unsuccessful operation</text><!--SRC=[fPFFJiCm3CRlUGfh5yQalS24k0mX9h7B1ZSkNkgjKTEaoXzWRu-JRQKj39ZmgKq-_pwxjNsbJ8CEQwYjiR9qjYO8BfBmxKs3ii8ThSDU4pYI0SrETmM-nCA-ARE3BMfFGc0CriHwGqw8gr8L15jhmyQ-2vJ1EXWzn1eDhCZRw2Iz65YYOGit0lJmi5eA1WSbLOCcm6WsTuI1rfNI-dcHDS-ByvAvDS5PhO-u-TFgSI3sIRQYndh5vUopR73MpyZSBCjF8lMXNjam5olW6Fm2qrik3cQihJm42p8N1dWm-DIs16wbFKp1sSn8LKycp3dazoLjRkwjTvKYdIR6eAKMbdiO5-JLpc1Grbn_GRGEmy_oHPbYQ3HbysmocPmyVxOhwE-6hNBT_w3To5UVPSpWbPpQxk_vcOfnjhY-67o47fbmWguRaWhrlEHTa86SFyVlDFcpmxU_xZ0-bpF_-IU_dQAIPCKhxQ28ZLQIwVw2ol9utaodlpRPGVG7_J3WfqqxczJThBHLd90sT0PtoZSQzxpqKKhoVXirS3VHTDyRSdbQHOUOjlq3]--></g></svg>