<svg xmlns="http://www.w3.org/2000/svg" xmlns:xlink="http://www.w3.org/1999/xlink" contentStyleType="text/css" height="1422.4px" preserveAspectRatio="none" style="width:758px;height:1422px;background:#FFFFFF;" version="1.1" viewBox="0 0 758 1422" width="758.1px" zoomAndPan="magnify"><title>Address division</title><defs/><g><text fill="#888888" font-family="sans-serif" font-size="7" lengthAdjust="spacing" textLength="52.5273" x="697.1118" y="14.5537">My super header</text><text fill="#000000" font-family="sans-serif" font-size="9.8" font-weight="bold" lengthAdjust="spacing" textLength="78.9646" x="338.8373" y="34.5857">Address division</text><rect fill="#F1F1F1" height="27.0348" rx="8.75" ry="8.75" style="stroke:#181818;stroke-width:1.0499999999999998;" width="54.87" x="7" y="687.7842"/><text fill="#000000" font-family="sans-serif" font-size="9.8" lengthAdjust="spacing" textLength="40.87" x="14" y="705.3594">10.22.0.0</text><rect fill="#F1F1F1" height="27.0348" rx="8.75" ry="8.75" style="stroke:#181818;stroke-width:1.0499999999999998;" width="54.87" x="96.87" y="195.367"/><text fill="#000000" font-family="sans-serif" font-size="9.8" lengthAdjust="spacing" textLength="40.87" x="103.87" y="212.9422">10.22.0.0</text><rect fill="#F1F1F1" height="27.0348" rx="8.75" ry="8.75" style="stroke:#181818;stroke-width:1.0499999999999998;" width="54.87" x="186.74" y="113.2975"/><text fill="#000000" font-family="sans-serif" font-size="9.8" lengthAdjust="spacing" textLength="40.87" x="193.74" y="130.8727">10.22.0.0</text><rect fill="#F1F1F1" height="27.0348" rx="8.75" ry="8.75" style="stroke:#181818;stroke-width:1.0499999999999998;" width="54.87" x="276.6101" y="72.2627"/><text fill="#000000" font-family="sans-serif" font-size="9.8" lengthAdjust="spacing" textLength="40.87" x="283.6101" y="89.8379">10.22.0.0</text><rect fill="#F1F1F1" height="27.0348" rx="8.75" ry="8.75" style="stroke:#181818;stroke-width:1.0499999999999998;" width="54.87" x="366.4801" y="51.7453"/><text fill="#000000" font-family="sans-serif" font-size="9.8" lengthAdjust="spacing" textLength="40.87" x="373.4801" y="69.3205">10.22.0.0</text><rect fill="#F1F1F1" height="27.0348" rx="8.75" ry="8.75" style="stroke:#181818;stroke-width:1.0499999999999998;" width="57.588" x="456.3501" y="51.7453"/><text fill="#000000" font-family="sans-serif" font-size="9.8" lengthAdjust="spacing" textLength="43.588" x="463.3501" y="69.3205">Backbone</text><path d="M421.3501,65.2627 L428.3501,65.2627 C438.8501,65.2627 438.8501,65.2627 449.3501,65.2627 L456.3501,65.2627 " fill="none" style="stroke:#181818;stroke-width:0.6999999999999998;"/><path d="M331.4801,85.7801 L338.4801,85.7801 C348.9801,85.7801 348.9801,65.2627 359.4801,65.2627 L366.4801,65.2627 " fill="none" style="stroke:#181818;stroke-width:0.6999999999999998;"/><rect fill="#F1F1F1" height="27.0348" rx="8.75" ry="8.75" style="stroke:#181818;stroke-width:1.0499999999999998;" width="54.87" x="366.4801" y="92.7801"/><text fill="#000000" font-family="sans-serif" font-size="9.8" lengthAdjust="spacing" textLength="40.87" x="373.4801" y="110.3553">10.22.1.0</text><rect fill="#F1F1F1" height="27.0348" rx="8.75" ry="8.75" style="stroke:#181818;stroke-width:1.0499999999999998;" width="54.2862" x="456.3501" y="92.7801"/><text fill="#000000" font-family="sans-serif" font-size="9.8" lengthAdjust="spacing" textLength="40.2862" x="463.3501" y="110.3553">B3 - WiFi</text><path d="M421.3501,106.2975 L428.3501,106.2975 C438.8501,106.2975 438.8501,106.2975 449.3501,106.2975 L456.3501,106.2975 " fill="none" style="stroke:#181818;stroke-width:0.6999999999999998;"/><path d="M331.4801,85.7801 L338.4801,85.7801 C348.9801,85.7801 348.9801,106.2975 359.4801,106.2975 L366.4801,106.2975 " fill="none" style="stroke:#181818;stroke-width:0.6999999999999998;"/><path d="M241.6101,126.8148 L248.6101,126.8148 C259.1101,126.8148 259.1101,85.7801 269.6101,85.7801 L276.6101,85.7801 " fill="none" style="stroke:#181818;stroke-width:0.6999999999999998;"/><rect fill="#F1F1F1" height="27.0348" rx="8.75" ry="8.75" style="stroke:#181818;stroke-width:1.0499999999999998;" width="54.87" x="276.6101" y="154.3322"/><text fill="#000000" font-family="sans-serif" font-size="9.8" lengthAdjust="spacing" textLength="40.87" x="283.6101" y="171.9074">10.22.2.0</text><rect fill="#F1F1F1" height="27.0348" rx="8.75" ry="8.75" style="stroke:#181818;stroke-width:1.0499999999999998;" width="54.87" x="366.4801" y="133.8148"/><text fill="#000000" font-family="sans-serif" font-size="9.8" lengthAdjust="spacing" textLength="40.87" x="373.4801" y="151.39">10.22.2.0</text><rect fill="#F1F1F1" height="27.0348" rx="8.75" ry="8.75" style="stroke:#181818;stroke-width:1.0499999999999998;" width="54.2862" x="456.3501" y="133.8148"/><text fill="#000000" font-family="sans-serif" font-size="9.8" lengthAdjust="spacing" textLength="40.2862" x="463.3501" y="151.39">B2 - WiFi</text><path d="M421.3501,147.3322 L428.3501,147.3322 C438.8501,147.3322 438.8501,147.3322 449.3501,147.3322 L456.3501,147.3322 " fill="none" style="stroke:#181818;stroke-width:0.6999999999999998;"/><path d="M331.4801,167.8496 L338.4801,167.8496 C348.9801,167.8496 348.9801,147.3322 359.4801,147.3322 L366.4801,147.3322 " fill="none" style="stroke:#181818;stroke-width:0.6999999999999998;"/><rect fill="#F1F1F1" height="27.0348" rx="8.75" ry="8.75" style="stroke:#181818;stroke-width:1.0499999999999998;" width="54.87" x="366.4801" y="174.8496"/><text fill="#000000" font-family="sans-serif" font-size="9.8" lengthAdjust="spacing" textLength="40.87" x="373.4801" y="192.4248">10.22.3.0</text><rect fill="#F1F1F1" height="27.0348" rx="8.75" ry="8.75" style="stroke:#181818;stroke-width:1.0499999999999998;" width="51.0228" x="456.3501" y="174.8496"/><text fill="#000000" font-family="sans-serif" font-size="9.8" lengthAdjust="spacing" textLength="37.0228" x="463.3501" y="192.4248">B4 - Wifi</text><path d="M421.3501,188.367 L428.3501,188.367 C438.8501,188.367 438.8501,188.367 449.3501,188.367 L456.3501,188.367 " fill="none" style="stroke:#181818;stroke-width:0.6999999999999998;"/><path d="M331.4801,167.8496 L338.4801,167.8496 C348.9801,167.8496 348.9801,188.367 359.4801,188.367 L366.4801,188.367 " fill="none" style="stroke:#181818;stroke-width:0.6999999999999998;"/><path d="M241.6101,126.8148 L248.6101,126.8148 C259.1101,126.8148 259.1101,167.8496 269.6101,167.8496 L276.6101,167.8496 " fill="none" style="stroke:#181818;stroke-width:0.6999999999999998;"/><path d="M151.74,208.8844 L158.74,208.8844 C169.24,208.8844 169.24,126.8148 179.74,126.8148 L186.74,126.8148 " fill="none" style="stroke:#181818;stroke-width:0.6999999999999998;"/><rect fill="#F1F1F1" height="27.0348" rx="8.75" ry="8.75" style="stroke:#181818;stroke-width:1.0499999999999998;" width="54.87" x="186.74" y="277.4365"/><text fill="#000000" font-family="sans-serif" font-size="9.8" lengthAdjust="spacing" textLength="40.87" x="193.74" y="295.0117">10.22.4.0</text><rect fill="#F1F1F1" height="27.0348" rx="8.75" ry="8.75" style="stroke:#181818;stroke-width:1.0499999999999998;" width="54.87" x="276.6101" y="236.4018"/><text fill="#000000" font-family="sans-serif" font-size="9.8" lengthAdjust="spacing" textLength="40.87" x="283.6101" y="253.977">10.22.4.0</text><rect fill="#F1F1F1" height="27.0348" rx="8.75" ry="8.75" style="stroke:#181818;stroke-width:1.0499999999999998;" width="54.87" x="366.4801" y="215.8844"/><text fill="#000000" font-family="sans-serif" font-size="9.8" lengthAdjust="spacing" textLength="40.87" x="373.4801" y="233.4596">10.22.4.0</text><rect fill="#F1F1F1" height="27.0348" rx="8.75" ry="8.75" style="stroke:#181818;stroke-width:1.0499999999999998;" width="55.9419" x="456.3501" y="215.8844"/><text fill="#000000" font-family="sans-serif" font-size="9.8" lengthAdjust="spacing" textLength="41.9419" x="463.3501" y="233.4596">B3 - VoIP</text><path d="M421.3501,229.4018 L428.3501,229.4018 C438.8501,229.4018 438.8501,229.4018 449.3501,229.4018 L456.3501,229.4018 " fill="none" style="stroke:#181818;stroke-width:0.6999999999999998;"/><path d="M331.4801,249.9191 L338.4801,249.9191 C348.9801,249.9191 348.9801,229.4018 359.4801,229.4018 L366.4801,229.4018 " fill="none" style="stroke:#181818;stroke-width:0.6999999999999998;"/><rect fill="#F1F1F1" height="27.0348" rx="8.75" ry="8.75" style="stroke:#181818;stroke-width:1.0499999999999998;" width="54.87" x="366.4801" y="256.9191"/><text fill="#000000" font-family="sans-serif" font-size="9.8" lengthAdjust="spacing" textLength="40.87" x="373.4801" y="274.4943">10.22.5.0</text><rect fill="#F1F1F1" height="27.0348" rx="8.75" ry="8.75" style="stroke:#181818;stroke-width:1.0499999999999998;" width="65.1964" x="456.3501" y="256.9191"/><text fill="#000000" font-family="sans-serif" font-size="9.8" lengthAdjust="spacing" textLength="51.1964" x="463.3501" y="274.4943">B4 - Floor 1</text><path d="M421.3501,270.4365 L428.3501,270.4365 C438.8501,270.4365 438.8501,270.4365 449.3501,270.4365 L456.3501,270.4365 " fill="none" style="stroke:#181818;stroke-width:0.6999999999999998;"/><path d="M331.4801,249.9191 L338.4801,249.9191 C348.9801,249.9191 348.9801,270.4365 359.4801,270.4365 L366.4801,270.4365 " fill="none" style="stroke:#181818;stroke-width:0.6999999999999998;"/><path d="M241.6101,290.9539 L248.6101,290.9539 C259.1101,290.9539 259.1101,249.9191 269.6101,249.9191 L276.6101,249.9191 " fill="none" style="stroke:#181818;stroke-width:0.6999999999999998;"/><rect fill="#F1F1F1" height="27.0348" rx="8.75" ry="8.75" style="stroke:#181818;stroke-width:1.0499999999999998;" width="54.87" x="276.6101" y="318.4713"/><text fill="#000000" font-family="sans-serif" font-size="9.8" lengthAdjust="spacing" textLength="40.87" x="283.6101" y="336.0465">10.22.6.0</text><rect fill="#F1F1F1" height="27.0348" rx="8.75" ry="8.75" style="stroke:#181818;stroke-width:1.0499999999999998;" width="54.87" x="366.4801" y="297.9539"/><text fill="#000000" font-family="sans-serif" font-size="9.8" lengthAdjust="spacing" textLength="40.87" x="373.4801" y="315.5291">10.22.6.0</text><rect fill="#F1F1F1" height="27.0348" rx="8.75" ry="8.75" style="stroke:#181818;stroke-width:1.0499999999999998;" width="55.9419" x="456.3501" y="297.9539"/><text fill="#000000" font-family="sans-serif" font-size="9.8" lengthAdjust="spacing" textLength="41.9419" x="463.3501" y="315.5291">B4 - VoIP</text><path d="M421.3501,311.4713 L428.3501,311.4713 C438.8501,311.4713 438.8501,311.4713 449.3501,311.4713 L456.3501,311.4713 " fill="none" style="stroke:#181818;stroke-width:0.6999999999999998;"/><path d="M331.4801,331.9887 L338.4801,331.9887 C348.9801,331.9887 348.9801,311.4713 359.4801,311.4713 L366.4801,311.4713 " fill="none" style="stroke:#181818;stroke-width:0.6999999999999998;"/><rect fill="#F1F1F1" height="27.0348" rx="8.75" ry="8.75" style="stroke:#181818;stroke-width:1.0499999999999998;" width="54.87" x="366.4801" y="338.9887"/><text fill="#000000" font-family="sans-serif" font-size="9.8" lengthAdjust="spacing" textLength="40.87" x="373.4801" y="356.5639">10.22.7.0</text><rect fill="#F1F1F1" height="27.0348" rx="8.75" ry="8.75" style="stroke:#181818;stroke-width:1.0499999999999998;" width="65.1964" x="456.3501" y="338.9887"/><text fill="#000000" font-family="sans-serif" font-size="9.8" lengthAdjust="spacing" textLength="51.1964" x="463.3501" y="356.5639">B3 - Floor 1</text><path d="M421.3501,352.5061 L428.3501,352.5061 C438.8501,352.5061 438.8501,352.5061 449.3501,352.5061 L456.3501,352.5061 " fill="none" style="stroke:#181818;stroke-width:0.6999999999999998;"/><path d="M331.4801,331.9887 L338.4801,331.9887 C348.9801,331.9887 348.9801,352.5061 359.4801,352.5061 L366.4801,352.5061 " fill="none" style="stroke:#181818;stroke-width:0.6999999999999998;"/><path d="M241.6101,290.9539 L248.6101,290.9539 C259.1101,290.9539 259.1101,331.9887 269.6101,331.9887 L276.6101,331.9887 " fill="none" style="stroke:#181818;stroke-width:0.6999999999999998;"/><path d="M151.74,208.8844 L158.74,208.8844 C169.24,208.8844 169.24,290.9539 179.74,290.9539 L186.74,290.9539 " fill="none" style="stroke:#181818;stroke-width:0.6999999999999998;"/><path d="M61.87,701.3016 L68.87,701.3016 C79.37,701.3016 79.37,208.8844 89.87,208.8844 L96.87,208.8844 " fill="none" style="stroke:#181818;stroke-width:0.6999999999999998;"/><rect fill="#F1F1F1" height="27.0348" rx="8.75" ry="8.75" style="stroke:#181818;stroke-width:1.0499999999999998;" width="54.87" x="96.87" y="851.9232"/><text fill="#000000" font-family="sans-serif" font-size="9.8" lengthAdjust="spacing" textLength="40.87" x="103.87" y="869.4984">10.22.8.0</text><rect fill="#F1F1F1" height="27.0348" rx="8.75" ry="8.75" style="stroke:#181818;stroke-width:1.0499999999999998;" width="54.87" x="186.74" y="523.6451"/><text fill="#000000" font-family="sans-serif" font-size="9.8" lengthAdjust="spacing" textLength="40.87" x="193.74" y="541.2203">10.22.8.0</text><rect fill="#F1F1F1" height="27.0348" rx="8.75" ry="8.75" style="stroke:#181818;stroke-width:1.0499999999999998;" width="54.87" x="276.6101" y="441.5756"/><text fill="#000000" font-family="sans-serif" font-size="9.8" lengthAdjust="spacing" textLength="40.87" x="283.6101" y="459.1508">10.22.8.0</text><rect fill="#F1F1F1" height="27.0348" rx="8.75" ry="8.75" style="stroke:#181818;stroke-width:1.0499999999999998;" width="54.87" x="366.4801" y="400.5408"/><text fill="#000000" font-family="sans-serif" font-size="9.8" lengthAdjust="spacing" textLength="40.87" x="373.4801" y="418.116">10.22.8.0</text><rect fill="#F1F1F1" height="27.0348" rx="8.75" ry="8.75" style="stroke:#181818;stroke-width:1.0499999999999998;" width="54.87" x="456.3501" y="380.0234"/><text fill="#000000" font-family="sans-serif" font-size="9.8" lengthAdjust="spacing" textLength="40.87" x="463.3501" y="397.5986">10.22.8.0</text><rect fill="#F1F1F1" height="27.0348" rx="8.75" ry="8.75" style="stroke:#181818;stroke-width:1.0499999999999998;" width="65.1964" x="546.2201" y="380.0234"/><text fill="#000000" font-family="sans-serif" font-size="9.8" lengthAdjust="spacing" textLength="51.1964" x="553.2201" y="397.5986">B4 - Floor 0</text><path d="M511.2201,393.5408 L518.2201,393.5408 C528.7201,393.5408 528.7201,393.5408 539.2201,393.5408 L546.2201,393.5408 " fill="none" style="stroke:#181818;stroke-width:0.6999999999999998;"/><path d="M421.3501,414.0582 L428.3501,414.0582 C438.8501,414.0582 438.8501,393.5408 449.3501,393.5408 L456.3501,393.5408 " fill="none" style="stroke:#181818;stroke-width:0.6999999999999998;"/><rect fill="#F1F1F1" height="27.0348" rx="8.75" ry="8.75" style="stroke:#181818;stroke-width:1.0499999999999998;" width="65.7706" x="456.3501" y="421.0582"/><text fill="#000000" font-family="sans-serif" font-size="9.8" lengthAdjust="spacing" textLength="51.7706" x="463.3501" y="438.6334">10.22.8.128</text><rect fill="#F1F1F1" height="27.0348" rx="8.75" ry="8.75" style="stroke:#181818;stroke-width:1.0499999999999998;" width="55.9419" x="557.1207" y="421.0582"/><text fill="#000000" font-family="sans-serif" font-size="9.8" lengthAdjust="spacing" textLength="41.9419" x="564.1207" y="438.6334">B2 - VoIP</text><path d="M522.1207,434.5756 L529.1207,434.5756 C539.6207,434.5756 539.6207,434.5756 550.1207,434.5756 L557.1207,434.5756 " fill="none" style="stroke:#181818;stroke-width:0.6999999999999998;"/><path d="M421.3501,414.0582 L428.3501,414.0582 C438.8501,414.0582 438.8501,434.5756 449.3501,434.5756 L456.3501,434.5756 " fill="none" style="stroke:#181818;stroke-width:0.6999999999999998;"/><path d="M331.4801,455.093 L338.4801,455.093 C348.9801,455.093 348.9801,414.0582 359.4801,414.0582 L366.4801,414.0582 " fill="none" style="stroke:#181818;stroke-width:0.6999999999999998;"/><rect fill="#F1F1F1" height="27.0348" rx="8.75" ry="8.75" style="stroke:#181818;stroke-width:1.0499999999999998;" width="54.87" x="366.4801" y="482.6104"/><text fill="#000000" font-family="sans-serif" font-size="9.8" lengthAdjust="spacing" textLength="40.87" x="373.4801" y="500.1855">10.22.9.0</text><rect fill="#F1F1F1" height="27.0348" rx="8.75" ry="8.75" style="stroke:#181818;stroke-width:1.0499999999999998;" width="54.87" x="456.3501" y="462.093"/><text fill="#000000" font-family="sans-serif" font-size="9.8" lengthAdjust="spacing" textLength="40.87" x="463.3501" y="479.6682">10.22.9.0</text><rect fill="#F1F1F1" height="27.0348" rx="8.75" ry="8.75" style="stroke:#181818;stroke-width:1.0499999999999998;" width="65.1964" x="546.2201" y="462.093"/><text fill="#000000" font-family="sans-serif" font-size="9.8" lengthAdjust="spacing" textLength="51.1964" x="553.2201" y="479.6682">B3 - Floor 0</text><path d="M511.2201,475.6104 L518.2201,475.6104 C528.7201,475.6104 528.7201,475.6104 539.2201,475.6104 L546.2201,475.6104 " fill="none" style="stroke:#181818;stroke-width:0.6999999999999998;"/><path d="M421.3501,496.1277 L428.3501,496.1277 C438.8501,496.1277 438.8501,475.6104 449.3501,475.6104 L456.3501,475.6104 " fill="none" style="stroke:#181818;stroke-width:0.6999999999999998;"/><rect fill="#F1F1F1" height="27.0348" rx="8.75" ry="8.75" style="stroke:#181818;stroke-width:1.0499999999999998;" width="65.7706" x="456.3501" y="503.1277"/><text fill="#000000" font-family="sans-serif" font-size="9.8" lengthAdjust="spacing" textLength="51.7706" x="463.3501" y="520.7029">10.22.9.128</text><rect fill="#F1F1F1" height="27.0348" rx="8.75" ry="8.75" style="stroke:#181818;stroke-width:1.0499999999999998;" width="55.9228" x="557.1207" y="503.1277"/><text fill="#000000" font-family="sans-serif" font-size="9.8" lengthAdjust="spacing" textLength="41.9228" x="564.1207" y="520.7029">B1 - DMZ</text><path d="M522.1207,516.6451 L529.1207,516.6451 C539.6207,516.6451 539.6207,516.6451 550.1207,516.6451 L557.1207,516.6451 " fill="none" style="stroke:#181818;stroke-width:0.6999999999999998;"/><path d="M421.3501,496.1277 L428.3501,496.1277 C438.8501,496.1277 438.8501,516.6451 449.3501,516.6451 L456.3501,516.6451 " fill="none" style="stroke:#181818;stroke-width:0.6999999999999998;"/><path d="M331.4801,455.093 L338.4801,455.093 C348.9801,455.093 348.9801,496.1277 359.4801,496.1277 L366.4801,496.1277 " fill="none" style="stroke:#181818;stroke-width:0.6999999999999998;"/><path d="M241.6101,537.1625 L248.6101,537.1625 C259.1101,537.1625 259.1101,455.093 269.6101,455.093 L276.6101,455.093 " fill="none" style="stroke:#181818;stroke-width:0.6999999999999998;"/><rect fill="#F1F1F1" height="27.0348" rx="8.75" ry="8.75" style="stroke:#181818;stroke-width:1.0499999999999998;" width="60.3203" x="276.6101" y="605.7146"/><text fill="#000000" font-family="sans-serif" font-size="9.8" lengthAdjust="spacing" textLength="46.3203" x="283.6101" y="623.2898">10.22.10.0</text><rect fill="#F1F1F1" height="27.0348" rx="8.75" ry="8.75" style="stroke:#181818;stroke-width:1.0499999999999998;" width="60.3203" x="371.9304" y="564.6799"/><text fill="#000000" font-family="sans-serif" font-size="9.8" lengthAdjust="spacing" textLength="46.3203" x="378.9304" y="582.2551">10.22.10.0</text><rect fill="#F1F1F1" height="27.0348" rx="8.75" ry="8.75" style="stroke:#181818;stroke-width:1.0499999999999998;" width="60.3203" x="467.2507" y="544.1625"/><text fill="#000000" font-family="sans-serif" font-size="9.8" lengthAdjust="spacing" textLength="46.3203" x="474.2507" y="561.7377">10.22.10.0</text><rect fill="#F1F1F1" height="27.0348" rx="8.75" ry="8.75" style="stroke:#181818;stroke-width:1.0499999999999998;" width="65.1964" x="562.571" y="544.1625"/><text fill="#000000" font-family="sans-serif" font-size="9.8" lengthAdjust="spacing" textLength="51.1964" x="569.571" y="561.7377">B2 - Floor 1</text><path d="M527.571,557.6799 L534.571,557.6799 C545.071,557.6799 545.071,557.6799 555.571,557.6799 L562.571,557.6799 " fill="none" style="stroke:#181818;stroke-width:0.6999999999999998;"/><path d="M432.2507,578.1973 L439.2507,578.1973 C449.7507,578.1973 449.7507,557.6799 460.2507,557.6799 L467.2507,557.6799 " fill="none" style="stroke:#181818;stroke-width:0.6999999999999998;"/><rect fill="#F1F1F1" height="27.0348" rx="8.75" ry="8.75" style="stroke:#181818;stroke-width:1.0499999999999998;" width="71.2209" x="467.2507" y="585.1973"/><text fill="#000000" font-family="sans-serif" font-size="9.8" lengthAdjust="spacing" textLength="57.2209" x="474.2507" y="602.7725">10.22.10.128</text><rect fill="#F1F1F1" height="27.0348" rx="8.75" ry="8.75" style="stroke:#181818;stroke-width:1.0499999999999998;" width="62.4736" x="573.4716" y="585.1973"/><text fill="#000000" font-family="sans-serif" font-size="9.8" lengthAdjust="spacing" textLength="48.4736" x="580.4716" y="602.7725">B2 -Floor 0</text><path d="M538.4716,598.7146 L545.4716,598.7146 C555.9716,598.7146 555.9716,598.7146 566.4716,598.7146 L573.4716,598.7146 " fill="none" style="stroke:#181818;stroke-width:0.6999999999999998;"/><path d="M432.2507,578.1973 L439.2507,578.1973 C449.7507,578.1973 449.7507,598.7146 460.2507,598.7146 L467.2507,598.7146 " fill="none" style="stroke:#181818;stroke-width:0.6999999999999998;"/><path d="M336.9304,619.232 L343.9304,619.232 C354.4304,619.232 354.4304,578.1973 364.9304,578.1973 L371.9304,578.1973 " fill="none" style="stroke:#181818;stroke-width:0.6999999999999998;"/><rect fill="#F1F1F1" height="27.0348" rx="8.75" ry="8.75" style="stroke:#181818;stroke-width:1.0499999999999998;" width="60.3203" x="371.9304" y="646.7494"/><text fill="#000000" font-family="sans-serif" font-size="9.8" lengthAdjust="spacing" textLength="46.3203" x="378.9304" y="664.3246">10.22.11.0</text><rect fill="#F1F1F1" height="27.0348" rx="8.75" ry="8.75" style="stroke:#181818;stroke-width:1.0499999999999998;" width="60.3203" x="467.2507" y="626.232"/><text fill="#000000" font-family="sans-serif" font-size="9.8" lengthAdjust="spacing" textLength="46.3203" x="474.2507" y="643.8072">10.22.11.0</text><rect fill="#F1F1F1" height="27.0348" rx="8.75" ry="8.75" style="stroke:#181818;stroke-width:1.0499999999999998;" width="54.2862" x="562.571" y="626.232"/><text fill="#000000" font-family="sans-serif" font-size="9.8" lengthAdjust="spacing" textLength="40.2862" x="569.571" y="643.8072">B1 - WiFi</text><path d="M527.571,639.7494 L534.571,639.7494 C545.071,639.7494 545.071,639.7494 555.571,639.7494 L562.571,639.7494 " fill="none" style="stroke:#181818;stroke-width:0.6999999999999998;"/><path d="M432.2507,660.2668 L439.2507,660.2668 C449.7507,660.2668 449.7507,639.7494 460.2507,639.7494 L467.2507,639.7494 " fill="none" style="stroke:#181818;stroke-width:0.6999999999999998;"/><rect fill="#F1F1F1" height="27.0348" rx="8.75" ry="8.75" style="stroke:#181818;stroke-width:1.0499999999999998;" width="71.2209" x="467.2507" y="667.2668"/><text fill="#000000" font-family="sans-serif" font-size="9.8" lengthAdjust="spacing" textLength="57.2209" x="474.2507" y="684.842">10.22.11.128</text><rect fill="#F1F1F1" height="27.0348" rx="8.75" ry="8.75" style="stroke:#181818;stroke-width:1.0499999999999998;" width="55.9419" x="573.4716" y="667.2668"/><text fill="#000000" font-family="sans-serif" font-size="9.8" lengthAdjust="spacing" textLength="41.9419" x="580.4716" y="684.842">B1 - VoIP</text><path d="M538.4716,680.7842 L545.4716,680.7842 C555.9716,680.7842 555.9716,680.7842 566.4716,680.7842 L573.4716,680.7842 " fill="none" style="stroke:#181818;stroke-width:0.6999999999999998;"/><path d="M432.2507,660.2668 L439.2507,660.2668 C449.7507,660.2668 449.7507,680.7842 460.2507,680.7842 L467.2507,680.7842 " fill="none" style="stroke:#181818;stroke-width:0.6999999999999998;"/><path d="M336.9304,619.232 L343.9304,619.232 C354.4304,619.232 354.4304,660.2668 364.9304,660.2668 L371.9304,660.2668 " fill="none" style="stroke:#181818;stroke-width:0.6999999999999998;"/><path d="M241.6101,537.1625 L248.6101,537.1625 C259.1101,537.1625 259.1101,619.232 269.6101,619.232 L276.6101,619.232 " fill="none" style="stroke:#181818;stroke-width:0.6999999999999998;"/><path d="M151.74,865.4406 L158.74,865.4406 C169.24,865.4406 169.24,537.1625 179.74,537.1625 L186.74,537.1625 " fill="none" style="stroke:#181818;stroke-width:0.6999999999999998;"/><rect fill="#F1F1F1" height="27.0348" rx="8.75" ry="8.75" style="stroke:#181818;stroke-width:1.0499999999999998;" width="60.3203" x="186.74" y="1016.0623"/><text fill="#000000" font-family="sans-serif" font-size="9.8" lengthAdjust="spacing" textLength="46.3203" x="193.74" y="1033.6375">10.22.12.0</text><rect fill="#F1F1F1" height="27.0348" rx="8.75" ry="8.75" style="stroke:#181818;stroke-width:1.0499999999999998;" width="60.3203" x="282.0604" y="851.9232"/><text fill="#000000" font-family="sans-serif" font-size="9.8" lengthAdjust="spacing" textLength="46.3203" x="289.0604" y="869.4984">10.22.12.0</text><rect fill="#F1F1F1" height="27.0348" rx="8.75" ry="8.75" style="stroke:#181818;stroke-width:1.0499999999999998;" width="60.3203" x="377.3807" y="769.8537"/><text fill="#000000" font-family="sans-serif" font-size="9.8" lengthAdjust="spacing" textLength="46.3203" x="384.3807" y="787.4289">10.22.12.0</text><rect fill="#F1F1F1" height="27.0348" rx="8.75" ry="8.75" style="stroke:#181818;stroke-width:1.0499999999999998;" width="60.3203" x="472.701" y="728.8189"/><text fill="#000000" font-family="sans-serif" font-size="9.8" lengthAdjust="spacing" textLength="46.3203" x="479.701" y="746.3941">10.22.12.0</text><rect fill="#F1F1F1" height="27.0348" rx="8.75" ry="8.75" style="stroke:#181818;stroke-width:1.0499999999999998;" width="60.3203" x="568.0213" y="708.3016"/><text fill="#000000" font-family="sans-serif" font-size="9.8" lengthAdjust="spacing" textLength="46.3203" x="575.0213" y="725.8768">10.22.12.0</text><rect fill="#F1F1F1" height="27.0348" rx="8.75" ry="8.75" style="stroke:#181818;stroke-width:1.0499999999999998;" width="55.9228" x="663.3416" y="708.3016"/><text fill="#000000" font-family="sans-serif" font-size="9.8" lengthAdjust="spacing" textLength="41.9228" x="670.3416" y="725.8768">B2 - DMZ</text><path d="M628.3416,721.8189 L635.3416,721.8189 C645.8416,721.8189 645.8416,721.8189 656.3416,721.8189 L663.3416,721.8189 " fill="none" style="stroke:#181818;stroke-width:0.6999999999999998;"/><path d="M533.0213,742.3363 L540.0213,742.3363 C550.5213,742.3363 550.5213,721.8189 561.0213,721.8189 L568.0213,721.8189 " fill="none" style="stroke:#181818;stroke-width:0.6999999999999998;"/><rect fill="#F1F1F1" height="27.0348" rx="8.75" ry="8.75" style="stroke:#181818;stroke-width:1.0499999999999998;" width="65.7706" x="568.0213" y="749.3363"/><text fill="#000000" font-family="sans-serif" font-size="9.8" lengthAdjust="spacing" textLength="51.7706" x="575.0213" y="766.9115">10.22.12.64</text><rect fill="#F1F1F1" height="27.0348" rx="8.75" ry="8.75" style="stroke:#181818;stroke-width:1.0499999999999998;" width="55.9228" x="668.7919" y="749.3363"/><text fill="#000000" font-family="sans-serif" font-size="9.8" lengthAdjust="spacing" textLength="41.9228" x="675.7919" y="766.9115">B3 - DMZ</text><path d="M633.7919,762.8537 L640.7919,762.8537 C651.2919,762.8537 651.2919,762.8537 661.7919,762.8537 L668.7919,762.8537 " fill="none" style="stroke:#181818;stroke-width:0.6999999999999998;"/><path d="M533.0213,742.3363 L540.0213,742.3363 C550.5213,742.3363 550.5213,762.8537 561.0213,762.8537 L568.0213,762.8537 " fill="none" style="stroke:#181818;stroke-width:0.6999999999999998;"/><path d="M437.701,783.3711 L444.701,783.3711 C455.201,783.3711 455.201,742.3363 465.701,742.3363 L472.701,742.3363 " fill="none" style="stroke:#181818;stroke-width:0.6999999999999998;"/><rect fill="#F1F1F1" height="27.0348" rx="8.75" ry="8.75" style="stroke:#181818;stroke-width:1.0499999999999998;" width="71.2209" x="472.701" y="810.8885"/><text fill="#000000" font-family="sans-serif" font-size="9.8" lengthAdjust="spacing" textLength="57.2209" x="479.701" y="828.4637">10.22.12.128</text><rect fill="#F1F1F1" height="27.0348" rx="8.75" ry="8.75" style="stroke:#181818;stroke-width:1.0499999999999998;" width="71.2209" x="578.9219" y="790.3711"/><text fill="#000000" font-family="sans-serif" font-size="9.8" lengthAdjust="spacing" textLength="57.2209" x="585.9219" y="807.9463">10.22.12.128</text><rect fill="#F1F1F1" height="27.0348" rx="8.75" ry="8.75" style="stroke:#181818;stroke-width:1.0499999999999998;" width="53.2191" x="685.1428" y="790.3711"/><text fill="#000000" font-family="sans-serif" font-size="9.8" lengthAdjust="spacing" textLength="39.2191" x="692.1428" y="807.9463">B4- VoIP</text><path d="M650.1428,803.8885 L657.1428,803.8885 C667.6428,803.8885 667.6428,803.8885 678.1428,803.8885 L685.1428,803.8885 " fill="none" style="stroke:#181818;stroke-width:0.6999999999999998;"/><path d="M543.9219,824.4059 L550.9219,824.4059 C561.4219,824.4059 561.4219,803.8885 571.9219,803.8885 L578.9219,803.8885 " fill="none" style="stroke:#181818;stroke-width:0.6999999999999998;"/><rect fill="#F1F1F1" height="27.0348" rx="8.75" ry="8.75" style="stroke:#181818;stroke-width:1.0499999999999998;" width="71.2209" x="578.9219" y="831.4059"/><text fill="#000000" font-family="sans-serif" font-size="9.8" lengthAdjust="spacing" textLength="57.2209" x="585.9219" y="848.9811">10.22.12.192</text><rect fill="#F1F1F1" height="27.0348" rx="8.75" ry="8.75" style="stroke:#181818;stroke-width:1.0499999999999998;" width="65.1964" x="685.1428" y="831.4059"/><text fill="#000000" font-family="sans-serif" font-size="9.8" lengthAdjust="spacing" textLength="51.1964" x="692.1428" y="848.9811">B1 - Floor 1</text><path d="M650.1428,844.9232 L657.1428,844.9232 C667.6428,844.9232 667.6428,844.9232 678.1428,844.9232 L685.1428,844.9232 " fill="none" style="stroke:#181818;stroke-width:0.6999999999999998;"/><path d="M543.9219,824.4059 L550.9219,824.4059 C561.4219,824.4059 561.4219,844.9232 571.9219,844.9232 L578.9219,844.9232 " fill="none" style="stroke:#181818;stroke-width:0.6999999999999998;"/><path d="M437.701,783.3711 L444.701,783.3711 C455.201,783.3711 455.201,824.4059 465.701,824.4059 L472.701,824.4059 " fill="none" style="stroke:#181818;stroke-width:0.6999999999999998;"/><path d="M342.3807,865.4406 L349.3807,865.4406 C359.8807,865.4406 359.8807,783.3711 370.3807,783.3711 L377.3807,783.3711 " fill="none" style="stroke:#181818;stroke-width:0.6999999999999998;"/><rect fill="#F1F1F1" height="27.0348" rx="8.75" ry="8.75" style="stroke:#181818;stroke-width:1.0499999999999998;" width="60.3203" x="377.3807" y="933.9928"/><text fill="#000000" font-family="sans-serif" font-size="9.8" lengthAdjust="spacing" textLength="46.3203" x="384.3807" y="951.568">10.22.13.0</text><rect fill="#F1F1F1" height="27.0348" rx="8.75" ry="8.75" style="stroke:#181818;stroke-width:1.0499999999999998;" width="60.3203" x="472.701" y="892.958"/><text fill="#000000" font-family="sans-serif" font-size="9.8" lengthAdjust="spacing" textLength="46.3203" x="479.701" y="910.5332">10.22.13.0</text><rect fill="#F1F1F1" height="27.0348" rx="8.75" ry="8.75" style="stroke:#181818;stroke-width:1.0499999999999998;" width="60.3203" x="568.0213" y="872.4406"/><text fill="#000000" font-family="sans-serif" font-size="9.8" lengthAdjust="spacing" textLength="46.3203" x="575.0213" y="890.0158">10.22.13.0</text><rect fill="#F1F1F1" height="27.0348" rx="8.75" ry="8.75" style="stroke:#181818;stroke-width:1.0499999999999998;" width="65.1964" x="663.3416" y="872.4406"/><text fill="#000000" font-family="sans-serif" font-size="9.8" lengthAdjust="spacing" textLength="51.1964" x="670.3416" y="890.0158">B1 - Floor 0</text><path d="M628.3416,885.958 L635.3416,885.958 C645.8416,885.958 645.8416,885.958 656.3416,885.958 L663.3416,885.958 " fill="none" style="stroke:#181818;stroke-width:0.6999999999999998;"/><path d="M533.0213,906.4754 L540.0213,906.4754 C550.5213,906.4754 550.5213,885.958 561.0213,885.958 L568.0213,885.958 " fill="none" style="stroke:#181818;stroke-width:0.6999999999999998;"/><rect fill="#F1F1F1" height="27.0348" rx="8.75" ry="8.75" style="stroke:#181818;stroke-width:1.0499999999999998;" width="65.7706" x="568.0213" y="913.4754"/><text fill="#000000" font-family="sans-serif" font-size="9.8" lengthAdjust="spacing" textLength="51.7706" x="575.0213" y="931.0506">10.22.13.64</text><path d="M533.0213,906.4754 L540.0213,906.4754 C550.5213,906.4754 550.5213,926.9928 561.0213,926.9928 L568.0213,926.9928 " fill="none" style="stroke:#181818;stroke-width:0.6999999999999998;"/><path d="M437.701,947.5102 L444.701,947.5102 C455.201,947.5102 455.201,906.4754 465.701,906.4754 L472.701,906.4754 " fill="none" style="stroke:#181818;stroke-width:0.6999999999999998;"/><rect fill="#F1F1F1" height="27.0348" rx="8.75" ry="8.75" style="stroke:#181818;stroke-width:1.0499999999999998;" width="71.2209" x="472.701" y="975.0275"/><text fill="#000000" font-family="sans-serif" font-size="9.8" lengthAdjust="spacing" textLength="57.2209" x="479.701" y="992.6027">10.22.13.128</text><rect fill="#F1F1F1" height="27.0348" rx="8.75" ry="8.75" style="stroke:#181818;stroke-width:1.0499999999999998;" width="71.2209" x="578.9219" y="954.5102"/><text fill="#000000" font-family="sans-serif" font-size="9.8" lengthAdjust="spacing" textLength="57.2209" x="585.9219" y="972.0854">10.22.13.128</text><path d="M543.9219,988.5449 L550.9219,988.5449 C561.4219,988.5449 561.4219,968.0275 571.9219,968.0275 L578.9219,968.0275 " fill="none" style="stroke:#181818;stroke-width:0.6999999999999998;"/><rect fill="#F1F1F1" height="27.0348" rx="8.75" ry="8.75" style="stroke:#181818;stroke-width:1.0499999999999998;" width="71.2209" x="578.9219" y="995.5449"/><text fill="#000000" font-family="sans-serif" font-size="9.8" lengthAdjust="spacing" textLength="57.2209" x="585.9219" y="1013.1201">10.22.13.192</text><path d="M543.9219,988.5449 L550.9219,988.5449 C561.4219,988.5449 561.4219,1009.0623 571.9219,1009.0623 L578.9219,1009.0623 " fill="none" style="stroke:#181818;stroke-width:0.6999999999999998;"/><path d="M437.701,947.5102 L444.701,947.5102 C455.201,947.5102 455.201,988.5449 465.701,988.5449 L472.701,988.5449 " fill="none" style="stroke:#181818;stroke-width:0.6999999999999998;"/><path d="M342.3807,865.4406 L349.3807,865.4406 C359.8807,865.4406 359.8807,947.5102 370.3807,947.5102 L377.3807,947.5102 " fill="none" style="stroke:#181818;stroke-width:0.6999999999999998;"/><path d="M247.0604,1029.5797 L254.0604,1029.5797 C264.5604,1029.5797 264.5604,865.4406 275.0604,865.4406 L282.0604,865.4406 " fill="none" style="stroke:#181818;stroke-width:0.6999999999999998;"/><rect fill="#F1F1F1" height="27.0348" rx="8.75" ry="8.75" style="stroke:#181818;stroke-width:1.0499999999999998;" width="60.3203" x="282.0604" y="1180.2014"/><text fill="#000000" font-family="sans-serif" font-size="9.8" lengthAdjust="spacing" textLength="46.3203" x="289.0604" y="1197.7766">10.22.14.0</text><rect fill="#F1F1F1" height="27.0348" rx="8.75" ry="8.75" style="stroke:#181818;stroke-width:1.0499999999999998;" width="60.3203" x="377.3807" y="1098.1318"/><text fill="#000000" font-family="sans-serif" font-size="9.8" lengthAdjust="spacing" textLength="46.3203" x="384.3807" y="1115.707">10.22.14.0</text><rect fill="#F1F1F1" height="27.0348" rx="8.75" ry="8.75" style="stroke:#181818;stroke-width:1.0499999999999998;" width="60.3203" x="472.701" y="1057.0971"/><text fill="#000000" font-family="sans-serif" font-size="9.8" lengthAdjust="spacing" textLength="46.3203" x="479.701" y="1074.6723">10.22.14.0</text><rect fill="#F1F1F1" height="27.0348" rx="8.75" ry="8.75" style="stroke:#181818;stroke-width:1.0499999999999998;" width="60.3203" x="568.0213" y="1036.5797"/><text fill="#000000" font-family="sans-serif" font-size="9.8" lengthAdjust="spacing" textLength="46.3203" x="575.0213" y="1054.1549">10.22.14.0</text><path d="M533.0213,1070.6145 L540.0213,1070.6145 C550.5213,1070.6145 550.5213,1050.0971 561.0213,1050.0971 L568.0213,1050.0971 " fill="none" style="stroke:#181818;stroke-width:0.6999999999999998;"/><rect fill="#F1F1F1" height="27.0348" rx="8.75" ry="8.75" style="stroke:#181818;stroke-width:1.0499999999999998;" width="65.7706" x="568.0213" y="1077.6145"/><text fill="#000000" font-family="sans-serif" font-size="9.8" lengthAdjust="spacing" textLength="51.7706" x="575.0213" y="1095.1896">10.22.14.64</text><path d="M533.0213,1070.6145 L540.0213,1070.6145 C550.5213,1070.6145 550.5213,1091.1318 561.0213,1091.1318 L568.0213,1091.1318 " fill="none" style="stroke:#181818;stroke-width:0.6999999999999998;"/><path d="M437.701,1111.6492 L444.701,1111.6492 C455.201,1111.6492 455.201,1070.6145 465.701,1070.6145 L472.701,1070.6145 " fill="none" style="stroke:#181818;stroke-width:0.6999999999999998;"/><rect fill="#F1F1F1" height="27.0348" rx="8.75" ry="8.75" style="stroke:#181818;stroke-width:1.0499999999999998;" width="71.2209" x="472.701" y="1139.1666"/><text fill="#000000" font-family="sans-serif" font-size="9.8" lengthAdjust="spacing" textLength="57.2209" x="479.701" y="1156.7418">10.22.14.128</text><rect fill="#F1F1F1" height="27.0348" rx="8.75" ry="8.75" style="stroke:#181818;stroke-width:1.0499999999999998;" width="71.2209" x="578.9219" y="1118.6492"/><text fill="#000000" font-family="sans-serif" font-size="9.8" lengthAdjust="spacing" textLength="57.2209" x="585.9219" y="1136.2244">10.22.14.128</text><path d="M543.9219,1152.684 L550.9219,1152.684 C561.4219,1152.684 561.4219,1132.1666 571.9219,1132.1666 L578.9219,1132.1666 " fill="none" style="stroke:#181818;stroke-width:0.6999999999999998;"/><rect fill="#F1F1F1" height="27.0348" rx="8.75" ry="8.75" style="stroke:#181818;stroke-width:1.0499999999999998;" width="71.2209" x="578.9219" y="1159.684"/><text fill="#000000" font-family="sans-serif" font-size="9.8" lengthAdjust="spacing" textLength="57.2209" x="585.9219" y="1177.2592">10.22.14.192</text><path d="M543.9219,1152.684 L550.9219,1152.684 C561.4219,1152.684 561.4219,1173.2014 571.9219,1173.2014 L578.9219,1173.2014 " fill="none" style="stroke:#181818;stroke-width:0.6999999999999998;"/><path d="M437.701,1111.6492 L444.701,1111.6492 C455.201,1111.6492 455.201,1152.684 465.701,1152.684 L472.701,1152.684 " fill="none" style="stroke:#181818;stroke-width:0.6999999999999998;"/><path d="M342.3807,1193.7187 L349.3807,1193.7187 C359.8807,1193.7187 359.8807,1111.6492 370.3807,1111.6492 L377.3807,1111.6492 " fill="none" style="stroke:#181818;stroke-width:0.6999999999999998;"/><rect fill="#F1F1F1" height="27.0348" rx="8.75" ry="8.75" style="stroke:#181818;stroke-width:1.0499999999999998;" width="60.3203" x="377.3807" y="1262.2709"/><text fill="#000000" font-family="sans-serif" font-size="9.8" lengthAdjust="spacing" textLength="46.3203" x="384.3807" y="1279.8461">10.22.15.0</text><rect fill="#F1F1F1" height="27.0348" rx="8.75" ry="8.75" style="stroke:#181818;stroke-width:1.0499999999999998;" width="60.3203" x="472.701" y="1221.2361"/><text fill="#000000" font-family="sans-serif" font-size="9.8" lengthAdjust="spacing" textLength="46.3203" x="479.701" y="1238.8113">10.22.15.0</text><rect fill="#F1F1F1" height="27.0348" rx="8.75" ry="8.75" style="stroke:#181818;stroke-width:1.0499999999999998;" width="60.3203" x="568.0213" y="1200.7187"/><text fill="#000000" font-family="sans-serif" font-size="9.8" lengthAdjust="spacing" textLength="46.3203" x="575.0213" y="1218.2939">10.22.15.0</text><path d="M533.0213,1234.7535 L540.0213,1234.7535 C550.5213,1234.7535 550.5213,1214.2361 561.0213,1214.2361 L568.0213,1214.2361 " fill="none" style="stroke:#181818;stroke-width:0.6999999999999998;"/><rect fill="#F1F1F1" height="27.0348" rx="8.75" ry="8.75" style="stroke:#181818;stroke-width:1.0499999999999998;" width="65.7706" x="568.0213" y="1241.7535"/><text fill="#000000" font-family="sans-serif" font-size="9.8" lengthAdjust="spacing" textLength="51.7706" x="575.0213" y="1259.3287">10.22.15.64</text><path d="M533.0213,1234.7535 L540.0213,1234.7535 C550.5213,1234.7535 550.5213,1255.2709 561.0213,1255.2709 L568.0213,1255.2709 " fill="none" style="stroke:#181818;stroke-width:0.6999999999999998;"/><path d="M437.701,1275.7883 L444.701,1275.7883 C455.201,1275.7883 455.201,1234.7535 465.701,1234.7535 L472.701,1234.7535 " fill="none" style="stroke:#181818;stroke-width:0.6999999999999998;"/><rect fill="#F1F1F1" height="27.0348" rx="8.75" ry="8.75" style="stroke:#181818;stroke-width:1.0499999999999998;" width="71.2209" x="472.701" y="1303.3057"/><text fill="#000000" font-family="sans-serif" font-size="9.8" lengthAdjust="spacing" textLength="57.2209" x="479.701" y="1320.8809">10.22.15.128</text><rect fill="#F1F1F1" height="27.0348" rx="8.75" ry="8.75" style="stroke:#181818;stroke-width:1.0499999999999998;" width="71.2209" x="578.9219" y="1282.7883"/><text fill="#000000" font-family="sans-serif" font-size="9.8" lengthAdjust="spacing" textLength="57.2209" x="585.9219" y="1300.3635">10.22.15.128</text><path d="M543.9219,1316.823 L550.9219,1316.823 C561.4219,1316.823 561.4219,1296.3057 571.9219,1296.3057 L578.9219,1296.3057 " fill="none" style="stroke:#181818;stroke-width:0.6999999999999998;"/><rect fill="#F1F1F1" height="27.0348" rx="8.75" ry="8.75" style="stroke:#181818;stroke-width:1.0499999999999998;" width="71.2209" x="578.9219" y="1323.823"/><text fill="#000000" font-family="sans-serif" font-size="9.8" lengthAdjust="spacing" textLength="57.2209" x="585.9219" y="1341.3982">10.22.15.192</text><path d="M543.9219,1316.823 L550.9219,1316.823 C561.4219,1316.823 561.4219,1337.3404 571.9219,1337.3404 L578.9219,1337.3404 " fill="none" style="stroke:#181818;stroke-width:0.6999999999999998;"/><path d="M437.701,1275.7883 L444.701,1275.7883 C455.201,1275.7883 455.201,1316.823 465.701,1316.823 L472.701,1316.823 " fill="none" style="stroke:#181818;stroke-width:0.6999999999999998;"/><path d="M342.3807,1193.7187 L349.3807,1193.7187 C359.8807,1193.7187 359.8807,1275.7883 370.3807,1275.7883 L377.3807,1275.7883 " fill="none" style="stroke:#181818;stroke-width:0.6999999999999998;"/><path d="M247.0604,1029.5797 L254.0604,1029.5797 C264.5604,1029.5797 264.5604,1193.7187 275.0604,1193.7187 L282.0604,1193.7187 " fill="none" style="stroke:#181818;stroke-width:0.6999999999999998;"/><path d="M151.74,865.4406 L158.74,865.4406 C169.24,865.4406 169.24,1029.5797 179.74,1029.5797 L186.74,1029.5797 " fill="none" style="stroke:#181818;stroke-width:0.6999999999999998;"/><path d="M61.87,701.3016 L68.87,701.3016 C79.37,701.3016 79.37,865.4406 89.87,865.4406 L96.87,865.4406 " fill="none" style="stroke:#181818;stroke-width:0.6999999999999998;"/><rect fill="#F1F1F1" height="27.0348" rx="8.75" ry="8.75" style="stroke:#181818;stroke-width:1.0499999999999998;" width="27.6233" x="7" y="1364.8578"/><text fill="#000000" font-family="sans-serif" font-size="9.8" lengthAdjust="spacing" textLength="13.6233" x="14" y="1382.433">/20</text><rect fill="#F1F1F1" height="27.0348" rx="8.75" ry="8.75" style="stroke:#181818;stroke-width:1.0499999999999998;" width="27.6233" x="69.6233" y="1364.8578"/><text fill="#000000" font-family="sans-serif" font-size="9.8" lengthAdjust="spacing" textLength="13.6233" x="76.6233" y="1382.433">/21</text><rect fill="#F1F1F1" height="27.0348" rx="8.75" ry="8.75" style="stroke:#181818;stroke-width:1.0499999999999998;" width="27.6233" x="132.2467" y="1364.8578"/><text fill="#000000" font-family="sans-serif" font-size="9.8" lengthAdjust="spacing" textLength="13.6233" x="139.2467" y="1382.433">/22</text><rect fill="#F1F1F1" height="27.0348" rx="8.75" ry="8.75" style="stroke:#181818;stroke-width:1.0499999999999998;" width="27.6233" x="194.87" y="1364.8578"/><text fill="#000000" font-family="sans-serif" font-size="9.8" lengthAdjust="spacing" textLength="13.6233" x="201.87" y="1382.433">/23</text><rect fill="#F1F1F1" height="27.0348" rx="8.75" ry="8.75" style="stroke:#181818;stroke-width:1.0499999999999998;" width="27.6233" x="257.4934" y="1364.8578"/><text fill="#000000" font-family="sans-serif" font-size="9.8" lengthAdjust="spacing" textLength="13.6233" x="264.4934" y="1382.433">/24</text><rect fill="#F1F1F1" height="27.0348" rx="8.75" ry="8.75" style="stroke:#181818;stroke-width:1.0499999999999998;" width="27.6233" x="320.1167" y="1364.8578"/><text fill="#000000" font-family="sans-serif" font-size="9.8" lengthAdjust="spacing" textLength="13.6233" x="327.1167" y="1382.433">/25</text><rect fill="#F1F1F1" height="27.0348" rx="8.75" ry="8.75" style="stroke:#181818;stroke-width:1.0499999999999998;" width="27.6233" x="382.74" y="1364.8578"/><text fill="#000000" font-family="sans-serif" font-size="9.8" lengthAdjust="spacing" textLength="13.6233" x="389.74" y="1382.433">/26</text><path d="M347.74,1378.3752 L354.74,1378.3752 C365.24,1378.3752 365.24,1378.3752 375.74,1378.3752 L382.74,1378.3752 " fill="none" style="stroke:#181818;stroke-width:0.6999999999999998;"/><path d="M285.1167,1378.3752 L292.1167,1378.3752 C302.6167,1378.3752 302.6167,1378.3752 313.1167,1378.3752 L320.1167,1378.3752 " fill="none" style="stroke:#181818;stroke-width:0.6999999999999998;"/><path d="M222.4934,1378.3752 L229.4934,1378.3752 C239.9934,1378.3752 239.9934,1378.3752 250.4934,1378.3752 L257.4934,1378.3752 " fill="none" style="stroke:#181818;stroke-width:0.6999999999999998;"/><path d="M159.87,1378.3752 L166.87,1378.3752 C177.37,1378.3752 177.37,1378.3752 187.87,1378.3752 L194.87,1378.3752 " fill="none" style="stroke:#181818;stroke-width:0.6999999999999998;"/><path d="M97.2467,1378.3752 L104.2467,1378.3752 C114.7467,1378.3752 114.7467,1378.3752 125.2467,1378.3752 L132.2467,1378.3752 " fill="none" style="stroke:#181818;stroke-width:0.6999999999999998;"/><path d="M34.6233,1378.3752 L41.6233,1378.3752 C52.1233,1378.3752 52.1233,1378.3752 62.6233,1378.3752 L69.6233,1378.3752 " fill="none" style="stroke:#181818;stroke-width:0.6999999999999998;"/><text fill="#000000" font-family="sans-serif" font-size="9.8" lengthAdjust="spacing" textLength="32.6874" x="361.9759" y="1410.1678">figure 1</text><!--SRC=[xLTDR-8m5BpxLxpRjaWaiHCWS6Ax5AbieqKBfTBUN6AejSI970Uf_tu3Ii0VuRedk12F9_FclJYCc9QAIfLnaMQqGDy-bIhAYUyN1ofKbHsyRPxvpMu_vNGlQORGbXQAvm9sV5z91XWfhWuClgUfP6K9AJ_oijv7g0Suy0Zn0Yz0FNDXhUobi-x14zt-_SW5C_QnjXz27zxvdEjwnD8Z6f_e_9OGQeJeJDXnpMvaseqi-SYoiybVbWPXOCdF3takwmbgbA6bERHkSJH7Lj6hPaE8ZOd7PWknLIw-gjc0uTbXOH9VUQJBwDYM7klIuItfiIcDQzui-QFtWErZWmExb8OqzlJHwpIx3yDJIyEEFjRriN6qD8xJIJkabaBCfuFj0uo9KvbebLsewRQTc44QHXehD5XNacwv2poT2lrX6xGnqMZOddfB39sUGhUdqEW9EwT58rxwka8TNTm26yyjOh_ZE7BSHgxRJiZn5NLPk0MsisoXWUDZu1RjX1mVWwwIjy3Qn_dJ0v-SVzTzSdwUzNSpEP-4ZLMVN4hvP70HyyaGeKz6KoPHyWLbLJ09pPg9jBb2q_gwpIOqDQBg7aBt4Bg7q3s4xY5q3w7_64BBqn-Zj-GLZaoUuWMmHm8IUQE75LMmOWK48y1aWkC97i7xyseDf_r7z92yhA7CAxbbTJQLIlAFwfHVZsX1ZnH-LqBnZ4tWLy74OlQp1U1P7BdCHSQ4GejDSYKCe_uJFvMKjHNO96Z6ThGwgFgERPvoiP_0sthUZz4h5VkAxcljGg4VUQqhloQmNFy3]--></g></svg>