<?xml version="1.0" encoding="us-ascii" standalone="no"?><svg xmlns="http://www.w3.org/2000/svg" xmlns:xlink="http://www.w3.org/1999/xlink" contentStyleType="text/css" height="550.8px" preserveAspectRatio="none" style="width:987px;height:550px;background:#FFFFFF;" version="1.1" viewBox="0 0 987 550" width="987.6px" zoomAndPan="magnify"><defs/><g><!--class HRM--><g id="elem_HRM"><rect codeLine="6" fill="#F1F1F1" height="38.1844" id="HRM" rx="1.5" ry="1.5" style="stroke:#181818;stroke-width:0.3;" width="102" x="4.2" y="330.9"/><ellipse cx="43.65" cy="340.5" fill="#ADD1B2" rx="6.6" ry="6.6" style="stroke:#181818;stroke-width:0.6;"/><path d="M45.3094,338.025 Q45.4031,337.8938 45.5156,337.8281 Q45.6281,337.7625 45.7594,337.7625 Q45.9844,337.7625 46.125,337.9219 Q46.2656,338.0719 46.2656,338.4375 L46.2656,339.3094 Q46.2656,339.675 46.125,339.8344 Q45.9844,339.9938 45.7594,339.9938 Q45.5531,339.9938 45.4313,339.8719 Q45.3094,339.7594 45.2438,339.45 Q45.2156,339.2344 45.1031,339.1219 Q44.9063,338.8969 44.5406,338.7656 Q44.175,338.6344 43.8,338.6344 Q43.3406,338.6344 42.9563,338.8313 Q42.5813,339.0281 42.2813,339.4781 Q41.9906,339.9281 41.9906,340.5469 L41.9906,341.2031 Q41.9906,341.9437 42.525,342.4406 Q43.0594,342.9281 44.0156,342.9281 Q44.5781,342.9281 44.9719,342.7781 Q45.2063,342.6844 45.4594,342.4219 Q45.6188,342.2625 45.7031,342.2156 Q45.7969,342.1688 45.9187,342.1688 Q46.1156,342.1688 46.2656,342.3281 Q46.425,342.4781 46.425,342.6844 Q46.425,342.8906 46.2188,343.1344 Q45.9187,343.4813 45.4406,343.6781 Q44.7937,343.95 44.0156,343.95 Q43.1062,343.95 42.3844,343.575 Q41.7937,343.275 41.3813,342.6375 Q40.9688,341.9906 40.9688,341.2219 L40.9688,340.5281 Q40.9688,339.7313 41.3344,339.0469 Q41.7094,338.3531 42.3656,337.9875 Q43.0219,337.6125 43.7625,337.6125 Q44.2031,337.6125 44.5875,337.7156 Q44.9812,337.8094 45.3094,338.025 Z " fill="#000000"/><text fill="#000000" font-family="sans-serif" font-size="8.4" lengthAdjust="spacing" textLength="18" x="55.95" y="343.4121">HRM</text><line style="stroke:#181818;stroke-width:0.3;" x1="4.8" x2="105.6" y1="350.1" y2="350.1"/><line style="stroke:#181818;stroke-width:0.3;" x1="4.8" x2="105.6" y1="354.9" y2="354.9"/><text fill="#000000" font-family="sans-serif" font-size="8.4" lengthAdjust="spacing" textLength="94.8" x="7.8" y="364.9043">+requestTeamProposal()</text></g><!--class GenerateTeamProposalUI--><g id="elem_GenerateTeamProposalUI"><rect codeLine="10" fill="#F1F1F1" height="132.0281" id="GenerateTeamProposalUI" rx="1.5" ry="1.5" style="stroke:#181818;stroke-width:0.3;" width="187.2" x="208.2" y="4.2"/><ellipse cx="250.05" cy="13.8" fill="#ADD1B2" rx="6.6" ry="6.6" style="stroke:#181818;stroke-width:0.6;"/><path d="M251.7094,11.325 Q251.8031,11.1938 251.9156,11.1281 Q252.0281,11.0625 252.1594,11.0625 Q252.3844,11.0625 252.525,11.2219 Q252.6656,11.3719 252.6656,11.7375 L252.6656,12.6094 Q252.6656,12.975 252.525,13.1344 Q252.3844,13.2938 252.1594,13.2938 Q251.9531,13.2938 251.8312,13.1719 Q251.7094,13.0594 251.6437,12.75 Q251.6156,12.5344 251.5031,12.4219 Q251.3062,12.1969 250.9406,12.0656 Q250.575,11.9344 250.2,11.9344 Q249.7406,11.9344 249.3563,12.1313 Q248.9813,12.3281 248.6812,12.7781 Q248.3906,13.2281 248.3906,13.8469 L248.3906,14.5031 Q248.3906,15.2437 248.925,15.7406 Q249.4594,16.2281 250.4156,16.2281 Q250.9781,16.2281 251.3719,16.0781 Q251.6063,15.9844 251.8594,15.7219 Q252.0187,15.5625 252.1031,15.5156 Q252.1969,15.4688 252.3188,15.4688 Q252.5156,15.4688 252.6656,15.6281 Q252.825,15.7781 252.825,15.9844 Q252.825,16.1906 252.6187,16.4344 Q252.3188,16.7813 251.8406,16.9781 Q251.1938,17.25 250.4156,17.25 Q249.5063,17.25 248.7844,16.875 Q248.1938,16.575 247.7813,15.9375 Q247.3687,15.2906 247.3687,14.5219 L247.3687,13.8281 Q247.3687,13.0313 247.7344,12.3469 Q248.1094,11.6531 248.7656,11.2875 Q249.4219,10.9125 250.1625,10.9125 Q250.6031,10.9125 250.9875,11.0156 Q251.3813,11.1094 251.7094,11.325 Z " fill="#000000"/><text fill="#000000" font-family="sans-serif" font-size="8.4" lengthAdjust="spacing" textLength="98.4" x="262.35" y="16.7121">GenerateTeamProposalUI</text><line style="stroke:#181818;stroke-width:0.3;" x1="208.8" x2="394.8" y1="23.4" y2="23.4"/><text fill="#000000" font-family="sans-serif" font-size="8.4" lengthAdjust="spacing" textLength="171.6" x="211.8" y="33.4043">-controller: GenerateTeamProposalController</text><text fill="#000000" font-family="sans-serif" font-size="8.4" lengthAdjust="spacing" textLength="126.6" x="211.8" y="42.7887">-skillsRepository: SkillsRepository</text><text fill="#000000" font-family="sans-serif" font-size="8.4" lengthAdjust="spacing" textLength="30" x="211.8" y="52.173">-min: int</text><text fill="#000000" font-family="sans-serif" font-size="8.4" lengthAdjust="spacing" textLength="31.8" x="211.8" y="61.5574">-max: int</text><text fill="#000000" font-family="sans-serif" font-size="8.4" lengthAdjust="spacing" textLength="84" x="211.8" y="70.9418">-skills: ArrayList&lt;Skill&gt;</text><line style="stroke:#181818;stroke-width:0.3;" x1="208.8" x2="394.8" y1="75.1219" y2="75.1219"/><text fill="#000000" font-family="sans-serif" font-size="8.4" lengthAdjust="spacing" textLength="109.2" x="211.8" y="85.1262">+GenerateTeamProposalUI()</text><text fill="#000000" font-family="sans-serif" font-size="8.4" lengthAdjust="spacing" textLength="43.8" x="211.8" y="94.5105">+run(): void</text><text fill="#000000" font-family="sans-serif" font-size="8.4" lengthAdjust="spacing" textLength="78" x="211.8" y="103.8949">+requestData(): void</text><text fill="#000000" font-family="sans-serif" font-size="8.4" lengthAdjust="spacing" textLength="73.8" x="211.8" y="113.2793">+submitData(): void</text><text fill="#000000" font-family="sans-serif" font-size="8.4" lengthAdjust="spacing" textLength="148.8" x="211.8" y="122.6637">+displayAvailableSkills(List&lt;Skill&gt;): void</text><text fill="#000000" font-family="sans-serif" font-size="8.4" lengthAdjust="spacing" textLength="180" x="211.8" y="132.048">+requestSkills(ArrayList&lt;Skill&gt;): ArrayList&lt;Skill&gt;</text></g><!--class GenerateTeamProposalController--><g id="elem_GenerateTeamProposalController"><rect codeLine="24" fill="#F1F1F1" height="85.1063" id="GenerateTeamProposalController" rx="1.5" ry="1.5" style="stroke:#181818;stroke-width:0.3;" width="209.4" x="197.1" y="172.2"/><ellipse cx="235.05" cy="181.8" fill="#ADD1B2" rx="6.6" ry="6.6" style="stroke:#181818;stroke-width:0.6;"/><path d="M236.7094,179.325 Q236.8031,179.1938 236.9156,179.1281 Q237.0281,179.0625 237.1594,179.0625 Q237.3844,179.0625 237.525,179.2219 Q237.6656,179.3719 237.6656,179.7375 L237.6656,180.6094 Q237.6656,180.975 237.525,181.1344 Q237.3844,181.2938 237.1594,181.2938 Q236.9531,181.2938 236.8312,181.1719 Q236.7094,181.0594 236.6437,180.75 Q236.6156,180.5344 236.5031,180.4219 Q236.3062,180.1969 235.9406,180.0656 Q235.575,179.9344 235.2,179.9344 Q234.7406,179.9344 234.3563,180.1313 Q233.9813,180.3281 233.6812,180.7781 Q233.3906,181.2281 233.3906,181.8469 L233.3906,182.5031 Q233.3906,183.2438 233.925,183.7406 Q234.4594,184.2281 235.4156,184.2281 Q235.9781,184.2281 236.3719,184.0781 Q236.6063,183.9844 236.8594,183.7219 Q237.0187,183.5625 237.1031,183.5156 Q237.1969,183.4688 237.3188,183.4688 Q237.5156,183.4688 237.6656,183.6281 Q237.825,183.7781 237.825,183.9844 Q237.825,184.1906 237.6187,184.4344 Q237.3188,184.7813 236.8406,184.9781 Q236.1938,185.25 235.4156,185.25 Q234.5063,185.25 233.7844,184.875 Q233.1938,184.575 232.7813,183.9375 Q232.3687,183.2906 232.3687,182.5219 L232.3687,181.8281 Q232.3687,181.0313 232.7344,180.3469 Q233.1094,179.6531 233.7656,179.2875 Q234.4219,178.9125 235.1625,178.9125 Q235.6031,178.9125 235.9875,179.0156 Q236.3813,179.1094 236.7094,179.325 Z " fill="#000000"/><text fill="#000000" font-family="sans-serif" font-size="8.4" lengthAdjust="spacing" textLength="128.4" x="247.35" y="184.7121">GenerateTeamProposalController</text><line style="stroke:#181818;stroke-width:0.3;" x1="197.7" x2="405.9" y1="191.4" y2="191.4"/><text fill="#000000" font-family="sans-serif" font-size="8.4" lengthAdjust="spacing" textLength="122.4" x="200.7" y="201.4043">-skillRepository: SkillsRepository</text><text fill="#000000" font-family="sans-serif" font-size="8.4" lengthAdjust="spacing" textLength="133.8" x="200.7" y="210.7887">-teamRepository: TeamsRepository</text><text fill="#000000" font-family="sans-serif" font-size="8.4" lengthAdjust="spacing" textLength="197.4" x="200.7" y="220.173">-teamProposalService: CreateTeamProposalService</text><line style="stroke:#181818;stroke-width:0.3;" x1="197.7" x2="405.9" y1="224.3531" y2="224.3531"/><text fill="#000000" font-family="sans-serif" font-size="8.4" lengthAdjust="spacing" textLength="139.2" x="200.7" y="234.3574">+GenerateTeamProposalController()</text><text fill="#000000" font-family="sans-serif" font-size="8.4" lengthAdjust="spacing" textLength="118.2" x="200.7" y="243.7418">+getSkillsList(): ArrayList&lt;Skill&gt;</text><text fill="#000000" font-family="sans-serif" font-size="8.4" lengthAdjust="spacing" textLength="202.2" x="200.7" y="253.1262">+createTeamProposal(int, int, ArrayList&lt;Skill&gt;): Team</text></g><!--class Repositories--><g id="elem_Repositories"><rect codeLine="33" fill="#F1F1F1" height="103.875" id="Repositories" rx="1.5" ry="1.5" style="stroke:#181818;stroke-width:0.3;" width="218.4" x="259.2" y="442.8"/><ellipse cx="342.15" cy="452.4" fill="#ADD1B2" rx="6.6" ry="6.6" style="stroke:#181818;stroke-width:0.6;"/><path d="M343.8094,449.925 Q343.9031,449.7938 344.0156,449.7281 Q344.1281,449.6625 344.2594,449.6625 Q344.4844,449.6625 344.625,449.8219 Q344.7656,449.9719 344.7656,450.3375 L344.7656,451.2094 Q344.7656,451.575 344.625,451.7344 Q344.4844,451.8938 344.2594,451.8938 Q344.0531,451.8938 343.9313,451.7719 Q343.8094,451.6594 343.7438,451.35 Q343.7156,451.1344 343.6031,451.0219 Q343.4063,450.7969 343.0406,450.6656 Q342.675,450.5344 342.3,450.5344 Q341.8406,450.5344 341.4563,450.7313 Q341.0813,450.9281 340.7813,451.3781 Q340.4906,451.8281 340.4906,452.4469 L340.4906,453.1031 Q340.4906,453.8438 341.025,454.3406 Q341.5594,454.8281 342.5156,454.8281 Q343.0781,454.8281 343.4719,454.6781 Q343.7063,454.5844 343.9594,454.3219 Q344.1188,454.1625 344.2031,454.1156 Q344.2969,454.0687 344.4188,454.0687 Q344.6156,454.0687 344.7656,454.2281 Q344.925,454.3781 344.925,454.5844 Q344.925,454.7906 344.7188,455.0344 Q344.4188,455.3812 343.9406,455.5781 Q343.2938,455.85 342.5156,455.85 Q341.6063,455.85 340.8844,455.475 Q340.2938,455.175 339.8812,454.5375 Q339.4688,453.8906 339.4688,453.1219 L339.4688,452.4281 Q339.4688,451.6312 339.8344,450.9469 Q340.2094,450.2531 340.8656,449.8875 Q341.5219,449.5125 342.2625,449.5125 Q342.7031,449.5125 343.0875,449.6156 Q343.4813,449.7094 343.8094,449.925 Z " fill="#000000"/><text fill="#000000" font-family="sans-serif" font-size="8.4" lengthAdjust="spacing" textLength="47.4" x="354.45" y="455.3121">Repositories</text><line style="stroke:#181818;stroke-width:0.3;" x1="259.8" x2="477" y1="462" y2="462"/><text fill="#000000" font-family="sans-serif" font-size="8.4" lengthAdjust="spacing" textLength="87" x="262.8" y="472.0043">-instance: Repositories</text><text fill="#000000" font-family="sans-serif" font-size="8.4" lengthAdjust="spacing" textLength="126.6" x="262.8" y="481.3887">-skillsRepository: SkillsRepository</text><text fill="#000000" font-family="sans-serif" font-size="8.4" lengthAdjust="spacing" textLength="138" x="262.8" y="490.773">-teamsRepository: TeamsRepository</text><text fill="#000000" font-family="sans-serif" font-size="8.4" lengthAdjust="spacing" textLength="189.6" x="262.8" y="500.1574">-collaboratorsRepository: CollaboratorsRepository</text><line style="stroke:#181818;stroke-width:0.3;" x1="259.8" x2="477" y1="504.3375" y2="504.3375"/><text fill="#000000" font-family="sans-serif" font-size="8.4" lengthAdjust="spacing" textLength="106.8" x="262.8" y="514.3418">+getInstance(): Repositories</text><text fill="#000000" font-family="sans-serif" font-size="8.4" lengthAdjust="spacing" textLength="147.6" x="262.8" y="523.7262">+getSkillsRepository(): SkillsRepository</text><text fill="#000000" font-family="sans-serif" font-size="8.4" lengthAdjust="spacing" textLength="160.8" x="262.8" y="533.1105">+getTeamsRepository(): TeamsRepository</text><text fill="#000000" font-family="sans-serif" font-size="8.4" lengthAdjust="spacing" textLength="211.2" x="262.8" y="542.4949">+getCollaboratorsRepository(): CollaboratorsRepository</text></g><!--class CollaboratorRepository--><g id="elem_CollaboratorRepository"><rect codeLine="44" fill="#F1F1F1" height="113.2594" id="CollaboratorRepository" rx="1.5" ry="1.5" style="stroke:#181818;stroke-width:0.3;" width="483" x="333.9" y="293.4"/><ellipse cx="529.05" cy="303" fill="#ADD1B2" rx="6.6" ry="6.6" style="stroke:#181818;stroke-width:0.6;"/><path d="M530.7094,300.525 Q530.8031,300.3938 530.9156,300.3281 Q531.0281,300.2625 531.1594,300.2625 Q531.3844,300.2625 531.525,300.4219 Q531.6656,300.5719 531.6656,300.9375 L531.6656,301.8094 Q531.6656,302.175 531.525,302.3344 Q531.3844,302.4938 531.1594,302.4938 Q530.9531,302.4938 530.8313,302.3719 Q530.7094,302.2594 530.6438,301.95 Q530.6156,301.7344 530.5031,301.6219 Q530.3063,301.3969 529.9406,301.2656 Q529.575,301.1344 529.2,301.1344 Q528.7406,301.1344 528.3562,301.3313 Q527.9812,301.5281 527.6813,301.9781 Q527.3906,302.4281 527.3906,303.0469 L527.3906,303.7031 Q527.3906,304.4437 527.925,304.9406 Q528.4594,305.4281 529.4156,305.4281 Q529.9781,305.4281 530.3719,305.2781 Q530.6062,305.1844 530.8594,304.9219 Q531.0188,304.7625 531.1031,304.7156 Q531.1969,304.6688 531.3188,304.6688 Q531.5156,304.6688 531.6656,304.8281 Q531.825,304.9781 531.825,305.1844 Q531.825,305.3906 531.6188,305.6344 Q531.3188,305.9813 530.8406,306.1781 Q530.1938,306.45 529.4156,306.45 Q528.5063,306.45 527.7844,306.075 Q527.1938,305.775 526.7813,305.1375 Q526.3688,304.4906 526.3688,303.7219 L526.3688,303.0281 Q526.3688,302.2313 526.7344,301.5469 Q527.1094,300.8531 527.7656,300.4875 Q528.4219,300.1125 529.1625,300.1125 Q529.6031,300.1125 529.9875,300.2156 Q530.3813,300.3094 530.7094,300.525 Z " fill="#000000"/><text fill="#000000" font-family="sans-serif" font-size="8.4" lengthAdjust="spacing" textLength="87.6" x="541.35" y="305.9121">CollaboratorRepository</text><line style="stroke:#181818;stroke-width:0.3;" x1="334.5" x2="816.3" y1="312.6" y2="312.6"/><text fill="#000000" font-family="sans-serif" font-size="8.4" lengthAdjust="spacing" textLength="180.6" x="337.5" y="322.6043">-collaboratorsArrayList: ArrayList&lt;Collaborator&gt;</text><line style="stroke:#181818;stroke-width:0.3;" x1="334.5" x2="816.3" y1="326.7844" y2="326.7844"/><text fill="#000000" font-family="sans-serif" font-size="8.4" lengthAdjust="spacing" textLength="202.2" x="337.5" y="336.7887">+getCollaboratorsArrayList(): ArrayList&lt;Collaborator&gt;</text><text fill="#000000" font-family="sans-serif" font-size="8.4" lengthAdjust="spacing" textLength="475.8" x="337.5" y="346.173">+addCollaborator(String, int, int, String, int, String, String, String, DocumentTypeRepository, Job, CollaboratorStatus): boolean</text><text fill="#000000" font-family="sans-serif" font-size="8.4" lengthAdjust="spacing" textLength="104.4" x="337.5" y="355.5574">+isValidPhone(int): boolean</text><text fill="#000000" font-family="sans-serif" font-size="8.4" lengthAdjust="spacing" textLength="138" x="337.5" y="364.9418">+isValidDateFormat(String): boolean</text><text fill="#000000" font-family="sans-serif" font-size="8.4" lengthAdjust="spacing" textLength="103.2" x="337.5" y="374.3262">-isNumeric(String): boolean</text><text fill="#000000" font-family="sans-serif" font-size="8.4" lengthAdjust="spacing" textLength="112.8" x="337.5" y="383.7105">-isValidName(String): boolean</text><text fill="#000000" font-family="sans-serif" font-size="8.4" lengthAdjust="spacing" textLength="296.4" x="337.5" y="393.0949">+getDeactivatedCollaboratorsBySkill(ArrayList&lt;Skill&gt;): ArrayList&lt;Collaborator&gt;</text><text fill="#000000" font-family="sans-serif" font-size="8.4" lengthAdjust="spacing" textLength="185.4" x="337.5" y="402.4793">+addSkill(Collaborator, ArrayList&lt;Skill&gt;): boolean</text></g><!--class SkillRepository--><g id="elem_SkillRepository"><rect codeLine="56" fill="#F1F1F1" height="75.7219" id="SkillRepository" rx="1.5" ry="1.5" style="stroke:#181818;stroke-width:0.3;" width="145.8" x="837.9" y="312.3"/><ellipse cx="880.35" cy="321.9" fill="#ADD1B2" rx="6.6" ry="6.6" style="stroke:#181818;stroke-width:0.6;"/><path d="M882.0094,319.425 Q882.1031,319.2938 882.2156,319.2281 Q882.3281,319.1625 882.4594,319.1625 Q882.6844,319.1625 882.825,319.3219 Q882.9656,319.4719 882.9656,319.8375 L882.9656,320.7094 Q882.9656,321.075 882.825,321.2344 Q882.6844,321.3938 882.4594,321.3938 Q882.2531,321.3938 882.1313,321.2719 Q882.0094,321.1594 881.9438,320.85 Q881.9156,320.6344 881.8031,320.5219 Q881.6062,320.2969 881.2406,320.1656 Q880.875,320.0344 880.5,320.0344 Q880.0406,320.0344 879.6563,320.2313 Q879.2813,320.4281 878.9812,320.8781 Q878.6906,321.3281 878.6906,321.9469 L878.6906,322.6031 Q878.6906,323.3438 879.225,323.8406 Q879.7594,324.3281 880.7156,324.3281 Q881.2781,324.3281 881.6719,324.1781 Q881.9063,324.0844 882.1594,323.8219 Q882.3188,323.6625 882.4031,323.6156 Q882.4969,323.5687 882.6188,323.5687 Q882.8156,323.5687 882.9656,323.7281 Q883.125,323.8781 883.125,324.0844 Q883.125,324.2906 882.9187,324.5344 Q882.6188,324.8812 882.1406,325.0781 Q881.4938,325.35 880.7156,325.35 Q879.8063,325.35 879.0844,324.975 Q878.4938,324.675 878.0813,324.0375 Q877.6687,323.3906 877.6687,322.6219 L877.6687,321.9281 Q877.6687,321.1312 878.0344,320.4469 Q878.4094,319.7531 879.0656,319.3875 Q879.7219,319.0125 880.4625,319.0125 Q880.9031,319.0125 881.2875,319.1156 Q881.6813,319.2094 882.0094,319.425 Z " fill="#000000"/><text fill="#000000" font-family="sans-serif" font-size="8.4" lengthAdjust="spacing" textLength="55.8" x="892.65" y="324.8121">SkillRepository</text><line style="stroke:#181818;stroke-width:0.3;" x1="838.5" x2="983.1" y1="331.5" y2="331.5"/><text fill="#000000" font-family="sans-serif" font-size="8.4" lengthAdjust="spacing" textLength="117.6" x="841.5" y="341.5043">-skillsArrayList: ArrayList&lt;Skill&gt;</text><line style="stroke:#181818;stroke-width:0.3;" x1="838.5" x2="983.1" y1="345.6844" y2="345.6844"/><text fill="#000000" font-family="sans-serif" font-size="8.4" lengthAdjust="spacing" textLength="138.6" x="841.5" y="355.6887">+getSkillsArrayList(): ArrayList&lt;Skill&gt;</text><text fill="#000000" font-family="sans-serif" font-size="8.4" lengthAdjust="spacing" textLength="119.4" x="841.5" y="365.073">-skillAlreadyExist(Skill): boolean</text><text fill="#000000" font-family="sans-serif" font-size="8.4" lengthAdjust="spacing" textLength="126.6" x="841.5" y="374.4574">-skillNameIsValid(String): boolean</text><text fill="#000000" font-family="sans-serif" font-size="8.4" lengthAdjust="spacing" textLength="82.8" x="841.5" y="383.8418">+addSkill(String): void</text></g><!--class TeamRepository--><g id="elem_TeamRepository"><rect codeLine="64" fill="#F1F1F1" height="56.9531" id="TeamRepository" rx="1.5" ry="1.5" style="stroke:#181818;stroke-width:0.3;" width="142.2" x="127.5" y="321.6"/><ellipse cx="164.85" cy="331.2" fill="#ADD1B2" rx="6.6" ry="6.6" style="stroke:#181818;stroke-width:0.6;"/><path d="M166.5094,328.725 Q166.6031,328.5938 166.7156,328.5281 Q166.8281,328.4625 166.9594,328.4625 Q167.1844,328.4625 167.325,328.6219 Q167.4656,328.7719 167.4656,329.1375 L167.4656,330.0094 Q167.4656,330.375 167.325,330.5344 Q167.1844,330.6937 166.9594,330.6937 Q166.7531,330.6937 166.6313,330.5719 Q166.5094,330.4594 166.4438,330.15 Q166.4156,329.9344 166.3031,329.8219 Q166.1063,329.5969 165.7406,329.4656 Q165.375,329.3344 165,329.3344 Q164.5406,329.3344 164.1563,329.5313 Q163.7813,329.7281 163.4813,330.1781 Q163.1906,330.6281 163.1906,331.2469 L163.1906,331.9031 Q163.1906,332.6438 163.725,333.1406 Q164.2594,333.6281 165.2156,333.6281 Q165.7781,333.6281 166.1719,333.4781 Q166.4063,333.3844 166.6594,333.1219 Q166.8188,332.9625 166.9031,332.9156 Q166.9969,332.8688 167.1188,332.8688 Q167.3156,332.8688 167.4656,333.0281 Q167.625,333.1781 167.625,333.3844 Q167.625,333.5906 167.4188,333.8344 Q167.1188,334.1813 166.6406,334.3781 Q165.9938,334.65 165.2156,334.65 Q164.3063,334.65 163.5844,334.275 Q162.9938,333.975 162.5812,333.3375 Q162.1688,332.6906 162.1688,331.9219 L162.1688,331.2281 Q162.1688,330.4313 162.5344,329.7469 Q162.9094,329.0531 163.5656,328.6875 Q164.2219,328.3125 164.9625,328.3125 Q165.4031,328.3125 165.7875,328.4156 Q166.1813,328.5094 166.5094,328.725 Z " fill="#000000"/><text fill="#000000" font-family="sans-serif" font-size="8.4" lengthAdjust="spacing" textLength="62.4" x="177.15" y="334.1121">TeamRepository</text><line style="stroke:#181818;stroke-width:0.3;" x1="128.1" x2="269.1" y1="340.8" y2="340.8"/><text fill="#000000" font-family="sans-serif" font-size="8.4" lengthAdjust="spacing" textLength="95.4" x="131.1" y="350.8043">-teams: ArrayList&lt;Team&gt;</text><line style="stroke:#181818;stroke-width:0.3;" x1="128.1" x2="269.1" y1="354.9844" y2="354.9844"/><text fill="#000000" font-family="sans-serif" font-size="8.4" lengthAdjust="spacing" textLength="118.2" x="131.1" y="364.9887">+registerTeam(Team): boolean</text><text fill="#000000" font-family="sans-serif" font-size="8.4" lengthAdjust="spacing" textLength="135" x="131.1" y="374.373">-teamAlreadyExists(Team): boolean</text></g><!--class Team--><g id="elem_Team"><rect codeLine="70" fill="#F1F1F1" height="103.875" id="Team" rx="1.5" ry="1.5" style="stroke:#181818;stroke-width:0.3;" width="192.6" x="35.7" y="442.8"/><ellipse cx="118.65" cy="452.4" fill="#ADD1B2" rx="6.6" ry="6.6" style="stroke:#181818;stroke-width:0.6;"/><path d="M120.3094,449.925 Q120.4031,449.7938 120.5156,449.7281 Q120.6281,449.6625 120.7594,449.6625 Q120.9844,449.6625 121.125,449.8219 Q121.2656,449.9719 121.2656,450.3375 L121.2656,451.2094 Q121.2656,451.575 121.125,451.7344 Q120.9844,451.8938 120.7594,451.8938 Q120.5531,451.8938 120.4312,451.7719 Q120.3094,451.6594 120.2437,451.35 Q120.2156,451.1344 120.1031,451.0219 Q119.9063,450.7969 119.5406,450.6656 Q119.175,450.5344 118.8,450.5344 Q118.3406,450.5344 117.9563,450.7313 Q117.5813,450.9281 117.2813,451.3781 Q116.9906,451.8281 116.9906,452.4469 L116.9906,453.1031 Q116.9906,453.8438 117.525,454.3406 Q118.0594,454.8281 119.0156,454.8281 Q119.5781,454.8281 119.9719,454.6781 Q120.2063,454.5844 120.4594,454.3219 Q120.6187,454.1625 120.7031,454.1156 Q120.7969,454.0687 120.9187,454.0687 Q121.1156,454.0687 121.2656,454.2281 Q121.425,454.3781 121.425,454.5844 Q121.425,454.7906 121.2188,455.0344 Q120.9187,455.3812 120.4406,455.5781 Q119.7937,455.85 119.0156,455.85 Q118.1062,455.85 117.3844,455.475 Q116.7937,455.175 116.3813,454.5375 Q115.9688,453.8906 115.9688,453.1219 L115.9688,452.4281 Q115.9688,451.6312 116.3344,450.9469 Q116.7094,450.2531 117.3656,449.8875 Q118.0219,449.5125 118.7625,449.5125 Q119.2031,449.5125 119.5875,449.6156 Q119.9812,449.7094 120.3094,449.925 Z " fill="#000000"/><text fill="#000000" font-family="sans-serif" font-size="8.4" lengthAdjust="spacing" textLength="21.6" x="130.95" y="455.3121">Team</text><line style="stroke:#181818;stroke-width:0.3;" x1="36.3" x2="227.7" y1="462" y2="462"/><text fill="#000000" font-family="sans-serif" font-size="8.4" lengthAdjust="spacing" textLength="84" x="39.3" y="472.0043">-skills: ArrayList&lt;Skill&gt;</text><text fill="#000000" font-family="sans-serif" font-size="8.4" lengthAdjust="spacing" textLength="147" x="39.3" y="481.3887">-collaborators: ArrayList&lt;Collaborator&gt;</text><line style="stroke:#181818;stroke-width:0.3;" x1="36.3" x2="227.7" y1="485.5687" y2="485.5687"/><text fill="#000000" font-family="sans-serif" font-size="8.4" lengthAdjust="spacing" textLength="185.4" x="39.3" y="495.573">+Team(ArrayList&lt;Collaborator&gt;, ArrayList&lt;Skill&gt;)</text><text fill="#000000" font-family="sans-serif" font-size="8.4" lengthAdjust="spacing" textLength="105" x="39.3" y="504.9574">+getSkills(): ArrayList&lt;Skill&gt;</text><text fill="#000000" font-family="sans-serif" font-size="8.4" lengthAdjust="spacing" textLength="120" x="39.3" y="514.3418">+setSkills(ArrayList&lt;Skill&gt;): void</text><text fill="#000000" font-family="sans-serif" font-size="8.4" lengthAdjust="spacing" textLength="168.6" x="39.3" y="523.7262">+getCollaborators(): ArrayList&lt;Collaborator&gt;</text><text fill="#000000" font-family="sans-serif" font-size="8.4" lengthAdjust="spacing" textLength="183.6" x="39.3" y="533.1105">+setCollaborators(ArrayList&lt;Collaborator&gt;): void</text><text fill="#000000" font-family="sans-serif" font-size="8.4" lengthAdjust="spacing" textLength="67.2" x="39.3" y="542.4949">+toString(): String</text></g><!--link GenerateTeamProposalController to HRM--><g id="link_GenerateTeamProposalController_HRM"><path codeLine="81" d="M202.098,257.484 C158.454,275.904 117,293.4 117,293.4 C117,293.4 95.712,312.726 78.12,328.692 " fill="none" id="GenerateTeamProposalController-to-HRM" style="stroke:#181818;stroke-width:0.6;stroke-dasharray:7.0,7.0;"/><polygon fill="#181818" points="75.78,330.822,81.3879,328.959,77.9975,328.8014,78.155,325.411,75.78,330.822" style="stroke:#181818;stroke-width:0.6;"/></g><!--link GenerateTeamProposalUI to GenerateTeamProposalController--><g id="link_GenerateTeamProposalUI_GenerateTeamProposalController"><path codeLine="82" d="M301.8,136.206 C301.8,147.252 301.8,158.496 301.8,168.888 " fill="none" id="GenerateTeamProposalUI-to-GenerateTeamProposalController" style="stroke:#181818;stroke-width:0.6;stroke-dasharray:7.0,7.0;"/><polygon fill="#181818" points="301.8,172.08,304.2,166.68,301.8,169.08,299.4,166.68,301.8,172.08" style="stroke:#181818;stroke-width:0.6;"/></g><!--link GenerateTeamProposalController to Repositories--><g id="link_GenerateTeamProposalController_Repositories"><path codeLine="83" d="M306.54,257.406 C312.9,313.746 323.4,406.8 323.4,406.8 C323.4,406.8 331.23,421.992 340.356,439.698 " fill="none" id="GenerateTeamProposalController-to-Repositories" style="stroke:#181818;stroke-width:0.6;stroke-dasharray:7.0,7.0;"/><polygon fill="#181818" points="341.832,442.56,341.4808,436.6611,340.4528,439.8958,337.2181,438.8679,341.832,442.56" style="stroke:#181818;stroke-width:0.6;"/></g><!--link GenerateTeamProposalController to CollaboratorRepository--><g id="link_GenerateTeamProposalController_CollaboratorRepository"><path codeLine="84" d="M387.618,257.46 C409.908,268.386 434.298,280.344 457.914,291.918 " fill="none" id="GenerateTeamProposalController-to-CollaboratorRepository" style="stroke:#181818;stroke-width:0.6;stroke-dasharray:7.0,7.0;"/><polygon fill="#181818" points="460.788,293.322,456.9908,288.7941,458.0928,292.0044,454.8826,293.1064,460.788,293.322" style="stroke:#181818;stroke-width:0.6;"/></g><!--link GenerateTeamProposalController to SkillRepository--><g id="link_GenerateTeamProposalController_SkillRepository"><path codeLine="85" d="M406.584,230.952 C559.92,253.704 827.4,293.4 827.4,293.4 C827.4,293.4 838.656,300.972 852.9,310.554 " fill="none" id="GenerateTeamProposalController-to-SkillRepository" style="stroke:#181818;stroke-width:0.6;stroke-dasharray:7.0,7.0;"/><polygon fill="#181818" points="855.402,312.234,852.2521,307.2342,852.9098,310.564,849.58,311.2217,855.402,312.234" style="stroke:#181818;stroke-width:0.6;"/></g><!--link GenerateTeamProposalController to TeamRepository--><g id="link_GenerateTeamProposalController_TeamRepository"><path codeLine="86" d="M269.43,257.46 C254.04,277.458 235.992,300.912 221.964,319.14 " fill="none" id="GenerateTeamProposalController-to-TeamRepository" style="stroke:#181818;stroke-width:0.6;stroke-dasharray:7.0,7.0;"/><polygon fill="#181818" points="220.098,321.564,225.2922,318.7462,221.9267,319.1858,221.4871,315.8203,220.098,321.564" style="stroke:#181818;stroke-width:0.6;"/></g><!--link TeamRepository to Team--><g id="link_TeamRepository_Team"><path codeLine="87" d="M185.598,378.69 C177.522,396.084 166.866,419.028 157.182,439.878 " fill="none" id="TeamRepository-to-Team" style="stroke:#181818;stroke-width:0.6;"/><polygon fill="#181818" points="155.886,442.674,160.3451,438.7963,157.1551,439.9557,155.9958,436.7657,155.886,442.674" style="stroke:#181818;stroke-width:0.6;"/></g><!--link TeamRepository to Repositories--><g id="link_TeamRepository_Repositories"><path codeLine="88" d="M231.744,378.69 C250.698,394.698 275.226,415.416 298.26,434.862 " fill="none" id="TeamRepository-to-Repositories" style="stroke:#181818;stroke-width:0.6;"/><polygon fill="none" points="301.044,431.718,307.506,442.674,295.626,438.138,301.044,431.718" style="stroke:#181818;stroke-width:0.6;"/></g><!--link HRM to Team--><g id="link_HRM_Team"><path codeLine="89" d="M65.238,369.45 C74.832,387.354 89.76,415.224 103.068,440.076 " fill="none" id="HRM-to-Team" style="stroke:#181818;stroke-width:0.6;stroke-dasharray:7.0,7.0;"/><polygon fill="#181818" points="104.514,442.776,104.0796,436.8827,103.0973,440.1316,99.8485,439.1493,104.514,442.776" style="stroke:#181818;stroke-width:0.6;"/></g><!--link SkillRepository to Repositories--><g id="link_SkillRepository_Repositories"><path codeLine="90" d="M855.402,387.966 C840,398.328 827.4,406.8 827.4,406.8 C827.4,406.8 625.668,445.17 489.678,471.036 " fill="none" id="SkillRepository-to-Repositories" style="stroke:#181818;stroke-width:0.6;"/><polygon fill="none" points="490.332,475.182,477.756,473.298,488.76,466.932,490.332,475.182" style="stroke:#181818;stroke-width:0.6;"/></g><!--link CollaboratorRepository to Repositories--><g id="link_CollaboratorRepository_Repositories"><path codeLine="91" d="M494.184,406.962 C480.468,416.466 466.2,426.348 452.412,435.9 " fill="none" id="CollaboratorRepository-to-Repositories" style="stroke:#181818;stroke-width:0.6;"/><polygon fill="none" points="454.728,439.404,442.476,442.788,449.946,432.498,454.728,439.404" style="stroke:#181818;stroke-width:0.6;"/></g><!--SRC=[bLPDSziW4BthLt2K9t6cPqydCsxI3tVQJAPAUyVIrc62m0NiHltuxmKa8K3Wk3ae5ljsUVjsMIIV2DjZWLkqn_KJta6bEWf8GAqmsr4ef0F8HzpmduJjq7TCfM-XX87gze3sd7RcnRFL54kvLagGxK71fkQi8hy0lIeAQq4Vldn6lmka_ou4_3Y0L0-0stl1zrnYMYwAloFoFJ0GM85l_xhfdPT81rQ2KmfYbKJUEBlTR8aqHKhb5z1MehZeLgYALWPWIzWA4QR6L_pil_PXLcWj1Eu-4QbUsp3NVKePqZejrDl5WPMB5JfoqhYbNePRh71iaeTjIvAMXiWznTtwY0d5MmfzBgL7ABtBW8lPBn89dIp49EzGpK6PC_HLEemFCs7Jg76p2iIHrB12Dm8Y7eFfXFeJqw4A5sW7WmuctNAHBMOzswxKZN29x2CXeK5EihcK24Wd4c5I7pIJYs_kY_GVFQf2pN8YrZfllELQ4Yu2-4tQCEcp6NWQTMPCFGKdNuDCihNeY5-vI5Ess0mvuvFZxKJt0PFToHy8uYheDu0Vu3h3oQ73tfcxQb_SDFvwMUd9o7P33zb7i3A-nFzlUNreWQa7FNQdl2xHHxwz39Ak55O7gNbjEQU0sSY3o6-OakR-aJCmNPn5w6a3xxXeiHgunaZTnF9Ean6aFe6miUvm2ncCLVKMSAt8KUyOY2JVTBQJJe-fdDozgszD7jQHZMkTAfnVuLnBDqimBToPoBI71nw2hgaUC4ttzjbWhJbIQS0P6JUzecarlRoTtGv_bzn3C7HTRdQE-2GDRan8m4ulWJ1hfNdCs1btFmaPmuBzzQudxi_eSEOhVM63bHbpejQ5LvjaIVH52oTkHglaV0gSElmsOeZEGAVuYlUriuFK_ZBolN3vNbrTcq-g8lEnPCmlV1sTiK5m0Po1Jm_XSpoZCtYEIzZPHTJeosMFcA__YV8o7wPZl2AU1NDuvgAP0Vy1]--></g></svg>