<svg xmlns="http://www.w3.org/2000/svg" xmlns:xlink="http://www.w3.org/1999/xlink" contentStyleType="text/css" height="722px" preserveAspectRatio="none" style="width:1188px;height:722px;background:#FFFFFF;" version="1.1" viewBox="0 0 1188 722" width="1188px" zoomAndPan="magnify"><defs/><g><rect fill="#F9E79F" height="271.6191" style="stroke:#000000;stroke-width:1.5;" width="1171.7437" x="10" y="350.9492"/><rect fill="#F9E79F" height="158.4551" style="stroke:none;stroke-width:1.0;" width="1171.7437" x="10" y="464.1133"/><line style="stroke:#181818;stroke-width:0.5;stroke-dasharray:5.0,5.0;" x1="70" x2="70" y1="83.6211" y2="639.5684"/><line style="stroke:#181818;stroke-width:0.5;stroke-dasharray:5.0,5.0;" x1="215.8853" x2="215.8853" y1="83.6211" y2="639.5684"/><line style="stroke:#181818;stroke-width:0.5;stroke-dasharray:5.0,5.0;" x1="399.2847" x2="399.2847" y1="83.6211" y2="639.5684"/><line style="stroke:#181818;stroke-width:0.5;stroke-dasharray:5.0,5.0;" x1="622.1802" x2="622.1802" y1="83.6211" y2="639.5684"/><line style="stroke:#181818;stroke-width:0.5;stroke-dasharray:5.0,5.0;" x1="778.3521" x2="778.3521" y1="83.6211" y2="639.5684"/><line style="stroke:#181818;stroke-width:0.5;stroke-dasharray:5.0,5.0;" x1="919.7446" x2="919.7446" y1="83.6211" y2="639.5684"/><line style="stroke:#181818;stroke-width:0.5;stroke-dasharray:5.0,5.0;" x1="1082.3374" x2="1082.3374" y1="83.6211" y2="639.5684"/><text fill="#000000" font-family="sans-serif" font-size="14" lengthAdjust="spacing" textLength="94.9375" x="20" y="80.1074">Show Designer</text><ellipse cx="70.4688" cy="13.5" fill="#E2E2F0" rx="8" ry="8" style="stroke:#181818;stroke-width:0.5;"/><path d="M70.4688,21.5 L70.4688,48.5 M57.4688,29.5 L83.4688,29.5 M70.4688,48.5 L57.4688,63.5 M70.4688,48.5 L83.4688,63.5 " fill="none" style="stroke:#181818;stroke-width:0.5;"/><text fill="#000000" font-family="sans-serif" font-size="14" lengthAdjust="spacing" textLength="94.9375" x="20" y="653.6758">Show Designer</text><ellipse cx="70.4688" cy="665.6895" fill="#E2E2F0" rx="8" ry="8" style="stroke:#181818;stroke-width:0.5;"/><path d="M70.4688,673.6895 L70.4688,700.6895 M57.4688,681.6895 L83.4688,681.6895 M70.4688,700.6895 L57.4688,715.6895 M70.4688,700.6895 L83.4688,715.6895 " fill="none" style="stroke:#181818;stroke-width:0.5;"/><rect fill="#E2E2F0" height="32.6211" rx="2.5" ry="2.5" style="stroke:#181818;stroke-width:0.5;" width="149.3994" x="141.8853" y="50"/><text fill="#000000" font-family="sans-serif" font-size="14" lengthAdjust="spacing" textLength="135.3994" x="148.8853" y="72.1074">AddFigureCategoryUI</text><rect fill="#E2E2F0" height="32.6211" rx="2.5" ry="2.5" style="stroke:#181818;stroke-width:0.5;" width="149.3994" x="141.8853" y="638.5684"/><text fill="#000000" font-family="sans-serif" font-size="14" lengthAdjust="spacing" textLength="135.3994" x="148.8853" y="660.6758">AddFigureCategoryUI</text><rect fill="#E2E2F0" height="32.6211" rx="2.5" ry="2.5" style="stroke:#181818;stroke-width:0.5;" width="196.0889" x="301.2847" y="50"/><text fill="#000000" font-family="sans-serif" font-size="14" lengthAdjust="spacing" textLength="182.0889" x="308.2847" y="72.1074">AddFigureCategoryController</text><rect fill="#E2E2F0" height="32.6211" rx="2.5" ry="2.5" style="stroke:#181818;stroke-width:0.5;" width="196.0889" x="301.2847" y="638.5684"/><text fill="#000000" font-family="sans-serif" font-size="14" lengthAdjust="spacing" textLength="182.0889" x="308.2847" y="660.6758">AddFigureCategoryController</text><rect fill="#E2E2F0" height="32.6211" rx="2.5" ry="2.5" style="stroke:#181818;stroke-width:0.5;" width="157.1719" x="544.1802" y="50"/><text fill="#000000" font-family="sans-serif" font-size="14" lengthAdjust="spacing" textLength="143.1719" x="551.1802" y="72.1074">FigureCategoryService</text><rect fill="#E2E2F0" height="32.6211" rx="2.5" ry="2.5" style="stroke:#181818;stroke-width:0.5;" width="157.1719" x="544.1802" y="638.5684"/><text fill="#000000" font-family="sans-serif" font-size="14" lengthAdjust="spacing" textLength="143.1719" x="551.1802" y="660.6758">FigureCategoryService</text><rect fill="#E2E2F0" height="32.6211" rx="2.5" ry="2.5" style="stroke:#181818;stroke-width:0.5;" width="135.3926" x="711.3521" y="50"/><text fill="#000000" font-family="sans-serif" font-size="14" lengthAdjust="spacing" textLength="121.3926" x="718.3521" y="72.1074">PersistenceContext</text><rect fill="#E2E2F0" height="32.6211" rx="2.5" ry="2.5" style="stroke:#181818;stroke-width:0.5;" width="135.3926" x="711.3521" y="638.5684"/><text fill="#000000" font-family="sans-serif" font-size="14" lengthAdjust="spacing" textLength="121.3926" x="718.3521" y="660.6758">PersistenceContext</text><rect fill="#E2E2F0" height="32.6211" rx="2.5" ry="2.5" style="stroke:#181818;stroke-width:0.5;" width="127.5928" x="856.7446" y="50"/><text fill="#000000" font-family="sans-serif" font-size="14" lengthAdjust="spacing" textLength="113.5928" x="863.7446" y="72.1074">RepositoryFactory</text><rect fill="#E2E2F0" height="32.6211" rx="2.5" ry="2.5" style="stroke:#181818;stroke-width:0.5;" width="127.5928" x="856.7446" y="638.5684"/><text fill="#000000" font-family="sans-serif" font-size="14" lengthAdjust="spacing" textLength="113.5928" x="863.7446" y="660.6758">RepositoryFactory</text><rect fill="#E2E2F0" height="32.6211" rx="2.5" ry="2.5" style="stroke:#181818;stroke-width:0.5;" width="177.4063" x="994.3374" y="50"/><text fill="#000000" font-family="sans-serif" font-size="14" lengthAdjust="spacing" textLength="163.4063" x="1001.3374" y="72.1074">FigureCategoryRepository</text><rect fill="#E2E2F0" height="32.6211" rx="2.5" ry="2.5" style="stroke:#181818;stroke-width:0.5;" width="177.4063" x="994.3374" y="638.5684"/><text fill="#000000" font-family="sans-serif" font-size="14" lengthAdjust="spacing" textLength="163.4063" x="1001.3374" y="660.6758">FigureCategoryRepository</text><polygon fill="#181818" points="204.585,112.9121,214.585,116.9121,204.585,120.9121,208.585,116.9121" style="stroke:#181818;stroke-width:1.0;"/><line style="stroke:#181818;stroke-width:1.0;" x1="70.4688" x2="210.585" y1="116.9121" y2="116.9121"/><text fill="#000000" font-family="sans-serif" font-size="13" lengthAdjust="spacing" textLength="122.1162" x="77.4688" y="111.6494">Insert category name</text><polygon fill="#181818" points="387.3291,144.2031,397.3291,148.2031,387.3291,152.2031,391.3291,148.2031" style="stroke:#181818;stroke-width:1.0;"/><line style="stroke:#181818;stroke-width:1.0;" x1="216.585" x2="393.3291" y1="148.2031" y2="148.2031"/><text fill="#000000" font-family="sans-serif" font-size="13" lengthAdjust="spacing" textLength="36.1309" x="223.585" y="142.9404">create</text><polygon fill="#181818" points="767.0483,175.4941,777.0483,179.4941,767.0483,183.4941,771.0483,179.4941" style="stroke:#181818;stroke-width:1.0;"/><line style="stroke:#181818;stroke-width:1.0;" x1="399.3291" x2="773.0483" y1="179.4941" y2="179.4941"/><text fill="#000000" font-family="sans-serif" font-size="13" lengthAdjust="spacing" textLength="75.8545" x="406.3291" y="174.2314">repositories()</text><polygon fill="#181818" points="908.541,206.7852,918.541,210.7852,908.541,214.7852,912.541,210.7852" style="stroke:#181818;stroke-width:1.0;"/><line style="stroke:#181818;stroke-width:1.0;" x1="779.0483" x2="914.541" y1="210.7852" y2="210.7852"/><text fill="#000000" font-family="sans-serif" font-size="13" lengthAdjust="spacing" textLength="36.1309" x="786.0483" y="205.5225">create</text><polygon fill="#181818" points="1071.0405,238.0762,1081.0405,242.0762,1071.0405,246.0762,1075.0405,242.0762" style="stroke:#181818;stroke-width:1.0;"/><line style="stroke:#181818;stroke-width:1.0;" x1="920.541" x2="1077.0405" y1="242.0762" y2="242.0762"/><text fill="#000000" font-family="sans-serif" font-size="13" lengthAdjust="spacing" textLength="36.1309" x="927.541" y="236.8135">create</text><polygon fill="#181818" points="387.3291,269.3672,397.3291,273.3672,387.3291,277.3672,391.3291,273.3672" style="stroke:#181818;stroke-width:1.0;"/><line style="stroke:#181818;stroke-width:1.0;" x1="216.585" x2="393.3291" y1="273.3672" y2="273.3672"/><text fill="#000000" font-family="sans-serif" font-size="13" lengthAdjust="spacing" textLength="115.6162" x="223.585" y="268.1045">addCategory(name)</text><polygon fill="#181818" points="610.7661,300.6582,620.7661,304.6582,610.7661,308.6582,614.7661,304.6582" style="stroke:#181818;stroke-width:1.0;"/><line style="stroke:#181818;stroke-width:1.0;" x1="399.3291" x2="616.7661" y1="304.6582" y2="304.6582"/><text fill="#000000" font-family="sans-serif" font-size="13" lengthAdjust="spacing" textLength="137.2744" x="406.3291" y="299.3955">registerCategory(name)</text><polygon fill="#181818" points="1071.0405,331.9492,1081.0405,335.9492,1071.0405,339.9492,1075.0405,335.9492" style="stroke:#181818;stroke-width:1.0;"/><line style="stroke:#181818;stroke-width:1.0;" x1="622.7661" x2="1077.0405" y1="335.9492" y2="335.9492"/><text fill="#000000" font-family="sans-serif" font-size="13" lengthAdjust="spacing" textLength="179.1943" x="629.7661" y="330.6865">findByNameIgnoreCase(name)</text><path d="M10,350.9492 L70.1709,350.9492 L70.1709,360.2402 L60.1709,370.2402 L10,370.2402 L10,350.9492 " fill="#EEEEEE" style="stroke:#000000;stroke-width:1.5;"/><rect fill="none" height="271.6191" style="stroke:#000000;stroke-width:1.5;" width="1171.7437" x="10" y="350.9492"/><text fill="#000000" font-family="sans-serif" font-size="13" font-weight="bold" lengthAdjust="spacing" textLength="15.1709" x="25" y="365.9775">alt</text><text fill="#000000" font-family="sans-serif" font-size="11" font-weight="bold" lengthAdjust="spacing" textLength="87.4253" x="85.1709" y="364.8193">[category exists]</text><polygon fill="#181818" points="410.3291,389.5313,400.3291,393.5313,410.3291,397.5313,406.3291,393.5313" style="stroke:#181818;stroke-width:1.0;"/><line style="stroke:#181818;stroke-width:1.0;" x1="404.3291" x2="621.7661" y1="393.5313" y2="393.5313"/><text fill="#000000" font-family="sans-serif" font-size="13" lengthAdjust="spacing" textLength="199.437" x="416.3291" y="388.2686">throw DuplicateCategoryException</text><polygon fill="#181818" points="227.585,420.8223,217.585,424.8223,227.585,428.8223,223.585,424.8223" style="stroke:#181818;stroke-width:1.0;"/><line style="stroke:#181818;stroke-width:1.0;" x1="221.585" x2="398.3291" y1="424.8223" y2="424.8223"/><text fill="#000000" font-family="sans-serif" font-size="13" lengthAdjust="spacing" textLength="83.8081" x="233.585" y="419.5596">error message</text><polygon fill="#181818" points="81.4688,452.1133,71.4688,456.1133,81.4688,460.1133,77.4688,456.1133" style="stroke:#181818;stroke-width:1.0;"/><line style="stroke:#181818;stroke-width:1.0;" x1="75.4688" x2="215.585" y1="456.1133" y2="456.1133"/><text fill="#000000" font-family="sans-serif" font-size="13" lengthAdjust="spacing" textLength="71.5254" x="87.4688" y="450.8506">display error</text><line style="stroke:#000000;stroke-width:1.0;stroke-dasharray:2.0,2.0;" x1="10" x2="1181.7437" y1="465.1133" y2="465.1133"/><polygon fill="#181818" points="1071.0405,485.4043,1081.0405,489.4043,1071.0405,493.4043,1075.0405,489.4043" style="stroke:#181818;stroke-width:1.0;"/><line style="stroke:#181818;stroke-width:1.0;" x1="622.7661" x2="1077.0405" y1="489.4043" y2="489.4043"/><text fill="#000000" font-family="sans-serif" font-size="13" lengthAdjust="spacing" textLength="194.3525" x="629.7661" y="484.1416">save(new FigureCategory(name))</text><polygon fill="#181818" points="633.7661,516.6953,623.7661,520.6953,633.7661,524.6953,629.7661,520.6953" style="stroke:#181818;stroke-width:1.0;"/><line style="stroke:#181818;stroke-width:1.0;stroke-dasharray:2.0,2.0;" x1="627.7661" x2="1082.0405" y1="520.6953" y2="520.6953"/><text fill="#000000" font-family="sans-serif" font-size="13" lengthAdjust="spacing" textLength="70.8081" x="639.7661" y="515.4326">confirmation</text><polygon fill="#181818" points="410.3291,547.9863,400.3291,551.9863,410.3291,555.9863,406.3291,551.9863" style="stroke:#181818;stroke-width:1.0;"/><line style="stroke:#181818;stroke-width:1.0;stroke-dasharray:2.0,2.0;" x1="404.3291" x2="621.7661" y1="551.9863" y2="551.9863"/><text fill="#000000" font-family="sans-serif" font-size="13" lengthAdjust="spacing" textLength="46.96" x="416.3291" y="546.7236">success</text><polygon fill="#181818" points="227.585,579.2773,217.585,583.2773,227.585,587.2773,223.585,583.2773" style="stroke:#181818;stroke-width:1.0;"/><line style="stroke:#181818;stroke-width:1.0;stroke-dasharray:2.0,2.0;" x1="221.585" x2="398.3291" y1="583.2773" y2="583.2773"/><text fill="#000000" font-family="sans-serif" font-size="13" lengthAdjust="spacing" textLength="103.3208" x="233.585" y="578.0146">success message</text><polygon fill="#181818" points="81.4688,610.5684,71.4688,614.5684,81.4688,618.5684,77.4688,614.5684" style="stroke:#181818;stroke-width:1.0;"/><line style="stroke:#181818;stroke-width:1.0;" x1="75.4688" x2="215.585" y1="614.5684" y2="614.5684"/><text fill="#000000" font-family="sans-serif" font-size="13" lengthAdjust="spacing" textLength="91.0381" x="87.4688" y="609.3057">display success</text><!--SRC=[ZPDFJ_Cm3CRl_HJMkB03PmG7f7U5IhkWQHCV84fC5v4bbPt1AiHtnqt_R47L2xV6_Zss7oVbD-iRHUe0pdgCROCGAEv3mLEYKVfDrGYV1S1AlciAHs_Au0B1LNNtT7jNTPb01gcFhfnWnLTHA1tbkDZjmmSy8jlQ8or0CUmU2oaUhRQDyX4M_uofR7qaB5N4Eb3xiaxSo_eNhWm-Kd1kg7i-vhfSj4DwjnhxIVhl7DyWiUM8NcDN4KyniPionxRO1BPYiQsIqpPHs-f_lS-Q7fPZKSZ-G7O2Dm_Y6EvXxHafWXuquDK14oDPOSukXTM4WgNiHLoeJIbP6jjPvEjbeYGksMsLQ-NSHGNFupCTbJ6Zc-jkikLCys6jQOAwMoNDI4RetFZLUhDgduLOrpvqMsEy42XtiHGyILrEyH_5icdZdhhNTsoSxQJZ64ydZKsqmKy5SWFf7f18tky1cUK7cC1-9N9Tzs0iDqwrFPW0T8npCmq6MRsB8Vo0_5Nq7fUJCD4tsHvryA-M3YgRUMhmqpKVjPQnPysDxWRcB_ukow4ttm00]--></g></svg>