<?xml version="1.0" encoding="us-ascii" standalone="no"?><svg xmlns="http://www.w3.org/2000/svg" xmlns:xlink="http://www.w3.org/1999/xlink" contentStyleType="text/css" height="534px" preserveAspectRatio="none" style="width:538px;height:534px;background:#FFFFFF;" version="1.1" viewBox="0 0 538 534" width="538px" zoomAndPan="magnify"><defs/><g><text fill="#000000" font-family="sans-serif" font-size="14" font-weight="bold" lengthAdjust="spacing" textLength="276" x="130" y="27.6738">System Sequence Diagram (SSD) - US05</text><rect fill="#FFFFFF" height="286.7578" style="stroke:#181818;stroke-width:1.0;" width="10" x="63" y="142.9219"/><rect fill="#FFFFFF" height="43.0469" style="stroke:#181818;stroke-width:1.0;" width="10" x="495" y="163.4453"/><rect fill="#FFFFFF" height="43.0469" style="stroke:#181818;stroke-width:1.0;" width="10" x="495" y="235.0156"/><rect fill="#FFFFFF" height="28.5234" style="stroke:#181818;stroke-width:1.0;" width="10" x="495" y="306.5859"/><rect fill="#FFFFFF" height="57.0469" style="stroke:#181818;stroke-width:1.0;" width="10" x="495" y="363.6328"/><line style="stroke:#181818;stroke-width:0.5;stroke-dasharray:5.0,5.0;" x1="68" x2="68" y1="132.9219" y2="438.6797"/><line style="stroke:#181818;stroke-width:0.5;stroke-dasharray:5.0,5.0;" x1="500" x2="500" y1="132.9219" y2="438.6797"/><text fill="#000000" font-family="sans-serif" font-size="14" lengthAdjust="spacing" textLength="116" x="5" y="114.3145">Human Resources</text><text fill="#000000" font-family="sans-serif" font-size="14" lengthAdjust="spacing" textLength="56" x="37" y="129.9551">Manager</text><ellipse cx="68" cy="50.1406" fill="#E3E3E3" rx="8" ry="8" style="stroke:#181818;stroke-width:0.5;"/><path d="M68,58.1406 L68,85.1406 M55,66.1406 L81,66.1406 M68,85.1406 L55,100.1406 M68,85.1406 L81,100.1406 " fill="none" style="stroke:#181818;stroke-width:0.5;"/><text fill="#000000" font-family="sans-serif" font-size="14" lengthAdjust="spacing" textLength="116" x="5" y="450.3535">Human Resources</text><text fill="#000000" font-family="sans-serif" font-size="14" lengthAdjust="spacing" textLength="56" x="37" y="465.9941">Manager</text><ellipse cx="68" cy="477.4609" fill="#E3E3E3" rx="8" ry="8" style="stroke:#181818;stroke-width:0.5;"/><path d="M68,485.4609 L68,512.4609 M55,493.4609 L81,493.4609 M68,512.4609 L55,527.4609 M68,512.4609 L81,527.4609 " fill="none" style="stroke:#181818;stroke-width:0.5;"/><rect fill="#E3E3E3" height="29.6406" rx="2.5" ry="2.5" style="stroke:#181818;stroke-width:0.5;" width="64" x="468" y="102.2813"/><text fill="#000000" font-family="sans-serif" font-size="14" lengthAdjust="spacing" textLength="50" x="475" y="121.9551">:System</text><rect fill="#E3E3E3" height="29.6406" rx="2.5" ry="2.5" style="stroke:#181818;stroke-width:0.5;" width="64" x="468" y="437.6797"/><text fill="#000000" font-family="sans-serif" font-size="14" lengthAdjust="spacing" textLength="50" x="475" y="457.3535">:System</text><rect fill="#FFFFFF" height="286.7578" style="stroke:#181818;stroke-width:1.0;" width="10" x="63" y="142.9219"/><rect fill="#FFFFFF" height="43.0469" style="stroke:#181818;stroke-width:1.0;" width="10" x="495" y="163.4453"/><rect fill="#FFFFFF" height="43.0469" style="stroke:#181818;stroke-width:1.0;" width="10" x="495" y="235.0156"/><rect fill="#FFFFFF" height="28.5234" style="stroke:#181818;stroke-width:1.0;" width="10" x="495" y="306.5859"/><rect fill="#FFFFFF" height="57.0469" style="stroke:#181818;stroke-width:1.0;" width="10" x="495" y="363.6328"/><polygon fill="#181818" points="483,159.4453,493,163.4453,483,167.4453,487,163.4453" style="stroke:#181818;stroke-width:1.0;"/><line style="stroke:#181818;stroke-width:1.0;" x1="73" x2="489" y1="163.4453" y2="163.4453"/><text fill="#000000" font-family="sans-serif" font-size="13" font-weight="bold" lengthAdjust="spacing" textLength="7" x="80" y="158.6904">1</text><text fill="#000000" font-family="sans-serif" font-size="13" lengthAdjust="spacing" textLength="315" x="91" y="158.6904">Requests an automatic submission of a team proposal</text><polygon fill="#181818" points="84,202.4922,74,206.4922,84,210.4922,80,206.4922" style="stroke:#181818;stroke-width:1.0;"/><line style="stroke:#181818;stroke-width:1.0;stroke-dasharray:2.0,2.0;" x1="78" x2="499" y1="206.4922" y2="206.4922"/><text fill="#000000" font-family="sans-serif" font-size="13" font-weight="bold" lengthAdjust="spacing" textLength="7" x="90" y="194.4756">2</text><text fill="#000000" font-family="sans-serif" font-size="13" lengthAdjust="spacing" textLength="247" x="101" y="187.2139">displays the users who are available, along</text><text fill="#000000" font-family="sans-serif" font-size="13" lengthAdjust="spacing" textLength="258" x="105" y="201.7373">with their respective roles, for team formation</text><polygon fill="#181818" points="483,231.0156,493,235.0156,483,239.0156,487,235.0156" style="stroke:#181818;stroke-width:1.0;"/><line style="stroke:#181818;stroke-width:1.0;" x1="73" x2="489" y1="235.0156" y2="235.0156"/><text fill="#000000" font-family="sans-serif" font-size="13" font-weight="bold" lengthAdjust="spacing" textLength="7" x="80" y="230.2607">3</text><text fill="#000000" font-family="sans-serif" font-size="13" lengthAdjust="spacing" textLength="78" x="91" y="230.2607">selects users</text><polygon fill="#181818" points="84,274.0625,74,278.0625,84,282.0625,80,278.0625" style="stroke:#181818;stroke-width:1.0;"/><line style="stroke:#181818;stroke-width:1.0;stroke-dasharray:2.0,2.0;" x1="78" x2="499" y1="278.0625" y2="278.0625"/><text fill="#000000" font-family="sans-serif" font-size="13" font-weight="bold" lengthAdjust="spacing" textLength="7" x="90" y="266.0459">4</text><text fill="#000000" font-family="sans-serif" font-size="13" lengthAdjust="spacing" textLength="249" x="101" y="258.7842">asks for specifics regarding the team, such</text><text fill="#000000" font-family="sans-serif" font-size="13" lengthAdjust="spacing" textLength="267" x="101" y="273.3076">as the maximum team size and required skills</text><polygon fill="#181818" points="483,302.5859,493,306.5859,483,310.5859,487,306.5859" style="stroke:#181818;stroke-width:1.0;"/><line style="stroke:#181818;stroke-width:1.0;" x1="73" x2="489" y1="306.5859" y2="306.5859"/><text fill="#000000" font-family="sans-serif" font-size="13" font-weight="bold" lengthAdjust="spacing" textLength="7" x="80" y="301.8311">5</text><text fill="#000000" font-family="sans-serif" font-size="13" lengthAdjust="spacing" textLength="164" x="91" y="301.8311">offers details about the team</text><polygon fill="#181818" points="84,331.1094,74,335.1094,84,339.1094,80,335.1094" style="stroke:#181818;stroke-width:1.0;"/><line style="stroke:#181818;stroke-width:1.0;stroke-dasharray:2.0,2.0;" x1="78" x2="499" y1="335.1094" y2="335.1094"/><text fill="#000000" font-family="sans-serif" font-size="13" font-weight="bold" lengthAdjust="spacing" textLength="7" x="90" y="330.3545">6</text><text fill="#000000" font-family="sans-serif" font-size="13" lengthAdjust="spacing" textLength="387" x="101" y="330.3545">displays team specifics and requests confirmation of all information</text><polygon fill="#181818" points="483,359.6328,493,363.6328,483,367.6328,487,363.6328" style="stroke:#181818;stroke-width:1.0;"/><line style="stroke:#181818;stroke-width:1.0;" x1="73" x2="489" y1="363.6328" y2="363.6328"/><text fill="#000000" font-family="sans-serif" font-size="13" font-weight="bold" lengthAdjust="spacing" textLength="7" x="80" y="358.8779">7</text><text fill="#000000" font-family="sans-serif" font-size="13" lengthAdjust="spacing" textLength="206" x="91" y="358.8779">verifies and confirms the information</text><polygon fill="#181818" points="84,388.1563,74,392.1563,84,396.1563,80,392.1563" style="stroke:#181818;stroke-width:1.0;"/><line style="stroke:#181818;stroke-width:1.0;stroke-dasharray:2.0,2.0;" x1="78" x2="494" y1="392.1563" y2="392.1563"/><text fill="#000000" font-family="sans-serif" font-size="13" font-weight="bold" lengthAdjust="spacing" textLength="7" x="90" y="387.4014">8</text><text fill="#000000" font-family="sans-serif" font-size="13" lengthAdjust="spacing" textLength="119" x="101" y="387.4014">team proposal saved</text><polygon fill="#181818" points="84,416.6797,74,420.6797,84,424.6797,80,420.6797" style="stroke:#181818;stroke-width:1.0;"/><line style="stroke:#181818;stroke-width:1.0;stroke-dasharray:2.0,2.0;" x1="78" x2="499" y1="420.6797" y2="420.6797"/><text fill="#000000" font-family="sans-serif" font-size="13" font-weight="bold" lengthAdjust="spacing" textLength="7" x="90" y="415.9248">9</text><text fill="#000000" font-family="sans-serif" font-size="13" lengthAdjust="spacing" textLength="343" x="101" y="415.9248">displays that the operation has been successfully executed</text><!--SRC=[fLEzRjim4Dxr50TFAM03MRfuw9G2NRf4w9RbH9qamYHFuP5sdAVlKRIL50bGkDL4GSVlzoG76sQCwC5pO3D5zWGfPcfa_JAZEU18RJexWaWcOHZT-m6PiEUJ3ICCw8IQ9jcae-rP4dbewJbJC0GF5iSoVjUs3rzW1x_Q-wzDWpbnoBwZg6UJECBcH_OOu964SpGay1H-Ob05SGCeyDtFZiz4ZP8dQ-oC8S5cNzcMYNfSuEmH4xrTQK2VwnlilbqrxX-BI4a2IbmKULHeaDnvAs8v00-0aAZ44NbcGLV1LeuhALoU2_9EILR2FVHMPeTdWJGHPA4eS9eOC1BW4Qt3pj4Mq74OdmASR9hAf8sQkynKkBG2TYHR63IgHP0UYbmEJMNlwLDHdza68QUeKgNyYo6KWonIYZmxM2CgTSJObtKe9el4hIPf9kqHgt6FBzPdN-MBVLNpeTTxpzb6wa4topcvsGiFGycpfwH1QfCTvxHA-C-s5g6hmwlQPMCCXy5U6bZMn3cmuLqfj_euKbGQgZGNz9hR1zWR_Vonlo1ufBvvk_FtbSMQ9yyKgzr92-s8GkbN_rGPidDde1SoEIdsYlpH_cy0]--></g></svg>