<svg xmlns="http://www.w3.org/2000/svg" xmlns:xlink="http://www.w3.org/1999/xlink" contentStyleType="text/css" height="635px" preserveAspectRatio="none" style="width:544px;height:635px;background:#FFFFFF;" version="1.1" viewBox="0 0 544 635" width="544px" zoomAndPan="magnify"><title>US312 - Add Figures to a Proposal (Corrected SSD)</title><defs/><g><text fill="#000000" font-family="sans-serif" font-size="14" font-weight="bold" lengthAdjust="spacing" textLength="341.5098" x="103.041" y="30.1074">US312 - Add Figures to a Proposal (Corrected SSD)</text><rect fill="none" height="175.7461" style="stroke:#000000;stroke-width:1.5;" width="528.5918" x="10" y="296.6973"/><line style="stroke:#181818;stroke-width:0.5;stroke-dasharray:5.0,5.0;" x1="79" x2="79" y1="123.2422" y2="552.0254"/><line style="stroke:#181818;stroke-width:0.5;stroke-dasharray:5.0,5.0;" x1="497.916" x2="497.916" y1="123.2422" y2="552.0254"/><text fill="#000000" font-family="sans-serif" font-size="14" lengthAdjust="spacing" textLength="112.0342" x="20" y="119.7285">CRM Collaborator</text><ellipse cx="79.0171" cy="53.1211" fill="#E2E2F0" rx="8" ry="8" style="stroke:#181818;stroke-width:0.5;"/><path d="M79.0171,61.1211 L79.0171,88.1211 M66.0171,69.1211 L92.0171,69.1211 M79.0171,88.1211 L66.0171,103.1211 M79.0171,88.1211 L92.0171,103.1211 " fill="none" style="stroke:#181818;stroke-width:0.5;"/><text fill="#000000" font-family="sans-serif" font-size="14" lengthAdjust="spacing" textLength="112.0342" x="20" y="566.1328">CRM Collaborator</text><ellipse cx="79.0171" cy="578.1465" fill="#E2E2F0" rx="8" ry="8" style="stroke:#181818;stroke-width:0.5;"/><path d="M79.0171,586.1465 L79.0171,613.1465 M66.0171,594.1465 L92.0171,594.1465 M79.0171,613.1465 L66.0171,628.1465 M79.0171,613.1465 L92.0171,628.1465 " fill="none" style="stroke:#181818;stroke-width:0.5;"/><rect fill="#E2E2F0" height="32.6211" rx="2.5" ry="2.5" style="stroke:#181818;stroke-width:0.5;" width="60.6758" x="467.916" y="89.6211"/><text fill="#000000" font-family="sans-serif" font-size="14" lengthAdjust="spacing" textLength="46.6758" x="474.916" y="111.7285">System</text><rect fill="#E2E2F0" height="32.6211" rx="2.5" ry="2.5" style="stroke:#181818;stroke-width:0.5;" width="60.6758" x="467.916" y="551.0254"/><text fill="#000000" font-family="sans-serif" font-size="14" lengthAdjust="spacing" textLength="46.6758" x="474.916" y="573.1328">System</text><polygon fill="#181818" points="486.2539,152.5332,496.2539,156.5332,486.2539,160.5332,490.2539,156.5332" style="stroke:#181818;stroke-width:1.0;"/><line style="stroke:#181818;stroke-width:1.0;" x1="79.0171" x2="492.2539" y1="156.5332" y2="156.5332"/><text fill="#000000" font-family="sans-serif" font-size="13" lengthAdjust="spacing" textLength="166.1753" x="86.0171" y="151.2705">initiatesAddFiguresProcess()</text><polygon fill="#181818" points="90.0171,183.8242,80.0171,187.8242,90.0171,191.8242,86.0171,187.8242" style="stroke:#181818;stroke-width:1.0;"/><line style="stroke:#181818;stroke-width:1.0;stroke-dasharray:2.0,2.0;" x1="84.0171" x2="497.2539" y1="187.8242" y2="187.8242"/><text fill="#000000" font-family="sans-serif" font-size="13" lengthAdjust="spacing" textLength="250.7261" x="96.0171" y="182.5615">presentsEditableProposals(listOfProposals)</text><polygon fill="#181818" points="486.2539,215.1152,496.2539,219.1152,486.2539,223.1152,490.2539,219.1152" style="stroke:#181818;stroke-width:1.0;"/><line style="stroke:#181818;stroke-width:1.0;" x1="79.0171" x2="492.2539" y1="219.1152" y2="219.1152"/><text fill="#000000" font-family="sans-serif" font-size="13" lengthAdjust="spacing" textLength="163.2935" x="86.0171" y="213.8525">selectsProposal(proposalID)</text><polygon fill="#181818" points="90.0171,246.4063,80.0171,250.4063,90.0171,254.4063,86.0171,250.4063" style="stroke:#181818;stroke-width:1.0;"/><line style="stroke:#181818;stroke-width:1.0;stroke-dasharray:2.0,2.0;" x1="84.0171" x2="497.2539" y1="250.4063" y2="250.4063"/><text fill="#000000" font-family="sans-serif" font-size="13" lengthAdjust="spacing" textLength="181.3652" x="96.0171" y="245.1436">requestsFigureSelectionMode()</text><polygon fill="#181818" points="486.2539,277.6973,496.2539,281.6973,486.2539,285.6973,490.2539,281.6973" style="stroke:#181818;stroke-width:1.0;"/><line style="stroke:#181818;stroke-width:1.0;" x1="79.0171" x2="492.2539" y1="281.6973" y2="281.6973"/><text fill="#000000" font-family="sans-serif" font-size="13" lengthAdjust="spacing" textLength="174.8716" x="86.0171" y="276.4346">suppliesSelectionMode(mode)</text><path d="M10,296.6973 L82.4346,296.6973 L82.4346,305.9883 L72.4346,315.9883 L10,315.9883 L10,296.6973 " fill="#EEEEEE" style="stroke:#000000;stroke-width:1.5;"/><rect fill="none" height="175.7461" style="stroke:#000000;stroke-width:1.5;" width="528.5918" x="10" y="296.6973"/><text fill="#000000" font-family="sans-serif" font-size="13" font-weight="bold" lengthAdjust="spacing" textLength="27.4346" x="25" y="311.7256">loop</text><text fill="#000000" font-family="sans-serif" font-size="11" font-weight="bold" lengthAdjust="spacing" textLength="113.6685" x="97.4346" y="310.5674">[while adding figures]</text><polygon fill="#181818" points="90.0171,335.2793,80.0171,339.2793,90.0171,343.2793,86.0171,339.2793" style="stroke:#181818;stroke-width:1.0;"/><line style="stroke:#181818;stroke-width:1.0;stroke-dasharray:2.0,2.0;" x1="84.0171" x2="497.2539" y1="339.2793" y2="339.2793"/><text fill="#000000" font-family="sans-serif" font-size="13" lengthAdjust="spacing" textLength="356.9604" x="96.0171" y="334.0166">displaysCurrentFleetState(fleetState) and availableFiguresList</text><polygon fill="#181818" points="486.2539,366.5703,496.2539,370.5703,486.2539,374.5703,490.2539,370.5703" style="stroke:#181818;stroke-width:1.0;"/><line style="stroke:#181818;stroke-width:1.0;" x1="79.0171" x2="492.2539" y1="370.5703" y2="370.5703"/><text fill="#000000" font-family="sans-serif" font-size="13" lengthAdjust="spacing" textLength="131.4854" x="86.0171" y="365.3076">selectsFigure(figureID)</text><polygon fill="#181818" points="90.0171,397.8613,80.0171,401.8613,90.0171,405.8613,86.0171,401.8613" style="stroke:#181818;stroke-width:1.0;"/><line style="stroke:#181818;stroke-width:1.0;stroke-dasharray:2.0,2.0;" x1="84.0171" x2="497.2539" y1="401.8613" y2="401.8613"/><text fill="#000000" font-family="sans-serif" font-size="13" lengthAdjust="spacing" textLength="395.2368" x="96.0171" y="396.5986">requestsDroneMappingForFigure(requiredTypes, compatibleModels)</text><polygon fill="#181818" points="486.2539,429.1523,496.2539,433.1523,486.2539,437.1523,490.2539,433.1523" style="stroke:#181818;stroke-width:1.0;"/><line style="stroke:#181818;stroke-width:1.0;" x1="79.0171" x2="492.2539" y1="433.1523" y2="433.1523"/><text fill="#000000" font-family="sans-serif" font-size="13" lengthAdjust="spacing" textLength="197.9961" x="86.0171" y="427.8896">suppliesDroneMapping(mappings)</text><polygon fill="#181818" points="90.0171,460.4434,80.0171,464.4434,90.0171,468.4434,86.0171,464.4434" style="stroke:#181818;stroke-width:1.0;"/><line style="stroke:#181818;stroke-width:1.0;stroke-dasharray:2.0,2.0;" x1="84.0171" x2="497.2539" y1="464.4434" y2="464.4434"/><text fill="#000000" font-family="sans-serif" font-size="13" lengthAdjust="spacing" textLength="141.6035" x="96.0171" y="459.1807">confirmsFigureAddition()</text><polygon fill="#181818" points="486.2539,498.7344,496.2539,502.7344,486.2539,506.7344,490.2539,502.7344" style="stroke:#181818;stroke-width:1.0;"/><line style="stroke:#181818;stroke-width:1.0;" x1="79.0171" x2="492.2539" y1="502.7344" y2="502.7344"/><text fill="#000000" font-family="sans-serif" font-size="13" lengthAdjust="spacing" textLength="136.5635" x="86.0171" y="497.4717">finishesAddingFigures()</text><polygon fill="#181818" points="90.0171,530.0254,80.0171,534.0254,90.0171,538.0254,86.0171,534.0254" style="stroke:#181818;stroke-width:1.0;"/><line style="stroke:#181818;stroke-width:1.0;stroke-dasharray:2.0,2.0;" x1="84.0171" x2="497.2539" y1="534.0254" y2="534.0254"/><text fill="#000000" font-family="sans-serif" font-size="13" lengthAdjust="spacing" textLength="199.418" x="96.0171" y="528.7627">confirmsProposalSave(finalStatus)</text><!--SRC=[VLBDYjim4BxxAOQS56WERMyv59Pi0uM6bhhx01Dhd0p8agePf-JjEugTq2NPlLWZpS_tur7MGF3IVlxu2LRmv3ri-J0M4j0423zBoaamWDkaKgXJyj2spykcmKvJWSNcrmusAGJSfuBsiW0KiCScOr7kE6DKMBHdKHekkIbicjgu-Z9VOGqSMHcLn3ZC50oy8n6tREQgbJNKlZLaIrDK-UfPSH_eobDSOD4V_Us-l0CI2gP3hXKkpy6tgkeEgD2VaKHbejHUUZd5NVBa7imUSmvCyhfki8_D3Ybb-7jaynkzvtY0Vj9vZ-fPSi2pR4OpFUes46chvexhR-4IC7h04tAe3ioUVJVvRqcUIjo4MkM-gVQvf4WxpDbORbEP6skM2_dVvqpo0ReqP5GsxAhoeTMp7V-FSyDqoWFuBiMUop0JjKNWwg7vJD7VRqnlAoF7oy9KcfD-zyxOwozlyLHTY1QPaQCn-GS0]--></g></svg>