<?xml version="1.0" encoding="us-ascii" standalone="no"?><svg xmlns="http://www.w3.org/2000/svg" xmlns:xlink="http://www.w3.org/1999/xlink" contentStyleType="text/css" height="560px" preserveAspectRatio="none" style="width:793px;height:560px;background:#FFFFFF;" version="1.1" viewBox="0 0 793 560" width="793px" zoomAndPan="magnify"><defs/><g><text fill="#000000" font-family="sans-serif" font-size="14" font-weight="bold" lengthAdjust="spacing" textLength="276" x="260" y="27.6738">System Sequence Diagram (SSD) - US03</text><rect fill="#FFFFFF" height="344.2813" style="stroke:#181818;stroke-width:1.0;" width="10" x="128" y="127.2813"/><rect fill="#FFFFFF" height="28.5234" style="stroke:#181818;stroke-width:1.0;" width="10" x="641" y="147.8047"/><rect fill="#FFFFFF" height="66.5703" style="stroke:#181818;stroke-width:1.0;" width="10" x="641" y="204.8516"/><rect fill="#FFFFFF" height="28.5234" style="stroke:#181818;stroke-width:1.0;" width="10" x="641" y="299.9453"/><rect fill="#FFFFFF" height="105.5703" style="stroke:#181818;stroke-width:1.0;" width="10" x="641" y="356.9922"/><rect fill="none" height="186.6641" style="stroke:#000000;stroke-width:1.5;" width="777" x="10" y="219.8516"/><line style="stroke:#181818;stroke-width:0.5;stroke-dasharray:5.0,5.0;" x1="133" x2="133" y1="117.2813" y2="480.5625"/><line style="stroke:#181818;stroke-width:0.5;stroke-dasharray:5.0,5.0;" x1="646" x2="646" y1="117.2813" y2="480.5625"/><text fill="#000000" font-family="sans-serif" font-size="14" lengthAdjust="spacing" textLength="220" x="20" y="114.3145">Human Resources Manager (HRM)</text><ellipse cx="133" cy="50.1406" fill="#E3E3E3" rx="8" ry="8" style="stroke:#181818;stroke-width:0.5;"/><path d="M133,58.1406 L133,85.1406 M120,66.1406 L146,66.1406 M133,85.1406 L120,100.1406 M133,85.1406 L146,100.1406 " fill="none" style="stroke:#181818;stroke-width:0.5;"/><text fill="#000000" font-family="sans-serif" font-size="14" lengthAdjust="spacing" textLength="220" x="20" y="492.2363">Human Resources Manager (HRM)</text><ellipse cx="133" cy="503.7031" fill="#E3E3E3" rx="8" ry="8" style="stroke:#181818;stroke-width:0.5;"/><path d="M133,511.7031 L133,538.7031 M120,519.7031 L146,519.7031 M133,538.7031 L120,553.7031 M133,538.7031 L146,553.7031 " fill="none" style="stroke:#181818;stroke-width:0.5;"/><rect fill="#E3E3E3" height="29.6406" rx="2.5" ry="2.5" style="stroke:#181818;stroke-width:0.5;" width="64" x="614" y="86.6406"/><text fill="#000000" font-family="sans-serif" font-size="14" lengthAdjust="spacing" textLength="50" x="621" y="106.3145">:System</text><rect fill="#E3E3E3" height="29.6406" rx="2.5" ry="2.5" style="stroke:#181818;stroke-width:0.5;" width="64" x="614" y="479.5625"/><text fill="#000000" font-family="sans-serif" font-size="14" lengthAdjust="spacing" textLength="50" x="621" y="499.2363">:System</text><rect fill="#FFFFFF" height="344.2813" style="stroke:#181818;stroke-width:1.0;" width="10" x="128" y="127.2813"/><rect fill="#FFFFFF" height="28.5234" style="stroke:#181818;stroke-width:1.0;" width="10" x="641" y="147.8047"/><rect fill="#FFFFFF" height="66.5703" style="stroke:#181818;stroke-width:1.0;" width="10" x="641" y="204.8516"/><rect fill="#FFFFFF" height="28.5234" style="stroke:#181818;stroke-width:1.0;" width="10" x="641" y="299.9453"/><rect fill="#FFFFFF" height="105.5703" style="stroke:#181818;stroke-width:1.0;" width="10" x="641" y="356.9922"/><polygon fill="#181818" points="629,143.8047,639,147.8047,629,151.8047,633,147.8047" style="stroke:#181818;stroke-width:1.0;"/><line style="stroke:#181818;stroke-width:1.0;" x1="138" x2="635" y1="147.8047" y2="147.8047"/><text fill="#000000" font-family="sans-serif" font-size="13" font-weight="bold" lengthAdjust="spacing" textLength="7" x="145" y="143.0498">1</text><text fill="#000000" font-family="sans-serif" font-size="13" lengthAdjust="spacing" textLength="241" x="156" y="143.0498">requests registration of a new collaborator</text><polygon fill="#181818" points="149,172.3281,139,176.3281,149,180.3281,145,176.3281" style="stroke:#181818;stroke-width:1.0;"/><line style="stroke:#181818;stroke-width:1.0;stroke-dasharray:2.0,2.0;" x1="143" x2="645" y1="176.3281" y2="176.3281"/><text fill="#000000" font-family="sans-serif" font-size="13" font-weight="bold" lengthAdjust="spacing" textLength="7" x="155" y="171.5732">2</text><text fill="#000000" font-family="sans-serif" font-size="13" lengthAdjust="spacing" textLength="406" x="166" y="171.5732">displays a list of available job categories and requests selection of one</text><polygon fill="#181818" points="629,200.8516,639,204.8516,629,208.8516,633,204.8516" style="stroke:#181818;stroke-width:1.0;"/><line style="stroke:#181818;stroke-width:1.0;" x1="138" x2="635" y1="204.8516" y2="204.8516"/><text fill="#000000" font-family="sans-serif" font-size="13" font-weight="bold" lengthAdjust="spacing" textLength="7" x="145" y="200.0967">3</text><text fill="#000000" font-family="sans-serif" font-size="13" lengthAdjust="spacing" textLength="199" x="156" y="200.0967">chooses and select a job category</text><path d="M10,219.8516 L83,219.8516 L83,226.375 L73,236.375 L10,236.375 L10,219.8516 " fill="#EEEEEE" style="stroke:#000000;stroke-width:1.5;"/><rect fill="none" height="186.6641" style="stroke:#000000;stroke-width:1.5;" width="777" x="10" y="219.8516"/><text fill="#000000" font-family="sans-serif" font-size="13" font-weight="bold" lengthAdjust="spacing" textLength="28" x="25" y="232.6201">loop</text><text fill="#000000" font-family="sans-serif" font-size="11" font-weight="bold" lengthAdjust="spacing" textLength="190" x="98" y="231.8096">[until collaborator details are valid]</text><polygon fill="#181818" points="149,267.4219,139,271.4219,149,275.4219,145,271.4219" style="stroke:#181818;stroke-width:1.0;"/><line style="stroke:#181818;stroke-width:1.0;stroke-dasharray:2.0,2.0;" x1="143" x2="645" y1="271.4219" y2="271.4219"/><text fill="#000000" font-family="sans-serif" font-size="13" font-weight="bold" lengthAdjust="spacing" textLength="7" x="155" y="259.4053">4</text><text fill="#000000" font-family="sans-serif" font-size="13" lengthAdjust="spacing" textLength="464" x="166" y="252.1436">asks for collaborator information (name, residence, date of birth, admission date,</text><text fill="#000000" font-family="sans-serif" font-size="13" lengthAdjust="spacing" textLength="427" x="170" y="266.667">contact details (phone and email), document identification and its number)</text><polygon fill="#181818" points="629,295.9453,639,299.9453,629,303.9453,633,299.9453" style="stroke:#181818;stroke-width:1.0;"/><line style="stroke:#181818;stroke-width:1.0;" x1="138" x2="635" y1="299.9453" y2="299.9453"/><text fill="#000000" font-family="sans-serif" font-size="13" font-weight="bold" lengthAdjust="spacing" textLength="7" x="145" y="295.1904">5</text><text fill="#000000" font-family="sans-serif" font-size="13" lengthAdjust="spacing" textLength="188" x="156" y="295.1904">Supplies collaborator information</text><polygon fill="#181818" points="149,324.4688,139,328.4688,149,332.4688,145,328.4688" style="stroke:#181818;stroke-width:1.0;"/><line style="stroke:#181818;stroke-width:1.0;stroke-dasharray:2.0,2.0;" x1="143" x2="645" y1="328.4688" y2="328.4688"/><text fill="#000000" font-family="sans-serif" font-size="13" font-weight="bold" lengthAdjust="spacing" textLength="7" x="155" y="323.7139">6</text><text fill="#000000" font-family="sans-serif" font-size="13" lengthAdjust="spacing" textLength="421" x="166" y="323.7139">displays collaborator information and requests confirmation of all the data</text><polygon fill="#181818" points="629,352.9922,639,356.9922,629,360.9922,633,356.9922" style="stroke:#181818;stroke-width:1.0;"/><line style="stroke:#181818;stroke-width:1.0;" x1="138" x2="635" y1="356.9922" y2="356.9922"/><text fill="#000000" font-family="sans-serif" font-size="13" font-weight="bold" lengthAdjust="spacing" textLength="7" x="145" y="352.2373">7</text><text fill="#000000" font-family="sans-serif" font-size="13" lengthAdjust="spacing" textLength="116" x="156" y="352.2373">confirms information</text><line style="stroke:#181818;stroke-width:1.0;" x1="651" x2="693" y1="385.5156" y2="385.5156"/><line style="stroke:#181818;stroke-width:1.0;" x1="693" x2="693" y1="385.5156" y2="398.5156"/><line style="stroke:#181818;stroke-width:1.0;" x1="652" x2="693" y1="398.5156" y2="398.5156"/><polygon fill="#181818" points="662,394.5156,652,398.5156,662,402.5156,658,398.5156" style="stroke:#181818;stroke-width:1.0;"/><text fill="#000000" font-family="sans-serif" font-size="13" font-weight="bold" lengthAdjust="spacing" textLength="7" x="658" y="380.7607">8</text><text fill="#000000" font-family="sans-serif" font-size="13" lengthAdjust="spacing" textLength="106" x="669" y="380.7607">verifies information</text><polygon fill="#181818" points="149,430.0391,139,434.0391,149,438.0391,145,434.0391" style="stroke:#181818;stroke-width:1.0;"/><line style="stroke:#181818;stroke-width:1.0;stroke-dasharray:2.0,2.0;" x1="143" x2="640" y1="434.0391" y2="434.0391"/><text fill="#000000" font-family="sans-serif" font-size="13" font-weight="bold" lengthAdjust="spacing" textLength="7" x="155" y="429.2842">9</text><text fill="#000000" font-family="sans-serif" font-size="13" lengthAdjust="spacing" textLength="121" x="166" y="429.2842">registers collaborator</text><polygon fill="#181818" points="149,458.5625,139,462.5625,149,466.5625,145,462.5625" style="stroke:#181818;stroke-width:1.0;"/><line style="stroke:#181818;stroke-width:1.0;stroke-dasharray:2.0,2.0;" x1="143" x2="645" y1="462.5625" y2="462.5625"/><text fill="#000000" font-family="sans-serif" font-size="13" font-weight="bold" lengthAdjust="spacing" textLength="14" x="155" y="457.8076">10</text><text fill="#000000" font-family="sans-serif" font-size="13" lengthAdjust="spacing" textLength="158" x="173" y="457.8076">displays operation success</text><!--SRC=[ZPGnZzim38Lt_meYKm8aG85k6JfTWLjkEQDR5qPcR3QIw8fo3ldtfUmabo1rKq-AH7ryxuMs7ZZsc310a2YkIn88SXgeqkj9Z-w0BTNvv0aIkOonzRS5sc4Z7nnRsADNgghCsKhhasOAKDFlWQ8ZU65iI_cohbzMi84VzPUlLOL3bZY47ILRkom95gz3m0Zlf38aHmfl6Ar_WkNh-zjg0QZmFVHUJaIL2SZikCUOOR6TEeuLqt94yX4pVLwfm9xBBzXyk-ZScZTJgbbjqRBcX9abWkm18T87EF4UTsBRaaR8bNrfDh7BSsPk37zjjOM6jVTuKWDwQp2YZyX6jRX-oGwSqLf9RAOnDf-2bBpbVbOZaSO-3JqAcFNcEX4zOoUQYRXfUPftv4LwW25czdSPc81iuesP28xekNdc7_MWiBURTnYEjXMci9SH0wtDk79JXcODJP5ZhdUSShS6R0Ahbj9oi8QVqM0nc_2hd6NVMKIZKmgsipA8k26GpKYXPjwpczgL6hPyfm5SpSKwcsezzBql_zQSeR-d-fzJCflItMoO_JrVJif4UG-vev8F_ilGp9nCD7qmCMlaOk86SgHa6TCzPAgc-7HAfhUFqdq0vrjF8fEUpg-j3iw-7JhTUepW3m00]--></g></svg>