<svg xmlns="http://www.w3.org/2000/svg" xmlns:xlink="http://www.w3.org/1999/xlink" contentStyleType="text/css" data-diagram-type="CLASS" height="616px" preserveAspectRatio="none" style="width:228px;height:616px;background:#FFFFFF;" version="1.1" viewBox="0 0 228 616" width="228px" zoomAndPan="magnify"><defs/><g><!--class User--><g class="entity" data-entity="User" data-source-line="5" data-uid="ent0002" id="entity_User"><rect fill="#F1F1F1" height="96.8906" rx="2.5" ry="2.5" style="stroke:#181818;stroke-width:0.5;" width="78.7119" x="55.5" y="7"/><ellipse cx="77.1608" cy="23" fill="#C2C2C2" rx="11" ry="11" style="stroke:#181818;stroke-width:1;"/><path d="M80.1295,28.6406 Q79.5514,28.9375 78.9108,29.0781 Q78.2702,29.2344 77.567,29.2344 Q75.067,29.2344 73.7389,27.5938 Q72.4264,25.9375 72.4264,22.8125 Q72.4264,19.6875 73.7389,18.0313 Q75.067,16.375 77.567,16.375 Q78.2702,16.375 78.9108,16.5313 Q79.567,16.6875 80.1295,16.9844 L80.1295,19.7031 Q79.5045,19.125 78.9108,18.8594 Q78.317,18.5781 77.692,18.5781 Q76.3483,18.5781 75.6608,19.6563 Q74.9733,20.7188 74.9733,22.8125 Q74.9733,24.9063 75.6608,25.9844 Q76.3483,27.0469 77.692,27.0469 Q78.317,27.0469 78.9108,26.7813 Q79.5045,26.5 80.1295,25.9219 L80.1295,28.6406 Z " fill="#000000"/><text fill="#000000" font-family="sans-serif" font-size="14" lengthAdjust="spacing" textLength="31.9102" x="92.641" y="27.8467">User</text><line style="stroke:#181818;stroke-width:0.5;" x1="56.5" x2="133.2119" y1="39" y2="39"/><text fill="#000000" font-family="sans-serif" font-size="14" lengthAdjust="spacing" textLength="39.7031" x="61.5" y="55.9951">name</text><text fill="#000000" font-family="sans-serif" font-size="14" lengthAdjust="spacing" textLength="38.6094" x="61.5" y="72.292">email</text><text fill="#000000" font-family="sans-serif" font-size="14" lengthAdjust="spacing" textLength="66.7119" x="61.5" y="88.5889">password</text><line style="stroke:#181818;stroke-width:0.5;" x1="56.5" x2="133.2119" y1="95.8906" y2="95.8906"/></g><!--class Role--><g class="entity" data-entity="Role" data-source-line="11" data-uid="ent0003" id="entity_Role"><rect fill="#F1F1F1" height="80.5938" rx="2.5" ry="2.5" style="stroke:#181818;stroke-width:0.5;" width="89.8408" x="7" y="189"/><ellipse cx="34.1702" cy="205" fill="#C2C2C2" rx="11" ry="11" style="stroke:#181818;stroke-width:1;"/><path d="M37.139,210.6406 Q36.5608,210.9375 35.9202,211.0781 Q35.2796,211.2344 34.5765,211.2344 Q32.0765,211.2344 30.7483,209.5938 Q29.4358,207.9375 29.4358,204.8125 Q29.4358,201.6875 30.7483,200.0313 Q32.0765,198.375 34.5765,198.375 Q35.2796,198.375 35.9202,198.5313 Q36.5765,198.6875 37.139,198.9844 L37.139,201.7031 Q36.514,201.125 35.9202,200.8594 Q35.3265,200.5781 34.7015,200.5781 Q33.3577,200.5781 32.6702,201.6563 Q31.9827,202.7188 31.9827,204.8125 Q31.9827,206.9063 32.6702,207.9844 Q33.3577,209.0469 34.7015,209.0469 Q35.3265,209.0469 35.9202,208.7813 Q36.514,208.5 37.139,207.9219 L37.139,210.6406 Z " fill="#000000"/><text fill="#000000" font-family="sans-serif" font-size="14" lengthAdjust="spacing" textLength="30.7959" x="50.8747" y="209.8467">Role</text><line style="stroke:#181818;stroke-width:0.5;" x1="8" x2="95.8408" y1="221" y2="221"/><text fill="#000000" font-family="sans-serif" font-size="14" lengthAdjust="spacing" textLength="39.7031" x="13" y="237.9951">name</text><text fill="#000000" font-family="sans-serif" font-size="14" lengthAdjust="spacing" textLength="77.8408" x="13" y="254.292">description</text><line style="stroke:#181818;stroke-width:0.5;" x1="8" x2="95.8408" y1="261.5938" y2="261.5938"/></g><!--class Map--><g class="entity" data-entity="Map" data-source-line="16" data-uid="ent0004" id="entity_Map"><rect fill="#F1F1F1" height="96.8906" rx="2.5" ry="2.5" style="stroke:#181818;stroke-width:0.5;" width="61.5449" x="132" y="181"/><ellipse cx="147" cy="197" fill="#C2C2C2" rx="11" ry="11" style="stroke:#181818;stroke-width:1;"/><path d="M149.9688,202.6406 Q149.3906,202.9375 148.75,203.0781 Q148.1094,203.2344 147.4063,203.2344 Q144.9063,203.2344 143.5781,201.5938 Q142.2656,199.9375 142.2656,196.8125 Q142.2656,193.6875 143.5781,192.0313 Q144.9063,190.375 147.4063,190.375 Q148.1094,190.375 148.75,190.5313 Q149.4063,190.6875 149.9688,190.9844 L149.9688,193.7031 Q149.3438,193.125 148.75,192.8594 Q148.1563,192.5781 147.5313,192.5781 Q146.1875,192.5781 145.5,193.6563 Q144.8125,194.7188 144.8125,196.8125 Q144.8125,198.9063 145.5,199.9844 Q146.1875,201.0469 147.5313,201.0469 Q148.1563,201.0469 148.75,200.7813 Q149.3438,200.5 149.9688,199.9219 L149.9688,202.6406 Z " fill="#000000"/><text fill="#000000" font-family="sans-serif" font-size="14" lengthAdjust="spacing" textLength="29.5449" x="161" y="201.8467">Map</text><line style="stroke:#181818;stroke-width:0.5;" x1="133" x2="192.5449" y1="213" y2="213"/><text fill="#000000" font-family="sans-serif" font-size="14" lengthAdjust="spacing" textLength="39.7031" x="138" y="229.9951">name</text><text fill="#000000" font-family="sans-serif" font-size="14" lengthAdjust="spacing" textLength="38.5889" x="138" y="246.292">width</text><text fill="#000000" font-family="sans-serif" font-size="14" lengthAdjust="spacing" textLength="44.625" x="138" y="262.5889">height</text><line style="stroke:#181818;stroke-width:0.5;" x1="133" x2="192.5449" y1="269.8906" y2="269.8906"/></g><!--class Station--><g class="entity" data-entity="Station" data-source-line="22" data-uid="ent0005" id="entity_Station"><rect fill="#F1F1F1" height="96.8906" rx="2.5" ry="2.5" style="stroke:#181818;stroke-width:0.5;" width="81.7725" x="122" y="355"/><ellipse cx="137" cy="371" fill="#C2C2C2" rx="11" ry="11" style="stroke:#181818;stroke-width:1;"/><path d="M139.9688,376.6406 Q139.3906,376.9375 138.75,377.0781 Q138.1094,377.2344 137.4063,377.2344 Q134.9063,377.2344 133.5781,375.5938 Q132.2656,373.9375 132.2656,370.8125 Q132.2656,367.6875 133.5781,366.0313 Q134.9063,364.375 137.4063,364.375 Q138.1094,364.375 138.75,364.5313 Q139.4063,364.6875 139.9688,364.9844 L139.9688,367.7031 Q139.3438,367.125 138.75,366.8594 Q138.1563,366.5781 137.5313,366.5781 Q136.1875,366.5781 135.5,367.6563 Q134.8125,368.7188 134.8125,370.8125 Q134.8125,372.9063 135.5,373.9844 Q136.1875,375.0469 137.5313,375.0469 Q138.1563,375.0469 138.75,374.7813 Q139.3438,374.5 139.9688,373.9219 L139.9688,376.6406 Z " fill="#000000"/><text fill="#000000" font-family="sans-serif" font-size="14" lengthAdjust="spacing" textLength="49.7725" x="151" y="375.8467">Station</text><line style="stroke:#181818;stroke-width:0.5;" x1="123" x2="202.7725" y1="387" y2="387"/><text fill="#000000" font-family="sans-serif" font-size="14" lengthAdjust="spacing" textLength="39.7031" x="128" y="403.9951">name</text><text fill="#000000" font-family="sans-serif" font-size="14" lengthAdjust="spacing" textLength="55.5488" x="128" y="420.292">location</text><text fill="#000000" font-family="sans-serif" font-size="14" lengthAdjust="spacing" textLength="65.7754" x="128" y="436.5889">upgrades</text><line style="stroke:#181818;stroke-width:0.5;" x1="123" x2="202.7725" y1="443.8906" y2="443.8906"/></g><!--class StationType--><g class="entity" data-entity="StationType" data-source-line="28" data-uid="ent0006" id="entity_StationType"><rect fill="#F1F1F1" height="80.5938" rx="2.5" ry="2.5" style="stroke:#181818;stroke-width:0.5;" width="116.1094" x="105" y="529"/><ellipse cx="120" cy="545" fill="#C2C2C2" rx="11" ry="11" style="stroke:#181818;stroke-width:1;"/><path d="M122.9688,550.6406 Q122.3906,550.9375 121.75,551.0781 Q121.1094,551.2344 120.4063,551.2344 Q117.9063,551.2344 116.5781,549.5938 Q115.2656,547.9375 115.2656,544.8125 Q115.2656,541.6875 116.5781,540.0313 Q117.9063,538.375 120.4063,538.375 Q121.1094,538.375 121.75,538.5313 Q122.4063,538.6875 122.9688,538.9844 L122.9688,541.7031 Q122.3438,541.125 121.75,540.8594 Q121.1563,540.5781 120.5313,540.5781 Q119.1875,540.5781 118.5,541.6563 Q117.8125,542.7188 117.8125,544.8125 Q117.8125,546.9063 118.5,547.9844 Q119.1875,549.0469 120.5313,549.0469 Q121.1563,549.0469 121.75,548.7813 Q122.3438,548.5 122.9688,547.9219 L122.9688,550.6406 Z " fill="#000000"/><text fill="#000000" font-family="sans-serif" font-size="14" lengthAdjust="spacing" textLength="84.1094" x="134" y="549.8467">StationType</text><line style="stroke:#181818;stroke-width:0.5;" x1="106" x2="220.1094" y1="561" y2="561"/><text fill="#000000" font-family="sans-serif" font-size="14" lengthAdjust="spacing" textLength="39.7031" x="111" y="577.9951">name</text><text fill="#000000" font-family="sans-serif" font-size="14" lengthAdjust="spacing" textLength="77.8408" x="111" y="594.292">description</text><line style="stroke:#181818;stroke-width:0.5;" x1="106" x2="220.1094" y1="601.5938" y2="601.5938"/></g><!--link User to Map--><g class="link" data-entity-1="User" data-entity-2="Map" data-source-line="33" data-uid="lnk7" id="link_User_Map"><path codeLine="33" d="M113.94,104.41 C123.37,128.27 134.74,157.02 144.16,180.85" fill="none" id="User-Map" style="stroke:#181818;stroke-width:1;"/><text fill="#000000" font-family="sans-serif" font-size="13" lengthAdjust="spacing" textLength="59.8584" x="132" y="147.0669">manages</text><text fill="#000000" font-family="sans-serif" font-size="13" lengthAdjust="spacing" textLength="8.271" x="107.9851" y="124.0733">1</text><text fill="#000000" font-family="sans-serif" font-size="13" lengthAdjust="spacing" textLength="6.5" x="135.1559" y="170.0378">*</text></g><!--link Map to Station--><g class="link" data-entity-1="Map" data-entity-2="Station" data-source-line="34" data-uid="lnk8" id="link_Map_Station"><path codeLine="34" d="M163,278.41 C163,302.27 163,331.02 163,354.85" fill="none" id="Map-Station" style="stroke:#181818;stroke-width:1;"/><text fill="#000000" font-family="sans-serif" font-size="13" lengthAdjust="spacing" textLength="55.0278" x="164" y="321.0669">contains</text><text fill="#000000" font-family="sans-serif" font-size="13" lengthAdjust="spacing" textLength="8.271" x="154.5113" y="298.0733">1</text><text fill="#000000" font-family="sans-serif" font-size="13" lengthAdjust="spacing" textLength="6.5" x="156.6293" y="344.0378">*</text></g><!--link Station to StationType--><g class="link" data-entity-1="Station" data-entity-2="StationType" data-source-line="35" data-uid="lnk9" id="link_Station_StationType"><path codeLine="35" d="M163,452.38 C163,476.67 163,505.84 163,528.86" fill="none" id="Station-StationType" style="stroke:#181818;stroke-width:1;"/><text fill="#000000" font-family="sans-serif" font-size="13" lengthAdjust="spacing" textLength="22.9785" x="164" y="495.0669">has</text><text fill="#000000" font-family="sans-serif" font-size="13" lengthAdjust="spacing" textLength="6.5" x="156.6458" y="472.0392">*</text><text fill="#000000" font-family="sans-serif" font-size="13" lengthAdjust="spacing" textLength="8.271" x="154.3509" y="517.9983">1</text></g><!--link User to Role--><g class="link" data-entity-1="User" data-entity-2="Role" data-source-line="36" data-uid="lnk10" id="link_User_Role"><path codeLine="36" d="M80.17,104.29 C77.31,114.08 74.45,124.34 72,134 C67.46,151.88 63.13,171.84 59.67,188.8" fill="none" id="User-Role" style="stroke:#181818;stroke-width:1;"/><text fill="#000000" font-family="sans-serif" font-size="13" lengthAdjust="spacing" textLength="22.9785" x="73" y="147.0669">has</text><text fill="#000000" font-family="sans-serif" font-size="13" lengthAdjust="spacing" textLength="8.271" x="69.6773" y="123.9371">1</text><text fill="#000000" font-family="sans-serif" font-size="13" lengthAdjust="spacing" textLength="6.5" x="54.4981" y="177.9284">*</text></g><!--SRC=[TP11RWCX34NtdC9YMIcBRESEsJJj0Ip61HIm4IOQHLNlNXWb3LBKrKVyn_V7UebSi6A6B2mkLCa4hLx9w9zJq5tGqxdT4a4brv1zcW4DkCeMsSCN9YLZN49L-5Igy6q063DreOmnTItTtAIkvkT1lakY2Ln9NOsbHU4dSy8oXsrnRQ5heEX3UsBdXkFTZ2Pn-rq_NeklsEDV-8zR8VY_mluLUxHmE81ziwFC0XcvhqNDQ3PvzyG5d733o6eUdOOxeAETnouGK5ycZ9NipYy0]--></g></svg>