<?xml version="1.0" encoding="us-ascii" standalone="no"?><svg xmlns="http://www.w3.org/2000/svg" xmlns:xlink="http://www.w3.org/1999/xlink" contentStyleType="text/css" height="633px" preserveAspectRatio="none" style="width:609px;height:633px;background:#FFFFFF;" version="1.1" viewBox="0 0 609 633" width="609px" zoomAndPan="magnify"><defs/><g><text fill="#000000" font-family="sans-serif" font-size="14" font-weight="bold" lengthAdjust="spacing" textLength="249" x="181.5" y="30.1074">System Sequence Diagram for US29</text><rect fill="#FFFFFF" height="407.7832" style="stroke:#181818;stroke-width:1.0;" width="10" x="57" y="133.2422"/><rect fill="#FFFFFF" height="57.582" style="stroke:#181818;stroke-width:1.0;" width="10" x="449" y="156.5332"/><rect fill="#FFFFFF" height="31.291" style="stroke:#181818;stroke-width:1.0;" width="10" x="449" y="245.4063"/><rect fill="#FFFFFF" height="224.0371" style="stroke:#181818;stroke-width:1.0;" width="10" x="449" y="307.9883"/><rect fill="none" height="188.7461" style="stroke:#000000;stroke-width:1.5;" width="593" x="10" y="171.5332"/><line style="stroke:#181818;stroke-width:0.5;stroke-dasharray:5.0,5.0;" x1="62" x2="62" y1="123.2422" y2="550.0254"/><line style="stroke:#181818;stroke-width:0.5;stroke-dasharray:5.0,5.0;" x1="454" x2="454" y1="123.2422" y2="550.0254"/><text fill="#000000" font-family="sans-serif" font-size="14" lengthAdjust="spacing" textLength="78" x="20" y="119.7285">Collaborator</text><ellipse cx="62" cy="53.1211" fill="#E3E3E3" rx="8" ry="8" style="stroke:#181818;stroke-width:0.5;"/><path d="M62,61.1211 L62,88.1211 M49,69.1211 L75,69.1211 M62,88.1211 L49,103.1211 M62,88.1211 L75,103.1211 " fill="none" style="stroke:#181818;stroke-width:0.5;"/><text fill="#000000" font-family="sans-serif" font-size="14" lengthAdjust="spacing" textLength="78" x="20" y="564.1328">Collaborator</text><ellipse cx="62" cy="576.1465" fill="#E3E3E3" rx="8" ry="8" style="stroke:#181818;stroke-width:0.5;"/><path d="M62,584.1465 L62,611.1465 M49,592.1465 L75,592.1465 M62,611.1465 L49,626.1465 M62,611.1465 L75,626.1465 " fill="none" style="stroke:#181818;stroke-width:0.5;"/><rect fill="#E3E3E3" height="32.6211" rx="2.5" ry="2.5" style="stroke:#181818;stroke-width:0.5;" width="64" x="422" y="89.6211"/><text fill="#000000" font-family="sans-serif" font-size="14" lengthAdjust="spacing" textLength="50" x="429" y="111.7285">:System</text><rect fill="#E3E3E3" height="32.6211" rx="2.5" ry="2.5" style="stroke:#181818;stroke-width:0.5;" width="64" x="422" y="549.0254"/><text fill="#000000" font-family="sans-serif" font-size="14" lengthAdjust="spacing" textLength="50" x="429" y="571.1328">:System</text><rect fill="#FFFFFF" height="407.7832" style="stroke:#181818;stroke-width:1.0;" width="10" x="57" y="133.2422"/><rect fill="#FFFFFF" height="57.582" style="stroke:#181818;stroke-width:1.0;" width="10" x="449" y="156.5332"/><rect fill="#FFFFFF" height="31.291" style="stroke:#181818;stroke-width:1.0;" width="10" x="449" y="245.4063"/><rect fill="#FFFFFF" height="224.0371" style="stroke:#181818;stroke-width:1.0;" width="10" x="449" y="307.9883"/><polygon fill="#181818" points="437,152.5332,447,156.5332,437,160.5332,441,156.5332" style="stroke:#181818;stroke-width:1.0;"/><line style="stroke:#181818;stroke-width:1.0;" x1="67" x2="443" y1="156.5332" y2="156.5332"/><text fill="#000000" font-family="sans-serif" font-size="13" font-weight="bold" lengthAdjust="spacing" textLength="7" x="74" y="151.2705">1</text><text fill="#000000" font-family="sans-serif" font-size="13" lengthAdjust="spacing" textLength="315" x="85" y="151.2705">requests to consult assigned tasks between two dates</text><path d="M10,171.5332 L83,171.5332 L83,180.8242 L73,190.8242 L10,190.8242 L10,171.5332 " fill="#EEEEEE" style="stroke:#000000;stroke-width:1.5;"/><rect fill="none" height="188.7461" style="stroke:#000000;stroke-width:1.5;" width="593" x="10" y="171.5332"/><text fill="#000000" font-family="sans-serif" font-size="13" font-weight="bold" lengthAdjust="spacing" textLength="28" x="25" y="186.5615">loop</text><text fill="#000000" font-family="sans-serif" font-size="11" font-weight="bold" lengthAdjust="spacing" textLength="179" x="98" y="185.4033">[until all information is validated]</text><polygon fill="#181818" points="78,210.1152,68,214.1152,78,218.1152,74,214.1152" style="stroke:#181818;stroke-width:1.0;"/><line style="stroke:#181818;stroke-width:1.0;stroke-dasharray:2.0,2.0;" x1="72" x2="453" y1="214.1152" y2="214.1152"/><text fill="#000000" font-family="sans-serif" font-size="13" font-weight="bold" lengthAdjust="spacing" textLength="7" x="84" y="208.8525">2</text><text fill="#000000" font-family="sans-serif" font-size="13" lengthAdjust="spacing" textLength="181" x="95" y="208.8525">prompts for start and end dates</text><polygon fill="#181818" points="437,241.4063,447,245.4063,437,249.4063,441,245.4063" style="stroke:#181818;stroke-width:1.0;"/><line style="stroke:#181818;stroke-width:1.0;" x1="67" x2="443" y1="245.4063" y2="245.4063"/><text fill="#000000" font-family="sans-serif" font-size="13" font-weight="bold" lengthAdjust="spacing" textLength="7" x="74" y="240.1436">3</text><text fill="#000000" font-family="sans-serif" font-size="13" lengthAdjust="spacing" textLength="163" x="85" y="240.1436">provides start and end dates</text><polygon fill="#181818" points="78,272.6973,68,276.6973,78,280.6973,74,276.6973" style="stroke:#181818;stroke-width:1.0;"/><line style="stroke:#181818;stroke-width:1.0;stroke-dasharray:2.0,2.0;" x1="72" x2="453" y1="276.6973" y2="276.6973"/><text fill="#000000" font-family="sans-serif" font-size="13" font-weight="bold" lengthAdjust="spacing" textLength="7" x="84" y="271.4346">4</text><text fill="#000000" font-family="sans-serif" font-size="13" lengthAdjust="spacing" textLength="144" x="95" y="271.4346">asks to select the status</text><polygon fill="#181818" points="437,303.9883,447,307.9883,437,311.9883,441,307.9883" style="stroke:#181818;stroke-width:1.0;"/><line style="stroke:#181818;stroke-width:1.0;" x1="67" x2="443" y1="307.9883" y2="307.9883"/><text fill="#000000" font-family="sans-serif" font-size="13" font-weight="bold" lengthAdjust="spacing" textLength="7" x="74" y="302.7256">5</text><text fill="#000000" font-family="sans-serif" font-size="13" lengthAdjust="spacing" textLength="82" x="85" y="302.7256">selects status</text><line style="stroke:#181818;stroke-width:1.0;" x1="459" x2="501" y1="339.2793" y2="339.2793"/><line style="stroke:#181818;stroke-width:1.0;" x1="501" x2="501" y1="339.2793" y2="352.2793"/><line style="stroke:#181818;stroke-width:1.0;" x1="460" x2="501" y1="352.2793" y2="352.2793"/><polygon fill="#181818" points="470,348.2793,460,352.2793,470,356.2793,466,352.2793" style="stroke:#181818;stroke-width:1.0;"/><text fill="#000000" font-family="sans-serif" font-size="13" font-weight="bold" lengthAdjust="spacing" textLength="7" x="466" y="334.0166">6</text><text fill="#000000" font-family="sans-serif" font-size="13" lengthAdjust="spacing" textLength="114" x="477" y="334.0166">Validate information</text><polygon fill="#181818" points="78,403.8613,68,407.8613,78,411.8613,74,407.8613" style="stroke:#181818;stroke-width:1.0;"/><line style="stroke:#181818;stroke-width:1.0;stroke-dasharray:2.0,2.0;" x1="72" x2="448" y1="407.8613" y2="407.8613"/><text fill="#000000" font-family="sans-serif" font-size="13" font-weight="bold" lengthAdjust="spacing" textLength="7" x="84" y="393.9531">7</text><text fill="#000000" font-family="sans-serif" font-size="13" lengthAdjust="spacing" textLength="301" x="95" y="385.3076">Displays a list containing details about the assigned</text><text fill="#000000" font-family="sans-serif" font-size="13" lengthAdjust="spacing" textLength="260" x="99" y="402.5986">tasks, including the name, date, and location</text><polygon fill="#181818" points="437,435.1523,447,439.1523,437,443.1523,441,439.1523" style="stroke:#181818;stroke-width:1.0;"/><line style="stroke:#181818;stroke-width:1.0;" x1="67" x2="443" y1="439.1523" y2="439.1523"/><text fill="#000000" font-family="sans-serif" font-size="13" font-weight="bold" lengthAdjust="spacing" textLength="7" x="74" y="433.8896">8</text><text fill="#000000" font-family="sans-serif" font-size="13" lengthAdjust="spacing" textLength="298" x="85" y="433.8896">Marks the task as done and provides the finish time</text><line style="stroke:#181818;stroke-width:1.0;" x1="459" x2="501" y1="470.4434" y2="470.4434"/><line style="stroke:#181818;stroke-width:1.0;" x1="501" x2="501" y1="470.4434" y2="483.4434"/><line style="stroke:#181818;stroke-width:1.0;" x1="460" x2="501" y1="483.4434" y2="483.4434"/><polygon fill="#181818" points="470,479.4434,460,483.4434,470,487.4434,466,483.4434" style="stroke:#181818;stroke-width:1.0;"/><text fill="#000000" font-family="sans-serif" font-size="13" font-weight="bold" lengthAdjust="spacing" textLength="7" x="466" y="465.1807">9</text><text fill="#000000" font-family="sans-serif" font-size="13" lengthAdjust="spacing" textLength="114" x="477" y="465.1807">Validate information</text><polygon fill="#181818" points="78,528.0254,68,532.0254,78,536.0254,74,532.0254" style="stroke:#181818;stroke-width:1.0;"/><line style="stroke:#181818;stroke-width:1.0;stroke-dasharray:2.0,2.0;" x1="72" x2="453" y1="532.0254" y2="532.0254"/><text fill="#000000" font-family="sans-serif" font-size="13" font-weight="bold" lengthAdjust="spacing" textLength="14" x="84" y="518.1172">10</text><text fill="#000000" font-family="sans-serif" font-size="13" lengthAdjust="spacing" textLength="340" x="102" y="509.4717">Displays updated list containing details about the assigned</text><text fill="#000000" font-family="sans-serif" font-size="13" lengthAdjust="spacing" textLength="260" x="106" y="526.7627">tasks, including the name, date, and location</text><!--SRC=[jL8xZzim3DxzAuZCkUMsPkZIMpi5xTI5aHY7Y4ov9fKW_xwK7QU-vbujK0C6P8dwNlxqoDBZW1rqMN8u3BaZiA5GexUJ7iCHMzhQ9H4C50obJSi1FM3CPvOMzfYKciROV7HxKQCEjlIpa0I29yQsZk_p0D-sZv-Q1ejbATsE1by7y_tLbvmIxlA0_hK2L5XkDCvd7BX7CLXj9e9nQbgEA7n2e-VN6l1dkGCFdsTv6xVa0jKKB4F8eYMPGogtGX4CzQYm8piJ2TWvGtHu7H5lP5Vsb7CFHOmJO4h0uauxDCu2h732nFLkdEHSwHzSoJDb6-Zz9_Gkf-Qaveu19GBv-viwqf_aRtjqp1D7qbS1x-0cmBULZjbuQah9Qm5se8flvTyqJYWwGxmiQobelhk1xzTibvbFi-xo8qwUMFk45mM4n6gr1uOijTEHV9NyP9VBv74knm-Pwh5ssf1AhDFrNB2ZzPZjUamwvJ0fcdMy6i5N76gYZb61Qx5Z5Xf1Rd-mdkvTcXx0kADxT-_4yXTXb7uixF-EvAuelm00]--></g></svg>