<svg xmlns="http://www.w3.org/2000/svg" xmlns:xlink="http://www.w3.org/1999/xlink" contentStyleType="text/css" height="706px" preserveAspectRatio="none" style="width:1761px;height:706px;background:#FFFFFF;" version="1.1" viewBox="0 0 1761 706" width="1761px" zoomAndPan="magnify"><defs/><g><rect fill="#F9E79F" height="348.832" style="stroke:#000000;stroke-width:1.5;" width="1744.8105" x="10" y="257.0762"/><rect fill="#F9E79F" height="173.0859" style="stroke:none;stroke-width:1.0;" width="1744.8105" x="10" y="432.8223"/><line style="stroke:#181818;stroke-width:0.5;stroke-dasharray:5.0,5.0;" x1="70" x2="70" y1="83.6211" y2="622.9082"/><line style="stroke:#181818;stroke-width:0.5;stroke-dasharray:5.0,5.0;" x1="581.9746" x2="581.9746" y1="83.6211" y2="622.9082"/><line style="stroke:#181818;stroke-width:0.5;stroke-dasharray:5.0,5.0;" x1="1060.8203" x2="1060.8203" y1="83.6211" y2="622.9082"/><line style="stroke:#181818;stroke-width:0.5;stroke-dasharray:5.0,5.0;" x1="1542.5347" x2="1542.5347" y1="83.6211" y2="622.9082"/><line style="stroke:#181818;stroke-width:0.5;stroke-dasharray:5.0,5.0;" x1="1684.2109" x2="1684.2109" y1="83.6211" y2="622.9082"/><text fill="#000000" font-family="sans-serif" font-size="14" lengthAdjust="spacing" textLength="94.9375" x="20" y="80.1074">Show Designer</text><ellipse cx="70.4688" cy="13.5" fill="#E2E2F0" rx="8" ry="8" style="stroke:#181818;stroke-width:0.5;"/><path d="M70.4688,21.5 L70.4688,48.5 M57.4688,29.5 L83.4688,29.5 M70.4688,48.5 L57.4688,63.5 M70.4688,48.5 L83.4688,63.5 " fill="none" style="stroke:#181818;stroke-width:0.5;"/><text fill="#000000" font-family="sans-serif" font-size="14" lengthAdjust="spacing" textLength="94.9375" x="20" y="637.0156">Show Designer</text><ellipse cx="70.4688" cy="649.0293" fill="#E2E2F0" rx="8" ry="8" style="stroke:#181818;stroke-width:0.5;"/><path d="M70.4688,657.0293 L70.4688,684.0293 M57.4688,665.0293 L83.4688,665.0293 M70.4688,684.0293 L57.4688,699.0293 M70.4688,684.0293 L83.4688,699.0293 " fill="none" style="stroke:#181818;stroke-width:0.5;"/><rect fill="#E2E2F0" height="32.6211" rx="2.5" ry="2.5" style="stroke:#181818;stroke-width:0.5;" width="156.4199" x="503.9746" y="50"/><text fill="#000000" font-family="sans-serif" font-size="14" lengthAdjust="spacing" textLength="142.4199" x="510.9746" y="72.1074">AddFigureCatalogueUI</text><rect fill="#E2E2F0" height="32.6211" rx="2.5" ry="2.5" style="stroke:#181818;stroke-width:0.5;" width="156.4199" x="503.9746" y="621.9082"/><text fill="#000000" font-family="sans-serif" font-size="14" lengthAdjust="spacing" textLength="142.4199" x="510.9746" y="644.0156">AddFigureCatalogueUI</text><rect fill="#E2E2F0" height="32.6211" rx="2.5" ry="2.5" style="stroke:#181818;stroke-width:0.5;" width="203.1094" x="959.8203" y="50"/><text fill="#000000" font-family="sans-serif" font-size="14" lengthAdjust="spacing" textLength="189.1094" x="966.8203" y="72.1074">AddFigureCatalogueController</text><rect fill="#E2E2F0" height="32.6211" rx="2.5" ry="2.5" style="stroke:#181818;stroke-width:0.5;" width="203.1094" x="959.8203" y="621.9082"/><text fill="#000000" font-family="sans-serif" font-size="14" lengthAdjust="spacing" textLength="189.1094" x="966.8203" y="644.0156">AddFigureCatalogueController</text><rect fill="#E2E2F0" height="32.6211" rx="2.5" ry="2.5" style="stroke:#181818;stroke-width:0.5;" width="100.3652" x="1492.5347" y="50"/><text fill="#000000" font-family="sans-serif" font-size="14" lengthAdjust="spacing" textLength="86.3652" x="1499.5347" y="72.1074">FigureService</text><rect fill="#E2E2F0" height="32.6211" rx="2.5" ry="2.5" style="stroke:#181818;stroke-width:0.5;" width="100.3652" x="1492.5347" y="621.9082"/><text fill="#000000" font-family="sans-serif" font-size="14" lengthAdjust="spacing" textLength="86.3652" x="1499.5347" y="644.0156">FigureService</text><rect fill="#E2E2F0" height="32.6211" rx="2.5" ry="2.5" style="stroke:#181818;stroke-width:0.5;" width="120.5996" x="1624.2109" y="50"/><text fill="#000000" font-family="sans-serif" font-size="14" lengthAdjust="spacing" textLength="106.5996" x="1631.2109" y="72.1074">FigureRepository</text><rect fill="#E2E2F0" height="32.6211" rx="2.5" ry="2.5" style="stroke:#181818;stroke-width:0.5;" width="120.5996" x="1624.2109" y="621.9082"/><text fill="#000000" font-family="sans-serif" font-size="14" lengthAdjust="spacing" textLength="106.5996" x="1631.2109" y="644.0156">FigureRepository</text><polygon fill="#181818" points="570.1846,112.9121,580.1846,116.9121,570.1846,120.9121,574.1846,116.9121" style="stroke:#181818;stroke-width:1.0;"/><line style="stroke:#181818;stroke-width:1.0;" x1="70.4688" x2="576.1846" y1="116.9121" y2="116.9121"/><text fill="#000000" font-family="sans-serif" font-size="13" lengthAdjust="spacing" textLength="209.5869" x="77.4688" y="111.6494">asks to add a figure to the catalogue</text><polygon fill="#181818" points="81.4688,144.2031,71.4688,148.2031,81.4688,152.2031,77.4688,148.2031" style="stroke:#181818;stroke-width:1.0;"/><line style="stroke:#181818;stroke-width:1.0;" x1="75.4688" x2="581.1846" y1="148.2031" y2="148.2031"/><text fill="#000000" font-family="sans-serif" font-size="13" lengthAdjust="spacing" textLength="487.7158" x="87.4688" y="142.9404">asks to enter the code, description, version, dsl version, visibility, category, keywords</text><polygon fill="#181818" points="570.1846,175.4941,580.1846,179.4941,570.1846,183.4941,574.1846,179.4941" style="stroke:#181818;stroke-width:1.0;"/><line style="stroke:#181818;stroke-width:1.0;" x1="70.4688" x2="576.1846" y1="179.4941" y2="179.4941"/><text fill="#000000" font-family="sans-serif" font-size="13" lengthAdjust="spacing" textLength="157.5234" x="77.4688" y="174.2314">insert the figure information</text><polygon fill="#181818" points="1049.375,206.7852,1059.375,210.7852,1049.375,214.7852,1053.375,210.7852" style="stroke:#181818;stroke-width:1.0;"/><line style="stroke:#181818;stroke-width:1.0;" x1="582.1846" x2="1055.375" y1="210.7852" y2="210.7852"/><text fill="#000000" font-family="sans-serif" font-size="13" lengthAdjust="spacing" textLength="455.1904" x="589.1846" y="205.5225">addFigure(code, description, version, dsl version, visibility, category, keywords)</text><polygon fill="#181818" points="1530.7173,238.0762,1540.7173,242.0762,1530.7173,246.0762,1534.7173,242.0762" style="stroke:#181818;stroke-width:1.0;"/><line style="stroke:#181818;stroke-width:1.0;" x1="1061.375" x2="1536.7173" y1="242.0762" y2="242.0762"/><text fill="#000000" font-family="sans-serif" font-size="13" lengthAdjust="spacing" textLength="457.3423" x="1068.375" y="236.8135">registerFigure(code, desc, version, versionDSL, visibility, categoryId, keywords)</text><path d="M10,257.0762 L70.1709,257.0762 L70.1709,266.3672 L60.1709,276.3672 L10,276.3672 L10,257.0762 " fill="#EEEEEE" style="stroke:#000000;stroke-width:1.5;"/><rect fill="none" height="348.832" style="stroke:#000000;stroke-width:1.5;" width="1744.8105" x="10" y="257.0762"/><text fill="#000000" font-family="sans-serif" font-size="13" font-weight="bold" lengthAdjust="spacing" textLength="15.1709" x="25" y="272.1045">alt</text><text fill="#000000" font-family="sans-serif" font-size="11" font-weight="bold" lengthAdjust="spacing" textLength="190.1045" x="85.1709" y="270.9463">[figure with this code already exists]</text><polygon fill="#181818" points="1672.5107,295.6582,1682.5107,299.6582,1672.5107,303.6582,1676.5107,299.6582" style="stroke:#181818;stroke-width:1.0;"/><line style="stroke:#181818;stroke-width:1.0;" x1="1542.7173" x2="1678.5107" y1="299.6582" y2="299.6582"/><text fill="#000000" font-family="sans-serif" font-size="13" lengthAdjust="spacing" textLength="62.8481" x="1549.7173" y="294.3955">isPresent()</text><polygon fill="#181818" points="1553.7173,326.9492,1543.7173,330.9492,1553.7173,334.9492,1549.7173,330.9492" style="stroke:#181818;stroke-width:1.0;"/><line style="stroke:#181818;stroke-width:1.0;stroke-dasharray:2.0,2.0;" x1="1547.7173" x2="1683.5107" y1="330.9492" y2="330.9492"/><text fill="#000000" font-family="sans-serif" font-size="13" lengthAdjust="spacing" textLength="117.7935" x="1559.7173" y="325.6865">Existing figure found</text><polygon fill="#181818" points="1072.375,358.2402,1062.375,362.2402,1072.375,366.2402,1068.375,362.2402" style="stroke:#181818;stroke-width:1.0;"/><line style="stroke:#181818;stroke-width:1.0;stroke-dasharray:2.0,2.0;" x1="1066.375" x2="1541.7173" y1="362.2402" y2="362.2402"/><text fill="#000000" font-family="sans-serif" font-size="13" lengthAdjust="spacing" textLength="182.8188" x="1078.375" y="356.9775">throw IllegalArgumentException</text><polygon fill="#181818" points="593.1846,389.5313,583.1846,393.5313,593.1846,397.5313,589.1846,393.5313" style="stroke:#181818;stroke-width:1.0;"/><line style="stroke:#181818;stroke-width:1.0;stroke-dasharray:2.0,2.0;" x1="587.1846" x2="1060.375" y1="393.5313" y2="393.5313"/><text fill="#000000" font-family="sans-serif" font-size="13" lengthAdjust="spacing" textLength="119.939" x="599.1846" y="388.2686">Show error message</text><polygon fill="#181818" points="81.4688,420.8223,71.4688,424.8223,81.4688,428.8223,77.4688,424.8223" style="stroke:#181818;stroke-width:1.0;"/><line style="stroke:#181818;stroke-width:1.0;" x1="75.4688" x2="581.1846" y1="424.8223" y2="424.8223"/><text fill="#000000" font-family="sans-serif" font-size="13" lengthAdjust="spacing" textLength="73.6836" x="87.4688" y="419.5596">Display error</text><line style="stroke:#000000;stroke-width:1.0;stroke-dasharray:2.0,2.0;" x1="10" x2="1754.8105" y1="433.8223" y2="433.8223"/><text fill="#000000" font-family="sans-serif" font-size="11" font-weight="bold" lengthAdjust="spacing" textLength="130.77" x="15" y="445.6924">[figure with unique code]</text><polygon fill="#181818" points="1672.5107,468.7441,1682.5107,472.7441,1672.5107,476.7441,1676.5107,472.7441" style="stroke:#181818;stroke-width:1.0;"/><line style="stroke:#181818;stroke-width:1.0;" x1="1542.7173" x2="1678.5107" y1="472.7441" y2="472.7441"/><text fill="#000000" font-family="sans-serif" font-size="13" lengthAdjust="spacing" textLength="96.8145" x="1549.7173" y="467.4814">save(newFigure)</text><polygon fill="#181818" points="1553.7173,500.0352,1543.7173,504.0352,1553.7173,508.0352,1549.7173,504.0352" style="stroke:#181818;stroke-width:1.0;"/><line style="stroke:#181818;stroke-width:1.0;stroke-dasharray:2.0,2.0;" x1="1547.7173" x2="1683.5107" y1="504.0352" y2="504.0352"/><text fill="#000000" font-family="sans-serif" font-size="13" lengthAdjust="spacing" textLength="70.8081" x="1559.7173" y="498.7725">confirmation</text><polygon fill="#181818" points="1072.375,531.3262,1062.375,535.3262,1072.375,539.3262,1068.375,535.3262" style="stroke:#181818;stroke-width:1.0;"/><line style="stroke:#181818;stroke-width:1.0;stroke-dasharray:2.0,2.0;" x1="1066.375" x2="1541.7173" y1="535.3262" y2="535.3262"/><text fill="#000000" font-family="sans-serif" font-size="13" lengthAdjust="spacing" textLength="46.96" x="1078.375" y="530.0635">success</text><polygon fill="#181818" points="593.1846,562.6172,583.1846,566.6172,593.1846,570.6172,589.1846,566.6172" style="stroke:#181818;stroke-width:1.0;"/><line style="stroke:#181818;stroke-width:1.0;stroke-dasharray:2.0,2.0;" x1="587.1846" x2="1060.375" y1="566.6172" y2="566.6172"/><text fill="#000000" font-family="sans-serif" font-size="13" lengthAdjust="spacing" textLength="103.3208" x="599.1846" y="561.3545">success message</text><polygon fill="#181818" points="81.4688,593.9082,71.4688,597.9082,81.4688,601.9082,77.4688,597.9082" style="stroke:#181818;stroke-width:1.0;"/><line style="stroke:#181818;stroke-width:1.0;" x1="75.4688" x2="581.1846" y1="597.9082" y2="597.9082"/><text fill="#000000" font-family="sans-serif" font-size="13" lengthAdjust="spacing" textLength="91.0381" x="87.4688" y="592.6455">display success</text><!--SRC=[hLDDRzim3BtxLn3P9GNIyz0T1hJv00BiC2pe3z0inY6YI1uf9pM6_VTHifCuQU5TTXEbHxx7Hr7sv6l3vW2EFCQsHWWSTw6GoqDjohsf47uN02zwhZWqtiw32moVLa_Bpq-hz1BO8dUtBqvXnP-YC6NKSBBPXHCiKAZoo1Cm0fj5eSKZbLGR7s7oREsAgePnRg9neMhmTPs1h-j_0UV1HmxEzPMluMrYbxL1FbA9dORk_17i1zP1IBMt6Pd2Gdi4rGsFNrKKVD7xlK0COAm50zkSb-AuGoZFudAImZL9Kwz9w2Do1mqMPs1HIgOwKl0pE29BFbXnr-18GZ_9KMndgJvMgcu6UsnFwhpSgoClo34pzDB8RmCVJA8OgBhQfKcfbyw0wN-IzP2f1YJ9YCvtvMEiIDI8Tvm3ilwms7pxc6jjxzcCY-UUJnHtwW59jbbV68rj0T-KjhCiszOBKcrfqiaz-SueEgJfmmMLdnvlz2zJ7VBLcMwR5kDzsNkRuuvr7zOQLSOzSzKSb6dvLc9z6SwzQ-Unvar2Pjsg0uheMbxWWr-s8AcTQJjW1g0Jl36byVIhwNxVY0zYZZZrUEe6DEf56VoMXlzhr09fobBrZ_RQOyOQjNsZmtAe8_WB]--></g></svg>