<?xml version="1.0" encoding="us-ascii" standalone="no"?><svg xmlns="http://www.w3.org/2000/svg" xmlns:xlink="http://www.w3.org/1999/xlink" contentStyleType="text/css" height="797px" preserveAspectRatio="none" style="width:1470px;height:797px;background:#FFFFFF;" version="1.1" viewBox="0 0 1470 797" width="1470px" zoomAndPan="magnify"><defs/><g><text fill="#000000" font-family="sans-serif" font-size="14" font-weight="bold" lengthAdjust="spacing" textLength="267" x="601.25" y="30.1074">Sequence Diagram - US340 DSL Plugin</text><rect fill="#FFFFFF" height="562.9473" style="stroke:#181818;stroke-width:1.0;" width="10" x="17.5" y="133.2422"/><rect fill="#FFFFFF" height="562.9473" style="stroke:#181818;stroke-width:1.0;" width="10" x="184.5" y="133.2422"/><rect fill="#FFFFFF" height="93.873" style="stroke:#181818;stroke-width:1.0;" width="10" x="367.5" y="187.8242"/><rect fill="#FFFFFF" height="62.582" style="stroke:#181818;stroke-width:1.0;" width="10" x="550.5" y="219.1152"/><rect fill="#FFFFFF" height="383.2012" style="stroke:#181818;stroke-width:1.0;" width="10" x="911" y="312.9883"/><line style="stroke:#181818;stroke-width:0.5;stroke-dasharray:5.0,5.0;" x1="22" x2="22" y1="123.2422" y2="714.1895"/><line style="stroke:#181818;stroke-width:0.5;stroke-dasharray:5.0,5.0;" x1="189.5" x2="189.5" y1="123.2422" y2="714.1895"/><line style="stroke:#181818;stroke-width:0.5;stroke-dasharray:5.0,5.0;" x1="372.5" x2="372.5" y1="123.2422" y2="714.1895"/><line style="stroke:#181818;stroke-width:0.5;stroke-dasharray:5.0,5.0;" x1="555.5" x2="555.5" y1="123.2422" y2="714.1895"/><line style="stroke:#181818;stroke-width:0.5;stroke-dasharray:5.0,5.0;" x1="698" x2="698" y1="123.2422" y2="714.1895"/><line style="stroke:#181818;stroke-width:0.5;stroke-dasharray:5.0,5.0;" x1="797" x2="797" y1="123.2422" y2="714.1895"/><line style="stroke:#181818;stroke-width:0.5;stroke-dasharray:5.0,5.0;" x1="916" x2="916" y1="123.2422" y2="714.1895"/><line style="stroke:#181818;stroke-width:0.5;stroke-dasharray:5.0,5.0;" x1="1106.5" x2="1106.5" y1="123.2422" y2="714.1895"/><line style="stroke:#181818;stroke-width:0.5;stroke-dasharray:5.0,5.0;" x1="1205.5" x2="1205.5" y1="123.2422" y2="714.1895"/><line style="stroke:#181818;stroke-width:0.5;stroke-dasharray:5.0,5.0;" x1="1341.5" x2="1341.5" y1="123.2422" y2="714.1895"/><text fill="#000000" font-family="sans-serif" font-size="14" lengthAdjust="spacing" textLength="29" x="5" y="119.7285">User</text><ellipse cx="22.5" cy="53.1211" fill="#E2E2F0" rx="8" ry="8" style="stroke:#181818;stroke-width:0.5;"/><path d="M22.5,61.1211 L22.5,88.1211 M9.5,69.1211 L35.5,69.1211 M22.5,88.1211 L9.5,103.1211 M22.5,88.1211 L35.5,103.1211 " fill="none" style="stroke:#181818;stroke-width:0.5;"/><text fill="#000000" font-family="sans-serif" font-size="14" lengthAdjust="spacing" textLength="29" x="5" y="728.2969">User</text><ellipse cx="22.5" cy="740.3105" fill="#E2E2F0" rx="8" ry="8" style="stroke:#181818;stroke-width:0.5;"/><path d="M22.5,748.3105 L22.5,775.3105 M9.5,756.3105 L35.5,756.3105 M22.5,775.3105 L9.5,790.3105 M22.5,775.3105 L35.5,790.3105 " fill="none" style="stroke:#181818;stroke-width:0.5;"/><rect fill="#E2E2F0" height="32.6211" rx="2.5" ry="2.5" style="stroke:#181818;stroke-width:0.5;" width="106" x="136.5" y="89.6211"/><text fill="#000000" font-family="sans-serif" font-size="14" lengthAdjust="spacing" textLength="92" x="143.5" y="111.7285">FigurePluginUI</text><rect fill="#E2E2F0" height="32.6211" rx="2.5" ry="2.5" style="stroke:#181818;stroke-width:0.5;" width="106" x="136.5" y="713.1895"/><text fill="#000000" font-family="sans-serif" font-size="14" lengthAdjust="spacing" textLength="92" x="143.5" y="735.2969">FigurePluginUI</text><rect fill="#E2E2F0" height="32.6211" rx="2.5" ry="2.5" style="stroke:#181818;stroke-width:0.5;" width="150" x="297.5" y="89.6211"/><text fill="#000000" font-family="sans-serif" font-size="14" lengthAdjust="spacing" textLength="136" x="304.5" y="111.7285">AddDslPathController</text><rect fill="#E2E2F0" height="32.6211" rx="2.5" ry="2.5" style="stroke:#181818;stroke-width:0.5;" width="150" x="297.5" y="713.1895"/><text fill="#000000" font-family="sans-serif" font-size="14" lengthAdjust="spacing" textLength="136" x="304.5" y="735.2969">AddDslPathController</text><rect fill="#E2E2F0" height="32.6211" rx="2.5" ry="2.5" style="stroke:#181818;stroke-width:0.5;" width="102" x="504.5" y="89.6211"/><text fill="#000000" font-family="sans-serif" font-size="14" lengthAdjust="spacing" textLength="88" x="511.5" y="111.7285">FigureService</text><rect fill="#E2E2F0" height="32.6211" rx="2.5" ry="2.5" style="stroke:#181818;stroke-width:0.5;" width="102" x="504.5" y="713.1895"/><text fill="#000000" font-family="sans-serif" font-size="14" lengthAdjust="spacing" textLength="88" x="511.5" y="735.2969">FigureService</text><rect fill="#E2E2F0" height="32.6211" rx="2.5" ry="2.5" style="stroke:#181818;stroke-width:0.5;" width="55" x="671" y="89.6211"/><text fill="#000000" font-family="sans-serif" font-size="14" lengthAdjust="spacing" textLength="41" x="678" y="111.7285">Figure</text><rect fill="#E2E2F0" height="32.6211" rx="2.5" ry="2.5" style="stroke:#181818;stroke-width:0.5;" width="55" x="671" y="713.1895"/><text fill="#000000" font-family="sans-serif" font-size="14" lengthAdjust="spacing" textLength="41" x="678" y="735.2969">Figure</text><rect fill="#E2E2F0" height="32.6211" rx="2.5" ry="2.5" style="stroke:#181818;stroke-width:0.5;" width="123" x="736" y="89.6211"/><text fill="#000000" font-family="sans-serif" font-size="14" lengthAdjust="spacing" textLength="109" x="743" y="111.7285">FigureRepository</text><rect fill="#E2E2F0" height="32.6211" rx="2.5" ry="2.5" style="stroke:#181818;stroke-width:0.5;" width="123" x="736" y="713.1895"/><text fill="#000000" font-family="sans-serif" font-size="14" lengthAdjust="spacing" textLength="109" x="743" y="735.2969">FigureRepository</text><rect fill="#E2E2F0" height="32.6211" rx="2.5" ry="2.5" style="stroke:#181818;stroke-width:0.5;" width="94" x="869" y="89.6211"/><text fill="#000000" font-family="sans-serif" font-size="14" lengthAdjust="spacing" textLength="80" x="876" y="111.7285">FigurePlugin</text><rect fill="#E2E2F0" height="32.6211" rx="2.5" ry="2.5" style="stroke:#181818;stroke-width:0.5;" width="94" x="869" y="713.1895"/><text fill="#000000" font-family="sans-serif" font-size="14" lengthAdjust="spacing" textLength="80" x="876" y="735.2969">FigurePlugin</text><rect fill="#E2E2F0" height="32.6211" rx="2.5" ry="2.5" style="stroke:#181818;stroke-width:0.5;" width="85" x="1064.5" y="89.6211"/><text fill="#000000" font-family="sans-serif" font-size="14" lengthAdjust="spacing" textLength="71" x="1071.5" y="111.7285">figureLexer</text><rect fill="#E2E2F0" height="32.6211" rx="2.5" ry="2.5" style="stroke:#181818;stroke-width:0.5;" width="85" x="1064.5" y="713.1895"/><text fill="#000000" font-family="sans-serif" font-size="14" lengthAdjust="spacing" textLength="71" x="1071.5" y="735.2969">figureLexer</text><rect fill="#E2E2F0" height="32.6211" rx="2.5" ry="2.5" style="stroke:#181818;stroke-width:0.5;" width="92" x="1159.5" y="89.6211"/><text fill="#000000" font-family="sans-serif" font-size="14" lengthAdjust="spacing" textLength="78" x="1166.5" y="111.7285">figureParser</text><rect fill="#E2E2F0" height="32.6211" rx="2.5" ry="2.5" style="stroke:#181818;stroke-width:0.5;" width="92" x="1159.5" y="713.1895"/><text fill="#000000" font-family="sans-serif" font-size="14" lengthAdjust="spacing" textLength="78" x="1166.5" y="735.2969">figureParser</text><rect fill="#E2E2F0" height="32.6211" rx="2.5" ry="2.5" style="stroke:#181818;stroke-width:0.5;" width="160" x="1261.5" y="89.6211"/><text fill="#000000" font-family="sans-serif" font-size="14" lengthAdjust="spacing" textLength="146" x="1268.5" y="111.7285">FigureInterpreterVisitor</text><rect fill="#E2E2F0" height="32.6211" rx="2.5" ry="2.5" style="stroke:#181818;stroke-width:0.5;" width="160" x="1261.5" y="713.1895"/><text fill="#000000" font-family="sans-serif" font-size="14" lengthAdjust="spacing" textLength="146" x="1268.5" y="735.2969">FigureInterpreterVisitor</text><rect fill="#FFFFFF" height="562.9473" style="stroke:#181818;stroke-width:1.0;" width="10" x="17.5" y="133.2422"/><rect fill="#FFFFFF" height="562.9473" style="stroke:#181818;stroke-width:1.0;" width="10" x="184.5" y="133.2422"/><rect fill="#FFFFFF" height="93.873" style="stroke:#181818;stroke-width:1.0;" width="10" x="367.5" y="187.8242"/><rect fill="#FFFFFF" height="62.582" style="stroke:#181818;stroke-width:1.0;" width="10" x="550.5" y="219.1152"/><rect fill="#FFFFFF" height="383.2012" style="stroke:#181818;stroke-width:1.0;" width="10" x="911" y="312.9883"/><polygon fill="#181818" points="172.5,152.5332,182.5,156.5332,172.5,160.5332,176.5,156.5332" style="stroke:#181818;stroke-width:1.0;"/><line style="stroke:#181818;stroke-width:1.0;" x1="27.5" x2="178.5" y1="156.5332" y2="156.5332"/><text fill="#000000" font-family="sans-serif" font-size="13" lengthAdjust="spacing" textLength="133" x="34.5" y="151.2705">Select figure + DSL file</text><polygon fill="#181818" points="355.5,183.8242,365.5,187.8242,355.5,191.8242,359.5,187.8242" style="stroke:#181818;stroke-width:1.0;"/><line style="stroke:#181818;stroke-width:1.0;" x1="194.5" x2="361.5" y1="187.8242" y2="187.8242"/><text fill="#000000" font-family="sans-serif" font-size="13" lengthAdjust="spacing" textLength="154" x="201.5" y="182.5615">updateDslLink(figure, path)</text><polygon fill="#181818" points="538.5,215.1152,548.5,219.1152,538.5,223.1152,542.5,219.1152" style="stroke:#181818;stroke-width:1.0;"/><line style="stroke:#181818;stroke-width:1.0;" x1="377.5" x2="544.5" y1="219.1152" y2="219.1152"/><text fill="#000000" font-family="sans-serif" font-size="13" lengthAdjust="spacing" textLength="154" x="384.5" y="213.8525">updateDslLink(figure, path)</text><polygon fill="#181818" points="686.5,246.4063,696.5,250.4063,686.5,254.4063,690.5,250.4063" style="stroke:#181818;stroke-width:1.0;"/><line style="stroke:#181818;stroke-width:1.0;" x1="560.5" x2="692.5" y1="250.4063" y2="250.4063"/><text fill="#000000" font-family="sans-serif" font-size="13" lengthAdjust="spacing" textLength="114" x="567.5" y="245.1436">addDslPathTo(path)</text><polygon fill="#181818" points="785.5,277.6973,795.5,281.6973,785.5,285.6973,789.5,281.6973" style="stroke:#181818;stroke-width:1.0;"/><line style="stroke:#181818;stroke-width:1.0;" x1="555.5" x2="791.5" y1="281.6973" y2="281.6973"/><text fill="#000000" font-family="sans-serif" font-size="13" lengthAdjust="spacing" textLength="65" x="562.5" y="276.4346">save(figure)</text><polygon fill="#181818" points="899,308.9883,909,312.9883,899,316.9883,903,312.9883" style="stroke:#181818;stroke-width:1.0;"/><line style="stroke:#181818;stroke-width:1.0;" x1="194.5" x2="905" y1="312.9883" y2="312.9883"/><text fill="#000000" font-family="sans-serif" font-size="13" lengthAdjust="spacing" textLength="150" x="201.5" y="307.7256">interpretFigureScript(path)</text><polygon fill="#181818" points="1095,340.2793,1105,344.2793,1095,348.2793,1099,344.2793" style="stroke:#181818;stroke-width:1.0;"/><line style="stroke:#181818;stroke-width:1.0;" x1="921" x2="1101" y1="344.2793" y2="344.2793"/><text fill="#000000" font-family="sans-serif" font-size="13" lengthAdjust="spacing" textLength="162" x="928" y="339.0166">create lexer with file content</text><line style="stroke:#181818;stroke-width:1.0;" x1="1107" x2="1149" y1="375.5703" y2="375.5703"/><line style="stroke:#181818;stroke-width:1.0;" x1="1149" x2="1149" y1="375.5703" y2="388.5703"/><line style="stroke:#181818;stroke-width:1.0;" x1="1108" x2="1149" y1="388.5703" y2="388.5703"/><polygon fill="#181818" points="1118,384.5703,1108,388.5703,1118,392.5703,1114,388.5703" style="stroke:#181818;stroke-width:1.0;"/><text fill="#000000" font-family="sans-serif" font-size="13" lengthAdjust="spacing" textLength="81" x="1114" y="370.3076">tokenize input</text><polygon fill="#181818" points="932,415.8613,922,419.8613,932,423.8613,928,419.8613" style="stroke:#181818;stroke-width:1.0;"/><line style="stroke:#181818;stroke-width:1.0;stroke-dasharray:2.0,2.0;" x1="926" x2="1106" y1="419.8613" y2="419.8613"/><text fill="#000000" font-family="sans-serif" font-size="13" lengthAdjust="spacing" textLength="39" x="938" y="414.5986">tokens</text><polygon fill="#181818" points="1193.5,447.1523,1203.5,451.1523,1193.5,455.1523,1197.5,451.1523" style="stroke:#181818;stroke-width:1.0;"/><line style="stroke:#181818;stroke-width:1.0;" x1="921" x2="1199.5" y1="451.1523" y2="451.1523"/><text fill="#000000" font-family="sans-serif" font-size="13" lengthAdjust="spacing" textLength="146" x="928" y="445.8896">create parser with tokens</text><line style="stroke:#181818;stroke-width:1.0;" x1="1205.5" x2="1247.5" y1="482.4434" y2="482.4434"/><line style="stroke:#181818;stroke-width:1.0;" x1="1247.5" x2="1247.5" y1="482.4434" y2="495.4434"/><line style="stroke:#181818;stroke-width:1.0;" x1="1206.5" x2="1247.5" y1="495.4434" y2="495.4434"/><polygon fill="#181818" points="1216.5,491.4434,1206.5,495.4434,1216.5,499.4434,1212.5,495.4434" style="stroke:#181818;stroke-width:1.0;"/><text fill="#000000" font-family="sans-serif" font-size="13" lengthAdjust="spacing" textLength="89" x="1212.5" y="477.1807">build parse tree</text><polygon fill="#181818" points="932,522.7344,922,526.7344,932,530.7344,928,526.7344" style="stroke:#181818;stroke-width:1.0;"/><line style="stroke:#181818;stroke-width:1.0;stroke-dasharray:2.0,2.0;" x1="926" x2="1204.5" y1="526.7344" y2="526.7344"/><text fill="#000000" font-family="sans-serif" font-size="13" lengthAdjust="spacing" textLength="58" x="938" y="521.4717">parse tree</text><polygon fill="#181818" points="1329.5,554.0254,1339.5,558.0254,1329.5,562.0254,1333.5,558.0254" style="stroke:#181818;stroke-width:1.0;"/><line style="stroke:#181818;stroke-width:1.0;" x1="921" x2="1335.5" y1="558.0254" y2="558.0254"/><text fill="#000000" font-family="sans-serif" font-size="13" lengthAdjust="spacing" textLength="88" x="928" y="552.7627">visit(parse tree)</text><line style="stroke:#181818;stroke-width:1.0;" x1="1341.5" x2="1383.5" y1="589.3164" y2="589.3164"/><line style="stroke:#181818;stroke-width:1.0;" x1="1383.5" x2="1383.5" y1="589.3164" y2="602.3164"/><line style="stroke:#181818;stroke-width:1.0;" x1="1342.5" x2="1383.5" y1="602.3164" y2="602.3164"/><polygon fill="#181818" points="1352.5,598.3164,1342.5,602.3164,1352.5,606.3164,1348.5,602.3164" style="stroke:#181818;stroke-width:1.0;"/><text fill="#000000" font-family="sans-serif" font-size="13" lengthAdjust="spacing" textLength="115" x="1348.5" y="584.0537">interpret commands</text><polygon fill="#181818" points="932,629.6074,922,633.6074,932,637.6074,928,633.6074" style="stroke:#181818;stroke-width:1.0;"/><line style="stroke:#181818;stroke-width:1.0;stroke-dasharray:2.0,2.0;" x1="926" x2="1340.5" y1="633.6074" y2="633.6074"/><text fill="#000000" font-family="sans-serif" font-size="13" lengthAdjust="spacing" textLength="111" x="938" y="628.3447">interpretation result</text><polygon fill="#181818" points="205.5,660.8984,195.5,664.8984,205.5,668.8984,201.5,664.8984" style="stroke:#181818;stroke-width:1.0;"/><line style="stroke:#181818;stroke-width:1.0;stroke-dasharray:2.0,2.0;" x1="199.5" x2="910" y1="664.8984" y2="664.8984"/><text fill="#000000" font-family="sans-serif" font-size="13" lengthAdjust="spacing" textLength="94" x="211.5" y="659.6357">success or error</text><polygon fill="#181818" points="33.5,692.1895,23.5,696.1895,33.5,700.1895,29.5,696.1895" style="stroke:#181818;stroke-width:1.0;"/><line style="stroke:#181818;stroke-width:1.0;" x1="27.5" x2="188.5" y1="696.1895" y2="696.1895"/><text fill="#000000" font-family="sans-serif" font-size="13" lengthAdjust="spacing" textLength="68" x="39.5" y="690.9268">Show result</text><!--SRC=[ZLDDYzim4BthLmmv9RGBXUwfXq9fA0Ho2FMcTrMUJOPLP5MIixlzzHrhP5jflT2BcT6yz-RJYP95QF1NZyuWR4cVWhx07HoRZ_SVODliuM3x4pcbj4bTWDKnObY1ZZ0OokkGo93NBi7g6vtwW88_xWIqkuLyQTjjj0UTpbyxbq9dRL6RtIND1iEL36PaiPTWEIxcKlWx-YuIT_6QWOFxTWCPKdg_0Jrcq1vVIkNPMe8ST1Xd9UPIifrB67n0_lwWN5mc53jFdQuweOnxzdPA3Izmzvbj-CHJiMWII6PubpVtI1OLHnapZvUnlMzPW_Um9_Uq5ifxyBoKpPoXMaX5Pgao___L6TSrqbX1EcS1FLt3GxSMNWKRziEWgAzOn3UgnN-4gwUgvjAtB91LQ9npEIWJoAVrNxMMTHSIq_DkcMq23d6RtMTAvpnRC9mFNL82g_2fUq97lv7J-dwAr_LaHAoBbpkgailHpDcz-3bzeHT83VxPasq52oaWJfWwUnMkAYXNMfLGpf0Pry5QpxoD6cCti6dCF9lBHRisphZ5TUX4dOE0iRUfhcNw0SPYnaEFlJ4O8x0YXi08MVHHkc_EtVEeTjEQRBPwuJ-ezfZ-1m00]--></g></svg>