<?xml version="1.0" encoding="us-ascii" standalone="no"?><svg xmlns="http://www.w3.org/2000/svg" xmlns:xlink="http://www.w3.org/1999/xlink" contentStyleType="text/css" height="1641.5px" preserveAspectRatio="none" style="width:328px;height:1641px;background:#FFFFFF;" version="1.1" viewBox="0 0 328 1641" width="328.5px" zoomAndPan="magnify"><defs/><g><text fill="#000000" font-family="sans-serif" font-size="7" font-weight="bold" lengthAdjust="spacing" textLength="88" x="116.75" y="12.5537">Global Use Case Diagram</text><!--cluster actors--><g id="cluster_actors"><rect fill="none" height="351.5" rx="1.25" ry="1.25" style="stroke:#181818;stroke-width:0.5;" width="51.5" x="3.5" y="643.8105"/><text fill="#000000" font-family="sans-serif" font-size="7" font-weight="bold" lengthAdjust="spacing" textLength="43.5" x="7.5" y="652.3643">System User</text></g><!--cluster usecases--><g id="cluster_usecases"><rect fill="none" height="1615.5" rx="1.25" ry="1.25" style="stroke:#181818;stroke-width:0.5;" width="256.5" x="69" y="23.3105"/><text fill="#000000" font-family="sans-serif" font-size="7" font-weight="bold" lengthAdjust="spacing" textLength="37" x="178.75" y="31.8643">Use Cases</text></g><!--entity HRM--><g id="elem_HRM"><ellipse cx="29.25" cy="666.8105" fill="#F1F1F1" rx="4" ry="4" style="stroke:#181818;stroke-width:0.25;"/><path d="M29.25,670.8105 L29.25,684.3105 M22.75,674.8105 L35.75,674.8105 M29.25,684.3105 L22.75,691.8105 M29.25,684.3105 L35.75,691.8105 " fill="none" style="stroke:#181818;stroke-width:0.25;"/><text fill="#000000" font-family="sans-serif" font-size="7" lengthAdjust="spacing" textLength="15" x="21.75" y="700.1143">HRM</text></g><!--entity VFM--><g id="elem_VFM"><ellipse cx="29.25" cy="723.8105" fill="#F1F1F1" rx="4" ry="4" style="stroke:#181818;stroke-width:0.25;"/><path d="M29.25,727.8105 L29.25,741.3105 M22.75,731.8105 L35.75,731.8105 M29.25,741.3105 L22.75,748.8105 M29.25,741.3105 L35.75,748.8105 " fill="none" style="stroke:#181818;stroke-width:0.25;"/><text fill="#000000" font-family="sans-serif" font-size="7" lengthAdjust="spacing" textLength="14.5" x="22" y="757.1143">VFM</text></g><!--entity GSM--><g id="elem_GSM"><ellipse cx="29.25" cy="780.8105" fill="#F1F1F1" rx="4" ry="4" style="stroke:#181818;stroke-width:0.25;"/><path d="M29.25,784.8105 L29.25,798.3105 M22.75,788.8105 L35.75,788.8105 M29.25,798.3105 L22.75,805.8105 M29.25,798.3105 L35.75,805.8105 " fill="none" style="stroke:#181818;stroke-width:0.25;"/><text fill="#000000" font-family="sans-serif" font-size="7" lengthAdjust="spacing" textLength="15.5" x="21.5" y="814.1143">GSM</text></g><!--entity QAM--><g id="elem_QAM"><ellipse cx="29.25" cy="837.8105" fill="#F1F1F1" rx="4" ry="4" style="stroke:#181818;stroke-width:0.25;"/><path d="M29.25,841.8105 L29.25,855.3105 M22.75,845.8105 L35.75,845.8105 M29.25,855.3105 L22.75,862.8105 M29.25,855.3105 L35.75,862.8105 " fill="none" style="stroke:#181818;stroke-width:0.25;"/><text fill="#000000" font-family="sans-serif" font-size="7" lengthAdjust="spacing" textLength="15.5" x="21.5" y="871.1143">QAM</text></g><!--entity GSU--><g id="elem_GSU"><ellipse cx="29.25" cy="894.8105" fill="#F1F1F1" rx="4" ry="4" style="stroke:#181818;stroke-width:0.25;"/><path d="M29.25,898.8105 L29.25,912.3105 M22.75,902.8105 L35.75,902.8105 M29.25,912.3105 L22.75,919.8105 M29.25,912.3105 L35.75,919.8105 " fill="none" style="stroke:#181818;stroke-width:0.25;"/><text fill="#000000" font-family="sans-serif" font-size="7" lengthAdjust="spacing" textLength="14.5" x="22" y="928.1143">GSU</text></g><!--entity CLB--><g id="elem_CLB"><ellipse cx="29.25" cy="951.8105" fill="#F1F1F1" rx="4" ry="4" style="stroke:#181818;stroke-width:0.25;"/><path d="M29.25,955.8105 L29.25,969.3105 M22.75,959.8105 L35.75,959.8105 M29.25,969.3105 L22.75,976.8105 M29.25,969.3105 L35.75,976.8105 " fill="none" style="stroke:#181818;stroke-width:0.25;"/><text fill="#000000" font-family="sans-serif" font-size="7" lengthAdjust="spacing" textLength="13.5" x="22.5" y="985.1143">CLB</text></g><g id="elem_UC01"><ellipse cx="197.3459" cy="245.2297" fill="#F1F1F1" rx="54.8459" ry="12.1692" style="stroke:#181818;stroke-width:0.25;"/><text fill="#000000" font-family="sans-serif" font-size="7" lengthAdjust="spacing" textLength="90" x="152.3459" y="247.1282">US01/UC01 - Register a Skill</text></g><g id="elem_UC02"><ellipse cx="197.1721" cy="53.845" fill="#F1F1F1" rx="54.1721" ry="12.0344" style="stroke:#181818;stroke-width:0.25;"/><text fill="#000000" font-family="sans-serif" font-size="7" lengthAdjust="spacing" textLength="88.5" x="152.9221" y="55.7434">US02/UC02 - Register a Job</text></g><g id="elem_UC03"><ellipse cx="197.1671" cy="102.694" fill="#F1F1F1" rx="90.9171" ry="19.3834" style="stroke:#181818;stroke-width:0.25;"/><text fill="#000000" font-family="sans-serif" font-size="7" lengthAdjust="spacing" textLength="146.5" x="122.4171" y="100.4405">US03/UC03 - Register a collaborator with a job</text><text fill="#000000" font-family="sans-serif" font-size="7" lengthAdjust="spacing" textLength="102.5" x="145.4171" y="109.7511">and fundamental characteristics.</text></g><g id="elem_UC04"><ellipse cx="197.2558" cy="156.3617" fill="#F1F1F1" rx="75.5058" ry="16.3012" style="stroke:#181818;stroke-width:0.25;"/><text fill="#000000" font-family="sans-serif" font-size="7" lengthAdjust="spacing" textLength="134.5" x="130.0058" y="158.2601">US04/UC04 - Assign skills to a collaborator</text></g><g id="elem_UC05"><ellipse cx="197.2881" cy="202.8182" fill="#F1F1F1" rx="57.7881" ry="12.7576" style="stroke:#181818;stroke-width:0.25;"/><text fill="#000000" font-family="sans-serif" font-size="7" lengthAdjust="spacing" textLength="96.5" x="149.0381" y="204.7166">US05/UC05 - Generate a team</text></g><g id="elem_UC06"><ellipse cx="197.1572" cy="389.842" fill="#F1F1F1" rx="59.1572" ry="13.0314" style="stroke:#181818;stroke-width:0.25;"/><text fill="#000000" font-family="sans-serif" font-size="7" lengthAdjust="spacing" textLength="99.5" x="147.4072" y="391.7404">US06/UC06 - Register a vehicle</text></g><g id="elem_UC07"><ellipse cx="197.2942" cy="291.2194" fill="#F1F1F1" rx="74.7942" ry="16.1588" style="stroke:#181818;stroke-width:0.25;"/><text fill="#000000" font-family="sans-serif" font-size="7" lengthAdjust="spacing" textLength="133" x="130.7942" y="293.1178">US07/UC007 - Register a Vehicle checkup</text></g><g id="elem_UC08"><ellipse cx="197.3015" cy="342.4209" fill="#F1F1F1" rx="79.5515" ry="17.1103" style="stroke:#181818;stroke-width:0.25;"/><text fill="#000000" font-family="sans-serif" font-size="7" lengthAdjust="spacing" textLength="143" x="125.8015" y="344.3193">US08/UC08 - List Vehicles Needing Check-up</text></g><g id="elem_UC09"><ellipse cx="197.1669" cy="1145.6939" fill="#F1F1F1" rx="89.6669" ry="19.1334" style="stroke:#181818;stroke-width:0.25;"/><text fill="#000000" font-family="sans-serif" font-size="7" lengthAdjust="spacing" textLength="141.5" x="123.9169" y="1143.4405">US09/UC09 - See the exact costs referring to</text><text fill="#000000" font-family="sans-serif" font-size="7" lengthAdjust="spacing" textLength="137.5" x="126.9169" y="1152.7511">water consumption of specific green spaces</text></g><g id="elem_UC10"><ellipse cx="197.3355" cy="1202.2776" fill="#F1F1F1" rx="91.3355" ry="19.4671" style="stroke:#181818;stroke-width:0.25;"/><text fill="#000000" font-family="sans-serif" font-size="7" lengthAdjust="spacing" textLength="145.5" x="122.0855" y="1200.0242">US10/UC10 - See in a pie chart which piece(s)</text><text fill="#000000" font-family="sans-serif" font-size="7" lengthAdjust="spacing" textLength="116.5" x="137.5855" y="1209.3348">of equipment is/are used in each day</text></g><g id="elem_UC11"><ellipse cx="197.2677" cy="1256.8141" fill="#F1F1F1" rx="80.2677" ry="17.2535" style="stroke:#181818;stroke-width:0.25;"/><text fill="#000000" font-family="sans-serif" font-size="7" lengthAdjust="spacing" textLength="144.5" x="125.0177" y="1258.7125">US11/UC11 - Collect data from the user portal</text></g><g id="elem_UC12"><ellipse cx="197.1412" cy="1312.3388" fill="#F1F1F1" rx="96.6412" ry="20.5282" style="stroke:#181818;stroke-width:0.25;"/><text fill="#000000" font-family="sans-serif" font-size="7" lengthAdjust="spacing" textLength="178.5" x="107.8912" y="1314.2372">US12/UC12 - I want to import a .csv file containing routes</text></g><g id="elem_UC13"><ellipse cx="197.3298" cy="1370.3265" fill="#F1F1F1" rx="94.0798" ry="20.016" style="stroke:#181818;stroke-width:0.25;"/><text fill="#000000" font-family="sans-serif" font-size="7" lengthAdjust="spacing" textLength="152" x="119.3405" y="1367.9097">US13/UC13 - Apply an algorithm that returns the</text><text fill="#000000" font-family="sans-serif" font-size="7" lengthAdjust="spacing" textLength="124.5" x="134.0905" y="1377.2202">routes to be opened, with minimum cost</text></g><g id="elem_UC14"><ellipse cx="197.1765" cy="1499.6959" fill="#F1F1F1" rx="110.9265" ry="23.3853" style="stroke:#181818;stroke-width:0.25;"/><text fill="#000000" font-family="sans-serif" font-size="7" lengthAdjust="spacing" textLength="155.5" x="119.4265" y="1492.2837">US14/UC14 - Run tests for inputs of variable size,</text><text fill="#000000" font-family="sans-serif" font-size="7" lengthAdjust="spacing" textLength="162.5" x="115.9265" y="1501.5943">to observe the asymptotic behavior of the execution</text><text fill="#000000" font-family="sans-serif" font-size="7" lengthAdjust="spacing" textLength="52" x="171.1765" y="1510.9048">time of the US13</text></g><g id="elem_UC15"><ellipse cx="197.355" cy="442.2815" fill="#F1F1F1" rx="102.605" ry="21.721" style="stroke:#181818;stroke-width:0.25;"/><text fill="#000000" font-family="sans-serif" font-size="7" lengthAdjust="spacing" textLength="171.5" x="110.605" y="439.5247">US15/UC15 - Predict the average monthly cost that will</text><text fill="#000000" font-family="sans-serif" font-size="7" lengthAdjust="spacing" textLength="97" x="148.855" y="448.8353">be paid for water consumption.</text></g><g id="elem_UC16"><ellipse cx="197.1284" cy="504.1862" fill="#F1F1F1" rx="105.8784" ry="22.3757" style="stroke:#181818;stroke-width:0.25;"/><text fill="#000000" font-family="sans-serif" font-size="7" lengthAdjust="spacing" textLength="197.5" x="98.3784" y="506.0847">US16/UC16 - Determine the best line that fits the data in US14.</text></g><g id="elem_UC17"><ellipse cx="197.2536" cy="565.7613" fill="#F1F1F1" rx="101.2536" ry="21.4507" style="stroke:#181818;stroke-width:0.25;"/><text fill="#000000" font-family="sans-serif" font-size="7" lengthAdjust="spacing" textLength="188" x="103.2536" y="567.6597">US17/UC17 - Place signs to evacuate to an Assembly Point.</text></g><g id="elem_UC18"><ellipse cx="197.3244" cy="625.7754" fill="#F1F1F1" rx="98.8244" ry="20.9649" style="stroke:#181818;stroke-width:0.25;"/><text fill="#000000" font-family="sans-serif" font-size="7" lengthAdjust="spacing" textLength="183" x="105.8244" y="627.6739">US18/UC18 - Place signs to evacuate to an Meeting Point.</text></g><g id="elem_UC19"><ellipse cx="197.2549" cy="1433.3115" fill="#F1F1F1" rx="120.2549" ry="25.251" style="stroke:#181818;stroke-width:0.25;"/><text fill="#000000" font-family="sans-serif" font-size="7" lengthAdjust="spacing" textLength="210.5" x="91.0049" y="1430.5547">US19/UC19 - Conclude about the worst-case time complexity of the</text><text fill="#000000" font-family="sans-serif" font-size="7" lengthAdjust="spacing" textLength="155.5" x="119.5049" y="1439.8652">procedures developed in US13, US17, and US18.</text></g><g id="elem_UC20"><ellipse cx="197.1863" cy="686.2478" fill="#F1F1F1" rx="103.6863" ry="21.9373" style="stroke:#181818;stroke-width:0.25;"/><text fill="#000000" font-family="sans-serif" font-size="7" lengthAdjust="spacing" textLength="193" x="100.6863" y="688.1462">US20/UC20 - Register a green space and its respective area.</text></g><g id="elem_UC21"><ellipse cx="197.1282" cy="743.6862" fill="#F1F1F1" rx="83.3782" ry="17.8756" style="stroke:#181818;stroke-width:0.25;"/><text fill="#000000" font-family="sans-serif" font-size="7" lengthAdjust="spacing" textLength="151" x="121.6282" y="745.5846">US21/UC21 - Add a new entry to the To-Do List.</text></g><g id="elem_UC22"><ellipse cx="197.3244" cy="796.3254" fill="#F1F1F1" rx="79.0744" ry="17.0149" style="stroke:#181818;stroke-width:0.25;"/><text fill="#000000" font-family="sans-serif" font-size="7" lengthAdjust="spacing" textLength="142" x="126.3244" y="798.2239">US22/UC22 - Add a new entry in the Agenda.</text></g><g id="elem_UC23"><ellipse cx="197.2112" cy="850.9028" fill="#F1F1F1" rx="94.4612" ry="20.0922" style="stroke:#181818;stroke-width:0.25;"/><text fill="#000000" font-family="sans-serif" font-size="7" lengthAdjust="spacing" textLength="174" x="110.2112" y="852.8012">US23/UC23 - Assign a Team to an entry in the Agenda.</text></g><g id="elem_UC24"><ellipse cx="197.3535" cy="910.8812" fill="#F1F1F1" rx="106.8535" ry="22.5707" style="stroke:#181818;stroke-width:0.25;"/><text fill="#000000" font-family="sans-serif" font-size="7" lengthAdjust="spacing" textLength="199.5" x="97.6035" y="912.7797">US24/UC24 - Postpone an entry in the Agenda to a future date.</text></g><g id="elem_UC25"><ellipse cx="197.3476" cy="967.7301" fill="#F1F1F1" rx="78.5976" ry="16.9195" style="stroke:#181818;stroke-width:0.25;"/><text fill="#000000" font-family="sans-serif" font-size="7" lengthAdjust="spacing" textLength="141" x="126.8476" y="969.6285">US25/UC25 - Cancel an entry in the Agenda.</text></g><g id="elem_UC26"><ellipse cx="197.1642" cy="1026.7434" fill="#F1F1F1" rx="114.9142" ry="24.1828" style="stroke:#181818;stroke-width:0.25;"/><text fill="#000000" font-family="sans-serif" font-size="7" lengthAdjust="spacing" textLength="216" x="89.1642" y="1028.6418">US26/UC26 - Assign one or more vehicles to an entry in the Agenda.</text></g><g id="elem_UC27"><ellipse cx="197.2033" cy="1088.7012" fill="#F1F1F1" rx="94.7033" ry="20.1407" style="stroke:#181818;stroke-width:0.25;"/><text fill="#000000" font-family="sans-serif" font-size="7" lengthAdjust="spacing" textLength="174.5" x="109.9533" y="1090.5996">US27/UC27 - List all green spaces managed by a GSM.</text></g><g id="elem_UC28"><ellipse cx="197.2113" cy="1611.7528" fill="#F1F1F1" rx="87.4613" ry="18.6923" style="stroke:#181818;stroke-width:0.25;"/><text fill="#000000" font-family="sans-serif" font-size="7" lengthAdjust="spacing" textLength="159.5" x="117.4613" y="1613.6513">US28/UC28 - Consult the tasks assigned to a CLB.</text></g><g id="elem_UC29"><ellipse cx="197.2566" cy="1558.3619" fill="#F1F1F1" rx="80.5066" ry="17.3013" style="stroke:#181818;stroke-width:0.25;"/><text fill="#000000" font-family="sans-serif" font-size="7" lengthAdjust="spacing" textLength="145" x="124.7566" y="1560.2603">US29/UC29 - Record the completion of a task.</text></g><!--link HRM to UC01--><g id="link_HRM_UC01"><path d="M30.02,662.4855 C31.29,583.7055 37.775,295.6155 65,266.3105 C85.85,243.8705 117.3206,238.9531 145.7706,239.4981 " fill="none" id="HRM-to-UC01" style="stroke:#181818;stroke-width:0.5;"/><polygon fill="#181818" points="148.77,239.5555,144.3091,237.4697,146.2705,239.5077,144.2325,241.469,148.77,239.5555" style="stroke:#181818;stroke-width:0.5;"/></g><!--link HRM to UC02--><g id="link_HRM_UC02"><path d="M30.205,662.5455 C32.635,560.4455 44.765,96.5955 65,74.3105 C86.005,51.1755 118.4967,46.6337 147.3517,47.6137 " fill="none" id="HRM-to-UC02" style="stroke:#181818;stroke-width:0.5;"/><polygon fill="#181818" points="150.35,47.7155,145.9205,45.564,147.8514,47.6307,145.7847,49.5616,150.35,47.7155" style="stroke:#181818;stroke-width:0.5;"/></g><!--link HRM to UC03--><g id="link_HRM_UC03"><path d="M29.63,662.4555 C29.25,568.5955 29.74,172.2605 65,131.3105 C75.995,118.5405 88.3424,111.5316 104.5574,106.8566 " fill="none" id="HRM-to-UC03" style="stroke:#181818;stroke-width:0.5;"/><polygon fill="#181818" points="107.44,106.0255,102.5621,105.3505,105.0378,106.7181,103.6702,109.1939,107.44,106.0255" style="stroke:#181818;stroke-width:0.5;"/></g><!--link HRM to UC04--><g id="link_HRM_UC04"><path d="M29.745,662.4955 C29.9,574.0105 32.555,217.8005 65,181.3105 C79.465,165.0405 97.9688,157.7696 119.4038,154.5246 " fill="none" id="HRM-to-UC04" style="stroke:#181818;stroke-width:0.5;"/><polygon fill="#181818" points="122.37,154.0755,117.6213,152.7716,119.8982,154.4498,118.2201,156.7266,122.37,154.0755" style="stroke:#181818;stroke-width:0.5;"/></g><!--link HRM to UC05--><g id="link_HRM_UC05"><path d="M29.86,662.5105 C30.52,578.8355 34.995,256.9805 65,224.3105 C84.95,202.5905 114.62,197.1479 142.435,197.1729 " fill="none" id="HRM-to-UC05" style="stroke:#181818;stroke-width:0.5;"/><polygon fill="#181818" points="145.435,197.1755,140.9368,195.1715,142.935,197.1733,140.9332,199.1715,145.435,197.1755" style="stroke:#181818;stroke-width:0.5;"/></g><!--link VFM to UC06--><g id="link_VFM_UC06"><path d="M36.575,735.0455 C43.67,730.1755 54.375,721.4805 59,710.8105 C65.61,695.5655 54.135,424.3805 65,411.8105 C84.145,389.6605 113.45,384.0099 141.275,383.9699 " fill="none" id="VFM-to-UC06" style="stroke:#181818;stroke-width:0.5;"/><polygon fill="#181818" points="144.275,383.9655,139.7721,381.972,141.775,383.9691,139.7779,385.972,144.275,383.9655" style="stroke:#181818;stroke-width:0.5;"/></g><!--link VFM to UC07--><g id="link_VFM_UC07"><path d="M36.585,735.0505 C43.69,730.1805 54.4,721.4905 59,710.8105 C67.675,690.6805 50.89,333.0855 65,316.3105 C79.425,299.1605 98.653,291.7795 120.743,288.7395 " fill="none" id="VFM-to-UC07" style="stroke:#181818;stroke-width:0.5;"/><polygon fill="#181818" points="123.715,288.3305,118.9843,286.9627,121.2383,288.6714,119.5297,290.9254,123.715,288.3305" style="stroke:#181818;stroke-width:0.5;"/></g><!--link VFM to UC08--><g id="link_VFM_UC08"><path d="M36.58,735.0505 C43.68,730.1805 54.385,721.4855 59,710.8105 C66.56,693.3155 52.745,382.4055 65,367.8105 C78.185,352.1105 94.9225,344.7222 115.0825,341.0922 " fill="none" id="VFM-to-UC08" style="stroke:#181818;stroke-width:0.5;"/><polygon fill="#181818" points="118.035,340.5605,113.2518,339.3896,115.5746,341.0036,113.9606,343.3263,118.035,340.5605" style="stroke:#181818;stroke-width:0.5;"/></g><!--link GSM to UC09--><g id="link_GSM_UC09"><path d="M37.1,800.9355 C44.185,805.8705 54.485,814.4055 59,824.8105 C65.48,839.7455 54.625,1105.2655 65,1117.8105 C75.955,1131.0555 88.5843,1138.2031 105.1543,1142.8031 " fill="none" id="GSM-to-UC09" style="stroke:#181818;stroke-width:0.5;"/><polygon fill="#181818" points="108.045,1143.6055,104.244,1140.4747,105.6361,1142.9368,103.174,1144.3289,108.045,1143.6055" style="stroke:#181818;stroke-width:0.5;"/></g><!--link GSM to UC10--><g id="link_GSM_UC10"><path d="M37.105,800.9355 C44.2,805.8655 54.5,814.3955 59,824.8105 C66.69,842.6105 52.695,1158.8255 65,1173.8105 C75.655,1186.7855 87.8054,1193.8892 103.9254,1198.5992 " fill="none" id="GSM-to-UC10" style="stroke:#181818;stroke-width:0.5;"/><polygon fill="#181818" points="106.805,1199.4405,103.0465,1196.2588,104.4053,1198.7394,101.9247,1200.0982,106.805,1199.4405" style="stroke:#181818;stroke-width:0.5;"/></g><!--link GSM to UC11--><g id="link_GSM_UC11"><path d="M37.11,800.9305 C44.21,805.8655 54.515,814.3905 59,824.8105 C67.91,845.5055 50.595,1212.9855 65,1230.3105 C77.94,1245.8755 94.2948,1253.3646 114.1548,1257.2146 " fill="none" id="GSM-to-UC11" style="stroke:#181818;stroke-width:0.5;"/><polygon fill="#181818" points="117.1,1257.7855,113.0629,1254.9657,114.6457,1257.3098,112.3016,1258.8926,117.1,1257.7855" style="stroke:#181818;stroke-width:0.5;"/></g><!--link GSM to UC12--><g id="link_GSM_UC12"><path d="M37.115,800.9305 C44.215,805.8605 54.52,814.3855 59,824.8105 C64.02,836.5005 56.98,1272.9305 65,1282.8105 C74.785,1294.8655 85.4853,1301.7078 100.1903,1306.6328 " fill="none" id="GSM-to-UC12" style="stroke:#181818;stroke-width:0.5;"/><polygon fill="#181818" points="103.035,1307.5855,99.4031,1304.26,100.6644,1306.7916,98.1328,1308.0529,103.035,1307.5855" style="stroke:#181818;stroke-width:0.5;"/></g><!--link GSM to UC13--><g id="link_GSM_UC13"><path d="M37.12,800.9305 C44.22,805.8555 54.53,814.3855 59,824.8105 C64.655,837.9955 55.945,1330.1805 65,1341.3105 C75.2,1353.8455 86.6076,1360.8324 102.0176,1365.6674 " fill="none" id="GSM-to-UC13" style="stroke:#181818;stroke-width:0.5;"/><polygon fill="#181818" points="104.88,1366.5655,101.1851,1363.3101,102.4947,1365.8171,99.9876,1367.1267,104.88,1366.5655" style="stroke:#181818;stroke-width:0.5;"/></g><!--link QAM to UC14--><g id="link_QAM_UC14"><path d="M37.12,857.9305 C44.225,862.8555 54.535,871.3805 59,881.8105 C65.4,896.7655 54.905,1454.5555 65,1467.3105 C73.15,1477.6105 81.2483,1483.7655 93.2333,1488.9705 " fill="none" id="QAM-to-UC14" style="stroke:#181818;stroke-width:0.5;"/><polygon fill="#181818" points="95.985,1490.1655,92.6541,1486.5385,93.6919,1489.1697,91.0607,1490.2074,95.985,1490.1655" style="stroke:#181818;stroke-width:0.5;"/></g><!--link GSM to UC15--><g id="link_GSM_UC15"><path d="M37.1,791.6855 C44.19,786.7505 54.485,778.2155 59,767.8105 C65.525,752.7705 54.67,485.5355 65,472.8105 C74.065,461.6455 83.5222,455.1321 96.9422,450.0821 " fill="none" id="GSM-to-UC15" style="stroke:#181818;stroke-width:0.5;"/><polygon fill="#181818" points="99.75,449.0255,94.8339,448.7386,97.4102,449.906,96.2427,452.4823,99.75,449.0255" style="stroke:#181818;stroke-width:0.5;"/></g><!--link GSM to UC16--><g id="link_GSM_UC16"><path d="M37.09,791.6805 C44.165,786.7405 54.455,778.2055 59,767.8105 C64.175,755.9705 56.85,545.3355 65,535.3105 C73.635,524.6905 82.3813,518.4191 95.0363,513.3341 " fill="none" id="GSM-to-UC16" style="stroke:#181818;stroke-width:0.5;"/><polygon fill="#181818" points="97.82,512.2155,92.8988,512.0376,95.5003,513.1477,94.3902,515.7491,97.82,512.2155" style="stroke:#181818;stroke-width:0.5;"/></g><!--link GSM to UC17--><g id="link_GSM_UC17"><path d="M37.07,791.6705 C44.13,786.7255 54.41,778.1855 59,767.8105 C66.74,750.3255 52.815,610.5455 65,595.8105 C74.23,584.6455 83.8593,578.1559 97.4293,573.1659 " fill="none" id="GSM-to-UC17" style="stroke:#181818;stroke-width:0.5;"/><polygon fill="#181818" points="100.245,572.1305,95.3312,571.8065,97.8986,572.9934,96.7118,575.5607,100.245,572.1305" style="stroke:#181818;stroke-width:0.5;"/></g><!--link GSM to UC18--><g id="link_GSM_UC18"><path d="M37.03,791.6505 C44.06,786.6905 54.315,778.1405 59,767.8105 C64.17,756.4105 56.92,664.8705 65,655.3105 C74.685,643.8555 84.9308,637.269 99.0958,632.354 " fill="none" id="GSM-to-UC18" style="stroke:#181818;stroke-width:0.5;"/><polygon fill="#181818" points="101.93,631.3705,97.023,630.9562,99.5681,632.1901,98.3343,634.7352,101.93,631.3705" style="stroke:#181818;stroke-width:0.5;"/></g><!--link QAM to UC19--><g id="link_QAM_UC19"><path d="M37.12,857.9305 C44.22,862.8555 54.53,871.3855 59,881.8105 C64.66,895.0105 56.16,1387.4905 65,1398.8105 C72.425,1408.3155 79.4241,1414.0845 90.1891,1419.3395 " fill="none" id="QAM-to-UC19" style="stroke:#181818;stroke-width:0.5;"/><polygon fill="#181818" points="92.885,1420.6555,89.7185,1416.8842,90.6384,1419.5589,87.9637,1420.4788,92.885,1420.6555" style="stroke:#181818;stroke-width:0.5;"/></g><!--link GSM to UC20--><g id="link_GSM_UC20"><path d="M37.02,791.4905 C43.94,786.4705 54.02,777.9255 59,767.8105 C64.045,757.5755 57.39,725.3105 65,716.8105 C74.435,706.2705 83.9141,700.0539 97.1991,695.0989 " fill="none" id="GSM-to-UC20" style="stroke:#181818;stroke-width:0.5;"/><polygon fill="#181818" points="100.01,694.0505,95.0948,693.7492,97.6676,694.9242,96.4926,697.497,100.01,694.0505" style="stroke:#181818;stroke-width:0.5;"/></g><!--link GSM to UC21--><g id="link_GSM_UC21"><path d="M37.11,789.3605 C43.85,783.3905 54.36,775.0205 65,770.3105 C83.4,762.1605 101.4131,757.0832 121.1131,753.1482 " fill="none" id="GSM-to-UC21" style="stroke:#181818;stroke-width:0.5;"/><polygon fill="#181818" points="124.055,752.5605,119.2504,751.4807,121.6034,753.0502,120.0339,755.4032,124.055,752.5605" style="stroke:#181818;stroke-width:0.5;"/></g><!--link GSM to UC22--><g id="link_GSM_UC22"><path d="M37.14,796.3105 C51.66,796.3105 82.345,796.3105 115.045,796.3105 " fill="none" id="GSM-to-UC22" style="stroke:#181818;stroke-width:0.5;"/><polygon fill="#181818" points="118.045,796.3105,113.545,794.3105,115.545,796.3105,113.545,798.3105,118.045,796.3105" style="stroke:#181818;stroke-width:0.5;"/></g><!--link GSM to UC23--><g id="link_GSM_UC23"><path d="M37.025,802.9605 C43.785,808.7905 54.385,817.0505 65,821.8105 C82.045,829.4505 98.3311,834.474 116.7061,838.694 " fill="none" id="GSM-to-UC23" style="stroke:#181818;stroke-width:0.5;"/><polygon fill="#181818" points="119.63,839.3655,115.6918,836.409,117.1934,838.806,114.7965,840.3076,119.63,839.3655" style="stroke:#181818;stroke-width:0.5;"/></g><!--link GSM to UC24--><g id="link_GSM_UC24"><path d="M37.035,801.1205 C43.97,806.1405 54.055,814.6805 59,824.8105 C64.345,835.7605 56.94,870.1755 65,879.3105 C74.14,889.6705 83.2315,895.8418 96.1165,900.8868 " fill="none" id="GSM-to-UC24" style="stroke:#181818;stroke-width:0.5;"/><polygon fill="#181818" points="98.91,901.9805,95.4489,898.4776,96.5821,901.0691,93.9906,902.2022,98.91,901.9805" style="stroke:#181818;stroke-width:0.5;"/></g><!--link GSM to UC25--><g id="link_GSM_UC25"><path d="M37.03,800.9655 C44.07,805.9255 54.325,814.4755 59,824.8105 C64.365,836.6705 56.48,931.9705 65,941.8105 C78.545,957.4555 95.5778,964.842 115.9128,968.517 " fill="none" id="GSM-to-UC25" style="stroke:#181818;stroke-width:0.5;"/><polygon fill="#181818" points="118.865,969.0505,114.7924,966.2821,116.4049,968.6059,114.0811,970.2184,118.865,969.0505" style="stroke:#181818;stroke-width:0.5;"/></g><!--link GSM to UC26--><g id="link_GSM_UC26"><path d="M37.065,800.9505 C44.13,805.9005 54.405,814.4405 59,824.8105 C66.585,841.9405 53.24,978.7305 65,993.3105 C73,1003.2305 80.7563,1009.2198 92.3263,1014.4498 " fill="none" id="GSM-to-UC26" style="stroke:#181818;stroke-width:0.5;"/><polygon fill="#181818" points="95.06,1015.6855,91.7833,1012.0095,92.7819,1014.6558,90.1357,1015.6544,95.06,1015.6855" style="stroke:#181818;stroke-width:0.5;"/></g><!--link GSM to UC27--><g id="link_GSM_UC27"><path d="M37.09,800.9405 C44.17,805.8805 54.46,814.4155 59,824.8105 C64.23,836.7755 56.69,1049.7355 65,1059.8105 C75.135,1072.0955 86.3217,1078.9895 101.4917,1083.8245 " fill="none" id="GSM-to-UC27" style="stroke:#181818;stroke-width:0.5;"/><polygon fill="#181818" points="104.35,1084.7355,100.6698,1081.4635,101.9681,1083.9764,99.4552,1085.2746,104.35,1084.7355" style="stroke:#181818;stroke-width:0.5;"/></g><!--link CLB to UC28--><g id="link_CLB_UC28"><path d="M30.21,987.1755 C32.685,1090.3455 45.055,1561.1555 65,1584.3105 C76.55,1597.7205 89.8961,1604.8525 107.0561,1609.3025 " fill="none" id="CLB-to-UC28" style="stroke:#181818;stroke-width:0.5;"/><polygon fill="#181818" points="109.96,1610.0555,106.1061,1606.99,107.54,1609.428,105.102,1610.8619,109.96,1610.0555" style="stroke:#181818;stroke-width:0.5;"/></g><!--link CLB to UC29--><g id="link_CLB_UC29"><path d="M29.585,987.1855 C28.98,1082.5155 28.55,1490.0255 65,1531.8105 C78.115,1546.8405 94.2234,1554.2016 113.7784,1558.1166 " fill="none" id="CLB-to-UC29" style="stroke:#181818;stroke-width:0.5;"/><polygon fill="#181818" points="116.72,1558.7055,112.7002,1555.8611,114.2686,1558.2148,111.9149,1559.7832,116.72,1558.7055" style="stroke:#181818;stroke-width:0.5;"/></g><!--SRC=[dPTBR-Cs58Nt_XN4h5eWdh7ezwP0wg3J5ZE3D9xCAXjQkhRPIAGgKlQunVptdajPYgq-0Z0B8vH5dQFx-2xjdhKfLQKAKLXZqtrb2nA-gcdWkczAbJwh7QtzAITHKUgLsUMNDxYzoknHcvtOgjpHOE2rnwtlSxjHkNXq95OA7tTQxN3xO93JrWjlHQLtUoyopS_KrWm6tSF5c_N9UIfuS_L6A2TKwctbn5y3WR-m43y_VBnOVVdfSlL-VRdwxVRwkyUBrUh3ZuDlLzAjOHU4QqSfBnhbymethKV9kyVLA153yK0x3RULK6BzhFCyxEFlmXRO5CFX3ys5E2N9Il9QwLUxQNLaNqT6wenPPtojazeyLnjRAGxMKVizhlrkDqz6A9E9RMqoLP3nI7IwHpMas8MjEdLlMtlZlhrnfBq9svl0tgrpUcU4us0xhgHhcwtmf2yyYHIUil0Kmk_942G8WfvKqGfD-qBJIA4P2ysk4t2WlKvpQhLcOHEglTMQHMhDMMiqlnRxqeWXbvG-rsKhEk-BpYD55oowWEO7ABPgJdmYofWVAvOTlkWk-hgBIDqbwowXkoRmRK-2lg9KKJNEEp1jIrN5-YYb9tDK78lK6bSN9OD9sArm9QLwgrEnguXGUe3YMPGV7FJ0dDRcCivcCeBDP7IsgT5YejGK6ikB8sArvtLAtxdluHEkw8zQbzn-GhjtgY9-MCORIU7UJ9tE3fDHpo4kV8inoCnBc7ahz1ksGyChiSNO2575hPKeRGKSjCf9Npc9KsO69ip0NyHHcJ0_TC5I2DBRr1t4LdFTMg186yvbPMlVfIYHVHiopWOZCc54tfPbVW83XSftjW8NEGBAevXyNHaNml5a6XDiTaF2bi17TjDGj83BeYv22ROcntsJupYJ3Cg4GVbG6u2AQtmBUcDUr_WNTNDGbLORFDBfF-dcoS2VtI1tXwOvb3kXyYqe3jjxTT3OZ5rDtr1QSrDWayPPuNoP8zE-HODTpDpsBIAncp1s4yRkVGKyeDY2jmC8l2C-h_WzCi3nQo9_n3H0o17eKkailF4_MhaTIicq7-ffNAYPs0aJ-uuWXQGs4TmWw29lLh2srRwfYD0kw4zEKkTbrlSoY_F2H4yOwFSvw2HuHeRIeuDAQvvQF2aDJqygDWZTlTN6ToxcVHVpE1UC-6JngekFH9xRzDh4eczY4MU2UPyi0wTCcjSPwcQ3LWmvEE8WwOVXrb32gItAdBvgVsgh-ScKbKqfgolqRaO7oj6wsJblunl-dD-4ym-_RsT-sI_yPPHvoLD0Zgu7yyNO2S8wp2sUIbwZQy5-rVgGVTZBEDXBXhrasDzc6ImOEWgCckh46UGmVRR3EnicUIVTfxsCexrasalvBzB80KlVxWW7pqwsJtSPHtV9T9VZbnEc4fznp3jNxFyPw9DRnf5RChaba_iUM2kjeVyGRWwzsngp9a25EYUJlfD9d1E6hsJuhfH9ANyj07sUoZYUIkQfdBraW4C0a1SMxtbeZuklvwEFL1c7LCb8bVFslAemO2xFVw9G1hCe4nkS15Yjq-_3LCR1L39CvQBXcAlp1c1UkMVy8Wu1WdWe1VoCxSGRYE9AAnu7KSaGbSl0eTHMMT1kODcUYbNmqWal-y80uDy0]--></g></svg>