<?xml version="1.0" encoding="us-ascii" standalone="no"?><svg xmlns="http://www.w3.org/2000/svg" xmlns:xlink="http://www.w3.org/1999/xlink" contentStyleType="text/css" height="376px" preserveAspectRatio="none" style="width:803px;height:376px;background:#FFFFFF;" version="1.1" viewBox="0 0 803 376" width="803px" zoomAndPan="magnify"><defs/><g><rect fill="#AED6F1" height="175.7461" style="stroke:#000000;stroke-width:1.5;" width="787" x="10" y="100.6211"/><line style="stroke:#181818;stroke-width:0.5;stroke-dasharray:5.0,5.0;" x1="75" x2="75" y1="83.6211" y2="293.3672"/><line style="stroke:#181818;stroke-width:0.5;stroke-dasharray:5.0,5.0;" x1="230.5" x2="230.5" y1="83.6211" y2="293.3672"/><line style="stroke:#181818;stroke-width:0.5;stroke-dasharray:5.0,5.0;" x1="381" x2="381" y1="83.6211" y2="293.3672"/><line style="stroke:#181818;stroke-width:0.5;stroke-dasharray:5.0,5.0;" x1="575" x2="575" y1="83.6211" y2="293.3672"/><line style="stroke:#181818;stroke-width:0.5;stroke-dasharray:5.0,5.0;" x1="736" x2="736" y1="83.6211" y2="293.3672"/><text fill="#000000" font-family="sans-serif" font-size="14" lengthAdjust="spacing" textLength="104" x="20" y="80.1074">Project Manager</text><ellipse cx="75" cy="13.5" fill="#E2E2F0" rx="8" ry="8" style="stroke:#181818;stroke-width:0.5;"/><path d="M75,21.5 L75,48.5 M62,29.5 L88,29.5 M75,48.5 L62,63.5 M75,48.5 L88,63.5 " fill="none" style="stroke:#181818;stroke-width:0.5;"/><text fill="#000000" font-family="sans-serif" font-size="14" lengthAdjust="spacing" textLength="104" x="20" y="307.4746">Project Manager</text><ellipse cx="75" cy="319.4883" fill="#E2E2F0" rx="8" ry="8" style="stroke:#181818;stroke-width:0.5;"/><path d="M75,327.4883 L75,354.4883 M62,335.4883 L88,335.4883 M75,354.4883 L62,369.4883 M75,354.4883 L88,369.4883 " fill="none" style="stroke:#181818;stroke-width:0.5;"/><rect fill="#E2E2F0" height="32.6211" rx="2.5" ry="2.5" style="stroke:#181818;stroke-width:0.5;" width="61" x="200.5" y="50"/><text fill="#000000" font-family="sans-serif" font-size="14" lengthAdjust="spacing" textLength="47" x="207.5" y="72.1074">LoginUI</text><rect fill="#E2E2F0" height="32.6211" rx="2.5" ry="2.5" style="stroke:#181818;stroke-width:0.5;" width="61" x="200.5" y="292.3672"/><text fill="#000000" font-family="sans-serif" font-size="14" lengthAdjust="spacing" textLength="47" x="207.5" y="314.4746">LoginUI</text><rect fill="#E2E2F0" height="32.6211" rx="2.5" ry="2.5" style="stroke:#181818;stroke-width:0.5;" width="218" x="272" y="50"/><text fill="#000000" font-family="sans-serif" font-size="14" lengthAdjust="spacing" textLength="204" x="279" y="72.1074">AuthenticationCredentialHandler</text><rect fill="#E2E2F0" height="32.6211" rx="2.5" ry="2.5" style="stroke:#181818;stroke-width:0.5;" width="218" x="272" y="292.3672"/><text fill="#000000" font-family="sans-serif" font-size="14" lengthAdjust="spacing" textLength="204" x="279" y="314.4746">AuthenticationCredentialHandler</text><rect fill="#E2E2F0" height="32.6211" rx="2.5" ry="2.5" style="stroke:#181818;stroke-width:0.5;" width="151" x="500" y="50"/><text fill="#000000" font-family="sans-serif" font-size="14" lengthAdjust="spacing" textLength="137" x="507" y="72.1074">AuthenticationService</text><rect fill="#E2E2F0" height="32.6211" rx="2.5" ry="2.5" style="stroke:#181818;stroke-width:0.5;" width="151" x="500" y="292.3672"/><text fill="#000000" font-family="sans-serif" font-size="14" lengthAdjust="spacing" textLength="137" x="507" y="314.4746">AuthenticationService</text><rect fill="#E2E2F0" height="32.6211" rx="2.5" ry="2.5" style="stroke:#181818;stroke-width:0.5;" width="101" x="686" y="50"/><text fill="#000000" font-family="sans-serif" font-size="14" lengthAdjust="spacing" textLength="87" x="693" y="72.1074">AuthzRegistry</text><rect fill="#E2E2F0" height="32.6211" rx="2.5" ry="2.5" style="stroke:#181818;stroke-width:0.5;" width="101" x="686" y="292.3672"/><text fill="#000000" font-family="sans-serif" font-size="14" lengthAdjust="spacing" textLength="87" x="693" y="314.4746">AuthzRegistry</text><path d="M10,100.6211 L83,100.6211 L83,109.9121 L73,119.9121 L10,119.9121 L10,100.6211 " fill="#EEEEEE" style="stroke:#000000;stroke-width:1.5;"/><rect fill="none" height="175.7461" style="stroke:#000000;stroke-width:1.5;" width="787" x="10" y="100.6211"/><text fill="#000000" font-family="sans-serif" font-size="13" font-weight="bold" lengthAdjust="spacing" textLength="28" x="25" y="115.6494">loop</text><text fill="#000000" font-family="sans-serif" font-size="11" font-weight="bold" lengthAdjust="spacing" textLength="170" x="98" y="114.4912">[While show request is invalid]</text><polygon fill="#181818" points="219,139.2031,229,143.2031,219,147.2031,223,143.2031" style="stroke:#181818;stroke-width:1.0;"/><line style="stroke:#181818;stroke-width:1.0;" x1="75" x2="225" y1="143.2031" y2="143.2031"/><text fill="#000000" font-family="sans-serif" font-size="13" lengthAdjust="spacing" textLength="132" x="82" y="137.9404">Fill user and Password</text><polygon fill="#181818" points="369,170.4941,379,174.4941,369,178.4941,373,174.4941" style="stroke:#181818;stroke-width:1.0;"/><line style="stroke:#181818;stroke-width:1.0;" x1="231" x2="375" y1="174.4941" y2="174.4941"/><text fill="#000000" font-family="sans-serif" font-size="13" lengthAdjust="spacing" textLength="126" x="238" y="169.2314">Send user information</text><polygon fill="#181818" points="563.5,201.7852,573.5,205.7852,563.5,209.7852,567.5,205.7852" style="stroke:#181818;stroke-width:1.0;"/><line style="stroke:#181818;stroke-width:1.0;" x1="381" x2="569.5" y1="205.7852" y2="205.7852"/><text fill="#000000" font-family="sans-serif" font-size="13" lengthAdjust="spacing" textLength="79" x="388" y="200.5225">Verifying user</text><polygon fill="#181818" points="724.5,233.0762,734.5,237.0762,724.5,241.0762,728.5,237.0762" style="stroke:#181818;stroke-width:1.0;"/><line style="stroke:#181818;stroke-width:1.0;" x1="575.5" x2="730.5" y1="237.0762" y2="237.0762"/><text fill="#000000" font-family="sans-serif" font-size="13" lengthAdjust="spacing" textLength="137" x="582.5" y="231.8135">Determine authorization</text><polygon fill="#181818" points="86,264.3672,76,268.3672,86,272.3672,82,268.3672" style="stroke:#181818;stroke-width:1.0;"/><line style="stroke:#181818;stroke-width:1.0;" x1="80" x2="735.5" y1="268.3672" y2="268.3672"/><text fill="#000000" font-family="sans-serif" font-size="13" lengthAdjust="spacing" textLength="119" x="92" y="263.1045">Returns login results</text><!--SRC=[VP5BJmCn38Jl-HLMENFWmg47f3weg4IbgbNX7EswkwQflJZPLYtYl-DDNq98t3APRwnn4ZV4ZLU_XK2CwT0WYAPQNBmQZIyslaBuSW13ErSgBPSZ2Q9mDtWUFquUEaUqH3tT3eDXxjivNoIJlRdA1nO9PfvjaFR0HnWjPixc9ogeyPoWzoeLyMgQpTNqjpTeKurisYSI7YcMdVBXnNCPBWE5aqem-LzsYRgZ0dFYVFwB7nTOKKnwo9YUXND1f87tcW92h6LlpcUBCG558DxvGAKz17IhmVsJBG5zc508q4PKiAemzp7kxQ4oPhvHjzf6Bz6WJ1ElHRUvycdc3RFGkRabtb1fVI2kSYoZ5zEuItK3nvXGj_R7u6r3KJhUXb-nhe-LxmCiCBNA4KBtAmR4DgJehDuF]--></g></svg>