<?xml version="1.0" encoding="us-ascii" standalone="no"?><svg xmlns="http://www.w3.org/2000/svg" xmlns:xlink="http://www.w3.org/1999/xlink" contentStyleType="text/css" height="811.5px" preserveAspectRatio="none" style="width:1400px;height:811px;background:#FFFFFF;" version="1.1" viewBox="0 0 1400 811" width="1400px" zoomAndPan="magnify"><defs/><g><!--class CreateCollaboratorAssignJobUI--><g id="elem_CreateCollaboratorAssignJobUI"><rect codeLine="1" fill="#F1F1F1" height="94.3828" id="CreateCollaboratorAssignJobUI" rx="1.25" ry="1.25" style="stroke:#181818;stroke-width:0.25;" width="279" x="822.5" y="3.5"/><ellipse cx="910.625" cy="11.5" fill="#ADD1B2" rx="5.5" ry="5.5" style="stroke:#181818;stroke-width:0.5;"/><path d="M912.0078,9.4375 Q912.0859,9.3281 912.1797,9.2734 Q912.2734,9.2188 912.3828,9.2188 Q912.5703,9.2188 912.6875,9.3516 Q912.8047,9.4766 912.8047,9.7813 L912.8047,10.5078 Q912.8047,10.8125 912.6875,10.9453 Q912.5703,11.0781 912.3828,11.0781 Q912.2109,11.0781 912.1094,10.9766 Q912.0078,10.8828 911.9531,10.625 Q911.9297,10.4453 911.8359,10.3516 Q911.6719,10.1641 911.3672,10.0547 Q911.0625,9.9453 910.75,9.9453 Q910.3672,9.9453 910.0469,10.1094 Q909.7344,10.2734 909.4844,10.6484 Q909.2422,11.0234 909.2422,11.5391 L909.2422,12.0859 Q909.2422,12.7031 909.6875,13.1172 Q910.1328,13.5234 910.9297,13.5234 Q911.3984,13.5234 911.7266,13.3984 Q911.9219,13.3203 912.1328,13.1016 Q912.2656,12.9688 912.3359,12.9297 Q912.4141,12.8906 912.5156,12.8906 Q912.6797,12.8906 912.8047,13.0234 Q912.9375,13.1484 912.9375,13.3203 Q912.9375,13.4922 912.7656,13.6953 Q912.5156,13.9844 912.1172,14.1484 Q911.5781,14.375 910.9297,14.375 Q910.1719,14.375 909.5703,14.0625 Q909.0781,13.8125 908.7344,13.2813 Q908.3906,12.7422 908.3906,12.1016 L908.3906,11.5234 Q908.3906,10.8594 908.6953,10.2891 Q909.0078,9.7109 909.5547,9.4063 Q910.1016,9.0938 910.7188,9.0938 Q911.0859,9.0938 911.4063,9.1797 Q911.7344,9.2578 912.0078,9.4375 Z " fill="#000000"/><text fill="#000000" font-family="sans-serif" font-size="7" lengthAdjust="spacing" textLength="98.5" x="920.875" y="13.9268">CreateCollaboratorAssignJobUI</text><line style="stroke:#181818;stroke-width:0.25;" x1="823" x2="1101" y1="19.5" y2="19.5"/><rect fill="none" height="3" style="stroke:#C82930;stroke-width:0.5;" width="3" x="826.5" y="24.6602"/><text fill="#000000" font-family="sans-serif" font-size="7" lengthAdjust="spacing" textLength="157" x="832.5" y="27.8369">controller: CreateCollaboratorAssignJobController</text><line style="stroke:#181818;stroke-width:0.25;" x1="823" x2="1101" y1="31.3203" y2="31.3203"/><ellipse cx="828" cy="37.9805" fill="#84BE84" rx="1.5" ry="1.5" style="stroke:#038048;stroke-width:0.5;"/><text fill="#000000" font-family="sans-serif" font-size="7" lengthAdjust="spacing" textLength="133.5" x="832.5" y="39.6572">displayJobsList(jobs: ArrayList&lt;Job&gt;): void</text><ellipse cx="828" cy="45.8008" fill="#84BE84" rx="1.5" ry="1.5" style="stroke:#038048;stroke-width:0.5;"/><text fill="#000000" font-family="sans-serif" font-size="7" lengthAdjust="spacing" textLength="217.5" x="832.5" y="47.4775">displayCollaboratorsList(collaborators: ArrayList&lt;Collaborator&gt;): void</text><ellipse cx="828" cy="53.6211" fill="#84BE84" rx="1.5" ry="1.5" style="stroke:#038048;stroke-width:0.5;"/><text fill="#000000" font-family="sans-serif" font-size="7" lengthAdjust="spacing" textLength="74.5" x="832.5" y="55.2979">selectAndAddJob(): Job</text><ellipse cx="828" cy="61.4414" fill="#84BE84" rx="1.5" ry="1.5" style="stroke:#038048;stroke-width:0.5;"/><text fill="#000000" font-family="sans-serif" font-size="7" lengthAdjust="spacing" textLength="193" x="832.5" y="63.1182">displayAndSelectDocumentType(): DocumentTypeRepository</text><ellipse cx="828" cy="69.2617" fill="#84BE84" rx="1.5" ry="1.5" style="stroke:#038048;stroke-width:0.5;"/><text fill="#000000" font-family="sans-serif" font-size="7" lengthAdjust="spacing" textLength="266" x="832.5" y="70.9385">displayDocumentTypeList(documentTypeList: List&lt;DocumentTypeRepository&gt;): void</text><ellipse cx="828" cy="77.082" fill="#84BE84" rx="1.5" ry="1.5" style="stroke:#038048;stroke-width:0.5;"/><text fill="#000000" font-family="sans-serif" font-size="7" lengthAdjust="spacing" textLength="66.5" x="832.5" y="78.7588">backToHRMUI(): void</text><ellipse cx="828" cy="84.9023" fill="#84BE84" rx="1.5" ry="1.5" style="stroke:#038048;stroke-width:0.5;"/><text fill="#000000" font-family="sans-serif" font-size="7" lengthAdjust="spacing" textLength="93.5" x="832.5" y="86.5791">createCollaborator(): boolean</text><ellipse cx="828" cy="92.7227" fill="#84BE84" rx="1.5" ry="1.5" style="stroke:#038048;stroke-width:0.5;"/><text fill="#000000" font-family="sans-serif" font-size="7" lengthAdjust="spacing" textLength="32.5" x="832.5" y="94.3994">run(): void</text></g><!--class CreateCollaboratorAssignJobController--><g id="elem_CreateCollaboratorAssignJobController"><rect codeLine="14" fill="#F1F1F1" height="70.9219" id="CreateCollaboratorAssignJobController" rx="1.25" ry="1.25" style="stroke:#181818;stroke-width:0.25;" width="820.5" x="551.75" y="128.5"/><ellipse cx="898.125" cy="136.5" fill="#ADD1B2" rx="5.5" ry="5.5" style="stroke:#181818;stroke-width:0.5;"/><path d="M899.5078,134.4375 Q899.5859,134.3281 899.6797,134.2734 Q899.7734,134.2188 899.8828,134.2188 Q900.0703,134.2188 900.1875,134.3516 Q900.3047,134.4766 900.3047,134.7813 L900.3047,135.5078 Q900.3047,135.8125 900.1875,135.9453 Q900.0703,136.0781 899.8828,136.0781 Q899.7109,136.0781 899.6094,135.9766 Q899.5078,135.8828 899.4531,135.625 Q899.4297,135.4453 899.3359,135.3516 Q899.1719,135.1641 898.8672,135.0547 Q898.5625,134.9453 898.25,134.9453 Q897.8672,134.9453 897.5469,135.1094 Q897.2344,135.2734 896.9844,135.6484 Q896.7422,136.0234 896.7422,136.5391 L896.7422,137.0859 Q896.7422,137.7031 897.1875,138.1172 Q897.6328,138.5234 898.4297,138.5234 Q898.8984,138.5234 899.2266,138.3984 Q899.4219,138.3203 899.6328,138.1016 Q899.7656,137.9688 899.8359,137.9297 Q899.9141,137.8906 900.0156,137.8906 Q900.1797,137.8906 900.3047,138.0234 Q900.4375,138.1484 900.4375,138.3203 Q900.4375,138.4922 900.2656,138.6953 Q900.0156,138.9844 899.6172,139.1484 Q899.0781,139.375 898.4297,139.375 Q897.6719,139.375 897.0703,139.0625 Q896.5781,138.8125 896.2344,138.2813 Q895.8906,137.7422 895.8906,137.1016 L895.8906,136.5234 Q895.8906,135.8594 896.1953,135.2891 Q896.5078,134.7109 897.0547,134.4063 Q897.6016,134.0938 898.2188,134.0938 Q898.5859,134.0938 898.9063,134.1797 Q899.2344,134.2578 899.5078,134.4375 Z " fill="#000000"/><text fill="#000000" font-family="sans-serif" font-size="7" lengthAdjust="spacing" textLength="123.5" x="908.375" y="138.9268">CreateCollaboratorAssignJobController</text><line style="stroke:#181818;stroke-width:0.25;" x1="552.25" x2="1371.75" y1="144.5" y2="144.5"/><rect fill="none" height="3" style="stroke:#C82930;stroke-width:0.5;" width="3" x="555.75" y="149.6602"/><text fill="#000000" font-family="sans-serif" font-size="7" lengthAdjust="spacing" textLength="99.5" x="561.75" y="152.8369">jobsRepository: JobsRepository</text><rect fill="none" height="3" style="stroke:#C82930;stroke-width:0.5;" width="3" x="555.75" y="157.4805"/><text fill="#000000" font-family="sans-serif" font-size="7" lengthAdjust="spacing" textLength="155.5" x="561.75" y="160.6572">collaboratorsRepository: CollaboratorsRepository</text><line style="stroke:#181818;stroke-width:0.25;" x1="552.25" x2="1371.75" y1="164.1406" y2="164.1406"/><ellipse cx="557.25" cy="170.8008" fill="#84BE84" rx="1.5" ry="1.5" style="stroke:#038048;stroke-width:0.5;"/><text fill="#000000" font-family="sans-serif" font-size="7" lengthAdjust="spacing" textLength="91.5" x="561.75" y="172.4775">getJobsList(): ArrayList&lt;Job&gt;</text><ellipse cx="557.25" cy="178.6211" fill="#84BE84" rx="1.5" ry="1.5" style="stroke:#038048;stroke-width:0.5;"/><text fill="#000000" font-family="sans-serif" font-size="7" lengthAdjust="spacing" textLength="147.5" x="561.75" y="180.2979">getCollaboratorsList(): ArrayList&lt;Collaborator&gt;</text><ellipse cx="557.25" cy="186.4414" fill="#84BE84" rx="1.5" ry="1.5" style="stroke:#038048;stroke-width:0.5;"/><text fill="#000000" font-family="sans-serif" font-size="7" lengthAdjust="spacing" textLength="180" x="561.75" y="188.1182">getDocTypesList(): ArrayList&lt;DocumentTypeRepository&gt;</text><ellipse cx="557.25" cy="194.2617" fill="#84BE84" rx="1.5" ry="1.5" style="stroke:#038048;stroke-width:0.5;"/><text fill="#000000" font-family="sans-serif" font-size="7" lengthAdjust="spacing" textLength="807.5" x="561.75" y="195.9385">addCollaborator(name: String, documentIdentificationNum: int, taxPayerNumber: int, email: String, mobileNumber: int, address: String, admissionDate: String, birthDate: String, identificationDocumentType: DocumentTypeRepository, chosenJob: Job): boolean</text></g><!--class CollaboratorRepository--><g id="elem_CollaboratorRepository"><rect codeLine="24" fill="#F1F1F1" height="94.3828" id="CollaboratorRepository" rx="1.25" ry="1.25" style="stroke:#181818;stroke-width:0.25;" width="831" x="345" y="370"/><ellipse cx="721.875" cy="378" fill="#ADD1B2" rx="5.5" ry="5.5" style="stroke:#181818;stroke-width:0.5;"/><path d="M723.2578,375.9375 Q723.3359,375.8281 723.4297,375.7734 Q723.5234,375.7188 723.6328,375.7188 Q723.8203,375.7188 723.9375,375.8516 Q724.0547,375.9766 724.0547,376.2813 L724.0547,377.0078 Q724.0547,377.3125 723.9375,377.4453 Q723.8203,377.5781 723.6328,377.5781 Q723.4609,377.5781 723.3594,377.4766 Q723.2578,377.3828 723.2031,377.125 Q723.1797,376.9453 723.0859,376.8516 Q722.9219,376.6641 722.6172,376.5547 Q722.3125,376.4453 722,376.4453 Q721.6172,376.4453 721.2969,376.6094 Q720.9844,376.7734 720.7344,377.1484 Q720.4922,377.5234 720.4922,378.0391 L720.4922,378.5859 Q720.4922,379.2031 720.9375,379.6172 Q721.3828,380.0234 722.1797,380.0234 Q722.6484,380.0234 722.9766,379.8984 Q723.1719,379.8203 723.3828,379.6016 Q723.5156,379.4688 723.5859,379.4297 Q723.6641,379.3906 723.7656,379.3906 Q723.9297,379.3906 724.0547,379.5234 Q724.1875,379.6484 724.1875,379.8203 Q724.1875,379.9922 724.0156,380.1953 Q723.7656,380.4844 723.3672,380.6484 Q722.8281,380.875 722.1797,380.875 Q721.4219,380.875 720.8203,380.5625 Q720.3281,380.3125 719.9844,379.7813 Q719.6406,379.2422 719.6406,378.6016 L719.6406,378.0234 Q719.6406,377.3594 719.9453,376.7891 Q720.2578,376.2109 720.8047,375.9063 Q721.3516,375.5938 721.9688,375.5938 Q722.3359,375.5938 722.6563,375.6797 Q722.9844,375.7578 723.2578,375.9375 Z " fill="#000000"/><text fill="#000000" font-family="sans-serif" font-size="7" lengthAdjust="spacing" textLength="73" x="732.125" y="380.4268">CollaboratorRepository</text><line style="stroke:#181818;stroke-width:0.25;" x1="345.5" x2="1175.5" y1="386" y2="386"/><rect fill="none" height="3" style="stroke:#C82930;stroke-width:0.5;" width="3" x="349" y="391.1602"/><text fill="#000000" font-family="sans-serif" font-size="7" lengthAdjust="spacing" textLength="148" x="355" y="394.3369">collaboratorsArrayList: ArrayList&lt;Collaborator&gt;</text><line style="stroke:#181818;stroke-width:0.25;" x1="345.5" x2="1175.5" y1="397.8203" y2="397.8203"/><ellipse cx="350.5" cy="404.4805" fill="#84BE84" rx="1.5" ry="1.5" style="stroke:#038048;stroke-width:0.5;"/><text fill="#000000" font-family="sans-serif" font-size="7" lengthAdjust="spacing" textLength="164.5" x="355" y="406.1572">getCollaboratorsArrayList(): ArrayList&lt;Collaborator&gt;</text><ellipse cx="350.5" cy="412.3008" fill="#84BE84" rx="1.5" ry="1.5" style="stroke:#038048;stroke-width:0.5;"/><text fill="#000000" font-family="sans-serif" font-size="7" lengthAdjust="spacing" textLength="818" x="355" y="413.9775">addCollaborator(name: String, documentIdentificationNumber: int, taxPayerNumber: int, email: String, mobileNumber: int, address: String, admissionDate: String, birthDate: String, identificationDocumentType: DocumentTypeRepository, chosenJob: Job): boolean</text><ellipse cx="350.5" cy="420.1211" fill="#84BE84" rx="1.5" ry="1.5" style="stroke:#038048;stroke-width:0.5;"/><text fill="#000000" font-family="sans-serif" font-size="7" lengthAdjust="spacing" textLength="107" x="355" y="421.7979">isValidPhone(phone: int): boolean</text><ellipse cx="350.5" cy="427.9414" fill="#84BE84" rx="1.5" ry="1.5" style="stroke:#038048;stroke-width:0.5;"/><text fill="#000000" font-family="sans-serif" font-size="7" lengthAdjust="spacing" textLength="147.5" x="355" y="429.6182">isValidDateFormat(dateString: String): boolean</text><ellipse cx="350.5" cy="435.7617" fill="#84BE84" rx="1.5" ry="1.5" style="stroke:#038048;stroke-width:0.5;"/><text fill="#000000" font-family="sans-serif" font-size="7" lengthAdjust="spacing" textLength="95.5" x="355" y="437.4385">isNumeric(str: String): boolean</text><ellipse cx="350.5" cy="443.582" fill="#84BE84" rx="1.5" ry="1.5" style="stroke:#038048;stroke-width:0.5;"/><text fill="#000000" font-family="sans-serif" font-size="7" lengthAdjust="spacing" textLength="113" x="355" y="445.2588">isValidName(name: String): boolean</text><ellipse cx="350.5" cy="451.4023" fill="#84BE84" rx="1.5" ry="1.5" style="stroke:#038048;stroke-width:0.5;"/><text fill="#000000" font-family="sans-serif" font-size="7" lengthAdjust="spacing" textLength="262" x="355" y="453.0791">getDeactivatedCollaboratorsBySkill(skills: ArrayList&lt;Skill&gt;): ArrayList&lt;Collaborator&gt;</text><ellipse cx="350.5" cy="459.2227" fill="#84BE84" rx="1.5" ry="1.5" style="stroke:#038048;stroke-width:0.5;"/><text fill="#000000" font-family="sans-serif" font-size="7" lengthAdjust="spacing" textLength="192" x="355" y="460.8994">addSkill(collab: Collaborator, skills: ArrayList&lt;Skill&gt;): boolean</text></g><!--class Repositories--><g id="elem_Repositories"><rect codeLine="36" fill="#F1F1F1" height="102.2031" id="Repositories" rx="1.25" ry="1.25" style="stroke:#181818;stroke-width:0.25;" width="190" x="867" y="230"/><ellipse cx="940.125" cy="238" fill="#ADD1B2" rx="5.5" ry="5.5" style="stroke:#181818;stroke-width:0.5;"/><path d="M941.5078,235.9375 Q941.5859,235.8281 941.6797,235.7734 Q941.7734,235.7188 941.8828,235.7188 Q942.0703,235.7188 942.1875,235.8516 Q942.3047,235.9766 942.3047,236.2813 L942.3047,237.0078 Q942.3047,237.3125 942.1875,237.4453 Q942.0703,237.5781 941.8828,237.5781 Q941.7109,237.5781 941.6094,237.4766 Q941.5078,237.3828 941.4531,237.125 Q941.4297,236.9453 941.3359,236.8516 Q941.1719,236.6641 940.8672,236.5547 Q940.5625,236.4453 940.25,236.4453 Q939.8672,236.4453 939.5469,236.6094 Q939.2344,236.7734 938.9844,237.1484 Q938.7422,237.5234 938.7422,238.0391 L938.7422,238.5859 Q938.7422,239.2031 939.1875,239.6172 Q939.6328,240.0234 940.4297,240.0234 Q940.8984,240.0234 941.2266,239.8984 Q941.4219,239.8203 941.6328,239.6016 Q941.7656,239.4688 941.8359,239.4297 Q941.9141,239.3906 942.0156,239.3906 Q942.1797,239.3906 942.3047,239.5234 Q942.4375,239.6484 942.4375,239.8203 Q942.4375,239.9922 942.2656,240.1953 Q942.0156,240.4844 941.6172,240.6484 Q941.0781,240.875 940.4297,240.875 Q939.6719,240.875 939.0703,240.5625 Q938.5781,240.3125 938.2344,239.7813 Q937.8906,239.2422 937.8906,238.6016 L937.8906,238.0234 Q937.8906,237.3594 938.1953,236.7891 Q938.5078,236.2109 939.0547,235.9063 Q939.6016,235.5938 940.2188,235.5938 Q940.5859,235.5938 940.9063,235.6797 Q941.2344,235.7578 941.5078,235.9375 Z " fill="#000000"/><text fill="#000000" font-family="sans-serif" font-size="7" lengthAdjust="spacing" textLength="39.5" x="950.375" y="240.4268">Repositories</text><line style="stroke:#181818;stroke-width:0.25;" x1="867.5" x2="1056.5" y1="246" y2="246"/><rect fill="none" height="3" style="stroke:#C82930;stroke-width:0.5;" width="3" x="871" y="251.1602"/><text fill="#000000" font-family="sans-serif" font-size="7" lengthAdjust="spacing" textLength="70" x="877" y="254.3369">instance: Repositories</text><rect fill="none" height="3" style="stroke:#C82930;stroke-width:0.5;" width="3" x="871" y="258.9805"/><text fill="#000000" font-family="sans-serif" font-size="7" lengthAdjust="spacing" textLength="155.5" x="877" y="262.1572">collaboratorsRepository: CollaboratorsRepository</text><rect fill="none" height="3" style="stroke:#C82930;stroke-width:0.5;" width="3" x="871" y="266.8008"/><text fill="#000000" font-family="sans-serif" font-size="7" lengthAdjust="spacing" textLength="103" x="877" y="269.9775">skillsRepository: SkillsRepository</text><rect fill="none" height="3" style="stroke:#C82930;stroke-width:0.5;" width="3" x="871" y="274.6211"/><text fill="#000000" font-family="sans-serif" font-size="7" lengthAdjust="spacing" textLength="99.5" x="877" y="277.7979">jobsRepository: JobsRepository</text><rect fill="none" height="3" style="stroke:#C82930;stroke-width:0.5;" width="3" x="871" y="282.4414"/><text fill="#000000" font-family="sans-serif" font-size="7" lengthAdjust="spacing" textLength="161.5" x="877" y="285.6182">authenticationRepository: AuthenticationRepository</text><line style="stroke:#181818;stroke-width:0.25;" x1="867.5" x2="1056.5" y1="289.1016" y2="289.1016"/><ellipse cx="872.5" cy="295.7617" fill="#84BE84" rx="1.5" ry="1.5" style="stroke:#038048;stroke-width:0.5;"/><text fill="#000000" font-family="sans-serif" font-size="7" lengthAdjust="spacing" textLength="85" x="877" y="297.4385">getInstance(): Repositories</text><ellipse cx="872.5" cy="303.582" fill="#84BE84" rx="1.5" ry="1.5" style="stroke:#038048;stroke-width:0.5;"/><text fill="#000000" font-family="sans-serif" font-size="7" lengthAdjust="spacing" textLength="119" x="877" y="305.2588">getSkillsRepository(): SkillsRepository</text><ellipse cx="872.5" cy="311.4023" fill="#84BE84" rx="1.5" ry="1.5" style="stroke:#038048;stroke-width:0.5;"/><text fill="#000000" font-family="sans-serif" font-size="7" lengthAdjust="spacing" textLength="116" x="877" y="313.0791">getJobsRepository(): JobsRepository</text><ellipse cx="872.5" cy="319.2227" fill="#84BE84" rx="1.5" ry="1.5" style="stroke:#038048;stroke-width:0.5;"/><text fill="#000000" font-family="sans-serif" font-size="7" lengthAdjust="spacing" textLength="172" x="877" y="320.8994">getCollaboratorsRepository(): CollaboratorsRepository</text><ellipse cx="872.5" cy="327.043" fill="#84BE84" rx="1.5" ry="1.5" style="stroke:#038048;stroke-width:0.5;"/><text fill="#000000" font-family="sans-serif" font-size="7" lengthAdjust="spacing" textLength="177" x="877" y="328.7197">getAuthenticationRepository(): AuthenticationRepository</text></g><!--class Collaborator--><g id="elem_Collaborator"><rect codeLine="49" fill="#F1F1F1" height="305.5313" id="Collaborator" rx="1.25" ry="1.25" style="stroke:#181818;stroke-width:0.25;" width="851" x="3.5" y="502.5"/><ellipse cx="407.375" cy="510.5" fill="#ADD1B2" rx="5.5" ry="5.5" style="stroke:#181818;stroke-width:0.5;"/><path d="M408.7578,508.4375 Q408.8359,508.3281 408.9297,508.2734 Q409.0234,508.2188 409.1328,508.2188 Q409.3203,508.2188 409.4375,508.3516 Q409.5547,508.4766 409.5547,508.7813 L409.5547,509.5078 Q409.5547,509.8125 409.4375,509.9453 Q409.3203,510.0781 409.1328,510.0781 Q408.9609,510.0781 408.8594,509.9766 Q408.7578,509.8828 408.7031,509.625 Q408.6797,509.4453 408.5859,509.3516 Q408.4219,509.1641 408.1172,509.0547 Q407.8125,508.9453 407.5,508.9453 Q407.1172,508.9453 406.7969,509.1094 Q406.4844,509.2734 406.2344,509.6484 Q405.9922,510.0234 405.9922,510.5391 L405.9922,511.0859 Q405.9922,511.7031 406.4375,512.1172 Q406.8828,512.5234 407.6797,512.5234 Q408.1484,512.5234 408.4766,512.3984 Q408.6719,512.3203 408.8828,512.1016 Q409.0156,511.9688 409.0859,511.9297 Q409.1641,511.8906 409.2656,511.8906 Q409.4297,511.8906 409.5547,512.0234 Q409.6875,512.1484 409.6875,512.3203 Q409.6875,512.4922 409.5156,512.6953 Q409.2656,512.9844 408.8672,513.1484 Q408.3281,513.375 407.6797,513.375 Q406.9219,513.375 406.3203,513.0625 Q405.8281,512.8125 405.4844,512.2813 Q405.1406,511.7422 405.1406,511.1016 L405.1406,510.5234 Q405.1406,509.8594 405.4453,509.2891 Q405.7578,508.7109 406.3047,508.4063 Q406.8516,508.0938 407.4688,508.0938 Q407.8359,508.0938 408.1563,508.1797 Q408.4844,508.2578 408.7578,508.4375 Z " fill="#000000"/><text fill="#000000" font-family="sans-serif" font-size="7" lengthAdjust="spacing" textLength="39" x="417.625" y="512.9268">Collaborator</text><line style="stroke:#181818;stroke-width:0.25;" x1="4" x2="854" y1="518.5" y2="518.5"/><rect fill="none" height="3" style="stroke:#C82930;stroke-width:0.5;" width="3" x="7.5" y="523.6602"/><text fill="#000000" font-family="sans-serif" font-size="7" lengthAdjust="spacing" textLength="40" x="13.5" y="526.8369">name: String</text><rect fill="none" height="3" style="stroke:#C82930;stroke-width:0.5;" width="3" x="7.5" y="531.4805"/><text fill="#000000" font-family="sans-serif" font-size="7" lengthAdjust="spacing" textLength="51.5" x="13.5" y="534.6572">birthDate: String</text><rect fill="none" height="3" style="stroke:#C82930;stroke-width:0.5;" width="3" x="7.5" y="539.3008"/><text fill="#000000" font-family="sans-serif" font-size="7" lengthAdjust="spacing" textLength="69" x="13.5" y="542.4775">admissionDate: String</text><rect fill="none" height="3" style="stroke:#C82930;stroke-width:0.5;" width="3" x="7.5" y="547.1211"/><text fill="#000000" font-family="sans-serif" font-size="7" lengthAdjust="spacing" textLength="48" x="13.5" y="550.2979">address: String</text><rect fill="none" height="3" style="stroke:#C82930;stroke-width:0.5;" width="3" x="7.5" y="554.9414"/><text fill="#000000" font-family="sans-serif" font-size="7" lengthAdjust="spacing" textLength="56.5" x="13.5" y="558.1182">mobileNumber: int</text><rect fill="none" height="3" style="stroke:#C82930;stroke-width:0.5;" width="3" x="7.5" y="562.7617"/><text fill="#000000" font-family="sans-serif" font-size="7" lengthAdjust="spacing" textLength="39" x="13.5" y="565.9385">email: String</text><rect fill="none" height="3" style="stroke:#C82930;stroke-width:0.5;" width="3" x="7.5" y="570.582"/><text fill="#000000" font-family="sans-serif" font-size="7" lengthAdjust="spacing" textLength="63.5" x="13.5" y="573.7588">taxPayerNumber: int</text><rect fill="none" height="3" style="stroke:#C82930;stroke-width:0.5;" width="3" x="7.5" y="578.4023"/><text fill="#000000" font-family="sans-serif" font-size="7" lengthAdjust="spacing" textLength="173.5" x="13.5" y="581.5791">identificationDocumentType: DocumentTypeRepository</text><rect fill="none" height="3" style="stroke:#C82930;stroke-width:0.5;" width="3" x="7.5" y="586.2227"/><text fill="#000000" font-family="sans-serif" font-size="7" lengthAdjust="spacing" textLength="106.5" x="13.5" y="589.3994">documentIdentificationNumber: int</text><rect fill="none" height="3" style="stroke:#C82930;stroke-width:0.5;" width="3" x="7.5" y="594.043"/><text fill="#000000" font-family="sans-serif" font-size="7" lengthAdjust="spacing" textLength="67.5" x="13.5" y="597.2197">skills: ArrayList&lt;Skill&gt;</text><rect fill="none" height="3" style="stroke:#C82930;stroke-width:0.5;" width="3" x="7.5" y="601.8633"/><text fill="#000000" font-family="sans-serif" font-size="7" lengthAdjust="spacing" textLength="24.5" x="13.5" y="605.04">job: Job</text><line style="stroke:#181818;stroke-width:0.25;" x1="4" x2="854" y1="608.5234" y2="608.5234"/><ellipse cx="9" cy="615.1836" fill="#84BE84" rx="1.5" ry="1.5" style="stroke:#038048;stroke-width:0.5;"/><text fill="#000000" font-family="sans-serif" font-size="7" lengthAdjust="spacing" textLength="838" x="13.5" y="616.8604">Collaborator(name: String, documentIdentificationNumber: int, taxPayerNumber: int, email: String, mobileNumber: int, address: String, admissionDate: String, birthDate: String, identificationDocumentType: DocumentTypeRepository, job: Job, status: CollaboratorStatus)</text><ellipse cx="9" cy="623.0039" fill="#84BE84" rx="1.5" ry="1.5" style="stroke:#038048;stroke-width:0.5;"/><text fill="#000000" font-family="sans-serif" font-size="7" lengthAdjust="spacing" textLength="138" x="13.5" y="624.6807">addSkillToCollaboratorSkills(skill: Skill): void</text><ellipse cx="9" cy="630.8242" fill="#84BE84" rx="1.5" ry="1.5" style="stroke:#038048;stroke-width:0.5;"/><text fill="#000000" font-family="sans-serif" font-size="7" lengthAdjust="spacing" textLength="127" x="13.5" y="632.501">skillAlreadyAssigned(skill: Skill): boolean</text><ellipse cx="9" cy="638.6445" fill="#84BE84" rx="1.5" ry="1.5" style="stroke:#038048;stroke-width:0.5;"/><text fill="#000000" font-family="sans-serif" font-size="7" lengthAdjust="spacing" textLength="55.5" x="13.5" y="640.3213">getName(): String</text><ellipse cx="9" cy="646.4648" fill="#84BE84" rx="1.5" ry="1.5" style="stroke:#038048;stroke-width:0.5;"/><text fill="#000000" font-family="sans-serif" font-size="7" lengthAdjust="spacing" textLength="89.5" x="13.5" y="648.1416">setName(name: String): void</text><ellipse cx="9" cy="654.2852" fill="#84BE84" rx="1.5" ry="1.5" style="stroke:#038048;stroke-width:0.5;"/><text fill="#000000" font-family="sans-serif" font-size="7" lengthAdjust="spacing" textLength="67" x="13.5" y="655.9619">getBirthDate(): String</text><ellipse cx="9" cy="662.1055" fill="#84BE84" rx="1.5" ry="1.5" style="stroke:#038048;stroke-width:0.5;"/><text fill="#000000" font-family="sans-serif" font-size="7" lengthAdjust="spacing" textLength="112.5" x="13.5" y="663.7822">setBirthDate(birthDate: String): void</text><ellipse cx="9" cy="669.9258" fill="#84BE84" rx="1.5" ry="1.5" style="stroke:#038048;stroke-width:0.5;"/><text fill="#000000" font-family="sans-serif" font-size="7" lengthAdjust="spacing" textLength="84.5" x="13.5" y="671.6025">getAdmissionDate(): String</text><ellipse cx="9" cy="677.7461" fill="#84BE84" rx="1.5" ry="1.5" style="stroke:#038048;stroke-width:0.5;"/><text fill="#000000" font-family="sans-serif" font-size="7" lengthAdjust="spacing" textLength="147.5" x="13.5" y="679.4229">setAdmissionDate(admissionDate: String): void</text><ellipse cx="9" cy="685.5664" fill="#84BE84" rx="1.5" ry="1.5" style="stroke:#038048;stroke-width:0.5;"/><text fill="#000000" font-family="sans-serif" font-size="7" lengthAdjust="spacing" textLength="63.5" x="13.5" y="687.2432">getAddress(): String</text><ellipse cx="9" cy="693.3867" fill="#84BE84" rx="1.5" ry="1.5" style="stroke:#038048;stroke-width:0.5;"/><text fill="#000000" font-family="sans-serif" font-size="7" lengthAdjust="spacing" textLength="105.5" x="13.5" y="695.0635">setAddress(address: String): void</text><ellipse cx="9" cy="701.207" fill="#84BE84" rx="1.5" ry="1.5" style="stroke:#038048;stroke-width:0.5;"/><text fill="#000000" font-family="sans-serif" font-size="7" lengthAdjust="spacing" textLength="71.5" x="13.5" y="702.8838">getMobileNumber(): int</text><ellipse cx="9" cy="709.0273" fill="#84BE84" rx="1.5" ry="1.5" style="stroke:#038048;stroke-width:0.5;"/><text fill="#000000" font-family="sans-serif" font-size="7" lengthAdjust="spacing" textLength="133" x="13.5" y="710.7041">setMobileNumber(mobileNumber: int): void</text><ellipse cx="9" cy="716.8477" fill="#84BE84" rx="1.5" ry="1.5" style="stroke:#038048;stroke-width:0.5;"/><text fill="#000000" font-family="sans-serif" font-size="7" lengthAdjust="spacing" textLength="54.5" x="13.5" y="718.5244">getEmail(): String</text><ellipse cx="9" cy="724.668" fill="#84BE84" rx="1.5" ry="1.5" style="stroke:#038048;stroke-width:0.5;"/><text fill="#000000" font-family="sans-serif" font-size="7" lengthAdjust="spacing" textLength="87.5" x="13.5" y="726.3447">setEmail(email: String): void</text><ellipse cx="9" cy="732.4883" fill="#84BE84" rx="1.5" ry="1.5" style="stroke:#038048;stroke-width:0.5;"/><text fill="#000000" font-family="sans-serif" font-size="7" lengthAdjust="spacing" textLength="81" x="13.5" y="734.165">getTaxPayerNumber(): int</text><ellipse cx="9" cy="740.3086" fill="#84BE84" rx="1.5" ry="1.5" style="stroke:#038048;stroke-width:0.5;"/><text fill="#000000" font-family="sans-serif" font-size="7" lengthAdjust="spacing" textLength="149.5" x="13.5" y="741.9854">setTaxPayerNumber(taxPayerNumber: int): void</text><ellipse cx="9" cy="748.1289" fill="#84BE84" rx="1.5" ry="1.5" style="stroke:#038048;stroke-width:0.5;"/><text fill="#000000" font-family="sans-serif" font-size="7" lengthAdjust="spacing" textLength="98" x="13.5" y="749.8057">getStatus(): CollaboratorStatus</text><ellipse cx="9" cy="755.9492" fill="#84BE84" rx="1.5" ry="1.5" style="stroke:#038048;stroke-width:0.5;"/><text fill="#000000" font-family="sans-serif" font-size="7" lengthAdjust="spacing" textLength="85.5" x="13.5" y="757.626">activateCollaborator(): void</text><ellipse cx="9" cy="763.7695" fill="#84BE84" rx="1.5" ry="1.5" style="stroke:#038048;stroke-width:0.5;"/><text fill="#000000" font-family="sans-serif" font-size="7" lengthAdjust="spacing" textLength="188.5" x="13.5" y="765.4463">getIdentificationDocumentType(): DocumentTypeRepository</text><ellipse cx="9" cy="771.5898" fill="#84BE84" rx="1.5" ry="1.5" style="stroke:#038048;stroke-width:0.5;"/><text fill="#000000" font-family="sans-serif" font-size="7" lengthAdjust="spacing" textLength="292.5" x="13.5" y="773.2666">setIdentificationDocumentType(identificationDocumentType: DocumentTypeRepository): void</text><ellipse cx="9" cy="779.4102" fill="#84BE84" rx="1.5" ry="1.5" style="stroke:#038048;stroke-width:0.5;"/><text fill="#000000" font-family="sans-serif" font-size="7" lengthAdjust="spacing" textLength="122.5" x="13.5" y="781.0869">getDocumentIdentificationNumber(): int</text><ellipse cx="9" cy="787.2305" fill="#84BE84" rx="1.5" ry="1.5" style="stroke:#038048;stroke-width:0.5;"/><text fill="#000000" font-family="sans-serif" font-size="7" lengthAdjust="spacing" textLength="234" x="13.5" y="788.9072">setDocumentIdentificationNumber(documentIdentificationNumber: int): void</text><ellipse cx="9" cy="795.0508" fill="#84BE84" rx="1.5" ry="1.5" style="stroke:#038048;stroke-width:0.5;"/><text fill="#000000" font-family="sans-serif" font-size="7" lengthAdjust="spacing" textLength="83.5" x="13.5" y="796.7275">getSkills(): ArrayList&lt;Skill&gt;</text><ellipse cx="9" cy="802.8711" fill="#84BE84" rx="1.5" ry="1.5" style="stroke:#038048;stroke-width:0.5;"/><text fill="#000000" font-family="sans-serif" font-size="7" lengthAdjust="spacing" textLength="41" x="13.5" y="804.5479">getJob(): Job</text></g><!--class JobRepository--><g id="elem_JobRepository"><rect codeLine="88" fill="#F1F1F1" height="63.1016" id="JobRepository" rx="1.25" ry="1.25" style="stroke:#181818;stroke-width:0.25;" width="145.5" x="1193.75" y="385.75"/><ellipse cx="1241.875" cy="393.75" fill="#ADD1B2" rx="5.5" ry="5.5" style="stroke:#181818;stroke-width:0.5;"/><path d="M1243.2578,391.6875 Q1243.3359,391.5781 1243.4297,391.5234 Q1243.5234,391.4688 1243.6328,391.4688 Q1243.8203,391.4688 1243.9375,391.6016 Q1244.0547,391.7266 1244.0547,392.0313 L1244.0547,392.7578 Q1244.0547,393.0625 1243.9375,393.1953 Q1243.8203,393.3281 1243.6328,393.3281 Q1243.4609,393.3281 1243.3594,393.2266 Q1243.2578,393.1328 1243.2031,392.875 Q1243.1797,392.6953 1243.0859,392.6016 Q1242.9219,392.4141 1242.6172,392.3047 Q1242.3125,392.1953 1242,392.1953 Q1241.6172,392.1953 1241.2969,392.3594 Q1240.9844,392.5234 1240.7344,392.8984 Q1240.4922,393.2734 1240.4922,393.7891 L1240.4922,394.3359 Q1240.4922,394.9531 1240.9375,395.3672 Q1241.3828,395.7734 1242.1797,395.7734 Q1242.6484,395.7734 1242.9766,395.6484 Q1243.1719,395.5703 1243.3828,395.3516 Q1243.5156,395.2188 1243.5859,395.1797 Q1243.6641,395.1406 1243.7656,395.1406 Q1243.9297,395.1406 1244.0547,395.2734 Q1244.1875,395.3984 1244.1875,395.5703 Q1244.1875,395.7422 1244.0156,395.9453 Q1243.7656,396.2344 1243.3672,396.3984 Q1242.8281,396.625 1242.1797,396.625 Q1241.4219,396.625 1240.8203,396.3125 Q1240.3281,396.0625 1239.9844,395.5313 Q1239.6406,394.9922 1239.6406,394.3516 L1239.6406,393.7734 Q1239.6406,393.1094 1239.9453,392.5391 Q1240.2578,391.9609 1240.8047,391.6563 Q1241.3516,391.3438 1241.9688,391.3438 Q1242.3359,391.3438 1242.6563,391.4297 Q1242.9844,391.5078 1243.2578,391.6875 Z " fill="#000000"/><text fill="#000000" font-family="sans-serif" font-size="7" lengthAdjust="spacing" textLength="45" x="1252.125" y="396.1768">JobRepository</text><line style="stroke:#181818;stroke-width:0.25;" x1="1194.25" x2="1338.75" y1="401.75" y2="401.75"/><rect fill="none" height="3" style="stroke:#C82930;stroke-width:0.5;" width="3" x="1197.75" y="406.9102"/><text fill="#000000" font-family="sans-serif" font-size="7" lengthAdjust="spacing" textLength="92" x="1203.75" y="410.0869">jobsArrayList: ArrayList&lt;Job&gt;</text><line style="stroke:#181818;stroke-width:0.25;" x1="1194.25" x2="1338.75" y1="413.5703" y2="413.5703"/><ellipse cx="1199.25" cy="420.2305" fill="#84BE84" rx="1.5" ry="1.5" style="stroke:#038048;stroke-width:0.5;"/><text fill="#000000" font-family="sans-serif" font-size="7" lengthAdjust="spacing" textLength="108.5" x="1203.75" y="421.9072">getJobsArrayList(): ArrayList&lt;Job&gt;</text><ellipse cx="1199.25" cy="428.0508" fill="#84BE84" rx="1.5" ry="1.5" style="stroke:#038048;stroke-width:0.5;"/><text fill="#000000" font-family="sans-serif" font-size="7" lengthAdjust="spacing" textLength="132.5" x="1203.75" y="429.7275">jobAlreadyExist(jobName: String): boolean</text><ellipse cx="1199.25" cy="435.8711" fill="#84BE84" rx="1.5" ry="1.5" style="stroke:#038048;stroke-width:0.5;"/><text fill="#000000" font-family="sans-serif" font-size="7" lengthAdjust="spacing" textLength="132.5" x="1203.75" y="437.5479">jobNameIsValid(jobName: String): boolean</text><ellipse cx="1199.25" cy="443.6914" fill="#84BE84" rx="1.5" ry="1.5" style="stroke:#038048;stroke-width:0.5;"/><text fill="#000000" font-family="sans-serif" font-size="7" lengthAdjust="spacing" textLength="95" x="1203.75" y="445.3682">addJob(jobName: String): void</text></g><!--class Job--><g id="elem_Job"><rect codeLine="96" fill="#F1F1F1" height="70.9219" id="Job" rx="1.25" ry="1.25" style="stroke:#181818;stroke-width:0.25;" width="122" x="1274.5" y="619.75"/><ellipse cx="1327.875" cy="627.75" fill="#ADD1B2" rx="5.5" ry="5.5" style="stroke:#181818;stroke-width:0.5;"/><path d="M1329.2578,625.6875 Q1329.3359,625.5781 1329.4297,625.5234 Q1329.5234,625.4688 1329.6328,625.4688 Q1329.8203,625.4688 1329.9375,625.6016 Q1330.0547,625.7266 1330.0547,626.0313 L1330.0547,626.7578 Q1330.0547,627.0625 1329.9375,627.1953 Q1329.8203,627.3281 1329.6328,627.3281 Q1329.4609,627.3281 1329.3594,627.2266 Q1329.2578,627.1328 1329.2031,626.875 Q1329.1797,626.6953 1329.0859,626.6016 Q1328.9219,626.4141 1328.6172,626.3047 Q1328.3125,626.1953 1328,626.1953 Q1327.6172,626.1953 1327.2969,626.3594 Q1326.9844,626.5234 1326.7344,626.8984 Q1326.4922,627.2734 1326.4922,627.7891 L1326.4922,628.3359 Q1326.4922,628.9531 1326.9375,629.3672 Q1327.3828,629.7734 1328.1797,629.7734 Q1328.6484,629.7734 1328.9766,629.6484 Q1329.1719,629.5703 1329.3828,629.3516 Q1329.5156,629.2188 1329.5859,629.1797 Q1329.6641,629.1406 1329.7656,629.1406 Q1329.9297,629.1406 1330.0547,629.2734 Q1330.1875,629.3984 1330.1875,629.5703 Q1330.1875,629.7422 1330.0156,629.9453 Q1329.7656,630.2344 1329.3672,630.3984 Q1328.8281,630.625 1328.1797,630.625 Q1327.4219,630.625 1326.8203,630.3125 Q1326.3281,630.0625 1325.9844,629.5313 Q1325.6406,628.9922 1325.6406,628.3516 L1325.6406,627.7734 Q1325.6406,627.1094 1325.9453,626.5391 Q1326.2578,625.9609 1326.8047,625.6563 Q1327.3516,625.3438 1327.9688,625.3438 Q1328.3359,625.3438 1328.6563,625.4297 Q1328.9844,625.5078 1329.2578,625.6875 Z " fill="#000000"/><text fill="#000000" font-family="sans-serif" font-size="7" lengthAdjust="spacing" textLength="11" x="1338.125" y="630.1768">Job</text><line style="stroke:#181818;stroke-width:0.25;" x1="1275" x2="1396" y1="635.75" y2="635.75"/><rect fill="none" height="3" style="stroke:#C82930;stroke-width:0.5;" width="3" x="1278.5" y="640.9102"/><text fill="#000000" font-family="sans-serif" font-size="7" lengthAdjust="spacing" textLength="50" x="1284.5" y="644.0869">jobName: String</text><line style="stroke:#181818;stroke-width:0.25;" x1="1275" x2="1396" y1="647.5703" y2="647.5703"/><ellipse cx="1280" cy="654.2305" fill="#84BE84" rx="1.5" ry="1.5" style="stroke:#038048;stroke-width:0.5;"/><text fill="#000000" font-family="sans-serif" font-size="7" lengthAdjust="spacing" textLength="66" x="1284.5" y="655.9072">Job(jobName: String)</text><ellipse cx="1280" cy="662.0508" fill="#84BE84" rx="1.5" ry="1.5" style="stroke:#038048;stroke-width:0.5;"/><text fill="#000000" font-family="sans-serif" font-size="7" lengthAdjust="spacing" textLength="65" x="1284.5" y="663.7275">getjobName(): String</text><ellipse cx="1280" cy="669.8711" fill="#84BE84" rx="1.5" ry="1.5" style="stroke:#038048;stroke-width:0.5;"/><text fill="#000000" font-family="sans-serif" font-size="7" lengthAdjust="spacing" textLength="109" x="1284.5" y="671.5479">setjobName(jobName: String): void</text><ellipse cx="1280" cy="677.6914" fill="#84BE84" rx="1.5" ry="1.5" style="stroke:#038048;stroke-width:0.5;"/><text fill="#000000" font-family="sans-serif" font-size="7" lengthAdjust="spacing" textLength="105.5" x="1284.5" y="679.3682">equals(jobName: String): boolean</text><ellipse cx="1280" cy="685.5117" fill="#84BE84" rx="1.5" ry="1.5" style="stroke:#038048;stroke-width:0.5;"/><text fill="#000000" font-family="sans-serif" font-size="7" lengthAdjust="spacing" textLength="52" x="1284.5" y="687.1885">toString(): String</text></g><!--link Repositories to Repositories--><g id="link_Repositories_Repositories"><path codeLine="106" d="M1057,270.55 C1067.625,272.52 1074.5,276.005 1074.5,281 C1074.5,285.565 1068.755,288.87 1059.655,290.905 " fill="none" id="Repositories-to-Repositories" style="stroke:#181818;stroke-width:0.5;"/><polygon fill="#181818" points="1057,291.45,1061.809,292.5098,1059.4495,290.9501,1061.0092,288.5906,1057,291.45" style="stroke:#181818;stroke-width:0.5;"/><text fill="#000000" font-family="sans-serif" font-size="6.5" lengthAdjust="spacing" textLength="24.5" x="1077.5" y="283.3843">instance</text></g><!--link CreateCollaboratorAssignJobUI to CreateCollaboratorAssignJobController--><g id="link_CreateCollaboratorAssignJobUI_CreateCollaboratorAssignJobController"><path codeLine="107" d="M962,98.04 C962,107.335 962,116.98 962,125.915 " fill="none" id="CreateCollaboratorAssignJobUI-to-CreateCollaboratorAssignJobController" style="stroke:#181818;stroke-width:0.5;stroke-dasharray:7.0,7.0;"/><polygon fill="#181818" points="962,128.415,964,123.915,962,125.915,960,123.915,962,128.415" style="stroke:#181818;stroke-width:0.5;"/></g><!--link CreateCollaboratorAssignJobController to Collaborator--><g id="link_CreateCollaboratorAssignJobController_Collaborator"><path codeLine="108" d="M780.72,199.525 C615.395,235.59 389.045,296.755 336,370 C308.28,408.275 311.96,455.26 328.235,499.945 " fill="none" id="CreateCollaboratorAssignJobController-to-Collaborator" style="stroke:#181818;stroke-width:0.5;stroke-dasharray:7.0,7.0;"/><polygon fill="#181818" points="329.125,502.34,329.4308,497.4251,328.2535,499.9968,325.6817,498.8195,329.125,502.34" style="stroke:#181818;stroke-width:0.5;"/></g><!--link CreateCollaboratorAssignJobController to Job--><g id="link_CreateCollaboratorAssignJobController_Job"><path codeLine="109" d="M1105.295,199.52 C1192.56,229.165 1296.81,281.43 1348,370 C1393.2,448.205 1367.585,559.655 1349.165,617.18 " fill="none" id="CreateCollaboratorAssignJobController-to-Job" style="stroke:#181818;stroke-width:0.5;stroke-dasharray:7.0,7.0;"/><polygon fill="#181818" points="1348.345,619.71,1351.6325,616.0436,1349.1142,617.3313,1347.8265,614.8129,1348.345,619.71" style="stroke:#181818;stroke-width:0.5;"/></g><!--link CreateCollaboratorAssignJobController to Repositories--><g id="link_CreateCollaboratorAssignJobController_Repositories"><path codeLine="110" d="M962,199.62 C962,208.335 962,217.87 962,227.245 " fill="none" id="CreateCollaboratorAssignJobController-to-Repositories" style="stroke:#181818;stroke-width:0.5;stroke-dasharray:7.0,7.0;"/><polygon fill="#181818" points="962,229.88,964,225.38,962,227.38,960,225.38,962,229.88" style="stroke:#181818;stroke-width:0.5;"/></g><!--link Repositories to CollaboratorRepository--><g id="link_Repositories_CollaboratorRepository"><path codeLine="111" d="M886.68,332.055 C868.18,344.47 848.46,357.71 830.235,369.945 " fill="none" id="Repositories-CollaboratorRepository" style="stroke:#181818;stroke-width:0.5;"/><text fill="#000000" font-family="sans-serif" font-size="6.5" lengthAdjust="spacing" textLength="10.5" x="862" y="353.3843">has</text><text fill="#000000" font-family="sans-serif" font-size="6.5" lengthAdjust="spacing" textLength="3.5" x="877.2793" y="342.1184">1</text><text fill="#000000" font-family="sans-serif" font-size="6.5" lengthAdjust="spacing" textLength="3.5" x="832.365" y="364.6377">1</text></g><!--link Repositories to JobRepository--><g id="link_Repositories_JobRepository"><path codeLine="112" d="M1057.035,315.94 C1096.95,331.265 1143.525,350.29 1184.5,370 C1194.395,374.76 1204.725,380.23 1214.59,385.715 " fill="none" id="Repositories-JobRepository" style="stroke:#181818;stroke-width:0.5;"/><text fill="#000000" font-family="sans-serif" font-size="6.5" lengthAdjust="spacing" textLength="10.5" x="1149.5" y="353.3843">has</text><text fill="#000000" font-family="sans-serif" font-size="6.5" lengthAdjust="spacing" textLength="3.5" x="1061.1181" y="316.1519">1</text><text fill="#000000" font-family="sans-serif" font-size="6.5" lengthAdjust="spacing" textLength="3.5" x="1204.5502" y="380.3391">1</text></g><!--link CollaboratorRepository to Collaborator--><g id="link_CollaboratorRepository_Collaborator"><path codeLine="113" d="M695.005,464.575 C678.97,476.04 660.925,488.94 641.98,502.485 " fill="none" id="CollaboratorRepository-Collaborator" style="stroke:#181818;stroke-width:0.5;"/><text fill="#000000" font-family="sans-serif" font-size="6.5" lengthAdjust="spacing" textLength="10.5" x="672.5" y="485.8843">has</text><text fill="#000000" font-family="sans-serif" font-size="6.5" lengthAdjust="spacing" textLength="3.5" x="686.5667" y="474.2057">1</text><text fill="#000000" font-family="sans-serif" font-size="6.5" lengthAdjust="spacing" textLength="2.5" x="645.1041" y="497.2215">*</text></g><!--link JobRepository to Job--><g id="link_JobRepository_Job"><path codeLine="114" d="M1275.59,448.975 C1288.435,493.095 1311.825,573.43 1325.265,619.595 " fill="none" id="JobRepository-Job" style="stroke:#181818;stroke-width:0.5;"/><text fill="#000000" font-family="sans-serif" font-size="6.5" lengthAdjust="spacing" textLength="10.5" x="1286" y="485.8843">has</text><text fill="#000000" font-family="sans-serif" font-size="6.5" lengthAdjust="spacing" textLength="3.5" x="1272.8928" y="458.7208">1</text><text fill="#000000" font-family="sans-serif" font-size="6.5" lengthAdjust="spacing" textLength="2.5" x="1321.5806" y="614.4589">*</text></g><!--SRC=[vLTDRzim3BtxLmWz9KjIO5TZ292c7PPYBOecsrssjKQhOsMMKZGOzjz7IVuGPTb9UnjsSMloaQR8HuPASoebMPQCAhOKUKuJKL8boeMK_Acu5Sct5VaTHJEIYaAL061bF0HVDh28J4Z6vJwdHv3BhrogqK_u9oQBigH7_Vu95FDnJ5u4pnouwzZQfQx4TU12NK-IvInLYo9RP1byP0Gg-EDy0rHhWxaMwM772hKvxfc6kU-FR2ya1zT7nz85cE0oJn0J4rhOaHjaGjFdZVZoUFTjDNB4QIUxMfi8aJDQQ41vA1hydoXAJvMmhGcKSaPq4Tg0J6ASTrDg9zikSXbMH1Fon5HJvB5VOQllLdNSMqbh0HdKoGk0Ut8BPZJBKEOAkcCnMQkI5qzJKfTgbS63_-0fLLmKzuTTJ7YXfaJHrmTwP2L84arq8sGxolFMnquaF6S80HyjcPGjXcOx3jaNnJNKf1Kdl5HRBE8e4lTSVLISadGh9DE5DRLpkE6mmSb1QshAZwhRfFH4APP1e-4AlhCKRLh_yMfC29VVQSwpXwqes6YldoR444R7yLcKEmhp1Fwr0TM1UGPmMbRoT2HLsOCmBkyXtoZf2AJxYz5KyHVu72gKl3gkdtcUZwH-ed5hvFDJLRVMbcTuQ4p9WCywjeR4JPOvauQwl92A5YaSo5MzPsBDga1SxDgJd3CgwK5jDMKiOLpeeaTZKx-gJg8x29t5QFr8DAeJNJDqCSuBiTkz63uuqllEOFg-xtp16MJAvt8HNZlzf_CPQbKZHpqDaaxZWmpD1dWF313DeZStEHYT75SDfRhSjaIo6yY4_0ypiJukzBkYwY0npzP6DdQ6nKOWlScZ7JyLyUjrPsAJlCXXsycETiDXcGz5KywCmN732hqRgj1ehFo3nLMT1D-iLNJoX1mitEJwJh0oM0VFcIbTruqLUvL5fdSE4RIzfganHeeENP2F6yqj_-DMY6Y7Z3Q8fUZJdYh0P-J9SiMVL5Qg2LJzWFdRSkjWrKlVWMtVH3fW-VQUG35T3_GvIjOWyEIqm8cqJJKEZAVwbwI-9S44Nve93Y_UygX_48CxOxldtxgGu6K0d5GDVFDQtGhl-zQKIhUoAyqWbDghNXU2Bqg0gO_Yui11oDgUgPBwRL2BUpuv8UpNWKBIXw9MmWeTtn1gX7QVsMoEbw6uMOMYuQlxvUNypDlwUVT7uy_1lC5CC-jyD5gAqDalFbxCPl3ek-F4P4lxJ32XBRB7ZOQ3qGVydSe6-scXcbiMyHS0]--></g></svg>