<svg xmlns="http://www.w3.org/2000/svg" xmlns:xlink="http://www.w3.org/1999/xlink" contentStyleType="text/css" height="981px" preserveAspectRatio="none" style="width:1198px;height:981px;background:#FFFFFF;" version="1.1" viewBox="0 0 1198 981" width="1198px" zoomAndPan="magnify"><defs/><g><!--class User--><g id="elem_User"><rect codeLine="12" fill="#F1F1F1" height="92.4844" id="User" rx="2.5" ry="2.5" style="stroke:#181818;stroke-width:0.5;" width="71.917" x="58.5" y="7"/><text fill="#000000" font-family="sans-serif" font-size="14" lengthAdjust="spacing" textLength="29.5586" x="79.6792" y="27.1074">User</text><line style="stroke:#181818;stroke-width:0.5;" x1="59.5" x2="129.417" y1="35.6211" y2="35.6211"/><text fill="#000000" font-family="sans-serif" font-size="14" lengthAdjust="spacing" textLength="35.0205" x="64.5" y="54.7285">name</text><text fill="#000000" font-family="sans-serif" font-size="14" lengthAdjust="spacing" textLength="33.4551" x="64.5" y="73.3496">email</text><text fill="#000000" font-family="sans-serif" font-size="14" lengthAdjust="spacing" textLength="59.917" x="64.5" y="91.9707">password</text></g><!--class Role--><g id="elem_Role"><rect codeLine="18" fill="#F1F1F1" height="73.8633" id="Role" rx="2.5" ry="2.5" style="stroke:#181818;stroke-width:0.5;" width="79.7031" x="23.5" y="187"/><text fill="#000000" font-family="sans-serif" font-size="14" lengthAdjust="spacing" textLength="28.793" x="48.9551" y="207.1074">Role</text><line style="stroke:#181818;stroke-width:0.5;" x1="24.5" x2="102.2031" y1="215.6211" y2="215.6211"/><text fill="#000000" font-family="sans-serif" font-size="14" lengthAdjust="spacing" textLength="35.0205" x="29.5" y="234.7285">name</text><text fill="#000000" font-family="sans-serif" font-size="14" lengthAdjust="spacing" textLength="67.7031" x="29.5" y="253.3496">description</text></g><!--class Map--><g id="elem_Map"><rect codeLine="23" fill="#F1F1F1" height="92.4844" id="Map" rx="2.5" ry="2.5" style="stroke:#181818;stroke-width:0.5;" width="50.1445" x="458.5" y="178"/><text fill="#000000" font-family="sans-serif" font-size="14" lengthAdjust="spacing" textLength="27.2344" x="469.9551" y="198.1074">Map</text><line style="stroke:#181818;stroke-width:0.5;" x1="459.5" x2="507.6445" y1="206.6211" y2="206.6211"/><text fill="#000000" font-family="sans-serif" font-size="14" lengthAdjust="spacing" textLength="35.0205" x="464.5" y="225.7285">name</text><text fill="#000000" font-family="sans-serif" font-size="14" lengthAdjust="spacing" textLength="32.6826" x="464.5" y="244.3496">width</text><text fill="#000000" font-family="sans-serif" font-size="14" lengthAdjust="spacing" textLength="38.1445" x="464.5" y="262.9707">height</text></g><!--class Scenario--><g id="elem_Scenario"><rect codeLine="29" fill="#F1F1F1" height="92.4844" id="Scenario" rx="2.5" ry="2.5" style="stroke:#181818;stroke-width:0.5;" width="140.3721" x="834.5" y="882"/><text fill="#000000" font-family="sans-serif" font-size="14" lengthAdjust="spacing" textLength="55.2549" x="877.0586" y="902.1074">Scenario</text><line style="stroke:#181818;stroke-width:0.5;" x1="835.5" x2="973.8721" y1="910.6211" y2="910.6211"/><text fill="#000000" font-family="sans-serif" font-size="14" lengthAdjust="spacing" textLength="35.0205" x="840.5" y="929.7285">name</text><text fill="#000000" font-family="sans-serif" font-size="14" lengthAdjust="spacing" textLength="67.7031" x="840.5" y="948.3496">description</text><text fill="#000000" font-family="sans-serif" font-size="14" lengthAdjust="spacing" textLength="128.3721" x="840.5" y="966.9707">historicalRestrictions</text></g><!--class City--><g id="elem_City"><rect codeLine="35" fill="#F1F1F1" height="73.8633" id="City" rx="2.5" ry="2.5" style="stroke:#181818;stroke-width:0.5;" width="61.0205" x="372" y="349"/><text fill="#000000" font-family="sans-serif" font-size="14" lengthAdjust="spacing" textLength="24.1104" x="390.4551" y="369.1074">City</text><line style="stroke:#181818;stroke-width:0.5;" x1="373" x2="432.0205" y1="377.6211" y2="377.6211"/><text fill="#000000" font-family="sans-serif" font-size="14" lengthAdjust="spacing" textLength="35.0205" x="378" y="396.7285">name</text><text fill="#000000" font-family="sans-serif" font-size="14" lengthAdjust="spacing" textLength="49.0205" x="378" y="415.3496">nBlocks</text></g><!--class House--><g id="elem_House"><rect codeLine="40" fill="#F1F1F1" height="55.2422" id="House" rx="2.5" ry="2.5" style="stroke:#181818;stroke-width:0.5;" width="46.4688" x="379.5" y="548.5"/><text fill="#000000" font-family="sans-serif" font-size="14" lengthAdjust="spacing" textLength="40.4688" x="382.5" y="568.6074">House</text><line style="stroke:#181818;stroke-width:0.5;" x1="380.5" x2="424.9688" y1="577.1211" y2="577.1211"/><text fill="#000000" font-family="sans-serif" font-size="14" lengthAdjust="spacing" textLength="10.8965" x="385.5" y="596.2285">id</text></g><!--class Industry--><g id="elem_Industry"><rect codeLine="44" fill="#F1F1F1" height="55.2422" id="Industry" rx="2.5" ry="2.5" style="stroke:#181818;stroke-width:0.5;" width="55.7998" x="512.5" y="548.5"/><text fill="#000000" font-family="sans-serif" font-size="14" lengthAdjust="spacing" textLength="49.7998" x="515.5" y="568.6074">Industry</text><line style="stroke:#181818;stroke-width:0.5;" x1="513.5" x2="567.2998" y1="577.1211" y2="577.1211"/><text fill="#000000" font-family="sans-serif" font-size="14" lengthAdjust="spacing" textLength="35.0205" x="518.5" y="596.2285">name</text></g><!--class IndustryType--><g id="elem_IndustryType"><rect codeLine="48" fill="#F1F1F1" height="73.8633" id="IndustryType" rx="2.5" ry="2.5" style="stroke:#181818;stroke-width:0.5;" width="86.9238" x="606" y="729"/><text fill="#000000" font-family="sans-serif" font-size="14" lengthAdjust="spacing" textLength="80.9238" x="609" y="749.1074">IndustryType</text><line style="stroke:#181818;stroke-width:0.5;" x1="607" x2="691.9238" y1="757.6211" y2="757.6211"/><text fill="#000000" font-family="sans-serif" font-size="14" lengthAdjust="spacing" textLength="35.0205" x="612" y="776.7285">name</text><text fill="#000000" font-family="sans-serif" font-size="14" lengthAdjust="spacing" textLength="67.7031" x="612" y="795.3496">description</text></g><!--class Station--><g id="elem_Station"><rect codeLine="53" fill="#F1F1F1" height="73.8633" id="Station" rx="2.5" ry="2.5" style="stroke:#181818;stroke-width:0.5;" width="70.3789" x="144.5" y="349"/><text fill="#000000" font-family="sans-serif" font-size="14" lengthAdjust="spacing" textLength="43.5859" x="157.8965" y="369.1074">Station</text><line style="stroke:#181818;stroke-width:0.5;" x1="145.5" x2="213.8789" y1="377.6211" y2="377.6211"/><text fill="#000000" font-family="sans-serif" font-size="14" lengthAdjust="spacing" textLength="35.0205" x="150.5" y="396.7285">name</text><text fill="#000000" font-family="sans-serif" font-size="14" lengthAdjust="spacing" textLength="58.3789" x="150.5" y="415.3496">upgrades</text></g><!--class StationType--><g id="elem_StationType"><rect codeLine="58" fill="#F1F1F1" height="73.8633" id="StationType" rx="2.5" ry="2.5" style="stroke:#181818;stroke-width:0.5;" width="80.71" x="7" y="539"/><text fill="#000000" font-family="sans-serif" font-size="14" lengthAdjust="spacing" textLength="74.71" x="10" y="559.1074">StationType</text><line style="stroke:#181818;stroke-width:0.5;" x1="8" x2="86.71" y1="567.6211" y2="567.6211"/><text fill="#000000" font-family="sans-serif" font-size="14" lengthAdjust="spacing" textLength="35.0205" x="13" y="586.7285">name</text><text fill="#000000" font-family="sans-serif" font-size="14" lengthAdjust="spacing" textLength="67.7031" x="13" y="605.3496">description</text></g><!--class RailwayLine--><g id="elem_RailwayLine"><rect codeLine="63" fill="#F1F1F1" height="73.8633" id="RailwayLine" rx="2.5" ry="2.5" style="stroke:#181818;stroke-width:0.5;" width="81.4824" x="139" y="187"/><text fill="#000000" font-family="sans-serif" font-size="14" lengthAdjust="spacing" textLength="75.4824" x="142" y="207.1074">RailwayLine</text><line style="stroke:#181818;stroke-width:0.5;" x1="140" x2="219.4824" y1="215.6211" y2="215.6211"/><text fill="#000000" font-family="sans-serif" font-size="14" lengthAdjust="spacing" textLength="38.1445" x="145" y="234.7285">length</text><text fill="#000000" font-family="sans-serif" font-size="14" lengthAdjust="spacing" textLength="26.4619" x="145" y="253.3496">type</text></g><!--class Train--><g id="elem_Train"><rect codeLine="68" fill="#F1F1F1" height="55.2422" id="Train" rx="2.5" ry="2.5" style="stroke:#181818;stroke-width:0.5;" width="37.8965" x="817.5" y="358.5"/><text fill="#000000" font-family="sans-serif" font-size="14" lengthAdjust="spacing" textLength="31.8965" x="820.5" y="378.6074">Train</text><line style="stroke:#181818;stroke-width:0.5;" x1="818.5" x2="854.3965" y1="387.1211" y2="387.1211"/><text fill="#000000" font-family="sans-serif" font-size="14" lengthAdjust="spacing" textLength="10.8965" x="823.5" y="406.2285">id</text></g><!--class Locomotive--><g id="elem_Locomotive"><rect codeLine="72" fill="#F1F1F1" height="148.3477" id="Locomotive" rx="2.5" ry="2.5" style="stroke:#181818;stroke-width:0.5;" width="145.0615" x="926" y="502"/><text fill="#000000" font-family="sans-serif" font-size="14" lengthAdjust="spacing" textLength="71.5928" x="962.7344" y="522.1074">Locomotive</text><line style="stroke:#181818;stroke-width:0.5;" x1="927" x2="1070.0615" y1="530.6211" y2="530.6211"/><text fill="#000000" font-family="sans-serif" font-size="14" lengthAdjust="spacing" textLength="10.8965" x="932" y="549.7285">id</text><text fill="#000000" font-family="sans-serif" font-size="14" lengthAdjust="spacing" textLength="38.1309" x="932" y="568.3496">power</text><text fill="#000000" font-family="sans-serif" font-size="14" lengthAdjust="spacing" textLength="75.4893" x="932" y="586.9707">acceleration</text><text fill="#000000" font-family="sans-serif" font-size="14" lengthAdjust="spacing" textLength="59.9443" x="932" y="605.5918">topSpeed</text><text fill="#000000" font-family="sans-serif" font-size="14" lengthAdjust="spacing" textLength="133.0615" x="932" y="624.2129">startYearOfOperation</text><text fill="#000000" font-family="sans-serif" font-size="14" lengthAdjust="spacing" textLength="98.0479" x="932" y="642.834">acquisitionPrice</text></g><!--class LocomotiveType--><g id="elem_LocomotiveType"><rect codeLine="81" fill="#F1F1F1" height="73.8633" id="LocomotiveType" rx="2.5" ry="2.5" style="stroke:#181818;stroke-width:0.5;" width="108.7168" x="1000" y="729"/><text fill="#000000" font-family="sans-serif" font-size="14" lengthAdjust="spacing" textLength="102.7168" x="1003" y="749.1074">LocomotiveType</text><line style="stroke:#181818;stroke-width:0.5;" x1="1001" x2="1107.7168" y1="757.6211" y2="757.6211"/><text fill="#000000" font-family="sans-serif" font-size="14" lengthAdjust="spacing" textLength="35.0205" x="1006" y="776.7285">name</text><text fill="#000000" font-family="sans-serif" font-size="14" lengthAdjust="spacing" textLength="67.7031" x="1006" y="795.3496">description</text></g><!--class TimeRestrictions--><g id="elem_TimeRestrictions"><rect codeLine="86" fill="#F1F1F1" height="73.8633" id="TimeRestrictions" rx="2.5" ry="2.5" style="stroke:#181818;stroke-width:0.5;" width="110.2412" x="728.5" y="729"/><text fill="#000000" font-family="sans-serif" font-size="14" lengthAdjust="spacing" textLength="104.2412" x="731.5" y="749.1074">TimeRestrictions</text><line style="stroke:#181818;stroke-width:0.5;" x1="729.5" x2="837.7412" y1="757.6211" y2="757.6211"/><text fill="#000000" font-family="sans-serif" font-size="14" lengthAdjust="spacing" textLength="58.3379" x="734.5" y="776.7285">startTime</text><text fill="#000000" font-family="sans-serif" font-size="14" lengthAdjust="spacing" textLength="54.4688" x="734.5" y="795.3496">endTime</text></g><!--class Carriage--><g id="elem_Carriage"><rect codeLine="91" fill="#F1F1F1" height="73.8633" id="Carriage" rx="2.5" ry="2.5" style="stroke:#181818;stroke-width:0.5;" width="63.3584" x="805" y="539"/><text fill="#000000" font-family="sans-serif" font-size="14" lengthAdjust="spacing" textLength="53.6895" x="809.8345" y="559.1074">Carriage</text><line style="stroke:#181818;stroke-width:0.5;" x1="806" x2="867.3584" y1="567.6211" y2="567.6211"/><text fill="#000000" font-family="sans-serif" font-size="14" lengthAdjust="spacing" textLength="10.8965" x="811" y="586.7285">id</text><text fill="#000000" font-family="sans-serif" font-size="14" lengthAdjust="spacing" textLength="51.3584" x="811" y="605.3496">capacity</text></g><!--class CarriageType--><g id="elem_CarriageType"><rect codeLine="96" fill="#F1F1F1" height="55.2422" id="CarriageType" rx="2.5" ry="2.5" style="stroke:#181818;stroke-width:0.5;" width="90.8135" x="874" y="738.5"/><text fill="#000000" font-family="sans-serif" font-size="14" lengthAdjust="spacing" textLength="84.8135" x="877" y="758.6074">CarriageType</text><line style="stroke:#181818;stroke-width:0.5;" x1="875" x2="963.8135" y1="767.1211" y2="767.1211"/><text fill="#000000" font-family="sans-serif" font-size="14" lengthAdjust="spacing" textLength="35.0205" x="880" y="786.2285">name</text></g><!--class Route--><g id="elem_Route"><rect codeLine="100" fill="#F1F1F1" height="55.2422" id="Route" rx="2.5" ry="2.5" style="stroke:#181818;stroke-width:0.5;" width="43.3584" x="255" y="196.5"/><text fill="#000000" font-family="sans-serif" font-size="14" lengthAdjust="spacing" textLength="37.3584" x="258" y="216.6074">Route</text><line style="stroke:#181818;stroke-width:0.5;" x1="256" x2="297.3584" y1="225.1211" y2="225.1211"/><text fill="#000000" font-family="sans-serif" font-size="14" lengthAdjust="spacing" textLength="10.8965" x="261" y="244.2285">id</text></g><!--class Cargo--><g id="elem_Cargo"><rect codeLine="104" fill="#F1F1F1" height="55.2422" id="Cargo" rx="2.5" ry="2.5" style="stroke:#181818;stroke-width:0.5;" width="61.0342" x="510" y="738.5"/><text fill="#000000" font-family="sans-serif" font-size="14" lengthAdjust="spacing" textLength="38.1309" x="521.4517" y="758.6074">Cargo</text><line style="stroke:#181818;stroke-width:0.5;" x1="511" x2="570.0342" y1="767.1211" y2="767.1211"/><text fill="#000000" font-family="sans-serif" font-size="14" lengthAdjust="spacing" textLength="49.0342" x="516" y="786.2285">quantity</text></g><!--class Location--><g id="elem_Location"><rect codeLine="108" fill="#F1F1F1" height="73.8633" id="Location" rx="2.5" ry="2.5" style="stroke:#181818;stroke-width:0.5;" width="86.7168" x="272" y="729"/><text fill="#000000" font-family="sans-serif" font-size="14" lengthAdjust="spacing" textLength="52.9307" x="288.8931" y="749.1074">Location</text><line style="stroke:#181818;stroke-width:0.5;" x1="273" x2="357.7168" y1="757.6211" y2="757.6211"/><text fill="#000000" font-family="sans-serif" font-size="14" lengthAdjust="spacing" textLength="74.7168" x="278" y="776.7285">coordinateX</text><text fill="#000000" font-family="sans-serif" font-size="14" lengthAdjust="spacing" textLength="74.7168" x="278" y="795.3496">coordinateY</text></g><!--link User to Role--><g id="link_User_Role"><path codeLine="113" d="M86.19,99.29 C81.15,126.76 75.893,155.4386 71.193,181.0486 " fill="none" id="User-to-Role" style="stroke:#181818;stroke-width:1.0;"/><polygon fill="#181818" points="70.11,186.95,75.6689,178.8199,71.0125,182.0321,67.8003,177.3758,70.11,186.95" style="stroke:#181818;stroke-width:1.0;"/><text fill="#000000" font-family="sans-serif" font-size="13" lengthAdjust="spacing" textLength="20.96" x="81.5" y="144.0283">has</text><text fill="#000000" font-family="sans-serif" font-size="13" lengthAdjust="spacing" textLength="5.0591" x="79.6127" y="121.3514">*</text><text fill="#000000" font-family="sans-serif" font-size="13" lengthAdjust="spacing" textLength="7.23" x="63.732" y="175.6195">1</text></g><!--link User to Map--><g id="link_User_Map"><path codeLine="114" d="M130.75,69.75 C208.83,103.67 385.7769,180.5391 452.7569,209.6391 " fill="none" id="User-to-Map" style="stroke:#181818;stroke-width:1.0;"/><polygon fill="#181818" points="458.26,212.03,451.5993,204.775,453.6741,210.0376,448.4115,212.1124,458.26,212.03" style="stroke:#181818;stroke-width:1.0;"/><text fill="#000000" font-family="sans-serif" font-size="13" lengthAdjust="spacing" textLength="53.479" x="302.5" y="144.0283">manages</text><text fill="#000000" font-family="sans-serif" font-size="13" lengthAdjust="spacing" textLength="7.23" x="138.3572" y="68.3325">1</text><text fill="#000000" font-family="sans-serif" font-size="13" lengthAdjust="spacing" textLength="5.0591" x="445.4461" y="203.2739">*</text></g><!--link Map to Scenario--><g id="link_Map_Scenario"><path codeLine="116" d="M508.88,225.43 C632.14,228.18 1162.5,247.99 1162.5,385 C1162.5,385 1162.5,385 1162.5,767 C1162.5,807.52 1158.84,824.05 1129.5,852 C1087.54,891.97 1029.6069,909.607 980.6369,918.337 " fill="none" id="Map-to-Scenario" style="stroke:#181818;stroke-width:1.0;"/><polygon fill="#181818" points="974.73,919.39,984.2923,921.7484,979.6524,918.5125,982.8883,913.8725,974.73,919.39" style="stroke:#181818;stroke-width:1.0;"/><text fill="#000000" font-family="sans-serif" font-size="13" lengthAdjust="spacing" textLength="27.46" x="1163.5" y="581.5283">uses</text><text fill="#000000" font-family="sans-serif" font-size="13" lengthAdjust="spacing" textLength="7.23" x="516.653" y="220.5323">1</text><text fill="#000000" font-family="sans-serif" font-size="13" lengthAdjust="spacing" textLength="5.0591" x="982.6677" y="914.5363">*</text></g><!--link Map to City--><g id="link_Map_City"><path codeLine="117" d="M460.59,270.21 C455.61,280.03 450.38,290.36 445.5,300 C437.43,315.93 431.2274,328.1956 423.6174,343.2456 " fill="none" id="Map-to-City" style="stroke:#181818;stroke-width:1.0;"/><polygon fill="#181818" points="420.91,348.6,428.5408,342.3733,423.1662,344.138,421.4016,338.7634,420.91,348.6" style="stroke:#181818;stroke-width:1.0;"/><text fill="#000000" font-family="sans-serif" font-size="13" lengthAdjust="spacing" textLength="48.4199" x="446.5" y="315.0283">contains</text><text fill="#000000" font-family="sans-serif" font-size="13" lengthAdjust="spacing" textLength="7.23" x="449.5525" y="292.601">1</text><text fill="#000000" font-family="sans-serif" font-size="13" lengthAdjust="spacing" textLength="5.0591" x="418.6478" y="337.776">*</text></g><!--link Map to Train--><g id="link_Map_Train"><path codeLine="118" d="M508.6,236.38 C575.55,266.72 751.8152,346.6129 811.6452,373.7329 " fill="none" id="Map-to-Train" style="stroke:#181818;stroke-width:1.0;"/><polygon fill="#181818" points="817.11,376.21,810.5642,368.8511,812.556,374.1457,807.2614,376.1375,817.11,376.21" style="stroke:#181818;stroke-width:1.0;"/><text fill="#000000" font-family="sans-serif" font-size="13" lengthAdjust="spacing" textLength="20.96" x="681.5" y="315.0283">has</text><text fill="#000000" font-family="sans-serif" font-size="13" lengthAdjust="spacing" textLength="5.0591" x="516.6949" y="256.5134">*</text><text fill="#000000" font-family="sans-serif" font-size="13" lengthAdjust="spacing" textLength="5.0591" x="804.3407" y="366.7312">*</text></g><!--link Map to Industry--><g id="link_Map_Industry"><path codeLine="119" d="M493.6,270.12 C495.67,279.95 497.74,290.31 499.5,300 C515.92,390.72 529.8826,493.2006 536.3126,542.4106 " fill="none" id="Map-to-Industry" style="stroke:#181818;stroke-width:1.0;"/><polygon fill="#181818" points="537.09,548.36,539.8902,538.9176,536.4422,543.4021,531.9576,539.9541,537.09,548.36" style="stroke:#181818;stroke-width:1.0;"/><text fill="#000000" font-family="sans-serif" font-size="13" lengthAdjust="spacing" textLength="48.4199" x="520.5" y="391.5283">contains</text><text fill="#000000" font-family="sans-serif" font-size="13" lengthAdjust="spacing" textLength="7.23" x="487.6172" y="292.4972">1</text><text fill="#000000" font-family="sans-serif" font-size="13" lengthAdjust="spacing" textLength="5.0591" x="530.7533" y="537.0366">*</text></g><!--link Map to Station--><g id="link_Map_Station"><path codeLine="120" d="M458.36,238.23 C404.31,266.68 282.1895,330.9555 220.0795,363.6455 " fill="none" id="Map-to-Station" style="stroke:#181818;stroke-width:1.0;"/><polygon fill="#181818" points="214.77,366.44,224.5972,365.7879,219.1946,364.1112,220.8712,358.7086,214.77,366.44" style="stroke:#181818;stroke-width:1.0;"/><text fill="#000000" font-family="sans-serif" font-size="13" lengthAdjust="spacing" textLength="48.4199" x="342.5" y="315.0283">contains</text><text fill="#000000" font-family="sans-serif" font-size="13" lengthAdjust="spacing" textLength="7.23" x="443.317" y="236.8427">1</text><text fill="#000000" font-family="sans-serif" font-size="13" lengthAdjust="spacing" textLength="5.0591" x="222.9972" y="357.377">*</text></g><!--link City to House--><g id="link_City_House"><path codeLine="122" d="M402.5,423.25 C402.5,459.85 402.5,509.51 402.5,542.28 " fill="none" id="City-to-House" style="stroke:#181818;stroke-width:1.0;"/><polygon fill="#181818" points="402.5,548.28,406.5,539.28,402.5,543.28,398.5,539.28,402.5,548.28" style="stroke:#181818;stroke-width:1.0;"/><text fill="#000000" font-family="sans-serif" font-size="13" lengthAdjust="spacing" textLength="48.4199" x="403.5" y="468.0283">contains</text><text fill="#000000" font-family="sans-serif" font-size="13" lengthAdjust="spacing" textLength="7.23" x="394.9377" y="444.8911">1</text><text fill="#000000" font-family="sans-serif" font-size="13" lengthAdjust="spacing" textLength="5.0591" x="396.9083" y="537.3905">*</text></g><!--link City to Location--><g id="link_City_Location"><path codeLine="123" d="M371.75,411.62 C348.04,432.72 317.07,465.45 303.5,502 C275.03,578.7 290.793,670.8971 303.723,722.9271 " fill="none" id="City-to-Location" style="stroke:#181818;stroke-width:1.0;"/><polygon fill="#181818" points="305.17,728.75,306.8814,719.051,303.9641,723.8976,299.1175,720.9804,305.17,728.75" style="stroke:#181818;stroke-width:1.0;"/><text fill="#000000" font-family="sans-serif" font-size="13" lengthAdjust="spacing" textLength="56.3735" x="304.5" y="581.5283">located at</text><text fill="#000000" font-family="sans-serif" font-size="13" lengthAdjust="spacing" textLength="7.23" x="356.8539" y="412.6568">1</text><text fill="#000000" font-family="sans-serif" font-size="13" lengthAdjust="spacing" textLength="7.23" x="295.7522" y="717.6672">1</text></g><!--link Train to Locomotive--><g id="link_Train_Locomotive"><path codeLine="125" d="M855.72,409.3 C875.33,432.06 902.923,464.085 931.363,497.085 " fill="none" id="Train-to-Locomotive" style="stroke:#181818;stroke-width:1.0;"/><polygon fill="#181818" points="935.28,501.63,932.4345,492.2011,932.0158,497.8425,926.3745,497.4238,935.28,501.63" style="stroke:#181818;stroke-width:1.0;"/><text fill="#000000" font-family="sans-serif" font-size="13" lengthAdjust="spacing" textLength="20.96" x="908.5" y="468.0283">has</text><text fill="#000000" font-family="sans-serif" font-size="13" lengthAdjust="spacing" textLength="7.23" x="863.3012" y="411.2389">1</text><text fill="#000000" font-family="sans-serif" font-size="13" lengthAdjust="spacing" textLength="7.23" x="921.9288" y="490.7571">1</text></g><!--link Train to Carriage--><g id="link_Train_Carriage"><path codeLine="126" d="M836.5,413.54 C836.5,446.33 836.5,496.28 836.5,532.94 " fill="none" id="Train-to-Carriage" style="stroke:#181818;stroke-width:1.0;"/><polygon fill="#181818" points="836.5,538.94,840.5,529.94,836.5,533.94,832.5,529.94,836.5,538.94" style="stroke:#181818;stroke-width:1.0;"/><text fill="#000000" font-family="sans-serif" font-size="13" lengthAdjust="spacing" textLength="20.96" x="837.5" y="468.0283">has</text><text fill="#000000" font-family="sans-serif" font-size="13" lengthAdjust="spacing" textLength="7.23" x="828.7292" y="435.9082">1</text><text fill="#000000" font-family="sans-serif" font-size="13" lengthAdjust="spacing" textLength="5.0591" x="831.0115" y="527.6076">*</text></g><!--link Locomotive to LocomotiveType--><g id="link_Locomotive_LocomotiveType"><path codeLine="128" d="M1020.31,650.22 C1028.36,677.24 1037.12,706.66 1043.76,728.95 " fill="none" id="Locomotive-LocomotiveType" style="stroke:#181818;stroke-width:1.0;"/><text fill="#000000" font-family="sans-serif" font-size="13" lengthAdjust="spacing" textLength="20.96" x="1035.5" y="695.0283">has</text><text fill="#000000" font-family="sans-serif" font-size="13" lengthAdjust="spacing" textLength="5.0591" x="1017.2107" y="672.3883">*</text><text fill="#000000" font-family="sans-serif" font-size="13" lengthAdjust="spacing" textLength="7.23" x="1034.1818" y="717.6195">1</text></g><!--link LocomotiveType to Scenario--><g id="link_LocomotiveType_Scenario"><path codeLine="129" d="M1020.46,803.31 C998.59,826.63 974.124,852.7331 950.814,877.5931 " fill="none" id="LocomotiveType-to-Scenario" style="stroke:#181818;stroke-width:1.0;"/><polygon fill="#181818" points="946.71,881.97,955.7839,878.1407,950.13,878.3226,949.9481,872.6687,946.71,881.97" style="stroke:#181818;stroke-width:1.0;"/><text fill="#000000" font-family="sans-serif" font-size="13" lengthAdjust="spacing" textLength="132.939" x="988.5" y="848.0283">Locomotive restrictions</text><text fill="#000000" font-family="sans-serif" font-size="13" lengthAdjust="spacing" textLength="5.0591" x="1009.4364" y="824.961">*</text><text fill="#000000" font-family="sans-serif" font-size="13" lengthAdjust="spacing" textLength="5.0591" x="947.7666" y="870.6336">*</text></g><!--link RailwayLine to Station--><g id="link_RailwayLine_Station"><path codeLine="131" d="M179.5,261.31 C179.5,287.49 179.5,316.69 179.5,342.84 " fill="none" id="RailwayLine-to-Station" style="stroke:#181818;stroke-width:1.0;"/><polygon fill="#181818" points="179.5,348.84,183.5,339.84,179.5,343.84,175.5,339.84,179.5,348.84" style="stroke:#181818;stroke-width:1.0;"/><text fill="#000000" font-family="sans-serif" font-size="13" lengthAdjust="spacing" textLength="52.0317" x="180.5" y="315.0283">connects</text><text fill="#000000" font-family="sans-serif" font-size="13" lengthAdjust="spacing" textLength="7.23" x="171.8994" y="282.961">1</text><text fill="#000000" font-family="sans-serif" font-size="13" lengthAdjust="spacing" textLength="7.23" x="171.8633" y="337.7732">2</text></g><!--link Route to Station--><g id="link_Route_Station"><path codeLine="133" d="M268.08,251.65 C261.31,271.11 250.77,297.71 237.5,319 C230.97,329.49 226.6956,335.4211 218.5356,344.8111 " fill="none" id="Route-to-Station" style="stroke:#181818;stroke-width:1.0;"/><polygon fill="#181818" points="214.6,349.34,223.5227,345.1704,217.8797,345.5659,217.4842,339.9229,214.6,349.34" style="stroke:#181818;stroke-width:1.0;"/><text fill="#000000" font-family="sans-serif" font-size="13" lengthAdjust="spacing" textLength="20.96" x="248.5" y="315.0283">has</text><text fill="#000000" font-family="sans-serif" font-size="13" lengthAdjust="spacing" textLength="5.0591" x="260.6585" y="273.5915">*</text><text fill="#000000" font-family="sans-serif" font-size="13" lengthAdjust="spacing" textLength="5.0591" x="221.737" y="337.8005">*</text></g><!--link Carriage to Cargo--><g id="link_Carriage_Cargo"><path codeLine="135" d="M804.89,610.76 C777.54,638.15 735.68,675.87 692.5,699 C650.1,721.72 631.56,707.55 588.5,729 C582.63,731.93 581.6616,732.1582 576.1116,736.0282 " fill="none" id="Carriage-to-Cargo" style="stroke:#181818;stroke-width:1.0;"/><polygon fill="#181818" points="571.19,739.46,580.8603,737.5933,575.2914,736.6001,576.2846,731.0312,571.19,739.46" style="stroke:#181818;stroke-width:1.0;"/><text fill="#000000" font-family="sans-serif" font-size="13" lengthAdjust="spacing" textLength="39.0063" x="723.5" y="695.0283">carries</text><text fill="#000000" font-family="sans-serif" font-size="13" lengthAdjust="spacing" textLength="5.0591" x="791.9675" y="613.9104">*</text><text fill="#000000" font-family="sans-serif" font-size="13" lengthAdjust="spacing" textLength="7.23" x="579.1191" y="728.391">1</text></g><!--link Carriage to CarriageType--><g id="link_Carriage_CarriageType"><path codeLine="136" d="M852.5,613.25 C868.66,649.85 890.8178,700.0207 905.2778,732.7907 " fill="none" id="Carriage-to-CarriageType" style="stroke:#181818;stroke-width:1.0;"/><polygon fill="#181818" points="907.7,738.28,907.7262,728.4312,905.6815,733.7055,900.4071,731.6608,907.7,738.28" style="stroke:#181818;stroke-width:1.0;"/><text fill="#000000" font-family="sans-serif" font-size="13" lengthAdjust="spacing" textLength="20.96" x="890.5" y="695.0283">has</text><text fill="#000000" font-family="sans-serif" font-size="13" lengthAdjust="spacing" textLength="7.23" x="847.5597" y="634.8911">1</text><text fill="#000000" font-family="sans-serif" font-size="13" lengthAdjust="spacing" textLength="7.23" x="897.3987" y="727.3905">1</text></g><!--link Industry to IndustryType--><g id="link_Industry_IndustryType"><path codeLine="138" d="M568.64,591.93 C597.34,608.92 640.16,639.65 658.5,680 C665.38,695.13 665.6903,707.4072 662.5503,723.0572 " fill="none" id="Industry-to-IndustryType" style="stroke:#181818;stroke-width:1.0;"/><polygon fill="#181818" points="661.37,728.94,667.0623,720.9027,662.3536,724.0377,659.2186,719.329,661.37,728.94" style="stroke:#181818;stroke-width:1.0;"/><text fill="#000000" font-family="sans-serif" font-size="13" lengthAdjust="spacing" textLength="20.96" x="663.5" y="695.0283">has</text><text fill="#000000" font-family="sans-serif" font-size="13" lengthAdjust="spacing" textLength="7.23" x="576.4047" y="590.7753">1</text><text fill="#000000" font-family="sans-serif" font-size="13" lengthAdjust="spacing" textLength="7.23" x="655.9414" y="717.6076">1</text></g><!--link Industry to Cargo--><g id="link_Industry_Cargo"><path codeLine="139" d="M563.78,603.74 C582.15,628.19 602.92,665.54 591.5,699 C586.59,713.39 581.0137,722.5065 571.5537,733.6465 " fill="none" id="Industry-to-Cargo" style="stroke:#181818;stroke-width:1.0;"/><polygon fill="#181818" points="567.67,738.22,576.5446,733.949,570.9065,734.4088,570.4466,728.7706,567.67,738.22" style="stroke:#181818;stroke-width:1.0;"/><text fill="#000000" font-family="sans-serif" font-size="13" lengthAdjust="spacing" textLength="53.479" x="596.5" y="695.0283">produces</text><text fill="#000000" font-family="sans-serif" font-size="13" lengthAdjust="spacing" textLength="5.0591" x="563.354" y="625.7012">*</text><text fill="#000000" font-family="sans-serif" font-size="13" lengthAdjust="spacing" textLength="7.23" x="565.8692" y="727.3174">1</text></g><!--link Industry to Cargo--><g id="link_Industry_Cargo"><path codeLine="140" d="M537.28,603.65 C534.7,628.36 531.76,666.16 533.5,699 C534.19,712 534.9353,720.4304 536.3353,732.4404 " fill="none" id="Industry-to-Cargo-1" style="stroke:#181818;stroke-width:1.0;"/><polygon fill="#181818" points="537.03,738.4,539.961,728.9974,536.4511,733.4336,532.0148,729.9237,537.03,738.4" style="stroke:#181818;stroke-width:1.0;"/><text fill="#000000" font-family="sans-serif" font-size="13" lengthAdjust="spacing" textLength="48.4072" x="534.5" y="695.0283">receives</text><text fill="#000000" font-family="sans-serif" font-size="13" lengthAdjust="spacing" textLength="7.23" x="528.8571" y="625.5915">1</text><text fill="#000000" font-family="sans-serif" font-size="13" lengthAdjust="spacing" textLength="19.5127" x="515.086" y="727.0858">0..*</text></g><!--link Industry to Location--><g id="link_Industry_Location"><path codeLine="141" d="M512.25,603.42 C484.96,628.63 442.21,667.34 403.5,699 C389.31,710.61 378.2028,719.2072 363.8428,729.8972 " fill="none" id="Industry-to-Location" style="stroke:#181818;stroke-width:1.0;"/><polygon fill="#181818" points="359.03,733.48,368.6378,731.3143,363.0407,730.4943,363.8607,724.8972,359.03,733.48" style="stroke:#181818;stroke-width:1.0;"/><text fill="#000000" font-family="sans-serif" font-size="13" lengthAdjust="spacing" textLength="56.3735" x="424.5" y="695.0283">located at</text><text fill="#000000" font-family="sans-serif" font-size="13" lengthAdjust="spacing" textLength="7.23" x="497.1692" y="605.3028">1</text><text fill="#000000" font-family="sans-serif" font-size="13" lengthAdjust="spacing" textLength="7.23" x="366.8618" y="723.7498">1</text></g><!--link IndustryType to Scenario--><g id="link_IndustryType_Scenario"><path codeLine="143" d="M670.84,803.38 C682.09,820.02 697.16,838.9 714.5,852 C750.01,878.83 790.6451,895.5841 828.6751,907.5141 " fill="none" id="IndustryType-to-Scenario" style="stroke:#181818;stroke-width:1.0;"/><polygon fill="#181818" points="834.4,909.31,827.0099,902.7995,829.6292,907.8134,824.6153,910.4328,834.4,909.31" style="stroke:#181818;stroke-width:1.0;"/><text fill="#000000" font-family="sans-serif" font-size="13" lengthAdjust="spacing" textLength="112.7026" x="715.5" y="848.0283">Industry restrictions</text><text fill="#000000" font-family="sans-serif" font-size="13" lengthAdjust="spacing" textLength="5.0591" x="668.8534" y="824.7545">*</text><text fill="#000000" font-family="sans-serif" font-size="13" lengthAdjust="spacing" textLength="5.0591" x="821.4423" y="903.3538">*</text></g><!--link Station to StationType--><g id="link_Station_StationType"><path codeLine="145" d="M144.21,416.52 C132.62,427.27 120.23,439.99 110.5,453 C90.58,479.63 76.1149,507.9807 64.8349,533.2607 " fill="none" id="Station-to-StationType" style="stroke:#181818;stroke-width:1.0;"/><polygon fill="#181818" points="62.39,538.74,69.7102,532.151,64.4274,534.1739,62.4044,528.8912,62.39,538.74" style="stroke:#181818;stroke-width:1.0;"/><text fill="#000000" font-family="sans-serif" font-size="13" lengthAdjust="spacing" textLength="20.96" x="111.5" y="468.0283">has</text><text fill="#000000" font-family="sans-serif" font-size="13" lengthAdjust="spacing" textLength="7.23" x="129.1942" y="418.1341">1</text><text fill="#000000" font-family="sans-serif" font-size="13" lengthAdjust="spacing" textLength="7.23" x="57.4652" y="527.6554">1</text></g><!--link Station to Location--><g id="link_Station_Location"><path codeLine="146" d="M179.63,423.12 C181.07,475.4 188.56,574.21 222.5,650 C235.72,679.53 254.3728,703.4575 274.0528,724.6075 " fill="none" id="Station-to-Location" style="stroke:#181818;stroke-width:1.0;"/><polygon fill="#181818" points="278.14,729,274.9375,719.6864,274.734,725.3395,269.0808,725.136,278.14,729" style="stroke:#181818;stroke-width:1.0;"/><text fill="#000000" font-family="sans-serif" font-size="13" lengthAdjust="spacing" textLength="56.3735" x="223.5" y="581.5283">located at</text><text fill="#000000" font-family="sans-serif" font-size="13" lengthAdjust="spacing" textLength="7.23" x="172.038" y="445.026">1</text><text fill="#000000" font-family="sans-serif" font-size="13" lengthAdjust="spacing" textLength="7.23" x="263.6537" y="717.6787">1</text></g><!--reverse link TimeRestrictions to Scenario--><g id="link_TimeRestrictions_Scenario"><path codeLine="148" d="M814.5797,808.0952 C832.2197,831.4152 851.65,857.11 870.45,881.97 " fill="none" id="TimeRestrictions-backto-Scenario" style="stroke:#181818;stroke-width:1.0;"/><polygon fill="#181818" points="810.96,803.31,813.1994,812.9009,813.9764,807.2977,819.5796,808.0747,810.96,803.31" style="stroke:#181818;stroke-width:1.0;"/><text fill="#000000" font-family="sans-serif" font-size="13" lengthAdjust="spacing" textLength="20.96" x="848.5" y="848.0283">has</text><text fill="#000000" font-family="sans-serif" font-size="13" lengthAdjust="spacing" textLength="7.23" x="807.9274" y="824.961">1</text><text fill="#000000" font-family="sans-serif" font-size="13" lengthAdjust="spacing" textLength="5.0591" x="859.8293" y="870.6336">*</text></g><!--link House to Location--><g id="link_House_Location"><path codeLine="150" d="M384.35,603.6 C371.13,623.86 353.5,652.81 341.5,680 C334.64,695.53 330.5169,707.6376 326.1669,722.9776 " fill="none" id="House-to-Location" style="stroke:#181818;stroke-width:1.0;"/><polygon fill="#181818" points="324.53,728.75,330.8336,721.1827,325.8941,723.9397,323.1371,719.0001,324.53,728.75" style="stroke:#181818;stroke-width:1.0;"/><text fill="#000000" font-family="sans-serif" font-size="13" lengthAdjust="spacing" textLength="56.3735" x="342.5" y="695.0283">located at</text><text fill="#000000" font-family="sans-serif" font-size="13" lengthAdjust="spacing" textLength="7.23" x="372.3158" y="625.9821">1</text><text fill="#000000" font-family="sans-serif" font-size="13" lengthAdjust="spacing" textLength="7.23" x="318.5607" y="717.6672">1</text></g><!--SRC=[ZPLDJnin48Rl_XLMBaYHGAJ7gAhKZqEHG5I4IkKuzGwx5bvxiRsDKjJ_th7NsVLwGmiNdCpZ-Np7SKzITs2XvQtHHZJMjCYzxP6vqTA1U88QT_wWa5iK7dIjSi0rK9czr3L_1EMGdKqc9JNwGuVSMDyOTgRmqNDlk9LrutabWpjfTEPCA73ke_TM_kmzNWcZT_8tyalMo0gva5PGx7XkaLnMZh4pBpsbziMq83M_CHKgng8V_jsXVM6S_ZIq60z8b8gdZeYziHNxSyJlZC82hz09AxkOvSZn6-WARYyhtyHJWw6u2Tu9r62b-OVZU4qwRwmKeExGKVcnCMvoyrdwG-52Vr96F6NCLzExL83CohhILKyky-iBsprDwIsbxpo4BmgqxseBn2-ujxgzew7iuN1DUXbmXRfE3Gq2ciXx6wQyBFBQ2DCQBtzD3OX3DdkqyGH2e48BOyUzwNOTui0v3zO_8DZRnzikfq0yzzB9yFaRJGLFHNnhbVUonNowBrFeO1hqgQjudWOFrafQm5bP0cWjIH5BhCWbqpRjqx9jTArEqdpkGVkPJwemDYArMnZQ5gd1uu_YyqEu4vQDhzOhVdx-WQysgxXEVCiRSCcsIJPYQ8F8r8Acb6c7myVSV5mQOaZIRc4Fsq0sUXuyoI7PrvDzKCaGkxnxbFpYVXv_a6-Ei1WpX-AwvSYSeFzZ0xTSXIDM73nZGtO5cBIKaYwGK78QS09OTcMel70KX93OuikyKLcZCuSsVu9OjfnJHk-A9cbwoWCRP3QFC58nxR6CN2bHXS5FCDAu9sWpWqQ57xsDiyp1_4rBuCITYDfPK_K2tGblbnSNwmHkmuyVKdVSwQYlp7gMp2kT7_tD-txiN1ubUrTJQQUertHNl3-HVH-KCyydjdPGz_-z_WK0]--></g></svg>