<svg xmlns="http://www.w3.org/2000/svg" xmlns:xlink="http://www.w3.org/1999/xlink" contentStyleType="text/css" height="890px" preserveAspectRatio="none" style="width:2938px;height:890px;background:#FFFFFF;" version="1.1" viewBox="0 0 2938 890" width="2938px" zoomAndPan="magnify"><defs/><g><!--cluster shodrone--><g id="cluster_shodrone"><path d="M8.5,6.0137 L73.2793,6.0137 A3.75,3.75 0 0 1 75.7793,8.5137 L82.7793,30.6348 L2928.5,30.6348 A2.5,2.5 0 0 1 2931,33.1348 L2931,881.0137 A2.5,2.5 0 0 1 2928.5,883.5137 L8.5,883.5137 A2.5,2.5 0 0 1 6,881.0137 L6,8.5137 A2.5,2.5 0 0 1 8.5,6.0137 " fill="#D6EAF8" style="stroke:#000000;stroke-width:1.5;"/><line style="stroke:#000000;stroke-width:1.5;" x1="6" x2="82.7793" y1="30.6348" y2="30.6348"/><text fill="#000000" font-family="sans-serif" font-size="14" font-weight="bold" lengthAdjust="spacing" textLength="63.7793" x="10" y="23.1211">shodrone</text></g><!--cluster core--><g id="cluster_core"><path d="M32.5,51.0137 L63.0723,51.0137 A3.75,3.75 0 0 1 65.5723,53.5137 L72.5723,75.6348 L1303.5,75.6348 A2.5,2.5 0 0 1 1306,78.1348 L1306,857.0137 A2.5,2.5 0 0 1 1303.5,859.5137 L32.5,859.5137 A2.5,2.5 0 0 1 30,857.0137 L30,53.5137 A2.5,2.5 0 0 1 32.5,51.0137 " fill="#D6EAF8" style="stroke:#000000;stroke-width:1.5;"/><line style="stroke:#000000;stroke-width:1.5;" x1="30" x2="72.5723" y1="75.6348" y2="75.6348"/><text fill="#000000" font-family="sans-serif" font-size="14" font-weight="bold" lengthAdjust="spacing" textLength="29.5723" x="34" y="68.1211">core</text></g><!--cluster dronemanagement--><g id="cluster_dronemanagement"><path d="M56.5,96.0137 L182.748,96.0137 A3.75,3.75 0 0 1 185.248,98.5137 L192.248,120.6348 L1279.5,120.6348 A2.5,2.5 0 0 1 1282,123.1348 L1282,833.0137 A2.5,2.5 0 0 1 1279.5,835.5137 L56.5,835.5137 A2.5,2.5 0 0 1 54,833.0137 L54,98.5137 A2.5,2.5 0 0 1 56.5,96.0137 " fill="#D6EAF8" style="stroke:#000000;stroke-width:1.5;"/><line style="stroke:#000000;stroke-width:1.5;" x1="54" x2="192.248" y1="120.6348" y2="120.6348"/><text fill="#000000" font-family="sans-serif" font-size="14" font-weight="bold" lengthAdjust="spacing" textLength="125.248" x="58" y="113.1211">dronemanagement</text></g><!--cluster domain--><g id="cluster_domain"><path d="M380.5,363.5137 L431.2793,363.5137 A3.75,3.75 0 0 1 433.7793,366.0137 L440.7793,388.1348 L1114.5,388.1348 A2.5,2.5 0 0 1 1117,390.6348 L1117,809.0137 A2.5,2.5 0 0 1 1114.5,811.5137 L380.5,811.5137 A2.5,2.5 0 0 1 378,809.0137 L378,366.0137 A2.5,2.5 0 0 1 380.5,363.5137 " fill="#D6EAF8" style="stroke:#000000;stroke-width:1.5;"/><line style="stroke:#000000;stroke-width:1.5;" x1="378" x2="440.7793" y1="388.1348" y2="388.1348"/><text fill="#000000" font-family="sans-serif" font-size="14" font-weight="bold" lengthAdjust="spacing" textLength="49.7793" x="382" y="380.6211">domain</text><text fill="#000000" font-family="sans-serif" font-size="14" font-style="italic" lengthAdjust="spacing" textLength="80.1787" x="711.4106" y="405.2422">&#171;Aggregate&#187;</text></g><!--cluster service--><g id="cluster_service"><path d="M80.5,141.0137 L129.7686,141.0137 A3.75,3.75 0 0 1 132.2686,143.5137 L139.2686,165.6348 L606.5,165.6348 A2.5,2.5 0 0 1 609,168.1348 L609,326.5137 A2.5,2.5 0 0 1 606.5,329.0137 L80.5,329.0137 A2.5,2.5 0 0 1 78,326.5137 L78,143.5137 A2.5,2.5 0 0 1 80.5,141.0137 " fill="#D6EAF8" style="stroke:#000000;stroke-width:1.5;"/><line style="stroke:#000000;stroke-width:1.5;" x1="78" x2="139.2686" y1="165.6348" y2="165.6348"/><text fill="#000000" font-family="sans-serif" font-size="14" font-weight="bold" lengthAdjust="spacing" textLength="48.2686" x="82" y="158.1211">service</text></g><!--cluster repository--><g id="cluster_repository"><path d="M635.5,184.5137 L704.9619,184.5137 A3.75,3.75 0 0 1 707.4619,187.0137 L714.4619,209.1348 L1255.5,209.1348 A2.5,2.5 0 0 1 1258,211.6348 L1258,283.0137 A2.5,2.5 0 0 1 1255.5,285.5137 L635.5,285.5137 A2.5,2.5 0 0 1 633,283.0137 L633,187.0137 A2.5,2.5 0 0 1 635.5,184.5137 " fill="#D6EAF8" style="stroke:#000000;stroke-width:1.5;"/><line style="stroke:#000000;stroke-width:1.5;" x1="633" x2="714.4619" y1="209.1348" y2="209.1348"/><text fill="#000000" font-family="sans-serif" font-size="14" font-weight="bold" lengthAdjust="spacing" textLength="68.4619" x="637" y="201.6211">repository</text></g><!--cluster persistence--><g id="cluster_persistence"><path d="M1332.5,353.0137 L1411.3203,353.0137 A3.75,3.75 0 0 1 1413.8203,355.5137 L1420.8203,377.6348 L2904.5,377.6348 A2.5,2.5 0 0 1 2907,380.1348 L2907,520.5137 A2.5,2.5 0 0 1 2904.5,523.0137 L1332.5,523.0137 A2.5,2.5 0 0 1 1330,520.5137 L1330,355.5137 A2.5,2.5 0 0 1 1332.5,353.0137 " fill="#D6EAF8" style="stroke:#000000;stroke-width:1.5;"/><line style="stroke:#000000;stroke-width:1.5;" x1="1330" x2="1420.8203" y1="377.6348" y2="377.6348"/><text fill="#000000" font-family="sans-serif" font-size="14" font-weight="bold" lengthAdjust="spacing" textLength="77.8203" x="1334" y="370.1211">persistence</text></g><!--cluster JPARepository--><g id="cluster_JPARepository"><path d="M2191.5,398.0137 L2292.8584,398.0137 A3.75,3.75 0 0 1 2295.3584,400.5137 L2302.3584,422.6348 L2880.5,422.6348 A2.5,2.5 0 0 1 2883,425.1348 L2883,496.5137 A2.5,2.5 0 0 1 2880.5,499.0137 L2191.5,499.0137 A2.5,2.5 0 0 1 2189,496.5137 L2189,400.5137 A2.5,2.5 0 0 1 2191.5,398.0137 " fill="#D6EAF8" style="stroke:#000000;stroke-width:1.5;"/><line style="stroke:#000000;stroke-width:1.5;" x1="2189" x2="2302.3584" y1="422.6348" y2="422.6348"/><text fill="#000000" font-family="sans-serif" font-size="14" font-weight="bold" lengthAdjust="spacing" textLength="100.3584" x="2193" y="415.1211">JPARepository</text></g><!--cluster InMemoryRepository--><g id="cluster_InMemoryRepository"><path d="M1356.5,398.0137 L1496.748,398.0137 A3.75,3.75 0 0 1 1499.248,400.5137 L1506.248,422.6348 L2162.5,422.6348 A2.5,2.5 0 0 1 2165,425.1348 L2165,496.5137 A2.5,2.5 0 0 1 2162.5,499.0137 L1356.5,499.0137 A2.5,2.5 0 0 1 1354,496.5137 L1354,400.5137 A2.5,2.5 0 0 1 1356.5,398.0137 " fill="#D6EAF8" style="stroke:#000000;stroke-width:1.5;"/><line style="stroke:#000000;stroke-width:1.5;" x1="1354" x2="1506.248" y1="422.6348" y2="422.6348"/><text fill="#000000" font-family="sans-serif" font-size="14" font-weight="bold" lengthAdjust="spacing" textLength="139.248" x="1358" y="415.1211">InMemoryRepository</text></g><!--class Drone--><g id="elem_Drone"><rect codeLine="14" fill="#F1F1F1" height="79.2031" id="Drone" rx="2.5" ry="2.5" style="stroke:#181818;stroke-width:0.5;" width="188.6543" x="668.5" y="419.5137"/><ellipse cx="696.9561" cy="441.8047" fill="#ADD1B2" rx="11" ry="11" style="stroke:#181818;stroke-width:1.0;"/><path d="M699.7217,437.6797 Q699.8779,437.4609 700.0654,437.3516 Q700.2529,437.2422 700.4717,437.2422 Q700.8467,437.2422 701.0811,437.5078 Q701.3154,437.7578 701.3154,438.3672 L701.3154,439.8203 Q701.3154,440.4297 701.0811,440.6953 Q700.8467,440.9609 700.4717,440.9609 Q700.1279,440.9609 699.9248,440.7578 Q699.7217,440.5703 699.6123,440.0547 Q699.5654,439.6953 699.3779,439.5078 Q699.0498,439.1328 698.4404,438.9141 Q697.8311,438.6953 697.2061,438.6953 Q696.4404,438.6953 695.7998,439.0234 Q695.1748,439.3516 694.6748,440.1016 Q694.1904,440.8516 694.1904,441.8828 L694.1904,442.9766 Q694.1904,444.2109 695.0811,445.0391 Q695.9717,445.8516 697.5654,445.8516 Q698.5029,445.8516 699.1592,445.6016 Q699.5498,445.4453 699.9717,445.0078 Q700.2373,444.7422 700.3779,444.6641 Q700.5342,444.5859 700.7373,444.5859 Q701.0654,444.5859 701.3154,444.8516 Q701.5811,445.1016 701.5811,445.4453 Q701.5811,445.7891 701.2373,446.1953 Q700.7373,446.7734 699.9404,447.1016 Q698.8623,447.5547 697.5654,447.5547 Q696.0498,447.5547 694.8467,446.9297 Q693.8623,446.4297 693.1748,445.3672 Q692.4873,444.2891 692.4873,443.0078 L692.4873,441.8516 Q692.4873,440.5234 693.0967,439.3828 Q693.7217,438.2266 694.8154,437.6172 Q695.9092,436.9922 697.1436,436.9922 Q697.8779,436.9922 698.5186,437.1641 Q699.1748,437.3203 699.7217,437.6797 Z " fill="#000000"/><text fill="#000000" font-family="sans-serif" font-size="12" font-style="italic" lengthAdjust="spacing" textLength="130.752" x="711.9463" y="437.4629">&#171;Entity, AggregateRoot&#187;</text><text fill="#000000" font-family="sans-serif" font-size="14" lengthAdjust="spacing" textLength="38.1309" x="758.2568" y="455.582">Drone</text><line style="stroke:#181818;stroke-width:0.5;" x1="669.5" x2="856.1543" y1="464.0957" y2="464.0957"/><rect fill="none" height="6" style="stroke:#C82930;stroke-width:1.0;" width="6" x="676.5" y="475.9063"/><text fill="#000000" font-family="sans-serif" font-size="14" lengthAdjust="spacing" textLength="162.6543" x="688.5" y="483.2031">LocalDate acquisitionDate</text><line style="stroke:#181818;stroke-width:0.5;" x1="669.5" x2="856.1543" y1="490.7168" y2="490.7168"/></g><!--class DroneStatus--><g id="elem_DroneStatus"><rect codeLine="18" fill="#F1F1F1" height="116.4453" id="DroneStatus" rx="2.5" ry="2.5" style="stroke:#181818;stroke-width:0.5;" width="142.6758" x="551.5" y="558.5137"/><ellipse cx="581.285" cy="580.8047" fill="#EB937F" rx="11" ry="11" style="stroke:#181818;stroke-width:1.0;"/><path d="M580.1443,581.6016 L580.1443,584.1016 L584.4725,584.1016 L584.4725,583.1797 Q584.4725,582.5703 584.7068,582.3047 Q584.9568,582.0391 585.3318,582.0391 Q585.7068,582.0391 585.9412,582.3047 Q586.1756,582.5703 586.1756,583.1797 L586.1756,585.8047 L578.1756,585.8047 Q577.5506,585.8047 577.285,585.5703 Q577.035,585.3359 577.035,584.9453 Q577.035,584.5703 577.3006,584.3359 Q577.5662,584.1016 578.1756,584.1016 L578.4412,584.1016 L578.4412,577.4453 L578.1756,577.4453 Q577.5506,577.4453 577.285,577.2109 Q577.035,576.9766 577.035,576.5859 Q577.035,576.2109 577.285,575.9766 Q577.5506,575.7422 578.1756,575.7422 L585.8006,575.7422 L585.8006,578.3359 Q585.8006,578.9453 585.5662,579.2109 Q585.3475,579.4609 584.9568,579.4609 Q584.5818,579.4609 584.3475,579.2109 Q584.1131,578.9453 584.1131,578.3359 L584.1131,577.4453 L580.1443,577.4453 L580.1443,579.8984 L581.6287,579.8984 Q581.6287,579.2422 581.7537,579.0547 Q582.0193,578.6484 582.4881,578.6484 Q582.8631,578.6484 583.0975,578.9141 Q583.3318,579.1641 583.3318,579.7734 L583.3318,581.7422 Q583.3318,582.2891 583.2068,582.4766 Q582.9412,582.8672 582.4881,582.8672 Q582.0193,582.8672 581.7537,582.4609 Q581.6287,582.2734 581.6287,581.6016 L580.1443,581.6016 Z " fill="#000000"/><text fill="#000000" font-family="sans-serif" font-size="12" font-style="italic" lengthAdjust="spacing" textLength="44.6953" x="615.133" y="576.4629">&#171;Enum&#187;</text><text fill="#000000" font-family="sans-serif" font-size="14" lengthAdjust="spacing" textLength="77.8203" x="598.5705" y="594.582">DroneStatus</text><line style="stroke:#181818;stroke-width:0.5;" x1="552.5" x2="693.1758" y1="603.0957" y2="603.0957"/><text fill="#000000" font-family="sans-serif" font-size="14" lengthAdjust="spacing" textLength="54.4551" x="557.5" y="622.2031">ACTIVE,</text><text fill="#000000" font-family="sans-serif" font-size="14" lengthAdjust="spacing" textLength="77.7998" x="557.5" y="640.8242">IN_REPAIR,</text><text fill="#000000" font-family="sans-serif" font-size="14" lengthAdjust="spacing" textLength="130.6758" x="557.5" y="659.4453">DECOMMISSIONED</text><line style="stroke:#181818;stroke-width:0.5;" x1="552.5" x2="693.1758" y1="666.959" y2="666.959"/></g><!--class DroneMaintenance--><g id="elem_DroneMaintenance"><rect codeLine="24" fill="#F1F1F1" height="97.8242" id="DroneMaintenance" rx="2.5" ry="2.5" style="stroke:#181818;stroke-width:0.5;" width="229.1299" x="729.5" y="567.5137"/><ellipse cx="780.667" cy="589.8047" fill="#ADD1B2" rx="11" ry="11" style="stroke:#181818;stroke-width:1.0;"/><path d="M783.4326,585.6797 Q783.5889,585.4609 783.7764,585.3516 Q783.9639,585.2422 784.1826,585.2422 Q784.5576,585.2422 784.792,585.5078 Q785.0264,585.7578 785.0264,586.3672 L785.0264,587.8203 Q785.0264,588.4297 784.792,588.6953 Q784.5576,588.9609 784.1826,588.9609 Q783.8389,588.9609 783.6357,588.7578 Q783.4326,588.5703 783.3232,588.0547 Q783.2764,587.6953 783.0889,587.5078 Q782.7607,587.1328 782.1514,586.9141 Q781.542,586.6953 780.917,586.6953 Q780.1514,586.6953 779.5107,587.0234 Q778.8857,587.3516 778.3857,588.1016 Q777.9014,588.8516 777.9014,589.8828 L777.9014,590.9766 Q777.9014,592.2109 778.792,593.0391 Q779.6826,593.8516 781.2764,593.8516 Q782.2139,593.8516 782.8701,593.6016 Q783.2607,593.4453 783.6826,593.0078 Q783.9482,592.7422 784.0889,592.6641 Q784.2451,592.5859 784.4482,592.5859 Q784.7764,592.5859 785.0264,592.8516 Q785.292,593.1016 785.292,593.4453 Q785.292,593.7891 784.9482,594.1953 Q784.4482,594.7734 783.6514,595.1016 Q782.5732,595.5547 781.2764,595.5547 Q779.7607,595.5547 778.5576,594.9297 Q777.5732,594.4297 776.8857,593.3672 Q776.1982,592.2891 776.1982,591.0078 L776.1982,589.8516 Q776.1982,588.5234 776.8076,587.3828 Q777.4326,586.2266 778.5264,585.6172 Q779.6201,584.9922 780.8545,584.9922 Q781.5889,584.9922 782.2295,585.1641 Q782.8857,585.3203 783.4326,585.6797 Z " fill="#000000"/><text fill="#000000" font-family="sans-serif" font-size="12" font-style="italic" lengthAdjust="spacing" textLength="43.3594" x="838.6353" y="585.4629">&#171;Entity&#187;</text><text fill="#000000" font-family="sans-serif" font-size="14" lengthAdjust="spacing" textLength="118.2959" x="801.167" y="603.582">DroneMaintenance</text><line style="stroke:#181818;stroke-width:0.5;" x1="730.5" x2="957.6299" y1="612.0957" y2="612.0957"/><rect fill="none" height="6" style="stroke:#C82930;stroke-width:1.0;" width="6" x="737.5" y="623.9063"/><text fill="#000000" font-family="sans-serif" font-size="14" lengthAdjust="spacing" textLength="176.668" x="749.5" y="631.2031">LocalDate maintenanceDate</text><rect fill="none" height="6" style="stroke:#C82930;stroke-width:1.0;" width="6" x="737.5" y="642.5273"/><text fill="#000000" font-family="sans-serif" font-size="14" lengthAdjust="spacing" textLength="203.1299" x="749.5" y="649.8242">LocalDate nextMaintenanceDate</text><line style="stroke:#181818;stroke-width:0.5;" x1="730.5" x2="957.6299" y1="657.3379" y2="657.3379"/></g><!--class MaintenanceType--><g id="elem_MaintenanceType"><rect codeLine="29" fill="#F1F1F1" height="60.582" id="MaintenanceType" rx="2.5" ry="2.5" style="stroke:#181818;stroke-width:0.5;" width="158.752" x="852.5" y="734.5137"/><ellipse cx="867.5" cy="756.8047" fill="#ADD1B2" rx="11" ry="11" style="stroke:#181818;stroke-width:1.0;"/><path d="M870.2656,752.6797 Q870.4219,752.4609 870.6094,752.3516 Q870.7969,752.2422 871.0156,752.2422 Q871.3906,752.2422 871.625,752.5078 Q871.8594,752.7578 871.8594,753.3672 L871.8594,754.8203 Q871.8594,755.4297 871.625,755.6953 Q871.3906,755.9609 871.0156,755.9609 Q870.6719,755.9609 870.4688,755.7578 Q870.2656,755.5703 870.1563,755.0547 Q870.1094,754.6953 869.9219,754.5078 Q869.5938,754.1328 868.9844,753.9141 Q868.375,753.6953 867.75,753.6953 Q866.9844,753.6953 866.3438,754.0234 Q865.7188,754.3516 865.2188,755.1016 Q864.7344,755.8516 864.7344,756.8828 L864.7344,757.9766 Q864.7344,759.2109 865.625,760.0391 Q866.5156,760.8516 868.1094,760.8516 Q869.0469,760.8516 869.7031,760.6016 Q870.0938,760.4453 870.5156,760.0078 Q870.7813,759.7422 870.9219,759.6641 Q871.0781,759.5859 871.2813,759.5859 Q871.6094,759.5859 871.8594,759.8516 Q872.125,760.1016 872.125,760.4453 Q872.125,760.7891 871.7813,761.1953 Q871.2813,761.7734 870.4844,762.1016 Q869.4063,762.5547 868.1094,762.5547 Q866.5938,762.5547 865.3906,761.9297 Q864.4063,761.4297 863.7188,760.3672 Q863.0313,759.2891 863.0313,758.0078 L863.0313,756.8516 Q863.0313,755.5234 863.6406,754.3828 Q864.2656,753.2266 865.3594,752.6172 Q866.4531,751.9922 867.6875,751.9922 Q868.4219,751.9922 869.0625,752.1641 Q869.7188,752.3203 870.2656,752.6797 Z " fill="#000000"/><text fill="#000000" font-family="sans-serif" font-size="12" font-style="italic" lengthAdjust="spacing" textLength="130.752" x="879.5" y="752.4629">&#171;Entity, AggregateRoot&#187;</text><text fill="#000000" font-family="sans-serif" font-size="14" lengthAdjust="spacing" textLength="111.2891" x="889.2314" y="770.582">MaintenanceType</text><line style="stroke:#181818;stroke-width:0.5;" x1="853.5" x2="1010.252" y1="779.0957" y2="779.0957"/><line style="stroke:#181818;stroke-width:0.5;" x1="853.5" x2="1010.252" y1="787.0957" y2="787.0957"/></g><!--class DroneModel--><g id="elem_DroneModel"><rect codeLine="32" fill="#F1F1F1" height="60.582" id="DroneModel" rx="2.5" ry="2.5" style="stroke:#181818;stroke-width:0.5;" width="158.752" x="394.5" y="428.5137"/><ellipse cx="409.5" cy="450.8047" fill="#ADD1B2" rx="11" ry="11" style="stroke:#181818;stroke-width:1.0;"/><path d="M412.2656,446.6797 Q412.4219,446.4609 412.6094,446.3516 Q412.7969,446.2422 413.0156,446.2422 Q413.3906,446.2422 413.625,446.5078 Q413.8594,446.7578 413.8594,447.3672 L413.8594,448.8203 Q413.8594,449.4297 413.625,449.6953 Q413.3906,449.9609 413.0156,449.9609 Q412.6719,449.9609 412.4688,449.7578 Q412.2656,449.5703 412.1563,449.0547 Q412.1094,448.6953 411.9219,448.5078 Q411.5938,448.1328 410.9844,447.9141 Q410.375,447.6953 409.75,447.6953 Q408.9844,447.6953 408.3438,448.0234 Q407.7188,448.3516 407.2188,449.1016 Q406.7344,449.8516 406.7344,450.8828 L406.7344,451.9766 Q406.7344,453.2109 407.625,454.0391 Q408.5156,454.8516 410.1094,454.8516 Q411.0469,454.8516 411.7031,454.6016 Q412.0938,454.4453 412.5156,454.0078 Q412.7813,453.7422 412.9219,453.6641 Q413.0781,453.5859 413.2813,453.5859 Q413.6094,453.5859 413.8594,453.8516 Q414.125,454.1016 414.125,454.4453 Q414.125,454.7891 413.7813,455.1953 Q413.2813,455.7734 412.4844,456.1016 Q411.4063,456.5547 410.1094,456.5547 Q408.5938,456.5547 407.3906,455.9297 Q406.4063,455.4297 405.7188,454.3672 Q405.0313,453.2891 405.0313,452.0078 L405.0313,450.8516 Q405.0313,449.5234 405.6406,448.3828 Q406.2656,447.2266 407.3594,446.6172 Q408.4531,445.9922 409.6875,445.9922 Q410.4219,445.9922 411.0625,446.1641 Q411.7188,446.3203 412.2656,446.6797 Z " fill="#000000"/><text fill="#000000" font-family="sans-serif" font-size="12" font-style="italic" lengthAdjust="spacing" textLength="130.752" x="421.5" y="446.4629">&#171;Entity, AggregateRoot&#187;</text><text fill="#000000" font-family="sans-serif" font-size="14" lengthAdjust="spacing" textLength="76.2617" x="448.7451" y="464.582">DroneModel</text><line style="stroke:#181818;stroke-width:0.5;" x1="395.5" x2="552.252" y1="473.0957" y2="473.0957"/><line style="stroke:#181818;stroke-width:0.5;" x1="395.5" x2="552.252" y1="481.0957" y2="481.0957"/></g><!--class DroneModelID--><g id="elem_DroneModelID"><rect codeLine="35" fill="#F1F1F1" height="60.582" id="DroneModelID" rx="2.5" ry="2.5" style="stroke:#181818;stroke-width:0.5;" width="122.2617" x="394" y="586.0137"/><ellipse cx="409" cy="608.3047" fill="#ADD1B2" rx="11" ry="11" style="stroke:#181818;stroke-width:1.0;"/><path d="M411.7656,604.1797 Q411.9219,603.9609 412.1094,603.8516 Q412.2969,603.7422 412.5156,603.7422 Q412.8906,603.7422 413.125,604.0078 Q413.3594,604.2578 413.3594,604.8672 L413.3594,606.3203 Q413.3594,606.9297 413.125,607.1953 Q412.8906,607.4609 412.5156,607.4609 Q412.1719,607.4609 411.9688,607.2578 Q411.7656,607.0703 411.6563,606.5547 Q411.6094,606.1953 411.4219,606.0078 Q411.0938,605.6328 410.4844,605.4141 Q409.875,605.1953 409.25,605.1953 Q408.4844,605.1953 407.8438,605.5234 Q407.2188,605.8516 406.7188,606.6016 Q406.2344,607.3516 406.2344,608.3828 L406.2344,609.4766 Q406.2344,610.7109 407.125,611.5391 Q408.0156,612.3516 409.6094,612.3516 Q410.5469,612.3516 411.2031,612.1016 Q411.5938,611.9453 412.0156,611.5078 Q412.2813,611.2422 412.4219,611.1641 Q412.5781,611.0859 412.7813,611.0859 Q413.1094,611.0859 413.3594,611.3516 Q413.625,611.6016 413.625,611.9453 Q413.625,612.2891 413.2813,612.6953 Q412.7813,613.2734 411.9844,613.6016 Q410.9063,614.0547 409.6094,614.0547 Q408.0938,614.0547 406.8906,613.4297 Q405.9063,612.9297 405.2188,611.8672 Q404.5313,610.7891 404.5313,609.5078 L404.5313,608.3516 Q404.5313,607.0234 405.1406,605.8828 Q405.7656,604.7266 406.8594,604.1172 Q407.9531,603.4922 409.1875,603.4922 Q409.9219,603.4922 410.5625,603.6641 Q411.2188,603.8203 411.7656,604.1797 Z " fill="#000000"/><text fill="#000000" font-family="sans-serif" font-size="12" font-style="italic" lengthAdjust="spacing" textLength="78.7207" x="428.7705" y="603.9629">&#171;ValueObject&#187;</text><text fill="#000000" font-family="sans-serif" font-size="14" lengthAdjust="spacing" textLength="90.2617" x="423" y="622.082">DroneModelID</text><line style="stroke:#181818;stroke-width:0.5;" x1="395" x2="515.2617" y1="630.5957" y2="630.5957"/><line style="stroke:#181818;stroke-width:0.5;" x1="395" x2="515.2617" y1="638.5957" y2="638.5957"/></g><!--class DroneID--><g id="elem_DroneID"><rect codeLine="37" fill="#F1F1F1" height="60.582" id="DroneID" rx="2.5" ry="2.5" style="stroke:#181818;stroke-width:0.5;" width="106.7207" x="993.5" y="586.0137"/><ellipse cx="1008.5" cy="608.3047" fill="#ADD1B2" rx="11" ry="11" style="stroke:#181818;stroke-width:1.0;"/><path d="M1011.2656,604.1797 Q1011.4219,603.9609 1011.6094,603.8516 Q1011.7969,603.7422 1012.0156,603.7422 Q1012.3906,603.7422 1012.625,604.0078 Q1012.8594,604.2578 1012.8594,604.8672 L1012.8594,606.3203 Q1012.8594,606.9297 1012.625,607.1953 Q1012.3906,607.4609 1012.0156,607.4609 Q1011.6719,607.4609 1011.4688,607.2578 Q1011.2656,607.0703 1011.1563,606.5547 Q1011.1094,606.1953 1010.9219,606.0078 Q1010.5938,605.6328 1009.9844,605.4141 Q1009.375,605.1953 1008.75,605.1953 Q1007.9844,605.1953 1007.3438,605.5234 Q1006.7188,605.8516 1006.2188,606.6016 Q1005.7344,607.3516 1005.7344,608.3828 L1005.7344,609.4766 Q1005.7344,610.7109 1006.625,611.5391 Q1007.5156,612.3516 1009.1094,612.3516 Q1010.0469,612.3516 1010.7031,612.1016 Q1011.0938,611.9453 1011.5156,611.5078 Q1011.7813,611.2422 1011.9219,611.1641 Q1012.0781,611.0859 1012.2813,611.0859 Q1012.6094,611.0859 1012.8594,611.3516 Q1013.125,611.6016 1013.125,611.9453 Q1013.125,612.2891 1012.7813,612.6953 Q1012.2813,613.2734 1011.4844,613.6016 Q1010.4063,614.0547 1009.1094,614.0547 Q1007.5938,614.0547 1006.3906,613.4297 Q1005.4063,612.9297 1004.7188,611.8672 Q1004.0313,610.7891 1004.0313,609.5078 L1004.0313,608.3516 Q1004.0313,607.0234 1004.6406,605.8828 Q1005.2656,604.7266 1006.3594,604.1172 Q1007.4531,603.4922 1008.6875,603.4922 Q1009.4219,603.4922 1010.0625,603.6641 Q1010.7188,603.8203 1011.2656,604.1797 Z " fill="#000000"/><text fill="#000000" font-family="sans-serif" font-size="12" font-style="italic" lengthAdjust="spacing" textLength="78.7207" x="1020.5" y="603.9629">&#171;ValueObject&#187;</text><text fill="#000000" font-family="sans-serif" font-size="14" lengthAdjust="spacing" textLength="52.1309" x="1033.7949" y="622.082">DroneID</text><line style="stroke:#181818;stroke-width:0.5;" x1="994.5" x2="1099.2207" y1="630.5957" y2="630.5957"/><line style="stroke:#181818;stroke-width:0.5;" x1="994.5" x2="1099.2207" y1="638.5957" y2="638.5957"/></g><!--class DroneModelService--><g id="elem_DroneModelService"><rect codeLine="44" fill="#F1F1F1" height="60.582" id="DroneModelService" rx="2.5" ry="2.5" style="stroke:#181818;stroke-width:0.5;" width="154.9443" x="94.5" y="215.0137"/><ellipse cx="109.5" cy="237.3047" fill="#ADD1B2" rx="11" ry="11" style="stroke:#181818;stroke-width:1.0;"/><path d="M112.2656,233.1797 Q112.4219,232.9609 112.6094,232.8516 Q112.7969,232.7422 113.0156,232.7422 Q113.3906,232.7422 113.625,233.0078 Q113.8594,233.2578 113.8594,233.8672 L113.8594,235.3203 Q113.8594,235.9297 113.625,236.1953 Q113.3906,236.4609 113.0156,236.4609 Q112.6719,236.4609 112.4688,236.2578 Q112.2656,236.0703 112.1563,235.5547 Q112.1094,235.1953 111.9219,235.0078 Q111.5938,234.6328 110.9844,234.4141 Q110.375,234.1953 109.75,234.1953 Q108.9844,234.1953 108.3438,234.5234 Q107.7188,234.8516 107.2188,235.6016 Q106.7344,236.3516 106.7344,237.3828 L106.7344,238.4766 Q106.7344,239.7109 107.625,240.5391 Q108.5156,241.3516 110.1094,241.3516 Q111.0469,241.3516 111.7031,241.1016 Q112.0938,240.9453 112.5156,240.5078 Q112.7813,240.2422 112.9219,240.1641 Q113.0781,240.0859 113.2813,240.0859 Q113.6094,240.0859 113.8594,240.3516 Q114.125,240.6016 114.125,240.9453 Q114.125,241.2891 113.7813,241.6953 Q113.2813,242.2734 112.4844,242.6016 Q111.4063,243.0547 110.1094,243.0547 Q108.5938,243.0547 107.3906,242.4297 Q106.4063,241.9297 105.7188,240.8672 Q105.0313,239.7891 105.0313,238.5078 L105.0313,237.3516 Q105.0313,236.0234 105.6406,234.8828 Q106.2656,233.7266 107.3594,233.1172 Q108.4531,232.4922 109.6875,232.4922 Q110.4219,232.4922 111.0625,232.6641 Q111.7188,232.8203 112.2656,233.1797 Z " fill="#000000"/><text fill="#000000" font-family="sans-serif" font-size="12" font-style="italic" lengthAdjust="spacing" textLength="94.7109" x="137.6167" y="232.9629">&#171;DomainService&#187;</text><text fill="#000000" font-family="sans-serif" font-size="14" lengthAdjust="spacing" textLength="122.9443" x="123.5" y="251.082">DroneModelService</text><line style="stroke:#181818;stroke-width:0.5;" x1="95.5" x2="248.4443" y1="259.5957" y2="259.5957"/><line style="stroke:#181818;stroke-width:0.5;" x1="95.5" x2="248.4443" y1="267.5957" y2="267.5957"/></g><!--class DroneService--><g id="elem_DroneService"><rect codeLine="48" fill="#F1F1F1" height="135.0664" id="DroneService" rx="2.5" ry="2.5" style="stroke:#181818;stroke-width:0.5;" width="307.6816" x="285" y="178.0137"/><ellipse cx="389.2354" cy="200.3047" fill="#ADD1B2" rx="11" ry="11" style="stroke:#181818;stroke-width:1.0;"/><path d="M392.001,196.1797 Q392.1572,195.9609 392.3447,195.8516 Q392.5322,195.7422 392.751,195.7422 Q393.126,195.7422 393.3604,196.0078 Q393.5947,196.2578 393.5947,196.8672 L393.5947,198.3203 Q393.5947,198.9297 393.3604,199.1953 Q393.126,199.4609 392.751,199.4609 Q392.4072,199.4609 392.2041,199.2578 Q392.001,199.0703 391.8916,198.5547 Q391.8447,198.1953 391.6572,198.0078 Q391.3291,197.6328 390.7197,197.4141 Q390.1104,197.1953 389.4854,197.1953 Q388.7197,197.1953 388.0791,197.5234 Q387.4541,197.8516 386.9541,198.6016 Q386.4697,199.3516 386.4697,200.3828 L386.4697,201.4766 Q386.4697,202.7109 387.3604,203.5391 Q388.251,204.3516 389.8447,204.3516 Q390.7822,204.3516 391.4385,204.1016 Q391.8291,203.9453 392.251,203.5078 Q392.5166,203.2422 392.6572,203.1641 Q392.8135,203.0859 393.0166,203.0859 Q393.3447,203.0859 393.5947,203.3516 Q393.8604,203.6016 393.8604,203.9453 Q393.8604,204.2891 393.5166,204.6953 Q393.0166,205.2734 392.2197,205.6016 Q391.1416,206.0547 389.8447,206.0547 Q388.3291,206.0547 387.126,205.4297 Q386.1416,204.9297 385.4541,203.8672 Q384.7666,202.7891 384.7666,201.5078 L384.7666,200.3516 Q384.7666,199.0234 385.376,197.8828 Q386.001,196.7266 387.0947,196.1172 Q388.1885,195.4922 389.4229,195.4922 Q390.1572,195.4922 390.7979,195.6641 Q391.4541,195.8203 392.001,196.1797 Z " fill="#000000"/><text fill="#000000" font-family="sans-serif" font-size="12" font-style="italic" lengthAdjust="spacing" textLength="94.7109" x="407.7354" y="195.9629">&#171;DomainService&#187;</text><text fill="#000000" font-family="sans-serif" font-size="14" lengthAdjust="spacing" textLength="84.8135" x="412.6841" y="214.082">DroneService</text><line style="stroke:#181818;stroke-width:0.5;" x1="286" x2="591.6816" y1="222.5957" y2="222.5957"/><text fill="#000000" font-family="sans-serif" font-size="14" lengthAdjust="spacing" textLength="295.6816" x="291" y="241.7031">Checks availability of drones for specific shows,</text><text fill="#000000" font-family="sans-serif" font-size="14" lengthAdjust="spacing" textLength="264.6055" x="291" y="260.3242">considering inventory status and schedule.</text><text fill="#000000" font-family="sans-serif" font-size="14" lengthAdjust="spacing" textLength="238.9092" x="291" y="278.9453">Manages drone inventory: registration,</text><text fill="#000000" font-family="sans-serif" font-size="14" lengthAdjust="spacing" textLength="263.0537" x="291" y="297.5664">repair status and maintenance scheduling.</text><line style="stroke:#181818;stroke-width:0.5;" x1="286" x2="591.6816" y1="305.0801" y2="305.0801"/></g><!--class DroneRepository--><g id="elem_DroneRepository"><rect codeLine="59" fill="#F1F1F1" height="48" id="DroneRepository" rx="2.5" ry="2.5" style="stroke:#181818;stroke-width:0.5;" width="137.0479" x="859.5" y="221.5137"/><ellipse cx="874.5" cy="237.5137" fill="#B4A7E5" rx="11" ry="11" style="stroke:#181818;stroke-width:1.0;"/><path d="M875.4531,234.1543 L875.4531,240.8105 L877.1719,240.8105 Q877.7813,240.8105 878.0469,241.0449 Q878.3125,241.2793 878.3125,241.6699 Q878.3125,242.0449 878.0469,242.2793 Q877.7813,242.5137 877.1719,242.5137 L872.0313,242.5137 Q871.4219,242.5137 871.1563,242.2793 Q870.8906,242.0449 870.8906,241.6543 Q870.8906,241.2793 871.1563,241.0449 Q871.4219,240.8105 872.0313,240.8105 L873.75,240.8105 L873.75,234.1543 L872.0313,234.1543 Q871.4219,234.1543 871.1563,233.9199 Q870.8906,233.6855 870.8906,233.2949 Q870.8906,232.9199 871.1563,232.6855 Q871.4219,232.4512 872.0313,232.4512 L877.1719,232.4512 Q877.7813,232.4512 878.0469,232.6855 Q878.3125,232.9199 878.3125,233.2949 Q878.3125,233.6855 878.0469,233.9199 Q877.7813,234.1543 877.1719,234.1543 L875.4531,234.1543 Z " fill="#000000"/><text fill="#000000" font-family="sans-serif" font-size="14" font-style="italic" lengthAdjust="spacing" textLength="105.0479" x="888.5" y="243.3105">DroneRepository</text><line style="stroke:#181818;stroke-width:0.5;" x1="860.5" x2="995.5479" y1="253.5137" y2="253.5137"/><line style="stroke:#181818;stroke-width:0.5;" x1="860.5" x2="995.5479" y1="261.5137" y2="261.5137"/></g><!--class DroneModelRepository--><g id="elem_DroneModelRepository"><rect codeLine="60" fill="#F1F1F1" height="48" id="DroneModelRepository" rx="2.5" ry="2.5" style="stroke:#181818;stroke-width:0.5;" width="175.1787" x="649.5" y="221.5137"/><ellipse cx="664.5" cy="237.5137" fill="#B4A7E5" rx="11" ry="11" style="stroke:#181818;stroke-width:1.0;"/><path d="M665.4531,234.1543 L665.4531,240.8105 L667.1719,240.8105 Q667.7813,240.8105 668.0469,241.0449 Q668.3125,241.2793 668.3125,241.6699 Q668.3125,242.0449 668.0469,242.2793 Q667.7813,242.5137 667.1719,242.5137 L662.0313,242.5137 Q661.4219,242.5137 661.1563,242.2793 Q660.8906,242.0449 660.8906,241.6543 Q660.8906,241.2793 661.1563,241.0449 Q661.4219,240.8105 662.0313,240.8105 L663.75,240.8105 L663.75,234.1543 L662.0313,234.1543 Q661.4219,234.1543 661.1563,233.9199 Q660.8906,233.6855 660.8906,233.2949 Q660.8906,232.9199 661.1563,232.6855 Q661.4219,232.4512 662.0313,232.4512 L667.1719,232.4512 Q667.7813,232.4512 668.0469,232.6855 Q668.3125,232.9199 668.3125,233.2949 Q668.3125,233.6855 668.0469,233.9199 Q667.7813,234.1543 667.1719,234.1543 L665.4531,234.1543 Z " fill="#000000"/><text fill="#000000" font-family="sans-serif" font-size="14" font-style="italic" lengthAdjust="spacing" textLength="143.1787" x="678.5" y="243.3105">DroneModelRepository</text><line style="stroke:#181818;stroke-width:0.5;" x1="650.5" x2="823.6787" y1="253.5137" y2="253.5137"/><line style="stroke:#181818;stroke-width:0.5;" x1="650.5" x2="823.6787" y1="261.5137" y2="261.5137"/></g><!--class MaintenanceTypeRepository--><g id="elem_MaintenanceTypeRepository"><rect codeLine="61" fill="#F1F1F1" height="48" id="MaintenanceTypeRepository" rx="2.5" ry="2.5" style="stroke:#181818;stroke-width:0.5;" width="210.2061" x="1032" y="221.5137"/><ellipse cx="1047" cy="237.5137" fill="#B4A7E5" rx="11" ry="11" style="stroke:#181818;stroke-width:1.0;"/><path d="M1047.9531,234.1543 L1047.9531,240.8105 L1049.6719,240.8105 Q1050.2813,240.8105 1050.5469,241.0449 Q1050.8125,241.2793 1050.8125,241.6699 Q1050.8125,242.0449 1050.5469,242.2793 Q1050.2813,242.5137 1049.6719,242.5137 L1044.5313,242.5137 Q1043.9219,242.5137 1043.6563,242.2793 Q1043.3906,242.0449 1043.3906,241.6543 Q1043.3906,241.2793 1043.6563,241.0449 Q1043.9219,240.8105 1044.5313,240.8105 L1046.25,240.8105 L1046.25,234.1543 L1044.5313,234.1543 Q1043.9219,234.1543 1043.6563,233.9199 Q1043.3906,233.6855 1043.3906,233.2949 Q1043.3906,232.9199 1043.6563,232.6855 Q1043.9219,232.4512 1044.5313,232.4512 L1049.6719,232.4512 Q1050.2813,232.4512 1050.5469,232.6855 Q1050.8125,232.9199 1050.8125,233.2949 Q1050.8125,233.6855 1050.5469,233.9199 Q1050.2813,234.1543 1049.6719,234.1543 L1047.9531,234.1543 Z " fill="#000000"/><text fill="#000000" font-family="sans-serif" font-size="14" font-style="italic" lengthAdjust="spacing" textLength="178.2061" x="1061" y="243.3105">MaintenanceTypeRepository</text><line style="stroke:#181818;stroke-width:0.5;" x1="1033" x2="1241.2061" y1="253.5137" y2="253.5137"/><line style="stroke:#181818;stroke-width:0.5;" x1="1033" x2="1241.2061" y1="261.5137" y2="261.5137"/></g><!--class JpaDroneRepository--><g id="elem_JpaDroneRepository"><rect codeLine="69" fill="#F1F1F1" height="48" id="JpaDroneRepository" rx="2.5" ry="2.5" style="stroke:#181818;stroke-width:0.5;" width="159.6201" x="2438" y="435.0137"/><ellipse cx="2453" cy="451.0137" fill="#ADD1B2" rx="11" ry="11" style="stroke:#181818;stroke-width:1.0;"/><path d="M2455.7656,446.8887 Q2455.9219,446.6699 2456.1094,446.5605 Q2456.2969,446.4512 2456.5156,446.4512 Q2456.8906,446.4512 2457.125,446.7168 Q2457.3594,446.9668 2457.3594,447.5762 L2457.3594,449.0293 Q2457.3594,449.6387 2457.125,449.9043 Q2456.8906,450.1699 2456.5156,450.1699 Q2456.1719,450.1699 2455.9688,449.9668 Q2455.7656,449.7793 2455.6563,449.2637 Q2455.6094,448.9043 2455.4219,448.7168 Q2455.0938,448.3418 2454.4844,448.123 Q2453.875,447.9043 2453.25,447.9043 Q2452.4844,447.9043 2451.8438,448.2324 Q2451.2188,448.5605 2450.7188,449.3105 Q2450.2344,450.0605 2450.2344,451.0918 L2450.2344,452.1855 Q2450.2344,453.4199 2451.125,454.248 Q2452.0156,455.0605 2453.6094,455.0605 Q2454.5469,455.0605 2455.2031,454.8105 Q2455.5938,454.6543 2456.0156,454.2168 Q2456.2813,453.9512 2456.4219,453.873 Q2456.5781,453.7949 2456.7813,453.7949 Q2457.1094,453.7949 2457.3594,454.0605 Q2457.625,454.3105 2457.625,454.6543 Q2457.625,454.998 2457.2813,455.4043 Q2456.7813,455.9824 2455.9844,456.3105 Q2454.9063,456.7637 2453.6094,456.7637 Q2452.0938,456.7637 2450.8906,456.1387 Q2449.9063,455.6387 2449.2188,454.5762 Q2448.5313,453.498 2448.5313,452.2168 L2448.5313,451.0605 Q2448.5313,449.7324 2449.1406,448.5918 Q2449.7656,447.4355 2450.8594,446.8262 Q2451.9531,446.2012 2453.1875,446.2012 Q2453.9219,446.2012 2454.5625,446.373 Q2455.2188,446.5293 2455.7656,446.8887 Z " fill="#000000"/><text fill="#000000" font-family="sans-serif" font-size="14" lengthAdjust="spacing" textLength="127.6201" x="2467" y="456.8105">JpaDroneRepository</text><line style="stroke:#181818;stroke-width:0.5;" x1="2439" x2="2596.6201" y1="467.0137" y2="467.0137"/><line style="stroke:#181818;stroke-width:0.5;" x1="2439" x2="2596.6201" y1="475.0137" y2="475.0137"/></g><!--class JpaDroneModelRepository--><g id="elem_JpaDroneModelRepository"><rect codeLine="70" fill="#F1F1F1" height="48" id="JpaDroneModelRepository" rx="2.5" ry="2.5" style="stroke:#181818;stroke-width:0.5;" width="197.751" x="2205" y="435.0137"/><ellipse cx="2220" cy="451.0137" fill="#ADD1B2" rx="11" ry="11" style="stroke:#181818;stroke-width:1.0;"/><path d="M2222.7656,446.8887 Q2222.9219,446.6699 2223.1094,446.5605 Q2223.2969,446.4512 2223.5156,446.4512 Q2223.8906,446.4512 2224.125,446.7168 Q2224.3594,446.9668 2224.3594,447.5762 L2224.3594,449.0293 Q2224.3594,449.6387 2224.125,449.9043 Q2223.8906,450.1699 2223.5156,450.1699 Q2223.1719,450.1699 2222.9688,449.9668 Q2222.7656,449.7793 2222.6563,449.2637 Q2222.6094,448.9043 2222.4219,448.7168 Q2222.0938,448.3418 2221.4844,448.123 Q2220.875,447.9043 2220.25,447.9043 Q2219.4844,447.9043 2218.8438,448.2324 Q2218.2188,448.5605 2217.7188,449.3105 Q2217.2344,450.0605 2217.2344,451.0918 L2217.2344,452.1855 Q2217.2344,453.4199 2218.125,454.248 Q2219.0156,455.0605 2220.6094,455.0605 Q2221.5469,455.0605 2222.2031,454.8105 Q2222.5938,454.6543 2223.0156,454.2168 Q2223.2813,453.9512 2223.4219,453.873 Q2223.5781,453.7949 2223.7813,453.7949 Q2224.1094,453.7949 2224.3594,454.0605 Q2224.625,454.3105 2224.625,454.6543 Q2224.625,454.998 2224.2813,455.4043 Q2223.7813,455.9824 2222.9844,456.3105 Q2221.9063,456.7637 2220.6094,456.7637 Q2219.0938,456.7637 2217.8906,456.1387 Q2216.9063,455.6387 2216.2188,454.5762 Q2215.5313,453.498 2215.5313,452.2168 L2215.5313,451.0605 Q2215.5313,449.7324 2216.1406,448.5918 Q2216.7656,447.4355 2217.8594,446.8262 Q2218.9531,446.2012 2220.1875,446.2012 Q2220.9219,446.2012 2221.5625,446.373 Q2222.2188,446.5293 2222.7656,446.8887 Z " fill="#000000"/><text fill="#000000" font-family="sans-serif" font-size="14" lengthAdjust="spacing" textLength="165.751" x="2234" y="456.8105">JpaDroneModelRepository</text><line style="stroke:#181818;stroke-width:0.5;" x1="2206" x2="2401.751" y1="467.0137" y2="467.0137"/><line style="stroke:#181818;stroke-width:0.5;" x1="2206" x2="2401.751" y1="475.0137" y2="475.0137"/></g><!--class JpaMaintenanceTypeRepository--><g id="elem_JpaMaintenanceTypeRepository"><rect codeLine="71" fill="#F1F1F1" height="48" id="JpaMaintenanceTypeRepository" rx="2.5" ry="2.5" style="stroke:#181818;stroke-width:0.5;" width="232.7783" x="2633.5" y="435.0137"/><ellipse cx="2648.5" cy="451.0137" fill="#ADD1B2" rx="11" ry="11" style="stroke:#181818;stroke-width:1.0;"/><path d="M2651.2656,446.8887 Q2651.4219,446.6699 2651.6094,446.5605 Q2651.7969,446.4512 2652.0156,446.4512 Q2652.3906,446.4512 2652.625,446.7168 Q2652.8594,446.9668 2652.8594,447.5762 L2652.8594,449.0293 Q2652.8594,449.6387 2652.625,449.9043 Q2652.3906,450.1699 2652.0156,450.1699 Q2651.6719,450.1699 2651.4688,449.9668 Q2651.2656,449.7793 2651.1563,449.2637 Q2651.1094,448.9043 2650.9219,448.7168 Q2650.5938,448.3418 2649.9844,448.123 Q2649.375,447.9043 2648.75,447.9043 Q2647.9844,447.9043 2647.3438,448.2324 Q2646.7188,448.5605 2646.2188,449.3105 Q2645.7344,450.0605 2645.7344,451.0918 L2645.7344,452.1855 Q2645.7344,453.4199 2646.625,454.248 Q2647.5156,455.0605 2649.1094,455.0605 Q2650.0469,455.0605 2650.7031,454.8105 Q2651.0938,454.6543 2651.5156,454.2168 Q2651.7813,453.9512 2651.9219,453.873 Q2652.0781,453.7949 2652.2813,453.7949 Q2652.6094,453.7949 2652.8594,454.0605 Q2653.125,454.3105 2653.125,454.6543 Q2653.125,454.998 2652.7813,455.4043 Q2652.2813,455.9824 2651.4844,456.3105 Q2650.4063,456.7637 2649.1094,456.7637 Q2647.5938,456.7637 2646.3906,456.1387 Q2645.4063,455.6387 2644.7188,454.5762 Q2644.0313,453.498 2644.0313,452.2168 L2644.0313,451.0605 Q2644.0313,449.7324 2644.6406,448.5918 Q2645.2656,447.4355 2646.3594,446.8262 Q2647.4531,446.2012 2648.6875,446.2012 Q2649.4219,446.2012 2650.0625,446.373 Q2650.7188,446.5293 2651.2656,446.8887 Z " fill="#000000"/><text fill="#000000" font-family="sans-serif" font-size="14" lengthAdjust="spacing" textLength="200.7783" x="2662.5" y="456.8105">JpaMaintenanceTypeRepository</text><line style="stroke:#181818;stroke-width:0.5;" x1="2634.5" x2="2865.2783" y1="467.0137" y2="467.0137"/><line style="stroke:#181818;stroke-width:0.5;" x1="2634.5" x2="2865.2783" y1="475.0137" y2="475.0137"/></g><!--class InMemoryDroneRepository--><g id="elem_InMemoryDroneRepository"><rect codeLine="77" fill="#F1F1F1" height="48" id="InMemoryDroneRepository" rx="2.5" ry="2.5" style="stroke:#181818;stroke-width:0.5;" width="199.2822" x="1642.5" y="435.0137"/><ellipse cx="1657.5" cy="451.0137" fill="#ADD1B2" rx="11" ry="11" style="stroke:#181818;stroke-width:1.0;"/><path d="M1660.2656,446.8887 Q1660.4219,446.6699 1660.6094,446.5605 Q1660.7969,446.4512 1661.0156,446.4512 Q1661.3906,446.4512 1661.625,446.7168 Q1661.8594,446.9668 1661.8594,447.5762 L1661.8594,449.0293 Q1661.8594,449.6387 1661.625,449.9043 Q1661.3906,450.1699 1661.0156,450.1699 Q1660.6719,450.1699 1660.4688,449.9668 Q1660.2656,449.7793 1660.1563,449.2637 Q1660.1094,448.9043 1659.9219,448.7168 Q1659.5938,448.3418 1658.9844,448.123 Q1658.375,447.9043 1657.75,447.9043 Q1656.9844,447.9043 1656.3438,448.2324 Q1655.7188,448.5605 1655.2188,449.3105 Q1654.7344,450.0605 1654.7344,451.0918 L1654.7344,452.1855 Q1654.7344,453.4199 1655.625,454.248 Q1656.5156,455.0605 1658.1094,455.0605 Q1659.0469,455.0605 1659.7031,454.8105 Q1660.0938,454.6543 1660.5156,454.2168 Q1660.7813,453.9512 1660.9219,453.873 Q1661.0781,453.7949 1661.2813,453.7949 Q1661.6094,453.7949 1661.8594,454.0605 Q1662.125,454.3105 1662.125,454.6543 Q1662.125,454.998 1661.7813,455.4043 Q1661.2813,455.9824 1660.4844,456.3105 Q1659.4063,456.7637 1658.1094,456.7637 Q1656.5938,456.7637 1655.3906,456.1387 Q1654.4063,455.6387 1653.7188,454.5762 Q1653.0313,453.498 1653.0313,452.2168 L1653.0313,451.0605 Q1653.0313,449.7324 1653.6406,448.5918 Q1654.2656,447.4355 1655.3594,446.8262 Q1656.4531,446.2012 1657.6875,446.2012 Q1658.4219,446.2012 1659.0625,446.373 Q1659.7188,446.5293 1660.2656,446.8887 Z " fill="#000000"/><text fill="#000000" font-family="sans-serif" font-size="14" lengthAdjust="spacing" textLength="167.2822" x="1671.5" y="456.8105">InMemoryDroneRepository</text><line style="stroke:#181818;stroke-width:0.5;" x1="1643.5" x2="1840.7822" y1="467.0137" y2="467.0137"/><line style="stroke:#181818;stroke-width:0.5;" x1="1643.5" x2="1840.7822" y1="475.0137" y2="475.0137"/></g><!--class InMemoryDroneModelRepository--><g id="elem_InMemoryDroneModelRepository"><rect codeLine="78" fill="#F1F1F1" height="48" id="InMemoryDroneModelRepository" rx="2.5" ry="2.5" style="stroke:#181818;stroke-width:0.5;" width="237.4131" x="1370.5" y="435.0137"/><ellipse cx="1385.5" cy="451.0137" fill="#ADD1B2" rx="11" ry="11" style="stroke:#181818;stroke-width:1.0;"/><path d="M1388.2656,446.8887 Q1388.4219,446.6699 1388.6094,446.5605 Q1388.7969,446.4512 1389.0156,446.4512 Q1389.3906,446.4512 1389.625,446.7168 Q1389.8594,446.9668 1389.8594,447.5762 L1389.8594,449.0293 Q1389.8594,449.6387 1389.625,449.9043 Q1389.3906,450.1699 1389.0156,450.1699 Q1388.6719,450.1699 1388.4688,449.9668 Q1388.2656,449.7793 1388.1563,449.2637 Q1388.1094,448.9043 1387.9219,448.7168 Q1387.5938,448.3418 1386.9844,448.123 Q1386.375,447.9043 1385.75,447.9043 Q1384.9844,447.9043 1384.3438,448.2324 Q1383.7188,448.5605 1383.2188,449.3105 Q1382.7344,450.0605 1382.7344,451.0918 L1382.7344,452.1855 Q1382.7344,453.4199 1383.625,454.248 Q1384.5156,455.0605 1386.1094,455.0605 Q1387.0469,455.0605 1387.7031,454.8105 Q1388.0938,454.6543 1388.5156,454.2168 Q1388.7813,453.9512 1388.9219,453.873 Q1389.0781,453.7949 1389.2813,453.7949 Q1389.6094,453.7949 1389.8594,454.0605 Q1390.125,454.3105 1390.125,454.6543 Q1390.125,454.998 1389.7813,455.4043 Q1389.2813,455.9824 1388.4844,456.3105 Q1387.4063,456.7637 1386.1094,456.7637 Q1384.5938,456.7637 1383.3906,456.1387 Q1382.4063,455.6387 1381.7188,454.5762 Q1381.0313,453.498 1381.0313,452.2168 L1381.0313,451.0605 Q1381.0313,449.7324 1381.6406,448.5918 Q1382.2656,447.4355 1383.3594,446.8262 Q1384.4531,446.2012 1385.6875,446.2012 Q1386.4219,446.2012 1387.0625,446.373 Q1387.7188,446.5293 1388.2656,446.8887 Z " fill="#000000"/><text fill="#000000" font-family="sans-serif" font-size="14" lengthAdjust="spacing" textLength="205.4131" x="1399.5" y="456.8105">InMemoryDroneModelRepository</text><line style="stroke:#181818;stroke-width:0.5;" x1="1371.5" x2="1606.9131" y1="467.0137" y2="467.0137"/><line style="stroke:#181818;stroke-width:0.5;" x1="1371.5" x2="1606.9131" y1="475.0137" y2="475.0137"/></g><!--class InMemoryMaintenanceTypeRepository--><g id="elem_InMemoryMaintenanceTypeRepository"><rect codeLine="79" fill="#F1F1F1" height="48" id="InMemoryMaintenanceTypeRepository" rx="2.5" ry="2.5" style="stroke:#181818;stroke-width:0.5;" width="272.4404" x="1877" y="435.0137"/><ellipse cx="1892" cy="451.0137" fill="#ADD1B2" rx="11" ry="11" style="stroke:#181818;stroke-width:1.0;"/><path d="M1894.7656,446.8887 Q1894.9219,446.6699 1895.1094,446.5605 Q1895.2969,446.4512 1895.5156,446.4512 Q1895.8906,446.4512 1896.125,446.7168 Q1896.3594,446.9668 1896.3594,447.5762 L1896.3594,449.0293 Q1896.3594,449.6387 1896.125,449.9043 Q1895.8906,450.1699 1895.5156,450.1699 Q1895.1719,450.1699 1894.9688,449.9668 Q1894.7656,449.7793 1894.6563,449.2637 Q1894.6094,448.9043 1894.4219,448.7168 Q1894.0938,448.3418 1893.4844,448.123 Q1892.875,447.9043 1892.25,447.9043 Q1891.4844,447.9043 1890.8438,448.2324 Q1890.2188,448.5605 1889.7188,449.3105 Q1889.2344,450.0605 1889.2344,451.0918 L1889.2344,452.1855 Q1889.2344,453.4199 1890.125,454.248 Q1891.0156,455.0605 1892.6094,455.0605 Q1893.5469,455.0605 1894.2031,454.8105 Q1894.5938,454.6543 1895.0156,454.2168 Q1895.2813,453.9512 1895.4219,453.873 Q1895.5781,453.7949 1895.7813,453.7949 Q1896.1094,453.7949 1896.3594,454.0605 Q1896.625,454.3105 1896.625,454.6543 Q1896.625,454.998 1896.2813,455.4043 Q1895.7813,455.9824 1894.9844,456.3105 Q1893.9063,456.7637 1892.6094,456.7637 Q1891.0938,456.7637 1889.8906,456.1387 Q1888.9063,455.6387 1888.2188,454.5762 Q1887.5313,453.498 1887.5313,452.2168 L1887.5313,451.0605 Q1887.5313,449.7324 1888.1406,448.5918 Q1888.7656,447.4355 1889.8594,446.8262 Q1890.9531,446.2012 1892.1875,446.2012 Q1892.9219,446.2012 1893.5625,446.373 Q1894.2188,446.5293 1894.7656,446.8887 Z " fill="#000000"/><text fill="#000000" font-family="sans-serif" font-size="14" lengthAdjust="spacing" textLength="240.4404" x="1906" y="456.8105">InMemoryMaintenanceTypeRepository</text><line style="stroke:#181818;stroke-width:0.5;" x1="1878" x2="2148.4404" y1="467.0137" y2="467.0137"/><line style="stroke:#181818;stroke-width:0.5;" x1="1878" x2="2148.4404" y1="475.0137" y2="475.0137"/></g><!--link Drone to DroneStatus--><g id="link_Drone_DroneStatus"><path codeLine="82" d="M681.5,498.7537 C681.5,516.8037 681.5,532.5037 681.5,552.3237 " fill="none" id="Drone-to-DroneStatus" style="stroke:#181818;stroke-width:1.0;"/><polygon fill="#181818" points="681.5,558.3237,685.5,549.3237,681.5,553.3237,677.5,549.3237,681.5,558.3237" style="stroke:#181818;stroke-width:1.0;"/></g><!--reverse link Drone to DroneMaintenance--><g id="link_Drone_DroneMaintenance"><path codeLine="83" d="M793.5,510.7537 C793.5,531.6237 793.5,545.3837 793.5,567.4837 " fill="none" id="Drone-backto-DroneMaintenance" style="stroke:#181818;stroke-width:1.0;"/><polygon fill="#181818" points="793.5,498.7537,789.5,504.7537,793.5,510.7537,797.5,504.7537,793.5,498.7537" style="stroke:#181818;stroke-width:1.0;"/><text fill="#000000" font-family="sans-serif" font-size="13" lengthAdjust="spacing" textLength="7.23" x="791.0195" y="520.779">1</text><text fill="#000000" font-family="sans-serif" font-size="13" lengthAdjust="spacing" textLength="23.1245" x="761.3934" y="556.0966">0...*</text></g><!--reverse link Drone to DroneModelID--><g id="link_Drone_DroneModelID"><path codeLine="84" d="M656.46,494.5137 C572.67,494.5137 475.5,494.5137 475.5,494.5137 C475.5,494.5137 475.5,549.5837 475.5,585.7237 " fill="none" id="Drone-backto-DroneModelID" style="stroke:#181818;stroke-width:1.0;"/><polygon fill="#181818" points="668.46,494.5137,662.46,490.5137,656.46,494.5137,662.46,498.5137,668.46,494.5137" style="stroke:#181818;stroke-width:1.0;"/><text fill="#000000" font-family="sans-serif" font-size="13" lengthAdjust="spacing" textLength="7.23" x="653.3649" y="493.7816">1</text><text fill="#000000" font-family="sans-serif" font-size="13" lengthAdjust="spacing" textLength="23.1245" x="454.3421" y="574.7215">1...*</text></g><!--reverse link DroneModel to DroneModelID--><g id="link_DroneModel_DroneModelID"><path codeLine="85" d="M435,501.7537 C435,529.5037 435,558.1237 435,585.8537 " fill="none" id="DroneModel-backto-DroneModelID" style="stroke:#181818;stroke-width:1.0;"/><polygon fill="#181818" points="435,489.7537,431,495.7537,435,501.7537,439,495.7537,435,489.7537" style="stroke:#181818;stroke-width:1.0;"/></g><!--reverse link Drone to DroneID--><g id="link_Drone_DroneID"><path codeLine="86" d="M869.63,491.5137 C940.85,491.5137 1014.25,491.5137 1014.25,491.5137 C1014.25,491.5137 1014.25,548.9337 1014.25,585.9337 " fill="none" id="Drone-backto-DroneID" style="stroke:#181818;stroke-width:1.0;"/><polygon fill="#181818" points="857.63,491.5137,863.63,495.5137,869.63,491.5137,863.63,487.5137,857.63,491.5137" style="stroke:#181818;stroke-width:1.0;"/></g><!--reverse link DroneMaintenance to MaintenanceType--><g id="link_DroneMaintenance_MaintenanceType"><path codeLine="88" d="M905.5,677.5537 C905.5,700.1937 905.5,714.3837 905.5,734.2037 " fill="none" id="DroneMaintenance-backto-MaintenanceType" style="stroke:#181818;stroke-width:1.0;"/><polygon fill="#181818" points="905.5,665.5537,901.5,671.5537,905.5,677.5537,909.5,671.5537,905.5,665.5537" style="stroke:#181818;stroke-width:1.0;"/><text fill="#000000" font-family="sans-serif" font-size="13" lengthAdjust="spacing" textLength="23.1245" x="889.2184" y="687.3453">0...*</text><text fill="#000000" font-family="sans-serif" font-size="13" lengthAdjust="spacing" textLength="7.23" x="892.3618" y="723.1974">1</text></g><!--link DroneService to Drone--><g id="link_DroneService_Drone"><path codeLine="90" d="M573.25,313.1837 C573.25,363.8737 573.25,424.5137 573.25,424.5137 C573.25,424.5137 614.87,424.5137 662.4,424.5137 " fill="none" id="DroneService-to-Drone" style="stroke:#181818;stroke-width:1.0;stroke-dasharray:7.0,7.0;"/><polygon fill="#181818" points="668.4,424.5137,659.4,420.5137,663.4,424.5137,659.4,428.5137,668.4,424.5137" style="stroke:#181818;stroke-width:1.0;"/></g><!--link DroneModelService to DroneModel--><g id="link_DroneModelService_DroneModel"><path codeLine="91" d="M172,276.1737 C172,335.3437 172,459.5137 172,459.5137 C172,459.5137 298.78,459.5137 388.26,459.5137 " fill="none" id="DroneModelService-to-DroneModel" style="stroke:#181818;stroke-width:1.0;stroke-dasharray:7.0,7.0;"/><polygon fill="#181818" points="394.26,459.5137,385.26,455.5137,389.26,459.5137,385.26,463.5137,394.26,459.5137" style="stroke:#181818;stroke-width:1.0;"/></g><!--reverse link DroneRepository to JpaDroneRepository--><g id="link_DroneRepository_JpaDroneRepository"><path codeLine="93" d="M970.17,287.8237 C970.17,287.8237 2518,280.5137 2518,280.5137 C2518,280.5137 2518,386.2137 2518,434.9437 " fill="none" id="DroneRepository-backto-JpaDroneRepository" style="stroke:#181818;stroke-width:1.0;stroke-dasharray:7.0,7.0;"/><polygon fill="none" points="970.17,269.8237,964.17,287.8237,976.17,287.8237,970.17,269.8237" style="stroke:#181818;stroke-width:1.0;"/></g><!--reverse link DroneRepository to InMemoryDroneRepository--><g id="link_DroneRepository_InMemoryDroneRepository"><path codeLine="94" d="M981.83,287.7137 C981.83,323.0237 981.83,366.5137 981.83,366.5137 C981.83,366.5137 1742,366.5137 1742,366.5137 C1742,366.5137 1742,407.3037 1742,434.7137 " fill="none" id="DroneRepository-backto-InMemoryDroneRepository" style="stroke:#181818;stroke-width:1.0;stroke-dasharray:7.0,7.0;"/><polygon fill="none" points="981.83,269.7137,975.83,287.7137,987.83,287.7137,981.83,269.7137" style="stroke:#181818;stroke-width:1.0;"/></g><!--link DroneRepository to Drone--><g id="link_DroneRepository_Drone"><path codeLine="95" d="M859.45,245.5137 C848.67,245.5137 841,245.5137 841,245.5137 C841,245.5137 841,351.6137 841,413.3537 " fill="none" id="DroneRepository-to-Drone" style="stroke:#181818;stroke-width:1.0;stroke-dasharray:7.0,7.0;"/><polygon fill="#181818" points="841,419.3537,845,410.3537,841,414.3537,837,410.3537,841,419.3537" style="stroke:#181818;stroke-width:1.0;"/></g><!--reverse link DroneModelRepository to JpaDroneModelRepository--><g id="link_DroneModelRepository_JpaDroneModelRepository"><path codeLine="96" d="M772.5,287.5937 C772.5,298.7237 772.5,291.5137 772.5,291.5137 C772.5,291.5137 2304,291.5137 2304,291.5137 C2304,291.5137 2304,388.2037 2304,434.6537 " fill="none" id="DroneModelRepository-backto-JpaDroneModelRepository" style="stroke:#181818;stroke-width:1.0;stroke-dasharray:7.0,7.0;"/><polygon fill="none" points="772.5,269.5937,766.5,287.5937,778.5,287.5937,772.5,269.5937" style="stroke:#181818;stroke-width:1.0;"/></g><!--reverse link DroneModelRepository to InMemoryDroneModelRepository--><g id="link_DroneModelRepository_InMemoryDroneModelRepository"><path codeLine="97" d="M720.5,287.6837 C720.5,303.2237 720.5,302.5137 720.5,302.5137 C720.5,302.5137 1489,302.5137 1489,302.5137 C1489,302.5137 1489,391.0037 1489,434.9037 " fill="none" id="DroneModelRepository-backto-InMemoryDroneModelRepository" style="stroke:#181818;stroke-width:1.0;stroke-dasharray:7.0,7.0;"/><polygon fill="none" points="720.5,269.6837,714.5,287.6837,726.5,287.6837,720.5,269.6837" style="stroke:#181818;stroke-width:1.0;"/></g><!--link DroneModelRepository to DroneModel--><g id="link_DroneModelRepository_DroneModel"><path codeLine="98" d="M659,269.6437 C659,325.6137 659,459.5137 659,459.5137 C659,459.5137 609.67,459.5137 559.53,459.5137 " fill="none" id="DroneModelRepository-to-DroneModel" style="stroke:#181818;stroke-width:1.0;stroke-dasharray:7.0,7.0;"/><polygon fill="#181818" points="553.53,459.5137,562.53,463.5137,558.53,459.5137,562.53,455.5137,553.53,459.5137" style="stroke:#181818;stroke-width:1.0;"/></g><!--reverse link MaintenanceTypeRepository to JpaMaintenanceTypeRepository--><g id="link_MaintenanceTypeRepository_JpaMaintenanceTypeRepository"><path codeLine="100" d="M1260.21,237.5137 C1618.35,237.5137 2750,237.5137 2750,237.5137 C2750,237.5137 2750,377.4837 2750,434.8837 " fill="none" id="MaintenanceTypeRepository-backto-JpaMaintenanceTypeRepository" style="stroke:#181818;stroke-width:1.0;stroke-dasharray:7.0,7.0;"/><polygon fill="none" points="1242.21,237.5137,1260.21,243.5137,1260.21,231.5137,1242.21,237.5137" style="stroke:#181818;stroke-width:1.0;"/></g><!--reverse link MaintenanceTypeRepository to InMemoryMaintenanceTypeRepository--><g id="link_MaintenanceTypeRepository_InMemoryMaintenanceTypeRepository"><path codeLine="101" d="M1260.23,253.5137 C1492.99,253.5137 2013,253.5137 2013,253.5137 C2013,253.5137 2013,380.1937 2013,434.6337 " fill="none" id="MaintenanceTypeRepository-backto-InMemoryMaintenanceTypeRepository" style="stroke:#181818;stroke-width:1.0;stroke-dasharray:7.0,7.0;"/><polygon fill="none" points="1242.23,253.5137,1260.23,259.5137,1260.23,247.5137,1242.23,253.5137" style="stroke:#181818;stroke-width:1.0;"/></g><!--link MaintenanceTypeRepository to MaintenanceType--><g id="link_MaintenanceTypeRepository_MaintenanceType"><path codeLine="102" d="M1171.25,269.5537 C1171.25,371.8237 1171.25,765.5137 1171.25,765.5137 C1171.25,765.5137 1087.26,765.5137 1017.67,765.5137 " fill="none" id="MaintenanceTypeRepository-to-MaintenanceType" style="stroke:#181818;stroke-width:1.0;stroke-dasharray:7.0,7.0;"/><polygon fill="#181818" points="1011.67,765.5137,1020.67,769.5137,1016.67,765.5137,1020.67,761.5137,1011.67,765.5137" style="stroke:#181818;stroke-width:1.0;"/></g><!--SRC=[dLHTRzCm57tthxWA3qXJ6zWBGgXKwfeWPIBhb4wJU4AUuxPcYHtiP311_pitpaVJDEc0F3a-vzvxV7skpQEG6TKqXKH8dZzd79JETueGqo8PPOzqo-4N0RZ2zLQhGiPBbIWDhxnt_kBJ-n9HEkQwshrAa4R8df3Ny14_yABLZM-NX3Jf7BDJiLQIkqnfxjfbIYL2APUv6wkK2kd0RBRORZNVqfpFvwW1Im5Bg37WbH68-p8N-VC4MbwaL6wvI9t2PyLeuk4sKFQz44RaGido7-5zcOxB8gsIhNEQ5yQcBD8c0ooMTy6zFx7huEPhvDykWgZwzVpbAWo3zJh0ytbDmewy4C-GSqabEoXj4tUrfGTYhUqOb_nd7fvmRBcbBTS1xyfhFD-N4vqgvid_n0GUHjtJfE2hXs-SMQub7b67M9QpjoxvIqiOhfy4uuvrGL_8kWAnZcUTK__NdjaVHvmZBtUSFHgWJrGaz44as0zG6x1Y36pGtYRZJ6m40vJxmqm8Kz88DB-GMn3o2QKg_GocCXELCHYsut6HS9U4zZIcodOWVm3ijZ2vfgKv9qJpZ0hTJT7nHvCEoxdatpg8UHKE05QqJInJwWt5bBOhKOls4TlXGRXdkmwdC_xNjmjuWxC3eH-keY-08xHQ1tVbSknDoBWss12EULqCZuw5LrTvdT6-xcEWBxj5pwi-hoQG8K-HEYYf0OTr7Q73uXhAk48KMBryC9tEeVjmrVlEfGCNqoauRrtNlN1E7g8-xR9BgsQQT1w5adEAWTrlfhkMr7tjckfL2QTlb3gY6KJNdLUvoEb4jvZThGCF3O7PRzSTyi8WR-o2-kGXGMCr-pSv7d7M08DX_SEF-gALDEwS5s9VjjvuWbBcoGt_0G00]--></g></svg>