<svg xmlns="http://www.w3.org/2000/svg" xmlns:xlink="http://www.w3.org/1999/xlink" contentStyleType="text/css" height="562px" preserveAspectRatio="none" style="width:1567px;height:562px;background:#FFFFFF;" version="1.1" viewBox="0 0 1567 562" width="1567px" zoomAndPan="magnify"><defs/><g><line style="stroke:#181818;stroke-width:0.5;stroke-dasharray:5.0,5.0;" x1="149" x2="149" y1="83.6211" y2="479.1133"/><line style="stroke:#181818;stroke-width:0.5;stroke-dasharray:5.0,5.0;" x1="436.6753" x2="436.6753" y1="83.6211" y2="479.1133"/><line style="stroke:#181818;stroke-width:0.5;stroke-dasharray:5.0,5.0;" x1="614.6265" x2="614.6265" y1="83.6211" y2="479.1133"/><line style="stroke:#181818;stroke-width:0.5;stroke-dasharray:5.0,5.0;" x1="846.7974" x2="846.7974" y1="83.6211" y2="479.1133"/><line style="stroke:#181818;stroke-width:0.5;stroke-dasharray:5.0,5.0;" x1="1173.6763" x2="1173.6763" y1="83.6211" y2="479.1133"/><line style="stroke:#181818;stroke-width:0.5;stroke-dasharray:5.0,5.0;" x1="1337.7583" x2="1337.7583" y1="83.6211" y2="479.1133"/><line style="stroke:#181818;stroke-width:0.5;stroke-dasharray:5.0,5.0;" x1="1490.3579" x2="1490.3579" y1="83.6211" y2="479.1133"/><text fill="#000000" font-family="sans-serif" font-size="14" lengthAdjust="spacing" textLength="282.4404" x="5" y="80.1074">CRM Collaborator / Customer Representative</text><ellipse cx="149.2202" cy="13.5" fill="#E2E2F0" rx="8" ry="8" style="stroke:#181818;stroke-width:0.5;"/><path d="M149.2202,21.5 L149.2202,48.5 M136.2202,29.5 L162.2202,29.5 M149.2202,48.5 L136.2202,63.5 M149.2202,48.5 L162.2202,63.5 " fill="none" style="stroke:#181818;stroke-width:0.5;"/><text fill="#000000" font-family="sans-serif" font-size="14" lengthAdjust="spacing" textLength="282.4404" x="5" y="493.2207">CRM Collaborator / Customer Representative</text><ellipse cx="149.2202" cy="505.2344" fill="#E2E2F0" rx="8" ry="8" style="stroke:#181818;stroke-width:0.5;"/><path d="M149.2202,513.2344 L149.2202,540.2344 M136.2202,521.2344 L162.2202,521.2344 M149.2202,540.2344 L136.2202,555.2344 M149.2202,540.2344 L162.2202,555.2344 " fill="none" style="stroke:#181818;stroke-width:0.5;"/><rect fill="#E2E2F0" height="32.6211" rx="2.5" ry="2.5" style="stroke:#181818;stroke-width:0.5;" width="143.9512" x="365.6753" y="50"/><text fill="#000000" font-family="sans-serif" font-size="14" lengthAdjust="spacing" textLength="129.9512" x="372.6753" y="72.1074">ListShowRequestsUI</text><rect fill="#E2E2F0" height="32.6211" rx="2.5" ry="2.5" style="stroke:#181818;stroke-width:0.5;" width="143.9512" x="365.6753" y="478.1133"/><text fill="#000000" font-family="sans-serif" font-size="14" lengthAdjust="spacing" textLength="129.9512" x="372.6753" y="500.2207">ListShowRequestsUI</text><rect fill="#E2E2F0" height="32.6211" rx="2.5" ry="2.5" style="stroke:#181818;stroke-width:0.5;" width="190.6406" x="519.6265" y="50"/><text fill="#000000" font-family="sans-serif" font-size="14" lengthAdjust="spacing" textLength="176.6406" x="526.6265" y="72.1074">ListShowRequestsController</text><rect fill="#E2E2F0" height="32.6211" rx="2.5" ry="2.5" style="stroke:#181818;stroke-width:0.5;" width="190.6406" x="519.6265" y="478.1133"/><text fill="#000000" font-family="sans-serif" font-size="14" lengthAdjust="spacing" textLength="176.6406" x="526.6265" y="500.2207">ListShowRequestsController</text><rect fill="#E2E2F0" height="32.6211" rx="2.5" ry="2.5" style="stroke:#181818;stroke-width:0.5;" width="147.8477" x="773.7974" y="50"/><text fill="#000000" font-family="sans-serif" font-size="14" lengthAdjust="spacing" textLength="133.8477" x="780.7974" y="72.1074">ShowRequestService</text><rect fill="#E2E2F0" height="32.6211" rx="2.5" ry="2.5" style="stroke:#181818;stroke-width:0.5;" width="147.8477" x="773.7974" y="478.1133"/><text fill="#000000" font-family="sans-serif" font-size="14" lengthAdjust="spacing" textLength="133.8477" x="780.7974" y="500.2207">ShowRequestService</text><rect fill="#E2E2F0" height="32.6211" rx="2.5" ry="2.5" style="stroke:#181818;stroke-width:0.5;" width="168.082" x="1089.6763" y="50"/><text fill="#000000" font-family="sans-serif" font-size="14" lengthAdjust="spacing" textLength="154.082" x="1096.6763" y="72.1074">ShowRequestRepository</text><rect fill="#E2E2F0" height="32.6211" rx="2.5" ry="2.5" style="stroke:#181818;stroke-width:0.5;" width="168.082" x="1089.6763" y="478.1133"/><text fill="#000000" font-family="sans-serif" font-size="14" lengthAdjust="spacing" textLength="154.082" x="1096.6763" y="500.2207">ShowRequestRepository</text><rect fill="#E2E2F0" height="32.6211" rx="2.5" ry="2.5" style="stroke:#181818;stroke-width:0.5;" width="141.5996" x="1267.7583" y="50"/><text fill="#000000" font-family="sans-serif" font-size="14" lengthAdjust="spacing" textLength="127.5996" x="1274.7583" y="72.1074">CustomerRepository</text><rect fill="#E2E2F0" height="32.6211" rx="2.5" ry="2.5" style="stroke:#181818;stroke-width:0.5;" width="141.5996" x="1267.7583" y="478.1133"/><text fill="#000000" font-family="sans-serif" font-size="14" lengthAdjust="spacing" textLength="127.5996" x="1274.7583" y="500.2207">CustomerRepository</text><rect fill="#E2E2F0" height="32.6211" rx="2.5" ry="2.5" style="stroke:#181818;stroke-width:0.5;" width="142.3994" x="1419.3579" y="50"/><text fill="#000000" font-family="sans-serif" font-size="14" lengthAdjust="spacing" textLength="128.3994" x="1426.3579" y="72.1074">AuthorizationService</text><rect fill="#E2E2F0" height="32.6211" rx="2.5" ry="2.5" style="stroke:#181818;stroke-width:0.5;" width="142.3994" x="1419.3579" y="478.1133"/><text fill="#000000" font-family="sans-serif" font-size="14" lengthAdjust="spacing" textLength="128.3994" x="1426.3579" y="500.2207">AuthorizationService</text><polygon fill="#181818" points="425.6509,112.9121,435.6509,116.9121,425.6509,120.9121,429.6509,116.9121" style="stroke:#181818;stroke-width:1.0;"/><line style="stroke:#181818;stroke-width:1.0;" x1="149.2202" x2="431.6509" y1="116.9121" y2="116.9121"/><text fill="#000000" font-family="sans-serif" font-size="13" lengthAdjust="spacing" textLength="264.4307" x="156.2202" y="111.6494">Request to list show requests (customer VAT)</text><polygon fill="#181818" points="602.9468,144.2031,612.9468,148.2031,602.9468,152.2031,606.9468,148.2031" style="stroke:#181818;stroke-width:1.0;"/><line style="stroke:#181818;stroke-width:1.0;" x1="437.6509" x2="608.9468" y1="148.2031" y2="148.2031"/><text fill="#000000" font-family="sans-serif" font-size="13" lengthAdjust="spacing" textLength="152.439" x="444.6509" y="142.9404">listRequests(customerVat)</text><polygon fill="#181818" points="1478.5576,175.4941,1488.5576,179.4941,1478.5576,183.4941,1482.5576,179.4941" style="stroke:#181818;stroke-width:1.0;"/><line style="stroke:#181818;stroke-width:1.0;" x1="614.9468" x2="1484.5576" y1="179.4941" y2="179.4941"/><text fill="#000000" font-family="sans-serif" font-size="13" lengthAdjust="spacing" textLength="127.9116" x="621.9468" y="174.2314">ensureAuthenticated()</text><polygon fill="#181818" points="1326.5581,206.7852,1336.5581,210.7852,1326.5581,214.7852,1330.5581,210.7852" style="stroke:#181818;stroke-width:1.0;"/><line style="stroke:#181818;stroke-width:1.0;" x1="614.9468" x2="1332.5581" y1="210.7852" y2="210.7852"/><text fill="#000000" font-family="sans-serif" font-size="13" lengthAdjust="spacing" textLength="137.2744" x="621.9468" y="205.5225">findByVat(customerVat)</text><polygon fill="#181818" points="625.9468,238.0762,615.9468,242.0762,625.9468,246.0762,621.9468,242.0762" style="stroke:#181818;stroke-width:1.0;"/><line style="stroke:#181818;stroke-width:1.0;stroke-dasharray:2.0,2.0;" x1="619.9468" x2="1337.5581" y1="242.0762" y2="242.0762"/><text fill="#000000" font-family="sans-serif" font-size="13" lengthAdjust="spacing" textLength="56.3481" x="631.9468" y="236.8135">Customer</text><polygon fill="#181818" points="1478.5576,269.3672,1488.5576,273.3672,1478.5576,277.3672,1482.5576,273.3672" style="stroke:#181818;stroke-width:1.0;"/><line style="stroke:#181818;stroke-width:1.0;" x1="614.9468" x2="1484.5576" y1="273.3672" y2="273.3672"/><text fill="#000000" font-family="sans-serif" font-size="13" lengthAdjust="spacing" textLength="223.9644" x="621.9468" y="268.1045">ensureCanAccessCustomer(customer)</text><polygon fill="#181818" points="835.7212,300.6582,845.7212,304.6582,835.7212,308.6582,839.7212,304.6582" style="stroke:#181818;stroke-width:1.0;"/><line style="stroke:#181818;stroke-width:1.0;" x1="614.9468" x2="841.7212" y1="304.6582" y2="304.6582"/><text fill="#000000" font-family="sans-serif" font-size="13" lengthAdjust="spacing" textLength="208.7744" x="621.9468" y="299.3955">listRequestsForCustomer(customer)</text><polygon fill="#181818" points="1161.7173,331.9492,1171.7173,335.9492,1161.7173,339.9492,1165.7173,335.9492" style="stroke:#181818;stroke-width:1.0;"/><line style="stroke:#181818;stroke-width:1.0;" x1="847.7212" x2="1167.7173" y1="335.9492" y2="335.9492"/><text fill="#000000" font-family="sans-serif" font-size="13" lengthAdjust="spacing" textLength="301.9961" x="854.7212" y="330.6865">findByCustomerAndStatusNot(customer, DELETED)</text><polygon fill="#181818" points="858.7212,363.2402,848.7212,367.2402,858.7212,371.2402,854.7212,367.2402" style="stroke:#181818;stroke-width:1.0;"/><line style="stroke:#181818;stroke-width:1.0;stroke-dasharray:2.0,2.0;" x1="852.7212" x2="1172.7173" y1="367.2402" y2="367.2402"/><text fill="#000000" font-family="sans-serif" font-size="13" lengthAdjust="spacing" textLength="116.3525" x="864.7212" y="361.9775">List&lt;ShowRequest&gt;</text><polygon fill="#181818" points="625.9468,394.5313,615.9468,398.5313,625.9468,402.5313,621.9468,398.5313" style="stroke:#181818;stroke-width:1.0;"/><line style="stroke:#181818;stroke-width:1.0;stroke-dasharray:2.0,2.0;" x1="619.9468" x2="846.7212" y1="398.5313" y2="398.5313"/><text fill="#000000" font-family="sans-serif" font-size="13" lengthAdjust="spacing" textLength="116.3525" x="631.9468" y="393.2686">List&lt;ShowRequest&gt;</text><polygon fill="#181818" points="448.6509,425.8223,438.6509,429.8223,448.6509,433.8223,444.6509,429.8223" style="stroke:#181818;stroke-width:1.0;"/><line style="stroke:#181818;stroke-width:1.0;stroke-dasharray:2.0,2.0;" x1="442.6509" x2="613.9468" y1="429.8223" y2="429.8223"/><text fill="#000000" font-family="sans-serif" font-size="13" lengthAdjust="spacing" textLength="116.3525" x="454.6509" y="424.5596">List&lt;ShowRequest&gt;</text><polygon fill="#181818" points="160.2202,457.1133,150.2202,461.1133,160.2202,465.1133,156.2202,461.1133" style="stroke:#181818;stroke-width:1.0;"/><line style="stroke:#181818;stroke-width:1.0;" x1="154.2202" x2="436.6509" y1="461.1133" y2="461.1133"/><text fill="#000000" font-family="sans-serif" font-size="13" lengthAdjust="spacing" textLength="93.939" x="166.2202" y="455.8506">display requests</text><!--SRC=[VP9DRy8m38Rl-HKMku0qDEso0vgGIW49YUt0rprhFOWeIUUaJDsq_pw7qW_AngbD_BonNzjshtGgIHuWKHfTdY8OSZiZR1L8PRINMuHl0J3Y_osPJCUXIGp1NJ0PFqqVVSHGZ5JSZXB6n8yGCd9yx8IB5-188jyCIN_p065cdJaWmG9JGelQIQUEs05fOMsH1ETsAbAfr0uwSsNTScS-5_YHeNLsFIl0sMqiDDeHvqKwuVNnKjQGB96EAYhAEF__otBbnYgsavzmVxnaIuyji7bzAGWoxZofBsw5qSrIV408tnVe3zas3E1S13Z3a-ElvSA0piQX6vNztGIhdc05wsh_hFUYiayLlP6k9neOYtngnb7RZD0VU5GgaWxZRXjj6cF9kzBnAESdMyytgNwxh39wgufGwY2AqDeIhXAqAphti6LtQkWFPScoxC90YGOwNlAIPlRLr8xkOJoPJrQJSKzKVkgaVX-V6niph9EqVL-ZJIVbqA-fOhAdpHX0h6oQoBnQ0_4B]--></g></svg>