<svg xmlns="http://www.w3.org/2000/svg" xmlns:xlink="http://www.w3.org/1999/xlink" contentStyleType="text/css" height="537.6px" preserveAspectRatio="none" style="width:870px;height:537px;background:#FFFFFF;" version="1.1" viewBox="0 0 870 537" width="870.8px" zoomAndPan="magnify"><defs/><g><rect fill="#F9E79F" height="266.0861" style="stroke:#000000;stroke-width:1.0499999999999998;" width="859.1745" x="7" y="201.857"/><rect fill="#F9E79F" height="164.9676" style="stroke:none;stroke-width:0.6999999999999998;" width="859.1745" x="7" y="302.9756"/><line style="stroke:#181818;stroke-width:0.3499999999999999;stroke-dasharray:5.0,5.0;" x1="49" x2="49" y1="58.5348" y2="479.8432"/><line style="stroke:#181818;stroke-width:0.3499999999999999;stroke-dasharray:5.0,5.0;" x1="204.722" x2="204.722" y1="58.5348" y2="479.8432"/><line style="stroke:#181818;stroke-width:0.3499999999999999;stroke-dasharray:5.0,5.0;" x1="366.1574" x2="366.1574" y1="58.5348" y2="479.8432"/><line style="stroke:#181818;stroke-width:0.3499999999999999;stroke-dasharray:5.0,5.0;" x1="526.9893" x2="526.9893" y1="58.5348" y2="479.8432"/><line style="stroke:#181818;stroke-width:0.3499999999999999;stroke-dasharray:5.0,5.0;" x1="697.9851" x2="697.9851" y1="58.5348" y2="479.8432"/><line style="stroke:#181818;stroke-width:0.3499999999999999;stroke-dasharray:5.0,5.0;" x1="779.6048" x2="779.6048" y1="58.5348" y2="479.8432"/><line style="stroke:#181818;stroke-width:0.3499999999999999;stroke-dasharray:5.0,5.0;" x1="839.7966" x2="839.7966" y1="58.5348" y2="479.8432"/><text fill="#000000" font-family="sans-serif" font-size="9.8" lengthAdjust="spacing" textLength="66.4562" x="14" y="56.0752">Show Designer</text><ellipse cx="49.3281" cy="9.45" fill="#E2E2F0" rx="5.6" ry="5.6" style="stroke:#181818;stroke-width:0.3499999999999999;"/><path d="M49.3281,15.05 L49.3281,33.95 M40.2281,20.65 L58.4281,20.65 M49.3281,33.95 L40.2281,44.45 M49.3281,33.95 L58.4281,44.45 " fill="none" style="stroke:#181818;stroke-width:0.3499999999999999;"/><text fill="#000000" font-family="sans-serif" font-size="9.8" lengthAdjust="spacing" textLength="66.4562" x="14" y="489.7184">Show Designer</text><ellipse cx="49.3281" cy="498.1279" fill="#E2E2F0" rx="5.6" ry="5.6" style="stroke:#181818;stroke-width:0.3499999999999999;"/><path d="M49.3281,503.7279 L49.3281,522.6279 M40.2281,509.3279 L58.4281,509.3279 M49.3281,522.6279 L40.2281,533.1279 M49.3281,522.6279 L58.4281,533.1279 " fill="none" style="stroke:#181818;stroke-width:0.3499999999999999;"/><rect fill="#E2E2F0" height="22.8348" rx="1.75" ry="1.75" style="stroke:#181818;stroke-width:0.3499999999999999;" width="111.6377" x="149.422" y="35"/><text fill="#000000" font-family="sans-serif" font-size="9.8" lengthAdjust="spacing" textLength="101.8377" x="154.322" y="50.4752">DecommissionFigureUI</text><rect fill="#E2E2F0" height="22.8348" rx="1.75" ry="1.75" style="stroke:#181818;stroke-width:0.3499999999999999;" width="111.6377" x="149.422" y="479.1432"/><text fill="#000000" font-family="sans-serif" font-size="9.8" lengthAdjust="spacing" textLength="101.8377" x="154.322" y="494.6184">DecommissionFigureUI</text><rect fill="#E2E2F0" height="22.8348" rx="1.75" ry="1.75" style="stroke:#181818;stroke-width:0.3499999999999999;" width="147.0431" x="292.6574" y="35"/><text fill="#000000" font-family="sans-serif" font-size="9.8" lengthAdjust="spacing" textLength="137.2431" x="297.5574" y="50.4752">Decommission FigureController</text><rect fill="#E2E2F0" height="22.8348" rx="1.75" ry="1.75" style="stroke:#181818;stroke-width:0.3499999999999999;" width="147.0431" x="292.6574" y="479.1432"/><text fill="#000000" font-family="sans-serif" font-size="9.8" lengthAdjust="spacing" textLength="137.2431" x="297.5574" y="494.6184">Decommission FigureController</text><rect fill="#E2E2F0" height="22.8348" rx="1.75" ry="1.75" style="stroke:#181818;stroke-width:0.3499999999999999;" width="70.2557" x="491.9893" y="35"/><text fill="#000000" font-family="sans-serif" font-size="9.8" lengthAdjust="spacing" textLength="60.4557" x="496.8893" y="50.4752">FigureService</text><rect fill="#E2E2F0" height="22.8348" rx="1.75" ry="1.75" style="stroke:#181818;stroke-width:0.3499999999999999;" width="70.2557" x="491.9893" y="479.1432"/><text fill="#000000" font-family="sans-serif" font-size="9.8" lengthAdjust="spacing" textLength="60.4557" x="496.8893" y="494.6184">FigureService</text><rect fill="#E2E2F0" height="22.8348" rx="1.75" ry="1.75" style="stroke:#181818;stroke-width:0.3499999999999999;" width="84.4197" x="655.9851" y="35"/><text fill="#000000" font-family="sans-serif" font-size="9.8" lengthAdjust="spacing" textLength="74.6197" x="660.8851" y="50.4752">FigureRepository</text><rect fill="#E2E2F0" height="22.8348" rx="1.75" ry="1.75" style="stroke:#181818;stroke-width:0.3499999999999999;" width="84.4197" x="655.9851" y="479.1432"/><text fill="#000000" font-family="sans-serif" font-size="9.8" lengthAdjust="spacing" textLength="74.6197" x="660.8851" y="494.6184">FigureRepository</text><rect fill="#E2E2F0" height="22.8348" rx="1.75" ry="1.75" style="stroke:#181818;stroke-width:0.3499999999999999;" width="65.3604" x="747.4048" y="35"/><text fill="#000000" font-family="sans-serif" font-size="9.8" lengthAdjust="spacing" textLength="55.5604" x="752.3048" y="50.4752">FigureStatus</text><rect fill="#E2E2F0" height="22.8348" rx="1.75" ry="1.75" style="stroke:#181818;stroke-width:0.3499999999999999;" width="65.3604" x="747.4048" y="479.1432"/><text fill="#000000" font-family="sans-serif" font-size="9.8" lengthAdjust="spacing" textLength="55.5604" x="752.3048" y="494.6184">FigureStatus</text><rect fill="#E2E2F0" height="22.8348" rx="1.75" ry="1.75" style="stroke:#181818;stroke-width:0.3499999999999999;" width="37.5778" x="821.5966" y="35"/><text fill="#000000" font-family="sans-serif" font-size="9.8" lengthAdjust="spacing" textLength="27.7778" x="826.4966" y="50.4752">Figure</text><rect fill="#E2E2F0" height="22.8348" rx="1.75" ry="1.75" style="stroke:#181818;stroke-width:0.3499999999999999;" width="37.5778" x="821.5966" y="479.1432"/><text fill="#000000" font-family="sans-serif" font-size="9.8" lengthAdjust="spacing" textLength="27.7778" x="826.4966" y="494.6184">Figure</text><polygon fill="#181818" points="196.8408,79.0385,203.8408,81.8385,196.8408,84.6385,199.6408,81.8385" style="stroke:#181818;stroke-width:0.6999999999999998;"/><line style="stroke:#181818;stroke-width:0.6999999999999998;" x1="49.3281" x2="201.0408" y1="81.8385" y2="81.8385"/><text fill="#000000" font-family="sans-serif" font-size="9.1" lengthAdjust="spacing" textLength="122.3968" x="54.2281" y="78.1546">asks to decommission a figure</text><polygon fill="#181818" points="57.0281,100.9422,50.0281,103.7422,57.0281,106.5422,54.2281,103.7422" style="stroke:#181818;stroke-width:0.6999999999999998;"/><line style="stroke:#181818;stroke-width:0.6999999999999998;" x1="52.8281" x2="204.5408" y1="103.7422" y2="103.7422"/><text fill="#000000" font-family="sans-serif" font-size="9.1" lengthAdjust="spacing" textLength="139.1127" x="61.2281" y="100.0583">asks to enter the code and version</text><polygon fill="#181818" points="196.8408,122.8459,203.8408,125.6459,196.8408,128.4459,199.6408,125.6459" style="stroke:#181818;stroke-width:0.6999999999999998;"/><line style="stroke:#181818;stroke-width:0.6999999999999998;" x1="49.3281" x2="201.0408" y1="125.6459" y2="125.6459"/><text fill="#000000" font-family="sans-serif" font-size="9.1" lengthAdjust="spacing" textLength="110.2664" x="54.2281" y="121.962">insert the figure information</text><polygon fill="#181818" points="357.779,144.7496,364.779,147.5496,357.779,150.3496,360.579,147.5496" style="stroke:#181818;stroke-width:0.6999999999999998;"/><line style="stroke:#181818;stroke-width:0.6999999999999998;" x1="205.2408" x2="361.979" y1="147.5496" y2="147.5496"/><text fill="#000000" font-family="sans-serif" font-size="9.1" lengthAdjust="spacing" textLength="144.1381" x="210.1408" y="143.8657">decommissionFigure(code, version)</text><polygon fill="#181818" points="518.7171,166.6533,525.7171,169.4533,518.7171,172.2533,521.5171,169.4533" style="stroke:#181818;stroke-width:0.6999999999999998;"/><line style="stroke:#181818;stroke-width:0.6999999999999998;" x1="366.179" x2="522.9171" y1="169.4533" y2="169.4533"/><text fill="#000000" font-family="sans-serif" font-size="9.1" lengthAdjust="spacing" textLength="144.1381" x="371.079" y="165.7694">decommissionFigure(code, version)</text><polygon fill="#181818" points="689.795,188.557,696.795,191.357,689.795,194.157,692.595,191.357" style="stroke:#181818;stroke-width:0.6999999999999998;"/><line style="stroke:#181818;stroke-width:0.6999999999999998;" x1="527.1171" x2="693.995" y1="191.357" y2="191.357"/><text fill="#000000" font-family="sans-serif" font-size="9.1" lengthAdjust="spacing" textLength="154.2779" x="532.0171" y="187.6731">findByCodeAndVersion(code, version)</text><path d="M7,201.857 L49.1196,201.857 L49.1196,208.3607 L42.1196,215.3607 L7,215.3607 L7,201.857 " fill="#EEEEEE" style="stroke:#000000;stroke-width:1.0499999999999998;"/><rect fill="none" height="266.0861" style="stroke:#000000;stroke-width:1.0499999999999998;" width="859.1745" x="7" y="201.857"/><text fill="#000000" font-family="sans-serif" font-size="9.1" font-weight="bold" lengthAdjust="spacing" textLength="10.6196" x="17.5" y="212.3769">alt</text><text fill="#000000" font-family="sans-serif" font-size="7.7" font-weight="bold" lengthAdjust="spacing" textLength="66.2847" x="59.6196" y="211.5661">[Figure not found]</text><polygon fill="#181818" points="534.8171,228.8645,527.8171,231.6645,534.8171,234.4645,532.0171,231.6645" style="stroke:#181818;stroke-width:0.6999999999999998;"/><line style="stroke:#181818;stroke-width:0.6999999999999998;" x1="530.6171" x2="697.495" y1="231.6645" y2="231.6645"/><text fill="#000000" font-family="sans-serif" font-size="9.1" lengthAdjust="spacing" textLength="127.9732" x="539.0171" y="227.9806">throw IllegalArgumentException</text><polygon fill="#181818" points="373.879,250.7682,366.879,253.5682,373.879,256.3682,371.079,253.5682" style="stroke:#181818;stroke-width:0.6999999999999998;"/><line style="stroke:#181818;stroke-width:0.6999999999999998;stroke-dasharray:2.0,2.0;" x1="369.679" x2="526.4171" y1="253.5682" y2="253.5682"/><text fill="#000000" font-family="sans-serif" font-size="9.1" lengthAdjust="spacing" textLength="79.9138" x="378.079" y="249.8843">Sent error message</text><polygon fill="#181818" points="212.9408,272.6719,205.9408,275.4719,212.9408,278.2719,210.1408,275.4719" style="stroke:#181818;stroke-width:0.6999999999999998;"/><line style="stroke:#181818;stroke-width:0.6999999999999998;stroke-dasharray:2.0,2.0;" x1="208.7408" x2="365.479" y1="275.4719" y2="275.4719"/><text fill="#000000" font-family="sans-serif" font-size="9.1" lengthAdjust="spacing" textLength="83.9573" x="217.1408" y="271.788">Show error message</text><polygon fill="#181818" points="57.0281,294.5756,50.0281,297.3756,57.0281,300.1756,54.2281,297.3756" style="stroke:#181818;stroke-width:0.6999999999999998;"/><line style="stroke:#181818;stroke-width:0.6999999999999998;" x1="52.8281" x2="204.5408" y1="297.3756" y2="297.3756"/><text fill="#000000" font-family="sans-serif" font-size="9.1" lengthAdjust="spacing" textLength="51.5785" x="61.2281" y="293.6917">Display error</text><line style="stroke:#000000;stroke-width:0.6999999999999998;stroke-dasharray:2.0,2.0;" x1="7" x2="866.1745" y1="303.6756" y2="303.6756"/><text fill="#000000" font-family="sans-serif" font-size="7.7" font-weight="bold" lengthAdjust="spacing" textLength="52.1743" x="10.5" y="311.9847">[Figure found]</text><polygon fill="#181818" points="534.8171,328.1209,527.8171,330.9209,534.8171,333.7209,532.0171,330.9209" style="stroke:#181818;stroke-width:0.6999999999999998;"/><line style="stroke:#181818;stroke-width:0.6999999999999998;" x1="530.6171" x2="697.495" y1="330.9209" y2="330.9209"/><text fill="#000000" font-family="sans-serif" font-size="9.1" lengthAdjust="spacing" textLength="48.0638" x="539.0171" y="327.237">figure found</text><polygon fill="#181818" points="831.9855,350.0246,838.9855,352.8246,831.9855,355.6246,834.7855,352.8246" style="stroke:#181818;stroke-width:0.6999999999999998;"/><line style="stroke:#181818;stroke-width:0.6999999999999998;" x1="527.1171" x2="836.1855" y1="352.8246" y2="352.8246"/><text fill="#000000" font-family="sans-serif" font-size="9.1" lengthAdjust="spacing" textLength="64.2199" x="532.0171" y="349.1407">decommission()</text><polygon fill="#181818" points="787.7851,371.9283,780.7851,374.7283,787.7851,377.5283,784.9851,374.7283" style="stroke:#181818;stroke-width:0.6999999999999998;"/><line style="stroke:#181818;stroke-width:0.6999999999999998;" x1="783.5851" x2="839.6855" y1="374.7283" y2="374.7283"/><text fill="#000000" font-family="sans-serif" font-size="9.1" lengthAdjust="spacing" textLength="43.5005" x="791.9851" y="371.0444">new status</text><polygon fill="#181818" points="689.795,393.832,696.795,396.632,689.795,399.432,692.595,396.632" style="stroke:#181818;stroke-width:0.6999999999999998;"/><line style="stroke:#181818;stroke-width:0.6999999999999998;" x1="527.1171" x2="693.995" y1="396.632" y2="396.632"/><text fill="#000000" font-family="sans-serif" font-size="9.1" lengthAdjust="spacing" textLength="48.046" x="532.0171" y="392.9481">save(figure)</text><polygon fill="#181818" points="373.879,415.7357,366.879,418.5357,373.879,421.3357,371.079,418.5357" style="stroke:#181818;stroke-width:0.6999999999999998;"/><line style="stroke:#181818;stroke-width:0.6999999999999998;stroke-dasharray:2.0,2.0;" x1="369.679" x2="526.4171" y1="418.5357" y2="418.5357"/><text fill="#000000" font-family="sans-serif" font-size="9.1" lengthAdjust="spacing" textLength="93.5727" x="378.079" y="414.8519">Sent success message</text><polygon fill="#181818" points="212.9408,437.6395,205.9408,440.4395,212.9408,443.2395,210.1408,440.4395" style="stroke:#181818;stroke-width:0.6999999999999998;"/><line style="stroke:#181818;stroke-width:0.6999999999999998;stroke-dasharray:2.0,2.0;" x1="208.7408" x2="365.479" y1="440.4395" y2="440.4395"/><text fill="#000000" font-family="sans-serif" font-size="9.1" lengthAdjust="spacing" textLength="97.6162" x="217.1408" y="436.7556">Show success message</text><polygon fill="#181818" points="57.0281,459.5432,50.0281,462.3432,57.0281,465.1432,54.2281,462.3432" style="stroke:#181818;stroke-width:0.6999999999999998;"/><line style="stroke:#181818;stroke-width:0.6999999999999998;" x1="52.8281" x2="204.5408" y1="462.3432" y2="462.3432"/><text fill="#000000" font-family="sans-serif" font-size="9.1" lengthAdjust="spacing" textLength="76.879" x="61.2281" y="458.6593">Display a message</text><!--SRC=[ZPB1Rjim38RlVWeYlIJ0UYwwmu0cQO1SQsHtGQOT8R9aK7JIODYxZvRin2xS8JvPulTJv4-6at6D8bM3DGxvsY1uugFFmYtGA7rI5SAV360j_nNvrXKRRpt1q-xr_ULrrqKy5KZfTcq5o_vccT8inqL-z1VOOZ2LGrg02f1lCqdEHfj6EOR55hMlQnE2yMvdgfRmi8_WOVyz28dSUCVahUrJtuzJPO9pfBFHc8f8_tFO1pO-62d-6idkE9kD5RSX8dAHSoP6W3G7px-aSlWfWLC0zb2CorPGHdM41HDO97SO7IC17n6qBn2KA-2Cr4c_fZSk8754KqgvAJtLYWSufRzx8g99CQcFPVVGZ-6LLLIED5s1oIkHFwOUU95sveckDAvONpU2lhdYTsBdbCfoFrXmdg7ibWrYfFjYiaazV2JPhhqKMYdxHbLRYt_ldngRcmcJWhxQaGiEI2IBMcC8ikatpTY2mVAuo_FuQ9HR4nghhWcC0Dg0Gr-nf_-qLCvX8qVxDDDPB5Stj8ydCcS17LuWn6MTozTFAAWpBjFRgmTz2wtMuiBZpdqdcF5EJI3ihSZ-0G00]--></g></svg>