<?xml version="1.0" encoding="us-ascii" standalone="no"?><svg xmlns="http://www.w3.org/2000/svg" xmlns:xlink="http://www.w3.org/1999/xlink" contentStyleType="text/css" height="489px" preserveAspectRatio="none" style="width:684px;height:489px;background:#FFFFFF;" version="1.1" viewBox="0 0 684 489" width="684px" zoomAndPan="magnify"><defs/><g><text fill="#000000" font-family="sans-serif" font-size="14" font-weight="bold" lengthAdjust="spacing" textLength="249" x="219" y="27.6738">System Sequence Diagram for US28</text><rect fill="#FFFFFF" height="273.2344" style="stroke:#181818;stroke-width:1.0;" width="10" x="57" y="127.2813"/><rect fill="#FFFFFF" height="52.0469" style="stroke:#181818;stroke-width:1.0;" width="10" x="524" y="147.8047"/><rect fill="#FFFFFF" height="28.5234" style="stroke:#181818;stroke-width:1.0;" width="10" x="524" y="228.375"/><rect fill="#FFFFFF" height="106.0938" style="stroke:#181818;stroke-width:1.0;" width="10" x="524" y="285.4219"/><rect fill="none" height="172.1406" style="stroke:#000000;stroke-width:1.5;" width="668" x="10" y="162.8047"/><line style="stroke:#181818;stroke-width:0.5;stroke-dasharray:5.0,5.0;" x1="62" x2="62" y1="117.2813" y2="409.5156"/><line style="stroke:#181818;stroke-width:0.5;stroke-dasharray:5.0,5.0;" x1="529" x2="529" y1="117.2813" y2="409.5156"/><text fill="#000000" font-family="sans-serif" font-size="14" lengthAdjust="spacing" textLength="78" x="20" y="114.3145">Collaborator</text><ellipse cx="62" cy="50.1406" fill="#E3E3E3" rx="8" ry="8" style="stroke:#181818;stroke-width:0.5;"/><path d="M62,58.1406 L62,85.1406 M49,66.1406 L75,66.1406 M62,85.1406 L49,100.1406 M62,85.1406 L75,100.1406 " fill="none" style="stroke:#181818;stroke-width:0.5;"/><text fill="#000000" font-family="sans-serif" font-size="14" lengthAdjust="spacing" textLength="78" x="20" y="421.1895">Collaborator</text><ellipse cx="62" cy="432.6563" fill="#E3E3E3" rx="8" ry="8" style="stroke:#181818;stroke-width:0.5;"/><path d="M62,440.6563 L62,467.6563 M49,448.6563 L75,448.6563 M62,467.6563 L49,482.6563 M62,467.6563 L75,482.6563 " fill="none" style="stroke:#181818;stroke-width:0.5;"/><rect fill="#E3E3E3" height="29.6406" rx="2.5" ry="2.5" style="stroke:#181818;stroke-width:0.5;" width="64" x="497" y="86.6406"/><text fill="#000000" font-family="sans-serif" font-size="14" lengthAdjust="spacing" textLength="50" x="504" y="106.3145">:System</text><rect fill="#E3E3E3" height="29.6406" rx="2.5" ry="2.5" style="stroke:#181818;stroke-width:0.5;" width="64" x="497" y="408.5156"/><text fill="#000000" font-family="sans-serif" font-size="14" lengthAdjust="spacing" textLength="50" x="504" y="428.1895">:System</text><rect fill="#FFFFFF" height="273.2344" style="stroke:#181818;stroke-width:1.0;" width="10" x="57" y="127.2813"/><rect fill="#FFFFFF" height="52.0469" style="stroke:#181818;stroke-width:1.0;" width="10" x="524" y="147.8047"/><rect fill="#FFFFFF" height="28.5234" style="stroke:#181818;stroke-width:1.0;" width="10" x="524" y="228.375"/><rect fill="#FFFFFF" height="106.0938" style="stroke:#181818;stroke-width:1.0;" width="10" x="524" y="285.4219"/><polygon fill="#181818" points="512,143.8047,522,147.8047,512,151.8047,516,147.8047" style="stroke:#181818;stroke-width:1.0;"/><line style="stroke:#181818;stroke-width:1.0;" x1="67" x2="518" y1="147.8047" y2="147.8047"/><text fill="#000000" font-family="sans-serif" font-size="13" font-weight="bold" lengthAdjust="spacing" textLength="7" x="74" y="143.0498">1</text><text fill="#000000" font-family="sans-serif" font-size="13" lengthAdjust="spacing" textLength="315" x="85" y="143.0498">requests to consult assigned tasks between two dates</text><path d="M10,162.8047 L83,162.8047 L83,169.3281 L73,179.3281 L10,179.3281 L10,162.8047 " fill="#EEEEEE" style="stroke:#000000;stroke-width:1.5;"/><rect fill="none" height="172.1406" style="stroke:#000000;stroke-width:1.5;" width="668" x="10" y="162.8047"/><text fill="#000000" font-family="sans-serif" font-size="13" font-weight="bold" lengthAdjust="spacing" textLength="28" x="25" y="175.5732">loop</text><text fill="#000000" font-family="sans-serif" font-size="11" font-weight="bold" lengthAdjust="spacing" textLength="179" x="98" y="174.7627">[until all information is validated]</text><polygon fill="#181818" points="78,195.8516,68,199.8516,78,203.8516,74,199.8516" style="stroke:#181818;stroke-width:1.0;"/><line style="stroke:#181818;stroke-width:1.0;stroke-dasharray:2.0,2.0;" x1="72" x2="528" y1="199.8516" y2="199.8516"/><text fill="#000000" font-family="sans-serif" font-size="13" font-weight="bold" lengthAdjust="spacing" textLength="7" x="84" y="195.0967">2</text><text fill="#000000" font-family="sans-serif" font-size="13" lengthAdjust="spacing" textLength="162" x="95" y="195.0967">asks for start and end dates</text><polygon fill="#181818" points="512,224.375,522,228.375,512,232.375,516,228.375" style="stroke:#181818;stroke-width:1.0;"/><line style="stroke:#181818;stroke-width:1.0;" x1="67" x2="518" y1="228.375" y2="228.375"/><text fill="#000000" font-family="sans-serif" font-size="13" font-weight="bold" lengthAdjust="spacing" textLength="7" x="74" y="223.6201">3</text><text fill="#000000" font-family="sans-serif" font-size="13" lengthAdjust="spacing" textLength="163" x="85" y="223.6201">provides start and end dates</text><polygon fill="#181818" points="78,252.8984,68,256.8984,78,260.8984,74,256.8984" style="stroke:#181818;stroke-width:1.0;"/><line style="stroke:#181818;stroke-width:1.0;stroke-dasharray:2.0,2.0;" x1="72" x2="528" y1="256.8984" y2="256.8984"/><text fill="#000000" font-family="sans-serif" font-size="13" font-weight="bold" lengthAdjust="spacing" textLength="7" x="84" y="252.1436">4</text><text fill="#000000" font-family="sans-serif" font-size="13" lengthAdjust="spacing" textLength="144" x="95" y="252.1436">asks to select the status</text><polygon fill="#181818" points="512,281.4219,522,285.4219,512,289.4219,516,285.4219" style="stroke:#181818;stroke-width:1.0;"/><line style="stroke:#181818;stroke-width:1.0;" x1="67" x2="518" y1="285.4219" y2="285.4219"/><text fill="#000000" font-family="sans-serif" font-size="13" font-weight="bold" lengthAdjust="spacing" textLength="7" x="74" y="280.667">5</text><text fill="#000000" font-family="sans-serif" font-size="13" lengthAdjust="spacing" textLength="82" x="85" y="280.667">selects status</text><line style="stroke:#181818;stroke-width:1.0;" x1="534" x2="576" y1="313.9453" y2="313.9453"/><line style="stroke:#181818;stroke-width:1.0;" x1="576" x2="576" y1="313.9453" y2="326.9453"/><line style="stroke:#181818;stroke-width:1.0;" x1="535" x2="576" y1="326.9453" y2="326.9453"/><polygon fill="#181818" points="545,322.9453,535,326.9453,545,330.9453,541,326.9453" style="stroke:#181818;stroke-width:1.0;"/><text fill="#000000" font-family="sans-serif" font-size="13" font-weight="bold" lengthAdjust="spacing" textLength="7" x="541" y="309.1904">6</text><text fill="#000000" font-family="sans-serif" font-size="13" lengthAdjust="spacing" textLength="114" x="552" y="309.1904">Validate information</text><polygon fill="#181818" points="78,387.5156,68,391.5156,78,395.5156,74,391.5156" style="stroke:#181818;stroke-width:1.0;"/><line style="stroke:#181818;stroke-width:1.0;stroke-dasharray:2.0,2.0;" x1="72" x2="528" y1="391.5156" y2="391.5156"/><text fill="#000000" font-family="sans-serif" font-size="13" font-weight="bold" lengthAdjust="spacing" textLength="7" x="84" y="372.2373">7</text><text fill="#000000" font-family="sans-serif" font-size="13" lengthAdjust="spacing" textLength="301" x="95" y="357.7139">Displays a list containing details about the assigned</text><text fill="#000000" font-family="sans-serif" font-size="13" lengthAdjust="spacing" textLength="260" x="99" y="372.2373">tasks, including the name, date, and location</text><text fill="#000000" font-family="sans-serif" font-size="13" lengthAdjust="spacing" textLength="418" x="99" y="386.7607">(degree of urgency, expected duration, date to do the task, green space)</text><!--SRC=[dLEzZjim3Dxz54IcA-1REXqoTEczGT1ENHYBSOJ8f2jIIVFsfQpawcklnQ463EY7_Fv0wIdoZ1adc8HbE6QP22mNwlJbPiRXX2Fjx9e8CWs6FAPrWHuno2No20TCIbrdqRnqTrMZ2NRqlH0F1CyHnrf-a0nVTX-VkWwB2PTfJzdNW_dvvhEaX7l9wBiDeCBwe7C-YqESaGqssqQmLBNbWXBFQFIwhGF_rYVm-EakR-kMNA2QWWaCmbgIEQJ6aIc0ePuKzcGN8WQx20I7rmNnXUp6daHcA6mn0QO4aTtfX1Q58IgSCSNQ6vgS6_sZAtcbR0iBOmr9pUq2SW3o_nTleD-P_srmpdAEWVIlW7_0DS1toFJ8b9BF1DYHAhwL_zFOKFGEyRQijQ1xxnQ-te9T1zvgtULxd3n7dHDU5H1ILAj3O1Yv3dGWNoM_sKjf7k-JyOtRRFHEEwGIQdMzPvoeNxBjbwIJ36q4lE4Xq9Y9G0vGykYFuje3_PZTk4zQA7afRCqrsI0BOgNfeJOog3z6-l1smZy1]--></g></svg>