<svg xmlns="http://www.w3.org/2000/svg" xmlns:xlink="http://www.w3.org/1999/xlink" contentStyleType="text/css" height="547px" preserveAspectRatio="none" style="width:438px;height:547px;background:#FFFFFF;" version="1.1" viewBox="0 0 438 547" width="438px" zoomAndPan="magnify"><title>System Sequence Diagram (SSD) - US370 Analyse a Proposal</title><defs/><g><text fill="#000000" font-family="sans-serif" font-size="14" font-weight="bold" lengthAdjust="spacing" textLength="410.0469" x="10" y="30.1074">System Sequence Diagram (SSD) - US370 Analyse a Proposal</text><rect fill="#FFFFFF" height="321.9102" style="stroke:#181818;stroke-width:1.0;" width="10" x="90.6157" y="133.2422"/><rect fill="#FFFFFF" height="31.291" style="stroke:#181818;stroke-width:1.0;" width="10" x="333.4346" y="156.5332"/><rect fill="#FFFFFF" height="31.291" style="stroke:#181818;stroke-width:1.0;" width="10" x="333.4346" y="219.1152"/><rect fill="#FFFFFF" height="33.291" style="stroke:#181818;stroke-width:1.0;" width="10" x="333.4346" y="307.9883"/><rect fill="#FFFFFF" height="33.291" style="stroke:#181818;stroke-width:1.0;" width="10" x="333.4346" y="398.8613"/><rect fill="none" height="181.7461" style="stroke:#000000;stroke-width:1.5;" width="346.498" x="42.2744" y="265.4063"/><rect fill="none" height="83.873" style="stroke:#000000;stroke-width:1.5;" width="326.498" x="52.2744" y="356.2793"/><line style="stroke:#181818;stroke-width:0.5;stroke-dasharray:5.0,5.0;" x1="95.2744" x2="95.2744" y1="123.2422" y2="464.1523"/><line style="stroke:#181818;stroke-width:0.5;stroke-dasharray:5.0,5.0;" x1="338.0967" x2="338.0967" y1="123.2422" y2="464.1523"/><text fill="#000000" font-family="sans-serif" font-size="14" lengthAdjust="spacing" textLength="60.6826" x="62.2744" y="119.7285">Customer</text><ellipse cx="95.6157" cy="53.1211" fill="#E2E2F0" rx="8" ry="8" style="stroke:#181818;stroke-width:0.5;"/><path d="M95.6157,61.1211 L95.6157,88.1211 M82.6157,69.1211 L108.6157,69.1211 M95.6157,88.1211 L82.6157,103.1211 M95.6157,88.1211 L108.6157,103.1211 " fill="none" style="stroke:#181818;stroke-width:0.5;"/><text fill="#000000" font-family="sans-serif" font-size="14" lengthAdjust="spacing" textLength="60.6826" x="62.2744" y="478.2598">Customer</text><ellipse cx="95.6157" cy="490.2734" fill="#E2E2F0" rx="8" ry="8" style="stroke:#181818;stroke-width:0.5;"/><path d="M95.6157,498.2734 L95.6157,525.2734 M82.6157,506.2734 L108.6157,506.2734 M95.6157,525.2734 L82.6157,540.2734 M95.6157,525.2734 L108.6157,540.2734 " fill="none" style="stroke:#181818;stroke-width:0.5;"/><rect fill="#E2E2F0" height="32.6211" rx="2.5" ry="2.5" style="stroke:#181818;stroke-width:0.5;" width="60.6758" x="308.0967" y="89.6211"/><text fill="#000000" font-family="sans-serif" font-size="14" lengthAdjust="spacing" textLength="46.6758" x="315.0967" y="111.7285">System</text><rect fill="#E2E2F0" height="32.6211" rx="2.5" ry="2.5" style="stroke:#181818;stroke-width:0.5;" width="60.6758" x="308.0967" y="463.1523"/><text fill="#000000" font-family="sans-serif" font-size="14" lengthAdjust="spacing" textLength="46.6758" x="315.0967" y="485.2598">System</text><rect fill="#FFFFFF" height="321.9102" style="stroke:#181818;stroke-width:1.0;" width="10" x="90.6157" y="133.2422"/><rect fill="#FFFFFF" height="31.291" style="stroke:#181818;stroke-width:1.0;" width="10" x="333.4346" y="156.5332"/><rect fill="#FFFFFF" height="31.291" style="stroke:#181818;stroke-width:1.0;" width="10" x="333.4346" y="219.1152"/><rect fill="#FFFFFF" height="33.291" style="stroke:#181818;stroke-width:1.0;" width="10" x="333.4346" y="307.9883"/><rect fill="#FFFFFF" height="33.291" style="stroke:#181818;stroke-width:1.0;" width="10" x="333.4346" y="398.8613"/><polygon fill="#181818" points="321.4346,152.5332,331.4346,156.5332,321.4346,160.5332,325.4346,156.5332" style="stroke:#181818;stroke-width:1.0;"/><line style="stroke:#181818;stroke-width:1.0;stroke-dasharray:2.0,2.0;" x1="100.6157" x2="327.4346" y1="156.5332" y2="156.5332"/><text fill="#000000" font-family="sans-serif" font-size="13" lengthAdjust="spacing" textLength="161.8779" x="107.6157" y="151.2705">I want to analyse a proposal</text><polygon fill="#181818" points="111.6157,183.8242,101.6157,187.8242,111.6157,191.8242,107.6157,187.8242" style="stroke:#181818;stroke-width:1.0;"/><line style="stroke:#181818;stroke-width:1.0;stroke-dasharray:2.0,2.0;" x1="105.6157" x2="337.4346" y1="187.8242" y2="187.8242"/><text fill="#000000" font-family="sans-serif" font-size="13" lengthAdjust="spacing" textLength="140.8862" x="117.6157" y="182.5615">Prompt for Access Code</text><polygon fill="#181818" points="321.4346,215.1152,331.4346,219.1152,321.4346,223.1152,325.4346,219.1152" style="stroke:#181818;stroke-width:1.0;"/><line style="stroke:#181818;stroke-width:1.0;stroke-dasharray:2.0,2.0;" x1="100.6157" x2="327.4346" y1="219.1152" y2="219.1152"/><text fill="#000000" font-family="sans-serif" font-size="13" lengthAdjust="spacing" textLength="111.2744" x="107.6157" y="213.8525">Enter Access Code</text><polygon fill="#181818" points="111.6157,246.4063,101.6157,250.4063,111.6157,254.4063,107.6157,250.4063" style="stroke:#181818;stroke-width:1.0;"/><line style="stroke:#181818;stroke-width:1.0;stroke-dasharray:2.0,2.0;" x1="105.6157" x2="337.4346" y1="250.4063" y2="250.4063"/><text fill="#000000" font-family="sans-serif" font-size="13" lengthAdjust="spacing" textLength="208.8188" x="117.6157" y="245.1436">Downloading proposal from server...</text><path d="M42.2744,265.4063 L102.4453,265.4063 L102.4453,274.6973 L92.4453,284.6973 L42.2744,284.6973 L42.2744,265.4063 " fill="#EEEEEE" style="stroke:#000000;stroke-width:1.5;"/><rect fill="none" height="181.7461" style="stroke:#000000;stroke-width:1.5;" width="346.498" x="42.2744" y="265.4063"/><text fill="#000000" font-family="sans-serif" font-size="13" font-weight="bold" lengthAdjust="spacing" textLength="15.1709" x="57.2744" y="280.4346">alt</text><text fill="#000000" font-family="sans-serif" font-size="11" font-weight="bold" lengthAdjust="spacing" textLength="119.8237" x="117.4453" y="279.2764">[if server returns error]</text><polygon fill="#181818" points="111.6157,303.9883,101.6157,307.9883,111.6157,311.9883,107.6157,307.9883" style="stroke:#181818;stroke-width:1.0;"/><line style="stroke:#181818;stroke-width:1.0;stroke-dasharray:2.0,2.0;" x1="105.6157" x2="332.4346" y1="307.9883" y2="307.9883"/><text fill="#000000" font-family="sans-serif" font-size="13" lengthAdjust="spacing" textLength="119.939" x="117.6157" y="302.7256">Show error message</text><line style="stroke:#000000;stroke-width:1.0;stroke-dasharray:2.0,2.0;" x1="42.2744" x2="388.7725" y1="316.9883" y2="316.9883"/><polygon fill="#181818" points="111.6157,337.2793,101.6157,341.2793,111.6157,345.2793,107.6157,341.2793" style="stroke:#181818;stroke-width:1.0;"/><line style="stroke:#181818;stroke-width:1.0;stroke-dasharray:2.0,2.0;" x1="105.6157" x2="337.4346" y1="341.2793" y2="341.2793"/><text fill="#000000" font-family="sans-serif" font-size="13" lengthAdjust="spacing" textLength="198.7197" x="117.6157" y="336.0166">Show download success message</text><path d="M52.2744,356.2793 L112.4453,356.2793 L112.4453,365.5703 L102.4453,375.5703 L52.2744,375.5703 L52.2744,356.2793 " fill="#EEEEEE" style="stroke:#000000;stroke-width:1.5;"/><rect fill="none" height="83.873" style="stroke:#000000;stroke-width:1.5;" width="326.498" x="52.2744" y="356.2793"/><text fill="#000000" font-family="sans-serif" font-size="13" font-weight="bold" lengthAdjust="spacing" textLength="15.1709" x="67.2744" y="371.3076">alt</text><text fill="#000000" font-family="sans-serif" font-size="11" font-weight="bold" lengthAdjust="spacing" textLength="107.5562" x="127.4453" y="370.1494">[Desktop supported]</text><polygon fill="#181818" points="111.6157,394.8613,101.6157,398.8613,111.6157,402.8613,107.6157,398.8613" style="stroke:#181818;stroke-width:1.0;"/><line style="stroke:#181818;stroke-width:1.0;stroke-dasharray:2.0,2.0;" x1="105.6157" x2="332.4346" y1="398.8613" y2="398.8613"/><text fill="#000000" font-family="sans-serif" font-size="13" lengthAdjust="spacing" textLength="187.1733" x="117.6157" y="393.5986">Open file with default application</text><line style="stroke:#000000;stroke-width:1.0;stroke-dasharray:2.0,2.0;" x1="52.2744" x2="378.7725" y1="407.8613" y2="407.8613"/><polygon fill="#181818" points="111.6157,428.1523,101.6157,432.1523,111.6157,436.1523,107.6157,432.1523" style="stroke:#181818;stroke-width:1.0;"/><line style="stroke:#181818;stroke-width:1.0;stroke-dasharray:2.0,2.0;" x1="105.6157" x2="337.4346" y1="432.1523" y2="432.1523"/><text fill="#000000" font-family="sans-serif" font-size="13" lengthAdjust="spacing" textLength="147.418" x="117.6157" y="426.8896">Show manual file location</text><!--SRC=[bPB1IiGm48RlVOevwg55y23iGLYs7Zmf51zWIAVTO9g9a-cMVNjJjgrekwANaC3yt_yb18somA6FoXr95b3K6XlGArJdgDHbcLfrD9sWee-Ul24eBRQ27TnKLNaBERnLzmztiFVepf40uLKuS4INeL5xGgMlada3UVuuStVm3CFOgWouGC8ACabDgH6mq7PZPnSKcdIZlJ4K8noufgocd_5jWoUlz3tvjzgI1-yOQ-lRnHYQv0AHv4HI5CM60pe5sqmZ8AIz-0Wamf9TAQgEF5mce4kEsAuDoKNwBLrFhX3xoprdqBPWIV5TEQJf45YKwcjgBu4yD3PzbC7g4Mfgi4zv3C5PWshP_rkrGz-F3pb27K-GjIRv99MMJm00]--></g></svg>