<?xml version="1.0" encoding="us-ascii" standalone="no"?><svg xmlns="http://www.w3.org/2000/svg" xmlns:xlink="http://www.w3.org/1999/xlink" contentStyleType="text/css" height="1830px" preserveAspectRatio="none" style="width:1201px;height:1830px;background:#FFFFFF;" version="1.1" viewBox="0 0 1201 1830" width="1201px" zoomAndPan="magnify"><defs/><g><!--cluster actors--><g id="cluster_actors"><rect fill="none" height="475" rx="2.5" ry="2.5" style="stroke:#008000;stroke-width:1.0;" width="315" x="7" y="577"/><text fill="#000000" font-family="sans-serif" font-size="14" font-weight="bold" lengthAdjust="spacing" textLength="99" x="115" y="594.1074">System Actors</text></g><!--cluster usecases--><g id="cluster_usecases"><rect fill="none" height="1817" rx="2.5" ry="2.5" style="stroke:#008000;stroke-width:1.0;" width="845" x="350" y="7"/><text fill="#000000" font-family="sans-serif" font-size="14" font-weight="bold" lengthAdjust="spacing" textLength="74" x="735.5" y="24.1074">Use Cases</text></g><!--entity Employee2--><g id="elem_Employee2"><ellipse cx="164.5" cy="623" fill="#F1F1F1" rx="8" ry="8" style="stroke:#181818;stroke-width:0.5;"/><path d="M164.5,631 L164.5,658 M151.5,639 L177.5,639 M164.5,658 L151.5,673 M164.5,658 L177.5,673 " fill="none" style="stroke:#181818;stroke-width:0.5;"/><text fill="#000000" font-family="sans-serif" font-size="14" lengthAdjust="spacing" textLength="176" x="76.5" y="689.6074">Human Resources Manager</text></g><!--entity Employee--><g id="elem_Employee"><ellipse cx="164.5" cy="737" fill="#F1F1F1" rx="8" ry="8" style="stroke:#181818;stroke-width:0.5;"/><path d="M164.5,745 L164.5,772 M151.5,753 L177.5,753 M164.5,772 L151.5,787 M164.5,772 L177.5,787 " fill="none" style="stroke:#181818;stroke-width:0.5;"/><text fill="#000000" font-family="sans-serif" font-size="14" lengthAdjust="spacing" textLength="92" x="118.5" y="803.6074">Fleet Manager</text></g><!--entity Employee3--><g id="elem_Employee3"><ellipse cx="164.5" cy="851" fill="#F1F1F1" rx="8" ry="8" style="stroke:#181818;stroke-width:0.5;"/><path d="M164.5,859 L164.5,886 M151.5,867 L177.5,867 M164.5,886 L151.5,901 M164.5,886 L177.5,901 " fill="none" style="stroke:#181818;stroke-width:0.5;"/><text fill="#000000" font-family="sans-serif" font-size="14" lengthAdjust="spacing" textLength="144" x="92.5" y="917.6074">Green Space Manager</text></g><!--entity Employee4--><g id="elem_Employee4"><ellipse cx="164.5" cy="965" fill="#F1F1F1" rx="8" ry="8" style="stroke:#181818;stroke-width:0.5;"/><path d="M164.5,973 L164.5,1000 M151.5,981 L177.5,981 M164.5,1000 L151.5,1015 M164.5,1000 L177.5,1015 " fill="none" style="stroke:#181818;stroke-width:0.5;"/><text fill="#000000" font-family="sans-serif" font-size="14" lengthAdjust="spacing" textLength="283" x="23" y="1031.6074">Software Quality Assessment Team Manager</text></g><g id="elem_UC1"><ellipse cx="772.7193" cy="89.0439" fill="#F1F1F1" rx="213.2193" ry="45.0439" style="stroke:#181818;stroke-width:0.5;"/><text fill="#000000" font-family="sans-serif" font-size="14" lengthAdjust="spacing" textLength="398" x="573.7193" y="92.8407">UC01 - Registers skills that may be appointed to a collaborator.</text></g><g id="elem_UC2"><ellipse cx="772.388" cy="189.8776" fill="#F1F1F1" rx="92.388" ry="20.8776" style="stroke:#181818;stroke-width:0.5;"/><text fill="#000000" font-family="sans-serif" font-size="14" lengthAdjust="spacing" textLength="140" x="699.388" y="194.6813">UC02 - Register a job.</text></g><g id="elem_UC3"><ellipse cx="772.4459" cy="298.1892" fill="#F1F1F1" rx="248.9459" ry="52.1892" style="stroke:#181818;stroke-width:0.5;"/><text fill="#000000" font-family="sans-serif" font-size="14" lengthAdjust="spacing" textLength="471" x="536.9459" y="301.9861">UC03 - Registers a collaborator with a job and fundamental characteristics.</text></g><g id="elem_UC4"><ellipse cx="772.4792" cy="422.0958" fill="#F1F1F1" rx="173.4792" ry="37.0958" style="stroke:#181818;stroke-width:0.5;"/><text fill="#000000" font-family="sans-serif" font-size="14" lengthAdjust="spacing" textLength="316" x="614.4792" y="425.8927">UC04 - Assign one or more skills to a collaborator.</text></g><g id="elem_UC5"><ellipse cx="772.7154" cy="529.9431" fill="#F1F1F1" rx="167.7154" ry="35.9431" style="stroke:#181818;stroke-width:0.5;"/><text fill="#000000" font-family="sans-serif" font-size="14" lengthAdjust="spacing" textLength="304" x="620.7154" y="533.74">UC05 - Generate a team proposal automatically.</text></g><g id="elem_UC6"><ellipse cx="772.744" cy="624.1488" fill="#F1F1F1" rx="101.244" ry="22.6488" style="stroke:#181818;stroke-width:0.5;"/><text fill="#000000" font-family="sans-serif" font-size="14" lengthAdjust="spacing" textLength="161" x="691.4994" y="628.2223">UC06 - Register a vehicle</text></g><g id="elem_UC7"><ellipse cx="772.603" cy="716.2206" fill="#F1F1F1" rx="159.103" ry="34.2206" style="stroke:#181818;stroke-width:0.5;"/><text fill="#000000" font-family="sans-serif" font-size="14" lengthAdjust="spacing" textLength="286" x="629.603" y="720.0175">UC07 - I wish to register a vehicle&#8217;s check-up.</text></g><g id="elem_UC8"><ellipse cx="772.4255" cy="819.9851" fill="#F1F1F1" rx="162.9255" ry="34.9851" style="stroke:#181818;stroke-width:0.5;"/><text fill="#000000" font-family="sans-serif" font-size="14" lengthAdjust="spacing" textLength="290" x="625.4255" y="823.782">UC08 - List the vehicles needing the check-up</text></g><g id="elem_UC9"><ellipse cx="772.4985" cy="948.0997" fill="#F1F1F1" rx="275.9985" ry="57.5997" style="stroke:#181818;stroke-width:0.5;"/><text fill="#000000" font-family="sans-serif" font-size="14" lengthAdjust="spacing" textLength="526" x="509.4985" y="951.8966">UC09 - Know the exact costs referring to water consumption of specific green space</text></g><g id="elem_UC10"><ellipse cx="772.4935" cy="1087.8987" fill="#F1F1F1" rx="222.4935" ry="46.8987" style="stroke:#181818;stroke-width:0.5;"/><text fill="#000000" font-family="sans-serif" font-size="14" lengthAdjust="spacing" textLength="413" x="563.9935" y="1091.6956">UC10 - Know which piece(s) of equipment is/are used in each day</text></g><g id="elem_UC11"><ellipse cx="772.5279" cy="1217.1056" fill="#F1F1F1" rx="221.0279" ry="46.6056" style="stroke:#181818;stroke-width:0.5;"/><text fill="#000000" font-family="sans-serif" font-size="14" lengthAdjust="spacing" textLength="414" x="565.5279" y="1220.9025">UC11 - Collect data from the user portal about the use of the park</text></g><g id="elem_UC12"><ellipse cx="772.4839" cy="1356.7968" fill="#F1F1F1" rx="276.9839" ry="57.7968" style="stroke:#181818;stroke-width:0.5;"/><text fill="#000000" font-family="sans-serif" font-size="14" lengthAdjust="spacing" textLength="528" x="508.4839" y="1360.5936">UC12 - import a .csv file containing lines with Water Point X, Water Point Y, Distance</text></g><g id="elem_UC13"><ellipse cx="772.6931" cy="1534.2386" fill="#F1F1F1" rx="406.6931" ry="83.7386" style="stroke:#181818;stroke-width:0.5;"/><text fill="#000000" font-family="sans-serif" font-size="14" lengthAdjust="spacing" textLength="790" x="377.6931" y="1538.0355">UC13 - apply an algorithm that returns the routes to be opened and pipes needed to be laid with a minimum accumulated cost</text></g><g id="elem_UC14"><ellipse cx="772.4132" cy="1730.1826" fill="#F1F1F1" rx="376.4132" ry="77.6826" style="stroke:#181818;stroke-width:0.5;"/><text fill="#000000" font-family="sans-serif" font-size="14" lengthAdjust="spacing" textLength="729" x="407.9132" y="1733.9795">UC14 - run tests for inputs of variable size, to observe the asymptotic behavior of the execution time of the algorithm</text></g><!--link Employee2 to UC1--><g id="link_Employee2_UC1"><path d="M166.37,614.31 C170.81,517.92 196.55,270.64 342,151 C404.69,99.43 484.7115,80.6619 563.3015,75.7819 " fill="none" id="Employee2-to-UC1" style="stroke:#181818;stroke-width:1.0;"/><polygon fill="#181818" points="569.29,75.41,560.0594,71.9755,564.2996,75.7199,560.5552,79.9601,569.29,75.41" style="stroke:#181818;stroke-width:1.0;"/></g><!--link Employee2 to UC2--><g id="link_Employee2_UC2"><path d="M168.72,614.39 C178.07,527.91 213.41,322.38 342,228 C448.36,149.94 605.9258,160.3993 697.4658,175.0893 " fill="none" id="Employee2-to-UC2" style="stroke:#181818;stroke-width:1.0;"/><polygon fill="#181818" points="703.39,176.04,695.1375,170.6645,698.4532,175.2478,693.8699,178.5634,703.39,176.04" style="stroke:#181818;stroke-width:1.0;"/></g><!--link Employee2 to UC3--><g id="link_Employee2_UC3"><path d="M177.76,614.41 C199.65,550.91 251.8,427.31 342,367 C395.36,331.32 454.7171,312.6885 518.1171,302.4285 " fill="none" id="Employee2-to-UC3" style="stroke:#181818;stroke-width:1.0;"/><polygon fill="#181818" points="524.04,301.47,514.5166,298.9591,519.1042,302.2688,515.7946,306.8564,524.04,301.47" style="stroke:#181818;stroke-width:1.0;"/></g><!--link Employee2 to UC4--><g id="link_Employee2_UC4"><path d="M192.41,614.15 C223.21,572.09 277.77,507.61 342,476 C421.23,437.01 512.2185,422.7488 593.9685,418.3988 " fill="none" id="Employee2-to-UC4" style="stroke:#181818;stroke-width:1.0;"/><polygon fill="#181818" points="599.96,418.08,590.7602,414.5639,594.9671,418.3457,591.1853,422.5526,599.96,418.08" style="stroke:#181818;stroke-width:1.0;"/></g><!--link Employee2 to UC5--><g id="link_Employee2_UC5"><path d="M252.48,614.46 C280.56,603.07 312.15,591.66 342,584 C429.9,561.43 524.4568,548.7066 606.1568,540.9566 " fill="none" id="Employee2-to-UC5" style="stroke:#181818;stroke-width:1.0;"/><polygon fill="#181818" points="612.13,540.39,602.7925,537.2578,607.1523,540.8622,603.548,545.222,612.13,540.39" style="stroke:#181818;stroke-width:1.0;"/></g><!--link Employee to UC6--><g id="link_Employee_UC6"><path d="M210.6,764 C247.77,758.3 299.21,744.48 330,711 C344.59,695.13 325.61,678 342,664 C442.08,578.52 601.2717,590.5148 694.9417,607.0848 " fill="none" id="Employee-to-UC6" style="stroke:#181818;stroke-width:1.0;"/><polygon fill="#181818" points="700.85,608.13,692.6844,602.6234,695.9264,607.259,691.2908,610.5011,700.85,608.13" style="stroke:#181818;stroke-width:1.0;"/></g><!--link Employee to UC7--><g id="link_Employee_UC7"><path d="M210.55,764.13 C296.96,756.72 483.392,740.723 618.672,729.113 " fill="none" id="Employee-to-UC7" style="stroke:#181818;stroke-width:1.0;"/><polygon fill="#181818" points="624.65,728.6,615.3409,725.3842,619.6683,729.0275,616.025,733.3549,624.65,728.6" style="stroke:#181818;stroke-width:1.0;"/></g><!--link Employee to UC8--><g id="link_Employee_UC8"><path d="M210.55,771.87 C296.14,779.21 479.732,794.967 614.792,806.557 " fill="none" id="Employee-to-UC8" style="stroke:#181818;stroke-width:1.0;"/><polygon fill="#181818" points="620.77,807.07,612.145,802.3152,615.7883,806.6425,611.461,810.2859,620.77,807.07" style="stroke:#181818;stroke-width:1.0;"/></g><!--link Employee3 to UC9--><g id="link_Employee3_UC9"><path d="M236.8,889.77 C308.45,897.57 417.0053,909.39 521.7153,920.8 " fill="none" id="Employee3-to-UC9" style="stroke:#181818;stroke-width:1.0;"/><polygon fill="#181818" points="527.68,921.45,519.1663,916.4986,522.7094,920.9084,518.2997,924.4515,527.68,921.45" style="stroke:#181818;stroke-width:1.0;"/></g><!--link Employee3 to UC10--><g id="link_Employee3_UC10"><path d="M236.75,889.66 C269.96,896.98 307.12,911.25 330,939 C353.99,968.1 315.44,996.22 342,1023 C400.02,1081.5 480.7481,1101.5991 561.1081,1105.7691 " fill="none" id="Employee3-to-UC10" style="stroke:#181818;stroke-width:1.0;"/><polygon fill="#181818" points="567.1,1106.08,558.3194,1101.619,562.1067,1105.8209,557.9048,1109.6082,567.1,1106.08" style="stroke:#181818;stroke-width:1.0;"/></g><!--link Employee3 to UC11--><g id="link_Employee3_UC11"><path d="M236.52,888.57 C270.32,895.6 308.05,909.93 330,939 C358.57,976.83 310.09,1116.94 342,1152 C399.81,1215.51 485.1727,1235.2014 568.8027,1237.6914 " fill="none" id="Employee3-to-UC11" style="stroke:#181818;stroke-width:1.0;"/><polygon fill="#181818" points="574.8,1237.87,565.923,1233.6039,569.8022,1237.7212,565.6849,1241.6004,574.8,1237.87" style="stroke:#181818;stroke-width:1.0;"/></g><!--link Employee3 to UC12--><g id="link_Employee3_UC12"><path d="M236.78,888.38 C270.65,895.36 308.36,909.7 330,939 C352.59,969.59 317.06,1252.3 342,1281 C381.55,1326.51 432.1646,1349.8537 491.2446,1362.0837 " fill="none" id="Employee3-to-UC12" style="stroke:#181818;stroke-width:1.0;"/><polygon fill="#181818" points="497.12,1363.3,489.1177,1357.5587,492.2238,1362.2865,487.496,1365.3926,497.12,1363.3" style="stroke:#181818;stroke-width:1.0;"/></g><!--link Employee3 to UC13--><g id="link_Employee3_UC13"><path d="M236.92,888.28 C270.81,895.24 308.52,909.59 330,939 C362.32,983.25 307.5,1389.43 342,1432 C362.87,1457.75 383.6429,1474.9021 412.5729,1490.2921 " fill="none" id="Employee3-to-UC13" style="stroke:#181818;stroke-width:1.0;"/><polygon fill="#181818" points="417.87,1493.11,411.803,1485.3517,413.4557,1490.7617,408.0457,1492.4145,417.87,1493.11" style="stroke:#181818;stroke-width:1.0;"/></g><!--link Employee4 to UC14--><g id="link_Employee4_UC14"><path d="M171.05,1035.55 C189.51,1161.56 252.8,1550.31 342,1635 C369.21,1660.83 396.25,1677.946 431.14,1692.456 " fill="none" id="Employee4-to-UC14" style="stroke:#181818;stroke-width:1.0;"/><polygon fill="#181818" points="436.68,1694.76,429.906,1687.6107,432.0633,1692.84,426.834,1694.9974,436.68,1694.76" style="stroke:#181818;stroke-width:1.0;"/></g><!--SRC=[VLNBRjn64BppAnew9O1aQnzwNG8uIln04i2sR3WvzWwRknCDP-YPuQutXW7_Xd_FN-AQMP9Osenq8hdTrTNLtQLmhst3dcjgMDtpMkxYtWXvKP7jsaXHX25Y-FYn8Fpzwdmf_jOPvsdjHMpngIYCL96Y8w_NcqYbJZdQsQ8OakdaRX-YrFH4HUV32N4WpezqmCqlTFAyhTdIQmckzKe2_SKMz7oE_xrkZDkBp8yJdXgHE1bs7FKiCQKxT2kJiOlZu3jNnHrxeLSj6nttz2G42Q4M6-cDG98fX2LqEEhsRH2wPQJbe3Q8IYyVYw9_HiZj-OpEqEjQGna80SsD2HGt7AdcFQs4k6cSjb7Af2wJSiRmoda6pqSP-UtjB5CVjA6pir_ort6b-L4b0FthLdt-V39__bt-OiHqp8HsEcuEeCIsfAgr9IUrs93QO8aKaf2fLUYB7lIUAhn0uL7b9IfZ07fjoLaXbAiTPjEBzN-oB8j9-ELtVLq0_PbOGIxKffZ6stZNk03ot4PNCtYpCViU-69IhuiYVpw6lXnBlfMDLaOwbCiHIWToUG0PeLm1vGKK3fjyO3_WVVty9K1bKVTdRTDpl1etty5VTV0Z_6lW_mbCh9tqc86iIAdjEd_imQa3love2lrw2lq6w7zOjyj0yW6RW6656D189Txd4evsd5fIpeQsRf9naAieDA9qfTN1PV2As-qOt0pRSynZqH6vAOQVZwZCpdigE_IueKQBaf_2pwcKl6zrayzRXyVfy95NahOaZCWIfzZVslceye-r4J1PF1qwFDF0880NcIhlwYmAeZmrpgTZmGwtiV-QYAL7kF1zNtxsOEEpsNJnTFkwJZMmDezKs5AbuL7GExAsQGP6Mmmzd_6xF8kNoNNexzFHwp-dz1isXUqmYDdyOKBpQKB9JE1iPW-x83Phvr6vFXYVbzXw6tBh7d98ld5OeMjmfcKsc4OttOuUZ16_6jPbxqCrcghR6dQksherdEmpRLrFUl4mwSKqwUH3lhMmYBI_5Nm8_o5RF69EM_QQLz0qwF_aD55oAynrAxaD3dkijOEFWEc6jngvtN3bWwWsRtpKzJ3oGPAUyNAIyR9d35Fxz0q0]--></g></svg>