<svg xmlns="http://www.w3.org/2000/svg" xmlns:xlink="http://www.w3.org/1999/xlink" contentStyleType="text/css" height="666px" preserveAspectRatio="none" style="width:936px;height:666px;background:#FFFFFF;" version="1.1" viewBox="0 0 936 666" width="936.6px" zoomAndPan="magnify"><title>Sequence Diagram - US345 Drone Plugin</title><defs/><g><text fill="#000000" font-family="sans-serif" font-size="8.4" font-weight="bold" lengthAdjust="spacing" textLength="163.3775" x="387.4384" y="18.0645">Sequence Diagram - US345 Drone Plugin</text><rect fill="none" height="428.4023" style="stroke:#000000;stroke-width:0.8999999999999999;" width="926.8544" x="6" y="178.0184"/><rect fill="none" height="248.2523" style="stroke:#000000;stroke-width:0.8999999999999999;" width="914.8544" x="12" y="353.9684"/><rect fill="none" height="49.1238" style="stroke:#000000;stroke-width:0.8999999999999999;" width="312.8974" x="18" y="462.6199"/><rect fill="none" height="59.1023" style="stroke:#000000;stroke-width:0.8999999999999999;" width="272.85" x="241.8454" y="520.1438"/><line style="stroke:#181818;stroke-width:0.3;stroke-dasharray:5.0,5.0;" x1="46.2" x2="46.2" y1="73.9453" y2="616.6207"/><line style="stroke:#181818;stroke-width:0.3;stroke-dasharray:5.0,5.0;" x1="195.4474" x2="195.4474" y1="73.9453" y2="616.6207"/><line style="stroke:#181818;stroke-width:0.3;stroke-dasharray:5.0,5.0;" x1="286.2454" x2="286.2454" y1="73.9453" y2="616.6207"/><line style="stroke:#181818;stroke-width:0.3;stroke-dasharray:5.0,5.0;" x1="401.0974" x2="401.0974" y1="73.9453" y2="616.6207"/><line style="stroke:#181818;stroke-width:0.3;stroke-dasharray:5.0,5.0;" x1="493.0169" x2="493.0169" y1="73.9453" y2="616.6207"/><line style="stroke:#181818;stroke-width:0.3;stroke-dasharray:5.0,5.0;" x1="561.4954" x2="561.4954" y1="73.9453" y2="616.6207"/><line style="stroke:#181818;stroke-width:0.3;stroke-dasharray:5.0,5.0;" x1="725.7062" x2="725.7062" y1="73.9453" y2="616.6207"/><line style="stroke:#181818;stroke-width:0.3;stroke-dasharray:5.0,5.0;" x1="843.9349" x2="843.9349" y1="73.9453" y2="616.6207"/><text fill="#000000" font-family="sans-serif" font-size="8.4" lengthAdjust="spacing" textLength="41.5529" x="24" y="71.8371">DroneTech</text><ellipse cx="46.5765" cy="31.8727" fill="#E2E2F0" rx="4.8" ry="4.8" style="stroke:#181818;stroke-width:0.3;"/><path d="M46.5765,36.6727 L46.5765,52.8727 M38.7765,41.4727 L54.3765,41.4727 M46.5765,52.8727 L38.7765,61.8727 M46.5765,52.8727 L54.3765,61.8727 " fill="none" style="stroke:#181818;stroke-width:0.3;"/><text fill="#000000" font-family="sans-serif" font-size="8.4" lengthAdjust="spacing" textLength="41.5529" x="24" y="625.0852">DroneTech</text><ellipse cx="46.5765" cy="632.2934" fill="#E2E2F0" rx="4.8" ry="4.8" style="stroke:#181818;stroke-width:0.3;"/><path d="M46.5765,637.0934 L46.5765,653.2934 M38.7765,641.8934 L54.3765,641.8934 M46.5765,653.2934 L38.7765,662.2934 M46.5765,653.2934 L54.3765,662.2934 " fill="none" style="stroke:#181818;stroke-width:0.3;"/><rect fill="#E2E2F0" height="19.5727" rx="1.5" ry="1.5" style="stroke:#181818;stroke-width:0.3;" width="91.998" x="149.8474" y="53.7727"/><text fill="#000000" font-family="sans-serif" font-size="8.4" lengthAdjust="spacing" textLength="83.598" x="154.0474" y="67.0371">DroneLanguageAction</text><rect fill="#E2E2F0" height="19.5727" rx="1.5" ry="1.5" style="stroke:#181818;stroke-width:0.3;" width="91.998" x="149.8474" y="616.0207"/><text fill="#000000" font-family="sans-serif" font-size="8.4" lengthAdjust="spacing" textLength="83.598" x="154.0474" y="629.2852">DroneLanguageAction</text><rect fill="#E2E2F0" height="19.5727" rx="1.5" ry="1.5" style="stroke:#181818;stroke-width:0.3;" width="77.052" x="247.8454" y="53.7727"/><text fill="#000000" font-family="sans-serif" font-size="8.4" lengthAdjust="spacing" textLength="68.652" x="252.0454" y="67.0371">DroneLanguageUI</text><rect fill="#E2E2F0" height="19.5727" rx="1.5" ry="1.5" style="stroke:#181818;stroke-width:0.3;" width="77.052" x="247.8454" y="616.0207"/><text fill="#000000" font-family="sans-serif" font-size="8.4" lengthAdjust="spacing" textLength="68.652" x="252.0454" y="629.2852">DroneLanguageUI</text><rect fill="#E2E2F0" height="19.5727" rx="1.5" ry="1.5" style="stroke:#181818;stroke-width:0.3;" width="140.5195" x="330.8974" y="53.7727"/><text fill="#000000" font-family="sans-serif" font-size="8.4" lengthAdjust="spacing" textLength="132.1195" x="335.0974" y="67.0371">ListActiveDronesByModelController</text><rect fill="#E2E2F0" height="19.5727" rx="1.5" ry="1.5" style="stroke:#181818;stroke-width:0.3;" width="140.5195" x="330.8974" y="616.0207"/><text fill="#000000" font-family="sans-serif" font-size="8.4" lengthAdjust="spacing" textLength="132.1195" x="335.0974" y="629.2852">ListActiveDronesByModelController</text><rect fill="#E2E2F0" height="19.5727" rx="1.5" ry="1.5" style="stroke:#181818;stroke-width:0.3;" width="31.2785" x="477.4169" y="53.7727"/><text fill="#000000" font-family="sans-serif" font-size="8.4" lengthAdjust="spacing" textLength="22.8785" x="481.6169" y="67.0371">Drone</text><rect fill="#E2E2F0" height="19.5727" rx="1.5" ry="1.5" style="stroke:#181818;stroke-width:0.3;" width="31.2785" x="477.4169" y="616.0207"/><text fill="#000000" font-family="sans-serif" font-size="8.4" lengthAdjust="spacing" textLength="22.8785" x="481.6169" y="629.2852">Drone</text><rect fill="#E2E2F0" height="19.5727" rx="1.5" ry="1.5" style="stroke:#181818;stroke-width:0.3;" width="93.8396" x="514.6954" y="53.7727"/><text fill="#000000" font-family="sans-serif" font-size="8.4" lengthAdjust="spacing" textLength="85.4396" x="518.8954" y="67.0371">DroneInventoryService</text><rect fill="#E2E2F0" height="19.5727" rx="1.5" ry="1.5" style="stroke:#181818;stroke-width:0.3;" width="93.8396" x="514.6954" y="616.0207"/><text fill="#000000" font-family="sans-serif" font-size="8.4" lengthAdjust="spacing" textLength="85.4396" x="518.8954" y="629.2852">DroneInventoryService</text><rect fill="#E2E2F0" height="19.5727" rx="1.5" ry="1.5" style="stroke:#181818;stroke-width:0.3;" width="71.4287" x="690.3062" y="53.7727"/><text fill="#000000" font-family="sans-serif" font-size="8.4" lengthAdjust="spacing" textLength="63.0287" x="694.5062" y="67.0371">DroneRepository</text><rect fill="#E2E2F0" height="19.5727" rx="1.5" ry="1.5" style="stroke:#181818;stroke-width:0.3;" width="71.4287" x="690.3062" y="616.0207"/><text fill="#000000" font-family="sans-serif" font-size="8.4" lengthAdjust="spacing" textLength="63.0287" x="694.5062" y="629.2852">DroneRepository</text><rect fill="#E2E2F0" height="19.5727" rx="1.5" ry="1.5" style="stroke:#181818;stroke-width:0.3;" width="153.1195" x="767.7349" y="53.7727"/><text fill="#000000" font-family="sans-serif" font-size="8.4" lengthAdjust="spacing" textLength="144.7195" x="771.9349" y="67.0371">DroneRemoveFromInventoryController</text><rect fill="#E2E2F0" height="19.5727" rx="1.5" ry="1.5" style="stroke:#181818;stroke-width:0.3;" width="153.1195" x="767.7349" y="616.0207"/><text fill="#000000" font-family="sans-serif" font-size="8.4" lengthAdjust="spacing" textLength="144.7195" x="771.9349" y="629.2852">DroneRemoveFromInventoryController</text><polygon fill="#181818" points="188.6464,91.5199,194.6464,93.9199,188.6464,96.3199,191.0464,93.9199" style="stroke:#181818;stroke-width:0.6;"/><line style="stroke:#181818;stroke-width:0.6;stroke-dasharray:2.0,2.0;" x1="46.5765" x2="192.2464" y1="93.9199" y2="93.9199"/><text fill="#000000" font-family="sans-serif" font-size="7.8" lengthAdjust="spacing" textLength="134.8699" x="50.7765" y="90.7623">Requests to add a language to a drone</text><polygon fill="#181818" points="279.1714,110.2945,285.1714,112.6945,279.1714,115.0945,281.5714,112.6945" style="stroke:#181818;stroke-width:0.6;"/><line style="stroke:#181818;stroke-width:0.6;stroke-dasharray:2.0,2.0;" x1="195.8464" x2="282.7714" y1="112.6945" y2="112.6945"/><text fill="#000000" font-family="sans-serif" font-size="7.8" lengthAdjust="spacing" textLength="33.3823" x="200.0464" y="109.5369">doShow()</text><polygon fill="#181818" points="393.9571,129.0691,399.9571,131.4691,393.9571,133.8691,396.3571,131.4691" style="stroke:#181818;stroke-width:0.6;"/><line style="stroke:#181818;stroke-width:0.6;stroke-dasharray:2.0,2.0;" x1="286.3714" x2="397.5571" y1="131.4691" y2="131.4691"/><text fill="#000000" font-family="sans-serif" font-size="7.8" lengthAdjust="spacing" textLength="51.5836" x="290.5714" y="128.3115">findAllDrones()</text><polygon fill="#181818" points="554.4152,147.8438,560.4152,150.2438,554.4152,152.6437,556.8152,150.2438" style="stroke:#181818;stroke-width:0.6;"/><line style="stroke:#181818;stroke-width:0.6;stroke-dasharray:2.0,2.0;" x1="401.1571" x2="558.0152" y1="150.2438" y2="150.2438"/><text fill="#000000" font-family="sans-serif" font-size="7.8" lengthAdjust="spacing" textLength="51.5836" x="405.3571" y="147.0861">findAllDrones()</text><polygon fill="#181818" points="718.8205,166.6184,724.8205,169.0184,718.8205,171.4184,721.2205,169.0184" style="stroke:#181818;stroke-width:0.6;"/><line style="stroke:#181818;stroke-width:0.6;stroke-dasharray:2.0,2.0;" x1="561.6152" x2="722.4205" y1="169.0184" y2="169.0184"/><text fill="#000000" font-family="sans-serif" font-size="7.8" lengthAdjust="spacing" textLength="26.4393" x="565.8152" y="165.8607">findAll()</text><path d="M6,178.0184 L42.1025,178.0184 L42.1025,183.593 L36.1025,189.593 L6,189.593 L6,178.0184 " fill="#EEEEEE" style="stroke:#000000;stroke-width:0.8999999999999999;"/><rect fill="none" height="428.4023" style="stroke:#000000;stroke-width:0.8999999999999999;" width="926.8544" x="6" y="178.0184"/><text fill="#000000" font-family="sans-serif" font-size="7.8" font-weight="bold" lengthAdjust="spacing" textLength="9.1025" x="15" y="187.0354">alt</text><text fill="#000000" font-family="sans-serif" font-size="6.6" font-weight="bold" lengthAdjust="spacing" textLength="52.7839" x="51.1025" y="186.3404">[no drone found]</text><polygon fill="#181818" points="292.9714,201.1676,286.9714,203.5676,292.9714,205.9676,290.5714,203.5676" style="stroke:#181818;stroke-width:0.6;"/><line style="stroke:#181818;stroke-width:0.6;stroke-dasharray:2.0,2.0;" x1="289.3714" x2="725.4205" y1="203.5676" y2="203.5676"/><text fill="#000000" font-family="sans-serif" font-size="7.8" lengthAdjust="spacing" textLength="52.4786" x="296.5714" y="200.41">no drone found</text><polygon fill="#181818" points="53.1765,219.9422,47.1765,222.3422,53.1765,224.7422,50.7765,222.3422" style="stroke:#181818;stroke-width:0.6;"/><line style="stroke:#181818;stroke-width:0.6;stroke-dasharray:2.0,2.0;" x1="49.5765" x2="285.7714" y1="222.3422" y2="222.3422"/><text fill="#000000" font-family="sans-serif" font-size="7.8" lengthAdjust="spacing" textLength="122.6139" x="56.7765" y="219.1846">Message "No drone found" and exit</text><line style="stroke:#000000;stroke-width:0.6;stroke-dasharray:2.0,2.0;" x1="6" x2="932.8544" y1="227.7422" y2="227.7422"/><text fill="#000000" font-family="sans-serif" font-size="6.6" font-weight="bold" lengthAdjust="spacing" textLength="54.6434" x="9" y="234.8643">[all drones listed]</text><polygon fill="#181818" points="292.9714,248.6953,286.9714,251.0953,292.9714,253.4953,290.5714,251.0953" style="stroke:#181818;stroke-width:0.6;"/><line style="stroke:#181818;stroke-width:0.6;stroke-dasharray:2.0,2.0;" x1="289.3714" x2="400.5571" y1="251.0953" y2="251.0953"/><text fill="#000000" font-family="sans-serif" font-size="7.8" lengthAdjust="spacing" textLength="44.2254" x="296.5714" y="247.9377">drones listed</text><polygon fill="#181818" points="53.1765,267.4699,47.1765,269.8699,53.1765,272.2699,50.7765,269.8699" style="stroke:#181818;stroke-width:0.6;"/><line style="stroke:#181818;stroke-width:0.6;stroke-dasharray:2.0,2.0;" x1="49.5765" x2="285.7714" y1="269.8699" y2="269.8699"/><text fill="#000000" font-family="sans-serif" font-size="7.8" lengthAdjust="spacing" textLength="212.0396" x="56.7765" y="266.7123">Requests the name of the drone to associate a language with</text><polygon fill="#181818" points="279.1714,286.2445,285.1714,288.6445,279.1714,291.0445,281.5714,288.6445" style="stroke:#181818;stroke-width:0.6;"/><line style="stroke:#181818;stroke-width:0.6;stroke-dasharray:2.0,2.0;" x1="46.5765" x2="282.7714" y1="288.6445" y2="288.6445"/><text fill="#000000" font-family="sans-serif" font-size="7.8" lengthAdjust="spacing" textLength="101.0306" x="50.7765" y="285.4869">Enters the name of the drone</text><polygon fill="#181818" points="837.0946,305.0191,843.0946,307.4191,837.0946,309.8191,839.4946,307.4191" style="stroke:#181818;stroke-width:0.6;"/><line style="stroke:#181818;stroke-width:0.6;stroke-dasharray:2.0,2.0;" x1="286.3714" x2="840.6946" y1="307.4191" y2="307.4191"/><text fill="#000000" font-family="sans-serif" font-size="7.8" lengthAdjust="spacing" textLength="109.6799" x="290.5714" y="304.2615">findDroneByName(droneName)</text><polygon fill="#181818" points="568.2152,323.7938,562.2152,326.1937,568.2152,328.5938,565.8152,326.1937" style="stroke:#181818;stroke-width:0.6;"/><line style="stroke:#181818;stroke-width:0.6;stroke-dasharray:2.0,2.0;" x1="564.6152" x2="843.6946" y1="326.1937" y2="326.1937"/><text fill="#000000" font-family="sans-serif" font-size="7.8" lengthAdjust="spacing" textLength="109.6799" x="571.8152" y="323.0361">findDroneByName(droneName)</text><polygon fill="#181818" points="718.8205,342.5684,724.8205,344.9684,718.8205,347.3684,721.2205,344.9684" style="stroke:#181818;stroke-width:0.6;"/><line style="stroke:#181818;stroke-width:0.6;stroke-dasharray:2.0,2.0;" x1="561.6152" x2="722.4205" y1="344.9684" y2="344.9684"/><text fill="#000000" font-family="sans-serif" font-size="7.8" lengthAdjust="spacing" textLength="150.0053" x="565.8152" y="341.8107">findByDroneNameIgnoreCase(droneName)</text><path d="M12,353.9684 L48.1025,353.9684 L48.1025,359.543 L42.1025,365.543 L12,365.543 L12,353.9684 " fill="#EEEEEE" style="stroke:#000000;stroke-width:0.8999999999999999;"/><rect fill="none" height="248.2523" style="stroke:#000000;stroke-width:0.8999999999999999;" width="914.8544" x="12" y="353.9684"/><text fill="#000000" font-family="sans-serif" font-size="7.8" font-weight="bold" lengthAdjust="spacing" textLength="9.1025" x="21" y="362.9854">alt</text><text fill="#000000" font-family="sans-serif" font-size="6.6" font-weight="bold" lengthAdjust="spacing" textLength="53.9086" x="57.1025" y="362.2904">[error with name]</text><polygon fill="#181818" points="292.9714,377.1176,286.9714,379.5176,292.9714,381.9176,290.5714,379.5176" style="stroke:#181818;stroke-width:0.6;"/><line style="stroke:#181818;stroke-width:0.6;stroke-dasharray:2.0,2.0;" x1="289.3714" x2="843.6946" y1="379.5176" y2="379.5176"/><text fill="#000000" font-family="sans-serif" font-size="7.8" lengthAdjust="spacing" textLength="105.3724" x="296.5714" y="376.36">no drone found with that name</text><polygon fill="#181818" points="53.1765,395.8922,47.1765,398.2922,53.1765,400.6922,50.7765,398.2922" style="stroke:#181818;stroke-width:0.6;"/><line style="stroke:#181818;stroke-width:0.6;stroke-dasharray:2.0,2.0;" x1="49.5765" x2="285.7714" y1="398.2922" y2="398.2922"/><text fill="#000000" font-family="sans-serif" font-size="7.8" lengthAdjust="spacing" textLength="175.5076" x="56.7765" y="395.1346">Message "No drone found with that name" and exit</text><line style="stroke:#000000;stroke-width:0.6;stroke-dasharray:2.0,2.0;" x1="12" x2="926.8544" y1="403.6922" y2="403.6922"/><text fill="#000000" font-family="sans-serif" font-size="6.6" font-weight="bold" lengthAdjust="spacing" textLength="108.9226" x="15" y="410.8143">[success in the name of the drone]</text><polygon fill="#181818" points="292.9714,424.6453,286.9714,427.0453,292.9714,429.4453,290.5714,427.0453" style="stroke:#181818;stroke-width:0.6;"/><line style="stroke:#181818;stroke-width:0.6;stroke-dasharray:2.0,2.0;" x1="289.3714" x2="843.6946" y1="427.0453" y2="427.0453"/><text fill="#000000" font-family="sans-serif" font-size="7.8" lengthAdjust="spacing" textLength="130.0673" x="296.5714" y="423.8877">success (drone found with that name)</text><line style="stroke:#181818;stroke-width:0.6;stroke-dasharray:2.0,2.0;" x1="286.3714" x2="311.5714" y1="445.8199" y2="445.8199"/><line style="stroke:#181818;stroke-width:0.6;stroke-dasharray:2.0,2.0;" x1="311.5714" x2="311.5714" y1="445.8199" y2="453.6199"/><line style="stroke:#181818;stroke-width:0.6;stroke-dasharray:2.0,2.0;" x1="286.9714" x2="311.5714" y1="453.6199" y2="453.6199"/><polygon fill="#181818" points="292.9714,451.2199,286.9714,453.6199,292.9714,456.0199,290.5714,453.6199" style="stroke:#181818;stroke-width:0.6;"/><text fill="#000000" font-family="sans-serif" font-size="7.8" lengthAdjust="spacing" textLength="93.2191" x="290.5714" y="442.6623">selectLanguageForDrone()</text><path d="M18,462.6199 L61.4607,462.6199 L61.4607,468.1945 L55.4607,474.1945 L18,474.1945 L18,462.6199 " fill="#EEEEEE" style="stroke:#000000;stroke-width:0.8999999999999999;"/><rect fill="none" height="49.1238" style="stroke:#000000;stroke-width:0.8999999999999999;" width="312.8974" x="18" y="462.6199"/><text fill="#000000" font-family="sans-serif" font-size="7.8" font-weight="bold" lengthAdjust="spacing" textLength="16.4607" x="27" y="471.6369">loop</text><text fill="#000000" font-family="sans-serif" font-size="6.6" font-weight="bold" lengthAdjust="spacing" textLength="123.9595" x="70.4607" y="470.942">[while the language selection is invalid]</text><polygon fill="#181818" points="53.1765,485.7691,47.1765,488.1691,53.1765,490.5691,50.7765,488.1691" style="stroke:#181818;stroke-width:0.6;"/><line style="stroke:#181818;stroke-width:0.6;stroke-dasharray:2.0,2.0;" x1="49.5765" x2="285.7714" y1="488.1691" y2="488.1691"/><text fill="#000000" font-family="sans-serif" font-size="7.8" lengthAdjust="spacing" textLength="106.2407" x="56.7765" y="485.0115">ask to select a drone language</text><polygon fill="#181818" points="279.1714,504.5438,285.1714,506.9437,279.1714,509.3438,281.5714,506.9437" style="stroke:#181818;stroke-width:0.6;"/><line style="stroke:#181818;stroke-width:0.6;stroke-dasharray:2.0,2.0;" x1="46.5765" x2="282.7714" y1="506.9437" y2="506.9437"/><text fill="#000000" font-family="sans-serif" font-size="7.8" lengthAdjust="spacing" textLength="89.7686" x="50.7765" y="503.7861">select the drone language</text><path d="M241.8454,520.1438 L277.9479,520.1438 L277.9479,525.7184 L271.9479,531.7184 L241.8454,531.7184 L241.8454,520.1438 " fill="#EEEEEE" style="stroke:#000000;stroke-width:0.8999999999999999;"/><rect fill="none" height="59.1023" style="stroke:#000000;stroke-width:0.8999999999999999;" width="272.85" x="241.8454" y="520.1438"/><text fill="#000000" font-family="sans-serif" font-size="7.8" font-weight="bold" lengthAdjust="spacing" textLength="9.1025" x="250.8454" y="529.1607">alt</text><text fill="#000000" font-family="sans-serif" font-size="6.6" font-weight="bold" lengthAdjust="spacing" textLength="54.2953" x="286.9479" y="528.4658">[language "One"]</text><polygon fill="#181818" points="485.8562,543.293,491.8562,545.693,485.8562,548.093,488.2562,545.693" style="stroke:#181818;stroke-width:0.6;"/><line style="stroke:#181818;stroke-width:0.6;stroke-dasharray:2.0,2.0;" x1="286.3714" x2="489.4562" y1="545.693" y2="545.693"/><text fill="#000000" font-family="sans-serif" font-size="7.8" lengthAdjust="spacing" textLength="126.1978" x="290.5714" y="542.5354">droneOnePlugin(pathOneLanguage)</text><line style="stroke:#000000;stroke-width:0.6;stroke-dasharray:2.0,2.0;" x1="241.8454" x2="514.6954" y1="551.093" y2="551.093"/><text fill="#000000" font-family="sans-serif" font-size="6.6" font-weight="bold" lengthAdjust="spacing" textLength="54.6563" x="244.8454" y="558.215">[language "Two"]</text><polygon fill="#181818" points="485.8562,572.0461,491.8562,574.4461,485.8562,576.8461,488.2562,574.4461" style="stroke:#181818;stroke-width:0.6;"/><line style="stroke:#181818;stroke-width:0.6;stroke-dasharray:2.0,2.0;" x1="286.3714" x2="489.4562" y1="574.4461" y2="574.4461"/><text fill="#000000" font-family="sans-serif" font-size="7.8" lengthAdjust="spacing" textLength="126.1825" x="290.5714" y="571.2885">droneTwoPlugin(pathTwoLanguage)</text><polygon fill="#181818" points="53.1765,595.0207,47.1765,597.4207,53.1765,599.8207,50.7765,597.4207" style="stroke:#181818;stroke-width:0.6;"/><line style="stroke:#181818;stroke-width:0.6;stroke-dasharray:2.0,2.0;" x1="49.5765" x2="285.7714" y1="597.4207" y2="597.4207"/><text fill="#000000" font-family="sans-serif" font-size="7.8" lengthAdjust="spacing" textLength="93.6343" x="56.7765" y="594.2631">Displays success message</text><!--SRC=[fPNBZk8m44Nt_eeIArYmcfaDYv6QPbf2wfUW-G0hAOWrZYjjEp3y_VW12O4y6ZKIKc9N7LrVNpjMM8cmniyILOAm47odUGvJsAn__Fm52qqAuLsMEw4Ouuab7SS-CCbOmRKLYIYuid7qcQjToNVua5X1gdj-ispCFGjZVSiUGvMP7ryeHVb8ocgI4lKjwNPagVQedBxZ6lLU92qLAop825_26AjM0TFfxpRrC8ELjyLO0vQ0fobmaAUIC09fKDBMUyFSB6UGqZgZmtZ2hcP2zQ07JizMgFH1obZWECCzbOvhTrfexNKLeNQlxdLTN5fG5As0BPKgPU1-roqjXZXCL-ELD_LUpU05ZV4RC7fjz8w0gnJmdx0CfK7WKiPf0zAvX15-Xs4DdRUa8PbrT384nNC4seRdgDd7nnXA1BTu6Qk3i5blDeESFygYxa0prYbjXJdjyKbJNktoJRn2uVpuwh3ZmFDFanEq7p2KjLxq7RcR7nVdxkLEaSP7Rff4dqdKsjrLti_WqMKelxI8dfn6gisuZUZlvFQATH7Zc6DJ9edh1A6wjljR2plZnzsI9ltBQ-9GOcBFGq-aGucx9G934XLmo8Jxu7ZzLUXZbxysXL_edaiH3zbNVENchpzDaN6-aojs4zDpf4xzzGbj4D1TJk719wlIFNfJE1eMUhu_N7Nya8uBRhEtkZWw7BQxPdySw0wsgxvWkxUQpRpu8HSNmXII7qqLY3p6DJJx_ty0]--></g></svg>