<svg xmlns="http://www.w3.org/2000/svg" xmlns:xlink="http://www.w3.org/1999/xlink" contentStyleType="text/css" height="689px" preserveAspectRatio="none" style="width:502px;height:689px;background:#FFFFFF;" version="1.1" viewBox="0 0 502 689" width="502px" zoomAndPan="magnify"><title>System Sequence Diagram (SSD) - US345 Drone Plugin</title><defs/><g><text fill="#000000" font-family="sans-serif" font-size="14" font-weight="bold" lengthAdjust="spacing" textLength="367.9922" x="68.2622" y="30.1074">System Sequence Diagram (SSD) - US345 Drone Plugin</text><rect fill="none" height="386.0938" style="stroke:#000000;stroke-width:1.5;" width="485.5166" x="10" y="202.8242"/><rect fill="none" height="242.2988" style="stroke:#000000;stroke-width:1.5;" width="465.5166" x="20" y="339.6191"/><rect fill="none" height="98.5039" style="stroke:#000000;stroke-width:1.5;" width="445.5166" x="30" y="476.4141"/><line style="stroke:#181818;stroke-width:0.5;stroke-dasharray:5.0,5.0;" x1="57" x2="57" y1="123.2422" y2="605.918"/><line style="stroke:#181818;stroke-width:0.5;stroke-dasharray:5.0,5.0;" x1="434.8408" x2="434.8408" y1="123.2422" y2="605.918"/><text fill="#000000" font-family="sans-serif" font-size="14" lengthAdjust="spacing" textLength="29.5586" x="40" y="119.7285">User</text><ellipse cx="57.7793" cy="53.1211" fill="#E2E2F0" rx="8" ry="8" style="stroke:#181818;stroke-width:0.5;"/><path d="M57.7793,61.1211 L57.7793,88.1211 M44.7793,69.1211 L70.7793,69.1211 M57.7793,88.1211 L44.7793,103.1211 M57.7793,88.1211 L70.7793,103.1211 " fill="none" style="stroke:#181818;stroke-width:0.5;"/><text fill="#000000" font-family="sans-serif" font-size="14" lengthAdjust="spacing" textLength="29.5586" x="40" y="620.0254">User</text><ellipse cx="57.7793" cy="632.0391" fill="#E2E2F0" rx="8" ry="8" style="stroke:#181818;stroke-width:0.5;"/><path d="M57.7793,640.0391 L57.7793,667.0391 M44.7793,648.0391 L70.7793,648.0391 M57.7793,667.0391 L44.7793,682.0391 M57.7793,667.0391 L70.7793,682.0391 " fill="none" style="stroke:#181818;stroke-width:0.5;"/><rect fill="#E2E2F0" height="32.6211" rx="2.5" ry="2.5" style="stroke:#181818;stroke-width:0.5;" width="60.6758" x="404.8408" y="89.6211"/><text fill="#000000" font-family="sans-serif" font-size="14" lengthAdjust="spacing" textLength="46.6758" x="411.8408" y="111.7285">System</text><rect fill="#E2E2F0" height="32.6211" rx="2.5" ry="2.5" style="stroke:#181818;stroke-width:0.5;" width="60.6758" x="404.8408" y="604.918"/><text fill="#000000" font-family="sans-serif" font-size="14" lengthAdjust="spacing" textLength="46.6758" x="411.8408" y="627.0254">System</text><polygon fill="#181818" points="423.1787,152.5332,433.1787,156.5332,423.1787,160.5332,427.1787,156.5332" style="stroke:#181818;stroke-width:1.0;"/><line style="stroke:#181818;stroke-width:1.0;stroke-dasharray:2.0,2.0;" x1="57.7793" x2="429.1787" y1="156.5332" y2="156.5332"/><text fill="#000000" font-family="sans-serif" font-size="13" lengthAdjust="spacing" textLength="224.7832" x="64.7793" y="151.2705">Requests to add a language to a drone</text><polygon fill="#181818" points="68.7793,183.8242,58.7793,187.8242,68.7793,191.8242,64.7793,187.8242" style="stroke:#181818;stroke-width:1.0;"/><line style="stroke:#181818;stroke-width:1.0;stroke-dasharray:2.0,2.0;" x1="62.7793" x2="434.1787" y1="187.8242" y2="187.8242"/><text fill="#000000" font-family="sans-serif" font-size="13" lengthAdjust="spacing" textLength="91.7744" x="74.7793" y="182.5615">Lists the drones</text><path d="M10,202.8242 L70.1709,202.8242 L70.1709,212.1152 L60.1709,222.1152 L10,222.1152 L10,202.8242 " fill="#EEEEEE" style="stroke:#000000;stroke-width:1.5;"/><rect fill="none" height="386.0938" style="stroke:#000000;stroke-width:1.5;" width="485.5166" x="10" y="202.8242"/><text fill="#000000" font-family="sans-serif" font-size="13" font-weight="bold" lengthAdjust="spacing" textLength="15.1709" x="25" y="217.8525">alt</text><text fill="#000000" font-family="sans-serif" font-size="11" font-weight="bold" lengthAdjust="spacing" textLength="87.9731" x="85.1709" y="216.6943">[no drone found]</text><polygon fill="#181818" points="68.7793,241.4063,58.7793,245.4063,68.7793,249.4063,64.7793,245.4063" style="stroke:#181818;stroke-width:1.0;"/><line style="stroke:#181818;stroke-width:1.0;stroke-dasharray:2.0,2.0;" x1="62.7793" x2="434.1787" y1="245.4063" y2="245.4063"/><text fill="#000000" font-family="sans-serif" font-size="13" lengthAdjust="spacing" textLength="136.5444" x="74.7793" y="240.1436">Displays error message</text><line style="stroke:#000000;stroke-width:1.0;stroke-dasharray:2.0,2.0;" x1="10" x2="495.5166" y1="254.4063" y2="254.4063"/><text fill="#000000" font-family="sans-serif" font-size="11" font-weight="bold" lengthAdjust="spacing" textLength="71.4785" x="15" y="266.2764">[drone found]</text><polygon fill="#181818" points="68.7793,289.3281,58.7793,293.3281,68.7793,297.3281,64.7793,293.3281" style="stroke:#181818;stroke-width:1.0;"/><line style="stroke:#181818;stroke-width:1.0;stroke-dasharray:2.0,2.0;" x1="62.7793" x2="434.1787" y1="293.3281" y2="293.3281"/><text fill="#000000" font-family="sans-serif" font-size="13" lengthAdjust="spacing" textLength="353.3994" x="74.7793" y="288.0654">Requests the name of the drone to associate a language with</text><polygon fill="#181818" points="423.1787,320.6191,433.1787,324.6191,423.1787,328.6191,427.1787,324.6191" style="stroke:#181818;stroke-width:1.0;"/><line style="stroke:#181818;stroke-width:1.0;stroke-dasharray:2.0,2.0;" x1="57.7793" x2="429.1787" y1="324.6191" y2="324.6191"/><text fill="#000000" font-family="sans-serif" font-size="13" lengthAdjust="spacing" textLength="168.3843" x="64.7793" y="319.3564">Enters the name of the drone</text><path d="M20,339.6191 L80.1709,339.6191 L80.1709,348.9102 L70.1709,358.9102 L20,358.9102 L20,339.6191 " fill="#EEEEEE" style="stroke:#000000;stroke-width:1.5;"/><rect fill="none" height="242.2988" style="stroke:#000000;stroke-width:1.5;" width="465.5166" x="20" y="339.6191"/><text fill="#000000" font-family="sans-serif" font-size="13" font-weight="bold" lengthAdjust="spacing" textLength="15.1709" x="35" y="354.6475">alt</text><text fill="#000000" font-family="sans-serif" font-size="11" font-weight="bold" lengthAdjust="spacing" textLength="123.46" x="95.1709" y="353.4893">[error with drone name]</text><polygon fill="#181818" points="68.7793,378.2012,58.7793,382.2012,68.7793,386.2012,64.7793,382.2012" style="stroke:#181818;stroke-width:1.0;"/><line style="stroke:#181818;stroke-width:1.0;stroke-dasharray:2.0,2.0;" x1="62.7793" x2="434.1787" y1="382.2012" y2="382.2012"/><text fill="#000000" font-family="sans-serif" font-size="13" lengthAdjust="spacing" textLength="136.5444" x="74.7793" y="376.9385">Displays error message</text><line style="stroke:#000000;stroke-width:1.0;stroke-dasharray:2.0,2.0;" x1="20" x2="485.5166" y1="391.2012" y2="391.2012"/><text fill="#000000" font-family="sans-serif" font-size="11" font-weight="bold" lengthAdjust="spacing" textLength="141.2061" x="25" y="403.0713">[success with drone name]</text><polygon fill="#181818" points="68.7793,426.123,58.7793,430.123,68.7793,434.123,64.7793,430.123" style="stroke:#181818;stroke-width:1.0;"/><line style="stroke:#181818;stroke-width:1.0;stroke-dasharray:2.0,2.0;" x1="62.7793" x2="434.1787" y1="430.123" y2="430.123"/><text fill="#000000" font-family="sans-serif" font-size="13" lengthAdjust="spacing" textLength="178.5088" x="74.7793" y="424.8604">Ask to select a drone language</text><polygon fill="#181818" points="423.1787,457.4141,433.1787,461.4141,423.1787,465.4141,427.1787,461.4141" style="stroke:#181818;stroke-width:1.0;"/><line style="stroke:#181818;stroke-width:1.0;stroke-dasharray:2.0,2.0;" x1="57.7793" x2="429.1787" y1="461.4141" y2="461.4141"/><text fill="#000000" font-family="sans-serif" font-size="13" lengthAdjust="spacing" textLength="151.7852" x="64.7793" y="456.1514">Select the drone language</text><path d="M30,476.4141 L90.1709,476.4141 L90.1709,485.7051 L80.1709,495.7051 L30,495.7051 L30,476.4141 " fill="#EEEEEE" style="stroke:#000000;stroke-width:1.5;"/><rect fill="none" height="98.5039" style="stroke:#000000;stroke-width:1.5;" width="445.5166" x="30" y="476.4141"/><text fill="#000000" font-family="sans-serif" font-size="13" font-weight="bold" lengthAdjust="spacing" textLength="15.1709" x="45" y="491.4424">alt</text><text fill="#000000" font-family="sans-serif" font-size="11" font-weight="bold" lengthAdjust="spacing" textLength="143.0107" x="105.1709" y="490.2842">[error with drone language]</text><polygon fill="#181818" points="68.7793,514.9961,58.7793,518.9961,68.7793,522.9961,64.7793,518.9961" style="stroke:#181818;stroke-width:1.0;"/><line style="stroke:#181818;stroke-width:1.0;stroke-dasharray:2.0,2.0;" x1="62.7793" x2="434.1787" y1="518.9961" y2="518.9961"/><text fill="#000000" font-family="sans-serif" font-size="13" lengthAdjust="spacing" textLength="136.5444" x="74.7793" y="513.7334">Displays error message</text><line style="stroke:#000000;stroke-width:1.0;stroke-dasharray:2.0,2.0;" x1="30" x2="475.5166" y1="527.9961" y2="527.9961"/><text fill="#000000" font-family="sans-serif" font-size="11" font-weight="bold" lengthAdjust="spacing" textLength="160.7568" x="35" y="539.8662">[success with drone language]</text><polygon fill="#181818" points="68.7793,562.918,58.7793,566.918,68.7793,570.918,64.7793,566.918" style="stroke:#181818;stroke-width:1.0;"/><line style="stroke:#181818;stroke-width:1.0;stroke-dasharray:2.0,2.0;" x1="62.7793" x2="434.1787" y1="566.918" y2="566.918"/><text fill="#000000" font-family="sans-serif" font-size="13" lengthAdjust="spacing" textLength="156.0571" x="74.7793" y="561.6553">Displays success message</text><!--SRC=[hP4nJyCm48Lt_ugdJ31a0fOEI4XXOwY8-WDEpZMrSEpYkmZrtnCdQLgfWG5XAP8lVk_TVJPPZGd5JZWL847Uc2CbTTOTAIYA-YJAtNWuROqwzJmNgFcpvs0PbQCsKOUxkgxkKM9NFpm-eKenCBQ-Rrqm9gUZB9_FvWtUirrKe17KD21u2crFBOz_q6I_cUNPEKPiyEP6qu4dXHZoYX2d2llOXmO6mxgrLawEdau2JcbWxrXaQ6VO2r_RLvfUXXtw1keOSN-POHnO95f7ojSWNquFA-YlGJdza3NYJFDbzzmWo_u09RsrGtsJT9lo8X-PGjYprVFjBo0h3FMalDp1ebq5M4x_1M99-oNfR5koXeUTlsy0]--></g></svg>