<svg xmlns="http://www.w3.org/2000/svg" xmlns:xlink="http://www.w3.org/1999/xlink" contentStyleType="text/css" height="374px" preserveAspectRatio="none" style="width:460px;height:374px;background:#FFFFFF;" version="1.1" viewBox="0 0 460 374" width="460px" zoomAndPan="magnify"><defs/><g><rect fill="#FFFFFF" height="188.7461" style="stroke:#181818;stroke-width:1.0;" width="10" x="37.6274" y="93.6211"/><rect fill="#FFFFFF" height="31.291" style="stroke:#181818;stroke-width:1.0;" width="10" x="417.4487" y="116.9121"/><rect fill="#FFFFFF" height="31.291" style="stroke:#181818;stroke-width:1.0;" width="10" x="417.4487" y="179.4941"/><rect fill="#FFFFFF" height="31.291" style="stroke:#181818;stroke-width:1.0;" width="10" x="417.4487" y="242.0762"/><line style="stroke:#181818;stroke-width:0.5;stroke-dasharray:5.0,5.0;" x1="42" x2="42" y1="83.6211" y2="291.3672"/><line style="stroke:#181818;stroke-width:0.5;stroke-dasharray:5.0,5.0;" x1="422.166" x2="422.166" y1="83.6211" y2="291.3672"/><text fill="#000000" font-family="sans-serif" font-size="14" lengthAdjust="spacing" textLength="69.2549" x="5" y="80.1074">DroneTech</text><ellipse cx="42.6274" cy="13.5" fill="#E3E3E3" rx="8" ry="8" style="stroke:#181818;stroke-width:0.5;"/><path d="M42.6274,21.5 L42.6274,48.5 M29.6274,29.5 L55.6274,29.5 M42.6274,48.5 L29.6274,63.5 M42.6274,48.5 L55.6274,63.5 " fill="none" style="stroke:#181818;stroke-width:0.5;"/><text fill="#000000" font-family="sans-serif" font-size="14" lengthAdjust="spacing" textLength="69.2549" x="5" y="305.4746">DroneTech</text><ellipse cx="42.6274" cy="317.4883" fill="#E3E3E3" rx="8" ry="8" style="stroke:#181818;stroke-width:0.5;"/><path d="M42.6274,325.4883 L42.6274,352.4883 M29.6274,333.4883 L55.6274,333.4883 M42.6274,352.4883 L29.6274,367.4883 M42.6274,352.4883 L55.6274,367.4883 " fill="none" style="stroke:#181818;stroke-width:0.5;"/><rect fill="#E3E3E3" height="32.6211" rx="2.5" ry="2.5" style="stroke:#181818;stroke-width:0.5;" width="64.5654" x="390.166" y="50"/><text fill="#000000" font-family="sans-serif" font-size="14" lengthAdjust="spacing" textLength="50.5654" x="397.166" y="72.1074">:System</text><rect fill="#E3E3E3" height="32.6211" rx="2.5" ry="2.5" style="stroke:#181818;stroke-width:0.5;" width="64.5654" x="390.166" y="290.3672"/><text fill="#000000" font-family="sans-serif" font-size="14" lengthAdjust="spacing" textLength="50.5654" x="397.166" y="312.4746">:System</text><rect fill="#FFFFFF" height="188.7461" style="stroke:#181818;stroke-width:1.0;" width="10" x="37.6274" y="93.6211"/><rect fill="#FFFFFF" height="31.291" style="stroke:#181818;stroke-width:1.0;" width="10" x="417.4487" y="116.9121"/><rect fill="#FFFFFF" height="31.291" style="stroke:#181818;stroke-width:1.0;" width="10" x="417.4487" y="179.4941"/><rect fill="#FFFFFF" height="31.291" style="stroke:#181818;stroke-width:1.0;" width="10" x="417.4487" y="242.0762"/><polygon fill="#181818" points="405.4487,112.9121,415.4487,116.9121,405.4487,120.9121,409.4487,116.9121" style="stroke:#181818;stroke-width:1.0;"/><line style="stroke:#181818;stroke-width:1.0;" x1="47.6274" x2="411.4487" y1="116.9121" y2="116.9121"/><text fill="#000000" font-family="sans-serif" font-size="13" font-weight="bold" lengthAdjust="spacing" textLength="7.23" x="54.6274" y="111.6494">1</text><text fill="#000000" font-family="sans-serif" font-size="13" lengthAdjust="spacing" textLength="182.8315" x="65.8574" y="111.6494">asks to edit a maintenance type</text><polygon fill="#181818" points="58.6274,144.2031,48.6274,148.2031,58.6274,152.2031,54.6274,148.2031" style="stroke:#181818;stroke-width:1.0;"/><line style="stroke:#181818;stroke-width:1.0;stroke-dasharray:2.0,2.0;" x1="52.6274" x2="421.4487" y1="148.2031" y2="148.2031"/><text fill="#000000" font-family="sans-serif" font-size="13" font-weight="bold" lengthAdjust="spacing" textLength="7.23" x="64.6274" y="142.9404">2</text><text fill="#000000" font-family="sans-serif" font-size="13" lengthAdjust="spacing" textLength="334.5913" x="75.8574" y="142.9404">Provides data and requests ID of maintenance type to edit</text><polygon fill="#181818" points="405.4487,175.4941,415.4487,179.4941,405.4487,183.4941,409.4487,179.4941" style="stroke:#181818;stroke-width:1.0;"/><line style="stroke:#181818;stroke-width:1.0;" x1="47.6274" x2="411.4487" y1="179.4941" y2="179.4941"/><text fill="#000000" font-family="sans-serif" font-size="13" font-weight="bold" lengthAdjust="spacing" textLength="7.23" x="54.6274" y="174.2314">3</text><text fill="#000000" font-family="sans-serif" font-size="13" lengthAdjust="spacing" textLength="67.1899" x="65.8574" y="174.2314">Provides ID</text><polygon fill="#181818" points="58.6274,206.7852,48.6274,210.7852,58.6274,214.7852,54.6274,210.7852" style="stroke:#181818;stroke-width:1.0;"/><line style="stroke:#181818;stroke-width:1.0;stroke-dasharray:2.0,2.0;" x1="52.6274" x2="421.4487" y1="210.7852" y2="210.7852"/><text fill="#000000" font-family="sans-serif" font-size="13" font-weight="bold" lengthAdjust="spacing" textLength="7.23" x="64.6274" y="205.5225">4</text><text fill="#000000" font-family="sans-serif" font-size="13" lengthAdjust="spacing" textLength="198.7451" x="75.8574" y="205.5225">provides data and requests edition</text><polygon fill="#181818" points="405.4487,238.0762,415.4487,242.0762,405.4487,246.0762,409.4487,242.0762" style="stroke:#181818;stroke-width:1.0;"/><line style="stroke:#181818;stroke-width:1.0;" x1="47.6274" x2="411.4487" y1="242.0762" y2="242.0762"/><text fill="#000000" font-family="sans-serif" font-size="13" font-weight="bold" lengthAdjust="spacing" textLength="7.23" x="54.6274" y="236.8135">5</text><text fill="#000000" font-family="sans-serif" font-size="13" lengthAdjust="spacing" textLength="127.1943" x="65.8574" y="236.8135">provides the new data</text><polygon fill="#181818" points="58.6274,269.3672,48.6274,273.3672,58.6274,277.3672,54.6274,273.3672" style="stroke:#181818;stroke-width:1.0;"/><line style="stroke:#181818;stroke-width:1.0;stroke-dasharray:2.0,2.0;" x1="52.6274" x2="421.4487" y1="273.3672" y2="273.3672"/><text fill="#000000" font-family="sans-serif" font-size="13" font-weight="bold" lengthAdjust="spacing" textLength="7.23" x="64.6274" y="268.1045">6</text><text fill="#000000" font-family="sans-serif" font-size="13" lengthAdjust="spacing" textLength="175.5698" x="75.8574" y="268.1045">displays (In)Success message</text><!--SRC=[dPAnRiCW48PtFyN9Kpla1J9aykAjali2LxZOoEQWt3cHtxxOIMYa9aFAW3Yu__j_438wZfZGWmySp9229z0qKoNb9A8PiQTEbuaWaL7aVhfla05jE3lkuOYJK5NXh85d_qKfhus617MJ0jCdcQ4652XLbGdgZ8l82lM-MqJ9RosNvQPt9rIwqq0UfOBTuTeB-wmR1JG0MQU0uD6n4YERVAabvcIhj11l5klc5R7Bj5_q7ZvIE3bB0XOL0Tdc1_YUILIWRI0S_rZSt2zKIm_D7eSlNctpUj3uFEWQnmN-Hw82rO60wRp1NyzcdSG95u6tbj-xsHWI0P-d_AkUfVe1]--></g></svg>