<?xml version="1.0" encoding="us-ascii" standalone="no"?><svg xmlns="http://www.w3.org/2000/svg" xmlns:xlink="http://www.w3.org/1999/xlink" contentStyleType="text/css" height="587px" preserveAspectRatio="none" style="width:605px;height:587px;background:#FFFFFF;" version="1.1" viewBox="0 0 605 587" width="605px" zoomAndPan="magnify"><defs/><g><!--class FleetManager--><g id="elem_FleetManager"><rect codeLine="9" fill="#F1F1F1" height="48" id="FleetManager" rx="2.5" ry="2.5" style="stroke:#181818;stroke-width:0.5;" width="120" x="450" y="532"/><ellipse cx="465" cy="548" fill="#ADD1B2" rx="11" ry="11" style="stroke:#181818;stroke-width:1.0;"/><path d="M467.7656,543.875 Q467.9219,543.6563 468.1094,543.5469 Q468.2969,543.4375 468.5156,543.4375 Q468.8906,543.4375 469.125,543.7031 Q469.3594,543.9531 469.3594,544.5625 L469.3594,546.0156 Q469.3594,546.625 469.125,546.8906 Q468.8906,547.1563 468.5156,547.1563 Q468.1719,547.1563 467.9688,546.9531 Q467.7656,546.7656 467.6563,546.25 Q467.6094,545.8906 467.4219,545.7031 Q467.0938,545.3281 466.4844,545.1094 Q465.875,544.8906 465.25,544.8906 Q464.4844,544.8906 463.8438,545.2188 Q463.2188,545.5469 462.7188,546.2969 Q462.2344,547.0469 462.2344,548.0781 L462.2344,549.1719 Q462.2344,550.4063 463.125,551.2344 Q464.0156,552.0469 465.6094,552.0469 Q466.5469,552.0469 467.2031,551.7969 Q467.5938,551.6406 468.0156,551.2031 Q468.2813,550.9375 468.4219,550.8594 Q468.5781,550.7813 468.7813,550.7813 Q469.1094,550.7813 469.3594,551.0469 Q469.625,551.2969 469.625,551.6406 Q469.625,551.9844 469.2813,552.3906 Q468.7813,552.9688 467.9844,553.2969 Q466.9063,553.75 465.6094,553.75 Q464.0938,553.75 462.8906,553.125 Q461.9063,552.625 461.2188,551.5625 Q460.5313,550.4844 460.5313,549.2031 L460.5313,548.0469 Q460.5313,546.7188 461.1406,545.5781 Q461.7656,544.4219 462.8594,543.8125 Q463.9531,543.1875 465.1875,543.1875 Q465.9219,543.1875 466.5625,543.3594 Q467.2188,543.5156 467.7656,543.875 Z " fill="#000000"/><text fill="#000000" font-family="sans-serif" font-size="14" lengthAdjust="spacing" textLength="88" x="479" y="553.7969">FleetManager</text><line style="stroke:#181818;stroke-width:0.5;" x1="451" x2="569" y1="564" y2="564"/><line style="stroke:#181818;stroke-width:0.5;" x1="451" x2="569" y1="572" y2="572"/></g><!--class VehicleCheckup--><g id="elem_VehicleCheckup"><rect codeLine="12" fill="#F1F1F1" height="103.8633" id="VehicleCheckup" rx="2.5" ry="2.5" style="stroke:#181818;stroke-width:0.5;" width="145" x="437.5" y="349"/><ellipse cx="457.45" cy="365" fill="#ADD1B2" rx="11" ry="11" style="stroke:#181818;stroke-width:1.0;"/><path d="M460.2156,360.875 Q460.3719,360.6563 460.5594,360.5469 Q460.7469,360.4375 460.9656,360.4375 Q461.3406,360.4375 461.575,360.7031 Q461.8094,360.9531 461.8094,361.5625 L461.8094,363.0156 Q461.8094,363.625 461.575,363.8906 Q461.3406,364.1563 460.9656,364.1563 Q460.6219,364.1563 460.4188,363.9531 Q460.2156,363.7656 460.1063,363.25 Q460.0594,362.8906 459.8719,362.7031 Q459.5438,362.3281 458.9344,362.1094 Q458.325,361.8906 457.7,361.8906 Q456.9344,361.8906 456.2938,362.2188 Q455.6688,362.5469 455.1688,363.2969 Q454.6844,364.0469 454.6844,365.0781 L454.6844,366.1719 Q454.6844,367.4063 455.575,368.2344 Q456.4656,369.0469 458.0594,369.0469 Q458.9969,369.0469 459.6531,368.7969 Q460.0438,368.6406 460.4656,368.2031 Q460.7313,367.9375 460.8719,367.8594 Q461.0281,367.7813 461.2313,367.7813 Q461.5594,367.7813 461.8094,368.0469 Q462.075,368.2969 462.075,368.6406 Q462.075,368.9844 461.7313,369.3906 Q461.2313,369.9688 460.4344,370.2969 Q459.3563,370.75 458.0594,370.75 Q456.5438,370.75 455.3406,370.125 Q454.3563,369.625 453.6688,368.5625 Q452.9813,367.4844 452.9813,366.2031 L452.9813,365.0469 Q452.9813,363.7188 453.5906,362.5781 Q454.2156,361.4219 455.3094,360.8125 Q456.4031,360.1875 457.6375,360.1875 Q458.3719,360.1875 459.0125,360.3594 Q459.6688,360.5156 460.2156,360.875 Z " fill="#000000"/><text fill="#000000" font-family="sans-serif" font-size="14" lengthAdjust="spacing" textLength="102" x="472.55" y="370.7969">VehicleCheckup</text><line style="stroke:#181818;stroke-width:0.5;" x1="438.5" x2="581.5" y1="381" y2="381"/><text fill="#000000" font-family="sans-serif" font-size="14" lengthAdjust="spacing" textLength="126" x="443.5" y="400.1074">-String plateNumber</text><text fill="#000000" font-family="sans-serif" font-size="14" lengthAdjust="spacing" textLength="74" x="443.5" y="418.7285">-String date</text><text fill="#000000" font-family="sans-serif" font-size="14" lengthAdjust="spacing" textLength="133" x="443.5" y="437.3496">-String kmAtCheckup</text><line style="stroke:#181818;stroke-width:0.5;" x1="438.5" x2="581.5" y1="444.8633" y2="444.8633"/></g><!--class MaintenenceRepository--><g id="elem_MaintenenceRepository"><rect codeLine="19" fill="#F1F1F1" height="66.6211" id="MaintenenceRepository" rx="2.5" ry="2.5" style="stroke:#181818;stroke-width:0.5;" width="391" x="11.5" y="367.5"/><ellipse cx="128.25" cy="383.5" fill="#ADD1B2" rx="11" ry="11" style="stroke:#181818;stroke-width:1.0;"/><path d="M131.0156,379.375 Q131.1719,379.1563 131.3594,379.0469 Q131.5469,378.9375 131.7656,378.9375 Q132.1406,378.9375 132.375,379.2031 Q132.6094,379.4531 132.6094,380.0625 L132.6094,381.5156 Q132.6094,382.125 132.375,382.3906 Q132.1406,382.6563 131.7656,382.6563 Q131.4219,382.6563 131.2188,382.4531 Q131.0156,382.2656 130.9063,381.75 Q130.8594,381.3906 130.6719,381.2031 Q130.3438,380.8281 129.7344,380.6094 Q129.125,380.3906 128.5,380.3906 Q127.7344,380.3906 127.0938,380.7188 Q126.4688,381.0469 125.9688,381.7969 Q125.4844,382.5469 125.4844,383.5781 L125.4844,384.6719 Q125.4844,385.9063 126.375,386.7344 Q127.2656,387.5469 128.8594,387.5469 Q129.7969,387.5469 130.4531,387.2969 Q130.8438,387.1406 131.2656,386.7031 Q131.5313,386.4375 131.6719,386.3594 Q131.8281,386.2813 132.0313,386.2813 Q132.3594,386.2813 132.6094,386.5469 Q132.875,386.7969 132.875,387.1406 Q132.875,387.4844 132.5313,387.8906 Q132.0313,388.4688 131.2344,388.7969 Q130.1563,389.25 128.8594,389.25 Q127.3438,389.25 126.1406,388.625 Q125.1563,388.125 124.4688,387.0625 Q123.7813,385.9844 123.7813,384.7031 L123.7813,383.5469 Q123.7813,382.2188 124.3906,381.0781 Q125.0156,379.9219 126.1094,379.3125 Q127.2031,378.6875 128.4375,378.6875 Q129.1719,378.6875 129.8125,378.8594 Q130.4688,379.0156 131.0156,379.375 Z " fill="#000000"/><text fill="#000000" font-family="sans-serif" font-size="14" lengthAdjust="spacing" textLength="149" x="148.75" y="389.2969">MaintenenceRepository</text><line style="stroke:#181818;stroke-width:0.5;" x1="12.5" x2="401.5" y1="399.5" y2="399.5"/><line style="stroke:#181818;stroke-width:0.5;" x1="12.5" x2="401.5" y1="407.5" y2="407.5"/><text fill="#000000" font-family="sans-serif" font-size="14" lengthAdjust="spacing" textLength="379" x="17.5" y="426.6074">+registerVehicleCheckup(plateNumber, date, kmAtCheckup)</text></g><!--class Repositories--><g id="elem_Repositories"><rect codeLine="23" fill="#F1F1F1" height="103.8633" id="Repositories" rx="2.5" ry="2.5" style="stroke:#181818;stroke-width:0.5;" width="199" x="107.5" y="215"/><ellipse cx="163.25" cy="231" fill="#ADD1B2" rx="11" ry="11" style="stroke:#181818;stroke-width:1.0;"/><path d="M166.0156,226.875 Q166.1719,226.6563 166.3594,226.5469 Q166.5469,226.4375 166.7656,226.4375 Q167.1406,226.4375 167.375,226.7031 Q167.6094,226.9531 167.6094,227.5625 L167.6094,229.0156 Q167.6094,229.625 167.375,229.8906 Q167.1406,230.1563 166.7656,230.1563 Q166.4219,230.1563 166.2188,229.9531 Q166.0156,229.7656 165.9063,229.25 Q165.8594,228.8906 165.6719,228.7031 Q165.3438,228.3281 164.7344,228.1094 Q164.125,227.8906 163.5,227.8906 Q162.7344,227.8906 162.0938,228.2188 Q161.4688,228.5469 160.9688,229.2969 Q160.4844,230.0469 160.4844,231.0781 L160.4844,232.1719 Q160.4844,233.4063 161.375,234.2344 Q162.2656,235.0469 163.8594,235.0469 Q164.7969,235.0469 165.4531,234.7969 Q165.8438,234.6406 166.2656,234.2031 Q166.5313,233.9375 166.6719,233.8594 Q166.8281,233.7813 167.0313,233.7813 Q167.3594,233.7813 167.6094,234.0469 Q167.875,234.2969 167.875,234.6406 Q167.875,234.9844 167.5313,235.3906 Q167.0313,235.9688 166.2344,236.2969 Q165.1563,236.75 163.8594,236.75 Q162.3438,236.75 161.1406,236.125 Q160.1563,235.625 159.4688,234.5625 Q158.7813,233.4844 158.7813,232.2031 L158.7813,231.0469 Q158.7813,229.7188 159.3906,228.5781 Q160.0156,227.4219 161.1094,226.8125 Q162.2031,226.1875 163.4375,226.1875 Q164.1719,226.1875 164.8125,226.3594 Q165.4688,226.5156 166.0156,226.875 Z " fill="#000000"/><text fill="#000000" font-family="sans-serif" font-size="14" lengthAdjust="spacing" textLength="79" x="183.75" y="236.7969">Repositories</text><line style="stroke:#181818;stroke-width:0.5;" x1="108.5" x2="305.5" y1="247" y2="247"/><line style="stroke:#181818;stroke-width:0.5;" x1="108.5" x2="305.5" y1="255" y2="255"/><text fill="#000000" font-family="sans-serif" font-size="14" lengthAdjust="spacing" textLength="94" x="113.5" y="274.1074">-Repositories()</text><text fill="#000000" font-family="sans-serif" font-size="14" lengthAdjust="spacing" textLength="182" x="113.5" y="292.7285">+getInstance() : Repositories</text><text fill="#000000" font-family="sans-serif" font-size="14" lengthAdjust="spacing" textLength="187" x="113.5" y="311.3496">+getMaintenenceRepository()</text></g><!--class RegisterMaintenenceController--><g id="elem_RegisterMaintenenceController"><rect codeLine="29" fill="#F1F1F1" height="178.3477" id="RegisterMaintenenceController" rx="2.5" ry="2.5" style="stroke:#181818;stroke-width:0.5;" width="378" x="220" y="7"/><ellipse cx="306.75" cy="23" fill="#ADD1B2" rx="11" ry="11" style="stroke:#181818;stroke-width:1.0;"/><path d="M309.5156,18.875 Q309.6719,18.6563 309.8594,18.5469 Q310.0469,18.4375 310.2656,18.4375 Q310.6406,18.4375 310.875,18.7031 Q311.1094,18.9531 311.1094,19.5625 L311.1094,21.0156 Q311.1094,21.625 310.875,21.8906 Q310.6406,22.1563 310.2656,22.1563 Q309.9219,22.1563 309.7188,21.9531 Q309.5156,21.7656 309.4063,21.25 Q309.3594,20.8906 309.1719,20.7031 Q308.8438,20.3281 308.2344,20.1094 Q307.625,19.8906 307,19.8906 Q306.2344,19.8906 305.5938,20.2188 Q304.9688,20.5469 304.4688,21.2969 Q303.9844,22.0469 303.9844,23.0781 L303.9844,24.1719 Q303.9844,25.4063 304.875,26.2344 Q305.7656,27.0469 307.3594,27.0469 Q308.2969,27.0469 308.9531,26.7969 Q309.3438,26.6406 309.7656,26.2031 Q310.0313,25.9375 310.1719,25.8594 Q310.3281,25.7813 310.5313,25.7813 Q310.8594,25.7813 311.1094,26.0469 Q311.375,26.2969 311.375,26.6406 Q311.375,26.9844 311.0313,27.3906 Q310.5313,27.9688 309.7344,28.2969 Q308.6563,28.75 307.3594,28.75 Q305.8438,28.75 304.6406,28.125 Q303.6563,27.625 302.9688,26.5625 Q302.2813,25.4844 302.2813,24.2031 L302.2813,23.0469 Q302.2813,21.7188 302.8906,20.5781 Q303.5156,19.4219 304.6094,18.8125 Q305.7031,18.1875 306.9375,18.1875 Q307.6719,18.1875 308.3125,18.3594 Q308.9688,18.5156 309.5156,18.875 Z " fill="#000000"/><text fill="#000000" font-family="sans-serif" font-size="14" lengthAdjust="spacing" textLength="196" x="327.25" y="28.7969">RegisterMaintenenceController</text><line style="stroke:#181818;stroke-width:0.5;" x1="221" x2="597" y1="39" y2="39"/><line style="stroke:#181818;stroke-width:0.5;" x1="221" x2="597" y1="47" y2="47"/><text fill="#000000" font-family="sans-serif" font-size="14" lengthAdjust="spacing" textLength="214" x="226" y="66.1074">+RegisterMaintenenceController()</text><text fill="#000000" font-family="sans-serif" font-size="14" lengthAdjust="spacing" textLength="187" x="226" y="84.7285">+getMaintenenceRepository()</text><text fill="#000000" font-family="sans-serif" font-size="14" lengthAdjust="spacing" textLength="296" x="226" y="103.3496">+createTask(userEmail, reference, description,</text><text fill="#000000" font-family="sans-serif" font-size="14" lengthAdjust="spacing" textLength="260" x="226" y="121.9707">informalDescription, technicalDescription,</text><text fill="#000000" font-family="sans-serif" font-size="14" lengthAdjust="spacing" textLength="225" x="226" y="140.5918">duration, cost, categoryDescription)</text><text fill="#000000" font-family="sans-serif" font-size="14" lengthAdjust="spacing" textLength="366" x="226" y="159.2129">-getTaskCategoryByDescription(taskCategoryDescription)</text><text fill="#000000" font-family="sans-serif" font-size="14" lengthAdjust="spacing" textLength="180" x="226" y="177.834">-getEmployeeFromSession()</text></g><!--class RegisterMaintenenceUI--><g id="elem_RegisterMaintenenceUI"><rect codeLine="37" fill="#F1F1F1" height="48" id="RegisterMaintenenceUI" rx="2.5" ry="2.5" style="stroke:#181818;stroke-width:0.5;" width="178" x="7" y="72"/><ellipse cx="22" cy="88" fill="#ADD1B2" rx="11" ry="11" style="stroke:#181818;stroke-width:1.0;"/><path d="M24.7656,83.875 Q24.9219,83.6563 25.1094,83.5469 Q25.2969,83.4375 25.5156,83.4375 Q25.8906,83.4375 26.125,83.7031 Q26.3594,83.9531 26.3594,84.5625 L26.3594,86.0156 Q26.3594,86.625 26.125,86.8906 Q25.8906,87.1563 25.5156,87.1563 Q25.1719,87.1563 24.9688,86.9531 Q24.7656,86.7656 24.6563,86.25 Q24.6094,85.8906 24.4219,85.7031 Q24.0938,85.3281 23.4844,85.1094 Q22.875,84.8906 22.25,84.8906 Q21.4844,84.8906 20.8438,85.2188 Q20.2188,85.5469 19.7188,86.2969 Q19.2344,87.0469 19.2344,88.0781 L19.2344,89.1719 Q19.2344,90.4063 20.125,91.2344 Q21.0156,92.0469 22.6094,92.0469 Q23.5469,92.0469 24.2031,91.7969 Q24.5938,91.6406 25.0156,91.2031 Q25.2813,90.9375 25.4219,90.8594 Q25.5781,90.7813 25.7813,90.7813 Q26.1094,90.7813 26.3594,91.0469 Q26.625,91.2969 26.625,91.6406 Q26.625,91.9844 26.2813,92.3906 Q25.7813,92.9688 24.9844,93.2969 Q23.9063,93.75 22.6094,93.75 Q21.0938,93.75 19.8906,93.125 Q18.9063,92.625 18.2188,91.5625 Q17.5313,90.4844 17.5313,89.2031 L17.5313,88.0469 Q17.5313,86.7188 18.1406,85.5781 Q18.7656,84.4219 19.8594,83.8125 Q20.9531,83.1875 22.1875,83.1875 Q22.9219,83.1875 23.5625,83.3594 Q24.2188,83.5156 24.7656,83.875 Z " fill="#000000"/><text fill="#000000" font-family="sans-serif" font-size="14" lengthAdjust="spacing" textLength="146" x="36" y="93.7969">RegisterMaintenenceUI</text><line style="stroke:#181818;stroke-width:0.5;" x1="8" x2="184" y1="104" y2="104"/><line style="stroke:#181818;stroke-width:0.5;" x1="8" x2="184" y1="112" y2="112"/></g><!--link Repositories to Repositories--><g id="link_Repositories_Repositories"><path codeLine="40" d="M306.71,242.83 C326.98,245.47 341.5,253.52 341.5,267 C341.5,280.48 332.9297,287.7551 312.6597,290.3951 " fill="none" id="Repositories-to-Repositories" style="stroke:#181818;stroke-width:1.0;"/><polygon fill="#181818" points="306.71,291.17,316.1512,293.9741,311.6681,290.5242,315.118,286.0411,306.71,291.17" style="stroke:#181818;stroke-width:1.0;"/><text fill="#000000" font-family="sans-serif" font-size="13" lengthAdjust="spacing" textLength="49" x="347.5" y="272.5283">instance</text></g><!--link RegisterMaintenenceUI to RegisterMaintenenceController--><g id="link_RegisterMaintenenceUI_RegisterMaintenenceController"><path codeLine="42" d="M185.38,96 C194.41,96 200.33,96 200.33,96 C200.33,96 202.36,96 213.96,96 " fill="none" id="RegisterMaintenenceUI-to-RegisterMaintenenceController" style="stroke:#181818;stroke-width:1.0;stroke-dasharray:7.0,7.0;"/><polygon fill="#181818" points="219.96,96,210.96,92,214.96,96,210.96,100,219.96,96" style="stroke:#181818;stroke-width:1.0;"/></g><!--link RegisterMaintenenceController to Repositories--><g id="link_RegisterMaintenenceController_Repositories"><path codeLine="44" d="M303.56,185.21 C291.41,195.38 283.9516,201.6197 272.6816,211.0497 " fill="none" id="RegisterMaintenenceController-to-Repositories" style="stroke:#181818;stroke-width:1.0;stroke-dasharray:7.0,7.0;"/><polygon fill="#181818" points="268.08,214.9,277.5493,212.1922,271.9147,211.6914,272.4155,206.0567,268.08,214.9" style="stroke:#181818;stroke-width:1.0;"/></g><!--link RegisterMaintenenceController to MaintenenceRepository--><g id="link_RegisterMaintenenceController_MaintenenceRepository"><path codeLine="46" d="M400.27,185.06 C394.13,247.04 387,319 387,319 C387,319 334.9219,342.4386 284.9019,364.9386 " fill="none" id="RegisterMaintenenceController-to-MaintenenceRepository" style="stroke:#181818;stroke-width:1.0;stroke-dasharray:7.0,7.0;"/><polygon fill="#181818" points="279.43,367.4,289.2788,367.3559,283.9899,365.3489,285.9969,360.06,279.43,367.4" style="stroke:#181818;stroke-width:1.0;"/></g><!--link Repositories to MaintenenceRepository--><g id="link_Repositories_MaintenenceRepository"><path codeLine="48" d="M207,319.03 C207,335.29 207,346.81 207,361.39 " fill="none" id="Repositories-to-MaintenenceRepository" style="stroke:#181818;stroke-width:1.0;"/><polygon fill="#181818" points="207,367.39,211,358.39,207,362.39,203,358.39,207,367.39" style="stroke:#181818;stroke-width:1.0;"/><text fill="#000000" font-family="sans-serif" font-size="13" lengthAdjust="spacing" textLength="7" x="199.3109" y="356.1939">1</text></g><!--link MaintenenceRepository to VehicleCheckup--><g id="link_MaintenenceRepository_VehicleCheckup"><path codeLine="50" d="M402.68,401 C406.66,401 409,401 409,401 C409,401 415.34,401 431.4,401 " fill="none" id="MaintenenceRepository-to-VehicleCheckup" style="stroke:#181818;stroke-width:1.0;"/><polygon fill="#181818" points="437.4,401,428.4,397,432.4,401,428.4,405,437.4,401" style="stroke:#181818;stroke-width:1.0;"/><text fill="#000000" font-family="sans-serif" font-size="13" lengthAdjust="spacing" textLength="7" x="410.4605" y="397.7094">1</text><text fill="#000000" font-family="sans-serif" font-size="13" lengthAdjust="spacing" textLength="5" x="424.6553" y="397.1738">*</text></g><!--link RegisterMaintenenceController to VehicleCheckup--><g id="link_RegisterMaintenenceController_VehicleCheckup"><path codeLine="53" d="M438.35,185.05 C456.05,238.16 476.0923,298.288 491.0023,343.008 " fill="none" id="RegisterMaintenenceController-to-VehicleCheckup" style="stroke:#181818;stroke-width:1.0;stroke-dasharray:7.0,7.0;"/><polygon fill="#181818" points="492.9,348.7,493.848,338.8969,491.3185,343.9567,486.2587,341.4272,492.9,348.7" style="stroke:#181818;stroke-width:1.0;"/></g><!--link VehicleCheckup to FleetManager--><g id="link_VehicleCheckup_FleetManager"><path codeLine="55" d="M510,453.37 C510,479.94 510,505.05 510,525.78 " fill="none" id="VehicleCheckup-to-FleetManager" style="stroke:#181818;stroke-width:1.0;"/><polygon fill="#181818" points="510,531.78,514,522.78,510,526.78,506,522.78,510,531.78" style="stroke:#181818;stroke-width:1.0;"/><text fill="#000000" font-family="sans-serif" font-size="13" lengthAdjust="spacing" textLength="64" x="511" y="498.0283">registed by</text><text fill="#000000" font-family="sans-serif" font-size="13" lengthAdjust="spacing" textLength="5" x="504.6953" y="474.8429">*</text><text fill="#000000" font-family="sans-serif" font-size="13" lengthAdjust="spacing" textLength="5" x="504.3906" y="520.8683">*</text></g><!--SRC=[ZLInRi8m4Dtp5HPJqWRKhWn8BGM9WGwbxSHYp95OSUp8lgXAg_vxRHB0fe4sGwJSlNll-IvdKt1PKKrBOdAwLHzSPcH7XO7873E2Iy2c0b8fqRYFAFAoJ51Z7X0rtzG82wRaYdy2kREWQ9yZSm60Ioff1ffyHT-7-3lad0cOvi2Akh8POfyXMLagww8I5E6vBZUWmyJMniD8KJvWn-BOE_ebvH91WcJm0fKo79LkEfLReY7Z1a679c9FDTqhfJvxSZ9_fEHWZjRzO9nqIXdWGXgaraUSa740Ea5wtSQ1O6lO0qwLHAs4sBUrPRgAyYrTqci1J8Cz-oirHLmRqBEISf7Qdkr0kmhR6Z1CymgvakbQShbJkgJYoOiI19PBpiBeMcvhJLi0KmRjsmfbLjj39LqxhKrdOTeX7drCZ5wcltPMLa8r07EjoXKOuwgkD_HjqVwVmN27at3OOyAxSJfW7yTeSdqElNNUC4UXufzmY-yTv- -33Eu7bw3zw-8ANDtDu6nTe_-uEYyvstZ7EkpOWqjYV5ZFBTaqqGy0]--></g></svg>