<?xml version="1.0" encoding="us-ascii" standalone="no"?><svg xmlns="http://www.w3.org/2000/svg" xmlns:xlink="http://www.w3.org/1999/xlink" contentStyleType="text/css" height="392px" preserveAspectRatio="none" style="width:665px;height:392px;background:#FFFFFF;" version="1.1" viewBox="0 0 665 392" width="665px" zoomAndPan="magnify"><defs/><g><rect fill="#FFFFFF" height="237.0762" style="stroke:#181818;stroke-width:1.0;" width="10" x="158" y="90.5332"/><rect fill="#FFFFFF" height="122.2031" style="stroke:#181818;stroke-width:1.0;" width="10" x="395.5" y="158.1152"/><rect fill="none" height="182.7852" style="stroke:#000000;stroke-width:1.5;" width="590" x="69.5" y="105.5332"/><line style="stroke:#181818;stroke-width:0.5;stroke-dasharray:5.0,5.0;" x1="162.5" x2="162.5" y1="57.2422" y2="336.6094"/><line style="stroke:#181818;stroke-width:0.5;stroke-dasharray:5.0,5.0;" x1="400" x2="400" y1="156.6348" y2="336.6094"/><rect fill="#E3E3E3" height="51.2422" rx="2.5" ry="2.5" style="stroke:#181818;stroke-width:0.5;" width="167" x="79.5" y="5"/><text fill="#000000" font-family="sans-serif" font-size="14" lengthAdjust="spacing" textLength="153" x="86.5" y="27.1074">maintenanceRepository:</text><text fill="#000000" font-family="sans-serif" font-size="14" lengthAdjust="spacing" textLength="149" x="88.5" y="45.7285">MaintenanceRepository</text><rect fill="#E3E3E3" height="51.2422" rx="2.5" ry="2.5" style="stroke:#181818;stroke-width:0.5;" width="167" x="79.5" y="335.6094"/><text fill="#000000" font-family="sans-serif" font-size="14" lengthAdjust="spacing" textLength="153" x="86.5" y="357.7168">maintenanceRepository:</text><text fill="#000000" font-family="sans-serif" font-size="14" lengthAdjust="spacing" textLength="149" x="88.5" y="376.3379">MaintenanceRepository</text><rect fill="#E3E3E3" height="32.6211" rx="2.5" ry="2.5" style="stroke:#181818;stroke-width:0.5;" width="99" x="351" y="335.6094"/><text fill="#000000" font-family="sans-serif" font-size="14" lengthAdjust="spacing" textLength="85" x="358" y="357.7168">:Maintenance</text><rect fill="#FFFFFF" height="237.0762" style="stroke:#181818;stroke-width:1.0;" width="10" x="158" y="90.5332"/><rect fill="#FFFFFF" height="122.2031" style="stroke:#181818;stroke-width:1.0;" width="10" x="395.5" y="158.1152"/><polygon fill="#181818" points="146,86.5332,156,90.5332,146,94.5332,150,90.5332" style="stroke:#181818;stroke-width:1.0;"/><line style="stroke:#181818;stroke-width:1.0;" x1="0" x2="152" y1="90.5332" y2="90.5332"/><text fill="#000000" font-family="sans-serif" font-size="13" font-weight="bold" lengthAdjust="spacing" textLength="14" x="7" y="85.2705">20</text><text fill="#000000" font-family="sans-serif" font-size="13" lengthAdjust="spacing" textLength="121" x="25" y="85.2705">register maintenance</text><path d="M69.5,105.5332 L253.5,105.5332 L253.5,114.8242 L243.5,124.8242 L69.5,124.8242 L69.5,105.5332 " fill="#EEEEEE" style="stroke:#000000;stroke-width:1.5;"/><rect fill="none" height="182.7852" style="stroke:#000000;stroke-width:1.5;" width="590" x="69.5" y="105.5332"/><text fill="#000000" font-family="sans-serif" font-size="13" font-weight="bold" lengthAdjust="spacing" textLength="139" x="84.5" y="120.5615">Register maintenance</text><polygon fill="#181818" points="339,144.1152,349,148.1152,339,152.1152,343,148.1152" style="stroke:#181818;stroke-width:1.0;"/><line style="stroke:#181818;stroke-width:1.0;" x1="168" x2="345" y1="148.1152" y2="148.1152"/><text fill="#000000" font-family="sans-serif" font-size="13" font-weight="bold" lengthAdjust="spacing" textLength="14" x="175" y="142.8525">21</text><text fill="#000000" font-family="sans-serif" font-size="13" lengthAdjust="spacing" textLength="141" x="193" y="142.8525">create(date, current Km)</text><rect fill="#E3E3E3" height="32.6211" rx="2.5" ry="2.5" style="stroke:#181818;stroke-width:0.5;" width="99" x="351" y="124.8242"/><text fill="#000000" font-family="sans-serif" font-size="14" lengthAdjust="spacing" textLength="85" x="358" y="146.9316">:Maintenance</text><line style="stroke:#181818;stroke-width:1.0;" x1="405.5" x2="447.5" y1="191.7363" y2="191.7363"/><line style="stroke:#181818;stroke-width:1.0;" x1="447.5" x2="447.5" y1="191.7363" y2="204.7363"/><line style="stroke:#181818;stroke-width:1.0;" x1="406.5" x2="447.5" y1="204.7363" y2="204.7363"/><polygon fill="#181818" points="416.5,200.7363,406.5,204.7363,416.5,208.7363,412.5,204.7363" style="stroke:#181818;stroke-width:1.0;"/><text fill="#000000" font-family="sans-serif" font-size="13" font-weight="bold" lengthAdjust="spacing" textLength="14" x="412.5" y="186.4736">22</text><text fill="#000000" font-family="sans-serif" font-size="13" lengthAdjust="spacing" textLength="142" x="430.5" y="186.4736">verifyFilled(maintenance)</text><line style="stroke:#181818;stroke-width:1.0;" x1="405.5" x2="447.5" y1="236.0273" y2="236.0273"/><line style="stroke:#181818;stroke-width:1.0;" x1="447.5" x2="447.5" y1="236.0273" y2="249.0273"/><line style="stroke:#181818;stroke-width:1.0;" x1="406.5" x2="447.5" y1="249.0273" y2="249.0273"/><polygon fill="#181818" points="416.5,245.0273,406.5,249.0273,416.5,253.0273,412.5,249.0273" style="stroke:#181818;stroke-width:1.0;"/><text fill="#000000" font-family="sans-serif" font-size="13" font-weight="bold" lengthAdjust="spacing" textLength="14" x="412.5" y="230.7646">23</text><text fill="#000000" font-family="sans-serif" font-size="13" lengthAdjust="spacing" textLength="217" x="430.5" y="230.7646">verifySpecialCharacters(maintenance)</text><polygon fill="#181818" points="179,276.3184,169,280.3184,179,284.3184,175,280.3184" style="stroke:#181818;stroke-width:1.0;"/><line style="stroke:#181818;stroke-width:1.0;stroke-dasharray:2.0,2.0;" x1="173" x2="399.5" y1="280.3184" y2="280.3184"/><text fill="#000000" font-family="sans-serif" font-size="13" font-weight="bold" lengthAdjust="spacing" textLength="14" x="185" y="275.0557">24</text><text fill="#000000" font-family="sans-serif" font-size="13" lengthAdjust="spacing" textLength="74" x="203" y="275.0557">maintenance</text><polygon fill="#181818" points="11,314.6094,1,318.6094,11,322.6094,7,318.6094" style="stroke:#181818;stroke-width:1.0;"/><line style="stroke:#181818;stroke-width:1.0;stroke-dasharray:2.0,2.0;" x1="5" x2="157" y1="318.6094" y2="318.6094"/><text fill="#000000" font-family="sans-serif" font-size="13" font-weight="bold" lengthAdjust="spacing" textLength="14" x="17" y="313.3467">25</text><text fill="#000000" font-family="sans-serif" font-size="13" lengthAdjust="spacing" textLength="74" x="35" y="313.3467">maintenance</text><!--SRC=[dL8zJyCm4DtzAqwTsef8Y352B4WiYALTknpEDJdLFbjdfoZ_lbv0IGWjuC63t_FxE3kTM28gUl11WkqqU8AiFPdqXKIq9snfdmT7e6GpIkl6XDHX4pvOMZYYIsGCzZb8xzz9uU7UcCBAR3cYP5XvPCaaA9Ps54FY77Ie3_AsTBu2JB28J4Nh4MT-nnXJFIsBG5twj9no2JhAPM2wMWrzXDqj9jhCPypqG-09TpdEDETsM_9PfIAvRifs1xPNfTBtrMzkEfjvYp4uSoe-Pr8-3Y_i73NhKSFDVsJsaIoZU-xAzx1bPEaFYbVUwieJDVGvWpb2qdmpVAogNvbS0000]--></g></svg>