<?xml version="1.0" encoding="us-ascii" standalone="no"?><svg xmlns="http://www.w3.org/2000/svg" xmlns:xlink="http://www.w3.org/1999/xlink" contentStyleType="text/css" height="1275px" preserveAspectRatio="none" style="width:1665px;height:1275px;background:#FFFFFF;" version="1.1" viewBox="0 0 1665 1275" width="1665px" zoomAndPan="magnify"><defs/><g><rect fill="#FFFFFF" height="1043.9727" style="stroke:#181818;stroke-width:1.0;" width="10" x="75.5" y="112.2422"/><rect fill="#FFFFFF" height="325.2402" style="stroke:#181818;stroke-width:1.0;" width="10" x="378.5" y="135.5332"/><rect fill="#FFFFFF" height="93.873" style="stroke:#181818;stroke-width:1.0;" width="10" x="378.5" y="492.0645"/><rect fill="#FFFFFF" height="413.8223" style="stroke:#181818;stroke-width:1.0;" width="10" x="378.5" y="617.2285"/><rect fill="#FFFFFF" height="93.873" style="stroke:#181818;stroke-width:1.0;" width="10" x="378.5" y="1062.3418"/><rect fill="#FFFFFF" height="219.0371" style="stroke:#181818;stroke-width:1.0;" width="10" x="614.5" y="210.4453"/><rect fill="#FFFFFF" height="31.291" style="stroke:#181818;stroke-width:1.0;" width="10" x="614.5" y="523.3555"/><rect fill="#FFFFFF" height="319.9492" style="stroke:#181818;stroke-width:1.0;" width="10" x="614.5" y="648.5195"/><rect fill="#FFFFFF" height="31.291" style="stroke:#181818;stroke-width:1.0;" width="10" x="614.5" y="1093.6328"/><rect fill="#FFFFFF" height="31.291" style="stroke:#181818;stroke-width:1.0;" width="10" x="780" y="241.7363"/><rect fill="#FFFFFF" height="31.291" style="stroke:#181818;stroke-width:1.0;" width="10" x="887" y="304.3184"/><rect fill="#FFFFFF" height="31.291" style="stroke:#181818;stroke-width:1.0;" width="10" x="887" y="679.8105"/><rect fill="#FFFFFF" height="31.291" style="stroke:#181818;stroke-width:1.0;" width="10" x="1010.5" y="366.9004"/><rect fill="#FFFFFF" height="194.7852" style="stroke:#181818;stroke-width:1.0;" width="10" x="1169" y="742.3926"/><rect fill="#FFFFFF" height="122.2031" style="stroke:#181818;stroke-width:1.0;" width="10" x="1406.5" y="783.6836"/><line style="stroke:#181818;stroke-width:0.5;stroke-dasharray:5.0,5.0;" x1="80" x2="80" y1="102.2422" y2="1174.2148"/><line style="stroke:#181818;stroke-width:0.5;stroke-dasharray:5.0,5.0;" x1="383.5" x2="383.5" y1="102.2422" y2="1174.2148"/><line style="stroke:#181818;stroke-width:0.5;stroke-dasharray:5.0,5.0;" x1="619.5" x2="619.5" y1="175.3438" y2="1174.2148"/><line style="stroke:#181818;stroke-width:0.5;stroke-dasharray:5.0,5.0;" x1="784.5" x2="784.5" y1="102.2422" y2="1174.2148"/><line style="stroke:#181818;stroke-width:0.5;stroke-dasharray:5.0,5.0;" x1="891.5" x2="891.5" y1="102.2422" y2="1174.2148"/><line style="stroke:#181818;stroke-width:0.5;stroke-dasharray:5.0,5.0;" x1="1015.5" x2="1015.5" y1="102.2422" y2="1174.2148"/><line style="stroke:#181818;stroke-width:0.5;stroke-dasharray:5.0,5.0;" x1="1173.5" x2="1173.5" y1="102.2422" y2="1174.2148"/><line style="stroke:#181818;stroke-width:0.5;stroke-dasharray:5.0,5.0;" x1="1411" x2="1411" y1="782.2031" y2="1174.2148"/><text fill="#000000" font-family="sans-serif" font-size="14" lengthAdjust="spacing" textLength="145" x="5" y="80.1074">Vehicle and Equipment</text><text fill="#000000" font-family="sans-serif" font-size="14" lengthAdjust="spacing" textLength="135" x="12" y="98.7285">Fleet Manager (VFM)</text><ellipse cx="80.5" cy="13.5" fill="#E3E3E3" rx="8" ry="8" style="stroke:#181818;stroke-width:0.5;"/><path d="M80.5,21.5 L80.5,48.5 M67.5,29.5 L93.5,29.5 M80.5,48.5 L67.5,63.5 M80.5,48.5 L93.5,63.5 " fill="none" style="stroke:#181818;stroke-width:0.5;"/><text fill="#000000" font-family="sans-serif" font-size="14" lengthAdjust="spacing" textLength="145" x="5" y="1188.3223">Vehicle and Equipment</text><text fill="#000000" font-family="sans-serif" font-size="14" lengthAdjust="spacing" textLength="135" x="12" y="1206.9434">Fleet Manager (VFM)</text><ellipse cx="80.5" cy="1218.957" fill="#E3E3E3" rx="8" ry="8" style="stroke:#181818;stroke-width:0.5;"/><path d="M80.5,1226.957 L80.5,1253.957 M67.5,1234.957 L93.5,1234.957 M80.5,1253.957 L67.5,1268.957 M80.5,1253.957 L93.5,1268.957 " fill="none" style="stroke:#181818;stroke-width:0.5;"/><rect fill="#E3E3E3" height="32.6211" rx="2.5" ry="2.5" style="stroke:#181818;stroke-width:0.5;" width="164" x="301.5" y="68.6211"/><text fill="#000000" font-family="sans-serif" font-size="14" lengthAdjust="spacing" textLength="150" x="308.5" y="90.7285">:RegisterMaintenanceUI</text><rect fill="#E3E3E3" height="32.6211" rx="2.5" ry="2.5" style="stroke:#181818;stroke-width:0.5;" width="164" x="301.5" y="1173.2148"/><text fill="#000000" font-family="sans-serif" font-size="14" lengthAdjust="spacing" textLength="150" x="308.5" y="1195.3223">:RegisterMaintenanceUI</text><rect fill="#E3E3E3" height="32.6211" rx="2.5" ry="2.5" style="stroke:#181818;stroke-width:0.5;" width="214" x="512.5" y="1173.2148"/><text fill="#000000" font-family="sans-serif" font-size="14" lengthAdjust="spacing" textLength="200" x="519.5" y="1195.3223">:RegisterMaintenanceController</text><rect fill="#E3E3E3" height="32.6211" rx="2.5" ry="2.5" style="stroke:#181818;stroke-width:0.5;" width="97" x="736.5" y="68.6211"/><text fill="#000000" font-family="sans-serif" font-size="14" lengthAdjust="spacing" textLength="83" x="743.5" y="90.7285">:Repositories</text><rect fill="#E3E3E3" height="32.6211" rx="2.5" ry="2.5" style="stroke:#181818;stroke-width:0.5;" width="97" x="736.5" y="1173.2148"/><text fill="#000000" font-family="sans-serif" font-size="14" lengthAdjust="spacing" textLength="83" x="743.5" y="1195.3223">:Repositories</text><rect fill="#E3E3E3" height="51.2422" rx="2.5" ry="2.5" style="stroke:#181818;stroke-width:0.5;" width="97" x="843.5" y="50"/><text fill="#000000" font-family="sans-serif" font-size="14" lengthAdjust="spacing" textLength="74" x="855" y="72.1074">repositories</text><text fill="#000000" font-family="sans-serif" font-size="14" lengthAdjust="spacing" textLength="83" x="850.5" y="90.7285">:Repositories</text><rect fill="#E3E3E3" height="51.2422" rx="2.5" ry="2.5" style="stroke:#181818;stroke-width:0.5;" width="97" x="843.5" y="1173.2148"/><text fill="#000000" font-family="sans-serif" font-size="14" lengthAdjust="spacing" textLength="74" x="855" y="1195.3223">repositories</text><text fill="#000000" font-family="sans-serif" font-size="14" lengthAdjust="spacing" textLength="83" x="850.5" y="1213.9434">:Repositories</text><rect fill="#E3E3E3" height="51.2422" rx="2.5" ry="2.5" style="stroke:#181818;stroke-width:0.5;" width="130" x="950.5" y="50"/><text fill="#000000" font-family="sans-serif" font-size="14" lengthAdjust="spacing" textLength="116" x="957.5" y="72.1074">vehicleRepository:</text><text fill="#000000" font-family="sans-serif" font-size="14" lengthAdjust="spacing" textLength="114" x="958.5" y="90.7285">VehicleRepository</text><rect fill="#E3E3E3" height="51.2422" rx="2.5" ry="2.5" style="stroke:#181818;stroke-width:0.5;" width="130" x="950.5" y="1173.2148"/><text fill="#000000" font-family="sans-serif" font-size="14" lengthAdjust="spacing" textLength="116" x="957.5" y="1195.3223">vehicleRepository:</text><text fill="#000000" font-family="sans-serif" font-size="14" lengthAdjust="spacing" textLength="114" x="958.5" y="1213.9434">VehicleRepository</text><rect fill="#E3E3E3" height="51.2422" rx="2.5" ry="2.5" style="stroke:#181818;stroke-width:0.5;" width="167" x="1090.5" y="50"/><text fill="#000000" font-family="sans-serif" font-size="14" lengthAdjust="spacing" textLength="153" x="1097.5" y="72.1074">maintenanceRepository:</text><text fill="#000000" font-family="sans-serif" font-size="14" lengthAdjust="spacing" textLength="149" x="1099.5" y="90.7285">MaintenanceRepository</text><rect fill="#E3E3E3" height="51.2422" rx="2.5" ry="2.5" style="stroke:#181818;stroke-width:0.5;" width="167" x="1090.5" y="1173.2148"/><text fill="#000000" font-family="sans-serif" font-size="14" lengthAdjust="spacing" textLength="153" x="1097.5" y="1195.3223">maintenanceRepository:</text><text fill="#000000" font-family="sans-serif" font-size="14" lengthAdjust="spacing" textLength="149" x="1099.5" y="1213.9434">MaintenanceRepository</text><rect fill="#E3E3E3" height="32.6211" rx="2.5" ry="2.5" style="stroke:#181818;stroke-width:0.5;" width="99" x="1362" y="1173.2148"/><text fill="#000000" font-family="sans-serif" font-size="14" lengthAdjust="spacing" textLength="85" x="1369" y="1195.3223">:Maintenance</text><rect fill="#FFFFFF" height="1043.9727" style="stroke:#181818;stroke-width:1.0;" width="10" x="75.5" y="112.2422"/><rect fill="#FFFFFF" height="325.2402" style="stroke:#181818;stroke-width:1.0;" width="10" x="378.5" y="135.5332"/><rect fill="#FFFFFF" height="93.873" style="stroke:#181818;stroke-width:1.0;" width="10" x="378.5" y="492.0645"/><rect fill="#FFFFFF" height="413.8223" style="stroke:#181818;stroke-width:1.0;" width="10" x="378.5" y="617.2285"/><rect fill="#FFFFFF" height="93.873" style="stroke:#181818;stroke-width:1.0;" width="10" x="378.5" y="1062.3418"/><rect fill="#FFFFFF" height="219.0371" style="stroke:#181818;stroke-width:1.0;" width="10" x="614.5" y="210.4453"/><rect fill="#FFFFFF" height="31.291" style="stroke:#181818;stroke-width:1.0;" width="10" x="614.5" y="523.3555"/><rect fill="#FFFFFF" height="319.9492" style="stroke:#181818;stroke-width:1.0;" width="10" x="614.5" y="648.5195"/><rect fill="#FFFFFF" height="31.291" style="stroke:#181818;stroke-width:1.0;" width="10" x="614.5" y="1093.6328"/><rect fill="#FFFFFF" height="31.291" style="stroke:#181818;stroke-width:1.0;" width="10" x="780" y="241.7363"/><rect fill="#FFFFFF" height="31.291" style="stroke:#181818;stroke-width:1.0;" width="10" x="887" y="304.3184"/><rect fill="#FFFFFF" height="31.291" style="stroke:#181818;stroke-width:1.0;" width="10" x="887" y="679.8105"/><rect fill="#FFFFFF" height="31.291" style="stroke:#181818;stroke-width:1.0;" width="10" x="1010.5" y="366.9004"/><rect fill="#FFFFFF" height="194.7852" style="stroke:#181818;stroke-width:1.0;" width="10" x="1169" y="742.3926"/><rect fill="#FFFFFF" height="122.2031" style="stroke:#181818;stroke-width:1.0;" width="10" x="1406.5" y="783.6836"/><polygon fill="#181818" points="366.5,131.5332,376.5,135.5332,366.5,139.5332,370.5,135.5332" style="stroke:#181818;stroke-width:1.0;"/><line style="stroke:#181818;stroke-width:1.0;" x1="85.5" x2="372.5" y1="135.5332" y2="135.5332"/><text fill="#000000" font-family="sans-serif" font-size="13" font-weight="bold" lengthAdjust="spacing" textLength="7" x="92.5" y="130.2705">1</text><text fill="#000000" font-family="sans-serif" font-size="13" lengthAdjust="spacing" textLength="263" x="103.5" y="130.2705">requests to list vehicles needing maintenance</text><polygon fill="#181818" points="500.5,162.8242,510.5,166.8242,500.5,170.8242,504.5,166.8242" style="stroke:#181818;stroke-width:1.0;"/><line style="stroke:#181818;stroke-width:1.0;" x1="388.5" x2="506.5" y1="166.8242" y2="166.8242"/><text fill="#000000" font-family="sans-serif" font-size="13" font-weight="bold" lengthAdjust="spacing" textLength="7" x="395.5" y="161.5615">2</text><text fill="#000000" font-family="sans-serif" font-size="13" lengthAdjust="spacing" textLength="36" x="406.5" y="161.5615">create</text><rect fill="#E3E3E3" height="32.6211" rx="2.5" ry="2.5" style="stroke:#181818;stroke-width:0.5;" width="214" x="512.5" y="143.5332"/><text fill="#000000" font-family="sans-serif" font-size="14" lengthAdjust="spacing" textLength="200" x="519.5" y="165.6406">:RegisterMaintenanceController</text><polygon fill="#181818" points="602.5,206.4453,612.5,210.4453,602.5,214.4453,606.5,210.4453" style="stroke:#181818;stroke-width:1.0;"/><line style="stroke:#181818;stroke-width:1.0;" x1="388.5" x2="608.5" y1="210.4453" y2="210.4453"/><text fill="#000000" font-family="sans-serif" font-size="13" font-weight="bold" lengthAdjust="spacing" textLength="7" x="395.5" y="205.1826">3</text><text fill="#000000" font-family="sans-serif" font-size="13" lengthAdjust="spacing" textLength="97" x="406.5" y="205.1826">getVehiclesList()</text><polygon fill="#181818" points="768,237.7363,778,241.7363,768,245.7363,772,241.7363" style="stroke:#181818;stroke-width:1.0;"/><line style="stroke:#181818;stroke-width:1.0;" x1="624.5" x2="774" y1="241.7363" y2="241.7363"/><text fill="#000000" font-family="sans-serif" font-size="13" font-weight="bold" lengthAdjust="spacing" textLength="7" x="631.5" y="236.4736">4</text><text fill="#000000" font-family="sans-serif" font-size="13" lengthAdjust="spacing" textLength="75" x="642.5" y="236.4736">getInstance()</text><polygon fill="#181818" points="635.5,269.0273,625.5,273.0273,635.5,277.0273,631.5,273.0273" style="stroke:#181818;stroke-width:1.0;"/><line style="stroke:#181818;stroke-width:1.0;stroke-dasharray:2.0,2.0;" x1="629.5" x2="784" y1="273.0273" y2="273.0273"/><text fill="#000000" font-family="sans-serif" font-size="13" font-weight="bold" lengthAdjust="spacing" textLength="7" x="641.5" y="267.7646">5</text><text fill="#000000" font-family="sans-serif" font-size="13" lengthAdjust="spacing" textLength="67" x="652.5" y="267.7646">repositories</text><polygon fill="#181818" points="875,300.3184,885,304.3184,875,308.3184,879,304.3184" style="stroke:#181818;stroke-width:1.0;"/><line style="stroke:#181818;stroke-width:1.0;" x1="624.5" x2="881" y1="304.3184" y2="304.3184"/><text fill="#000000" font-family="sans-serif" font-size="13" font-weight="bold" lengthAdjust="spacing" textLength="7" x="631.5" y="299.0557">6</text><text fill="#000000" font-family="sans-serif" font-size="13" lengthAdjust="spacing" textLength="131" x="642.5" y="299.0557">getVehicleRepository()</text><polygon fill="#181818" points="635.5,331.6094,625.5,335.6094,635.5,339.6094,631.5,335.6094" style="stroke:#181818;stroke-width:1.0;"/><line style="stroke:#181818;stroke-width:1.0;stroke-dasharray:2.0,2.0;" x1="629.5" x2="891" y1="335.6094" y2="335.6094"/><text fill="#000000" font-family="sans-serif" font-size="13" font-weight="bold" lengthAdjust="spacing" textLength="7" x="641.5" y="330.3467">7</text><text fill="#000000" font-family="sans-serif" font-size="13" lengthAdjust="spacing" textLength="105" x="652.5" y="330.3467">VehicleRepository</text><polygon fill="#181818" points="998.5,362.9004,1008.5,366.9004,998.5,370.9004,1002.5,366.9004" style="stroke:#181818;stroke-width:1.0;"/><line style="stroke:#181818;stroke-width:1.0;" x1="624.5" x2="1004.5" y1="366.9004" y2="366.9004"/><text fill="#000000" font-family="sans-serif" font-size="13" font-weight="bold" lengthAdjust="spacing" textLength="7" x="631.5" y="361.6377">8</text><text fill="#000000" font-family="sans-serif" font-size="13" lengthAdjust="spacing" textLength="97" x="642.5" y="361.6377">getVehiclesList()</text><polygon fill="#181818" points="635.5,394.1914,625.5,398.1914,635.5,402.1914,631.5,398.1914" style="stroke:#181818;stroke-width:1.0;"/><line style="stroke:#181818;stroke-width:1.0;stroke-dasharray:2.0,2.0;" x1="629.5" x2="1014.5" y1="398.1914" y2="398.1914"/><text fill="#000000" font-family="sans-serif" font-size="13" font-weight="bold" lengthAdjust="spacing" textLength="7" x="641.5" y="392.9287">9</text><text fill="#000000" font-family="sans-serif" font-size="13" lengthAdjust="spacing" textLength="60" x="652.5" y="392.9287">vehicleList</text><polygon fill="#181818" points="399.5,425.4824,389.5,429.4824,399.5,433.4824,395.5,429.4824" style="stroke:#181818;stroke-width:1.0;"/><line style="stroke:#181818;stroke-width:1.0;stroke-dasharray:2.0,2.0;" x1="393.5" x2="618.5" y1="429.4824" y2="429.4824"/><text fill="#000000" font-family="sans-serif" font-size="13" font-weight="bold" lengthAdjust="spacing" textLength="14" x="405.5" y="424.2197">10</text><text fill="#000000" font-family="sans-serif" font-size="13" lengthAdjust="spacing" textLength="60" x="423.5" y="424.2197">vehicleList</text><polygon fill="#181818" points="96.5,456.7734,86.5,460.7734,96.5,464.7734,92.5,460.7734" style="stroke:#181818;stroke-width:1.0;"/><line style="stroke:#181818;stroke-width:1.0;stroke-dasharray:2.0,2.0;" x1="90.5" x2="382.5" y1="460.7734" y2="460.7734"/><text fill="#000000" font-family="sans-serif" font-size="13" font-weight="bold" lengthAdjust="spacing" textLength="14" x="102.5" y="455.5107">11</text><text fill="#000000" font-family="sans-serif" font-size="13" lengthAdjust="spacing" textLength="116" x="120.5" y="455.5107">displays vehicle List</text><polygon fill="#181818" points="366.5,488.0645,376.5,492.0645,366.5,496.0645,370.5,492.0645" style="stroke:#181818;stroke-width:1.0;"/><line style="stroke:#181818;stroke-width:1.0;" x1="85.5" x2="372.5" y1="492.0645" y2="492.0645"/><text fill="#000000" font-family="sans-serif" font-size="13" font-weight="bold" lengthAdjust="spacing" textLength="14" x="92.5" y="486.8018">12</text><text fill="#000000" font-family="sans-serif" font-size="13" lengthAdjust="spacing" textLength="94" x="110.5" y="486.8018">Chooses vehicle</text><polygon fill="#181818" points="602.5,519.3555,612.5,523.3555,602.5,527.3555,606.5,523.3555" style="stroke:#181818;stroke-width:1.0;"/><line style="stroke:#181818;stroke-width:1.0;" x1="388.5" x2="608.5" y1="523.3555" y2="523.3555"/><text fill="#000000" font-family="sans-serif" font-size="13" font-weight="bold" lengthAdjust="spacing" textLength="14" x="395.5" y="518.0928">13</text><text fill="#000000" font-family="sans-serif" font-size="13" lengthAdjust="spacing" textLength="39" x="413.5" y="518.0928">vehicle</text><polygon fill="#181818" points="399.5,550.6465,389.5,554.6465,399.5,558.6465,395.5,554.6465" style="stroke:#181818;stroke-width:1.0;"/><line style="stroke:#181818;stroke-width:1.0;stroke-dasharray:2.0,2.0;" x1="393.5" x2="618.5" y1="554.6465" y2="554.6465"/><text fill="#000000" font-family="sans-serif" font-size="13" font-weight="bold" lengthAdjust="spacing" textLength="14" x="405.5" y="549.3838">14</text><text fill="#000000" font-family="sans-serif" font-size="13" lengthAdjust="spacing" textLength="184" x="423.5" y="549.3838">requests data(date, current Km)</text><polygon fill="#181818" points="96.5,581.9375,86.5,585.9375,96.5,589.9375,92.5,585.9375" style="stroke:#181818;stroke-width:1.0;"/><line style="stroke:#181818;stroke-width:1.0;stroke-dasharray:2.0,2.0;" x1="90.5" x2="382.5" y1="585.9375" y2="585.9375"/><text fill="#000000" font-family="sans-serif" font-size="13" font-weight="bold" lengthAdjust="spacing" textLength="14" x="102.5" y="580.6748">15</text><text fill="#000000" font-family="sans-serif" font-size="13" lengthAdjust="spacing" textLength="188" x="120.5" y="580.6748">requests data (date, current Km)</text><polygon fill="#181818" points="366.5,613.2285,376.5,617.2285,366.5,621.2285,370.5,617.2285" style="stroke:#181818;stroke-width:1.0;"/><line style="stroke:#181818;stroke-width:1.0;" x1="85.5" x2="372.5" y1="617.2285" y2="617.2285"/><text fill="#000000" font-family="sans-serif" font-size="13" font-weight="bold" lengthAdjust="spacing" textLength="14" x="92.5" y="611.9658">16</text><text fill="#000000" font-family="sans-serif" font-size="13" lengthAdjust="spacing" textLength="173" x="110.5" y="611.9658">Types data (date, current Km)</text><polygon fill="#181818" points="602.5,644.5195,612.5,648.5195,602.5,652.5195,606.5,648.5195" style="stroke:#181818;stroke-width:1.0;"/><line style="stroke:#181818;stroke-width:1.0;" x1="388.5" x2="608.5" y1="648.5195" y2="648.5195"/><text fill="#000000" font-family="sans-serif" font-size="13" font-weight="bold" lengthAdjust="spacing" textLength="14" x="395.5" y="643.2568">17</text><text fill="#000000" font-family="sans-serif" font-size="13" lengthAdjust="spacing" textLength="134" x="413.5" y="643.2568">data (date, current Km)</text><polygon fill="#181818" points="875,675.8105,885,679.8105,875,683.8105,879,679.8105" style="stroke:#181818;stroke-width:1.0;"/><line style="stroke:#181818;stroke-width:1.0;" x1="624.5" x2="881" y1="679.8105" y2="679.8105"/><text fill="#000000" font-family="sans-serif" font-size="13" font-weight="bold" lengthAdjust="spacing" textLength="14" x="631.5" y="674.5479">18</text><text fill="#000000" font-family="sans-serif" font-size="13" lengthAdjust="spacing" textLength="162" x="649.5" y="674.5479">getMaintenanceRepository()</text><polygon fill="#181818" points="635.5,707.1016,625.5,711.1016,635.5,715.1016,631.5,711.1016" style="stroke:#181818;stroke-width:1.0;"/><line style="stroke:#181818;stroke-width:1.0;stroke-dasharray:2.0,2.0;" x1="629.5" x2="891" y1="711.1016" y2="711.1016"/><text fill="#000000" font-family="sans-serif" font-size="13" font-weight="bold" lengthAdjust="spacing" textLength="14" x="641.5" y="705.8389">19</text><text fill="#000000" font-family="sans-serif" font-size="13" lengthAdjust="spacing" textLength="136" x="659.5" y="705.8389">MaintenanceRepository</text><polygon fill="#181818" points="1157,738.3926,1167,742.3926,1157,746.3926,1161,742.3926" style="stroke:#181818;stroke-width:1.0;"/><line style="stroke:#181818;stroke-width:1.0;" x1="624.5" x2="1163" y1="742.3926" y2="742.3926"/><text fill="#000000" font-family="sans-serif" font-size="13" font-weight="bold" lengthAdjust="spacing" textLength="14" x="631.5" y="737.1299">20</text><text fill="#000000" font-family="sans-serif" font-size="13" lengthAdjust="spacing" textLength="121" x="649.5" y="737.1299">register maintenance</text><polygon fill="#181818" points="1350,769.6836,1360,773.6836,1350,777.6836,1354,773.6836" style="stroke:#181818;stroke-width:1.0;"/><line style="stroke:#181818;stroke-width:1.0;" x1="1179" x2="1356" y1="773.6836" y2="773.6836"/><text fill="#000000" font-family="sans-serif" font-size="13" font-weight="bold" lengthAdjust="spacing" textLength="14" x="1186" y="768.4209">21</text><text fill="#000000" font-family="sans-serif" font-size="13" lengthAdjust="spacing" textLength="141" x="1204" y="768.4209">create(date, current Km)</text><rect fill="#E3E3E3" height="32.6211" rx="2.5" ry="2.5" style="stroke:#181818;stroke-width:0.5;" width="99" x="1362" y="750.3926"/><text fill="#000000" font-family="sans-serif" font-size="14" lengthAdjust="spacing" textLength="85" x="1369" y="772.5">:Maintenance</text><line style="stroke:#181818;stroke-width:1.0;" x1="1416.5" x2="1458.5" y1="817.3047" y2="817.3047"/><line style="stroke:#181818;stroke-width:1.0;" x1="1458.5" x2="1458.5" y1="817.3047" y2="830.3047"/><line style="stroke:#181818;stroke-width:1.0;" x1="1417.5" x2="1458.5" y1="830.3047" y2="830.3047"/><polygon fill="#181818" points="1427.5,826.3047,1417.5,830.3047,1427.5,834.3047,1423.5,830.3047" style="stroke:#181818;stroke-width:1.0;"/><text fill="#000000" font-family="sans-serif" font-size="13" font-weight="bold" lengthAdjust="spacing" textLength="14" x="1423.5" y="812.042">22</text><text fill="#000000" font-family="sans-serif" font-size="13" lengthAdjust="spacing" textLength="142" x="1441.5" y="812.042">verifyFilled(maintenance)</text><line style="stroke:#181818;stroke-width:1.0;" x1="1416.5" x2="1458.5" y1="861.5957" y2="861.5957"/><line style="stroke:#181818;stroke-width:1.0;" x1="1458.5" x2="1458.5" y1="861.5957" y2="874.5957"/><line style="stroke:#181818;stroke-width:1.0;" x1="1417.5" x2="1458.5" y1="874.5957" y2="874.5957"/><polygon fill="#181818" points="1427.5,870.5957,1417.5,874.5957,1427.5,878.5957,1423.5,874.5957" style="stroke:#181818;stroke-width:1.0;"/><text fill="#000000" font-family="sans-serif" font-size="13" font-weight="bold" lengthAdjust="spacing" textLength="14" x="1423.5" y="856.333">23</text><text fill="#000000" font-family="sans-serif" font-size="13" lengthAdjust="spacing" textLength="217" x="1441.5" y="856.333">verifySpecialCharacters(maintenance)</text><polygon fill="#181818" points="1190,901.8867,1180,905.8867,1190,909.8867,1186,905.8867" style="stroke:#181818;stroke-width:1.0;"/><line style="stroke:#181818;stroke-width:1.0;stroke-dasharray:2.0,2.0;" x1="1184" x2="1410.5" y1="905.8867" y2="905.8867"/><text fill="#000000" font-family="sans-serif" font-size="13" font-weight="bold" lengthAdjust="spacing" textLength="14" x="1196" y="900.624">24</text><text fill="#000000" font-family="sans-serif" font-size="13" lengthAdjust="spacing" textLength="74" x="1214" y="900.624">maintenance</text><polygon fill="#181818" points="635.5,933.1777,625.5,937.1777,635.5,941.1777,631.5,937.1777" style="stroke:#181818;stroke-width:1.0;"/><line style="stroke:#181818;stroke-width:1.0;stroke-dasharray:2.0,2.0;" x1="629.5" x2="1173" y1="937.1777" y2="937.1777"/><text fill="#000000" font-family="sans-serif" font-size="13" font-weight="bold" lengthAdjust="spacing" textLength="14" x="641.5" y="931.915">25</text><text fill="#000000" font-family="sans-serif" font-size="13" lengthAdjust="spacing" textLength="74" x="659.5" y="931.915">maintenance</text><polygon fill="#181818" points="399.5,964.4688,389.5,968.4688,399.5,972.4688,395.5,968.4688" style="stroke:#181818;stroke-width:1.0;"/><line style="stroke:#181818;stroke-width:1.0;stroke-dasharray:2.0,2.0;" x1="393.5" x2="618.5" y1="968.4688" y2="968.4688"/><text fill="#000000" font-family="sans-serif" font-size="13" font-weight="bold" lengthAdjust="spacing" textLength="14" x="405.5" y="963.2061">26</text><text fill="#000000" font-family="sans-serif" font-size="13" lengthAdjust="spacing" textLength="74" x="423.5" y="963.2061">maintenance</text><polygon fill="#181818" points="96.5,995.7598,86.5,999.7598,96.5,1003.7598,92.5,999.7598" style="stroke:#181818;stroke-width:1.0;"/><line style="stroke:#181818;stroke-width:1.0;stroke-dasharray:2.0,2.0;" x1="90.5" x2="377.5" y1="999.7598" y2="999.7598"/><text fill="#000000" font-family="sans-serif" font-size="13" font-weight="bold" lengthAdjust="spacing" textLength="14" x="102.5" y="994.4971">27</text><text fill="#000000" font-family="sans-serif" font-size="13" lengthAdjust="spacing" textLength="157" x="120.5" y="994.4971">Displays maintenance data</text><polygon fill="#181818" points="96.5,1027.0508,86.5,1031.0508,96.5,1035.0508,92.5,1031.0508" style="stroke:#181818;stroke-width:1.0;"/><line style="stroke:#181818;stroke-width:1.0;stroke-dasharray:2.0,2.0;" x1="90.5" x2="382.5" y1="1031.0508" y2="1031.0508"/><text fill="#000000" font-family="sans-serif" font-size="13" font-weight="bold" lengthAdjust="spacing" textLength="14" x="102.5" y="1025.7881">28</text><text fill="#000000" font-family="sans-serif" font-size="13" lengthAdjust="spacing" textLength="124" x="120.5" y="1025.7881">requests confirmation</text><polygon fill="#181818" points="366.5,1058.3418,376.5,1062.3418,366.5,1066.3418,370.5,1062.3418" style="stroke:#181818;stroke-width:1.0;"/><line style="stroke:#181818;stroke-width:1.0;" x1="85.5" x2="372.5" y1="1062.3418" y2="1062.3418"/><text fill="#000000" font-family="sans-serif" font-size="13" font-weight="bold" lengthAdjust="spacing" textLength="14" x="92.5" y="1057.0791">29</text><text fill="#000000" font-family="sans-serif" font-size="13" lengthAdjust="spacing" textLength="78" x="110.5" y="1057.0791">confirms data</text><polygon fill="#181818" points="602.5,1089.6328,612.5,1093.6328,602.5,1097.6328,606.5,1093.6328" style="stroke:#181818;stroke-width:1.0;"/><line style="stroke:#181818;stroke-width:1.0;" x1="388.5" x2="608.5" y1="1093.6328" y2="1093.6328"/><text fill="#000000" font-family="sans-serif" font-size="13" font-weight="bold" lengthAdjust="spacing" textLength="14" x="395.5" y="1088.3701">30</text><text fill="#000000" font-family="sans-serif" font-size="13" lengthAdjust="spacing" textLength="70" x="413.5" y="1088.3701">confirmation</text><polygon fill="#181818" points="399.5,1120.9238,389.5,1124.9238,399.5,1128.9238,395.5,1124.9238" style="stroke:#181818;stroke-width:1.0;"/><line style="stroke:#181818;stroke-width:1.0;stroke-dasharray:2.0,2.0;" x1="393.5" x2="618.5" y1="1124.9238" y2="1124.9238"/><text fill="#000000" font-family="sans-serif" font-size="13" font-weight="bold" lengthAdjust="spacing" textLength="14" x="405.5" y="1119.6611">31</text><text fill="#000000" font-family="sans-serif" font-size="13" lengthAdjust="spacing" textLength="106" x="423.5" y="1119.6611">operation success</text><polygon fill="#181818" points="91.5,1152.2148,81.5,1156.2148,91.5,1160.2148,87.5,1156.2148" style="stroke:#181818;stroke-width:1.0;"/><line style="stroke:#181818;stroke-width:1.0;" x1="85.5" x2="382.5" y1="1156.2148" y2="1156.2148"/><text fill="#000000" font-family="sans-serif" font-size="13" font-weight="bold" lengthAdjust="spacing" textLength="14" x="97.5" y="1150.9521">32</text><text fill="#000000" font-family="sans-serif" font-size="13" lengthAdjust="spacing" textLength="158" x="115.5" y="1150.9521">displays operation success</text><!--SRC=[dPRDZjem483lFCM84wpA2t2eLD4YeO9KBImdBgupWBM9dRMThNZxJWmaSUna0pciM7lcc_z9pBkGETCiWqn9nSzQPGXM5pWorKtE-3ixuTPUKWIDt39vIfi2vimIzK_84nnPQd0qOeLLiiZ-eXxHFzmg3UCzdWKd09C9_FeeH9wXj0S9onJHmeP9Cg5XibzkfcDW1kZ7YF1MS94pQM4yVyMJC1RrXWbfKJB9yMtbPDzMNuikbBHQfIbgfxBOlQu3fLmPGSuAD4wcEhXiHHao1UMhw8R6GOQ0F-iVEr_Zyvg5cZm_o7txx1f_-zG7PNLa7cmJEtV0w4qh1GsPjeuhfFXa5brfHa0F_O3PTqe_pAanFWeqre1La5BouHQg0OcObCtHSDbfLpmgdpie7s8HiQpEomjHkKQIY5tJvGdjBKjcJHOdqqgiGhioLyVbutI94Idk5RcInfO-Dd0UCjOLdcJvnEYpc-Tbhkf6yLGJ76xc7aZPP5uoQisk45nV1ZuxKEras80TdeQqksi1ehTedekXzS3Va3whU-FMVQM9Bh-_C74DujxU0tXXhvNTMgQ1ncGEYJ1voYxcZe8-LdCasfEsE2jbiEB4yzS6U8FJgzarCi6W9yoo2Vt1Ry0BhMcTm-zi-cHsF2eCndPdQNV9SHXjMCuU8dMldNfQe_ju-CHwqqh4-7eVahMxQr62AytrPHeiyC3Bk0-URDo8Rxsn-OSct7jHjHT5ux9boSs25iVBKj2NGJ9fH3Xz1hFDaGkMBixqNSGfPUO1Oay5kXBl5xKR7b-HJr7zNV0Kmflxd_Ujs42vMUlLghO5L_8eTCQieDVZO0-QU-96C56ZdQkXlHtw_EZP2a52LOxQGS0KdACnZwKrUDSymkk-Sbzy_m40]--></g></svg>