<?xml version="1.0" encoding="us-ascii" standalone="no"?><svg xmlns="http://www.w3.org/2000/svg" xmlns:xlink="http://www.w3.org/1999/xlink" contentStyleType="text/css" height="569.1px" preserveAspectRatio="none" style="width:565px;height:569px;background:#FFFFFF;" version="1.1" viewBox="0 0 565 569" width="565.6px" zoomAndPan="magnify"><defs/><g><!--class AgendaController--><g id="elem_AgendaController"><rect codeLine="1" fill="#F1F1F1" height="137.8781" id="AgendaController" rx="1.75" ry="1.75" style="stroke:#181818;stroke-width:0.3499999999999999;" width="439.6" x="8.75" y="4.9"/><ellipse cx="186.725" cy="16.1" fill="#ADD1B2" rx="7.7" ry="7.7" style="stroke:#181818;stroke-width:0.6999999999999998;"/><path d="M188.6609,13.2125 Q188.7703,13.0594 188.9016,12.9828 Q189.0328,12.9062 189.1859,12.9062 Q189.4484,12.9062 189.6125,13.0922 Q189.7766,13.2672 189.7766,13.6937 L189.7766,14.7109 Q189.7766,15.1375 189.6125,15.3234 Q189.4484,15.5094 189.1859,15.5094 Q188.9453,15.5094 188.8031,15.3672 Q188.6609,15.2359 188.5844,14.875 Q188.5516,14.6234 188.4203,14.4922 Q188.1906,14.2297 187.7641,14.0766 Q187.3375,13.9234 186.9,13.9234 Q186.3641,13.9234 185.9156,14.1531 Q185.4781,14.3828 185.1281,14.9078 Q184.7891,15.4328 184.7891,16.1547 L184.7891,16.9203 Q184.7891,17.7844 185.4125,18.3641 Q186.0359,18.9328 187.1516,18.9328 Q187.8078,18.9328 188.2672,18.7578 Q188.5406,18.6484 188.8359,18.3422 Q189.0219,18.1562 189.1203,18.1016 Q189.2297,18.0469 189.3719,18.0469 Q189.6016,18.0469 189.7766,18.2328 Q189.9625,18.4078 189.9625,18.6484 Q189.9625,18.8891 189.7219,19.1734 Q189.3719,19.5781 188.8141,19.8078 Q188.0594,20.125 187.1516,20.125 Q186.0906,20.125 185.2484,19.6875 Q184.5594,19.3375 184.0781,18.5937 Q183.5969,17.8391 183.5969,16.9422 L183.5969,16.1328 Q183.5969,15.2031 184.0234,14.4047 Q184.4609,13.5953 185.2266,13.1687 Q185.9922,12.7312 186.8562,12.7312 Q187.3703,12.7312 187.8187,12.8516 Q188.2781,12.9609 188.6609,13.2125 Z " fill="#000000"/><text fill="#000000" font-family="sans-serif" font-size="9.8" lengthAdjust="spacing" textLength="77.7" x="201.075" y="20.1578">AgendaController</text><line style="stroke:#181818;stroke-width:0.3499999999999999;" x1="9.45" x2="447.65" y1="27.3" y2="27.3"/><rect fill="none" height="4.2" style="stroke:#C82930;stroke-width:0.6999999999999998;" width="4.2" x="14.35" y="35.5674"/><text fill="#000000" font-family="sans-serif" font-size="9.8" lengthAdjust="spacing" textLength="73.5" x="22.75" y="40.6752">agenda: Agenda</text><rect fill="none" height="4.2" style="stroke:#C82930;stroke-width:0.6999999999999998;" width="4.2" x="14.35" y="48.6021"/><text fill="#000000" font-family="sans-serif" font-size="9.8" lengthAdjust="spacing" textLength="112.7" x="22.75" y="53.71">repositories: Repositories</text><line style="stroke:#181818;stroke-width:0.3499999999999999;" x1="9.45" x2="447.65" y1="58.9695" y2="58.9695"/><ellipse cx="16.45" cy="69.3369" fill="#84BE84" rx="2.1" ry="2.1" style="stroke:#038048;stroke-width:0.6999999999999998;"/><text fill="#000000" font-family="sans-serif" font-size="9.8" lengthAdjust="spacing" textLength="248.5" x="22.75" y="72.3447">addAgendaEntry(task: Task, entryDate: String): boolean</text><ellipse cx="16.45" cy="82.3717" fill="#84BE84" rx="2.1" ry="2.1" style="stroke:#038048;stroke-width:0.6999999999999998;"/><text fill="#000000" font-family="sans-serif" font-size="9.8" lengthAdjust="spacing" textLength="226.1" x="22.75" y="85.3795">getActiveAgendaEntries(): ArrayList&lt;AgendaEntry&gt;</text><ellipse cx="16.45" cy="95.4064" fill="#84BE84" rx="2.1" ry="2.1" style="stroke:#038048;stroke-width:0.6999999999999998;"/><text fill="#000000" font-family="sans-serif" font-size="9.8" lengthAdjust="spacing" textLength="272.3" x="22.75" y="98.4143">getUnassignedVehicles(ae: AgendaEntry): ArrayList&lt;Vehicle&gt;</text><rect fill="#F24D5C" height="4.2" style="stroke:#C82930;stroke-width:0.6999999999999998;" width="4.2" x="14.35" y="106.3412"/><text fill="#000000" font-family="sans-serif" font-size="9.8" lengthAdjust="spacing" textLength="421.4" x="22.75" y="111.449">addMinutesToSchedule(schedule: ArrayList&lt;DaySchedule&gt;, date: LocalDate, minutes: int): void</text><rect fill="#F24D5C" height="4.2" style="stroke:#C82930;stroke-width:0.6999999999999998;" width="4.2" x="14.35" y="119.376"/><text fill="#000000" font-family="sans-serif" font-size="9.8" lengthAdjust="spacing" textLength="360.5" x="22.75" y="124.4838">getUsedMinutesForDate(schedule: ArrayList&lt;DaySchedule&gt;, date: LocalDate): int</text><rect fill="#F24D5C" height="4.2" style="stroke:#C82930;stroke-width:0.6999999999999998;" width="4.2" x="14.35" y="132.4107"/><text fill="#000000" font-family="sans-serif" font-size="9.8" lengthAdjust="spacing" textLength="347.9" x="22.75" y="137.5186">calculateTaskEndDate(startDate: LocalDate, durationInMinutes: int): LocalDate</text></g><!--class Agenda--><g id="elem_Agenda"><rect codeLine="12" fill="#F1F1F1" height="46.6348" id="Agenda" rx="1.75" ry="1.75" style="stroke:#181818;stroke-width:0.3499999999999999;" width="196" x="8.05" y="210.7"/><ellipse cx="85.925" cy="221.9" fill="#ADD1B2" rx="7.7" ry="7.7" style="stroke:#181818;stroke-width:0.6999999999999998;"/><path d="M87.8609,219.0125 Q87.9703,218.8594 88.1016,218.7828 Q88.2328,218.7062 88.3859,218.7062 Q88.6484,218.7062 88.8125,218.8922 Q88.9766,219.0672 88.9766,219.4937 L88.9766,220.5109 Q88.9766,220.9375 88.8125,221.1234 Q88.6484,221.3094 88.3859,221.3094 Q88.1453,221.3094 88.0031,221.1672 Q87.8609,221.0359 87.7844,220.675 Q87.7516,220.4234 87.6203,220.2922 Q87.3906,220.0297 86.9641,219.8766 Q86.5375,219.7234 86.1,219.7234 Q85.5641,219.7234 85.1156,219.9531 Q84.6781,220.1828 84.3281,220.7078 Q83.9891,221.2328 83.9891,221.9547 L83.9891,222.7203 Q83.9891,223.5844 84.6125,224.1641 Q85.2359,224.7328 86.3516,224.7328 Q87.0078,224.7328 87.4672,224.5578 Q87.7406,224.4484 88.0359,224.1422 Q88.2219,223.9562 88.3203,223.9016 Q88.4297,223.8469 88.5719,223.8469 Q88.8016,223.8469 88.9766,224.0328 Q89.1625,224.2078 89.1625,224.4484 Q89.1625,224.6891 88.9219,224.9734 Q88.5719,225.3781 88.0141,225.6078 Q87.2594,225.925 86.3516,225.925 Q85.2906,225.925 84.4484,225.4875 Q83.7594,225.1375 83.2781,224.3937 Q82.7969,223.6391 82.7969,222.7422 L82.7969,221.9328 Q82.7969,221.0031 83.2234,220.2047 Q83.6609,219.3953 84.4266,218.9687 Q85.1922,218.5312 86.0562,218.5312 Q86.5703,218.5312 87.0187,218.6516 Q87.4781,218.7609 87.8609,219.0125 Z " fill="#000000"/><text fill="#000000" font-family="sans-serif" font-size="9.8" lengthAdjust="spacing" textLength="34.3" x="100.275" y="225.9578">Agenda</text><line style="stroke:#181818;stroke-width:0.3499999999999999;" x1="8.75" x2="203.35" y1="233.1" y2="233.1"/><rect fill="none" height="4.2" style="stroke:#C82930;stroke-width:0.6999999999999998;" width="4.2" x="13.65" y="241.3674"/><text fill="#000000" font-family="sans-serif" font-size="9.8" lengthAdjust="spacing" textLength="177.8" x="22.05" y="246.4752">agendaEntries: ArrayList&lt;AgendaEntry&gt;</text><line style="stroke:#181818;stroke-width:0.3499999999999999;" x1="8.75" x2="203.35" y1="251.7348" y2="251.7348"/></g><!--class AgendaEntry--><g id="elem_AgendaEntry"><rect codeLine="16" fill="#F1F1F1" height="85.7391" id="AgendaEntry" rx="1.75" ry="1.75" style="stroke:#181818;stroke-width:0.3499999999999999;" width="142.1" x="35" y="325.5"/><ellipse cx="74.375" cy="336.7" fill="#ADD1B2" rx="7.7" ry="7.7" style="stroke:#181818;stroke-width:0.6999999999999998;"/><path d="M76.3109,333.8125 Q76.4203,333.6594 76.5516,333.5828 Q76.6828,333.5062 76.8359,333.5062 Q77.0984,333.5062 77.2625,333.6922 Q77.4266,333.8672 77.4266,334.2937 L77.4266,335.3109 Q77.4266,335.7375 77.2625,335.9234 Q77.0984,336.1094 76.8359,336.1094 Q76.5953,336.1094 76.4531,335.9672 Q76.3109,335.8359 76.2344,335.475 Q76.2016,335.2234 76.0703,335.0922 Q75.8406,334.8297 75.4141,334.6766 Q74.9875,334.5234 74.55,334.5234 Q74.0141,334.5234 73.5656,334.7531 Q73.1281,334.9828 72.7781,335.5078 Q72.4391,336.0328 72.4391,336.7547 L72.4391,337.5203 Q72.4391,338.3844 73.0625,338.9641 Q73.6859,339.5328 74.8016,339.5328 Q75.4578,339.5328 75.9172,339.3578 Q76.1906,339.2484 76.4859,338.9422 Q76.6719,338.7562 76.7703,338.7016 Q76.8797,338.6469 77.0219,338.6469 Q77.2516,338.6469 77.4266,338.8328 Q77.6125,339.0078 77.6125,339.2484 Q77.6125,339.4891 77.3719,339.7734 Q77.0219,340.1781 76.4641,340.4078 Q75.7094,340.725 74.8016,340.725 Q73.7406,340.725 72.8984,340.2875 Q72.2094,339.9375 71.7281,339.1937 Q71.2469,338.4391 71.2469,337.5422 L71.2469,336.7328 Q71.2469,335.8031 71.6734,335.0047 Q72.1109,334.1953 72.8766,333.7687 Q73.6422,333.3312 74.5062,333.3312 Q75.0203,333.3312 75.4687,333.4516 Q75.9281,333.5609 76.3109,333.8125 Z " fill="#000000"/><text fill="#000000" font-family="sans-serif" font-size="9.8" lengthAdjust="spacing" textLength="57.4" x="88.725" y="340.7578">AgendaEntry</text><line style="stroke:#181818;stroke-width:0.3499999999999999;" x1="35.7" x2="176.4" y1="347.9" y2="347.9"/><rect fill="none" height="4.2" style="stroke:#C82930;stroke-width:0.6999999999999998;" width="4.2" x="40.6" y="356.1674"/><text fill="#000000" font-family="sans-serif" font-size="9.8" lengthAdjust="spacing" textLength="96.6" x="49" y="361.2752">associatedTask: Task</text><rect fill="none" height="4.2" style="stroke:#C82930;stroke-width:0.6999999999999998;" width="4.2" x="40.6" y="369.2021"/><text fill="#000000" font-family="sans-serif" font-size="9.8" lengthAdjust="spacing" textLength="52.5" x="49" y="374.31">team: Team</text><rect fill="none" height="4.2" style="stroke:#C82930;stroke-width:0.6999999999999998;" width="4.2" x="40.6" y="382.2369"/><text fill="#000000" font-family="sans-serif" font-size="9.8" lengthAdjust="spacing" textLength="70" x="49" y="387.3447">date: LocalDate</text><rect fill="none" height="4.2" style="stroke:#C82930;stroke-width:0.6999999999999998;" width="4.2" x="40.6" y="395.2717"/><text fill="#000000" font-family="sans-serif" font-size="9.8" lengthAdjust="spacing" textLength="123.9" x="49" y="400.3795">vehicles: ArrayList&lt;Vehicle&gt;</text><line style="stroke:#181818;stroke-width:0.3499999999999999;" x1="35.7" x2="176.4" y1="405.6391" y2="405.6391"/></g><!--class Repositories--><g id="elem_Repositories"><rect codeLine="23" fill="#F1F1F1" height="98.7738" id="Repositories" rx="1.75" ry="1.75" style="stroke:#181818;stroke-width:0.3499999999999999;" width="244.3" x="228.9" y="184.8"/><ellipse cx="320.425" cy="196" fill="#ADD1B2" rx="7.7" ry="7.7" style="stroke:#181818;stroke-width:0.6999999999999998;"/><path d="M322.3609,193.1125 Q322.4703,192.9594 322.6016,192.8828 Q322.7328,192.8062 322.8859,192.8062 Q323.1484,192.8062 323.3125,192.9922 Q323.4766,193.1672 323.4766,193.5937 L323.4766,194.6109 Q323.4766,195.0375 323.3125,195.2234 Q323.1484,195.4094 322.8859,195.4094 Q322.6453,195.4094 322.5031,195.2672 Q322.3609,195.1359 322.2844,194.775 Q322.2516,194.5234 322.1203,194.3922 Q321.8906,194.1297 321.4641,193.9766 Q321.0375,193.8234 320.6,193.8234 Q320.0641,193.8234 319.6156,194.0531 Q319.1781,194.2828 318.8281,194.8078 Q318.4891,195.3328 318.4891,196.0547 L318.4891,196.8203 Q318.4891,197.6844 319.1125,198.2641 Q319.7359,198.8328 320.8516,198.8328 Q321.5078,198.8328 321.9672,198.6578 Q322.2406,198.5484 322.5359,198.2422 Q322.7219,198.0562 322.8203,198.0016 Q322.9297,197.9469 323.0719,197.9469 Q323.3016,197.9469 323.4766,198.1328 Q323.6625,198.3078 323.6625,198.5484 Q323.6625,198.7891 323.4219,199.0734 Q323.0719,199.4781 322.5141,199.7078 Q321.7594,200.025 320.8516,200.025 Q319.7906,200.025 318.9484,199.5875 Q318.2594,199.2375 317.7781,198.4937 Q317.2969,197.7391 317.2969,196.8422 L317.2969,196.0328 Q317.2969,195.1031 317.7234,194.3047 Q318.1609,193.4953 318.9266,193.0687 Q319.6922,192.6312 320.5562,192.6312 Q321.0703,192.6312 321.5187,192.7516 Q321.9781,192.8609 322.3609,193.1125 Z " fill="#000000"/><text fill="#000000" font-family="sans-serif" font-size="9.8" lengthAdjust="spacing" textLength="55.3" x="334.775" y="200.0578">Repositories</text><line style="stroke:#181818;stroke-width:0.3499999999999999;" x1="229.6" x2="472.5" y1="207.2" y2="207.2"/><rect fill="none" height="4.2" style="stroke:#C82930;stroke-width:0.6999999999999998;" width="4.2" x="234.5" y="215.4674"/><text fill="#000000" font-family="sans-serif" font-size="9.8" lengthAdjust="spacing" textLength="98" x="242.9" y="220.5752">instance: Repositories</text><rect fill="none" height="4.2" style="stroke:#C82930;stroke-width:0.6999999999999998;" width="4.2" x="234.5" y="228.5021"/><text fill="#000000" font-family="sans-serif" font-size="9.8" lengthAdjust="spacing" textLength="217.7" x="242.9" y="233.61">collaboratorsRepository: CollaboratorsRepository</text><rect fill="none" height="4.2" style="stroke:#C82930;stroke-width:0.6999999999999998;" width="4.2" x="234.5" y="241.5369"/><text fill="#000000" font-family="sans-serif" font-size="9.8" lengthAdjust="spacing" textLength="144.2" x="242.9" y="246.6447">skillsRepository: SkillsRepository</text><rect fill="none" height="4.2" style="stroke:#C82930;stroke-width:0.6999999999999998;" width="4.2" x="234.5" y="254.5717"/><text fill="#000000" font-family="sans-serif" font-size="9.8" lengthAdjust="spacing" textLength="139.3" x="242.9" y="259.6795">jobsRepository: JobsRepository</text><rect fill="none" height="4.2" style="stroke:#C82930;stroke-width:0.6999999999999998;" width="4.2" x="234.5" y="267.6064"/><text fill="#000000" font-family="sans-serif" font-size="9.8" lengthAdjust="spacing" textLength="226.1" x="242.9" y="272.7143">authenticationRepository: AuthenticationRepository</text><line style="stroke:#181818;stroke-width:0.3499999999999999;" x1="229.6" x2="472.5" y1="277.9738" y2="277.9738"/></g><!--class DaySchedule--><g id="elem_DaySchedule"><rect codeLine="31" fill="#F1F1F1" height="59.6695" id="DaySchedule" rx="1.75" ry="1.75" style="stroke:#181818;stroke-width:0.3499999999999999;" width="88.2" x="472.85" y="44.1"/><ellipse cx="486.5" cy="55.3" fill="#ADD1B2" rx="7.7" ry="7.7" style="stroke:#181818;stroke-width:0.6999999999999998;"/><path d="M488.4359,52.4125 Q488.5453,52.2594 488.6766,52.1828 Q488.8078,52.1062 488.9609,52.1062 Q489.2234,52.1062 489.3875,52.2922 Q489.5516,52.4672 489.5516,52.8937 L489.5516,53.9109 Q489.5516,54.3375 489.3875,54.5234 Q489.2234,54.7094 488.9609,54.7094 Q488.7203,54.7094 488.5781,54.5672 Q488.4359,54.4359 488.3594,54.075 Q488.3266,53.8234 488.1953,53.6922 Q487.9656,53.4297 487.5391,53.2766 Q487.1125,53.1234 486.675,53.1234 Q486.1391,53.1234 485.6906,53.3531 Q485.2531,53.5828 484.9031,54.1078 Q484.5641,54.6328 484.5641,55.3547 L484.5641,56.1203 Q484.5641,56.9844 485.1875,57.5641 Q485.8109,58.1328 486.9266,58.1328 Q487.5828,58.1328 488.0422,57.9578 Q488.3156,57.8484 488.6109,57.5422 Q488.7969,57.3562 488.8953,57.3016 Q489.0047,57.2469 489.1469,57.2469 Q489.3766,57.2469 489.5516,57.4328 Q489.7375,57.6078 489.7375,57.8484 Q489.7375,58.0891 489.4969,58.3734 Q489.1469,58.7781 488.5891,59.0078 Q487.8344,59.325 486.9266,59.325 Q485.8656,59.325 485.0234,58.8875 Q484.3344,58.5375 483.8531,57.7937 Q483.3719,57.0391 483.3719,56.1422 L483.3719,55.3328 Q483.3719,54.4031 483.7984,53.6047 Q484.2359,52.7953 485.0016,52.3687 Q485.7672,51.9312 486.6312,51.9312 Q487.1453,51.9312 487.5937,52.0516 Q488.0531,52.1609 488.4359,52.4125 Z " fill="#000000"/><text fill="#000000" font-family="sans-serif" font-size="9.8" lengthAdjust="spacing" textLength="58.8" x="497" y="59.3578">DaySchedule</text><line style="stroke:#181818;stroke-width:0.3499999999999999;" x1="473.55" x2="560.35" y1="66.5" y2="66.5"/><rect fill="none" height="4.2" style="stroke:#C82930;stroke-width:0.6999999999999998;" width="4.2" x="478.45" y="74.7674"/><text fill="#000000" font-family="sans-serif" font-size="9.8" lengthAdjust="spacing" textLength="70" x="486.85" y="79.8752">date: LocalDate</text><rect fill="none" height="4.2" style="stroke:#C82930;stroke-width:0.6999999999999998;" width="4.2" x="478.45" y="87.8021"/><text fill="#000000" font-family="sans-serif" font-size="9.8" lengthAdjust="spacing" textLength="50.4" x="486.85" y="92.91">minutes: int</text><line style="stroke:#181818;stroke-width:0.3499999999999999;" x1="473.55" x2="560.35" y1="98.1695" y2="98.1695"/></g><!--class Task--><g id="elem_Task"><rect codeLine="36" fill="#F1F1F1" height="111.8086" id="Task" rx="1.75" ry="1.75" style="stroke:#181818;stroke-width:0.3499999999999999;" width="202.3" x="4.9" y="452.9"/><ellipse cx="92.225" cy="464.1" fill="#ADD1B2" rx="7.7" ry="7.7" style="stroke:#181818;stroke-width:0.6999999999999998;"/><path d="M94.1609,461.2125 Q94.2703,461.0594 94.4016,460.9828 Q94.5328,460.9062 94.6859,460.9062 Q94.9484,460.9062 95.1125,461.0922 Q95.2766,461.2672 95.2766,461.6937 L95.2766,462.7109 Q95.2766,463.1375 95.1125,463.3234 Q94.9484,463.5094 94.6859,463.5094 Q94.4453,463.5094 94.3031,463.3672 Q94.1609,463.2359 94.0844,462.875 Q94.0516,462.6234 93.9203,462.4922 Q93.6906,462.2297 93.2641,462.0766 Q92.8375,461.9234 92.4,461.9234 Q91.8641,461.9234 91.4156,462.1531 Q90.9781,462.3828 90.6281,462.9078 Q90.2891,463.4328 90.2891,464.1547 L90.2891,464.9203 Q90.2891,465.7844 90.9125,466.3641 Q91.5359,466.9328 92.6516,466.9328 Q93.3078,466.9328 93.7672,466.7578 Q94.0406,466.6484 94.3359,466.3422 Q94.5219,466.1562 94.6203,466.1016 Q94.7297,466.0469 94.8719,466.0469 Q95.1016,466.0469 95.2766,466.2328 Q95.4625,466.4078 95.4625,466.6484 Q95.4625,466.8891 95.2219,467.1734 Q94.8719,467.5781 94.3141,467.8078 Q93.5594,468.125 92.6516,468.125 Q91.5906,468.125 90.7484,467.6875 Q90.0594,467.3375 89.5781,466.5937 Q89.0969,465.8391 89.0969,464.9422 L89.0969,464.1328 Q89.0969,463.2031 89.5234,462.4047 Q89.9609,461.5953 90.7266,461.1687 Q91.4922,460.7312 92.3562,460.7312 Q92.8703,460.7312 93.3187,460.8516 Q93.7781,460.9609 94.1609,461.2125 Z " fill="#000000"/><text fill="#000000" font-family="sans-serif" font-size="9.8" lengthAdjust="spacing" textLength="21.7" x="106.575" y="468.1578">Task</text><line style="stroke:#181818;stroke-width:0.3499999999999999;" x1="5.6" x2="206.5" y1="475.3" y2="475.3"/><rect fill="none" height="4.2" style="stroke:#C82930;stroke-width:0.6999999999999998;" width="4.2" x="10.5" y="483.5674"/><text fill="#000000" font-family="sans-serif" font-size="9.8" lengthAdjust="spacing" textLength="79.8" x="18.9" y="488.6752">description: String</text><rect fill="none" height="4.2" style="stroke:#C82930;stroke-width:0.6999999999999998;" width="4.2" x="10.5" y="496.6021"/><text fill="#000000" font-family="sans-serif" font-size="9.8" lengthAdjust="spacing" textLength="74.9" x="18.9" y="501.71">taskName: String</text><rect fill="none" height="4.2" style="stroke:#C82930;stroke-width:0.6999999999999998;" width="4.2" x="10.5" y="509.6369"/><text fill="#000000" font-family="sans-serif" font-size="9.8" lengthAdjust="spacing" textLength="115.5" x="18.9" y="514.7447">greenSpace: GreenSpace</text><rect fill="none" height="4.2" style="stroke:#C82930;stroke-width:0.6999999999999998;" width="4.2" x="10.5" y="522.6717"/><text fill="#000000" font-family="sans-serif" font-size="9.8" lengthAdjust="spacing" textLength="96.6" x="18.9" y="527.7795">estimatedDuration: int</text><rect fill="none" height="4.2" style="stroke:#C82930;stroke-width:0.6999999999999998;" width="4.2" x="10.5" y="535.7064"/><text fill="#000000" font-family="sans-serif" font-size="9.8" lengthAdjust="spacing" textLength="184.1" x="18.9" y="540.8143">taskUrgencyDegree: TaskUrgencyDegree</text><rect fill="none" height="4.2" style="stroke:#C82930;stroke-width:0.6999999999999998;" width="4.2" x="10.5" y="548.7412"/><text fill="#000000" font-family="sans-serif" font-size="9.8" lengthAdjust="spacing" textLength="101.5" x="18.9" y="553.849">taskStatus: TaskStatus</text><line style="stroke:#181818;stroke-width:0.3499999999999999;" x1="5.6" x2="206.5" y1="559.1086" y2="559.1086"/></g><!--link AgendaController to Agenda--><g id="link_AgendaController_Agenda"><path codeLine="45" d="M175.889,142.863 C157.15,167.167 137.312,192.899 123.592,210.7 " fill="none" id="AgendaController-Agenda" style="stroke:#181818;stroke-width:0.6999999999999998;"/><text fill="#000000" font-family="sans-serif" font-size="9.1" lengthAdjust="spacing" textLength="4.9" x="166.9418" y="158.1962">1</text><text fill="#000000" font-family="sans-serif" font-size="9.1" lengthAdjust="spacing" textLength="4.9" x="121.6632" y="202.8779">1</text></g><!--link AgendaController to Repositories--><g id="link_AgendaController_Repositories"><path codeLine="46" d="M281.211,142.863 C292.04,156.905 303.233,171.43 313.404,184.618 " fill="none" id="AgendaController-Repositories" style="stroke:#181818;stroke-width:0.6999999999999998;"/><text fill="#000000" font-family="sans-serif" font-size="9.1" lengthAdjust="spacing" textLength="4.9" x="279.9984" y="158.1962">1</text><text fill="#000000" font-family="sans-serif" font-size="9.1" lengthAdjust="spacing" textLength="4.9" x="304.3691" y="176.8229">1</text></g><!--link Agenda to AgendaEntry--><g id="link_Agenda_AgendaEntry"><path codeLine="47" d="M106.05,257.656 C106.05,276.248 106.05,303.009 106.05,325.465 " fill="none" id="Agenda-AgendaEntry" style="stroke:#181818;stroke-width:0.6999999999999998;"/><text fill="#000000" font-family="sans-serif" font-size="9.1" lengthAdjust="spacing" textLength="4.9" x="100.7136" y="272.7644">1</text><text fill="#000000" font-family="sans-serif" font-size="9.1" lengthAdjust="spacing" textLength="3.5" x="102.3477" y="317.7478">*</text></g><!--link AgendaEntry to Task--><g id="link_AgendaEntry_Task"><path codeLine="48" d="M106.05,411.075 C106.05,424.207 106.05,438.893 106.05,452.788 " fill="none" id="AgendaEntry-Task" style="stroke:#181818;stroke-width:0.6999999999999998;"/><text fill="#000000" font-family="sans-serif" font-size="9.1" lengthAdjust="spacing" textLength="4.9" x="100.8667" y="426.5324">1</text><text fill="#000000" font-family="sans-serif" font-size="9.1" lengthAdjust="spacing" textLength="4.9" x="100.9241" y="445.0047">1</text></g><!--SRC=[bLGzRzim4DtrAmXFJciFNON2W16bGOkaG-LqFvC7cGbD6YHbG2ZwttiKAPbqdGBr89DtxzvzFOahS8vjEzG2xetsrYY5blsg6FtMCDhhv8ysYoVZf3TMeglPZ-ms-Z-2417-G6p3qeDxgzcEdYk6mTA0nvgrtahTtTLiRun2q36sGx_bNfxnma2yIu9jhONXIJh_EIFVp54lcjgGdKRn4m-IAme2dEeUiGL70crIbq8yIzrxT3lJyWEANk7IfKCUri0m-JSh9iP6dWm75NfQiMCagPdKdjATZHGnGIZGuPJaYx41__yPxaRcI4actYioXia-Q14PFLZVN9SbUWjU6lrLFvS5pfZgTrNnJ0Zb-jCMtjt1LV1edHcSCrnI2h6RTH0z7k58Tth6-rMlqNXEoxovkpblhi4fiTGq3CtnXaBNd3GEUqDJCTRDxg5czxSTCSgzIQKAU7jbYRXNiozGtufx6all3_GoI3uk9aTlt_5SkiqaCZLxStQv6Y_HOG5p63fkvIaacbx8j1i2VOSZbjRE8khs166eZ_Cv-j1vUGnhRfBOCga6jXTBsk13Wu4aog0mNP2j1z-x28ddKFnV7wZ5fmLRhyU_z77w5wJGGDBuvFwmo8LRvIBE648vVm00]--></g></svg>