<?xml version="1.0" encoding="us-ascii" standalone="no"?><svg xmlns="http://www.w3.org/2000/svg" xmlns:xlink="http://www.w3.org/1999/xlink" contentStyleType="text/css" height="320.4px" preserveAspectRatio="none" style="width:464px;height:320px;background:#FFFFFF;" version="1.1" viewBox="0 0 464 320" width="464.4px" zoomAndPan="magnify"><defs/><g><rect fill="#FFFFFF" height="87.6148" style="stroke:#181818;stroke-width:0.4000000000000001;" width="4" x="123.8" y="46.7648"/><rect fill="#FFFFFF" height="98.1313" style="stroke:#181818;stroke-width:0.4000000000000001;" width="4" x="123.8" y="157.4125"/><rect fill="#FFFFFF" height="62.582" style="stroke:#181818;stroke-width:0.4000000000000001;" width="4" x="266.2" y="59.2813"/><rect fill="#FFFFFF" height="12.5164" style="stroke:#181818;stroke-width:0.4000000000000001;" width="4" x="266.2" y="169.9289"/><rect fill="#FFFFFF" height="37.5492" style="stroke:#181818;stroke-width:0.4000000000000001;" width="4" x="266.2" y="205.4781"/><rect fill="#FFFFFF" height="12.5164" style="stroke:#181818;stroke-width:0.4000000000000001;" width="4" x="317" y="71.7977"/><rect fill="#FFFFFF" height="12.5164" style="stroke:#181818;stroke-width:0.4000000000000001;" width="4" x="374.6" y="96.8305"/><rect fill="#FFFFFF" height="12.5164" style="stroke:#181818;stroke-width:0.4000000000000001;" width="4" x="432.8" y="217.9945"/><rect fill="none" height="140.3328" style="stroke:#000000;stroke-width:0.6000000000000001;" width="458" x="4" y="140.3797"/><rect fill="none" height="89.4672" style="stroke:#000000;stroke-width:0.6000000000000001;" width="450" x="8" y="188.4453"/><line style="stroke:#181818;stroke-width:0.20000000000000004;stroke-dasharray:5.0,5.0;" x1="19.2" x2="19.2" y1="33.4484" y2="287.5125"/><line style="stroke:#181818;stroke-width:0.20000000000000004;stroke-dasharray:5.0,5.0;" x1="125.8" x2="125.8" y1="33.4484" y2="287.5125"/><line style="stroke:#181818;stroke-width:0.20000000000000004;stroke-dasharray:5.0,5.0;" x1="268" x2="268" y1="33.4484" y2="287.5125"/><line style="stroke:#181818;stroke-width:0.20000000000000004;stroke-dasharray:5.0,5.0;" x1="318.8" x2="318.8" y1="33.4484" y2="287.5125"/><line style="stroke:#181818;stroke-width:0.20000000000000004;stroke-dasharray:5.0,5.0;" x1="376.4" x2="376.4" y1="33.4484" y2="287.5125"/><line style="stroke:#181818;stroke-width:0.20000000000000004;stroke-dasharray:5.0,5.0;" x1="434.8" x2="434.8" y1="33.4484" y2="287.5125"/><text fill="#000000" font-family="sans-serif" font-size="5.6" lengthAdjust="spacing" textLength="12.4" x="12" y="32.043">GSM</text><ellipse cx="19.4" cy="5.4" fill="#E2E2F0" rx="3.2" ry="3.2" style="stroke:#181818;stroke-width:0.20000000000000004;"/><path d="M19.4,8.6 L19.4,19.4 M14.2,11.8 L24.6,11.8 M19.4,19.4 L14.2,25.4 M19.4,19.4 L24.6,25.4 " fill="none" style="stroke:#181818;stroke-width:0.20000000000000004;"/><text fill="#000000" font-family="sans-serif" font-size="5.6" lengthAdjust="spacing" textLength="12.4" x="12" y="293.1555">GSM</text><ellipse cx="19.4" cy="297.9609" fill="#E2E2F0" rx="3.2" ry="3.2" style="stroke:#181818;stroke-width:0.20000000000000004;"/><path d="M19.4,301.1609 L19.4,311.9609 M14.2,304.3609 L24.6,304.3609 M19.4,311.9609 L14.2,317.9609 M19.4,311.9609 L24.6,317.9609 " fill="none" style="stroke:#181818;stroke-width:0.20000000000000004;"/><rect fill="#E2E2F0" height="13.0484" rx="1" ry="1" style="stroke:#181818;stroke-width:0.20000000000000004;" width="34.4" x="108.6" y="20"/><text fill="#000000" font-family="sans-serif" font-size="5.6" lengthAdjust="spacing" textLength="28.8" x="111.4" y="28.843">AgendaGUI</text><rect fill="#E2E2F0" height="13.0484" rx="1" ry="1" style="stroke:#181818;stroke-width:0.20000000000000004;" width="34.4" x="108.6" y="287.1125"/><text fill="#000000" font-family="sans-serif" font-size="5.6" lengthAdjust="spacing" textLength="28.8" x="111.4" y="295.9555">AgendaGUI</text><rect fill="#E2E2F0" height="13.0484" rx="1" ry="1" style="stroke:#181818;stroke-width:0.20000000000000004;" width="50" x="243.2" y="20"/><text fill="#000000" font-family="sans-serif" font-size="5.6" lengthAdjust="spacing" textLength="44.4" x="246" y="28.843">AgendaController</text><rect fill="#E2E2F0" height="13.0484" rx="1" ry="1" style="stroke:#181818;stroke-width:0.20000000000000004;" width="50" x="243.2" y="287.1125"/><text fill="#000000" font-family="sans-serif" font-size="5.6" lengthAdjust="spacing" textLength="44.4" x="246" y="295.9555">AgendaController</text><rect fill="#E2E2F0" height="13.0484" rx="1" ry="1" style="stroke:#181818;stroke-width:0.20000000000000004;" width="37.2" x="300.4" y="20"/><text fill="#000000" font-family="sans-serif" font-size="5.6" lengthAdjust="spacing" textLength="31.6" x="303.2" y="28.843">Repositories</text><rect fill="#E2E2F0" height="13.0484" rx="1" ry="1" style="stroke:#181818;stroke-width:0.20000000000000004;" width="37.2" x="300.4" y="287.1125"/><text fill="#000000" font-family="sans-serif" font-size="5.6" lengthAdjust="spacing" textLength="31.6" x="303.2" y="295.9555">Repositories</text><rect fill="#E2E2F0" height="13.0484" rx="1" ry="1" style="stroke:#181818;stroke-width:0.20000000000000004;" width="70" x="341.6" y="20"/><text fill="#000000" font-family="sans-serif" font-size="5.6" lengthAdjust="spacing" textLength="64.4" x="344.4" y="28.843">AgendaEntriesRepository</text><rect fill="#E2E2F0" height="13.0484" rx="1" ry="1" style="stroke:#181818;stroke-width:0.20000000000000004;" width="70" x="341.6" y="287.1125"/><text fill="#000000" font-family="sans-serif" font-size="5.6" lengthAdjust="spacing" textLength="64.4" x="344.4" y="295.9555">AgendaEntriesRepository</text><rect fill="#E2E2F0" height="13.0484" rx="1" ry="1" style="stroke:#181818;stroke-width:0.20000000000000004;" width="38.4" x="415.6" y="20"/><text fill="#000000" font-family="sans-serif" font-size="5.6" lengthAdjust="spacing" textLength="32.8" x="418.4" y="28.843">AgendaEntry</text><rect fill="#E2E2F0" height="13.0484" rx="1" ry="1" style="stroke:#181818;stroke-width:0.20000000000000004;" width="38.4" x="415.6" y="287.1125"/><text fill="#000000" font-family="sans-serif" font-size="5.6" lengthAdjust="spacing" textLength="32.8" x="418.4" y="295.9555">AgendaEntry</text><rect fill="#FFFFFF" height="87.6148" style="stroke:#181818;stroke-width:0.4000000000000001;" width="4" x="123.8" y="46.7648"/><rect fill="#FFFFFF" height="98.1313" style="stroke:#181818;stroke-width:0.4000000000000001;" width="4" x="123.8" y="157.4125"/><rect fill="#FFFFFF" height="62.582" style="stroke:#181818;stroke-width:0.4000000000000001;" width="4" x="266.2" y="59.2813"/><rect fill="#FFFFFF" height="12.5164" style="stroke:#181818;stroke-width:0.4000000000000001;" width="4" x="266.2" y="169.9289"/><rect fill="#FFFFFF" height="37.5492" style="stroke:#181818;stroke-width:0.4000000000000001;" width="4" x="266.2" y="205.4781"/><rect fill="#FFFFFF" height="12.5164" style="stroke:#181818;stroke-width:0.4000000000000001;" width="4" x="317" y="71.7977"/><rect fill="#FFFFFF" height="12.5164" style="stroke:#181818;stroke-width:0.4000000000000001;" width="4" x="374.6" y="96.8305"/><rect fill="#FFFFFF" height="12.5164" style="stroke:#181818;stroke-width:0.4000000000000001;" width="4" x="432.8" y="217.9945"/><polygon fill="#181818" points="119,45.1648,123,46.7648,119,48.3648,120.6,46.7648" style="stroke:#181818;stroke-width:0.4000000000000001;"/><line style="stroke:#181818;stroke-width:0.4000000000000001;" x1="19.4" x2="121.4" y1="46.7648" y2="46.7648"/><text fill="#000000" font-family="sans-serif" font-size="5.2" lengthAdjust="spacing" textLength="79.2" x="22.2" y="44.6598">Clicks on "Postpone Entry" button</text><polygon fill="#181818" points="261.4,57.6813,265.4,59.2813,261.4,60.8813,263,59.2813" style="stroke:#181818;stroke-width:0.4000000000000001;"/><line style="stroke:#181818;stroke-width:0.4000000000000001;" x1="127.8" x2="263.8" y1="59.2813" y2="59.2813"/><text fill="#000000" font-family="sans-serif" font-size="5.2" lengthAdjust="spacing" textLength="58.4" x="130.6" y="57.1762">getActiveAgendaEntries()</text><polygon fill="#181818" points="312.2,70.1977,316.2,71.7977,312.2,73.3977,313.8,71.7977" style="stroke:#181818;stroke-width:0.4000000000000001;"/><line style="stroke:#181818;stroke-width:0.4000000000000001;" x1="270.2" x2="314.6" y1="71.7977" y2="71.7977"/><text fill="#000000" font-family="sans-serif" font-size="5.2" lengthAdjust="spacing" textLength="30" x="273" y="69.6926">getInstance()</text><polygon fill="#181818" points="274.6,82.7141,270.6,84.3141,274.6,85.9141,273,84.3141" style="stroke:#181818;stroke-width:0.4000000000000001;"/><line style="stroke:#181818;stroke-width:0.4000000000000001;stroke-dasharray:2.0,2.0;" x1="272.2" x2="318.6" y1="84.3141" y2="84.3141"/><text fill="#000000" font-family="sans-serif" font-size="5.2" lengthAdjust="spacing" textLength="37.2" x="277" y="82.209">returns instance</text><polygon fill="#181818" points="369.8,95.2305,373.8,96.8305,369.8,98.4305,371.4,96.8305" style="stroke:#181818;stroke-width:0.4000000000000001;"/><line style="stroke:#181818;stroke-width:0.4000000000000001;" x1="270.2" x2="372.2" y1="96.8305" y2="96.8305"/><text fill="#000000" font-family="sans-serif" font-size="5.2" lengthAdjust="spacing" textLength="58.4" x="273" y="94.7254">getActiveAgendaEntries()</text><polygon fill="#181818" points="274.6,107.7469,270.6,109.3469,274.6,110.9469,273,109.3469" style="stroke:#181818;stroke-width:0.4000000000000001;"/><line style="stroke:#181818;stroke-width:0.4000000000000001;stroke-dasharray:2.0,2.0;" x1="272.2" x2="376.2" y1="109.3469" y2="109.3469"/><text fill="#000000" font-family="sans-serif" font-size="5.2" lengthAdjust="spacing" textLength="80.4" x="277" y="107.2418">returns list of active AgendaEntries</text><polygon fill="#181818" points="132.2,120.2633,128.2,121.8633,132.2,123.4633,130.6,121.8633" style="stroke:#181818;stroke-width:0.4000000000000001;"/><line style="stroke:#181818;stroke-width:0.4000000000000001;stroke-dasharray:2.0,2.0;" x1="129.8" x2="267.8" y1="121.8633" y2="121.8633"/><text fill="#000000" font-family="sans-serif" font-size="5.2" lengthAdjust="spacing" textLength="80.4" x="134.6" y="119.7582">returns list of active AgendaEntries</text><polygon fill="#181818" points="23.8,132.7797,19.8,134.3797,23.8,135.9797,22.2,134.3797" style="stroke:#181818;stroke-width:0.4000000000000001;"/><line style="stroke:#181818;stroke-width:0.4000000000000001;" x1="21.4" x2="125.4" y1="134.3797" y2="134.3797"/><text fill="#000000" font-family="sans-serif" font-size="5.2" lengthAdjust="spacing" textLength="80" x="26.2" y="132.2746">Shows list of active AgendaEntries</text><path d="M4,140.3797 L33.2,140.3797 L33.2,144.0961 L29.2,148.0961 L4,148.0961 L4,140.3797 " fill="#EEEEEE" style="stroke:#000000;stroke-width:0.6000000000000001;"/><rect fill="none" height="140.3328" style="stroke:#000000;stroke-width:0.6000000000000001;" width="458" x="4" y="140.3797"/><text fill="#000000" font-family="sans-serif" font-size="5.2" font-weight="bold" lengthAdjust="spacing" textLength="11.2" x="10" y="146.391">loop</text><polygon fill="#181818" points="119,155.8125,123,157.4125,119,159.0125,120.6,157.4125" style="stroke:#181818;stroke-width:0.4000000000000001;"/><line style="stroke:#181818;stroke-width:0.4000000000000001;" x1="19.4" x2="121.4" y1="157.4125" y2="157.4125"/><text fill="#000000" font-family="sans-serif" font-size="5.2" lengthAdjust="spacing" textLength="96.8" x="22.2" y="155.3074">Selects an AgendaEntry and a future date</text><polygon fill="#181818" points="261.4,168.3289,265.4,169.9289,261.4,171.5289,263,169.9289" style="stroke:#181818;stroke-width:0.4000000000000001;"/><line style="stroke:#181818;stroke-width:0.4000000000000001;" x1="127.8" x2="263.8" y1="169.9289" y2="169.9289"/><text fill="#000000" font-family="sans-serif" font-size="5.2" lengthAdjust="spacing" textLength="53.2" x="130.6" y="167.8238">isValidDate(futureDate)</text><polygon fill="#181818" points="132.2,180.8453,128.2,182.4453,132.2,184.0453,130.6,182.4453" style="stroke:#181818;stroke-width:0.4000000000000001;"/><line style="stroke:#181818;stroke-width:0.4000000000000001;stroke-dasharray:2.0,2.0;" x1="129.8" x2="267.8" y1="182.4453" y2="182.4453"/><text fill="#000000" font-family="sans-serif" font-size="5.2" lengthAdjust="spacing" textLength="53.2" x="134.6" y="180.3402">returns validation result</text><path d="M8,188.4453 L32.4,188.4453 L32.4,192.1617 L28.4,196.1617 L8,196.1617 L8,188.4453 " fill="#EEEEEE" style="stroke:#000000;stroke-width:0.6000000000000001;"/><rect fill="none" height="89.4672" style="stroke:#000000;stroke-width:0.6000000000000001;" width="450" x="8" y="188.4453"/><text fill="#000000" font-family="sans-serif" font-size="5.2" font-weight="bold" lengthAdjust="spacing" textLength="6.4" x="14" y="194.4566">alt</text><text fill="#000000" font-family="sans-serif" font-size="4.4" font-weight="bold" lengthAdjust="spacing" textLength="33.2" x="38.4" y="193.9934">[if date is valid]</text><polygon fill="#181818" points="261.4,203.8781,265.4,205.4781,261.4,207.0781,263,205.4781" style="stroke:#181818;stroke-width:0.4000000000000001;"/><line style="stroke:#181818;stroke-width:0.4000000000000001;" x1="127.8" x2="263.8" y1="205.4781" y2="205.4781"/><text fill="#000000" font-family="sans-serif" font-size="5.2" lengthAdjust="spacing" textLength="130.8" x="130.6" y="203.373">postponeAgendaEntry(selectedAgendaEntry, futureDate)</text><polygon fill="#181818" points="428,216.3945,432,217.9945,428,219.5945,429.6,217.9945" style="stroke:#181818;stroke-width:0.4000000000000001;"/><line style="stroke:#181818;stroke-width:0.4000000000000001;" x1="270.2" x2="430.4" y1="217.9945" y2="217.9945"/><text fill="#000000" font-family="sans-serif" font-size="5.2" lengthAdjust="spacing" textLength="57.2" x="273" y="215.8895">setEntryDate(futureDate)</text><polygon fill="#181818" points="274.6,228.9109,270.6,230.5109,274.6,232.1109,273,230.5109" style="stroke:#181818;stroke-width:0.4000000000000001;"/><line style="stroke:#181818;stroke-width:0.4000000000000001;stroke-dasharray:2.0,2.0;" x1="272.2" x2="434.4" y1="230.5109" y2="230.5109"/><text fill="#000000" font-family="sans-serif" font-size="5.2" lengthAdjust="spacing" textLength="37.6" x="277" y="228.4059">entry date is set</text><polygon fill="#181818" points="132.2,241.4273,128.2,243.0273,132.2,244.6273,130.6,243.0273" style="stroke:#181818;stroke-width:0.4000000000000001;"/><line style="stroke:#181818;stroke-width:0.4000000000000001;stroke-dasharray:2.0,2.0;" x1="129.8" x2="267.8" y1="243.0273" y2="243.0273"/><text fill="#000000" font-family="sans-serif" font-size="5.2" lengthAdjust="spacing" textLength="60" x="134.6" y="240.9223">returns success message</text><polygon fill="#181818" points="23.8,253.9438,19.8,255.5438,23.8,257.1438,22.2,255.5438" style="stroke:#181818;stroke-width:0.4000000000000001;"/><line style="stroke:#181818;stroke-width:0.4000000000000001;" x1="21.4" x2="125.4" y1="255.5438" y2="255.5438"/><text fill="#000000" font-family="sans-serif" font-size="5.2" lengthAdjust="spacing" textLength="59.6" x="26.2" y="253.4387">Shows success message</text><line style="stroke:#000000;stroke-width:0.4000000000000001;stroke-dasharray:2.0,2.0;" x1="8" x2="458" y1="259.1438" y2="259.1438"/><text fill="#000000" font-family="sans-serif" font-size="4.4" font-weight="bold" lengthAdjust="spacing" textLength="41.6" x="10" y="263.8918">[if date is not valid]</text><polygon fill="#181818" points="23.8,273.1125,19.8,274.7125,23.8,276.3125,22.2,274.7125" style="stroke:#181818;stroke-width:0.4000000000000001;"/><line style="stroke:#181818;stroke-width:0.4000000000000001;" x1="21.4" x2="125.4" y1="274.7125" y2="274.7125"/><text fill="#000000" font-family="sans-serif" font-size="5.2" lengthAdjust="spacing" textLength="50.4" x="26.2" y="272.6074">Shows error message</text><!--SRC=[bPHDJyCm38Rl_HNMJaE2Fy01QGA4E20X9hY7r1iH8QbYTwZ_7ZVTXpCoD7QOLiVlqzSVcR4S4ymUbaypC0Hh-cewazXPrvd0C5kiCRJcuVLnEkvTxVWs1axHUqmvo-uVo-GNx28vUPz3oeb91MhSU-78qLutP1KUegT4XyIXQQGckBePlSCrt7fdFmbYWDbp9EvYGDWgtdlc61fZsMqCOovs58dsK94WriYBCGSBa_EBWr8rG2c5emkUI8-1s0IBMbwqfP1S7Nj9o7qA16wBQLgiOqeVgeLd5QHRhhKd_NX73745cO1GWBL73TOMz_FwBr2rVZkxSVpNiFo8t-TJnj7x6Bi6v5Fipn8zMYOmGQa7UMp1mAeNimYj8BAou6LKPPqSlHdlsZl9cq-0yUT52L1bZV4_MxKPSOQTx7X2wZrdIRr7-IMUmQsoQp4poVF1ASVTzkAe1imfzmLR5Rk4utB-Akcuh6b91taT8MTUjKC5Shhmk_2a_xMYKtXNhS3tWgEz7Ag-VhMRUckH2BxaowonHgkKMbdECq2xFK9Fg6SM8jVdflcOalpLQxgCIgvp-mC0]--></g></svg>