<svg xmlns="http://www.w3.org/2000/svg" xmlns:xlink="http://www.w3.org/1999/xlink" contentStyleType="text/css" height="1008px" preserveAspectRatio="none" style="width:449px;height:1008px;background:#FFFFFF;" version="1.1" viewBox="0 0 449 1008" width="449px" zoomAndPan="magnify"><defs/><g><!--entity Player--><g id="elem_Player"><ellipse cx="52.3413" cy="675" fill="#F1F1F1" rx="8" ry="8" style="stroke:#181818;stroke-width:0.5;"/><path d="M52.3413,683 L52.3413,710 M39.3413,691 L65.3413,691 M52.3413,710 L39.3413,725 M52.3413,710 L65.3413,725 " fill="none" style="stroke:#181818;stroke-width:0.5;"/><text fill="#000000" font-family="sans-serif" font-size="14" lengthAdjust="spacing" textLength="39.6826" x="32.5" y="741.6074">Player</text></g><!--entity Editor--><g id="elem_Editor"><ellipse cx="52.2861" cy="208" fill="#F1F1F1" rx="8" ry="8" style="stroke:#181818;stroke-width:0.5;"/><path d="M52.2861,216 L52.2861,243 M39.2861,224 L65.2861,224 M52.2861,243 L39.2861,258 M52.2861,243 L65.2861,258 " fill="none" style="stroke:#181818;stroke-width:0.5;"/><text fill="#000000" font-family="sans-serif" font-size="14" lengthAdjust="spacing" textLength="36.5723" x="34" y="274.6074">Editor</text></g><!--entity Product Owner--><g id="elem_Product Owner"><ellipse cx="52.686" cy="14" fill="#F1F1F1" rx="8" ry="8" style="stroke:#181818;stroke-width:0.5;"/><path d="M52.686,22 L52.686,49 M39.686,30 L65.686,30 M52.686,49 L39.686,64 M52.686,49 L65.686,64 " fill="none" style="stroke:#181818;stroke-width:0.5;"/><text fill="#000000" font-family="sans-serif" font-size="14" lengthAdjust="spacing" textLength="93.3721" x="6" y="80.6074">Product Owner</text></g><g id="elem_UC01"><ellipse cx="331.5752" cy="123.815" fill="#F1F1F1" rx="89.5752" ry="20.315" style="stroke:#181818;stroke-width:0.5;"/><text fill="#000000" font-family="sans-serif" font-size="14" lengthAdjust="spacing" textLength="133.0547" x="262.0478" y="128.6187">UC01 - Create a map</text></g><g id="elem_UC02"><ellipse cx="331.655" cy="200.831" fill="#F1F1F1" rx="94.655" ry="21.331" style="stroke:#181818;stroke-width:0.5;"/><text fill="#000000" font-family="sans-serif" font-size="14" lengthAdjust="spacing" textLength="145.5166" x="256.0814" y="205.5804">UC02 - Add an industry</text></g><g id="elem_UC03"><ellipse cx="331.5139" cy="276.0028" fill="#F1F1F1" rx="80.5139" ry="18.5028" style="stroke:#181818;stroke-width:0.5;"/><text fill="#000000" font-family="sans-serif" font-size="14" lengthAdjust="spacing" textLength="109.71" x="273.6589" y="280.8065">UC03 - Add a city</text></g><g id="elem_UC04"><ellipse cx="331.2604" cy="351.9521" fill="#F1F1F1" rx="100.2604" ry="22.4521" style="stroke:#181818;stroke-width:0.5;"/><text fill="#000000" font-family="sans-serif" font-size="14" lengthAdjust="spacing" textLength="158.7373" x="250.8623" y="356.1265">UC04 - Create a scenario</text></g><g id="elem_UC05"><ellipse cx="331.3345" cy="430.0669" fill="#F1F1F1" rx="90.8345" ry="20.5669" style="stroke:#181818;stroke-width:0.5;"/><text fill="#000000" font-family="sans-serif" font-size="14" lengthAdjust="spacing" textLength="136.1787" x="260.2452" y="434.8706">UC05 - Build a station</text></g><g id="elem_UC06"><ellipse cx="331.2663" cy="507.9533" fill="#F1F1F1" rx="100.2663" ry="22.4533" style="stroke:#181818;stroke-width:0.5;"/><text fill="#000000" font-family="sans-serif" font-size="14" lengthAdjust="spacing" textLength="158.751" x="250.8631" y="512.1271">UC06 - Upgrade a station</text></g><g id="elem_UC07"><ellipse cx="331.4103" cy="586.8821" fill="#F1F1F1" rx="92.4103" ry="20.8821" style="stroke:#181818;stroke-width:0.5;"/><text fill="#000000" font-family="sans-serif" font-size="14" lengthAdjust="spacing" textLength="140.0547" x="258.383" y="591.6858">UC07 - List all stations</text></g><g id="elem_UC08"><ellipse cx="331.4612" cy="665.7922" fill="#F1F1F1" rx="101.9612" ry="22.7922" style="stroke:#181818;stroke-width:0.5;"/><text fill="#000000" font-family="sans-serif" font-size="14" lengthAdjust="spacing" textLength="162.6406" x="249.5995" y="669.7922">UC08 - See station details</text></g><g id="elem_UC09"><ellipse cx="331.6367" cy="746.9273" fill="#F1F1F1" rx="102.6367" ry="22.9273" style="stroke:#181818;stroke-width:0.5;"/><text fill="#000000" font-family="sans-serif" font-size="14" lengthAdjust="spacing" textLength="164.1787" x="249.1937" y="750.858">UC09 - Build a railway line</text></g><g id="elem_UC10"><ellipse cx="331.5678" cy="823.9136" fill="#F1F1F1" rx="82.5678" ry="18.9136" style="stroke:#181818;stroke-width:0.5;"/><text fill="#000000" font-family="sans-serif" font-size="14" lengthAdjust="spacing" textLength="115.1582" x="270.9887" y="828.7173">UC10 - Buy a train</text></g><g id="elem_UC11"><ellipse cx="331.6847" cy="903.2369" fill="#F1F1F1" rx="111.6847" ry="24.7369" style="stroke:#181818;stroke-width:0.5;"/><text fill="#000000" font-family="sans-serif" font-size="14" lengthAdjust="spacing" textLength="184.4199" x="239.4747" y="907.0338">UC11 - Assign train to a route</text></g><g id="elem_UC12"><ellipse cx="331.2849" cy="982.757" fill="#F1F1F1" rx="86.7849" ry="19.757" style="stroke:#181818;stroke-width:0.5;"/><text fill="#000000" font-family="sans-serif" font-size="14" lengthAdjust="spacing" textLength="126.041" x="265.2644" y="987.5607">UC12 - List all trains</text></g><g id="elem_UC13"><ellipse cx="331.4492" cy="44.7898" fill="#F1F1F1" rx="101.9492" ry="22.7898" style="stroke:#181818;stroke-width:0.5;"/><text fill="#000000" font-family="sans-serif" font-size="14" lengthAdjust="spacing" textLength="162.6133" x="249.5978" y="48.7911">UC13 - Create a simulator</text></g><!--link Editor to UC01--><g id="link_Editor_UC01"><path d="M71.22,230.07 C101.37,215.06 164.74,184.21 220,162 C238.92,154.4 254.3256,148.8302 272.9756,142.5302 " fill="none" id="Editor-to-UC01" style="stroke:#181818;stroke-width:1.0;"/><polygon fill="#181818" points="278.66,140.61,268.8532,139.7007,273.923,142.2102,271.4135,147.2799,278.66,140.61" style="stroke:#181818;stroke-width:1.0;"/></g><!--link Editor to UC02--><g id="link_Editor_UC02"><path d="M71.25,236.57 C106.65,231.71 182.0456,221.3652 244.2456,212.8352 " fill="none" id="Editor-to-UC02" style="stroke:#181818;stroke-width:1.0;"/><polygon fill="#181818" points="250.19,212.02,240.73,209.2799,245.2364,212.6993,241.8169,217.2057,250.19,212.02" style="stroke:#181818;stroke-width:1.0;"/></g><!--link Editor to UC03--><g id="link_Editor_UC03"><path d="M71.25,241.37 C108.86,246.39 192.3729,257.5449 255.6529,266.0049 " fill="none" id="Editor-to-UC03" style="stroke:#181818;stroke-width:1.0;"/><polygon fill="#181818" points="261.6,266.8,253.2094,261.6427,256.6441,266.1374,252.1493,269.5721,261.6,266.8" style="stroke:#181818;stroke-width:1.0;"/></g><!--link Editor to UC04--><g id="link_Editor_UC04"><path d="M71.32,247.28 C101.61,261.24 165.19,290.09 220,312 C238.19,319.27 252.6233,324.6815 270.6333,331.1515 " fill="none" id="Editor-to-UC04" style="stroke:#181818;stroke-width:1.0;"/><polygon fill="#181818" points="276.28,333.18,269.1623,326.3727,271.5744,331.4895,266.4576,333.9016,276.28,333.18" style="stroke:#181818;stroke-width:1.0;"/></g><!--link Player to UC05--><g id="link_Player_UC05"><path d="M71.35,666.45 C97,613.88 149.12,521.41 220,468 C233.69,457.68 244.7107,452.0043 260.9307,446.3843 " fill="none" id="Player-to-UC05" style="stroke:#181818;stroke-width:1.0;"/><polygon fill="#181818" points="266.6,444.42,256.7864,443.587,261.8756,446.057,259.4056,451.1461,266.6,444.42" style="stroke:#181818;stroke-width:1.0;"/></g><!--link Player to UC06--><g id="link_Player_UC06"><path d="M72.67,682.46 C101.45,648.49 158.97,585.69 220,548 C234.75,538.89 246.2496,533.466 262.5696,527.546 " fill="none" id="Player-to-UC06" style="stroke:#181818;stroke-width:1.0;"/><polygon fill="#181818" points="268.21,525.5,258.3854,524.8088,263.5097,527.205,261.1135,532.3293,268.21,525.5" style="stroke:#181818;stroke-width:1.0;"/></g><!--link Player to UC07--><g id="link_Player_UC07"><path d="M72.63,695.74 C103.24,679.56 165.34,647.6 220,625 C238.28,617.44 252.9754,612.0498 271.2154,605.8898 " fill="none" id="Player-to-UC07" style="stroke:#181818;stroke-width:1.0;"/><polygon fill="#181818" points="276.9,603.97,267.0933,603.06,272.1629,605.5698,269.653,610.6394,276.9,603.97" style="stroke:#181818;stroke-width:1.0;"/></g><!--link Player to UC08--><g id="link_Player_UC08"><path d="M72.54,703.25 C107.62,698.18 178.4916,687.9476 239.2216,679.1776 " fill="none" id="Player-to-UC08" style="stroke:#181818;stroke-width:1.0;"/><polygon fill="#181818" points="245.16,678.32,235.6807,675.6474,240.2113,679.0346,236.8241,683.5653,245.16,678.32" style="stroke:#181818;stroke-width:1.0;"/></g><!--link Player to UC09--><g id="link_Player_UC09"><path d="M72.54,708.82 C107.68,714.02 178.7546,724.5421 239.5346,733.5321 " fill="none" id="Player-to-UC09" style="stroke:#181818;stroke-width:1.0;"/><polygon fill="#181818" points="245.47,734.41,237.1521,729.1362,240.5238,733.6784,235.9816,737.0501,245.47,734.41" style="stroke:#181818;stroke-width:1.0;"/></g><!--link Player to UC10--><g id="link_Player_UC10"><path d="M72.57,716.51 C103.09,733.07 165.08,765.66 220,788 C239.16,795.79 254.9687,801.3126 273.8987,807.2926 " fill="none" id="Player-to-UC10" style="stroke:#181818;stroke-width:1.0;"/><polygon fill="#181818" points="279.62,809.1,272.2429,802.5747,274.8522,807.5939,269.8331,810.2032,279.62,809.1" style="stroke:#181818;stroke-width:1.0;"/></g><!--link Player to UC11--><g id="link_Player_UC11"><path d="M72.61,728.67 C101.52,761.74 159.47,823.35 220,861 C234.03,869.73 244.5668,874.9483 260.0968,880.9783 " fill="none" id="Player-to-UC11" style="stroke:#181818;stroke-width:1.0;"/><polygon fill="#181818" points="265.69,883.15,258.7481,876.1636,261.029,881.3402,255.8524,883.6212,265.69,883.15" style="stroke:#181818;stroke-width:1.0;"/></g><!--link Player to UC12--><g id="link_Player_UC12"><path d="M71.31,745.72 C96.91,798.51 148.97,891.37 220,945 C234.17,955.7 245.8768,961.5962 262.6268,967.2662 " fill="none" id="Player-to-UC12" style="stroke:#181818;stroke-width:1.0;"/><polygon fill="#181818" points="268.31,969.19,261.0677,962.5155,263.574,967.5868,258.5026,970.0931,268.31,969.19" style="stroke:#181818;stroke-width:1.0;"/></g><!--link Product Owner to UC13--><g id="link_Product Owner_UC13"><path d="M99.24,45 C134.58,45 178.84,45 223.48,45 " fill="none" id="Product Owner-to-UC13" style="stroke:#181818;stroke-width:1.0;"/><polygon fill="#181818" points="229.48,45,220.48,41,224.48,45,220.48,49,229.48,45" style="stroke:#181818;stroke-width:1.0;"/></g><!--SRC=[PTF1YeCm40RWUvvYy2uqsbPxMUYMlIriOUa332RR3QIn92F5jz-atH53JfBVppXnHgj_26W4Rww_1CfuFP0PdH0uqEYXEbkSjQzu-Q5Cl2xBin_LD11yFLn2OWfwmA2Xkfms4ceuUOsa0U66zmemGCeprKHrL0hGWN5g2kHdXaq6MuOm65fCcvdj-fLXq0wz6PbkCxgBz7qoDcqO2DEP6Uuok8_mShzwLBga-unsaNwQG83MiWnCkupsaNvhpGgK9ZHsmNs63wjQVMGFdC4QfraVrbfkddgEbYBcKkKcGwavnn3CrRrK6e6u-JWHxogpFibcVRRd8roipFeaswm7vZPPJ1FpRriXU8QWhkktrq0KKLD6RHbj1O_d4ktAQ5z6NHdrPNGeelWHYqYMKQm-_p6MEwtu0m00]--></g></svg>