<svg xmlns="http://www.w3.org/2000/svg" xmlns:xlink="http://www.w3.org/1999/xlink" contentStyleType="text/css" height="582px" preserveAspectRatio="none" style="width:1104px;height:582px;background:#FFFFFF;" version="1.1" viewBox="0 0 1104 582" width="1104px" zoomAndPan="magnify"><title>Drone Simulation</title><defs/><g><text fill="#000000" font-family="sans-serif" font-size="14" font-weight="bold" lengthAdjust="spacing" textLength="115.8965" x="487.0518" y="25.1074">Drone Simulation</text><!--cluster Drone Simulation--><g id="cluster_Drone Simulation"><path d="M8.5,45.6348 L125.3965,45.6348 A3.75,3.75 0 0 1 127.8965,48.1348 L134.8965,70.2559 L1094.5,70.2559 A2.5,2.5 0 0 1 1097,72.7559 L1097,572.6348 A2.5,2.5 0 0 1 1094.5,575.1348 L8.5,575.1348 A2.5,2.5 0 0 1 6,572.6348 L6,48.1348 A2.5,2.5 0 0 1 8.5,45.6348 " fill="none" style="stroke:#000000;stroke-width:1.5;"/><line style="stroke:#000000;stroke-width:1.5;" x1="6" x2="134.8965" y1="70.2559" y2="70.2559"/><text fill="#000000" font-family="sans-serif" font-size="14" font-weight="bold" lengthAdjust="spacing" textLength="115.8965" x="10" y="62.7422">Drone Simulation</text></g><!--cluster Files--><g id="cluster_Files"><path d="M32.5,450.1348 L65.4033,450.1348 A3.75,3.75 0 0 1 67.9033,452.6348 L74.9033,474.7559 L427.5,474.7559 A2.5,2.5 0 0 1 430,477.2559 L430,548.6348 A2.5,2.5 0 0 1 427.5,551.1348 L32.5,551.1348 A2.5,2.5 0 0 1 30,548.6348 L30,452.6348 A2.5,2.5 0 0 1 32.5,450.1348 " fill="none" style="stroke:#000000;stroke-width:1.5;"/><line style="stroke:#000000;stroke-width:1.5;" x1="30" x2="74.9033" y1="474.7559" y2="474.7559"/><text fill="#000000" font-family="sans-serif" font-size="14" font-weight="bold" lengthAdjust="spacing" textLength="31.9033" x="34" y="467.2422">Files</text></g><!--cluster Son Process--><g id="cluster_Son Process"><path d="M730.5,304.6348 L816.3135,304.6348 A3.75,3.75 0 0 1 818.8135,307.1348 L825.8135,329.2559 L825.5,329.2559 A2.5,2.5 0 0 1 828,331.7559 L828,394.1348 A2.5,2.5 0 0 1 825.5,396.6348 L730.5,396.6348 A2.5,2.5 0 0 1 728,394.1348 L728,307.1348 A2.5,2.5 0 0 1 730.5,304.6348 " fill="none" style="stroke:#000000;stroke-width:1.5;"/><line style="stroke:#000000;stroke-width:1.5;" x1="728" x2="825.8135" y1="329.2559" y2="329.2559"/><text fill="#000000" font-family="sans-serif" font-size="14" font-weight="bold" lengthAdjust="spacing" textLength="84.8135" x="732" y="321.7422">Son Process</text></g><!--entity Timeline--><g id="elem_Timeline"><rect fill="#F1F1F1" height="38.6211" rx="2.5" ry="2.5" style="stroke:#181818;stroke-width:0.5;" width="140.6064" x="526.5" y="82.6348"/><text fill="#000000" font-family="sans-serif" font-size="14" lengthAdjust="spacing" textLength="120.6064" x="536.5" y="107.7422">timeline[tick][drone]</text></g><!--entity DataPipe--><g id="elem_DataPipe"><rect fill="#F1F1F1" height="38.6211" rx="2.5" ry="2.5" style="stroke:#181818;stroke-width:0.5;" width="125.082" x="923.5" y="491.6348"/><text fill="#000000" font-family="sans-serif" font-size="14" lengthAdjust="spacing" textLength="105.082" x="933.5" y="516.7422">pipe_fd[drone][2]</text></g><!--entity ControlPipe--><g id="elem_ControlPipe"><rect fill="#F1F1F1" height="38.6211" rx="2.5" ry="2.5" style="stroke:#181818;stroke-width:0.5;" width="140.6338" x="689.5" y="491.6348"/><text fill="#000000" font-family="sans-serif" font-size="14" lengthAdjust="spacing" textLength="120.6338" x="699.5" y="516.7422">control_fd[drone][2]</text></g><!--entity Father--><g id="elem_Father"><rect fill="#F1F1F1" height="38.6211" rx="2.5" ry="2.5" style="stroke:#181818;stroke-width:0.5;" width="114.9238" x="539.5" y="200.6348"/><text fill="#000000" font-family="sans-serif" font-size="14" lengthAdjust="spacing" textLength="94.9238" x="549.5" y="225.7422">Father Process</text></g><!--entity CollisionList--><g id="elem_CollisionList"><path d="M347.5,347.1348 C347.5,337.1348 396.793,337.1348 396.793,337.1348 C396.793,337.1348 446.0859,337.1348 446.0859,347.1348 L446.0859,374.7559 C446.0859,384.7559 396.793,384.7559 396.793,384.7559 C396.793,384.7559 347.5,384.7559 347.5,374.7559 L347.5,347.1348 " fill="#F1F1F1" style="stroke:#181818;stroke-width:0.5;"/><path d="M347.5,347.1348 C347.5,357.1348 396.793,357.1348 396.793,357.1348 C396.793,357.1348 446.0859,357.1348 446.0859,347.1348 " fill="none" style="stroke:#181818;stroke-width:0.5;"/><text fill="#000000" font-family="sans-serif" font-size="14" lengthAdjust="spacing" textLength="78.5859" x="357.5" y="376.2422">Collision List</text></g><!--entity Status--><g id="elem_Status"><rect fill="#F1F1F1" height="38.6211" rx="2.5" ry="2.5" style="stroke:#181818;stroke-width:0.5;" width="230.0957" x="482" y="341.6348"/><text fill="#000000" font-family="sans-serif" font-size="14" lengthAdjust="spacing" textLength="210.0957" x="492" y="366.7422">drone_status[MAX_DRONES][64]</text></g><!--entity DroneFile--><g id="elem_DroneFile"><path d="M330,497.1348 C330,487.1348 371.9067,487.1348 371.9067,487.1348 C371.9067,487.1348 413.8135,487.1348 413.8135,497.1348 L413.8135,524.7559 C413.8135,534.7559 371.9067,534.7559 371.9067,534.7559 C371.9067,534.7559 330,534.7559 330,524.7559 L330,497.1348 " fill="#F1F1F1" style="stroke:#181818;stroke-width:0.5;"/><path d="M330,497.1348 C330,507.1348 371.9067,507.1348 371.9067,507.1348 C371.9067,507.1348 413.8135,507.1348 413.8135,497.1348 " fill="none" style="stroke:#181818;stroke-width:0.5;"/><text fill="#000000" font-family="sans-serif" font-size="14" lengthAdjust="spacing" textLength="63.8135" x="340" y="526.2422">droneX.txt</text></g><!--entity Report--><g id="elem_Report"><path d="M46,494.1348 L46,527.7559 A2.5,2.5 0 0 0 48.5,530.2559 L189.5547,530.2559 A2.5,2.5 0 0 0 192.0547,527.7559 L192.0547,501.6348 L182.0547,491.6348 L48.5,491.6348 A2.5,2.5 0 0 0 46,494.1348 " fill="#F1F1F1" style="stroke:#181818;stroke-width:0.5;"/><path d="M182.0547,491.6348 L182.0547,499.1348 A2.5,2.5 0 0 0 184.5547,501.6348 L192.0547,501.6348 " fill="#F1F1F1" style="stroke:#181818;stroke-width:0.5;"/><text fill="#000000" font-family="sans-serif" font-size="14" lengthAdjust="spacing" textLength="126.0547" x="56" y="516.7422">simulation_report.txt</text></g><!--entity WindFile--><g id="elem_WindFile"><path d="M227.5,494.1348 L227.5,527.7559 A2.5,2.5 0 0 0 230,530.2559 L292.4619,530.2559 A2.5,2.5 0 0 0 294.9619,527.7559 L294.9619,501.6348 L284.9619,491.6348 L230,491.6348 A2.5,2.5 0 0 0 227.5,494.1348 " fill="#F1F1F1" style="stroke:#181818;stroke-width:0.5;"/><path d="M284.9619,491.6348 L284.9619,499.1348 A2.5,2.5 0 0 0 287.4619,501.6348 L294.9619,501.6348 " fill="#F1F1F1" style="stroke:#181818;stroke-width:0.5;"/><text fill="#000000" font-family="sans-serif" font-size="14" lengthAdjust="spacing" textLength="47.4619" x="237.5" y="516.7422">wind.txt</text></g><!--entity Drone--><g id="elem_Drone"><rect fill="#F1F1F1" height="38.6211" rx="2.5" ry="2.5" style="stroke:#181818;stroke-width:0.5;" width="58.1309" x="747" y="341.6348"/><text fill="#000000" font-family="sans-serif" font-size="14" lengthAdjust="spacing" textLength="38.1309" x="757" y="366.7422">Drone</text></g><!--reverse link Drone to ControlPipe--><g id="link_Drone_ControlPipe"><path d="M759.8659,385.8762 C754.1559,393.6762 750.55,397.6648 743,404.6348 C736.75,410.4048 731.04,407.6548 727,415.1348 C713.48,440.1748 730.56,471.8448 744.75,491.5448 " fill="none" id="Drone-backto-ControlPipe" style="stroke:#181818;stroke-width:1.0;"/><polygon fill="#181818" points="763.41,381.0348,754.8662,385.9341,760.4565,385.0693,761.3214,390.6596,763.41,381.0348" style="stroke:#181818;stroke-width:1.0;"/><text fill="#000000" font-family="sans-serif" font-size="13" lengthAdjust="spacing" textLength="23.1182" x="728" y="430.1631">wait</text></g><!--link Drone to DataPipe--><g id="link_Drone_DataPipe"><path d="M788.14,380.7748 C793.87,388.7048 801.16,397.7048 809,404.6348 C850.94,441.7248 902.3668,470.2451 940.1968,488.8651 " fill="none" id="Drone-to-DataPipe" style="stroke:#181818;stroke-width:1.0;"/><polygon fill="#181818" points="945.58,491.5148,939.2716,483.9515,941.094,489.3067,935.7387,491.1291,945.58,491.5148" style="stroke:#181818;stroke-width:1.0;"/><text fill="#000000" font-family="sans-serif" font-size="13" lengthAdjust="spacing" textLength="76.6099" x="845" y="430.1631">send position</text></g><!--link Drone to DroneFile--><g id="link_Drone_DroneFile"><path d="M766.39,381.0148 C760.83,389.8248 752.96,399.4848 743,404.6348 C718.99,417.0348 526.2,408.4948 500,415.1348 C481.31,419.8748 479.31,428.0948 461,434.1348 C442.54,440.2248 434.26,431.4848 418,442.1348 C401.55,452.9148 392.1745,466.4789 384.5245,481.6289 " fill="none" id="Drone-to-DroneFile" style="stroke:#181818;stroke-width:1.0;"/><polygon fill="#181818" points="381.82,486.9848,389.4473,480.7539,384.0737,482.5215,382.3061,477.1479,381.82,486.9848" style="stroke:#181818;stroke-width:1.0;"/><text fill="#000000" font-family="sans-serif" font-size="13" lengthAdjust="spacing" textLength="59.249" x="501" y="430.1631">load script</text></g><!--link Father to ControlPipe--><g id="link_Father_ControlPipe"><path d="M654.7,222.8248 C727.51,226.3048 846.56,236.9748 874,269.6348 C921.03,325.6148 908.5,369.6748 874,434.1348 C859.91,460.4548 837.6035,476.5454 813.0535,488.8554 " fill="none" id="Father-to-ControlPipe" style="stroke:#181818;stroke-width:1.0;"/><polygon fill="#181818" points="807.69,491.5448,817.5282,491.0863,812.1596,489.3036,813.9423,483.935,807.69,491.5448" style="stroke:#181818;stroke-width:1.0;"/><text fill="#000000" font-family="sans-serif" font-size="13" lengthAdjust="spacing" textLength="64.3208" x="905" y="366.6631">create pipe</text></g><!--link Father to DataPipe--><g id="link_Father_DataPipe"><path d="M654.85,223.7248 C751.1,229.4148 937.42,246.7448 976,296.6348 C1021.06,354.8948 1003.8037,445.3768 993.0737,485.6768 " fill="none" id="Father-to-DataPipe" style="stroke:#181818;stroke-width:1.0;"/><polygon fill="#181818" points="991.53,491.4748,997.7109,483.8069,992.8164,486.6431,989.9803,481.7486,991.53,491.4748" style="stroke:#181818;stroke-width:1.0;"/><text fill="#000000" font-family="sans-serif" font-size="13" lengthAdjust="spacing" textLength="64.3208" x="1005" y="366.6631">create pipe</text></g><!--reverse link Timeline to Father--><g id="link_Timeline_Father"><path d="M597,127.7748 C597,149.4148 597,178.9148 597,200.5448 " fill="none" id="Timeline-backto-Father" style="stroke:#181818;stroke-width:1.0;"/><polygon fill="#181818" points="597,121.7748,593,130.7748,597,126.7748,601,130.7748,597,121.7748" style="stroke:#181818;stroke-width:1.0;"/><text fill="#000000" font-family="sans-serif" font-size="13" lengthAdjust="spacing" textLength="77.3208" x="598" y="166.6631">store position</text></g><!--link Father to Status--><g id="link_Father_Status"><path d="M597,239.8848 C597,266.4148 597,308.6348 597,335.2448 " fill="none" id="Father-to-Status" style="stroke:#181818;stroke-width:1.0;"/><polygon fill="#181818" points="597,341.2448,601,332.2448,597,336.2448,593,332.2448,597,341.2448" style="stroke:#181818;stroke-width:1.0;"/><text fill="#000000" font-family="sans-serif" font-size="13" lengthAdjust="spacing" textLength="78.0571" x="598" y="284.6631">update status</text></g><!--link Father to CollisionList--><g id="link_Father_CollisionList"><path d="M558.73,239.7448 C531.49,253.7448 494.62,274.3148 465,296.6348 C448.75,308.8848 436.2859,320.2355 423.4859,332.8955 " fill="none" id="Father-to-CollisionList" style="stroke:#181818;stroke-width:1.0;"/><polygon fill="#181818" points="419.22,337.1148,428.4317,333.6298,422.7749,333.5987,422.806,327.942,419.22,337.1148" style="stroke:#181818;stroke-width:1.0;"/><text fill="#000000" font-family="sans-serif" font-size="13" lengthAdjust="spacing" textLength="77.3145" x="504" y="284.6631">save collision</text></g><!--link Father to Report--><g id="link_Father_Report"><path d="M539.42,220.9448 C423.15,221.9448 166.99,231.6548 115,296.6348 C69.03,354.0948 94.6949,445.1777 109.4749,485.7177 " fill="none" id="Father-to-Report" style="stroke:#181818;stroke-width:1.0;"/><polygon fill="#181818" points="111.53,491.3548,112.2053,481.5291,109.8174,486.6572,104.6892,484.2693,111.53,491.3548" style="stroke:#181818;stroke-width:1.0;"/><text fill="#000000" font-family="sans-serif" font-size="13" lengthAdjust="spacing" textLength="88.8926" x="116" y="366.6631">generate report</text></g><!--link Father to Drone--><g id="link_Father_Drone"><path d="M630.64,239.6648 C656.27,253.5948 692.57,272.8948 725,288.6348 C732.88,292.4548 736.62,290.6348 743,296.6348 C756.03,308.8948 762.7293,321.8383 767.9493,335.7283 " fill="none" id="Father-to-Drone" style="stroke:#181818;stroke-width:1.0;"/><polygon fill="#181818" points="770.06,341.3448,770.6382,331.5129,768.3011,336.6644,763.1496,334.3272,770.06,341.3448" style="stroke:#181818;stroke-width:1.0;"/><text fill="#000000" font-family="sans-serif" font-size="13" lengthAdjust="spacing" textLength="143.7554" x="726" y="284.6631">terminate with SIGTERM</text></g><!--link Father to WindFile--><g id="link_Father_WindFile"><path d="M539.42,224.5648 C447.16,231.3948 272.71,250.2448 235,296.6348 C188.25,354.1448 226.8749,445.5047 247.8249,486.0347 " fill="none" id="Father-to-WindFile" style="stroke:#181818;stroke-width:1.0;"/><polygon fill="#181818" points="250.58,491.3648,250.0007,481.533,248.2841,486.9231,242.894,485.2064,250.58,491.3648" style="stroke:#181818;stroke-width:1.0;"/><text fill="#000000" font-family="sans-serif" font-size="13" lengthAdjust="spacing" textLength="93.939" x="236" y="366.6631">load wind vector</text></g><!--SRC=[PLFDQjj04BxhAGPVUd8FeVGGIY74IGWqRR023GXZjgknFKJQNNP7SKd9q_IG9yWJ-CMoFv8iItkIPhxvvfjlPvcuGbXOhH1ogfjAC6cLPKR89x55c8rJC_YNPU2FHSb2RNtrZAd6YXGMJF9fLPIXP3K3uU2XpSIAdlEQAdGn7xyy8xId52p-2ESnaUJnC__b28mo0hg7RYYqThsmjKMZBVSLo_WxWkz9bJtYj__fALydKnaokDwKxJZ5MPfeuHNU-ymOBRLYgwjfmMLAn9fnqRNW7LgujrgYQns9eLE_SgsEcADP0w9epz6euKH7IozrLP7pLi4FSjoAQqCXCbONvrWx5jouukxYSRrO_lfvbQ-Ahr_IQ7bCfJQVF5VTA9BYy7Ruhm71aPAUWLvI9ABIDdsRpuUsm3di1V40C9z_xutsMOUg1ACTnTqSmRh5yBXAYnASj6Iu4nKOd1TZadtQnNZhUwW_rI4j2lRexe87m86U8QhjSs5hyO9ArAXOdvGsnXTtxo0CmzhYwJI3BibI3sjC6NeazwUY1zSMECKpWko2OtHw2HwsHOKsiAQdqcbV8ADCjrP66dA7TvmqJPwV0wEjIGMQFV4EyjkRXwlbNRy5mbhS9Xy2tORa3ibEZUzUNtTluMd2izy-dRO_Uyq-0000]--></g></svg>