<svg xmlns="http://www.w3.org/2000/svg" xmlns:xlink="http://www.w3.org/1999/xlink" contentStyleType="text/css" height="1160px" preserveAspectRatio="none" style="width:1740px;height:1160px;background:#FFFFFF;" version="1.1" viewBox="0 0 1740 1160" width="1740px" zoomAndPan="magnify"><title>Sequence Diagram - US318</title><defs/><g><text fill="#000000" font-family="sans-serif" font-size="14" font-weight="bold" lengthAdjust="spacing" textLength="181.2959" x="780.4507" y="30.1074">Sequence Diagram - US318</text><rect fill="none" height="826.168" style="stroke:#000000;stroke-width:1.5;" width="1723.1973" x="10" y="234.1152"/><rect fill="none" height="619.791" style="stroke:#000000;stroke-width:1.5;" width="1703.1973" x="20" y="433.4922"/><rect fill="none" height="81.873" style="stroke:#000000;stroke-width:1.5;" width="608.1816" x="30" y="570.2871"/><rect fill="none" height="161.0859" style="stroke:#000000;stroke-width:1.5;" width="1081.8618" x="631.3354" y="853.9063"/><line style="stroke:#181818;stroke-width:0.5;stroke-dasharray:5.0,5.0;" x1="88" x2="88" y1="123.2422" y2="1077.2832"/><line style="stroke:#181818;stroke-width:0.5;stroke-dasharray:5.0,5.0;" x1="336.3145" x2="336.3145" y1="123.2422" y2="1077.2832"/><line style="stroke:#181818;stroke-width:0.5;stroke-dasharray:5.0,5.0;" x1="538.2031" x2="538.2031" y1="123.2422" y2="1077.2832"/><line style="stroke:#181818;stroke-width:0.5;stroke-dasharray:5.0,5.0;" x1="753.3354" x2="753.3354" y1="123.2422" y2="1077.2832"/><line style="stroke:#181818;stroke-width:0.5;stroke-dasharray:5.0,5.0;" x1="927.0034" x2="927.0034" y1="123.2422" y2="1077.2832"/><line style="stroke:#181818;stroke-width:0.5;stroke-dasharray:5.0,5.0;" x1="1073.1479" x2="1073.1479" y1="123.2422" y2="1077.2832"/><line style="stroke:#181818;stroke-width:0.5;stroke-dasharray:5.0,5.0;" x1="1274.3403" x2="1274.3403" y1="123.2422" y2="1077.2832"/><line style="stroke:#181818;stroke-width:0.5;stroke-dasharray:5.0,5.0;" x1="1650.9219" x2="1650.9219" y1="123.2422" y2="1077.2832"/><text fill="#000000" font-family="sans-serif" font-size="14" lengthAdjust="spacing" textLength="91.0273" x="40" y="119.7285">CRM Manager</text><ellipse cx="88.5137" cy="53.1211" fill="#E2E2F0" rx="8" ry="8" style="stroke:#181818;stroke-width:0.5;"/><path d="M88.5137,61.1211 L88.5137,88.1211 M75.5137,69.1211 L101.5137,69.1211 M88.5137,88.1211 L75.5137,103.1211 M88.5137,88.1211 L101.5137,103.1211 " fill="none" style="stroke:#181818;stroke-width:0.5;"/><text fill="#000000" font-family="sans-serif" font-size="14" lengthAdjust="spacing" textLength="91.0273" x="40" y="1091.3906">CRM Manager</text><ellipse cx="88.5137" cy="1103.4043" fill="#E2E2F0" rx="8" ry="8" style="stroke:#181818;stroke-width:0.5;"/><path d="M88.5137,1111.4043 L88.5137,1138.4043 M75.5137,1119.4043 L101.5137,1119.4043 M88.5137,1138.4043 L75.5137,1153.4043 M88.5137,1138.4043 L101.5137,1153.4043 " fill="none" style="stroke:#181818;stroke-width:0.5;"/><rect fill="#E2E2F0" height="32.6211" rx="2.5" ry="2.5" style="stroke:#181818;stroke-width:0.5;" width="203.8887" x="235.3145" y="89.6211"/><text fill="#000000" font-family="sans-serif" font-size="14" lengthAdjust="spacing" textLength="189.8887" x="242.3145" y="111.7285">ConfigureShowProposalAction</text><rect fill="#E2E2F0" height="32.6211" rx="2.5" ry="2.5" style="stroke:#181818;stroke-width:0.5;" width="203.8887" x="235.3145" y="1076.2832"/><text fill="#000000" font-family="sans-serif" font-size="14" lengthAdjust="spacing" textLength="189.8887" x="242.3145" y="1098.3906">ConfigureShowProposalAction</text><rect fill="#E2E2F0" height="32.6211" rx="2.5" ry="2.5" style="stroke:#181818;stroke-width:0.5;" width="178.9785" x="449.2031" y="89.6211"/><text fill="#000000" font-family="sans-serif" font-size="14" lengthAdjust="spacing" textLength="164.9785" x="456.2031" y="111.7285">ConfigureShowProposalUI</text><rect fill="#E2E2F0" height="32.6211" rx="2.5" ry="2.5" style="stroke:#181818;stroke-width:0.5;" width="178.9785" x="449.2031" y="1076.2832"/><text fill="#000000" font-family="sans-serif" font-size="14" lengthAdjust="spacing" textLength="164.9785" x="456.2031" y="1098.3906">ConfigureShowProposalUI</text><rect fill="#E2E2F0" height="32.6211" rx="2.5" ry="2.5" style="stroke:#181818;stroke-width:0.5;" width="225.668" x="641.3354" y="89.6211"/><text fill="#000000" font-family="sans-serif" font-size="14" lengthAdjust="spacing" textLength="211.668" x="648.3354" y="111.7285">ConfigureShowProposalController</text><rect fill="#E2E2F0" height="32.6211" rx="2.5" ry="2.5" style="stroke:#181818;stroke-width:0.5;" width="225.668" x="641.3354" y="1076.2832"/><text fill="#000000" font-family="sans-serif" font-size="14" lengthAdjust="spacing" textLength="211.668" x="648.3354" y="1098.3906">ConfigureShowProposalController</text><rect fill="#E2E2F0" height="32.6211" rx="2.5" ry="2.5" style="stroke:#181818;stroke-width:0.5;" width="101.1445" x="877.0034" y="89.6211"/><text fill="#000000" font-family="sans-serif" font-size="14" lengthAdjust="spacing" textLength="87.1445" x="884.0034" y="111.7285">AuthzRegistry</text><rect fill="#E2E2F0" height="32.6211" rx="2.5" ry="2.5" style="stroke:#181818;stroke-width:0.5;" width="101.1445" x="877.0034" y="1076.2832"/><text fill="#000000" font-family="sans-serif" font-size="14" lengthAdjust="spacing" textLength="87.1445" x="884.0034" y="1098.3906">AuthzRegistry</text><rect fill="#E2E2F0" height="32.6211" rx="2.5" ry="2.5" style="stroke:#181818;stroke-width:0.5;" width="171.1924" x="988.1479" y="89.6211"/><text fill="#000000" font-family="sans-serif" font-size="14" lengthAdjust="spacing" textLength="157.1924" x="995.1479" y="111.7285">ShowProposalRepository</text><rect fill="#E2E2F0" height="32.6211" rx="2.5" ry="2.5" style="stroke:#181818;stroke-width:0.5;" width="171.1924" x="988.1479" y="1076.2832"/><text fill="#000000" font-family="sans-serif" font-size="14" lengthAdjust="spacing" textLength="157.1924" x="995.1479" y="1098.3906">ShowProposalRepository</text><rect fill="#E2E2F0" height="32.6211" rx="2.5" ry="2.5" style="stroke:#181818;stroke-width:0.5;" width="211.6611" x="1169.3403" y="89.6211"/><text fill="#000000" font-family="sans-serif" font-size="14" lengthAdjust="spacing" textLength="197.6611" x="1176.3403" y="111.7285">ConfigureShowProposalService</text><rect fill="#E2E2F0" height="32.6211" rx="2.5" ry="2.5" style="stroke:#181818;stroke-width:0.5;" width="211.6611" x="1169.3403" y="1076.2832"/><text fill="#000000" font-family="sans-serif" font-size="14" lengthAdjust="spacing" textLength="197.6611" x="1176.3403" y="1098.3906">ConfigureShowProposalService</text><rect fill="#E2E2F0" height="32.6211" rx="2.5" ry="2.5" style="stroke:#181818;stroke-width:0.5;" width="104.2754" x="1598.9219" y="89.6211"/><text fill="#000000" font-family="sans-serif" font-size="14" lengthAdjust="spacing" textLength="90.2754" x="1605.9219" y="111.7285">ShowProposal</text><rect fill="#E2E2F0" height="32.6211" rx="2.5" ry="2.5" style="stroke:#181818;stroke-width:0.5;" width="104.2754" x="1598.9219" y="1076.2832"/><text fill="#000000" font-family="sans-serif" font-size="14" lengthAdjust="spacing" textLength="90.2754" x="1605.9219" y="1098.3906">ShowProposal</text><polygon fill="#181818" points="325.2588,152.5332,335.2588,156.5332,325.2588,160.5332,329.2588,156.5332" style="stroke:#181818;stroke-width:1.0;"/><line style="stroke:#181818;stroke-width:1.0;stroke-dasharray:2.0,2.0;" x1="88.5137" x2="331.2588" y1="156.5332" y2="156.5332"/><text fill="#000000" font-family="sans-serif" font-size="13" lengthAdjust="spacing" textLength="224.7451" x="95.5137" y="151.2705">Requests to configure a show proposal</text><polygon fill="#181818" points="526.6924,183.8242,536.6924,187.8242,526.6924,191.8242,530.6924,187.8242" style="stroke:#181818;stroke-width:1.0;"/><line style="stroke:#181818;stroke-width:1.0;stroke-dasharray:2.0,2.0;" x1="337.2588" x2="532.6924" y1="187.8242" y2="187.8242"/><text fill="#000000" font-family="sans-serif" font-size="13" lengthAdjust="spacing" textLength="39.0063" x="344.2588" y="182.5615">show()</text><polygon fill="#181818" points="1061.7441,215.1152,1071.7441,219.1152,1061.7441,223.1152,1065.7441,219.1152" style="stroke:#181818;stroke-width:1.0;"/><line style="stroke:#181818;stroke-width:1.0;stroke-dasharray:2.0,2.0;" x1="538.6924" x2="1067.7441" y1="219.1152" y2="219.1152"/><text fill="#000000" font-family="sans-serif" font-size="13" lengthAdjust="spacing" textLength="122.0972" x="545.6924" y="213.8525">findAllReadyToTest()</text><path d="M10,234.1152 L70.1709,234.1152 L70.1709,243.4063 L60.1709,253.4063 L10,253.4063 L10,234.1152 " fill="#EEEEEE" style="stroke:#000000;stroke-width:1.5;"/><rect fill="none" height="826.168" style="stroke:#000000;stroke-width:1.5;" width="1723.1973" x="10" y="234.1152"/><text fill="#000000" font-family="sans-serif" font-size="13" font-weight="bold" lengthAdjust="spacing" textLength="15.1709" x="25" y="249.1436">alt</text><text fill="#000000" font-family="sans-serif" font-size="11" font-weight="bold" lengthAdjust="spacing" textLength="77.6123" x="85.1709" y="247.9854">[No proposals]</text><polygon fill="#181818" points="549.6924,272.6973,539.6924,276.6973,549.6924,280.6973,545.6924,276.6973" style="stroke:#181818;stroke-width:1.0;"/><line style="stroke:#181818;stroke-width:1.0;" x1="543.6924" x2="1072.7441" y1="276.6973" y2="276.6973"/><text fill="#000000" font-family="sans-serif" font-size="13" lengthAdjust="spacing" textLength="54.9009" x="555.6924" y="271.4346">empty list</text><polygon fill="#181818" points="99.5137,303.9883,89.5137,307.9883,99.5137,311.9883,95.5137,307.9883" style="stroke:#181818;stroke-width:1.0;"/><line style="stroke:#181818;stroke-width:1.0;" x1="93.5137" x2="537.6924" y1="307.9883" y2="307.9883"/><text fill="#000000" font-family="sans-serif" font-size="13" lengthAdjust="spacing" textLength="289.6118" x="105.5137" y="302.7256">Show message "No proposals ready to be tested."</text><line style="stroke:#000000;stroke-width:1.0;stroke-dasharray:2.0,2.0;" x1="10" x2="1733.1973" y1="316.9883" y2="316.9883"/><text fill="#000000" font-family="sans-serif" font-size="11" font-weight="bold" lengthAdjust="spacing" textLength="109.4199" x="15" y="328.8584">[there are proposals]</text><polygon fill="#181818" points="549.6924,351.9102,539.6924,355.9102,549.6924,359.9102,545.6924,355.9102" style="stroke:#181818;stroke-width:1.0;"/><line style="stroke:#181818;stroke-width:1.0;" x1="543.6924" x2="1072.7441" y1="355.9102" y2="355.9102"/><text fill="#000000" font-family="sans-serif" font-size="13" lengthAdjust="spacing" textLength="119.2407" x="555.6924" y="350.6475">List&lt;ShowProposal&gt;</text><polygon fill="#181818" points="99.5137,383.2012,89.5137,387.2012,99.5137,391.2012,95.5137,387.2012" style="stroke:#181818;stroke-width:1.0;"/><line style="stroke:#181818;stroke-width:1.0;" x1="93.5137" x2="537.6924" y1="387.2012" y2="387.2012"/><text fill="#000000" font-family="sans-serif" font-size="13" lengthAdjust="spacing" textLength="138.0171" x="105.5137" y="381.9385">Ask to select a proposal</text><polygon fill="#181818" points="526.6924,414.4922,536.6924,418.4922,526.6924,422.4922,530.6924,418.4922" style="stroke:#181818;stroke-width:1.0;"/><line style="stroke:#181818;stroke-width:1.0;" x1="88.5137" x2="532.6924" y1="418.4922" y2="418.4922"/><text fill="#000000" font-family="sans-serif" font-size="13" lengthAdjust="spacing" textLength="100.4517" x="95.5137" y="413.2295">Select a proposal</text><path d="M20,433.4922 L80.1709,433.4922 L80.1709,442.7832 L70.1709,452.7832 L20,452.7832 L20,433.4922 " fill="#EEEEEE" style="stroke:#000000;stroke-width:1.5;"/><rect fill="none" height="619.791" style="stroke:#000000;stroke-width:1.5;" width="1703.1973" x="20" y="433.4922"/><text fill="#000000" font-family="sans-serif" font-size="13" font-weight="bold" lengthAdjust="spacing" textLength="15.1709" x="35" y="448.5205">alt</text><text fill="#000000" font-family="sans-serif" font-size="11" font-weight="bold" lengthAdjust="spacing" textLength="92.9092" x="95.1709" y="447.3623">[Invalid selection]</text><polygon fill="#181818" points="99.5137,472.0742,89.5137,476.0742,99.5137,480.0742,95.5137,476.0742" style="stroke:#181818;stroke-width:1.0;"/><line style="stroke:#181818;stroke-width:1.0;" x1="93.5137" x2="537.6924" y1="476.0742" y2="476.0742"/><text fill="#000000" font-family="sans-serif" font-size="13" lengthAdjust="spacing" textLength="205.061" x="105.5137" y="470.8115">Show a message "Invalid selection"</text><line style="stroke:#000000;stroke-width:1.0;stroke-dasharray:2.0,2.0;" x1="20" x2="1723.1973" y1="485.0742" y2="485.0742"/><text fill="#000000" font-family="sans-serif" font-size="11" font-weight="bold" lengthAdjust="spacing" textLength="74.5776" x="25" y="496.9443">[Valid answer]</text><polygon fill="#181818" points="99.5137,519.9961,89.5137,523.9961,99.5137,527.9961,95.5137,523.9961" style="stroke:#181818;stroke-width:1.0;"/><line style="stroke:#181818;stroke-width:1.0;" x1="93.5137" x2="537.6924" y1="523.9961" y2="523.9961"/><text fill="#000000" font-family="sans-serif" font-size="13" lengthAdjust="spacing" textLength="373.5977" x="105.5137" y="518.7334">Display all show proposal models available and ask to select one</text><polygon fill="#181818" points="526.6924,551.2871,536.6924,555.2871,526.6924,559.2871,530.6924,555.2871" style="stroke:#181818;stroke-width:1.0;"/><line style="stroke:#181818;stroke-width:1.0;" x1="88.5137" x2="532.6924" y1="555.2871" y2="555.2871"/><text fill="#000000" font-family="sans-serif" font-size="13" lengthAdjust="spacing" textLength="173.4307" x="95.5137" y="550.0244">Select a show proposal model</text><path d="M30,570.2871 L102.4346,570.2871 L102.4346,579.5781 L92.4346,589.5781 L30,589.5781 L30,570.2871 " fill="#EEEEEE" style="stroke:#000000;stroke-width:1.5;"/><rect fill="none" height="81.873" style="stroke:#000000;stroke-width:1.5;" width="608.1816" x="30" y="570.2871"/><text fill="#000000" font-family="sans-serif" font-size="13" font-weight="bold" lengthAdjust="spacing" textLength="27.4346" x="45" y="585.3154">loop</text><text fill="#000000" font-family="sans-serif" font-size="11" font-weight="bold" lengthAdjust="spacing" textLength="111.8477" x="117.4346" y="584.1572">[while wrong answer]</text><polygon fill="#181818" points="99.5137,608.8691,89.5137,612.8691,99.5137,616.8691,95.5137,612.8691" style="stroke:#181818;stroke-width:1.0;"/><line style="stroke:#181818;stroke-width:1.0;" x1="93.5137" x2="537.6924" y1="612.8691" y2="612.8691"/><text fill="#000000" font-family="sans-serif" font-size="13" lengthAdjust="spacing" textLength="127.1689" x="105.5137" y="607.6064">Ask again (model 1-3)</text><polygon fill="#181818" points="526.6924,640.1602,536.6924,644.1602,526.6924,648.1602,530.6924,644.1602" style="stroke:#181818;stroke-width:1.0;"/><line style="stroke:#181818;stroke-width:1.0;" x1="88.5137" x2="532.6924" y1="644.1602" y2="644.1602"/><text fill="#000000" font-family="sans-serif" font-size="13" lengthAdjust="spacing" textLength="208.8506" x="95.5137" y="638.8975">Select again a show proposal model</text><polygon fill="#181818" points="742.1694,678.4512,752.1694,682.4512,742.1694,686.4512,746.1694,682.4512" style="stroke:#181818;stroke-width:1.0;"/><line style="stroke:#181818;stroke-width:1.0;" x1="538.6924" x2="748.1694" y1="682.4512" y2="682.4512"/><text fill="#000000" font-family="sans-serif" font-size="13" lengthAdjust="spacing" textLength="191.4771" x="545.6924" y="677.1885">configure(proposalID, modelOpc)</text><polygon fill="#181818" points="915.5757,709.7422,925.5757,713.7422,915.5757,717.7422,919.5757,713.7422" style="stroke:#181818;stroke-width:1.0;"/><line style="stroke:#181818;stroke-width:1.0;" x1="754.1694" x2="921.5757" y1="713.7422" y2="713.7422"/><text fill="#000000" font-family="sans-serif" font-size="13" lengthAdjust="spacing" textLength="114.1689" x="761.1694" y="708.4795">authenticatedUser()</text><polygon fill="#181818" points="765.1694,741.0332,755.1694,745.0332,765.1694,749.0332,761.1694,745.0332" style="stroke:#181818;stroke-width:1.0;"/><line style="stroke:#181818;stroke-width:1.0;stroke-dasharray:2.0,2.0;" x1="759.1694" x2="926.5757" y1="745.0332" y2="745.0332"/><text fill="#000000" font-family="sans-serif" font-size="13" lengthAdjust="spacing" textLength="144.479" x="771.1694" y="739.7705">SystemUser (name, role)</text><polygon fill="#181818" points="1263.1709,772.3242,1273.1709,776.3242,1263.1709,780.3242,1267.1709,776.3242" style="stroke:#181818;stroke-width:1.0;"/><line style="stroke:#181818;stroke-width:1.0;" x1="754.1694" x2="1269.1709" y1="776.3242" y2="776.3242"/><text fill="#000000" font-family="sans-serif" font-size="13" lengthAdjust="spacing" textLength="317.916" x="761.1694" y="771.0615">configure(proposalID, modelOpc, userName, userRole)</text><polygon fill="#181818" points="1084.7441,803.6152,1074.7441,807.6152,1084.7441,811.6152,1080.7441,807.6152" style="stroke:#181818;stroke-width:1.0;"/><line style="stroke:#181818;stroke-width:1.0;" x1="1078.7441" x2="1274.1709" y1="807.6152" y2="807.6152"/><text fill="#000000" font-family="sans-serif" font-size="13" lengthAdjust="spacing" textLength="124.2808" x="1090.7441" y="802.3525">ofIdentity(proposalID)</text><polygon fill="#181818" points="1263.1709,834.9063,1273.1709,838.9063,1263.1709,842.9063,1267.1709,838.9063" style="stroke:#181818;stroke-width:1.0;"/><line style="stroke:#181818;stroke-width:1.0;" x1="1073.7441" x2="1269.1709" y1="838.9063" y2="838.9063"/><text fill="#000000" font-family="sans-serif" font-size="13" lengthAdjust="spacing" textLength="83.8271" x="1080.7441" y="833.6436">ShowProposal</text><path d="M631.3354,853.9063 L691.5063,853.9063 L691.5063,863.1973 L681.5063,873.1973 L631.3354,873.1973 L631.3354,853.9063 " fill="#EEEEEE" style="stroke:#000000;stroke-width:1.5;"/><rect fill="none" height="161.0859" style="stroke:#000000;stroke-width:1.5;" width="1081.8618" x="631.3354" y="853.9063"/><text fill="#000000" font-family="sans-serif" font-size="13" font-weight="bold" lengthAdjust="spacing" textLength="15.1709" x="646.3354" y="868.9346">alt</text><text fill="#000000" font-family="sans-serif" font-size="11" font-weight="bold" lengthAdjust="spacing" textLength="149.4399" x="706.5063" y="867.7764">[Proposal status != TESTED]</text><polygon fill="#181818" points="765.1694,892.4883,755.1694,896.4883,765.1694,900.4883,761.1694,896.4883" style="stroke:#181818;stroke-width:1.0;"/><line style="stroke:#181818;stroke-width:1.0;" x1="759.1694" x2="1274.1709" y1="896.4883" y2="896.4883"/><text fill="#000000" font-family="sans-serif" font-size="13" lengthAdjust="spacing" textLength="163.3125" x="771.1694" y="891.2256">throws IllegalStateException</text><line style="stroke:#000000;stroke-width:1.0;stroke-dasharray:2.0,2.0;" x1="631.3354" x2="1713.1973" y1="905.4883" y2="905.4883"/><text fill="#000000" font-family="sans-serif" font-size="11" font-weight="bold" lengthAdjust="spacing" textLength="113.0723" x="636.3354" y="917.3584">[Proposal is TESTED]</text><polygon fill="#181818" points="1639.0596,940.4102,1649.0596,944.4102,1639.0596,948.4102,1643.0596,944.4102" style="stroke:#181818;stroke-width:1.0;"/><line style="stroke:#181818;stroke-width:1.0;" x1="1275.1709" x2="1645.0596" y1="944.4102" y2="944.4102"/><text fill="#000000" font-family="sans-serif" font-size="13" lengthAdjust="spacing" textLength="351.8887" x="1282.1709" y="939.1475">assignTemplateAndAuditor(templateId, userName, userRole)</text><polygon fill="#181818" points="1639.0596,971.7012,1649.0596,975.7012,1639.0596,979.7012,1643.0596,975.7012" style="stroke:#181818;stroke-width:1.0;"/><line style="stroke:#181818;stroke-width:1.0;" x1="1275.1709" x2="1645.0596" y1="975.7012" y2="975.7012"/><text fill="#000000" font-family="sans-serif" font-size="13" lengthAdjust="spacing" textLength="198.6943" x="1282.1709" y="970.4385">updateStatus(READY_TO_SEND)</text><polygon fill="#181818" points="1084.7441,1002.9922,1074.7441,1006.9922,1084.7441,1010.9922,1080.7441,1006.9922" style="stroke:#181818;stroke-width:1.0;"/><line style="stroke:#181818;stroke-width:1.0;" x1="1078.7441" x2="1274.1709" y1="1006.9922" y2="1006.9922"/><text fill="#000000" font-family="sans-serif" font-size="13" lengthAdjust="spacing" textLength="85.9854" x="1090.7441" y="1001.7295">save(proposal)</text><polygon fill="#181818" points="99.5137,1041.2832,89.5137,1045.2832,99.5137,1049.2832,95.5137,1045.2832" style="stroke:#181818;stroke-width:1.0;"/><line style="stroke:#181818;stroke-width:1.0;" x1="93.5137" x2="537.6924" y1="1045.2832" y2="1045.2832"/><text fill="#000000" font-family="sans-serif" font-size="13" lengthAdjust="spacing" textLength="203.7534" x="105.5137" y="1040.0205">Show an error or success message</text><!--SRC=[fLRBRjim4BphAxO-AK1S8CYb2De0Hko3W2OfBBj0Jy56siX4QL8bARlgrtV9H9RK-A4qWWsPhvdXx79f9vmaIEbNHIeZc0ei3AvX3Clqyk9J567cj87HpVmMRb5XGMO4Q87RKOd6YKoKg1pSQFKaYifGkjBRRqQNsgASP4veTNhUCZazXpkTqLAIwSsTL6xrPqw5iCxKlP7kuZdnI_16wjD4APcDoEWWLXH5tepn-FhOfk4AvjvJwomu3Lap4n0iJuQoGJk6SP1ZcLm5cFWiEZ0UrkwtWAKz2PLF9FTXNY_qWbKoKeJImPtUIRCHy7C0ux0oXgTrwMgG79C0SL3YjKyZdk_xOKtMSdh1g2i1Z9Ve7NmaSAoJye-ZYAJbregydVnzl-2lBFLpj_TwcF29_UcrMPAKEGxjBgfXjS-IOwpfgsLXdGz3eZOeHVw2x0yHl3p3pCJMpbTGenrMyF5x64Lbjtoq1hDCXIqbrYnMzXCQrZfdNC0D2ecFN5jGCNpFAAsePHhiqXwQQ0VZ7wbr2TkLOCwjqQhuTrE3D-V3YWKA1N6WWOlnvTbhcA7A0z9-_LqyKdaqA037ooCJxwfDtD0bq_DdnlioEpl1qe5Yjbw1PMpaDYckZCXdSMd9nAqp_RdZGLhJcW_rsWD1h71Dvy13z3QDn-huIJlEeMBokq3jVyq7q3VOnsgiVafoRvIhExIjLsyiK-rk-dTH0-UBHjCBrg6hB7pu0ejPkfXDem7vtzdIwQ2vbT5R2mat2rxAT3JxdL7PgrIXkkmq2Vj_OhhTFlsi5OLQy0qZcNJ2rrYLU-TYzzALvFi3-YxMgimPEWssnlFPPFhZON7_aCxkfky1xgMBnKsRdotguABGgVqAo1Z-qyOVMsKPNmJDRV0CvJ43xby0]--></g></svg>