<svg xmlns="http://www.w3.org/2000/svg" xmlns:xlink="http://www.w3.org/1999/xlink" contentStyleType="text/css" height="777px" preserveAspectRatio="none" style="width:523px;height:777px;background:#FFFFFF;" version="1.1" viewBox="0 0 523 777" width="523px" zoomAndPan="magnify"><title>System Sequence Diagram (SSD) - US318 Templates for show proposals</title><defs/><g><text fill="#000000" font-family="sans-serif" font-size="14" font-weight="bold" lengthAdjust="spacing" textLength="483.1436" x="22.7847" y="30.1074">System Sequence Diagram (SSD) - US318 Templates for show proposals</text><rect fill="none" height="338.1719" style="stroke:#000000;stroke-width:1.5;" width="489.7129" x="20" y="339.6191"/><rect fill="none" height="81.873" style="stroke:#000000;stroke-width:1.5;" width="469.7129" x="30" y="476.4141"/><rect fill="none" height="98.5039" style="stroke:#000000;stroke-width:1.5;" width="469.7129" x="30" y="572.2871"/><line style="stroke:#181818;stroke-width:0.5;stroke-dasharray:5.0,5.0;" x1="88" x2="88" y1="123.2422" y2="694.791"/><line style="stroke:#181818;stroke-width:0.5;stroke-dasharray:5.0,5.0;" x1="459.0371" x2="459.0371" y1="123.2422" y2="694.791"/><text fill="#000000" font-family="sans-serif" font-size="14" lengthAdjust="spacing" textLength="91.0273" x="40" y="119.7285">CRM Manager</text><ellipse cx="88.5137" cy="53.1211" fill="#E2E2F0" rx="8" ry="8" style="stroke:#181818;stroke-width:0.5;"/><path d="M88.5137,61.1211 L88.5137,88.1211 M75.5137,69.1211 L101.5137,69.1211 M88.5137,88.1211 L75.5137,103.1211 M88.5137,88.1211 L101.5137,103.1211 " fill="none" style="stroke:#181818;stroke-width:0.5;"/><text fill="#000000" font-family="sans-serif" font-size="14" lengthAdjust="spacing" textLength="91.0273" x="40" y="708.8984">CRM Manager</text><ellipse cx="88.5137" cy="720.9121" fill="#E2E2F0" rx="8" ry="8" style="stroke:#181818;stroke-width:0.5;"/><path d="M88.5137,728.9121 L88.5137,755.9121 M75.5137,736.9121 L101.5137,736.9121 M88.5137,755.9121 L75.5137,770.9121 M88.5137,755.9121 L101.5137,770.9121 " fill="none" style="stroke:#181818;stroke-width:0.5;"/><rect fill="#E2E2F0" height="32.6211" rx="2.5" ry="2.5" style="stroke:#181818;stroke-width:0.5;" width="60.6758" x="429.0371" y="89.6211"/><text fill="#000000" font-family="sans-serif" font-size="14" lengthAdjust="spacing" textLength="46.6758" x="436.0371" y="111.7285">System</text><rect fill="#E2E2F0" height="32.6211" rx="2.5" ry="2.5" style="stroke:#181818;stroke-width:0.5;" width="60.6758" x="429.0371" y="693.791"/><text fill="#000000" font-family="sans-serif" font-size="14" lengthAdjust="spacing" textLength="46.6758" x="436.0371" y="715.8984">System</text><polygon fill="#181818" points="447.375,152.5332,457.375,156.5332,447.375,160.5332,451.375,156.5332" style="stroke:#181818;stroke-width:1.0;"/><line style="stroke:#181818;stroke-width:1.0;stroke-dasharray:2.0,2.0;" x1="88.5137" x2="453.375" y1="156.5332" y2="156.5332"/><text fill="#000000" font-family="sans-serif" font-size="13" lengthAdjust="spacing" textLength="224.7451" x="95.5137" y="151.2705">Requests to configure a show proposal</text><polygon fill="#181818" points="99.5137,210.1152,89.5137,214.1152,99.5137,218.1152,95.5137,214.1152" style="stroke:#181818;stroke-width:1.0;"/><line style="stroke:#181818;stroke-width:1.0;" x1="93.5137" x2="458.375" y1="214.1152" y2="214.1152"/><text fill="#000000" font-family="sans-serif" font-size="13" lengthAdjust="spacing" textLength="286" x="105.5137" y="208.8525">Show message "No proposals ready to be tested"</text><polygon fill="#181818" points="99.5137,258.0371,89.5137,262.0371,99.5137,266.0371,95.5137,262.0371" style="stroke:#181818;stroke-width:1.0;"/><line style="stroke:#181818;stroke-width:1.0;" x1="93.5137" x2="458.375" y1="262.0371" y2="262.0371"/><text fill="#000000" font-family="sans-serif" font-size="13" lengthAdjust="spacing" textLength="92.4854" x="105.5137" y="256.7744">list all proposals</text><polygon fill="#181818" points="99.5137,289.3281,89.5137,293.3281,99.5137,297.3281,95.5137,293.3281" style="stroke:#181818;stroke-width:1.0;"/><line style="stroke:#181818;stroke-width:1.0;" x1="93.5137" x2="458.375" y1="293.3281" y2="293.3281"/><text fill="#000000" font-family="sans-serif" font-size="13" lengthAdjust="spacing" textLength="138.0171" x="105.5137" y="288.0654">Ask to select a proposal</text><polygon fill="#181818" points="447.375,320.6191,457.375,324.6191,447.375,328.6191,451.375,324.6191" style="stroke:#181818;stroke-width:1.0;"/><line style="stroke:#181818;stroke-width:1.0;" x1="88.5137" x2="453.375" y1="324.6191" y2="324.6191"/><text fill="#000000" font-family="sans-serif" font-size="13" lengthAdjust="spacing" textLength="100.4517" x="95.5137" y="319.3564">Select a proposal</text><path d="M20,339.6191 L80.1709,339.6191 L80.1709,348.9102 L70.1709,358.9102 L20,358.9102 L20,339.6191 " fill="#EEEEEE" style="stroke:#000000;stroke-width:1.5;"/><rect fill="none" height="338.1719" style="stroke:#000000;stroke-width:1.5;" width="489.7129" x="20" y="339.6191"/><text fill="#000000" font-family="sans-serif" font-size="13" font-weight="bold" lengthAdjust="spacing" textLength="15.1709" x="35" y="354.6475">alt</text><text fill="#000000" font-family="sans-serif" font-size="11" font-weight="bold" lengthAdjust="spacing" textLength="92.9092" x="95.1709" y="353.4893">[Invalid selection]</text><polygon fill="#181818" points="99.5137,378.2012,89.5137,382.2012,99.5137,386.2012,95.5137,382.2012" style="stroke:#181818;stroke-width:1.0;"/><line style="stroke:#181818;stroke-width:1.0;" x1="93.5137" x2="458.375" y1="382.2012" y2="382.2012"/><text fill="#000000" font-family="sans-serif" font-size="13" lengthAdjust="spacing" textLength="205.061" x="105.5137" y="376.9385">Show a message "Invalid selection"</text><line style="stroke:#000000;stroke-width:1.0;stroke-dasharray:2.0,2.0;" x1="20" x2="509.7129" y1="391.2012" y2="391.2012"/><text fill="#000000" font-family="sans-serif" font-size="11" font-weight="bold" lengthAdjust="spacing" textLength="74.5776" x="25" y="403.0713">[Valid answer]</text><polygon fill="#181818" points="99.5137,426.123,89.5137,430.123,99.5137,434.123,95.5137,430.123" style="stroke:#181818;stroke-width:1.0;"/><line style="stroke:#181818;stroke-width:1.0;" x1="93.5137" x2="458.375" y1="430.123" y2="430.123"/><text fill="#000000" font-family="sans-serif" font-size="13" lengthAdjust="spacing" textLength="162.5762" x="105.5137" y="424.8604">Show proposal models (1-3)</text><polygon fill="#181818" points="447.375,457.4141,457.375,461.4141,447.375,465.4141,451.375,461.4141" style="stroke:#181818;stroke-width:1.0;"/><line style="stroke:#181818;stroke-width:1.0;" x1="88.5137" x2="453.375" y1="461.4141" y2="461.4141"/><text fill="#000000" font-family="sans-serif" font-size="13" lengthAdjust="spacing" textLength="85.9917" x="95.5137" y="456.1514">Select a model</text><path d="M30,476.4141 L102.4346,476.4141 L102.4346,485.7051 L92.4346,495.7051 L30,495.7051 L30,476.4141 " fill="#EEEEEE" style="stroke:#000000;stroke-width:1.5;"/><rect fill="none" height="81.873" style="stroke:#000000;stroke-width:1.5;" width="469.7129" x="30" y="476.4141"/><text fill="#000000" font-family="sans-serif" font-size="13" font-weight="bold" lengthAdjust="spacing" textLength="27.4346" x="45" y="491.4424">loop</text><text fill="#000000" font-family="sans-serif" font-size="11" font-weight="bold" lengthAdjust="spacing" textLength="158.9199" x="117.4346" y="490.2842">[while invalid model selection]</text><polygon fill="#181818" points="99.5137,514.9961,89.5137,518.9961,99.5137,522.9961,95.5137,518.9961" style="stroke:#181818;stroke-width:1.0;"/><line style="stroke:#181818;stroke-width:1.0;" x1="93.5137" x2="458.375" y1="518.9961" y2="518.9961"/><text fill="#000000" font-family="sans-serif" font-size="13" lengthAdjust="spacing" textLength="346.8613" x="105.5137" y="513.7334">Ask again to select one show proposal model available (1-3)</text><polygon fill="#181818" points="447.375,546.2871,457.375,550.2871,447.375,554.2871,451.375,550.2871" style="stroke:#181818;stroke-width:1.0;"/><line style="stroke:#181818;stroke-width:1.0;" x1="88.5137" x2="453.375" y1="550.2871" y2="550.2871"/><text fill="#000000" font-family="sans-serif" font-size="13" lengthAdjust="spacing" textLength="208.8506" x="95.5137" y="545.0244">Select again a show proposal model</text><path d="M30,572.2871 L90.1709,572.2871 L90.1709,581.5781 L80.1709,591.5781 L30,591.5781 L30,572.2871 " fill="#EEEEEE" style="stroke:#000000;stroke-width:1.5;"/><rect fill="none" height="98.5039" style="stroke:#000000;stroke-width:1.5;" width="469.7129" x="30" y="572.2871"/><text fill="#000000" font-family="sans-serif" font-size="13" font-weight="bold" lengthAdjust="spacing" textLength="15.1709" x="45" y="587.3154">alt</text><text fill="#000000" font-family="sans-serif" font-size="11" font-weight="bold" lengthAdjust="spacing" textLength="169.2861" x="105.1709" y="586.1572">[Proposal not in TESTED status]</text><polygon fill="#181818" points="99.5137,610.8691,89.5137,614.8691,99.5137,618.8691,95.5137,614.8691" style="stroke:#181818;stroke-width:1.0;"/><line style="stroke:#181818;stroke-width:1.0;" x1="93.5137" x2="458.375" y1="614.8691" y2="614.8691"/><text fill="#000000" font-family="sans-serif" font-size="13" lengthAdjust="spacing" textLength="282.3882" x="105.5137" y="609.6064">Show error "Proposal not ready to be configured"</text><line style="stroke:#000000;stroke-width:1.0;stroke-dasharray:2.0,2.0;" x1="30" x2="499.7129" y1="623.8691" y2="623.8691"/><text fill="#000000" font-family="sans-serif" font-size="11" font-weight="bold" lengthAdjust="spacing" textLength="138.7354" x="35" y="635.7393">[Successful configuration]</text><polygon fill="#181818" points="99.5137,658.791,89.5137,662.791,99.5137,666.791,95.5137,662.791" style="stroke:#181818;stroke-width:1.0;"/><line style="stroke:#181818;stroke-width:1.0;" x1="93.5137" x2="458.375" y1="662.791" y2="662.791"/><text fill="#000000" font-family="sans-serif" font-size="13" lengthAdjust="spacing" textLength="267.9219" x="105.5137" y="657.5283">Show success message "Proposal configured"</text><!--SRC=[ZLCzRy8m4DtpAqwPO62eM2g6IbLXw41LOThzI8vWrR5JdmFYtzSs8II2G2r5YkLtx-DynimP2-dRQWbBr5YGJG4P_3wfq3gPoGgrWrGSsL4Ppqw_YPDEKRC1GRyrwOnWBh6mMC98YFaO9l0bfa_FiAQoKkY8OUlLU6SEK5bJ6KR5IHB49vENCzSCLe6D7OCpa1czbKLj2R1Vc2Ie77oO3XFurP1uka0x0n5gIcBssI3jmi4IviUWiI7mtXpbQKAA_MP7GSz_zxcLP0Uer0FOA_y45IP5cSTV4WHm3D_9BgvG4HQolkizAfatHDBeU38O6Y-nhohJjZG6_ewdgFb0zZxfsHMK9lUbC7gQJCTjoM2OY4vQN5ZAc0eEE-c7I3Rs8kf6l257eR5OeDITzXfD_JbfM76FKk76g_KjFx8UwV4MPO-2TDwF5oxiyupNnlcGi5w8zM8ExD3L_31Tx3TP6zvdZwaxj-tpoDE-dt2jeiuoFmBRMhKu_5TZepIVgYzJr9eO5FLDY8tu0m00]--></g></svg>