<svg xmlns="http://www.w3.org/2000/svg" xmlns:xlink="http://www.w3.org/1999/xlink" contentStyleType="text/css" height="437px" preserveAspectRatio="none" style="width:799px;height:437px;background:#FFFFFF;" version="1.1" viewBox="0 0 799 437" width="799px" zoomAndPan="magnify"><defs/><g><line style="stroke:#181818;stroke-width:0.5;stroke-dasharray:5.0,5.0;" x1="55" x2="55" y1="83.6211" y2="353.9492"/><line style="stroke:#181818;stroke-width:0.5;stroke-dasharray:5.0,5.0;" x1="241.4033" x2="241.4033" y1="83.6211" y2="353.9492"/><line style="stroke:#181818;stroke-width:0.5;stroke-dasharray:5.0,5.0;" x1="418.6992" x2="418.6992" y1="83.6211" y2="353.9492"/><line style="stroke:#181818;stroke-width:0.5;stroke-dasharray:5.0,5.0;" x1="569.9883" x2="569.9883" y1="83.6211" y2="353.9492"/><line style="stroke:#181818;stroke-width:0.5;stroke-dasharray:5.0,5.0;" x1="732.5737" x2="732.5737" y1="83.6211" y2="353.9492"/><text fill="#000000" font-family="sans-serif" font-size="14" lengthAdjust="spacing" textLength="94.9375" x="5" y="80.1074">Show Designer</text><ellipse cx="55.4688" cy="13.5" fill="#E2E2F0" rx="8" ry="8" style="stroke:#181818;stroke-width:0.5;"/><path d="M55.4688,21.5 L55.4688,48.5 M42.4688,29.5 L68.4688,29.5 M55.4688,48.5 L42.4688,63.5 M55.4688,48.5 L68.4688,63.5 " fill="none" style="stroke:#181818;stroke-width:0.5;"/><text fill="#000000" font-family="sans-serif" font-size="14" lengthAdjust="spacing" textLength="94.9375" x="5" y="368.0566">Show Designer</text><ellipse cx="55.4688" cy="380.0703" fill="#E2E2F0" rx="8" ry="8" style="stroke:#181818;stroke-width:0.5;"/><path d="M55.4688,388.0703 L55.4688,415.0703 M42.4688,396.0703 L68.4688,396.0703 M55.4688,415.0703 L42.4688,430.0703 M55.4688,415.0703 L68.4688,430.0703 " fill="none" style="stroke:#181818;stroke-width:0.5;"/><rect fill="#E2E2F0" height="32.6211" rx="2.5" ry="2.5" style="stroke:#181818;stroke-width:0.5;" width="153.2959" x="165.4033" y="50"/><text fill="#000000" font-family="sans-serif" font-size="14" lengthAdjust="spacing" textLength="139.2959" x="172.4033" y="72.1074">ListFigureCatalogueUI</text><rect fill="#E2E2F0" height="32.6211" rx="2.5" ry="2.5" style="stroke:#181818;stroke-width:0.5;" width="153.2959" x="165.4033" y="352.9492"/><text fill="#000000" font-family="sans-serif" font-size="14" lengthAdjust="spacing" textLength="139.2959" x="172.4033" y="375.0566">ListFigureCatalogueUI</text><rect fill="#E2E2F0" height="32.6211" rx="2.5" ry="2.5" style="stroke:#181818;stroke-width:0.5;" width="181.2891" x="328.6992" y="50"/><text fill="#000000" font-family="sans-serif" font-size="14" lengthAdjust="spacing" textLength="167.2891" x="335.6992" y="72.1074">ListPublicFiguresController</text><rect fill="#E2E2F0" height="32.6211" rx="2.5" ry="2.5" style="stroke:#181818;stroke-width:0.5;" width="181.2891" x="328.6992" y="352.9492"/><text fill="#000000" font-family="sans-serif" font-size="14" lengthAdjust="spacing" textLength="167.2891" x="335.6992" y="375.0566">ListPublicFiguresController</text><rect fill="#E2E2F0" height="32.6211" rx="2.5" ry="2.5" style="stroke:#181818;stroke-width:0.5;" width="100.3652" x="519.9883" y="50"/><text fill="#000000" font-family="sans-serif" font-size="14" lengthAdjust="spacing" textLength="86.3652" x="526.9883" y="72.1074">FigureService</text><rect fill="#E2E2F0" height="32.6211" rx="2.5" ry="2.5" style="stroke:#181818;stroke-width:0.5;" width="100.3652" x="519.9883" y="352.9492"/><text fill="#000000" font-family="sans-serif" font-size="14" lengthAdjust="spacing" textLength="86.3652" x="526.9883" y="375.0566">FigureService</text><rect fill="#E2E2F0" height="32.6211" rx="2.5" ry="2.5" style="stroke:#181818;stroke-width:0.5;" width="120.5996" x="672.5737" y="50"/><text fill="#000000" font-family="sans-serif" font-size="14" lengthAdjust="spacing" textLength="106.5996" x="679.5737" y="72.1074">FigureRepository</text><rect fill="#E2E2F0" height="32.6211" rx="2.5" ry="2.5" style="stroke:#181818;stroke-width:0.5;" width="120.5996" x="672.5737" y="352.9492"/><text fill="#000000" font-family="sans-serif" font-size="14" lengthAdjust="spacing" textLength="106.5996" x="679.5737" y="375.0566">FigureRepository</text><polygon fill="#181818" points="230.0513,112.9121,240.0513,116.9121,230.0513,120.9121,234.0513,116.9121" style="stroke:#181818;stroke-width:1.0;"/><line style="stroke:#181818;stroke-width:1.0;" x1="55.4688" x2="236.0513" y1="116.9121" y2="116.9121"/><text fill="#000000" font-family="sans-serif" font-size="13" lengthAdjust="spacing" textLength="162.5825" x="62.4688" y="111.6494">Request list of public figures</text><polygon fill="#181818" points="407.3438,144.2031,417.3438,148.2031,407.3438,152.2031,411.3438,148.2031" style="stroke:#181818;stroke-width:1.0;"/><line style="stroke:#181818;stroke-width:1.0;" x1="242.0513" x2="413.3438" y1="148.2031" y2="148.2031"/><text fill="#000000" font-family="sans-serif" font-size="13" lengthAdjust="spacing" textLength="103.3018" x="249.0513" y="142.9404">listPublicFigures()</text><polygon fill="#181818" points="558.1709,175.4941,568.1709,179.4941,558.1709,183.4941,562.1709,179.4941" style="stroke:#181818;stroke-width:1.0;"/><line style="stroke:#181818;stroke-width:1.0;" x1="419.3438" x2="564.1709" y1="179.4941" y2="179.4941"/><text fill="#000000" font-family="sans-serif" font-size="13" lengthAdjust="spacing" textLength="103.3018" x="426.3438" y="174.2314">listPublicFigures()</text><polygon fill="#181818" points="720.8735,206.7852,730.8735,210.7852,720.8735,214.7852,724.8735,210.7852" style="stroke:#181818;stroke-width:1.0;"/><line style="stroke:#181818;stroke-width:1.0;" x1="570.1709" x2="726.8735" y1="210.7852" y2="210.7852"/><text fill="#000000" font-family="sans-serif" font-size="13" lengthAdjust="spacing" textLength="138.7026" x="577.1709" y="205.5225">findByVisibility(PUBLIC)</text><polygon fill="#181818" points="581.1709,238.0762,571.1709,242.0762,581.1709,246.0762,577.1709,242.0762" style="stroke:#181818;stroke-width:1.0;"/><line style="stroke:#181818;stroke-width:1.0;stroke-dasharray:2.0,2.0;" x1="575.1709" x2="731.8735" y1="242.0762" y2="242.0762"/><text fill="#000000" font-family="sans-serif" font-size="13" lengthAdjust="spacing" textLength="95.3926" x="587.1709" y="236.8135">Iterable&lt;Figure&gt;</text><polygon fill="#181818" points="430.3438,269.3672,420.3438,273.3672,430.3438,277.3672,426.3438,273.3672" style="stroke:#181818;stroke-width:1.0;"/><line style="stroke:#181818;stroke-width:1.0;stroke-dasharray:2.0,2.0;" x1="424.3438" x2="569.1709" y1="273.3672" y2="273.3672"/><text fill="#000000" font-family="sans-serif" font-size="13" lengthAdjust="spacing" textLength="95.3926" x="436.3438" y="268.1045">Iterable&lt;Figure&gt;</text><polygon fill="#181818" points="253.0513,300.6582,243.0513,304.6582,253.0513,308.6582,249.0513,304.6582" style="stroke:#181818;stroke-width:1.0;"/><line style="stroke:#181818;stroke-width:1.0;stroke-dasharray:2.0,2.0;" x1="247.0513" x2="418.3438" y1="304.6582" y2="304.6582"/><text fill="#000000" font-family="sans-serif" font-size="13" lengthAdjust="spacing" textLength="95.3926" x="259.0513" y="299.3955">Iterable&lt;Figure&gt;</text><polygon fill="#181818" points="66.4688,331.9492,56.4688,335.9492,66.4688,339.9492,62.4688,335.9492" style="stroke:#181818;stroke-width:1.0;"/><line style="stroke:#181818;stroke-width:1.0;" x1="60.4688" x2="241.0513" y1="335.9492" y2="335.9492"/><text fill="#000000" font-family="sans-serif" font-size="13" lengthAdjust="spacing" textLength="122.8335" x="72.4688" y="330.6865">Display public figures</text><!--SRC=[TP1DQyCm38Rl_XMYkxI7NiSeex0aAmHwA0lPtKdLLDIpFTlP26F_VKhSBltOBiQI7hyybZ-GjjB9Dr2aCNGMmRYmDyB_3goi3x91-1802TyRPrgzJOqo3kwo- -UdrKC_CMwBBdOJnPZu5aBMWSj9iJUVaA6dHgERWFHGP8B30zLafGumMPCFAsfQXwaCKfccnJ8Vo3A_9JTjfQYEl4-D3iueTKmUoyjtaIxGVL2DqI7U_y9Uq1fFxDuDP5yAKMGmNx8FBBZntg8Fl3C-p0xi80IxQ2IOON8quHVgMdiw4sS0uqUTVzZJbC7UXgaTwMtIlPAdYXI5RhefatMUpiGmdryavW6Th1G-ni3b67VjUKEUIvw-VmF53_E25f2Hjqfsrolv0G00]--></g></svg>