<svg xmlns="http://www.w3.org/2000/svg" xmlns:xlink="http://www.w3.org/1999/xlink" contentStyleType="text/css" height="719px" preserveAspectRatio="none" style="width:1053px;height:719px;background:#FFFFFF;" version="1.1" viewBox="0 0 1053 719" width="1053px" zoomAndPan="magnify"><defs/><g><rect fill="#AED6F1" height="367.4922" style="stroke:#000000;stroke-width:1.5;" width="1026.314" x="20" y="252.0762"/><rect fill="#AED6F1" height="254.3281" style="stroke:none;stroke-width:1.0;" width="1026.314" x="20" y="365.2402"/><rect fill="#AED6F1" height="19.291" style="stroke:#000000;stroke-width:1.5;" width="84.6899" x="40" y="593.2773"/><line style="stroke:#181818;stroke-width:0.5;stroke-dasharray:5.0,5.0;" x1="89" x2="89" y1="83.6211" y2="636.5684"/><line style="stroke:#181818;stroke-width:0.5;stroke-dasharray:5.0,5.0;" x1="322.6641" x2="322.6641" y1="83.6211" y2="636.5684"/><line style="stroke:#181818;stroke-width:0.5;stroke-dasharray:5.0,5.0;" x1="494.9531" x2="494.9531" y1="83.6211" y2="636.5684"/><line style="stroke:#181818;stroke-width:0.5;stroke-dasharray:5.0,5.0;" x1="672.2192" x2="672.2192" y1="83.6211" y2="636.5684"/><line style="stroke:#181818;stroke-width:0.5;stroke-dasharray:5.0,5.0;" x1="841.0669" x2="841.0669" y1="83.6211" y2="636.5684"/><line style="stroke:#181818;stroke-width:0.5;stroke-dasharray:5.0,5.0;" x1="985.1489" x2="985.1489" y1="83.6211" y2="636.5684"/><text fill="#000000" font-family="sans-serif" font-size="14" lengthAdjust="spacing" textLength="112.0342" x="30" y="80.1074">CRM Collaborator</text><ellipse cx="89.0171" cy="13.5" fill="#E2E2F0" rx="8" ry="8" style="stroke:#181818;stroke-width:0.5;"/><path d="M89.0171,21.5 L89.0171,48.5 M76.0171,29.5 L102.0171,29.5 M89.0171,48.5 L76.0171,63.5 M89.0171,48.5 L102.0171,63.5 " fill="none" style="stroke:#181818;stroke-width:0.5;"/><text fill="#000000" font-family="sans-serif" font-size="14" lengthAdjust="spacing" textLength="112.0342" x="30" y="650.6758">CRM Collaborator</text><ellipse cx="89.0171" cy="662.6895" fill="#E2E2F0" rx="8" ry="8" style="stroke:#181818;stroke-width:0.5;"/><path d="M89.0171,670.6895 L89.0171,697.6895 M76.0171,678.6895 L102.0171,678.6895 M89.0171,697.6895 L76.0171,712.6895 M89.0171,697.6895 L102.0171,712.6895 " fill="none" style="stroke:#181818;stroke-width:0.5;"/><rect fill="#E2E2F0" height="32.6211" rx="2.5" ry="2.5" style="stroke:#181818;stroke-width:0.5;" width="139.2891" x="253.6641" y="50"/><text fill="#000000" font-family="sans-serif" font-size="14" lengthAdjust="spacing" textLength="125.2891" x="260.6641" y="72.1074">EditShowRequestUI</text><rect fill="#E2E2F0" height="32.6211" rx="2.5" ry="2.5" style="stroke:#181818;stroke-width:0.5;" width="139.2891" x="253.6641" y="635.5684"/><text fill="#000000" font-family="sans-serif" font-size="14" lengthAdjust="spacing" textLength="125.2891" x="260.6641" y="657.6758">EditShowRequestUI</text><rect fill="#E2E2F0" height="32.6211" rx="2.5" ry="2.5" style="stroke:#181818;stroke-width:0.5;" width="185.9785" x="402.9531" y="50"/><text fill="#000000" font-family="sans-serif" font-size="14" lengthAdjust="spacing" textLength="171.9785" x="409.9531" y="72.1074">EditShowRequestController</text><rect fill="#E2E2F0" height="32.6211" rx="2.5" ry="2.5" style="stroke:#181818;stroke-width:0.5;" width="185.9785" x="402.9531" y="635.5684"/><text fill="#000000" font-family="sans-serif" font-size="14" lengthAdjust="spacing" textLength="171.9785" x="409.9531" y="657.6758">EditShowRequestController</text><rect fill="#E2E2F0" height="32.6211" rx="2.5" ry="2.5" style="stroke:#181818;stroke-width:0.5;" width="147.8477" x="599.2192" y="50"/><text fill="#000000" font-family="sans-serif" font-size="14" lengthAdjust="spacing" textLength="133.8477" x="606.2192" y="72.1074">ShowRequestService</text><rect fill="#E2E2F0" height="32.6211" rx="2.5" ry="2.5" style="stroke:#181818;stroke-width:0.5;" width="147.8477" x="599.2192" y="635.5684"/><text fill="#000000" font-family="sans-serif" font-size="14" lengthAdjust="spacing" textLength="133.8477" x="606.2192" y="657.6758">ShowRequestService</text><rect fill="#E2E2F0" height="32.6211" rx="2.5" ry="2.5" style="stroke:#181818;stroke-width:0.5;" width="168.082" x="757.0669" y="50"/><text fill="#000000" font-family="sans-serif" font-size="14" lengthAdjust="spacing" textLength="154.082" x="764.0669" y="72.1074">ShowRequestRepository</text><rect fill="#E2E2F0" height="32.6211" rx="2.5" ry="2.5" style="stroke:#181818;stroke-width:0.5;" width="168.082" x="757.0669" y="635.5684"/><text fill="#000000" font-family="sans-serif" font-size="14" lengthAdjust="spacing" textLength="154.082" x="764.0669" y="657.6758">ShowRequestRepository</text><rect fill="#E2E2F0" height="32.6211" rx="2.5" ry="2.5" style="stroke:#181818;stroke-width:0.5;" width="101.165" x="935.1489" y="50"/><text fill="#000000" font-family="sans-serif" font-size="14" lengthAdjust="spacing" textLength="87.165" x="942.1489" y="72.1074">ShowRequest</text><rect fill="#E2E2F0" height="32.6211" rx="2.5" ry="2.5" style="stroke:#181818;stroke-width:0.5;" width="101.165" x="935.1489" y="635.5684"/><text fill="#000000" font-family="sans-serif" font-size="14" lengthAdjust="spacing" textLength="87.165" x="942.1489" y="657.6758">ShowRequest</text><polygon fill="#181818" points="311.3086,139.2031,321.3086,143.2031,311.3086,147.2031,315.3086,143.2031" style="stroke:#181818;stroke-width:1.0;"/><line style="stroke:#181818;stroke-width:1.0;" x1="89.0171" x2="317.3086" y1="143.2031" y2="143.2031"/><text fill="#000000" font-family="sans-serif" font-size="13" lengthAdjust="spacing" textLength="210.2915" x="96.0171" y="137.9404">Enter show request ID and new data</text><polygon fill="#181818" points="483.9424,170.4941,493.9424,174.4941,483.9424,178.4941,487.9424,174.4941" style="stroke:#181818;stroke-width:1.0;"/><line style="stroke:#181818;stroke-width:1.0;" x1="323.3086" x2="489.9424" y1="174.4941" y2="174.4941"/><text fill="#000000" font-family="sans-serif" font-size="13" lengthAdjust="spacing" textLength="120.6816" x="330.3086" y="169.2314">editRequest(id, data)</text><polygon fill="#181818" points="661.1431,201.7852,671.1431,205.7852,661.1431,209.7852,665.1431,205.7852" style="stroke:#181818;stroke-width:1.0;"/><line style="stroke:#181818;stroke-width:1.0;" x1="495.9424" x2="667.1431" y1="205.7852" y2="205.7852"/><text fill="#000000" font-family="sans-serif" font-size="13" lengthAdjust="spacing" textLength="153.2007" x="502.9424" y="200.5225">editShowRequest(id, data)</text><polygon fill="#181818" points="829.1079,233.0762,839.1079,237.0762,829.1079,241.0762,833.1079,237.0762" style="stroke:#181818;stroke-width:1.0;"/><line style="stroke:#181818;stroke-width:1.0;" x1="673.1431" x2="835.1079" y1="237.0762" y2="237.0762"/><text fill="#000000" font-family="sans-serif" font-size="13" lengthAdjust="spacing" textLength="65.749" x="680.1431" y="231.8135">findById(id)</text><path d="M20,252.0762 L80.1709,252.0762 L80.1709,261.3672 L70.1709,271.3672 L20,271.3672 L20,252.0762 " fill="#EEEEEE" style="stroke:#000000;stroke-width:1.5;"/><rect fill="none" height="367.4922" style="stroke:#000000;stroke-width:1.5;" width="1026.314" x="20" y="252.0762"/><text fill="#000000" font-family="sans-serif" font-size="13" font-weight="bold" lengthAdjust="spacing" textLength="15.1709" x="35" y="267.1045">alt</text><text fill="#000000" font-family="sans-serif" font-size="11" font-weight="bold" lengthAdjust="spacing" textLength="183.3154" x="95.1709" y="265.9463">[Request not found or not editable]</text><polygon fill="#181818" points="506.9424,290.6582,496.9424,294.6582,506.9424,298.6582,502.9424,294.6582" style="stroke:#181818;stroke-width:1.0;"/><line style="stroke:#181818;stroke-width:1.0;" x1="500.9424" x2="672.1431" y1="294.6582" y2="294.6582"/><text fill="#000000" font-family="sans-serif" font-size="13" lengthAdjust="spacing" textLength="152.4707" x="512.9424" y="289.3955">throw InvalidEditException</text><polygon fill="#181818" points="334.3086,321.9492,324.3086,325.9492,334.3086,329.9492,330.3086,325.9492" style="stroke:#181818;stroke-width:1.0;"/><line style="stroke:#181818;stroke-width:1.0;" x1="328.3086" x2="494.9424" y1="325.9492" y2="325.9492"/><text fill="#000000" font-family="sans-serif" font-size="13" lengthAdjust="spacing" textLength="117.7681" x="340.3086" y="320.6865">show error message</text><polygon fill="#181818" points="100.0171,353.2402,90.0171,357.2402,100.0171,361.2402,96.0171,357.2402" style="stroke:#181818;stroke-width:1.0;"/><line style="stroke:#181818;stroke-width:1.0;" x1="94.0171" x2="322.3086" y1="357.2402" y2="357.2402"/><text fill="#000000" font-family="sans-serif" font-size="13" lengthAdjust="spacing" textLength="71.5254" x="106.0171" y="351.9775">display error</text><line style="stroke:#000000;stroke-width:1.0;stroke-dasharray:2.0,2.0;" x1="20" x2="1046.314" y1="366.2402" y2="366.2402"/><polygon fill="#181818" points="973.7314,386.5313,983.7314,390.5313,973.7314,394.5313,977.7314,390.5313" style="stroke:#181818;stroke-width:1.0;"/><line style="stroke:#181818;stroke-width:1.0;" x1="673.1431" x2="979.7314" y1="390.5313" y2="390.5313"/><text fill="#000000" font-family="sans-serif" font-size="13" lengthAdjust="spacing" textLength="157.5615" x="680.1431" y="385.2686">validate and apply changes</text><polygon fill="#181818" points="684.1431,417.8223,674.1431,421.8223,684.1431,425.8223,680.1431,421.8223" style="stroke:#181818;stroke-width:1.0;"/><line style="stroke:#181818;stroke-width:1.0;" x1="678.1431" x2="984.7314" y1="421.8223" y2="421.8223"/><text fill="#000000" font-family="sans-serif" font-size="13" lengthAdjust="spacing" textLength="84.5317" x="690.1431" y="416.5596">return success</text><polygon fill="#181818" points="829.1079,449.1133,839.1079,453.1133,829.1079,457.1133,833.1079,453.1133" style="stroke:#181818;stroke-width:1.0;"/><line style="stroke:#181818;stroke-width:1.0;" x1="673.1431" x2="835.1079" y1="453.1133" y2="453.1133"/><text fill="#000000" font-family="sans-serif" font-size="13" lengthAdjust="spacing" textLength="131.5298" x="680.1431" y="447.8506">save(updatedRequest)</text><polygon fill="#181818" points="684.1431,480.4043,674.1431,484.4043,684.1431,488.4043,680.1431,484.4043" style="stroke:#181818;stroke-width:1.0;"/><line style="stroke:#181818;stroke-width:1.0;stroke-dasharray:2.0,2.0;" x1="678.1431" x2="840.1079" y1="484.4043" y2="484.4043"/><text fill="#000000" font-family="sans-serif" font-size="13" lengthAdjust="spacing" textLength="70.8081" x="690.1431" y="479.1416">confirmation</text><polygon fill="#181818" points="506.9424,511.6953,496.9424,515.6953,506.9424,519.6953,502.9424,515.6953" style="stroke:#181818;stroke-width:1.0;"/><line style="stroke:#181818;stroke-width:1.0;stroke-dasharray:2.0,2.0;" x1="500.9424" x2="672.1431" y1="515.6953" y2="515.6953"/><text fill="#000000" font-family="sans-serif" font-size="13" lengthAdjust="spacing" textLength="46.96" x="512.9424" y="510.4326">success</text><polygon fill="#181818" points="334.3086,542.9863,324.3086,546.9863,334.3086,550.9863,330.3086,546.9863" style="stroke:#181818;stroke-width:1.0;"/><line style="stroke:#181818;stroke-width:1.0;stroke-dasharray:2.0,2.0;" x1="328.3086" x2="494.9424" y1="546.9863" y2="546.9863"/><text fill="#000000" font-family="sans-serif" font-size="13" lengthAdjust="spacing" textLength="103.3208" x="340.3086" y="541.7236">success message</text><polygon fill="#181818" points="100.0171,574.2773,90.0171,578.2773,100.0171,582.2773,96.0171,578.2773" style="stroke:#181818;stroke-width:1.0;"/><line style="stroke:#181818;stroke-width:1.0;" x1="94.0171" x2="322.3086" y1="578.2773" y2="578.2773"/><text fill="#000000" font-family="sans-serif" font-size="13" lengthAdjust="spacing" textLength="91.0381" x="106.0171" y="573.0146">display success</text><path d="M40,593.2773 L119.6899,593.2773 L119.6899,602.5684 L109.6899,612.5684 L40,612.5684 L40,593.2773 " fill="#EEEEEE" style="stroke:#000000;stroke-width:1.5;"/><rect fill="none" height="19.291" style="stroke:#000000;stroke-width:1.5;" width="84.6899" x="40" y="593.2773"/><text fill="#000000" font-family="sans-serif" font-size="13" font-weight="bold" lengthAdjust="spacing" textLength="34.6899" x="55" y="608.3057">break</text><!--SRC=[ZP8_Rzim4CLtVeg3koH0CtJ9a250xBY0XYuEWivdycmHfacMf9m8HRzxZnGhIq9QT130FxztT- -9yQIjnu1dCDfIwZs12wbr8euN7kK9ZmG_1S2QryVWEgisphW0dvwsp_TVl-GR5nI5uNHj61E_X42PUBlQxBu1tnZSku1yiWACm8U26oGjjKUROBLLEhsqxcr7FpgAwRKfs6lpJshZR0fScchHSJjNJHGl52vQKi7h-g_iZhoBcYVk2vwtGXZdF7nljI68Z48OMD0Hh4j0F23kJSuHP1UJErC0RJaAVI4E2h9pk7jaP_00MvluUbQdUGQq2YozWSA4HS8iAwxkM9dxr35ljFfSsDkX_XLZKVLO5HDp2zKVZYNP9_C7RTMwRnI30u8cGHKNguVy4BBFgUz2BWhE1azjOBUDlQ3HAl_ExRiadxIpetJke0HL8g8GkDkPOkG7ET8r74xr0PIEtc0_a8KW4p-SQP84wyemcAX4ZzwR7cIBzaZngfq8Pha6Ibsm43ifURAFUjL08rxeflEvZwgLRaUyC7UpmjBPWmvdd6Kpbbtckkm_3N5CSM3-Ay9blNqWF0sHMYNu-mq0]--></g></svg>