<?xml version="1.0" encoding="us-ascii" standalone="no"?><svg xmlns="http://www.w3.org/2000/svg" xmlns:xlink="http://www.w3.org/1999/xlink" contentStyleType="text/css" height="548px" preserveAspectRatio="none" style="width:535px;height:548px;background:#FFFFFF;" version="1.1" viewBox="0 0 535 548" width="535px" zoomAndPan="magnify"><defs/><g><text fill="#000000" font-family="sans-serif" font-size="14" font-weight="bold" lengthAdjust="spacing" textLength="276" x="131.25" y="27.6738">System Sequence Diagram (SSD) - US07</text><rect fill="#FFFFFF" height="301.2344" style="stroke:#181818;stroke-width:1.0;" width="10" x="90.5" y="142.9219"/><rect fill="#FFFFFF" height="28.5234" style="stroke:#181818;stroke-width:1.0;" width="10" x="383.5" y="163.4453"/><rect fill="#FFFFFF" height="52.0469" style="stroke:#181818;stroke-width:1.0;" width="10" x="383.5" y="220.4922"/><rect fill="#FFFFFF" height="28.5234" style="stroke:#181818;stroke-width:1.0;" width="10" x="383.5" y="301.0625"/><rect fill="#FFFFFF" height="77.0469" style="stroke:#181818;stroke-width:1.0;" width="10" x="383.5" y="358.1094"/><rect fill="none" height="172.1406" style="stroke:#000000;stroke-width:1.5;" width="519.5" x="10" y="235.4922"/><line style="stroke:#181818;stroke-width:0.5;stroke-dasharray:5.0,5.0;" x1="95" x2="95" y1="132.9219" y2="453.1563"/><line style="stroke:#181818;stroke-width:0.5;stroke-dasharray:5.0,5.0;" x1="388.5" x2="388.5" y1="132.9219" y2="453.1563"/><text fill="#000000" font-family="sans-serif" font-size="14" lengthAdjust="spacing" textLength="145" x="20" y="114.3145">Vehicle and Equipment</text><text fill="#000000" font-family="sans-serif" font-size="14" lengthAdjust="spacing" textLength="92" x="46.5" y="129.9551">Fleet Manager</text><ellipse cx="95.5" cy="50.1406" fill="#E3E3E3" rx="8" ry="8" style="stroke:#181818;stroke-width:0.5;"/><path d="M95.5,58.1406 L95.5,85.1406 M82.5,66.1406 L108.5,66.1406 M95.5,85.1406 L82.5,100.1406 M95.5,85.1406 L108.5,100.1406 " fill="none" style="stroke:#181818;stroke-width:0.5;"/><text fill="#000000" font-family="sans-serif" font-size="14" lengthAdjust="spacing" textLength="145" x="20" y="464.8301">Vehicle and Equipment</text><text fill="#000000" font-family="sans-serif" font-size="14" lengthAdjust="spacing" textLength="92" x="46.5" y="480.4707">Fleet Manager</text><ellipse cx="95.5" cy="491.9375" fill="#E3E3E3" rx="8" ry="8" style="stroke:#181818;stroke-width:0.5;"/><path d="M95.5,499.9375 L95.5,526.9375 M82.5,507.9375 L108.5,507.9375 M95.5,526.9375 L82.5,541.9375 M95.5,526.9375 L108.5,541.9375 " fill="none" style="stroke:#181818;stroke-width:0.5;"/><rect fill="#E3E3E3" height="29.6406" rx="2.5" ry="2.5" style="stroke:#181818;stroke-width:0.5;" width="64" x="356.5" y="102.2813"/><text fill="#000000" font-family="sans-serif" font-size="14" lengthAdjust="spacing" textLength="50" x="363.5" y="121.9551">:System</text><rect fill="#E3E3E3" height="29.6406" rx="2.5" ry="2.5" style="stroke:#181818;stroke-width:0.5;" width="64" x="356.5" y="452.1563"/><text fill="#000000" font-family="sans-serif" font-size="14" lengthAdjust="spacing" textLength="50" x="363.5" y="471.8301">:System</text><rect fill="#FFFFFF" height="301.2344" style="stroke:#181818;stroke-width:1.0;" width="10" x="90.5" y="142.9219"/><rect fill="#FFFFFF" height="28.5234" style="stroke:#181818;stroke-width:1.0;" width="10" x="383.5" y="163.4453"/><rect fill="#FFFFFF" height="52.0469" style="stroke:#181818;stroke-width:1.0;" width="10" x="383.5" y="220.4922"/><rect fill="#FFFFFF" height="28.5234" style="stroke:#181818;stroke-width:1.0;" width="10" x="383.5" y="301.0625"/><rect fill="#FFFFFF" height="77.0469" style="stroke:#181818;stroke-width:1.0;" width="10" x="383.5" y="358.1094"/><polygon fill="#181818" points="371.5,159.4453,381.5,163.4453,371.5,167.4453,375.5,163.4453" style="stroke:#181818;stroke-width:1.0;"/><line style="stroke:#181818;stroke-width:1.0;" x1="100.5" x2="377.5" y1="163.4453" y2="163.4453"/><text fill="#000000" font-family="sans-serif" font-size="13" font-weight="bold" lengthAdjust="spacing" textLength="7" x="107.5" y="158.6904">1</text><text fill="#000000" font-family="sans-serif" font-size="13" lengthAdjust="spacing" textLength="253" x="118.5" y="158.6904">asks to list the vehicles needing a check-up</text><polygon fill="#181818" points="111.5,187.9688,101.5,191.9688,111.5,195.9688,107.5,191.9688" style="stroke:#181818;stroke-width:1.0;"/><line style="stroke:#181818;stroke-width:1.0;stroke-dasharray:2.0,2.0;" x1="105.5" x2="387.5" y1="191.9688" y2="191.9688"/><text fill="#000000" font-family="sans-serif" font-size="13" font-weight="bold" lengthAdjust="spacing" textLength="7" x="117.5" y="187.2139">2</text><text fill="#000000" font-family="sans-serif" font-size="13" lengthAdjust="spacing" textLength="144" x="128.5" y="187.2139">types the requested data</text><polygon fill="#181818" points="371.5,216.4922,381.5,220.4922,371.5,224.4922,375.5,220.4922" style="stroke:#181818;stroke-width:1.0;"/><line style="stroke:#181818;stroke-width:1.0;" x1="100.5" x2="377.5" y1="220.4922" y2="220.4922"/><text fill="#000000" font-family="sans-serif" font-size="13" font-weight="bold" lengthAdjust="spacing" textLength="7" x="107.5" y="215.7373">3</text><text fill="#000000" font-family="sans-serif" font-size="13" lengthAdjust="spacing" textLength="201" x="118.5" y="215.7373">asks to register a vehicle check-up</text><path d="M10,235.4922 L83,235.4922 L83,242.0156 L73,252.0156 L10,252.0156 L10,235.4922 " fill="#EEEEEE" style="stroke:#000000;stroke-width:1.5;"/><rect fill="none" height="172.1406" style="stroke:#000000;stroke-width:1.5;" width="519.5" x="10" y="235.4922"/><text fill="#000000" font-family="sans-serif" font-size="13" font-weight="bold" lengthAdjust="spacing" textLength="28" x="25" y="248.2607">loop</text><text fill="#000000" font-family="sans-serif" font-size="11" font-weight="bold" lengthAdjust="spacing" textLength="152" x="98" y="247.4502">[until information accepted]</text><polygon fill="#181818" points="111.5,268.5391,101.5,272.5391,111.5,276.5391,107.5,272.5391" style="stroke:#181818;stroke-width:1.0;"/><line style="stroke:#181818;stroke-width:1.0;stroke-dasharray:2.0,2.0;" x1="105.5" x2="387.5" y1="272.5391" y2="272.5391"/><text fill="#000000" font-family="sans-serif" font-size="13" font-weight="bold" lengthAdjust="spacing" textLength="7" x="117.5" y="267.7842">4</text><text fill="#000000" font-family="sans-serif" font-size="13" lengthAdjust="spacing" textLength="239" x="128.5" y="267.7842">requests data (vehicle identification, date)</text><polygon fill="#181818" points="371.5,297.0625,381.5,301.0625,371.5,305.0625,375.5,301.0625" style="stroke:#181818;stroke-width:1.0;"/><line style="stroke:#181818;stroke-width:1.0;" x1="100.5" x2="377.5" y1="301.0625" y2="301.0625"/><text fill="#000000" font-family="sans-serif" font-size="13" font-weight="bold" lengthAdjust="spacing" textLength="7" x="107.5" y="296.3076">5</text><text fill="#000000" font-family="sans-serif" font-size="13" lengthAdjust="spacing" textLength="125" x="118.5" y="296.3076">Types requested data</text><polygon fill="#181818" points="111.5,325.5859,101.5,329.5859,111.5,333.5859,107.5,329.5859" style="stroke:#181818;stroke-width:1.0;"/><line style="stroke:#181818;stroke-width:1.0;stroke-dasharray:2.0,2.0;" x1="105.5" x2="387.5" y1="329.5859" y2="329.5859"/><text fill="#000000" font-family="sans-serif" font-size="13" font-weight="bold" lengthAdjust="spacing" textLength="7" x="117.5" y="324.8311">6</text><text fill="#000000" font-family="sans-serif" font-size="13" lengthAdjust="spacing" textLength="236" x="128.5" y="324.8311">shows all data and requests confirmation</text><polygon fill="#181818" points="371.5,354.1094,381.5,358.1094,371.5,362.1094,375.5,358.1094" style="stroke:#181818;stroke-width:1.0;"/><line style="stroke:#181818;stroke-width:1.0;" x1="100.5" x2="377.5" y1="358.1094" y2="358.1094"/><text fill="#000000" font-family="sans-serif" font-size="13" font-weight="bold" lengthAdjust="spacing" textLength="7" x="107.5" y="353.3545">7</text><text fill="#000000" font-family="sans-serif" font-size="13" lengthAdjust="spacing" textLength="78" x="118.5" y="353.3545">confirms data</text><line style="stroke:#181818;stroke-width:1.0;" x1="393.5" x2="435.5" y1="386.6328" y2="386.6328"/><line style="stroke:#181818;stroke-width:1.0;" x1="435.5" x2="435.5" y1="386.6328" y2="399.6328"/><line style="stroke:#181818;stroke-width:1.0;" x1="394.5" x2="435.5" y1="399.6328" y2="399.6328"/><polygon fill="#181818" points="404.5,395.6328,394.5,399.6328,404.5,403.6328,400.5,399.6328" style="stroke:#181818;stroke-width:1.0;"/><text fill="#000000" font-family="sans-serif" font-size="13" font-weight="bold" lengthAdjust="spacing" textLength="7" x="400.5" y="381.8779">8</text><text fill="#000000" font-family="sans-serif" font-size="13" lengthAdjust="spacing" textLength="106" x="411.5" y="381.8779">verifies information</text><polygon fill="#181818" points="111.5,431.1563,101.5,435.1563,111.5,439.1563,107.5,435.1563" style="stroke:#181818;stroke-width:1.0;"/><line style="stroke:#181818;stroke-width:1.0;stroke-dasharray:2.0,2.0;" x1="105.5" x2="387.5" y1="435.1563" y2="435.1563"/><text fill="#000000" font-family="sans-serif" font-size="13" font-weight="bold" lengthAdjust="spacing" textLength="7" x="117.5" y="430.4014">9</text><text fill="#000000" font-family="sans-serif" font-size="13" lengthAdjust="spacing" textLength="158" x="128.5" y="430.4014">displays operation success</text><!--SRC=[bPAxJWGn34Nx-GfhAv1OYGvf2ogWengWeZ4Pxuor6IV47j3-FPxNYe9dgaY-kJw-ZXvOCXRieK-IGbTIJs1be4fFbOpXW2tLTem4XOAXjF6pG3jiqZjB2tkCIbLbR2wjZshKGqsl0qaWk65iH_bPNT-SmnOUwykhgiB1aWpz2nM_1qi5Da_KSN03b0PkNmVEFOazorqaChX7SPYo0LHukhkl7C4uS4OnsEpcdbDnlawc_8P6axe2Ftw1xVNAjtFnGS4IH5O3wmZUPW058Mh6kH12H-6m7V9aSB9SUy1o5ikjkuzDTc37x3QZPnbZy6e33HfEBnhwqkWxl4Aj0r9ncWNm3rGnfGo364TWsQVIet4IrmRA3lC3-WAi4o-ShIsvyMNmdiDaT35MwVm_upnCaNmHnzzJrIwzAs2CCzluJqwq8ScUbp7_WxMyqrzuLfRrvSvtKJmE7-bJlhEMvATy6zOSyQYGCfLvAphuMbI_mVu0]--></g></svg>