<?xml version="1.0" encoding="us-ascii" standalone="no"?><svg xmlns="http://www.w3.org/2000/svg" xmlns:xlink="http://www.w3.org/1999/xlink" contentStyleType="text/css" height="1040px" preserveAspectRatio="none" style="width:1085px;height:1040px;background:#FFFFFF;" version="1.1" viewBox="0 0 1085 1040" width="1085px" zoomAndPan="magnify"><defs/><g><!--class CollaboratorsRepository--><g id="elem_CollaboratorsRepository"><rect codeLine="8" fill="#F1F1F1" height="215.5898" id="CollaboratorsRepository" rx="2.5" ry="2.5" style="stroke:#181818;stroke-width:0.5;" width="309" x="730.5" y="615"/><ellipse cx="804.25" cy="631" fill="#ADD1B2" rx="11" ry="11" style="stroke:#181818;stroke-width:1.0;"/><path d="M807.0156,626.875 Q807.1719,626.6563 807.3594,626.5469 Q807.5469,626.4375 807.7656,626.4375 Q808.1406,626.4375 808.375,626.7031 Q808.6094,626.9531 808.6094,627.5625 L808.6094,629.0156 Q808.6094,629.625 808.375,629.8906 Q808.1406,630.1563 807.7656,630.1563 Q807.4219,630.1563 807.2188,629.9531 Q807.0156,629.7656 806.9063,629.25 Q806.8594,628.8906 806.6719,628.7031 Q806.3438,628.3281 805.7344,628.1094 Q805.125,627.8906 804.5,627.8906 Q803.7344,627.8906 803.0938,628.2188 Q802.4688,628.5469 801.9688,629.2969 Q801.4844,630.0469 801.4844,631.0781 L801.4844,632.1719 Q801.4844,633.4063 802.375,634.2344 Q803.2656,635.0469 804.8594,635.0469 Q805.7969,635.0469 806.4531,634.7969 Q806.8438,634.6406 807.2656,634.2031 Q807.5313,633.9375 807.6719,633.8594 Q807.8281,633.7813 808.0313,633.7813 Q808.3594,633.7813 808.6094,634.0469 Q808.875,634.2969 808.875,634.6406 Q808.875,634.9844 808.5313,635.3906 Q808.0313,635.9688 807.2344,636.2969 Q806.1563,636.75 804.8594,636.75 Q803.3438,636.75 802.1406,636.125 Q801.1563,635.625 800.4688,634.5625 Q799.7813,633.4844 799.7813,632.2031 L799.7813,631.0469 Q799.7813,629.7188 800.3906,628.5781 Q801.0156,627.4219 802.1094,626.8125 Q803.2031,626.1875 804.4375,626.1875 Q805.1719,626.1875 805.8125,626.3594 Q806.4688,626.5156 807.0156,626.875 Z " fill="#000000"/><text fill="#000000" font-family="sans-serif" font-size="14" lengthAdjust="spacing" textLength="153" x="824.75" y="636.7969">CollaboratorsRepository</text><line style="stroke:#181818;stroke-width:0.5;" x1="731.5" x2="1038.5" y1="647" y2="647"/><text fill="#000000" font-family="sans-serif" font-size="14" lengthAdjust="spacing" textLength="297" x="736.5" y="666.1074">-ArrayList&lt;Collaborator&gt; collaboratorsArrayList</text><line style="stroke:#181818;stroke-width:0.5;" x1="731.5" x2="1038.5" y1="673.6211" y2="673.6211"/><text fill="#000000" font-family="sans-serif" font-size="14" lengthAdjust="spacing" textLength="179" x="736.5" y="692.7285">+getCollaboratorsArrayList()</text><text fill="#000000" font-family="sans-serif" font-size="14" lengthAdjust="spacing" textLength="120" x="736.5" y="711.3496">+addCollaborator()</text><text fill="#000000" font-family="sans-serif" font-size="14" lengthAdjust="spacing" textLength="100" x="736.5" y="729.9707">+isValidPhone()</text><text fill="#000000" font-family="sans-serif" font-size="14" lengthAdjust="spacing" textLength="134" x="736.5" y="748.5918">+isValidDateFormat()</text><text fill="#000000" font-family="sans-serif" font-size="14" lengthAdjust="spacing" textLength="76" x="736.5" y="767.2129">-isNumeric()</text><text fill="#000000" font-family="sans-serif" font-size="14" lengthAdjust="spacing" textLength="92" x="736.5" y="785.834">-isValidName()</text><text fill="#000000" font-family="sans-serif" font-size="14" lengthAdjust="spacing" textLength="239" x="736.5" y="804.4551">+getDeactivatedCollaboratorsBySkill()</text><text fill="#000000" font-family="sans-serif" font-size="14" lengthAdjust="spacing" textLength="67" x="736.5" y="823.0762">+addSkill()</text></g><!--class Collaborator--><g id="elem_Collaborator"><rect codeLine="20" fill="#F1F1F1" height="364.5586" id="Collaborator" rx="2.5" ry="2.5" style="stroke:#181818;stroke-width:0.5;" width="360" x="718" y="171"/><ellipse cx="854.75" cy="187" fill="#ADD1B2" rx="11" ry="11" style="stroke:#181818;stroke-width:1.0;"/><path d="M857.5156,182.875 Q857.6719,182.6563 857.8594,182.5469 Q858.0469,182.4375 858.2656,182.4375 Q858.6406,182.4375 858.875,182.7031 Q859.1094,182.9531 859.1094,183.5625 L859.1094,185.0156 Q859.1094,185.625 858.875,185.8906 Q858.6406,186.1563 858.2656,186.1563 Q857.9219,186.1563 857.7188,185.9531 Q857.5156,185.7656 857.4063,185.25 Q857.3594,184.8906 857.1719,184.7031 Q856.8438,184.3281 856.2344,184.1094 Q855.625,183.8906 855,183.8906 Q854.2344,183.8906 853.5938,184.2188 Q852.9688,184.5469 852.4688,185.2969 Q851.9844,186.0469 851.9844,187.0781 L851.9844,188.1719 Q851.9844,189.4063 852.875,190.2344 Q853.7656,191.0469 855.3594,191.0469 Q856.2969,191.0469 856.9531,190.7969 Q857.3438,190.6406 857.7656,190.2031 Q858.0313,189.9375 858.1719,189.8594 Q858.3281,189.7813 858.5313,189.7813 Q858.8594,189.7813 859.1094,190.0469 Q859.375,190.2969 859.375,190.6406 Q859.375,190.9844 859.0313,191.3906 Q858.5313,191.9688 857.7344,192.2969 Q856.6563,192.75 855.3594,192.75 Q853.8438,192.75 852.6406,192.125 Q851.6563,191.625 850.9688,190.5625 Q850.2813,189.4844 850.2813,188.2031 L850.2813,187.0469 Q850.2813,185.7188 850.8906,184.5781 Q851.5156,183.4219 852.6094,182.8125 Q853.7031,182.1875 854.9375,182.1875 Q855.6719,182.1875 856.3125,182.3594 Q856.9688,182.5156 857.5156,182.875 Z " fill="#000000"/><text fill="#000000" font-family="sans-serif" font-size="14" lengthAdjust="spacing" textLength="78" x="875.25" y="192.7969">Collaborator</text><line style="stroke:#181818;stroke-width:0.5;" x1="719" x2="1077" y1="203" y2="203"/><text fill="#000000" font-family="sans-serif" font-size="14" lengthAdjust="spacing" textLength="81" x="724" y="222.1074">-String name</text><text fill="#000000" font-family="sans-serif" font-size="14" lengthAdjust="spacing" textLength="104" x="724" y="240.7285">-String birthDate</text><text fill="#000000" font-family="sans-serif" font-size="14" lengthAdjust="spacing" textLength="139" x="724" y="259.3496">-String admissionDate</text><text fill="#000000" font-family="sans-serif" font-size="14" lengthAdjust="spacing" textLength="97" x="724" y="277.9707">-String address</text><text fill="#000000" font-family="sans-serif" font-size="14" lengthAdjust="spacing" textLength="114" x="724" y="296.5918">-int mobileNumber</text><text fill="#000000" font-family="sans-serif" font-size="14" lengthAdjust="spacing" textLength="79" x="724" y="315.2129">-String email</text><text fill="#000000" font-family="sans-serif" font-size="14" lengthAdjust="spacing" textLength="128" x="724" y="333.834">-int taxPayerNumber</text><text fill="#000000" font-family="sans-serif" font-size="14" lengthAdjust="spacing" textLength="214" x="724" y="352.4551">-int documentIdentificationNumber</text><text fill="#000000" font-family="sans-serif" font-size="14" lengthAdjust="spacing" textLength="50" x="724" y="371.0762">-Job job</text><text fill="#000000" font-family="sans-serif" font-size="14" lengthAdjust="spacing" textLength="348" x="724" y="389.6973">-DocumentTypeRepository identificationDocumentType</text><text fill="#000000" font-family="sans-serif" font-size="14" lengthAdjust="spacing" textLength="136" x="724" y="408.3184">-ArrayList&lt;Skill&gt; skills</text><text fill="#000000" font-family="sans-serif" font-size="14" lengthAdjust="spacing" textLength="165" x="724" y="426.9395">-CollaboratorStatus status</text><line style="stroke:#181818;stroke-width:0.5;" x1="719" x2="1077" y1="434.4531" y2="434.4531"/><text fill="#000000" font-family="sans-serif" font-size="14" lengthAdjust="spacing" textLength="74" x="724" y="453.5605">+getName()</text><text fill="#000000" font-family="sans-serif" font-size="14" lengthAdjust="spacing" textLength="70" x="724" y="472.1816">+getSkills()</text><text fill="#000000" font-family="sans-serif" font-size="14" lengthAdjust="spacing" textLength="145" x="724" y="490.8027">+activateCollaborator()</text><text fill="#000000" font-family="sans-serif" font-size="14" lengthAdjust="spacing" textLength="194" x="724" y="509.4238">+addSkillToCollaboratorSkills()</text><text fill="#000000" font-family="sans-serif" font-size="14" lengthAdjust="spacing" textLength="147" x="724" y="528.0449">+skillAlreadyAssigned()</text></g><!--class Repositories--><g id="elem_Repositories"><rect codeLine="40" fill="#F1F1F1" height="141.1055" id="Repositories" rx="2.5" ry="2.5" style="stroke:#181818;stroke-width:0.5;" width="324" x="359" y="652.5"/><ellipse cx="477.25" cy="668.5" fill="#ADD1B2" rx="11" ry="11" style="stroke:#181818;stroke-width:1.0;"/><path d="M480.0156,664.375 Q480.1719,664.1563 480.3594,664.0469 Q480.5469,663.9375 480.7656,663.9375 Q481.1406,663.9375 481.375,664.2031 Q481.6094,664.4531 481.6094,665.0625 L481.6094,666.5156 Q481.6094,667.125 481.375,667.3906 Q481.1406,667.6563 480.7656,667.6563 Q480.4219,667.6563 480.2188,667.4531 Q480.0156,667.2656 479.9063,666.75 Q479.8594,666.3906 479.6719,666.2031 Q479.3438,665.8281 478.7344,665.6094 Q478.125,665.3906 477.5,665.3906 Q476.7344,665.3906 476.0938,665.7188 Q475.4688,666.0469 474.9688,666.7969 Q474.4844,667.5469 474.4844,668.5781 L474.4844,669.6719 Q474.4844,670.9063 475.375,671.7344 Q476.2656,672.5469 477.8594,672.5469 Q478.7969,672.5469 479.4531,672.2969 Q479.8438,672.1406 480.2656,671.7031 Q480.5313,671.4375 480.6719,671.3594 Q480.8281,671.2813 481.0313,671.2813 Q481.3594,671.2813 481.6094,671.5469 Q481.875,671.7969 481.875,672.1406 Q481.875,672.4844 481.5313,672.8906 Q481.0313,673.4688 480.2344,673.7969 Q479.1563,674.25 477.8594,674.25 Q476.3438,674.25 475.1406,673.625 Q474.1563,673.125 473.4688,672.0625 Q472.7813,670.9844 472.7813,669.7031 L472.7813,668.5469 Q472.7813,667.2188 473.3906,666.0781 Q474.0156,664.9219 475.1094,664.3125 Q476.2031,663.6875 477.4375,663.6875 Q478.1719,663.6875 478.8125,663.8594 Q479.4688,664.0156 480.0156,664.375 Z " fill="#000000"/><text fill="#000000" font-family="sans-serif" font-size="14" lengthAdjust="spacing" textLength="79" x="497.75" y="674.2969">Repositories</text><line style="stroke:#181818;stroke-width:0.5;" x1="360" x2="682" y1="684.5" y2="684.5"/><text fill="#000000" font-family="sans-serif" font-size="14" lengthAdjust="spacing" textLength="312" x="365" y="703.6074">-CollaboratorsRepository collaboratorsRepository</text><text fill="#000000" font-family="sans-serif" font-size="14" lengthAdjust="spacing" textLength="207" x="365" y="722.2285">-SkillsRepository skillsRepository</text><line style="stroke:#181818;stroke-width:0.5;" x1="360" x2="682" y1="729.7422" y2="729.7422"/><text fill="#000000" font-family="sans-serif" font-size="14" lengthAdjust="spacing" textLength="91" x="365" y="748.8496">+getInstance()</text><text fill="#000000" font-family="sans-serif" font-size="14" lengthAdjust="spacing" textLength="191" x="365" y="767.4707">+getCollaboratorsRepository()</text><text fill="#000000" font-family="sans-serif" font-size="14" lengthAdjust="spacing" textLength="138" x="365" y="786.0918">+getSkillsRepository()</text></g><!--class AssignSkillController--><g id="elem_AssignSkillController"><rect codeLine="48" fill="#F1F1F1" height="178.3477" id="AssignSkillController" rx="2.5" ry="2.5" style="stroke:#181818;stroke-width:0.5;" width="324" x="359" y="264.5"/><ellipse cx="452.25" cy="280.5" fill="#ADD1B2" rx="11" ry="11" style="stroke:#181818;stroke-width:1.0;"/><path d="M455.0156,276.375 Q455.1719,276.1563 455.3594,276.0469 Q455.5469,275.9375 455.7656,275.9375 Q456.1406,275.9375 456.375,276.2031 Q456.6094,276.4531 456.6094,277.0625 L456.6094,278.5156 Q456.6094,279.125 456.375,279.3906 Q456.1406,279.6563 455.7656,279.6563 Q455.4219,279.6563 455.2188,279.4531 Q455.0156,279.2656 454.9063,278.75 Q454.8594,278.3906 454.6719,278.2031 Q454.3438,277.8281 453.7344,277.6094 Q453.125,277.3906 452.5,277.3906 Q451.7344,277.3906 451.0938,277.7188 Q450.4688,278.0469 449.9688,278.7969 Q449.4844,279.5469 449.4844,280.5781 L449.4844,281.6719 Q449.4844,282.9063 450.375,283.7344 Q451.2656,284.5469 452.8594,284.5469 Q453.7969,284.5469 454.4531,284.2969 Q454.8438,284.1406 455.2656,283.7031 Q455.5313,283.4375 455.6719,283.3594 Q455.8281,283.2813 456.0313,283.2813 Q456.3594,283.2813 456.6094,283.5469 Q456.875,283.7969 456.875,284.1406 Q456.875,284.4844 456.5313,284.8906 Q456.0313,285.4688 455.2344,285.7969 Q454.1563,286.25 452.8594,286.25 Q451.3438,286.25 450.1406,285.625 Q449.1563,285.125 448.4688,284.0625 Q447.7813,282.9844 447.7813,281.7031 L447.7813,280.5469 Q447.7813,279.2188 448.3906,278.0781 Q449.0156,276.9219 450.1094,276.3125 Q451.2031,275.6875 452.4375,275.6875 Q453.1719,275.6875 453.8125,275.8594 Q454.4688,276.0156 455.0156,276.375 Z " fill="#000000"/><text fill="#000000" font-family="sans-serif" font-size="14" lengthAdjust="spacing" textLength="129" x="472.75" y="286.2969">AssignSkillController</text><line style="stroke:#181818;stroke-width:0.5;" x1="360" x2="682" y1="296.5" y2="296.5"/><text fill="#000000" font-family="sans-serif" font-size="14" lengthAdjust="spacing" textLength="207" x="365" y="315.6074">-SkillsRepository skillsRepository</text><text fill="#000000" font-family="sans-serif" font-size="14" lengthAdjust="spacing" textLength="312" x="365" y="334.2285">-CollaboratorsRepository collaboratorsRepository</text><line style="stroke:#181818;stroke-width:0.5;" x1="360" x2="682" y1="341.7422" y2="341.7422"/><text fill="#000000" font-family="sans-serif" font-size="14" lengthAdjust="spacing" textLength="191" x="365" y="360.8496">+getCollaboratorsRepository()</text><text fill="#000000" font-family="sans-serif" font-size="14" lengthAdjust="spacing" textLength="138" x="365" y="379.4707">+getSkillsRepository()</text><text fill="#000000" font-family="sans-serif" font-size="14" lengthAdjust="spacing" textLength="145" x="365" y="398.0918">+getCollaboratorsList()</text><text fill="#000000" font-family="sans-serif" font-size="14" lengthAdjust="spacing" textLength="92" x="365" y="416.7129">+getSkillsList()</text><text fill="#000000" font-family="sans-serif" font-size="14" lengthAdjust="spacing" textLength="84" x="365" y="435.334">+assignSkill()</text></g><!--class SkillsRepository--><g id="elem_SkillsRepository"><rect codeLine="58" fill="#F1F1F1" height="141.1055" id="SkillsRepository" rx="2.5" ry="2.5" style="stroke:#181818;stroke-width:0.5;" width="204" x="7" y="892"/><ellipse cx="54.75" cy="908" fill="#ADD1B2" rx="11" ry="11" style="stroke:#181818;stroke-width:1.0;"/><path d="M57.5156,903.875 Q57.6719,903.6563 57.8594,903.5469 Q58.0469,903.4375 58.2656,903.4375 Q58.6406,903.4375 58.875,903.7031 Q59.1094,903.9531 59.1094,904.5625 L59.1094,906.0156 Q59.1094,906.625 58.875,906.8906 Q58.6406,907.1563 58.2656,907.1563 Q57.9219,907.1563 57.7188,906.9531 Q57.5156,906.7656 57.4063,906.25 Q57.3594,905.8906 57.1719,905.7031 Q56.8438,905.3281 56.2344,905.1094 Q55.625,904.8906 55,904.8906 Q54.2344,904.8906 53.5938,905.2188 Q52.9688,905.5469 52.4688,906.2969 Q51.9844,907.0469 51.9844,908.0781 L51.9844,909.1719 Q51.9844,910.4063 52.875,911.2344 Q53.7656,912.0469 55.3594,912.0469 Q56.2969,912.0469 56.9531,911.7969 Q57.3438,911.6406 57.7656,911.2031 Q58.0313,910.9375 58.1719,910.8594 Q58.3281,910.7813 58.5313,910.7813 Q58.8594,910.7813 59.1094,911.0469 Q59.375,911.2969 59.375,911.6406 Q59.375,911.9844 59.0313,912.3906 Q58.5313,912.9688 57.7344,913.2969 Q56.6563,913.75 55.3594,913.75 Q53.8438,913.75 52.6406,913.125 Q51.6563,912.625 50.9688,911.5625 Q50.2813,910.4844 50.2813,909.2031 L50.2813,908.0469 Q50.2813,906.7188 50.8906,905.5781 Q51.5156,904.4219 52.6094,903.8125 Q53.7031,903.1875 54.9375,903.1875 Q55.6719,903.1875 56.3125,903.3594 Q56.9688,903.5156 57.5156,903.875 Z " fill="#000000"/><text fill="#000000" font-family="sans-serif" font-size="14" lengthAdjust="spacing" textLength="100" x="75.25" y="913.7969">SkillsRepository</text><line style="stroke:#181818;stroke-width:0.5;" x1="8" x2="210" y1="924" y2="924"/><text fill="#000000" font-family="sans-serif" font-size="14" lengthAdjust="spacing" textLength="192" x="13" y="943.1074">-ArrayList&lt;Skill&gt; skillsArrayList</text><line style="stroke:#181818;stroke-width:0.5;" x1="8" x2="210" y1="950.6211" y2="950.6211"/><text fill="#000000" font-family="sans-serif" font-size="14" lengthAdjust="spacing" textLength="170" x="13" y="969.7285">-boolean skillAlreadyExist()</text><text fill="#000000" font-family="sans-serif" font-size="14" lengthAdjust="spacing" textLength="170" x="13" y="988.3496">-boolean skillNameIsValid()</text><text fill="#000000" font-family="sans-serif" font-size="14" lengthAdjust="spacing" textLength="126" x="13" y="1006.9707">+getSkillsArrayList()</text><text fill="#000000" font-family="sans-serif" font-size="14" lengthAdjust="spacing" textLength="67" x="13" y="1025.5918">+addSkill()</text></g><!--class Skill--><g id="elem_Skill"><rect codeLine="66" fill="#F1F1F1" height="85.2422" id="Skill" rx="2.5" ry="2.5" style="stroke:#181818;stroke-width:0.5;" width="158" x="39" y="7"/><ellipse cx="101.25" cy="23" fill="#ADD1B2" rx="11" ry="11" style="stroke:#181818;stroke-width:1.0;"/><path d="M104.0156,18.875 Q104.1719,18.6563 104.3594,18.5469 Q104.5469,18.4375 104.7656,18.4375 Q105.1406,18.4375 105.375,18.7031 Q105.6094,18.9531 105.6094,19.5625 L105.6094,21.0156 Q105.6094,21.625 105.375,21.8906 Q105.1406,22.1563 104.7656,22.1563 Q104.4219,22.1563 104.2188,21.9531 Q104.0156,21.7656 103.9063,21.25 Q103.8594,20.8906 103.6719,20.7031 Q103.3438,20.3281 102.7344,20.1094 Q102.125,19.8906 101.5,19.8906 Q100.7344,19.8906 100.0938,20.2188 Q99.4688,20.5469 98.9688,21.2969 Q98.4844,22.0469 98.4844,23.0781 L98.4844,24.1719 Q98.4844,25.4063 99.375,26.2344 Q100.2656,27.0469 101.8594,27.0469 Q102.7969,27.0469 103.4531,26.7969 Q103.8438,26.6406 104.2656,26.2031 Q104.5313,25.9375 104.6719,25.8594 Q104.8281,25.7813 105.0313,25.7813 Q105.3594,25.7813 105.6094,26.0469 Q105.875,26.2969 105.875,26.6406 Q105.875,26.9844 105.5313,27.3906 Q105.0313,27.9688 104.2344,28.2969 Q103.1563,28.75 101.8594,28.75 Q100.3438,28.75 99.1406,28.125 Q98.1563,27.625 97.4688,26.5625 Q96.7813,25.4844 96.7813,24.2031 L96.7813,23.0469 Q96.7813,21.7188 97.3906,20.5781 Q98.0156,19.4219 99.1094,18.8125 Q100.2031,18.1875 101.4375,18.1875 Q102.1719,18.1875 102.8125,18.3594 Q103.4688,18.5156 104.0156,18.875 Z " fill="#000000"/><text fill="#000000" font-family="sans-serif" font-size="14" lengthAdjust="spacing" textLength="25" x="121.75" y="28.7969">Skill</text><line style="stroke:#181818;stroke-width:0.5;" x1="40" x2="196" y1="39" y2="39"/><text fill="#000000" font-family="sans-serif" font-size="14" lengthAdjust="spacing" textLength="146" x="45" y="58.1074">-String nameOfTheSkill</text><line style="stroke:#181818;stroke-width:0.5;" x1="40" x2="196" y1="65.6211" y2="65.6211"/><text fill="#000000" font-family="sans-serif" font-size="14" lengthAdjust="spacing" textLength="139" x="45" y="84.7285">+getNameOfTheSkill()</text></g><!--class AssignSkillUI--><g id="elem_AssignSkillUI"><rect codeLine="71" fill="#F1F1F1" height="141.1055" id="AssignSkillUI" rx="2.5" ry="2.5" style="stroke:#181818;stroke-width:0.5;" width="181" x="142.5" y="283"/><ellipse cx="189.25" cy="299" fill="#ADD1B2" rx="11" ry="11" style="stroke:#181818;stroke-width:1.0;"/><path d="M192.0156,294.875 Q192.1719,294.6563 192.3594,294.5469 Q192.5469,294.4375 192.7656,294.4375 Q193.1406,294.4375 193.375,294.7031 Q193.6094,294.9531 193.6094,295.5625 L193.6094,297.0156 Q193.6094,297.625 193.375,297.8906 Q193.1406,298.1563 192.7656,298.1563 Q192.4219,298.1563 192.2188,297.9531 Q192.0156,297.7656 191.9063,297.25 Q191.8594,296.8906 191.6719,296.7031 Q191.3438,296.3281 190.7344,296.1094 Q190.125,295.8906 189.5,295.8906 Q188.7344,295.8906 188.0938,296.2188 Q187.4688,296.5469 186.9688,297.2969 Q186.4844,298.0469 186.4844,299.0781 L186.4844,300.1719 Q186.4844,301.4063 187.375,302.2344 Q188.2656,303.0469 189.8594,303.0469 Q190.7969,303.0469 191.4531,302.7969 Q191.8438,302.6406 192.2656,302.2031 Q192.5313,301.9375 192.6719,301.8594 Q192.8281,301.7813 193.0313,301.7813 Q193.3594,301.7813 193.6094,302.0469 Q193.875,302.2969 193.875,302.6406 Q193.875,302.9844 193.5313,303.3906 Q193.0313,303.9688 192.2344,304.2969 Q191.1563,304.75 189.8594,304.75 Q188.3438,304.75 187.1406,304.125 Q186.1563,303.625 185.4688,302.5625 Q184.7813,301.4844 184.7813,300.2031 L184.7813,299.0469 Q184.7813,297.7188 185.3906,296.5781 Q186.0156,295.4219 187.1094,294.8125 Q188.2031,294.1875 189.4375,294.1875 Q190.1719,294.1875 190.8125,294.3594 Q191.4688,294.5156 192.0156,294.875 Z " fill="#000000"/><text fill="#000000" font-family="sans-serif" font-size="14" lengthAdjust="spacing" textLength="79" x="209.75" y="304.7969">AssignSkillUI</text><line style="stroke:#181818;stroke-width:0.5;" x1="143.5" x2="322.5" y1="315" y2="315"/><line style="stroke:#181818;stroke-width:0.5;" x1="143.5" x2="322.5" y1="323" y2="323"/><text fill="#000000" font-family="sans-serif" font-size="14" lengthAdjust="spacing" textLength="116" x="148.5" y="342.1074">+displaySkillsList()</text><text fill="#000000" font-family="sans-serif" font-size="14" lengthAdjust="spacing" textLength="169" x="148.5" y="360.7285">+displayCollaboratorsList()</text><text fill="#000000" font-family="sans-serif" font-size="14" lengthAdjust="spacing" textLength="130" x="148.5" y="379.3496">+selectAndAddSkill()</text><text fill="#000000" font-family="sans-serif" font-size="14" lengthAdjust="spacing" textLength="133" x="148.5" y="397.9707">+selectCollaborator()</text><text fill="#000000" font-family="sans-serif" font-size="14" lengthAdjust="spacing" textLength="39" x="148.5" y="416.5918">+run()</text></g><!--link Repositories to CollaboratorsRepository--><g id="link_Repositories_CollaboratorsRepository"><path codeLine="79" d="M683.09,723 C698.87,723 708.64,723 724.42,723 " fill="none" id="Repositories-to-CollaboratorsRepository" style="stroke:#181818;stroke-width:1.0;"/><polygon fill="#181818" points="730.42,723,721.42,719,725.42,723,721.42,727,730.42,723" style="stroke:#181818;stroke-width:1.0;"/></g><!--link Repositories to SkillsRepository--><g id="link_Repositories_SkillsRepository"><path codeLine="80" d="M400.17,793.65 C340.1,828.28 273.4979,866.6731 216.2279,899.6931 " fill="none" id="Repositories-to-SkillsRepository" style="stroke:#181818;stroke-width:1.0;"/><polygon fill="#181818" points="211.03,902.69,220.8248,901.6599,215.3616,900.1925,216.8289,894.7293,211.03,902.69" style="stroke:#181818;stroke-width:1.0;"/></g><!--reverse link Skill to SkillsRepository--><g id="link_Skill_SkillsRepository"><path codeLine="81" d="M117.5306,98.0097 C116.1106,241.5097 111.47,711.62 109.69,891.69 " fill="none" id="Skill-backto-SkillsRepository" style="stroke:#181818;stroke-width:1.0;"/><polygon fill="#181818" points="117.59,92.01,113.5011,100.97,117.5405,97.0098,121.5007,101.0491,117.59,92.01" style="stroke:#181818;stroke-width:1.0;"/><text fill="#000000" font-family="sans-serif" font-size="13" lengthAdjust="spacing" textLength="21" x="114" y="581.0283">has</text><text fill="#000000" font-family="sans-serif" font-size="13" lengthAdjust="spacing" textLength="5" x="112.1262" y="114.1719">*</text><text fill="#000000" font-family="sans-serif" font-size="13" lengthAdjust="spacing" textLength="7" x="102.4002" y="880.549">1</text></g><!--reverse link Collaborator to CollaboratorsRepository--><g id="link_Collaborator_CollaboratorsRepository"><path codeLine="82" d="M891.3663,542.0962 C890.4063,569.0362 889.67,590.05 888.79,614.8 " fill="none" id="Collaborator-backto-CollaboratorsRepository" style="stroke:#181818;stroke-width:1.0;"/><polygon fill="#181818" points="891.58,536.1,887.262,544.9518,891.4019,541.0968,895.257,545.2367,891.58,536.1" style="stroke:#181818;stroke-width:1.0;"/><text fill="#000000" font-family="sans-serif" font-size="13" lengthAdjust="spacing" textLength="21" x="891" y="581.0283">has</text><text fill="#000000" font-family="sans-serif" font-size="13" lengthAdjust="spacing" textLength="5" x="886.2316" y="557.6075">*</text><text fill="#000000" font-family="sans-serif" font-size="13" lengthAdjust="spacing" textLength="7" x="881.8104" y="603.6475">1</text></g><!--link Skill to Collaborator--><g id="link_Skill_Collaborator"><path codeLine="83" d="M197.39,53.57 C313.89,60.92 535.25,85.94 701,171 C706.69,173.92 712.34,177.05 717.93,180.36 " fill="none" id="Skill-Collaborator" style="stroke:#181818;stroke-width:1.0;"/><polygon fill="#000000" points="636.858,132.8288,628.7653,127.8328,627.3743,133.5437,636.858,132.8288" style="stroke:#000000;stroke-width:1.0;"/><text fill="#000000" font-family="sans-serif" font-size="13" lengthAdjust="spacing" textLength="79" x="641" y="137.0283">is atributed to</text><text fill="#000000" font-family="sans-serif" font-size="13" lengthAdjust="spacing" textLength="20" x="205.072" y="50.2197">1..*</text><text fill="#000000" font-family="sans-serif" font-size="13" lengthAdjust="spacing" textLength="7" x="703.1856" y="169.7408">1</text></g><!--link AssignSkillUI to AssignSkillController--><g id="link_AssignSkillUI_AssignSkillController"><path codeLine="84" d="M323.56,353.5 C335.26,353.5 340.96,353.5 352.65,353.5 " fill="none" id="AssignSkillUI-to-AssignSkillController" style="stroke:#181818;stroke-width:1.0;stroke-dasharray:7.0,7.0;"/><polygon fill="#181818" points="358.65,353.5,349.65,349.5,353.65,353.5,349.65,357.5,358.65,353.5" style="stroke:#181818;stroke-width:1.0;"/></g><!--link AssignSkillController to Repositories--><g id="link_AssignSkillController_Repositories"><path codeLine="85" d="M521,442.53 C521,506.87 521,586.93 521,646.48 " fill="none" id="AssignSkillController-to-Repositories" style="stroke:#181818;stroke-width:1.0;stroke-dasharray:7.0,7.0;"/><polygon fill="#181818" points="521,652.48,525,643.48,521,647.48,517,643.48,521,652.48" style="stroke:#181818;stroke-width:1.0;"/><text fill="#000000" font-family="sans-serif" font-size="13" lengthAdjust="spacing" textLength="67" x="522" y="581.0283">repositories</text></g><!--SRC=[fLLBZzCm4BxdLrWz0QjKx7MrgjHjGIf2oueMxXDxsfWwTkLnOSEA_uwRvc6dBaBGGvFCVFFyncFQItq02nNZ2eZcpbbP71skkD5h-HFPsunwI6MquQKr5R8jAC90TG2-XnskNQsGMUGEz4w502f1c1zIxovCbTJewWEoWr7rwIEbCzQPB6joP0kZ51J6WZEMFkF1aFHlDNl9cF_bR6ujr1ybkViGEMCyjEj1ZT4Dsw5R9FMlNhS84294z799Nq59yLGQZMFX4Xo-DxQ2patkDO_72gtaWQJ1Fa8rsFjqbWZSoU_UGnIN7khrNYeLvjK9VgLQrFTbxRdr_TS-JYmff7NbATLO3AAIHDBeb4fO9EeAqCxFHY4L-j8Aj34MAv0gG3fuVe8QROGzAOJXlZFQhOJ_arl9mVdW4Uo3ATWtKxHVozPWuoSac0CPsOUWYm5f6ZTZT7fqrOIzMpjmHsBKF0PgnbGrRcXWfEKjEIuTNHiJ1OezD0dDbKKGzTnpiDCeGdxxQYLIp- -rSy7Jyewb9d80fv5WA7EbVICqZqg_4lIoEv6kB-HSN8DO6EsizuR1nFvLRlzM-NzadpQFbaLl6A-GeTgm2HTbllnvKEFTbRF268MWewbvzpm47Y5EqxiwxvpBV9DxBvrnQh5yscvARBJnQHdaLzZ_ichTtJ0XwQ2WJlIlrLnlEw7oTyzSY_cGTAX9daXxrEUaebELpwwDrGZdWMC2itD_9cycx3xFsUHsSidn7Ik1icXHX_Xh8tqsQ_tVJgVU967XOP8Oj9UvOCwmMHPtUpfB7xuiVIId7X_LVUUl-U4p-mq0]--></g></svg>