<?xml version="1.0" encoding="us-ascii" standalone="no"?><svg xmlns="http://www.w3.org/2000/svg" xmlns:xlink="http://www.w3.org/1999/xlink" contentStyleType="text/css" height="688px" preserveAspectRatio="none" style="width:822px;height:688px;background:#FFFFFF;" version="1.1" viewBox="0 0 822 688" width="822px" zoomAndPan="magnify"><defs/><g><rect fill="#FFFFFF" height="493.2871" style="stroke:#181818;stroke-width:1.0;" width="10" x="91" y="93.6211"/><rect fill="#FFFFFF" height="154.4551" style="stroke:#181818;stroke-width:1.0;" width="10" x="351" y="116.9121"/><rect fill="#FFFFFF" height="110.834" style="stroke:#181818;stroke-width:1.0;" width="10" x="351" y="302.6582"/><rect fill="#FFFFFF" height="142.125" style="stroke:#181818;stroke-width:1.0;" width="10" x="351" y="444.7832"/><rect fill="#FFFFFF" height="79.543" style="stroke:#181818;stroke-width:1.0;" width="10" x="560" y="191.8242"/><rect fill="#FFFFFF" height="79.543" style="stroke:#181818;stroke-width:1.0;" width="10" x="560" y="333.9492"/><rect fill="#FFFFFF" height="79.543" style="stroke:#181818;stroke-width:1.0;" width="10" x="560" y="476.0742"/><line style="stroke:#181818;stroke-width:0.5;stroke-dasharray:5.0,5.0;" x1="96" x2="96" y1="83.6211" y2="604.9082"/><line style="stroke:#181818;stroke-width:0.5;stroke-dasharray:5.0,5.0;" x1="355.5" x2="355.5" y1="83.6211" y2="604.9082"/><line style="stroke:#181818;stroke-width:0.5;stroke-dasharray:5.0,5.0;" x1="564.5" x2="564.5" y1="156.7227" y2="604.9082"/><line style="stroke:#181818;stroke-width:0.5;stroke-dasharray:5.0,5.0;" x1="732.5" x2="732.5" y1="83.6211" y2="604.9082"/><text fill="#000000" font-family="sans-serif" font-size="14" lengthAdjust="spacing" textLength="176" x="5" y="80.1074">Human Resources Manager</text><ellipse cx="96" cy="13.5" fill="#E3E3E3" rx="8" ry="8" style="stroke:#181818;stroke-width:0.5;"/><path d="M96,21.5 L96,48.5 M83,29.5 L109,29.5 M96,48.5 L83,63.5 M96,48.5 L109,63.5 " fill="none" style="stroke:#181818;stroke-width:0.5;"/><text fill="#000000" font-family="sans-serif" font-size="14" lengthAdjust="spacing" textLength="176" x="5" y="619.0156">Human Resources Manager</text><ellipse cx="96" cy="631.0293" fill="#E3E3E3" rx="8" ry="8" style="stroke:#181818;stroke-width:0.5;"/><path d="M96,639.0293 L96,666.0293 M83,647.0293 L109,647.0293 M96,666.0293 L83,681.0293 M96,666.0293 L109,681.0293 " fill="none" style="stroke:#181818;stroke-width:0.5;"/><rect fill="#E3E3E3" height="32.6211" rx="2.5" ry="2.5" style="stroke:#181818;stroke-width:0.5;" width="97" x="307.5" y="50"/><text fill="#000000" font-family="sans-serif" font-size="14" lengthAdjust="spacing" textLength="83" x="314.5" y="72.1074">:AssignSkillUI</text><rect fill="#E3E3E3" height="32.6211" rx="2.5" ry="2.5" style="stroke:#181818;stroke-width:0.5;" width="97" x="307.5" y="603.9082"/><text fill="#000000" font-family="sans-serif" font-size="14" lengthAdjust="spacing" textLength="83" x="314.5" y="626.0156">:AssignSkillUI</text><rect fill="#E3E3E3" height="32.6211" rx="2.5" ry="2.5" style="stroke:#181818;stroke-width:0.5;" width="147" x="491.5" y="603.9082"/><text fill="#000000" font-family="sans-serif" font-size="14" lengthAdjust="spacing" textLength="133" x="498.5" y="626.0156">:AssignSkillController</text><rect fill="#E3E3E3" height="51.2422" rx="2.5" ry="2.5" style="stroke:#181818;stroke-width:0.5;" width="168" x="648.5" y="31.3789"/><text fill="#000000" font-family="sans-serif" font-size="14" lengthAdjust="spacing" textLength="154" x="655.5" y="53.4863">collaboratorsRepository:</text><text fill="#000000" font-family="sans-serif" font-size="14" lengthAdjust="spacing" textLength="153" x="656" y="72.1074">CollaboratorsRepository</text><rect fill="#E3E3E3" height="51.2422" rx="2.5" ry="2.5" style="stroke:#181818;stroke-width:0.5;" width="168" x="648.5" y="603.9082"/><text fill="#000000" font-family="sans-serif" font-size="14" lengthAdjust="spacing" textLength="154" x="655.5" y="626.0156">collaboratorsRepository:</text><text fill="#000000" font-family="sans-serif" font-size="14" lengthAdjust="spacing" textLength="153" x="656" y="644.6367">CollaboratorsRepository</text><rect fill="#FFFFFF" height="493.2871" style="stroke:#181818;stroke-width:1.0;" width="10" x="91" y="93.6211"/><rect fill="#FFFFFF" height="154.4551" style="stroke:#181818;stroke-width:1.0;" width="10" x="351" y="116.9121"/><rect fill="#FFFFFF" height="110.834" style="stroke:#181818;stroke-width:1.0;" width="10" x="351" y="302.6582"/><rect fill="#FFFFFF" height="142.125" style="stroke:#181818;stroke-width:1.0;" width="10" x="351" y="444.7832"/><rect fill="#FFFFFF" height="79.543" style="stroke:#181818;stroke-width:1.0;" width="10" x="560" y="191.8242"/><rect fill="#FFFFFF" height="79.543" style="stroke:#181818;stroke-width:1.0;" width="10" x="560" y="333.9492"/><rect fill="#FFFFFF" height="79.543" style="stroke:#181818;stroke-width:1.0;" width="10" x="560" y="476.0742"/><polygon fill="#181818" points="339,112.9121,349,116.9121,339,120.9121,343,116.9121" style="stroke:#181818;stroke-width:1.0;"/><line style="stroke:#181818;stroke-width:1.0;" x1="101" x2="345" y1="116.9121" y2="116.9121"/><text fill="#000000" font-family="sans-serif" font-size="13" font-weight="bold" lengthAdjust="spacing" textLength="7" x="108" y="111.6494">1</text><text fill="#000000" font-family="sans-serif" font-size="13" lengthAdjust="spacing" textLength="220" x="119" y="111.6494">asks to assign a skill to a collaborator</text><polygon fill="#181818" points="479.5,144.2031,489.5,148.2031,479.5,152.2031,483.5,148.2031" style="stroke:#181818;stroke-width:1.0;"/><line style="stroke:#181818;stroke-width:1.0;" x1="361" x2="485.5" y1="148.2031" y2="148.2031"/><text fill="#000000" font-family="sans-serif" font-size="13" font-weight="bold" lengthAdjust="spacing" textLength="7" x="368" y="142.9404">2</text><text fill="#000000" font-family="sans-serif" font-size="13" lengthAdjust="spacing" textLength="36" x="379" y="142.9404">create</text><rect fill="#E3E3E3" height="32.6211" rx="2.5" ry="2.5" style="stroke:#181818;stroke-width:0.5;" width="147" x="491.5" y="124.9121"/><text fill="#000000" font-family="sans-serif" font-size="14" lengthAdjust="spacing" textLength="133" x="498.5" y="147.0195">:AssignSkillController</text><polygon fill="#181818" points="548,187.8242,558,191.8242,548,195.8242,552,191.8242" style="stroke:#181818;stroke-width:1.0;"/><line style="stroke:#181818;stroke-width:1.0;" x1="361" x2="554" y1="191.8242" y2="191.8242"/><text fill="#000000" font-family="sans-serif" font-size="13" font-weight="bold" lengthAdjust="spacing" textLength="7" x="368" y="186.5615">3</text><text fill="#000000" font-family="sans-serif" font-size="13" lengthAdjust="spacing" textLength="116" x="379" y="186.5615">getCollaboratorList()</text><rect fill="none" height="43.252" style="stroke:#000000;stroke-width:1.5;" width="153" x="488.5" y="199.8242"/><path d="M488.5,199.8242 L550.5,199.8242 L550.5,208.8242 L540.5,218.8242 L488.5,218.8242 L488.5,199.8242 " fill="#EEEEEE" style="stroke:#000000;stroke-width:2.0;"/><text fill="#000000" font-family="sans-serif" font-size="13" font-weight="bold" lengthAdjust="spacing" textLength="17" x="501.5" y="215.8525">ref</text><text fill="#000000" font-family="sans-serif" font-size="12" lengthAdjust="spacing" textLength="120" x="505" y="235.7734">Get Collaborators List</text><polygon fill="#181818" points="367,267.3672,357,271.3672,367,275.3672,363,271.3672" style="stroke:#181818;stroke-width:1.0;"/><line style="stroke:#181818;stroke-width:1.0;stroke-dasharray:2.0,2.0;" x1="361" x2="564" y1="271.3672" y2="271.3672"/><text fill="#000000" font-family="sans-serif" font-size="13" font-weight="bold" lengthAdjust="spacing" textLength="7" x="373" y="266.1045">4</text><text fill="#000000" font-family="sans-serif" font-size="13" lengthAdjust="spacing" textLength="95" x="384" y="266.1045">collaborators list</text><polygon fill="#181818" points="339,298.6582,349,302.6582,339,306.6582,343,302.6582" style="stroke:#181818;stroke-width:1.0;"/><line style="stroke:#181818;stroke-width:1.0;" x1="101" x2="345" y1="302.6582" y2="302.6582"/><text fill="#000000" font-family="sans-serif" font-size="13" font-weight="bold" lengthAdjust="spacing" textLength="7" x="108" y="297.3955">5</text><text fill="#000000" font-family="sans-serif" font-size="13" lengthAdjust="spacing" textLength="124" x="119" y="297.3955">selects a collaborator</text><polygon fill="#181818" points="548,329.9492,558,333.9492,548,337.9492,552,333.9492" style="stroke:#181818;stroke-width:1.0;"/><line style="stroke:#181818;stroke-width:1.0;" x1="361" x2="554" y1="333.9492" y2="333.9492"/><text fill="#000000" font-family="sans-serif" font-size="13" font-weight="bold" lengthAdjust="spacing" textLength="7" x="368" y="328.6865">6</text><text fill="#000000" font-family="sans-serif" font-size="13" lengthAdjust="spacing" textLength="79" x="379" y="328.6865">getSkillsList()</text><rect fill="none" height="43.252" style="stroke:#000000;stroke-width:1.5;" width="153" x="488.5" y="341.9492"/><path d="M488.5,341.9492 L550.5,341.9492 L550.5,350.9492 L540.5,360.9492 L488.5,360.9492 L488.5,341.9492 " fill="#EEEEEE" style="stroke:#000000;stroke-width:2.0;"/><text fill="#000000" font-family="sans-serif" font-size="13" font-weight="bold" lengthAdjust="spacing" textLength="17" x="501.5" y="357.9775">ref</text><text fill="#000000" font-family="sans-serif" font-size="12" lengthAdjust="spacing" textLength="75" x="527.5" y="377.8984">Get Skills List</text><polygon fill="#181818" points="367,409.4922,357,413.4922,367,417.4922,363,413.4922" style="stroke:#181818;stroke-width:1.0;"/><line style="stroke:#181818;stroke-width:1.0;stroke-dasharray:2.0,2.0;" x1="361" x2="564" y1="413.4922" y2="413.4922"/><text fill="#000000" font-family="sans-serif" font-size="13" font-weight="bold" lengthAdjust="spacing" textLength="7" x="373" y="408.2295">7</text><text fill="#000000" font-family="sans-serif" font-size="13" lengthAdjust="spacing" textLength="51" x="384" y="408.2295">skills list</text><polygon fill="#181818" points="339,440.7832,349,444.7832,339,448.7832,343,444.7832" style="stroke:#181818;stroke-width:1.0;"/><line style="stroke:#181818;stroke-width:1.0;" x1="101" x2="345" y1="444.7832" y2="444.7832"/><text fill="#000000" font-family="sans-serif" font-size="13" font-weight="bold" lengthAdjust="spacing" textLength="7" x="108" y="439.5205">8</text><text fill="#000000" font-family="sans-serif" font-size="13" lengthAdjust="spacing" textLength="80" x="119" y="439.5205">selects a skill</text><polygon fill="#181818" points="548,472.0742,558,476.0742,548,480.0742,552,476.0742" style="stroke:#181818;stroke-width:1.0;"/><line style="stroke:#181818;stroke-width:1.0;" x1="361" x2="554" y1="476.0742" y2="476.0742"/><text fill="#000000" font-family="sans-serif" font-size="13" font-weight="bold" lengthAdjust="spacing" textLength="7" x="368" y="470.8115">9</text><text fill="#000000" font-family="sans-serif" font-size="13" lengthAdjust="spacing" textLength="169" x="379" y="470.8115">assignSkill(collaborator, skill)</text><rect fill="none" height="43.252" style="stroke:#000000;stroke-width:1.5;" width="156" x="488.5" y="484.0742"/><path d="M488.5,484.0742 L550.5,484.0742 L550.5,493.0742 L540.5,503.0742 L488.5,503.0742 L488.5,484.0742 " fill="#EEEEEE" style="stroke:#000000;stroke-width:2.0;"/><text fill="#000000" font-family="sans-serif" font-size="13" font-weight="bold" lengthAdjust="spacing" textLength="17" x="501.5" y="500.1025">ref</text><text fill="#000000" font-family="sans-serif" font-size="12" lengthAdjust="spacing" textLength="148" x="492.5" y="520.0234">Assign Skill to Collaborator</text><polygon fill="#181818" points="372,551.6172,362,555.6172,372,559.6172,368,555.6172" style="stroke:#181818;stroke-width:1.0;"/><line style="stroke:#181818;stroke-width:1.0;stroke-dasharray:2.0,2.0;" x1="366" x2="564" y1="555.6172" y2="555.6172"/><text fill="#000000" font-family="sans-serif" font-size="13" font-weight="bold" lengthAdjust="spacing" textLength="14" x="378" y="550.3545">10</text><text fill="#000000" font-family="sans-serif" font-size="13" lengthAdjust="spacing" textLength="49" x="396" y="550.3545">success</text><polygon fill="#181818" points="107,582.9082,97,586.9082,107,590.9082,103,586.9082" style="stroke:#181818;stroke-width:1.0;"/><line style="stroke:#181818;stroke-width:1.0;stroke-dasharray:2.0,2.0;" x1="101" x2="355" y1="586.9082" y2="586.9082"/><text fill="#000000" font-family="sans-serif" font-size="13" font-weight="bold" lengthAdjust="spacing" textLength="14" x="113" y="581.6455">11</text><text fill="#000000" font-family="sans-serif" font-size="13" lengthAdjust="spacing" textLength="158" x="131" y="581.6455">displays operation success</text><!--SRC=[jPJ1Rjim38RlUWeYbtN5-W8-31XoM0kqbwIzxSB8Z2DO5WrHRfUt7oslZbmampfqkbWIoLy_FqYMreKU8tRGSM1xYDmHf3YGaJdIessneMqwUe98Dc5eV9aW1wpvnOK6zkY5ZC4XSHYw7KLZFXrSJR1dJZl-QT0cZh2w7JeCi27X8LeIUC2W9yGLeC3jvi6eRdBMzHWIhAfl8gu9szPv_tINSvxkBgUiEQJ8tl-MqyYsNJzkxfSLLZDmnn7LZsoePt4wErO_mlfy98jTY1apDkQUCL6sRq27Jk3cgrg5IajRWSJw7Mq2WenEymwKJgRAMKlRp1lZK1rLcxkvlbPP6qdJBgLeGaEfj7pl95rzFcdE1vqWGJ4YxO6VALu8Z-CxfIKK6CzOf56ev_N9sqr6Kosw5_1bSKrd_9ataLT49MqXhxTK_fbjvfRlalmVOfFsdr6TnoLJvGTmAZ5brVVmmTDpkoePVvcaFXJOzBGdPkEBAQ_RU-aDLlysOlu2tMlRMgd8AgYTz1wF0joJ7kquBDNUe2wMMluB]--></g></svg>