<?xml version="1.0" encoding="us-ascii" standalone="no"?><svg xmlns="http://www.w3.org/2000/svg" xmlns:xlink="http://www.w3.org/1999/xlink" contentStyleType="text/css" height="1095px" preserveAspectRatio="none" style="width:3648px;height:1095px;background:#FFFFFF;" version="1.1" viewBox="0 0 3648 1095" width="3648px" zoomAndPan="magnify"><defs/><g><!--cluster UI--><g id="cluster_UI"><path d="M8.5,29 L23.5,29 A3.75,3.75 0 0 1 26,31.5 L33,50.6406 L441.5,50.6406 A2.5,2.5 0 0 1 444,53.1406 L444,249.5 A2.5,2.5 0 0 1 441.5,252 L8.5,252 A2.5,2.5 0 0 1 6,249.5 L6,31.5 A2.5,2.5 0 0 1 8.5,29 " fill="none" style="stroke:#000000;stroke-width:1.5;"/><line style="stroke:#000000;stroke-width:1.5;" x1="6" x2="33" y1="50.6406" y2="50.6406"/><text fill="#000000" font-family="sans-serif" font-size="14" font-weight="bold" lengthAdjust="spacing" textLength="14" x="10" y="43.6738">UI</text></g><!--cluster Controller--><g id="cluster_Controller"><path d="M934.5,52.5 L1006.5,52.5 A3.75,3.75 0 0 1 1009,55 L1016,74.1406 L1893.5,74.1406 A2.5,2.5 0 0 1 1896,76.6406 L1896,226 A2.5,2.5 0 0 1 1893.5,228.5 L934.5,228.5 A2.5,2.5 0 0 1 932,226 L932,55 A2.5,2.5 0 0 1 934.5,52.5 " fill="none" style="stroke:#000000;stroke-width:1.5;"/><line style="stroke:#000000;stroke-width:1.5;" x1="932" x2="1016" y1="74.1406" y2="74.1406"/><text fill="#000000" font-family="sans-serif" font-size="14" font-weight="bold" lengthAdjust="spacing" textLength="71" x="936" y="67.1738">Controller</text></g><!--cluster Repository--><g id="cluster_Repository"><path d="M1922.5,52.5 L1999.5,52.5 A3.75,3.75 0 0 1 2002,55 L2009,74.1406 L3638.5,74.1406 A2.5,2.5 0 0 1 3641,76.6406 L3641,501.5 A2.5,2.5 0 0 1 3638.5,504 L1922.5,504 A2.5,2.5 0 0 1 1920,501.5 L1920,55 A2.5,2.5 0 0 1 1922.5,52.5 " fill="none" style="stroke:#000000;stroke-width:1.5;"/><line style="stroke:#000000;stroke-width:1.5;" x1="1920" x2="2009" y1="74.1406" y2="74.1406"/><text fill="#000000" font-family="sans-serif" font-size="14" font-weight="bold" lengthAdjust="spacing" textLength="76" x="1924" y="67.1738">Repository</text></g><!--cluster Domain--><g id="cluster_Domain"><path d="M1965.5,537 L2018.5,537 A3.75,3.75 0 0 1 2021,539.5 L2028,558.6406 L3024.5,558.6406 A2.5,2.5 0 0 1 3027,561.1406 L3027,1085.5 A2.5,2.5 0 0 1 3024.5,1088 L1965.5,1088 A2.5,2.5 0 0 1 1963,1085.5 L1963,539.5 A2.5,2.5 0 0 1 1965.5,537 " fill="none" style="stroke:#000000;stroke-width:1.5;"/><line style="stroke:#000000;stroke-width:1.5;" x1="1963" x2="2028" y1="558.6406" y2="558.6406"/><text fill="#000000" font-family="sans-serif" font-size="14" font-weight="bold" lengthAdjust="spacing" textLength="52" x="1967" y="551.6738">Domain</text></g><!--cluster Mapper--><g id="cluster_Mapper"><path d="M470.5,83.5 L525.5,83.5 A3.75,3.75 0 0 1 528,86 L535,105.1406 L905.5,105.1406 A2.5,2.5 0 0 1 908,107.6406 L908,195 A2.5,2.5 0 0 1 905.5,197.5 L470.5,197.5 A2.5,2.5 0 0 1 468,195 L468,86 A2.5,2.5 0 0 1 470.5,83.5 " fill="none" style="stroke:#000000;stroke-width:1.5;"/><line style="stroke:#000000;stroke-width:1.5;" x1="468" x2="535" y1="105.1406" y2="105.1406"/><text fill="#000000" font-family="sans-serif" font-size="14" font-weight="bold" lengthAdjust="spacing" textLength="54" x="472" y="98.1738">Mapper</text></g><!--cluster DTO--><g id="cluster_DTO"><path d="M422.5,296.5 L452.5,296.5 A3.75,3.75 0 0 1 455,299 L462,318.1406 L953.5,318.1406 A2.5,2.5 0 0 1 956,320.6406 L956,470 A2.5,2.5 0 0 1 953.5,472.5 L422.5,472.5 A2.5,2.5 0 0 1 420,470 L420,299 A2.5,2.5 0 0 1 422.5,296.5 " fill="none" style="stroke:#000000;stroke-width:1.5;"/><line style="stroke:#000000;stroke-width:1.5;" x1="420" x2="462" y1="318.1406" y2="318.1406"/><text fill="#000000" font-family="sans-serif" font-size="14" font-weight="bold" lengthAdjust="spacing" textLength="29" x="424" y="311.1738">DTO</text></g><!--class RegisterGreenSpaceGUI--><g id="elem_RegisterGreenSpaceGUI"><rect codeLine="12" fill="#F1F1F1" height="173.125" id="RegisterGreenSpaceGUI" rx="2.5" ry="2.5" style="stroke:#181818;stroke-width:0.5;" width="406" x="22" y="63"/><ellipse cx="142.75" cy="79" fill="#ADD1B2" rx="11" ry="11" style="stroke:#181818;stroke-width:1.0;"/><path d="M145.5156,74.875 Q145.6719,74.6563 145.8594,74.5469 Q146.0469,74.4375 146.2656,74.4375 Q146.6406,74.4375 146.875,74.7031 Q147.1094,74.9531 147.1094,75.5625 L147.1094,77.0156 Q147.1094,77.625 146.875,77.8906 Q146.6406,78.1563 146.2656,78.1563 Q145.9219,78.1563 145.7188,77.9531 Q145.5156,77.7656 145.4063,77.25 Q145.3594,76.8906 145.1719,76.7031 Q144.8438,76.3281 144.2344,76.1094 Q143.625,75.8906 143,75.8906 Q142.2344,75.8906 141.5938,76.2188 Q140.9688,76.5469 140.4688,77.2969 Q139.9844,78.0469 139.9844,79.0781 L139.9844,80.1719 Q139.9844,81.4063 140.875,82.2344 Q141.7656,83.0469 143.3594,83.0469 Q144.2969,83.0469 144.9531,82.7969 Q145.3438,82.6406 145.7656,82.2031 Q146.0313,81.9375 146.1719,81.8594 Q146.3281,81.7813 146.5313,81.7813 Q146.8594,81.7813 147.1094,82.0469 Q147.375,82.2969 147.375,82.6406 Q147.375,82.9844 147.0313,83.3906 Q146.5313,83.9688 145.7344,84.2969 Q144.6563,84.75 143.3594,84.75 Q141.8438,84.75 140.6406,84.125 Q139.6563,83.625 138.9688,82.5625 Q138.2813,81.4844 138.2813,80.2031 L138.2813,79.0469 Q138.2813,77.7188 138.8906,76.5781 Q139.5156,75.4219 140.6094,74.8125 Q141.7031,74.1875 142.9375,74.1875 Q143.6719,74.1875 144.3125,74.3594 Q144.9688,74.5156 145.5156,74.875 Z " fill="#000000"/><text fill="#000000" font-family="sans-serif" font-size="14" lengthAdjust="spacing" textLength="156" x="163.25" y="83.8535">RegisterGreenSpaceGUI</text><line style="stroke:#181818;stroke-width:0.5;" x1="23" x2="427" y1="95" y2="95"/><text fill="#000000" font-family="sans-serif" font-size="14" lengthAdjust="spacing" textLength="180" x="28" y="111.6738">-TextField greenSpaceName</text><text fill="#000000" font-family="sans-serif" font-size="14" lengthAdjust="spacing" textLength="182" x="28" y="127.3145">-TextField greenSpaceStreet</text><text fill="#000000" font-family="sans-serif" font-size="14" lengthAdjust="spacing" textLength="239" x="28" y="142.9551">-ComboBox&lt;String&gt; greenSpaceType</text><text fill="#000000" font-family="sans-serif" font-size="14" lengthAdjust="spacing" textLength="174" x="28" y="158.5957">-TextField greenSpaceArea</text><text fill="#000000" font-family="sans-serif" font-size="14" lengthAdjust="spacing" textLength="394" x="28" y="174.2363">-RegisterGreenSpaceController registerGreenSpaceController</text><line style="stroke:#181818;stroke-width:0.5;" x1="23" x2="427" y1="181.2031" y2="181.2031"/><text fill="#000000" font-family="sans-serif" font-size="14" lengthAdjust="spacing" textLength="174" x="28" y="197.877">+RegisterGreenSpaceGUI()</text><text fill="#000000" font-family="sans-serif" font-size="14" lengthAdjust="spacing" textLength="65" x="28" y="213.5176">+goBack()</text><text fill="#000000" font-family="sans-serif" font-size="14" lengthAdjust="spacing" textLength="146" x="28" y="229.1582">+registerGreenSpace()</text></g><!--class RegisterGreenSpaceController--><g id="elem_RegisterGreenSpaceController"><rect codeLine="26" fill="#F1F1F1" height="126.2031" id="RegisterGreenSpaceController" rx="2.5" ry="2.5" style="stroke:#181818;stroke-width:0.5;" width="932" x="948" y="86.5"/><ellipse cx="1312.25" cy="102.5" fill="#ADD1B2" rx="11" ry="11" style="stroke:#181818;stroke-width:1.0;"/><path d="M1315.0156,98.375 Q1315.1719,98.1563 1315.3594,98.0469 Q1315.5469,97.9375 1315.7656,97.9375 Q1316.1406,97.9375 1316.375,98.2031 Q1316.6094,98.4531 1316.6094,99.0625 L1316.6094,100.5156 Q1316.6094,101.125 1316.375,101.3906 Q1316.1406,101.6563 1315.7656,101.6563 Q1315.4219,101.6563 1315.2188,101.4531 Q1315.0156,101.2656 1314.9063,100.75 Q1314.8594,100.3906 1314.6719,100.2031 Q1314.3438,99.8281 1313.7344,99.6094 Q1313.125,99.3906 1312.5,99.3906 Q1311.7344,99.3906 1311.0938,99.7188 Q1310.4688,100.0469 1309.9688,100.7969 Q1309.4844,101.5469 1309.4844,102.5781 L1309.4844,103.6719 Q1309.4844,104.9063 1310.375,105.7344 Q1311.2656,106.5469 1312.8594,106.5469 Q1313.7969,106.5469 1314.4531,106.2969 Q1314.8438,106.1406 1315.2656,105.7031 Q1315.5313,105.4375 1315.6719,105.3594 Q1315.8281,105.2813 1316.0313,105.2813 Q1316.3594,105.2813 1316.6094,105.5469 Q1316.875,105.7969 1316.875,106.1406 Q1316.875,106.4844 1316.5313,106.8906 Q1316.0313,107.4688 1315.2344,107.7969 Q1314.1563,108.25 1312.8594,108.25 Q1311.3438,108.25 1310.1406,107.625 Q1309.1563,107.125 1308.4688,106.0625 Q1307.7813,104.9844 1307.7813,103.7031 L1307.7813,102.5469 Q1307.7813,101.2188 1308.3906,100.0781 Q1309.0156,98.9219 1310.1094,98.3125 Q1311.2031,97.6875 1312.4375,97.6875 Q1313.1719,97.6875 1313.8125,97.8594 Q1314.4688,98.0156 1315.0156,98.375 Z " fill="#000000"/><text fill="#000000" font-family="sans-serif" font-size="14" lengthAdjust="spacing" textLength="195" x="1332.75" y="107.3535">RegisterGreenSpaceController</text><line style="stroke:#181818;stroke-width:0.5;" x1="949" x2="1879" y1="118.5" y2="118.5"/><text fill="#000000" font-family="sans-serif" font-size="14" lengthAdjust="spacing" textLength="309" x="954" y="135.1738">-GreenSpacesRepository greenSpaceRepository</text><text fill="#000000" font-family="sans-serif" font-size="14" lengthAdjust="spacing" textLength="324" x="954" y="150.8145">-AuthenticationRepository authenticationRepository</text><line style="stroke:#181818;stroke-width:0.5;" x1="949" x2="1879" y1="157.7813" y2="157.7813"/><text fill="#000000" font-family="sans-serif" font-size="14" lengthAdjust="spacing" textLength="213" x="954" y="174.4551">+RegisterGreenSpaceController()</text><text fill="#000000" font-family="sans-serif" font-size="14" lengthAdjust="spacing" textLength="353" x="954" y="190.0957">+getGreenSpaceRepository() : GreenSpacesRepository</text><text fill="#000000" font-family="sans-serif" font-size="14" lengthAdjust="spacing" textLength="920" x="954" y="205.7363">+createGreenSpace(greenSpaceName: String, greenSpaceStreet: String, greenSpaceType: GreenSpaceType, greenSpaceSize: String) : boolean</text></g><!--class Repositories--><g id="elem_Repositories"><rect codeLine="36" fill="#F1F1F1" height="126.2031" id="Repositories" rx="2.5" ry="2.5" style="stroke:#181818;stroke-width:0.5;" width="378" x="2306" y="86.5"/><ellipse cx="2451.25" cy="102.5" fill="#ADD1B2" rx="11" ry="11" style="stroke:#181818;stroke-width:1.0;"/><path d="M2454.0156,98.375 Q2454.1719,98.1563 2454.3594,98.0469 Q2454.5469,97.9375 2454.7656,97.9375 Q2455.1406,97.9375 2455.375,98.2031 Q2455.6094,98.4531 2455.6094,99.0625 L2455.6094,100.5156 Q2455.6094,101.125 2455.375,101.3906 Q2455.1406,101.6563 2454.7656,101.6563 Q2454.4219,101.6563 2454.2188,101.4531 Q2454.0156,101.2656 2453.9063,100.75 Q2453.8594,100.3906 2453.6719,100.2031 Q2453.3438,99.8281 2452.7344,99.6094 Q2452.125,99.3906 2451.5,99.3906 Q2450.7344,99.3906 2450.0938,99.7188 Q2449.4688,100.0469 2448.9688,100.7969 Q2448.4844,101.5469 2448.4844,102.5781 L2448.4844,103.6719 Q2448.4844,104.9063 2449.375,105.7344 Q2450.2656,106.5469 2451.8594,106.5469 Q2452.7969,106.5469 2453.4531,106.2969 Q2453.8438,106.1406 2454.2656,105.7031 Q2454.5313,105.4375 2454.6719,105.3594 Q2454.8281,105.2813 2455.0313,105.2813 Q2455.3594,105.2813 2455.6094,105.5469 Q2455.875,105.7969 2455.875,106.1406 Q2455.875,106.4844 2455.5313,106.8906 Q2455.0313,107.4688 2454.2344,107.7969 Q2453.1563,108.25 2451.8594,108.25 Q2450.3438,108.25 2449.1406,107.625 Q2448.1563,107.125 2447.4688,106.0625 Q2446.7813,104.9844 2446.7813,103.7031 L2446.7813,102.5469 Q2446.7813,101.2188 2447.3906,100.0781 Q2448.0156,98.9219 2449.1094,98.3125 Q2450.2031,97.6875 2451.4375,97.6875 Q2452.1719,97.6875 2452.8125,97.8594 Q2453.4688,98.0156 2454.0156,98.375 Z " fill="#000000"/><text fill="#000000" font-family="sans-serif" font-size="14" lengthAdjust="spacing" textLength="79" x="2471.75" y="107.3535">Repositories</text><line style="stroke:#181818;stroke-width:0.5;" x1="2307" x2="2683" y1="118.5" y2="118.5"/><line style="stroke:#181818;stroke-width:0.5;" x1="2307" x2="2683" y1="126.5" y2="126.5"/><text fill="#000000" font-family="sans-serif" font-size="14" lengthAdjust="spacing" textLength="94" x="2312" y="143.1738">-Repositories()</text><text fill="#000000" font-family="sans-serif" font-size="14" lengthAdjust="spacing" textLength="182" x="2312" y="158.8145">+getInstance() : Repositories</text><text fill="#000000" font-family="sans-serif" font-size="14" lengthAdjust="spacing" textLength="353" x="2312" y="174.4551">+getGreenSpaceRepository() : GreenSpacesRepository</text><text fill="#000000" font-family="sans-serif" font-size="14" lengthAdjust="spacing" textLength="212" x="2312" y="190.0957">+getGreenSpaceSizeRepository()</text><text fill="#000000" font-family="sans-serif" font-size="14" lengthAdjust="spacing" textLength="366" x="2312" y="205.7363">+getAuthenticationRepository() : AuthenticationRepository</text></g><!--class GreenSpaceRepository--><g id="elem_GreenSpaceRepository"><rect codeLine="44" fill="#F1F1F1" height="126.2031" id="GreenSpaceRepository" rx="2.5" ry="2.5" style="stroke:#181818;stroke-width:0.5;" width="1118" x="1936" y="330.5"/><ellipse cx="2416.75" cy="346.5" fill="#ADD1B2" rx="11" ry="11" style="stroke:#181818;stroke-width:1.0;"/><path d="M2419.5156,342.375 Q2419.6719,342.1563 2419.8594,342.0469 Q2420.0469,341.9375 2420.2656,341.9375 Q2420.6406,341.9375 2420.875,342.2031 Q2421.1094,342.4531 2421.1094,343.0625 L2421.1094,344.5156 Q2421.1094,345.125 2420.875,345.3906 Q2420.6406,345.6563 2420.2656,345.6563 Q2419.9219,345.6563 2419.7188,345.4531 Q2419.5156,345.2656 2419.4063,344.75 Q2419.3594,344.3906 2419.1719,344.2031 Q2418.8438,343.8281 2418.2344,343.6094 Q2417.625,343.3906 2417,343.3906 Q2416.2344,343.3906 2415.5938,343.7188 Q2414.9688,344.0469 2414.4688,344.7969 Q2413.9844,345.5469 2413.9844,346.5781 L2413.9844,347.6719 Q2413.9844,348.9063 2414.875,349.7344 Q2415.7656,350.5469 2417.3594,350.5469 Q2418.2969,350.5469 2418.9531,350.2969 Q2419.3438,350.1406 2419.7656,349.7031 Q2420.0313,349.4375 2420.1719,349.3594 Q2420.3281,349.2813 2420.5313,349.2813 Q2420.8594,349.2813 2421.1094,349.5469 Q2421.375,349.7969 2421.375,350.1406 Q2421.375,350.4844 2421.0313,350.8906 Q2420.5313,351.4688 2419.7344,351.7969 Q2418.6563,352.25 2417.3594,352.25 Q2415.8438,352.25 2414.6406,351.625 Q2413.6563,351.125 2412.9688,350.0625 Q2412.2813,348.9844 2412.2813,347.7031 L2412.2813,346.5469 Q2412.2813,345.2188 2412.8906,344.0781 Q2413.5156,342.9219 2414.6094,342.3125 Q2415.7031,341.6875 2416.9375,341.6875 Q2417.6719,341.6875 2418.3125,341.8594 Q2418.9688,342.0156 2419.5156,342.375 Z " fill="#000000"/><text fill="#000000" font-family="sans-serif" font-size="14" lengthAdjust="spacing" textLength="148" x="2437.25" y="351.3535">GreenSpaceRepository</text><line style="stroke:#181818;stroke-width:0.5;" x1="1937" x2="3053" y1="362.5" y2="362.5"/><text fill="#000000" font-family="sans-serif" font-size="14" lengthAdjust="spacing" textLength="301" x="1942" y="379.1738">-ArrayList&lt;GreenSpace&gt; greenSpacesArrayList</text><line style="stroke:#181818;stroke-width:0.5;" x1="1937" x2="3053" y1="386.1406" y2="386.1406"/><text fill="#000000" font-family="sans-serif" font-size="14" lengthAdjust="spacing" textLength="345" x="1942" y="402.8145">+getGreenSpacesArrayList() : ArrayList&lt;GreenSpace&gt;</text><text fill="#000000" font-family="sans-serif" font-size="14" lengthAdjust="spacing" textLength="390" x="1942" y="418.4551">-greenSpaceAlreadyExist(greenSpaceName: String) : boolean</text><text fill="#000000" font-family="sans-serif" font-size="14" lengthAdjust="spacing" textLength="1106" x="1942" y="434.0957">+addGreenSpace(greenSpaceName: String, greenSpaceStreet: String, greenSpaceType: GreenSpaceType, greenSpaceManagerEmail: String, greenSpaceArea: int) : boolean</text><text fill="#000000" font-family="sans-serif" font-size="14" lengthAdjust="spacing" textLength="600" x="1942" y="449.7363">+getGreenSpaceByManagerEmail(greenSpaceManagerEmail: String) : ArrayList&lt;GreenSpace&gt;</text></g><!--class AuthenticationRepository--><g id="elem_AuthenticationRepository"><rect codeLine="52" fill="#F1F1F1" height="188.7656" id="AuthenticationRepository" rx="2.5" ry="2.5" style="stroke:#181818;stroke-width:0.5;" width="535" x="3089.5" y="299"/><ellipse cx="3273.75" cy="315" fill="#ADD1B2" rx="11" ry="11" style="stroke:#181818;stroke-width:1.0;"/><path d="M3276.5156,310.875 Q3276.6719,310.6563 3276.8594,310.5469 Q3277.0469,310.4375 3277.2656,310.4375 Q3277.6406,310.4375 3277.875,310.7031 Q3278.1094,310.9531 3278.1094,311.5625 L3278.1094,313.0156 Q3278.1094,313.625 3277.875,313.8906 Q3277.6406,314.1563 3277.2656,314.1563 Q3276.9219,314.1563 3276.7188,313.9531 Q3276.5156,313.7656 3276.4063,313.25 Q3276.3594,312.8906 3276.1719,312.7031 Q3275.8438,312.3281 3275.2344,312.1094 Q3274.625,311.8906 3274,311.8906 Q3273.2344,311.8906 3272.5938,312.2188 Q3271.9688,312.5469 3271.4688,313.2969 Q3270.9844,314.0469 3270.9844,315.0781 L3270.9844,316.1719 Q3270.9844,317.4063 3271.875,318.2344 Q3272.7656,319.0469 3274.3594,319.0469 Q3275.2969,319.0469 3275.9531,318.7969 Q3276.3438,318.6406 3276.7656,318.2031 Q3277.0313,317.9375 3277.1719,317.8594 Q3277.3281,317.7813 3277.5313,317.7813 Q3277.8594,317.7813 3278.1094,318.0469 Q3278.375,318.2969 3278.375,318.6406 Q3278.375,318.9844 3278.0313,319.3906 Q3277.5313,319.9688 3276.7344,320.2969 Q3275.6563,320.75 3274.3594,320.75 Q3272.8438,320.75 3271.6406,320.125 Q3270.6563,319.625 3269.9688,318.5625 Q3269.2813,317.4844 3269.2813,316.2031 L3269.2813,315.0469 Q3269.2813,313.7188 3269.8906,312.5781 Q3270.5156,311.4219 3271.6094,310.8125 Q3272.7031,310.1875 3273.9375,310.1875 Q3274.6719,310.1875 3275.3125,310.3594 Q3275.9688,310.5156 3276.5156,310.875 Z " fill="#000000"/><text fill="#000000" font-family="sans-serif" font-size="14" lengthAdjust="spacing" textLength="158" x="3294.25" y="319.8535">AuthenticationRepository</text><line style="stroke:#181818;stroke-width:0.5;" x1="3090.5" x2="3623.5" y1="331" y2="331"/><text fill="#000000" font-family="sans-serif" font-size="14" lengthAdjust="spacing" textLength="223" x="3095.5" y="347.6738">-AuthFacade authenticationFacade</text><line style="stroke:#181818;stroke-width:0.5;" x1="3090.5" x2="3623.5" y1="354.6406" y2="354.6406"/><text fill="#000000" font-family="sans-serif" font-size="14" lengthAdjust="spacing" textLength="176" x="3095.5" y="371.3145">+AuthenticationRepository()</text><text fill="#000000" font-family="sans-serif" font-size="14" lengthAdjust="spacing" textLength="231" x="3095.5" y="386.9551">+readObject(ois: ObjectInputStream)</text><text fill="#000000" font-family="sans-serif" font-size="14" lengthAdjust="spacing" textLength="288" x="3095.5" y="402.5957">+doLogin(email: String, pwd: String) : boolean</text><text fill="#000000" font-family="sans-serif" font-size="14" lengthAdjust="spacing" textLength="78" x="3095.5" y="418.2363">+doLogout()</text><text fill="#000000" font-family="sans-serif" font-size="14" lengthAdjust="spacing" textLength="256" x="3095.5" y="433.877">+getCurrentUserSession() : UserSession</text><text fill="#000000" font-family="sans-serif" font-size="14" lengthAdjust="spacing" textLength="341" x="3095.5" y="449.5176">+addUserRole(id: String, description: String) : boolean</text><text fill="#000000" font-family="sans-serif" font-size="14" lengthAdjust="spacing" textLength="523" x="3095.5" y="465.1582">+addUserWithRole(name: String, email: String, pwd: String, roleId: String) : boolean</text><text fill="#000000" font-family="sans-serif" font-size="14" lengthAdjust="spacing" textLength="150" x="3095.5" y="480.7988">+facade() : AuthFacade</text></g><!--class GreenSpace--><g id="elem_GreenSpace"><rect codeLine="66" fill="#F1F1F1" height="313.8906" id="GreenSpace" rx="2.5" ry="2.5" style="stroke:#181818;stroke-width:0.5;" width="1031" x="1979.5" y="571"/><ellipse cx="2450.75" cy="587" fill="#ADD1B2" rx="11" ry="11" style="stroke:#181818;stroke-width:1.0;"/><path d="M2453.5156,582.875 Q2453.6719,582.6563 2453.8594,582.5469 Q2454.0469,582.4375 2454.2656,582.4375 Q2454.6406,582.4375 2454.875,582.7031 Q2455.1094,582.9531 2455.1094,583.5625 L2455.1094,585.0156 Q2455.1094,585.625 2454.875,585.8906 Q2454.6406,586.1563 2454.2656,586.1563 Q2453.9219,586.1563 2453.7188,585.9531 Q2453.5156,585.7656 2453.4063,585.25 Q2453.3594,584.8906 2453.1719,584.7031 Q2452.8438,584.3281 2452.2344,584.1094 Q2451.625,583.8906 2451,583.8906 Q2450.2344,583.8906 2449.5938,584.2188 Q2448.9688,584.5469 2448.4688,585.2969 Q2447.9844,586.0469 2447.9844,587.0781 L2447.9844,588.1719 Q2447.9844,589.4063 2448.875,590.2344 Q2449.7656,591.0469 2451.3594,591.0469 Q2452.2969,591.0469 2452.9531,590.7969 Q2453.3438,590.6406 2453.7656,590.2031 Q2454.0313,589.9375 2454.1719,589.8594 Q2454.3281,589.7813 2454.5313,589.7813 Q2454.8594,589.7813 2455.1094,590.0469 Q2455.375,590.2969 2455.375,590.6406 Q2455.375,590.9844 2455.0313,591.3906 Q2454.5313,591.9688 2453.7344,592.2969 Q2452.6563,592.75 2451.3594,592.75 Q2449.8438,592.75 2448.6406,592.125 Q2447.6563,591.625 2446.9688,590.5625 Q2446.2813,589.4844 2446.2813,588.2031 L2446.2813,587.0469 Q2446.2813,585.7188 2446.8906,584.5781 Q2447.5156,583.4219 2448.6094,582.8125 Q2449.7031,582.1875 2450.9375,582.1875 Q2451.6719,582.1875 2452.3125,582.3594 Q2452.9688,582.5156 2453.5156,582.875 Z " fill="#000000"/><text fill="#000000" font-family="sans-serif" font-size="14" lengthAdjust="spacing" textLength="80" x="2471.25" y="591.8535">GreenSpace</text><line style="stroke:#181818;stroke-width:0.5;" x1="1980.5" x2="3009.5" y1="603" y2="603"/><text fill="#000000" font-family="sans-serif" font-size="14" lengthAdjust="spacing" textLength="159" x="1985.5" y="619.6738">-String greenSpaceName</text><text fill="#000000" font-family="sans-serif" font-size="14" lengthAdjust="spacing" textLength="161" x="1985.5" y="635.3145">-String greenSpaceStreet</text><text fill="#000000" font-family="sans-serif" font-size="14" lengthAdjust="spacing" textLength="230" x="1985.5" y="650.9551">-GreenSpaceType greenSpaceType</text><text fill="#000000" font-family="sans-serif" font-size="14" lengthAdjust="spacing" textLength="213" x="1985.5" y="666.5957">-String greenSpaceManagerEmail</text><text fill="#000000" font-family="sans-serif" font-size="14" lengthAdjust="spacing" textLength="131" x="1985.5" y="682.2363">-int greenSpaceArea</text><line style="stroke:#181818;stroke-width:0.5;" x1="1980.5" x2="3009.5" y1="689.2031" y2="689.2031"/><text fill="#000000" font-family="sans-serif" font-size="14" lengthAdjust="spacing" textLength="1019" x="1985.5" y="705.877">+GreenSpace(greenSpaceName: String, greenSpaceStreet: String, greenSpaceType: GreenSpaceType, greenSpaceManagerEmail: String, greenSpaceArea: int)</text><text fill="#000000" font-family="sans-serif" font-size="14" lengthAdjust="spacing" textLength="203" x="1985.5" y="721.5176">+getGreenSpaceName() : String</text><text fill="#000000" font-family="sans-serif" font-size="14" lengthAdjust="spacing" textLength="311" x="1985.5" y="737.1582">+setGreenSpaceName(greenSpaceName: String)</text><text fill="#000000" font-family="sans-serif" font-size="14" lengthAdjust="spacing" textLength="205" x="1985.5" y="752.7988">+getGreenSpaceStreet() : String</text><text fill="#000000" font-family="sans-serif" font-size="14" lengthAdjust="spacing" textLength="315" x="1985.5" y="768.4395">+setGreenSpaceStreet(greenSpaceStreet: String)</text><text fill="#000000" font-family="sans-serif" font-size="14" lengthAdjust="spacing" textLength="274" x="1985.5" y="784.0801">+getGreenSpaceType() : GreenSpaceType</text><text fill="#000000" font-family="sans-serif" font-size="14" lengthAdjust="spacing" textLength="378" x="1985.5" y="799.7207">+setGreenSpaceType(greenSpaceType: GreenSpaceType)</text><text fill="#000000" font-family="sans-serif" font-size="14" lengthAdjust="spacing" textLength="257" x="1985.5" y="815.3613">+getGreenSpaceManagerEmail() : String</text><text fill="#000000" font-family="sans-serif" font-size="14" lengthAdjust="spacing" textLength="419" x="1985.5" y="831.002">+setGreenSpaceManagerEmail(greenSpaceManagerEmail: String)</text><text fill="#000000" font-family="sans-serif" font-size="14" lengthAdjust="spacing" textLength="175" x="1985.5" y="846.6426">+getGreenSpaceArea() : int</text><text fill="#000000" font-family="sans-serif" font-size="14" lengthAdjust="spacing" textLength="277" x="1985.5" y="862.2832">+setGreenSpaceArea(greenSpaceArea: int)</text><text fill="#000000" font-family="sans-serif" font-size="14" lengthAdjust="spacing" textLength="116" x="1985.5" y="877.9238">+toString() : String</text></g><!--class GreenSpaceType--><g id="elem_GreenSpaceType"><rect codeLine="86" fill="#F1F1F1" height="110.5625" id="GreenSpaceType" rx="2.5" ry="2.5" style="stroke:#181818;stroke-width:0.5;" width="286" x="2109" y="953.5"/><ellipse cx="2191.75" cy="969.5" fill="#ADD1B2" rx="11" ry="11" style="stroke:#181818;stroke-width:1.0;"/><path d="M2194.5156,965.375 Q2194.6719,965.1563 2194.8594,965.0469 Q2195.0469,964.9375 2195.2656,964.9375 Q2195.6406,964.9375 2195.875,965.2031 Q2196.1094,965.4531 2196.1094,966.0625 L2196.1094,967.5156 Q2196.1094,968.125 2195.875,968.3906 Q2195.6406,968.6563 2195.2656,968.6563 Q2194.9219,968.6563 2194.7188,968.4531 Q2194.5156,968.2656 2194.4063,967.75 Q2194.3594,967.3906 2194.1719,967.2031 Q2193.8438,966.8281 2193.2344,966.6094 Q2192.625,966.3906 2192,966.3906 Q2191.2344,966.3906 2190.5938,966.7188 Q2189.9688,967.0469 2189.4688,967.7969 Q2188.9844,968.5469 2188.9844,969.5781 L2188.9844,970.6719 Q2188.9844,971.9063 2189.875,972.7344 Q2190.7656,973.5469 2192.3594,973.5469 Q2193.2969,973.5469 2193.9531,973.2969 Q2194.3438,973.1406 2194.7656,972.7031 Q2195.0313,972.4375 2195.1719,972.3594 Q2195.3281,972.2813 2195.5313,972.2813 Q2195.8594,972.2813 2196.1094,972.5469 Q2196.375,972.7969 2196.375,973.1406 Q2196.375,973.4844 2196.0313,973.8906 Q2195.5313,974.4688 2194.7344,974.7969 Q2193.6563,975.25 2192.3594,975.25 Q2190.8438,975.25 2189.6406,974.625 Q2188.6563,974.125 2187.9688,973.0625 Q2187.2813,971.9844 2187.2813,970.7031 L2187.2813,969.5469 Q2187.2813,968.2188 2187.8906,967.0781 Q2188.5156,965.9219 2189.6094,965.3125 Q2190.7031,964.6875 2191.9375,964.6875 Q2192.6719,964.6875 2193.3125,964.8594 Q2193.9688,965.0156 2194.5156,965.375 Z " fill="#000000"/><text fill="#000000" font-family="sans-serif" font-size="14" lengthAdjust="spacing" textLength="112" x="2212.25" y="974.3535">GreenSpaceType</text><line style="stroke:#181818;stroke-width:0.5;" x1="2110" x2="2394" y1="985.5" y2="985.5"/><text fill="#000000" font-family="sans-serif" font-size="14" lengthAdjust="spacing" textLength="58" x="2115" y="1002.1738">GARDEN</text><text fill="#000000" font-family="sans-serif" font-size="14" lengthAdjust="spacing" textLength="145" x="2115" y="1017.8145">MEDIUM_SIZED_PARK</text><text fill="#000000" font-family="sans-serif" font-size="14" lengthAdjust="spacing" textLength="139" x="2115" y="1033.4551">LARGE_SIZED_PARK</text><line style="stroke:#181818;stroke-width:0.5;" x1="2110" x2="2394" y1="1040.4219" y2="1040.4219"/><text fill="#000000" font-family="sans-serif" font-size="14" lengthAdjust="spacing" textLength="274" x="2115" y="1057.0957">+fromString(text: String) : GreenSpaceType</text></g><!--class Address--><g id="elem_Address"><rect codeLine="93" fill="#F1F1F1" height="126.2031" id="Address" rx="2.5" ry="2.5" style="stroke:#181818;stroke-width:0.5;" width="450" x="2430" y="946"/><ellipse cx="2624.75" cy="962" fill="#ADD1B2" rx="11" ry="11" style="stroke:#181818;stroke-width:1.0;"/><path d="M2627.5156,957.875 Q2627.6719,957.6563 2627.8594,957.5469 Q2628.0469,957.4375 2628.2656,957.4375 Q2628.6406,957.4375 2628.875,957.7031 Q2629.1094,957.9531 2629.1094,958.5625 L2629.1094,960.0156 Q2629.1094,960.625 2628.875,960.8906 Q2628.6406,961.1563 2628.2656,961.1563 Q2627.9219,961.1563 2627.7188,960.9531 Q2627.5156,960.7656 2627.4063,960.25 Q2627.3594,959.8906 2627.1719,959.7031 Q2626.8438,959.3281 2626.2344,959.1094 Q2625.625,958.8906 2625,958.8906 Q2624.2344,958.8906 2623.5938,959.2188 Q2622.9688,959.5469 2622.4688,960.2969 Q2621.9844,961.0469 2621.9844,962.0781 L2621.9844,963.1719 Q2621.9844,964.4063 2622.875,965.2344 Q2623.7656,966.0469 2625.3594,966.0469 Q2626.2969,966.0469 2626.9531,965.7969 Q2627.3438,965.6406 2627.7656,965.2031 Q2628.0313,964.9375 2628.1719,964.8594 Q2628.3281,964.7813 2628.5313,964.7813 Q2628.8594,964.7813 2629.1094,965.0469 Q2629.375,965.2969 2629.375,965.6406 Q2629.375,965.9844 2629.0313,966.3906 Q2628.5313,966.9688 2627.7344,967.2969 Q2626.6563,967.75 2625.3594,967.75 Q2623.8438,967.75 2622.6406,967.125 Q2621.6563,966.625 2620.9688,965.5625 Q2620.2813,964.4844 2620.2813,963.2031 L2620.2813,962.0469 Q2620.2813,960.7188 2620.8906,959.5781 Q2621.5156,958.4219 2622.6094,957.8125 Q2623.7031,957.1875 2624.9375,957.1875 Q2625.6719,957.1875 2626.3125,957.3594 Q2626.9688,957.5156 2627.5156,957.875 Z " fill="#000000"/><text fill="#000000" font-family="sans-serif" font-size="14" lengthAdjust="spacing" textLength="52" x="2645.25" y="966.8535">Address</text><line style="stroke:#181818;stroke-width:0.5;" x1="2431" x2="2879" y1="978" y2="978"/><text fill="#000000" font-family="sans-serif" font-size="14" lengthAdjust="spacing" textLength="82" x="2436" y="994.6738">-String street</text><text fill="#000000" font-family="sans-serif" font-size="14" lengthAdjust="spacing" textLength="102" x="2436" y="1010.3145">-int doorNumber</text><text fill="#000000" font-family="sans-serif" font-size="14" lengthAdjust="spacing" textLength="94" x="2436" y="1025.9551">-String zipcode</text><text fill="#000000" font-family="sans-serif" font-size="14" lengthAdjust="spacing" textLength="67" x="2436" y="1041.5957">-String city</text><line style="stroke:#181818;stroke-width:0.5;" x1="2431" x2="2879" y1="1048.5625" y2="1048.5625"/><text fill="#000000" font-family="sans-serif" font-size="14" lengthAdjust="spacing" textLength="438" x="2436" y="1065.2363">+Address(street: String, doorNumber: int, zipCode: String, city: String)</text></g><!--class GreenSpaceMapper--><g id="elem_GreenSpaceMapper"><rect codeLine="103" fill="#F1F1F1" height="63.6406" id="GreenSpaceMapper" rx="2.5" ry="2.5" style="stroke:#181818;stroke-width:0.5;" width="407" x="484.5" y="117.5"/><ellipse cx="619.75" cy="133.5" fill="#ADD1B2" rx="11" ry="11" style="stroke:#181818;stroke-width:1.0;"/><path d="M622.5156,129.375 Q622.6719,129.1563 622.8594,129.0469 Q623.0469,128.9375 623.2656,128.9375 Q623.6406,128.9375 623.875,129.2031 Q624.1094,129.4531 624.1094,130.0625 L624.1094,131.5156 Q624.1094,132.125 623.875,132.3906 Q623.6406,132.6563 623.2656,132.6563 Q622.9219,132.6563 622.7188,132.4531 Q622.5156,132.2656 622.4063,131.75 Q622.3594,131.3906 622.1719,131.2031 Q621.8438,130.8281 621.2344,130.6094 Q620.625,130.3906 620,130.3906 Q619.2344,130.3906 618.5938,130.7188 Q617.9688,131.0469 617.4688,131.7969 Q616.9844,132.5469 616.9844,133.5781 L616.9844,134.6719 Q616.9844,135.9063 617.875,136.7344 Q618.7656,137.5469 620.3594,137.5469 Q621.2969,137.5469 621.9531,137.2969 Q622.3438,137.1406 622.7656,136.7031 Q623.0313,136.4375 623.1719,136.3594 Q623.3281,136.2813 623.5313,136.2813 Q623.8594,136.2813 624.1094,136.5469 Q624.375,136.7969 624.375,137.1406 Q624.375,137.4844 624.0313,137.8906 Q623.5313,138.4688 622.7344,138.7969 Q621.6563,139.25 620.3594,139.25 Q618.8438,139.25 617.6406,138.625 Q616.6563,138.125 615.9688,137.0625 Q615.2813,135.9844 615.2813,134.7031 L615.2813,133.5469 Q615.2813,132.2188 615.8906,131.0781 Q616.5156,129.9219 617.6094,129.3125 Q618.7031,128.6875 619.9375,128.6875 Q620.6719,128.6875 621.3125,128.8594 Q621.9688,129.0156 622.5156,129.375 Z " fill="#000000"/><text fill="#000000" font-family="sans-serif" font-size="14" lengthAdjust="spacing" textLength="128" x="640.25" y="138.3535">GreenSpaceMapper</text><line style="stroke:#181818;stroke-width:0.5;" x1="485.5" x2="890.5" y1="149.5" y2="149.5"/><line style="stroke:#181818;stroke-width:0.5;" x1="485.5" x2="890.5" y1="157.5" y2="157.5"/><text fill="#000000" font-family="sans-serif" font-size="14" lengthAdjust="spacing" textLength="395" x="490.5" y="174.1738">+toDomain(greenSpaceDTO: GreenSpaceDTO) : GreenSpace</text></g><!--class GreenSpaceDTO--><g id="elem_GreenSpaceDTO"><rect codeLine="109" fill="#F1F1F1" height="126.2031" id="GreenSpaceDTO" rx="2.5" ry="2.5" style="stroke:#181818;stroke-width:0.5;" width="504" x="436" y="330.5"/><ellipse cx="628.75" cy="346.5" fill="#ADD1B2" rx="11" ry="11" style="stroke:#181818;stroke-width:1.0;"/><path d="M631.5156,342.375 Q631.6719,342.1563 631.8594,342.0469 Q632.0469,341.9375 632.2656,341.9375 Q632.6406,341.9375 632.875,342.2031 Q633.1094,342.4531 633.1094,343.0625 L633.1094,344.5156 Q633.1094,345.125 632.875,345.3906 Q632.6406,345.6563 632.2656,345.6563 Q631.9219,345.6563 631.7188,345.4531 Q631.5156,345.2656 631.4063,344.75 Q631.3594,344.3906 631.1719,344.2031 Q630.8438,343.8281 630.2344,343.6094 Q629.625,343.3906 629,343.3906 Q628.2344,343.3906 627.5938,343.7188 Q626.9688,344.0469 626.4688,344.7969 Q625.9844,345.5469 625.9844,346.5781 L625.9844,347.6719 Q625.9844,348.9063 626.875,349.7344 Q627.7656,350.5469 629.3594,350.5469 Q630.2969,350.5469 630.9531,350.2969 Q631.3438,350.1406 631.7656,349.7031 Q632.0313,349.4375 632.1719,349.3594 Q632.3281,349.2813 632.5313,349.2813 Q632.8594,349.2813 633.1094,349.5469 Q633.375,349.7969 633.375,350.1406 Q633.375,350.4844 633.0313,350.8906 Q632.5313,351.4688 631.7344,351.7969 Q630.6563,352.25 629.3594,352.25 Q627.8438,352.25 626.6406,351.625 Q625.6563,351.125 624.9688,350.0625 Q624.2813,348.9844 624.2813,347.7031 L624.2813,346.5469 Q624.2813,345.2188 624.8906,344.0781 Q625.5156,342.9219 626.6094,342.3125 Q627.7031,341.6875 628.9375,341.6875 Q629.6719,341.6875 630.3125,341.8594 Q630.9688,342.0156 631.5156,342.375 Z " fill="#000000"/><text fill="#000000" font-family="sans-serif" font-size="14" lengthAdjust="spacing" textLength="110" x="649.25" y="351.3535">GreenSpaceDTO</text><line style="stroke:#181818;stroke-width:0.5;" x1="437" x2="939" y1="362.5" y2="362.5"/><text fill="#000000" font-family="sans-serif" font-size="14" lengthAdjust="spacing" textLength="81" x="442" y="379.1738">-String name</text><text fill="#000000" font-family="sans-serif" font-size="14" lengthAdjust="spacing" textLength="70" x="442" y="394.8145">-String size</text><text fill="#000000" font-family="sans-serif" font-size="14" lengthAdjust="spacing" textLength="81" x="442" y="410.4551">-double area</text><text fill="#000000" font-family="sans-serif" font-size="14" lengthAdjust="spacing" textLength="112" x="442" y="426.0957">-Address address</text><line style="stroke:#181818;stroke-width:0.5;" x1="437" x2="939" y1="433.0625" y2="433.0625"/><text fill="#000000" font-family="sans-serif" font-size="14" lengthAdjust="spacing" textLength="492" x="442" y="449.7363">+GreenSpaceDTO(name: String, size: String, area: double, address: Address)</text></g><!--link Repositories to Repositories--><g id="link_Repositories_Repositories"><path codeLine="118" d="M2684.16,130.82 C2705.31,134.34 2719,140.57 2719,149.5 C2719,157.66 2707.57,163.57 2689.44,167.21 " fill="none" id="Repositories-to-Repositories" style="stroke:#181818;stroke-width:1.0;"/><polygon fill="#181818" points="2684.16,168.18,2693.7333,170.4933,2689.0782,167.2793,2692.2922,162.6241,2684.16,168.18" style="stroke:#181818;stroke-width:1.0;"/><text fill="#000000" font-family="sans-serif" font-size="13" lengthAdjust="spacing" textLength="49" x="2725" y="154.2686">instance</text></g><!--link RegisterGreenSpaceGUI to RegisterGreenSpaceController--><g id="link_RegisterGreenSpaceGUI_RegisterGreenSpaceController"><path codeLine="119" d="M382.17,62.92 C437.18,32.62 485.5,6 485.5,6 C485.5,6 890.5,6 890.5,6 C890.5,6 1039.89,46.95 1179.06,85.1 " fill="none" id="RegisterGreenSpaceGUI-to-RegisterGreenSpaceController" style="stroke:#181818;stroke-width:1.0;stroke-dasharray:7.0,7.0;"/><polygon fill="#181818" points="1184,86.45,1176.3665,80.2267,1179.1755,85.1368,1174.2654,87.9459,1184,86.45" style="stroke:#181818;stroke-width:1.0;"/></g><!--link RegisterGreenSpaceGUI to GreenSpaceDTO--><g id="link_RegisterGreenSpaceGUI_GreenSpaceDTO"><path codeLine="120" d="M388.89,236.16 C446.7,266.38 510.69,299.82 564.59,328 " fill="none" id="RegisterGreenSpaceGUI-to-GreenSpaceDTO" style="stroke:#181818;stroke-width:1.0;stroke-dasharray:7.0,7.0;"/><polygon fill="#181818" points="569.11,330.36,562.9861,322.6465,564.6786,328.0442,559.2809,329.7367,569.11,330.36" style="stroke:#181818;stroke-width:1.0;"/></g><!--link RegisterGreenSpaceController to Repositories--><g id="link_RegisterGreenSpaceController_Repositories"><path codeLine="121" d="M1880.28,149.5 C2027.95,149.5 2183.14,149.5 2300.65,149.5 " fill="none" id="RegisterGreenSpaceController-to-Repositories" style="stroke:#181818;stroke-width:1.0;stroke-dasharray:7.0,7.0;"/><polygon fill="#181818" points="2305.87,149.5,2296.87,145.5,2300.87,149.5,2296.87,153.5,2305.87,149.5" style="stroke:#181818;stroke-width:1.0;"/><text fill="#000000" font-family="sans-serif" font-size="13" lengthAdjust="spacing" textLength="67" x="2059.5" y="143.2686">repositories</text></g><!--link RegisterGreenSpaceController to GreenSpaceRepository--><g id="link_RegisterGreenSpaceController_GreenSpaceRepository"><path codeLine="122" d="M1690.98,212.51 C1850.95,248.32 2051.69,293.26 2212.57,329.27 " fill="none" id="RegisterGreenSpaceController-to-GreenSpaceRepository" style="stroke:#181818;stroke-width:1.0;stroke-dasharray:7.0,7.0;"/><polygon fill="#181818" points="2217.8,330.44,2209.882,324.5829,2212.9191,329.3553,2208.1466,332.3924,2217.8,330.44" style="stroke:#181818;stroke-width:1.0;"/></g><!--link Repositories to GreenSpaceRepository--><g id="link_Repositories_GreenSpaceRepository"><path codeLine="123" d="M2495,212.51 C2495,242.15 2495,278.04 2495,309.95 " fill="none" id="Repositories-to-GreenSpaceRepository" style="stroke:#181818;stroke-width:1.0;"/><polygon fill="none" points="2502,310.23,2495,330.23,2488,310.23,2502,310.23" style="stroke:#181818;stroke-width:1.0;"/></g><!--link GreenSpaceRepository to GreenSpace--><g id="link_GreenSpaceRepository_GreenSpace"><path codeLine="124" d="M2495,456.65 C2495,487.68 2495,526.81 2495,565.58 " fill="none" id="GreenSpaceRepository-to-GreenSpace" style="stroke:#181818;stroke-width:1.0;"/><polygon fill="#181818" points="2495,570.8,2499,561.8,2495,565.8,2491,561.8,2495,570.8" style="stroke:#181818;stroke-width:1.0;"/><text fill="#000000" font-family="sans-serif" font-size="13" lengthAdjust="spacing" textLength="5" x="2489.8711" y="560.1183">*</text></g><!--link GreenSpace to Address--><g id="link_GreenSpace_Address"><path codeLine="125" d="M2584.59,885.22 C2595.82,904.8 2606.79,923.93 2616.6,941.04 " fill="none" id="GreenSpace-to-Address" style="stroke:#181818;stroke-width:1.0;"/><polygon fill="#181818" points="2619.34,945.81,2618.3165,936.0145,2616.8455,941.4767,2611.3833,940.0057,2619.34,945.81" style="stroke:#181818;stroke-width:1.0;"/><text fill="#000000" font-family="sans-serif" font-size="13" lengthAdjust="spacing" textLength="7" x="2581.491" y="904.4441">1</text><text fill="#000000" font-family="sans-serif" font-size="13" lengthAdjust="spacing" textLength="32" x="2572.5564" y="935.0437">has 1</text></g><!--link RegisterGreenSpaceController to GreenSpaceMapper--><g id="link_RegisterGreenSpaceController_GreenSpaceMapper"><path codeLine="126" d="M947.79,149.5 C936.67,149.5 930,149.5 930,149.5 C930,149.5 916.94,149.5 896.9,149.5 " fill="none" id="RegisterGreenSpaceController-to-GreenSpaceMapper" style="stroke:#181818;stroke-width:1.0;stroke-dasharray:7.0,7.0;"/><polygon fill="#181818" points="891.65,149.5,900.65,153.5,896.65,149.5,900.65,145.5,891.65,149.5" style="stroke:#181818;stroke-width:1.0;"/></g><!--link GreenSpaceMapper to GreenSpaceDTO--><g id="link_GreenSpaceMapper_GreenSpaceDTO"><path codeLine="127" d="M688,181.64 C688,217.73 688,278.25 688,325.22 " fill="none" id="GreenSpaceMapper-to-GreenSpaceDTO" style="stroke:#181818;stroke-width:1.0;stroke-dasharray:7.0,7.0;"/><polygon fill="#181818" points="688,330.3,692,321.3,688,325.3,684,321.3,688,330.3" style="stroke:#181818;stroke-width:1.0;"/></g><!--link RegisterGreenSpaceController to GreenSpaceDTO--><g id="link_RegisterGreenSpaceController_GreenSpaceDTO"><path codeLine="128" d="M1227.98,212.51 C1120.97,248.18 986.79,292.9 878.96,328.85 " fill="none" id="RegisterGreenSpaceController-to-GreenSpaceDTO" style="stroke:#181818;stroke-width:1.0;stroke-dasharray:7.0,7.0;"/><polygon fill="#181818" points="874.17,330.44,883.9713,331.4064,878.9163,328.8674,881.4552,323.8124,874.17,330.44" style="stroke:#181818;stroke-width:1.0;"/></g><!--link GreenSpace to GreenSpaceType--><g id="link_GreenSpace_GreenSpaceType"><path codeLine="129" d="M2358.94,885.22 C2342.83,903.72 2327.07,921.81 2312.81,938.19 " fill="none" id="GreenSpace-to-GreenSpaceType" style="stroke:#181818;stroke-width:1.0;"/><polygon fill="none" points="2318.05,942.83,2299.63,953.31,2307.49,933.63,2318.05,942.83" style="stroke:#181818;stroke-width:1.0;"/></g><!--link Repositories to AuthenticationRepository--><g id="link_Repositories_AuthenticationRepository"><path codeLine="130" d="M2684.33,195.78 C2852.56,236.02 3072,288.5 3072,288.5 C3072,288.5 3075.47,289.77 3081.66,292.02 " fill="none" id="Repositories-to-AuthenticationRepository" style="stroke:#181818;stroke-width:1.0;"/><polygon fill="none" points="3084.24,285.52,3100.63,298.95,3079.44,298.67,3084.24,285.52" style="stroke:#181818;stroke-width:1.0;"/></g><!--SRC=[pLTDRziu4BthLn2-r6sSO7irYW1Ax1f6atHX9rXWBmKjCJPRcHH86etRvh_la9AjeKZ9xc4NwujjyN4-tZmDEM_qDovAgkYMRAMGsKR9BID6xLZIh9Gq-qRNR6ds1IEAPOQATO41UaDp-PsBDNccXSOh1HVCx4j6IbdixPykiy-oo9bAq79MKArJOnHVxGoRPr8i-Gz6_aYIDmLxDiH8elXwOqZERKnSYYIfJPAdEVcP4FWu8sJ1rbmRfcQACR4449ivX8DSaaVsOZvoLkHaVGGyq2rpouTF7BOqyDEqWBTokv8tykK3h08frmZ_25oSOJPLZBPWOGwtKXWbYu8fA4htecVd8ix5y6qBjPOtG6NmEFHJGrwJruPz55X_5G9WbMe3q0jMIisDL7l4JlFG2w_QdExCXWd3CsebWVRJZeN0naLlf2rEQhgOcKN26xubutWs4HiPrDmmnAmlnZ6fr3GAr1TRiJh3hkr_RoUyIeTzDiYLb0MZmWlBgoaYqgzf_PWpxTKGBtHHDXSQMedL44I0D_nB37isB0FOJXpVfIRdD-rMr6k2I8e5xf6LAaNtTo2v3mqKTmrz12JzIJN0Ai2OtIHuPL3VAK24-NxwOYt4zTUb5XSCpVF_IC3tL80irNHBUH7RRplec71XUkFroBlPOwF3VbzdqLkhu2W4qjsTF3a0w2FDQCvQJQjw6ARHhT8GQmlyUVKLJioXv7fCgjzpKUwChGRTHlRayawkkHWod-toUtwMAjnskJEnSA02jpkb8FedpTIIQGqPEF6Y_r6XsVK5U1pol0afPpfJlBGqd2jOQ-SlRZREbl24sftlYC1fmERdvV_iodPi6QqgUcrs8i6by5fieoqa4b19vRZloXA7HQuihLFNlcjzTvQuNVoMX71u4_lkDuwd_rthED4mR6YkgfMD4Aq3T4TFFU6eolLyLpM-YwnJxYnXhOCrfe6MKxUhlmgd77lzz-niVwThdmZ0bjuvXkgVyEgWvud6oCfxFANca8YyykvL_1dSJGYPfOl9z26oS3-Tp9_klopdVqydN_vC5vyYcBjqCPlsGw1hmIXOnsrWHC6ThbSNtjKdpNC5FTmxtkhEeVq-LBM8N4hriDkkqDXotF23bvb4ZVEua77JNFSk3Zw7kjKX6jkkK2Dhy1OCDWXho9UArvplQLcsPXgiGhHug7lLpf5C9e-VCNtmr-SpT0gG3e_DYiU6mCT0mpPSTz7JNEvMC7LJt8SlZzMYrNSIQytWjNLAQZHBZ9p9SMr_TB0qFfX6h7gZm-NbjJzBs19Lqq4Idzwlhdl7jEvTNYf9xr1w5GIby9HoQc_itjzE-rS7B3epM9O6xmPOB-XsC7W_i00os51DtiFtWVJV2BHISHB8-YeWhd-S3_4eq5RMheU4j7JUQly1]--></g></svg>