<?xml version="1.0" encoding="us-ascii" standalone="no"?><svg xmlns="http://www.w3.org/2000/svg" xmlns:xlink="http://www.w3.org/1999/xlink" contentStyleType="text/css" height="1418px" preserveAspectRatio="none" style="width:2035px;height:1418px;background:#FFFFFF;" version="1.1" viewBox="0 0 2035 1418" width="2035px" zoomAndPan="magnify"><defs/><g><rect fill="#FFFFFF" height="1207.1641" style="stroke:#181818;stroke-width:1.0;" width="10" x="92" y="106.2813"/><rect fill="#FFFFFF" height="133.3281" style="stroke:#181818;stroke-width:1.0;" width="10" x="395" y="126.8047"/><rect fill="#FFFFFF" height="43.0469" style="stroke:#181818;stroke-width:1.0;" width="10" x="395" y="288.6563"/><rect fill="#FFFFFF" height="311.875" style="stroke:#181818;stroke-width:1.0;" width="10" x="395" y="360.2266"/><rect fill="#FFFFFF" height="28.5234" style="stroke:#181818;stroke-width:1.0;" width="10" x="395" y="731.1484"/><rect fill="#FFFFFF" height="28.5234" style="stroke:#181818;stroke-width:1.0;" width="10" x="395" y="788.1953"/><rect fill="#FFFFFF" height="459.2031" style="stroke:#181818;stroke-width:1.0;" width="10" x="395" y="845.2422"/><rect fill="#FFFFFF" height="30.6406" style="stroke:#181818;stroke-width:1.0;" width="10" x="932.5" y="165.3281"/><rect fill="#FFFFFF" height="199.6641" style="stroke:#181818;stroke-width:1.0;" width="10" x="932.5" y="429.3906"/><rect fill="#FFFFFF" height="354.5156" style="stroke:#181818;stroke-width:1.0;" width="10" x="932.5" y="914.4063"/><rect fill="#FFFFFF" height="28.5234" style="stroke:#181818;stroke-width:1.0;" width="10" x="1228.5" y="457.9141"/><rect fill="#FFFFFF" height="28.5234" style="stroke:#181818;stroke-width:1.0;" width="10" x="1228.5" y="942.9297"/><rect fill="#FFFFFF" height="28.5234" style="stroke:#181818;stroke-width:1.0;" width="10" x="1335.5" y="514.9609"/><rect fill="#FFFFFF" height="28.5234" style="stroke:#181818;stroke-width:1.0;" width="10" x="1335.5" y="999.9766"/><rect fill="#FFFFFF" height="28.5234" style="stroke:#181818;stroke-width:1.0;" width="10" x="1549.5" y="572.0078"/><rect fill="#FFFFFF" height="70.0469" style="stroke:#181818;stroke-width:1.0;" width="10" x="1549.5" y="1170.3516"/><rect fill="#FFFFFF" height="84.8047" style="stroke:#181818;stroke-width:1.0;" width="10" x="1812" y="1057.0234"/><rect fill="none" height="457.0156" style="stroke:#000000;stroke-width:1.5;" width="1710" x="10" y="223.0859"/><rect fill="none" height="582.8203" style="stroke:#000000;stroke-width:1.5;" width="2019" x="10" y="694.1016"/><line style="stroke:#181818;stroke-width:0.5;stroke-dasharray:5.0,5.0;" x1="97" x2="97" y1="96.2813" y2="1322.4453"/><line style="stroke:#181818;stroke-width:0.5;stroke-dasharray:5.0,5.0;" x1="400" x2="400" y1="96.2813" y2="1322.4453"/><line style="stroke:#181818;stroke-width:0.5;stroke-dasharray:5.0,5.0;" x1="703" x2="703" y1="883.5625" y2="1322.4453"/><line style="stroke:#181818;stroke-width:0.5;stroke-dasharray:5.0,5.0;" x1="937" x2="937" y1="165.125" y2="1322.4453"/><line style="stroke:#181818;stroke-width:0.5;stroke-dasharray:5.0,5.0;" x1="1114" x2="1114" y1="398.5469" y2="1322.4453"/><line style="stroke:#181818;stroke-width:0.5;stroke-dasharray:5.0,5.0;" x1="1233" x2="1233" y1="96.2813" y2="1322.4453"/><line style="stroke:#181818;stroke-width:0.5;stroke-dasharray:5.0,5.0;" x1="1340" x2="1340" y1="96.2813" y2="1322.4453"/><line style="stroke:#181818;stroke-width:0.5;stroke-dasharray:5.0,5.0;" x1="1554" x2="1554" y1="96.2813" y2="1322.4453"/><line style="stroke:#181818;stroke-width:0.5;stroke-dasharray:5.0,5.0;" x1="1817" x2="1817" y1="205.7656" y2="1322.4453"/><line style="stroke:#181818;stroke-width:0.5;stroke-dasharray:5.0,5.0;" x1="1971" x2="1971" y1="1103.1641" y2="1322.4453"/><text fill="#000000" font-family="sans-serif" font-size="14" lengthAdjust="spacing" textLength="144" x="20" y="77.6738">Green Space Manager</text><text fill="#000000" font-family="sans-serif" font-size="14" lengthAdjust="spacing" textLength="41" x="73.5" y="93.3145">(GSM)</text><ellipse cx="97" cy="13.5" fill="#E3E3E3" rx="8" ry="8" style="stroke:#181818;stroke-width:0.5;"/><path d="M97,21.5 L97,48.5 M84,29.5 L110,29.5 M97,48.5 L84,63.5 M97,48.5 L110,63.5 " fill="none" style="stroke:#181818;stroke-width:0.5;"/><text fill="#000000" font-family="sans-serif" font-size="14" lengthAdjust="spacing" textLength="144" x="20" y="1334.1191">Green Space Manager</text><text fill="#000000" font-family="sans-serif" font-size="14" lengthAdjust="spacing" textLength="41" x="73.5" y="1349.7598">(GSM)</text><ellipse cx="97" cy="1361.2266" fill="#E3E3E3" rx="8" ry="8" style="stroke:#181818;stroke-width:0.5;"/><path d="M97,1369.2266 L97,1396.2266 M84,1377.2266 L110,1377.2266 M97,1396.2266 L84,1411.2266 M97,1396.2266 L110,1411.2266 " fill="none" style="stroke:#181818;stroke-width:0.5;"/><rect fill="#E3E3E3" height="29.6406" rx="2.5" ry="2.5" style="stroke:#181818;stroke-width:0.5;" width="174" x="313" y="65.6406"/><text fill="#000000" font-family="sans-serif" font-size="14" lengthAdjust="spacing" textLength="160" x="320" y="85.3145">:RegisterGreenSpaceGUI</text><rect fill="#E3E3E3" height="29.6406" rx="2.5" ry="2.5" style="stroke:#181818;stroke-width:0.5;" width="174" x="313" y="1321.4453"/><text fill="#000000" font-family="sans-serif" font-size="14" lengthAdjust="spacing" textLength="160" x="320" y="1341.1191">:RegisterGreenSpaceGUI</text><rect fill="#E3E3E3" height="29.6406" rx="2.5" ry="2.5" style="stroke:#181818;stroke-width:0.5;" width="235" x="586" y="1321.4453"/><text fill="#000000" font-family="sans-serif" font-size="14" lengthAdjust="spacing" textLength="221" x="593" y="1341.1191">greenSpaceDTO:GreenSpaceDTO</text><rect fill="#E3E3E3" height="29.6406" rx="2.5" ry="2.5" style="stroke:#181818;stroke-width:0.5;" width="213" x="831" y="1321.4453"/><text fill="#000000" font-family="sans-serif" font-size="14" lengthAdjust="spacing" textLength="199" x="838" y="1341.1191">:RegisterGreenSpaceController</text><rect fill="#E3E3E3" height="29.6406" rx="2.5" ry="2.5" style="stroke:#181818;stroke-width:0.5;" width="121" x="1054" y="1321.4453"/><text fill="#000000" font-family="sans-serif" font-size="14" lengthAdjust="spacing" textLength="107" x="1061" y="1341.1191">address:Address</text><rect fill="#E3E3E3" height="29.6406" rx="2.5" ry="2.5" style="stroke:#181818;stroke-width:0.5;" width="97" x="1185" y="65.6406"/><text fill="#000000" font-family="sans-serif" font-size="14" lengthAdjust="spacing" textLength="83" x="1192" y="85.3145">:Repositories</text><rect fill="#E3E3E3" height="29.6406" rx="2.5" ry="2.5" style="stroke:#181818;stroke-width:0.5;" width="97" x="1185" y="1321.4453"/><text fill="#000000" font-family="sans-serif" font-size="14" lengthAdjust="spacing" textLength="83" x="1192" y="1341.1191">:Repositories</text><rect fill="#E3E3E3" height="45.2813" rx="2.5" ry="2.5" style="stroke:#181818;stroke-width:0.5;" width="97" x="1292" y="50"/><text fill="#000000" font-family="sans-serif" font-size="14" lengthAdjust="spacing" textLength="74" x="1303.5" y="69.6738">repositories</text><text fill="#000000" font-family="sans-serif" font-size="14" lengthAdjust="spacing" textLength="83" x="1299" y="85.3145">:Repositories</text><rect fill="#E3E3E3" height="45.2813" rx="2.5" ry="2.5" style="stroke:#181818;stroke-width:0.5;" width="97" x="1292" y="1321.4453"/><text fill="#000000" font-family="sans-serif" font-size="14" lengthAdjust="spacing" textLength="74" x="1303.5" y="1341.1191">repositories</text><text fill="#000000" font-family="sans-serif" font-size="14" lengthAdjust="spacing" textLength="83" x="1299" y="1356.7598">:Repositories</text><rect fill="#E3E3E3" height="29.6406" rx="2.5" ry="2.5" style="stroke:#181818;stroke-width:0.5;" width="311" x="1399" y="65.6406"/><text fill="#000000" font-family="sans-serif" font-size="14" lengthAdjust="spacing" textLength="297" x="1406" y="85.3145">greenSpaceRepository:GreenSpaceRepository</text><rect fill="#E3E3E3" height="29.6406" rx="2.5" ry="2.5" style="stroke:#181818;stroke-width:0.5;" width="311" x="1399" y="1321.4453"/><text fill="#000000" font-family="sans-serif" font-size="14" lengthAdjust="spacing" textLength="297" x="1406" y="1341.1191">greenSpaceRepository:GreenSpaceRepository</text><rect fill="#E3E3E3" height="29.6406" rx="2.5" ry="2.5" style="stroke:#181818;stroke-width:0.5;" width="194" x="1720" y="1321.4453"/><text fill="#000000" font-family="sans-serif" font-size="14" lengthAdjust="spacing" textLength="180" x="1727" y="1341.1191">mapper:GreenSpaceMapper</text><rect fill="#E3E3E3" height="45.2813" rx="2.5" ry="2.5" style="stroke:#181818;stroke-width:0.5;" width="95" x="1924" y="1321.4453"/><text fill="#000000" font-family="sans-serif" font-size="14" lengthAdjust="spacing" textLength="81" x="1931" y="1341.1191">greenSpace:</text><text fill="#000000" font-family="sans-serif" font-size="14" lengthAdjust="spacing" textLength="80" x="1931.5" y="1356.7598">GreenSpace</text><rect fill="#FFFFFF" height="1207.1641" style="stroke:#181818;stroke-width:1.0;" width="10" x="92" y="106.2813"/><rect fill="#FFFFFF" height="133.3281" style="stroke:#181818;stroke-width:1.0;" width="10" x="395" y="126.8047"/><rect fill="#FFFFFF" height="43.0469" style="stroke:#181818;stroke-width:1.0;" width="10" x="395" y="288.6563"/><rect fill="#FFFFFF" height="311.875" style="stroke:#181818;stroke-width:1.0;" width="10" x="395" y="360.2266"/><rect fill="#FFFFFF" height="28.5234" style="stroke:#181818;stroke-width:1.0;" width="10" x="395" y="731.1484"/><rect fill="#FFFFFF" height="28.5234" style="stroke:#181818;stroke-width:1.0;" width="10" x="395" y="788.1953"/><rect fill="#FFFFFF" height="459.2031" style="stroke:#181818;stroke-width:1.0;" width="10" x="395" y="845.2422"/><rect fill="#FFFFFF" height="30.6406" style="stroke:#181818;stroke-width:1.0;" width="10" x="932.5" y="165.3281"/><rect fill="#FFFFFF" height="199.6641" style="stroke:#181818;stroke-width:1.0;" width="10" x="932.5" y="429.3906"/><rect fill="#FFFFFF" height="354.5156" style="stroke:#181818;stroke-width:1.0;" width="10" x="932.5" y="914.4063"/><rect fill="#FFFFFF" height="28.5234" style="stroke:#181818;stroke-width:1.0;" width="10" x="1228.5" y="457.9141"/><rect fill="#FFFFFF" height="28.5234" style="stroke:#181818;stroke-width:1.0;" width="10" x="1228.5" y="942.9297"/><rect fill="#FFFFFF" height="28.5234" style="stroke:#181818;stroke-width:1.0;" width="10" x="1335.5" y="514.9609"/><rect fill="#FFFFFF" height="28.5234" style="stroke:#181818;stroke-width:1.0;" width="10" x="1335.5" y="999.9766"/><rect fill="#FFFFFF" height="28.5234" style="stroke:#181818;stroke-width:1.0;" width="10" x="1549.5" y="572.0078"/><rect fill="#FFFFFF" height="70.0469" style="stroke:#181818;stroke-width:1.0;" width="10" x="1549.5" y="1170.3516"/><rect fill="#FFFFFF" height="84.8047" style="stroke:#181818;stroke-width:1.0;" width="10" x="1812" y="1057.0234"/><polygon fill="#181818" points="383,122.8047,393,126.8047,383,130.8047,387,126.8047" style="stroke:#181818;stroke-width:1.0;"/><line style="stroke:#181818;stroke-width:1.0;" x1="102" x2="389" y1="126.8047" y2="126.8047"/><text fill="#000000" font-family="sans-serif" font-size="13" font-weight="bold" lengthAdjust="spacing" textLength="7" x="109" y="122.0498">1</text><text fill="#000000" font-family="sans-serif" font-size="13" lengthAdjust="spacing" textLength="211" x="120" y="122.0498">request registration of a green space</text><polygon fill="#181818" points="819,151.3281,829,155.3281,819,159.3281,823,155.3281" style="stroke:#181818;stroke-width:1.0;"/><line style="stroke:#181818;stroke-width:1.0;" x1="405" x2="825" y1="155.3281" y2="155.3281"/><text fill="#000000" font-family="sans-serif" font-size="13" font-weight="bold" lengthAdjust="spacing" textLength="7" x="412" y="150.5732">2</text><text fill="#000000" font-family="sans-serif" font-size="13" lengthAdjust="spacing" textLength="36" x="423" y="150.5732">create</text><rect fill="#E3E3E3" height="29.6406" rx="2.5" ry="2.5" style="stroke:#181818;stroke-width:0.5;" width="213" x="831" y="134.8047"/><text fill="#000000" font-family="sans-serif" font-size="14" lengthAdjust="spacing" textLength="199" x="838" y="154.4785">:RegisterGreenSpaceController</text><polygon fill="#181818" points="1708,191.9688,1718,195.9688,1708,199.9688,1712,195.9688" style="stroke:#181818;stroke-width:1.0;"/><line style="stroke:#181818;stroke-width:1.0;" x1="937.5" x2="1714" y1="195.9688" y2="195.9688"/><text fill="#000000" font-family="sans-serif" font-size="13" font-weight="bold" lengthAdjust="spacing" textLength="7" x="944.5" y="191.2139">3</text><text fill="#000000" font-family="sans-serif" font-size="13" lengthAdjust="spacing" textLength="36" x="955.5" y="191.2139">create</text><rect fill="#E3E3E3" height="29.6406" rx="2.5" ry="2.5" style="stroke:#181818;stroke-width:0.5;" width="194" x="1720" y="175.4453"/><text fill="#000000" font-family="sans-serif" font-size="14" lengthAdjust="spacing" textLength="180" x="1727" y="195.1191">mapper:GreenSpaceMapper</text><path d="M10,223.0859 L83,223.0859 L83,229.6094 L73,239.6094 L10,239.6094 L10,223.0859 " fill="#EEEEEE" style="stroke:#000000;stroke-width:1.5;"/><rect fill="none" height="457.0156" style="stroke:#000000;stroke-width:1.5;" width="1710" x="10" y="223.0859"/><text fill="#000000" font-family="sans-serif" font-size="13" font-weight="bold" lengthAdjust="spacing" textLength="28" x="25" y="235.8545">loop</text><text fill="#000000" font-family="sans-serif" font-size="11" font-weight="bold" lengthAdjust="spacing" textLength="134" x="98" y="235.0439">[ultil all data is validated]</text><polygon fill="#181818" points="113,256.1328,103,260.1328,113,264.1328,109,260.1328" style="stroke:#181818;stroke-width:1.0;"/><line style="stroke:#181818;stroke-width:1.0;stroke-dasharray:2.0,2.0;" x1="107" x2="399" y1="260.1328" y2="260.1328"/><text fill="#000000" font-family="sans-serif" font-size="13" font-weight="bold" lengthAdjust="spacing" textLength="7" x="119" y="255.3779">4</text><text fill="#000000" font-family="sans-serif" font-size="13" lengthAdjust="spacing" textLength="182" x="130" y="255.3779">asks the name of green spaces</text><polygon fill="#181818" points="383,284.6563,393,288.6563,383,292.6563,387,288.6563" style="stroke:#181818;stroke-width:1.0;"/><line style="stroke:#181818;stroke-width:1.0;" x1="102" x2="389" y1="288.6563" y2="288.6563"/><text fill="#000000" font-family="sans-serif" font-size="13" font-weight="bold" lengthAdjust="spacing" textLength="7" x="109" y="283.9014">5</text><text fill="#000000" font-family="sans-serif" font-size="13" lengthAdjust="spacing" textLength="132" x="120" y="283.9014">selects requested data</text><polygon fill="#181818" points="113,327.7031,103,331.7031,113,335.7031,109,331.7031" style="stroke:#181818;stroke-width:1.0;"/><line style="stroke:#181818;stroke-width:1.0;stroke-dasharray:2.0,2.0;" x1="107" x2="399" y1="331.7031" y2="331.7031"/><text fill="#000000" font-family="sans-serif" font-size="13" font-weight="bold" lengthAdjust="spacing" textLength="7" x="119" y="319.6865">6</text><text fill="#000000" font-family="sans-serif" font-size="13" lengthAdjust="spacing" textLength="249" x="130" y="312.4248">requests the address (street, zipcode, city)</text><text fill="#000000" font-family="sans-serif" font-size="13" lengthAdjust="spacing" textLength="107" x="130" y="326.9482">of the green space</text><polygon fill="#181818" points="383,356.2266,393,360.2266,383,364.2266,387,360.2266" style="stroke:#181818;stroke-width:1.0;"/><line style="stroke:#181818;stroke-width:1.0;" x1="102" x2="389" y1="360.2266" y2="360.2266"/><text fill="#000000" font-family="sans-serif" font-size="13" font-weight="bold" lengthAdjust="spacing" textLength="7" x="109" y="355.4717">7</text><text fill="#000000" font-family="sans-serif" font-size="13" lengthAdjust="spacing" textLength="107" x="120" y="355.4717">select the address</text><polygon fill="#181818" points="1042,384.75,1052,388.75,1042,392.75,1046,388.75" style="stroke:#181818;stroke-width:1.0;"/><line style="stroke:#181818;stroke-width:1.0;" x1="405" x2="1048" y1="388.75" y2="388.75"/><text fill="#000000" font-family="sans-serif" font-size="13" font-weight="bold" lengthAdjust="spacing" textLength="7" x="412" y="383.9951">8</text><text fill="#000000" font-family="sans-serif" font-size="13" lengthAdjust="spacing" textLength="36" x="423" y="383.9951">create</text><rect fill="#E3E3E3" height="29.6406" rx="2.5" ry="2.5" style="stroke:#181818;stroke-width:0.5;" width="121" x="1054" y="368.2266"/><text fill="#000000" font-family="sans-serif" font-size="14" lengthAdjust="spacing" textLength="107" x="1061" y="387.9004">address:Address</text><polygon fill="#181818" points="920.5,425.3906,930.5,429.3906,920.5,433.3906,924.5,429.3906" style="stroke:#181818;stroke-width:1.0;"/><line style="stroke:#181818;stroke-width:1.0;" x1="405" x2="926.5" y1="429.3906" y2="429.3906"/><text fill="#000000" font-family="sans-serif" font-size="13" font-weight="bold" lengthAdjust="spacing" textLength="7" x="412" y="424.6357">9</text><text fill="#000000" font-family="sans-serif" font-size="13" lengthAdjust="spacing" textLength="145" x="423" y="424.6357">getGreenSpaceSizeList()</text><polygon fill="#181818" points="1216.5,453.9141,1226.5,457.9141,1216.5,461.9141,1220.5,457.9141" style="stroke:#181818;stroke-width:1.0;"/><line style="stroke:#181818;stroke-width:1.0;" x1="942.5" x2="1222.5" y1="457.9141" y2="457.9141"/><text fill="#000000" font-family="sans-serif" font-size="13" font-weight="bold" lengthAdjust="spacing" textLength="14" x="949.5" y="453.1592">10</text><text fill="#000000" font-family="sans-serif" font-size="13" lengthAdjust="spacing" textLength="75" x="967.5" y="453.1592">getInstance()</text><polygon fill="#181818" points="953.5,482.4375,943.5,486.4375,953.5,490.4375,949.5,486.4375" style="stroke:#181818;stroke-width:1.0;"/><line style="stroke:#181818;stroke-width:1.0;stroke-dasharray:2.0,2.0;" x1="947.5" x2="1232.5" y1="486.4375" y2="486.4375"/><text fill="#000000" font-family="sans-serif" font-size="13" font-weight="bold" lengthAdjust="spacing" textLength="14" x="959.5" y="481.6826">11</text><text fill="#000000" font-family="sans-serif" font-size="13" lengthAdjust="spacing" textLength="67" x="977.5" y="481.6826">repositories</text><polygon fill="#181818" points="1323.5,510.9609,1333.5,514.9609,1323.5,518.9609,1327.5,514.9609" style="stroke:#181818;stroke-width:1.0;"/><line style="stroke:#181818;stroke-width:1.0;" x1="942.5" x2="1329.5" y1="514.9609" y2="514.9609"/><text fill="#000000" font-family="sans-serif" font-size="13" font-weight="bold" lengthAdjust="spacing" textLength="14" x="949.5" y="510.2061">12</text><text fill="#000000" font-family="sans-serif" font-size="13" lengthAdjust="spacing" textLength="186" x="967.5" y="510.2061">getGreenSpaceSizeRepository()</text><polygon fill="#181818" points="953.5,539.4844,943.5,543.4844,953.5,547.4844,949.5,543.4844" style="stroke:#181818;stroke-width:1.0;"/><line style="stroke:#181818;stroke-width:1.0;stroke-dasharray:2.0,2.0;" x1="947.5" x2="1339.5" y1="543.4844" y2="543.4844"/><text fill="#000000" font-family="sans-serif" font-size="13" font-weight="bold" lengthAdjust="spacing" textLength="14" x="959.5" y="538.7295">13</text><text fill="#000000" font-family="sans-serif" font-size="13" lengthAdjust="spacing" textLength="178" x="977.5" y="538.7295">getGreenSpaceSizeRepository</text><polygon fill="#181818" points="1537.5,568.0078,1547.5,572.0078,1537.5,576.0078,1541.5,572.0078" style="stroke:#181818;stroke-width:1.0;"/><line style="stroke:#181818;stroke-width:1.0;" x1="942.5" x2="1543.5" y1="572.0078" y2="572.0078"/><text fill="#000000" font-family="sans-serif" font-size="13" font-weight="bold" lengthAdjust="spacing" textLength="14" x="949.5" y="567.2529">14</text><text fill="#000000" font-family="sans-serif" font-size="13" lengthAdjust="spacing" textLength="145" x="967.5" y="567.2529">getGreenSpaceSizeList()</text><polygon fill="#181818" points="953.5,596.5313,943.5,600.5313,953.5,604.5313,949.5,600.5313" style="stroke:#181818;stroke-width:1.0;"/><line style="stroke:#181818;stroke-width:1.0;stroke-dasharray:2.0,2.0;" x1="947.5" x2="1553.5" y1="600.5313" y2="600.5313"/><text fill="#000000" font-family="sans-serif" font-size="13" font-weight="bold" lengthAdjust="spacing" textLength="14" x="959.5" y="595.7764">15</text><text fill="#000000" font-family="sans-serif" font-size="13" lengthAdjust="spacing" textLength="137" x="977.5" y="595.7764">getGreenSpaceSizeList</text><polygon fill="#181818" points="416,625.0547,406,629.0547,416,633.0547,412,629.0547" style="stroke:#181818;stroke-width:1.0;"/><line style="stroke:#181818;stroke-width:1.0;stroke-dasharray:2.0,2.0;" x1="410" x2="936.5" y1="629.0547" y2="629.0547"/><text fill="#000000" font-family="sans-serif" font-size="13" font-weight="bold" lengthAdjust="spacing" textLength="14" x="422" y="624.2998">16</text><text fill="#000000" font-family="sans-serif" font-size="13" lengthAdjust="spacing" textLength="137" x="440" y="624.2998">getGreenSpaceSizeList</text><polygon fill="#181818" points="113,668.1016,103,672.1016,113,676.1016,109,672.1016" style="stroke:#181818;stroke-width:1.0;"/><line style="stroke:#181818;stroke-width:1.0;stroke-dasharray:2.0,2.0;" x1="107" x2="399" y1="672.1016" y2="672.1016"/><text fill="#000000" font-family="sans-serif" font-size="13" font-weight="bold" lengthAdjust="spacing" textLength="14" x="119" y="660.085">17</text><text fill="#000000" font-family="sans-serif" font-size="13" lengthAdjust="spacing" textLength="240" x="137" y="652.8232">asks the size of the green space (garden,</text><text fill="#000000" font-family="sans-serif" font-size="13" lengthAdjust="spacing" textLength="225" x="137" y="667.3467">medium-sized park or large-sized park)</text><path d="M10,694.1016 L83,694.1016 L83,700.625 L73,710.625 L10,710.625 L10,694.1016 " fill="#EEEEEE" style="stroke:#000000;stroke-width:1.5;"/><rect fill="none" height="582.8203" style="stroke:#000000;stroke-width:1.5;" width="2019" x="10" y="694.1016"/><text fill="#000000" font-family="sans-serif" font-size="13" font-weight="bold" lengthAdjust="spacing" textLength="28" x="25" y="706.8701">loop</text><text fill="#000000" font-family="sans-serif" font-size="11" font-weight="bold" lengthAdjust="spacing" textLength="134" x="98" y="706.0596">[ultil all data is validated]</text><polygon fill="#181818" points="383,727.1484,393,731.1484,383,735.1484,387,731.1484" style="stroke:#181818;stroke-width:1.0;"/><line style="stroke:#181818;stroke-width:1.0;" x1="102" x2="389" y1="731.1484" y2="731.1484"/><text fill="#000000" font-family="sans-serif" font-size="13" font-weight="bold" lengthAdjust="spacing" textLength="14" x="109" y="726.3936">18</text><text fill="#000000" font-family="sans-serif" font-size="13" lengthAdjust="spacing" textLength="138" x="127" y="726.3936">select green space size</text><polygon fill="#181818" points="113,755.6719,103,759.6719,113,763.6719,109,759.6719" style="stroke:#181818;stroke-width:1.0;"/><line style="stroke:#181818;stroke-width:1.0;stroke-dasharray:2.0,2.0;" x1="107" x2="399" y1="759.6719" y2="759.6719"/><text fill="#000000" font-family="sans-serif" font-size="13" font-weight="bold" lengthAdjust="spacing" textLength="14" x="119" y="754.917">19</text><text fill="#000000" font-family="sans-serif" font-size="13" lengthAdjust="spacing" textLength="212" x="137" y="754.917">requests the area of the green space</text><polygon fill="#181818" points="383,784.1953,393,788.1953,383,792.1953,387,788.1953" style="stroke:#181818;stroke-width:1.0;"/><line style="stroke:#181818;stroke-width:1.0;" x1="102" x2="389" y1="788.1953" y2="788.1953"/><text fill="#000000" font-family="sans-serif" font-size="13" font-weight="bold" lengthAdjust="spacing" textLength="14" x="109" y="783.4404">20</text><text fill="#000000" font-family="sans-serif" font-size="13" lengthAdjust="spacing" textLength="256" x="127" y="783.4404">insert the area of the respective green space</text><polygon fill="#181818" points="113,812.7188,103,816.7188,113,820.7188,109,816.7188" style="stroke:#181818;stroke-width:1.0;"/><line style="stroke:#181818;stroke-width:1.0;stroke-dasharray:2.0,2.0;" x1="107" x2="399" y1="816.7188" y2="816.7188"/><text fill="#000000" font-family="sans-serif" font-size="13" font-weight="bold" lengthAdjust="spacing" textLength="14" x="119" y="811.9639">21</text><text fill="#000000" font-family="sans-serif" font-size="13" lengthAdjust="spacing" textLength="227" x="137" y="811.9639">provides all data and solicits verification</text><polygon fill="#181818" points="383,841.2422,393,845.2422,383,849.2422,387,845.2422" style="stroke:#181818;stroke-width:1.0;"/><line style="stroke:#181818;stroke-width:1.0;" x1="102" x2="389" y1="845.2422" y2="845.2422"/><text fill="#000000" font-family="sans-serif" font-size="13" font-weight="bold" lengthAdjust="spacing" textLength="14" x="109" y="840.4873">22</text><text fill="#000000" font-family="sans-serif" font-size="13" lengthAdjust="spacing" textLength="101" x="127" y="840.4873">validates the data</text><polygon fill="#181818" points="574,869.7656,584,873.7656,574,877.7656,578,873.7656" style="stroke:#181818;stroke-width:1.0;"/><line style="stroke:#181818;stroke-width:1.0;" x1="405" x2="580" y1="873.7656" y2="873.7656"/><text fill="#000000" font-family="sans-serif" font-size="13" font-weight="bold" lengthAdjust="spacing" textLength="14" x="412" y="869.0107">23</text><text fill="#000000" font-family="sans-serif" font-size="13" lengthAdjust="spacing" textLength="139" x="430" y="869.0107">create(greenSpaceDTO)</text><rect fill="#E3E3E3" height="29.6406" rx="2.5" ry="2.5" style="stroke:#181818;stroke-width:0.5;" width="235" x="586" y="853.2422"/><text fill="#000000" font-family="sans-serif" font-size="14" lengthAdjust="spacing" textLength="221" x="593" y="872.916">greenSpaceDTO:GreenSpaceDTO</text><polygon fill="#181818" points="920.5,910.4063,930.5,914.4063,920.5,918.4063,924.5,914.4063" style="stroke:#181818;stroke-width:1.0;"/><line style="stroke:#181818;stroke-width:1.0;" x1="405" x2="926.5" y1="914.4063" y2="914.4063"/><text fill="#000000" font-family="sans-serif" font-size="13" font-weight="bold" lengthAdjust="spacing" textLength="14" x="412" y="909.6514">24</text><text fill="#000000" font-family="sans-serif" font-size="13" lengthAdjust="spacing" textLength="222" x="430" y="909.6514">registerGreenSpace (greenSpaceDTO)</text><polygon fill="#181818" points="1216.5,938.9297,1226.5,942.9297,1216.5,946.9297,1220.5,942.9297" style="stroke:#181818;stroke-width:1.0;"/><line style="stroke:#181818;stroke-width:1.0;" x1="942.5" x2="1222.5" y1="942.9297" y2="942.9297"/><text fill="#000000" font-family="sans-serif" font-size="13" font-weight="bold" lengthAdjust="spacing" textLength="14" x="949.5" y="938.1748">25</text><text fill="#000000" font-family="sans-serif" font-size="13" lengthAdjust="spacing" textLength="75" x="967.5" y="938.1748">getInstance()</text><polygon fill="#181818" points="953.5,967.4531,943.5,971.4531,953.5,975.4531,949.5,971.4531" style="stroke:#181818;stroke-width:1.0;"/><line style="stroke:#181818;stroke-width:1.0;stroke-dasharray:2.0,2.0;" x1="947.5" x2="1232.5" y1="971.4531" y2="971.4531"/><text fill="#000000" font-family="sans-serif" font-size="13" font-weight="bold" lengthAdjust="spacing" textLength="14" x="959.5" y="966.6982">26</text><text fill="#000000" font-family="sans-serif" font-size="13" lengthAdjust="spacing" textLength="67" x="977.5" y="966.6982">repositories</text><polygon fill="#181818" points="1323.5,995.9766,1333.5,999.9766,1323.5,1003.9766,1327.5,999.9766" style="stroke:#181818;stroke-width:1.0;"/><line style="stroke:#181818;stroke-width:1.0;" x1="942.5" x2="1329.5" y1="999.9766" y2="999.9766"/><text fill="#000000" font-family="sans-serif" font-size="13" font-weight="bold" lengthAdjust="spacing" textLength="14" x="949.5" y="995.2217">27</text><text fill="#000000" font-family="sans-serif" font-size="13" lengthAdjust="spacing" textLength="160" x="967.5" y="995.2217">getGreenSpaceRepository()</text><polygon fill="#181818" points="953.5,1024.5,943.5,1028.5,953.5,1032.5,949.5,1028.5" style="stroke:#181818;stroke-width:1.0;"/><line style="stroke:#181818;stroke-width:1.0;stroke-dasharray:2.0,2.0;" x1="947.5" x2="1339.5" y1="1028.5" y2="1028.5"/><text fill="#000000" font-family="sans-serif" font-size="13" font-weight="bold" lengthAdjust="spacing" textLength="14" x="959.5" y="1023.7451">28</text><text fill="#000000" font-family="sans-serif" font-size="13" lengthAdjust="spacing" textLength="134" x="977.5" y="1023.7451">GreenSpaceRepository</text><polygon fill="#181818" points="1800,1053.0234,1810,1057.0234,1800,1061.0234,1804,1057.0234" style="stroke:#181818;stroke-width:1.0;"/><line style="stroke:#181818;stroke-width:1.0;" x1="942.5" x2="1806" y1="1057.0234" y2="1057.0234"/><text fill="#000000" font-family="sans-serif" font-size="13" font-weight="bold" lengthAdjust="spacing" textLength="14" x="949.5" y="1052.2686">29</text><text fill="#000000" font-family="sans-serif" font-size="13" lengthAdjust="spacing" textLength="158" x="967.5" y="1052.2686">toDomain(greenSpaceDTO)</text><polygon fill="#181818" points="1912,1081.5469,1922,1085.5469,1912,1089.5469,1916,1085.5469" style="stroke:#181818;stroke-width:1.0;"/><line style="stroke:#181818;stroke-width:1.0;" x1="1822" x2="1918" y1="1085.5469" y2="1085.5469"/><text fill="#000000" font-family="sans-serif" font-size="13" font-weight="bold" lengthAdjust="spacing" textLength="14" x="1829" y="1080.792">30</text><text fill="#000000" font-family="sans-serif" font-size="13" lengthAdjust="spacing" textLength="36" x="1847" y="1080.792">create</text><rect fill="#E3E3E3" height="45.2813" rx="2.5" ry="2.5" style="stroke:#181818;stroke-width:0.5;" width="95" x="1924" y="1065.0234"/><text fill="#000000" font-family="sans-serif" font-size="14" lengthAdjust="spacing" textLength="81" x="1931" y="1084.6973">greenSpace:</text><text fill="#000000" font-family="sans-serif" font-size="14" lengthAdjust="spacing" textLength="80" x="1931.5" y="1100.3379">GreenSpace</text><polygon fill="#181818" points="953.5,1137.8281,943.5,1141.8281,953.5,1145.8281,949.5,1141.8281" style="stroke:#181818;stroke-width:1.0;"/><line style="stroke:#181818;stroke-width:1.0;stroke-dasharray:2.0,2.0;" x1="947.5" x2="1816" y1="1141.8281" y2="1141.8281"/><text fill="#000000" font-family="sans-serif" font-size="13" font-weight="bold" lengthAdjust="spacing" textLength="14" x="959.5" y="1137.0732">31</text><text fill="#000000" font-family="sans-serif" font-size="13" lengthAdjust="spacing" textLength="69" x="977.5" y="1137.0732">greenSpace</text><polygon fill="#181818" points="1537.5,1166.3516,1547.5,1170.3516,1537.5,1174.3516,1541.5,1170.3516" style="stroke:#181818;stroke-width:1.0;"/><line style="stroke:#181818;stroke-width:1.0;" x1="942.5" x2="1543.5" y1="1170.3516" y2="1170.3516"/><text fill="#000000" font-family="sans-serif" font-size="13" font-weight="bold" lengthAdjust="spacing" textLength="14" x="949.5" y="1165.5967">32</text><text fill="#000000" font-family="sans-serif" font-size="13" lengthAdjust="spacing" textLength="192" x="967.5" y="1165.5967">registerGreenSpace(greenSpace)</text><line style="stroke:#181818;stroke-width:1.0;" x1="1559.5" x2="1601.5" y1="1198.875" y2="1198.875"/><line style="stroke:#181818;stroke-width:1.0;" x1="1601.5" x2="1601.5" y1="1198.875" y2="1211.875"/><line style="stroke:#181818;stroke-width:1.0;" x1="1560.5" x2="1601.5" y1="1211.875" y2="1211.875"/><polygon fill="#181818" points="1570.5,1207.875,1560.5,1211.875,1570.5,1215.875,1566.5,1211.875" style="stroke:#181818;stroke-width:1.0;"/><text fill="#000000" font-family="sans-serif" font-size="13" font-weight="bold" lengthAdjust="spacing" textLength="14" x="1566.5" y="1194.1201">33</text><text fill="#000000" font-family="sans-serif" font-size="13" lengthAdjust="spacing" textLength="192" x="1584.5" y="1194.1201">validateGreenSpace(greenSpace)</text><polygon fill="#181818" points="953.5,1236.3984,943.5,1240.3984,953.5,1244.3984,949.5,1240.3984" style="stroke:#181818;stroke-width:1.0;"/><line style="stroke:#181818;stroke-width:1.0;stroke-dasharray:2.0,2.0;" x1="947.5" x2="1553.5" y1="1240.3984" y2="1240.3984"/><text fill="#000000" font-family="sans-serif" font-size="13" font-weight="bold" lengthAdjust="spacing" textLength="14" x="959.5" y="1235.6436">34</text><text fill="#000000" font-family="sans-serif" font-size="13" lengthAdjust="spacing" textLength="53" x="977.5" y="1235.6436">true/false</text><polygon fill="#181818" points="416,1264.9219,406,1268.9219,416,1272.9219,412,1268.9219" style="stroke:#181818;stroke-width:1.0;"/><line style="stroke:#181818;stroke-width:1.0;stroke-dasharray:2.0,2.0;" x1="410" x2="936.5" y1="1268.9219" y2="1268.9219"/><text fill="#000000" font-family="sans-serif" font-size="13" font-weight="bold" lengthAdjust="spacing" textLength="14" x="422" y="1264.167">35</text><text fill="#000000" font-family="sans-serif" font-size="13" lengthAdjust="spacing" textLength="53" x="440" y="1264.167">true/false</text><polygon fill="#181818" points="113,1300.4453,103,1304.4453,113,1308.4453,109,1304.4453" style="stroke:#181818;stroke-width:1.0;"/><line style="stroke:#181818;stroke-width:1.0;stroke-dasharray:2.0,2.0;" x1="107" x2="399" y1="1304.4453" y2="1304.4453"/><text fill="#000000" font-family="sans-serif" font-size="13" font-weight="bold" lengthAdjust="spacing" textLength="14" x="119" y="1299.6904">36</text><text fill="#000000" font-family="sans-serif" font-size="13" lengthAdjust="spacing" textLength="158" x="137" y="1299.6904">displays operation success</text><!--SRC=[fLTDR-8m4BtdLunwMK15UyzX9LGaLAbeLwMzzU8cGx18xAnjsAM_VYSEIUp62T3b0Z7pdkV3yyRHUovAfbW1XHGosIbP81Xrm4Yt_vGisRCCD-QK8oXC31DPxXhe7Klb7ouosB9SOnInWv7YKBoZYg9lEvuYRAKqx_9ln18Z5Toj5AA03J4Zh9aWTWLlOhBQhATtm3Gibkk8k0rFUCc4WRlu6JEk3IgBjC3LwwErVNtqJRFMOldoCrwvJzP-jLbUv7wGmYYPvwWivE7b-Sd7i3HLg7MygB_FJlTuIwav1SonjcWNJXjUvP2ov4EKWtWJVO9VJukNeMWxSYVeRl4S-xCFBrXPed80QxjWZUkVGzl5Rw93dSaZ-b25-P4Pj3MCuFoX1vZ_e5f1J4Vezm6reUygxOePBWN8BJ2mxA0hnWxQ4bAXsqKY8hggBhCPKIOAoQ8FiOLhbwkd2bO7DflrS2aso2ZAfIpXa1kU0yjpI9bXm3KSMSxfDwQHxmpHLZ76b8Yz1hD348nQYS9oWj9HO2ilBZTF6dDgDjta2rFhnEMyjAwSWRKxvnCB4qevehc73rucCiLxIBWvJQdzoDVAq2t2WBVjUi1VTxDhQhXOEeK85PYOCpJTMTlm3toYWpEPNbllGDlLf8z2avWb6A8AzMfh5MAST_wwRHpAuIXtutNLww7OEt38RQiGxRBbc8yaiYCB7asVhV6CLEIMebIYqwvMsFc5oeOyyKXgHvfpTpM7VpgyLkdQLXC1z5i19XbJAOfxQfG2KtuevfLbIjDHxO5cMivKXixQTA1vKAJNYCjOXxbkLHiwri566rC5wZiOQVmXdVBSuaAZCZq-Ke0IA_00zHM-baeUwVgWkomnaOAMEGqaYk28YczvOYV8RIutcQwpuEdgc5ZHtS6PDnFlgZ4T42_Lkrt0P-20ZdKk_O-YmMtI1b_Hk3xwajeDnnRIFK_pHYBpzGg6P314F1x30B5_euZ1oAKi61T31UvxVBvazItgF-oPSmVaW5qRNGpTrgCHVTxO5_V-eNL2caO38k-hVCFLzDebha-ZeNeB-Lw_KDms3yQ1_X2mQXoKdfJhCcSd3PBILDzHzI59t5kDBpJ_0000]--></g></svg>