<?xml version="1.0" encoding="us-ascii" standalone="no"?><svg xmlns="http://www.w3.org/2000/svg" xmlns:xlink="http://www.w3.org/1999/xlink" contentStyleType="text/css" height="757px" preserveAspectRatio="none" style="width:957px;height:757px;background:#FFFFFF;" version="1.1" viewBox="0 0 957 757" width="957px" zoomAndPan="magnify"><defs/><g><text fill="#000000" font-family="sans-serif" font-size="14" font-weight="bold" lengthAdjust="spacing" textLength="314" x="314.5" y="25.1074">Class Diagram - US310 Create Show Proposal</text><!--class CreateShowProposalUI--><g id="elem_CreateShowProposalUI"><rect codeLine="4" fill="#F1F1F1" height="66.6211" id="CreateShowProposalUI" rx="2.5" ry="2.5" style="stroke:#181818;stroke-width:0.5;" width="177" x="399.5" y="46.6211"/><ellipse cx="414.5" cy="62.6211" fill="#ADD1B2" rx="11" ry="11" style="stroke:#181818;stroke-width:1.0;"/><path d="M417.2656,58.4961 Q417.4219,58.2773 417.6094,58.168 Q417.7969,58.0586 418.0156,58.0586 Q418.3906,58.0586 418.625,58.3242 Q418.8594,58.5742 418.8594,59.1836 L418.8594,60.6367 Q418.8594,61.2461 418.625,61.5117 Q418.3906,61.7773 418.0156,61.7773 Q417.6719,61.7773 417.4688,61.5742 Q417.2656,61.3867 417.1563,60.8711 Q417.1094,60.5117 416.9219,60.3242 Q416.5938,59.9492 415.9844,59.7305 Q415.375,59.5117 414.75,59.5117 Q413.9844,59.5117 413.3438,59.8398 Q412.7188,60.168 412.2188,60.918 Q411.7344,61.668 411.7344,62.6992 L411.7344,63.793 Q411.7344,65.0273 412.625,65.8555 Q413.5156,66.668 415.1094,66.668 Q416.0469,66.668 416.7031,66.418 Q417.0938,66.2617 417.5156,65.8242 Q417.7813,65.5586 417.9219,65.4805 Q418.0781,65.4023 418.2813,65.4023 Q418.6094,65.4023 418.8594,65.668 Q419.125,65.918 419.125,66.2617 Q419.125,66.6055 418.7813,67.0117 Q418.2813,67.5898 417.4844,67.918 Q416.4063,68.3711 415.1094,68.3711 Q413.5938,68.3711 412.3906,67.7461 Q411.4063,67.2461 410.7188,66.1836 Q410.0313,65.1055 410.0313,63.8242 L410.0313,62.668 Q410.0313,61.3398 410.6406,60.1992 Q411.2656,59.043 412.3594,58.4336 Q413.4531,57.8086 414.6875,57.8086 Q415.4219,57.8086 416.0625,57.9805 Q416.7188,58.1367 417.2656,58.4961 Z " fill="#000000"/><text fill="#000000" font-family="sans-serif" font-size="14" lengthAdjust="spacing" textLength="145" x="428.5" y="68.418">CreateShowProposalUI</text><line style="stroke:#181818;stroke-width:0.5;" x1="400.5" x2="575.5" y1="78.6211" y2="78.6211"/><line style="stroke:#181818;stroke-width:0.5;" x1="400.5" x2="575.5" y1="86.6211" y2="86.6211"/><ellipse cx="410.5" cy="101.4316" fill="#84BE84" rx="3" ry="3" style="stroke:#038048;stroke-width:1.0;"/><text fill="#000000" font-family="sans-serif" font-size="14" lengthAdjust="spacing" textLength="123" x="419.5" y="105.7285">doShow() : boolean</text></g><!--class CreateShowProposalController--><g id="elem_CreateShowProposalController"><rect codeLine="8" fill="#F1F1F1" height="85.2422" id="CreateShowProposalController" rx="2.5" ry="2.5" style="stroke:#181818;stroke-width:0.5;" width="270" x="353" y="173.6211"/><ellipse cx="387.35" cy="189.6211" fill="#ADD1B2" rx="11" ry="11" style="stroke:#181818;stroke-width:1.0;"/><path d="M390.1156,185.4961 Q390.2719,185.2773 390.4594,185.168 Q390.6469,185.0586 390.8656,185.0586 Q391.2406,185.0586 391.475,185.3242 Q391.7094,185.5742 391.7094,186.1836 L391.7094,187.6367 Q391.7094,188.2461 391.475,188.5117 Q391.2406,188.7773 390.8656,188.7773 Q390.5219,188.7773 390.3188,188.5742 Q390.1156,188.3867 390.0063,187.8711 Q389.9594,187.5117 389.7719,187.3242 Q389.4438,186.9492 388.8344,186.7305 Q388.225,186.5117 387.6,186.5117 Q386.8344,186.5117 386.1938,186.8398 Q385.5688,187.168 385.0688,187.918 Q384.5844,188.668 384.5844,189.6992 L384.5844,190.793 Q384.5844,192.0273 385.475,192.8555 Q386.3656,193.668 387.9594,193.668 Q388.8969,193.668 389.5531,193.418 Q389.9438,193.2617 390.3656,192.8242 Q390.6313,192.5586 390.7719,192.4805 Q390.9281,192.4023 391.1313,192.4023 Q391.4594,192.4023 391.7094,192.668 Q391.975,192.918 391.975,193.2617 Q391.975,193.6055 391.6313,194.0117 Q391.1313,194.5898 390.3344,194.918 Q389.2563,195.3711 387.9594,195.3711 Q386.4438,195.3711 385.2406,194.7461 Q384.2563,194.2461 383.5688,193.1836 Q382.8813,192.1055 382.8813,190.8242 L382.8813,189.668 Q382.8813,188.3398 383.4906,187.1992 Q384.1156,186.043 385.2094,185.4336 Q386.3031,184.8086 387.5375,184.8086 Q388.2719,184.8086 388.9125,184.9805 Q389.5688,185.1367 390.1156,185.4961 Z " fill="#000000"/><text fill="#000000" font-family="sans-serif" font-size="14" lengthAdjust="spacing" textLength="195" x="405.65" y="195.418">CreateShowProposalController</text><line style="stroke:#181818;stroke-width:0.5;" x1="354" x2="622" y1="205.6211" y2="205.6211"/><line style="stroke:#181818;stroke-width:0.5;" x1="354" x2="622" y1="213.6211" y2="213.6211"/><ellipse cx="364" cy="228.4316" fill="#84BE84" rx="3" ry="3" style="stroke:#038048;stroke-width:1.0;"/><text fill="#000000" font-family="sans-serif" font-size="14" lengthAdjust="spacing" textLength="244" x="373" y="232.7285">addShowProposal(ShowProposalDTO)</text><ellipse cx="364" cy="247.0527" fill="#84BE84" rx="3" ry="3" style="stroke:#038048;stroke-width:1.0;"/><text fill="#000000" font-family="sans-serif" font-size="14" lengthAdjust="spacing" textLength="234" x="373" y="251.3496">findAllUsers() : Iterable&lt;SystemUser&gt;</text></g><!--class ShowProposalService--><g id="elem_ShowProposalService"><rect codeLine="13" fill="#F1F1F1" height="66.6211" id="ShowProposalService" rx="2.5" ry="2.5" style="stroke:#181818;stroke-width:0.5;" width="290" x="7" y="337.1211"/><ellipse cx="79.25" cy="353.1211" fill="#ADD1B2" rx="11" ry="11" style="stroke:#181818;stroke-width:1.0;"/><path d="M82.0156,348.9961 Q82.1719,348.7773 82.3594,348.668 Q82.5469,348.5586 82.7656,348.5586 Q83.1406,348.5586 83.375,348.8242 Q83.6094,349.0742 83.6094,349.6836 L83.6094,351.1367 Q83.6094,351.7461 83.375,352.0117 Q83.1406,352.2773 82.7656,352.2773 Q82.4219,352.2773 82.2188,352.0742 Q82.0156,351.8867 81.9063,351.3711 Q81.8594,351.0117 81.6719,350.8242 Q81.3438,350.4492 80.7344,350.2305 Q80.125,350.0117 79.5,350.0117 Q78.7344,350.0117 78.0938,350.3398 Q77.4688,350.668 76.9688,351.418 Q76.4844,352.168 76.4844,353.1992 L76.4844,354.293 Q76.4844,355.5273 77.375,356.3555 Q78.2656,357.168 79.8594,357.168 Q80.7969,357.168 81.4531,356.918 Q81.8438,356.7617 82.2656,356.3242 Q82.5313,356.0586 82.6719,355.9805 Q82.8281,355.9023 83.0313,355.9023 Q83.3594,355.9023 83.6094,356.168 Q83.875,356.418 83.875,356.7617 Q83.875,357.1055 83.5313,357.5117 Q83.0313,358.0898 82.2344,358.418 Q81.1563,358.8711 79.8594,358.8711 Q78.3438,358.8711 77.1406,358.2461 Q76.1563,357.7461 75.4688,356.6836 Q74.7813,355.6055 74.7813,354.3242 L74.7813,353.168 Q74.7813,351.8398 75.3906,350.6992 Q76.0156,349.543 77.1094,348.9336 Q78.2031,348.3086 79.4375,348.3086 Q80.1719,348.3086 80.8125,348.4805 Q81.4688,348.6367 82.0156,348.9961 Z " fill="#000000"/><text fill="#000000" font-family="sans-serif" font-size="14" lengthAdjust="spacing" textLength="137" x="99.75" y="358.918">ShowProposalService</text><line style="stroke:#181818;stroke-width:0.5;" x1="8" x2="296" y1="369.1211" y2="369.1211"/><line style="stroke:#181818;stroke-width:0.5;" x1="8" x2="296" y1="377.1211" y2="377.1211"/><ellipse cx="18" cy="391.9316" fill="#84BE84" rx="3" ry="3" style="stroke:#038048;stroke-width:1.0;"/><text fill="#000000" font-family="sans-serif" font-size="14" lengthAdjust="spacing" textLength="264" x="27" y="396.2285">registerNewShowProposal(ShowProposal)</text></g><!--class ShowProposalRepository--><g id="elem_ShowProposalRepository"><rect codeLine="17" fill="#F1F1F1" height="103.8633" id="ShowProposalRepository" rx="2.5" ry="2.5" style="stroke:#181818;stroke-width:0.5;" width="245" x="29.5" y="482.6211"/><ellipse cx="69.25" cy="498.6211" fill="#ADD1B2" rx="11" ry="11" style="stroke:#181818;stroke-width:1.0;"/><path d="M72.0156,494.4961 Q72.1719,494.2773 72.3594,494.168 Q72.5469,494.0586 72.7656,494.0586 Q73.1406,494.0586 73.375,494.3242 Q73.6094,494.5742 73.6094,495.1836 L73.6094,496.6367 Q73.6094,497.2461 73.375,497.5117 Q73.1406,497.7773 72.7656,497.7773 Q72.4219,497.7773 72.2188,497.5742 Q72.0156,497.3867 71.9063,496.8711 Q71.8594,496.5117 71.6719,496.3242 Q71.3438,495.9492 70.7344,495.7305 Q70.125,495.5117 69.5,495.5117 Q68.7344,495.5117 68.0938,495.8398 Q67.4688,496.168 66.9688,496.918 Q66.4844,497.668 66.4844,498.6992 L66.4844,499.793 Q66.4844,501.0273 67.375,501.8555 Q68.2656,502.668 69.8594,502.668 Q70.7969,502.668 71.4531,502.418 Q71.8438,502.2617 72.2656,501.8242 Q72.5313,501.5586 72.6719,501.4805 Q72.8281,501.4023 73.0313,501.4023 Q73.3594,501.4023 73.6094,501.668 Q73.875,501.918 73.875,502.2617 Q73.875,502.6055 73.5313,503.0117 Q73.0313,503.5898 72.2344,503.918 Q71.1563,504.3711 69.8594,504.3711 Q68.3438,504.3711 67.1406,503.7461 Q66.1563,503.2461 65.4688,502.1836 Q64.7813,501.1055 64.7813,499.8242 L64.7813,498.668 Q64.7813,497.3398 65.3906,496.1992 Q66.0156,495.043 67.1094,494.4336 Q68.2031,493.8086 69.4375,493.8086 Q70.1719,493.8086 70.8125,493.9805 Q71.4688,494.1367 72.0156,494.4961 Z " fill="#000000"/><text fill="#000000" font-family="sans-serif" font-size="14" lengthAdjust="spacing" textLength="158" x="88.75" y="504.418">ShowProposalRepository</text><line style="stroke:#181818;stroke-width:0.5;" x1="30.5" x2="273.5" y1="514.6211" y2="514.6211"/><line style="stroke:#181818;stroke-width:0.5;" x1="30.5" x2="273.5" y1="522.6211" y2="522.6211"/><ellipse cx="40.5" cy="537.4316" fill="#84BE84" rx="3" ry="3" style="stroke:#038048;stroke-width:1.0;"/><text fill="#000000" font-family="sans-serif" font-size="14" lengthAdjust="spacing" textLength="130" x="49.5" y="541.7285">save(ShowProposal)</text><ellipse cx="40.5" cy="556.0527" fill="#84BE84" rx="3" ry="3" style="stroke:#038048;stroke-width:1.0;"/><text fill="#000000" font-family="sans-serif" font-size="14" lengthAdjust="spacing" textLength="219" x="49.5" y="560.3496">findByStatus(ShowProposalStatus)</text><ellipse cx="40.5" cy="574.6738" fill="#84BE84" rx="3" ry="3" style="stroke:#038048;stroke-width:1.0;"/><text fill="#000000" font-family="sans-serif" font-size="14" lengthAdjust="spacing" textLength="69" x="49.5" y="578.9707">findMaxId()</text></g><!--class ShowProposal--><g id="elem_ShowProposal"><rect codeLine="23" fill="#F1F1F1" height="103.8633" id="ShowProposal" rx="2.5" ry="2.5" style="stroke:#181818;stroke-width:0.5;" width="210" x="390" y="482.6211"/><ellipse cx="445.75" cy="498.6211" fill="#ADD1B2" rx="11" ry="11" style="stroke:#181818;stroke-width:1.0;"/><path d="M448.5156,494.4961 Q448.6719,494.2773 448.8594,494.168 Q449.0469,494.0586 449.2656,494.0586 Q449.6406,494.0586 449.875,494.3242 Q450.1094,494.5742 450.1094,495.1836 L450.1094,496.6367 Q450.1094,497.2461 449.875,497.5117 Q449.6406,497.7773 449.2656,497.7773 Q448.9219,497.7773 448.7188,497.5742 Q448.5156,497.3867 448.4063,496.8711 Q448.3594,496.5117 448.1719,496.3242 Q447.8438,495.9492 447.2344,495.7305 Q446.625,495.5117 446,495.5117 Q445.2344,495.5117 444.5938,495.8398 Q443.9688,496.168 443.4688,496.918 Q442.9844,497.668 442.9844,498.6992 L442.9844,499.793 Q442.9844,501.0273 443.875,501.8555 Q444.7656,502.668 446.3594,502.668 Q447.2969,502.668 447.9531,502.418 Q448.3438,502.2617 448.7656,501.8242 Q449.0313,501.5586 449.1719,501.4805 Q449.3281,501.4023 449.5313,501.4023 Q449.8594,501.4023 450.1094,501.668 Q450.375,501.918 450.375,502.2617 Q450.375,502.6055 450.0313,503.0117 Q449.5313,503.5898 448.7344,503.918 Q447.6563,504.3711 446.3594,504.3711 Q444.8438,504.3711 443.6406,503.7461 Q442.6563,503.2461 441.9688,502.1836 Q441.2813,501.1055 441.2813,499.8242 L441.2813,498.668 Q441.2813,497.3398 441.8906,496.1992 Q442.5156,495.043 443.6094,494.4336 Q444.7031,493.8086 445.9375,493.8086 Q446.6719,493.8086 447.3125,493.9805 Q447.9688,494.1367 448.5156,494.4961 Z " fill="#000000"/><text fill="#000000" font-family="sans-serif" font-size="14" lengthAdjust="spacing" textLength="90" x="466.25" y="504.418">ShowProposal</text><line style="stroke:#181818;stroke-width:0.5;" x1="391" x2="599" y1="514.6211" y2="514.6211"/><rect fill="none" height="6" style="stroke:#C82930;stroke-width:1.0;" width="6" x="398" y="526.4316"/><text fill="#000000" font-family="sans-serif" font-size="14" lengthAdjust="spacing" textLength="126" x="410" y="533.7285">id : ShowProposalID</text><rect fill="none" height="6" style="stroke:#C82930;stroke-width:1.0;" width="6" x="398" y="545.0527"/><text fill="#000000" font-family="sans-serif" font-size="14" lengthAdjust="spacing" textLength="180" x="410" y="552.3496">status : ShowProposalStatus</text><rect fill="none" height="6" style="stroke:#C82930;stroke-width:1.0;" width="6" x="398" y="563.6738"/><text fill="#000000" font-family="sans-serif" font-size="14" lengthAdjust="spacing" textLength="184" x="410" y="570.9707">showRequest : ShowRequest</text><line style="stroke:#181818;stroke-width:0.5;" x1="391" x2="599" y1="578.4844" y2="578.4844"/></g><!--class ShowRequest--><g id="elem_ShowRequest"><rect codeLine="29" fill="#F1F1F1" height="103.8633" id="ShowRequest" rx="2.5" ry="2.5" style="stroke:#181818;stroke-width:0.5;" width="119" x="273.5" y="646.6211"/><ellipse cx="288.5" cy="662.6211" fill="#ADD1B2" rx="11" ry="11" style="stroke:#181818;stroke-width:1.0;"/><path d="M291.2656,658.4961 Q291.4219,658.2773 291.6094,658.168 Q291.7969,658.0586 292.0156,658.0586 Q292.3906,658.0586 292.625,658.3242 Q292.8594,658.5742 292.8594,659.1836 L292.8594,660.6367 Q292.8594,661.2461 292.625,661.5117 Q292.3906,661.7773 292.0156,661.7773 Q291.6719,661.7773 291.4688,661.5742 Q291.2656,661.3867 291.1563,660.8711 Q291.1094,660.5117 290.9219,660.3242 Q290.5938,659.9492 289.9844,659.7305 Q289.375,659.5117 288.75,659.5117 Q287.9844,659.5117 287.3438,659.8398 Q286.7188,660.168 286.2188,660.918 Q285.7344,661.668 285.7344,662.6992 L285.7344,663.793 Q285.7344,665.0273 286.625,665.8555 Q287.5156,666.668 289.1094,666.668 Q290.0469,666.668 290.7031,666.418 Q291.0938,666.2617 291.5156,665.8242 Q291.7813,665.5586 291.9219,665.4805 Q292.0781,665.4023 292.2813,665.4023 Q292.6094,665.4023 292.8594,665.668 Q293.125,665.918 293.125,666.2617 Q293.125,666.6055 292.7813,667.0117 Q292.2813,667.5898 291.4844,667.918 Q290.4063,668.3711 289.1094,668.3711 Q287.5938,668.3711 286.3906,667.7461 Q285.4063,667.2461 284.7188,666.1836 Q284.0313,665.1055 284.0313,663.8242 L284.0313,662.668 Q284.0313,661.3398 284.6406,660.1992 Q285.2656,659.043 286.3594,658.4336 Q287.4531,657.8086 288.6875,657.8086 Q289.4219,657.8086 290.0625,657.9805 Q290.7188,658.1367 291.2656,658.4961 Z " fill="#000000"/><text fill="#000000" font-family="sans-serif" font-size="14" lengthAdjust="spacing" textLength="87" x="302.5" y="668.418">ShowRequest</text><line style="stroke:#181818;stroke-width:0.5;" x1="274.5" x2="391.5" y1="678.6211" y2="678.6211"/><line style="stroke:#181818;stroke-width:0.5;" x1="274.5" x2="391.5" y1="686.6211" y2="686.6211"/><ellipse cx="284.5" cy="701.4316" fill="#84BE84" rx="3" ry="3" style="stroke:#038048;stroke-width:1.0;"/><text fill="#000000" font-family="sans-serif" font-size="14" lengthAdjust="spacing" textLength="55" x="293.5" y="705.7285">identity()</text><ellipse cx="284.5" cy="720.0527" fill="#84BE84" rx="3" ry="3" style="stroke:#038048;stroke-width:1.0;"/><text fill="#000000" font-family="sans-serif" font-size="14" lengthAdjust="spacing" textLength="68" x="293.5" y="724.3496">customer()</text><ellipse cx="284.5" cy="738.6738" fill="#84BE84" rx="3" ry="3" style="stroke:#038048;stroke-width:1.0;"/><text fill="#000000" font-family="sans-serif" font-size="14" lengthAdjust="spacing" textLength="48" x="293.5" y="742.9707">status()</text></g><!--class ShowProposalID--><g id="elem_ShowProposalID"><rect codeLine="35" fill="#F1F1F1" height="48" id="ShowProposalID" rx="2.5" ry="2.5" style="stroke:#181818;stroke-width:0.5;" width="135" x="427.5" y="674.6211"/><ellipse cx="442.5" cy="690.6211" fill="#ADD1B2" rx="11" ry="11" style="stroke:#181818;stroke-width:1.0;"/><path d="M445.2656,686.4961 Q445.4219,686.2773 445.6094,686.168 Q445.7969,686.0586 446.0156,686.0586 Q446.3906,686.0586 446.625,686.3242 Q446.8594,686.5742 446.8594,687.1836 L446.8594,688.6367 Q446.8594,689.2461 446.625,689.5117 Q446.3906,689.7773 446.0156,689.7773 Q445.6719,689.7773 445.4688,689.5742 Q445.2656,689.3867 445.1563,688.8711 Q445.1094,688.5117 444.9219,688.3242 Q444.5938,687.9492 443.9844,687.7305 Q443.375,687.5117 442.75,687.5117 Q441.9844,687.5117 441.3438,687.8398 Q440.7188,688.168 440.2188,688.918 Q439.7344,689.668 439.7344,690.6992 L439.7344,691.793 Q439.7344,693.0273 440.625,693.8555 Q441.5156,694.668 443.1094,694.668 Q444.0469,694.668 444.7031,694.418 Q445.0938,694.2617 445.5156,693.8242 Q445.7813,693.5586 445.9219,693.4805 Q446.0781,693.4023 446.2813,693.4023 Q446.6094,693.4023 446.8594,693.668 Q447.125,693.918 447.125,694.2617 Q447.125,694.6055 446.7813,695.0117 Q446.2813,695.5898 445.4844,695.918 Q444.4063,696.3711 443.1094,696.3711 Q441.5938,696.3711 440.3906,695.7461 Q439.4063,695.2461 438.7188,694.1836 Q438.0313,693.1055 438.0313,691.8242 L438.0313,690.668 Q438.0313,689.3398 438.6406,688.1992 Q439.2656,687.043 440.3594,686.4336 Q441.4531,685.8086 442.6875,685.8086 Q443.4219,685.8086 444.0625,685.9805 Q444.7188,686.1367 445.2656,686.4961 Z " fill="#000000"/><text fill="#000000" font-family="sans-serif" font-size="14" lengthAdjust="spacing" textLength="103" x="456.5" y="696.418">ShowProposalID</text><line style="stroke:#181818;stroke-width:0.5;" x1="428.5" x2="561.5" y1="706.6211" y2="706.6211"/><line style="stroke:#181818;stroke-width:0.5;" x1="428.5" x2="561.5" y1="714.6211" y2="714.6211"/></g><!--class ShowProposalStatus--><g id="elem_ShowProposalStatus"><rect codeLine="36" fill="#F1F1F1" height="48" id="ShowProposalStatus" rx="2.5" ry="2.5" style="stroke:#181818;stroke-width:0.5;" width="162" x="598" y="674.6211"/><ellipse cx="613" cy="690.6211" fill="#ADD1B2" rx="11" ry="11" style="stroke:#181818;stroke-width:1.0;"/><path d="M615.7656,686.4961 Q615.9219,686.2773 616.1094,686.168 Q616.2969,686.0586 616.5156,686.0586 Q616.8906,686.0586 617.125,686.3242 Q617.3594,686.5742 617.3594,687.1836 L617.3594,688.6367 Q617.3594,689.2461 617.125,689.5117 Q616.8906,689.7773 616.5156,689.7773 Q616.1719,689.7773 615.9688,689.5742 Q615.7656,689.3867 615.6563,688.8711 Q615.6094,688.5117 615.4219,688.3242 Q615.0938,687.9492 614.4844,687.7305 Q613.875,687.5117 613.25,687.5117 Q612.4844,687.5117 611.8438,687.8398 Q611.2188,688.168 610.7188,688.918 Q610.2344,689.668 610.2344,690.6992 L610.2344,691.793 Q610.2344,693.0273 611.125,693.8555 Q612.0156,694.668 613.6094,694.668 Q614.5469,694.668 615.2031,694.418 Q615.5938,694.2617 616.0156,693.8242 Q616.2813,693.5586 616.4219,693.4805 Q616.5781,693.4023 616.7813,693.4023 Q617.1094,693.4023 617.3594,693.668 Q617.625,693.918 617.625,694.2617 Q617.625,694.6055 617.2813,695.0117 Q616.7813,695.5898 615.9844,695.918 Q614.9063,696.3711 613.6094,696.3711 Q612.0938,696.3711 610.8906,695.7461 Q609.9063,695.2461 609.2188,694.1836 Q608.5313,693.1055 608.5313,691.8242 L608.5313,690.668 Q608.5313,689.3398 609.1406,688.1992 Q609.7656,687.043 610.8594,686.4336 Q611.9531,685.8086 613.1875,685.8086 Q613.9219,685.8086 614.5625,685.9805 Q615.2188,686.1367 615.7656,686.4961 Z " fill="#000000"/><text fill="#000000" font-family="sans-serif" font-size="14" lengthAdjust="spacing" textLength="130" x="627" y="696.418">ShowProposalStatus</text><line style="stroke:#181818;stroke-width:0.5;" x1="599" x2="759" y1="706.6211" y2="706.6211"/><line style="stroke:#181818;stroke-width:0.5;" x1="599" x2="759" y1="714.6211" y2="714.6211"/></g><!--class AuthorizationService--><g id="elem_AuthorizationService"><rect codeLine="37" fill="#F1F1F1" height="48" id="AuthorizationService" rx="2.5" ry="2.5" style="stroke:#181818;stroke-width:0.5;" width="161" x="332.5" y="346.6211"/><ellipse cx="347.5" cy="362.6211" fill="#ADD1B2" rx="11" ry="11" style="stroke:#181818;stroke-width:1.0;"/><path d="M350.2656,358.4961 Q350.4219,358.2773 350.6094,358.168 Q350.7969,358.0586 351.0156,358.0586 Q351.3906,358.0586 351.625,358.3242 Q351.8594,358.5742 351.8594,359.1836 L351.8594,360.6367 Q351.8594,361.2461 351.625,361.5117 Q351.3906,361.7773 351.0156,361.7773 Q350.6719,361.7773 350.4688,361.5742 Q350.2656,361.3867 350.1563,360.8711 Q350.1094,360.5117 349.9219,360.3242 Q349.5938,359.9492 348.9844,359.7305 Q348.375,359.5117 347.75,359.5117 Q346.9844,359.5117 346.3438,359.8398 Q345.7188,360.168 345.2188,360.918 Q344.7344,361.668 344.7344,362.6992 L344.7344,363.793 Q344.7344,365.0273 345.625,365.8555 Q346.5156,366.668 348.1094,366.668 Q349.0469,366.668 349.7031,366.418 Q350.0938,366.2617 350.5156,365.8242 Q350.7813,365.5586 350.9219,365.4805 Q351.0781,365.4023 351.2813,365.4023 Q351.6094,365.4023 351.8594,365.668 Q352.125,365.918 352.125,366.2617 Q352.125,366.6055 351.7813,367.0117 Q351.2813,367.5898 350.4844,367.918 Q349.4063,368.3711 348.1094,368.3711 Q346.5938,368.3711 345.3906,367.7461 Q344.4063,367.2461 343.7188,366.1836 Q343.0313,365.1055 343.0313,363.8242 L343.0313,362.668 Q343.0313,361.3398 343.6406,360.1992 Q344.2656,359.043 345.3594,358.4336 Q346.4531,357.8086 347.6875,357.8086 Q348.4219,357.8086 349.0625,357.9805 Q349.7188,358.1367 350.2656,358.4961 Z " fill="#000000"/><text fill="#000000" font-family="sans-serif" font-size="14" lengthAdjust="spacing" textLength="129" x="361.5" y="368.418">AuthorizationService</text><line style="stroke:#181818;stroke-width:0.5;" x1="333.5" x2="492.5" y1="378.6211" y2="378.6211"/><line style="stroke:#181818;stroke-width:0.5;" x1="333.5" x2="492.5" y1="386.6211" y2="386.6211"/></g><!--class Roles--><g id="elem_Roles"><rect codeLine="38" fill="#F1F1F1" height="48" id="Roles" rx="2.5" ry="2.5" style="stroke:#181818;stroke-width:0.5;" width="68" x="529" y="346.6211"/><ellipse cx="544" cy="362.6211" fill="#ADD1B2" rx="11" ry="11" style="stroke:#181818;stroke-width:1.0;"/><path d="M546.7656,358.4961 Q546.9219,358.2773 547.1094,358.168 Q547.2969,358.0586 547.5156,358.0586 Q547.8906,358.0586 548.125,358.3242 Q548.3594,358.5742 548.3594,359.1836 L548.3594,360.6367 Q548.3594,361.2461 548.125,361.5117 Q547.8906,361.7773 547.5156,361.7773 Q547.1719,361.7773 546.9688,361.5742 Q546.7656,361.3867 546.6563,360.8711 Q546.6094,360.5117 546.4219,360.3242 Q546.0938,359.9492 545.4844,359.7305 Q544.875,359.5117 544.25,359.5117 Q543.4844,359.5117 542.8438,359.8398 Q542.2188,360.168 541.7188,360.918 Q541.2344,361.668 541.2344,362.6992 L541.2344,363.793 Q541.2344,365.0273 542.125,365.8555 Q543.0156,366.668 544.6094,366.668 Q545.5469,366.668 546.2031,366.418 Q546.5938,366.2617 547.0156,365.8242 Q547.2813,365.5586 547.4219,365.4805 Q547.5781,365.4023 547.7813,365.4023 Q548.1094,365.4023 548.3594,365.668 Q548.625,365.918 548.625,366.2617 Q548.625,366.6055 548.2813,367.0117 Q547.7813,367.5898 546.9844,367.918 Q545.9063,368.3711 544.6094,368.3711 Q543.0938,368.3711 541.8906,367.7461 Q540.9063,367.2461 540.2188,366.1836 Q539.5313,365.1055 539.5313,363.8242 L539.5313,362.668 Q539.5313,361.3398 540.1406,360.1992 Q540.7656,359.043 541.8594,358.4336 Q542.9531,357.8086 544.1875,357.8086 Q544.9219,357.8086 545.5625,357.9805 Q546.2188,358.1367 546.7656,358.4961 Z " fill="#000000"/><text fill="#000000" font-family="sans-serif" font-size="14" lengthAdjust="spacing" textLength="36" x="558" y="368.418">Roles</text><line style="stroke:#181818;stroke-width:0.5;" x1="530" x2="596" y1="378.6211" y2="378.6211"/><line style="stroke:#181818;stroke-width:0.5;" x1="530" x2="596" y1="386.6211" y2="386.6211"/></g><!--class ShowProposalDTO--><g id="elem_ShowProposalDTO"><rect codeLine="40" fill="#F1F1F1" height="66.6211" id="ShowProposalDTO" rx="2.5" ry="2.5" style="stroke:#181818;stroke-width:0.5;" width="152" x="715" y="501.1211"/><ellipse cx="730" cy="517.1211" fill="#ADD1B2" rx="11" ry="11" style="stroke:#181818;stroke-width:1.0;"/><path d="M732.7656,512.9961 Q732.9219,512.7773 733.1094,512.668 Q733.2969,512.5586 733.5156,512.5586 Q733.8906,512.5586 734.125,512.8242 Q734.3594,513.0742 734.3594,513.6836 L734.3594,515.1367 Q734.3594,515.7461 734.125,516.0117 Q733.8906,516.2773 733.5156,516.2773 Q733.1719,516.2773 732.9688,516.0742 Q732.7656,515.8867 732.6563,515.3711 Q732.6094,515.0117 732.4219,514.8242 Q732.0938,514.4492 731.4844,514.2305 Q730.875,514.0117 730.25,514.0117 Q729.4844,514.0117 728.8438,514.3398 Q728.2188,514.668 727.7188,515.418 Q727.2344,516.168 727.2344,517.1992 L727.2344,518.293 Q727.2344,519.5273 728.125,520.3555 Q729.0156,521.168 730.6094,521.168 Q731.5469,521.168 732.2031,520.918 Q732.5938,520.7617 733.0156,520.3242 Q733.2813,520.0586 733.4219,519.9805 Q733.5781,519.9023 733.7813,519.9023 Q734.1094,519.9023 734.3594,520.168 Q734.625,520.418 734.625,520.7617 Q734.625,521.1055 734.2813,521.5117 Q733.7813,522.0898 732.9844,522.418 Q731.9063,522.8711 730.6094,522.8711 Q729.0938,522.8711 727.8906,522.2461 Q726.9063,521.7461 726.2188,520.6836 Q725.5313,519.6055 725.5313,518.3242 L725.5313,517.168 Q725.5313,515.8398 726.1406,514.6992 Q726.7656,513.543 727.8594,512.9336 Q728.9531,512.3086 730.1875,512.3086 Q730.9219,512.3086 731.5625,512.4805 Q732.2188,512.6367 732.7656,512.9961 Z " fill="#000000"/><text fill="#000000" font-family="sans-serif" font-size="14" lengthAdjust="spacing" textLength="120" x="744" y="522.918">ShowProposalDTO</text><line style="stroke:#181818;stroke-width:0.5;" x1="716" x2="866" y1="533.1211" y2="533.1211"/><rect fill="none" height="6" style="stroke:#C82930;stroke-width:1.0;" width="6" x="723" y="544.9316"/><text fill="#000000" font-family="sans-serif" font-size="14" lengthAdjust="spacing" textLength="108" x="735" y="552.2285">requestId : String</text><line style="stroke:#181818;stroke-width:0.5;" x1="716" x2="866" y1="559.7422" y2="559.7422"/></g><!--class ShowProposalParser--><g id="elem_ShowProposalParser"><rect codeLine="44" fill="#F1F1F1" height="103.8633" id="ShowProposalParser" rx="2.5" ry="2.5" style="stroke:#181818;stroke-width:0.5;" width="318" x="632" y="318.6211"/><ellipse cx="720.75" cy="334.6211" fill="#ADD1B2" rx="11" ry="11" style="stroke:#181818;stroke-width:1.0;"/><path d="M723.5156,330.4961 Q723.6719,330.2773 723.8594,330.168 Q724.0469,330.0586 724.2656,330.0586 Q724.6406,330.0586 724.875,330.3242 Q725.1094,330.5742 725.1094,331.1836 L725.1094,332.6367 Q725.1094,333.2461 724.875,333.5117 Q724.6406,333.7773 724.2656,333.7773 Q723.9219,333.7773 723.7188,333.5742 Q723.5156,333.3867 723.4063,332.8711 Q723.3594,332.5117 723.1719,332.3242 Q722.8438,331.9492 722.2344,331.7305 Q721.625,331.5117 721,331.5117 Q720.2344,331.5117 719.5938,331.8398 Q718.9688,332.168 718.4688,332.918 Q717.9844,333.668 717.9844,334.6992 L717.9844,335.793 Q717.9844,337.0273 718.875,337.8555 Q719.7656,338.668 721.3594,338.668 Q722.2969,338.668 722.9531,338.418 Q723.3438,338.2617 723.7656,337.8242 Q724.0313,337.5586 724.1719,337.4805 Q724.3281,337.4023 724.5313,337.4023 Q724.8594,337.4023 725.1094,337.668 Q725.375,337.918 725.375,338.2617 Q725.375,338.6055 725.0313,339.0117 Q724.5313,339.5898 723.7344,339.918 Q722.6563,340.3711 721.3594,340.3711 Q719.8438,340.3711 718.6406,339.7461 Q717.6563,339.2461 716.9688,338.1836 Q716.2813,337.1055 716.2813,335.8242 L716.2813,334.668 Q716.2813,333.3398 716.8906,332.1992 Q717.5156,331.043 718.6094,330.4336 Q719.7031,329.8086 720.9375,329.8086 Q721.6719,329.8086 722.3125,329.9805 Q722.9688,330.1367 723.5156,330.4961 Z " fill="#000000"/><text fill="#000000" font-family="sans-serif" font-size="14" lengthAdjust="spacing" textLength="132" x="741.25" y="340.418">ShowProposalParser</text><line style="stroke:#181818;stroke-width:0.5;" x1="633" x2="949" y1="350.6211" y2="350.6211"/><rect fill="none" height="6" style="stroke:#C82930;stroke-width:1.0;" width="6" x="640" y="362.4316"/><text fill="#000000" font-family="sans-serif" font-size="14" lengthAdjust="spacing" textLength="292" x="652" y="369.7285">showProposalRepo : ShowProposalRepository</text><rect fill="none" height="6" style="stroke:#C82930;stroke-width:1.0;" width="6" x="640" y="381.0527"/><text fill="#000000" font-family="sans-serif" font-size="14" lengthAdjust="spacing" textLength="286" x="652" y="388.3496">showRequestRepo : ShowRequestRepository</text><line style="stroke:#181818;stroke-width:0.5;" x1="633" x2="949" y1="395.8633" y2="395.8633"/><ellipse cx="643" cy="410.6738" fill="#84BE84" rx="3" ry="3" style="stroke:#038048;stroke-width:1.0;"/><text fill="#000000" font-family="sans-serif" font-size="14" lengthAdjust="spacing" textLength="281" x="652" y="414.9707">valueOf(ShowProposalDTO) : ShowProposal</text></g><!--link CreateShowProposalUI to CreateShowProposalController--><g id="link_CreateShowProposalUI_CreateShowProposalController"><path codeLine="50" d="M488,113.9011 C488,131.8811 488,148.3411 488,167.5411 " fill="none" id="CreateShowProposalUI-to-CreateShowProposalController" style="stroke:#181818;stroke-width:1.0;"/><polygon fill="#181818" points="488,173.5411,492,164.5411,488,168.5411,484,164.5411,488,173.5411" style="stroke:#181818;stroke-width:1.0;"/></g><!--link CreateShowProposalController to ShowProposalService--><g id="link_CreateShowProposalController_ShowProposalService"><path codeLine="51" d="M396.19,258.7911 C341.88,283.4411 279.5636,311.7215 229.1936,334.5815 " fill="none" id="CreateShowProposalController-to-ShowProposalService" style="stroke:#181818;stroke-width:1.0;"/><polygon fill="#181818" points="223.73,337.0611,233.5786,336.9841,228.283,334.9947,230.2724,329.6992,223.73,337.0611" style="stroke:#181818;stroke-width:1.0;"/></g><!--link CreateShowProposalController to AuthorizationService--><g id="link_CreateShowProposalController_AuthorizationService"><path codeLine="52" d="M467.51,258.7911 C453.63,287.0111 438.4589,317.8675 427.0389,341.0775 " fill="none" id="CreateShowProposalController-to-AuthorizationService" style="stroke:#181818;stroke-width:1.0;"/><polygon fill="#181818" points="424.39,346.4611,431.9524,340.1516,426.5974,341.9747,424.7743,336.6197,424.39,346.4611" style="stroke:#181818;stroke-width:1.0;"/></g><!--link CreateShowProposalController to Roles--><g id="link_CreateShowProposalController_Roles"><path codeLine="53" d="M508.49,258.7911 C522.37,287.0111 537.5411,317.8675 548.9611,341.0775 " fill="none" id="CreateShowProposalController-to-Roles" style="stroke:#181818;stroke-width:1.0;"/><polygon fill="#181818" points="551.61,346.4611,551.2257,336.6197,549.4026,341.9747,544.0476,340.1516,551.61,346.4611" style="stroke:#181818;stroke-width:1.0;"/></g><!--link CreateShowProposalController to ShowProposalParser--><g id="link_CreateShowProposalController_ShowProposalParser"><path codeLine="54" d="M570.8,258.7911 C607.42,277.2211 645.4707,296.3734 684.0307,315.7834 " fill="none" id="CreateShowProposalController-to-ShowProposalParser" style="stroke:#181818;stroke-width:1.0;"/><polygon fill="#181818" points="689.39,318.4811,683.1495,310.8616,684.9239,316.233,679.5525,318.0074,689.39,318.4811" style="stroke:#181818;stroke-width:1.0;"/></g><!--link ShowProposalService to ShowProposalRepository--><g id="link_ShowProposalService_ShowProposalRepository"><path codeLine="55" d="M152,404.4011 C152,426.7811 152,450.8711 152,476.3811 " fill="none" id="ShowProposalService-to-ShowProposalRepository" style="stroke:#181818;stroke-width:1.0;"/><polygon fill="#181818" points="152,482.3811,156,473.3811,152,477.3811,148,473.3811,152,482.3811" style="stroke:#181818;stroke-width:1.0;"/></g><!--link ShowProposalService to ShowProposal--><g id="link_ShowProposalService_ShowProposal"><path codeLine="56" d="M221,404.2111 C269.42,427.0811 329.6245,455.5191 384.5145,481.4391 " fill="none" id="ShowProposalService-to-ShowProposal" style="stroke:#181818;stroke-width:1.0;"/><polygon fill="#181818" points="389.94,484.0011,383.5098,476.5411,385.4187,481.8661,380.0937,483.7751,389.94,484.0011" style="stroke:#181818;stroke-width:1.0;"/></g><!--link ShowProposal to ShowProposalID--><g id="link_ShowProposal_ShowProposalID"><path codeLine="57" d="M495,586.8811 C495,616.1711 495,645.4911 495,668.2411 " fill="none" id="ShowProposal-to-ShowProposalID" style="stroke:#181818;stroke-width:1.0;"/><polygon fill="#181818" points="495,674.2411,499,665.2411,495,669.2411,491,665.2411,495,674.2411" style="stroke:#181818;stroke-width:1.0;"/></g><!--link ShowProposal to ShowProposalStatus--><g id="link_ShowProposal_ShowProposalStatus"><path codeLine="58" d="M552.97,586.6611 C586.46,616.1511 622.4663,647.8467 648.3563,670.6367 " fill="none" id="ShowProposal-to-ShowProposalStatus" style="stroke:#181818;stroke-width:1.0;"/><polygon fill="#181818" points="652.86,674.6011,648.7474,665.652,649.1069,671.2974,643.4615,671.6569,652.86,674.6011" style="stroke:#181818;stroke-width:1.0;"/></g><!--link ShowProposal to ShowRequest--><g id="link_ShowProposal_ShowRequest"><path codeLine="59" d="M443.74,586.8811 C424.74,605.8811 407.4426,623.1785 388.4426,642.1785 " fill="none" id="ShowProposal-to-ShowRequest" style="stroke:#181818;stroke-width:1.0;"/><polygon fill="#181818" points="384.2,646.4211,393.3924,642.8856,387.7355,642.8856,387.7355,637.2287,384.2,646.4211" style="stroke:#181818;stroke-width:1.0;"/></g><!--link ShowProposalParser to ShowProposalDTO--><g id="link_ShowProposalParser_ShowProposalDTO"><path codeLine="60" d="M791,422.8811 C791,448.4611 791,472.6411 791,495.0311 " fill="none" id="ShowProposalParser-to-ShowProposalDTO" style="stroke:#181818;stroke-width:1.0;"/><polygon fill="#181818" points="791,501.0311,795,492.0311,791,496.0311,787,492.0311,791,501.0311" style="stroke:#181818;stroke-width:1.0;"/></g><!--link ShowProposalParser to ShowProposal--><g id="link_ShowProposalParser_ShowProposal"><path codeLine="61" d="M697.75,422.6611 C662.84,441.7611 628.4637,460.5812 593.5537,479.6812 " fill="none" id="ShowProposalParser-to-ShowProposal" style="stroke:#181818;stroke-width:1.0;"/><polygon fill="#181818" points="588.29,482.5611,598.1054,481.7504,592.6764,480.1612,594.2656,474.7322,588.29,482.5611" style="stroke:#181818;stroke-width:1.0;"/></g><!--SRC=[bLFBRi8m4BpdAtmCGf5QzLPLI1GkERGWKZx0a2rOCd6xta3JglzUnmvWWWFq57bdTcUo3n8aWOqarvgD1LyXtx24pRE7-pisGk04B5kh7PkY-b2QooXQMgx3QcYFp5Fs4p7MprKTZNliaIsKai2BwBSxQwGAGYKbeClcUUx3iVyOlqrwDUTT5FbGoha6r5Od9K2-aF2KLPfWKmE3ewXV8WFSYYKuBOILC7nyXLsdPYzSPmRc8qXXvKffleLMNcFqkSg8KwbFK1SwS5xuLvh77L9M816v-Ky_d8xhiBQ5Mf2hRc4JdS5d2PeQJlCwbTfJxA-870eILCNMthBKf3Q0xkNakfmQIu6EEpCE69QqLYY-EGbLDBDee9bP5HsgQgRkMe3EPMexGIYALTZ6bADkriasm9zPgrF7CRQwvN6zo87Qtt9PmkJzR3rRzMk3mKj9ai75OuWkNagT7TZgwqd1_b_DSgFvboCtWoXqUcsgrzXRw2UaCzIiu4MysSOWPtyQWLrgbp6ZleKM_G40]--></g></svg>