<svg xmlns="http://www.w3.org/2000/svg" xmlns:xlink="http://www.w3.org/1999/xlink" contentStyleType="text/css" height="578.4px" preserveAspectRatio="none" style="width:2041px;height:578px;background:#FFFFFF;" version="1.1" viewBox="0 0 2041 578" width="2041.6px" zoomAndPan="magnify"><defs/><g><!--cluster shodrone--><g id="cluster_shodrone"><path d="M6.8,4.8109 L58.6234,4.8109 A3,3 0 0 1 60.6234,6.8109 L66.2234,24.5078 L1663.6,24.5078 A2,2 0 0 1 1665.6,26.5078 L1665.6,571.2109 A2,2 0 0 1 1663.6,573.2109 L6.8,573.2109 A2,2 0 0 1 4.8,571.2109 L4.8,6.8109 A2,2 0 0 1 6.8,4.8109 " fill="#D6EAF8" style="stroke:#000000;stroke-width:1.2000000000000002;"/><line style="stroke:#000000;stroke-width:1.2000000000000002;" x1="4.8" x2="66.2234" y1="24.5078" y2="24.5078"/><text fill="#000000" font-family="sans-serif" font-size="11.2" font-weight="bold" lengthAdjust="spacing" textLength="51.0234" x="8" y="18.4969">shodrone</text></g><!--cluster core--><g id="cluster_core"><path d="M26,40.8109 L50.4578,40.8109 A3,3 0 0 1 52.4578,42.8109 L58.0578,60.5078 L1644.4,60.5078 A2,2 0 0 1 1646.4,62.5078 L1646.4,552.0109 A2,2 0 0 1 1644.4,554.0109 L26,554.0109 A2,2 0 0 1 24,552.0109 L24,42.8109 A2,2 0 0 1 26,40.8109 " fill="#D6EAF8" style="stroke:#000000;stroke-width:1.2000000000000002;"/><line style="stroke:#000000;stroke-width:1.2000000000000002;" x1="24" x2="58.0578" y1="60.5078" y2="60.5078"/><text fill="#000000" font-family="sans-serif" font-size="11.2" font-weight="bold" lengthAdjust="spacing" textLength="23.6578" x="27.2" y="54.4969">core</text></g><!--cluster showproposalmanagement--><g id="cluster_showproposalmanagement"><path d="M661.2,76.8109 L807.0039,76.8109 A3,3 0 0 1 809.0039,78.8109 L814.6039,96.5078 L1625.2,96.5078 A2,2 0 0 1 1627.2,98.5078 L1627.2,376.8109 A2,2 0 0 1 1625.2,378.8109 L661.2,378.8109 A2,2 0 0 1 659.2,376.8109 L659.2,78.8109 A2,2 0 0 1 661.2,76.8109 " fill="#D6EAF8" style="stroke:#000000;stroke-width:1.2000000000000002;"/><line style="stroke:#000000;stroke-width:1.2000000000000002;" x1="659.2" x2="814.6039" y1="96.5078" y2="96.5078"/><text fill="#000000" font-family="sans-serif" font-size="11.2" font-weight="bold" lengthAdjust="spacing" textLength="145.0039" x="662.4" y="90.4969">showproposalmanagement</text></g><!--cluster domain--><g id="cluster_domain"><path d="M680.4,112.8109 L721.0234,112.8109 A3,3 0 0 1 723.0234,114.8109 L728.6234,132.5078 L1606,132.5078 A2,2 0 0 1 1608,134.5078 L1608,357.6109 A2,2 0 0 1 1606,359.6109 L680.4,359.6109 A2,2 0 0 1 678.4,357.6109 L678.4,114.8109 A2,2 0 0 1 680.4,112.8109 " fill="#D6EAF8" style="stroke:#000000;stroke-width:1.2000000000000002;"/><line style="stroke:#000000;stroke-width:1.2000000000000002;" x1="678.4" x2="728.6234" y1="132.5078" y2="132.5078"/><text fill="#000000" font-family="sans-serif" font-size="11.2" font-weight="bold" lengthAdjust="spacing" textLength="39.8234" x="681.6" y="126.4969">domain</text><text fill="#000000" font-family="sans-serif" font-size="11.2" font-style="italic" lengthAdjust="spacing" textLength="64.143" x="1114.3285" y="146.1938">&#171;Aggregate&#187;</text></g><!--cluster droneinventorymanagement--><g id="cluster_droneinventorymanagement"><path d="M45.2,76.8109 L196.6094,76.8109 A3,3 0 0 1 198.6094,78.8109 L204.2094,96.5078 L638,96.5078 A2,2 0 0 1 640,98.5078 L640,532.8109 A2,2 0 0 1 638,534.8109 L45.2,534.8109 A2,2 0 0 1 43.2,532.8109 L43.2,78.8109 A2,2 0 0 1 45.2,76.8109 " fill="#D6EAF8" style="stroke:#000000;stroke-width:1.2000000000000002;"/><line style="stroke:#000000;stroke-width:1.2000000000000002;" x1="43.2" x2="204.2094" y1="96.5078" y2="96.5078"/><text fill="#000000" font-family="sans-serif" font-size="11.2" font-weight="bold" lengthAdjust="spacing" textLength="150.6094" x="46.4" y="90.4969">droneinventorymanagement</text></g><!--cluster domain--><g id="cluster_domain"><path d="M64.4,112.8109 L105.0234,112.8109 A3,3 0 0 1 107.0234,114.8109 L112.6234,132.5078 L618.8,132.5078 A2,2 0 0 1 620.8,134.5078 L620.8,513.6109 A2,2 0 0 1 618.8,515.6109 L64.4,515.6109 A2,2 0 0 1 62.4,513.6109 L62.4,114.8109 A2,2 0 0 1 64.4,112.8109 " fill="#D6EAF8" style="stroke:#000000;stroke-width:1.2000000000000002;"/><line style="stroke:#000000;stroke-width:1.2000000000000002;" x1="62.4" x2="112.6234" y1="132.5078" y2="132.5078"/><text fill="#000000" font-family="sans-serif" font-size="11.2" font-weight="bold" lengthAdjust="spacing" textLength="39.8234" x="65.6" y="126.4969">domain</text><text fill="#000000" font-family="sans-serif" font-size="11.2" font-style="italic" lengthAdjust="spacing" textLength="64.143" x="312.7285" y="146.1938">&#171;Aggregate&#187;</text></g><!--class ShowProposal--><g id="elem_ShowProposal"><rect codeLine="15" fill="#F1F1F1" height="48.4656" id="ShowProposal" rx="2" ry="2" style="stroke:#181818;stroke-width:0.4000000000000001;" width="127.0016" x="1385.2" y="157.6109"/><ellipse cx="1397.2" cy="175.4438" fill="#ADD1B2" rx="8.8" ry="8.8" style="stroke:#181818;stroke-width:0.8000000000000002;"/><path d="M1399.4125,172.1438 Q1399.5375,171.9688 1399.6875,171.8813 Q1399.8375,171.7938 1400.0125,171.7938 Q1400.3125,171.7938 1400.5,172.0063 Q1400.6875,172.2063 1400.6875,172.6938 L1400.6875,173.8563 Q1400.6875,174.3438 1400.5,174.5563 Q1400.3125,174.7688 1400.0125,174.7688 Q1399.7375,174.7688 1399.575,174.6063 Q1399.4125,174.4563 1399.325,174.0438 Q1399.2875,173.7563 1399.1375,173.6063 Q1398.875,173.3063 1398.3875,173.1313 Q1397.9,172.9563 1397.4,172.9563 Q1396.7875,172.9563 1396.275,173.2188 Q1395.775,173.4813 1395.375,174.0813 Q1394.9875,174.6813 1394.9875,175.5063 L1394.9875,176.3813 Q1394.9875,177.3688 1395.7,178.0313 Q1396.4125,178.6813 1397.6875,178.6813 Q1398.4375,178.6813 1398.9625,178.4813 Q1399.275,178.3563 1399.6125,178.0063 Q1399.825,177.7938 1399.9375,177.7313 Q1400.0625,177.6688 1400.225,177.6688 Q1400.4875,177.6688 1400.6875,177.8813 Q1400.9,178.0813 1400.9,178.3563 Q1400.9,178.6313 1400.625,178.9563 Q1400.225,179.4188 1399.5875,179.6813 Q1398.725,180.0438 1397.6875,180.0438 Q1396.475,180.0438 1395.5125,179.5438 Q1394.725,179.1438 1394.175,178.2938 Q1393.625,177.4313 1393.625,176.4063 L1393.625,175.4813 Q1393.625,174.4188 1394.1125,173.5063 Q1394.6125,172.5813 1395.4875,172.0938 Q1396.3625,171.5938 1397.35,171.5938 Q1397.9375,171.5938 1398.45,171.7313 Q1398.975,171.8563 1399.4125,172.1438 Z " fill="#000000"/><text fill="#000000" font-family="sans-serif" font-size="9.6" font-style="italic" lengthAdjust="spacing" textLength="104.6016" x="1406.8" y="171.9703">&#171;Entity, AggregateRoot&#187;</text><text fill="#000000" font-family="sans-serif" font-size="11.2" lengthAdjust="spacing" textLength="72.2203" x="1422.9906" y="186.4656">ShowProposal</text><line style="stroke:#181818;stroke-width:0.4000000000000001;" x1="1386" x2="1511.4016" y1="193.2766" y2="193.2766"/><line style="stroke:#181818;stroke-width:0.4000000000000001;" x1="1386" x2="1511.4016" y1="199.6766" y2="199.6766"/></g><!--class ShowProposalID--><g id="elem_ShowProposalID"><rect codeLine="21" fill="#F1F1F1" height="48.4656" id="ShowProposalID" rx="2" ry="2" style="stroke:#181818;stroke-width:0.4000000000000001;" width="109.0203" x="691.2" y="283.2109"/><ellipse cx="703.2" cy="301.0438" fill="#ADD1B2" rx="8.8" ry="8.8" style="stroke:#181818;stroke-width:0.8000000000000002;"/><path d="M705.4125,297.7438 Q705.5375,297.5688 705.6875,297.4813 Q705.8375,297.3938 706.0125,297.3938 Q706.3125,297.3938 706.5,297.6063 Q706.6875,297.8063 706.6875,298.2938 L706.6875,299.4563 Q706.6875,299.9438 706.5,300.1563 Q706.3125,300.3688 706.0125,300.3688 Q705.7375,300.3688 705.575,300.2063 Q705.4125,300.0563 705.325,299.6438 Q705.2875,299.3563 705.1375,299.2063 Q704.875,298.9063 704.3875,298.7313 Q703.9,298.5563 703.4,298.5563 Q702.7875,298.5563 702.275,298.8188 Q701.775,299.0813 701.375,299.6813 Q700.9875,300.2813 700.9875,301.1063 L700.9875,301.9813 Q700.9875,302.9688 701.7,303.6313 Q702.4125,304.2813 703.6875,304.2813 Q704.4375,304.2813 704.9625,304.0813 Q705.275,303.9563 705.6125,303.6063 Q705.825,303.3938 705.9375,303.3313 Q706.0625,303.2688 706.225,303.2688 Q706.4875,303.2688 706.6875,303.4813 Q706.9,303.6813 706.9,303.9563 Q706.9,304.2313 706.625,304.5563 Q706.225,305.0188 705.5875,305.2813 Q704.725,305.6438 703.6875,305.6438 Q702.475,305.6438 701.5125,305.1438 Q700.725,304.7438 700.175,303.8938 Q699.625,303.0313 699.625,302.0063 L699.625,301.0813 Q699.625,300.0188 700.1125,299.1063 Q700.6125,298.1813 701.4875,297.6938 Q702.3625,297.1938 703.35,297.1938 Q703.9375,297.1938 704.45,297.3313 Q704.975,297.4563 705.4125,297.7438 Z " fill="#000000"/><text fill="#000000" font-family="sans-serif" font-size="9.6" font-style="italic" lengthAdjust="spacing" textLength="62.9766" x="724.6219" y="297.5703">&#171;ValueObject&#187;</text><text fill="#000000" font-family="sans-serif" font-size="11.2" lengthAdjust="spacing" textLength="83.4203" x="714.4" y="312.0656">ShowProposalID</text><line style="stroke:#181818;stroke-width:0.4000000000000001;" x1="692" x2="799.4203" y1="318.8766" y2="318.8766"/><line style="stroke:#181818;stroke-width:0.4000000000000001;" x1="692" x2="799.4203" y1="325.2766" y2="325.2766"/></g><!--class Video--><g id="elem_Video"><rect codeLine="17" fill="#F1F1F1" height="48.4656" id="Video" rx="2" ry="2" style="stroke:#181818;stroke-width:0.4000000000000001;" width="85.3766" x="828.4" y="283.2109"/><ellipse cx="840.4" cy="301.0438" fill="#ADD1B2" rx="8.8" ry="8.8" style="stroke:#181818;stroke-width:0.8000000000000002;"/><path d="M842.6125,297.7438 Q842.7375,297.5688 842.8875,297.4813 Q843.0375,297.3938 843.2125,297.3938 Q843.5125,297.3938 843.7,297.6063 Q843.8875,297.8063 843.8875,298.2938 L843.8875,299.4563 Q843.8875,299.9438 843.7,300.1563 Q843.5125,300.3688 843.2125,300.3688 Q842.9375,300.3688 842.775,300.2063 Q842.6125,300.0563 842.525,299.6438 Q842.4875,299.3563 842.3375,299.2063 Q842.075,298.9063 841.5875,298.7313 Q841.1,298.5563 840.6,298.5563 Q839.9875,298.5563 839.475,298.8188 Q838.975,299.0813 838.575,299.6813 Q838.1875,300.2813 838.1875,301.1063 L838.1875,301.9813 Q838.1875,302.9688 838.9,303.6313 Q839.6125,304.2813 840.8875,304.2813 Q841.6375,304.2813 842.1625,304.0813 Q842.475,303.9563 842.8125,303.6063 Q843.025,303.3938 843.1375,303.3313 Q843.2625,303.2688 843.425,303.2688 Q843.6875,303.2688 843.8875,303.4813 Q844.1,303.6813 844.1,303.9563 Q844.1,304.2313 843.825,304.5563 Q843.425,305.0188 842.7875,305.2813 Q841.925,305.6438 840.8875,305.6438 Q839.675,305.6438 838.7125,305.1438 Q837.925,304.7438 837.375,303.8938 Q836.825,303.0313 836.825,302.0063 L836.825,301.0813 Q836.825,300.0188 837.3125,299.1063 Q837.8125,298.1813 838.6875,297.6938 Q839.5625,297.1938 840.55,297.1938 Q841.1375,297.1938 841.65,297.3313 Q842.175,297.4563 842.6125,297.7438 Z " fill="#000000"/><text fill="#000000" font-family="sans-serif" font-size="9.6" font-style="italic" lengthAdjust="spacing" textLength="62.9766" x="850" y="297.5703">&#171;ValueObject&#187;</text><text fill="#000000" font-family="sans-serif" font-size="11.2" lengthAdjust="spacing" textLength="28.6453" x="867.1656" y="312.0656">Video</text><line style="stroke:#181818;stroke-width:0.4000000000000001;" x1="829.2" x2="912.9766" y1="318.8766" y2="318.8766"/><line style="stroke:#181818;stroke-width:0.4000000000000001;" x1="829.2" x2="912.9766" y1="325.2766" y2="325.2766"/></g><!--class ShowProposalTotalDrone--><g id="elem_ShowProposalTotalDrone"><rect codeLine="18" fill="#F1F1F1" height="48.4656" id="ShowProposalTotalDrone" rx="2" ry="2" style="stroke:#181818;stroke-width:0.4000000000000001;" width="153.2242" x="942.4" y="283.2109"/><ellipse cx="954.4" cy="301.0438" fill="#ADD1B2" rx="8.8" ry="8.8" style="stroke:#181818;stroke-width:0.8000000000000002;"/><path d="M956.6125,297.7438 Q956.7375,297.5688 956.8875,297.4813 Q957.0375,297.3938 957.2125,297.3938 Q957.5125,297.3938 957.7,297.6063 Q957.8875,297.8063 957.8875,298.2938 L957.8875,299.4563 Q957.8875,299.9438 957.7,300.1563 Q957.5125,300.3688 957.2125,300.3688 Q956.9375,300.3688 956.775,300.2063 Q956.6125,300.0563 956.525,299.6438 Q956.4875,299.3563 956.3375,299.2063 Q956.075,298.9063 955.5875,298.7313 Q955.1,298.5563 954.6,298.5563 Q953.9875,298.5563 953.475,298.8188 Q952.975,299.0813 952.575,299.6813 Q952.1875,300.2813 952.1875,301.1063 L952.1875,301.9813 Q952.1875,302.9688 952.9,303.6313 Q953.6125,304.2813 954.8875,304.2813 Q955.6375,304.2813 956.1625,304.0813 Q956.475,303.9563 956.8125,303.6063 Q957.025,303.3938 957.1375,303.3313 Q957.2625,303.2688 957.425,303.2688 Q957.6875,303.2688 957.8875,303.4813 Q958.1,303.6813 958.1,303.9563 Q958.1,304.2313 957.825,304.5563 Q957.425,305.0188 956.7875,305.2813 Q955.925,305.6438 954.8875,305.6438 Q953.675,305.6438 952.7125,305.1438 Q951.925,304.7438 951.375,303.8938 Q950.825,303.0313 950.825,302.0063 L950.825,301.0813 Q950.825,300.0188 951.3125,299.1063 Q951.8125,298.1813 952.6875,297.6938 Q953.5625,297.1938 954.55,297.1938 Q955.1375,297.1938 955.65,297.3313 Q956.175,297.4563 956.6125,297.7438 Z " fill="#000000"/><text fill="#000000" font-family="sans-serif" font-size="9.6" font-style="italic" lengthAdjust="spacing" textLength="62.9766" x="997.9238" y="297.5703">&#171;ValueObject&#187;</text><text fill="#000000" font-family="sans-serif" font-size="11.2" lengthAdjust="spacing" textLength="127.6242" x="965.6" y="312.0656">ShowProposalTotalDrone</text><line style="stroke:#181818;stroke-width:0.4000000000000001;" x1="943.2" x2="1094.8242" y1="318.8766" y2="318.8766"/><line style="stroke:#181818;stroke-width:0.4000000000000001;" x1="943.2" x2="1094.8242" y1="325.2766" y2="325.2766"/></g><!--class ShowProposalTemplate--><g id="elem_ShowProposalTemplate"><rect codeLine="19" fill="#F1F1F1" height="48.4656" id="ShowProposalTemplate" rx="2" ry="2" style="stroke:#181818;stroke-width:0.4000000000000001;" width="144.507" x="1124.4" y="283.2109"/><ellipse cx="1136.4" cy="301.0438" fill="#ADD1B2" rx="8.8" ry="8.8" style="stroke:#181818;stroke-width:0.8000000000000002;"/><path d="M1138.6125,297.7438 Q1138.7375,297.5688 1138.8875,297.4813 Q1139.0375,297.3938 1139.2125,297.3938 Q1139.5125,297.3938 1139.7,297.6063 Q1139.8875,297.8063 1139.8875,298.2938 L1139.8875,299.4563 Q1139.8875,299.9438 1139.7,300.1563 Q1139.5125,300.3688 1139.2125,300.3688 Q1138.9375,300.3688 1138.775,300.2063 Q1138.6125,300.0563 1138.525,299.6438 Q1138.4875,299.3563 1138.3375,299.2063 Q1138.075,298.9063 1137.5875,298.7313 Q1137.1,298.5563 1136.6,298.5563 Q1135.9875,298.5563 1135.475,298.8188 Q1134.975,299.0813 1134.575,299.6813 Q1134.1875,300.2813 1134.1875,301.1063 L1134.1875,301.9813 Q1134.1875,302.9688 1134.9,303.6313 Q1135.6125,304.2813 1136.8875,304.2813 Q1137.6375,304.2813 1138.1625,304.0813 Q1138.475,303.9563 1138.8125,303.6063 Q1139.025,303.3938 1139.1375,303.3313 Q1139.2625,303.2688 1139.425,303.2688 Q1139.6875,303.2688 1139.8875,303.4813 Q1140.1,303.6813 1140.1,303.9563 Q1140.1,304.2313 1139.825,304.5563 Q1139.425,305.0188 1138.7875,305.2813 Q1137.925,305.6438 1136.8875,305.6438 Q1135.675,305.6438 1134.7125,305.1438 Q1133.925,304.7438 1133.375,303.8938 Q1132.825,303.0313 1132.825,302.0063 L1132.825,301.0813 Q1132.825,300.0188 1133.3125,299.1063 Q1133.8125,298.1813 1134.6875,297.6938 Q1135.5625,297.1938 1136.55,297.1938 Q1137.1375,297.1938 1137.65,297.3313 Q1138.175,297.4563 1138.6125,297.7438 Z " fill="#000000"/><text fill="#000000" font-family="sans-serif" font-size="9.6" font-style="italic" lengthAdjust="spacing" textLength="62.9766" x="1175.5652" y="297.5703">&#171;ValueObject&#187;</text><text fill="#000000" font-family="sans-serif" font-size="11.2" lengthAdjust="spacing" textLength="118.907" x="1147.6" y="312.0656">ShowProposalTemplate</text><line style="stroke:#181818;stroke-width:0.4000000000000001;" x1="1125.2" x2="1268.107" y1="318.8766" y2="318.8766"/><line style="stroke:#181818;stroke-width:0.4000000000000001;" x1="1125.2" x2="1268.107" y1="325.2766" y2="325.2766"/></g><!--class ShowProposalDuration--><g id="elem_ShowProposalDuration"><rect codeLine="20" fill="#F1F1F1" height="48.4656" id="ShowProposalDuration" rx="2" ry="2" style="stroke:#181818;stroke-width:0.4000000000000001;" width="140.1539" x="1297.2" y="283.2109"/><ellipse cx="1309.2" cy="301.0438" fill="#ADD1B2" rx="8.8" ry="8.8" style="stroke:#181818;stroke-width:0.8000000000000002;"/><path d="M1311.4125,297.7438 Q1311.5375,297.5688 1311.6875,297.4813 Q1311.8375,297.3938 1312.0125,297.3938 Q1312.3125,297.3938 1312.5,297.6063 Q1312.6875,297.8063 1312.6875,298.2938 L1312.6875,299.4563 Q1312.6875,299.9438 1312.5,300.1563 Q1312.3125,300.3688 1312.0125,300.3688 Q1311.7375,300.3688 1311.575,300.2063 Q1311.4125,300.0563 1311.325,299.6438 Q1311.2875,299.3563 1311.1375,299.2063 Q1310.875,298.9063 1310.3875,298.7313 Q1309.9,298.5563 1309.4,298.5563 Q1308.7875,298.5563 1308.275,298.8188 Q1307.775,299.0813 1307.375,299.6813 Q1306.9875,300.2813 1306.9875,301.1063 L1306.9875,301.9813 Q1306.9875,302.9688 1307.7,303.6313 Q1308.4125,304.2813 1309.6875,304.2813 Q1310.4375,304.2813 1310.9625,304.0813 Q1311.275,303.9563 1311.6125,303.6063 Q1311.825,303.3938 1311.9375,303.3313 Q1312.0625,303.2688 1312.225,303.2688 Q1312.4875,303.2688 1312.6875,303.4813 Q1312.9,303.6813 1312.9,303.9563 Q1312.9,304.2313 1312.625,304.5563 Q1312.225,305.0188 1311.5875,305.2813 Q1310.725,305.6438 1309.6875,305.6438 Q1308.475,305.6438 1307.5125,305.1438 Q1306.725,304.7438 1306.175,303.8938 Q1305.625,303.0313 1305.625,302.0063 L1305.625,301.0813 Q1305.625,300.0188 1306.1125,299.1063 Q1306.6125,298.1813 1307.4875,297.6938 Q1308.3625,297.1938 1309.35,297.1938 Q1309.9375,297.1938 1310.45,297.3313 Q1310.975,297.4563 1311.4125,297.7438 Z " fill="#000000"/><text fill="#000000" font-family="sans-serif" font-size="9.6" font-style="italic" lengthAdjust="spacing" textLength="62.9766" x="1346.1887" y="297.5703">&#171;ValueObject&#187;</text><text fill="#000000" font-family="sans-serif" font-size="11.2" lengthAdjust="spacing" textLength="114.5539" x="1320.4" y="312.0656">ShowProposalDuration</text><line style="stroke:#181818;stroke-width:0.4000000000000001;" x1="1298" x2="1436.5539" y1="318.8766" y2="318.8766"/><line style="stroke:#181818;stroke-width:0.4000000000000001;" x1="1298" x2="1436.5539" y1="325.2766" y2="325.2766"/></g><!--class ShowProposalStatus--><g id="elem_ShowProposalStatus"><rect codeLine="23" fill="#F1F1F1" height="78.2594" id="ShowProposalStatus" rx="2" ry="2" style="stroke:#181818;stroke-width:0.4000000000000001;" width="129.5719" x="1465.6" y="268.4109"/><ellipse cx="1477.6" cy="286.2438" fill="#EB937F" rx="8.8" ry="8.8" style="stroke:#181818;stroke-width:0.8000000000000002;"/><path d="M1476.6875,286.8813 L1476.6875,288.8813 L1480.15,288.8813 L1480.15,288.1438 Q1480.15,287.6563 1480.3375,287.4438 Q1480.5375,287.2313 1480.8375,287.2313 Q1481.1375,287.2313 1481.325,287.4438 Q1481.5125,287.6563 1481.5125,288.1438 L1481.5125,290.2438 L1475.1125,290.2438 Q1474.6125,290.2438 1474.4,290.0563 Q1474.2,289.8688 1474.2,289.5563 Q1474.2,289.2563 1474.4125,289.0688 Q1474.625,288.8813 1475.1125,288.8813 L1475.325,288.8813 L1475.325,283.5563 L1475.1125,283.5563 Q1474.6125,283.5563 1474.4,283.3688 Q1474.2,283.1813 1474.2,282.8688 Q1474.2,282.5688 1474.4,282.3813 Q1474.6125,282.1938 1475.1125,282.1938 L1481.2125,282.1938 L1481.2125,284.2688 Q1481.2125,284.7563 1481.025,284.9688 Q1480.85,285.1688 1480.5375,285.1688 Q1480.2375,285.1688 1480.05,284.9688 Q1479.8625,284.7563 1479.8625,284.2688 L1479.8625,283.5563 L1476.6875,283.5563 L1476.6875,285.5188 L1477.875,285.5188 Q1477.875,284.9938 1477.975,284.8438 Q1478.1875,284.5188 1478.5625,284.5188 Q1478.8625,284.5188 1479.05,284.7313 Q1479.2375,284.9313 1479.2375,285.4188 L1479.2375,286.9938 Q1479.2375,287.4313 1479.1375,287.5813 Q1478.925,287.8938 1478.5625,287.8938 Q1478.1875,287.8938 1477.975,287.5688 Q1477.875,287.4188 1477.875,286.8813 L1476.6875,286.8813 Z " fill="#000000"/><text fill="#000000" font-family="sans-serif" font-size="9.6" font-style="italic" lengthAdjust="spacing" textLength="35.7563" x="1522.9078" y="282.7703">&#171;Enum&#187;</text><text fill="#000000" font-family="sans-serif" font-size="11.2" lengthAdjust="spacing" textLength="103.9719" x="1488.8" y="297.2656">ShowProposalStatus</text><line style="stroke:#181818;stroke-width:0.4000000000000001;" x1="1466.4" x2="1594.3719" y1="304.0766" y2="304.0766"/><text fill="#000000" font-family="sans-serif" font-size="11.2" lengthAdjust="spacing" textLength="64.0992" x="1470.4" y="319.3625">ACCEPTED,</text><text fill="#000000" font-family="sans-serif" font-size="11.2" lengthAdjust="spacing" textLength="59.1172" x="1470.4" y="334.2594">REJECTED</text><line style="stroke:#181818;stroke-width:0.4000000000000001;" x1="1466.4" x2="1594.3719" y1="340.2703" y2="340.2703"/></g><!--class Drone--><g id="elem_Drone"><rect codeLine="43" fill="#F1F1F1" height="48.4656" id="Drone" rx="2" ry="2" style="stroke:#181818;stroke-width:0.4000000000000001;" width="127.0016" x="218" y="157.6109"/><ellipse cx="230" cy="175.4438" fill="#ADD1B2" rx="8.8" ry="8.8" style="stroke:#181818;stroke-width:0.8000000000000002;"/><path d="M232.2125,172.1438 Q232.3375,171.9688 232.4875,171.8813 Q232.6375,171.7938 232.8125,171.7938 Q233.1125,171.7938 233.3,172.0063 Q233.4875,172.2063 233.4875,172.6938 L233.4875,173.8563 Q233.4875,174.3438 233.3,174.5563 Q233.1125,174.7688 232.8125,174.7688 Q232.5375,174.7688 232.375,174.6063 Q232.2125,174.4563 232.125,174.0438 Q232.0875,173.7563 231.9375,173.6063 Q231.675,173.3063 231.1875,173.1313 Q230.7,172.9563 230.2,172.9563 Q229.5875,172.9563 229.075,173.2188 Q228.575,173.4813 228.175,174.0813 Q227.7875,174.6813 227.7875,175.5063 L227.7875,176.3813 Q227.7875,177.3688 228.5,178.0313 Q229.2125,178.6813 230.4875,178.6813 Q231.2375,178.6813 231.7625,178.4813 Q232.075,178.3563 232.4125,178.0063 Q232.625,177.7938 232.7375,177.7313 Q232.8625,177.6688 233.025,177.6688 Q233.2875,177.6688 233.4875,177.8813 Q233.7,178.0813 233.7,178.3563 Q233.7,178.6313 233.425,178.9563 Q233.025,179.4188 232.3875,179.6813 Q231.525,180.0438 230.4875,180.0438 Q229.275,180.0438 228.3125,179.5438 Q227.525,179.1438 226.975,178.2938 Q226.425,177.4313 226.425,176.4063 L226.425,175.4813 Q226.425,174.4188 226.9125,173.5063 Q227.4125,172.5813 228.2875,172.0938 Q229.1625,171.5938 230.15,171.5938 Q230.7375,171.5938 231.25,171.7313 Q231.775,171.8563 232.2125,172.1438 Z " fill="#000000"/><text fill="#000000" font-family="sans-serif" font-size="9.6" font-style="italic" lengthAdjust="spacing" textLength="104.6016" x="239.6" y="171.9703">&#171;Entity, AggregateRoot&#187;</text><text fill="#000000" font-family="sans-serif" font-size="11.2" lengthAdjust="spacing" textLength="30.5047" x="276.6484" y="186.4656">Drone</text><line style="stroke:#181818;stroke-width:0.4000000000000001;" x1="218.8" x2="344.2016" y1="193.2766" y2="193.2766"/><line style="stroke:#181818;stroke-width:0.4000000000000001;" x1="218.8" x2="344.2016" y1="199.6766" y2="199.6766"/></g><!--class DroneModel--><g id="elem_DroneModel"><rect codeLine="44" fill="#F1F1F1" height="48.4656" id="DroneModel" rx="2" ry="2" style="stroke:#181818;stroke-width:0.4000000000000001;" width="86.6094" x="75.2" y="283.2109"/><ellipse cx="87.2" cy="301.0438" fill="#ADD1B2" rx="8.8" ry="8.8" style="stroke:#181818;stroke-width:0.8000000000000002;"/><path d="M89.4125,297.7438 Q89.5375,297.5688 89.6875,297.4813 Q89.8375,297.3938 90.0125,297.3938 Q90.3125,297.3938 90.5,297.6063 Q90.6875,297.8063 90.6875,298.2938 L90.6875,299.4563 Q90.6875,299.9438 90.5,300.1563 Q90.3125,300.3688 90.0125,300.3688 Q89.7375,300.3688 89.575,300.2063 Q89.4125,300.0563 89.325,299.6438 Q89.2875,299.3563 89.1375,299.2063 Q88.875,298.9063 88.3875,298.7313 Q87.9,298.5563 87.4,298.5563 Q86.7875,298.5563 86.275,298.8188 Q85.775,299.0813 85.375,299.6813 Q84.9875,300.2813 84.9875,301.1063 L84.9875,301.9813 Q84.9875,302.9688 85.7,303.6313 Q86.4125,304.2813 87.6875,304.2813 Q88.4375,304.2813 88.9625,304.0813 Q89.275,303.9563 89.6125,303.6063 Q89.825,303.3938 89.9375,303.3313 Q90.0625,303.2688 90.225,303.2688 Q90.4875,303.2688 90.6875,303.4813 Q90.9,303.6813 90.9,303.9563 Q90.9,304.2313 90.625,304.5563 Q90.225,305.0188 89.5875,305.2813 Q88.725,305.6438 87.6875,305.6438 Q86.475,305.6438 85.5125,305.1438 Q84.725,304.7438 84.175,303.8938 Q83.625,303.0313 83.625,302.0063 L83.625,301.0813 Q83.625,300.0188 84.1125,299.1063 Q84.6125,298.1813 85.4875,297.6938 Q86.3625,297.1938 87.35,297.1938 Q87.9375,297.1938 88.45,297.3313 Q88.975,297.4563 89.4125,297.7438 Z " fill="#000000"/><text fill="#000000" font-family="sans-serif" font-size="9.6" font-style="italic" lengthAdjust="spacing" textLength="34.6875" x="111.5609" y="297.5703">&#171;Entity&#187;</text><text fill="#000000" font-family="sans-serif" font-size="11.2" lengthAdjust="spacing" textLength="61.0094" x="98.4" y="312.0656">DroneModel</text><line style="stroke:#181818;stroke-width:0.4000000000000001;" x1="76" x2="161.0094" y1="318.8766" y2="318.8766"/><line style="stroke:#181818;stroke-width:0.4000000000000001;" x1="76" x2="161.0094" y1="325.2766" y2="325.2766"/></g><!--class DroneState--><g id="elem_DroneState"><rect codeLine="45" fill="#F1F1F1" height="108.0531" id="DroneState" rx="2" ry="2" style="stroke:#181818;stroke-width:0.4000000000000001;" width="91.1172" x="264.8" y="394.8109"/><ellipse cx="280.7874" cy="412.6438" fill="#ADD1B2" rx="8.8" ry="8.8" style="stroke:#181818;stroke-width:0.8000000000000002;"/><path d="M282.9999,409.3438 Q283.1249,409.1688 283.2749,409.0813 Q283.4249,408.9938 283.5999,408.9938 Q283.8999,408.9938 284.0874,409.2063 Q284.2749,409.4063 284.2749,409.8938 L284.2749,411.0563 Q284.2749,411.5438 284.0874,411.7563 Q283.8999,411.9688 283.5999,411.9688 Q283.3249,411.9688 283.1624,411.8063 Q282.9999,411.6563 282.9124,411.2438 Q282.8749,410.9563 282.7249,410.8063 Q282.4624,410.5063 281.9749,410.3313 Q281.4874,410.1563 280.9874,410.1563 Q280.3749,410.1563 279.8624,410.4188 Q279.3624,410.6813 278.9624,411.2813 Q278.5749,411.8813 278.5749,412.7063 L278.5749,413.5813 Q278.5749,414.5688 279.2874,415.2313 Q279.9999,415.8813 281.2749,415.8813 Q282.0249,415.8813 282.5499,415.6813 Q282.8624,415.5563 283.1999,415.2063 Q283.4124,414.9938 283.5249,414.9313 Q283.6499,414.8688 283.8124,414.8688 Q284.0749,414.8688 284.2749,415.0813 Q284.4874,415.2813 284.4874,415.5563 Q284.4874,415.8313 284.2124,416.1563 Q283.8124,416.6188 283.1749,416.8813 Q282.3124,417.2438 281.2749,417.2438 Q280.0624,417.2438 279.0999,416.7438 Q278.3124,416.3438 277.7624,415.4938 Q277.2124,414.6313 277.2124,413.6063 L277.2124,412.6813 Q277.2124,411.6188 277.6999,410.7063 Q278.1999,409.7813 279.0749,409.2938 Q279.9499,408.7938 280.9374,408.7938 Q281.5249,408.7938 282.0374,408.9313 Q282.5624,409.0563 282.9999,409.3438 Z " fill="#000000"/><text fill="#000000" font-family="sans-serif" font-size="9.6" font-style="italic" lengthAdjust="spacing" textLength="35.7563" x="303.3235" y="409.1703">&#171;Enum&#187;</text><text fill="#000000" font-family="sans-serif" font-size="11.2" lengthAdjust="spacing" textLength="56.6563" x="292.8735" y="423.6656">DroneState</text><line style="stroke:#181818;stroke-width:0.4000000000000001;" x1="265.6" x2="355.1172" y1="430.4766" y2="430.4766"/><text fill="#000000" font-family="sans-serif" font-size="11.2" lengthAdjust="spacing" textLength="40.4523" x="269.6" y="445.7625">ACTIVE</text><text fill="#000000" font-family="sans-serif" font-size="11.2" lengthAdjust="spacing" textLength="51.6523" x="269.6" y="460.6594">INACTIVE</text><text fill="#000000" font-family="sans-serif" font-size="11.2" lengthAdjust="spacing" textLength="56.6289" x="269.6" y="475.5563">DAMAGED</text><text fill="#000000" font-family="sans-serif" font-size="11.2" lengthAdjust="spacing" textLength="81.5172" x="269.6" y="490.4531">MAINTENANCE</text><line style="stroke:#181818;stroke-width:0.4000000000000001;" x1="265.6" x2="355.1172" y1="496.4641" y2="496.4641"/></g><!--class DroneSerialNumber--><g id="elem_DroneSerialNumber"><rect codeLine="51" fill="#F1F1F1" height="48.4656" id="DroneSerialNumber" rx="2" ry="2" style="stroke:#181818;stroke-width:0.4000000000000001;" width="124.5734" x="219.2" y="283.2109"/><ellipse cx="231.2" cy="301.0438" fill="#ADD1B2" rx="8.8" ry="8.8" style="stroke:#181818;stroke-width:0.8000000000000002;"/><path d="M233.4125,297.7438 Q233.5375,297.5688 233.6875,297.4813 Q233.8375,297.3938 234.0125,297.3938 Q234.3125,297.3938 234.5,297.6063 Q234.6875,297.8063 234.6875,298.2938 L234.6875,299.4563 Q234.6875,299.9438 234.5,300.1563 Q234.3125,300.3688 234.0125,300.3688 Q233.7375,300.3688 233.575,300.2063 Q233.4125,300.0563 233.325,299.6438 Q233.2875,299.3563 233.1375,299.2063 Q232.875,298.9063 232.3875,298.7313 Q231.9,298.5563 231.4,298.5563 Q230.7875,298.5563 230.275,298.8188 Q229.775,299.0813 229.375,299.6813 Q228.9875,300.2813 228.9875,301.1063 L228.9875,301.9813 Q228.9875,302.9688 229.7,303.6313 Q230.4125,304.2813 231.6875,304.2813 Q232.4375,304.2813 232.9625,304.0813 Q233.275,303.9563 233.6125,303.6063 Q233.825,303.3938 233.9375,303.3313 Q234.0625,303.2688 234.225,303.2688 Q234.4875,303.2688 234.6875,303.4813 Q234.9,303.6813 234.9,303.9563 Q234.9,304.2313 234.625,304.5563 Q234.225,305.0188 233.5875,305.2813 Q232.725,305.6438 231.6875,305.6438 Q230.475,305.6438 229.5125,305.1438 Q228.725,304.7438 228.175,303.8938 Q227.625,303.0313 227.625,302.0063 L227.625,301.0813 Q227.625,300.0188 228.1125,299.1063 Q228.6125,298.1813 229.4875,297.6938 Q230.3625,297.1938 231.35,297.1938 Q231.9375,297.1938 232.45,297.3313 Q232.975,297.4563 233.4125,297.7438 Z " fill="#000000"/><text fill="#000000" font-family="sans-serif" font-size="9.6" font-style="italic" lengthAdjust="spacing" textLength="62.9766" x="260.3984" y="297.5703">&#171;ValueObject&#187;</text><text fill="#000000" font-family="sans-serif" font-size="11.2" lengthAdjust="spacing" textLength="98.9734" x="242.4" y="312.0656">DroneSerialNumber</text><line style="stroke:#181818;stroke-width:0.4000000000000001;" x1="220" x2="342.9734" y1="318.8766" y2="318.8766"/><line style="stroke:#181818;stroke-width:0.4000000000000001;" x1="220" x2="342.9734" y1="325.2766" y2="325.2766"/></g><!--class DroneModelID--><g id="elem_DroneModelID"><rect codeLine="52" fill="#F1F1F1" height="48.4656" id="DroneModelID" rx="2" ry="2" style="stroke:#181818;stroke-width:0.4000000000000001;" width="97.8094" x="75.2" y="424.4109"/><ellipse cx="87.2" cy="442.2438" fill="#ADD1B2" rx="8.8" ry="8.8" style="stroke:#181818;stroke-width:0.8000000000000002;"/><path d="M89.4125,438.9438 Q89.5375,438.7688 89.6875,438.6813 Q89.8375,438.5938 90.0125,438.5938 Q90.3125,438.5938 90.5,438.8063 Q90.6875,439.0063 90.6875,439.4938 L90.6875,440.6563 Q90.6875,441.1438 90.5,441.3563 Q90.3125,441.5688 90.0125,441.5688 Q89.7375,441.5688 89.575,441.4063 Q89.4125,441.2563 89.325,440.8438 Q89.2875,440.5563 89.1375,440.4063 Q88.875,440.1063 88.3875,439.9313 Q87.9,439.7563 87.4,439.7563 Q86.7875,439.7563 86.275,440.0188 Q85.775,440.2813 85.375,440.8813 Q84.9875,441.4813 84.9875,442.3063 L84.9875,443.1813 Q84.9875,444.1688 85.7,444.8313 Q86.4125,445.4813 87.6875,445.4813 Q88.4375,445.4813 88.9625,445.2813 Q89.275,445.1563 89.6125,444.8063 Q89.825,444.5938 89.9375,444.5313 Q90.0625,444.4688 90.225,444.4688 Q90.4875,444.4688 90.6875,444.6813 Q90.9,444.8813 90.9,445.1563 Q90.9,445.4313 90.625,445.7563 Q90.225,446.2188 89.5875,446.4813 Q88.725,446.8438 87.6875,446.8438 Q86.475,446.8438 85.5125,446.3438 Q84.725,445.9438 84.175,445.0938 Q83.625,444.2313 83.625,443.2063 L83.625,442.2813 Q83.625,441.2188 84.1125,440.3063 Q84.6125,439.3813 85.4875,438.8938 Q86.3625,438.3938 87.35,438.3938 Q87.9375,438.3938 88.45,438.5313 Q88.975,438.6563 89.4125,438.9438 Z " fill="#000000"/><text fill="#000000" font-family="sans-serif" font-size="9.6" font-style="italic" lengthAdjust="spacing" textLength="62.9766" x="103.0164" y="438.7703">&#171;ValueObject&#187;</text><text fill="#000000" font-family="sans-serif" font-size="11.2" lengthAdjust="spacing" textLength="72.2094" x="98.4" y="453.2656">DroneModelID</text><line style="stroke:#181818;stroke-width:0.4000000000000001;" x1="76" x2="172.2094" y1="460.0766" y2="460.0766"/><line style="stroke:#181818;stroke-width:0.4000000000000001;" x1="76" x2="172.2094" y1="466.4766" y2="466.4766"/></g><!--class DroneID--><g id="elem_DroneID"><rect codeLine="53" fill="#F1F1F1" height="48.4656" id="DroneID" rx="2" ry="2" style="stroke:#181818;stroke-width:0.4000000000000001;" width="85.3766" x="372.4" y="283.2109"/><ellipse cx="384.4" cy="301.0438" fill="#ADD1B2" rx="8.8" ry="8.8" style="stroke:#181818;stroke-width:0.8000000000000002;"/><path d="M386.6125,297.7438 Q386.7375,297.5688 386.8875,297.4813 Q387.0375,297.3938 387.2125,297.3938 Q387.5125,297.3938 387.7,297.6063 Q387.8875,297.8063 387.8875,298.2938 L387.8875,299.4563 Q387.8875,299.9438 387.7,300.1563 Q387.5125,300.3688 387.2125,300.3688 Q386.9375,300.3688 386.775,300.2063 Q386.6125,300.0563 386.525,299.6438 Q386.4875,299.3563 386.3375,299.2063 Q386.075,298.9063 385.5875,298.7313 Q385.1,298.5563 384.6,298.5563 Q383.9875,298.5563 383.475,298.8188 Q382.975,299.0813 382.575,299.6813 Q382.1875,300.2813 382.1875,301.1063 L382.1875,301.9813 Q382.1875,302.9688 382.9,303.6313 Q383.6125,304.2813 384.8875,304.2813 Q385.6375,304.2813 386.1625,304.0813 Q386.475,303.9563 386.8125,303.6063 Q387.025,303.3938 387.1375,303.3313 Q387.2625,303.2688 387.425,303.2688 Q387.6875,303.2688 387.8875,303.4813 Q388.1,303.6813 388.1,303.9563 Q388.1,304.2313 387.825,304.5563 Q387.425,305.0188 386.7875,305.2813 Q385.925,305.6438 384.8875,305.6438 Q383.675,305.6438 382.7125,305.1438 Q381.925,304.7438 381.375,303.8938 Q380.825,303.0313 380.825,302.0063 L380.825,301.0813 Q380.825,300.0188 381.3125,299.1063 Q381.8125,298.1813 382.6875,297.6938 Q383.5625,297.1938 384.55,297.1938 Q385.1375,297.1938 385.65,297.3313 Q386.175,297.4563 386.6125,297.7438 Z " fill="#000000"/><text fill="#000000" font-family="sans-serif" font-size="9.6" font-style="italic" lengthAdjust="spacing" textLength="62.9766" x="394" y="297.5703">&#171;ValueObject&#187;</text><text fill="#000000" font-family="sans-serif" font-size="11.2" lengthAdjust="spacing" textLength="41.7047" x="404.6359" y="312.0656">DroneID</text><line style="stroke:#181818;stroke-width:0.4000000000000001;" x1="373.2" x2="456.9766" y1="318.8766" y2="318.8766"/><line style="stroke:#181818;stroke-width:0.4000000000000001;" x1="373.2" x2="456.9766" y1="325.2766" y2="325.2766"/></g><!--class DroneStateChange--><g id="elem_DroneStateChange"><rect codeLine="54" fill="#F1F1F1" height="48.4656" id="DroneStateChange" rx="2" ry="2" style="stroke:#181818;stroke-width:0.4000000000000001;" width="121.4891" x="486.4" y="283.2109"/><ellipse cx="498.4" cy="301.0438" fill="#ADD1B2" rx="8.8" ry="8.8" style="stroke:#181818;stroke-width:0.8000000000000002;"/><path d="M500.6125,297.7438 Q500.7375,297.5688 500.8875,297.4813 Q501.0375,297.3938 501.2125,297.3938 Q501.5125,297.3938 501.7,297.6063 Q501.8875,297.8063 501.8875,298.2938 L501.8875,299.4563 Q501.8875,299.9438 501.7,300.1563 Q501.5125,300.3688 501.2125,300.3688 Q500.9375,300.3688 500.775,300.2063 Q500.6125,300.0563 500.525,299.6438 Q500.4875,299.3563 500.3375,299.2063 Q500.075,298.9063 499.5875,298.7313 Q499.1,298.5563 498.6,298.5563 Q497.9875,298.5563 497.475,298.8188 Q496.975,299.0813 496.575,299.6813 Q496.1875,300.2813 496.1875,301.1063 L496.1875,301.9813 Q496.1875,302.9688 496.9,303.6313 Q497.6125,304.2813 498.8875,304.2813 Q499.6375,304.2813 500.1625,304.0813 Q500.475,303.9563 500.8125,303.6063 Q501.025,303.3938 501.1375,303.3313 Q501.2625,303.2688 501.425,303.2688 Q501.6875,303.2688 501.8875,303.4813 Q502.1,303.6813 502.1,303.9563 Q502.1,304.2313 501.825,304.5563 Q501.425,305.0188 500.7875,305.2813 Q499.925,305.6438 498.8875,305.6438 Q497.675,305.6438 496.7125,305.1438 Q495.925,304.7438 495.375,303.8938 Q494.825,303.0313 494.825,302.0063 L494.825,301.0813 Q494.825,300.0188 495.3125,299.1063 Q495.8125,298.1813 496.6875,297.6938 Q497.5625,297.1938 498.55,297.1938 Q499.1375,297.1938 499.65,297.3313 Q500.175,297.4563 500.6125,297.7438 Z " fill="#000000"/><text fill="#000000" font-family="sans-serif" font-size="9.6" font-style="italic" lengthAdjust="spacing" textLength="34.6875" x="540.2008" y="297.5703">&#171;Entity&#187;</text><text fill="#000000" font-family="sans-serif" font-size="11.2" lengthAdjust="spacing" textLength="95.8891" x="509.6" y="312.0656">DroneStateChange</text><line style="stroke:#181818;stroke-width:0.4000000000000001;" x1="487.2" x2="607.0891" y1="318.8766" y2="318.8766"/><line style="stroke:#181818;stroke-width:0.4000000000000001;" x1="487.2" x2="607.0891" y1="325.2766" y2="325.2766"/></g><!--class DroneStateChangeReason--><g id="elem_DroneStateChangeReason"><rect codeLine="55" fill="#F1F1F1" height="93.1563" id="DroneStateChangeReason" rx="2" ry="2" style="stroke:#181818;stroke-width:0.4000000000000001;" width="160.093" x="448" y="402.4109"/><ellipse cx="460" cy="420.2438" fill="#ADD1B2" rx="8.8" ry="8.8" style="stroke:#181818;stroke-width:0.8000000000000002;"/><path d="M462.2125,416.9438 Q462.3375,416.7688 462.4875,416.6813 Q462.6375,416.5938 462.8125,416.5938 Q463.1125,416.5938 463.3,416.8063 Q463.4875,417.0063 463.4875,417.4938 L463.4875,418.6563 Q463.4875,419.1438 463.3,419.3563 Q463.1125,419.5688 462.8125,419.5688 Q462.5375,419.5688 462.375,419.4063 Q462.2125,419.2563 462.125,418.8438 Q462.0875,418.5563 461.9375,418.4063 Q461.675,418.1063 461.1875,417.9313 Q460.7,417.7563 460.2,417.7563 Q459.5875,417.7563 459.075,418.0188 Q458.575,418.2813 458.175,418.8813 Q457.7875,419.4813 457.7875,420.3063 L457.7875,421.1813 Q457.7875,422.1688 458.5,422.8313 Q459.2125,423.4813 460.4875,423.4813 Q461.2375,423.4813 461.7625,423.2813 Q462.075,423.1563 462.4125,422.8063 Q462.625,422.5938 462.7375,422.5313 Q462.8625,422.4688 463.025,422.4688 Q463.2875,422.4688 463.4875,422.6813 Q463.7,422.8813 463.7,423.1563 Q463.7,423.4313 463.425,423.7563 Q463.025,424.2188 462.3875,424.4813 Q461.525,424.8438 460.4875,424.8438 Q459.275,424.8438 458.3125,424.3438 Q457.525,423.9438 456.975,423.0938 Q456.425,422.2313 456.425,421.2063 L456.425,420.2813 Q456.425,419.2188 456.9125,418.3063 Q457.4125,417.3813 458.2875,416.8938 Q459.1625,416.3938 460.15,416.3938 Q460.7375,416.3938 461.25,416.5313 Q461.775,416.6563 462.2125,416.9438 Z " fill="#000000"/><text fill="#000000" font-family="sans-serif" font-size="9.6" font-style="italic" lengthAdjust="spacing" textLength="35.7563" x="520.5684" y="416.7703">&#171;Enum&#187;</text><text fill="#000000" font-family="sans-serif" font-size="11.2" lengthAdjust="spacing" textLength="134.493" x="471.2" y="431.2656">DroneStateChangeReason</text><line style="stroke:#181818;stroke-width:0.4000000000000001;" x1="448.8" x2="607.293" y1="438.0766" y2="438.0766"/><text fill="#000000" font-family="sans-serif" font-size="11.2" lengthAdjust="spacing" textLength="47.2992" x="452.8" y="453.3625">FAILURE</text><text fill="#000000" font-family="sans-serif" font-size="11.2" lengthAdjust="spacing" textLength="81.5172" x="452.8" y="468.2594">MAINTENANCE</text><text fill="#000000" font-family="sans-serif" font-size="11.2" lengthAdjust="spacing" textLength="88.982" x="452.8" y="483.1563">DECOMMISSION</text><line style="stroke:#181818;stroke-width:0.4000000000000001;" x1="448.8" x2="607.293" y1="489.1672" y2="489.1672"/></g><!--class MaintenanceType--><g id="elem_MaintenanceType"><rect codeLine="60" fill="#F1F1F1" height="48.4656" id="MaintenanceType" rx="2" ry="2" style="stroke:#181818;stroke-width:0.4000000000000001;" width="114.6313" x="493.2" y="157.6109"/><ellipse cx="505.2" cy="175.4438" fill="#ADD1B2" rx="8.8" ry="8.8" style="stroke:#181818;stroke-width:0.8000000000000002;"/><path d="M507.4125,172.1438 Q507.5375,171.9688 507.6875,171.8813 Q507.8375,171.7938 508.0125,171.7938 Q508.3125,171.7938 508.5,172.0063 Q508.6875,172.2063 508.6875,172.6938 L508.6875,173.8563 Q508.6875,174.3438 508.5,174.5563 Q508.3125,174.7688 508.0125,174.7688 Q507.7375,174.7688 507.575,174.6063 Q507.4125,174.4563 507.325,174.0438 Q507.2875,173.7563 507.1375,173.6063 Q506.875,173.3063 506.3875,173.1313 Q505.9,172.9563 505.4,172.9563 Q504.7875,172.9563 504.275,173.2188 Q503.775,173.4813 503.375,174.0813 Q502.9875,174.6813 502.9875,175.5063 L502.9875,176.3813 Q502.9875,177.3688 503.7,178.0313 Q504.4125,178.6813 505.6875,178.6813 Q506.4375,178.6813 506.9625,178.4813 Q507.275,178.3563 507.6125,178.0063 Q507.825,177.7938 507.9375,177.7313 Q508.0625,177.6688 508.225,177.6688 Q508.4875,177.6688 508.6875,177.8813 Q508.9,178.0813 508.9,178.3563 Q508.9,178.6313 508.625,178.9563 Q508.225,179.4188 507.5875,179.6813 Q506.725,180.0438 505.6875,180.0438 Q504.475,180.0438 503.5125,179.5438 Q502.725,179.1438 502.175,178.2938 Q501.625,177.4313 501.625,176.4063 L501.625,175.4813 Q501.625,174.4188 502.1125,173.5063 Q502.6125,172.5813 503.4875,172.0938 Q504.3625,171.5938 505.35,171.5938 Q505.9375,171.5938 506.45,171.7313 Q506.975,171.8563 507.4125,172.1438 Z " fill="#000000"/><text fill="#000000" font-family="sans-serif" font-size="9.6" font-style="italic" lengthAdjust="spacing" textLength="34.6875" x="543.5719" y="171.9703">&#171;Entity&#187;</text><text fill="#000000" font-family="sans-serif" font-size="11.2" lengthAdjust="spacing" textLength="89.0313" x="516.4" y="186.4656">MaintenanceType</text><line style="stroke:#181818;stroke-width:0.4000000000000001;" x1="494" x2="607.0313" y1="193.2766" y2="193.2766"/><line style="stroke:#181818;stroke-width:0.4000000000000001;" x1="494" x2="607.0313" y1="199.6766" y2="199.6766"/></g><!--class FigureVersionID--><g id="elem_FigureVersionID"><rect fill="#F1F1F1" height="38.4" id="FigureVersionID" rx="2" ry="2" style="stroke:#181818;stroke-width:0.4000000000000001;" width="106.5211" x="1678.8" y="288.4109"/><ellipse cx="1690.8" cy="301.2109" fill="#ADD1B2" rx="8.8" ry="8.8" style="stroke:#181818;stroke-width:0.8000000000000002;"/><path d="M1693.0125,297.9109 Q1693.1375,297.7359 1693.2875,297.6484 Q1693.4375,297.5609 1693.6125,297.5609 Q1693.9125,297.5609 1694.1,297.7734 Q1694.2875,297.9734 1694.2875,298.4609 L1694.2875,299.6234 Q1694.2875,300.1109 1694.1,300.3234 Q1693.9125,300.5359 1693.6125,300.5359 Q1693.3375,300.5359 1693.175,300.3734 Q1693.0125,300.2234 1692.925,299.8109 Q1692.8875,299.5234 1692.7375,299.3734 Q1692.475,299.0734 1691.9875,298.8984 Q1691.5,298.7234 1691,298.7234 Q1690.3875,298.7234 1689.875,298.9859 Q1689.375,299.2484 1688.975,299.8484 Q1688.5875,300.4484 1688.5875,301.2734 L1688.5875,302.1484 Q1688.5875,303.1359 1689.3,303.7984 Q1690.0125,304.4484 1691.2875,304.4484 Q1692.0375,304.4484 1692.5625,304.2484 Q1692.875,304.1234 1693.2125,303.7734 Q1693.425,303.5609 1693.5375,303.4984 Q1693.6625,303.4359 1693.825,303.4359 Q1694.0875,303.4359 1694.2875,303.6484 Q1694.5,303.8484 1694.5,304.1234 Q1694.5,304.3984 1694.225,304.7234 Q1693.825,305.1859 1693.1875,305.4484 Q1692.325,305.8109 1691.2875,305.8109 Q1690.075,305.8109 1689.1125,305.3109 Q1688.325,304.9109 1687.775,304.0609 Q1687.225,303.1984 1687.225,302.1734 L1687.225,301.2484 Q1687.225,300.1859 1687.7125,299.2734 Q1688.2125,298.3484 1689.0875,297.8609 Q1689.9625,297.3609 1690.95,297.3609 Q1691.5375,297.3609 1692.05,297.4984 Q1692.575,297.6234 1693.0125,297.9109 Z " fill="#000000"/><text fill="#000000" font-family="sans-serif" font-size="11.2" lengthAdjust="spacing" textLength="80.9211" x="1702" y="305.8484">FigureVersionID</text><line style="stroke:#181818;stroke-width:0.4000000000000001;" x1="1679.6" x2="1784.5211" y1="314.0109" y2="314.0109"/><line style="stroke:#181818;stroke-width:0.4000000000000001;" x1="1679.6" x2="1784.5211" y1="320.4109" y2="320.4109"/></g><!--class ShowRequestID--><g id="elem_ShowRequestID"><rect fill="#F1F1F1" height="38.4" id="ShowRequestID" rx="2" ry="2" style="stroke:#181818;stroke-width:0.4000000000000001;" width="106.532" x="1813.2" y="288.4109"/><ellipse cx="1825.2" cy="301.2109" fill="#ADD1B2" rx="8.8" ry="8.8" style="stroke:#181818;stroke-width:0.8000000000000002;"/><path d="M1827.4125,297.9109 Q1827.5375,297.7359 1827.6875,297.6484 Q1827.8375,297.5609 1828.0125,297.5609 Q1828.3125,297.5609 1828.5,297.7734 Q1828.6875,297.9734 1828.6875,298.4609 L1828.6875,299.6234 Q1828.6875,300.1109 1828.5,300.3234 Q1828.3125,300.5359 1828.0125,300.5359 Q1827.7375,300.5359 1827.575,300.3734 Q1827.4125,300.2234 1827.325,299.8109 Q1827.2875,299.5234 1827.1375,299.3734 Q1826.875,299.0734 1826.3875,298.8984 Q1825.9,298.7234 1825.4,298.7234 Q1824.7875,298.7234 1824.275,298.9859 Q1823.775,299.2484 1823.375,299.8484 Q1822.9875,300.4484 1822.9875,301.2734 L1822.9875,302.1484 Q1822.9875,303.1359 1823.7,303.7984 Q1824.4125,304.4484 1825.6875,304.4484 Q1826.4375,304.4484 1826.9625,304.2484 Q1827.275,304.1234 1827.6125,303.7734 Q1827.825,303.5609 1827.9375,303.4984 Q1828.0625,303.4359 1828.225,303.4359 Q1828.4875,303.4359 1828.6875,303.6484 Q1828.9,303.8484 1828.9,304.1234 Q1828.9,304.3984 1828.625,304.7234 Q1828.225,305.1859 1827.5875,305.4484 Q1826.725,305.8109 1825.6875,305.8109 Q1824.475,305.8109 1823.5125,305.3109 Q1822.725,304.9109 1822.175,304.0609 Q1821.625,303.1984 1821.625,302.1734 L1821.625,301.2484 Q1821.625,300.1859 1822.1125,299.2734 Q1822.6125,298.3484 1823.4875,297.8609 Q1824.3625,297.3609 1825.35,297.3609 Q1825.9375,297.3609 1826.45,297.4984 Q1826.975,297.6234 1827.4125,297.9109 Z " fill="#000000"/><text fill="#000000" font-family="sans-serif" font-size="11.2" lengthAdjust="spacing" textLength="80.932" x="1836.4" y="305.8484">ShowRequestID</text><line style="stroke:#181818;stroke-width:0.4000000000000001;" x1="1814" x2="1918.932" y1="314.0109" y2="314.0109"/><line style="stroke:#181818;stroke-width:0.4000000000000001;" x1="1814" x2="1918.932" y1="320.4109" y2="320.4109"/></g><!--class SimulationID--><g id="elem_SimulationID"><rect fill="#F1F1F1" height="38.4" id="SimulationID" rx="2" ry="2" style="stroke:#181818;stroke-width:0.4000000000000001;" width="89.0922" x="1947.6" y="288.4109"/><ellipse cx="1959.6" cy="301.2109" fill="#ADD1B2" rx="8.8" ry="8.8" style="stroke:#181818;stroke-width:0.8000000000000002;"/><path d="M1961.8125,297.9109 Q1961.9375,297.7359 1962.0875,297.6484 Q1962.2375,297.5609 1962.4125,297.5609 Q1962.7125,297.5609 1962.9,297.7734 Q1963.0875,297.9734 1963.0875,298.4609 L1963.0875,299.6234 Q1963.0875,300.1109 1962.9,300.3234 Q1962.7125,300.5359 1962.4125,300.5359 Q1962.1375,300.5359 1961.975,300.3734 Q1961.8125,300.2234 1961.725,299.8109 Q1961.6875,299.5234 1961.5375,299.3734 Q1961.275,299.0734 1960.7875,298.8984 Q1960.3,298.7234 1959.8,298.7234 Q1959.1875,298.7234 1958.675,298.9859 Q1958.175,299.2484 1957.775,299.8484 Q1957.3875,300.4484 1957.3875,301.2734 L1957.3875,302.1484 Q1957.3875,303.1359 1958.1,303.7984 Q1958.8125,304.4484 1960.0875,304.4484 Q1960.8375,304.4484 1961.3625,304.2484 Q1961.675,304.1234 1962.0125,303.7734 Q1962.225,303.5609 1962.3375,303.4984 Q1962.4625,303.4359 1962.625,303.4359 Q1962.8875,303.4359 1963.0875,303.6484 Q1963.3,303.8484 1963.3,304.1234 Q1963.3,304.3984 1963.025,304.7234 Q1962.625,305.1859 1961.9875,305.4484 Q1961.125,305.8109 1960.0875,305.8109 Q1958.875,305.8109 1957.9125,305.3109 Q1957.125,304.9109 1956.575,304.0609 Q1956.025,303.1984 1956.025,302.1734 L1956.025,301.2484 Q1956.025,300.1859 1956.5125,299.2734 Q1957.0125,298.3484 1957.8875,297.8609 Q1958.7625,297.3609 1959.75,297.3609 Q1960.3375,297.3609 1960.85,297.4984 Q1961.375,297.6234 1961.8125,297.9109 Z " fill="#000000"/><text fill="#000000" font-family="sans-serif" font-size="11.2" lengthAdjust="spacing" textLength="63.4922" x="1970.8" y="305.8484">SimulationID</text><line style="stroke:#181818;stroke-width:0.4000000000000001;" x1="1948.4" x2="2035.8922" y1="314.0109" y2="314.0109"/><line style="stroke:#181818;stroke-width:0.4000000000000001;" x1="1948.4" x2="2035.8922" y1="320.4109" y2="320.4109"/></g><!--class DomainDateTime--><g id="elem_DomainDateTime"><rect fill="#F1F1F1" height="38.4" id="DomainDateTime" rx="2" ry="2" style="stroke:#181818;stroke-width:0.4000000000000001;" width="112.7391" x="1850.8" y="429.6109"/><ellipse cx="1862.8" cy="442.4109" fill="#ADD1B2" rx="8.8" ry="8.8" style="stroke:#181818;stroke-width:0.8000000000000002;"/><path d="M1865.0125,439.1109 Q1865.1375,438.9359 1865.2875,438.8484 Q1865.4375,438.7609 1865.6125,438.7609 Q1865.9125,438.7609 1866.1,438.9734 Q1866.2875,439.1734 1866.2875,439.6609 L1866.2875,440.8234 Q1866.2875,441.3109 1866.1,441.5234 Q1865.9125,441.7359 1865.6125,441.7359 Q1865.3375,441.7359 1865.175,441.5734 Q1865.0125,441.4234 1864.925,441.0109 Q1864.8875,440.7234 1864.7375,440.5734 Q1864.475,440.2734 1863.9875,440.0984 Q1863.5,439.9234 1863,439.9234 Q1862.3875,439.9234 1861.875,440.1859 Q1861.375,440.4484 1860.975,441.0484 Q1860.5875,441.6484 1860.5875,442.4734 L1860.5875,443.3484 Q1860.5875,444.3359 1861.3,444.9984 Q1862.0125,445.6484 1863.2875,445.6484 Q1864.0375,445.6484 1864.5625,445.4484 Q1864.875,445.3234 1865.2125,444.9734 Q1865.425,444.7609 1865.5375,444.6984 Q1865.6625,444.6359 1865.825,444.6359 Q1866.0875,444.6359 1866.2875,444.8484 Q1866.5,445.0484 1866.5,445.3234 Q1866.5,445.5984 1866.225,445.9234 Q1865.825,446.3859 1865.1875,446.6484 Q1864.325,447.0109 1863.2875,447.0109 Q1862.075,447.0109 1861.1125,446.5109 Q1860.325,446.1109 1859.775,445.2609 Q1859.225,444.3984 1859.225,443.3734 L1859.225,442.4484 Q1859.225,441.3859 1859.7125,440.4734 Q1860.2125,439.5484 1861.0875,439.0609 Q1861.9625,438.5609 1862.95,438.5609 Q1863.5375,438.5609 1864.05,438.6984 Q1864.575,438.8234 1865.0125,439.1109 Z " fill="#000000"/><text fill="#000000" font-family="sans-serif" font-size="11.2" lengthAdjust="spacing" textLength="87.1391" x="1874" y="447.0484">DomainDateTime</text><line style="stroke:#181818;stroke-width:0.4000000000000001;" x1="1851.6" x2="1962.7391" y1="455.2109" y2="455.2109"/><line style="stroke:#181818;stroke-width:0.4000000000000001;" x1="1851.6" x2="1962.7391" y1="461.6109" y2="461.6109"/></g><g id="elem_GMN47"><path d="M1678.4,143.6109 L1678.4,220.775 L1909.0754,220.775 L1909.0754,151.6109 L1901.0754,143.6109 L1678.4,143.6109 " fill="#FEFFDD" style="stroke:#181818;stroke-width:0.4000000000000001;"/><path d="M1901.0754,143.6109 L1901.0754,151.6109 L1909.0754,151.6109 L1901.0754,143.6109 " fill="#FEFFDD" style="stroke:#181818;stroke-width:0.8000000000000002;"/><text fill="#000000" font-family="sans-serif" font-size="10.4" lengthAdjust="spacing" textLength="182.1117" x="1683.2" y="158.8336">The classes that are out of the blue box</text><text fill="#000000" font-family="sans-serif" font-size="10.4" lengthAdjust="spacing" textLength="186.1387" x="1683.2" y="172.6664">means they are in a different directory of</text><text fill="#000000" font-family="sans-serif" font-size="10.4" lengthAdjust="spacing" textLength="184.991" x="1683.2" y="186.4992">the project that is not that much relevant</text><text fill="#000000" font-family="sans-serif" font-size="10.4" lengthAdjust="spacing" textLength="120.2145" x="1683.2" y="200.332">for this specific user story.</text><text fill="#000000" font-family="sans-serif" font-size="10.4" lengthAdjust="spacing" textLength="213.8754" x="1683.2" y="214.1648">Check the domain model for more information.</text></g><!--link ShowProposal to FigureVersionID--><g id="link_ShowProposal_FigureVersionID"><path codeLine="30" d="M1512.448,182.0109 C1566.992,182.0109 1636.8,182.0109 1636.8,182.0109 C1636.8,182.0109 1636.8,307.6109 1636.8,307.6109 C1636.8,307.6109 1652.056,307.6109 1673.76,307.6109 " fill="none" id="ShowProposal-to-FigureVersionID" style="stroke:#181818;stroke-width:0.8000000000000002;"/><polygon fill="#181818" points="1678.56,307.6109,1671.36,304.4109,1674.56,307.6109,1671.36,310.8109,1678.56,307.6109" style="stroke:#181818;stroke-width:0.8000000000000002;"/><text fill="#000000" font-family="sans-serif" font-size="10.4" lengthAdjust="spacing" textLength="18.4996" x="1518.4931" y="179.094">1...*</text><text fill="#000000" font-family="sans-serif" font-size="10.4" lengthAdjust="spacing" textLength="18.4996" x="1653.9928" y="304.5757">1...*</text></g><!--reverse link ShowProposal to ShowRequestID--><g id="link_ShowProposal_ShowRequestID"><path codeLine="31" d="M1489,216.2349 C1489,236.5309 1489,252.4109 1489,252.4109 C1489,252.4109 1861,252.4109 1861,252.4109 C1861,252.4109 1861,272.3869 1861,288.3069 " fill="none" id="ShowProposal-backto-ShowRequestID" style="stroke:#181818;stroke-width:0.8000000000000002;"/><polygon fill="#181818" points="1489,206.6349,1485.8,211.4349,1489,216.2349,1492.2,211.4349,1489,206.6349" style="stroke:#181818;stroke-width:0.8000000000000002;"/></g><!--link ShowProposal to ShowProposalStatus--><g id="link_ShowProposal_ShowProposalStatus"><path codeLine="32" d="M1477.296,206.5229 C1477.296,224.0909 1477.296,243.3069 1477.296,263.5309 " fill="none" id="ShowProposal-to-ShowProposalStatus" style="stroke:#181818;stroke-width:0.8000000000000002;"/><polygon fill="#181818" points="1477.296,268.3309,1480.496,261.1309,1477.296,264.3309,1474.096,261.1309,1477.296,268.3309" style="stroke:#181818;stroke-width:0.8000000000000002;"/></g><!--reverse link ShowProposal to Video--><g id="link_ShowProposal_Video"><path codeLine="33" d="M1375.456,177.2109 C1225.24,177.2109 871.2,177.2109 871.2,177.2109 C871.2,177.2109 871.2,245.3069 871.2,283.0829 " fill="none" id="ShowProposal-backto-Video" style="stroke:#181818;stroke-width:0.8000000000000002;"/><polygon fill="#181818" points="1385.056,177.2109,1380.256,174.0109,1375.456,177.2109,1380.256,180.4109,1385.056,177.2109" style="stroke:#181818;stroke-width:0.8000000000000002;"/></g><!--reverse link ShowProposal to ShowProposalTemplate--><g id="link_ShowProposal_ShowProposalTemplate"><path codeLine="34" d="M1375.28,197.2109 C1300.624,197.2109 1196.8,197.2109 1196.8,197.2109 C1196.8,197.2109 1196.8,250.5869 1196.8,283.1069 " fill="none" id="ShowProposal-backto-ShowProposalTemplate" style="stroke:#181818;stroke-width:0.8000000000000002;"/><polygon fill="#181818" points="1384.88,197.2109,1380.08,194.0109,1375.28,197.2109,1380.08,200.4109,1384.88,197.2109" style="stroke:#181818;stroke-width:0.8000000000000002;"/></g><!--reverse link ShowProposal to ShowProposalTotalDrone--><g id="link_ShowProposal_ShowProposalTotalDrone"><path codeLine="35" d="M1375.576,187.6109 C1255.992,187.6109 1019.2,187.6109 1019.2,187.6109 C1019.2,187.6109 1019.2,247.9309 1019.2,283.0349 " fill="none" id="ShowProposal-backto-ShowProposalTotalDrone" style="stroke:#181818;stroke-width:0.8000000000000002;"/><polygon fill="#181818" points="1385.176,187.6109,1380.376,184.4109,1375.576,187.6109,1380.376,190.8109,1385.176,187.6109" style="stroke:#181818;stroke-width:0.8000000000000002;"/></g><!--link ShowProposal to SimulationID--><g id="link_ShowProposal_SimulationID"><path codeLine="36" d="M1500.704,206.6669 C1500.704,221.0589 1500.704,236.4109 1500.704,236.4109 C1500.704,236.4109 1992,236.4109 1992,236.4109 C1992,236.4109 1992,262.2749 1992,283.3549 " fill="none" id="ShowProposal-to-SimulationID" style="stroke:#181818;stroke-width:0.8000000000000002;"/><polygon fill="#181818" points="1992,288.1549,1995.2,280.9549,1992,284.1549,1988.8,280.9549,1992,288.1549" style="stroke:#181818;stroke-width:0.8000000000000002;"/><text fill="#000000" font-family="sans-serif" font-size="10.4" lengthAdjust="spacing" textLength="5.784" x="1504.1928" y="223.7416">1</text><text fill="#000000" font-family="sans-serif" font-size="10.4" lengthAdjust="spacing" textLength="18.4996" x="1971.334" y="279.4061">1...*</text></g><!--reverse link ShowProposal to ShowProposalDuration--><g id="link_ShowProposal_ShowProposalDuration"><path codeLine="37" d="M1411.2,216.1229 C1411.2,238.2589 1411.2,261.0429 1411.2,283.1549 " fill="none" id="ShowProposal-backto-ShowProposalDuration" style="stroke:#181818;stroke-width:0.8000000000000002;"/><polygon fill="#181818" points="1411.2,206.5229,1408,211.3229,1411.2,216.1229,1414.4,211.3229,1411.2,206.5229" style="stroke:#181818;stroke-width:0.8000000000000002;"/></g><!--reverse link ShowProposal to DomainDateTime--><g id="link_ShowProposal_DomainDateTime"><path codeLine="38" d="M1451.4,216.1469 C1451.4,281.0669 1451.4,442.8109 1451.4,442.8109 C1451.4,442.8109 1728.552,442.8109 1850.624,442.8109 " fill="none" id="ShowProposal-backto-DomainDateTime" style="stroke:#181818;stroke-width:0.8000000000000002;"/><polygon fill="#181818" points="1451.4,206.5469,1448.2,211.3469,1451.4,216.1469,1454.6,211.3469,1451.4,206.5469" style="stroke:#181818;stroke-width:0.8000000000000002;"/></g><!--reverse link ShowProposal to ShowProposalID--><g id="link_ShowProposal_ShowProposalID"><path codeLine="39" d="M1375.552,167.6109 C1202.456,167.6109 745.6,167.6109 745.6,167.6109 C745.6,167.6109 745.6,242.7149 745.6,282.9069 " fill="none" id="ShowProposal-backto-ShowProposalID" style="stroke:#181818;stroke-width:0.8000000000000002;"/><polygon fill="#181818" points="1385.152,167.6109,1380.352,164.4109,1375.552,167.6109,1380.352,170.8109,1385.152,167.6109" style="stroke:#181818;stroke-width:0.8000000000000002;"/></g><!--reverse link Drone to DroneSerialNumber--><g id="link_Drone_DroneSerialNumber"><path codeLine="63" d="M281.6,216.1229 C281.6,238.2589 281.6,261.0429 281.6,283.1549 " fill="none" id="Drone-backto-DroneSerialNumber" style="stroke:#181818;stroke-width:0.8000000000000002;"/><polygon fill="#181818" points="281.6,206.5229,278.4,211.3229,281.6,216.1229,284.8,211.3229,281.6,206.5229" style="stroke:#181818;stroke-width:0.8000000000000002;"/></g><!--reverse link Drone to DroneID--><g id="link_Drone_DroneID"><path codeLine="64" d="M354.872,194.8109 C389.28,194.8109 415.2,194.8109 415.2,194.8109 C415.2,194.8109 415.2,249.9629 415.2,283.1389 " fill="none" id="Drone-backto-DroneID" style="stroke:#181818;stroke-width:0.8000000000000002;"/><polygon fill="#181818" points="345.272,194.8109,350.072,198.0109,354.872,194.8109,350.072,191.6109,345.272,194.8109" style="stroke:#181818;stroke-width:0.8000000000000002;"/></g><!--link Drone to DroneModel--><g id="link_Drone_DroneModel"><path codeLine="65" d="M217.8,182.0109 C172.032,182.0109 118.4,182.0109 118.4,182.0109 C118.4,182.0109 118.4,241.7469 118.4,278.2989 " fill="none" id="Drone-to-DroneModel" style="stroke:#181818;stroke-width:0.8000000000000002;"/><polygon fill="#181818" points="118.4,283.0989,121.6,275.8989,118.4,279.0989,115.2,275.8989,118.4,283.0989" style="stroke:#181818;stroke-width:0.8000000000000002;"/></g><!--link Drone to DroneState--><g id="link_Drone_DroneState"><path codeLine="66" d="M345.416,182.0109 C348.656,182.0109 350.6,182.0109 350.6,182.0109 C350.6,182.0109 350.6,311.6909 350.6,389.6989 " fill="none" id="Drone-to-DroneState" style="stroke:#181818;stroke-width:0.8000000000000002;"/><polygon fill="#181818" points="350.6,394.4989,353.8,387.2989,350.6,390.4989,347.4,387.2989,350.6,394.4989" style="stroke:#181818;stroke-width:0.8000000000000002;"/></g><!--link Drone to DroneStateChange--><g id="link_Drone_DroneStateChange"><path codeLine="67" d="M345.48,170.0109 C406.68,170.0109 489.8,170.0109 489.8,170.0109 C489.8,170.0109 489.8,238.6349 489.8,278.2109 " fill="none" id="Drone-to-DroneStateChange" style="stroke:#181818;stroke-width:0.8000000000000002;"/><polygon fill="#181818" points="489.8,283.0109,493,275.8109,489.8,279.0109,486.6,275.8109,489.8,283.0109" style="stroke:#181818;stroke-width:0.8000000000000002;"/><text fill="#000000" font-family="sans-serif" font-size="10.4" lengthAdjust="spacing" textLength="15.6102" x="464.2821" y="275.6744">0..*</text></g><!--link DroneStateChange to DroneState--><g id="link_DroneStateChange_DroneState"><path codeLine="69" d="M526.936,332.0509 C526.936,359.0669 526.936,398.8109 526.936,398.8109 C526.936,398.8109 424.384,398.8109 360.856,398.8109 " fill="none" id="DroneStateChange-to-DroneState" style="stroke:#181818;stroke-width:0.8000000000000002;"/><polygon fill="#181818" points="356.056,398.8109,363.256,402.0109,360.056,398.8109,363.256,395.6109,356.056,398.8109" style="stroke:#181818;stroke-width:0.8000000000000002;"/></g><!--link DroneStateChange to DroneStateChangeReason--><g id="link_DroneStateChange_DroneStateChangeReason"><path codeLine="70" d="M567.464,332.2029 C567.464,351.4829 567.464,374.0749 567.464,397.4589 " fill="none" id="DroneStateChange-to-DroneStateChangeReason" style="stroke:#181818;stroke-width:0.8000000000000002;"/><polygon fill="#181818" points="567.464,402.2589,570.664,395.0589,567.464,398.2589,564.264,395.0589,567.464,402.2589" style="stroke:#181818;stroke-width:0.8000000000000002;"/></g><!--reverse link DroneStateChange to DomainDateTime--><g id="link_DroneStateChange_DomainDateTime"><path codeLine="71" d="M617.848,307.6109 C639.776,307.6109 649.6,307.6109 649.6,307.6109 C649.6,307.6109 649.6,455.6109 649.6,455.6109 C649.6,455.6109 1606.016,455.6109 1850.72,455.6109 " fill="none" id="DroneStateChange-backto-DomainDateTime" style="stroke:#181818;stroke-width:0.8000000000000002;"/><polygon fill="#181818" points="608.248,307.6109,613.048,310.8109,617.848,307.6109,613.048,304.4109,608.248,307.6109" style="stroke:#181818;stroke-width:0.8000000000000002;"/></g><!--reverse link DroneModel to DroneModelID--><g id="link_DroneModel_DroneModelID"><path codeLine="73" d="M118.4,341.8029 C118.4,367.6429 118.4,398.4429 118.4,424.2589 " fill="none" id="DroneModel-backto-DroneModelID" style="stroke:#181818;stroke-width:0.8000000000000002;"/><polygon fill="#181818" points="118.4,332.2029,115.2,337.0029,118.4,341.8029,121.6,337.0029,118.4,332.2029" style="stroke:#181818;stroke-width:0.8000000000000002;"/></g><!--link MaintenanceType to GMN47--><g id="link_MaintenanceType_GMN47"><path d="M550.4,206.5869 C550.4,210.8829 550.4,214.0109 550.4,214.0109 C550.4,214.0109 1370.12,214.0109 1678.312,214.0109 " fill="none" id="MaintenanceType-GMN47" style="stroke:#181818;stroke-width:0.8000000000000002;stroke-dasharray:7.0,7.0;"/></g><!--SRC=[ZLLBRvj04BxlhrYvjoX6xQNg8Of4W5HKjHFPrFSrZ64RTfVk8wrLvRztTd4S6-FKYCFipZVlRy0ySTanpGHjkGIxxO0gRHj5YDbhEbO-iHheNqBf7SgrLavMYMgLfX_Iprby_yLhbAv0zxTtBSB82mdFg_d4DAhIIa9KAWqHddvtMdNAi5OmYGW1qaQL4epB2RsvYUjQGyqitDvYQ5Asp1YwHAl7dHLYCccvtLxJFNQXbFNubn5ydgB5YhKE7jO_eJp2hNW5whpwq4sXB6jJNyY5U11TYwbTXawTPfOhUHbwl2G2qeaZtD8owqnec1EXdt6IP8z5bbwJHVOjIr3oyyBtgCEJJr4KNKteT7gxb-zvxJIiG1jCCq-F3Qwcqn1u0RyS63jK1qSZcGrGtai_aZ75M7F_YziFRLZWSN5BBbmR1d2kik6WJb5fe72AMHLSmFjUCChP3GaYby-u5aflBzWHYa_FaLTwlhCV0_1CLV2sKQCGFoeuv13TFN5IvAjiVypdWuiqdiLVaM2lvrcSpuji7i-J7dCQ2JHdxTo9DUWnWe_bFhuA0-H5e51dqZ1PmmKDwO4BO2OixKbpxkFy-uz5ThRuqA0iUPZDykKoVvYVT6I6ixOWcIoXyD_duvHmO_jX1-ODcpVK8Ttw6y_vjzuDBqDX1vUJZs4vXaNlGX_sQyp5UVrXxqwn8xj43hYwBsetVbmagP2WcjUD9KK3VV_0KDimIvd6NvkpL6tm37ID7A1hzOS8OD93O1iWN596AxxPWCPLGqaZJN3zq8vuE_nbUUBqFhcX6BANXIiRgg65PoOjsU1Vq3QeDnsKVCDBwWnosNXN4KaQA9z26lqgKn4gyaP2XIHG5E7p4k77lF9Hu1y0]--></g></svg>