<svg xmlns="http://www.w3.org/2000/svg" xmlns:xlink="http://www.w3.org/1999/xlink" contentStyleType="text/css" height="437px" preserveAspectRatio="none" style="width:549px;height:437px;background:#FFFFFF;" version="1.1" viewBox="0 0 549 437" width="549px" zoomAndPan="magnify"><defs/><g><rect fill="#FFFFFF" height="251.3281" style="stroke:#181818;stroke-width:1.0;" width="10" x="59.0171" y="93.6211"/><rect fill="#FFFFFF" height="31.291" style="stroke:#181818;stroke-width:1.0;" width="10" x="506.3701" y="116.9121"/><rect fill="#FFFFFF" height="31.291" style="stroke:#181818;stroke-width:1.0;" width="10" x="506.3701" y="179.4941"/><rect fill="#FFFFFF" height="31.291" style="stroke:#181818;stroke-width:1.0;" width="10" x="506.3701" y="242.0762"/><rect fill="#FFFFFF" height="40.291" style="stroke:#181818;stroke-width:1.0;" width="10" x="506.3701" y="304.6582"/><line style="stroke:#181818;stroke-width:0.5;stroke-dasharray:5.0,5.0;" x1="64" x2="64" y1="83.6211" y2="353.9492"/><line style="stroke:#181818;stroke-width:0.5;stroke-dasharray:5.0,5.0;" x1="511.0874" x2="511.0874" y1="83.6211" y2="353.9492"/><text fill="#000000" font-family="sans-serif" font-size="14" lengthAdjust="spacing" textLength="112.0342" x="5" y="80.1074">CRM Collaborator</text><ellipse cx="64.0171" cy="13.5" fill="#E2E2F0" rx="8" ry="8" style="stroke:#181818;stroke-width:0.5;"/><path d="M64.0171,21.5 L64.0171,48.5 M51.0171,29.5 L77.0171,29.5 M64.0171,48.5 L51.0171,63.5 M64.0171,48.5 L77.0171,63.5 " fill="none" style="stroke:#181818;stroke-width:0.5;"/><text fill="#000000" font-family="sans-serif" font-size="14" lengthAdjust="spacing" textLength="112.0342" x="5" y="368.0566">CRM Collaborator</text><ellipse cx="64.0171" cy="380.0703" fill="#E2E2F0" rx="8" ry="8" style="stroke:#181818;stroke-width:0.5;"/><path d="M64.0171,388.0703 L64.0171,415.0703 M51.0171,396.0703 L77.0171,396.0703 M64.0171,415.0703 L51.0171,430.0703 M64.0171,415.0703 L77.0171,430.0703 " fill="none" style="stroke:#181818;stroke-width:0.5;"/><rect fill="#E2E2F0" height="32.6211" rx="2.5" ry="2.5" style="stroke:#181818;stroke-width:0.5;" width="64.5654" x="479.0874" y="50"/><text fill="#000000" font-family="sans-serif" font-size="14" lengthAdjust="spacing" textLength="50.5654" x="486.0874" y="72.1074">:System</text><rect fill="#E2E2F0" height="32.6211" rx="2.5" ry="2.5" style="stroke:#181818;stroke-width:0.5;" width="64.5654" x="479.0874" y="352.9492"/><text fill="#000000" font-family="sans-serif" font-size="14" lengthAdjust="spacing" textLength="50.5654" x="486.0874" y="375.0566">:System</text><rect fill="#FFFFFF" height="251.3281" style="stroke:#181818;stroke-width:1.0;" width="10" x="59.0171" y="93.6211"/><rect fill="#FFFFFF" height="31.291" style="stroke:#181818;stroke-width:1.0;" width="10" x="506.3701" y="116.9121"/><rect fill="#FFFFFF" height="31.291" style="stroke:#181818;stroke-width:1.0;" width="10" x="506.3701" y="179.4941"/><rect fill="#FFFFFF" height="31.291" style="stroke:#181818;stroke-width:1.0;" width="10" x="506.3701" y="242.0762"/><rect fill="#FFFFFF" height="40.291" style="stroke:#181818;stroke-width:1.0;" width="10" x="506.3701" y="304.6582"/><polygon fill="#181818" points="494.3701,112.9121,504.3701,116.9121,494.3701,120.9121,498.3701,116.9121" style="stroke:#181818;stroke-width:1.0;"/><line style="stroke:#181818;stroke-width:1.0;" x1="69.0171" x2="500.3701" y1="116.9121" y2="116.9121"/><text fill="#000000" font-family="sans-serif" font-size="13" lengthAdjust="spacing" textLength="72.2617" x="76.0171" y="111.6494">asks to login</text><polygon fill="#181818" points="80.0171,144.2031,70.0171,148.2031,80.0171,152.2031,76.0171,148.2031" style="stroke:#181818;stroke-width:1.0;"/><line style="stroke:#181818;stroke-width:1.0;stroke-dasharray:2.0,2.0;" x1="74.0171" x2="510.3701" y1="148.2031" y2="148.2031"/><text fill="#000000" font-family="sans-serif" font-size="13" lengthAdjust="spacing" textLength="146.6943" x="86.0171" y="142.9404">Authentication successful</text><polygon fill="#181818" points="494.3701,175.4941,504.3701,179.4941,494.3701,183.4941,498.3701,179.4941" style="stroke:#181818;stroke-width:1.0;"/><line style="stroke:#181818;stroke-width:1.0;" x1="69.0171" x2="500.3701" y1="179.4941" y2="179.4941"/><text fill="#000000" font-family="sans-serif" font-size="13" lengthAdjust="spacing" textLength="222.5806" x="76.0171" y="174.2314">asks to add drones to a show proposal</text><polygon fill="#181818" points="80.0171,206.7852,70.0171,210.7852,80.0171,214.7852,76.0171,210.7852" style="stroke:#181818;stroke-width:1.0;"/><line style="stroke:#181818;stroke-width:1.0;stroke-dasharray:2.0,2.0;" x1="74.0171" x2="510.3701" y1="210.7852" y2="210.7852"/><text fill="#000000" font-family="sans-serif" font-size="13" lengthAdjust="spacing" textLength="413.353" x="86.0171" y="205.5225">shows all available drones and asks to select the drones that he desires</text><polygon fill="#181818" points="494.3701,238.0762,504.3701,242.0762,494.3701,246.0762,498.3701,242.0762" style="stroke:#181818;stroke-width:1.0;"/><line style="stroke:#181818;stroke-width:1.0;" x1="69.0171" x2="500.3701" y1="242.0762" y2="242.0762"/><text fill="#000000" font-family="sans-serif" font-size="13" lengthAdjust="spacing" textLength="83.8208" x="76.0171" y="236.8135">selects drones</text><polygon fill="#181818" points="80.0171,269.3672,70.0171,273.3672,80.0171,277.3672,76.0171,273.3672" style="stroke:#181818;stroke-width:1.0;"/><line style="stroke:#181818;stroke-width:1.0;stroke-dasharray:2.0,2.0;" x1="74.0171" x2="510.3701" y1="273.3672" y2="273.3672"/><text fill="#000000" font-family="sans-serif" font-size="13" lengthAdjust="spacing" textLength="119.9326" x="86.0171" y="268.1045">asks for confirmation</text><polygon fill="#181818" points="494.3701,300.6582,504.3701,304.6582,494.3701,308.6582,498.3701,304.6582" style="stroke:#181818;stroke-width:1.0;"/><line style="stroke:#181818;stroke-width:1.0;" x1="69.0171" x2="500.3701" y1="304.6582" y2="304.6582"/><text fill="#000000" font-family="sans-serif" font-size="13" lengthAdjust="spacing" textLength="49.1182" x="76.0171" y="299.3955">confirms</text><polygon fill="#181818" points="80.0171,331.9492,70.0171,335.9492,80.0171,339.9492,76.0171,335.9492" style="stroke:#181818;stroke-width:1.0;"/><line style="stroke:#181818;stroke-width:1.0;stroke-dasharray:2.0,2.0;" x1="74.0171" x2="505.3701" y1="335.9492" y2="335.9492"/><text fill="#000000" font-family="sans-serif" font-size="13" lengthAdjust="spacing" textLength="155.3589" x="86.0171" y="330.6865">displays operation success</text><!--SRC=[ZL4xRiCm3Drz2i9xBk2XG94vIti2Lg9heemeY7I2tBwohQHeWIBU-7a_a1XS2_J7jnCSLGG_j62Tz806TTXbBCw1CoQ7VdY_cTDvNMvbrs5mlg3JYbva3Yzj1qF5VHcuWkWdfnzeupROeJ8MuW2liq-KgXywQmARGo2pSPOkqb_oVrOO8yIYYROERD8hvA9P3ULvX0LkW2A05-Hw3w6x7ARuS34I2WurxiDiGeUb9UD2jYFnfc5Du7cqrNkitmgQHYxdzKWxV1fyXqDaou8t0yrKVltW6m00]--></g></svg>