<?xml version="1.0" encoding="us-ascii" standalone="no"?><svg xmlns="http://www.w3.org/2000/svg" xmlns:xlink="http://www.w3.org/1999/xlink" contentStyleType="text/css" height="1037px" preserveAspectRatio="none" style="width:1261px;height:1037px;background:#FFFFFF;" version="1.1" viewBox="0 0 1261 1037" width="1261px" zoomAndPan="magnify"><defs/><g><rect fill="#FFFFFF" height="805.1973" style="stroke:#181818;stroke-width:1.0;" width="10" x="77.5" y="112.2422"/><rect fill="#FFFFFF" height="201.707" style="stroke:#181818;stroke-width:1.0;" width="10" x="380.5" y="135.5332"/><rect fill="#FFFFFF" height="93.873" style="stroke:#181818;stroke-width:1.0;" width="10" x="380.5" y="368.5313"/><rect fill="#FFFFFF" height="298.5801" style="stroke:#181818;stroke-width:1.0;" width="10" x="380.5" y="493.6953"/><rect fill="#FFFFFF" height="93.873" style="stroke:#181818;stroke-width:1.0;" width="10" x="380.5" y="823.5664"/><rect fill="#FFFFFF" height="95.5039" style="stroke:#181818;stroke-width:1.0;" width="10" x="609.5" y="210.4453"/><rect fill="#FFFFFF" height="31.291" style="stroke:#181818;stroke-width:1.0;" width="10" x="609.5" y="399.8223"/><rect fill="#FFFFFF" height="204.707" style="stroke:#181818;stroke-width:1.0;" width="10" x="609.5" y="524.9863"/><rect fill="#FFFFFF" height="31.291" style="stroke:#181818;stroke-width:1.0;" width="10" x="609.5" y="854.8574"/><rect fill="#FFFFFF" height="31.291" style="stroke:#181818;stroke-width:1.0;" width="10" x="882" y="556.2773"/><rect fill="#FFFFFF" height="79.543" style="stroke:#181818;stroke-width:1.0;" width="10" x="1164" y="618.8594"/><line style="stroke:#181818;stroke-width:0.5;stroke-dasharray:5.0,5.0;" x1="82" x2="82" y1="102.2422" y2="935.4395"/><line style="stroke:#181818;stroke-width:0.5;stroke-dasharray:5.0,5.0;" x1="385.5" x2="385.5" y1="102.2422" y2="935.4395"/><line style="stroke:#181818;stroke-width:0.5;stroke-dasharray:5.0,5.0;" x1="614.5" x2="614.5" y1="175.3438" y2="935.4395"/><line style="stroke:#181818;stroke-width:0.5;stroke-dasharray:5.0,5.0;" x1="779.5" x2="779.5" y1="102.2422" y2="935.4395"/><line style="stroke:#181818;stroke-width:0.5;stroke-dasharray:5.0,5.0;" x1="886.5" x2="886.5" y1="102.2422" y2="935.4395"/><line style="stroke:#181818;stroke-width:0.5;stroke-dasharray:5.0,5.0;" x1="1010.5" x2="1010.5" y1="102.2422" y2="935.4395"/><line style="stroke:#181818;stroke-width:0.5;stroke-dasharray:5.0,5.0;" x1="1168.5" x2="1168.5" y1="102.2422" y2="935.4395"/><text fill="#000000" font-family="sans-serif" font-size="14" lengthAdjust="spacing" textLength="145" x="5" y="80.1074">Vehicle and Equipment</text><text fill="#000000" font-family="sans-serif" font-size="14" lengthAdjust="spacing" textLength="135" x="12" y="98.7285">Fleet Manager (VFM)</text><ellipse cx="82.5" cy="13.5" fill="#E3E3E3" rx="8" ry="8" style="stroke:#181818;stroke-width:0.5;"/><path d="M82.5,21.5 L82.5,48.5 M69.5,29.5 L95.5,29.5 M82.5,48.5 L69.5,63.5 M82.5,48.5 L95.5,63.5 " fill="none" style="stroke:#181818;stroke-width:0.5;"/><text fill="#000000" font-family="sans-serif" font-size="14" lengthAdjust="spacing" textLength="145" x="5" y="949.5469">Vehicle and Equipment</text><text fill="#000000" font-family="sans-serif" font-size="14" lengthAdjust="spacing" textLength="135" x="12" y="968.168">Fleet Manager (VFM)</text><ellipse cx="82.5" cy="980.1816" fill="#E3E3E3" rx="8" ry="8" style="stroke:#181818;stroke-width:0.5;"/><path d="M82.5,988.1816 L82.5,1015.1816 M69.5,996.1816 L95.5,996.1816 M82.5,1015.1816 L69.5,1030.1816 M82.5,1015.1816 L95.5,1030.1816 " fill="none" style="stroke:#181818;stroke-width:0.5;"/><rect fill="#E3E3E3" height="32.6211" rx="2.5" ry="2.5" style="stroke:#181818;stroke-width:0.5;" width="164" x="303.5" y="68.6211"/><text fill="#000000" font-family="sans-serif" font-size="14" lengthAdjust="spacing" textLength="150" x="310.5" y="90.7285">:RegisterMaintenanceUI</text><rect fill="#E3E3E3" height="32.6211" rx="2.5" ry="2.5" style="stroke:#181818;stroke-width:0.5;" width="164" x="303.5" y="934.4395"/><text fill="#000000" font-family="sans-serif" font-size="14" lengthAdjust="spacing" textLength="150" x="310.5" y="956.5469">:RegisterMaintenanceUI</text><rect fill="#E3E3E3" height="32.6211" rx="2.5" ry="2.5" style="stroke:#181818;stroke-width:0.5;" width="214" x="507.5" y="934.4395"/><text fill="#000000" font-family="sans-serif" font-size="14" lengthAdjust="spacing" textLength="200" x="514.5" y="956.5469">:RegisterMaintenanceController</text><rect fill="#E3E3E3" height="32.6211" rx="2.5" ry="2.5" style="stroke:#181818;stroke-width:0.5;" width="97" x="731.5" y="68.6211"/><text fill="#000000" font-family="sans-serif" font-size="14" lengthAdjust="spacing" textLength="83" x="738.5" y="90.7285">:Repositories</text><rect fill="#E3E3E3" height="32.6211" rx="2.5" ry="2.5" style="stroke:#181818;stroke-width:0.5;" width="97" x="731.5" y="934.4395"/><text fill="#000000" font-family="sans-serif" font-size="14" lengthAdjust="spacing" textLength="83" x="738.5" y="956.5469">:Repositories</text><rect fill="#E3E3E3" height="51.2422" rx="2.5" ry="2.5" style="stroke:#181818;stroke-width:0.5;" width="97" x="838.5" y="50"/><text fill="#000000" font-family="sans-serif" font-size="14" lengthAdjust="spacing" textLength="74" x="850" y="72.1074">repositories</text><text fill="#000000" font-family="sans-serif" font-size="14" lengthAdjust="spacing" textLength="83" x="845.5" y="90.7285">:Repositories</text><rect fill="#E3E3E3" height="51.2422" rx="2.5" ry="2.5" style="stroke:#181818;stroke-width:0.5;" width="97" x="838.5" y="934.4395"/><text fill="#000000" font-family="sans-serif" font-size="14" lengthAdjust="spacing" textLength="74" x="850" y="956.5469">repositories</text><text fill="#000000" font-family="sans-serif" font-size="14" lengthAdjust="spacing" textLength="83" x="845.5" y="975.168">:Repositories</text><rect fill="#E3E3E3" height="51.2422" rx="2.5" ry="2.5" style="stroke:#181818;stroke-width:0.5;" width="130" x="945.5" y="50"/><text fill="#000000" font-family="sans-serif" font-size="14" lengthAdjust="spacing" textLength="116" x="952.5" y="72.1074">vehicleRepository:</text><text fill="#000000" font-family="sans-serif" font-size="14" lengthAdjust="spacing" textLength="114" x="953.5" y="90.7285">VehicleRepository</text><rect fill="#E3E3E3" height="51.2422" rx="2.5" ry="2.5" style="stroke:#181818;stroke-width:0.5;" width="130" x="945.5" y="934.4395"/><text fill="#000000" font-family="sans-serif" font-size="14" lengthAdjust="spacing" textLength="116" x="952.5" y="956.5469">vehicleRepository:</text><text fill="#000000" font-family="sans-serif" font-size="14" lengthAdjust="spacing" textLength="114" x="953.5" y="975.168">VehicleRepository</text><rect fill="#E3E3E3" height="51.2422" rx="2.5" ry="2.5" style="stroke:#181818;stroke-width:0.5;" width="167" x="1085.5" y="50"/><text fill="#000000" font-family="sans-serif" font-size="14" lengthAdjust="spacing" textLength="153" x="1092.5" y="72.1074">maintenanceRepository:</text><text fill="#000000" font-family="sans-serif" font-size="14" lengthAdjust="spacing" textLength="149" x="1094.5" y="90.7285">MaintenanceRepository</text><rect fill="#E3E3E3" height="51.2422" rx="2.5" ry="2.5" style="stroke:#181818;stroke-width:0.5;" width="167" x="1085.5" y="934.4395"/><text fill="#000000" font-family="sans-serif" font-size="14" lengthAdjust="spacing" textLength="153" x="1092.5" y="956.5469">maintenanceRepository:</text><text fill="#000000" font-family="sans-serif" font-size="14" lengthAdjust="spacing" textLength="149" x="1094.5" y="975.168">MaintenanceRepository</text><rect fill="#FFFFFF" height="805.1973" style="stroke:#181818;stroke-width:1.0;" width="10" x="77.5" y="112.2422"/><rect fill="#FFFFFF" height="201.707" style="stroke:#181818;stroke-width:1.0;" width="10" x="380.5" y="135.5332"/><rect fill="#FFFFFF" height="93.873" style="stroke:#181818;stroke-width:1.0;" width="10" x="380.5" y="368.5313"/><rect fill="#FFFFFF" height="298.5801" style="stroke:#181818;stroke-width:1.0;" width="10" x="380.5" y="493.6953"/><rect fill="#FFFFFF" height="93.873" style="stroke:#181818;stroke-width:1.0;" width="10" x="380.5" y="823.5664"/><rect fill="#FFFFFF" height="95.5039" style="stroke:#181818;stroke-width:1.0;" width="10" x="609.5" y="210.4453"/><rect fill="#FFFFFF" height="31.291" style="stroke:#181818;stroke-width:1.0;" width="10" x="609.5" y="399.8223"/><rect fill="#FFFFFF" height="204.707" style="stroke:#181818;stroke-width:1.0;" width="10" x="609.5" y="524.9863"/><rect fill="#FFFFFF" height="31.291" style="stroke:#181818;stroke-width:1.0;" width="10" x="609.5" y="854.8574"/><rect fill="#FFFFFF" height="31.291" style="stroke:#181818;stroke-width:1.0;" width="10" x="882" y="556.2773"/><rect fill="#FFFFFF" height="79.543" style="stroke:#181818;stroke-width:1.0;" width="10" x="1164" y="618.8594"/><polygon fill="#181818" points="368.5,131.5332,378.5,135.5332,368.5,139.5332,372.5,135.5332" style="stroke:#181818;stroke-width:1.0;"/><line style="stroke:#181818;stroke-width:1.0;" x1="87.5" x2="374.5" y1="135.5332" y2="135.5332"/><text fill="#000000" font-family="sans-serif" font-size="13" font-weight="bold" lengthAdjust="spacing" textLength="7" x="94.5" y="130.2705">1</text><text fill="#000000" font-family="sans-serif" font-size="13" lengthAdjust="spacing" textLength="263" x="105.5" y="130.2705">requests to list vehicles needing maintenance</text><polygon fill="#181818" points="495.5,162.8242,505.5,166.8242,495.5,170.8242,499.5,166.8242" style="stroke:#181818;stroke-width:1.0;"/><line style="stroke:#181818;stroke-width:1.0;" x1="390.5" x2="501.5" y1="166.8242" y2="166.8242"/><text fill="#000000" font-family="sans-serif" font-size="13" font-weight="bold" lengthAdjust="spacing" textLength="7" x="397.5" y="161.5615">2</text><text fill="#000000" font-family="sans-serif" font-size="13" lengthAdjust="spacing" textLength="36" x="408.5" y="161.5615">create</text><rect fill="#E3E3E3" height="32.6211" rx="2.5" ry="2.5" style="stroke:#181818;stroke-width:0.5;" width="214" x="507.5" y="143.5332"/><text fill="#000000" font-family="sans-serif" font-size="14" lengthAdjust="spacing" textLength="200" x="514.5" y="165.6406">:RegisterMaintenanceController</text><polygon fill="#181818" points="597.5,206.4453,607.5,210.4453,597.5,214.4453,601.5,210.4453" style="stroke:#181818;stroke-width:1.0;"/><line style="stroke:#181818;stroke-width:1.0;" x1="390.5" x2="603.5" y1="210.4453" y2="210.4453"/><text fill="#000000" font-family="sans-serif" font-size="13" font-weight="bold" lengthAdjust="spacing" textLength="7" x="397.5" y="205.1826">3</text><text fill="#000000" font-family="sans-serif" font-size="13" lengthAdjust="spacing" textLength="97" x="408.5" y="205.1826">getVehiclesList()</text><rect fill="none" height="59.2129" style="stroke:#000000;stroke-width:1.5;" width="220" x="504.5" y="218.4453"/><path d="M504.5,218.4453 L566.5,218.4453 L566.5,227.4453 L556.5,237.4453 L504.5,237.4453 L504.5,218.4453 " fill="#EEEEEE" style="stroke:#000000;stroke-width:2.0;"/><text fill="#000000" font-family="sans-serif" font-size="13" font-weight="bold" lengthAdjust="spacing" textLength="17" x="517.5" y="234.4736">ref</text><text fill="#000000" font-family="sans-serif" font-size="12" lengthAdjust="spacing" textLength="85" x="572" y="254.3945">Get Vehicle List</text><text fill="#000000" font-family="sans-serif" font-size="12" lengthAdjust="spacing" textLength="3" x="613" y="270.3555">&#160;</text><polygon fill="#181818" points="401.5,301.9492,391.5,305.9492,401.5,309.9492,397.5,305.9492" style="stroke:#181818;stroke-width:1.0;"/><line style="stroke:#181818;stroke-width:1.0;stroke-dasharray:2.0,2.0;" x1="395.5" x2="613.5" y1="305.9492" y2="305.9492"/><text fill="#000000" font-family="sans-serif" font-size="13" font-weight="bold" lengthAdjust="spacing" textLength="7" x="407.5" y="300.6865">4</text><text fill="#000000" font-family="sans-serif" font-size="13" lengthAdjust="spacing" textLength="60" x="418.5" y="300.6865">vehicleList</text><polygon fill="#181818" points="98.5,333.2402,88.5,337.2402,98.5,341.2402,94.5,337.2402" style="stroke:#181818;stroke-width:1.0;"/><line style="stroke:#181818;stroke-width:1.0;stroke-dasharray:2.0,2.0;" x1="92.5" x2="384.5" y1="337.2402" y2="337.2402"/><text fill="#000000" font-family="sans-serif" font-size="13" font-weight="bold" lengthAdjust="spacing" textLength="7" x="104.5" y="331.9775">5</text><text fill="#000000" font-family="sans-serif" font-size="13" lengthAdjust="spacing" textLength="116" x="115.5" y="331.9775">displays vehicle List</text><polygon fill="#181818" points="368.5,364.5313,378.5,368.5313,368.5,372.5313,372.5,368.5313" style="stroke:#181818;stroke-width:1.0;"/><line style="stroke:#181818;stroke-width:1.0;" x1="87.5" x2="374.5" y1="368.5313" y2="368.5313"/><text fill="#000000" font-family="sans-serif" font-size="13" font-weight="bold" lengthAdjust="spacing" textLength="7" x="94.5" y="363.2686">6</text><text fill="#000000" font-family="sans-serif" font-size="13" lengthAdjust="spacing" textLength="94" x="105.5" y="363.2686">Chooses vehicle</text><polygon fill="#181818" points="597.5,395.8223,607.5,399.8223,597.5,403.8223,601.5,399.8223" style="stroke:#181818;stroke-width:1.0;"/><line style="stroke:#181818;stroke-width:1.0;" x1="390.5" x2="603.5" y1="399.8223" y2="399.8223"/><text fill="#000000" font-family="sans-serif" font-size="13" font-weight="bold" lengthAdjust="spacing" textLength="7" x="397.5" y="394.5596">7</text><text fill="#000000" font-family="sans-serif" font-size="13" lengthAdjust="spacing" textLength="39" x="408.5" y="394.5596">vehicle</text><polygon fill="#181818" points="401.5,427.1133,391.5,431.1133,401.5,435.1133,397.5,431.1133" style="stroke:#181818;stroke-width:1.0;"/><line style="stroke:#181818;stroke-width:1.0;stroke-dasharray:2.0,2.0;" x1="395.5" x2="613.5" y1="431.1133" y2="431.1133"/><text fill="#000000" font-family="sans-serif" font-size="13" font-weight="bold" lengthAdjust="spacing" textLength="7" x="407.5" y="425.8506">8</text><text fill="#000000" font-family="sans-serif" font-size="13" lengthAdjust="spacing" textLength="184" x="418.5" y="425.8506">requests data(date, current Km)</text><polygon fill="#181818" points="98.5,458.4043,88.5,462.4043,98.5,466.4043,94.5,462.4043" style="stroke:#181818;stroke-width:1.0;"/><line style="stroke:#181818;stroke-width:1.0;stroke-dasharray:2.0,2.0;" x1="92.5" x2="384.5" y1="462.4043" y2="462.4043"/><text fill="#000000" font-family="sans-serif" font-size="13" font-weight="bold" lengthAdjust="spacing" textLength="7" x="104.5" y="457.1416">9</text><text fill="#000000" font-family="sans-serif" font-size="13" lengthAdjust="spacing" textLength="188" x="115.5" y="457.1416">requests data (date, current Km)</text><polygon fill="#181818" points="368.5,489.6953,378.5,493.6953,368.5,497.6953,372.5,493.6953" style="stroke:#181818;stroke-width:1.0;"/><line style="stroke:#181818;stroke-width:1.0;" x1="87.5" x2="374.5" y1="493.6953" y2="493.6953"/><text fill="#000000" font-family="sans-serif" font-size="13" font-weight="bold" lengthAdjust="spacing" textLength="14" x="94.5" y="488.4326">10</text><text fill="#000000" font-family="sans-serif" font-size="13" lengthAdjust="spacing" textLength="173" x="112.5" y="488.4326">Types data (date, current Km)</text><polygon fill="#181818" points="597.5,520.9863,607.5,524.9863,597.5,528.9863,601.5,524.9863" style="stroke:#181818;stroke-width:1.0;"/><line style="stroke:#181818;stroke-width:1.0;" x1="390.5" x2="603.5" y1="524.9863" y2="524.9863"/><text fill="#000000" font-family="sans-serif" font-size="13" font-weight="bold" lengthAdjust="spacing" textLength="14" x="397.5" y="519.7236">11</text><text fill="#000000" font-family="sans-serif" font-size="13" lengthAdjust="spacing" textLength="134" x="415.5" y="519.7236">data (date, current Km)</text><polygon fill="#181818" points="870,552.2773,880,556.2773,870,560.2773,874,556.2773" style="stroke:#181818;stroke-width:1.0;"/><line style="stroke:#181818;stroke-width:1.0;" x1="619.5" x2="876" y1="556.2773" y2="556.2773"/><text fill="#000000" font-family="sans-serif" font-size="13" font-weight="bold" lengthAdjust="spacing" textLength="14" x="626.5" y="551.0146">12</text><text fill="#000000" font-family="sans-serif" font-size="13" lengthAdjust="spacing" textLength="162" x="644.5" y="551.0146">getMaintenanceRepository()</text><polygon fill="#181818" points="630.5,583.5684,620.5,587.5684,630.5,591.5684,626.5,587.5684" style="stroke:#181818;stroke-width:1.0;"/><line style="stroke:#181818;stroke-width:1.0;stroke-dasharray:2.0,2.0;" x1="624.5" x2="886" y1="587.5684" y2="587.5684"/><text fill="#000000" font-family="sans-serif" font-size="13" font-weight="bold" lengthAdjust="spacing" textLength="14" x="636.5" y="582.3057">13</text><text fill="#000000" font-family="sans-serif" font-size="13" lengthAdjust="spacing" textLength="136" x="654.5" y="582.3057">MaintenanceRepository</text><polygon fill="#181818" points="1152,614.8594,1162,618.8594,1152,622.8594,1156,618.8594" style="stroke:#181818;stroke-width:1.0;"/><line style="stroke:#181818;stroke-width:1.0;" x1="619.5" x2="1158" y1="618.8594" y2="618.8594"/><text fill="#000000" font-family="sans-serif" font-size="13" font-weight="bold" lengthAdjust="spacing" textLength="14" x="626.5" y="613.5967">14</text><text fill="#000000" font-family="sans-serif" font-size="13" lengthAdjust="spacing" textLength="121" x="644.5" y="613.5967">register maintenance</text><rect fill="none" height="43.252" style="stroke:#000000;stroke-width:1.5;" width="173" x="1082.5" y="626.8594"/><path d="M1082.5,626.8594 L1144.5,626.8594 L1144.5,635.8594 L1134.5,645.8594 L1082.5,645.8594 L1082.5,626.8594 " fill="#EEEEEE" style="stroke:#000000;stroke-width:2.0;"/><text fill="#000000" font-family="sans-serif" font-size="13" font-weight="bold" lengthAdjust="spacing" textLength="17" x="1095.5" y="642.8877">ref</text><text fill="#000000" font-family="sans-serif" font-size="12" lengthAdjust="spacing" textLength="110" x="1114" y="662.8086">Create Maintenance</text><polygon fill="#181818" points="630.5,694.4023,620.5,698.4023,630.5,702.4023,626.5,698.4023" style="stroke:#181818;stroke-width:1.0;"/><line style="stroke:#181818;stroke-width:1.0;stroke-dasharray:2.0,2.0;" x1="624.5" x2="1168" y1="698.4023" y2="698.4023"/><text fill="#000000" font-family="sans-serif" font-size="13" font-weight="bold" lengthAdjust="spacing" textLength="14" x="636.5" y="693.1396">15</text><text fill="#000000" font-family="sans-serif" font-size="13" lengthAdjust="spacing" textLength="74" x="654.5" y="693.1396">maintenance</text><polygon fill="#181818" points="401.5,725.6934,391.5,729.6934,401.5,733.6934,397.5,729.6934" style="stroke:#181818;stroke-width:1.0;"/><line style="stroke:#181818;stroke-width:1.0;stroke-dasharray:2.0,2.0;" x1="395.5" x2="613.5" y1="729.6934" y2="729.6934"/><text fill="#000000" font-family="sans-serif" font-size="13" font-weight="bold" lengthAdjust="spacing" textLength="14" x="407.5" y="724.4307">16</text><text fill="#000000" font-family="sans-serif" font-size="13" lengthAdjust="spacing" textLength="74" x="425.5" y="724.4307">maintenance</text><polygon fill="#181818" points="98.5,756.9844,88.5,760.9844,98.5,764.9844,94.5,760.9844" style="stroke:#181818;stroke-width:1.0;"/><line style="stroke:#181818;stroke-width:1.0;stroke-dasharray:2.0,2.0;" x1="92.5" x2="379.5" y1="760.9844" y2="760.9844"/><text fill="#000000" font-family="sans-serif" font-size="13" font-weight="bold" lengthAdjust="spacing" textLength="14" x="104.5" y="755.7217">17</text><text fill="#000000" font-family="sans-serif" font-size="13" lengthAdjust="spacing" textLength="157" x="122.5" y="755.7217">Displays maintenance data</text><polygon fill="#181818" points="98.5,788.2754,88.5,792.2754,98.5,796.2754,94.5,792.2754" style="stroke:#181818;stroke-width:1.0;"/><line style="stroke:#181818;stroke-width:1.0;stroke-dasharray:2.0,2.0;" x1="92.5" x2="384.5" y1="792.2754" y2="792.2754"/><text fill="#000000" font-family="sans-serif" font-size="13" font-weight="bold" lengthAdjust="spacing" textLength="14" x="104.5" y="787.0127">18</text><text fill="#000000" font-family="sans-serif" font-size="13" lengthAdjust="spacing" textLength="124" x="122.5" y="787.0127">requests confirmation</text><polygon fill="#181818" points="368.5,819.5664,378.5,823.5664,368.5,827.5664,372.5,823.5664" style="stroke:#181818;stroke-width:1.0;"/><line style="stroke:#181818;stroke-width:1.0;" x1="87.5" x2="374.5" y1="823.5664" y2="823.5664"/><text fill="#000000" font-family="sans-serif" font-size="13" font-weight="bold" lengthAdjust="spacing" textLength="14" x="94.5" y="818.3037">19</text><text fill="#000000" font-family="sans-serif" font-size="13" lengthAdjust="spacing" textLength="78" x="112.5" y="818.3037">confirms data</text><polygon fill="#181818" points="597.5,850.8574,607.5,854.8574,597.5,858.8574,601.5,854.8574" style="stroke:#181818;stroke-width:1.0;"/><line style="stroke:#181818;stroke-width:1.0;" x1="390.5" x2="603.5" y1="854.8574" y2="854.8574"/><text fill="#000000" font-family="sans-serif" font-size="13" font-weight="bold" lengthAdjust="spacing" textLength="14" x="397.5" y="849.5947">20</text><text fill="#000000" font-family="sans-serif" font-size="13" lengthAdjust="spacing" textLength="70" x="415.5" y="849.5947">confirmation</text><polygon fill="#181818" points="401.5,882.1484,391.5,886.1484,401.5,890.1484,397.5,886.1484" style="stroke:#181818;stroke-width:1.0;"/><line style="stroke:#181818;stroke-width:1.0;stroke-dasharray:2.0,2.0;" x1="395.5" x2="613.5" y1="886.1484" y2="886.1484"/><text fill="#000000" font-family="sans-serif" font-size="13" font-weight="bold" lengthAdjust="spacing" textLength="14" x="407.5" y="880.8857">21</text><text fill="#000000" font-family="sans-serif" font-size="13" lengthAdjust="spacing" textLength="106" x="425.5" y="880.8857">operation success</text><polygon fill="#181818" points="93.5,913.4395,83.5,917.4395,93.5,921.4395,89.5,917.4395" style="stroke:#181818;stroke-width:1.0;"/><line style="stroke:#181818;stroke-width:1.0;" x1="87.5" x2="384.5" y1="917.4395" y2="917.4395"/><text fill="#000000" font-family="sans-serif" font-size="13" font-weight="bold" lengthAdjust="spacing" textLength="14" x="99.5" y="912.1768">22</text><text fill="#000000" font-family="sans-serif" font-size="13" lengthAdjust="spacing" textLength="158" x="117.5" y="912.1768">displays operation success</text><!--SRC=[dPNDRk8m4CVlUOeHbuLgUG4EbLRijgeMf5LBEN5ndI6ncjYfxR3Bs-_441Fdgr0V41hF_3ppzunZteKic6Ovv4egdcgL8rXTOcJyJi7uEqlmnHup18tSCfbaJGUJibZz5JA1FSiCHX4hhP9b_eOwYhwb8aROAsNVrB-8SQiqJBQO2auq9cFuzL6A8aTfOISVCaGBQoRfF0tJxSDwDW5cWFv4T9OLN1ICF2UBPqo4iQZNJ4YBaacEhq_Ez_NfSzUbabQhB4FjGfQRvrKdg516KB82ZVFnXkEBgEgd2iCGtOZOoIxWp-h79emud5Iua1SxkMtRJlMthI4elrGMmDPzTWVitOcYwdx4WLbqYaT0Y_x0_9vKXGLT_aU9nXgm2ZBI5CuL6928STK0ZKnSjEVHhJX3jOX5n4hqkpkYSetaqRTDcmdQS_5cHITEPzxDeztjURDR6lUW3jH2RWzQwv5whEx02jeAHcfA0eHMbywy5k9SjmjkUiKuabLL5m4gGHSG2rDax6Xg58onckArxsIPAcNGSmA_GK0WyMXajunG2TyICRDiIZ_u7NYfTJNFl_FP5zK9g70rTbYbpR70wsZNQNOJQKZ3U_Scd9gyTo2d0q3tb0HR3ZI_vDS_tzUeLgVMIt1NStfDEwFUoNBWZMbFev_LptFsEReNendGSQCXRjlwAsg8bW_p6cgrSmd6uKk8eFL_rWz30-NQRJJA3mnNSYzqpgoWxzFL6JH7vKmmlOSEJaTxGCRo67kvsuAg0hM3W2avHsDkaxNptDx26zuwVHx_0m00]--></g></svg>