<svg xmlns="http://www.w3.org/2000/svg" xmlns:xlink="http://www.w3.org/1999/xlink" contentStyleType="text/css" height="569px" preserveAspectRatio="none" style="width:819px;height:569px;background:#FFFFFF;" version="1.1" viewBox="0 0 819 569" width="819px" zoomAndPan="magnify"><defs/><g><rect fill="#FFFFFF" height="375.2012" style="stroke:#181818;stroke-width:1.0;" width="10" x="17.7793" y="93.6211"/><rect fill="#FFFFFF" height="375.2012" style="stroke:#181818;stroke-width:1.0;" width="10" x="233.1128" y="93.6211"/><rect fill="#FFFFFF" height="106.873" style="stroke:#181818;stroke-width:1.0;" width="10" x="428.248" y="116.9121"/><rect fill="#FFFFFF" height="106.873" style="stroke:#181818;stroke-width:1.0;" width="10" x="542.4697" y="223.7852"/><rect fill="#FFFFFF" height="106.873" style="stroke:#181818;stroke-width:1.0;" width="10" x="680.459" y="330.6582"/><line style="stroke:#181818;stroke-width:0.5;stroke-dasharray:5.0,5.0;" x1="22" x2="22" y1="83.6211" y2="486.8223"/><line style="stroke:#181818;stroke-width:0.5;stroke-dasharray:5.0,5.0;" x1="238.0474" x2="238.0474" y1="83.6211" y2="486.8223"/><line style="stroke:#181818;stroke-width:0.5;stroke-dasharray:5.0,5.0;" x1="433.1724" x2="433.1724" y1="83.6211" y2="486.8223"/><line style="stroke:#181818;stroke-width:0.5;stroke-dasharray:5.0,5.0;" x1="547.2871" x2="547.2871" y1="83.6211" y2="486.8223"/><line style="stroke:#181818;stroke-width:0.5;stroke-dasharray:5.0,5.0;" x1="684.6523" x2="684.6523" y1="83.6211" y2="486.8223"/><text fill="#000000" font-family="sans-serif" font-size="14" lengthAdjust="spacing" textLength="29.5586" x="5" y="80.1074">User</text><ellipse cx="22.7793" cy="13.5" fill="#E2E2F0" rx="8" ry="8" style="stroke:#181818;stroke-width:0.5;"/><path d="M22.7793,21.5 L22.7793,48.5 M9.7793,29.5 L35.7793,29.5 M22.7793,48.5 L9.7793,63.5 M22.7793,48.5 L35.7793,63.5 " fill="none" style="stroke:#181818;stroke-width:0.5;"/><text fill="#000000" font-family="sans-serif" font-size="14" lengthAdjust="spacing" textLength="29.5586" x="5" y="500.9297">User</text><ellipse cx="22.7793" cy="512.9434" fill="#E2E2F0" rx="8" ry="8" style="stroke:#181818;stroke-width:0.5;"/><path d="M22.7793,520.9434 L22.7793,547.9434 M9.7793,528.9434 L35.7793,528.9434 M22.7793,547.9434 L9.7793,562.9434 M22.7793,547.9434 L35.7793,562.9434 " fill="none" style="stroke:#181818;stroke-width:0.5;"/><rect fill="#E2E2F0" height="32.6211" rx="2.5" ry="2.5" style="stroke:#181818;stroke-width:0.5;" width="52.1309" x="212.0474" y="50"/><text fill="#000000" font-family="sans-serif" font-size="14" lengthAdjust="spacing" textLength="38.1309" x="219.0474" y="72.1074">Drone</text><rect fill="#E2E2F0" height="32.6211" rx="2.5" ry="2.5" style="stroke:#181818;stroke-width:0.5;" width="52.1309" x="212.0474" y="485.8223"/><text fill="#000000" font-family="sans-serif" font-size="14" lengthAdjust="spacing" textLength="38.1309" x="219.0474" y="507.9297">Drone</text><rect fill="#E2E2F0" height="32.6211" rx="2.5" ry="2.5" style="stroke:#181818;stroke-width:0.5;" width="94.1514" x="386.1724" y="50"/><text fill="#000000" font-family="sans-serif" font-size="14" lengthAdjust="spacing" textLength="80.1514" x="393.1724" y="72.1074">DronesLexer</text><rect fill="#E2E2F0" height="32.6211" rx="2.5" ry="2.5" style="stroke:#181818;stroke-width:0.5;" width="94.1514" x="386.1724" y="485.8223"/><text fill="#000000" font-family="sans-serif" font-size="14" lengthAdjust="spacing" textLength="80.1514" x="393.1724" y="507.9297">DronesLexer</text><rect fill="#E2E2F0" height="32.6211" rx="2.5" ry="2.5" style="stroke:#181818;stroke-width:0.5;" width="100.3652" x="497.2871" y="50"/><text fill="#000000" font-family="sans-serif" font-size="14" lengthAdjust="spacing" textLength="86.3652" x="504.2871" y="72.1074">DronesParser</text><rect fill="#E2E2F0" height="32.6211" rx="2.5" ry="2.5" style="stroke:#181818;stroke-width:0.5;" width="100.3652" x="497.2871" y="485.8223"/><text fill="#000000" font-family="sans-serif" font-size="14" lengthAdjust="spacing" textLength="86.3652" x="504.2871" y="507.9297">DronesParser</text><rect fill="#E2E2F0" height="32.6211" rx="2.5" ry="2.5" style="stroke:#181818;stroke-width:0.5;" width="155.6133" x="607.6523" y="50"/><text fill="#000000" font-family="sans-serif" font-size="14" lengthAdjust="spacing" textLength="141.6133" x="614.6523" y="72.1074">DroneInterpreterVisitor</text><rect fill="#E2E2F0" height="32.6211" rx="2.5" ry="2.5" style="stroke:#181818;stroke-width:0.5;" width="155.6133" x="607.6523" y="485.8223"/><text fill="#000000" font-family="sans-serif" font-size="14" lengthAdjust="spacing" textLength="141.6133" x="614.6523" y="507.9297">DroneInterpreterVisitor</text><rect fill="#FFFFFF" height="375.2012" style="stroke:#181818;stroke-width:1.0;" width="10" x="17.7793" y="93.6211"/><rect fill="#FFFFFF" height="375.2012" style="stroke:#181818;stroke-width:1.0;" width="10" x="233.1128" y="93.6211"/><rect fill="#FFFFFF" height="106.873" style="stroke:#181818;stroke-width:1.0;" width="10" x="428.248" y="116.9121"/><rect fill="#FFFFFF" height="106.873" style="stroke:#181818;stroke-width:1.0;" width="10" x="542.4697" y="223.7852"/><rect fill="#FFFFFF" height="106.873" style="stroke:#181818;stroke-width:1.0;" width="10" x="680.459" y="330.6582"/><polygon fill="#181818" points="221.1128,112.9121,231.1128,116.9121,221.1128,120.9121,225.1128,116.9121" style="stroke:#181818;stroke-width:1.0;"/><line style="stroke:#181818;stroke-width:1.0;" x1="27.7793" x2="227.1128" y1="116.9121" y2="116.9121"/><text fill="#000000" font-family="sans-serif" font-size="13" lengthAdjust="spacing" textLength="181.3335" x="34.7793" y="111.6494">load program file (grammar file)</text><polygon fill="#181818" points="416.248,144.2031,426.248,148.2031,416.248,152.2031,420.248,148.2031" style="stroke:#181818;stroke-width:1.0;"/><line style="stroke:#181818;stroke-width:1.0;" x1="243.1128" x2="422.248" y1="148.2031" y2="148.2031"/><text fill="#000000" font-family="sans-serif" font-size="13" lengthAdjust="spacing" textLength="161.1353" x="250.1128" y="142.9404">create lexer with file content</text><line style="stroke:#181818;stroke-width:1.0;" x1="438.248" x2="480.248" y1="179.4941" y2="179.4941"/><line style="stroke:#181818;stroke-width:1.0;" x1="480.248" x2="480.248" y1="179.4941" y2="192.4941"/><line style="stroke:#181818;stroke-width:1.0;" x1="439.248" x2="480.248" y1="192.4941" y2="192.4941"/><polygon fill="#181818" points="449.248,188.4941,439.248,192.4941,449.248,196.4941,445.248,192.4941" style="stroke:#181818;stroke-width:1.0;"/><text fill="#000000" font-family="sans-serif" font-size="13" lengthAdjust="spacing" textLength="80.2217" x="445.248" y="174.2314">tokenize input</text><polygon fill="#181818" points="254.1128,219.7852,244.1128,223.7852,254.1128,227.7852,250.1128,223.7852" style="stroke:#181818;stroke-width:1.0;"/><line style="stroke:#181818;stroke-width:1.0;stroke-dasharray:2.0,2.0;" x1="248.1128" x2="432.248" y1="223.7852" y2="223.7852"/><text fill="#000000" font-family="sans-serif" font-size="13" lengthAdjust="spacing" textLength="38.3018" x="260.1128" y="218.5225">tokens</text><polygon fill="#181818" points="530.4697,251.0762,540.4697,255.0762,530.4697,259.0762,534.4697,255.0762" style="stroke:#181818;stroke-width:1.0;"/><line style="stroke:#181818;stroke-width:1.0;" x1="243.1128" x2="536.4697" y1="255.0762" y2="255.0762"/><text fill="#000000" font-family="sans-serif" font-size="13" lengthAdjust="spacing" textLength="145.2344" x="250.1128" y="249.8135">create parser with tokens</text><line style="stroke:#181818;stroke-width:1.0;" x1="552.4697" x2="594.4697" y1="286.3672" y2="286.3672"/><line style="stroke:#181818;stroke-width:1.0;" x1="594.4697" x2="594.4697" y1="286.3672" y2="299.3672"/><line style="stroke:#181818;stroke-width:1.0;" x1="553.4697" x2="594.4697" y1="299.3672" y2="299.3672"/><polygon fill="#181818" points="563.4697,295.3672,553.4697,299.3672,563.4697,303.3672,559.4697,299.3672" style="stroke:#181818;stroke-width:1.0;"/><text fill="#000000" font-family="sans-serif" font-size="13" lengthAdjust="spacing" textLength="89.6099" x="559.4697" y="281.1045">build parse tree</text><polygon fill="#181818" points="254.1128,326.6582,244.1128,330.6582,254.1128,334.6582,250.1128,330.6582" style="stroke:#181818;stroke-width:1.0;"/><line style="stroke:#181818;stroke-width:1.0;stroke-dasharray:2.0,2.0;" x1="248.1128" x2="546.4697" y1="330.6582" y2="330.6582"/><text fill="#000000" font-family="sans-serif" font-size="13" lengthAdjust="spacing" textLength="58.5317" x="260.1128" y="325.3955">parse tree</text><polygon fill="#181818" points="668.459,357.9492,678.459,361.9492,668.459,365.9492,672.459,361.9492" style="stroke:#181818;stroke-width:1.0;"/><line style="stroke:#181818;stroke-width:1.0;" x1="243.1128" x2="674.459" y1="361.9492" y2="361.9492"/><text fill="#000000" font-family="sans-serif" font-size="13" lengthAdjust="spacing" textLength="161.1353" x="250.1128" y="356.6865">visit parse tree and interpret</text><line style="stroke:#181818;stroke-width:1.0;" x1="690.459" x2="732.459" y1="393.2402" y2="393.2402"/><line style="stroke:#181818;stroke-width:1.0;" x1="732.459" x2="732.459" y1="393.2402" y2="406.2402"/><line style="stroke:#181818;stroke-width:1.0;" x1="691.459" x2="732.459" y1="406.2402" y2="406.2402"/><polygon fill="#181818" points="701.459,402.2402,691.459,406.2402,701.459,410.2402,697.459,406.2402" style="stroke:#181818;stroke-width:1.0;"/><text fill="#000000" font-family="sans-serif" font-size="13" lengthAdjust="spacing" textLength="114.8926" x="697.459" y="387.9775">execute instructions</text><polygon fill="#181818" points="254.1128,433.5313,244.1128,437.5313,254.1128,441.5313,250.1128,437.5313" style="stroke:#181818;stroke-width:1.0;"/><line style="stroke:#181818;stroke-width:1.0;stroke-dasharray:2.0,2.0;" x1="248.1128" x2="684.459" y1="437.5313" y2="437.5313"/><text fill="#000000" font-family="sans-serif" font-size="13" lengthAdjust="spacing" textLength="111.2808" x="260.1128" y="432.2686">interpretation result</text><polygon fill="#181818" points="33.7793,464.8223,23.7793,468.8223,33.7793,472.8223,29.7793,468.8223" style="stroke:#181818;stroke-width:1.0;"/><line style="stroke:#181818;stroke-width:1.0;" x1="27.7793" x2="237.1128" y1="468.8223" y2="468.8223"/><text fill="#000000" font-family="sans-serif" font-size="13" lengthAdjust="spacing" textLength="124.979" x="39.7793" y="463.5596">show results or errors</text><!--SRC=[RPExJiKm38RtF8NL2GPUW8691Oa12HrsanfEH9jKZdiEyFJaHkC3NIfVVl_vwhHe9J0CXqWy04R8WLcGnLcte1SOxZbuAhtdhoWqxtJZ8tss-HBjIPwGVy-euOxemGlnmfIUBowwH5RqgcmCMd4d5AgaMzROJAx2pLtBuHQcW2Ci7DuPPtXp4y5L3cVaabqhnyhU9fD7oPE5PShjgQHd9yVgOqFYycAgJEabV91ttmJEB-lMrr154Sr8VyxkB6r77QOMEirIyuBJx9f4YrzNDurL2y94cqRJgBOYQWGTILz3vrBLP7NArwOC0VsOrj0aHel_pQODs5NorgBmcauDwPqk9ZJqPefP24nndKJpNtmrdVTG5nEFuTo68gG_W9W3HwCDsYUbAdds1m00]--></g></svg>