<svg xmlns="http://www.w3.org/2000/svg" xmlns:xlink="http://www.w3.org/1999/xlink" contentStyleType="text/css" height="470px" preserveAspectRatio="none" style="width:437px;height:470px;background:#FFFFFF;" version="1.1" viewBox="0 0 437 470" width="437px" zoomAndPan="magnify"><defs/><g><rect fill="#FFFFFF" height="276.0371" style="stroke:#181818;stroke-width:1.0;" width="10" x="17.7793" y="93.6211"/><rect fill="#FFFFFF" height="276.0371" style="stroke:#181818;stroke-width:1.0;" width="10" x="172.4292" y="93.6211"/><line style="stroke:#181818;stroke-width:0.5;stroke-dasharray:5.0,5.0;" x1="22" x2="22" y1="83.6211" y2="387.6582"/><line style="stroke:#181818;stroke-width:0.5;stroke-dasharray:5.0,5.0;" x1="177.0913" x2="177.0913" y1="83.6211" y2="387.6582"/><text fill="#000000" font-family="sans-serif" font-size="14" lengthAdjust="spacing" textLength="29.5586" x="5" y="80.1074">User</text><ellipse cx="22.7793" cy="13.5" fill="#E2E2F0" rx="8" ry="8" style="stroke:#181818;stroke-width:0.5;"/><path d="M22.7793,21.5 L22.7793,48.5 M9.7793,29.5 L35.7793,29.5 M22.7793,48.5 L9.7793,63.5 M22.7793,48.5 L35.7793,63.5 " fill="none" style="stroke:#181818;stroke-width:0.5;"/><text fill="#000000" font-family="sans-serif" font-size="14" lengthAdjust="spacing" textLength="29.5586" x="5" y="401.7656">User</text><ellipse cx="22.7793" cy="413.7793" fill="#E2E2F0" rx="8" ry="8" style="stroke:#181818;stroke-width:0.5;"/><path d="M22.7793,421.7793 L22.7793,448.7793 M9.7793,429.7793 L35.7793,429.7793 M22.7793,448.7793 L9.7793,463.7793 M22.7793,448.7793 L35.7793,463.7793 " fill="none" style="stroke:#181818;stroke-width:0.5;"/><rect fill="#E2E2F0" height="32.6211" rx="2.5" ry="2.5" style="stroke:#181818;stroke-width:0.5;" width="60.6758" x="147.0913" y="50"/><text fill="#000000" font-family="sans-serif" font-size="14" lengthAdjust="spacing" textLength="46.6758" x="154.0913" y="72.1074">System</text><rect fill="#E2E2F0" height="32.6211" rx="2.5" ry="2.5" style="stroke:#181818;stroke-width:0.5;" width="60.6758" x="147.0913" y="386.6582"/><text fill="#000000" font-family="sans-serif" font-size="14" lengthAdjust="spacing" textLength="46.6758" x="154.0913" y="408.7656">System</text><rect fill="#FFFFFF" height="276.0371" style="stroke:#181818;stroke-width:1.0;" width="10" x="17.7793" y="93.6211"/><rect fill="#FFFFFF" height="276.0371" style="stroke:#181818;stroke-width:1.0;" width="10" x="172.4292" y="93.6211"/><polygon fill="#181818" points="160.4292,112.9121,170.4292,116.9121,160.4292,120.9121,164.4292,116.9121" style="stroke:#181818;stroke-width:1.0;"/><line style="stroke:#181818;stroke-width:1.0;stroke-dasharray:2.0,2.0;" x1="27.7793" x2="166.4292" y1="116.9121" y2="116.9121"/><text fill="#000000" font-family="sans-serif" font-size="13" lengthAdjust="spacing" textLength="96.8271" x="34.7793" y="111.6494">load program file</text><line style="stroke:#181818;stroke-width:1.0;stroke-dasharray:2.0,2.0;" x1="182.4292" x2="224.4292" y1="148.2031" y2="148.2031"/><line style="stroke:#181818;stroke-width:1.0;stroke-dasharray:2.0,2.0;" x1="224.4292" x2="224.4292" y1="148.2031" y2="161.2031"/><line style="stroke:#181818;stroke-width:1.0;stroke-dasharray:2.0,2.0;" x1="183.4292" x2="224.4292" y1="161.2031" y2="161.2031"/><polygon fill="#181818" points="193.4292,157.2031,183.4292,161.2031,193.4292,165.2031,189.4292,161.2031" style="stroke:#181818;stroke-width:1.0;"/><text fill="#000000" font-family="sans-serif" font-size="13" lengthAdjust="spacing" textLength="161.1353" x="189.4292" y="142.9404">create lexer with file content</text><line style="stroke:#181818;stroke-width:1.0;" x1="182.4292" x2="224.4292" y1="192.4941" y2="192.4941"/><line style="stroke:#181818;stroke-width:1.0;" x1="224.4292" x2="224.4292" y1="192.4941" y2="205.4941"/><line style="stroke:#181818;stroke-width:1.0;" x1="183.4292" x2="224.4292" y1="205.4941" y2="205.4941"/><polygon fill="#181818" points="193.4292,201.4941,183.4292,205.4941,193.4292,209.4941,189.4292,205.4941" style="stroke:#181818;stroke-width:1.0;"/><text fill="#000000" font-family="sans-serif" font-size="13" lengthAdjust="spacing" textLength="93.2344" x="189.4292" y="187.2314">generate tokens</text><line style="stroke:#181818;stroke-width:1.0;stroke-dasharray:2.0,2.0;" x1="182.4292" x2="224.4292" y1="236.7852" y2="236.7852"/><line style="stroke:#181818;stroke-width:1.0;stroke-dasharray:2.0,2.0;" x1="224.4292" x2="224.4292" y1="236.7852" y2="249.7852"/><line style="stroke:#181818;stroke-width:1.0;stroke-dasharray:2.0,2.0;" x1="183.4292" x2="224.4292" y1="249.7852" y2="249.7852"/><polygon fill="#181818" points="193.4292,245.7852,183.4292,249.7852,193.4292,253.7852,189.4292,249.7852" style="stroke:#181818;stroke-width:1.0;"/><text fill="#000000" font-family="sans-serif" font-size="13" lengthAdjust="spacing" textLength="145.2344" x="189.4292" y="231.5225">create parser with tokens</text><line style="stroke:#181818;stroke-width:1.0;" x1="182.4292" x2="224.4292" y1="281.0762" y2="281.0762"/><line style="stroke:#181818;stroke-width:1.0;" x1="224.4292" x2="224.4292" y1="281.0762" y2="294.0762"/><line style="stroke:#181818;stroke-width:1.0;" x1="183.4292" x2="224.4292" y1="294.0762" y2="294.0762"/><polygon fill="#181818" points="193.4292,290.0762,183.4292,294.0762,193.4292,298.0762,189.4292,294.0762" style="stroke:#181818;stroke-width:1.0;"/><text fill="#000000" font-family="sans-serif" font-size="13" lengthAdjust="spacing" textLength="182.1079" x="189.4292" y="275.8135">parse tokens to build parse tree</text><line style="stroke:#181818;stroke-width:1.0;stroke-dasharray:2.0,2.0;" x1="182.4292" x2="224.4292" y1="325.3672" y2="325.3672"/><line style="stroke:#181818;stroke-width:1.0;stroke-dasharray:2.0,2.0;" x1="224.4292" x2="224.4292" y1="325.3672" y2="338.3672"/><line style="stroke:#181818;stroke-width:1.0;stroke-dasharray:2.0,2.0;" x1="183.4292" x2="224.4292" y1="338.3672" y2="338.3672"/><polygon fill="#181818" points="193.4292,334.3672,183.4292,338.3672,193.4292,342.3672,189.4292,338.3672" style="stroke:#181818;stroke-width:1.0;"/><text fill="#000000" font-family="sans-serif" font-size="13" lengthAdjust="spacing" textLength="241.3379" x="189.4292" y="320.1045">visit parse tree and interprets the program</text><polygon fill="#181818" points="33.7793,365.6582,23.7793,369.6582,33.7793,373.6582,29.7793,369.6582" style="stroke:#181818;stroke-width:1.0;"/><line style="stroke:#181818;stroke-width:1.0;stroke-dasharray:2.0,2.0;" x1="27.7793" x2="176.4292" y1="369.6582" y2="369.6582"/><text fill="#000000" font-family="sans-serif" font-size="13" lengthAdjust="spacing" textLength="120.6499" x="39.7793" y="364.3955">show results or erros</text><!--SRC=[VP593i8m34NtEONLVI_0WaiW3c1Iqrg4fB8DXTkJZaeHOXKFxt_P3dfB0jLPIIf0XJ5mFOgnvnwZGNLwgz5zQiwXS-YDdsWqqrksjCSYrFLnoU408M43lQHMy0vN3kIMrexoGgDBe5VM3spTX89FqIZQ9YaKBKMIKMFfHb7_kUQLTBNzeWjuefP-Vk3ouD2iLQ7VSpzPsGe8C3R0UMZfXIpxTBGkN-gdCnr0kpI0a3v2HlDNa4XIrz3-naK-Mtm0]--></g></svg>