<?xml version="1.0" encoding="us-ascii" standalone="no"?><svg xmlns="http://www.w3.org/2000/svg" xmlns:xlink="http://www.w3.org/1999/xlink" contentStyleType="text/css" height="444px" preserveAspectRatio="none" style="width:614px;height:444px;background:#FFFFFF;" version="1.1" viewBox="0 0 614 444" width="614px" zoomAndPan="magnify"><defs/><g><text fill="#000000" font-family="sans-serif" font-size="14" font-weight="bold" lengthAdjust="spacing" textLength="363" x="124.5" y="28.5352">System Sequence Diagram (SSD) - Alternative One</text><rect fill="#FFFFFF" height="192.1738" style="stroke:#181818;stroke-width:1.0;" width="10" x="46" y="145.4648"/><rect fill="#FFFFFF" height="44.6211" style="stroke:#181818;stroke-width:1.0;" width="10" x="570" y="166.7754"/><rect fill="#FFFFFF" height="29.3105" style="stroke:#181818;stroke-width:1.0;" width="10" x="570" y="240.707"/><rect fill="#FFFFFF" height="29.3105" style="stroke:#181818;stroke-width:1.0;" width="10" x="570" y="299.3281"/><line style="stroke:#181818;stroke-width:0.5;stroke-dasharray:5.0,5.0;" x1="51" x2="51" y1="135.4648" y2="346.6387"/><line style="stroke:#181818;stroke-width:0.5;stroke-dasharray:5.0,5.0;" x1="575" x2="575" y1="135.4648" y2="346.6387"/><text fill="#000000" font-family="sans-serif" font-size="14" lengthAdjust="spacing" textLength="86" x="5" y="116.0234">Vehicle Fleet</text><text fill="#000000" font-family="sans-serif" font-size="14" lengthAdjust="spacing" textLength="60" x="18" y="132.5117">Manager</text><ellipse cx="51" cy="50.9883" fill="#E3E3E3" rx="8" ry="8" style="stroke:#181818;stroke-width:0.5;"/><path d="M51,58.9883 L51,85.9883 M38,66.9883 L64,66.9883 M51,85.9883 L38,100.9883 M51,85.9883 L64,100.9883 " fill="none" style="stroke:#181818;stroke-width:0.5;"/><text fill="#000000" font-family="sans-serif" font-size="14" lengthAdjust="spacing" textLength="86" x="5" y="359.1738">Vehicle Fleet</text><text fill="#000000" font-family="sans-serif" font-size="14" lengthAdjust="spacing" textLength="60" x="18" y="375.6621">Manager</text><ellipse cx="51" cy="387.1152" fill="#E3E3E3" rx="8" ry="8" style="stroke:#181818;stroke-width:0.5;"/><path d="M51,395.1152 L51,422.1152 M38,403.1152 L64,403.1152 M51,422.1152 L38,437.1152 M51,422.1152 L64,437.1152 " fill="none" style="stroke:#181818;stroke-width:0.5;"/><rect fill="#E3E3E3" height="30.4883" rx="2.5" ry="2.5" style="stroke:#181818;stroke-width:0.5;" width="66" x="542" y="103.9766"/><text fill="#000000" font-family="sans-serif" font-size="14" lengthAdjust="spacing" textLength="52" x="549" y="124.5117">:System</text><rect fill="#E3E3E3" height="30.4883" rx="2.5" ry="2.5" style="stroke:#181818;stroke-width:0.5;" width="66" x="542" y="345.6387"/><text fill="#000000" font-family="sans-serif" font-size="14" lengthAdjust="spacing" textLength="52" x="549" y="366.1738">:System</text><rect fill="#FFFFFF" height="192.1738" style="stroke:#181818;stroke-width:1.0;" width="10" x="46" y="145.4648"/><rect fill="#FFFFFF" height="44.6211" style="stroke:#181818;stroke-width:1.0;" width="10" x="570" y="166.7754"/><rect fill="#FFFFFF" height="29.3105" style="stroke:#181818;stroke-width:1.0;" width="10" x="570" y="240.707"/><rect fill="#FFFFFF" height="29.3105" style="stroke:#181818;stroke-width:1.0;" width="10" x="570" y="299.3281"/><polygon fill="#181818" points="558,162.7754,568,166.7754,558,170.7754,562,166.7754" style="stroke:#181818;stroke-width:1.0;"/><line style="stroke:#181818;stroke-width:1.0;" x1="56" x2="564" y1="166.7754" y2="166.7754"/><text fill="#000000" font-family="sans-serif" font-size="13" font-weight="bold" lengthAdjust="spacing" textLength="9" x="63" y="162.0332">1</text><text fill="#000000" font-family="sans-serif" font-size="13" lengthAdjust="spacing" textLength="157" x="76" y="162.0332">asks to register a vehicle</text><polygon fill="#181818" points="67,207.3965,57,211.3965,67,215.3965,63,211.3965" style="stroke:#181818;stroke-width:1.0;"/><line style="stroke:#181818;stroke-width:1.0;stroke-dasharray:2.0,2.0;" x1="61" x2="574" y1="211.3965" y2="211.3965"/><text fill="#000000" font-family="sans-serif" font-size="13" font-weight="bold" lengthAdjust="spacing" textLength="9" x="73" y="198.999">2</text><text fill="#000000" font-family="sans-serif" font-size="13" lengthAdjust="spacing" textLength="448" x="86" y="191.3438">requests data (i.e.  Brand, Model, Type, Tare, Gross Weight, Current Km,</text><text fill="#000000" font-family="sans-serif" font-size="13" lengthAdjust="spacing" textLength="473" x="90" y="206.6543">Register Date, Acquisition Date, Maintenance/Checkup Frequency (in Kms))</text><polygon fill="#181818" points="558,236.707,568,240.707,558,244.707,562,240.707" style="stroke:#181818;stroke-width:1.0;"/><line style="stroke:#181818;stroke-width:1.0;" x1="56" x2="564" y1="240.707" y2="240.707"/><text fill="#000000" font-family="sans-serif" font-size="13" font-weight="bold" lengthAdjust="spacing" textLength="9" x="63" y="235.9648">3</text><text fill="#000000" font-family="sans-serif" font-size="13" lengthAdjust="spacing" textLength="131" x="76" y="235.9648">types requested data</text><polygon fill="#181818" points="67,266.0176,57,270.0176,67,274.0176,63,270.0176" style="stroke:#181818;stroke-width:1.0;"/><line style="stroke:#181818;stroke-width:1.0;stroke-dasharray:2.0,2.0;" x1="61" x2="574" y1="270.0176" y2="270.0176"/><text fill="#000000" font-family="sans-serif" font-size="13" font-weight="bold" lengthAdjust="spacing" textLength="9" x="73" y="265.2754">4</text><text fill="#000000" font-family="sans-serif" font-size="13" lengthAdjust="spacing" textLength="260" x="86" y="265.2754">shows all data and requests confirmation</text><polygon fill="#181818" points="558,295.3281,568,299.3281,558,303.3281,562,299.3281" style="stroke:#181818;stroke-width:1.0;"/><line style="stroke:#181818;stroke-width:1.0;" x1="56" x2="564" y1="299.3281" y2="299.3281"/><text fill="#000000" font-family="sans-serif" font-size="13" font-weight="bold" lengthAdjust="spacing" textLength="9" x="63" y="294.5859">5</text><text fill="#000000" font-family="sans-serif" font-size="13" lengthAdjust="spacing" textLength="87" x="76" y="294.5859">confirms data</text><polygon fill="#181818" points="67,324.6387,57,328.6387,67,332.6387,63,328.6387" style="stroke:#181818;stroke-width:1.0;"/><line style="stroke:#181818;stroke-width:1.0;stroke-dasharray:2.0,2.0;" x1="61" x2="574" y1="328.6387" y2="328.6387"/><text fill="#000000" font-family="sans-serif" font-size="13" font-weight="bold" lengthAdjust="spacing" textLength="9" x="73" y="323.8965">6</text><text fill="#000000" font-family="sans-serif" font-size="13" lengthAdjust="spacing" textLength="170" x="86" y="323.8965">displays operation success</text><!--SRC=[dL1DJ-D03BtdLrWzKIc5Umyh0LNtiAgG288B5-_495OddZ1sYlBlrqrQ5g7T0ynXP7dUl2_Ti_IOiOCkIGfjJXs1vO4AVN_fCUoneSh6I90f64eJFmAqnJgziJJmWb6fA8pDeTMeHXrKz3gG188DOtE4NrJLPWahk8v6MT3uG70d_Wq7Ip9qlodx72nbM3nIoy6vjf78dcM7uaxo0b3XSRihNDyuS8zYi5ZFWjFZF4uqV42Z2Ls07nzWzUDiRktWlO8b3zQmhp8W76RH2VvES6Q4qpaHh9phIBbs0i-ffb2Z8Lpm9Lq2t6IKkeHTgYcMy33sv3Tclt_cf0fFn4rh9TmEEPE7-DMLpmBtPoyRLoxXEhmEh6oSvBJP8OkHeDTwTTjIs0yzRFDSzEZQuaIwN4vcQ_fdXiyzc7lJSmYgfnHVR43RzAQ0CSuLUFA_fOGaBvmxF8RuYgtJF_sEdvgrZpWgf9xof0mwX42g_t7m1m00]--></g></svg>