<?xml version="1.0" encoding="us-ascii" standalone="no"?><svg xmlns="http://www.w3.org/2000/svg" xmlns:xlink="http://www.w3.org/1999/xlink" contentStyleType="text/css" height="632px" preserveAspectRatio="none" style="width:1413px;height:632px;background:#FFFFFF;" version="1.1" viewBox="0 0 1413 632" width="1413px" zoomAndPan="magnify"><defs/><g><!--class MyTasksGUI--><g id="elem_MyTasksGUI"><rect codeLine="28" fill="#F1F1F1" height="290.0742" id="MyTasksGUI" rx="2.5" ry="2.5" style="stroke:#181818;stroke-width:0.5;" width="328" x="7" y="7"/><ellipse cx="127.25" cy="23" fill="#ADD1B2" rx="11" ry="11" style="stroke:#181818;stroke-width:1.0;"/><path d="M130.0156,18.875 Q130.1719,18.6563 130.3594,18.5469 Q130.5469,18.4375 130.7656,18.4375 Q131.1406,18.4375 131.375,18.7031 Q131.6094,18.9531 131.6094,19.5625 L131.6094,21.0156 Q131.6094,21.625 131.375,21.8906 Q131.1406,22.1563 130.7656,22.1563 Q130.4219,22.1563 130.2188,21.9531 Q130.0156,21.7656 129.9063,21.25 Q129.8594,20.8906 129.6719,20.7031 Q129.3438,20.3281 128.7344,20.1094 Q128.125,19.8906 127.5,19.8906 Q126.7344,19.8906 126.0938,20.2188 Q125.4688,20.5469 124.9688,21.2969 Q124.4844,22.0469 124.4844,23.0781 L124.4844,24.1719 Q124.4844,25.4063 125.375,26.2344 Q126.2656,27.0469 127.8594,27.0469 Q128.7969,27.0469 129.4531,26.7969 Q129.8438,26.6406 130.2656,26.2031 Q130.5313,25.9375 130.6719,25.8594 Q130.8281,25.7813 131.0313,25.7813 Q131.3594,25.7813 131.6094,26.0469 Q131.875,26.2969 131.875,26.6406 Q131.875,26.9844 131.5313,27.3906 Q131.0313,27.9688 130.2344,28.2969 Q129.1563,28.75 127.8594,28.75 Q126.3438,28.75 125.1406,28.125 Q124.1563,27.625 123.4688,26.5625 Q122.7813,25.4844 122.7813,24.2031 L122.7813,23.0469 Q122.7813,21.7188 123.3906,20.5781 Q124.0156,19.4219 125.1094,18.8125 Q126.2031,18.1875 127.4375,18.1875 Q128.1719,18.1875 128.8125,18.3594 Q129.4688,18.5156 130.0156,18.875 Z " fill="#000000"/><text fill="#000000" font-family="sans-serif" font-size="14" lengthAdjust="spacing" textLength="79" x="147.75" y="28.7969">MyTasksGUI</text><line style="stroke:#181818;stroke-width:0.5;" x1="8" x2="334" y1="39" y2="39"/><text fill="#000000" font-family="sans-serif" font-size="14" lengthAdjust="spacing" textLength="156" x="13" y="58.1074">-TextField startDateField</text><text fill="#000000" font-family="sans-serif" font-size="14" lengthAdjust="spacing" textLength="152" x="13" y="76.7285">-TextField endDateField</text><text fill="#000000" font-family="sans-serif" font-size="14" lengthAdjust="spacing" textLength="300" x="13" y="95.3496">-TableView&lt;AgendaEntry&gt; agendaEntriesTable</text><text fill="#000000" font-family="sans-serif" font-size="14" lengthAdjust="spacing" textLength="316" x="13" y="113.9707">-TableColumn&lt;AgendaEntry, String&gt; entryColumn</text><text fill="#000000" font-family="sans-serif" font-size="14" lengthAdjust="spacing" textLength="298" x="13" y="132.5918">-ComboBox&lt;TaskStatus&gt; taskStatusComboBox</text><text fill="#000000" font-family="sans-serif" font-size="14" lengthAdjust="spacing" textLength="172" x="13" y="151.2129">-Button markAsDoneButton</text><text fill="#000000" font-family="sans-serif" font-size="14" lengthAdjust="spacing" textLength="245" x="13" y="169.834">-MyTasksController myTasksController</text><line style="stroke:#181818;stroke-width:0.5;" x1="8" x2="334" y1="177.3477" y2="177.3477"/><text fill="#000000" font-family="sans-serif" font-size="14" lengthAdjust="spacing" textLength="97" x="13" y="196.4551">+MyTasksGUI()</text><text fill="#000000" font-family="sans-serif" font-size="14" lengthAdjust="spacing" textLength="105" x="13" y="215.0762">+initialize() : void</text><text fill="#000000" font-family="sans-serif" font-size="14" lengthAdjust="spacing" textLength="147" x="13" y="233.6973">+populateTable() : void</text><text fill="#000000" font-family="sans-serif" font-size="14" lengthAdjust="spacing" textLength="246" x="13" y="252.3184">+handleApplyFilterButtonAction() : void</text><text fill="#000000" font-family="sans-serif" font-size="14" lengthAdjust="spacing" textLength="103" x="13" y="270.9395">+goBack() : void</text><text fill="#000000" font-family="sans-serif" font-size="14" lengthAdjust="spacing" textLength="211" x="13" y="289.5605">+handleMarkTaskAsDone() : void</text></g><!--class MyTasksController--><g id="elem_MyTasksController"><rect codeLine="44" fill="#F1F1F1" height="159.7266" id="MyTasksController" rx="2.5" ry="2.5" style="stroke:#181818;stroke-width:0.5;" width="642" x="370" y="72"/><ellipse cx="627.75" cy="88" fill="#ADD1B2" rx="11" ry="11" style="stroke:#181818;stroke-width:1.0;"/><path d="M630.5156,83.875 Q630.6719,83.6563 630.8594,83.5469 Q631.0469,83.4375 631.2656,83.4375 Q631.6406,83.4375 631.875,83.7031 Q632.1094,83.9531 632.1094,84.5625 L632.1094,86.0156 Q632.1094,86.625 631.875,86.8906 Q631.6406,87.1563 631.2656,87.1563 Q630.9219,87.1563 630.7188,86.9531 Q630.5156,86.7656 630.4063,86.25 Q630.3594,85.8906 630.1719,85.7031 Q629.8438,85.3281 629.2344,85.1094 Q628.625,84.8906 628,84.8906 Q627.2344,84.8906 626.5938,85.2188 Q625.9688,85.5469 625.4688,86.2969 Q624.9844,87.0469 624.9844,88.0781 L624.9844,89.1719 Q624.9844,90.4063 625.875,91.2344 Q626.7656,92.0469 628.3594,92.0469 Q629.2969,92.0469 629.9531,91.7969 Q630.3438,91.6406 630.7656,91.2031 Q631.0313,90.9375 631.1719,90.8594 Q631.3281,90.7813 631.5313,90.7813 Q631.8594,90.7813 632.1094,91.0469 Q632.375,91.2969 632.375,91.6406 Q632.375,91.9844 632.0313,92.3906 Q631.5313,92.9688 630.7344,93.2969 Q629.6563,93.75 628.3594,93.75 Q626.8438,93.75 625.6406,93.125 Q624.6563,92.625 623.9688,91.5625 Q623.2813,90.4844 623.2813,89.2031 L623.2813,88.0469 Q623.2813,86.7188 623.8906,85.5781 Q624.5156,84.4219 625.6094,83.8125 Q626.7031,83.1875 627.9375,83.1875 Q628.6719,83.1875 629.3125,83.3594 Q629.9688,83.5156 630.5156,83.875 Z " fill="#000000"/><text fill="#000000" font-family="sans-serif" font-size="14" lengthAdjust="spacing" textLength="118" x="648.25" y="93.7969">MyTasksController</text><line style="stroke:#181818;stroke-width:0.5;" x1="371" x2="1011" y1="104" y2="104"/><text fill="#000000" font-family="sans-serif" font-size="14" lengthAdjust="spacing" textLength="106" x="376" y="123.1074">-Agenda agenda</text><line style="stroke:#181818;stroke-width:0.5;" x1="371" x2="1011" y1="130.6211" y2="130.6211"/><text fill="#000000" font-family="sans-serif" font-size="14" lengthAdjust="spacing" textLength="136" x="376" y="149.7285">+MyTasksController()</text><text fill="#000000" font-family="sans-serif" font-size="14" lengthAdjust="spacing" textLength="137" x="376" y="168.3496">-Agenda getAgenda()</text><text fill="#000000" font-family="sans-serif" font-size="14" lengthAdjust="spacing" textLength="420" x="376" y="186.9707">+ArrayList&lt;AgendaEntry&gt; getMyAgendaEntries(TaskStatus status)</text><text fill="#000000" font-family="sans-serif" font-size="14" lengthAdjust="spacing" textLength="630" x="376" y="205.5918">+ArrayList&lt;AgendaEntry&gt; getMyAgendaEntries(TaskStatus status, String startDate, String endDate)</text><text fill="#000000" font-family="sans-serif" font-size="14" lengthAdjust="spacing" textLength="307" x="376" y="224.2129">+ArrayList&lt;AgendaEntry&gt; getMyAgendaEntries()</text></g><!--class Repositories--><g id="elem_Repositories"><rect codeLine="57" fill="#F1F1F1" height="103.8633" id="Repositories" rx="2.5" ry="2.5" style="stroke:#181818;stroke-width:0.5;" width="194" x="1116" y="100"/><ellipse cx="1169.25" cy="116" fill="#ADD1B2" rx="11" ry="11" style="stroke:#181818;stroke-width:1.0;"/><path d="M1172.0156,111.875 Q1172.1719,111.6563 1172.3594,111.5469 Q1172.5469,111.4375 1172.7656,111.4375 Q1173.1406,111.4375 1173.375,111.7031 Q1173.6094,111.9531 1173.6094,112.5625 L1173.6094,114.0156 Q1173.6094,114.625 1173.375,114.8906 Q1173.1406,115.1563 1172.7656,115.1563 Q1172.4219,115.1563 1172.2188,114.9531 Q1172.0156,114.7656 1171.9063,114.25 Q1171.8594,113.8906 1171.6719,113.7031 Q1171.3438,113.3281 1170.7344,113.1094 Q1170.125,112.8906 1169.5,112.8906 Q1168.7344,112.8906 1168.0938,113.2188 Q1167.4688,113.5469 1166.9688,114.2969 Q1166.4844,115.0469 1166.4844,116.0781 L1166.4844,117.1719 Q1166.4844,118.4063 1167.375,119.2344 Q1168.2656,120.0469 1169.8594,120.0469 Q1170.7969,120.0469 1171.4531,119.7969 Q1171.8438,119.6406 1172.2656,119.2031 Q1172.5313,118.9375 1172.6719,118.8594 Q1172.8281,118.7813 1173.0313,118.7813 Q1173.3594,118.7813 1173.6094,119.0469 Q1173.875,119.2969 1173.875,119.6406 Q1173.875,119.9844 1173.5313,120.3906 Q1173.0313,120.9688 1172.2344,121.2969 Q1171.1563,121.75 1169.8594,121.75 Q1168.3438,121.75 1167.1406,121.125 Q1166.1563,120.625 1165.4688,119.5625 Q1164.7813,118.4844 1164.7813,117.2031 L1164.7813,116.0469 Q1164.7813,114.7188 1165.3906,113.5781 Q1166.0156,112.4219 1167.1094,111.8125 Q1168.2031,111.1875 1169.4375,111.1875 Q1170.1719,111.1875 1170.8125,111.3594 Q1171.4688,111.5156 1172.0156,111.875 Z " fill="#000000"/><text fill="#000000" font-family="sans-serif" font-size="14" lengthAdjust="spacing" textLength="79" x="1189.75" y="121.7969">Repositories</text><line style="stroke:#181818;stroke-width:0.5;" x1="1117" x2="1309" y1="132" y2="132"/><line style="stroke:#181818;stroke-width:0.5;" x1="1117" x2="1309" y1="140" y2="140"/><text fill="#000000" font-family="sans-serif" font-size="14" lengthAdjust="spacing" textLength="94" x="1122" y="159.1074">-Repositories()</text><text fill="#000000" font-family="sans-serif" font-size="14" lengthAdjust="spacing" textLength="182" x="1122" y="177.7285">+getInstance() : Repositories</text><text fill="#000000" font-family="sans-serif" font-size="14" lengthAdjust="spacing" textLength="155" x="1122" y="196.3496">+getAgendaRepository()</text></g><!--class AgendaRepository--><g id="elem_AgendaRepository"><rect codeLine="53" fill="#F1F1F1" height="66.6211" id="AgendaRepository" rx="2.5" ry="2.5" style="stroke:#181818;stroke-width:0.5;" width="290" x="894" y="385"/><ellipse cx="976.25" cy="401" fill="#ADD1B2" rx="11" ry="11" style="stroke:#181818;stroke-width:1.0;"/><path d="M979.0156,396.875 Q979.1719,396.6563 979.3594,396.5469 Q979.5469,396.4375 979.7656,396.4375 Q980.1406,396.4375 980.375,396.7031 Q980.6094,396.9531 980.6094,397.5625 L980.6094,399.0156 Q980.6094,399.625 980.375,399.8906 Q980.1406,400.1563 979.7656,400.1563 Q979.4219,400.1563 979.2188,399.9531 Q979.0156,399.7656 978.9063,399.25 Q978.8594,398.8906 978.6719,398.7031 Q978.3438,398.3281 977.7344,398.1094 Q977.125,397.8906 976.5,397.8906 Q975.7344,397.8906 975.0938,398.2188 Q974.4688,398.5469 973.9688,399.2969 Q973.4844,400.0469 973.4844,401.0781 L973.4844,402.1719 Q973.4844,403.4063 974.375,404.2344 Q975.2656,405.0469 976.8594,405.0469 Q977.7969,405.0469 978.4531,404.7969 Q978.8438,404.6406 979.2656,404.2031 Q979.5313,403.9375 979.6719,403.8594 Q979.8281,403.7813 980.0313,403.7813 Q980.3594,403.7813 980.6094,404.0469 Q980.875,404.2969 980.875,404.6406 Q980.875,404.9844 980.5313,405.3906 Q980.0313,405.9688 979.2344,406.2969 Q978.1563,406.75 976.8594,406.75 Q975.3438,406.75 974.1406,406.125 Q973.1563,405.625 972.4688,404.5625 Q971.7813,403.4844 971.7813,402.2031 L971.7813,401.0469 Q971.7813,399.7188 972.3906,398.5781 Q973.0156,397.4219 974.1094,396.8125 Q975.2031,396.1875 976.4375,396.1875 Q977.1719,396.1875 977.8125,396.3594 Q978.4688,396.5156 979.0156,396.875 Z " fill="#000000"/><text fill="#000000" font-family="sans-serif" font-size="14" lengthAdjust="spacing" textLength="117" x="996.75" y="406.7969">AgendaRepository</text><line style="stroke:#181818;stroke-width:0.5;" x1="895" x2="1183" y1="417" y2="417"/><line style="stroke:#181818;stroke-width:0.5;" x1="895" x2="1183" y1="425" y2="425"/><text fill="#000000" font-family="sans-serif" font-size="14" lengthAdjust="spacing" textLength="278" x="900" y="444.1074">+tasksGiven(email, inData, endData, status)</text></g><!--class Task--><g id="elem_Task"><rect codeLine="74" fill="#F1F1F1" height="66.6211" id="Task" rx="2.5" ry="2.5" style="stroke:#181818;stroke-width:0.5;" width="155" x="747.5" y="540.5"/><ellipse cx="805.25" cy="556.5" fill="#ADD1B2" rx="11" ry="11" style="stroke:#181818;stroke-width:1.0;"/><path d="M808.0156,552.375 Q808.1719,552.1563 808.3594,552.0469 Q808.5469,551.9375 808.7656,551.9375 Q809.1406,551.9375 809.375,552.2031 Q809.6094,552.4531 809.6094,553.0625 L809.6094,554.5156 Q809.6094,555.125 809.375,555.3906 Q809.1406,555.6563 808.7656,555.6563 Q808.4219,555.6563 808.2188,555.4531 Q808.0156,555.2656 807.9063,554.75 Q807.8594,554.3906 807.6719,554.2031 Q807.3438,553.8281 806.7344,553.6094 Q806.125,553.3906 805.5,553.3906 Q804.7344,553.3906 804.0938,553.7188 Q803.4688,554.0469 802.9688,554.7969 Q802.4844,555.5469 802.4844,556.5781 L802.4844,557.6719 Q802.4844,558.9063 803.375,559.7344 Q804.2656,560.5469 805.8594,560.5469 Q806.7969,560.5469 807.4531,560.2969 Q807.8438,560.1406 808.2656,559.7031 Q808.5313,559.4375 808.6719,559.3594 Q808.8281,559.2813 809.0313,559.2813 Q809.3594,559.2813 809.6094,559.5469 Q809.875,559.7969 809.875,560.1406 Q809.875,560.4844 809.5313,560.8906 Q809.0313,561.4688 808.2344,561.7969 Q807.1563,562.25 805.8594,562.25 Q804.3438,562.25 803.1406,561.625 Q802.1563,561.125 801.4688,560.0625 Q800.7813,558.9844 800.7813,557.7031 L800.7813,556.5469 Q800.7813,555.2188 801.3906,554.0781 Q802.0156,552.9219 803.1094,552.3125 Q804.2031,551.6875 805.4375,551.6875 Q806.1719,551.6875 806.8125,551.8594 Q807.4688,552.0156 808.0156,552.375 Z " fill="#000000"/><text fill="#000000" font-family="sans-serif" font-size="14" lengthAdjust="spacing" textLength="31" x="825.75" y="562.2969">Task</text><line style="stroke:#181818;stroke-width:0.5;" x1="748.5" x2="901.5" y1="572.5" y2="572.5"/><text fill="#000000" font-family="sans-serif" font-size="14" lengthAdjust="spacing" textLength="143" x="753.5" y="591.6074">-String taskDescription</text><line style="stroke:#181818;stroke-width:0.5;" x1="748.5" x2="901.5" y1="599.1211" y2="599.1211"/></g><!--class TaskDTO--><g id="elem_TaskDTO"><rect codeLine="63" fill="#F1F1F1" height="103.8633" id="TaskDTO" rx="2.5" ry="2.5" style="stroke:#181818;stroke-width:0.5;" width="120" x="557" y="522"/><ellipse cx="584.15" cy="538" fill="#ADD1B2" rx="11" ry="11" style="stroke:#181818;stroke-width:1.0;"/><path d="M586.9156,533.875 Q587.0719,533.6563 587.2594,533.5469 Q587.4469,533.4375 587.6656,533.4375 Q588.0406,533.4375 588.275,533.7031 Q588.5094,533.9531 588.5094,534.5625 L588.5094,536.0156 Q588.5094,536.625 588.275,536.8906 Q588.0406,537.1563 587.6656,537.1563 Q587.3219,537.1563 587.1188,536.9531 Q586.9156,536.7656 586.8063,536.25 Q586.7594,535.8906 586.5719,535.7031 Q586.2438,535.3281 585.6344,535.1094 Q585.025,534.8906 584.4,534.8906 Q583.6344,534.8906 582.9938,535.2188 Q582.3688,535.5469 581.8688,536.2969 Q581.3844,537.0469 581.3844,538.0781 L581.3844,539.1719 Q581.3844,540.4063 582.275,541.2344 Q583.1656,542.0469 584.7594,542.0469 Q585.6969,542.0469 586.3531,541.7969 Q586.7438,541.6406 587.1656,541.2031 Q587.4313,540.9375 587.5719,540.8594 Q587.7281,540.7813 587.9313,540.7813 Q588.2594,540.7813 588.5094,541.0469 Q588.775,541.2969 588.775,541.6406 Q588.775,541.9844 588.4313,542.3906 Q587.9313,542.9688 587.1344,543.2969 Q586.0563,543.75 584.7594,543.75 Q583.2438,543.75 582.0406,543.125 Q581.0563,542.625 580.3688,541.5625 Q579.6813,540.4844 579.6813,539.2031 L579.6813,538.0469 Q579.6813,536.7188 580.2906,535.5781 Q580.9156,534.4219 582.0094,533.8125 Q583.1031,533.1875 584.3375,533.1875 Q585.0719,533.1875 585.7125,533.3594 Q586.3688,533.5156 586.9156,533.875 Z " fill="#000000"/><text fill="#000000" font-family="sans-serif" font-size="14" lengthAdjust="spacing" textLength="61" x="600.85" y="543.7969">TaskDTO</text><line style="stroke:#181818;stroke-width:0.5;" x1="558" x2="676" y1="554" y2="554"/><text fill="#000000" font-family="sans-serif" font-size="14" lengthAdjust="spacing" textLength="108" x="563" y="573.1074">-String taskName</text><text fill="#000000" font-family="sans-serif" font-size="14" lengthAdjust="spacing" textLength="102" x="563" y="591.7285">-String taskDate</text><text fill="#000000" font-family="sans-serif" font-size="14" lengthAdjust="spacing" textLength="106" x="563" y="610.3496">-String taskLocal</text><line style="stroke:#181818;stroke-width:0.5;" x1="558" x2="676" y1="617.8633" y2="617.8633"/></g><!--class TaskMapper--><g id="elem_TaskMapper"><rect codeLine="69" fill="#F1F1F1" height="85.2422" id="TaskMapper" rx="2.5" ry="2.5" style="stroke:#181818;stroke-width:0.5;" width="127" x="627.5" y="376"/><ellipse cx="649.7" cy="392" fill="#ADD1B2" rx="11" ry="11" style="stroke:#181818;stroke-width:1.0;"/><path d="M652.4656,387.875 Q652.6219,387.6563 652.8094,387.5469 Q652.9969,387.4375 653.2156,387.4375 Q653.5906,387.4375 653.825,387.7031 Q654.0594,387.9531 654.0594,388.5625 L654.0594,390.0156 Q654.0594,390.625 653.825,390.8906 Q653.5906,391.1563 653.2156,391.1563 Q652.8719,391.1563 652.6688,390.9531 Q652.4656,390.7656 652.3563,390.25 Q652.3094,389.8906 652.1219,389.7031 Q651.7938,389.3281 651.1844,389.1094 Q650.575,388.8906 649.95,388.8906 Q649.1844,388.8906 648.5438,389.2188 Q647.9188,389.5469 647.4188,390.2969 Q646.9344,391.0469 646.9344,392.0781 L646.9344,393.1719 Q646.9344,394.4063 647.825,395.2344 Q648.7156,396.0469 650.3094,396.0469 Q651.2469,396.0469 651.9031,395.7969 Q652.2938,395.6406 652.7156,395.2031 Q652.9813,394.9375 653.1219,394.8594 Q653.2781,394.7813 653.4813,394.7813 Q653.8094,394.7813 654.0594,395.0469 Q654.325,395.2969 654.325,395.6406 Q654.325,395.9844 653.9813,396.3906 Q653.4813,396.9688 652.6844,397.2969 Q651.6063,397.75 650.3094,397.75 Q648.7938,397.75 647.5906,397.125 Q646.6063,396.625 645.9188,395.5625 Q645.2313,394.4844 645.2313,393.2031 L645.2313,392.0469 Q645.2313,390.7188 645.8406,389.5781 Q646.4656,388.4219 647.5594,387.8125 Q648.6531,387.1875 649.8875,387.1875 Q650.6219,387.1875 651.2625,387.3594 Q651.9188,387.5156 652.4656,387.875 Z " fill="#000000"/><text fill="#000000" font-family="sans-serif" font-size="14" lengthAdjust="spacing" textLength="79" x="665.3" y="397.7969">TaskMapper</text><line style="stroke:#181818;stroke-width:0.5;" x1="628.5" x2="753.5" y1="408" y2="408"/><line style="stroke:#181818;stroke-width:0.5;" x1="628.5" x2="753.5" y1="416" y2="416"/><text fill="#000000" font-family="sans-serif" font-size="14" lengthAdjust="spacing" textLength="86" x="633.5" y="435.1074">+toDTO(task)</text><text fill="#000000" font-family="sans-serif" font-size="14" lengthAdjust="spacing" textLength="115" x="633.5" y="453.7285">+toDTOList(tasks)</text></g><!--link MyTasksGUI to MyTasksController--><g id="link_MyTasksGUI_MyTasksController"><path codeLine="7" d="M335.01,152 C340.91,152 344.33,152 344.33,152 C344.33,152 348.5,152 363.91,152 " fill="none" id="MyTasksGUI-to-MyTasksController" style="stroke:#181818;stroke-width:1.0;stroke-dasharray:7.0,7.0;"/><polygon fill="#181818" points="369.91,152,360.91,148,364.91,152,360.91,156,369.91,152" style="stroke:#181818;stroke-width:1.0;"/></g><!--link MyTasksController to Repositories--><g id="link_MyTasksController_Repositories"><path codeLine="9" d="M1012.3,152 C1049.7,152 1079.35,152 1109.95,152 " fill="none" id="MyTasksController-to-Repositories" style="stroke:#181818;stroke-width:1.0;stroke-dasharray:7.0,7.0;"/><polygon fill="#181818" points="1115.95,152,1106.95,148,1110.95,152,1106.95,156,1115.95,152" style="stroke:#181818;stroke-width:1.0;"/><text fill="#000000" font-family="sans-serif" font-size="13" lengthAdjust="spacing" textLength="67" x="1030.5" y="145.0283">repositories</text></g><!--link Repositories to Repositories--><g id="link_Repositories_Repositories"><path codeLine="11" d="M1310.28,118.71 C1330.48,122.22 1345,133.31 1345,152 C1345,170.69 1336.3914,180.7528 1316.1914,184.2628 " fill="none" id="Repositories-to-Repositories" style="stroke:#181818;stroke-width:1.0;"/><polygon fill="#181818" points="1310.28,185.29,1319.8319,187.6902,1315.2062,184.434,1318.4623,179.8083,1310.28,185.29" style="stroke:#181818;stroke-width:1.0;"/><text fill="#000000" font-family="sans-serif" font-size="13" lengthAdjust="spacing" textLength="49" x="1351" y="157.5283">instance</text></g><!--link Repositories to AgendaRepository--><g id="link_Repositories_AgendaRepository"><path codeLine="13" d="M1179.24,204.31 C1144.16,257.64 1093.6077,334.4975 1063.8777,379.6875 " fill="none" id="Repositories-to-AgendaRepository" style="stroke:#181818;stroke-width:1.0;"/><polygon fill="#181818" points="1060.58,384.7,1068.8682,379.3797,1063.3281,380.5229,1062.1848,374.9828,1060.58,384.7" style="stroke:#181818;stroke-width:1.0;"/><text fill="#000000" font-family="sans-serif" font-size="13" lengthAdjust="spacing" textLength="7" x="1057.0265" y="373.7287">1</text></g><!--link AgendaRepository to Task--><g id="link_AgendaRepository_Task"><path codeLine="15" d="M993.62,452.05 C957.3,478.1 911.4959,510.9636 875.1959,536.9936 " fill="none" id="AgendaRepository-to-Task" style="stroke:#181818;stroke-width:1.0;"/><polygon fill="#181818" points="870.32,540.49,879.9649,538.496,874.3833,537.5763,875.303,531.9947,870.32,540.49" style="stroke:#181818;stroke-width:1.0;"/></g><!--link MyTasksController to AgendaRepository--><g id="link_MyTasksController_AgendaRepository"><path codeLine="17" d="M794.94,232 C862.23,283.15 941.5332,343.4193 991.3832,381.3093 " fill="none" id="MyTasksController-to-AgendaRepository" style="stroke:#181818;stroke-width:1.0;stroke-dasharray:7.0,7.0;"/><polygon fill="#181818" points="996.16,384.94,991.4153,376.3094,992.1793,381.9144,986.5743,382.6784,996.16,384.94" style="stroke:#181818;stroke-width:1.0;"/><text fill="#000000" font-family="sans-serif" font-size="13" lengthAdjust="spacing" textLength="42" x="938" y="342.0283">agenda</text></g><!--link MyTasksController to TaskDTO--><g id="link_MyTasksController_TaskDTO"><path codeLine="19" d="M652.26,232.25 C620.93,296.35 582,376 582,376 C582,376 582,461 582,461 C582,461 590.0206,486.6531 599.2506,516.1931 " fill="none" id="MyTasksController-to-TaskDTO" style="stroke:#181818;stroke-width:1.0;stroke-dasharray:7.0,7.0;"/><polygon fill="#181818" points="601.04,521.92,602.1738,512.1366,599.5488,517.1475,594.5379,514.5225,601.04,521.92" style="stroke:#181818;stroke-width:1.0;"/><text fill="#000000" font-family="sans-serif" font-size="13" lengthAdjust="spacing" textLength="26" x="583" y="424.0283">DTO</text></g><!--link MyTasksController to TaskMapper--><g id="link_MyTasksController_TaskMapper"><path codeLine="21" d="M691,232 C691,279.19 691,331.24 691,369.7 " fill="none" id="MyTasksController-to-TaskMapper" style="stroke:#181818;stroke-width:1.0;stroke-dasharray:7.0,7.0;"/><polygon fill="#181818" points="691,375.7,695,366.7,691,370.7,687,366.7,691,375.7" style="stroke:#181818;stroke-width:1.0;"/><text fill="#000000" font-family="sans-serif" font-size="13" lengthAdjust="spacing" textLength="43" x="692" y="342.0283">Mapper</text></g><!--link TaskMapper to TaskDTO--><g id="link_TaskMapper_TaskDTO"><path codeLine="23" d="M670.97,461.04 C661.94,479.77 653.7942,496.6746 644.2742,516.4346 " fill="none" id="TaskMapper-to-TaskDTO" style="stroke:#181818;stroke-width:1.0;"/><polygon fill="#181818" points="641.67,521.84,649.1799,515.4681,643.8402,517.3355,641.9727,511.9958,641.67,521.84" style="stroke:#181818;stroke-width:1.0;"/></g><!--link TaskMapper to Task--><g id="link_TaskMapper_Task"><path codeLine="25" d="M727.26,461.04 C748.96,485.9 772.2144,512.5298 792.4044,535.6598 " fill="none" id="TaskMapper-to-Task" style="stroke:#181818;stroke-width:1.0;"/><polygon fill="#181818" points="796.35,540.18,793.445,530.7693,793.062,536.4132,787.4181,536.0302,796.35,540.18" style="stroke:#181818;stroke-width:1.0;"/></g><!--link MyTasksController to Task--><g id="link_MyTasksController_Task"><path codeLine="27" d="M719.79,232.25 C743.07,296.35 772,376 772,376 C772,376 799.6305,478.7262 814.6905,534.6762 " fill="none" id="MyTasksController-to-Task" style="stroke:#181818;stroke-width:1.0;stroke-dasharray:7.0,7.0;"/><polygon fill="#181818" points="816.25,540.47,817.7733,530.7397,814.9504,535.6418,810.0482,532.819,816.25,540.47" style="stroke:#181818;stroke-width:1.0;"/><text fill="#000000" font-family="sans-serif" font-size="13" lengthAdjust="spacing" textLength="32" x="796" y="424.0283">tasks</text></g><!--SRC=[fLHDZzem4BtxLrXx0eLKxHMja09qLqXBAnNQkqccMGl7jcopkodgV-_O-JA4hbILG_2yUPvvdXdR7hdKpB2AQfOVMGaxLmkW1dB7P2c0s9vWdrcXNhaiwKycREmHN8AhDL2jHEqD4ZbpmQpDd3FyS7AmoPNSyLz0FnAohVVC7ktZzmtziA2jjLBI6IK4c9umG9xt3RIot2d3mT8vAXrCGYwSQJfYSsdnN3dSODvzkgDP2R9WlQicv1e9LA_gfZgKDzemfon0VzlWiVN-A_Bm-nvfoxH6SqwR1I4HsAaA8MxWxyN5YCwxIEWK7Rfo9YdTmvjxu20AYeKpRiqS1FF2XSUB77js4F23m-jzKulFcB5Uj5Nm1bOyS5hgIebJ9MFoZEwG9Si5HaQp8P1qfQg3MggtUozmvvWxsKMGtgmxDqcN9-UKf1KpnyokbOG68Ecu2DLewfAX09CfIRZaZZE18pkPOgLU52z8efK-2Jnnq1_Xz9d9Ga2cjQWVk71WcinPxhYI4R5KIxnk4T1itA9YdxnHFRX_aylc37AnHqtXkYbBHXGyHSSfmJKhVxBC65O_SUik-uISRPt5pPeCzVPJW7__jxjhxp1IFT9EqZ_5dmxbkRvyPvA4qNxaBo0dK34kPlW6O0esQtFXeZjJ7oP-6_mbY6rCH_6Ne91D-vY4FiMSdd6j9zRQtVjpOATT1RpUBwo2CUeBCqQVLCx4PTJsxZU14-eKffbuxZH6V6q3Qgz4jOBYp61pmxMVOQJ-0G00]--></g></svg>