<?xml version="1.0" encoding="us-ascii" standalone="no"?><svg xmlns="http://www.w3.org/2000/svg" xmlns:xlink="http://www.w3.org/1999/xlink" contentStyleType="text/css" height="577px" preserveAspectRatio="none" style="width:1986px;height:577px;background:#FFFFFF;" version="1.1" viewBox="0 0 1986 577" width="1986px" zoomAndPan="magnify"><defs/><g><text fill="#000000" font-family="sans-serif" font-size="14" font-weight="bold" lengthAdjust="spacing" textLength="350" x="811" y="25.1074">Diagrama de Componentes - Simula&#231;&#227;o de Drones</text><!--cluster Ficheiros Fonte (.c)--><g id="cluster_Ficheiros Fonte (.c)"><path d="M461.5,45.8857 L599.5,45.8857 A3.75,3.75 0 0 1 602,48.3857 L609,71.8369 L1575.5,71.8369 A2.5,2.5 0 0 1 1578,74.3369 L1578,136.3857 A2.5,2.5 0 0 1 1575.5,138.8857 L461.5,138.8857 A2.5,2.5 0 0 1 459,136.3857 L459,48.3857 A2.5,2.5 0 0 1 461.5,45.8857 " fill="#FFFFFF" style="stroke:#000000;stroke-width:1.5;"/><line style="stroke:#000000;stroke-width:1.5;" x1="459" x2="609" y1="71.8369" y2="71.8369"/><text fill="#000000" font-family="sans-serif" font-size="15" font-weight="bold" lengthAdjust="spacing" textLength="137" x="463" y="64.0723">Ficheiros Fonte (.c)</text></g><!--cluster Threads--><g id="cluster_Threads"><path d="M1078.5,162.8857 L1138.5,162.8857 A3.75,3.75 0 0 1 1141,165.3857 L1148,188.8369 L1679.5,188.8369 A2.5,2.5 0 0 1 1682,191.3369 L1682,253.3857 A2.5,2.5 0 0 1 1679.5,255.8857 L1078.5,255.8857 A2.5,2.5 0 0 1 1076,253.3857 L1076,165.3857 A2.5,2.5 0 0 1 1078.5,162.8857 " fill="#FFFFFF" style="stroke:#000000;stroke-width:1.5;"/><line style="stroke:#000000;stroke-width:1.5;" x1="1076" x2="1148" y1="188.8369" y2="188.8369"/><text fill="#000000" font-family="sans-serif" font-size="15" font-weight="bold" lengthAdjust="spacing" textLength="59" x="1080" y="181.0723">Threads</text></g><!--cluster Processos--><g id="cluster_Processos"><path d="M573.5,162.8857 L649.5,162.8857 A3.75,3.75 0 0 1 652,165.3857 L659,188.8369 L1006.5,188.8369 A2.5,2.5 0 0 1 1009,191.3369 L1009,253.3857 A2.5,2.5 0 0 1 1006.5,255.8857 L573.5,255.8857 A2.5,2.5 0 0 1 571,253.3857 L571,165.3857 A2.5,2.5 0 0 1 573.5,162.8857 " fill="#FFFFFF" style="stroke:#000000;stroke-width:1.5;"/><line style="stroke:#000000;stroke-width:1.5;" x1="571" x2="659" y1="188.8369" y2="188.8369"/><text fill="#000000" font-family="sans-serif" font-size="15" font-weight="bold" lengthAdjust="spacing" textLength="75" x="575" y="181.0723">Processos</text></g><!--cluster Ficheiros (.txt)--><g id="cluster_Ficheiros (.txt)"><path d="M8.5,288.8857 L111.5,288.8857 A3.75,3.75 0 0 1 114,291.3857 L121,314.8369 L556.5,314.8369 A2.5,2.5 0 0 1 559,317.3369 L559,379.3857 A2.5,2.5 0 0 1 556.5,381.8857 L8.5,381.8857 A2.5,2.5 0 0 1 6,379.3857 L6,291.3857 A2.5,2.5 0 0 1 8.5,288.8857 " fill="#FFFFFF" style="stroke:#000000;stroke-width:1.5;"/><line style="stroke:#000000;stroke-width:1.5;" x1="6" x2="121" y1="314.8369" y2="314.8369"/><text fill="#000000" font-family="sans-serif" font-size="15" font-weight="bold" lengthAdjust="spacing" textLength="102" x="10" y="307.0723">Ficheiros (.txt)</text></g><!--cluster Mem?ria Partilhada --><g id="cluster_Mem&#243;ria Partilhada "><path d="M1159.5,288.8857 L1300.5,288.8857 A3.75,3.75 0 0 1 1303,291.3857 L1310,314.8369 L1556.5,314.8369 A2.5,2.5 0 0 1 1559,317.3369 L1559,379.3857 A2.5,2.5 0 0 1 1556.5,381.8857 L1159.5,381.8857 A2.5,2.5 0 0 1 1157,379.3857 L1157,291.3857 A2.5,2.5 0 0 1 1159.5,288.8857 " fill="#FFFFFF" style="stroke:#000000;stroke-width:1.5;"/><line style="stroke:#000000;stroke-width:1.5;" x1="1157" x2="1310" y1="314.8369" y2="314.8369"/><text fill="#000000" font-family="sans-serif" font-size="15" font-weight="bold" lengthAdjust="spacing" textLength="136" x="1161" y="307.0723">Mem&#243;ria Partilhada</text></g><!--cluster Sem?foros--><g id="cluster_Sem&#225;foros"><path d="M585.5,279.8857 L662.5,279.8857 A3.75,3.75 0 0 1 665,282.3857 L672,305.8369 L1130.5,305.8369 A2.5,2.5 0 0 1 1133,308.3369 L1133,568.3857 A2.5,2.5 0 0 1 1130.5,570.8857 L585.5,570.8857 A2.5,2.5 0 0 1 583,568.3857 L583,282.3857 A2.5,2.5 0 0 1 585.5,279.8857 " fill="#FFFFFF" style="stroke:#000000;stroke-width:1.5;"/><line style="stroke:#000000;stroke-width:1.5;" x1="583" x2="672" y1="305.8369" y2="305.8369"/><text fill="#000000" font-family="sans-serif" font-size="15" font-weight="bold" lengthAdjust="spacing" textLength="76" x="587" y="298.0723">Sem&#225;foros</text></g><!--cluster Sincroniza??o--><g id="cluster_Sincroniza&#231;&#227;o"><path d="M1629.5,288.8857 L1730.5,288.8857 A3.75,3.75 0 0 1 1733,291.3857 L1740,314.8369 L1976.5,314.8369 A2.5,2.5 0 0 1 1979,317.3369 L1979,379.3857 A2.5,2.5 0 0 1 1976.5,381.8857 L1629.5,381.8857 A2.5,2.5 0 0 1 1627,379.3857 L1627,291.3857 A2.5,2.5 0 0 1 1629.5,288.8857 " fill="#FFFFFF" style="stroke:#000000;stroke-width:1.5;"/><line style="stroke:#000000;stroke-width:1.5;" x1="1627" x2="1740" y1="314.8369" y2="314.8369"/><text fill="#000000" font-family="sans-serif" font-size="15" font-weight="bold" lengthAdjust="spacing" textLength="100" x="1631" y="307.0723">Sincroniza&#231;&#227;o</text></g><!--entity main.c--><g id="elem_main.c"><rect fill="#F1F1F1" height="38.6211" rx="2.5" ry="2.5" style="stroke:#181818;stroke-width:0.5;" width="61" x="702.5" y="83.8857"/><text fill="#000000" font-family="sans-serif" font-size="14" lengthAdjust="spacing" textLength="41" x="712.5" y="108.9932">main.c</text></g><!--entity geradorDrones.c--><g id="elem_geradorDrones.c"><rect fill="#F1F1F1" height="38.6211" rx="2.5" ry="2.5" style="stroke:#181818;stroke-width:0.5;" width="127" x="475.5" y="83.8857"/><text fill="#000000" font-family="sans-serif" font-size="14" lengthAdjust="spacing" textLength="107" x="485.5" y="108.9932">geradorDrones.c</text></g><!--entity simulacao_drone.c--><g id="elem_simulacao_drone.c"><rect fill="#F1F1F1" height="38.6211" rx="2.5" ry="2.5" style="stroke:#181818;stroke-width:0.5;" width="139" x="863.5" y="83.8857"/><text fill="#000000" font-family="sans-serif" font-size="14" lengthAdjust="spacing" textLength="119" x="873.5" y="108.9932">simulacao_drone.c</text></g><!--entity collision.c--><g id="elem_collision.c"><rect fill="#F1F1F1" height="38.6211" rx="2.5" ry="2.5" style="stroke:#181818;stroke-width:0.5;" width="81" x="1311.5" y="83.8857"/><text fill="#000000" font-family="sans-serif" font-size="14" lengthAdjust="spacing" textLength="61" x="1321.5" y="108.9932">collision.c</text></g><!--entity environment.c--><g id="elem_environment.c"><rect fill="#F1F1F1" height="38.6211" rx="2.5" ry="2.5" style="stroke:#181818;stroke-width:0.5;" width="109" x="1102.5" y="83.8857"/><text fill="#000000" font-family="sans-serif" font-size="14" lengthAdjust="spacing" textLength="89" x="1112.5" y="108.9932">environment.c</text></g><!--entity report.c--><g id="elem_report.c"><rect fill="#F1F1F1" height="38.6211" rx="2.5" ry="2.5" style="stroke:#181818;stroke-width:0.5;" width="69" x="1492.5" y="83.8857"/><text fill="#000000" font-family="sans-serif" font-size="14" lengthAdjust="spacing" textLength="49" x="1502.5" y="108.9932">report.c</text></g><!--entity collision_thread--><g id="elem_collision_thread"><rect fill="#F1F1F1" height="38.6211" rx="2.5" ry="2.5" style="stroke:#181818;stroke-width:0.5;" width="119" x="1339.5" y="200.8857"/><text fill="#000000" font-family="sans-serif" font-size="14" lengthAdjust="spacing" textLength="99" x="1349.5" y="225.9932">collision_thread</text></g><!--entity report_thread--><g id="elem_report_thread"><rect fill="#F1F1F1" height="38.6211" rx="2.5" ry="2.5" style="stroke:#181818;stroke-width:0.5;" width="107" x="1558.5" y="200.8857"/><text fill="#000000" font-family="sans-serif" font-size="14" lengthAdjust="spacing" textLength="87" x="1568.5" y="225.9932">report_thread</text></g><!--entity environment_thread--><g id="elem_environment_thread"><rect fill="#F1F1F1" height="38.6211" rx="2.5" ry="2.5" style="stroke:#181818;stroke-width:0.5;" width="147" x="1092.5" y="200.8857"/><text fill="#000000" font-family="sans-serif" font-size="14" lengthAdjust="spacing" textLength="127" x="1102.5" y="225.9932">environment_thread</text></g><!--entity Processo Principal (pai)--><g id="elem_Processo Principal (pai)"><rect fill="#F1F1F1" height="38.6211" rx="2.5" ry="2.5" style="stroke:#181818;stroke-width:0.5;" width="170" x="587" y="200.8857"/><text fill="#000000" font-family="sans-serif" font-size="14" lengthAdjust="spacing" textLength="150" x="597" y="225.9932">Processo Principal (pai)</text></g><!--entity Processo Drone(i)--><g id="elem_Processo Drone(i)"><rect fill="#F1F1F1" height="38.6211" rx="2.5" ry="2.5" style="stroke:#181818;stroke-width:0.5;" width="135" x="857.5" y="200.8857"/><text fill="#000000" font-family="sans-serif" font-size="14" lengthAdjust="spacing" textLength="115" x="867.5" y="225.9932">Processo Drone(i)</text></g><!--entity vento.txt--><g id="elem_vento.txt"><rect fill="#F1F1F1" height="38.6211" rx="2.5" ry="2.5" style="stroke:#181818;stroke-width:0.5;" width="73" x="208.5" y="326.8857"/><text fill="#000000" font-family="sans-serif" font-size="14" lengthAdjust="spacing" textLength="53" x="218.5" y="351.9932">vento.txt</text></g><!--entity drone_i.txt--><g id="elem_drone_i.txt"><rect fill="#F1F1F1" height="38.6211" rx="2.5" ry="2.5" style="stroke:#181818;stroke-width:0.5;" width="86" x="22" y="326.8857"/><text fill="#000000" font-family="sans-serif" font-size="14" lengthAdjust="spacing" textLength="66" x="32" y="351.9932">drone_i.txt</text></g><!--entity relatorio_simulacao.txt--><g id="elem_relatorio_simulacao.txt"><rect fill="#F1F1F1" height="38.6211" rx="2.5" ry="2.5" style="stroke:#181818;stroke-width:0.5;" width="161" x="381.5" y="326.8857"/><text fill="#000000" font-family="sans-serif" font-size="14" lengthAdjust="spacing" textLength="141" x="391.5" y="351.9932">relatorio_simulacao.txt</text></g><!--entity Drones--><g id="elem_Drones"><rect fill="#F1F1F1" height="38.6211" rx="2.5" ry="2.5" style="stroke:#181818;stroke-width:0.5;" width="66" x="1331" y="326.8857"/><text fill="#000000" font-family="sans-serif" font-size="14" lengthAdjust="spacing" textLength="46" x="1341" y="351.9932">Drones</text></g><!--entity Tick--><g id="elem_Tick"><rect fill="#F1F1F1" height="38.6211" rx="2.5" ry="2.5" style="stroke:#181818;stroke-width:0.5;" width="46" x="1497" y="326.8857"/><text fill="#000000" font-family="sans-serif" font-size="14" lengthAdjust="spacing" textLength="26" x="1507" y="351.9932">Tick</text></g><!--entity Vento--><g id="elem_Vento"><rect fill="#F1F1F1" height="38.6211" rx="2.5" ry="2.5" style="stroke:#181818;stroke-width:0.5;" width="57" x="1173.5" y="326.8857"/><text fill="#000000" font-family="sans-serif" font-size="14" lengthAdjust="spacing" textLength="37" x="1183.5" y="351.9932">Vento</text></g><!--entity Barreira de Sincroniza??o--><g id="elem_Barreira de Sincroniza&#231;&#227;o"><rect fill="#F1F1F1" height="57.2422" rx="2.5" ry="2.5" style="stroke:#181818;stroke-width:0.5;" width="183" x="861.5" y="317.8857"/><text fill="#000000" font-family="sans-serif" font-size="14" font-style="italic" lengthAdjust="spacing" textLength="87" x="909.5" y="342.9932">&#171;mechanism&#187;</text><text fill="#000000" font-family="sans-serif" font-size="14" lengthAdjust="spacing" textLength="163" x="871.5" y="361.6143">Barreira de Sincroniza&#231;&#227;o</text></g><!--entity sem_excl--><g id="elem_sem_excl"><rect fill="#F1F1F1" height="38.6211" rx="2.5" ry="2.5" style="stroke:#181818;stroke-width:0.5;" width="78" x="599" y="515.8857"/><text fill="#000000" font-family="sans-serif" font-size="14" lengthAdjust="spacing" textLength="58" x="609" y="540.9932">sem_excl</text></g><!--entity sem_barrier_in--><g id="elem_sem_barrier_in"><rect fill="#F1F1F1" height="38.6211" rx="2.5" ry="2.5" style="stroke:#181818;stroke-width:0.5;" width="115" x="777.5" y="515.8857"/><text fill="#000000" font-family="sans-serif" font-size="14" lengthAdjust="spacing" textLength="95" x="787.5" y="540.9932">sem_barrier_in</text></g><!--entity sem_barrier_out--><g id="elem_sem_barrier_out"><rect fill="#F1F1F1" height="38.6211" rx="2.5" ry="2.5" style="stroke:#181818;stroke-width:0.5;" width="124" x="993" y="515.8857"/><text fill="#000000" font-family="sans-serif" font-size="14" lengthAdjust="spacing" textLength="104" x="1003" y="540.9932">sem_barrier_out</text></g><!--entity mutex_colisoes--><g id="elem_mutex_colisoes"><rect fill="#F1F1F1" height="38.6211" rx="2.5" ry="2.5" style="stroke:#181818;stroke-width:0.5;" width="116" x="1847" y="326.8857"/><text fill="#000000" font-family="sans-serif" font-size="14" lengthAdjust="spacing" textLength="96" x="1857" y="351.9932">mutex_colisoes</text></g><!--entity cond_colisao--><g id="elem_cond_colisao"><rect fill="#F1F1F1" height="38.6211" rx="2.5" ry="2.5" style="stroke:#181818;stroke-width:0.5;" width="103" x="1643.5" y="326.8857"/><text fill="#000000" font-family="sans-serif" font-size="14" lengthAdjust="spacing" textLength="83" x="1653.5" y="351.9932">cond_colisao</text></g><!--link main.c to Processo Principal (pai)--><g id="link_main.c_Processo Principal (pai)"><path d="M723.06,123.1157 C711.72,144.5057 696.0804,173.9746 684.7404,195.3646 " fill="none" id="main.c-to-Processo Principal (pai)" style="stroke:#181818;stroke-width:1.0;"/><polygon fill="#181818" points="681.93,200.6657,689.6797,194.5877,684.272,196.2482,682.6115,190.8405,681.93,200.6657" style="stroke:#181818;stroke-width:1.0;"/></g><!--link main.c to Processo Drone(i)--><g id="link_main.c_Processo Drone(i)"><path d="M763.85,122.8657 C799.57,144.2557 852.9326,176.2228 888.7626,197.6828 " fill="none" id="main.c-to-Processo Drone(i)" style="stroke:#181818;stroke-width:1.0;"/><polygon fill="#181818" points="893.91,200.7657,888.2443,192.7097,889.6205,198.1966,884.1336,199.5729,893.91,200.7657" style="stroke:#181818;stroke-width:1.0;"/></g><!--link geradorDrones.c to drone_i.txt--><g id="link_geradorDrones.c_drone_i.txt"><path d="M475.34,111.8857 C429.93,118.8957 368.27,131.8557 318,154.8857 C219.52,199.9957 127.0847,284.2958 87.7247,322.6958 " fill="none" id="geradorDrones.c-to-drone_i.txt" style="stroke:#181818;stroke-width:1.0;"/><polygon fill="#181818" points="83.43,326.8857,92.6653,323.464,87.0089,323.3941,87.0787,317.7377,83.43,326.8857" style="stroke:#181818;stroke-width:1.0;"/></g><!--link geradorDrones.c to vento.txt--><g id="link_geradorDrones.c_vento.txt"><path d="M515.59,123.0657 C477.09,153.8357 398.09,217.2357 332,271.8857 C309.6,290.4057 288.8076,308.0052 271.2676,322.9452 " fill="none" id="geradorDrones.c-to-vento.txt" style="stroke:#181818;stroke-width:1.0;"/><polygon fill="#181818" points="266.7,326.8357,276.1452,324.045,270.5064,323.5936,270.9578,317.9548,266.7,326.8357" style="stroke:#181818;stroke-width:1.0;"/></g><!--link simulacao_drone.c to Processo Drone(i)--><g id="link_simulacao_drone.c_Processo Drone(i)"><path d="M931.7,123.1157 C930.21,144.5057 928.2069,173.2902 926.7169,194.6802 " fill="none" id="simulacao_drone.c-to-Processo Drone(i)" style="stroke:#181818;stroke-width:1.0;"/><polygon fill="#181818" points="926.3,200.6657,930.9157,191.9655,926.6475,195.6778,922.9351,191.4095,926.3,200.6657" style="stroke:#181818;stroke-width:1.0;"/></g><!--link collision.c to collision_thread--><g id="link_collision.c_collision_thread"><path d="M1359.66,123.1157 C1368.4,144.5057 1380.3405,173.7215 1389.0805,195.1115 " fill="none" id="collision.c-to-collision_thread" style="stroke:#181818;stroke-width:1.0;"/><polygon fill="#181818" points="1391.35,200.6657,1391.6486,190.8214,1389.4588,196.0372,1384.243,193.8474,1391.35,200.6657" style="stroke:#181818;stroke-width:1.0;"/></g><!--link report.c to report_thread--><g id="link_report.c_report_thread"><path d="M1540.85,123.1157 C1556.65,144.5057 1578.7951,174.4496 1594.5951,195.8396 " fill="none" id="report.c-to-report_thread" style="stroke:#181818;stroke-width:1.0;"/><polygon fill="#181818" points="1598.16,200.6657,1596.0301,191.0499,1595.1893,196.644,1589.5952,195.8031,1598.16,200.6657" style="stroke:#181818;stroke-width:1.0;"/></g><!--link environment.c to environment_thread--><g id="link_environment.c_environment_thread"><path d="M1158.47,123.1157 C1160.14,144.5057 1162.393,173.2939 1164.063,194.6839 " fill="none" id="environment.c-to-environment_thread" style="stroke:#181818;stroke-width:1.0;"/><polygon fill="#181818" points="1164.53,200.6657,1167.8173,191.3817,1164.1408,195.6809,1159.8416,192.0044,1164.53,200.6657" style="stroke:#181818;stroke-width:1.0;"/></g><!--link report_thread to relatorio_simulacao.txt--><g id="link_report_thread_relatorio_simulacao.txt"><path d="M1576.37,240.0557 C1557.01,249.1657 1532.32,259.1657 1509,263.8857 C1457.65,274.2857 615.86,255.8157 566,271.8857 C532.33,282.7357 504.5239,304.6607 485.1039,322.6307 " fill="none" id="report_thread-to-relatorio_simulacao.txt" style="stroke:#181818;stroke-width:1.0;"/><polygon fill="#181818" points="480.7,326.7057,490.0225,323.5291,484.3699,323.3099,484.5891,317.6573,480.7,326.7057" style="stroke:#181818;stroke-width:1.0;"/></g><!--link environment_thread to vento.txt--><g id="link_environment_thread_vento.txt"><path d="M1117.23,239.9057 C1090.68,249.0457 1057,259.1057 1026,263.8857 C987.89,269.7657 368.13,258.4257 332,271.8857 C302.35,282.9257 279.7437,304.3714 263.9837,322.2814 " fill="none" id="environment_thread-to-vento.txt" style="stroke:#181818;stroke-width:1.0;"/><polygon fill="#181818" points="260.02,326.7857,268.9684,322.6716,263.323,323.0321,262.9626,317.3867,260.02,326.7857" style="stroke:#181818;stroke-width:1.0;"/></g><!--link Processo Drone(i) to drone_i.txt--><g id="link_Processo Drone(i)_drone_i.txt"><path d="M884.16,239.9057 C861.85,249.0357 833.46,259.0957 807,263.8857 C771.57,270.2957 192.97,259.9457 159,271.8857 C127.73,282.8757 102.9936,304.5155 85.7136,322.4455 " fill="none" id="Processo Drone(i)-to-drone_i.txt" style="stroke:#181818;stroke-width:1.0;"/><polygon fill="#181818" points="81.55,326.7657,90.6756,323.0611,85.0197,323.1656,84.9153,317.5097,81.55,326.7657" style="stroke:#181818;stroke-width:1.0;"/></g><!--link collision_thread to Drones--><g id="link_collision_thread_Drones"><path d="M1393.76,239.9457 C1387.16,263.3257 1377.5185,297.481 1370.9085,320.921 " fill="none" id="collision_thread-to-Drones" style="stroke:#181818;stroke-width:1.0;"/><polygon fill="#181818" points="1369.28,326.6957,1375.5726,319.1192,1370.6371,321.8834,1367.8728,316.9479,1369.28,326.6957" style="stroke:#181818;stroke-width:1.0;"/></g><!--link collision_thread to Tick--><g id="link_collision_thread_Tick"><path d="M1417.11,239.9457 C1439.93,263.3257 1474.6999,298.9612 1497.5699,322.4012 " fill="none" id="collision_thread-to-Tick" style="stroke:#181818;stroke-width:1.0;"/><polygon fill="#181818" points="1501.76,326.6957,1498.3379,317.4605,1498.2682,323.117,1492.6118,323.0473,1501.76,326.6957" style="stroke:#181818;stroke-width:1.0;"/></g><!--link environment_thread to Vento--><g id="link_environment_thread_Vento"><path d="M1171.39,239.9457 C1178.18,263.3257 1188.0983,297.4933 1194.8983,320.9333 " fill="none" id="environment_thread-to-Vento" style="stroke:#181818;stroke-width:1.0;"/><polygon fill="#181818" points="1196.57,326.6957,1197.9041,316.9377,1195.1769,321.8937,1190.2209,319.1666,1196.57,326.6957" style="stroke:#181818;stroke-width:1.0;"/></g><!--link Processo Drone(i) to Drones--><g id="link_Processo Drone(i)_Drones"><path d="M972.59,239.9457 C997.85,248.9157 1029.66,258.8057 1059,263.8857 C1083.32,268.0957 1258.08,262.7257 1281,271.8857 C1309.42,283.2457 1330.6843,304.257 1345.6543,322.027 " fill="none" id="Processo Drone(i)-to-Drones" style="stroke:#181818;stroke-width:1.0;"/><polygon fill="#181818" points="1349.52,326.6157,1346.7806,317.1555,1346.2986,322.7918,1340.6623,322.3098,1349.52,326.6157" style="stroke:#181818;stroke-width:1.0;"/></g><!--link collision_thread to Barreira de Sincroniza??o--><g id="link_collision_thread_Barreira de Sincroniza&#231;&#227;o"><path d="M1360.33,239.9457 C1339.9,248.8457 1314.12,258.6757 1290,263.8857 C1224.74,277.9657 1205.24,257.7157 1140,271.8857 C1094.49,281.7657 1051.0563,298.8619 1014.6863,315.3219 " fill="none" id="collision_thread-to-Barreira de Sincroniza&#231;&#227;o" style="stroke:#181818;stroke-width:1.0;"/><polygon fill="#181818" points="1009.22,317.7957,1019.0686,317.7291,1013.7752,315.7342,1015.7701,310.4408,1009.22,317.7957" style="stroke:#181818;stroke-width:1.0;"/></g><!--link environment_thread to Barreira de Sincroniza??o--><g id="link_environment_thread_Barreira de Sincroniza&#231;&#227;o"><path d="M1134.11,239.9457 C1098.72,260.5557 1046.405,291.0065 1005.705,314.7065 " fill="none" id="environment_thread-to-Barreira de Sincroniza&#231;&#227;o" style="stroke:#181818;stroke-width:1.0;"/><polygon fill="#181818" points="1000.52,317.7257,1010.3103,316.6535,1004.8408,315.2097,1006.2846,309.7402,1000.52,317.7257" style="stroke:#181818;stroke-width:1.0;"/></g><!--link Processo Drone(i) to Barreira de Sincroniza??o--><g id="link_Processo Drone(i)_Barreira de Sincroniza&#231;&#227;o"><path d="M929.19,239.9457 C933.83,260.4857 940.0278,287.9533 945.3778,311.6333 " fill="none" id="Processo Drone(i)-to-Barreira de Sincroniza&#231;&#227;o" style="stroke:#181818;stroke-width:1.0;"/><polygon fill="#181818" points="946.7,317.4857,948.6183,307.8255,945.5981,312.6087,940.815,309.5885,946.7,317.4857" style="stroke:#181818;stroke-width:1.0;"/></g><!--link Barreira de Sincroniza??o to sem_excl--><g id="link_Barreira de Sincroniza&#231;&#227;o_sem_excl"><path d="M906.52,374.9757 C841.49,413.5857 730.2394,479.633 674.5294,512.703 " fill="none" id="Barreira de Sincroniza&#231;&#227;o-to-sem_excl" style="stroke:#181818;stroke-width:1.0;"/><polygon fill="#181818" points="669.37,515.7657,679.151,514.6113,673.6695,513.2135,675.0674,507.7321,669.37,515.7657" style="stroke:#181818;stroke-width:1.0;"/></g><!--link Barreira de Sincroniza??o to sem_barrier_in--><g id="link_Barreira de Sincroniza&#231;&#227;o_sem_barrier_in"><path d="M935.59,374.9757 C911.23,413.5857 870.8222,477.6217 849.9522,510.6917 " fill="none" id="Barreira de Sincroniza&#231;&#227;o-to-sem_barrier_in" style="stroke:#181818;stroke-width:1.0;"/><polygon fill="#181818" points="846.75,515.7657,854.936,510.2894,849.4185,511.5374,848.1705,506.0199,846.75,515.7657" style="stroke:#181818;stroke-width:1.0;"/></g><!--link Barreira de Sincroniza??o to sem_barrier_out--><g id="link_Barreira de Sincroniza&#231;&#227;o_sem_barrier_out"><path d="M968.05,374.9757 C989.11,413.5857 1023.9267,477.4285 1041.9667,510.4985 " fill="none" id="Barreira de Sincroniza&#231;&#227;o-to-sem_barrier_out" style="stroke:#181818;stroke-width:1.0;"/><polygon fill="#181818" points="1044.84,515.7657,1044.0415,505.9493,1042.4456,511.3764,1037.0185,509.7804,1044.84,515.7657" style="stroke:#181818;stroke-width:1.0;"/></g><!--link collision_thread to mutex_colisoes--><g id="link_collision_thread_mutex_colisoes"><path d="M1437.48,239.9757 C1458.17,249.0057 1484.41,258.9457 1509,263.8857 C1540.39,270.1857 1766.54,262.0357 1797,271.8857 C1831.53,283.0457 1860.5744,305.0034 1880.8944,322.8734 " fill="none" id="collision_thread-to-mutex_colisoes" style="stroke:#181818;stroke-width:1.0;"/><polygon fill="#181818" points="1885.4,326.8357,1881.2832,317.8886,1881.6454,323.5338,1876.0001,323.896,1885.4,326.8357" style="stroke:#181818;stroke-width:1.0;"/></g><!--link report_thread to mutex_colisoes--><g id="link_report_thread_mutex_colisoes"><path d="M1665.86,231.1557 C1703.68,239.1957 1754.82,252.4357 1797,271.8857 C1828.72,286.5057 1856.6458,306.4241 1877.6158,322.9341 " fill="none" id="report_thread-to-mutex_colisoes" style="stroke:#181818;stroke-width:1.0;"/><polygon fill="#181818" points="1882.33,326.6457,1877.733,317.9355,1878.4015,323.5527,1872.7842,324.2212,1882.33,326.6457" style="stroke:#181818;stroke-width:1.0;"/></g><!--link collision_thread to cond_colisao--><g id="link_collision_thread_cond_colisao"><path d="M1439.74,239.9257 C1460.14,248.4857 1485.46,258.0257 1509,263.8857 C1538.1,271.1257 1547.69,261.9957 1576,271.8857 C1612.22,284.5357 1644.2746,305.9464 1667.1746,323.2664 " fill="none" id="collision_thread-to-cond_colisao" style="stroke:#181818;stroke-width:1.0;"/><polygon fill="#181818" points="1671.96,326.8857,1667.1948,318.2664,1667.9722,323.8696,1662.369,324.647,1671.96,326.8857" style="stroke:#181818;stroke-width:1.0;"/></g><!--link report_thread to cond_colisao--><g id="link_report_thread_cond_colisao"><path d="M1624.43,239.9457 C1640.07,263.3257 1663.4625,298.2697 1679.1525,321.7097 " fill="none" id="report_thread-to-cond_colisao" style="stroke:#181818;stroke-width:1.0;"/><polygon fill="#181818" points="1682.49,326.6957,1680.8078,316.9916,1679.7087,322.5407,1674.1597,321.4416,1682.49,326.6957" style="stroke:#181818;stroke-width:1.0;"/></g><!--SRC=[bLHBRjim4Dth54GsTHOEaaNHJHf0iML4G1qPafeMA0o1fIOsOKaKA3fmKtGHPD43z0H55pr0Zw2BbI8bMr-dzSRcuvjvCyDv5bH4WAOKhpYECGe1JLYSiWGI0HaQ8u_6smZdl_DVhBYSSdcL6KQseKcAPGWY5TqJNsGc3aJWP1L1ZP9Yii4hG5yDXAuP3u5FMCGukexaHO79hnLdsoJK-8Sr5I3n6PDPwIEWYzV6jrg-4ExnDX8-x8GPqLKIItL4YefvZPMm4398qSNvUGtbEDaKw9jpmp1UeRVx3vhPanlBTXqFpPnRtwfT6LK39pDAra0vorHjW4PdvFH4zVKfnZGv8ylYvmeu3XdNiognJCsHO1Q41LoYX4KHpIYh8Y5vaDbLGoN28MLS7UG8cWNxDwvbJhtUGlqr1nncPMrxcK0el9QvZjJKzt1RTE4w4ylpd7xP1MS4ienLmjKPBJXD24rnX4OffgVBngKQrAX0EtA7H_6jZxxpmgECpiHEL0_o8DjW1Q34rDG3kZzpYB1WdB9W_pBwhbt1t9hdFrpRH0lJzUrtD-RKxArY3d7-XrEC5fWB6grnY55PYLu49UjJib4_xehgb5fJpfDoJpF77HYm9rL-tZE-d_0rvbmshvphoHbBAVge_Rf4bvSna3LEQ1PVNQajX3Y07OcMrU6p3AV00vfq8BOLFVNDtyk7G1QwCrqxVxgpR0zDBJHnRgTs_Zr_xd-XLc6LOxO2Te7SJPgnSZo49Q56i1vEPIiq7byTMwS1tc6pEgOicCsjwAVKrgZ7nCDwTMjhLjU51tThHikIhRy3pUapQIkmIZQmuNqfT4YzrsvFcjCSMQSdJQesVkXUss2uaD8TWqMybF-OAux87WyRAkPur563ZbM2Wol_bLstxV_6A5yF3QxjoTxDwf06aZNTt9kgIJ6Clm00]--></g></svg>