<?xml version="1.0" encoding="us-ascii" standalone="no"?><svg xmlns="http://www.w3.org/2000/svg" xmlns:xlink="http://www.w3.org/1999/xlink" contentStyleType="text/css" height="1316.7px" preserveAspectRatio="none" style="width:1651px;height:1316px;background:#FFFFFF;" version="1.1" viewBox="0 0 1651 1316" width="1651.5px" zoomAndPan="magnify"><defs/><g><rect fill="#FFFFFF" height="1146.9445" style="stroke:#181818;stroke-width:0.9;" width="9" x="81" y="81.5766"/><rect fill="#FFFFFF" height="393.2719" style="stroke:#181818;stroke-width:0.9;" width="9" x="349.2" y="100.0477"/><rect fill="#FFFFFF" height="38.7422" style="stroke:#181818;stroke-width:0.9;" width="9" x="349.2" y="518.9906"/><rect fill="#FFFFFF" height="235.6453" style="stroke:#181818;stroke-width:0.9;" width="9" x="349.2" y="583.4039"/><rect fill="#FFFFFF" height="362.6297" style="stroke:#181818;stroke-width:0.9;" width="9" x="349.2" y="865.8914"/><rect fill="#FFFFFF" height="320.7586" style="stroke:#181818;stroke-width:0.9;" width="9" x="479.7" y="125.7188"/><rect fill="#FFFFFF" height="128.3555" style="stroke:#181818;stroke-width:0.9;" width="9" x="639.9" y="658.7227"/><rect fill="#FFFFFF" height="311.2875" style="stroke:#181818;stroke-width:0.9;" width="9" x="639.9" y="891.5625"/><rect fill="#FFFFFF" height="25.6711" style="stroke:#181818;stroke-width:0.9;" width="9" x="761.85" y="151.3898"/><rect fill="#FFFFFF" height="25.6711" style="stroke:#181818;stroke-width:0.9;" width="9" x="761.85" y="684.3938"/><rect fill="#FFFFFF" height="25.6711" style="stroke:#181818;stroke-width:0.9;" width="9" x="761.85" y="917.2336"/><rect fill="#FFFFFF" height="25.6711" style="stroke:#181818;stroke-width:0.9;" width="9" x="858.15" y="202.732"/><rect fill="#FFFFFF" height="25.6711" style="stroke:#181818;stroke-width:0.9;" width="9" x="988.65" y="254.0742"/><rect fill="#FFFFFF" height="25.6711" style="stroke:#181818;stroke-width:0.9;" width="9" x="988.65" y="1145.2078"/><rect fill="#FFFFFF" height="87.9188" style="stroke:#181818;stroke-width:0.9;" width="9" x="1139.4" y="326.5875"/><rect fill="#FFFFFF" height="27.5766" style="stroke:#181818;stroke-width:0.9;" width="9" x="1277.1" y="361.2586"/><rect fill="#FFFFFF" height="99.6188" style="stroke:#181818;stroke-width:0.9;" width="9" x="1373.85" y="1019.918"/><rect fill="#FFFFFF" height="25.6711" style="stroke:#181818;stroke-width:0.9;" width="9" x="1590.3" y="735.7359"/><rect fill="#FFFFFF" height="25.6711" style="stroke:#181818;stroke-width:0.9;" width="9" x="1590.3" y="968.5758"/><rect fill="none" height="128.4609" style="stroke:#000000;stroke-width:1.35;" width="932.85" x="413.55" y="293.2453"/><rect fill="none" height="334.3008" style="stroke:#000000;stroke-width:1.35;" width="1637.1" x="9" y="459.9773"/><rect fill="none" height="345.5297" style="stroke:#000000;stroke-width:1.35;" width="1637.1" x="9" y="832.5492"/><line style="stroke:#181818;stroke-width:0.45;stroke-dasharray:5.0,5.0;" x1="85.5" x2="85.5" y1="72.5766" y2="1244.7211"/><line style="stroke:#181818;stroke-width:0.45;stroke-dasharray:5.0,5.0;" x1="353.7" x2="353.7" y1="72.5766" y2="1244.7211"/><line style="stroke:#181818;stroke-width:0.45;stroke-dasharray:5.0,5.0;" x1="483.75" x2="483.75" y1="72.5766" y2="1244.7211"/><line style="stroke:#181818;stroke-width:0.45;stroke-dasharray:5.0,5.0;" x1="644.4" x2="644.4" y1="617.8922" y2="1244.7211"/><line style="stroke:#181818;stroke-width:0.45;stroke-dasharray:5.0,5.0;" x1="765.9" x2="765.9" y1="72.5766" y2="1244.7211"/><line style="stroke:#181818;stroke-width:0.45;stroke-dasharray:5.0,5.0;" x1="862.2" x2="862.2" y1="72.5766" y2="1244.7211"/><line style="stroke:#181818;stroke-width:0.45;stroke-dasharray:5.0,5.0;" x1="992.7" x2="992.7" y1="72.5766" y2="1244.7211"/><line style="stroke:#181818;stroke-width:0.45;stroke-dasharray:5.0,5.0;" x1="1143.9" x2="1143.9" y1="72.5766" y2="1244.7211"/><line style="stroke:#181818;stroke-width:0.45;stroke-dasharray:5.0,5.0;" x1="1281.6" x2="1281.6" y1="361.0758" y2="1244.7211"/><line style="stroke:#181818;stroke-width:0.45;stroke-dasharray:5.0,5.0;" x1="1377.9" x2="1377.9" y1="72.5766" y2="1244.7211"/><line style="stroke:#181818;stroke-width:0.45;stroke-dasharray:5.0,5.0;" x1="1509.3" x2="1509.3" y1="1054.4063" y2="1244.7211"/><line style="stroke:#181818;stroke-width:0.45;stroke-dasharray:5.0,5.0;" x1="1594.8" x2="1594.8" y1="72.5766" y2="1244.7211"/><text fill="#000000" font-family="sans-serif" font-size="12.6" lengthAdjust="spacing" textLength="129.6" x="18" y="69.9064">Green Space Manager</text><ellipse cx="85.5" cy="12.15" fill="#E3E3E3" rx="7.2" ry="7.2" style="stroke:#181818;stroke-width:0.45;"/><path d="M85.5,19.35 L85.5,43.65 M73.8,26.55 L97.2,26.55 M85.5,43.65 L73.8,57.15 M85.5,43.65 L97.2,57.15 " fill="none" style="stroke:#181818;stroke-width:0.45;"/><text fill="#000000" font-family="sans-serif" font-size="12.6" lengthAdjust="spacing" textLength="129.6" x="18" y="1255.2275">Green Space Manager</text><ellipse cx="85.5" cy="1265.5477" fill="#E3E3E3" rx="7.2" ry="7.2" style="stroke:#181818;stroke-width:0.45;"/><path d="M85.5,1272.7477 L85.5,1297.0477 M73.8,1279.9477 L97.2,1279.9477 M85.5,1297.0477 L73.8,1310.5477 M85.5,1297.0477 L97.2,1310.5477 " fill="none" style="stroke:#181818;stroke-width:0.45;"/><rect fill="#E3E3E3" height="26.6766" rx="2.25" ry="2.25" style="stroke:#181818;stroke-width:0.45;" width="88.2" x="309.6" y="45"/><text fill="#000000" font-family="sans-serif" font-size="12.6" lengthAdjust="spacing" textLength="75.6" x="315.9" y="62.7064">:ToDoListGUI</text><rect fill="#E3E3E3" height="26.6766" rx="2.25" ry="2.25" style="stroke:#181818;stroke-width:0.45;" width="88.2" x="309.6" y="1243.8211"/><text fill="#000000" font-family="sans-serif" font-size="12.6" lengthAdjust="spacing" textLength="75.6" x="315.9" y="1261.5275">:ToDoListGUI</text><rect fill="#E3E3E3" height="26.6766" rx="2.25" ry="2.25" style="stroke:#181818;stroke-width:0.45;" width="123.3" x="422.55" y="45"/><text fill="#000000" font-family="sans-serif" font-size="12.6" lengthAdjust="spacing" textLength="110.7" x="428.85" y="62.7064">:ToDoListController</text><rect fill="#E3E3E3" height="26.6766" rx="2.25" ry="2.25" style="stroke:#181818;stroke-width:0.45;" width="123.3" x="422.55" y="1243.8211"/><text fill="#000000" font-family="sans-serif" font-size="12.6" lengthAdjust="spacing" textLength="110.7" x="428.85" y="1261.5275">:ToDoListController</text><rect fill="#E3E3E3" height="26.6766" rx="2.25" ry="2.25" style="stroke:#181818;stroke-width:0.45;" width="138.6" x="575.1" y="1243.8211"/><text fill="#000000" font-family="sans-serif" font-size="12.6" lengthAdjust="spacing" textLength="126" x="581.4" y="1261.5275">:CreateTaskController</text><rect fill="#E3E3E3" height="26.6766" rx="2.25" ry="2.25" style="stroke:#181818;stroke-width:0.45;" width="87.3" x="722.7" y="45"/><text fill="#000000" font-family="sans-serif" font-size="12.6" lengthAdjust="spacing" textLength="74.7" x="729" y="62.7064">:Repositories</text><rect fill="#E3E3E3" height="26.6766" rx="2.25" ry="2.25" style="stroke:#181818;stroke-width:0.45;" width="87.3" x="722.7" y="1243.8211"/><text fill="#000000" font-family="sans-serif" font-size="12.6" lengthAdjust="spacing" textLength="74.7" x="729" y="1261.5275">:Repositories</text><rect fill="#E3E3E3" height="40.7531" rx="2.25" ry="2.25" style="stroke:#181818;stroke-width:0.45;" width="87.3" x="819" y="30.9234"/><text fill="#000000" font-family="sans-serif" font-size="12.6" lengthAdjust="spacing" textLength="66.6" x="829.35" y="48.6299">repositories</text><text fill="#000000" font-family="sans-serif" font-size="12.6" lengthAdjust="spacing" textLength="74.7" x="825.3" y="62.7064">:Repositories</text><rect fill="#E3E3E3" height="40.7531" rx="2.25" ry="2.25" style="stroke:#181818;stroke-width:0.45;" width="87.3" x="819" y="1243.8211"/><text fill="#000000" font-family="sans-serif" font-size="12.6" lengthAdjust="spacing" textLength="66.6" x="829.35" y="1261.5275">repositories</text><text fill="#000000" font-family="sans-serif" font-size="12.6" lengthAdjust="spacing" textLength="74.7" x="825.3" y="1275.6041">:Repositories</text><rect fill="#E3E3E3" height="40.7531" rx="2.25" ry="2.25" style="stroke:#181818;stroke-width:0.45;" width="155.7" x="915.3" y="30.9234"/><text fill="#000000" font-family="sans-serif" font-size="12.6" lengthAdjust="spacing" textLength="136.8" x="924.75" y="48.6299">greenSpacesRepository</text><text fill="#000000" font-family="sans-serif" font-size="12.6" lengthAdjust="spacing" textLength="143.1" x="921.6" y="62.7064">:GreenSpacesRepository</text><rect fill="#E3E3E3" height="40.7531" rx="2.25" ry="2.25" style="stroke:#181818;stroke-width:0.45;" width="155.7" x="915.3" y="1243.8211"/><text fill="#000000" font-family="sans-serif" font-size="12.6" lengthAdjust="spacing" textLength="136.8" x="924.75" y="1261.5275">greenSpacesRepository</text><text fill="#000000" font-family="sans-serif" font-size="12.6" lengthAdjust="spacing" textLength="143.1" x="921.6" y="1275.6041">:GreenSpacesRepository</text><rect fill="#E3E3E3" height="26.6766" rx="2.25" ry="2.25" style="stroke:#181818;stroke-width:0.45;" width="127.8" x="1080" y="45"/><text fill="#000000" font-family="sans-serif" font-size="12.6" lengthAdjust="spacing" textLength="115.2" x="1086.3" y="62.7064">GreenSpaceMapper</text><rect fill="#E3E3E3" height="26.6766" rx="2.25" ry="2.25" style="stroke:#181818;stroke-width:0.45;" width="127.8" x="1080" y="1243.8211"/><text fill="#000000" font-family="sans-serif" font-size="12.6" lengthAdjust="spacing" textLength="115.2" x="1086.3" y="1261.5275">GreenSpaceMapper</text><rect fill="#E3E3E3" height="26.6766" rx="2.25" ry="2.25" style="stroke:#181818;stroke-width:0.45;" width="111.6" x="1225.8" y="1243.8211"/><text fill="#000000" font-family="sans-serif" font-size="12.6" lengthAdjust="spacing" textLength="99" x="1232.1" y="1261.5275">GreenSpaceDTO</text><rect fill="#E3E3E3" height="26.6766" rx="2.25" ry="2.25" style="stroke:#181818;stroke-width:0.45;" width="63.9" x="1346.4" y="45"/><text fill="#000000" font-family="sans-serif" font-size="12.6" lengthAdjust="spacing" textLength="51.3" x="1352.7" y="62.7064">ToDoList</text><rect fill="#E3E3E3" height="26.6766" rx="2.25" ry="2.25" style="stroke:#181818;stroke-width:0.45;" width="63.9" x="1346.4" y="1243.8211"/><text fill="#000000" font-family="sans-serif" font-size="12.6" lengthAdjust="spacing" textLength="51.3" x="1352.7" y="1261.5275">ToDoList</text><rect fill="#E3E3E3" height="26.6766" rx="2.25" ry="2.25" style="stroke:#181818;stroke-width:0.45;" width="67.5" x="1476" y="1243.8211"/><text fill="#000000" font-family="sans-serif" font-size="12.6" lengthAdjust="spacing" textLength="54.9" x="1482.3" y="1261.5275">task:Task</text><rect fill="#E3E3E3" height="26.6766" rx="2.25" ry="2.25" style="stroke:#181818;stroke-width:0.45;" width="84.6" x="1552.5" y="45"/><text fill="#000000" font-family="sans-serif" font-size="12.6" lengthAdjust="spacing" textLength="72" x="1558.8" y="62.7064">GreenSpace</text><rect fill="#E3E3E3" height="26.6766" rx="2.25" ry="2.25" style="stroke:#181818;stroke-width:0.45;" width="84.6" x="1552.5" y="1243.8211"/><text fill="#000000" font-family="sans-serif" font-size="12.6" lengthAdjust="spacing" textLength="72" x="1558.8" y="1261.5275">GreenSpace</text><rect fill="#FFFFFF" height="1146.9445" style="stroke:#181818;stroke-width:0.9;" width="9" x="81" y="81.5766"/><rect fill="#FFFFFF" height="393.2719" style="stroke:#181818;stroke-width:0.9;" width="9" x="349.2" y="100.0477"/><rect fill="#FFFFFF" height="38.7422" style="stroke:#181818;stroke-width:0.9;" width="9" x="349.2" y="518.9906"/><rect fill="#FFFFFF" height="235.6453" style="stroke:#181818;stroke-width:0.9;" width="9" x="349.2" y="583.4039"/><rect fill="#FFFFFF" height="362.6297" style="stroke:#181818;stroke-width:0.9;" width="9" x="349.2" y="865.8914"/><rect fill="#FFFFFF" height="320.7586" style="stroke:#181818;stroke-width:0.9;" width="9" x="479.7" y="125.7188"/><rect fill="#FFFFFF" height="128.3555" style="stroke:#181818;stroke-width:0.9;" width="9" x="639.9" y="658.7227"/><rect fill="#FFFFFF" height="311.2875" style="stroke:#181818;stroke-width:0.9;" width="9" x="639.9" y="891.5625"/><rect fill="#FFFFFF" height="25.6711" style="stroke:#181818;stroke-width:0.9;" width="9" x="761.85" y="151.3898"/><rect fill="#FFFFFF" height="25.6711" style="stroke:#181818;stroke-width:0.9;" width="9" x="761.85" y="684.3938"/><rect fill="#FFFFFF" height="25.6711" style="stroke:#181818;stroke-width:0.9;" width="9" x="761.85" y="917.2336"/><rect fill="#FFFFFF" height="25.6711" style="stroke:#181818;stroke-width:0.9;" width="9" x="858.15" y="202.732"/><rect fill="#FFFFFF" height="25.6711" style="stroke:#181818;stroke-width:0.9;" width="9" x="988.65" y="254.0742"/><rect fill="#FFFFFF" height="25.6711" style="stroke:#181818;stroke-width:0.9;" width="9" x="988.65" y="1145.2078"/><rect fill="#FFFFFF" height="87.9188" style="stroke:#181818;stroke-width:0.9;" width="9" x="1139.4" y="326.5875"/><rect fill="#FFFFFF" height="27.5766" style="stroke:#181818;stroke-width:0.9;" width="9" x="1277.1" y="361.2586"/><rect fill="#FFFFFF" height="99.6188" style="stroke:#181818;stroke-width:0.9;" width="9" x="1373.85" y="1019.918"/><rect fill="#FFFFFF" height="25.6711" style="stroke:#181818;stroke-width:0.9;" width="9" x="1590.3" y="735.7359"/><rect fill="#FFFFFF" height="25.6711" style="stroke:#181818;stroke-width:0.9;" width="9" x="1590.3" y="968.5758"/><polygon fill="#181818" points="338.4,96.4477,347.4,100.0477,338.4,103.6477,342,100.0477" style="stroke:#181818;stroke-width:0.9;"/><line style="stroke:#181818;stroke-width:0.9;" x1="90" x2="343.8" y1="100.0477" y2="100.0477"/><text fill="#000000" font-family="sans-serif" font-size="11.7" font-weight="bold" lengthAdjust="spacing" textLength="6.3" x="96.3" y="95.7683">1</text><text fill="#000000" font-family="sans-serif" font-size="11.7" lengthAdjust="spacing" textLength="215.1" x="106.2" y="95.7683">asks to add a new entry to the To-Do List</text><polygon fill="#181818" points="468.9,122.1188,477.9,125.7188,468.9,129.3188,472.5,125.7188" style="stroke:#181818;stroke-width:0.9;"/><line style="stroke:#181818;stroke-width:0.9;" x1="358.2" x2="474.3" y1="125.7188" y2="125.7188"/><text fill="#000000" font-family="sans-serif" font-size="11.7" font-weight="bold" lengthAdjust="spacing" textLength="6.3" x="364.5" y="121.4394">2</text><text fill="#000000" font-family="sans-serif" font-size="11.7" lengthAdjust="spacing" textLength="94.5" x="374.4" y="121.4394">getGreenSpaces()</text><polygon fill="#181818" points="751.05,147.7898,760.05,151.3898,751.05,154.9898,754.65,151.3898" style="stroke:#181818;stroke-width:0.9;"/><line style="stroke:#181818;stroke-width:0.9;" x1="488.7" x2="756.45" y1="151.3898" y2="151.3898"/><text fill="#000000" font-family="sans-serif" font-size="11.7" font-weight="bold" lengthAdjust="spacing" textLength="6.3" x="495" y="147.1104">3</text><text fill="#000000" font-family="sans-serif" font-size="11.7" lengthAdjust="spacing" textLength="67.5" x="504.9" y="147.1104">getInstance()</text><polygon fill="#181818" points="498.6,173.4609,489.6,177.0609,498.6,180.6609,495,177.0609" style="stroke:#181818;stroke-width:0.9;"/><line style="stroke:#181818;stroke-width:0.9;stroke-dasharray:2.0,2.0;" x1="493.2" x2="765.45" y1="177.0609" y2="177.0609"/><text fill="#000000" font-family="sans-serif" font-size="11.7" font-weight="bold" lengthAdjust="spacing" textLength="6.3" x="504" y="172.7815">4</text><text fill="#000000" font-family="sans-serif" font-size="11.7" lengthAdjust="spacing" textLength="60.3" x="513.9" y="172.7815">repositories</text><polygon fill="#181818" points="847.35,199.132,856.35,202.732,847.35,206.332,850.95,202.732" style="stroke:#181818;stroke-width:0.9;"/><line style="stroke:#181818;stroke-width:0.9;" x1="488.7" x2="852.75" y1="202.732" y2="202.732"/><text fill="#000000" font-family="sans-serif" font-size="11.7" font-weight="bold" lengthAdjust="spacing" textLength="6.3" x="495" y="198.4526">5</text><text fill="#000000" font-family="sans-serif" font-size="11.7" lengthAdjust="spacing" textLength="144" x="504.9" y="198.4526">getGreenSpaceRepository()</text><polygon fill="#181818" points="498.6,224.8031,489.6,228.4031,498.6,232.0031,495,228.4031" style="stroke:#181818;stroke-width:0.9;"/><line style="stroke:#181818;stroke-width:0.9;stroke-dasharray:2.0,2.0;" x1="493.2" x2="861.75" y1="228.4031" y2="228.4031"/><text fill="#000000" font-family="sans-serif" font-size="11.7" font-weight="bold" lengthAdjust="spacing" textLength="6.3" x="504" y="224.1237">6</text><text fill="#000000" font-family="sans-serif" font-size="11.7" lengthAdjust="spacing" textLength="117.9" x="513.9" y="224.1237">greenSpaceRepository</text><polygon fill="#181818" points="977.85,250.4742,986.85,254.0742,977.85,257.6742,981.45,254.0742" style="stroke:#181818;stroke-width:0.9;"/><line style="stroke:#181818;stroke-width:0.9;" x1="488.7" x2="983.25" y1="254.0742" y2="254.0742"/><text fill="#000000" font-family="sans-serif" font-size="11.7" font-weight="bold" lengthAdjust="spacing" textLength="6.3" x="495" y="249.7948">7</text><text fill="#000000" font-family="sans-serif" font-size="11.7" lengthAdjust="spacing" textLength="94.5" x="504.9" y="249.7948">getGreenSpaces()</text><polygon fill="#181818" points="498.6,276.1453,489.6,279.7453,498.6,283.3453,495,279.7453" style="stroke:#181818;stroke-width:0.9;"/><line style="stroke:#181818;stroke-width:0.9;stroke-dasharray:2.0,2.0;" x1="493.2" x2="992.25" y1="279.7453" y2="279.7453"/><text fill="#000000" font-family="sans-serif" font-size="11.7" font-weight="bold" lengthAdjust="spacing" textLength="6.3" x="504" y="275.4659">8</text><text fill="#000000" font-family="sans-serif" font-size="11.7" lengthAdjust="spacing" textLength="68.4" x="513.9" y="275.4659">greenSpaces</text><path d="M413.55,293.2453 L479.25,293.2453 L479.25,299.1164 L470.25,308.1164 L413.55,308.1164 L413.55,293.2453 " fill="#EEEEEE" style="stroke:#000000;stroke-width:1.35;"/><rect fill="none" height="128.4609" style="stroke:#000000;stroke-width:1.35;" width="932.85" x="413.55" y="293.2453"/><text fill="#000000" font-family="sans-serif" font-size="11.7" font-weight="bold" lengthAdjust="spacing" textLength="25.2" x="427.05" y="304.737">loop</text><text fill="#000000" font-family="sans-serif" font-size="9.9" font-weight="bold" lengthAdjust="spacing" textLength="198" x="492.75" y="304.0075">[for each green space in the repository]</text><polygon fill="#181818" points="1128.6,322.9875,1137.6,326.5875,1128.6,330.1875,1132.2,326.5875" style="stroke:#181818;stroke-width:0.9;"/><line style="stroke:#181818;stroke-width:0.9;stroke-dasharray:2.0,2.0;" x1="488.7" x2="1134" y1="326.5875" y2="326.5875"/><text fill="#000000" font-family="sans-serif" font-size="11.7" font-weight="bold" lengthAdjust="spacing" textLength="6.3" x="495" y="322.3081">9</text><text fill="#000000" font-family="sans-serif" font-size="11.7" lengthAdjust="spacing" textLength="100.8" x="504.9" y="322.3081">toDTO(greenspace)</text><polygon fill="#181818" points="1215,348.6586,1224,352.2586,1215,355.8586,1218.6,352.2586" style="stroke:#181818;stroke-width:0.9;"/><line style="stroke:#181818;stroke-width:0.9;stroke-dasharray:2.0,2.0;" x1="1148.4" x2="1220.4" y1="352.2586" y2="352.2586"/><text fill="#000000" font-family="sans-serif" font-size="11.7" font-weight="bold" lengthAdjust="spacing" textLength="12.6" x="1154.7" y="347.9792">10</text><text fill="#000000" font-family="sans-serif" font-size="11.7" lengthAdjust="spacing" textLength="39.6" x="1170.9" y="347.9792">create()</text><rect fill="#E3E3E3" height="26.6766" rx="2.25" ry="2.25" style="stroke:#181818;stroke-width:0.45;" width="111.6" x="1225.8" y="333.7875"/><text fill="#000000" font-family="sans-serif" font-size="12.6" lengthAdjust="spacing" textLength="99" x="1232.1" y="351.4939">GreenSpaceDTO</text><polygon fill="#181818" points="1158.3,385.2352,1149.3,388.8352,1158.3,392.4352,1154.7,388.8352" style="stroke:#181818;stroke-width:0.9;"/><line style="stroke:#181818;stroke-width:0.9;stroke-dasharray:2.0,2.0;" x1="1152.9" x2="1280.7" y1="388.8352" y2="388.8352"/><text fill="#000000" font-family="sans-serif" font-size="11.7" font-weight="bold" lengthAdjust="spacing" textLength="12.6" x="1163.7" y="384.5558">11</text><text fill="#000000" font-family="sans-serif" font-size="11.7" lengthAdjust="spacing" textLength="80.1" x="1179.9" y="384.5558">greenSpaceDto</text><polygon fill="#181818" points="498.6,410.9063,489.6,414.5063,498.6,418.1063,495,414.5063" style="stroke:#181818;stroke-width:0.9;"/><line style="stroke:#181818;stroke-width:0.9;stroke-dasharray:2.0,2.0;" x1="493.2" x2="1143" y1="414.5063" y2="414.5063"/><text fill="#000000" font-family="sans-serif" font-size="11.7" font-weight="bold" lengthAdjust="spacing" textLength="12.6" x="504" y="410.2269">12</text><text fill="#000000" font-family="sans-serif" font-size="11.7" lengthAdjust="spacing" textLength="80.1" x="520.2" y="410.2269">greenSpaceDto</text><polygon fill="#181818" points="368.1,442.8773,359.1,446.4773,368.1,450.0773,364.5,446.4773" style="stroke:#181818;stroke-width:0.9;"/><line style="stroke:#181818;stroke-width:0.9;stroke-dasharray:2.0,2.0;" x1="362.7" x2="483.3" y1="446.4773" y2="446.4773"/><text fill="#000000" font-family="sans-serif" font-size="11.7" font-weight="bold" lengthAdjust="spacing" textLength="12.6" x="373.5" y="442.1979">13</text><text fill="#000000" font-family="sans-serif" font-size="11.7" lengthAdjust="spacing" textLength="68.4" x="389.7" y="442.1979">greenSpaces</text><path d="M9,459.9773 L74.7,459.9773 L74.7,465.8484 L65.7,474.8484 L9,474.8484 L9,459.9773 " fill="#EEEEEE" style="stroke:#000000;stroke-width:1.35;"/><rect fill="none" height="334.3008" style="stroke:#000000;stroke-width:1.35;" width="1637.1" x="9" y="459.9773"/><text fill="#000000" font-family="sans-serif" font-size="11.7" font-weight="bold" lengthAdjust="spacing" textLength="25.2" x="22.5" y="471.469">loop</text><text fill="#000000" font-family="sans-serif" font-size="9.9" font-weight="bold" lengthAdjust="spacing" textLength="99.9" x="88.2" y="470.7396">[if an error appears]</text><polygon fill="#181818" points="99.9,489.7195,90.9,493.3195,99.9,496.9195,96.3,493.3195" style="stroke:#181818;stroke-width:0.9;"/><line style="stroke:#181818;stroke-width:0.9;stroke-dasharray:2.0,2.0;" x1="94.5" x2="352.8" y1="493.3195" y2="493.3195"/><text fill="#000000" font-family="sans-serif" font-size="11.7" font-weight="bold" lengthAdjust="spacing" textLength="12.6" x="105.3" y="489.0401">14</text><text fill="#000000" font-family="sans-serif" font-size="11.7" lengthAdjust="spacing" textLength="158.4" x="121.5" y="489.0401">displays a list of green spaces</text><polygon fill="#181818" points="338.4,515.3906,347.4,518.9906,338.4,522.5906,342,518.9906" style="stroke:#181818;stroke-width:0.9;"/><line style="stroke:#181818;stroke-width:0.9;" x1="90" x2="343.8" y1="518.9906" y2="518.9906"/><text fill="#000000" font-family="sans-serif" font-size="11.7" font-weight="bold" lengthAdjust="spacing" textLength="12.6" x="96.3" y="514.7112">15</text><text fill="#000000" font-family="sans-serif" font-size="11.7" lengthAdjust="spacing" textLength="115.2" x="112.5" y="514.7112">selects a green space</text><polygon fill="#181818" points="99.9,554.1328,90.9,557.7328,99.9,561.3328,96.3,557.7328" style="stroke:#181818;stroke-width:0.9;"/><line style="stroke:#181818;stroke-width:0.9;stroke-dasharray:2.0,2.0;" x1="94.5" x2="352.8" y1="557.7328" y2="557.7328"/><text fill="#000000" font-family="sans-serif" font-size="11.7" font-weight="bold" lengthAdjust="spacing" textLength="12.6" x="105.3" y="546.9179">16</text><text fill="#000000" font-family="sans-serif" font-size="11.7" lengthAdjust="spacing" textLength="217.8" x="121.5" y="540.3823">requests data (i.e. title, description, state,</text><text fill="#000000" font-family="sans-serif" font-size="11.7" lengthAdjust="spacing" textLength="144.9" x="121.5" y="553.4534">duration, degree of urgency)</text><polygon fill="#181818" points="338.4,579.8039,347.4,583.4039,338.4,587.0039,342,583.4039" style="stroke:#181818;stroke-width:0.9;"/><line style="stroke:#181818;stroke-width:0.9;" x1="90" x2="343.8" y1="583.4039" y2="583.4039"/><text fill="#000000" font-family="sans-serif" font-size="11.7" font-weight="bold" lengthAdjust="spacing" textLength="12.6" x="96.3" y="579.1245">17</text><text fill="#000000" font-family="sans-serif" font-size="11.7" lengthAdjust="spacing" textLength="109.8" x="112.5" y="579.1245">types requested data</text><polygon fill="#181818" points="564.3,605.475,573.3,609.075,564.3,612.675,567.9,609.075" style="stroke:#181818;stroke-width:0.9;"/><line style="stroke:#181818;stroke-width:0.9;" x1="358.2" x2="569.7" y1="609.075" y2="609.075"/><text fill="#000000" font-family="sans-serif" font-size="11.7" font-weight="bold" lengthAdjust="spacing" textLength="12.6" x="364.5" y="604.7956">18</text><text fill="#000000" font-family="sans-serif" font-size="11.7" lengthAdjust="spacing" textLength="32.4" x="380.7" y="604.7956">create</text><rect fill="#E3E3E3" height="26.6766" rx="2.25" ry="2.25" style="stroke:#181818;stroke-width:0.45;" width="138.6" x="575.1" y="590.6039"/><text fill="#000000" font-family="sans-serif" font-size="12.6" lengthAdjust="spacing" textLength="126" x="581.4" y="608.3104">:CreateTaskController</text><polygon fill="#181818" points="629.1,655.1227,638.1,658.7227,629.1,662.3227,632.7,658.7227" style="stroke:#181818;stroke-width:0.9;"/><line style="stroke:#181818;stroke-width:0.9;" x1="358.2" x2="634.5" y1="658.7227" y2="658.7227"/><text fill="#000000" font-family="sans-serif" font-size="11.7" font-weight="bold" lengthAdjust="spacing" textLength="12.6" x="364.5" y="647.9077">19</text><text fill="#000000" font-family="sans-serif" font-size="11.7" lengthAdjust="spacing" textLength="244.8" x="380.7" y="641.3722">createTask(title, description, degreeOfUrgency,</text><text fill="#000000" font-family="sans-serif" font-size="11.7" lengthAdjust="spacing" textLength="134.1" x="380.7" y="654.4433">expectedDuration, status)</text><polygon fill="#181818" points="751.05,680.7938,760.05,684.3938,751.05,687.9938,754.65,684.3938" style="stroke:#181818;stroke-width:0.9;"/><line style="stroke:#181818;stroke-width:0.9;" x1="648.9" x2="756.45" y1="684.3938" y2="684.3938"/><text fill="#000000" font-family="sans-serif" font-size="11.7" font-weight="bold" lengthAdjust="spacing" textLength="12.6" x="655.2" y="680.1144">20</text><text fill="#000000" font-family="sans-serif" font-size="11.7" lengthAdjust="spacing" textLength="67.5" x="671.4" y="680.1144">getInstance()</text><polygon fill="#181818" points="658.8,706.4648,649.8,710.0648,658.8,713.6648,655.2,710.0648" style="stroke:#181818;stroke-width:0.9;"/><line style="stroke:#181818;stroke-width:0.9;stroke-dasharray:2.0,2.0;" x1="653.4" x2="765.45" y1="710.0648" y2="710.0648"/><text fill="#000000" font-family="sans-serif" font-size="11.7" font-weight="bold" lengthAdjust="spacing" textLength="12.6" x="664.2" y="705.7854">21</text><text fill="#000000" font-family="sans-serif" font-size="11.7" lengthAdjust="spacing" textLength="60.3" x="680.4" y="705.7854">repositories</text><polygon fill="#181818" points="1579.5,732.1359,1588.5,735.7359,1579.5,739.3359,1583.1,735.7359" style="stroke:#181818;stroke-width:0.9;"/><line style="stroke:#181818;stroke-width:0.9;" x1="648.9" x2="1584.9" y1="735.7359" y2="735.7359"/><text fill="#000000" font-family="sans-serif" font-size="11.7" font-weight="bold" lengthAdjust="spacing" textLength="12.6" x="655.2" y="731.4565">22</text><text fill="#000000" font-family="sans-serif" font-size="11.7" lengthAdjust="spacing" textLength="69.3" x="671.4" y="731.4565">getToDoList()</text><polygon fill="#181818" points="658.8,757.807,649.8,761.407,658.8,765.007,655.2,761.407" style="stroke:#181818;stroke-width:0.9;"/><line style="stroke:#181818;stroke-width:0.9;stroke-dasharray:2.0,2.0;" x1="653.4" x2="1593.9" y1="761.407" y2="761.407"/><text fill="#000000" font-family="sans-serif" font-size="11.7" font-weight="bold" lengthAdjust="spacing" textLength="12.6" x="664.2" y="757.1276">23</text><text fill="#000000" font-family="sans-serif" font-size="11.7" lengthAdjust="spacing" textLength="43.2" x="680.4" y="757.1276">toDoList</text><polygon fill="#181818" points="368.1,783.4781,359.1,787.0781,368.1,790.6781,364.5,787.0781" style="stroke:#181818;stroke-width:0.9;"/><line style="stroke:#181818;stroke-width:0.9;stroke-dasharray:2.0,2.0;" x1="362.7" x2="643.5" y1="787.0781" y2="787.0781"/><text fill="#000000" font-family="sans-serif" font-size="11.7" font-weight="bold" lengthAdjust="spacing" textLength="12.6" x="373.5" y="782.7987">24</text><text fill="#000000" font-family="sans-serif" font-size="11.7" lengthAdjust="spacing" textLength="22.5" x="389.7" y="782.7987">task</text><polygon fill="#181818" points="99.9,815.4492,90.9,819.0492,99.9,822.6492,96.3,819.0492" style="stroke:#181818;stroke-width:0.9;"/><line style="stroke:#181818;stroke-width:0.9;stroke-dasharray:2.0,2.0;" x1="94.5" x2="352.8" y1="819.0492" y2="819.0492"/><text fill="#000000" font-family="sans-serif" font-size="11.7" font-weight="bold" lengthAdjust="spacing" textLength="12.6" x="105.3" y="814.7698">25</text><text fill="#000000" font-family="sans-serif" font-size="11.7" lengthAdjust="spacing" textLength="212.4" x="121.5" y="814.7698">shows all data and requests confirmation</text><path d="M9,832.5492 L74.7,832.5492 L74.7,838.4203 L65.7,847.4203 L9,847.4203 L9,832.5492 " fill="#EEEEEE" style="stroke:#000000;stroke-width:1.35;"/><rect fill="none" height="345.5297" style="stroke:#000000;stroke-width:1.35;" width="1637.1" x="9" y="832.5492"/><text fill="#000000" font-family="sans-serif" font-size="11.7" font-weight="bold" lengthAdjust="spacing" textLength="25.2" x="22.5" y="844.0409">loop</text><text fill="#000000" font-family="sans-serif" font-size="9.9" font-weight="bold" lengthAdjust="spacing" textLength="124.2" x="88.2" y="843.3114">[until all data is validated]</text><polygon fill="#181818" points="338.4,862.2914,347.4,865.8914,338.4,869.4914,342,865.8914" style="stroke:#181818;stroke-width:0.9;"/><line style="stroke:#181818;stroke-width:0.9;" x1="90" x2="343.8" y1="865.8914" y2="865.8914"/><text fill="#000000" font-family="sans-serif" font-size="11.7" font-weight="bold" lengthAdjust="spacing" textLength="12.6" x="96.3" y="861.612">26</text><text fill="#000000" font-family="sans-serif" font-size="11.7" lengthAdjust="spacing" textLength="70.2" x="112.5" y="861.612">confirms data</text><polygon fill="#181818" points="629.1,887.9625,638.1,891.5625,629.1,895.1625,632.7,891.5625" style="stroke:#181818;stroke-width:0.9;"/><line style="stroke:#181818;stroke-width:0.9;" x1="358.2" x2="634.5" y1="891.5625" y2="891.5625"/><text fill="#000000" font-family="sans-serif" font-size="11.7" font-weight="bold" lengthAdjust="spacing" textLength="12.6" x="364.5" y="887.2831">27</text><text fill="#000000" font-family="sans-serif" font-size="11.7" lengthAdjust="spacing" textLength="135.9" x="380.7" y="887.2831">createToDoListEntry(task)</text><polygon fill="#181818" points="751.05,913.6336,760.05,917.2336,751.05,920.8336,754.65,917.2336" style="stroke:#181818;stroke-width:0.9;"/><line style="stroke:#181818;stroke-width:0.9;" x1="648.9" x2="756.45" y1="917.2336" y2="917.2336"/><text fill="#000000" font-family="sans-serif" font-size="11.7" font-weight="bold" lengthAdjust="spacing" textLength="12.6" x="655.2" y="912.9542">28</text><text fill="#000000" font-family="sans-serif" font-size="11.7" lengthAdjust="spacing" textLength="67.5" x="671.4" y="912.9542">getInstance()</text><polygon fill="#181818" points="658.8,939.3047,649.8,942.9047,658.8,946.5047,655.2,942.9047" style="stroke:#181818;stroke-width:0.9;"/><line style="stroke:#181818;stroke-width:0.9;stroke-dasharray:2.0,2.0;" x1="653.4" x2="765.45" y1="942.9047" y2="942.9047"/><text fill="#000000" font-family="sans-serif" font-size="11.7" font-weight="bold" lengthAdjust="spacing" textLength="12.6" x="664.2" y="938.6253">29</text><text fill="#000000" font-family="sans-serif" font-size="11.7" lengthAdjust="spacing" textLength="60.3" x="680.4" y="938.6253">repositories</text><polygon fill="#181818" points="1579.5,964.9758,1588.5,968.5758,1579.5,972.1758,1583.1,968.5758" style="stroke:#181818;stroke-width:0.9;"/><line style="stroke:#181818;stroke-width:0.9;" x1="648.9" x2="1584.9" y1="968.5758" y2="968.5758"/><text fill="#000000" font-family="sans-serif" font-size="11.7" font-weight="bold" lengthAdjust="spacing" textLength="12.6" x="655.2" y="964.2964">30</text><text fill="#000000" font-family="sans-serif" font-size="11.7" lengthAdjust="spacing" textLength="125.1" x="671.4" y="964.2964">getToDoListRepository()</text><polygon fill="#181818" points="658.8,990.6469,649.8,994.2469,658.8,997.8469,655.2,994.2469" style="stroke:#181818;stroke-width:0.9;"/><line style="stroke:#181818;stroke-width:0.9;stroke-dasharray:2.0,2.0;" x1="653.4" x2="1593.9" y1="994.2469" y2="994.2469"/><text fill="#000000" font-family="sans-serif" font-size="11.7" font-weight="bold" lengthAdjust="spacing" textLength="12.6" x="664.2" y="989.9675">31</text><text fill="#000000" font-family="sans-serif" font-size="11.7" lengthAdjust="spacing" textLength="99" x="680.4" y="989.9675">toDoListRepository</text><polygon fill="#181818" points="1363.05,1016.318,1372.05,1019.918,1363.05,1023.518,1366.65,1019.918" style="stroke:#181818;stroke-width:0.9;"/><line style="stroke:#181818;stroke-width:0.9;" x1="648.9" x2="1368.45" y1="1019.918" y2="1019.918"/><text fill="#000000" font-family="sans-serif" font-size="11.7" font-weight="bold" lengthAdjust="spacing" textLength="12.6" x="655.2" y="1015.6386">32</text><text fill="#000000" font-family="sans-serif" font-size="11.7" lengthAdjust="spacing" textLength="171" x="671.4" y="1015.6386">addToDoListEntry(toDoListEntry)</text><polygon fill="#181818" points="1465.2,1041.9891,1474.2,1045.5891,1465.2,1049.1891,1468.8,1045.5891" style="stroke:#181818;stroke-width:0.9;"/><line style="stroke:#181818;stroke-width:0.9;stroke-dasharray:2.0,2.0;" x1="1382.85" x2="1470.6" y1="1045.5891" y2="1045.5891"/><text fill="#000000" font-family="sans-serif" font-size="11.7" font-weight="bold" lengthAdjust="spacing" textLength="12.6" x="1389.15" y="1041.3097">33</text><text fill="#000000" font-family="sans-serif" font-size="11.7" lengthAdjust="spacing" textLength="51.3" x="1405.35" y="1041.3097">&#171;creates&#187;</text><rect fill="#E3E3E3" height="26.6766" rx="2.25" ry="2.25" style="stroke:#181818;stroke-width:0.45;" width="67.5" x="1476" y="1027.118"/><text fill="#000000" font-family="sans-serif" font-size="12.6" lengthAdjust="spacing" textLength="54.9" x="1482.3" y="1044.8244">task:Task</text><line style="stroke:#181818;stroke-width:0.9;" x1="1382.85" x2="1420.65" y1="1082.1656" y2="1082.1656"/><line style="stroke:#181818;stroke-width:0.9;" x1="1420.65" x2="1420.65" y1="1082.1656" y2="1093.8656"/><line style="stroke:#181818;stroke-width:0.9;" x1="1383.75" x2="1420.65" y1="1093.8656" y2="1093.8656"/><polygon fill="#181818" points="1392.75,1090.2656,1383.75,1093.8656,1392.75,1097.4656,1389.15,1093.8656" style="stroke:#181818;stroke-width:0.9;"/><text fill="#000000" font-family="sans-serif" font-size="11.7" font-weight="bold" lengthAdjust="spacing" textLength="12.6" x="1389.15" y="1077.8862">34</text><text fill="#000000" font-family="sans-serif" font-size="11.7" lengthAdjust="spacing" textLength="93.6" x="1405.35" y="1077.8862">registerTask(task)</text><polygon fill="#181818" points="658.8,1115.9367,649.8,1119.5367,658.8,1123.1367,655.2,1119.5367" style="stroke:#181818;stroke-width:0.9;"/><line style="stroke:#181818;stroke-width:0.9;stroke-dasharray:2.0,2.0;" x1="653.4" x2="1377.45" y1="1119.5367" y2="1119.5367"/><text fill="#000000" font-family="sans-serif" font-size="11.7" font-weight="bold" lengthAdjust="spacing" textLength="12.6" x="664.2" y="1115.2573">35</text><text fill="#000000" font-family="sans-serif" font-size="11.7" lengthAdjust="spacing" textLength="47.7" x="680.4" y="1115.2573">true/false</text><polygon fill="#181818" points="977.85,1141.6078,986.85,1145.2078,977.85,1148.8078,981.45,1145.2078" style="stroke:#181818;stroke-width:0.9;"/><line style="stroke:#181818;stroke-width:0.9;" x1="648.9" x2="983.25" y1="1145.2078" y2="1145.2078"/><text fill="#000000" font-family="sans-serif" font-size="11.7" font-weight="bold" lengthAdjust="spacing" textLength="12.6" x="655.2" y="1140.9284">36</text><text fill="#000000" font-family="sans-serif" font-size="11.7" lengthAdjust="spacing" textLength="169.2" x="671.4" y="1140.9284">updateGreenSpace(greenSpace)</text><polygon fill="#181818" points="658.8,1167.2789,649.8,1170.8789,658.8,1174.4789,655.2,1170.8789" style="stroke:#181818;stroke-width:0.9;"/><line style="stroke:#181818;stroke-width:0.9;stroke-dasharray:2.0,2.0;" x1="653.4" x2="992.25" y1="1170.8789" y2="1170.8789"/><text fill="#000000" font-family="sans-serif" font-size="11.7" font-weight="bold" lengthAdjust="spacing" textLength="12.6" x="664.2" y="1166.5995">37</text><text fill="#000000" font-family="sans-serif" font-size="11.7" lengthAdjust="spacing" textLength="105.3" x="680.4" y="1166.5995">greenSpaceUpdated</text><polygon fill="#181818" points="368.1,1199.25,359.1,1202.85,368.1,1206.45,364.5,1202.85" style="stroke:#181818;stroke-width:0.9;"/><line style="stroke:#181818;stroke-width:0.9;stroke-dasharray:2.0,2.0;" x1="362.7" x2="643.5" y1="1202.85" y2="1202.85"/><text fill="#000000" font-family="sans-serif" font-size="11.7" font-weight="bold" lengthAdjust="spacing" textLength="12.6" x="373.5" y="1198.5706">38</text><text fill="#000000" font-family="sans-serif" font-size="11.7" lengthAdjust="spacing" textLength="105.3" x="389.7" y="1198.5706">greenSpaceUpdated</text><polygon fill="#181818" points="95.4,1224.9211,86.4,1228.5211,95.4,1232.1211,91.8,1228.5211" style="stroke:#181818;stroke-width:0.9;"/><line style="stroke:#181818;stroke-width:0.9;stroke-dasharray:2.0,2.0;" x1="90" x2="352.8" y1="1228.5211" y2="1228.5211"/><text fill="#000000" font-family="sans-serif" font-size="11.7" font-weight="bold" lengthAdjust="spacing" textLength="12.6" x="100.8" y="1224.2417">39</text><text fill="#000000" font-family="sans-serif" font-size="11.7" lengthAdjust="spacing" textLength="142.2" x="117" y="1224.2417">displays operation success</text><!--SRC=[jLTBRniv3BxFho1oMJTeqhjH15ZOXH4WGOhOkVMYpj2saB4qAscQ-jylAStRakCDjZxP4ldn_Ocshr9LmeW37BJI-Txe0u8pDMQskwb4_Yfsk7R74i5WxeJQbKC1knU5VfDg1rjHMimoKJkjwiDFD5dsrruM25kjtK_zEnEvqmQkLWPHmPgG4Hw58dHp1SB2QlsO4QQJkQo4Sd0rt-YbVf3MhLxklSJBVK9WePKpkYmxfCL4S65GEDm8-peHNMoU7oQoprXfAybLYTRBT0V7jUJeARwnYXbe_52d0DyV_jwCDNQS0vy2swEJwYfstiJqF8ReHHz5LVKvz3zIeilDKoEtT7eirERIts-MawmuIjsSynUkwKlAH8EVSRdbBygwBsm6zA4lS7D7POGv2RrQS1f4KO00XM-0L9WZ7xazmaRVB3MmFrwpmw8My0Vy8Hn2es8Jt0xT87UpJvtGm8j5hngyMR1-fBe1xrvPwlOS1s0Zm5XRZ2Jv4qE_wRmUDiv8jS3BpJHnS9DD4z7hfeBmhNdYjSVgtTn505FkdW8s_b43dwlJf5RFfqunGCodPEOOPNXLQbqH6HaWaNq00EjfI2hVT2OUdG_06mx3DQScfK6QUGGFa0oZcSO9N3XjC6aGhw_da7k6IYU4vtK2GqSJl_gai7WoBH6iaKkBYv5YyQ4gicZ-_Dp7wZQ2f2drXP9R40hG62eOMn76ZaS_H4wGXRHLAOwMUAGamW2z7HOtc1cOQ2bao4OMIthR666W6MUUaMbgcNzgjAHP22TW9c_n5fnq9NucapOtid9Igyz0LEBex8SgQYF2KO5iYxsjpGvLVlnqYQVkMA5jpMBXxRv7aVp8NLz3ssInw-wIgNqMYo2u-xHz2SvoBFYxegnXiUnYuZ1h6s5V_ywEki9R_G3_VfYABs3b9XD9MluWGqUYNgr3aEshUq6G_AQUYOaG1o6u1lS2zndtlBjTx_6pVnxijCufLfYEajthDnh0iWoZ95JH3rUkrLQQWs-ox8prOUkFMBzMJfOzkBJmIvIIlcCHUsZwSMiistxEehLXmsUdgYd7DzvnPfp7FpeZ_y-Eyjuq_9SHIFNz-njAhEtZlVx-SZB5QhsYTPTNqgAOr6duA-4URyh32uPYtvX7FUT-_HfQmDxTdGgsfWtko0wQmBw-FKw2Rf7RgEcFsfVmdoiHBRkMA0AlOdN5_TzlOxF-QRvqBMjNiiQb7k2b2hDrPZDZGaXJJHegIJRndK3JVk9v0soTqpRGB15ZqZZTQ_u5]--></g></svg>