<?xml version="1.0" encoding="us-ascii" standalone="no"?><svg xmlns="http://www.w3.org/2000/svg" xmlns:xlink="http://www.w3.org/1999/xlink" contentStyleType="text/css" height="1186px" preserveAspectRatio="none" style="width:3826px;height:1186px;background:#FFFFFF;" version="1.1" viewBox="0 0 3826 1186" width="3826px" zoomAndPan="magnify"><defs/><g><!--class ToDoListUI--><g id="elem_ToDoListUI"><rect codeLine="5" fill="#F1F1F1" height="178.3477" id="ToDoListUI" rx="2.5" ry="2.5" style="stroke:#181818;stroke-width:0.5;" width="345" x="1170" y="7"/><ellipse cx="1303.75" cy="23" fill="#C2C2C2" rx="11" ry="11" style="stroke:#181818;stroke-width:1.0;"/><path d="M1306.5156,18.875 Q1306.6719,18.6563 1306.8594,18.5469 Q1307.0469,18.4375 1307.2656,18.4375 Q1307.6406,18.4375 1307.875,18.7031 Q1308.1094,18.9531 1308.1094,19.5625 L1308.1094,21.0156 Q1308.1094,21.625 1307.875,21.8906 Q1307.6406,22.1563 1307.2656,22.1563 Q1306.9219,22.1563 1306.7188,21.9531 Q1306.5156,21.7656 1306.4063,21.25 Q1306.3594,20.8906 1306.1719,20.7031 Q1305.8438,20.3281 1305.2344,20.1094 Q1304.625,19.8906 1304,19.8906 Q1303.2344,19.8906 1302.5938,20.2188 Q1301.9688,20.5469 1301.4688,21.2969 Q1300.9844,22.0469 1300.9844,23.0781 L1300.9844,24.1719 Q1300.9844,25.4063 1301.875,26.2344 Q1302.7656,27.0469 1304.3594,27.0469 Q1305.2969,27.0469 1305.9531,26.7969 Q1306.3438,26.6406 1306.7656,26.2031 Q1307.0313,25.9375 1307.1719,25.8594 Q1307.3281,25.7813 1307.5313,25.7813 Q1307.8594,25.7813 1308.1094,26.0469 Q1308.375,26.2969 1308.375,26.6406 Q1308.375,26.9844 1308.0313,27.3906 Q1307.5313,27.9688 1306.7344,28.2969 Q1305.6563,28.75 1304.3594,28.75 Q1302.8438,28.75 1301.6406,28.125 Q1300.6563,27.625 1299.9688,26.5625 Q1299.2813,25.4844 1299.2813,24.2031 L1299.2813,23.0469 Q1299.2813,21.7188 1299.8906,20.5781 Q1300.5156,19.4219 1301.6094,18.8125 Q1302.7031,18.1875 1303.9375,18.1875 Q1304.6719,18.1875 1305.3125,18.3594 Q1305.9688,18.5156 1306.5156,18.875 Z " fill="#000000"/><text fill="#000000" font-family="sans-serif" font-size="14" lengthAdjust="spacing" textLength="69" x="1324.25" y="28.7969">ToDoListUI</text><line style="stroke:#181818;stroke-width:0.5;" x1="1171" x2="1514" y1="39" y2="39"/><rect fill="none" height="6" style="stroke:#595959;stroke-width:1.0;" width="6" x="1178" y="50.8105"/><text fill="#000000" font-family="sans-serif" font-size="14" lengthAdjust="spacing" textLength="200" x="1190" y="58.1074">toDoListTasks : ListView&lt;Task&gt;</text><rect fill="none" height="6" style="stroke:#595959;stroke-width:1.0;" width="6" x="1178" y="69.4316"/><text fill="#000000" font-family="sans-serif" font-size="14" lengthAdjust="spacing" textLength="245" x="1190" y="76.7285">toDoListController : ToDoListController</text><line style="stroke:#181818;stroke-width:0.5;" x1="1171" x2="1514" y1="84.2422" y2="84.2422"/><ellipse cx="1181" cy="99.0527" fill="#A6A6A6" rx="3" ry="3" style="stroke:#545454;stroke-width:1.0;"/><text fill="#000000" font-family="sans-serif" font-size="14" lengthAdjust="spacing" textLength="90" x="1190" y="103.3496">ToDoListGUI()</text><ellipse cx="1181" cy="117.6738" fill="#A6A6A6" rx="3" ry="3" style="stroke:#545454;stroke-width:1.0;"/><text fill="#000000" font-family="sans-serif" font-size="14" lengthAdjust="spacing" textLength="109" x="1190" y="121.9707">populateEntries()</text><ellipse cx="1181" cy="136.2949" fill="#A6A6A6" rx="3" ry="3" style="stroke:#545454;stroke-width:1.0;"/><text fill="#000000" font-family="sans-serif" font-size="14" lengthAdjust="spacing" textLength="319" x="1190" y="140.5918">initialize(URL location, ResourceBundle resources)</text><ellipse cx="1181" cy="154.916" fill="#A6A6A6" rx="3" ry="3" style="stroke:#545454;stroke-width:1.0;"/><text fill="#000000" font-family="sans-serif" font-size="14" lengthAdjust="spacing" textLength="57" x="1190" y="159.2129">goBack()</text><ellipse cx="1181" cy="173.5371" fill="#A6A6A6" rx="3" ry="3" style="stroke:#545454;stroke-width:1.0;"/><text fill="#000000" font-family="sans-serif" font-size="14" lengthAdjust="spacing" textLength="184" x="1190" y="177.834">handleCreateToDoListTask()</text></g><!--class ToDoListController--><g id="elem_ToDoListController"><rect codeLine="15" fill="#F1F1F1" height="215.5898" id="ToDoListController" rx="2.5" ry="2.5" style="stroke:#181818;stroke-width:0.5;" width="966" x="859.5" y="246"/><ellipse cx="1278.75" cy="262" fill="#C2C2C2" rx="11" ry="11" style="stroke:#181818;stroke-width:1.0;"/><path d="M1281.5156,257.875 Q1281.6719,257.6563 1281.8594,257.5469 Q1282.0469,257.4375 1282.2656,257.4375 Q1282.6406,257.4375 1282.875,257.7031 Q1283.1094,257.9531 1283.1094,258.5625 L1283.1094,260.0156 Q1283.1094,260.625 1282.875,260.8906 Q1282.6406,261.1563 1282.2656,261.1563 Q1281.9219,261.1563 1281.7188,260.9531 Q1281.5156,260.7656 1281.4063,260.25 Q1281.3594,259.8906 1281.1719,259.7031 Q1280.8438,259.3281 1280.2344,259.1094 Q1279.625,258.8906 1279,258.8906 Q1278.2344,258.8906 1277.5938,259.2188 Q1276.9688,259.5469 1276.4688,260.2969 Q1275.9844,261.0469 1275.9844,262.0781 L1275.9844,263.1719 Q1275.9844,264.4063 1276.875,265.2344 Q1277.7656,266.0469 1279.3594,266.0469 Q1280.2969,266.0469 1280.9531,265.7969 Q1281.3438,265.6406 1281.7656,265.2031 Q1282.0313,264.9375 1282.1719,264.8594 Q1282.3281,264.7813 1282.5313,264.7813 Q1282.8594,264.7813 1283.1094,265.0469 Q1283.375,265.2969 1283.375,265.6406 Q1283.375,265.9844 1283.0313,266.3906 Q1282.5313,266.9688 1281.7344,267.2969 Q1280.6563,267.75 1279.3594,267.75 Q1277.8438,267.75 1276.6406,267.125 Q1275.6563,266.625 1274.9688,265.5625 Q1274.2813,264.4844 1274.2813,263.2031 L1274.2813,262.0469 Q1274.2813,260.7188 1274.8906,259.5781 Q1275.5156,258.4219 1276.6094,257.8125 Q1277.7031,257.1875 1278.9375,257.1875 Q1279.6719,257.1875 1280.3125,257.3594 Q1280.9688,257.5156 1281.5156,257.875 Z " fill="#000000"/><text fill="#000000" font-family="sans-serif" font-size="14" lengthAdjust="spacing" textLength="119" x="1299.25" y="267.7969">ToDoListController</text><line style="stroke:#181818;stroke-width:0.5;" x1="860.5" x2="1824.5" y1="278" y2="278"/><rect fill="none" height="6" style="stroke:#595959;stroke-width:1.0;" width="6" x="867.5" y="289.8105"/><text fill="#000000" font-family="sans-serif" font-size="14" lengthAdjust="spacing" textLength="319" x="879.5" y="297.1074">greenSpacesRepository : GreenSpacesRepository</text><rect fill="none" height="6" style="stroke:#595959;stroke-width:1.0;" width="6" x="867.5" y="308.4316"/><text fill="#000000" font-family="sans-serif" font-size="14" lengthAdjust="spacing" textLength="121" x="879.5" y="315.7285">toDoList : ToDoList</text><line style="stroke:#181818;stroke-width:0.5;" x1="860.5" x2="1824.5" y1="323.2422" y2="323.2422"/><ellipse cx="870.5" cy="338.0527" fill="#A6A6A6" rx="3" ry="3" style="stroke:#545454;stroke-width:1.0;"/><text fill="#000000" font-family="sans-serif" font-size="14" lengthAdjust="spacing" textLength="129" x="879.5" y="342.3496">ToDoListController()</text><ellipse cx="870.5" cy="356.6738" fill="#A6A6A6" rx="3" ry="3" style="stroke:#545454;stroke-width:1.0;"/><text fill="#000000" font-family="sans-serif" font-size="14" lengthAdjust="spacing" textLength="345" x="879.5" y="360.9707">getGreenSpaceRepository() : GreenSpacesRepository</text><ellipse cx="870.5" cy="375.2949" fill="#A6A6A6" rx="3" ry="3" style="stroke:#545454;stroke-width:1.0;"/><text fill="#000000" font-family="sans-serif" font-size="14" lengthAdjust="spacing" textLength="299" x="879.5" y="379.5918">getMyGreenSpaces() : ArrayList&lt;GreenSpace&gt;</text><ellipse cx="870.5" cy="393.916" fill="#A6A6A6" rx="3" ry="3" style="stroke:#545454;stroke-width:1.0;"/><text fill="#000000" font-family="sans-serif" font-size="14" lengthAdjust="spacing" textLength="156" x="879.5" y="398.2129">getToDoList() : ToDoList</text><ellipse cx="870.5" cy="412.5371" fill="#A6A6A6" rx="3" ry="3" style="stroke:#545454;stroke-width:1.0;"/><text fill="#000000" font-family="sans-serif" font-size="14" lengthAdjust="spacing" textLength="240" x="879.5" y="416.834">getToDoListTasks() : ArrayList&lt;Task&gt;</text><ellipse cx="870.5" cy="431.1582" fill="#A6A6A6" rx="3" ry="3" style="stroke:#545454;stroke-width:1.0;"/><text fill="#000000" font-family="sans-serif" font-size="14" lengthAdjust="spacing" textLength="940" x="879.5" y="435.4551">addTask(taskName: String, taskDescription: String, taskDuration: int, greenSpace: GreenSpace, taskUrgencyDegree: TaskUrgencyDegree) : boolean</text><ellipse cx="870.5" cy="449.7793" fill="#A6A6A6" rx="3" ry="3" style="stroke:#545454;stroke-width:1.0;"/><text fill="#000000" font-family="sans-serif" font-size="14" lengthAdjust="spacing" textLength="350" x="879.5" y="454.0762">getUrgencyDegrees() : ArrayList&lt;TaskUrgencyDegree&gt;</text></g><!--class Repositories--><g id="elem_Repositories"><rect codeLine="27" fill="#F1F1F1" height="196.9688" id="Repositories" rx="2.5" ry="2.5" style="stroke:#181818;stroke-width:0.5;" width="371" x="839" y="541"/><ellipse cx="980.75" cy="557" fill="#C2C2C2" rx="11" ry="11" style="stroke:#181818;stroke-width:1.0;"/><path d="M983.5156,552.875 Q983.6719,552.6563 983.8594,552.5469 Q984.0469,552.4375 984.2656,552.4375 Q984.6406,552.4375 984.875,552.7031 Q985.1094,552.9531 985.1094,553.5625 L985.1094,555.0156 Q985.1094,555.625 984.875,555.8906 Q984.6406,556.1563 984.2656,556.1563 Q983.9219,556.1563 983.7188,555.9531 Q983.5156,555.7656 983.4063,555.25 Q983.3594,554.8906 983.1719,554.7031 Q982.8438,554.3281 982.2344,554.1094 Q981.625,553.8906 981,553.8906 Q980.2344,553.8906 979.5938,554.2188 Q978.9688,554.5469 978.4688,555.2969 Q977.9844,556.0469 977.9844,557.0781 L977.9844,558.1719 Q977.9844,559.4063 978.875,560.2344 Q979.7656,561.0469 981.3594,561.0469 Q982.2969,561.0469 982.9531,560.7969 Q983.3438,560.6406 983.7656,560.2031 Q984.0313,559.9375 984.1719,559.8594 Q984.3281,559.7813 984.5313,559.7813 Q984.8594,559.7813 985.1094,560.0469 Q985.375,560.2969 985.375,560.6406 Q985.375,560.9844 985.0313,561.3906 Q984.5313,561.9688 983.7344,562.2969 Q982.6563,562.75 981.3594,562.75 Q979.8438,562.75 978.6406,562.125 Q977.6563,561.625 976.9688,560.5625 Q976.2813,559.4844 976.2813,558.2031 L976.2813,557.0469 Q976.2813,555.7188 976.8906,554.5781 Q977.5156,553.4219 978.6094,552.8125 Q979.7031,552.1875 980.9375,552.1875 Q981.6719,552.1875 982.3125,552.3594 Q982.9688,552.5156 983.5156,552.875 Z " fill="#000000"/><text fill="#000000" font-family="sans-serif" font-size="14" lengthAdjust="spacing" textLength="79" x="1001.25" y="562.7969">Repositories</text><line style="stroke:#181818;stroke-width:0.5;" x1="840" x2="1209" y1="573" y2="573"/><rect fill="none" height="6" style="stroke:#595959;stroke-width:1.0;" width="6" x="847" y="584.8105"/><text fill="#000000" font-family="sans-serif" font-size="14" lengthAdjust="spacing" textLength="144" x="859" y="592.1074">instance : Repositories</text><rect fill="none" height="6" style="stroke:#595959;stroke-width:1.0;" width="6" x="847" y="603.4316"/><text fill="#000000" font-family="sans-serif" font-size="14" lengthAdjust="spacing" textLength="312" x="859" y="610.7285">greenSpaceRepository : GreenSpacesRepository</text><rect fill="none" height="6" style="stroke:#595959;stroke-width:1.0;" width="6" x="847" y="622.0527"/><text fill="#000000" font-family="sans-serif" font-size="14" lengthAdjust="spacing" textLength="213" x="859" y="629.3496">entryRepository : EntryRepository</text><rect fill="none" height="6" style="stroke:#595959;stroke-width:1.0;" width="6" x="847" y="640.6738"/><text fill="#000000" font-family="sans-serif" font-size="14" lengthAdjust="spacing" textLength="121" x="859" y="647.9707">toDoList : ToDoList</text><line style="stroke:#181818;stroke-width:0.5;" x1="840" x2="1209" y1="655.4844" y2="655.4844"/><ellipse cx="850" cy="670.2949" fill="#A6A6A6" rx="3" ry="3" style="stroke:#545454;stroke-width:1.0;"/><text fill="#000000" font-family="sans-serif" font-size="14" lengthAdjust="spacing" textLength="174" x="859" y="674.5918">getInstance() : Repositories</text><ellipse cx="850" cy="688.916" fill="#A6A6A6" rx="3" ry="3" style="stroke:#545454;stroke-width:1.0;"/><text fill="#000000" font-family="sans-serif" font-size="14" lengthAdjust="spacing" textLength="345" x="859" y="693.2129">getGreenSpaceRepository() : GreenSpacesRepository</text><ellipse cx="850" cy="707.5371" fill="#A6A6A6" rx="3" ry="3" style="stroke:#545454;stroke-width:1.0;"/><text fill="#000000" font-family="sans-serif" font-size="14" lengthAdjust="spacing" textLength="244" x="859" y="711.834">getEntryRepository() : EntryRepository</text><ellipse cx="850" cy="726.1582" fill="#A6A6A6" rx="3" ry="3" style="stroke:#545454;stroke-width:1.0;"/><text fill="#000000" font-family="sans-serif" font-size="14" lengthAdjust="spacing" textLength="156" x="859" y="730.4551">getToDoList() : ToDoList</text></g><!--class GreenSpaceRepository--><g id="elem_GreenSpaceRepository"><rect codeLine="38" fill="#F1F1F1" height="141.1055" id="GreenSpaceRepository" rx="2.5" ry="2.5" style="stroke:#181818;stroke-width:0.5;" width="1124" x="737.5" y="799"/><ellipse cx="1221.25" cy="815" fill="#C2C2C2" rx="11" ry="11" style="stroke:#181818;stroke-width:1.0;"/><path d="M1224.0156,810.875 Q1224.1719,810.6563 1224.3594,810.5469 Q1224.5469,810.4375 1224.7656,810.4375 Q1225.1406,810.4375 1225.375,810.7031 Q1225.6094,810.9531 1225.6094,811.5625 L1225.6094,813.0156 Q1225.6094,813.625 1225.375,813.8906 Q1225.1406,814.1563 1224.7656,814.1563 Q1224.4219,814.1563 1224.2188,813.9531 Q1224.0156,813.7656 1223.9063,813.25 Q1223.8594,812.8906 1223.6719,812.7031 Q1223.3438,812.3281 1222.7344,812.1094 Q1222.125,811.8906 1221.5,811.8906 Q1220.7344,811.8906 1220.0938,812.2188 Q1219.4688,812.5469 1218.9688,813.2969 Q1218.4844,814.0469 1218.4844,815.0781 L1218.4844,816.1719 Q1218.4844,817.4063 1219.375,818.2344 Q1220.2656,819.0469 1221.8594,819.0469 Q1222.7969,819.0469 1223.4531,818.7969 Q1223.8438,818.6406 1224.2656,818.2031 Q1224.5313,817.9375 1224.6719,817.8594 Q1224.8281,817.7813 1225.0313,817.7813 Q1225.3594,817.7813 1225.6094,818.0469 Q1225.875,818.2969 1225.875,818.6406 Q1225.875,818.9844 1225.5313,819.3906 Q1225.0313,819.9688 1224.2344,820.2969 Q1223.1563,820.75 1221.8594,820.75 Q1220.3438,820.75 1219.1406,820.125 Q1218.1563,819.625 1217.4688,818.5625 Q1216.7813,817.4844 1216.7813,816.2031 L1216.7813,815.0469 Q1216.7813,813.7188 1217.3906,812.5781 Q1218.0156,811.4219 1219.1094,810.8125 Q1220.2031,810.1875 1221.4375,810.1875 Q1222.1719,810.1875 1222.8125,810.3594 Q1223.4688,810.5156 1224.0156,810.875 Z " fill="#000000"/><text fill="#000000" font-family="sans-serif" font-size="14" lengthAdjust="spacing" textLength="148" x="1241.75" y="820.7969">GreenSpaceRepository</text><line style="stroke:#181818;stroke-width:0.5;" x1="738.5" x2="1860.5" y1="831" y2="831"/><rect fill="none" height="6" style="stroke:#595959;stroke-width:1.0;" width="6" x="745.5" y="842.8105"/><text fill="#000000" font-family="sans-serif" font-size="14" lengthAdjust="spacing" textLength="304" x="757.5" y="850.1074">greenSpacesArrayList : ArrayList&lt;GreenSpace&gt;</text><line style="stroke:#181818;stroke-width:0.5;" x1="738.5" x2="1860.5" y1="857.6211" y2="857.6211"/><ellipse cx="748.5" cy="872.4316" fill="#A6A6A6" rx="3" ry="3" style="stroke:#545454;stroke-width:1.0;"/><text fill="#000000" font-family="sans-serif" font-size="14" lengthAdjust="spacing" textLength="337" x="757.5" y="876.7285">getGreenSpacesArrayList() : ArrayList&lt;GreenSpace&gt;</text><rect fill="#808080" height="6" style="stroke:#595959;stroke-width:1.0;" width="6" x="745.5" y="888.0527"/><text fill="#000000" font-family="sans-serif" font-size="14" lengthAdjust="spacing" textLength="385" x="757.5" y="895.3496">greenSpaceAlreadyExist(greenSpaceName: String) : boolean</text><ellipse cx="748.5" cy="909.6738" fill="#A6A6A6" rx="3" ry="3" style="stroke:#545454;stroke-width:1.0;"/><text fill="#000000" font-family="sans-serif" font-size="14" lengthAdjust="spacing" textLength="1098" x="757.5" y="913.9707">addGreenSpace(greenSpaceName: String, greenSpaceStreet: String, greenSpaceType: GreenSpaceType, greenSpaceManagerEmail: String, greenSpaceArea: int) : boolean</text><ellipse cx="748.5" cy="928.2949" fill="#A6A6A6" rx="3" ry="3" style="stroke:#545454;stroke-width:1.0;"/><text fill="#000000" font-family="sans-serif" font-size="14" lengthAdjust="spacing" textLength="592" x="757.5" y="932.5918">getGreenSpaceByManagerEmail(greenSpaceManagerEmail: String) : ArrayList&lt;GreenSpace&gt;</text></g><!--class EntryRepository--><g id="elem_EntryRepository"><rect codeLine="46" fill="#F1F1F1" height="66.6211" id="EntryRepository" rx="2.5" ry="2.5" style="stroke:#181818;stroke-width:0.5;" width="695" x="7" y="836"/><ellipse cx="299.75" cy="852" fill="#C2C2C2" rx="11" ry="11" style="stroke:#181818;stroke-width:1.0;"/><path d="M302.5156,847.875 Q302.6719,847.6563 302.8594,847.5469 Q303.0469,847.4375 303.2656,847.4375 Q303.6406,847.4375 303.875,847.7031 Q304.1094,847.9531 304.1094,848.5625 L304.1094,850.0156 Q304.1094,850.625 303.875,850.8906 Q303.6406,851.1563 303.2656,851.1563 Q302.9219,851.1563 302.7188,850.9531 Q302.5156,850.7656 302.4063,850.25 Q302.3594,849.8906 302.1719,849.7031 Q301.8438,849.3281 301.2344,849.1094 Q300.625,848.8906 300,848.8906 Q299.2344,848.8906 298.5938,849.2188 Q297.9688,849.5469 297.4688,850.2969 Q296.9844,851.0469 296.9844,852.0781 L296.9844,853.1719 Q296.9844,854.4063 297.875,855.2344 Q298.7656,856.0469 300.3594,856.0469 Q301.2969,856.0469 301.9531,855.7969 Q302.3438,855.6406 302.7656,855.2031 Q303.0313,854.9375 303.1719,854.8594 Q303.3281,854.7813 303.5313,854.7813 Q303.8594,854.7813 304.1094,855.0469 Q304.375,855.2969 304.375,855.6406 Q304.375,855.9844 304.0313,856.3906 Q303.5313,856.9688 302.7344,857.2969 Q301.6563,857.75 300.3594,857.75 Q298.8438,857.75 297.6406,857.125 Q296.6563,856.625 295.9688,855.5625 Q295.2813,854.4844 295.2813,853.2031 L295.2813,852.0469 Q295.2813,850.7188 295.8906,849.5781 Q296.5156,848.4219 297.6094,847.8125 Q298.7031,847.1875 299.9375,847.1875 Q300.6719,847.1875 301.3125,847.3594 Q301.9688,847.5156 302.5156,847.875 Z " fill="#000000"/><text fill="#000000" font-family="sans-serif" font-size="14" lengthAdjust="spacing" textLength="101" x="320.25" y="857.7969">EntryRepository</text><line style="stroke:#181818;stroke-width:0.5;" x1="8" x2="701" y1="868" y2="868"/><line style="stroke:#181818;stroke-width:0.5;" x1="8" x2="701" y1="876" y2="876"/><ellipse cx="18" cy="890.8105" fill="#A6A6A6" rx="3" ry="3" style="stroke:#545454;stroke-width:1.0;"/><text fill="#000000" font-family="sans-serif" font-size="14" lengthAdjust="spacing" textLength="669" x="27" y="895.1074">createEntry(greenSpace: GreenSpaceDTO, description: String, urgency: int, expectedDuration: int) : Entry</text></g><!--class ToDoList--><g id="elem_ToDoList"><rect codeLine="50" fill="#F1F1F1" height="141.1055" id="ToDoList" rx="2.5" ry="2.5" style="stroke:#181818;stroke-width:0.5;" width="274" x="2166.5" y="25.5"/><ellipse cx="2270.75" cy="41.5" fill="#C2C2C2" rx="11" ry="11" style="stroke:#181818;stroke-width:1.0;"/><path d="M2273.5156,37.375 Q2273.6719,37.1563 2273.8594,37.0469 Q2274.0469,36.9375 2274.2656,36.9375 Q2274.6406,36.9375 2274.875,37.2031 Q2275.1094,37.4531 2275.1094,38.0625 L2275.1094,39.5156 Q2275.1094,40.125 2274.875,40.3906 Q2274.6406,40.6563 2274.2656,40.6563 Q2273.9219,40.6563 2273.7188,40.4531 Q2273.5156,40.2656 2273.4063,39.75 Q2273.3594,39.3906 2273.1719,39.2031 Q2272.8438,38.8281 2272.2344,38.6094 Q2271.625,38.3906 2271,38.3906 Q2270.2344,38.3906 2269.5938,38.7188 Q2268.9688,39.0469 2268.4688,39.7969 Q2267.9844,40.5469 2267.9844,41.5781 L2267.9844,42.6719 Q2267.9844,43.9063 2268.875,44.7344 Q2269.7656,45.5469 2271.3594,45.5469 Q2272.2969,45.5469 2272.9531,45.2969 Q2273.3438,45.1406 2273.7656,44.7031 Q2274.0313,44.4375 2274.1719,44.3594 Q2274.3281,44.2813 2274.5313,44.2813 Q2274.8594,44.2813 2275.1094,44.5469 Q2275.375,44.7969 2275.375,45.1406 Q2275.375,45.4844 2275.0313,45.8906 Q2274.5313,46.4688 2273.7344,46.7969 Q2272.6563,47.25 2271.3594,47.25 Q2269.8438,47.25 2268.6406,46.625 Q2267.6563,46.125 2266.9688,45.0625 Q2266.2813,43.9844 2266.2813,42.7031 L2266.2813,41.5469 Q2266.2813,40.2188 2266.8906,39.0781 Q2267.5156,37.9219 2268.6094,37.3125 Q2269.7031,36.6875 2270.9375,36.6875 Q2271.6719,36.6875 2272.3125,36.8594 Q2272.9688,37.0156 2273.5156,37.375 Z " fill="#000000"/><text fill="#000000" font-family="sans-serif" font-size="14" lengthAdjust="spacing" textLength="57" x="2291.25" y="47.2969">ToDoList</text><line style="stroke:#181818;stroke-width:0.5;" x1="2167.5" x2="2439.5" y1="57.5" y2="57.5"/><rect fill="none" height="6" style="stroke:#595959;stroke-width:1.0;" width="6" x="2174.5" y="69.3105"/><text fill="#000000" font-family="sans-serif" font-size="14" lengthAdjust="spacing" textLength="148" x="2186.5" y="76.6074">tasks : ArrayList&lt;Task&gt;</text><line style="stroke:#181818;stroke-width:0.5;" x1="2167.5" x2="2439.5" y1="84.1211" y2="84.1211"/><ellipse cx="2177.5" cy="98.9316" fill="#A6A6A6" rx="3" ry="3" style="stroke:#545454;stroke-width:1.0;"/><text fill="#000000" font-family="sans-serif" font-size="14" lengthAdjust="spacing" textLength="193" x="2186.5" y="103.2285">addTask(task: Task) : boolean</text><ellipse cx="2177.5" cy="117.5527" fill="#A6A6A6" rx="3" ry="3" style="stroke:#545454;stroke-width:1.0;"/><text fill="#000000" font-family="sans-serif" font-size="14" lengthAdjust="spacing" textLength="248" x="2186.5" y="121.8496">taskAlreadyExists(task: Task) : boolean</text><ellipse cx="2177.5" cy="136.1738" fill="#A6A6A6" rx="3" ry="3" style="stroke:#545454;stroke-width:1.0;"/><text fill="#000000" font-family="sans-serif" font-size="14" lengthAdjust="spacing" textLength="183" x="2186.5" y="140.4707">getTasks() : ArrayList&lt;Task&gt;</text><ellipse cx="2177.5" cy="154.7949" fill="#A6A6A6" rx="3" ry="3" style="stroke:#545454;stroke-width:1.0;"/><text fill="#000000" font-family="sans-serif" font-size="14" lengthAdjust="spacing" textLength="235" x="2186.5" y="159.0918">getPendingTasks() : ArrayList&lt;Task&gt;</text></g><!--class Entry--><g id="elem_Entry"><rect codeLine="58" fill="#F1F1F1" height="178.3477" id="Entry" rx="2.5" ry="2.5" style="stroke:#181818;stroke-width:0.5;" width="610" x="49.5" y="1001"/><ellipse cx="333.75" cy="1017" fill="#C2C2C2" rx="11" ry="11" style="stroke:#181818;stroke-width:1.0;"/><path d="M336.5156,1012.875 Q336.6719,1012.6563 336.8594,1012.5469 Q337.0469,1012.4375 337.2656,1012.4375 Q337.6406,1012.4375 337.875,1012.7031 Q338.1094,1012.9531 338.1094,1013.5625 L338.1094,1015.0156 Q338.1094,1015.625 337.875,1015.8906 Q337.6406,1016.1563 337.2656,1016.1563 Q336.9219,1016.1563 336.7188,1015.9531 Q336.5156,1015.7656 336.4063,1015.25 Q336.3594,1014.8906 336.1719,1014.7031 Q335.8438,1014.3281 335.2344,1014.1094 Q334.625,1013.8906 334,1013.8906 Q333.2344,1013.8906 332.5938,1014.2188 Q331.9688,1014.5469 331.4688,1015.2969 Q330.9844,1016.0469 330.9844,1017.0781 L330.9844,1018.1719 Q330.9844,1019.4063 331.875,1020.2344 Q332.7656,1021.0469 334.3594,1021.0469 Q335.2969,1021.0469 335.9531,1020.7969 Q336.3438,1020.6406 336.7656,1020.2031 Q337.0313,1019.9375 337.1719,1019.8594 Q337.3281,1019.7813 337.5313,1019.7813 Q337.8594,1019.7813 338.1094,1020.0469 Q338.375,1020.2969 338.375,1020.6406 Q338.375,1020.9844 338.0313,1021.3906 Q337.5313,1021.9688 336.7344,1022.2969 Q335.6563,1022.75 334.3594,1022.75 Q332.8438,1022.75 331.6406,1022.125 Q330.6563,1021.625 329.9688,1020.5625 Q329.2813,1019.4844 329.2813,1018.2031 L329.2813,1017.0469 Q329.2813,1015.7188 329.8906,1014.5781 Q330.5156,1013.4219 331.6094,1012.8125 Q332.7031,1012.1875 333.9375,1012.1875 Q334.6719,1012.1875 335.3125,1012.3594 Q335.9688,1012.5156 336.5156,1012.875 Z " fill="#000000"/><text fill="#000000" font-family="sans-serif" font-size="14" lengthAdjust="spacing" textLength="33" x="354.25" y="1022.7969">Entry</text><line style="stroke:#181818;stroke-width:0.5;" x1="50.5" x2="658.5" y1="1033" y2="1033"/><rect fill="none" height="6" style="stroke:#595959;stroke-width:1.0;" width="6" x="57.5" y="1044.8105"/><text fill="#000000" font-family="sans-serif" font-size="14" lengthAdjust="spacing" textLength="199" x="69.5" y="1052.1074">greenSpace : GreenSpaceDTO</text><rect fill="none" height="6" style="stroke:#595959;stroke-width:1.0;" width="6" x="57.5" y="1063.4316"/><text fill="#000000" font-family="sans-serif" font-size="14" lengthAdjust="spacing" textLength="118" x="69.5" y="1070.7285">description : String</text><rect fill="none" height="6" style="stroke:#595959;stroke-width:1.0;" width="6" x="57.5" y="1082.0527"/><text fill="#000000" font-family="sans-serif" font-size="14" lengthAdjust="spacing" textLength="78" x="69.5" y="1089.3496">urgency : int</text><rect fill="none" height="6" style="stroke:#595959;stroke-width:1.0;" width="6" x="57.5" y="1100.6738"/><text fill="#000000" font-family="sans-serif" font-size="14" lengthAdjust="spacing" textLength="138" x="69.5" y="1107.9707">expectedDuration : int</text><line style="stroke:#181818;stroke-width:0.5;" x1="50.5" x2="658.5" y1="1115.4844" y2="1115.4844"/><ellipse cx="60.5" cy="1130.2949" fill="#A6A6A6" rx="3" ry="3" style="stroke:#545454;stroke-width:1.0;"/><text fill="#000000" font-family="sans-serif" font-size="14" lengthAdjust="spacing" textLength="584" x="69.5" y="1134.5918">Entry(greenSpace: GreenSpaceDTO, description: String, urgency: int, expectedDuration: int)</text><ellipse cx="60.5" cy="1148.916" fill="#A6A6A6" rx="3" ry="3" style="stroke:#545454;stroke-width:1.0;"/><text fill="#000000" font-family="sans-serif" font-size="14" lengthAdjust="spacing" textLength="256" x="69.5" y="1153.2129">verifyFilled(description: String) : Boolean</text><ellipse cx="60.5" cy="1167.5371" fill="#A6A6A6" rx="3" ry="3" style="stroke:#545454;stroke-width:1.0;"/><text fill="#000000" font-family="sans-serif" font-size="14" lengthAdjust="spacing" textLength="296" x="69.5" y="1171.834">verifyDuration(expectedDuration: int) : Boolean</text></g><!--class GreenSpace--><g id="elem_GreenSpace"><rect codeLine="68" fill="#F1F1F1" height="196.9688" id="GreenSpace" rx="2.5" ry="2.5" style="stroke:#181818;stroke-width:0.5;" width="1037" x="2782" y="255.5"/><ellipse cx="3256.25" cy="271.5" fill="#C2C2C2" rx="11" ry="11" style="stroke:#181818;stroke-width:1.0;"/><path d="M3259.0156,267.375 Q3259.1719,267.1563 3259.3594,267.0469 Q3259.5469,266.9375 3259.7656,266.9375 Q3260.1406,266.9375 3260.375,267.2031 Q3260.6094,267.4531 3260.6094,268.0625 L3260.6094,269.5156 Q3260.6094,270.125 3260.375,270.3906 Q3260.1406,270.6563 3259.7656,270.6563 Q3259.4219,270.6563 3259.2188,270.4531 Q3259.0156,270.2656 3258.9063,269.75 Q3258.8594,269.3906 3258.6719,269.2031 Q3258.3438,268.8281 3257.7344,268.6094 Q3257.125,268.3906 3256.5,268.3906 Q3255.7344,268.3906 3255.0938,268.7188 Q3254.4688,269.0469 3253.9688,269.7969 Q3253.4844,270.5469 3253.4844,271.5781 L3253.4844,272.6719 Q3253.4844,273.9063 3254.375,274.7344 Q3255.2656,275.5469 3256.8594,275.5469 Q3257.7969,275.5469 3258.4531,275.2969 Q3258.8438,275.1406 3259.2656,274.7031 Q3259.5313,274.4375 3259.6719,274.3594 Q3259.8281,274.2813 3260.0313,274.2813 Q3260.3594,274.2813 3260.6094,274.5469 Q3260.875,274.7969 3260.875,275.1406 Q3260.875,275.4844 3260.5313,275.8906 Q3260.0313,276.4688 3259.2344,276.7969 Q3258.1563,277.25 3256.8594,277.25 Q3255.3438,277.25 3254.1406,276.625 Q3253.1563,276.125 3252.4688,275.0625 Q3251.7813,273.9844 3251.7813,272.7031 L3251.7813,271.5469 Q3251.7813,270.2188 3252.3906,269.0781 Q3253.0156,267.9219 3254.1094,267.3125 Q3255.2031,266.6875 3256.4375,266.6875 Q3257.1719,266.6875 3257.8125,266.8594 Q3258.4688,267.0156 3259.0156,267.375 Z " fill="#000000"/><text fill="#000000" font-family="sans-serif" font-size="14" lengthAdjust="spacing" textLength="80" x="3276.75" y="277.2969">GreenSpace</text><line style="stroke:#181818;stroke-width:0.5;" x1="2783" x2="3818" y1="287.5" y2="287.5"/><rect fill="none" height="6" style="stroke:#595959;stroke-width:1.0;" width="6" x="2790" y="299.3105"/><text fill="#000000" font-family="sans-serif" font-size="14" lengthAdjust="spacing" textLength="162" x="2802" y="306.6074">greenSpaceName : String</text><rect fill="none" height="6" style="stroke:#595959;stroke-width:1.0;" width="6" x="2790" y="317.9316"/><text fill="#000000" font-family="sans-serif" font-size="14" lengthAdjust="spacing" textLength="164" x="2802" y="325.2285">greenSpaceStreet : String</text><rect fill="none" height="6" style="stroke:#595959;stroke-width:1.0;" width="6" x="2790" y="336.5527"/><text fill="#000000" font-family="sans-serif" font-size="14" lengthAdjust="spacing" textLength="233" x="2802" y="343.8496">greenSpaceType : GreenSpaceType</text><rect fill="none" height="6" style="stroke:#595959;stroke-width:1.0;" width="6" x="2790" y="355.1738"/><text fill="#000000" font-family="sans-serif" font-size="14" lengthAdjust="spacing" textLength="216" x="2802" y="362.4707">greenSpaceManagerEmail : String</text><rect fill="none" height="6" style="stroke:#595959;stroke-width:1.0;" width="6" x="2790" y="373.7949"/><text fill="#000000" font-family="sans-serif" font-size="14" lengthAdjust="spacing" textLength="134" x="2802" y="381.0918">greenSpaceArea : int</text><line style="stroke:#181818;stroke-width:0.5;" x1="2783" x2="3818" y1="388.6055" y2="388.6055"/><ellipse cx="2793" cy="403.416" fill="#A6A6A6" rx="3" ry="3" style="stroke:#545454;stroke-width:1.0;"/><text fill="#000000" font-family="sans-serif" font-size="14" lengthAdjust="spacing" textLength="1011" x="2802" y="407.7129">GreenSpace(greenSpaceName: String, greenSpaceStreet: String, greenSpaceType: GreenSpaceType, greenSpaceManagerEmail: String, greenSpaceArea: int)</text><ellipse cx="2793" cy="422.0371" fill="#A6A6A6" rx="3" ry="3" style="stroke:#545454;stroke-width:1.0;"/><text fill="#000000" font-family="sans-serif" font-size="14" lengthAdjust="spacing" textLength="195" x="2802" y="426.334">getGreenSpaceName() : String</text><ellipse cx="2793" cy="440.6582" fill="#A6A6A6" rx="3" ry="3" style="stroke:#545454;stroke-width:1.0;"/><text fill="#000000" font-family="sans-serif" font-size="14" lengthAdjust="spacing" textLength="249" x="2802" y="444.9551">getGreenSpaceManagerEmail() : String</text></g><!--class Task--><g id="elem_Task"><rect codeLine="79" fill="#F1F1F1" height="178.3477" id="Task" rx="2.5" ry="2.5" style="stroke:#181818;stroke-width:0.5;" width="886" x="1860.5" y="265"/><ellipse cx="2283.75" cy="281" fill="#C2C2C2" rx="11" ry="11" style="stroke:#181818;stroke-width:1.0;"/><path d="M2286.5156,276.875 Q2286.6719,276.6563 2286.8594,276.5469 Q2287.0469,276.4375 2287.2656,276.4375 Q2287.6406,276.4375 2287.875,276.7031 Q2288.1094,276.9531 2288.1094,277.5625 L2288.1094,279.0156 Q2288.1094,279.625 2287.875,279.8906 Q2287.6406,280.1563 2287.2656,280.1563 Q2286.9219,280.1563 2286.7188,279.9531 Q2286.5156,279.7656 2286.4063,279.25 Q2286.3594,278.8906 2286.1719,278.7031 Q2285.8438,278.3281 2285.2344,278.1094 Q2284.625,277.8906 2284,277.8906 Q2283.2344,277.8906 2282.5938,278.2188 Q2281.9688,278.5469 2281.4688,279.2969 Q2280.9844,280.0469 2280.9844,281.0781 L2280.9844,282.1719 Q2280.9844,283.4063 2281.875,284.2344 Q2282.7656,285.0469 2284.3594,285.0469 Q2285.2969,285.0469 2285.9531,284.7969 Q2286.3438,284.6406 2286.7656,284.2031 Q2287.0313,283.9375 2287.1719,283.8594 Q2287.3281,283.7813 2287.5313,283.7813 Q2287.8594,283.7813 2288.1094,284.0469 Q2288.375,284.2969 2288.375,284.6406 Q2288.375,284.9844 2288.0313,285.3906 Q2287.5313,285.9688 2286.7344,286.2969 Q2285.6563,286.75 2284.3594,286.75 Q2282.8438,286.75 2281.6406,286.125 Q2280.6563,285.625 2279.9688,284.5625 Q2279.2813,283.4844 2279.2813,282.2031 L2279.2813,281.0469 Q2279.2813,279.7188 2279.8906,278.5781 Q2280.5156,277.4219 2281.6094,276.8125 Q2282.7031,276.1875 2283.9375,276.1875 Q2284.6719,276.1875 2285.3125,276.3594 Q2285.9688,276.5156 2286.5156,276.875 Z " fill="#000000"/><text fill="#000000" font-family="sans-serif" font-size="14" lengthAdjust="spacing" textLength="31" x="2304.25" y="286.7969">Task</text><line style="stroke:#181818;stroke-width:0.5;" x1="1861.5" x2="2745.5" y1="297" y2="297"/><rect fill="none" height="6" style="stroke:#595959;stroke-width:1.0;" width="6" x="1868.5" y="308.8105"/><text fill="#000000" font-family="sans-serif" font-size="14" lengthAdjust="spacing" textLength="118" x="1880.5" y="316.1074">description : String</text><rect fill="none" height="6" style="stroke:#595959;stroke-width:1.0;" width="6" x="1868.5" y="327.4316"/><text fill="#000000" font-family="sans-serif" font-size="14" lengthAdjust="spacing" textLength="111" x="1880.5" y="334.7285">taskName : String</text><rect fill="none" height="6" style="stroke:#595959;stroke-width:1.0;" width="6" x="1868.5" y="346.0527"/><text fill="#000000" font-family="sans-serif" font-size="14" lengthAdjust="spacing" textLength="169" x="1880.5" y="353.3496">greenSpace : GreenSpace</text><rect fill="none" height="6" style="stroke:#595959;stroke-width:1.0;" width="6" x="1868.5" y="364.6738"/><text fill="#000000" font-family="sans-serif" font-size="14" lengthAdjust="spacing" textLength="142" x="1880.5" y="371.9707">estimatedDuration : int</text><rect fill="none" height="6" style="stroke:#595959;stroke-width:1.0;" width="6" x="1868.5" y="383.2949"/><text fill="#000000" font-family="sans-serif" font-size="14" lengthAdjust="spacing" textLength="267" x="1880.5" y="390.5918">taskUrgencyDegree : TaskUrgencyDegree</text><line style="stroke:#181818;stroke-width:0.5;" x1="1861.5" x2="2745.5" y1="398.1055" y2="398.1055"/><ellipse cx="1871.5" cy="412.916" fill="#A6A6A6" rx="3" ry="3" style="stroke:#545454;stroke-width:1.0;"/><text fill="#000000" font-family="sans-serif" font-size="14" lengthAdjust="spacing" textLength="860" x="1880.5" y="417.2129">Task(description: String, taskName: String, greenSpace: GreenSpace, estimatedDuration: int, taskUrgencyDegree: TaskUrgencyDegree)</text><ellipse cx="1871.5" cy="431.5371" fill="#A6A6A6" rx="3" ry="3" style="stroke:#545454;stroke-width:1.0;"/><text fill="#000000" font-family="sans-serif" font-size="14" lengthAdjust="spacing" textLength="184" x="1880.5" y="435.834">getTaskStatus() : TaskStatus</text></g><!--class GreenSpaceDTO--><g id="elem_GreenSpaceDTO"><rect codeLine="89" fill="#F1F1F1" height="48" id="GreenSpaceDTO" rx="2.5" ry="2.5" style="stroke:#181818;stroke-width:0.5;" width="142" x="1896.5" y="845.5"/><ellipse cx="1911.5" cy="861.5" fill="#C2C2C2" rx="11" ry="11" style="stroke:#181818;stroke-width:1.0;"/><path d="M1914.2656,857.375 Q1914.4219,857.1563 1914.6094,857.0469 Q1914.7969,856.9375 1915.0156,856.9375 Q1915.3906,856.9375 1915.625,857.2031 Q1915.8594,857.4531 1915.8594,858.0625 L1915.8594,859.5156 Q1915.8594,860.125 1915.625,860.3906 Q1915.3906,860.6563 1915.0156,860.6563 Q1914.6719,860.6563 1914.4688,860.4531 Q1914.2656,860.2656 1914.1563,859.75 Q1914.1094,859.3906 1913.9219,859.2031 Q1913.5938,858.8281 1912.9844,858.6094 Q1912.375,858.3906 1911.75,858.3906 Q1910.9844,858.3906 1910.3438,858.7188 Q1909.7188,859.0469 1909.2188,859.7969 Q1908.7344,860.5469 1908.7344,861.5781 L1908.7344,862.6719 Q1908.7344,863.9063 1909.625,864.7344 Q1910.5156,865.5469 1912.1094,865.5469 Q1913.0469,865.5469 1913.7031,865.2969 Q1914.0938,865.1406 1914.5156,864.7031 Q1914.7813,864.4375 1914.9219,864.3594 Q1915.0781,864.2813 1915.2813,864.2813 Q1915.6094,864.2813 1915.8594,864.5469 Q1916.125,864.7969 1916.125,865.1406 Q1916.125,865.4844 1915.7813,865.8906 Q1915.2813,866.4688 1914.4844,866.7969 Q1913.4063,867.25 1912.1094,867.25 Q1910.5938,867.25 1909.3906,866.625 Q1908.4063,866.125 1907.7188,865.0625 Q1907.0313,863.9844 1907.0313,862.7031 L1907.0313,861.5469 Q1907.0313,860.2188 1907.6406,859.0781 Q1908.2656,857.9219 1909.3594,857.3125 Q1910.4531,856.6875 1911.6875,856.6875 Q1912.4219,856.6875 1913.0625,856.8594 Q1913.7188,857.0156 1914.2656,857.375 Z " fill="#000000"/><text fill="#000000" font-family="sans-serif" font-size="14" lengthAdjust="spacing" textLength="110" x="1925.5" y="867.2969">GreenSpaceDTO</text><line style="stroke:#181818;stroke-width:0.5;" x1="1897.5" x2="2037.5" y1="877.5" y2="877.5"/><line style="stroke:#181818;stroke-width:0.5;" x1="1897.5" x2="2037.5" y1="885.5" y2="885.5"/></g><!--class GreenSpaceMapper--><g id="elem_GreenSpaceMapper"><rect codeLine="102" fill="#F1F1F1" height="48" id="GreenSpaceMapper" rx="2.5" ry="2.5" style="stroke:#181818;stroke-width:0.5;" width="160" x="1520.5" y="615.5"/><ellipse cx="1535.5" cy="631.5" fill="#C2C2C2" rx="11" ry="11" style="stroke:#181818;stroke-width:1.0;"/><path d="M1538.2656,627.375 Q1538.4219,627.1563 1538.6094,627.0469 Q1538.7969,626.9375 1539.0156,626.9375 Q1539.3906,626.9375 1539.625,627.2031 Q1539.8594,627.4531 1539.8594,628.0625 L1539.8594,629.5156 Q1539.8594,630.125 1539.625,630.3906 Q1539.3906,630.6563 1539.0156,630.6563 Q1538.6719,630.6563 1538.4688,630.4531 Q1538.2656,630.2656 1538.1563,629.75 Q1538.1094,629.3906 1537.9219,629.2031 Q1537.5938,628.8281 1536.9844,628.6094 Q1536.375,628.3906 1535.75,628.3906 Q1534.9844,628.3906 1534.3438,628.7188 Q1533.7188,629.0469 1533.2188,629.7969 Q1532.7344,630.5469 1532.7344,631.5781 L1532.7344,632.6719 Q1532.7344,633.9063 1533.625,634.7344 Q1534.5156,635.5469 1536.1094,635.5469 Q1537.0469,635.5469 1537.7031,635.2969 Q1538.0938,635.1406 1538.5156,634.7031 Q1538.7813,634.4375 1538.9219,634.3594 Q1539.0781,634.2813 1539.2813,634.2813 Q1539.6094,634.2813 1539.8594,634.5469 Q1540.125,634.7969 1540.125,635.1406 Q1540.125,635.4844 1539.7813,635.8906 Q1539.2813,636.4688 1538.4844,636.7969 Q1537.4063,637.25 1536.1094,637.25 Q1534.5938,637.25 1533.3906,636.625 Q1532.4063,636.125 1531.7188,635.0625 Q1531.0313,633.9844 1531.0313,632.7031 L1531.0313,631.5469 Q1531.0313,630.2188 1531.6406,629.0781 Q1532.2656,627.9219 1533.3594,627.3125 Q1534.4531,626.6875 1535.6875,626.6875 Q1536.4219,626.6875 1537.0625,626.8594 Q1537.7188,627.0156 1538.2656,627.375 Z " fill="#000000"/><text fill="#000000" font-family="sans-serif" font-size="14" lengthAdjust="spacing" textLength="128" x="1549.5" y="637.2969">GreenSpaceMapper</text><line style="stroke:#181818;stroke-width:0.5;" x1="1521.5" x2="1679.5" y1="647.5" y2="647.5"/><line style="stroke:#181818;stroke-width:0.5;" x1="1521.5" x2="1679.5" y1="655.5" y2="655.5"/></g><!--class TaskUrgencyDegree--><g id="elem_TaskUrgencyDegree"><rect codeLine="96" fill="#F1F1F1" height="48" id="TaskUrgencyDegree" rx="2.5" ry="2.5" style="stroke:#181818;stroke-width:0.5;" width="162" x="3429.5" y="72"/><ellipse cx="3444.5" cy="88" fill="#C2C2C2" rx="11" ry="11" style="stroke:#181818;stroke-width:1.0;"/><path d="M3447.2656,83.875 Q3447.4219,83.6563 3447.6094,83.5469 Q3447.7969,83.4375 3448.0156,83.4375 Q3448.3906,83.4375 3448.625,83.7031 Q3448.8594,83.9531 3448.8594,84.5625 L3448.8594,86.0156 Q3448.8594,86.625 3448.625,86.8906 Q3448.3906,87.1563 3448.0156,87.1563 Q3447.6719,87.1563 3447.4688,86.9531 Q3447.2656,86.7656 3447.1563,86.25 Q3447.1094,85.8906 3446.9219,85.7031 Q3446.5938,85.3281 3445.9844,85.1094 Q3445.375,84.8906 3444.75,84.8906 Q3443.9844,84.8906 3443.3438,85.2188 Q3442.7188,85.5469 3442.2188,86.2969 Q3441.7344,87.0469 3441.7344,88.0781 L3441.7344,89.1719 Q3441.7344,90.4063 3442.625,91.2344 Q3443.5156,92.0469 3445.1094,92.0469 Q3446.0469,92.0469 3446.7031,91.7969 Q3447.0938,91.6406 3447.5156,91.2031 Q3447.7813,90.9375 3447.9219,90.8594 Q3448.0781,90.7813 3448.2813,90.7813 Q3448.6094,90.7813 3448.8594,91.0469 Q3449.125,91.2969 3449.125,91.6406 Q3449.125,91.9844 3448.7813,92.3906 Q3448.2813,92.9688 3447.4844,93.2969 Q3446.4063,93.75 3445.1094,93.75 Q3443.5938,93.75 3442.3906,93.125 Q3441.4063,92.625 3440.7188,91.5625 Q3440.0313,90.4844 3440.0313,89.2031 L3440.0313,88.0469 Q3440.0313,86.7188 3440.6406,85.5781 Q3441.2656,84.4219 3442.3594,83.8125 Q3443.4531,83.1875 3444.6875,83.1875 Q3445.4219,83.1875 3446.0625,83.3594 Q3446.7188,83.5156 3447.2656,83.875 Z " fill="#000000"/><text fill="#000000" font-family="sans-serif" font-size="14" lengthAdjust="spacing" textLength="130" x="3458.5" y="93.7969">TaskUrgencyDegree</text><line style="stroke:#181818;stroke-width:0.5;" x1="3430.5" x2="3590.5" y1="104" y2="104"/><line style="stroke:#181818;stroke-width:0.5;" x1="3430.5" x2="3590.5" y1="112" y2="112"/></g><!--class TaskStatus--><g id="elem_TaskStatus"><rect codeLine="99" fill="#F1F1F1" height="48" id="TaskStatus" rx="2.5" ry="2.5" style="stroke:#181818;stroke-width:0.5;" width="103" x="3627" y="72"/><ellipse cx="3642" cy="88" fill="#C2C2C2" rx="11" ry="11" style="stroke:#181818;stroke-width:1.0;"/><path d="M3644.7656,83.875 Q3644.9219,83.6563 3645.1094,83.5469 Q3645.2969,83.4375 3645.5156,83.4375 Q3645.8906,83.4375 3646.125,83.7031 Q3646.3594,83.9531 3646.3594,84.5625 L3646.3594,86.0156 Q3646.3594,86.625 3646.125,86.8906 Q3645.8906,87.1563 3645.5156,87.1563 Q3645.1719,87.1563 3644.9688,86.9531 Q3644.7656,86.7656 3644.6563,86.25 Q3644.6094,85.8906 3644.4219,85.7031 Q3644.0938,85.3281 3643.4844,85.1094 Q3642.875,84.8906 3642.25,84.8906 Q3641.4844,84.8906 3640.8438,85.2188 Q3640.2188,85.5469 3639.7188,86.2969 Q3639.2344,87.0469 3639.2344,88.0781 L3639.2344,89.1719 Q3639.2344,90.4063 3640.125,91.2344 Q3641.0156,92.0469 3642.6094,92.0469 Q3643.5469,92.0469 3644.2031,91.7969 Q3644.5938,91.6406 3645.0156,91.2031 Q3645.2813,90.9375 3645.4219,90.8594 Q3645.5781,90.7813 3645.7813,90.7813 Q3646.1094,90.7813 3646.3594,91.0469 Q3646.625,91.2969 3646.625,91.6406 Q3646.625,91.9844 3646.2813,92.3906 Q3645.7813,92.9688 3644.9844,93.2969 Q3643.9063,93.75 3642.6094,93.75 Q3641.0938,93.75 3639.8906,93.125 Q3638.9063,92.625 3638.2188,91.5625 Q3637.5313,90.4844 3637.5313,89.2031 L3637.5313,88.0469 Q3637.5313,86.7188 3638.1406,85.5781 Q3638.7656,84.4219 3639.8594,83.8125 Q3640.9531,83.1875 3642.1875,83.1875 Q3642.9219,83.1875 3643.5625,83.3594 Q3644.2188,83.5156 3644.7656,83.875 Z " fill="#000000"/><text fill="#000000" font-family="sans-serif" font-size="14" lengthAdjust="spacing" textLength="71" x="3656" y="93.7969">TaskStatus</text><line style="stroke:#181818;stroke-width:0.5;" x1="3628" x2="3729" y1="104" y2="104"/><line style="stroke:#181818;stroke-width:0.5;" x1="3628" x2="3729" y1="112" y2="112"/></g><!--class ToDoListGUI--><g id="elem_ToDoListGUI"><rect fill="#F1F1F1" height="48" id="ToDoListGUI" rx="2.5" ry="2.5" style="stroke:#181818;stroke-width:0.5;" width="112" x="1802.5" y="615.5"/><ellipse cx="1817.5" cy="631.5" fill="#C2C2C2" rx="11" ry="11" style="stroke:#181818;stroke-width:1.0;"/><path d="M1820.2656,627.375 Q1820.4219,627.1563 1820.6094,627.0469 Q1820.7969,626.9375 1821.0156,626.9375 Q1821.3906,626.9375 1821.625,627.2031 Q1821.8594,627.4531 1821.8594,628.0625 L1821.8594,629.5156 Q1821.8594,630.125 1821.625,630.3906 Q1821.3906,630.6563 1821.0156,630.6563 Q1820.6719,630.6563 1820.4688,630.4531 Q1820.2656,630.2656 1820.1563,629.75 Q1820.1094,629.3906 1819.9219,629.2031 Q1819.5938,628.8281 1818.9844,628.6094 Q1818.375,628.3906 1817.75,628.3906 Q1816.9844,628.3906 1816.3438,628.7188 Q1815.7188,629.0469 1815.2188,629.7969 Q1814.7344,630.5469 1814.7344,631.5781 L1814.7344,632.6719 Q1814.7344,633.9063 1815.625,634.7344 Q1816.5156,635.5469 1818.1094,635.5469 Q1819.0469,635.5469 1819.7031,635.2969 Q1820.0938,635.1406 1820.5156,634.7031 Q1820.7813,634.4375 1820.9219,634.3594 Q1821.0781,634.2813 1821.2813,634.2813 Q1821.6094,634.2813 1821.8594,634.5469 Q1822.125,634.7969 1822.125,635.1406 Q1822.125,635.4844 1821.7813,635.8906 Q1821.2813,636.4688 1820.4844,636.7969 Q1819.4063,637.25 1818.1094,637.25 Q1816.5938,637.25 1815.3906,636.625 Q1814.4063,636.125 1813.7188,635.0625 Q1813.0313,633.9844 1813.0313,632.7031 L1813.0313,631.5469 Q1813.0313,630.2188 1813.6406,629.0781 Q1814.2656,627.9219 1815.3594,627.3125 Q1816.4531,626.6875 1817.6875,626.6875 Q1818.4219,626.6875 1819.0625,626.8594 Q1819.7188,627.0156 1820.2656,627.375 Z " fill="#000000"/><text fill="#000000" font-family="sans-serif" font-size="14" lengthAdjust="spacing" textLength="80" x="1831.5" y="637.2969">ToDoListGUI</text><line style="stroke:#181818;stroke-width:0.5;" x1="1803.5" x2="1913.5" y1="647.5" y2="647.5"/><line style="stroke:#181818;stroke-width:0.5;" x1="1803.5" x2="1913.5" y1="655.5" y2="655.5"/></g><!--class GreenSpacesRepository--><g id="elem_GreenSpacesRepository"><rect fill="#F1F1F1" height="48" id="GreenSpacesRepository" rx="2.5" ry="2.5" style="stroke:#181818;stroke-width:0.5;" width="187" x="3207" y="72"/><ellipse cx="3222" cy="88" fill="#C2C2C2" rx="11" ry="11" style="stroke:#181818;stroke-width:1.0;"/><path d="M3224.7656,83.875 Q3224.9219,83.6563 3225.1094,83.5469 Q3225.2969,83.4375 3225.5156,83.4375 Q3225.8906,83.4375 3226.125,83.7031 Q3226.3594,83.9531 3226.3594,84.5625 L3226.3594,86.0156 Q3226.3594,86.625 3226.125,86.8906 Q3225.8906,87.1563 3225.5156,87.1563 Q3225.1719,87.1563 3224.9688,86.9531 Q3224.7656,86.7656 3224.6563,86.25 Q3224.6094,85.8906 3224.4219,85.7031 Q3224.0938,85.3281 3223.4844,85.1094 Q3222.875,84.8906 3222.25,84.8906 Q3221.4844,84.8906 3220.8438,85.2188 Q3220.2188,85.5469 3219.7188,86.2969 Q3219.2344,87.0469 3219.2344,88.0781 L3219.2344,89.1719 Q3219.2344,90.4063 3220.125,91.2344 Q3221.0156,92.0469 3222.6094,92.0469 Q3223.5469,92.0469 3224.2031,91.7969 Q3224.5938,91.6406 3225.0156,91.2031 Q3225.2813,90.9375 3225.4219,90.8594 Q3225.5781,90.7813 3225.7813,90.7813 Q3226.1094,90.7813 3226.3594,91.0469 Q3226.625,91.2969 3226.625,91.6406 Q3226.625,91.9844 3226.2813,92.3906 Q3225.7813,92.9688 3224.9844,93.2969 Q3223.9063,93.75 3222.6094,93.75 Q3221.0938,93.75 3219.8906,93.125 Q3218.9063,92.625 3218.2188,91.5625 Q3217.5313,90.4844 3217.5313,89.2031 L3217.5313,88.0469 Q3217.5313,86.7188 3218.1406,85.5781 Q3218.7656,84.4219 3219.8594,83.8125 Q3220.9531,83.1875 3222.1875,83.1875 Q3222.9219,83.1875 3223.5625,83.3594 Q3224.2188,83.5156 3224.7656,83.875 Z " fill="#000000"/><text fill="#000000" font-family="sans-serif" font-size="14" lengthAdjust="spacing" textLength="155" x="3236" y="93.7969">GreenSpacesRepository</text><line style="stroke:#181818;stroke-width:0.5;" x1="3208" x2="3393" y1="104" y2="104"/><line style="stroke:#181818;stroke-width:0.5;" x1="3208" x2="3393" y1="112" y2="112"/></g><!--link ToDoListUI to ToDoListController--><g id="link_ToDoListUI_ToDoListController"><path codeLine="105" d="M1342.5,185.1 C1342.5,204.63 1342.5,219.53 1342.5,239.72 " fill="none" id="ToDoListUI-to-ToDoListController" style="stroke:#181818;stroke-width:1.0;stroke-dasharray:7.0,7.0;"/><polygon fill="#181818" points="1342.5,245.72,1346.5,236.72,1342.5,240.72,1338.5,236.72,1342.5,245.72" style="stroke:#181818;stroke-width:1.0;"/></g><!--link ToDoListController to Repositories--><g id="link_ToDoListController_Repositories"><path codeLine="107" d="M1222.28,462.18 C1193.26,488.05 1166.8786,511.5672 1138.3886,536.9672 " fill="none" id="ToDoListController-to-Repositories" style="stroke:#181818;stroke-width:1.0;stroke-dasharray:7.0,7.0;"/><polygon fill="#181818" points="1133.91,540.96,1143.2897,537.9565,1137.6421,537.6327,1137.966,531.9851,1133.91,540.96" style="stroke:#181818;stroke-width:1.0;"/><text fill="#000000" font-family="sans-serif" font-size="13" lengthAdjust="spacing" textLength="67" x="1184.5" y="507.0283">repositories</text></g><!--link Repositories to Repositories--><g id="link_Repositories_Repositories"><path codeLine="108" d="M1210.3,619.16 C1231.35,622.97 1245,629.75 1245,639.5 C1245,649.25 1237.2541,654.9614 1216.2041,658.7714 " fill="none" id="Repositories-to-Repositories" style="stroke:#181818;stroke-width:1.0;"/><polygon fill="#181818" points="1210.3,659.84,1219.8685,662.1731,1215.2201,658.9495,1218.4437,654.301,1210.3,659.84" style="stroke:#181818;stroke-width:1.0;"/><text fill="#000000" font-family="sans-serif" font-size="13" lengthAdjust="spacing" textLength="49" x="1251" y="645.0283">instance</text></g><!--link ToDoListController to GreenSpaceRepository--><g id="link_ToDoListController_GreenSpaceRepository"><path codeLine="109" d="M1333.54,462.02 C1325.06,563.28 1313.0809,706.3209 1305.8209,792.9809 " fill="none" id="ToDoListController-to-GreenSpaceRepository" style="stroke:#181818;stroke-width:1.0;stroke-dasharray:7.0,7.0;"/><polygon fill="#181818" points="1305.32,798.96,1310.0574,790.3254,1305.7374,793.9775,1302.0853,789.6575,1305.32,798.96" style="stroke:#181818;stroke-width:1.0;"/></g><!--link ToDoListController to EntryRepository--><g id="link_ToDoListController_EntryRepository"><path codeLine="110" d="M1000.92,462.04 C939.94,485.32 877.91,511.83 821.5,541 C650.64,629.36 474.814,768.3666 397.704,832.1266 " fill="none" id="ToDoListController-to-EntryRepository" style="stroke:#181818;stroke-width:1.0;stroke-dasharray:7.0,7.0;"/><polygon fill="#181818" points="393.08,835.95,402.5649,833.2975,396.9333,832.7638,397.467,827.1322,393.08,835.95" style="stroke:#181818;stroke-width:1.0;"/></g><!--link Repositories to GreenSpaceRepository--><g id="link_Repositories_GreenSpaceRepository"><path codeLine="111" d="M1142.32,738.18 C1166.96,758.61 1187.8418,775.9195 1210.9418,795.0795 " fill="none" id="Repositories-to-GreenSpaceRepository" style="stroke:#181818;stroke-width:1.0;"/><polygon fill="#181818" points="1215.56,798.91,1211.1864,790.0855,1211.7115,795.7179,1206.0791,796.2431,1215.56,798.91" style="stroke:#181818;stroke-width:1.0;"/><text fill="#000000" font-family="sans-serif" font-size="13" lengthAdjust="spacing" textLength="7" x="1199.5427" y="787.7917">1</text></g><!--link Repositories to EntryRepository--><g id="link_Repositories_EntryRepository"><path codeLine="112" d="M838.76,703.71 C712.7,746.6 556.8801,799.6269 455.9501,833.9769 " fill="none" id="Repositories-to-EntryRepository" style="stroke:#181818;stroke-width:1.0;"/><polygon fill="#181818" points="450.27,835.91,460.0788,836.797,455.0034,834.2991,457.5013,829.2236,450.27,835.91" style="stroke:#181818;stroke-width:1.0;"/><text fill="#000000" font-family="sans-serif" font-size="13" lengthAdjust="spacing" textLength="7" x="461.4357" y="824.7178">1</text></g><!--link ToDoListController to GreenSpaceMapper--><g id="link_ToDoListController_GreenSpaceMapper"><path codeLine="113" d="M1440.04,462.18 C1491.12,518.31 1545.1818,577.7123 1575.5118,611.0423 " fill="none" id="ToDoListController-to-GreenSpaceMapper" style="stroke:#181818;stroke-width:1.0;stroke-dasharray:7.0,7.0;"/><polygon fill="#181818" points="1579.55,615.48,1576.4511,606.1314,1576.1848,611.782,1570.5342,611.5157,1579.55,615.48" style="stroke:#181818;stroke-width:1.0;"/></g><!--link ToDoListGUI to GreenSpaceDTO--><g id="link_ToDoListGUI_GreenSpaceDTO"><path codeLine="114" d="M1869.55,663.62 C1890.44,707.32 1932.9222,796.1668 1953.8322,839.9068 " fill="none" id="ToDoListGUI-to-GreenSpaceDTO" style="stroke:#181818;stroke-width:1.0;stroke-dasharray:7.0,7.0;"/><polygon fill="#181818" points="1956.42,845.32,1956.1471,835.4749,1954.2635,840.809,1948.9294,838.9253,1956.42,845.32" style="stroke:#181818;stroke-width:1.0;"/></g><!--link GreenSpaceMapper to GreenSpaceDTO--><g id="link_GreenSpaceMapper_GreenSpaceDTO"><path codeLine="115" d="M1645.5,663.56 C1701.49,692.84 1799.36,745.94 1878.5,799 C1899.83,813.3 1917.9941,827.3632 1935.1741,841.4032 " fill="none" id="GreenSpaceMapper-to-GreenSpaceDTO" style="stroke:#181818;stroke-width:1.0;stroke-dasharray:7.0,7.0;"/><polygon fill="#181818" points="1939.82,845.2,1935.3823,836.4076,1935.9484,842.036,1930.3199,842.6021,1939.82,845.2" style="stroke:#181818;stroke-width:1.0;"/></g><!--link ToDoListController to GreenSpaceDTO--><g id="link_ToDoListController_GreenSpaceDTO"><path codeLine="116" d="M1788.99,462.1 C1854.62,485.8 1908.07,512.45 1931.5,541 C2005.89,631.65 1985.388,781.2448 1973.808,839.5948 " fill="none" id="ToDoListController-to-GreenSpaceDTO" style="stroke:#181818;stroke-width:1.0;stroke-dasharray:7.0,7.0;"/><polygon fill="#181818" points="1972.64,845.48,1978.3154,837.4308,1973.6133,840.5756,1970.4685,835.8735,1972.64,845.48" style="stroke:#181818;stroke-width:1.0;"/></g><!--link EntryRepository to Entry--><g id="link_EntryRepository_Entry"><path codeLine="117" d="M354.5,903.21 C354.5,929.05 354.5,960.35 354.5,994.77 " fill="none" id="EntryRepository-to-Entry" style="stroke:#181818;stroke-width:1.0;"/><polygon fill="#181818" points="354.5,1000.77,358.5,991.77,354.5,995.77,350.5,991.77,354.5,1000.77" style="stroke:#181818;stroke-width:1.0;"/></g><!--link GreenSpacesRepository to GreenSpace--><g id="link_GreenSpacesRepository_GreenSpace"><path codeLine="118" d="M3300.5,120.17 C3300.5,150.69 3300.5,200.27 3300.5,249.48 " fill="none" id="GreenSpacesRepository-to-GreenSpace" style="stroke:#181818;stroke-width:1.0;"/><polygon fill="#181818" points="3300.5,255.48,3304.5,246.48,3300.5,250.48,3296.5,246.48,3300.5,255.48" style="stroke:#181818;stroke-width:1.0;"/></g><!--link ToDoList to Task--><g id="link_ToDoList_Task"><path codeLine="119" d="M2303.5,166.61 C2303.5,196.82 2303.5,226.54 2303.5,258.59 " fill="none" id="ToDoList-to-Task" style="stroke:#181818;stroke-width:1.0;"/><polygon fill="#181818" points="2303.5,264.59,2307.5,255.59,2303.5,259.59,2299.5,255.59,2303.5,264.59" style="stroke:#181818;stroke-width:1.0;"/></g><!--SRC=[pLTDQnin4BtxLuYUDjWEz1f288xT44ZQ4jkzgxkJZSXQMYIvoRRqltUa_PAqMc-W59g3YMUUHgEdDwEnUc6yf98Uo45maJvBSG2YvH5cglEKD7sXEMnrLG2Ha6hAyy85g6UQYLV6S_942mMpMLfGfSXEhCKzKtf_HtxD2FujYMvCEwfU5BaWvlzl35ulZU4g0Dq8hgKe2f28t0sC5Ztl7BVxk-IiiPMYF1PKmmQn35HdPvnfHWls4vBzupqfH4er4tn17a69eqnXTUIPFMJzLRKBSx524heupzJ0RYJW7ZldI0Zu7PxUEKNBGYu1-1Pf1VK8fL1C2rdX6MzZze0KXug0W7wZBiyST1-p3vcSdTpChdke781TS2qbhSn6bxtdgb_Gfc6nGOgEszvy4A-__3cXMMQPrFZncHxWWcpn3dc-8CQo1fLALffB2nn7IMihuthXCEmUj8RkPGuyhTPWG9XgQ3AvVHUY0Chxz3r4B7yFO0_JAQ6Z5wNOQO1nXNMK0WPo_GE5l5iWWBTVUUYDRvaK4XxphidA7d2Grry9AiZ6BebbE26cZjLO7h4AwwvfMiAtaLKJqdUtkYwm8MJLviqiwyskYeVQGhttCKTMkNf62u2EUNPLwQdTV7Vz3vHZ5vUR0sL5RFqrPc_B9re0VTnLvKPAJcympbvtaO48cZkSazIsL-jDulMytdrPa2pM4evrDJRT0DvAVBKWyvf4fxzXo-wVg-QPccvLTHyPCcTyhYxKIRHH_aH_HCXNu1cUSXpfKnif2XAms00SAadBPUDg22MMkhRZ1BGwpZdvT_VMRF0397kgFZ5yyB8a4imGi_BOhLUqmP9HLRIh8gqcmgKfr92ji5p7_QP8ILYr0vHRMUEnJ05xT_3VDPPOEp7vM1KxfmeWNhzne7tXekoxgpcXudQe6EVGkujMvqgp0uqBVJaSAKXafcX7DTCkih4PPknc_15ca4rJBEyQRVm-izLK7-iMqd-DoHuB5kcDUHveMTh9rhiBdu_0MM_ZMkFXd9yFv-TNiHy0iyYCRQ3ku7A1mxmpndYps78POjkfR2noREWOmuR3pM3h3ny_n0D6aM6uoGnhBcVExwC0O1h_WFeXP78Z0meVSPDr_Rf6nqBhTmgjUtcDtOXazWS0]--></g></svg>