<?xml version="1.0" encoding="us-ascii" standalone="no"?><svg xmlns="http://www.w3.org/2000/svg" xmlns:xlink="http://www.w3.org/1999/xlink" contentStyleType="text/css" height="488px" preserveAspectRatio="none" style="width:569px;height:488px;background:#FFFFFF;" version="1.1" viewBox="0 0 569 488" width="569px" zoomAndPan="magnify"><defs/><g><!--class GreenSpacesManager--><g id="elem_GreenSpacesManager"><rect codeLine="10" fill="#F1F1F1" height="33.6406" id="GreenSpacesManager" rx="2.5" ry="2.5" style="stroke:#181818;stroke-width:0.5;" width="149" x="7" y="8.2549"/><text fill="#000000" font-family="sans-serif" font-size="14" lengthAdjust="spacing" textLength="143" x="10" y="25.9287">GreenSpacesManager</text><line style="stroke:#181818;stroke-width:0.5;" x1="8" x2="155" y1="33.8955" y2="33.8955"/></g><!--class Agenda--><g id="elem_Agenda"><rect codeLine="13" fill="#F1F1F1" height="33.6406" id="Agenda" rx="2.5" ry="2.5" style="stroke:#181818;stroke-width:0.5;" width="55" x="273" y="8.2549"/><text fill="#000000" font-family="sans-serif" font-size="14" lengthAdjust="spacing" textLength="49" x="276" y="25.9287">Agenda</text><line style="stroke:#181818;stroke-width:0.5;" x1="274" x2="327" y1="33.8955" y2="33.8955"/></g><!--class AgendaEntry--><g id="elem_AgendaEntry"><rect codeLine="17" fill="#F1F1F1" height="80.5625" id="AgendaEntry" rx="2.5" ry="2.5" style="stroke:#181818;stroke-width:0.5;" width="94" x="296.5" y="118.2549"/><text fill="#000000" font-family="sans-serif" font-size="14" lengthAdjust="spacing" textLength="82" x="302.5" y="135.9287">AgendaEntry</text><line style="stroke:#181818;stroke-width:0.5;" x1="297.5" x2="389.5" y1="143.8955" y2="143.8955"/><text fill="#000000" font-family="sans-serif" font-size="14" lengthAdjust="spacing" textLength="77" x="302.5" y="160.5693">startingDate</text><text fill="#000000" font-family="sans-serif" font-size="14" lengthAdjust="spacing" textLength="82" x="302.5" y="176.21">finishingDate</text><text fill="#000000" font-family="sans-serif" font-size="14" lengthAdjust="spacing" textLength="38" x="302.5" y="191.8506">status</text></g><!--class Task--><g id="elem_Task"><rect codeLine="23" fill="#F1F1F1" height="64.9219" id="Task" rx="2.5" ry="2.5" style="stroke:#181818;stroke-width:0.5;" width="123" x="182" y="275.2549"/><text fill="#000000" font-family="sans-serif" font-size="14" lengthAdjust="spacing" textLength="31" x="228" y="292.9287">Task</text><line style="stroke:#181818;stroke-width:0.5;" x1="183" x2="304" y1="300.8955" y2="300.8955"/><text fill="#000000" font-family="sans-serif" font-size="14" lengthAdjust="spacing" textLength="69" x="188" y="317.5693">description</text><text fill="#000000" font-family="sans-serif" font-size="14" lengthAdjust="spacing" textLength="111" x="188" y="333.21">expectedDuration</text></g><!--class GreenSpaces--><g id="elem_GreenSpaces"><rect codeLine="29" fill="#F1F1F1" height="64.9219" id="GreenSpaces" rx="2.5" ry="2.5" style="stroke:#181818;stroke-width:0.5;" width="93" x="64" y="416.2549"/><text fill="#000000" font-family="sans-serif" font-size="14" lengthAdjust="spacing" textLength="87" x="67" y="433.9287">GreenSpaces</text><line style="stroke:#181818;stroke-width:0.5;" x1="65" x2="156" y1="441.8955" y2="441.8955"/><text fill="#000000" font-family="sans-serif" font-size="14" lengthAdjust="spacing" textLength="27" x="70" y="458.5693">type</text><text fill="#000000" font-family="sans-serif" font-size="14" lengthAdjust="spacing" textLength="29" x="70" y="474.21">area</text></g><!--class Team--><g id="elem_Team"><rect fill="#F1F1F1" height="33.6406" id="Team" rx="2.5" ry="2.5" style="stroke:#181818;stroke-width:0.5;" width="42" x="520.5" y="141.7549"/><text fill="#000000" font-family="sans-serif" font-size="14" lengthAdjust="spacing" textLength="36" x="523.5" y="159.4287">Team</text><line style="stroke:#181818;stroke-width:0.5;" x1="521.5" x2="561.5" y1="167.3955" y2="167.3955"/></g><!--link GreenSpacesManager to Agenda--><g id="link_GreenSpacesManager_Agenda"><path codeLine="34" d="M156.25,25.2549 C196.53,25.2549 243.79,25.2549 272.95,25.2549 " fill="none" id="GreenSpacesManager-Agenda" style="stroke:#181818;stroke-width:1.0;"/><polygon fill="#000000" points="173.5,14.5166,182.5451,17.4555,182.5451,11.5777,173.5,14.5166" style="stroke:#000000;stroke-width:1.0;"/><text fill="#000000" font-family="sans-serif" font-size="13" lengthAdjust="spacing" textLength="67" x="187.5" y="19.0234">assigned to</text><text fill="#000000" font-family="sans-serif" font-size="13" lengthAdjust="spacing" textLength="20" x="164.0629" y="37.7094">1..*</text><text fill="#000000" font-family="sans-serif" font-size="13" lengthAdjust="spacing" textLength="7" x="257.9934" y="21.3428">1</text></g><!--link GreenSpacesManager to GreenSpaces--><g id="link_GreenSpacesManager_GreenSpaces"><path codeLine="35" d="M82.6,42.2649 C86.89,104.5949 102.52,331.7649 108.32,416.0249 " fill="none" id="GreenSpacesManager-GreenSpaces" style="stroke:#181818;stroke-width:1.0;"/><polygon fill="#000000" points="101.8433,242.5048,104.1543,233.2793,98.2903,233.6828,101.8433,242.5048" style="stroke:#000000;stroke-width:1.0;"/><text fill="#000000" font-family="sans-serif" font-size="13" lengthAdjust="spacing" textLength="60" x="110.5" y="242.0234">administer</text><text fill="#000000" font-family="sans-serif" font-size="13" lengthAdjust="spacing" textLength="7" x="74.865" y="61.5217">1</text><text fill="#000000" font-family="sans-serif" font-size="13" lengthAdjust="spacing" textLength="20" x="85.8079" y="405.6612">1..*</text></g><!--link Task to GreenSpaces--><g id="link_Task_GreenSpaces"><path codeLine="36" d="M213.32,340.2949 C191.71,362.8849 162.71,393.1849 141.02,415.8549 " fill="none" id="Task-GreenSpaces" style="stroke:#181818;stroke-width:1.0;"/><polygon fill="#000000" points="183.0433,382.1292,191.42,377.6258,187.1731,373.5621,183.0433,382.1292" style="stroke:#000000;stroke-width:1.0;"/><text fill="#000000" font-family="sans-serif" font-size="13" lengthAdjust="spacing" textLength="90" x="195.5" y="383.0234">executed within</text><text fill="#000000" font-family="sans-serif" font-size="13" lengthAdjust="spacing" textLength="7" x="199.6893" y="359.9071">1</text><text fill="#000000" font-family="sans-serif" font-size="13" lengthAdjust="spacing" textLength="20" x="125.2522" y="405.4561">1..*</text></g><!--link Agenda to Task--><g id="link_Agenda_Task"><path codeLine="37" d="M272.84,41.4049 C247.64,56.9649 212.05,83.7449 196.5,118.2549 C172.95,170.5349 201.4,236.5049 223.18,274.9249 " fill="none" id="Agenda-Task" style="stroke:#181818;stroke-width:1.0;"/><polygon fill="#000000" points="200.46,163.9072,205.2161,155.6713,199.4668,154.4487,200.46,163.9072" style="stroke:#000000;stroke-width:1.0;"/><text fill="#000000" font-family="sans-serif" font-size="13" lengthAdjust="spacing" textLength="67" x="210.5" y="163.5234">coordinates</text><text fill="#000000" font-family="sans-serif" font-size="13" lengthAdjust="spacing" textLength="7" x="257.8552" y="41.6312">1</text><text fill="#000000" font-family="sans-serif" font-size="13" lengthAdjust="spacing" textLength="5" x="213.4734" y="264.5405">*</text></g><!--link AgendaEntry to Task--><g id="link_AgendaEntry_Task"><path codeLine="38" d="M316.44,199.5349 C300.36,223.1749 280.24,252.7549 265.2,274.8549 " fill="none" id="AgendaEntry-Task" style="stroke:#181818;stroke-width:1.0;"/><polygon fill="#000000" points="295.6876,241.6507,303.2052,235.8252,298.3453,232.519,295.6876,241.6507" style="stroke:#000000;stroke-width:1.0;"/><text fill="#000000" font-family="sans-serif" font-size="13" lengthAdjust="spacing" textLength="86" x="307.5" y="242.0234">corresponds to</text><text fill="#000000" font-family="sans-serif" font-size="13" lengthAdjust="spacing" textLength="7" x="304.7605" y="218.6933">1</text><text fill="#000000" font-family="sans-serif" font-size="13" lengthAdjust="spacing" textLength="7" x="261.9538" y="264.4561">1</text></g><!--link Team to Task--><g id="link_Team_Task"><path codeLine="39" d="M520.06,174.6549 C493.34,192.8149 445.91,223.7349 402.5,245.2549 C371.21,260.7649 334.98,275.0449 305.02,285.9349 " fill="none" id="Team-Task" style="stroke:#181818;stroke-width:1.0;"/><polygon fill="#000000" points="430.0594,239.8146,439.4433,238.2677,436.7418,233.0474,430.0594,239.8146" style="stroke:#000000;stroke-width:1.0;"/><text fill="#000000" font-family="sans-serif" font-size="13" lengthAdjust="spacing" textLength="80" x="443.5" y="242.0234">is responsible</text><text fill="#000000" font-family="sans-serif" font-size="13" lengthAdjust="spacing" textLength="7" x="505.4221" y="175.2842">1</text><text fill="#000000" font-family="sans-serif" font-size="13" lengthAdjust="spacing" textLength="5" x="312.8224" y="280.2277">*</text></g><!--link Agenda to AgendaEntry--><g id="link_Agenda_AgendaEntry"><path codeLine="40" d="M305.77,42.3749 C311.9,61.1049 322.21,92.6649 330.51,118.0449 " fill="none" id="Agenda-AgendaEntry" style="stroke:#181818;stroke-width:1.0;"/><polygon fill="#000000" points="328.0538,85.269,328.0364,75.7585,322.4495,77.5851,328.0538,85.269" style="stroke:#000000;stroke-width:1.0;"/><text fill="#000000" font-family="sans-serif" font-size="13" lengthAdjust="spacing" textLength="21" x="335.5" y="85.0234">has</text><text fill="#000000" font-family="sans-serif" font-size="13" lengthAdjust="spacing" textLength="7" x="299.3121" y="61.6654">1</text><text fill="#000000" font-family="sans-serif" font-size="13" lengthAdjust="spacing" textLength="5" x="322.7508" y="107.4007">*</text></g><!--link AgendaEntry to Team--><g id="link_AgendaEntry_Team"><path codeLine="41" d="M390.67,158.7549 C431.85,158.7549 489.69,158.7549 520.4,158.7549 " fill="none" id="AgendaEntry-Team" style="stroke:#181818;stroke-width:1.0;"/><polygon fill="#000000" points="408,148.0166,417.0451,150.9555,417.0451,145.0777,408,148.0166" style="stroke:#000000;stroke-width:1.0;"/><text fill="#000000" font-family="sans-serif" font-size="13" lengthAdjust="spacing" textLength="80" x="422" y="152.5234">is responsible</text><text fill="#000000" font-family="sans-serif" font-size="13" lengthAdjust="spacing" textLength="5" x="398.5862" y="155.4844">*</text><text fill="#000000" font-family="sans-serif" font-size="13" lengthAdjust="spacing" textLength="7" x="505.5588" y="154.4329">1</text></g><!--SRC=[RLBDQiCm3BxxAKIFWvNj6igWq35ssAbx0TLM4zF43fP2rus- -rGdJRCrEJcVlXz9DXzyQ35X0qqCqLOfDWIIEZ8yLbgq1onfAwUQ894L36Kz9N25BXvzA66FDKyhjaRcjKZokqxetSQmzTy4JyPKtX5OdwmwvND3KaN7nfWiWhT45BQQJVo1GVCJ_9ZpjRekAJXKv3_q6YIT50VzM329jhL1eGpiVV1SJH6bICStaq_amw1sn3RvLdmC-P- -MfsTtAPBcC7pNA-3M4vj7u29yCAS6MVnl5m-BE1H3ukX-q85pBuCv40YhEPblIQB9_K2q3MN0KL9BoPFahbpP2Xq7h9wAGwENdGdAXcMEWIe87iKO6DCpWVT6O-iVi-Z_uIR4d4RW-FB1De7wJkuycwUdg7diT_fi_eRtZEdGGLKU1S-BYzdt7ckVW40]--></g></svg>