<?xml version="1.0" encoding="us-ascii" standalone="no"?><svg xmlns="http://www.w3.org/2000/svg" xmlns:xlink="http://www.w3.org/1999/xlink" contentStyleType="text/css" height="852px" preserveAspectRatio="none" style="width:1598px;height:852px;background:#FFFFFF;" version="1.1" viewBox="0 0 1598 852" width="1598px" zoomAndPan="magnify"><defs/><g><rect fill="#FFFFFF" height="672.3906" style="stroke:#181818;stroke-width:1.0;" width="10" x="57" y="90.6406"/><rect fill="#FFFFFF" height="28.5234" style="stroke:#181818;stroke-width:1.0;" width="10" x="412" y="111.1641"/><rect fill="#FFFFFF" height="52.0469" style="stroke:#181818;stroke-width:1.0;" width="10" x="412" y="168.2109"/><rect fill="#FFFFFF" height="505.25" style="stroke:#181818;stroke-width:1.0;" width="10" x="412" y="248.7813"/><rect fill="#FFFFFF" height="400.5625" style="stroke:#181818;stroke-width:1.0;" width="10" x="692" y="317.9453"/><rect fill="#FFFFFF" height="28.5234" style="stroke:#181818;stroke-width:1.0;" width="10" x="816.5" y="346.4688"/><rect fill="#FFFFFF" height="28.5234" style="stroke:#181818;stroke-width:1.0;" width="10" x="923.5" y="403.5156"/><rect fill="#FFFFFF" height="28.5234" style="stroke:#181818;stroke-width:1.0;" width="10" x="1049.5" y="541.1328"/><rect fill="#FFFFFF" height="28.5234" style="stroke:#181818;stroke-width:1.0;" width="10" x="1214.5" y="460.5625"/><rect fill="#FFFFFF" height="91.8047" style="stroke:#181818;stroke-width:1.0;" width="10" x="1364" y="598.1797"/><rect fill="none" height="543.2969" style="stroke:#000000;stroke-width:1.5;" width="1582" x="10" y="183.2109"/><rect fill="none" height="158.375" style="stroke:#000000;stroke-width:1.5;" width="961" x="621" y="504.0859"/><line style="stroke:#181818;stroke-width:0.5;stroke-dasharray:5.0,5.0;" x1="62" x2="62" y1="80.6406" y2="772.0313"/><line style="stroke:#181818;stroke-width:0.5;stroke-dasharray:5.0,5.0;" x1="416.5" x2="416.5" y1="80.6406" y2="772.0313"/><line style="stroke:#181818;stroke-width:0.5;stroke-dasharray:5.0,5.0;" x1="697" x2="697" y1="287.1016" y2="772.0313"/><line style="stroke:#181818;stroke-width:0.5;stroke-dasharray:5.0,5.0;" x1="821" x2="821" y1="80.6406" y2="772.0313"/><line style="stroke:#181818;stroke-width:0.5;stroke-dasharray:5.0,5.0;" x1="928" x2="928" y1="80.6406" y2="772.0313"/><line style="stroke:#181818;stroke-width:0.5;stroke-dasharray:5.0,5.0;" x1="1054" x2="1054" y1="80.6406" y2="772.0313"/><line style="stroke:#181818;stroke-width:0.5;stroke-dasharray:5.0,5.0;" x1="1219" x2="1219" y1="80.6406" y2="772.0313"/><line style="stroke:#181818;stroke-width:0.5;stroke-dasharray:5.0,5.0;" x1="1369" x2="1369" y1="80.6406" y2="772.0313"/><line style="stroke:#181818;stroke-width:0.5;stroke-dasharray:5.0,5.0;" x1="1529" x2="1529" y1="644.3203" y2="772.0313"/><text fill="#000000" font-family="sans-serif" font-size="14" lengthAdjust="spacing" textLength="78" x="20" y="77.6738">Collaborator</text><ellipse cx="62" cy="13.5" fill="#E3E3E3" rx="8" ry="8" style="stroke:#181818;stroke-width:0.5;"/><path d="M62,21.5 L62,48.5 M49,29.5 L75,29.5 M62,48.5 L49,63.5 M62,48.5 L75,63.5 " fill="none" style="stroke:#181818;stroke-width:0.5;"/><text fill="#000000" font-family="sans-serif" font-size="14" lengthAdjust="spacing" textLength="78" x="20" y="783.7051">Collaborator</text><ellipse cx="62" cy="795.1719" fill="#E3E3E3" rx="8" ry="8" style="stroke:#181818;stroke-width:0.5;"/><path d="M62,803.1719 L62,830.1719 M49,811.1719 L75,811.1719 M62,830.1719 L49,845.1719 M62,830.1719 L75,845.1719 " fill="none" style="stroke:#181818;stroke-width:0.5;"/><rect fill="#E3E3E3" height="29.6406" rx="2.5" ry="2.5" style="stroke:#181818;stroke-width:0.5;" width="93" x="370.5" y="50"/><text fill="#000000" font-family="sans-serif" font-size="14" lengthAdjust="spacing" textLength="79" x="377.5" y="69.6738">MyTasksGUI</text><rect fill="#E3E3E3" height="29.6406" rx="2.5" ry="2.5" style="stroke:#181818;stroke-width:0.5;" width="93" x="370.5" y="771.0313"/><text fill="#000000" font-family="sans-serif" font-size="14" lengthAdjust="spacing" textLength="79" x="377.5" y="790.7051">MyTasksGUI</text><rect fill="#E3E3E3" height="29.6406" rx="2.5" ry="2.5" style="stroke:#181818;stroke-width:0.5;" width="132" x="631" y="771.0313"/><text fill="#000000" font-family="sans-serif" font-size="14" lengthAdjust="spacing" textLength="118" x="638" y="790.7051">MyTasksController</text><rect fill="#E3E3E3" height="29.6406" rx="2.5" ry="2.5" style="stroke:#181818;stroke-width:0.5;" width="97" x="773" y="50"/><text fill="#000000" font-family="sans-serif" font-size="14" lengthAdjust="spacing" textLength="83" x="780" y="69.6738">:Repositories</text><rect fill="#E3E3E3" height="29.6406" rx="2.5" ry="2.5" style="stroke:#181818;stroke-width:0.5;" width="97" x="773" y="771.0313"/><text fill="#000000" font-family="sans-serif" font-size="14" lengthAdjust="spacing" textLength="83" x="780" y="790.7051">:Repositories</text><rect fill="#E3E3E3" height="45.2813" rx="2.5" ry="2.5" style="stroke:#181818;stroke-width:0.5;" width="97" x="880" y="34.3594"/><text fill="#000000" font-family="sans-serif" font-size="14" lengthAdjust="spacing" textLength="74" x="891.5" y="54.0332">repositories</text><text fill="#000000" font-family="sans-serif" font-size="14" lengthAdjust="spacing" textLength="83" x="887" y="69.6738">:Repositories</text><rect fill="#E3E3E3" height="45.2813" rx="2.5" ry="2.5" style="stroke:#181818;stroke-width:0.5;" width="97" x="880" y="771.0313"/><text fill="#000000" font-family="sans-serif" font-size="14" lengthAdjust="spacing" textLength="74" x="891.5" y="790.7051">repositories</text><text fill="#000000" font-family="sans-serif" font-size="14" lengthAdjust="spacing" textLength="83" x="887" y="806.3457">:Repositories</text><rect fill="#E3E3E3" height="45.2813" rx="2.5" ry="2.5" style="stroke:#181818;stroke-width:0.5;" width="135" x="987" y="34.3594"/><text fill="#000000" font-family="sans-serif" font-size="14" lengthAdjust="spacing" textLength="116" x="996.5" y="54.0332">agendaRepository</text><text fill="#000000" font-family="sans-serif" font-size="14" lengthAdjust="spacing" textLength="121" x="994" y="69.6738">:AgendaRepository</text><rect fill="#E3E3E3" height="45.2813" rx="2.5" ry="2.5" style="stroke:#181818;stroke-width:0.5;" width="135" x="987" y="771.0313"/><text fill="#000000" font-family="sans-serif" font-size="14" lengthAdjust="spacing" textLength="116" x="996.5" y="790.7051">agendaRepository</text><text fill="#000000" font-family="sans-serif" font-size="14" lengthAdjust="spacing" textLength="121" x="994" y="806.3457">:AgendaRepository</text><rect fill="#E3E3E3" height="45.2813" rx="2.5" ry="2.5" style="stroke:#181818;stroke-width:0.5;" width="175" x="1132" y="34.3594"/><text fill="#000000" font-family="sans-serif" font-size="14" lengthAdjust="spacing" textLength="158" x="1140.5" y="54.0332">AuthenticationRepository</text><text fill="#000000" font-family="sans-serif" font-size="14" lengthAdjust="spacing" textLength="161" x="1139" y="69.6738">:authenticationRepository</text><rect fill="#E3E3E3" height="45.2813" rx="2.5" ry="2.5" style="stroke:#181818;stroke-width:0.5;" width="175" x="1132" y="771.0313"/><text fill="#000000" font-family="sans-serif" font-size="14" lengthAdjust="spacing" textLength="158" x="1140.5" y="790.7051">AuthenticationRepository</text><text fill="#000000" font-family="sans-serif" font-size="14" lengthAdjust="spacing" textLength="161" x="1139" y="806.3457">:authenticationRepository</text><rect fill="#E3E3E3" height="45.2813" rx="2.5" ry="2.5" style="stroke:#181818;stroke-width:0.5;" width="104" x="1317" y="34.3594"/><text fill="#000000" font-family="sans-serif" font-size="14" lengthAdjust="spacing" textLength="86" x="1326" y="54.0332">TasksMapper</text><text fill="#000000" font-family="sans-serif" font-size="14" lengthAdjust="spacing" textLength="90" x="1324" y="69.6738">:TasksMapper</text><rect fill="#E3E3E3" height="45.2813" rx="2.5" ry="2.5" style="stroke:#181818;stroke-width:0.5;" width="104" x="1317" y="771.0313"/><text fill="#000000" font-family="sans-serif" font-size="14" lengthAdjust="spacing" textLength="86" x="1326" y="790.7051">TasksMapper</text><text fill="#000000" font-family="sans-serif" font-size="14" lengthAdjust="spacing" textLength="90" x="1324" y="806.3457">:TasksMapper</text><rect fill="#E3E3E3" height="45.2813" rx="2.5" ry="2.5" style="stroke:#181818;stroke-width:0.5;" width="86" x="1486" y="771.0313"/><text fill="#000000" font-family="sans-serif" font-size="14" lengthAdjust="spacing" textLength="68" x="1495" y="790.7051">TasksDTO</text><text fill="#000000" font-family="sans-serif" font-size="14" lengthAdjust="spacing" textLength="72" x="1493" y="806.3457">:TasksDTO</text><rect fill="#FFFFFF" height="672.3906" style="stroke:#181818;stroke-width:1.0;" width="10" x="57" y="90.6406"/><rect fill="#FFFFFF" height="28.5234" style="stroke:#181818;stroke-width:1.0;" width="10" x="412" y="111.1641"/><rect fill="#FFFFFF" height="52.0469" style="stroke:#181818;stroke-width:1.0;" width="10" x="412" y="168.2109"/><rect fill="#FFFFFF" height="505.25" style="stroke:#181818;stroke-width:1.0;" width="10" x="412" y="248.7813"/><rect fill="#FFFFFF" height="400.5625" style="stroke:#181818;stroke-width:1.0;" width="10" x="692" y="317.9453"/><rect fill="#FFFFFF" height="28.5234" style="stroke:#181818;stroke-width:1.0;" width="10" x="816.5" y="346.4688"/><rect fill="#FFFFFF" height="28.5234" style="stroke:#181818;stroke-width:1.0;" width="10" x="923.5" y="403.5156"/><rect fill="#FFFFFF" height="28.5234" style="stroke:#181818;stroke-width:1.0;" width="10" x="1049.5" y="541.1328"/><rect fill="#FFFFFF" height="28.5234" style="stroke:#181818;stroke-width:1.0;" width="10" x="1214.5" y="460.5625"/><rect fill="#FFFFFF" height="91.8047" style="stroke:#181818;stroke-width:1.0;" width="10" x="1364" y="598.1797"/><polygon fill="#181818" points="400,107.1641,410,111.1641,400,115.1641,404,111.1641" style="stroke:#181818;stroke-width:1.0;"/><line style="stroke:#181818;stroke-width:1.0;" x1="67" x2="406" y1="111.1641" y2="111.1641"/><text fill="#000000" font-family="sans-serif" font-size="13" font-weight="bold" lengthAdjust="spacing" textLength="7" x="74" y="106.4092">1</text><text fill="#000000" font-family="sans-serif" font-size="13" lengthAdjust="spacing" textLength="315" x="85" y="106.4092">requests to consult assigned tasks between two dates</text><polygon fill="#181818" points="78,135.6875,68,139.6875,78,143.6875,74,139.6875" style="stroke:#181818;stroke-width:1.0;"/><line style="stroke:#181818;stroke-width:1.0;stroke-dasharray:2.0,2.0;" x1="72" x2="416" y1="139.6875" y2="139.6875"/><text fill="#000000" font-family="sans-serif" font-size="13" font-weight="bold" lengthAdjust="spacing" textLength="7" x="84" y="134.9326">2</text><text fill="#000000" font-family="sans-serif" font-size="13" lengthAdjust="spacing" textLength="181" x="95" y="134.9326">prompts for start and end dates</text><polygon fill="#181818" points="400,164.2109,410,168.2109,400,172.2109,404,168.2109" style="stroke:#181818;stroke-width:1.0;"/><line style="stroke:#181818;stroke-width:1.0;" x1="67" x2="406" y1="168.2109" y2="168.2109"/><text fill="#000000" font-family="sans-serif" font-size="13" font-weight="bold" lengthAdjust="spacing" textLength="7" x="74" y="163.4561">3</text><text fill="#000000" font-family="sans-serif" font-size="13" lengthAdjust="spacing" textLength="163" x="85" y="163.4561">provides start and end dates</text><path d="M10,183.2109 L83,183.2109 L83,189.7344 L73,199.7344 L10,199.7344 L10,183.2109 " fill="#EEEEEE" style="stroke:#000000;stroke-width:1.5;"/><rect fill="none" height="543.2969" style="stroke:#000000;stroke-width:1.5;" width="1582" x="10" y="183.2109"/><text fill="#000000" font-family="sans-serif" font-size="13" font-weight="bold" lengthAdjust="spacing" textLength="28" x="25" y="195.9795">loop</text><text fill="#000000" font-family="sans-serif" font-size="11" font-weight="bold" lengthAdjust="spacing" textLength="138" x="98" y="195.1689">[until all data is validated]</text><polygon fill="#181818" points="78,216.2578,68,220.2578,78,224.2578,74,220.2578" style="stroke:#181818;stroke-width:1.0;"/><line style="stroke:#181818;stroke-width:1.0;stroke-dasharray:2.0,2.0;" x1="72" x2="416" y1="220.2578" y2="220.2578"/><text fill="#000000" font-family="sans-serif" font-size="13" font-weight="bold" lengthAdjust="spacing" textLength="7" x="84" y="215.5029">4</text><text fill="#000000" font-family="sans-serif" font-size="13" lengthAdjust="spacing" textLength="144" x="95" y="215.5029">asks to select the status</text><polygon fill="#181818" points="400,244.7813,410,248.7813,400,252.7813,404,248.7813" style="stroke:#181818;stroke-width:1.0;"/><line style="stroke:#181818;stroke-width:1.0;" x1="67" x2="406" y1="248.7813" y2="248.7813"/><text fill="#000000" font-family="sans-serif" font-size="13" font-weight="bold" lengthAdjust="spacing" textLength="7" x="74" y="244.0264">5</text><text fill="#000000" font-family="sans-serif" font-size="13" lengthAdjust="spacing" textLength="82" x="85" y="244.0264">selects status</text><polygon fill="#181818" points="619,273.3047,629,277.3047,619,281.3047,623,277.3047" style="stroke:#181818;stroke-width:1.0;"/><line style="stroke:#181818;stroke-width:1.0;stroke-dasharray:2.0,2.0;" x1="422" x2="625" y1="277.3047" y2="277.3047"/><text fill="#000000" font-family="sans-serif" font-size="13" font-weight="bold" lengthAdjust="spacing" textLength="7" x="429" y="272.5498">6</text><text fill="#000000" font-family="sans-serif" font-size="13" lengthAdjust="spacing" textLength="36" x="440" y="272.5498">create</text><rect fill="#E3E3E3" height="29.6406" rx="2.5" ry="2.5" style="stroke:#181818;stroke-width:0.5;" width="132" x="631" y="256.7813"/><text fill="#000000" font-family="sans-serif" font-size="14" lengthAdjust="spacing" textLength="118" x="638" y="276.4551">MyTasksController</text><polygon fill="#181818" points="680,313.9453,690,317.9453,680,321.9453,684,317.9453" style="stroke:#181818;stroke-width:1.0;"/><line style="stroke:#181818;stroke-width:1.0;" x1="422" x2="686" y1="317.9453" y2="317.9453"/><text fill="#000000" font-family="sans-serif" font-size="13" font-weight="bold" lengthAdjust="spacing" textLength="7" x="429" y="313.1904">7</text><text fill="#000000" font-family="sans-serif" font-size="13" lengthAdjust="spacing" textLength="240" x="440" y="313.1904">getTasks(email, iniData, endData, status)</text><polygon fill="#181818" points="804.5,342.4688,814.5,346.4688,804.5,350.4688,808.5,346.4688" style="stroke:#181818;stroke-width:1.0;"/><line style="stroke:#181818;stroke-width:1.0;" x1="702" x2="810.5" y1="346.4688" y2="346.4688"/><text fill="#000000" font-family="sans-serif" font-size="13" font-weight="bold" lengthAdjust="spacing" textLength="7" x="709" y="341.7139">8</text><text fill="#000000" font-family="sans-serif" font-size="13" lengthAdjust="spacing" textLength="75" x="720" y="341.7139">getInstance()</text><polygon fill="#181818" points="713,370.9922,703,374.9922,713,378.9922,709,374.9922" style="stroke:#181818;stroke-width:1.0;"/><line style="stroke:#181818;stroke-width:1.0;stroke-dasharray:2.0,2.0;" x1="707" x2="820.5" y1="374.9922" y2="374.9922"/><text fill="#000000" font-family="sans-serif" font-size="13" font-weight="bold" lengthAdjust="spacing" textLength="7" x="719" y="370.2373">9</text><text fill="#000000" font-family="sans-serif" font-size="13" lengthAdjust="spacing" textLength="67" x="730" y="370.2373">repositories</text><polygon fill="#181818" points="911.5,399.5156,921.5,403.5156,911.5,407.5156,915.5,403.5156" style="stroke:#181818;stroke-width:1.0;"/><line style="stroke:#181818;stroke-width:1.0;" x1="702" x2="917.5" y1="403.5156" y2="403.5156"/><text fill="#000000" font-family="sans-serif" font-size="13" font-weight="bold" lengthAdjust="spacing" textLength="14" x="709" y="398.7607">10</text><text fill="#000000" font-family="sans-serif" font-size="13" lengthAdjust="spacing" textLength="132" x="727" y="398.7607">getAgendaRepository()</text><polygon fill="#181818" points="713,428.0391,703,432.0391,713,436.0391,709,432.0391" style="stroke:#181818;stroke-width:1.0;"/><line style="stroke:#181818;stroke-width:1.0;stroke-dasharray:2.0,2.0;" x1="707" x2="927.5" y1="432.0391" y2="432.0391"/><text fill="#000000" font-family="sans-serif" font-size="13" font-weight="bold" lengthAdjust="spacing" textLength="14" x="719" y="427.2842">11</text><text fill="#000000" font-family="sans-serif" font-size="13" lengthAdjust="spacing" textLength="104" x="737" y="427.2842">agendaRepository</text><polygon fill="#181818" points="1202.5,456.5625,1212.5,460.5625,1202.5,464.5625,1206.5,460.5625" style="stroke:#181818;stroke-width:1.0;"/><line style="stroke:#181818;stroke-width:1.0;" x1="702" x2="1208.5" y1="460.5625" y2="460.5625"/><text fill="#000000" font-family="sans-serif" font-size="13" font-weight="bold" lengthAdjust="spacing" textLength="14" x="709" y="455.8076">12</text><text fill="#000000" font-family="sans-serif" font-size="13" lengthAdjust="spacing" textLength="171" x="727" y="455.8076">getAuthenticationRepository()</text><polygon fill="#181818" points="713,485.0859,703,489.0859,713,493.0859,709,489.0859" style="stroke:#181818;stroke-width:1.0;"/><line style="stroke:#181818;stroke-width:1.0;stroke-dasharray:2.0,2.0;" x1="707" x2="1218.5" y1="489.0859" y2="489.0859"/><text fill="#000000" font-family="sans-serif" font-size="13" font-weight="bold" lengthAdjust="spacing" textLength="14" x="719" y="484.3311">13</text><text fill="#000000" font-family="sans-serif" font-size="13" lengthAdjust="spacing" textLength="143" x="737" y="484.3311">authenticationRepository</text><path d="M621,504.0859 L694,504.0859 L694,510.6094 L684,520.6094 L621,520.6094 L621,504.0859 " fill="#EEEEEE" style="stroke:#000000;stroke-width:1.5;"/><rect fill="none" height="158.375" style="stroke:#000000;stroke-width:1.5;" width="961" x="621" y="504.0859"/><text fill="#000000" font-family="sans-serif" font-size="13" font-weight="bold" lengthAdjust="spacing" textLength="28" x="636" y="516.8545">loop</text><polygon fill="#181818" points="1037.5,537.1328,1047.5,541.1328,1037.5,545.1328,1041.5,541.1328" style="stroke:#181818;stroke-width:1.0;"/><line style="stroke:#181818;stroke-width:1.0;" x1="702" x2="1043.5" y1="541.1328" y2="541.1328"/><text fill="#000000" font-family="sans-serif" font-size="13" font-weight="bold" lengthAdjust="spacing" textLength="14" x="709" y="536.3779">14</text><text fill="#000000" font-family="sans-serif" font-size="13" lengthAdjust="spacing" textLength="251" x="727" y="536.3779">tasksGiven(email, iniData, endData, status)</text><polygon fill="#181818" points="713,565.6563,703,569.6563,713,573.6563,709,569.6563" style="stroke:#181818;stroke-width:1.0;"/><line style="stroke:#181818;stroke-width:1.0;stroke-dasharray:2.0,2.0;" x1="707" x2="1053.5" y1="569.6563" y2="569.6563"/><text fill="#000000" font-family="sans-serif" font-size="13" font-weight="bold" lengthAdjust="spacing" textLength="14" x="719" y="564.9014">15</text><text fill="#000000" font-family="sans-serif" font-size="13" lengthAdjust="spacing" textLength="32" x="737" y="564.9014">tasks</text><polygon fill="#181818" points="1352,594.1797,1362,598.1797,1352,602.1797,1356,598.1797" style="stroke:#181818;stroke-width:1.0;"/><line style="stroke:#181818;stroke-width:1.0;" x1="702" x2="1358" y1="598.1797" y2="598.1797"/><text fill="#000000" font-family="sans-serif" font-size="13" font-weight="bold" lengthAdjust="spacing" textLength="14" x="709" y="593.4248">16</text><text fill="#000000" font-family="sans-serif" font-size="13" lengthAdjust="spacing" textLength="98" x="727" y="593.4248">toDTOList(tasks)</text><polygon fill="#181818" points="1474,622.7031,1484,626.7031,1474,630.7031,1478,626.7031" style="stroke:#181818;stroke-width:1.0;"/><line style="stroke:#181818;stroke-width:1.0;stroke-dasharray:2.0,2.0;" x1="1374" x2="1480" y1="626.7031" y2="626.7031"/><text fill="#000000" font-family="sans-serif" font-size="13" font-weight="bold" lengthAdjust="spacing" textLength="14" x="1381" y="621.9482">17</text><text fill="#000000" font-family="sans-serif" font-size="13" lengthAdjust="spacing" textLength="70" x="1399" y="621.9482">toDTO(task)</text><rect fill="#E3E3E3" height="45.2813" rx="2.5" ry="2.5" style="stroke:#181818;stroke-width:0.5;" width="86" x="1486" y="606.1797"/><text fill="#000000" font-family="sans-serif" font-size="14" lengthAdjust="spacing" textLength="68" x="1495" y="625.8535">TasksDTO</text><text fill="#000000" font-family="sans-serif" font-size="14" lengthAdjust="spacing" textLength="72" x="1493" y="641.4941">:TasksDTO</text><polygon fill="#181818" points="713,685.9844,703,689.9844,713,693.9844,709,689.9844" style="stroke:#181818;stroke-width:1.0;"/><line style="stroke:#181818;stroke-width:1.0;stroke-dasharray:2.0,2.0;" x1="707" x2="1368" y1="689.9844" y2="689.9844"/><text fill="#000000" font-family="sans-serif" font-size="13" font-weight="bold" lengthAdjust="spacing" textLength="14" x="719" y="685.2295">18</text><text fill="#000000" font-family="sans-serif" font-size="13" lengthAdjust="spacing" textLength="58" x="737" y="685.2295">tasksDTO</text><polygon fill="#181818" points="433,714.5078,423,718.5078,433,722.5078,429,718.5078" style="stroke:#181818;stroke-width:1.0;"/><line style="stroke:#181818;stroke-width:1.0;stroke-dasharray:2.0,2.0;" x1="427" x2="696" y1="718.5078" y2="718.5078"/><text fill="#000000" font-family="sans-serif" font-size="13" font-weight="bold" lengthAdjust="spacing" textLength="14" x="439" y="713.7529">19</text><text fill="#000000" font-family="sans-serif" font-size="13" lengthAdjust="spacing" textLength="58" x="457" y="713.7529">tasksDTO</text><polygon fill="#181818" points="78,750.0313,68,754.0313,78,758.0313,74,754.0313" style="stroke:#181818;stroke-width:1.0;"/><line style="stroke:#181818;stroke-width:1.0;stroke-dasharray:2.0,2.0;" x1="72" x2="416" y1="754.0313" y2="754.0313"/><text fill="#000000" font-family="sans-serif" font-size="13" font-weight="bold" lengthAdjust="spacing" textLength="14" x="84" y="749.2764">20</text><text fill="#000000" font-family="sans-serif" font-size="13" lengthAdjust="spacing" textLength="158" x="102" y="749.2764">displays operation success</text><!--SRC=[bPJDZjf03CVlUGgBIs6rl02gAY5sXP1OTKNPMoycCM74P2QTcK1v-tec7vkGXBQvG6BxvxyzOzkpK3aQp23JIiSdepC2PmgAR6F9CJvZIZ_SJH8OYXsgLBOTx0aJVHKgXIDAIr64XTEgo0vaekZBIIG4HwtTGV-EC7RQm6IbfSI3DiXl4q0BhrakzOqeOg8JiSXHEPYytVPeptRziGbE7vj1yqehPnX89MgrtssxVeiTvTeApYN81f_TwtlNnRGyVgf-mFjskUz6S4TKWetZZQEMTvz2v7BTZLiMxaIAtz49hJhnE68A73PsGQ7sDynpCXpRUWlkvT-1Y9VzzzgT_mPV_etyoOWBEleyYWZugTzW_etx3mlW6_2h8EiiE0snLhQGZY5Mf8eIS9uB1t9N8WNkgY5XfYrPJGe-oF31FmoTCxl9iu2SBs7E_2FV5Eku042L0BUsOlceX7gmdbBcNFZksK58Jv3KEeU2koy1fVHU2CB21QNm4Sa3mQ5cxeOboTC1V8W-fIl-NMePQTjXZvhbh_ZJ4yV5XjYbQo_DR4p9XMEUKeP2FeDGueMhUlPTAF-KwMQVyKtIC4JDv_04AjDvTahuHd6yYcawwtes43zbNKQD-JgVLvpsu7LyMsthSMefVYfBBVUZDwef3FAug8fuFznZolgqMXgFQwLiPAX75Vf1xmdqkFddqOvjYZ6TdjasfKONEVWhFz8BJhLSSw8mpsjn8VKVjwXN4k_0dj4_dA9LLCZLysjLCOIfrPRxpbCqhxEji6uQUBDnLTMA75HMuRmwneLP2-00lIkL6_4tHhj2lsqV55cfwjTOxueUf1KSnjOlkGVRAX4sbtYpe3bFk3zWYpWcExYk_W00]--></g></svg>