<?xml version="1.0" encoding="us-ascii" standalone="no"?><svg xmlns="http://www.w3.org/2000/svg" xmlns:xlink="http://www.w3.org/1999/xlink" contentStyleType="text/css" height="694.5px" preserveAspectRatio="none" style="width:682px;height:694px;background:#FFFFFF;" version="1.1" viewBox="0 0 682 694" width="682px" zoomAndPan="magnify"><defs/><g><!--cluster UI--><g id="cluster_UI"><rect fill="none" height="143" rx="1.25" ry="1.25" style="stroke:#000000;stroke-width:0.75;" width="185" x="494" y="3.5"/><text fill="#000000" font-family="sans-serif" font-size="7" font-weight="bold" lengthAdjust="spacing" textLength="7" x="583" y="10.8369">UI</text></g><!--cluster Controller--><g id="cluster_Controller"><rect fill="none" height="96" rx="1.25" ry="1.25" style="stroke:#000000;stroke-width:0.75;" width="183" x="417.5" y="170.75"/><text fill="#000000" font-family="sans-serif" font-size="7" font-weight="bold" lengthAdjust="spacing" textLength="35.5" x="491.25" y="178.0869">Controller</text></g><!--cluster Repository--><g id="cluster_Repository"><rect fill="none" height="220.5" rx="1.25" ry="1.25" style="stroke:#000000;stroke-width:0.75;" width="402" x="3.5" y="163"/><text fill="#000000" font-family="sans-serif" font-size="7" font-weight="bold" lengthAdjust="spacing" textLength="38" x="185.5" y="170.3369">Repository</text></g><!--cluster DTO--><g id="cluster_DTO"><rect fill="none" height="72.5" rx="1.25" ry="1.25" style="stroke:#000000;stroke-width:0.75;" width="81" x="562.5" y="299.25"/><text fill="#000000" font-family="sans-serif" font-size="7" font-weight="bold" lengthAdjust="spacing" textLength="14.5" x="595.75" y="306.5869">DTO</text></g><!--cluster Mapper--><g id="cluster_Mapper"><rect fill="none" height="64.5" rx="1.25" ry="1.25" style="stroke:#000000;stroke-width:0.75;" width="83" x="467.5" y="303.25"/><text fill="#000000" font-family="sans-serif" font-size="7" font-weight="bold" lengthAdjust="spacing" textLength="27" x="495.5" y="310.5869">Mapper</text></g><!--cluster Domain--><g id="cluster_Domain"><rect fill="none" height="291.5" rx="1.25" ry="1.25" style="stroke:#000000;stroke-width:0.75;" width="290" x="304" y="400"/><text fill="#000000" font-family="sans-serif" font-size="7" font-weight="bold" lengthAdjust="spacing" textLength="26" x="436" y="407.3369">Domain</text></g><!--class MyTasksGUI--><g id="elem_MyTasksGUI"><rect codeLine="8" fill="#F1F1F1" height="117.8438" id="MyTasksGUI" rx="1.25" ry="1.25" style="stroke:#181818;stroke-width:0.25;" width="168.5" x="502.25" y="20.5"/><ellipse cx="564.625" cy="28.5" fill="#ADD1B2" rx="5.5" ry="5.5" style="stroke:#181818;stroke-width:0.5;"/><path d="M566.0078,26.4375 Q566.0859,26.3281 566.1797,26.2734 Q566.2734,26.2188 566.3828,26.2188 Q566.5703,26.2188 566.6875,26.3516 Q566.8047,26.4766 566.8047,26.7813 L566.8047,27.5078 Q566.8047,27.8125 566.6875,27.9453 Q566.5703,28.0781 566.3828,28.0781 Q566.2109,28.0781 566.1094,27.9766 Q566.0078,27.8828 565.9531,27.625 Q565.9297,27.4453 565.8359,27.3516 Q565.6719,27.1641 565.3672,27.0547 Q565.0625,26.9453 564.75,26.9453 Q564.3672,26.9453 564.0469,27.1094 Q563.7344,27.2734 563.4844,27.6484 Q563.2422,28.0234 563.2422,28.5391 L563.2422,29.0859 Q563.2422,29.7031 563.6875,30.1172 Q564.1328,30.5234 564.9297,30.5234 Q565.3984,30.5234 565.7266,30.3984 Q565.9219,30.3203 566.1328,30.1016 Q566.2656,29.9688 566.3359,29.9297 Q566.4141,29.8906 566.5156,29.8906 Q566.6797,29.8906 566.8047,30.0234 Q566.9375,30.1484 566.9375,30.3203 Q566.9375,30.4922 566.7656,30.6953 Q566.5156,30.9844 566.1172,31.1484 Q565.5781,31.375 564.9297,31.375 Q564.1719,31.375 563.5703,31.0625 Q563.0781,30.8125 562.7344,30.2813 Q562.3906,29.7422 562.3906,29.1016 L562.3906,28.5234 Q562.3906,27.8594 562.6953,27.2891 Q563.0078,26.7109 563.5547,26.4063 Q564.1016,26.0938 564.7188,26.0938 Q565.0859,26.0938 565.4063,26.1797 Q565.7344,26.2578 566.0078,26.4375 Z " fill="#000000"/><text fill="#000000" font-family="sans-serif" font-size="7" lengthAdjust="spacing" textLength="39.5" x="574.875" y="30.9268">MyTasksGUI</text><line style="stroke:#181818;stroke-width:0.25;" x1="502.75" x2="670.25" y1="36.5" y2="36.5"/><rect fill="none" height="3" style="stroke:#C82930;stroke-width:0.5;" width="3" x="506.25" y="41.6602"/><text fill="#000000" font-family="sans-serif" font-size="7" lengthAdjust="spacing" textLength="75.5" x="512.25" y="44.8369">TextField startDateField</text><rect fill="none" height="3" style="stroke:#C82930;stroke-width:0.5;" width="3" x="506.25" y="49.4805"/><text fill="#000000" font-family="sans-serif" font-size="7" lengthAdjust="spacing" textLength="73.5" x="512.25" y="52.6572">TextField endDateField</text><rect fill="none" height="3" style="stroke:#C82930;stroke-width:0.5;" width="3" x="506.25" y="57.3008"/><text fill="#000000" font-family="sans-serif" font-size="7" lengthAdjust="spacing" textLength="147.5" x="512.25" y="60.4775">TableView&lt;AgendaEntry&gt; agendaEntriesTable</text><rect fill="none" height="3" style="stroke:#C82930;stroke-width:0.5;" width="3" x="506.25" y="65.1211"/><text fill="#000000" font-family="sans-serif" font-size="7" lengthAdjust="spacing" textLength="155.5" x="512.25" y="68.2979">TableColumn&lt;AgendaEntry, String&gt; entryColumn</text><rect fill="none" height="3" style="stroke:#C82930;stroke-width:0.5;" width="3" x="506.25" y="72.9414"/><text fill="#000000" font-family="sans-serif" font-size="7" lengthAdjust="spacing" textLength="146.5" x="512.25" y="76.1182">ComboBox&lt;TaskStatus&gt; taskStatusComboBox</text><rect fill="none" height="3" style="stroke:#C82930;stroke-width:0.5;" width="3" x="506.25" y="80.7617"/><text fill="#000000" font-family="sans-serif" font-size="7" lengthAdjust="spacing" textLength="83.5" x="512.25" y="83.9385">Button markAsDoneButton</text><rect fill="none" height="3" style="stroke:#C82930;stroke-width:0.5;" width="3" x="506.25" y="88.582"/><text fill="#000000" font-family="sans-serif" font-size="7" lengthAdjust="spacing" textLength="120" x="512.25" y="91.7588">MyTasksController myTasksController</text><line style="stroke:#181818;stroke-width:0.25;" x1="502.75" x2="670.25" y1="95.2422" y2="95.2422"/><ellipse cx="507.75" cy="101.9023" fill="#84BE84" rx="1.5" ry="1.5" style="stroke:#038048;stroke-width:0.5;"/><text fill="#000000" font-family="sans-serif" font-size="7" lengthAdjust="spacing" textLength="29.5" x="512.25" y="103.5791">initialize()</text><ellipse cx="507.75" cy="109.7227" fill="#84BE84" rx="1.5" ry="1.5" style="stroke:#038048;stroke-width:0.5;"/><text fill="#000000" font-family="sans-serif" font-size="7" lengthAdjust="spacing" textLength="50.5" x="512.25" y="111.3994">populateTable()</text><ellipse cx="507.75" cy="117.543" fill="#84BE84" rx="1.5" ry="1.5" style="stroke:#038048;stroke-width:0.5;"/><text fill="#000000" font-family="sans-serif" font-size="7" lengthAdjust="spacing" textLength="100" x="512.25" y="119.2197">handleApplyFilterButtonAction()</text><ellipse cx="507.75" cy="125.3633" fill="#84BE84" rx="1.5" ry="1.5" style="stroke:#038048;stroke-width:0.5;"/><text fill="#000000" font-family="sans-serif" font-size="7" lengthAdjust="spacing" textLength="28.5" x="512.25" y="127.04">goBack()</text><ellipse cx="507.75" cy="133.1836" fill="#84BE84" rx="1.5" ry="1.5" style="stroke:#038048;stroke-width:0.5;"/><text fill="#000000" font-family="sans-serif" font-size="7" lengthAdjust="spacing" textLength="82.5" x="512.25" y="134.8604">handleMarkTaskAsDone()</text></g><!--class MyTasksController--><g id="elem_MyTasksController"><rect codeLine="25" fill="#F1F1F1" height="70.9219" id="MyTasksController" rx="1.25" ry="1.25" style="stroke:#181818;stroke-width:0.25;" width="166.5" x="425.75" y="187.75"/><ellipse cx="477.375" cy="195.75" fill="#ADD1B2" rx="5.5" ry="5.5" style="stroke:#181818;stroke-width:0.5;"/><path d="M478.7578,193.6875 Q478.8359,193.5781 478.9297,193.5234 Q479.0234,193.4688 479.1328,193.4688 Q479.3203,193.4688 479.4375,193.6016 Q479.5547,193.7266 479.5547,194.0313 L479.5547,194.7578 Q479.5547,195.0625 479.4375,195.1953 Q479.3203,195.3281 479.1328,195.3281 Q478.9609,195.3281 478.8594,195.2266 Q478.7578,195.1328 478.7031,194.875 Q478.6797,194.6953 478.5859,194.6016 Q478.4219,194.4141 478.1172,194.3047 Q477.8125,194.1953 477.5,194.1953 Q477.1172,194.1953 476.7969,194.3594 Q476.4844,194.5234 476.2344,194.8984 Q475.9922,195.2734 475.9922,195.7891 L475.9922,196.3359 Q475.9922,196.9531 476.4375,197.3672 Q476.8828,197.7734 477.6797,197.7734 Q478.1484,197.7734 478.4766,197.6484 Q478.6719,197.5703 478.8828,197.3516 Q479.0156,197.2188 479.0859,197.1797 Q479.1641,197.1406 479.2656,197.1406 Q479.4297,197.1406 479.5547,197.2734 Q479.6875,197.3984 479.6875,197.5703 Q479.6875,197.7422 479.5156,197.9453 Q479.2656,198.2344 478.8672,198.3984 Q478.3281,198.625 477.6797,198.625 Q476.9219,198.625 476.3203,198.3125 Q475.8281,198.0625 475.4844,197.5313 Q475.1406,196.9922 475.1406,196.3516 L475.1406,195.7734 Q475.1406,195.1094 475.4453,194.5391 Q475.7578,193.9609 476.3047,193.6563 Q476.8516,193.3438 477.4688,193.3438 Q477.8359,193.3438 478.1563,193.4297 Q478.4844,193.5078 478.7578,193.6875 Z " fill="#000000"/><text fill="#000000" font-family="sans-serif" font-size="7" lengthAdjust="spacing" textLength="59" x="487.625" y="198.1768">MyTasksController</text><line style="stroke:#181818;stroke-width:0.25;" x1="426.25" x2="591.75" y1="203.75" y2="203.75"/><rect fill="none" height="3" style="stroke:#C82930;stroke-width:0.5;" width="3" x="429.75" y="208.9102"/><text fill="#000000" font-family="sans-serif" font-size="7" lengthAdjust="spacing" textLength="50.5" x="435.75" y="212.0869">Agenda agenda</text><line style="stroke:#181818;stroke-width:0.25;" x1="426.25" x2="591.75" y1="215.5703" y2="215.5703"/><ellipse cx="431.25" cy="222.2305" fill="#84BE84" rx="1.5" ry="1.5" style="stroke:#038048;stroke-width:0.5;"/><text fill="#000000" font-family="sans-serif" font-size="7" lengthAdjust="spacing" textLength="64" x="435.75" y="223.9072">MyTasksController()</text><ellipse cx="431.25" cy="230.0508" fill="#84BE84" rx="1.5" ry="1.5" style="stroke:#038048;stroke-width:0.5;"/><text fill="#000000" font-family="sans-serif" font-size="7" lengthAdjust="spacing" textLength="39.5" x="435.75" y="231.7275">getAgenda()</text><ellipse cx="431.25" cy="237.8711" fill="#84BE84" rx="1.5" ry="1.5" style="stroke:#038048;stroke-width:0.5;"/><text fill="#000000" font-family="sans-serif" font-size="7" lengthAdjust="spacing" textLength="89.5" x="435.75" y="239.5479">getMyAgendaEntries(status)</text><ellipse cx="431.25" cy="245.6914" fill="#84BE84" rx="1.5" ry="1.5" style="stroke:#038048;stroke-width:0.5;"/><text fill="#000000" font-family="sans-serif" font-size="7" lengthAdjust="spacing" textLength="153.5" x="435.75" y="247.3682">getMyAgendaEntries(status, startDate, endDate)</text><ellipse cx="431.25" cy="253.5117" fill="#84BE84" rx="1.5" ry="1.5" style="stroke:#038048;stroke-width:0.5;"/><text fill="#000000" font-family="sans-serif" font-size="7" lengthAdjust="spacing" textLength="70.5" x="435.75" y="255.1885">getMyAgendaEntries()</text></g><!--class AgendaRepository--><g id="elem_AgendaRepository"><rect codeLine="36" fill="#F1F1F1" height="70.9219" id="AgendaRepository" rx="1.25" ry="1.25" style="stroke:#181818;stroke-width:0.25;" width="386" x="11.5" y="304.5"/><ellipse cx="173.125" cy="312.5" fill="#ADD1B2" rx="5.5" ry="5.5" style="stroke:#181818;stroke-width:0.5;"/><path d="M174.5078,310.4375 Q174.5859,310.3281 174.6797,310.2734 Q174.7734,310.2188 174.8828,310.2188 Q175.0703,310.2188 175.1875,310.3516 Q175.3047,310.4766 175.3047,310.7813 L175.3047,311.5078 Q175.3047,311.8125 175.1875,311.9453 Q175.0703,312.0781 174.8828,312.0781 Q174.7109,312.0781 174.6094,311.9766 Q174.5078,311.8828 174.4531,311.625 Q174.4297,311.4453 174.3359,311.3516 Q174.1719,311.1641 173.8672,311.0547 Q173.5625,310.9453 173.25,310.9453 Q172.8672,310.9453 172.5469,311.1094 Q172.2344,311.2734 171.9844,311.6484 Q171.7422,312.0234 171.7422,312.5391 L171.7422,313.0859 Q171.7422,313.7031 172.1875,314.1172 Q172.6328,314.5234 173.4297,314.5234 Q173.8984,314.5234 174.2266,314.3984 Q174.4219,314.3203 174.6328,314.1016 Q174.7656,313.9688 174.8359,313.9297 Q174.9141,313.8906 175.0156,313.8906 Q175.1797,313.8906 175.3047,314.0234 Q175.4375,314.1484 175.4375,314.3203 Q175.4375,314.4922 175.2656,314.6953 Q175.0156,314.9844 174.6172,315.1484 Q174.0781,315.375 173.4297,315.375 Q172.6719,315.375 172.0703,315.0625 Q171.5781,314.8125 171.2344,314.2813 Q170.8906,313.7422 170.8906,313.1016 L170.8906,312.5234 Q170.8906,311.8594 171.1953,311.2891 Q171.5078,310.7109 172.0547,310.4063 Q172.6016,310.0938 173.2188,310.0938 Q173.5859,310.0938 173.9063,310.1797 Q174.2344,310.2578 174.5078,310.4375 Z " fill="#000000"/><text fill="#000000" font-family="sans-serif" font-size="7" lengthAdjust="spacing" textLength="58.5" x="183.375" y="314.9268">AgendaRepository</text><line style="stroke:#181818;stroke-width:0.25;" x1="12" x2="397" y1="320.5" y2="320.5"/><rect fill="none" height="3" style="stroke:#C82930;stroke-width:0.5;" width="3" x="15.5" y="325.6602"/><text fill="#000000" font-family="sans-serif" font-size="7" lengthAdjust="spacing" textLength="125" x="21.5" y="328.8369">ArrayList&lt;AgendaEntry&gt; agendaEntries</text><line style="stroke:#181818;stroke-width:0.25;" x1="12" x2="397" y1="332.3203" y2="332.3203"/><ellipse cx="17" cy="338.9805" fill="#84BE84" rx="1.5" ry="1.5" style="stroke:#038048;stroke-width:0.5;"/><text fill="#000000" font-family="sans-serif" font-size="7" lengthAdjust="spacing" textLength="163.5" x="21.5" y="340.6572">getActiveAgendaEntries() : ArrayList&lt;AgendaEntry&gt;</text><ellipse cx="17" cy="346.8008" fill="#84BE84" rx="1.5" ry="1.5" style="stroke:#038048;stroke-width:0.5;"/><text fill="#000000" font-family="sans-serif" font-size="7" lengthAdjust="spacing" textLength="120.5" x="21.5" y="348.4775">addAgendaEntry(task, date) : boolean</text><ellipse cx="17" cy="354.6211" fill="#84BE84" rx="1.5" ry="1.5" style="stroke:#038048;stroke-width:0.5;"/><text fill="#000000" font-family="sans-serif" font-size="7" lengthAdjust="spacing" textLength="200.5" x="21.5" y="356.2979">getAgendaEntriesByUserEmail(email) : ArrayList&lt;AgendaEntry&gt;</text><ellipse cx="17" cy="362.4414" fill="#84BE84" rx="1.5" ry="1.5" style="stroke:#038048;stroke-width:0.5;"/><text fill="#000000" font-family="sans-serif" font-size="7" lengthAdjust="spacing" textLength="373" x="21.5" y="364.1182">getAgendaEntriesByUserEmailAndDateRange(email, status, startDateString, endDateString) : ArrayList&lt;AgendaEntry&gt;</text><ellipse cx="17" cy="370.2617" fill="#84BE84" rx="1.5" ry="1.5" style="stroke:#038048;stroke-width:0.5;"/><text fill="#000000" font-family="sans-serif" font-size="7" lengthAdjust="spacing" textLength="223.5" x="21.5" y="371.9385">getAgendaEntriesByUserEmail(email, status) : ArrayList&lt;AgendaEntry&gt;</text></g><!--class AuthenticationRepository--><g id="elem_AuthenticationRepository"><rect codeLine="44" fill="#F1F1F1" height="86.5625" id="AuthenticationRepository" rx="1.25" ry="1.25" style="stroke:#181818;stroke-width:0.25;" width="180.5" x="35.75" y="180"/><ellipse cx="84.375" cy="188" fill="#ADD1B2" rx="5.5" ry="5.5" style="stroke:#181818;stroke-width:0.5;"/><path d="M85.7578,185.9375 Q85.8359,185.8281 85.9297,185.7734 Q86.0234,185.7188 86.1328,185.7188 Q86.3203,185.7188 86.4375,185.8516 Q86.5547,185.9766 86.5547,186.2813 L86.5547,187.0078 Q86.5547,187.3125 86.4375,187.4453 Q86.3203,187.5781 86.1328,187.5781 Q85.9609,187.5781 85.8594,187.4766 Q85.7578,187.3828 85.7031,187.125 Q85.6797,186.9453 85.5859,186.8516 Q85.4219,186.6641 85.1172,186.5547 Q84.8125,186.4453 84.5,186.4453 Q84.1172,186.4453 83.7969,186.6094 Q83.4844,186.7734 83.2344,187.1484 Q82.9922,187.5234 82.9922,188.0391 L82.9922,188.5859 Q82.9922,189.2031 83.4375,189.6172 Q83.8828,190.0234 84.6797,190.0234 Q85.1484,190.0234 85.4766,189.8984 Q85.6719,189.8203 85.8828,189.6016 Q86.0156,189.4688 86.0859,189.4297 Q86.1641,189.3906 86.2656,189.3906 Q86.4297,189.3906 86.5547,189.5234 Q86.6875,189.6484 86.6875,189.8203 Q86.6875,189.9922 86.5156,190.1953 Q86.2656,190.4844 85.8672,190.6484 Q85.3281,190.875 84.6797,190.875 Q83.9219,190.875 83.3203,190.5625 Q82.8281,190.3125 82.4844,189.7813 Q82.1406,189.2422 82.1406,188.6016 L82.1406,188.0234 Q82.1406,187.3594 82.4453,186.7891 Q82.7578,186.2109 83.3047,185.9063 Q83.8516,185.5938 84.4688,185.5938 Q84.8359,185.5938 85.1563,185.6797 Q85.4844,185.7578 85.7578,185.9375 Z " fill="#000000"/><text fill="#000000" font-family="sans-serif" font-size="7" lengthAdjust="spacing" textLength="79" x="94.625" y="190.4268">AuthenticationRepository</text><line style="stroke:#181818;stroke-width:0.25;" x1="36.25" x2="215.75" y1="196" y2="196"/><rect fill="none" height="3" style="stroke:#C82930;stroke-width:0.5;" width="3" x="39.75" y="201.1602"/><text fill="#000000" font-family="sans-serif" font-size="7" lengthAdjust="spacing" textLength="138.5" x="45.75" y="204.3369">transient AuthFacade authenticationFacade</text><line style="stroke:#181818;stroke-width:0.25;" x1="36.25" x2="215.75" y1="207.8203" y2="207.8203"/><ellipse cx="41.25" cy="214.4805" fill="#84BE84" rx="1.5" ry="1.5" style="stroke:#038048;stroke-width:0.5;"/><text fill="#000000" font-family="sans-serif" font-size="7" lengthAdjust="spacing" textLength="84" x="45.75" y="216.1572">AuthenticationRepository()</text><ellipse cx="41.25" cy="222.3008" fill="#84BE84" rx="1.5" ry="1.5" style="stroke:#038048;stroke-width:0.5;"/><text fill="#000000" font-family="sans-serif" font-size="7" lengthAdjust="spacing" textLength="95" x="45.75" y="223.9775">doLogin(email, pwd) : boolean</text><ellipse cx="41.25" cy="230.1211" fill="#84BE84" rx="1.5" ry="1.5" style="stroke:#038048;stroke-width:0.5;"/><text fill="#000000" font-family="sans-serif" font-size="7" lengthAdjust="spacing" textLength="35" x="45.75" y="231.7979">doLogout()</text><ellipse cx="41.25" cy="237.9414" fill="#84BE84" rx="1.5" ry="1.5" style="stroke:#038048;stroke-width:0.5;"/><text fill="#000000" font-family="sans-serif" font-size="7" lengthAdjust="spacing" textLength="124" x="45.75" y="239.6182">getCurrentUserSession() : UserSession</text><ellipse cx="41.25" cy="245.7617" fill="#84BE84" rx="1.5" ry="1.5" style="stroke:#038048;stroke-width:0.5;"/><text fill="#000000" font-family="sans-serif" font-size="7" lengthAdjust="spacing" textLength="121.5" x="45.75" y="247.4385">addUserRole(id, description) : boolean</text><ellipse cx="41.25" cy="253.582" fill="#84BE84" rx="1.5" ry="1.5" style="stroke:#038048;stroke-width:0.5;"/><text fill="#000000" font-family="sans-serif" font-size="7" lengthAdjust="spacing" textLength="167.5" x="45.75" y="255.2588">addUserWithRole(name, email, pwd, roleId) : boolean</text><ellipse cx="41.25" cy="261.4023" fill="#84BE84" rx="1.5" ry="1.5" style="stroke:#038048;stroke-width:0.5;"/><text fill="#000000" font-family="sans-serif" font-size="7" lengthAdjust="spacing" textLength="71" x="45.75" y="263.0791">facade() : AuthFacade</text></g><!--class Repositories--><g id="elem_Repositories"><rect codeLine="55" fill="#F1F1F1" height="47.4609" id="Repositories" rx="1.25" ry="1.25" style="stroke:#181818;stroke-width:0.25;" width="100" x="246" y="199.5"/><ellipse cx="274.125" cy="207.5" fill="#ADD1B2" rx="5.5" ry="5.5" style="stroke:#181818;stroke-width:0.5;"/><path d="M275.5078,205.4375 Q275.5859,205.3281 275.6797,205.2734 Q275.7734,205.2188 275.8828,205.2188 Q276.0703,205.2188 276.1875,205.3516 Q276.3047,205.4766 276.3047,205.7813 L276.3047,206.5078 Q276.3047,206.8125 276.1875,206.9453 Q276.0703,207.0781 275.8828,207.0781 Q275.7109,207.0781 275.6094,206.9766 Q275.5078,206.8828 275.4531,206.625 Q275.4297,206.4453 275.3359,206.3516 Q275.1719,206.1641 274.8672,206.0547 Q274.5625,205.9453 274.25,205.9453 Q273.8672,205.9453 273.5469,206.1094 Q273.2344,206.2734 272.9844,206.6484 Q272.7422,207.0234 272.7422,207.5391 L272.7422,208.0859 Q272.7422,208.7031 273.1875,209.1172 Q273.6328,209.5234 274.4297,209.5234 Q274.8984,209.5234 275.2266,209.3984 Q275.4219,209.3203 275.6328,209.1016 Q275.7656,208.9688 275.8359,208.9297 Q275.9141,208.8906 276.0156,208.8906 Q276.1797,208.8906 276.3047,209.0234 Q276.4375,209.1484 276.4375,209.3203 Q276.4375,209.4922 276.2656,209.6953 Q276.0156,209.9844 275.6172,210.1484 Q275.0781,210.375 274.4297,210.375 Q273.6719,210.375 273.0703,210.0625 Q272.5781,209.8125 272.2344,209.2813 Q271.8906,208.7422 271.8906,208.1016 L271.8906,207.5234 Q271.8906,206.8594 272.1953,206.2891 Q272.5078,205.7109 273.0547,205.4063 Q273.6016,205.0938 274.2188,205.0938 Q274.5859,205.0938 274.9063,205.1797 Q275.2344,205.2578 275.5078,205.4375 Z " fill="#000000"/><text fill="#000000" font-family="sans-serif" font-size="7" lengthAdjust="spacing" textLength="39.5" x="284.375" y="209.9268">Repositories</text><line style="stroke:#181818;stroke-width:0.25;" x1="246.5" x2="345.5" y1="215.5" y2="215.5"/><line style="stroke:#181818;stroke-width:0.25;" x1="246.5" x2="345.5" y1="219.5" y2="219.5"/><rect fill="#F24D5C" height="3" style="stroke:#C82930;stroke-width:0.5;" width="3" x="250" y="224.6602"/><text fill="#000000" font-family="sans-serif" font-size="7" lengthAdjust="spacing" textLength="44.5" x="256" y="227.8369">Repositories()</text><ellipse cx="251.5" cy="233.9805" fill="#84BE84" rx="1.5" ry="1.5" style="stroke:#038048;stroke-width:0.5;"/><text fill="#000000" font-family="sans-serif" font-size="7" lengthAdjust="spacing" textLength="87" x="256" y="235.6572">getInstance() : Repositories</text><ellipse cx="251.5" cy="241.8008" fill="#84BE84" rx="1.5" ry="1.5" style="stroke:#038048;stroke-width:0.5;"/><text fill="#000000" font-family="sans-serif" font-size="7" lengthAdjust="spacing" textLength="73.5" x="256" y="243.4775">getAgendaRepository()</text></g><!--class TaskDTO--><g id="elem_TaskDTO"><rect codeLine="62" fill="#F1F1F1" height="47.4609" id="TaskDTO" rx="1.25" ry="1.25" style="stroke:#181818;stroke-width:0.25;" width="64.5" x="570.75" y="316.25"/><ellipse cx="586.35" cy="324.25" fill="#ADD1B2" rx="5.5" ry="5.5" style="stroke:#181818;stroke-width:0.5;"/><path d="M587.7328,322.1875 Q587.8109,322.0781 587.9047,322.0234 Q587.9984,321.9688 588.1078,321.9688 Q588.2953,321.9688 588.4125,322.1016 Q588.5297,322.2266 588.5297,322.5313 L588.5297,323.2578 Q588.5297,323.5625 588.4125,323.6953 Q588.2953,323.8281 588.1078,323.8281 Q587.9359,323.8281 587.8344,323.7266 Q587.7328,323.6328 587.6781,323.375 Q587.6547,323.1953 587.5609,323.1016 Q587.3969,322.9141 587.0922,322.8047 Q586.7875,322.6953 586.475,322.6953 Q586.0922,322.6953 585.7719,322.8594 Q585.4594,323.0234 585.2094,323.3984 Q584.9672,323.7734 584.9672,324.2891 L584.9672,324.8359 Q584.9672,325.4531 585.4125,325.8672 Q585.8578,326.2734 586.6547,326.2734 Q587.1234,326.2734 587.4516,326.1484 Q587.6469,326.0703 587.8578,325.8516 Q587.9906,325.7188 588.0609,325.6797 Q588.1391,325.6406 588.2406,325.6406 Q588.4047,325.6406 588.5297,325.7734 Q588.6625,325.8984 588.6625,326.0703 Q588.6625,326.2422 588.4906,326.4453 Q588.2406,326.7344 587.8422,326.8984 Q587.3031,327.125 586.6547,327.125 Q585.8969,327.125 585.2953,326.8125 Q584.8031,326.5625 584.4594,326.0313 Q584.1156,325.4922 584.1156,324.8516 L584.1156,324.2734 Q584.1156,323.6094 584.4203,323.0391 Q584.7328,322.4609 585.2797,322.1563 Q585.8266,321.8438 586.4438,321.8438 Q586.8109,321.8438 587.1313,321.9297 Q587.4594,322.0078 587.7328,322.1875 Z " fill="#000000"/><text fill="#000000" font-family="sans-serif" font-size="7" lengthAdjust="spacing" textLength="30.5" x="595.15" y="326.6768">TaskDTO</text><line style="stroke:#181818;stroke-width:0.25;" x1="571.25" x2="634.75" y1="332.25" y2="332.25"/><rect fill="none" height="3" style="stroke:#C82930;stroke-width:0.5;" width="3" x="574.75" y="337.4102"/><text fill="#000000" font-family="sans-serif" font-size="7" lengthAdjust="spacing" textLength="51.5" x="580.75" y="340.5869">String taskName</text><rect fill="none" height="3" style="stroke:#C82930;stroke-width:0.5;" width="3" x="574.75" y="345.2305"/><text fill="#000000" font-family="sans-serif" font-size="7" lengthAdjust="spacing" textLength="48.5" x="580.75" y="348.4072">String taskDate</text><rect fill="none" height="3" style="stroke:#C82930;stroke-width:0.5;" width="3" x="574.75" y="353.0508"/><text fill="#000000" font-family="sans-serif" font-size="7" lengthAdjust="spacing" textLength="50.5" x="580.75" y="356.2275">String taskLocal</text><line style="stroke:#181818;stroke-width:0.25;" x1="571.25" x2="634.75" y1="359.7109" y2="359.7109"/></g><!--class TaskMapper--><g id="elem_TaskMapper"><rect codeLine="69" fill="#F1F1F1" height="39.6406" id="TaskMapper" rx="1.25" ry="1.25" style="stroke:#181818;stroke-width:0.25;" width="66.5" x="475.75" y="320.25"/><ellipse cx="488.2" cy="328.25" fill="#ADD1B2" rx="5.5" ry="5.5" style="stroke:#181818;stroke-width:0.5;"/><path d="M489.5828,326.1875 Q489.6609,326.0781 489.7547,326.0234 Q489.8484,325.9688 489.9578,325.9688 Q490.1453,325.9688 490.2625,326.1016 Q490.3797,326.2266 490.3797,326.5313 L490.3797,327.2578 Q490.3797,327.5625 490.2625,327.6953 Q490.1453,327.8281 489.9578,327.8281 Q489.7859,327.8281 489.6844,327.7266 Q489.5828,327.6328 489.5281,327.375 Q489.5047,327.1953 489.4109,327.1016 Q489.2469,326.9141 488.9422,326.8047 Q488.6375,326.6953 488.325,326.6953 Q487.9422,326.6953 487.6219,326.8594 Q487.3094,327.0234 487.0594,327.3984 Q486.8172,327.7734 486.8172,328.2891 L486.8172,328.8359 Q486.8172,329.4531 487.2625,329.8672 Q487.7078,330.2734 488.5047,330.2734 Q488.9734,330.2734 489.3016,330.1484 Q489.4969,330.0703 489.7078,329.8516 Q489.8406,329.7188 489.9109,329.6797 Q489.9891,329.6406 490.0906,329.6406 Q490.2547,329.6406 490.3797,329.7734 Q490.5125,329.8984 490.5125,330.0703 Q490.5125,330.2422 490.3406,330.4453 Q490.0906,330.7344 489.6922,330.8984 Q489.1531,331.125 488.5047,331.125 Q487.7469,331.125 487.1453,330.8125 Q486.6531,330.5625 486.3094,330.0313 Q485.9656,329.4922 485.9656,328.8516 L485.9656,328.2734 Q485.9656,327.6094 486.2703,327.0391 Q486.5828,326.4609 487.1297,326.1563 Q487.6766,325.8438 488.2938,325.8438 Q488.6609,325.8438 488.9813,325.9297 Q489.3094,326.0078 489.5828,326.1875 Z " fill="#000000"/><text fill="#000000" font-family="sans-serif" font-size="7" lengthAdjust="spacing" textLength="39.5" x="496.3" y="330.6768">TaskMapper</text><line style="stroke:#181818;stroke-width:0.25;" x1="476.25" x2="541.75" y1="336.25" y2="336.25"/><line style="stroke:#181818;stroke-width:0.25;" x1="476.25" x2="541.75" y1="340.25" y2="340.25"/><ellipse cx="481.25" cy="346.9102" fill="#84BE84" rx="1.5" ry="1.5" style="stroke:#038048;stroke-width:0.5;"/><text fill="#000000" font-family="sans-serif" font-size="7" lengthAdjust="spacing" textLength="39" x="485.75" y="348.5869">toDTO(task)</text><ellipse cx="481.25" cy="354.7305" fill="#84BE84" rx="1.5" ry="1.5" style="stroke:#038048;stroke-width:0.5;"/><text fill="#000000" font-family="sans-serif" font-size="7" lengthAdjust="spacing" textLength="53.5" x="485.75" y="356.4072">toDTOList(tasks)</text></g><!--class Task--><g id="elem_Task"><rect codeLine="75" fill="#F1F1F1" height="180.4063" id="Task" rx="1.25" ry="1.25" style="stroke:#181818;stroke-width:0.25;" width="273.5" x="312.25" y="417"/><ellipse cx="439.125" cy="425" fill="#ADD1B2" rx="5.5" ry="5.5" style="stroke:#181818;stroke-width:0.5;"/><path d="M440.5078,422.9375 Q440.5859,422.8281 440.6797,422.7734 Q440.7734,422.7188 440.8828,422.7188 Q441.0703,422.7188 441.1875,422.8516 Q441.3047,422.9766 441.3047,423.2813 L441.3047,424.0078 Q441.3047,424.3125 441.1875,424.4453 Q441.0703,424.5781 440.8828,424.5781 Q440.7109,424.5781 440.6094,424.4766 Q440.5078,424.3828 440.4531,424.125 Q440.4297,423.9453 440.3359,423.8516 Q440.1719,423.6641 439.8672,423.5547 Q439.5625,423.4453 439.25,423.4453 Q438.8672,423.4453 438.5469,423.6094 Q438.2344,423.7734 437.9844,424.1484 Q437.7422,424.5234 437.7422,425.0391 L437.7422,425.5859 Q437.7422,426.2031 438.1875,426.6172 Q438.6328,427.0234 439.4297,427.0234 Q439.8984,427.0234 440.2266,426.8984 Q440.4219,426.8203 440.6328,426.6016 Q440.7656,426.4688 440.8359,426.4297 Q440.9141,426.3906 441.0156,426.3906 Q441.1797,426.3906 441.3047,426.5234 Q441.4375,426.6484 441.4375,426.8203 Q441.4375,426.9922 441.2656,427.1953 Q441.0156,427.4844 440.6172,427.6484 Q440.0781,427.875 439.4297,427.875 Q438.6719,427.875 438.0703,427.5625 Q437.5781,427.3125 437.2344,426.7813 Q436.8906,426.2422 436.8906,425.6016 L436.8906,425.0234 Q436.8906,424.3594 437.1953,423.7891 Q437.5078,423.2109 438.0547,422.9063 Q438.6016,422.5938 439.2188,422.5938 Q439.5859,422.5938 439.9063,422.6797 Q440.2344,422.7578 440.5078,422.9375 Z " fill="#000000"/><text fill="#000000" font-family="sans-serif" font-size="7" lengthAdjust="spacing" textLength="15.5" x="449.375" y="427.4268">Task</text><line style="stroke:#181818;stroke-width:0.25;" x1="312.75" x2="585.25" y1="433" y2="433"/><rect fill="none" height="3" style="stroke:#C82930;stroke-width:0.5;" width="3" x="316.25" y="438.1602"/><text fill="#000000" font-family="sans-serif" font-size="7" lengthAdjust="spacing" textLength="55" x="322.25" y="441.3369">String description</text><rect fill="none" height="3" style="stroke:#C82930;stroke-width:0.5;" width="3" x="316.25" y="445.9805"/><text fill="#000000" font-family="sans-serif" font-size="7" lengthAdjust="spacing" textLength="51.5" x="322.25" y="449.1572">String taskName</text><rect fill="none" height="3" style="stroke:#C82930;stroke-width:0.5;" width="3" x="316.25" y="453.8008"/><text fill="#000000" font-family="sans-serif" font-size="7" lengthAdjust="spacing" textLength="80.5" x="322.25" y="456.9775">GreenSpace greenSpace</text><rect fill="none" height="3" style="stroke:#C82930;stroke-width:0.5;" width="3" x="316.25" y="461.6211"/><text fill="#000000" font-family="sans-serif" font-size="7" lengthAdjust="spacing" textLength="67" x="322.25" y="464.7979">int estimatedDuration</text><rect fill="none" height="3" style="stroke:#C82930;stroke-width:0.5;" width="3" x="316.25" y="469.4414"/><text fill="#000000" font-family="sans-serif" font-size="7" lengthAdjust="spacing" textLength="70.5" x="322.25" y="472.6182">TaskStatus taskStatus</text><rect fill="none" height="3" style="stroke:#C82930;stroke-width:0.5;" width="3" x="316.25" y="477.2617"/><text fill="#000000" font-family="sans-serif" font-size="7" lengthAdjust="spacing" textLength="129.5" x="322.25" y="480.4385">TaskUrgencyDegree taskUrgencyDegree</text><line style="stroke:#181818;stroke-width:0.25;" x1="312.75" x2="585.25" y1="483.9219" y2="483.9219"/><ellipse cx="317.75" cy="490.582" fill="#84BE84" rx="1.5" ry="1.5" style="stroke:#038048;stroke-width:0.5;"/><text fill="#000000" font-family="sans-serif" font-size="7" lengthAdjust="spacing" textLength="260.5" x="322.25" y="492.2588">Task(description, taskName, greenSpace, estimatedDuration, taskUrgencyDegree)</text><ellipse cx="317.75" cy="498.4023" fill="#84BE84" rx="1.5" ry="1.5" style="stroke:#038048;stroke-width:0.5;"/><text fill="#000000" font-family="sans-serif" font-size="7" lengthAdjust="spacing" textLength="75" x="322.25" y="500.0791">getDescription() : String</text><ellipse cx="317.75" cy="506.2227" fill="#84BE84" rx="1.5" ry="1.5" style="stroke:#038048;stroke-width:0.5;"/><text fill="#000000" font-family="sans-serif" font-size="7" lengthAdjust="spacing" textLength="109" x="322.25" y="507.8994">setDescription(description : String)</text><ellipse cx="317.75" cy="514.043" fill="#84BE84" rx="1.5" ry="1.5" style="stroke:#038048;stroke-width:0.5;"/><text fill="#000000" font-family="sans-serif" font-size="7" lengthAdjust="spacing" textLength="73" x="322.25" y="515.7197">getTaskName() : String</text><ellipse cx="317.75" cy="521.8633" fill="#84BE84" rx="1.5" ry="1.5" style="stroke:#038048;stroke-width:0.5;"/><text fill="#000000" font-family="sans-serif" font-size="7" lengthAdjust="spacing" textLength="103.5" x="322.25" y="523.54">setTaskName(taskName : String)</text><ellipse cx="317.75" cy="529.6836" fill="#84BE84" rx="1.5" ry="1.5" style="stroke:#038048;stroke-width:0.5;"/><text fill="#000000" font-family="sans-serif" font-size="7" lengthAdjust="spacing" textLength="101" x="322.25" y="531.3604">getGreenSpace() : GreenSpace</text><ellipse cx="317.75" cy="537.5039" fill="#84BE84" rx="1.5" ry="1.5" style="stroke:#038048;stroke-width:0.5;"/><text fill="#000000" font-family="sans-serif" font-size="7" lengthAdjust="spacing" textLength="139" x="322.25" y="539.1807">setGreenSpace(greenSpace : GreenSpace)</text><ellipse cx="317.75" cy="545.3242" fill="#84BE84" rx="1.5" ry="1.5" style="stroke:#038048;stroke-width:0.5;"/><text fill="#000000" font-family="sans-serif" font-size="7" lengthAdjust="spacing" textLength="77" x="322.25" y="547.001">getTaskStatus() : Object</text><ellipse cx="317.75" cy="553.1445" fill="#84BE84" rx="1.5" ry="1.5" style="stroke:#038048;stroke-width:0.5;"/><text fill="#000000" font-family="sans-serif" font-size="7" lengthAdjust="spacing" textLength="124.5" x="322.25" y="554.8213">setTaskStatus(taskStatus : TaskStatus)</text><ellipse cx="317.75" cy="560.9648" fill="#84BE84" rx="1.5" ry="1.5" style="stroke:#038048;stroke-width:0.5;"/><text fill="#000000" font-family="sans-serif" font-size="7" lengthAdjust="spacing" textLength="54" x="322.25" y="562.6416">toString() : String</text><ellipse cx="317.75" cy="568.7852" fill="#84BE84" rx="1.5" ry="1.5" style="stroke:#038048;stroke-width:0.5;"/><text fill="#000000" font-family="sans-serif" font-size="7" lengthAdjust="spacing" textLength="114.5" x="322.25" y="570.4619">taskNameProperty() : StringProperty</text><ellipse cx="317.75" cy="576.6055" fill="#84BE84" rx="1.5" ry="1.5" style="stroke:#038048;stroke-width:0.5;"/><text fill="#000000" font-family="sans-serif" font-size="7" lengthAdjust="spacing" textLength="108" x="322.25" y="578.2822">toStringProperty() : StringProperty</text><ellipse cx="317.75" cy="584.4258" fill="#84BE84" rx="1.5" ry="1.5" style="stroke:#038048;stroke-width:0.5;"/><text fill="#000000" font-family="sans-serif" font-size="7" lengthAdjust="spacing" textLength="86.5" x="322.25" y="586.1025">getEstimatedDuration() : int</text><ellipse cx="317.75" cy="592.2461" fill="#84BE84" rx="1.5" ry="1.5" style="stroke:#038048;stroke-width:0.5;"/><text fill="#000000" font-family="sans-serif" font-size="7" lengthAdjust="spacing" textLength="143.5" x="322.25" y="593.9229">setEstimatedDuration(estimatedDuration : int)</text></g><!--class TaskStatus--><g id="elem_TaskStatus"><rect codeLine="98" fill="#F1F1F1" height="55.2813" id="TaskStatus" rx="1.25" ry="1.25" style="stroke:#181818;stroke-width:0.25;" width="51.5" x="391.25" y="628"/><ellipse cx="398.75" cy="636" fill="#EB937F" rx="5.5" ry="5.5" style="stroke:#181818;stroke-width:0.5;"/><path d="M398.1797,636.3984 L398.1797,637.6484 L400.3438,637.6484 L400.3438,637.1875 Q400.3438,636.8828 400.4609,636.75 Q400.5859,636.6172 400.7734,636.6172 Q400.9609,636.6172 401.0781,636.75 Q401.1953,636.8828 401.1953,637.1875 L401.1953,638.5 L397.1953,638.5 Q396.8828,638.5 396.75,638.3828 Q396.625,638.2656 396.625,638.0703 Q396.625,637.8828 396.7578,637.7656 Q396.8906,637.6484 397.1953,637.6484 L397.3281,637.6484 L397.3281,634.3203 L397.1953,634.3203 Q396.8828,634.3203 396.75,634.2031 Q396.625,634.0859 396.625,633.8906 Q396.625,633.7031 396.75,633.5859 Q396.8828,633.4688 397.1953,633.4688 L401.0078,633.4688 L401.0078,634.7656 Q401.0078,635.0703 400.8906,635.2031 Q400.7813,635.3281 400.5859,635.3281 Q400.3984,635.3281 400.2813,635.2031 Q400.1641,635.0703 400.1641,634.7656 L400.1641,634.3203 L398.1797,634.3203 L398.1797,635.5469 L398.9219,635.5469 Q398.9219,635.2188 398.9844,635.125 Q399.1172,634.9219 399.3516,634.9219 Q399.5391,634.9219 399.6563,635.0547 Q399.7734,635.1797 399.7734,635.4844 L399.7734,636.4688 Q399.7734,636.7422 399.7109,636.8359 Q399.5781,637.0313 399.3516,637.0313 Q399.1172,637.0313 398.9844,636.8281 Q398.9219,636.7344 398.9219,636.3984 L398.1797,636.3984 Z " fill="#000000"/><text fill="#000000" font-family="sans-serif" font-size="7" lengthAdjust="spacing" textLength="35.5" x="405.75" y="638.4268">TaskStatus</text><line style="stroke:#181818;stroke-width:0.25;" x1="391.75" x2="442.25" y1="644" y2="644"/><text fill="#000000" font-family="sans-serif" font-size="7" lengthAdjust="spacing" textLength="32" x="394.25" y="652.3369">PENDING,</text><text fill="#000000" font-family="sans-serif" font-size="7" lengthAdjust="spacing" textLength="33.5" x="394.25" y="660.1572">PLANNED,</text><text fill="#000000" font-family="sans-serif" font-size="7" lengthAdjust="spacing" textLength="43" x="394.25" y="667.9775">CANCELLED,</text><text fill="#000000" font-family="sans-serif" font-size="7" lengthAdjust="spacing" textLength="19.5" x="394.25" y="675.7979">DONE</text><line style="stroke:#181818;stroke-width:0.25;" x1="391.75" x2="442.25" y1="679.2813" y2="679.2813"/></g><!--class TaskUrgencyDegree--><g id="elem_TaskUrgencyDegree"><rect codeLine="105" fill="#F1F1F1" height="47.4609" id="TaskUrgencyDegree" rx="1.25" ry="1.25" style="stroke:#181818;stroke-width:0.25;" width="81" x="460.5" y="632"/><ellipse cx="468" cy="640" fill="#EB937F" rx="5.5" ry="5.5" style="stroke:#181818;stroke-width:0.5;"/><path d="M467.4297,640.3984 L467.4297,641.6484 L469.5938,641.6484 L469.5938,641.1875 Q469.5938,640.8828 469.7109,640.75 Q469.8359,640.6172 470.0234,640.6172 Q470.2109,640.6172 470.3281,640.75 Q470.4453,640.8828 470.4453,641.1875 L470.4453,642.5 L466.4453,642.5 Q466.1328,642.5 466,642.3828 Q465.875,642.2656 465.875,642.0703 Q465.875,641.8828 466.0078,641.7656 Q466.1406,641.6484 466.4453,641.6484 L466.5781,641.6484 L466.5781,638.3203 L466.4453,638.3203 Q466.1328,638.3203 466,638.2031 Q465.875,638.0859 465.875,637.8906 Q465.875,637.7031 466,637.5859 Q466.1328,637.4688 466.4453,637.4688 L470.2578,637.4688 L470.2578,638.7656 Q470.2578,639.0703 470.1406,639.2031 Q470.0313,639.3281 469.8359,639.3281 Q469.6484,639.3281 469.5313,639.2031 Q469.4141,639.0703 469.4141,638.7656 L469.4141,638.3203 L467.4297,638.3203 L467.4297,639.5469 L468.1719,639.5469 Q468.1719,639.2188 468.2344,639.125 Q468.3672,638.9219 468.6016,638.9219 Q468.7891,638.9219 468.9063,639.0547 Q469.0234,639.1797 469.0234,639.4844 L469.0234,640.4688 Q469.0234,640.7422 468.9609,640.8359 Q468.8281,641.0313 468.6016,641.0313 Q468.3672,641.0313 468.2344,640.8281 Q468.1719,640.7344 468.1719,640.3984 L467.4297,640.3984 Z " fill="#000000"/><text fill="#000000" font-family="sans-serif" font-size="7" lengthAdjust="spacing" textLength="65" x="475" y="642.4268">TaskUrgencyDegree</text><line style="stroke:#181818;stroke-width:0.25;" x1="461" x2="541" y1="648" y2="648"/><text fill="#000000" font-family="sans-serif" font-size="7" lengthAdjust="spacing" textLength="18" x="463.5" y="656.3369">LOW,</text><text fill="#000000" font-family="sans-serif" font-size="7" lengthAdjust="spacing" textLength="28.5" x="463.5" y="664.1572">MEDIUM,</text><text fill="#000000" font-family="sans-serif" font-size="7" lengthAdjust="spacing" textLength="16" x="463.5" y="671.9775">HIGH</text><line style="stroke:#181818;stroke-width:0.25;" x1="461" x2="541" y1="675.4609" y2="675.4609"/></g><!--link MyTasksGUI to MyTasksController--><g id="link_MyTasksGUI_MyTasksController"><path codeLine="112" d="M554.64,138.68 C546.08,154.445 537.06,171.065 529.315,185.33 " fill="none" id="MyTasksGUI-to-MyTasksController" style="stroke:#181818;stroke-width:0.5;stroke-dasharray:7.0,7.0;"/><polygon fill="#181818" points="528.085,187.6,531.9922,184.6027,529.2796,185.4039,528.4784,182.6913,528.085,187.6" style="stroke:#181818;stroke-width:0.5;"/></g><!--link MyTasksGUI to TaskDTO--><g id="link_MyTasksGUI_TaskDTO"><path codeLine="113" d="M596.895,138.655 C598.955,150.29 600.5,159 600.5,159 C600.5,159 601.945,263.475 602.64,313.46 " fill="none" id="MyTasksGUI-to-TaskDTO" style="stroke:#181818;stroke-width:0.5;stroke-dasharray:7.0,7.0;"/><polygon fill="#181818" points="602.675,316.09,604.6105,311.5619,602.6393,313.5903,600.6109,311.619,602.675,316.09" style="stroke:#181818;stroke-width:0.5;"/></g><!--link MyTasksController to Repositories--><g id="link_MyTasksController_Repositories"><path codeLine="114" d="M425.635,223.25 C405.29,223.25 367,223.25 367,223.25 C367,223.25 359.14,223.25 348.65,223.25 " fill="none" id="MyTasksController-to-Repositories" style="stroke:#181818;stroke-width:0.5;stroke-dasharray:7.0,7.0;"/><polygon fill="#181818" points="346.08,223.25,350.58,225.25,348.58,223.25,350.58,221.25,346.08,223.25" style="stroke:#181818;stroke-width:0.5;"/></g><!--link Repositories to Repositories--><g id="link_Repositories_Repositories"><path codeLine="115" d="M346.045,212.07 C356.215,213.285 363.5,217.015 363.5,223.25 C363.5,228.95 357.415,232.555 348.6,234.06 " fill="none" id="Repositories-to-Repositories" style="stroke:#181818;stroke-width:0.5;"/><polygon fill="#181818" points="346.045,234.43,350.7848,235.7658,348.5193,234.0724,350.2127,231.807,346.045,234.43" style="stroke:#181818;stroke-width:0.5;"/><text fill="#000000" font-family="sans-serif" font-size="6.5" lengthAdjust="spacing" textLength="24.5" x="366.5" y="225.6343">instance</text></g><!--link Repositories to AgendaRepository--><g id="link_Repositories_AgendaRepository"><path codeLine="116" d="M277.595,247.035 C265.055,262.895 248.19,284.23 233.82,302.41 " fill="none" id="Repositories-to-AgendaRepository" style="stroke:#181818;stroke-width:0.5;"/><polygon fill="#181818" points="232.26,304.385,236.6217,302.099,233.8121,302.4252,233.486,299.6156,232.26,304.385" style="stroke:#181818;stroke-width:0.5;"/><text fill="#000000" font-family="sans-serif" font-size="6.5" lengthAdjust="spacing" textLength="3.5" x="231.6048" y="299.0097">1</text></g><!--link AgendaRepository to Task--><g id="link_AgendaRepository_Task"><path codeLine="117" d="M256.055,375.555 C273.525,387.435 293.935,401.315 314.815,415.51 " fill="none" id="AgendaRepository-to-Task" style="stroke:#181818;stroke-width:0.5;"/><polygon fill="#181818" points="316.965,416.975,314.3732,412.7878,314.8993,415.5669,312.1202,416.093,316.965,416.975" style="stroke:#181818;stroke-width:0.5;"/></g><!--link MyTasksController to AgendaRepository--><g id="link_MyTasksController_AgendaRepository"><path codeLine="118" d="M431.885,258.77 C416.775,265.63 405.5,270.75 405.5,270.75 C405.5,270.75 358.13,286.95 309.385,303.625 " fill="none" id="MyTasksController-to-AgendaRepository" style="stroke:#181818;stroke-width:0.5;stroke-dasharray:7.0,7.0;"/><polygon fill="#181818" points="306.915,304.47,311.8198,304.9089,309.2809,303.6623,310.5275,301.1234,306.915,304.47" style="stroke:#181818;stroke-width:0.5;"/><text fill="#000000" font-family="sans-serif" font-size="6.5" lengthAdjust="spacing" textLength="21" x="372" y="287.8843">agenda</text></g><!--link MyTasksController to TaskDTO--><g id="link_MyTasksController_TaskDTO"><path codeLine="119" d="M537.46,258.795 C551.945,276.63 569.23,297.92 582.415,314.15 " fill="none" id="MyTasksController-to-TaskDTO" style="stroke:#181818;stroke-width:0.5;stroke-dasharray:7.0,7.0;"/><polygon fill="#181818" points="584,316.105,582.7146,311.3513,582.4235,314.1647,579.6101,313.8737,584,316.105" style="stroke:#181818;stroke-width:0.5;"/></g><!--link MyTasksController to TaskMapper--><g id="link_MyTasksController_TaskMapper"><path codeLine="120" d="M509,258.795 C509,277.93 509,301.035 509,317.61 " fill="none" id="MyTasksController-to-TaskMapper" style="stroke:#181818;stroke-width:0.5;stroke-dasharray:7.0,7.0;"/><polygon fill="#181818" points="509,320.215,511,315.715,509,317.715,507,315.715,509,320.215" style="stroke:#181818;stroke-width:0.5;"/></g><!--link TaskMapper to TaskDTO--><g id="link_TaskMapper_TaskDTO"><path codeLine="121" d="M542.39,340 C547.63,340 561.545,340 568.125,340 " fill="none" id="TaskMapper-to-TaskDTO" style="stroke:#181818;stroke-width:0.5;stroke-dasharray:7.0,7.0;"/><polygon fill="#181818" points="570.695,340,566.195,338,568.195,340,566.195,342,570.695,340" style="stroke:#181818;stroke-width:0.5;"/></g><!--link TaskMapper to Task--><g id="link_TaskMapper_Task"><path codeLine="122" d="M502,359.895 C496.97,373.835 489.785,393.75 482.32,414.43 " fill="none" id="TaskMapper-to-Task" style="stroke:#181818;stroke-width:0.5;"/><polygon fill="#181818" points="481.455,416.825,484.8664,413.2736,482.3053,414.4741,481.1049,411.913,481.455,416.825" style="stroke:#181818;stroke-width:0.5;"/></g><!--link MyTasksController to Task--><g id="link_MyTasksController_Task"><path codeLine="123" d="M488.615,258.87 C478.12,276.955 467.5,295.25 467.5,295.25 C467.5,295.25 462.06,357.435 457.08,414.365 " fill="none" id="MyTasksController-to-Task" style="stroke:#181818;stroke-width:0.5;stroke-dasharray:7.0,7.0;"/><polygon fill="#181818" points="456.86,416.9,459.238,412.5878,457.0741,414.4092,455.2527,412.2452,456.86,416.9" style="stroke:#181818;stroke-width:0.5;"/></g><!--link Task to TaskUrgencyDegree--><g id="link_Task_TaskUrgencyDegree"><path codeLine="124" d="M480.67,597.59 C483.77,606.37 486.75,614.835 489.435,622.445 " fill="none" id="Task-to-TaskUrgencyDegree" style="stroke:#181818;stroke-width:0.5;"/><polygon fill="none" points="492.75,621.32,492.775,631.915,486.15,623.65,492.75,621.32" style="stroke:#181818;stroke-width:0.5;"/></g><!--link Task to TaskStatus--><g id="link_Task_TaskStatus"><path codeLine="125" d="M429.51,597.59 C427.97,604.69 426.475,611.58 425.085,617.98 " fill="none" id="Task-to-TaskStatus" style="stroke:#181818;stroke-width:0.5;"/><polygon fill="none" points="428.47,618.88,422.93,627.91,421.63,617.395,428.47,618.88" style="stroke:#181818;stroke-width:0.5;"/></g><!--SRC=[fLPTZzCw47tFhx1uAhe1YLU4AdMRRgdKTj5s2y_Un7JDEdPakoovm7zdx4aSEocx3xHILSySdpdpOIVcaSk6QbgJXfQFzCGEjXMCQ5PQAa-2PIO0p0Ejr1EN9_AL2XDx19VCjWqZZHAjMsJmwVZ8SKD-PgMWnf1TUqVDeraVDpyp0fytT-o7lUPCLCHOgcr1BVFBiPV9QkoZzu9zvkpfm-84NhgILhTpGiE2C-Cn4NofnBcMyOQS700fJtE804i4u8wbgk_LbVhnmKa-M6hFPavi-D-x4NnrjbP9KbFzk325aWmDwEooNYe8eOHWcjHZYmV-noMtd0h-FvkzHakZchE0nBtytlX0PINOecb4Uys5PHg3BKhBbUn19tK5zK-tx42U2umImVSRlg5FaRvHlmPFrpQiO5TiZ3211Y7C8ZmoxDf5tAUPyILzoPyFGvBt4_7tFQFiRbcZ3BTAjo4xn0-EFZcjQRlbnZupMKDgKFJlR1IPl2UNIN0RhQh8E7CpbPFA9GCRxvKIZCfHxJhgg_Pec5xLb8iPSxylXNg6O845l8LJpf3CrpUjCvwEK6rS_aFGDD0pHB_x7ftj0nnDNb8tt4aJVRE8rLGQ3X0FlQObhHYXoIuqehQ_yVN3MQcjEd7PwsoUgabJF4ITRJJFoxFMmEhIF31Z_364RT4wTDxPRe5jnYjeEZEbvesJCWdJORzm- -3najPkx8EkdC0vOvkflgy-NPp2K19t5B2Y8MVeJ5_4s1QbjP7G9raYLumPzJafepjr_Q4hxcx2QNFN0wun9iwIlr7taDhKwWPkQjsgaeeao8usJNHdkJZ1v7KIgo2mFsUlOukREcyr8zKAYYmJmavqfoDgMs9FSrbhnkG1I1avXR_euZ2kp5XUGufLSTPqe1gUDj73Pd0TDLIyR0lcA3qYiM1w3ZYBHEP1MHv9oQSIyYdZC0t5GEW70fD6jqdTKUm078ZkEZ6NM8AlLtnX_r1Opx1EY-jO8iIGRm9DrM2LFTlD_JTuzKdqTDwX7G0Rx1sJLIXpabIVo2UjO2Pj6m5wKyhm8X14hyQTys0Ogo1yYfXq6tUusS-OFDTHJZZkdrRxOhDVvxZOBlRxLO6BvMA_N6st_RAusQyIbcI2a6nxymN1krMnEUxm_yVD-YC-feStG_BsxNpwuZ46TBT9Ddst0cToLSKByYPr-WhW7JV20V3LkrUJLuHiRF189-6I4f0omR_ltvekuv_9g_FYtPP5rroqBRA-8Coxt0y0VysdNHlvkdie-mC0]--></g></svg>