<svg xmlns="http://www.w3.org/2000/svg" xmlns:xlink="http://www.w3.org/1999/xlink" contentStyleType="text/css" height="579px" preserveAspectRatio="none" style="width:209px;height:579px;background:#FFFFFF;" version="1.1" viewBox="0 0 209 579" width="209px" zoomAndPan="magnify"><defs/><g><!--class User--><g id="elem_User"><rect codeLine="7" fill="#F1F1F1" height="95.8633" id="User" rx="2.5" ry="2.5" style="stroke:#181818;stroke-width:0.5;" width="71.917" x="42" y="7"/><ellipse cx="61.6613" cy="23" fill="#C2C2C2" rx="11" ry="11" style="stroke:#181818;stroke-width:1.0;"/><path d="M64.4269,18.875 Q64.5832,18.6563 64.7707,18.5469 Q64.9582,18.4375 65.1769,18.4375 Q65.5519,18.4375 65.7863,18.7031 Q66.0207,18.9531 66.0207,19.5625 L66.0207,21.0156 Q66.0207,21.625 65.7863,21.8906 Q65.5519,22.1563 65.1769,22.1563 Q64.8332,22.1563 64.63,21.9531 Q64.4269,21.7656 64.3175,21.25 Q64.2707,20.8906 64.0832,20.7031 Q63.755,20.3281 63.1457,20.1094 Q62.5363,19.8906 61.9113,19.8906 Q61.1457,19.8906 60.505,20.2188 Q59.88,20.5469 59.38,21.2969 Q58.8957,22.0469 58.8957,23.0781 L58.8957,24.1719 Q58.8957,25.4063 59.7863,26.2344 Q60.6769,27.0469 62.2707,27.0469 Q63.2082,27.0469 63.8644,26.7969 Q64.255,26.6406 64.6769,26.2031 Q64.9425,25.9375 65.0832,25.8594 Q65.2394,25.7813 65.4425,25.7813 Q65.7707,25.7813 66.0207,26.0469 Q66.2863,26.2969 66.2863,26.6406 Q66.2863,26.9844 65.9425,27.3906 Q65.4425,27.9688 64.6457,28.2969 Q63.5675,28.75 62.2707,28.75 Q60.755,28.75 59.5519,28.125 Q58.5675,27.625 57.88,26.5625 Q57.1925,25.4844 57.1925,24.2031 L57.1925,23.0469 Q57.1925,21.7188 57.8019,20.5781 Q58.4269,19.4219 59.5207,18.8125 Q60.6144,18.1875 61.8488,18.1875 Q62.5832,18.1875 63.2238,18.3594 Q63.88,18.5156 64.4269,18.875 Z " fill="#000000"/><text fill="#000000" font-family="sans-serif" font-size="14" lengthAdjust="spacing" textLength="29.5586" x="76.6971" y="28.7969">User</text><line style="stroke:#181818;stroke-width:0.5;" x1="43" x2="112.917" y1="39" y2="39"/><text fill="#000000" font-family="sans-serif" font-size="14" lengthAdjust="spacing" textLength="35.0205" x="48" y="58.1074">name</text><text fill="#000000" font-family="sans-serif" font-size="14" lengthAdjust="spacing" textLength="33.4551" x="48" y="76.7285">email</text><text fill="#000000" font-family="sans-serif" font-size="14" lengthAdjust="spacing" textLength="59.917" x="48" y="95.3496">password</text></g><!--class Role--><g id="elem_Role"><rect codeLine="13" fill="#F1F1F1" height="77.2422" id="Role" rx="2.5" ry="2.5" style="stroke:#181818;stroke-width:0.5;" width="79.7031" x="7" y="191.5"/><ellipse cx="30.5096" cy="207.5" fill="#C2C2C2" rx="11" ry="11" style="stroke:#181818;stroke-width:1.0;"/><path d="M33.2752,203.375 Q33.4314,203.1563 33.6189,203.0469 Q33.8064,202.9375 34.0252,202.9375 Q34.4002,202.9375 34.6346,203.2031 Q34.8689,203.4531 34.8689,204.0625 L34.8689,205.5156 Q34.8689,206.125 34.6346,206.3906 Q34.4002,206.6563 34.0252,206.6563 Q33.6814,206.6563 33.4783,206.4531 Q33.2752,206.2656 33.1658,205.75 Q33.1189,205.3906 32.9314,205.2031 Q32.6033,204.8281 31.9939,204.6094 Q31.3846,204.3906 30.7596,204.3906 Q29.9939,204.3906 29.3533,204.7188 Q28.7283,205.0469 28.2283,205.7969 Q27.7439,206.5469 27.7439,207.5781 L27.7439,208.6719 Q27.7439,209.9063 28.6346,210.7344 Q29.5252,211.5469 31.1189,211.5469 Q32.0564,211.5469 32.7127,211.2969 Q33.1033,211.1406 33.5252,210.7031 Q33.7908,210.4375 33.9314,210.3594 Q34.0877,210.2813 34.2908,210.2813 Q34.6189,210.2813 34.8689,210.5469 Q35.1346,210.7969 35.1346,211.1406 Q35.1346,211.4844 34.7908,211.8906 Q34.2908,212.4688 33.4939,212.7969 Q32.4158,213.25 31.1189,213.25 Q29.6033,213.25 28.4002,212.625 Q27.4158,212.125 26.7283,211.0625 Q26.0408,209.9844 26.0408,208.7031 L26.0408,207.5469 Q26.0408,206.2188 26.6502,205.0781 Q27.2752,203.9219 28.3689,203.3125 Q29.4627,202.6875 30.6971,202.6875 Q31.4314,202.6875 32.0721,202.8594 Q32.7283,203.0156 33.2752,203.375 Z " fill="#000000"/><text fill="#000000" font-family="sans-serif" font-size="14" lengthAdjust="spacing" textLength="28.793" x="46.4006" y="213.2969">Role</text><line style="stroke:#181818;stroke-width:0.5;" x1="8" x2="85.7031" y1="223.5" y2="223.5"/><text fill="#000000" font-family="sans-serif" font-size="14" lengthAdjust="spacing" textLength="35.0205" x="13" y="242.6074">name</text><text fill="#000000" font-family="sans-serif" font-size="14" lengthAdjust="spacing" textLength="67.7031" x="13" y="261.2285">description</text></g><!--class Map--><g id="elem_Map"><rect codeLine="18" fill="#F1F1F1" height="95.8633" id="Map" rx="2.5" ry="2.5" style="stroke:#181818;stroke-width:0.5;" width="59.2344" x="122.5" y="182"/><ellipse cx="137.5" cy="198" fill="#C2C2C2" rx="11" ry="11" style="stroke:#181818;stroke-width:1.0;"/><path d="M140.2656,193.875 Q140.4219,193.6563 140.6094,193.5469 Q140.7969,193.4375 141.0156,193.4375 Q141.3906,193.4375 141.625,193.7031 Q141.8594,193.9531 141.8594,194.5625 L141.8594,196.0156 Q141.8594,196.625 141.625,196.8906 Q141.3906,197.1563 141.0156,197.1563 Q140.6719,197.1563 140.4688,196.9531 Q140.2656,196.7656 140.1563,196.25 Q140.1094,195.8906 139.9219,195.7031 Q139.5938,195.3281 138.9844,195.1094 Q138.375,194.8906 137.75,194.8906 Q136.9844,194.8906 136.3438,195.2188 Q135.7188,195.5469 135.2188,196.2969 Q134.7344,197.0469 134.7344,198.0781 L134.7344,199.1719 Q134.7344,200.4063 135.625,201.2344 Q136.5156,202.0469 138.1094,202.0469 Q139.0469,202.0469 139.7031,201.7969 Q140.0938,201.6406 140.5156,201.2031 Q140.7813,200.9375 140.9219,200.8594 Q141.0781,200.7813 141.2813,200.7813 Q141.6094,200.7813 141.8594,201.0469 Q142.125,201.2969 142.125,201.6406 Q142.125,201.9844 141.7813,202.3906 Q141.2813,202.9688 140.4844,203.2969 Q139.4063,203.75 138.1094,203.75 Q136.5938,203.75 135.3906,203.125 Q134.4063,202.625 133.7188,201.5625 Q133.0313,200.4844 133.0313,199.2031 L133.0313,198.0469 Q133.0313,196.7188 133.6406,195.5781 Q134.2656,194.4219 135.3594,193.8125 Q136.4531,193.1875 137.6875,193.1875 Q138.4219,193.1875 139.0625,193.3594 Q139.7188,193.5156 140.2656,193.875 Z " fill="#000000"/><text fill="#000000" font-family="sans-serif" font-size="14" lengthAdjust="spacing" textLength="27.2344" x="151.5" y="203.7969">Map</text><line style="stroke:#181818;stroke-width:0.5;" x1="123.5" x2="180.7344" y1="214" y2="214"/><text fill="#000000" font-family="sans-serif" font-size="14" lengthAdjust="spacing" textLength="35.0205" x="128.5" y="233.1074">name</text><text fill="#000000" font-family="sans-serif" font-size="14" lengthAdjust="spacing" textLength="32.6826" x="128.5" y="251.7285">width</text><text fill="#000000" font-family="sans-serif" font-size="14" lengthAdjust="spacing" textLength="38.1445" x="128.5" y="270.3496">height</text></g><!--class City--><g id="elem_City"><rect codeLine="24" fill="#F1F1F1" height="95.8633" id="City" rx="2.5" ry="2.5" style="stroke:#181818;stroke-width:0.5;" width="61.0205" x="121.5" y="357"/><ellipse cx="138.7096" cy="373" fill="#C2C2C2" rx="11" ry="11" style="stroke:#181818;stroke-width:1.0;"/><path d="M141.4752,368.875 Q141.6314,368.6563 141.8189,368.5469 Q142.0064,368.4375 142.2252,368.4375 Q142.6002,368.4375 142.8346,368.7031 Q143.0689,368.9531 143.0689,369.5625 L143.0689,371.0156 Q143.0689,371.625 142.8346,371.8906 Q142.6002,372.1563 142.2252,372.1563 Q141.8814,372.1563 141.6783,371.9531 Q141.4752,371.7656 141.3658,371.25 Q141.3189,370.8906 141.1314,370.7031 Q140.8033,370.3281 140.1939,370.1094 Q139.5846,369.8906 138.9596,369.8906 Q138.1939,369.8906 137.5533,370.2188 Q136.9283,370.5469 136.4283,371.2969 Q135.9439,372.0469 135.9439,373.0781 L135.9439,374.1719 Q135.9439,375.4063 136.8346,376.2344 Q137.7252,377.0469 139.3189,377.0469 Q140.2564,377.0469 140.9127,376.7969 Q141.3033,376.6406 141.7252,376.2031 Q141.9908,375.9375 142.1314,375.8594 Q142.2877,375.7813 142.4908,375.7813 Q142.8189,375.7813 143.0689,376.0469 Q143.3346,376.2969 143.3346,376.6406 Q143.3346,376.9844 142.9908,377.3906 Q142.4908,377.9688 141.6939,378.2969 Q140.6158,378.75 139.3189,378.75 Q137.8033,378.75 136.6002,378.125 Q135.6158,377.625 134.9283,376.5625 Q134.2408,375.4844 134.2408,374.2031 L134.2408,373.0469 Q134.2408,371.7188 134.8502,370.5781 Q135.4752,369.4219 136.5689,368.8125 Q137.6627,368.1875 138.8971,368.1875 Q139.6314,368.1875 140.2721,368.3594 Q140.9283,368.5156 141.4752,368.875 Z " fill="#000000"/><text fill="#000000" font-family="sans-serif" font-size="14" lengthAdjust="spacing" textLength="24.1104" x="153.2006" y="378.7969">City</text><line style="stroke:#181818;stroke-width:0.5;" x1="122.5" x2="181.5205" y1="389" y2="389"/><text fill="#000000" font-family="sans-serif" font-size="14" lengthAdjust="spacing" textLength="35.0205" x="127.5" y="408.1074">name</text><text fill="#000000" font-family="sans-serif" font-size="14" lengthAdjust="spacing" textLength="48.2549" x="127.5" y="426.7285">location</text><text fill="#000000" font-family="sans-serif" font-size="14" lengthAdjust="spacing" textLength="49.0205" x="127.5" y="445.3496">nBlocks</text></g><!--class House--><g id="elem_House"><rect codeLine="30" fill="#F1F1F1" height="40" id="House" rx="2.5" ry="2.5" style="stroke:#181818;stroke-width:0.5;" width="72.4688" x="116" y="532"/><ellipse cx="131" cy="548" fill="#C2C2C2" rx="11" ry="11" style="stroke:#181818;stroke-width:1.0;"/><path d="M133.7656,543.875 Q133.9219,543.6563 134.1094,543.5469 Q134.2969,543.4375 134.5156,543.4375 Q134.8906,543.4375 135.125,543.7031 Q135.3594,543.9531 135.3594,544.5625 L135.3594,546.0156 Q135.3594,546.625 135.125,546.8906 Q134.8906,547.1563 134.5156,547.1563 Q134.1719,547.1563 133.9688,546.9531 Q133.7656,546.7656 133.6563,546.25 Q133.6094,545.8906 133.4219,545.7031 Q133.0938,545.3281 132.4844,545.1094 Q131.875,544.8906 131.25,544.8906 Q130.4844,544.8906 129.8438,545.2188 Q129.2188,545.5469 128.7188,546.2969 Q128.2344,547.0469 128.2344,548.0781 L128.2344,549.1719 Q128.2344,550.4063 129.125,551.2344 Q130.0156,552.0469 131.6094,552.0469 Q132.5469,552.0469 133.2031,551.7969 Q133.5938,551.6406 134.0156,551.2031 Q134.2813,550.9375 134.4219,550.8594 Q134.5781,550.7813 134.7813,550.7813 Q135.1094,550.7813 135.3594,551.0469 Q135.625,551.2969 135.625,551.6406 Q135.625,551.9844 135.2813,552.3906 Q134.7813,552.9688 133.9844,553.2969 Q132.9063,553.75 131.6094,553.75 Q130.0938,553.75 128.8906,553.125 Q127.9063,552.625 127.2188,551.5625 Q126.5313,550.4844 126.5313,549.2031 L126.5313,548.0469 Q126.5313,546.7188 127.1406,545.5781 Q127.7656,544.4219 128.8594,543.8125 Q129.9531,543.1875 131.1875,543.1875 Q131.9219,543.1875 132.5625,543.3594 Q133.2188,543.5156 133.7656,543.875 Z " fill="#000000"/><text fill="#000000" font-family="sans-serif" font-size="14" lengthAdjust="spacing" textLength="40.4688" x="145" y="553.7969">House</text><line style="stroke:#181818;stroke-width:0.5;" x1="117" x2="187.4688" y1="564" y2="564"/></g><!--link User to Role--><g id="link_User_Role"><path codeLine="33" d="M69.53,103.27 C64.56,130.98 58.38,165.51 53.74,191.37 " fill="none" id="User-Role" style="stroke:#181818;stroke-width:1.0;"/><text fill="#000000" font-family="sans-serif" font-size="13" lengthAdjust="spacing" textLength="20.96" x="65" y="148.0283">has</text><text fill="#000000" font-family="sans-serif" font-size="13" lengthAdjust="spacing" textLength="5.0591" x="63.0655" y="124.9555">*</text><text fill="#000000" font-family="sans-serif" font-size="13" lengthAdjust="spacing" textLength="7.23" x="47.3422" y="180.302">1</text></g><!--link User to Map--><g id="link_User_Map"><path codeLine="34" d="M98.22,103.27 C108.66,127.68 121.37,157.38 131.8,181.78 " fill="none" id="User-Map" style="stroke:#181818;stroke-width:1.0;"/><text fill="#000000" font-family="sans-serif" font-size="13" lengthAdjust="spacing" textLength="53.479" x="118" y="148.0283">manages</text><text fill="#000000" font-family="sans-serif" font-size="13" lengthAdjust="spacing" textLength="7.23" x="93.4878" y="124.9555">1</text><text fill="#000000" font-family="sans-serif" font-size="13" lengthAdjust="spacing" textLength="5.0591" x="123.5955" y="170.8621">*</text></g><!--link Map to City--><g id="link_Map_City"><path codeLine="36" d="M152,278.27 C152,302.68 152,332.38 152,356.78 " fill="none" id="Map-City" style="stroke:#181818;stroke-width:1.0;"/><text fill="#000000" font-family="sans-serif" font-size="13" lengthAdjust="spacing" textLength="48.4199" x="153" y="323.0283">contains</text><text fill="#000000" font-family="sans-serif" font-size="13" lengthAdjust="spacing" textLength="7.23" x="144.5294" y="299.9555">1</text><text fill="#000000" font-family="sans-serif" font-size="13" lengthAdjust="spacing" textLength="5.0591" x="146.6511" y="345.8621">*</text></g><!--link City to House--><g id="link_City_House"><path codeLine="37" d="M152,453.08 C152,479.87 152,511.97 152,531.93 " fill="none" id="City-House" style="stroke:#181818;stroke-width:1.0;"/><text fill="#000000" font-family="sans-serif" font-size="13" lengthAdjust="spacing" textLength="48.4199" x="153" y="498.0283">contains</text><text fill="#000000" font-family="sans-serif" font-size="13" lengthAdjust="spacing" textLength="7.23" x="144.5438" y="474.74">1</text><text fill="#000000" font-family="sans-serif" font-size="13" lengthAdjust="spacing" textLength="5.0591" x="146.2055" y="520.6086">*</text></g><!--SRC=[NP2nRiGW38PtdiBAMEc6MpEsIvSkhVe05hZ12c24EKMdKz-zXBHD5ARV_Z_mZtNcbB5WX2X9h2yI2MgvaT5_9wETSQAFUWy4XMp5D8KZe1wTB9mc-CAWP8ndHn2fUd5gZ0se2fzA1Hu6saaOgGkAoA6ht915YZFVV_oxj6adtf7Qmhcof1rymtpc5dRLT-M99rzt-8Nh_Km7iTYVxDtdLiwwttYLcwv1MgD_ONWQu7A1uJfi4KVmgB_MTRCQiOOQ8M9gYsihMCk3srECO2LLvAIcrmT_cxa3Fm00]--></g></svg>