<?xml version="1.0" encoding="us-ascii" standalone="no"?><svg xmlns="http://www.w3.org/2000/svg" xmlns:xlink="http://www.w3.org/1999/xlink" contentStyleType="text/css" height="627px" preserveAspectRatio="none" style="width:850px;height:627px;background:#FFFFFF;" version="1.1" viewBox="0 0 850 627" width="850px" zoomAndPan="magnify"><defs/><g><text fill="#000000" font-family="sans-serif" font-size="14" font-weight="bold" lengthAdjust="spacing" textLength="435" x="200.75" y="25.1074">Class Diagram - US315 Add video of simulation to the proposal</text><!--class AddVideoToShowProposalUI--><g id="elem_AddVideoToShowProposalUI"><rect codeLine="4" fill="#F1F1F1" height="66.6211" id="AddVideoToShowProposalUI" rx="2.5" ry="2.5" style="stroke:#181818;stroke-width:0.5;" width="212" x="553.5" y="46.6211"/><ellipse cx="568.5" cy="62.6211" fill="#ADD1B2" rx="11" ry="11" style="stroke:#181818;stroke-width:1.0;"/><path d="M571.2656,58.4961 Q571.4219,58.2773 571.6094,58.168 Q571.7969,58.0586 572.0156,58.0586 Q572.3906,58.0586 572.625,58.3242 Q572.8594,58.5742 572.8594,59.1836 L572.8594,60.6367 Q572.8594,61.2461 572.625,61.5117 Q572.3906,61.7773 572.0156,61.7773 Q571.6719,61.7773 571.4688,61.5742 Q571.2656,61.3867 571.1563,60.8711 Q571.1094,60.5117 570.9219,60.3242 Q570.5938,59.9492 569.9844,59.7305 Q569.375,59.5117 568.75,59.5117 Q567.9844,59.5117 567.3438,59.8398 Q566.7188,60.168 566.2188,60.918 Q565.7344,61.668 565.7344,62.6992 L565.7344,63.793 Q565.7344,65.0273 566.625,65.8555 Q567.5156,66.668 569.1094,66.668 Q570.0469,66.668 570.7031,66.418 Q571.0938,66.2617 571.5156,65.8242 Q571.7813,65.5586 571.9219,65.4805 Q572.0781,65.4023 572.2813,65.4023 Q572.6094,65.4023 572.8594,65.668 Q573.125,65.918 573.125,66.2617 Q573.125,66.6055 572.7813,67.0117 Q572.2813,67.5898 571.4844,67.918 Q570.4063,68.3711 569.1094,68.3711 Q567.5938,68.3711 566.3906,67.7461 Q565.4063,67.2461 564.7188,66.1836 Q564.0313,65.1055 564.0313,63.8242 L564.0313,62.668 Q564.0313,61.3398 564.6406,60.1992 Q565.2656,59.043 566.3594,58.4336 Q567.4531,57.8086 568.6875,57.8086 Q569.4219,57.8086 570.0625,57.9805 Q570.7188,58.1367 571.2656,58.4961 Z " fill="#000000"/><text fill="#000000" font-family="sans-serif" font-size="14" lengthAdjust="spacing" textLength="180" x="582.5" y="68.418">AddVideoToShowProposalUI</text><line style="stroke:#181818;stroke-width:0.5;" x1="554.5" x2="764.5" y1="78.6211" y2="78.6211"/><line style="stroke:#181818;stroke-width:0.5;" x1="554.5" x2="764.5" y1="86.6211" y2="86.6211"/><ellipse cx="564.5" cy="101.4316" fill="#84BE84" rx="3" ry="3" style="stroke:#038048;stroke-width:1.0;"/><text fill="#000000" font-family="sans-serif" font-size="14" lengthAdjust="spacing" textLength="123" x="573.5" y="105.7285">doShow() : boolean</text></g><!--class AddVideoToShowProposalController--><g id="elem_AddVideoToShowProposalController"><rect codeLine="8" fill="#F1F1F1" height="66.6211" id="AddVideoToShowProposalController" rx="2.5" ry="2.5" style="stroke:#181818;stroke-width:0.5;" width="348" x="485.5" y="173.6211"/><ellipse cx="540.25" cy="189.6211" fill="#ADD1B2" rx="11" ry="11" style="stroke:#181818;stroke-width:1.0;"/><path d="M543.0156,185.4961 Q543.1719,185.2773 543.3594,185.168 Q543.5469,185.0586 543.7656,185.0586 Q544.1406,185.0586 544.375,185.3242 Q544.6094,185.5742 544.6094,186.1836 L544.6094,187.6367 Q544.6094,188.2461 544.375,188.5117 Q544.1406,188.7773 543.7656,188.7773 Q543.4219,188.7773 543.2188,188.5742 Q543.0156,188.3867 542.9063,187.8711 Q542.8594,187.5117 542.6719,187.3242 Q542.3438,186.9492 541.7344,186.7305 Q541.125,186.5117 540.5,186.5117 Q539.7344,186.5117 539.0938,186.8398 Q538.4688,187.168 537.9688,187.918 Q537.4844,188.668 537.4844,189.6992 L537.4844,190.793 Q537.4844,192.0273 538.375,192.8555 Q539.2656,193.668 540.8594,193.668 Q541.7969,193.668 542.4531,193.418 Q542.8438,193.2617 543.2656,192.8242 Q543.5313,192.5586 543.6719,192.4805 Q543.8281,192.4023 544.0313,192.4023 Q544.3594,192.4023 544.6094,192.668 Q544.875,192.918 544.875,193.2617 Q544.875,193.6055 544.5313,194.0117 Q544.0313,194.5898 543.2344,194.918 Q542.1563,195.3711 540.8594,195.3711 Q539.3438,195.3711 538.1406,194.7461 Q537.1563,194.2461 536.4688,193.1836 Q535.7813,192.1055 535.7813,190.8242 L535.7813,189.668 Q535.7813,188.3398 536.3906,187.1992 Q537.0156,186.043 538.1094,185.4336 Q539.2031,184.8086 540.4375,184.8086 Q541.1719,184.8086 541.8125,184.9805 Q542.4688,185.1367 543.0156,185.4961 Z " fill="#000000"/><text fill="#000000" font-family="sans-serif" font-size="14" lengthAdjust="spacing" textLength="230" x="560.75" y="195.418">AddVideoToShowProposalController</text><line style="stroke:#181818;stroke-width:0.5;" x1="486.5" x2="832.5" y1="205.6211" y2="205.6211"/><line style="stroke:#181818;stroke-width:0.5;" x1="486.5" x2="832.5" y1="213.6211" y2="213.6211"/><ellipse cx="496.5" cy="228.4316" fill="#84BE84" rx="3" ry="3" style="stroke:#038048;stroke-width:1.0;"/><text fill="#000000" font-family="sans-serif" font-size="14" lengthAdjust="spacing" textLength="322" x="505.5" y="232.7285">updateVideo(proposalId : String, videoLink : String)</text></g><!--class ShowProposalService--><g id="elem_ShowProposalService"><rect codeLine="12" fill="#F1F1F1" height="66.6211" id="ShowProposalService" rx="2.5" ry="2.5" style="stroke:#181818;stroke-width:0.5;" width="374" x="169.5" y="300.6211"/><ellipse cx="283.75" cy="316.6211" fill="#ADD1B2" rx="11" ry="11" style="stroke:#181818;stroke-width:1.0;"/><path d="M286.5156,312.4961 Q286.6719,312.2773 286.8594,312.168 Q287.0469,312.0586 287.2656,312.0586 Q287.6406,312.0586 287.875,312.3242 Q288.1094,312.5742 288.1094,313.1836 L288.1094,314.6367 Q288.1094,315.2461 287.875,315.5117 Q287.6406,315.7773 287.2656,315.7773 Q286.9219,315.7773 286.7188,315.5742 Q286.5156,315.3867 286.4063,314.8711 Q286.3594,314.5117 286.1719,314.3242 Q285.8438,313.9492 285.2344,313.7305 Q284.625,313.5117 284,313.5117 Q283.2344,313.5117 282.5938,313.8398 Q281.9688,314.168 281.4688,314.918 Q280.9844,315.668 280.9844,316.6992 L280.9844,317.793 Q280.9844,319.0273 281.875,319.8555 Q282.7656,320.668 284.3594,320.668 Q285.2969,320.668 285.9531,320.418 Q286.3438,320.2617 286.7656,319.8242 Q287.0313,319.5586 287.1719,319.4805 Q287.3281,319.4023 287.5313,319.4023 Q287.8594,319.4023 288.1094,319.668 Q288.375,319.918 288.375,320.2617 Q288.375,320.6055 288.0313,321.0117 Q287.5313,321.5898 286.7344,321.918 Q285.6563,322.3711 284.3594,322.3711 Q282.8438,322.3711 281.6406,321.7461 Q280.6563,321.2461 279.9688,320.1836 Q279.2813,319.1055 279.2813,317.8242 L279.2813,316.668 Q279.2813,315.3398 279.8906,314.1992 Q280.5156,313.043 281.6094,312.4336 Q282.7031,311.8086 283.9375,311.8086 Q284.6719,311.8086 285.3125,311.9805 Q285.9688,312.1367 286.5156,312.4961 Z " fill="#000000"/><text fill="#000000" font-family="sans-serif" font-size="14" lengthAdjust="spacing" textLength="137" x="304.25" y="322.418">ShowProposalService</text><line style="stroke:#181818;stroke-width:0.5;" x1="170.5" x2="542.5" y1="332.6211" y2="332.6211"/><line style="stroke:#181818;stroke-width:0.5;" x1="170.5" x2="542.5" y1="340.6211" y2="340.6211"/><ellipse cx="180.5" cy="355.4316" fill="#84BE84" rx="3" ry="3" style="stroke:#038048;stroke-width:1.0;"/><text fill="#000000" font-family="sans-serif" font-size="14" lengthAdjust="spacing" textLength="348" x="189.5" y="359.7285">updateVideoLink(proposalId : String, videoLink : String)</text></g><!--class ShowProposalRepository--><g id="elem_ShowProposalRepository"><rect codeLine="16" fill="#F1F1F1" height="85.2422" id="ShowProposalRepository" rx="2.5" ry="2.5" style="stroke:#181818;stroke-width:0.5;" width="367" x="7" y="427.6211"/><ellipse cx="107.25" cy="443.6211" fill="#ADD1B2" rx="11" ry="11" style="stroke:#181818;stroke-width:1.0;"/><path d="M110.0156,439.4961 Q110.1719,439.2773 110.3594,439.168 Q110.5469,439.0586 110.7656,439.0586 Q111.1406,439.0586 111.375,439.3242 Q111.6094,439.5742 111.6094,440.1836 L111.6094,441.6367 Q111.6094,442.2461 111.375,442.5117 Q111.1406,442.7773 110.7656,442.7773 Q110.4219,442.7773 110.2188,442.5742 Q110.0156,442.3867 109.9063,441.8711 Q109.8594,441.5117 109.6719,441.3242 Q109.3438,440.9492 108.7344,440.7305 Q108.125,440.5117 107.5,440.5117 Q106.7344,440.5117 106.0938,440.8398 Q105.4688,441.168 104.9688,441.918 Q104.4844,442.668 104.4844,443.6992 L104.4844,444.793 Q104.4844,446.0273 105.375,446.8555 Q106.2656,447.668 107.8594,447.668 Q108.7969,447.668 109.4531,447.418 Q109.8438,447.2617 110.2656,446.8242 Q110.5313,446.5586 110.6719,446.4805 Q110.8281,446.4023 111.0313,446.4023 Q111.3594,446.4023 111.6094,446.668 Q111.875,446.918 111.875,447.2617 Q111.875,447.6055 111.5313,448.0117 Q111.0313,448.5898 110.2344,448.918 Q109.1563,449.3711 107.8594,449.3711 Q106.3438,449.3711 105.1406,448.7461 Q104.1563,448.2461 103.4688,447.1836 Q102.7813,446.1055 102.7813,444.8242 L102.7813,443.668 Q102.7813,442.3398 103.3906,441.1992 Q104.0156,440.043 105.1094,439.4336 Q106.2031,438.8086 107.4375,438.8086 Q108.1719,438.8086 108.8125,438.9805 Q109.4688,439.1367 110.0156,439.4961 Z " fill="#000000"/><text fill="#000000" font-family="sans-serif" font-size="14" lengthAdjust="spacing" textLength="158" x="127.75" y="449.418">ShowProposalRepository</text><line style="stroke:#181818;stroke-width:0.5;" x1="8" x2="373" y1="459.6211" y2="459.6211"/><line style="stroke:#181818;stroke-width:0.5;" x1="8" x2="373" y1="467.6211" y2="467.6211"/><ellipse cx="18" cy="482.4316" fill="#84BE84" rx="3" ry="3" style="stroke:#038048;stroke-width:1.0;"/><text fill="#000000" font-family="sans-serif" font-size="14" lengthAdjust="spacing" textLength="341" x="27" y="486.7285">ofIdentity(ShowProposalID) : Optional&lt;ShowProposal&gt;</text><ellipse cx="18" cy="501.0527" fill="#84BE84" rx="3" ry="3" style="stroke:#038048;stroke-width:1.0;"/><text fill="#000000" font-family="sans-serif" font-size="14" lengthAdjust="spacing" textLength="130" x="27" y="505.3496">save(ShowProposal)</text></g><!--class ShowProposal--><g id="elem_ShowProposal"><rect codeLine="21" fill="#F1F1F1" height="85.2422" id="ShowProposal" rx="2.5" ry="2.5" style="stroke:#181818;stroke-width:0.5;" width="226" x="409.5" y="427.6211"/><ellipse cx="473.25" cy="443.6211" fill="#ADD1B2" rx="11" ry="11" style="stroke:#181818;stroke-width:1.0;"/><path d="M476.0156,439.4961 Q476.1719,439.2773 476.3594,439.168 Q476.5469,439.0586 476.7656,439.0586 Q477.1406,439.0586 477.375,439.3242 Q477.6094,439.5742 477.6094,440.1836 L477.6094,441.6367 Q477.6094,442.2461 477.375,442.5117 Q477.1406,442.7773 476.7656,442.7773 Q476.4219,442.7773 476.2188,442.5742 Q476.0156,442.3867 475.9063,441.8711 Q475.8594,441.5117 475.6719,441.3242 Q475.3438,440.9492 474.7344,440.7305 Q474.125,440.5117 473.5,440.5117 Q472.7344,440.5117 472.0938,440.8398 Q471.4688,441.168 470.9688,441.918 Q470.4844,442.668 470.4844,443.6992 L470.4844,444.793 Q470.4844,446.0273 471.375,446.8555 Q472.2656,447.668 473.8594,447.668 Q474.7969,447.668 475.4531,447.418 Q475.8438,447.2617 476.2656,446.8242 Q476.5313,446.5586 476.6719,446.4805 Q476.8281,446.4023 477.0313,446.4023 Q477.3594,446.4023 477.6094,446.668 Q477.875,446.918 477.875,447.2617 Q477.875,447.6055 477.5313,448.0117 Q477.0313,448.5898 476.2344,448.918 Q475.1563,449.3711 473.8594,449.3711 Q472.3438,449.3711 471.1406,448.7461 Q470.1563,448.2461 469.4688,447.1836 Q468.7813,446.1055 468.7813,444.8242 L468.7813,443.668 Q468.7813,442.3398 469.3906,441.1992 Q470.0156,440.043 471.1094,439.4336 Q472.2031,438.8086 473.4375,438.8086 Q474.1719,438.8086 474.8125,438.9805 Q475.4688,439.1367 476.0156,439.4961 Z " fill="#000000"/><text fill="#000000" font-family="sans-serif" font-size="14" lengthAdjust="spacing" textLength="90" x="493.75" y="449.418">ShowProposal</text><line style="stroke:#181818;stroke-width:0.5;" x1="410.5" x2="634.5" y1="459.6211" y2="459.6211"/><rect fill="none" height="6" style="stroke:#C82930;stroke-width:1.0;" width="6" x="417.5" y="471.4316"/><text fill="#000000" font-family="sans-serif" font-size="14" lengthAdjust="spacing" textLength="109" x="429.5" y="478.7285">videoLink : String</text><line style="stroke:#181818;stroke-width:0.5;" x1="410.5" x2="634.5" y1="486.2422" y2="486.2422"/><ellipse cx="420.5" cy="501.0527" fill="#84BE84" rx="3" ry="3" style="stroke:#038048;stroke-width:1.0;"/><text fill="#000000" font-family="sans-serif" font-size="14" lengthAdjust="spacing" textLength="200" x="429.5" y="505.3496">setVideoLink(videoLink : String)</text></g><!--class ShowProposalID--><g id="elem_ShowProposalID"><rect codeLine="26" fill="#F1F1F1" height="48" id="ShowProposalID" rx="2.5" ry="2.5" style="stroke:#181818;stroke-width:0.5;" width="135" x="455" y="572.6211"/><ellipse cx="470" cy="588.6211" fill="#ADD1B2" rx="11" ry="11" style="stroke:#181818;stroke-width:1.0;"/><path d="M472.7656,584.4961 Q472.9219,584.2773 473.1094,584.168 Q473.2969,584.0586 473.5156,584.0586 Q473.8906,584.0586 474.125,584.3242 Q474.3594,584.5742 474.3594,585.1836 L474.3594,586.6367 Q474.3594,587.2461 474.125,587.5117 Q473.8906,587.7773 473.5156,587.7773 Q473.1719,587.7773 472.9688,587.5742 Q472.7656,587.3867 472.6563,586.8711 Q472.6094,586.5117 472.4219,586.3242 Q472.0938,585.9492 471.4844,585.7305 Q470.875,585.5117 470.25,585.5117 Q469.4844,585.5117 468.8438,585.8398 Q468.2188,586.168 467.7188,586.918 Q467.2344,587.668 467.2344,588.6992 L467.2344,589.793 Q467.2344,591.0273 468.125,591.8555 Q469.0156,592.668 470.6094,592.668 Q471.5469,592.668 472.2031,592.418 Q472.5938,592.2617 473.0156,591.8242 Q473.2813,591.5586 473.4219,591.4805 Q473.5781,591.4023 473.7813,591.4023 Q474.1094,591.4023 474.3594,591.668 Q474.625,591.918 474.625,592.2617 Q474.625,592.6055 474.2813,593.0117 Q473.7813,593.5898 472.9844,593.918 Q471.9063,594.3711 470.6094,594.3711 Q469.0938,594.3711 467.8906,593.7461 Q466.9063,593.2461 466.2188,592.1836 Q465.5313,591.1055 465.5313,589.8242 L465.5313,588.668 Q465.5313,587.3398 466.1406,586.1992 Q466.7656,585.043 467.8594,584.4336 Q468.9531,583.8086 470.1875,583.8086 Q470.9219,583.8086 471.5625,583.9805 Q472.2188,584.1367 472.7656,584.4961 Z " fill="#000000"/><text fill="#000000" font-family="sans-serif" font-size="14" lengthAdjust="spacing" textLength="103" x="484" y="594.418">ShowProposalID</text><line style="stroke:#181818;stroke-width:0.5;" x1="456" x2="589" y1="604.6211" y2="604.6211"/><line style="stroke:#181818;stroke-width:0.5;" x1="456" x2="589" y1="612.6211" y2="612.6211"/></g><!--class AuthorizationService--><g id="elem_AuthorizationService"><rect codeLine="27" fill="#F1F1F1" height="48" id="AuthorizationService" rx="2.5" ry="2.5" style="stroke:#181818;stroke-width:0.5;" width="161" x="579" y="310.1211"/><ellipse cx="594" cy="326.1211" fill="#ADD1B2" rx="11" ry="11" style="stroke:#181818;stroke-width:1.0;"/><path d="M596.7656,321.9961 Q596.9219,321.7773 597.1094,321.668 Q597.2969,321.5586 597.5156,321.5586 Q597.8906,321.5586 598.125,321.8242 Q598.3594,322.0742 598.3594,322.6836 L598.3594,324.1367 Q598.3594,324.7461 598.125,325.0117 Q597.8906,325.2773 597.5156,325.2773 Q597.1719,325.2773 596.9688,325.0742 Q596.7656,324.8867 596.6563,324.3711 Q596.6094,324.0117 596.4219,323.8242 Q596.0938,323.4492 595.4844,323.2305 Q594.875,323.0117 594.25,323.0117 Q593.4844,323.0117 592.8438,323.3398 Q592.2188,323.668 591.7188,324.418 Q591.2344,325.168 591.2344,326.1992 L591.2344,327.293 Q591.2344,328.5273 592.125,329.3555 Q593.0156,330.168 594.6094,330.168 Q595.5469,330.168 596.2031,329.918 Q596.5938,329.7617 597.0156,329.3242 Q597.2813,329.0586 597.4219,328.9805 Q597.5781,328.9023 597.7813,328.9023 Q598.1094,328.9023 598.3594,329.168 Q598.625,329.418 598.625,329.7617 Q598.625,330.1055 598.2813,330.5117 Q597.7813,331.0898 596.9844,331.418 Q595.9063,331.8711 594.6094,331.8711 Q593.0938,331.8711 591.8906,331.2461 Q590.9063,330.7461 590.2188,329.6836 Q589.5313,328.6055 589.5313,327.3242 L589.5313,326.168 Q589.5313,324.8398 590.1406,323.6992 Q590.7656,322.543 591.8594,321.9336 Q592.9531,321.3086 594.1875,321.3086 Q594.9219,321.3086 595.5625,321.4805 Q596.2188,321.6367 596.7656,321.9961 Z " fill="#000000"/><text fill="#000000" font-family="sans-serif" font-size="14" lengthAdjust="spacing" textLength="129" x="608" y="331.918">AuthorizationService</text><line style="stroke:#181818;stroke-width:0.5;" x1="580" x2="739" y1="342.1211" y2="342.1211"/><line style="stroke:#181818;stroke-width:0.5;" x1="580" x2="739" y1="350.1211" y2="350.1211"/></g><!--class Roles--><g id="elem_Roles"><rect codeLine="28" fill="#F1F1F1" height="48" id="Roles" rx="2.5" ry="2.5" style="stroke:#181818;stroke-width:0.5;" width="68" x="775.5" y="310.1211"/><ellipse cx="790.5" cy="326.1211" fill="#ADD1B2" rx="11" ry="11" style="stroke:#181818;stroke-width:1.0;"/><path d="M793.2656,321.9961 Q793.4219,321.7773 793.6094,321.668 Q793.7969,321.5586 794.0156,321.5586 Q794.3906,321.5586 794.625,321.8242 Q794.8594,322.0742 794.8594,322.6836 L794.8594,324.1367 Q794.8594,324.7461 794.625,325.0117 Q794.3906,325.2773 794.0156,325.2773 Q793.6719,325.2773 793.4688,325.0742 Q793.2656,324.8867 793.1563,324.3711 Q793.1094,324.0117 792.9219,323.8242 Q792.5938,323.4492 791.9844,323.2305 Q791.375,323.0117 790.75,323.0117 Q789.9844,323.0117 789.3438,323.3398 Q788.7188,323.668 788.2188,324.418 Q787.7344,325.168 787.7344,326.1992 L787.7344,327.293 Q787.7344,328.5273 788.625,329.3555 Q789.5156,330.168 791.1094,330.168 Q792.0469,330.168 792.7031,329.918 Q793.0938,329.7617 793.5156,329.3242 Q793.7813,329.0586 793.9219,328.9805 Q794.0781,328.9023 794.2813,328.9023 Q794.6094,328.9023 794.8594,329.168 Q795.125,329.418 795.125,329.7617 Q795.125,330.1055 794.7813,330.5117 Q794.2813,331.0898 793.4844,331.418 Q792.4063,331.8711 791.1094,331.8711 Q789.5938,331.8711 788.3906,331.2461 Q787.4063,330.7461 786.7188,329.6836 Q786.0313,328.6055 786.0313,327.3242 L786.0313,326.168 Q786.0313,324.8398 786.6406,323.6992 Q787.2656,322.543 788.3594,321.9336 Q789.4531,321.3086 790.6875,321.3086 Q791.4219,321.3086 792.0625,321.4805 Q792.7188,321.6367 793.2656,321.9961 Z " fill="#000000"/><text fill="#000000" font-family="sans-serif" font-size="14" lengthAdjust="spacing" textLength="36" x="804.5" y="331.918">Roles</text><line style="stroke:#181818;stroke-width:0.5;" x1="776.5" x2="842.5" y1="342.1211" y2="342.1211"/><line style="stroke:#181818;stroke-width:0.5;" x1="776.5" x2="842.5" y1="350.1211" y2="350.1211"/></g><!--link AddVideoToShowProposalUI to AddVideoToShowProposalController--><g id="link_AddVideoToShowProposalUI_AddVideoToShowProposalController"><path codeLine="30" d="M659.5,113.6411 C659.5,132.0111 659.5,148.9111 659.5,167.3311 " fill="none" id="AddVideoToShowProposalUI-to-AddVideoToShowProposalController" style="stroke:#181818;stroke-width:1.0;"/><polygon fill="#181818" points="659.5,173.3311,663.5,164.3311,659.5,168.3311,655.5,164.3311,659.5,173.3311" style="stroke:#181818;stroke-width:1.0;"/></g><!--link AddVideoToShowProposalController to ShowProposalService--><g id="link_AddVideoToShowProposalController_ShowProposalService"><path codeLine="31" d="M580.68,240.6411 C535.97,259.0811 485.7262,279.8022 440.9962,298.2622 " fill="none" id="AddVideoToShowProposalController-to-ShowProposalService" style="stroke:#181818;stroke-width:1.0;"/><polygon fill="#181818" points="435.45,300.5511,445.2953,300.8152,440.0719,298.6437,442.2434,293.4202,435.45,300.5511" style="stroke:#181818;stroke-width:1.0;"/></g><!--link AddVideoToShowProposalController to AuthorizationService--><g id="link_AddVideoToShowProposalController_AuthorizationService"><path codeLine="32" d="M659.5,240.6411 C659.5,262.3411 659.5,284.3611 659.5,303.8411 " fill="none" id="AddVideoToShowProposalController-to-AuthorizationService" style="stroke:#181818;stroke-width:1.0;"/><polygon fill="#181818" points="659.5,309.8411,663.5,300.8411,659.5,304.8411,655.5,300.8411,659.5,309.8411" style="stroke:#181818;stroke-width:1.0;"/></g><!--link AddVideoToShowProposalController to Roles--><g id="link_AddVideoToShowProposalController_Roles"><path codeLine="33" d="M698.52,240.6411 C724.56,262.3411 753.5803,286.5204 776.9603,306.0004 " fill="none" id="AddVideoToShowProposalController-to-Roles" style="stroke:#181818;stroke-width:1.0;"/><polygon fill="#181818" points="781.57,309.8411,777.216,301.0069,777.7286,306.6405,772.095,307.1531,781.57,309.8411" style="stroke:#181818;stroke-width:1.0;"/></g><!--link ShowProposalService to ShowProposalRepository--><g id="link_ShowProposalService_ShowProposalRepository"><path codeLine="34" d="M315.89,367.9011 C293.62,385.8811 270.4583,404.5719 246.6783,423.7719 " fill="none" id="ShowProposalService-to-ShowProposalRepository" style="stroke:#181818;stroke-width:1.0;"/><polygon fill="#181818" points="242.01,427.5411,251.5253,424.9995,245.9003,424.4001,246.4997,418.7751,242.01,427.5411" style="stroke:#181818;stroke-width:1.0;"/></g><!--link ShowProposalService to ShowProposal--><g id="link_ShowProposalService_ShowProposal"><path codeLine="35" d="M397.11,367.9011 C419.38,385.8811 442.5417,404.5719 466.3217,423.7719 " fill="none" id="ShowProposalService-to-ShowProposal" style="stroke:#181818;stroke-width:1.0;"/><polygon fill="#181818" points="470.99,427.5411,466.5003,418.7751,467.0997,424.4001,461.4747,424.9995,470.99,427.5411" style="stroke:#181818;stroke-width:1.0;"/></g><!--link ShowProposal to ShowProposalID--><g id="link_ShowProposal_ShowProposalID"><path codeLine="36" d="M522.5,512.9211 C522.5,532.8411 522.5,549.9111 522.5,566.6111 " fill="none" id="ShowProposal-to-ShowProposalID" style="stroke:#181818;stroke-width:1.0;"/><polygon fill="#181818" points="522.5,572.6111,526.5,563.6111,522.5,567.6111,518.5,563.6111,522.5,572.6111" style="stroke:#181818;stroke-width:1.0;"/></g><!--SRC=[fLB1JiCm3BtdAtpi13qWn0MXIMYzL482hOnxMB8r8ekhn2qQY7-dIJlQqOvLuXJ9Vk_vsI-aI4jOQEuS98flBTz13Ali-ke6xeM0IWc9W1jmQbTgJWeD40Bb4WgB1Jgk6Li7UWr_yUXdp79yVsgxgnG-6S252DLe1hVmYgWbD-phR-O23LdKMjf6eIm49nc0qM5sAcgzZAmosyl6wuCoRp-rMJUZhvn9Mwcr7CXwxZ-bbx9-5A7TD-guIOKqf6WVzM5fuW_nMFXxSdtNRyqzpV5A7X5EZ0j3ug6xe26fssho0cbo2AMa7Atw29ct5sjRope_nzZ9mEDuVZPJTZPqhpAIsZJYgFj9p6QviU_osr2NzIJu4MZGhU_-3G00]--></g></svg>