<?xml version="1.0" encoding="us-ascii" standalone="no"?><svg xmlns="http://www.w3.org/2000/svg" xmlns:xlink="http://www.w3.org/1999/xlink" contentStyleType="text/css" height="589px" preserveAspectRatio="none" style="width:1181px;height:589px;background:#FFFFFF;" version="1.1" viewBox="0 0 1181 589" width="1181px" zoomAndPan="magnify"><defs/><g><text fill="#000000" font-family="sans-serif" font-size="14" font-weight="bold" lengthAdjust="spacing" textLength="468" x="357.75" y="30.1074">Sequence Diagram - US315 Add video of simulation to the proposal</text><rect fill="#FFFFFF" height="354.832" style="stroke:#181818;stroke-width:1.0;" width="10" x="59.5" y="133.2422"/><rect fill="#FFFFFF" height="331.541" style="stroke:#181818;stroke-width:1.0;" width="10" x="262.5" y="156.5332"/><rect fill="#FFFFFF" height="276.959" style="stroke:#181818;stroke-width:1.0;" width="10" x="502.5" y="187.8242"/><rect fill="#FFFFFF" height="245.668" style="stroke:#181818;stroke-width:1.0;" width="10" x="766.5" y="219.1152"/><rect fill="none" height="161.0859" style="stroke:#000000;stroke-width:1.5;" width="801" x="373.5" y="296.6973"/><line style="stroke:#181818;stroke-width:0.5;stroke-dasharray:5.0,5.0;" x1="64" x2="64" y1="123.2422" y2="506.0742"/><line style="stroke:#181818;stroke-width:0.5;stroke-dasharray:5.0,5.0;" x1="267.5" x2="267.5" y1="123.2422" y2="506.0742"/><line style="stroke:#181818;stroke-width:0.5;stroke-dasharray:5.0,5.0;" x1="507.5" x2="507.5" y1="123.2422" y2="506.0742"/><line style="stroke:#181818;stroke-width:0.5;stroke-dasharray:5.0,5.0;" x1="771" x2="771" y1="123.2422" y2="506.0742"/><line style="stroke:#181818;stroke-width:0.5;stroke-dasharray:5.0,5.0;" x1="958.5" x2="958.5" y1="123.2422" y2="506.0742"/><line style="stroke:#181818;stroke-width:0.5;stroke-dasharray:5.0,5.0;" x1="1110.5" x2="1110.5" y1="123.2422" y2="506.0742"/><text fill="#000000" font-family="sans-serif" font-size="14" lengthAdjust="spacing" textLength="113" x="5" y="119.7285">CRM Collaborator</text><ellipse cx="64.5" cy="53.1211" fill="#E2E2F0" rx="8" ry="8" style="stroke:#181818;stroke-width:0.5;"/><path d="M64.5,61.1211 L64.5,88.1211 M51.5,69.1211 L77.5,69.1211 M64.5,88.1211 L51.5,103.1211 M64.5,88.1211 L77.5,103.1211 " fill="none" style="stroke:#181818;stroke-width:0.5;"/><text fill="#000000" font-family="sans-serif" font-size="14" lengthAdjust="spacing" textLength="113" x="5" y="520.1816">CRM Collaborator</text><ellipse cx="64.5" cy="532.1953" fill="#E2E2F0" rx="8" ry="8" style="stroke:#181818;stroke-width:0.5;"/><path d="M64.5,540.1953 L64.5,567.1953 M51.5,548.1953 L77.5,548.1953 M64.5,567.1953 L51.5,582.1953 M64.5,567.1953 L77.5,582.1953 " fill="none" style="stroke:#181818;stroke-width:0.5;"/><rect fill="#E2E2F0" height="32.6211" rx="2.5" ry="2.5" style="stroke:#181818;stroke-width:0.5;" width="198" x="168.5" y="89.6211"/><text fill="#000000" font-family="sans-serif" font-size="14" lengthAdjust="spacing" textLength="184" x="175.5" y="111.7285">:AddVideoToShowProposalUI</text><rect fill="#E2E2F0" height="32.6211" rx="2.5" ry="2.5" style="stroke:#181818;stroke-width:0.5;" width="198" x="168.5" y="505.0742"/><text fill="#000000" font-family="sans-serif" font-size="14" lengthAdjust="spacing" textLength="184" x="175.5" y="527.1816">:AddVideoToShowProposalUI</text><rect fill="#E2E2F0" height="32.6211" rx="2.5" ry="2.5" style="stroke:#181818;stroke-width:0.5;" width="248" x="383.5" y="89.6211"/><text fill="#000000" font-family="sans-serif" font-size="14" lengthAdjust="spacing" textLength="234" x="390.5" y="111.7285">:AddVideoToShowProposalController</text><rect fill="#E2E2F0" height="32.6211" rx="2.5" ry="2.5" style="stroke:#181818;stroke-width:0.5;" width="248" x="383.5" y="505.0742"/><text fill="#000000" font-family="sans-serif" font-size="14" lengthAdjust="spacing" textLength="234" x="390.5" y="527.1816">:AddVideoToShowProposalController</text><rect fill="#E2E2F0" height="32.6211" rx="2.5" ry="2.5" style="stroke:#181818;stroke-width:0.5;" width="155" x="694" y="89.6211"/><text fill="#000000" font-family="sans-serif" font-size="14" lengthAdjust="spacing" textLength="141" x="701" y="111.7285">:ShowProposalService</text><rect fill="#E2E2F0" height="32.6211" rx="2.5" ry="2.5" style="stroke:#181818;stroke-width:0.5;" width="155" x="694" y="505.0742"/><text fill="#000000" font-family="sans-serif" font-size="14" lengthAdjust="spacing" textLength="141" x="701" y="527.1816">:ShowProposalService</text><rect fill="#E2E2F0" height="32.6211" rx="2.5" ry="2.5" style="stroke:#181818;stroke-width:0.5;" width="176" x="870.5" y="89.6211"/><text fill="#000000" font-family="sans-serif" font-size="14" lengthAdjust="spacing" textLength="162" x="877.5" y="111.7285">:ShowProposalRepository</text><rect fill="#E2E2F0" height="32.6211" rx="2.5" ry="2.5" style="stroke:#181818;stroke-width:0.5;" width="176" x="870.5" y="505.0742"/><text fill="#000000" font-family="sans-serif" font-size="14" lengthAdjust="spacing" textLength="162" x="877.5" y="527.1816">:ShowProposalRepository</text><rect fill="#E2E2F0" height="32.6211" rx="2.5" ry="2.5" style="stroke:#181818;stroke-width:0.5;" width="108" x="1056.5" y="89.6211"/><text fill="#000000" font-family="sans-serif" font-size="14" lengthAdjust="spacing" textLength="94" x="1063.5" y="111.7285">:ShowProposal</text><rect fill="#E2E2F0" height="32.6211" rx="2.5" ry="2.5" style="stroke:#181818;stroke-width:0.5;" width="108" x="1056.5" y="505.0742"/><text fill="#000000" font-family="sans-serif" font-size="14" lengthAdjust="spacing" textLength="94" x="1063.5" y="527.1816">:ShowProposal</text><rect fill="#FFFFFF" height="354.832" style="stroke:#181818;stroke-width:1.0;" width="10" x="59.5" y="133.2422"/><rect fill="#FFFFFF" height="331.541" style="stroke:#181818;stroke-width:1.0;" width="10" x="262.5" y="156.5332"/><rect fill="#FFFFFF" height="276.959" style="stroke:#181818;stroke-width:1.0;" width="10" x="502.5" y="187.8242"/><rect fill="#FFFFFF" height="245.668" style="stroke:#181818;stroke-width:1.0;" width="10" x="766.5" y="219.1152"/><polygon fill="#181818" points="250.5,152.5332,260.5,156.5332,250.5,160.5332,254.5,156.5332" style="stroke:#181818;stroke-width:1.0;"/><line style="stroke:#181818;stroke-width:1.0;" x1="69.5" x2="256.5" y1="156.5332" y2="156.5332"/><text fill="#000000" font-family="sans-serif" font-size="13" font-weight="bold" lengthAdjust="spacing" textLength="7" x="76.5" y="151.2705">1</text><text fill="#000000" font-family="sans-serif" font-size="13" lengthAdjust="spacing" textLength="78" x="87.5" y="151.2705">add video link</text><polygon fill="#181818" points="490.5,183.8242,500.5,187.8242,490.5,191.8242,494.5,187.8242" style="stroke:#181818;stroke-width:1.0;"/><line style="stroke:#181818;stroke-width:1.0;" x1="272.5" x2="496.5" y1="187.8242" y2="187.8242"/><text fill="#000000" font-family="sans-serif" font-size="13" font-weight="bold" lengthAdjust="spacing" textLength="7" x="279.5" y="182.5615">2</text><text fill="#000000" font-family="sans-serif" font-size="13" lengthAdjust="spacing" textLength="200" x="290.5" y="182.5615">updateVideo(proposalId, videoLink)</text><polygon fill="#181818" points="754.5,215.1152,764.5,219.1152,754.5,223.1152,758.5,219.1152" style="stroke:#181818;stroke-width:1.0;"/><line style="stroke:#181818;stroke-width:1.0;" x1="512.5" x2="760.5" y1="219.1152" y2="219.1152"/><text fill="#000000" font-family="sans-serif" font-size="13" font-weight="bold" lengthAdjust="spacing" textLength="7" x="519.5" y="213.8525">3</text><text fill="#000000" font-family="sans-serif" font-size="13" lengthAdjust="spacing" textLength="224" x="530.5" y="213.8525">updateVideoLink(proposalId, videoLink)</text><polygon fill="#181818" points="946.5,246.4063,956.5,250.4063,946.5,254.4063,950.5,250.4063" style="stroke:#181818;stroke-width:1.0;"/><line style="stroke:#181818;stroke-width:1.0;" x1="776.5" x2="952.5" y1="250.4063" y2="250.4063"/><text fill="#000000" font-family="sans-serif" font-size="13" font-weight="bold" lengthAdjust="spacing" textLength="7" x="783.5" y="245.1436">4</text><text fill="#000000" font-family="sans-serif" font-size="13" lengthAdjust="spacing" textLength="119" x="794.5" y="245.1436">ofIdentity(proposalId)</text><polygon fill="#181818" points="787.5,277.6973,777.5,281.6973,787.5,285.6973,783.5,281.6973" style="stroke:#181818;stroke-width:1.0;"/><line style="stroke:#181818;stroke-width:1.0;stroke-dasharray:2.0,2.0;" x1="781.5" x2="957.5" y1="281.6973" y2="281.6973"/><text fill="#000000" font-family="sans-serif" font-size="13" font-weight="bold" lengthAdjust="spacing" textLength="7" x="793.5" y="276.4346">5</text><text fill="#000000" font-family="sans-serif" font-size="13" lengthAdjust="spacing" textLength="147" x="804.5" y="276.4346">Optional&lt;ShowProposal&gt;</text><path d="M373.5,296.6973 L434.5,296.6973 L434.5,305.9883 L424.5,315.9883 L373.5,315.9883 L373.5,296.6973 " fill="#EEEEEE" style="stroke:#000000;stroke-width:1.5;"/><rect fill="none" height="161.0859" style="stroke:#000000;stroke-width:1.5;" width="801" x="373.5" y="296.6973"/><text fill="#000000" font-family="sans-serif" font-size="13" font-weight="bold" lengthAdjust="spacing" textLength="16" x="388.5" y="311.7256">alt</text><text fill="#000000" font-family="sans-serif" font-size="11" font-weight="bold" lengthAdjust="spacing" textLength="123" x="449.5" y="310.5674">[ShowProposal found]</text><polygon fill="#181818" points="1098.5,335.2793,1108.5,339.2793,1098.5,343.2793,1102.5,339.2793" style="stroke:#181818;stroke-width:1.0;"/><line style="stroke:#181818;stroke-width:1.0;" x1="776.5" x2="1104.5" y1="339.2793" y2="339.2793"/><text fill="#000000" font-family="sans-serif" font-size="13" font-weight="bold" lengthAdjust="spacing" textLength="7" x="783.5" y="334.0166">6</text><text fill="#000000" font-family="sans-serif" font-size="13" lengthAdjust="spacing" textLength="136" x="794.5" y="334.0166">setVideoLink(videoLink)</text><polygon fill="#181818" points="946.5,366.5703,956.5,370.5703,946.5,374.5703,950.5,370.5703" style="stroke:#181818;stroke-width:1.0;"/><line style="stroke:#181818;stroke-width:1.0;" x1="776.5" x2="952.5" y1="370.5703" y2="370.5703"/><text fill="#000000" font-family="sans-serif" font-size="13" font-weight="bold" lengthAdjust="spacing" textLength="7" x="783.5" y="365.3076">7</text><text fill="#000000" font-family="sans-serif" font-size="13" lengthAdjust="spacing" textLength="85" x="794.5" y="365.3076">save(Proposal)</text><polygon fill="#181818" points="787.5,397.8613,777.5,401.8613,787.5,405.8613,783.5,401.8613" style="stroke:#181818;stroke-width:1.0;"/><line style="stroke:#181818;stroke-width:1.0;stroke-dasharray:2.0,2.0;" x1="781.5" x2="957.5" y1="401.8613" y2="401.8613"/><text fill="#000000" font-family="sans-serif" font-size="13" font-weight="bold" lengthAdjust="spacing" textLength="7" x="793.5" y="396.5986">8</text><text fill="#000000" font-family="sans-serif" font-size="13" lengthAdjust="spacing" textLength="33" x="804.5" y="396.5986">saved</text><line style="stroke:#000000;stroke-width:1.0;stroke-dasharray:2.0,2.0;" x1="373.5" x2="1174.5" y1="410.8613" y2="410.8613"/><text fill="#000000" font-family="sans-serif" font-size="11" font-weight="bold" lengthAdjust="spacing" textLength="144" x="378.5" y="422.7314">[ShowProposal not found]</text><polygon fill="#181818" points="523.5,445.7832,513.5,449.7832,523.5,453.7832,519.5,449.7832" style="stroke:#181818;stroke-width:1.0;"/><line style="stroke:#181818;stroke-width:1.0;stroke-dasharray:2.0,2.0;" x1="517.5" x2="765.5" y1="449.7832" y2="449.7832"/><text fill="#000000" font-family="sans-serif" font-size="13" font-weight="bold" lengthAdjust="spacing" textLength="7" x="529.5" y="444.5205">9</text><text fill="#000000" font-family="sans-serif" font-size="13" lengthAdjust="spacing" textLength="164" x="540.5" y="444.5205">throws IllegalStateException</text><polygon fill="#181818" points="75.5,484.0742,65.5,488.0742,75.5,492.0742,71.5,488.0742" style="stroke:#181818;stroke-width:1.0;"/><line style="stroke:#181818;stroke-width:1.0;stroke-dasharray:2.0,2.0;" x1="69.5" x2="266.5" y1="488.0742" y2="488.0742"/><text fill="#000000" font-family="sans-serif" font-size="13" font-weight="bold" lengthAdjust="spacing" textLength="14" x="81.5" y="482.8115">10</text><text fill="#000000" font-family="sans-serif" font-size="13" lengthAdjust="spacing" textLength="151" x="99.5" y="482.8115">success or error message</text><!--SRC=[ZLDDJm8n4BtlhvXmqaGEndWXniIWXqqq4X3lTNU0nj9PsrdKV- -qmcwBYFO0s_Pzp9kTPSq6OOPlBTeAuLQhfLDh6C9yTd5-2JTr3HjT8m4jmEjrQnHhii04l49e73NabIaArJBPTls2Jfuh9WU3yVG1ncICUY6dv6G0oeCS5eroh2lTACim68d5St1uejcAtYTRnNaPuVFoN-WnMNPYXLkJRhl7JZapT1jTOIHidu-WfoX_Mb9yHaBO7a57pAHlJiLwenXZ-j2MuRKaWn6ehhr6szSU9x4Ba2KWWVPnXD8sjI1Y3qvsxI_his-PUr4vZSpUikz5l0Wh4HJvRVXSEoWTqyyyTkthRiBQoOf3w9R8qwAiqRBcpqJvD2D5v30hwh494wVCLThWwznB6ORq6XRKsZg3x9NK8KVWaVl81sB-7iYh3Pxib7uI3eG9ZBmkD1xpsYtnN_Nl3mMl7BrxA6MxbCbcUIbt7nN6pkLkejeTr7Zu3IRdwVI4OGp6ChyIfAqgz1xaGqVdv7SjExN48Y7B5ATICljV]--></g></svg>