<svg xmlns="http://www.w3.org/2000/svg" xmlns:xlink="http://www.w3.org/1999/xlink" contentStyleType="text/css" height="777px" preserveAspectRatio="none" style="width:1491px;height:777px;background:#FFFFFF;" version="1.1" viewBox="0 0 1491 777" width="1491px" zoomAndPan="magnify"><defs/><g><!--class EditMaintenanceTypeAction--><g id="elem_EditMaintenanceTypeAction"><rect codeLine="11" fill="#F1F1F1" height="48" id="EditMaintenanceTypeAction" rx="2.5" ry="2.5" style="stroke:#181818;stroke-width:0.5;" width="206.3232" x="7" y="7"/><ellipse cx="22" cy="23" fill="#ADD1B2" rx="11" ry="11" style="stroke:#181818;stroke-width:1.0;"/><path d="M24.7656,18.875 Q24.9219,18.6563 25.1094,18.5469 Q25.2969,18.4375 25.5156,18.4375 Q25.8906,18.4375 26.125,18.7031 Q26.3594,18.9531 26.3594,19.5625 L26.3594,21.0156 Q26.3594,21.625 26.125,21.8906 Q25.8906,22.1563 25.5156,22.1563 Q25.1719,22.1563 24.9688,21.9531 Q24.7656,21.7656 24.6563,21.25 Q24.6094,20.8906 24.4219,20.7031 Q24.0938,20.3281 23.4844,20.1094 Q22.875,19.8906 22.25,19.8906 Q21.4844,19.8906 20.8438,20.2188 Q20.2188,20.5469 19.7188,21.2969 Q19.2344,22.0469 19.2344,23.0781 L19.2344,24.1719 Q19.2344,25.4063 20.125,26.2344 Q21.0156,27.0469 22.6094,27.0469 Q23.5469,27.0469 24.2031,26.7969 Q24.5938,26.6406 25.0156,26.2031 Q25.2813,25.9375 25.4219,25.8594 Q25.5781,25.7813 25.7813,25.7813 Q26.1094,25.7813 26.3594,26.0469 Q26.625,26.2969 26.625,26.6406 Q26.625,26.9844 26.2813,27.3906 Q25.7813,27.9688 24.9844,28.2969 Q23.9063,28.75 22.6094,28.75 Q21.0938,28.75 19.8906,28.125 Q18.9063,27.625 18.2188,26.5625 Q17.5313,25.4844 17.5313,24.2031 L17.5313,23.0469 Q17.5313,21.7188 18.1406,20.5781 Q18.7656,19.4219 19.8594,18.8125 Q20.9531,18.1875 22.1875,18.1875 Q22.9219,18.1875 23.5625,18.3594 Q24.2188,18.5156 24.7656,18.875 Z " fill="#000000"/><text fill="#000000" font-family="sans-serif" font-size="14" lengthAdjust="spacing" textLength="174.3232" x="36" y="28.7969">EditMaintenanceTypeAction</text><line style="stroke:#181818;stroke-width:0.5;" x1="8" x2="212.3232" y1="39" y2="39"/><line style="stroke:#181818;stroke-width:0.5;" x1="8" x2="212.3232" y1="47" y2="47"/></g><!--class EditMaintenanceTypeUI--><g id="elem_EditMaintenanceTypeUI"><rect codeLine="14" fill="#F1F1F1" height="48" id="EditMaintenanceTypeUI" rx="2.5" ry="2.5" style="stroke:#181818;stroke-width:0.5;" width="181.4131" x="248.5" y="7"/><ellipse cx="263.5" cy="23" fill="#ADD1B2" rx="11" ry="11" style="stroke:#181818;stroke-width:1.0;"/><path d="M266.2656,18.875 Q266.4219,18.6563 266.6094,18.5469 Q266.7969,18.4375 267.0156,18.4375 Q267.3906,18.4375 267.625,18.7031 Q267.8594,18.9531 267.8594,19.5625 L267.8594,21.0156 Q267.8594,21.625 267.625,21.8906 Q267.3906,22.1563 267.0156,22.1563 Q266.6719,22.1563 266.4688,21.9531 Q266.2656,21.7656 266.1563,21.25 Q266.1094,20.8906 265.9219,20.7031 Q265.5938,20.3281 264.9844,20.1094 Q264.375,19.8906 263.75,19.8906 Q262.9844,19.8906 262.3438,20.2188 Q261.7188,20.5469 261.2188,21.2969 Q260.7344,22.0469 260.7344,23.0781 L260.7344,24.1719 Q260.7344,25.4063 261.625,26.2344 Q262.5156,27.0469 264.1094,27.0469 Q265.0469,27.0469 265.7031,26.7969 Q266.0938,26.6406 266.5156,26.2031 Q266.7813,25.9375 266.9219,25.8594 Q267.0781,25.7813 267.2813,25.7813 Q267.6094,25.7813 267.8594,26.0469 Q268.125,26.2969 268.125,26.6406 Q268.125,26.9844 267.7813,27.3906 Q267.2813,27.9688 266.4844,28.2969 Q265.4063,28.75 264.1094,28.75 Q262.5938,28.75 261.3906,28.125 Q260.4063,27.625 259.7188,26.5625 Q259.0313,25.4844 259.0313,24.2031 L259.0313,23.0469 Q259.0313,21.7188 259.6406,20.5781 Q260.2656,19.4219 261.3594,18.8125 Q262.4531,18.1875 263.6875,18.1875 Q264.4219,18.1875 265.0625,18.3594 Q265.7188,18.5156 266.2656,18.875 Z " fill="#000000"/><text fill="#000000" font-family="sans-serif" font-size="14" lengthAdjust="spacing" textLength="149.4131" x="277.5" y="28.7969">EditMaintenanceTypeUI</text><line style="stroke:#181818;stroke-width:0.5;" x1="249.5" x2="428.9131" y1="39" y2="39"/><line style="stroke:#181818;stroke-width:0.5;" x1="249.5" x2="428.9131" y1="47" y2="47"/></g><!--class EditMaintenanceTypeController--><g id="elem_EditMaintenanceTypeController"><rect codeLine="17" fill="#F1F1F1" height="141.1055" id="EditMaintenanceTypeController" rx="2.5" ry="2.5" style="stroke:#181818;stroke-width:0.5;" width="501.8633" x="88" y="124.5"/><ellipse cx="236.6304" cy="140.5" fill="#ADD1B2" rx="11" ry="11" style="stroke:#181818;stroke-width:1.0;"/><path d="M239.396,136.375 Q239.5522,136.1563 239.7397,136.0469 Q239.9272,135.9375 240.146,135.9375 Q240.521,135.9375 240.7554,136.2031 Q240.9897,136.4531 240.9897,137.0625 L240.9897,138.5156 Q240.9897,139.125 240.7554,139.3906 Q240.521,139.6563 240.146,139.6563 Q239.8022,139.6563 239.5991,139.4531 Q239.396,139.2656 239.2866,138.75 Q239.2397,138.3906 239.0522,138.2031 Q238.7241,137.8281 238.1147,137.6094 Q237.5054,137.3906 236.8804,137.3906 Q236.1147,137.3906 235.4741,137.7188 Q234.8491,138.0469 234.3491,138.7969 Q233.8647,139.5469 233.8647,140.5781 L233.8647,141.6719 Q233.8647,142.9063 234.7554,143.7344 Q235.646,144.5469 237.2397,144.5469 Q238.1772,144.5469 238.8335,144.2969 Q239.2241,144.1406 239.646,143.7031 Q239.9116,143.4375 240.0522,143.3594 Q240.2085,143.2813 240.4116,143.2813 Q240.7397,143.2813 240.9897,143.5469 Q241.2554,143.7969 241.2554,144.1406 Q241.2554,144.4844 240.9116,144.8906 Q240.4116,145.4688 239.6147,145.7969 Q238.5366,146.25 237.2397,146.25 Q235.7241,146.25 234.521,145.625 Q233.5366,145.125 232.8491,144.0625 Q232.1616,142.9844 232.1616,141.7031 L232.1616,140.5469 Q232.1616,139.2188 232.771,138.0781 Q233.396,136.9219 234.4897,136.3125 Q235.5835,135.6875 236.8179,135.6875 Q237.5522,135.6875 238.1929,135.8594 Q238.8491,136.0156 239.396,136.375 Z " fill="#000000"/><text fill="#000000" font-family="sans-serif" font-size="14" lengthAdjust="spacing" textLength="196.1025" x="257.1304" y="146.2969">EditMaintenanceTypeController</text><line style="stroke:#181818;stroke-width:0.5;" x1="89" x2="588.8633" y1="156.5" y2="156.5"/><text fill="#000000" font-family="sans-serif" font-size="14" lengthAdjust="spacing" textLength="307.3779" x="94" y="175.6074">-AuthorizationService : authzAuthorizationService</text><text fill="#000000" font-family="sans-serif" font-size="14" lengthAdjust="spacing" textLength="203.0752" x="94" y="194.2285">-service : DroneInventoryService</text><line style="stroke:#181818;stroke-width:0.5;" x1="89" x2="588.8633" y1="201.7422" y2="201.7422"/><text fill="#000000" font-family="sans-serif" font-size="14" lengthAdjust="spacing" textLength="416.7598" x="94" y="220.8496">+findMaintenanceTypeById(Long id) : Optional&lt;MaintenanceType&gt;</text><text fill="#000000" font-family="sans-serif" font-size="14" lengthAdjust="spacing" textLength="463.4492" x="94" y="239.4707">+canEditMaintenanceType(MaintenanceType maintenanceType) : boolean</text><text fill="#000000" font-family="sans-serif" font-size="14" lengthAdjust="spacing" textLength="489.8633" x="94" y="258.0918">+editMaintenanceType(Long id, String newName, String newDescription) : void</text></g><!--class DroneInventoryService--><g id="elem_DroneInventoryService"><rect codeLine="25" fill="#F1F1F1" height="159.7266" id="DroneInventoryService" rx="2.5" ry="2.5" style="stroke:#181818;stroke-width:0.5;" width="533.0078" x="625.5" y="115"/><ellipse cx="816.5542" cy="131" fill="#ADD1B2" rx="11" ry="11" style="stroke:#181818;stroke-width:1.0;"/><path d="M819.3198,126.875 Q819.4761,126.6563 819.6636,126.5469 Q819.8511,126.4375 820.0698,126.4375 Q820.4448,126.4375 820.6792,126.7031 Q820.9136,126.9531 820.9136,127.5625 L820.9136,129.0156 Q820.9136,129.625 820.6792,129.8906 Q820.4448,130.1563 820.0698,130.1563 Q819.7261,130.1563 819.5229,129.9531 Q819.3198,129.7656 819.2104,129.25 Q819.1636,128.8906 818.9761,128.7031 Q818.6479,128.3281 818.0386,128.1094 Q817.4292,127.8906 816.8042,127.8906 Q816.0386,127.8906 815.3979,128.2188 Q814.7729,128.5469 814.2729,129.2969 Q813.7886,130.0469 813.7886,131.0781 L813.7886,132.1719 Q813.7886,133.4063 814.6792,134.2344 Q815.5698,135.0469 817.1636,135.0469 Q818.1011,135.0469 818.7573,134.7969 Q819.1479,134.6406 819.5698,134.2031 Q819.8354,133.9375 819.9761,133.8594 Q820.1323,133.7813 820.3354,133.7813 Q820.6636,133.7813 820.9136,134.0469 Q821.1792,134.2969 821.1792,134.6406 Q821.1792,134.9844 820.8354,135.3906 Q820.3354,135.9688 819.5386,136.2969 Q818.4604,136.75 817.1636,136.75 Q815.6479,136.75 814.4448,136.125 Q813.4604,135.625 812.7729,134.5625 Q812.0854,133.4844 812.0854,132.2031 L812.0854,131.0469 Q812.0854,129.7188 812.6948,128.5781 Q813.3198,127.4219 814.4136,126.8125 Q815.5073,126.1875 816.7417,126.1875 Q817.4761,126.1875 818.1167,126.3594 Q818.7729,126.5156 819.3198,126.875 Z " fill="#000000"/><text fill="#000000" font-family="sans-serif" font-size="14" lengthAdjust="spacing" textLength="142.3994" x="837.0542" y="136.7969">DroneInventoryService</text><line style="stroke:#181818;stroke-width:0.5;" x1="626.5" x2="1157.5078" y1="147" y2="147"/><text fill="#000000" font-family="sans-serif" font-size="14" lengthAdjust="spacing" textLength="280.123" x="631.5" y="166.1074">-categoryRepository : DroneModelRepository</text><text fill="#000000" font-family="sans-serif" font-size="14" lengthAdjust="spacing" textLength="224.1025" x="631.5" y="184.7285">-droneRepository : DroneRepository</text><text fill="#000000" font-family="sans-serif" font-size="14" lengthAdjust="spacing" textLength="372.7432" x="631.5" y="203.3496">-maintenanceTypeRepository : MaintenanceTypeRepository</text><line style="stroke:#181818;stroke-width:0.5;" x1="626.5" x2="1157.5078" y1="210.8633" y2="210.8633"/><text fill="#000000" font-family="sans-serif" font-size="14" lengthAdjust="spacing" textLength="489.8633" x="631.5" y="229.9707">+editMaintenanceType(Long id, String newName, String newDescription) : void</text><text fill="#000000" font-family="sans-serif" font-size="14" lengthAdjust="spacing" textLength="416.7598" x="631.5" y="248.5918">+findMaintenanceTypeById(Long id) : Optional&lt;MaintenanceType&gt;</text><text fill="#000000" font-family="sans-serif" font-size="14" lengthAdjust="spacing" textLength="521.0078" x="631.5" y="267.2129">+existsMaintenanceRecordsByType(MaintenanceType maintenanceType) : boolean</text></g><!--class JpaMaintenanceTypeRepository--><g id="elem_JpaMaintenanceTypeRepository"><rect codeLine="34" fill="#F1F1F1" height="103.8633" id="JpaMaintenanceTypeRepository" rx="2.5" ry="2.5" style="stroke:#181818;stroke-width:0.5;" width="291.7607" x="984" y="335"/><ellipse cx="1025.5421" cy="351" fill="#ADD1B2" rx="11" ry="11" style="stroke:#181818;stroke-width:1.0;"/><path d="M1028.3077,346.875 Q1028.464,346.6563 1028.6515,346.5469 Q1028.839,346.4375 1029.0577,346.4375 Q1029.4327,346.4375 1029.6671,346.7031 Q1029.9015,346.9531 1029.9015,347.5625 L1029.9015,349.0156 Q1029.9015,349.625 1029.6671,349.8906 Q1029.4327,350.1563 1029.0577,350.1563 Q1028.714,350.1563 1028.5108,349.9531 Q1028.3077,349.7656 1028.1983,349.25 Q1028.1515,348.8906 1027.964,348.7031 Q1027.6358,348.3281 1027.0265,348.1094 Q1026.4171,347.8906 1025.7921,347.8906 Q1025.0265,347.8906 1024.3858,348.2188 Q1023.7608,348.5469 1023.2608,349.2969 Q1022.7765,350.0469 1022.7765,351.0781 L1022.7765,352.1719 Q1022.7765,353.4063 1023.6671,354.2344 Q1024.5577,355.0469 1026.1515,355.0469 Q1027.089,355.0469 1027.7452,354.7969 Q1028.1358,354.6406 1028.5577,354.2031 Q1028.8233,353.9375 1028.964,353.8594 Q1029.1202,353.7813 1029.3233,353.7813 Q1029.6515,353.7813 1029.9015,354.0469 Q1030.1671,354.2969 1030.1671,354.6406 Q1030.1671,354.9844 1029.8233,355.3906 Q1029.3233,355.9688 1028.5265,356.2969 Q1027.4483,356.75 1026.1515,356.75 Q1024.6358,356.75 1023.4327,356.125 Q1022.4483,355.625 1021.7608,354.5625 Q1021.0733,353.4844 1021.0733,352.2031 L1021.0733,351.0469 Q1021.0733,349.7188 1021.6827,348.5781 Q1022.3077,347.4219 1023.4015,346.8125 Q1024.4952,346.1875 1025.7296,346.1875 Q1026.464,346.1875 1027.1046,346.3594 Q1027.7608,346.5156 1028.3077,346.875 Z " fill="#000000"/><text fill="#000000" font-family="sans-serif" font-size="14" lengthAdjust="spacing" textLength="200.7783" x="1045.4403" y="356.7969">JpaMaintenanceTypeRepository</text><line style="stroke:#181818;stroke-width:0.5;" x1="985" x2="1274.7607" y1="367" y2="367"/><line style="stroke:#181818;stroke-width:0.5;" x1="985" x2="1274.7607" y1="375" y2="375"/><text fill="#000000" font-family="sans-serif" font-size="14" lengthAdjust="spacing" textLength="268.8711" x="990" y="394.1074">+JpaMaintenanceTypeRepository(puname)</text><text fill="#000000" font-family="sans-serif" font-size="14" lengthAdjust="spacing" textLength="261.0781" x="990" y="412.7285">+JpaMaintenanceTypeRepository(autoTx)</text><text fill="#000000" font-family="sans-serif" font-size="14" lengthAdjust="spacing" textLength="279.7607" x="990" y="431.3496">+findAllTypes() : Iterable&lt;MaintenanceType&gt;</text></g><!--class JpaRepositoryFactory--><g id="elem_JpaRepositoryFactory"><rect codeLine="40" fill="#F1F1F1" height="85.2422" id="JpaRepositoryFactory" rx="2.5" ry="2.5" style="stroke:#181818;stroke-width:0.5;" width="375.8018" x="527" y="592"/><ellipse cx="642.5684" cy="608" fill="#ADD1B2" rx="11" ry="11" style="stroke:#181818;stroke-width:1.0;"/><path d="M645.334,603.875 Q645.4902,603.6563 645.6777,603.5469 Q645.8652,603.4375 646.084,603.4375 Q646.459,603.4375 646.6934,603.7031 Q646.9277,603.9531 646.9277,604.5625 L646.9277,606.0156 Q646.9277,606.625 646.6934,606.8906 Q646.459,607.1563 646.084,607.1563 Q645.7402,607.1563 645.5371,606.9531 Q645.334,606.7656 645.2246,606.25 Q645.1777,605.8906 644.9902,605.7031 Q644.6621,605.3281 644.0527,605.1094 Q643.4434,604.8906 642.8184,604.8906 Q642.0527,604.8906 641.4121,605.2188 Q640.7871,605.5469 640.2871,606.2969 Q639.8027,607.0469 639.8027,608.0781 L639.8027,609.1719 Q639.8027,610.4063 640.6934,611.2344 Q641.584,612.0469 643.1777,612.0469 Q644.1152,612.0469 644.7715,611.7969 Q645.1621,611.6406 645.584,611.2031 Q645.8496,610.9375 645.9902,610.8594 Q646.1465,610.7813 646.3496,610.7813 Q646.6777,610.7813 646.9277,611.0469 Q647.1934,611.2969 647.1934,611.6406 Q647.1934,611.9844 646.8496,612.3906 Q646.3496,612.9688 645.5527,613.2969 Q644.4746,613.75 643.1777,613.75 Q641.6621,613.75 640.459,613.125 Q639.4746,612.625 638.7871,611.5625 Q638.0996,610.4844 638.0996,609.2031 L638.0996,608.0469 Q638.0996,606.7188 638.709,605.5781 Q639.334,604.4219 640.4277,603.8125 Q641.5215,603.1875 642.7559,603.1875 Q643.4902,603.1875 644.1309,603.3594 Q644.7871,603.5156 645.334,603.875 Z " fill="#000000"/><text fill="#000000" font-family="sans-serif" font-size="14" lengthAdjust="spacing" textLength="136.165" x="663.0684" y="613.7969">JpaRepositoryFactory</text><line style="stroke:#181818;stroke-width:0.5;" x1="528" x2="901.8018" y1="624" y2="624"/><line style="stroke:#181818;stroke-width:0.5;" x1="528" x2="901.8018" y1="632" y2="632"/><text fill="#000000" font-family="sans-serif" font-size="14" lengthAdjust="spacing" textLength="318.6641" x="533" y="651.1074">+maintenanceType() : MaintenanceTypeRepository</text><text fill="#000000" font-family="sans-serif" font-size="14" lengthAdjust="spacing" textLength="363.8018" x="533" y="669.7285">+maintenanceType(autoTX) : MaintenanceTypeRepository</text></g><!--class MaintenanceType--><g id="elem_MaintenanceType"><rect codeLine="45" fill="#F1F1F1" height="271.4531" id="MaintenanceType" rx="2.5" ry="2.5" style="stroke:#181818;stroke-width:0.5;" width="247.4023" x="1237.5" y="499"/><ellipse cx="1301.3066" cy="515" fill="#ADD1B2" rx="11" ry="11" style="stroke:#181818;stroke-width:1.0;"/><path d="M1304.0723,510.875 Q1304.2285,510.6563 1304.416,510.5469 Q1304.6035,510.4375 1304.8223,510.4375 Q1305.1973,510.4375 1305.4316,510.7031 Q1305.666,510.9531 1305.666,511.5625 L1305.666,513.0156 Q1305.666,513.625 1305.4316,513.8906 Q1305.1973,514.1563 1304.8223,514.1563 Q1304.4785,514.1563 1304.2754,513.9531 Q1304.0723,513.7656 1303.9629,513.25 Q1303.916,512.8906 1303.7285,512.7031 Q1303.4004,512.3281 1302.791,512.1094 Q1302.1816,511.8906 1301.5566,511.8906 Q1300.791,511.8906 1300.1504,512.2188 Q1299.5254,512.5469 1299.0254,513.2969 Q1298.541,514.0469 1298.541,515.0781 L1298.541,516.1719 Q1298.541,517.4063 1299.4316,518.2344 Q1300.3223,519.0469 1301.916,519.0469 Q1302.8535,519.0469 1303.5098,518.7969 Q1303.9004,518.6406 1304.3223,518.2031 Q1304.5879,517.9375 1304.7285,517.8594 Q1304.8848,517.7813 1305.0879,517.7813 Q1305.416,517.7813 1305.666,518.0469 Q1305.9316,518.2969 1305.9316,518.6406 Q1305.9316,518.9844 1305.5879,519.3906 Q1305.0879,519.9688 1304.291,520.2969 Q1303.2129,520.75 1301.916,520.75 Q1300.4004,520.75 1299.1973,520.125 Q1298.2129,519.625 1297.5254,518.5625 Q1296.8379,517.4844 1296.8379,516.2031 L1296.8379,515.0469 Q1296.8379,513.7188 1297.4473,512.5781 Q1298.0723,511.4219 1299.166,510.8125 Q1300.2598,510.1875 1301.4941,510.1875 Q1302.2285,510.1875 1302.8691,510.3594 Q1303.5254,510.5156 1304.0723,510.875 Z " fill="#000000"/><text fill="#000000" font-family="sans-serif" font-size="14" lengthAdjust="spacing" textLength="111.2891" x="1321.8066" y="520.7969">MaintenanceType</text><line style="stroke:#181818;stroke-width:0.5;" x1="1238.5" x2="1483.9023" y1="531" y2="531"/><text fill="#000000" font-family="sans-serif" font-size="14" lengthAdjust="spacing" textLength="15.5586" x="1243.5" y="550.1074">-id</text><text fill="#000000" font-family="sans-serif" font-size="14" lengthAdjust="spacing" textLength="39.6826" x="1243.5" y="568.7285">-name</text><text fill="#000000" font-family="sans-serif" font-size="14" lengthAdjust="spacing" textLength="72.3652" x="1243.5" y="587.3496">-description</text><line style="stroke:#181818;stroke-width:0.5;" x1="1238.5" x2="1483.9023" y1="594.8633" y2="594.8633"/><text fill="#000000" font-family="sans-serif" font-size="14" lengthAdjust="spacing" textLength="235.4023" x="1243.5" y="613.9707">+MaintenanceType(name,description)</text><text fill="#000000" font-family="sans-serif" font-size="14" lengthAdjust="spacing" textLength="128.7891" x="1243.5" y="632.5918">+MaintenanceType()</text><text fill="#000000" font-family="sans-serif" font-size="14" lengthAdjust="spacing" textLength="100.7617" x="1243.5" y="651.2129">+name() : String</text><text fill="#000000" font-family="sans-serif" font-size="14" lengthAdjust="spacing" textLength="133.4443" x="1243.5" y="669.834">+description() : String</text><text fill="#000000" font-family="sans-serif" font-size="14" lengthAdjust="spacing" textLength="205.8301" x="1243.5" y="688.4551">+sameAs(Object other) : boolean</text><text fill="#000000" font-family="sans-serif" font-size="14" lengthAdjust="spacing" textLength="104.6719" x="1243.5" y="707.0762">+identity() : Long</text><text fill="#000000" font-family="sans-serif" font-size="14" lengthAdjust="spacing" textLength="107.7822" x="1243.5" y="725.6973">+hashCode() : int</text><text fill="#000000" font-family="sans-serif" font-size="14" lengthAdjust="spacing" textLength="172.3887" x="1243.5" y="744.3184">+equals(Object o) : boolean</text><text fill="#000000" font-family="sans-serif" font-size="14" lengthAdjust="spacing" textLength="113.9893" x="1243.5" y="762.9395">+toString() : String</text></g><!--class JpaDroneRepository--><g id="elem_JpaDroneRepository"><rect codeLine="62" fill="#F1F1F1" height="103.8633" id="JpaDroneRepository" rx="2.5" ry="2.5" style="stroke:#181818;stroke-width:0.5;" width="589.8076" x="359" y="335"/><ellipse cx="585.8438" cy="351" fill="#ADD1B2" rx="11" ry="11" style="stroke:#181818;stroke-width:1.0;"/><path d="M588.6094,346.875 Q588.7656,346.6563 588.9531,346.5469 Q589.1406,346.4375 589.3594,346.4375 Q589.7344,346.4375 589.9688,346.7031 Q590.2031,346.9531 590.2031,347.5625 L590.2031,349.0156 Q590.2031,349.625 589.9688,349.8906 Q589.7344,350.1563 589.3594,350.1563 Q589.0156,350.1563 588.8125,349.9531 Q588.6094,349.7656 588.5,349.25 Q588.4531,348.8906 588.2656,348.7031 Q587.9375,348.3281 587.3281,348.1094 Q586.7188,347.8906 586.0938,347.8906 Q585.3281,347.8906 584.6875,348.2188 Q584.0625,348.5469 583.5625,349.2969 Q583.0781,350.0469 583.0781,351.0781 L583.0781,352.1719 Q583.0781,353.4063 583.9688,354.2344 Q584.8594,355.0469 586.4531,355.0469 Q587.3906,355.0469 588.0469,354.7969 Q588.4375,354.6406 588.8594,354.2031 Q589.125,353.9375 589.2656,353.8594 Q589.4219,353.7813 589.625,353.7813 Q589.9531,353.7813 590.2031,354.0469 Q590.4688,354.2969 590.4688,354.6406 Q590.4688,354.9844 590.125,355.3906 Q589.625,355.9688 588.8281,356.2969 Q587.75,356.75 586.4531,356.75 Q584.9375,356.75 583.7344,356.125 Q582.75,355.625 582.0625,354.5625 Q581.375,353.4844 581.375,352.2031 L581.375,351.0469 Q581.375,349.7188 581.9844,348.5781 Q582.6094,347.4219 583.7031,346.8125 Q584.7969,346.1875 586.0313,346.1875 Q586.7656,346.1875 587.4063,346.3594 Q588.0625,346.5156 588.6094,346.875 Z " fill="#000000"/><text fill="#000000" font-family="sans-serif" font-size="14" lengthAdjust="spacing" textLength="127.6201" x="606.3438" y="356.7969">JpaDroneRepository</text><line style="stroke:#181818;stroke-width:0.5;" x1="360" x2="947.8076" y1="367" y2="367"/><line style="stroke:#181818;stroke-width:0.5;" x1="360" x2="947.8076" y1="375" y2="375"/><text fill="#000000" font-family="sans-serif" font-size="14" lengthAdjust="spacing" textLength="265.7471" x="365" y="394.1074">+JpaDroneRepository(final String puname)</text><text fill="#000000" font-family="sans-serif" font-size="14" lengthAdjust="spacing" textLength="353.6709" x="365" y="412.7285">+JpaDroneRepository(final TransactionalContext autoTx)</text><text fill="#000000" font-family="sans-serif" font-size="14" lengthAdjust="spacing" textLength="577.8076" x="365" y="431.3496">+existsMaintenanceRecordsByType(MaintenanceType maintenanceType) : Optional&lt;Drone&gt;</text></g><!--class Drone--><g id="elem_Drone"><rect codeLine="68" fill="#F1F1F1" height="271.4531" id="Drone" rx="2.5" ry="2.5" style="stroke:#181818;stroke-width:0.5;" width="377.374" x="114.5" y="499"/><ellipse cx="279.8716" cy="515" fill="#ADD1B2" rx="11" ry="11" style="stroke:#181818;stroke-width:1.0;"/><path d="M282.6372,510.875 Q282.7935,510.6563 282.981,510.5469 Q283.1685,510.4375 283.3872,510.4375 Q283.7622,510.4375 283.9966,510.7031 Q284.231,510.9531 284.231,511.5625 L284.231,513.0156 Q284.231,513.625 283.9966,513.8906 Q283.7622,514.1563 283.3872,514.1563 Q283.0435,514.1563 282.8403,513.9531 Q282.6372,513.7656 282.5278,513.25 Q282.481,512.8906 282.2935,512.7031 Q281.9653,512.3281 281.356,512.1094 Q280.7466,511.8906 280.1216,511.8906 Q279.356,511.8906 278.7153,512.2188 Q278.0903,512.5469 277.5903,513.2969 Q277.106,514.0469 277.106,515.0781 L277.106,516.1719 Q277.106,517.4063 277.9966,518.2344 Q278.8872,519.0469 280.481,519.0469 Q281.4185,519.0469 282.0747,518.7969 Q282.4653,518.6406 282.8872,518.2031 Q283.1528,517.9375 283.2935,517.8594 Q283.4497,517.7813 283.6528,517.7813 Q283.981,517.7813 284.231,518.0469 Q284.4966,518.2969 284.4966,518.6406 Q284.4966,518.9844 284.1528,519.3906 Q283.6528,519.9688 282.856,520.2969 Q281.7778,520.75 280.481,520.75 Q278.9653,520.75 277.7622,520.125 Q276.7778,519.625 276.0903,518.5625 Q275.4028,517.4844 275.4028,516.2031 L275.4028,515.0469 Q275.4028,513.7188 276.0122,512.5781 Q276.6372,511.4219 277.731,510.8125 Q278.8247,510.1875 280.0591,510.1875 Q280.7935,510.1875 281.4341,510.3594 Q282.0903,510.5156 282.6372,510.875 Z " fill="#000000"/><text fill="#000000" font-family="sans-serif" font-size="14" lengthAdjust="spacing" textLength="38.1309" x="300.3716" y="520.7969">Drone</text><line style="stroke:#181818;stroke-width:0.5;" x1="115.5" x2="490.874" y1="531" y2="531"/><text fill="#000000" font-family="sans-serif" font-size="14" lengthAdjust="spacing" textLength="15.5586" x="120.5" y="550.1074">-id</text><text fill="#000000" font-family="sans-serif" font-size="14" lengthAdjust="spacing" textLength="77.8135" x="120.5" y="568.7285">-droneName</text><text fill="#000000" font-family="sans-serif" font-size="14" lengthAdjust="spacing" textLength="42.793" x="120.5" y="587.3496">-model</text><text fill="#000000" font-family="sans-serif" font-size="14" lengthAdjust="spacing" textLength="100.3857" x="120.5" y="605.9707">-acquisitionDate</text><text fill="#000000" font-family="sans-serif" font-size="14" lengthAdjust="spacing" textLength="42.0137" x="120.5" y="624.5918">-status</text><text fill="#000000" font-family="sans-serif" font-size="14" lengthAdjust="spacing" textLength="102.71" x="120.5" y="643.2129">-removalReason</text><text fill="#000000" font-family="sans-serif" font-size="14" lengthAdjust="spacing" textLength="84.0273" x="120.5" y="661.834">-removalDate</text><text fill="#000000" font-family="sans-serif" font-size="14" lengthAdjust="spacing" textLength="309.3467" x="120.5" y="680.4551">-maintenanceRecords = List&lt;DroneMaintenance&gt;</text><line style="stroke:#181818;stroke-width:0.5;" x1="115.5" x2="490.874" y1="687.9688" y2="687.9688"/><text fill="#000000" font-family="sans-serif" font-size="14" lengthAdjust="spacing" textLength="55.6309" x="120.5" y="707.0762">+Drone()</text><text fill="#000000" font-family="sans-serif" font-size="14" lengthAdjust="spacing" textLength="138.8926" x="120.5" y="725.6973">+droneName() : String</text><text fill="#000000" font-family="sans-serif" font-size="14" lengthAdjust="spacing" textLength="365.374" x="120.5" y="744.3184">+addMaintenanceRecord(DroneMaintenance record) : void</text><text fill="#000000" font-family="sans-serif" font-size="14" lengthAdjust="spacing" textLength="317.8984" x="120.5" y="762.9395">+maintenanceRecords() : List&lt;DroneMaintenance&gt;</text></g><!--class DroneMaintenance--><g id="elem_DroneMaintenance"><rect codeLine="84" fill="#F1F1F1" height="234.2109" id="DroneMaintenance" rx="2.5" ry="2.5" style="stroke:#181818;stroke-width:0.5;" width="263.7471" x="938" y="517.5"/><ellipse cx="1006.4756" cy="533.5" fill="#ADD1B2" rx="11" ry="11" style="stroke:#181818;stroke-width:1.0;"/><path d="M1009.2412,529.375 Q1009.3975,529.1563 1009.585,529.0469 Q1009.7725,528.9375 1009.9912,528.9375 Q1010.3662,528.9375 1010.6006,529.2031 Q1010.835,529.4531 1010.835,530.0625 L1010.835,531.5156 Q1010.835,532.125 1010.6006,532.3906 Q1010.3662,532.6563 1009.9912,532.6563 Q1009.6475,532.6563 1009.4443,532.4531 Q1009.2412,532.2656 1009.1318,531.75 Q1009.085,531.3906 1008.8975,531.2031 Q1008.5693,530.8281 1007.96,530.6094 Q1007.3506,530.3906 1006.7256,530.3906 Q1005.96,530.3906 1005.3193,530.7188 Q1004.6943,531.0469 1004.1943,531.7969 Q1003.71,532.5469 1003.71,533.5781 L1003.71,534.6719 Q1003.71,535.9063 1004.6006,536.7344 Q1005.4912,537.5469 1007.085,537.5469 Q1008.0225,537.5469 1008.6787,537.2969 Q1009.0693,537.1406 1009.4912,536.7031 Q1009.7568,536.4375 1009.8975,536.3594 Q1010.0537,536.2813 1010.2568,536.2813 Q1010.585,536.2813 1010.835,536.5469 Q1011.1006,536.7969 1011.1006,537.1406 Q1011.1006,537.4844 1010.7568,537.8906 Q1010.2568,538.4688 1009.46,538.7969 Q1008.3818,539.25 1007.085,539.25 Q1005.5693,539.25 1004.3662,538.625 Q1003.3818,538.125 1002.6943,537.0625 Q1002.0068,535.9844 1002.0068,534.7031 L1002.0068,533.5469 Q1002.0068,532.2188 1002.6162,531.0781 Q1003.2412,529.9219 1004.335,529.3125 Q1005.4287,528.6875 1006.6631,528.6875 Q1007.3975,528.6875 1008.0381,528.8594 Q1008.6943,529.0156 1009.2412,529.375 Z " fill="#000000"/><text fill="#000000" font-family="sans-serif" font-size="14" lengthAdjust="spacing" textLength="118.2959" x="1026.9756" y="539.2969">DroneMaintenance</text><line style="stroke:#181818;stroke-width:0.5;" x1="939" x2="1200.7471" y1="549.5" y2="549.5"/><text fill="#000000" font-family="sans-serif" font-size="14" lengthAdjust="spacing" textLength="15.5586" x="944" y="568.6074">-id</text><text fill="#000000" font-family="sans-serif" font-size="14" lengthAdjust="spacing" textLength="40.4688" x="944" y="587.2285">-drone</text><text fill="#000000" font-family="sans-serif" font-size="14" lengthAdjust="spacing" textLength="115.9512" x="944" y="605.8496">-maintenanceType</text><text fill="#000000" font-family="sans-serif" font-size="14" lengthAdjust="spacing" textLength="31.9102" x="944" y="624.4707">-date</text><line style="stroke:#181818;stroke-width:0.5;" x1="939" x2="1200.7471" y1="631.9844" y2="631.9844"/><text fill="#000000" font-family="sans-serif" font-size="14" lengthAdjust="spacing" textLength="103.1064" x="944" y="651.0918">+drone() : Drone</text><text fill="#000000" font-family="sans-serif" font-size="14" lengthAdjust="spacing" textLength="251.7471" x="944" y="669.7129">+maintenanceType() : MaintenanceType</text><text fill="#000000" font-family="sans-serif" font-size="14" lengthAdjust="spacing" textLength="119.458" x="944" y="688.334">+date() : LocalDate</text><text fill="#000000" font-family="sans-serif" font-size="14" lengthAdjust="spacing" textLength="120.251" x="944" y="706.9551">+equals() : boolean</text><text fill="#000000" font-family="sans-serif" font-size="14" lengthAdjust="spacing" textLength="107.7822" x="944" y="725.5762">+hashCode() : int</text><text fill="#000000" font-family="sans-serif" font-size="14" lengthAdjust="spacing" textLength="113.9893" x="944" y="744.1973">+toString() : String</text></g><!--link EditMaintenanceTypeAction to EditMaintenanceTypeUI--><g id="link_EditMaintenanceTypeAction_EditMaintenanceTypeUI"><path codeLine="99" d="M213.03,31 C224.9,31 232.39,31 242.31,31 " fill="none" id="EditMaintenanceTypeAction-to-EditMaintenanceTypeUI" style="stroke:#181818;stroke-width:1.0;stroke-dasharray:7.0,7.0;"/><polygon fill="#181818" points="248.31,31,239.31,27,243.31,31,239.31,35,248.31,31" style="stroke:#181818;stroke-width:1.0;"/></g><!--link EditMaintenanceTypeUI to EditMaintenanceTypeController--><g id="link_EditMaintenanceTypeUI_EditMaintenanceTypeController"><path codeLine="101" d="M339,55.21 C339,73.32 339,93.47 339,118.2 " fill="none" id="EditMaintenanceTypeUI-to-EditMaintenanceTypeController" style="stroke:#181818;stroke-width:1.0;"/><polygon fill="#181818" points="339,124.2,343,115.2,339,119.2,335,115.2,339,124.2" style="stroke:#181818;stroke-width:1.0;"/></g><!--link EditMaintenanceTypeController to DroneInventoryService--><g id="link_EditMaintenanceTypeController_DroneInventoryService"><path codeLine="103" d="M590.14,195 C601.58,195 607.58,195 619.36,195 " fill="none" id="EditMaintenanceTypeController-to-DroneInventoryService" style="stroke:#181818;stroke-width:1.0;"/><polygon fill="#181818" points="625.36,195,616.36,191,620.36,195,616.36,199,625.36,195" style="stroke:#181818;stroke-width:1.0;"/></g><!--link DroneInventoryService to JpaMaintenanceTypeRepository--><g id="link_DroneInventoryService_JpaMaintenanceTypeRepository"><path codeLine="105" d="M991.21,275.2 C1016.46,295.36 1038.2504,312.7573 1061.2304,331.0973 " fill="none" id="DroneInventoryService-to-JpaMaintenanceTypeRepository" style="stroke:#181818;stroke-width:1.0;"/><polygon fill="#181818" points="1065.92,334.84,1061.3807,326.0996,1062.012,331.7211,1056.3905,332.3524,1065.92,334.84" style="stroke:#181818;stroke-width:1.0;"/></g><!--link DroneInventoryService to JpaDroneRepository--><g id="link_DroneInventoryService_JpaDroneRepository"><path codeLine="106" d="M792.79,275.2 C767.54,295.36 745.7496,312.7573 722.7696,331.0973 " fill="none" id="DroneInventoryService-to-JpaDroneRepository" style="stroke:#181818;stroke-width:1.0;"/><polygon fill="#181818" points="718.08,334.84,727.6095,332.3524,721.988,331.7211,722.6193,326.0996,718.08,334.84" style="stroke:#181818;stroke-width:1.0;"/></g><!--link JpaMaintenanceTypeRepository to JpaRepositoryFactory--><g id="link_JpaMaintenanceTypeRepository_JpaRepositoryFactory"><path codeLine="108" d="M1033.3,439.11 C978.18,468.25 920,499 920,499 C920,499 843.6868,549.0688 783.4768,588.5688 " fill="none" id="JpaMaintenanceTypeRepository-to-JpaRepositoryFactory" style="stroke:#181818;stroke-width:1.0;"/><polygon fill="#181818" points="778.46,591.86,788.1793,590.2677,782.6406,589.1173,783.791,583.5787,778.46,591.86" style="stroke:#181818;stroke-width:1.0;"/></g><!--link JpaDroneRepository to JpaRepositoryFactory--><g id="link_JpaDroneRepository_JpaRepositoryFactory"><path codeLine="109" d="M666.71,439.17 C677.96,484.42 692.7139,543.7869 703.1839,585.9469 " fill="none" id="JpaDroneRepository-to-JpaRepositoryFactory" style="stroke:#181818;stroke-width:1.0;"/><polygon fill="#181818" points="704.63,591.77,706.3429,582.0712,703.4249,586.9174,698.5787,583.9994,704.63,591.77" style="stroke:#181818;stroke-width:1.0;"/></g><!--link JpaDroneRepository to Drone--><g id="link_JpaDroneRepository_Drone"><path codeLine="110" d="M580.85,439.17 C554.43,457.65 528.1665,476.0108 496.4165,498.2208 " fill="none" id="JpaDroneRepository-to-Drone" style="stroke:#181818;stroke-width:1.0;"/><polygon fill="#181818" points="491.5,501.66,501.1675,499.7788,495.5971,498.794,496.5819,493.2235,491.5,501.66" style="stroke:#181818;stroke-width:1.0;"/></g><!--link JpaDroneRepository to DroneMaintenance--><g id="link_JpaDroneRepository_DroneMaintenance"><path codeLine="111" d="M776.49,439.11 C846.3,468.25 920,499 920,499 C920,499 923.632,502.2653 936.072,513.4153 " fill="none" id="JpaDroneRepository-to-DroneMaintenance" style="stroke:#181818;stroke-width:1.0;"/><polygon fill="#181818" points="940.54,517.42,936.5078,508.4344,936.8167,514.0828,931.1683,514.3917,940.54,517.42" style="stroke:#181818;stroke-width:1.0;"/></g><!--link JpaMaintenanceTypeRepository to MaintenanceType--><g id="link_JpaMaintenanceTypeRepository_MaintenanceType"><path codeLine="112" d="M1178.14,439.17 C1195.66,457.79 1212.2482,475.4105 1233.3082,497.7905 " fill="none" id="JpaMaintenanceTypeRepository-to-MaintenanceType" style="stroke:#181818;stroke-width:1.0;"/><polygon fill="#181818" points="1237.42,502.16,1234.1653,492.8645,1233.9935,498.5187,1228.3392,498.3469,1237.42,502.16" style="stroke:#181818;stroke-width:1.0;"/></g><!--link JpaMaintenanceTypeRepository to DroneMaintenance--><g id="link_JpaMaintenanceTypeRepository_DroneMaintenance"><path codeLine="113" d="M1117.5,439.17 C1111.91,462 1106.5137,484.0914 1099.8037,511.5614 " fill="none" id="JpaMaintenanceTypeRepository-to-DroneMaintenance" style="stroke:#181818;stroke-width:1.0;"/><polygon fill="#181818" points="1098.38,517.39,1104.4014,509.5962,1099.5664,512.5328,1096.6299,507.6979,1098.38,517.39" style="stroke:#181818;stroke-width:1.0;"/></g><!--SRC=[hLPDRniX4Btlh-0MMwchdglMaXEtagjyI74gzJfc9pOD2nl0Jfog_xsmPjSOy2PHuvDXtio-6TuCdEXx9cfGK95A2abNIbP8Z5fZiRVKGEzXYNEpvKWKKWDYoKE0Na4f7vbOaZlWEhHm9j1iQoIrv5ktA4uoHgcCB08loa7hYJ6ABTO6PrIAENj6ygaeJZZU6M8aKMovCgHaZWwJeYWQ7_AjPEOIc30eG52yjT4d3U1FyRS7ytD6-W7dKXWbEKTbWSJ-HcIoDYkfs3Euy7DK6qQHV2PWjvzpDk-cE-HKIO4piK5XfDg6g5DonqGPKJZRpih1XRH5PkNGkb_NBZZmBn5kx4DG49b41j6QL8Th5taX9KSGFWvcWdWQ7yZSdf7zA_3n2YeCrrFKLB66eukvaQpSLpYRUbTP2WQNTly6QwcPGxJLkfGbylssnvVEb88JN9JgWSVbCTlxL-7TJXYVc3OwCDuWbQhKPzktddHtC3zgE5e9VpwdlQ11lHQs1iFNG6shoDkdOL2G2USEemUEtCoWWWN7DFsGxZxUTw07DADycvWl7NFiqr3yrU_PiOaBtkhPd_c8kCgqcjqBe_3VZkNbq1y2tF08hjrt-2R9dVpyRX0WDMhhCj63wyLlEqQ9D2jKwG1WfMrJPhQDkvEdtr-1NftRXcpsBQLMbGzhUmbqCTDuHkuuX7GEZZJgtb1taMbWHGEyxRT4UddqhGAXWUvwomrsV3BaK8l_trbTxpOSnj7eIwNHpB2hlJugD-dyVw0FQsPJi06dTZIs5ua1izP-eR2I6x2Z4RGKXtk1IvKaHBwI2vlgZcMGrhWLPMFe9DQnJAK4PPdKQn27TQy7kn-DmfJMJcfvOeUL38FdYveV_YsYBOxFhVdmj7DxrH1f_Mqeto8qg7hN46aZ76cWN7_Of8lYwEE6V1pdNpLP7_lO6Ot6_Q-Sh6Fm2BB- -UTBaR_QtGVxxe9-j_WwBtglAU-KN0n5PhIy5RkJHfynuFKopLX9Bpead_W7]--></g></svg>