<svg xmlns="http://www.w3.org/2000/svg" xmlns:xlink="http://www.w3.org/1999/xlink" contentStyleType="text/css" height="1231px" preserveAspectRatio="none" style="width:1867px;height:1231px;background:#FFFFFF;" version="1.1" viewBox="0 0 1867 1231" width="1867px" zoomAndPan="magnify"><defs/><g><rect fill="#FFFFFF" height="31.291" style="stroke:#181818;stroke-width:1.0;" width="10" x="246.2754" y="116.9121"/><rect fill="#FFFFFF" height="219.0371" style="stroke:#181818;stroke-width:1.0;" width="10" x="436.0332" y="148.2031"/><rect fill="#FFFFFF" height="741.0234" style="stroke:#181818;stroke-width:1.0;" width="10" x="436.0332" y="398.5313"/><rect fill="#FFFFFF" height="156.4551" style="stroke:#181818;stroke-width:1.0;" width="10" x="781.1919" y="473.4434"/><rect fill="#FFFFFF" height="156.4551" style="stroke:#181818;stroke-width:1.0;" width="10" x="781.1919" y="661.1895"/><rect fill="#FFFFFF" height="187.7461" style="stroke:#181818;stroke-width:1.0;" width="10" x="781.1919" y="911.5176"/><rect fill="#FFFFFF" height="93.873" style="stroke:#181818;stroke-width:1.0;" width="10" x="1140.7979" y="504.7344"/><rect fill="#FFFFFF" height="93.873" style="stroke:#181818;stroke-width:1.0;" width="10" x="1140.7979" y="692.4805"/><rect fill="#FFFFFF" height="125.1641" style="stroke:#181818;stroke-width:1.0;" width="10" x="1140.7979" y="942.8086"/><rect fill="#FFFFFF" height="156.4551" style="stroke:#181818;stroke-width:1.0;" width="10" x="1276.8491" y="179.4941"/><rect fill="#FFFFFF" height="93.873" style="stroke:#181818;stroke-width:1.0;" width="10" x="1452.1489" y="210.7852"/><rect fill="#FFFFFF" height="31.291" style="stroke:#181818;stroke-width:1.0;" width="10" x="1452.1489" y="536.0254"/><rect fill="#FFFFFF" height="62.582" style="stroke:#181818;stroke-width:1.0;" width="10" x="1452.1489" y="974.0996"/><rect fill="#FFFFFF" height="31.291" style="stroke:#181818;stroke-width:1.0;" width="10" x="1644.2378" y="723.7715"/><rect fill="#FFFFFF" height="31.291" style="stroke:#181818;stroke-width:1.0;" width="10" x="1791.582" y="242.0762"/><rect fill="#FFFFFF" height="31.291" style="stroke:#181818;stroke-width:1.0;" width="10" x="1791.582" y="974.0996"/><line style="stroke:#181818;stroke-width:0.5;stroke-dasharray:5.0,5.0;" x1="42" x2="42" y1="83.6211" y2="1148.5547"/><line style="stroke:#181818;stroke-width:0.5;stroke-dasharray:5.0,5.0;" x1="251.1689" x2="251.1689" y1="83.6211" y2="1148.5547"/><line style="stroke:#181818;stroke-width:0.5;stroke-dasharray:5.0,5.0;" x1="440.3818" x2="440.3818" y1="83.6211" y2="1148.5547"/><line style="stroke:#181818;stroke-width:0.5;stroke-dasharray:5.0,5.0;" x1="785.1958" x2="785.1958" y1="438.3418" y2="1148.5547"/><line style="stroke:#181818;stroke-width:0.5;stroke-dasharray:5.0,5.0;" x1="1145.6533" x2="1145.6533" y1="83.6211" y2="1148.5547"/><line style="stroke:#181818;stroke-width:0.5;stroke-dasharray:5.0,5.0;" x1="1280.9424" x2="1280.9424" y1="83.6211" y2="1148.5547"/><line style="stroke:#181818;stroke-width:0.5;stroke-dasharray:5.0,5.0;" x1="1456.8149" x2="1456.8149" y1="83.6211" y2="1148.5547"/><line style="stroke:#181818;stroke-width:0.5;stroke-dasharray:5.0,5.0;" x1="1648.4829" x2="1648.4829" y1="83.6211" y2="1148.5547"/><line style="stroke:#181818;stroke-width:0.5;stroke-dasharray:5.0,5.0;" x1="1795.9927" x2="1795.9927" y1="83.6211" y2="1148.5547"/><text fill="#000000" font-family="sans-serif" font-size="14" lengthAdjust="spacing" textLength="69.2549" x="5" y="80.1074">DroneTech</text><ellipse cx="42.6274" cy="13.5" fill="#E2E2F0" rx="8" ry="8" style="stroke:#181818;stroke-width:0.5;"/><path d="M42.6274,21.5 L42.6274,48.5 M29.6274,29.5 L55.6274,29.5 M42.6274,48.5 L29.6274,63.5 M42.6274,48.5 L55.6274,63.5 " fill="none" style="stroke:#181818;stroke-width:0.5;"/><text fill="#000000" font-family="sans-serif" font-size="14" lengthAdjust="spacing" textLength="69.2549" x="5" y="1162.6621">DroneTech</text><ellipse cx="42.6274" cy="1174.6758" fill="#E2E2F0" rx="8" ry="8" style="stroke:#181818;stroke-width:0.5;"/><path d="M42.6274,1182.6758 L42.6274,1209.6758 M29.6274,1190.6758 L55.6274,1190.6758 M42.6274,1209.6758 L29.6274,1224.6758 M42.6274,1209.6758 L55.6274,1224.6758 " fill="none" style="stroke:#181818;stroke-width:0.5;"/><rect fill="#E2E2F0" height="32.6211" rx="2.5" ry="2.5" style="stroke:#181818;stroke-width:0.5;" width="192.2129" x="155.1689" y="50"/><text fill="#000000" font-family="sans-serif" font-size="14" lengthAdjust="spacing" textLength="178.2129" x="162.1689" y="72.1074">:EditMaintenanceTypeAction</text><rect fill="#E2E2F0" height="32.6211" rx="2.5" ry="2.5" style="stroke:#181818;stroke-width:0.5;" width="192.2129" x="155.1689" y="1147.5547"/><text fill="#000000" font-family="sans-serif" font-size="14" lengthAdjust="spacing" textLength="178.2129" x="162.1689" y="1169.6621">:EditMaintenanceTypeAction</text><rect fill="#E2E2F0" height="32.6211" rx="2.5" ry="2.5" style="stroke:#181818;stroke-width:0.5;" width="167.3027" x="357.3818" y="50"/><text fill="#000000" font-family="sans-serif" font-size="14" lengthAdjust="spacing" textLength="153.3027" x="364.3818" y="72.1074">:EditMaintenanceTypeUI</text><rect fill="#E2E2F0" height="32.6211" rx="2.5" ry="2.5" style="stroke:#181818;stroke-width:0.5;" width="167.3027" x="357.3818" y="1147.5547"/><text fill="#000000" font-family="sans-serif" font-size="14" lengthAdjust="spacing" textLength="153.3027" x="364.3818" y="1169.6621">:EditMaintenanceTypeUI</text><rect fill="#E2E2F0" height="32.6211" rx="2.5" ry="2.5" style="stroke:#181818;stroke-width:0.5;" width="213.9922" x="679.1958" y="1147.5547"/><text fill="#000000" font-family="sans-serif" font-size="14" lengthAdjust="spacing" textLength="199.9922" x="686.1958" y="1169.6621">:EditMaintenanceTypeController</text><rect fill="#E2E2F0" height="32.6211" rx="2.5" ry="2.5" style="stroke:#181818;stroke-width:0.5;" width="160.2891" x="1065.6533" y="50"/><text fill="#000000" font-family="sans-serif" font-size="14" lengthAdjust="spacing" textLength="146.2891" x="1072.6533" y="72.1074">:DroneInventoryService</text><rect fill="#E2E2F0" height="32.6211" rx="2.5" ry="2.5" style="stroke:#181818;stroke-width:0.5;" width="160.2891" x="1065.6533" y="1147.5547"/><text fill="#000000" font-family="sans-serif" font-size="14" lengthAdjust="spacing" textLength="146.2891" x="1072.6533" y="1169.6621">:DroneInventoryService</text><rect fill="#E2E2F0" height="32.6211" rx="2.5" ry="2.5" style="stroke:#181818;stroke-width:0.5;" width="91.8135" x="1235.9424" y="50"/><text fill="#000000" font-family="sans-serif" font-size="14" lengthAdjust="spacing" textLength="77.8135" x="1242.9424" y="72.1074">Repositories</text><rect fill="#E2E2F0" height="32.6211" rx="2.5" ry="2.5" style="stroke:#181818;stroke-width:0.5;" width="91.8135" x="1235.9424" y="1147.5547"/><text fill="#000000" font-family="sans-serif" font-size="14" lengthAdjust="spacing" textLength="77.8135" x="1242.9424" y="1169.6621">Repositories</text><rect fill="#E2E2F0" height="32.6211" rx="2.5" ry="2.5" style="stroke:#181818;stroke-width:0.5;" width="218.668" x="1347.8149" y="50"/><text fill="#000000" font-family="sans-serif" font-size="14" lengthAdjust="spacing" textLength="204.668" x="1354.8149" y="72.1074">:JpaMaintenanceTypeRepository</text><rect fill="#E2E2F0" height="32.6211" rx="2.5" ry="2.5" style="stroke:#181818;stroke-width:0.5;" width="218.668" x="1347.8149" y="1147.5547"/><text fill="#000000" font-family="sans-serif" font-size="14" lengthAdjust="spacing" textLength="204.668" x="1354.8149" y="1169.6621">:JpaMaintenanceTypeRepository</text><rect fill="#E2E2F0" height="32.6211" rx="2.5" ry="2.5" style="stroke:#181818;stroke-width:0.5;" width="145.5098" x="1576.4829" y="50"/><text fill="#000000" font-family="sans-serif" font-size="14" lengthAdjust="spacing" textLength="131.5098" x="1583.4829" y="72.1074">:JpaDroneRepository</text><rect fill="#E2E2F0" height="32.6211" rx="2.5" ry="2.5" style="stroke:#181818;stroke-width:0.5;" width="145.5098" x="1576.4829" y="1147.5547"/><text fill="#000000" font-family="sans-serif" font-size="14" lengthAdjust="spacing" textLength="131.5098" x="1583.4829" y="1169.6621">:JpaDroneRepository</text><rect fill="#E2E2F0" height="32.6211" rx="2.5" ry="2.5" style="stroke:#181818;stroke-width:0.5;" width="129.1787" x="1731.9927" y="50"/><text fill="#000000" font-family="sans-serif" font-size="14" lengthAdjust="spacing" textLength="115.1787" x="1738.9927" y="72.1074">:MaintenanceType</text><rect fill="#E2E2F0" height="32.6211" rx="2.5" ry="2.5" style="stroke:#181818;stroke-width:0.5;" width="129.1787" x="1731.9927" y="1147.5547"/><text fill="#000000" font-family="sans-serif" font-size="14" lengthAdjust="spacing" textLength="115.1787" x="1738.9927" y="1169.6621">:MaintenanceType</text><rect fill="#FFFFFF" height="31.291" style="stroke:#181818;stroke-width:1.0;" width="10" x="246.2754" y="116.9121"/><rect fill="#FFFFFF" height="219.0371" style="stroke:#181818;stroke-width:1.0;" width="10" x="436.0332" y="148.2031"/><rect fill="#FFFFFF" height="741.0234" style="stroke:#181818;stroke-width:1.0;" width="10" x="436.0332" y="398.5313"/><rect fill="#FFFFFF" height="156.4551" style="stroke:#181818;stroke-width:1.0;" width="10" x="781.1919" y="473.4434"/><rect fill="#FFFFFF" height="156.4551" style="stroke:#181818;stroke-width:1.0;" width="10" x="781.1919" y="661.1895"/><rect fill="#FFFFFF" height="187.7461" style="stroke:#181818;stroke-width:1.0;" width="10" x="781.1919" y="911.5176"/><rect fill="#FFFFFF" height="93.873" style="stroke:#181818;stroke-width:1.0;" width="10" x="1140.7979" y="504.7344"/><rect fill="#FFFFFF" height="93.873" style="stroke:#181818;stroke-width:1.0;" width="10" x="1140.7979" y="692.4805"/><rect fill="#FFFFFF" height="125.1641" style="stroke:#181818;stroke-width:1.0;" width="10" x="1140.7979" y="942.8086"/><rect fill="#FFFFFF" height="156.4551" style="stroke:#181818;stroke-width:1.0;" width="10" x="1276.8491" y="179.4941"/><rect fill="#FFFFFF" height="93.873" style="stroke:#181818;stroke-width:1.0;" width="10" x="1452.1489" y="210.7852"/><rect fill="#FFFFFF" height="31.291" style="stroke:#181818;stroke-width:1.0;" width="10" x="1452.1489" y="536.0254"/><rect fill="#FFFFFF" height="62.582" style="stroke:#181818;stroke-width:1.0;" width="10" x="1452.1489" y="974.0996"/><rect fill="#FFFFFF" height="31.291" style="stroke:#181818;stroke-width:1.0;" width="10" x="1644.2378" y="723.7715"/><rect fill="#FFFFFF" height="31.291" style="stroke:#181818;stroke-width:1.0;" width="10" x="1791.582" y="242.0762"/><rect fill="#FFFFFF" height="31.291" style="stroke:#181818;stroke-width:1.0;" width="10" x="1791.582" y="974.0996"/><polygon fill="#181818" points="234.2754,112.9121,244.2754,116.9121,234.2754,120.9121,238.2754,116.9121" style="stroke:#181818;stroke-width:1.0;"/><line style="stroke:#181818;stroke-width:1.0;" x1="42.6274" x2="240.2754" y1="116.9121" y2="116.9121"/><text fill="#000000" font-family="sans-serif" font-size="13" font-weight="bold" lengthAdjust="spacing" textLength="7.23" x="49.6274" y="111.6494">1</text><text fill="#000000" font-family="sans-serif" font-size="13" lengthAdjust="spacing" textLength="173.418" x="60.8574" y="111.6494">asks to list maintenance types</text><polygon fill="#181818" points="424.0332,144.2031,434.0332,148.2031,424.0332,152.2031,428.0332,148.2031" style="stroke:#181818;stroke-width:1.0;"/><line style="stroke:#181818;stroke-width:1.0;" x1="251.2754" x2="430.0332" y1="148.2031" y2="148.2031"/><text fill="#000000" font-family="sans-serif" font-size="13" font-weight="bold" lengthAdjust="spacing" textLength="7.23" x="258.2754" y="142.9404">2</text><text fill="#000000" font-family="sans-serif" font-size="13" lengthAdjust="spacing" textLength="39.0063" x="269.5054" y="142.9404">show()</text><polygon fill="#181818" points="1264.8491,175.4941,1274.8491,179.4941,1264.8491,183.4941,1268.8491,179.4941" style="stroke:#181818;stroke-width:1.0;"/><line style="stroke:#181818;stroke-width:1.0;" x1="446.0332" x2="1270.8491" y1="179.4941" y2="179.4941"/><text fill="#000000" font-family="sans-serif" font-size="13" font-weight="bold" lengthAdjust="spacing" textLength="7.23" x="453.0332" y="174.2314">3</text><text fill="#000000" font-family="sans-serif" font-size="13" lengthAdjust="spacing" textLength="44.0654" x="464.2632" y="174.2314">findAll()</text><polygon fill="#181818" points="1440.1489,206.7852,1450.1489,210.7852,1440.1489,214.7852,1444.1489,210.7852" style="stroke:#181818;stroke-width:1.0;"/><line style="stroke:#181818;stroke-width:1.0;" x1="1286.8491" x2="1446.1489" y1="210.7852" y2="210.7852"/><text fill="#000000" font-family="sans-serif" font-size="13" font-weight="bold" lengthAdjust="spacing" textLength="7.23" x="1293.8491" y="205.5225">4</text><text fill="#000000" font-family="sans-serif" font-size="13" lengthAdjust="spacing" textLength="44.0654" x="1305.0791" y="205.5225">findAll()</text><polygon fill="#181818" points="1779.582,238.0762,1789.582,242.0762,1779.582,246.0762,1783.582,242.0762" style="stroke:#181818;stroke-width:1.0;"/><line style="stroke:#181818;stroke-width:1.0;" x1="1462.1489" x2="1785.582" y1="242.0762" y2="242.0762"/><text fill="#000000" font-family="sans-serif" font-size="13" font-weight="bold" lengthAdjust="spacing" textLength="7.23" x="1469.1489" y="236.8135">5</text><text fill="#000000" font-family="sans-serif" font-size="13" lengthAdjust="spacing" textLength="44.0654" x="1480.3789" y="236.8135">findAll()</text><polygon fill="#181818" points="1473.1489,269.3672,1463.1489,273.3672,1473.1489,277.3672,1469.1489,273.3672" style="stroke:#181818;stroke-width:1.0;"/><line style="stroke:#181818;stroke-width:1.0;" x1="1467.1489" x2="1795.582" y1="273.3672" y2="273.3672"/><text fill="#000000" font-family="sans-serif" font-size="13" font-weight="bold" lengthAdjust="spacing" textLength="7.23" x="1479.1489" y="268.1045">6</text><text fill="#000000" font-family="sans-serif" font-size="13" lengthAdjust="spacing" textLength="130.0698" x="1490.3789" y="268.1045">maintenanceTypesList</text><polygon fill="#181818" points="1297.8491,300.6582,1287.8491,304.6582,1297.8491,308.6582,1293.8491,304.6582" style="stroke:#181818;stroke-width:1.0;"/><line style="stroke:#181818;stroke-width:1.0;" x1="1291.8491" x2="1456.1489" y1="304.6582" y2="304.6582"/><text fill="#000000" font-family="sans-serif" font-size="13" font-weight="bold" lengthAdjust="spacing" textLength="7.23" x="1303.8491" y="299.3955">7</text><text fill="#000000" font-family="sans-serif" font-size="13" lengthAdjust="spacing" textLength="130.0698" x="1315.0791" y="299.3955">maintenanceTypesList</text><polygon fill="#181818" points="457.0332,331.9492,447.0332,335.9492,457.0332,339.9492,453.0332,335.9492" style="stroke:#181818;stroke-width:1.0;"/><line style="stroke:#181818;stroke-width:1.0;" x1="451.0332" x2="1280.8491" y1="335.9492" y2="335.9492"/><text fill="#000000" font-family="sans-serif" font-size="13" font-weight="bold" lengthAdjust="spacing" textLength="7.23" x="463.0332" y="330.6865">8</text><text fill="#000000" font-family="sans-serif" font-size="13" lengthAdjust="spacing" textLength="130.0698" x="474.2632" y="330.6865">maintenanceTypesList</text><polygon fill="#181818" points="53.6274,363.2402,43.6274,367.2402,53.6274,371.2402,49.6274,367.2402" style="stroke:#181818;stroke-width:1.0;"/><line style="stroke:#181818;stroke-width:1.0;" x1="47.6274" x2="440.0332" y1="367.2402" y2="367.2402"/><text fill="#000000" font-family="sans-serif" font-size="13" font-weight="bold" lengthAdjust="spacing" textLength="7.23" x="59.6274" y="361.9775">9</text><text fill="#000000" font-family="sans-serif" font-size="13" lengthAdjust="spacing" textLength="197.9961" x="70.8574" y="361.9775">displays list and requests id to edit</text><polygon fill="#181818" points="424.0332,394.5313,434.0332,398.5313,424.0332,402.5313,428.0332,398.5313" style="stroke:#181818;stroke-width:1.0;"/><line style="stroke:#181818;stroke-width:1.0;" x1="42.6274" x2="430.0332" y1="398.5313" y2="398.5313"/><text fill="#000000" font-family="sans-serif" font-size="13" font-weight="bold" lengthAdjust="spacing" textLength="14.46" x="49.6274" y="393.2686">10</text><text fill="#000000" font-family="sans-serif" font-size="13" lengthAdjust="spacing" textLength="139.4834" x="68.0874" y="393.2686">provides requested data</text><polygon fill="#181818" points="667.1958,425.8223,677.1958,429.8223,667.1958,433.8223,671.1958,429.8223" style="stroke:#181818;stroke-width:1.0;"/><line style="stroke:#181818;stroke-width:1.0;stroke-dasharray:2.0,2.0;" x1="446.0332" x2="673.1958" y1="429.8223" y2="429.8223"/><text fill="#000000" font-family="sans-serif" font-size="13" font-weight="bold" lengthAdjust="spacing" textLength="14.46" x="453.0332" y="424.5596">11</text><text fill="#000000" font-family="sans-serif" font-size="13" lengthAdjust="spacing" textLength="44.7891" x="471.4932" y="424.5596">create()</text><rect fill="#E2E2F0" height="32.6211" rx="2.5" ry="2.5" style="stroke:#181818;stroke-width:0.5;" width="213.9922" x="679.1958" y="406.5313"/><text fill="#000000" font-family="sans-serif" font-size="14" lengthAdjust="spacing" textLength="199.9922" x="686.1958" y="428.6387">:EditMaintenanceTypeController</text><polygon fill="#181818" points="769.1919,469.4434,779.1919,473.4434,769.1919,477.4434,773.1919,473.4434" style="stroke:#181818;stroke-width:1.0;"/><line style="stroke:#181818;stroke-width:1.0;" x1="446.0332" x2="775.1919" y1="473.4434" y2="473.4434"/><text fill="#000000" font-family="sans-serif" font-size="13" font-weight="bold" lengthAdjust="spacing" textLength="14.46" x="453.0332" y="468.1807">12</text><text fill="#000000" font-family="sans-serif" font-size="13" lengthAdjust="spacing" textLength="169.0889" x="471.4932" y="468.1807">findMaintenanceTypeById(id)</text><polygon fill="#181818" points="1128.7979,500.7344,1138.7979,504.7344,1128.7979,508.7344,1132.7979,504.7344" style="stroke:#181818;stroke-width:1.0;"/><line style="stroke:#181818;stroke-width:1.0;" x1="791.1919" x2="1134.7979" y1="504.7344" y2="504.7344"/><text fill="#000000" font-family="sans-serif" font-size="13" font-weight="bold" lengthAdjust="spacing" textLength="14.46" x="798.1919" y="499.4717">13</text><text fill="#000000" font-family="sans-serif" font-size="13" lengthAdjust="spacing" textLength="169.0889" x="816.6519" y="499.4717">findMaintenanceTypeById(id)</text><polygon fill="#181818" points="1440.1489,532.0254,1450.1489,536.0254,1440.1489,540.0254,1444.1489,536.0254" style="stroke:#181818;stroke-width:1.0;"/><line style="stroke:#181818;stroke-width:1.0;" x1="1150.7979" x2="1446.1489" y1="536.0254" y2="536.0254"/><text fill="#000000" font-family="sans-serif" font-size="13" font-weight="bold" lengthAdjust="spacing" textLength="14.46" x="1157.7979" y="530.7627">14</text><text fill="#000000" font-family="sans-serif" font-size="13" lengthAdjust="spacing" textLength="201.6206" x="1176.2578" y="530.7627">findMaintenanceTypeById(Long id)</text><polygon fill="#181818" points="1161.7979,563.3164,1151.7979,567.3164,1161.7979,571.3164,1157.7979,567.3164" style="stroke:#181818;stroke-width:1.0;"/><line style="stroke:#181818;stroke-width:1.0;" x1="1155.7979" x2="1456.1489" y1="567.3164" y2="567.3164"/><text fill="#000000" font-family="sans-serif" font-size="13" font-weight="bold" lengthAdjust="spacing" textLength="14.46" x="1167.7979" y="562.0537">15</text><text fill="#000000" font-family="sans-serif" font-size="13" lengthAdjust="spacing" textLength="10.1182" x="1186.2578" y="562.0537">id</text><polygon fill="#181818" points="802.1919,594.6074,792.1919,598.6074,802.1919,602.6074,798.1919,598.6074" style="stroke:#181818;stroke-width:1.0;"/><line style="stroke:#181818;stroke-width:1.0;" x1="796.1919" x2="1144.7979" y1="598.6074" y2="598.6074"/><text fill="#000000" font-family="sans-serif" font-size="13" font-weight="bold" lengthAdjust="spacing" textLength="14.46" x="808.1919" y="593.3447">16</text><text fill="#000000" font-family="sans-serif" font-size="13" lengthAdjust="spacing" textLength="10.1182" x="826.6519" y="593.3447">id</text><polygon fill="#181818" points="457.0332,625.8984,447.0332,629.8984,457.0332,633.8984,453.0332,629.8984" style="stroke:#181818;stroke-width:1.0;"/><line style="stroke:#181818;stroke-width:1.0;" x1="451.0332" x2="785.1919" y1="629.8984" y2="629.8984"/><text fill="#000000" font-family="sans-serif" font-size="13" font-weight="bold" lengthAdjust="spacing" textLength="14.46" x="463.0332" y="624.6357">17</text><text fill="#000000" font-family="sans-serif" font-size="13" lengthAdjust="spacing" textLength="10.1182" x="481.4932" y="624.6357">id</text><polygon fill="#181818" points="769.1919,657.1895,779.1919,661.1895,769.1919,665.1895,773.1919,661.1895" style="stroke:#181818;stroke-width:1.0;"/><line style="stroke:#181818;stroke-width:1.0;" x1="446.0332" x2="775.1919" y1="661.1895" y2="661.1895"/><text fill="#000000" font-family="sans-serif" font-size="13" font-weight="bold" lengthAdjust="spacing" textLength="14.46" x="453.0332" y="655.9268">18</text><text fill="#000000" font-family="sans-serif" font-size="13" lengthAdjust="spacing" textLength="258.6987" x="471.4932" y="655.9268">canEditMaintenanceType(maintenanceType)</text><polygon fill="#181818" points="1128.7979,688.4805,1138.7979,692.4805,1128.7979,696.4805,1132.7979,692.4805" style="stroke:#181818;stroke-width:1.0;"/><line style="stroke:#181818;stroke-width:1.0;" x1="791.1919" x2="1134.7979" y1="692.4805" y2="692.4805"/><text fill="#000000" font-family="sans-serif" font-size="13" font-weight="bold" lengthAdjust="spacing" textLength="14.46" x="798.1919" y="687.2178">19</text><text fill="#000000" font-family="sans-serif" font-size="13" lengthAdjust="spacing" textLength="312.146" x="816.6519" y="687.2178">existsMaintenanceRecordsByType(maintenanceType)</text><polygon fill="#181818" points="1632.2378,719.7715,1642.2378,723.7715,1632.2378,727.7715,1636.2378,723.7715" style="stroke:#181818;stroke-width:1.0;"/><line style="stroke:#181818;stroke-width:1.0;" x1="1150.7979" x2="1638.2378" y1="723.7715" y2="723.7715"/><text fill="#000000" font-family="sans-serif" font-size="13" font-weight="bold" lengthAdjust="spacing" textLength="14.46" x="1157.7979" y="718.5088">20</text><text fill="#000000" font-family="sans-serif" font-size="13" lengthAdjust="spacing" textLength="378.606" x="1176.2578" y="718.5088">existsMaintenanceRecordsByType(maintenanceType).isPresent()</text><polygon fill="#181818" points="1161.7979,751.0625,1151.7979,755.0625,1161.7979,759.0625,1157.7979,755.0625" style="stroke:#181818;stroke-width:1.0;"/><line style="stroke:#181818;stroke-width:1.0;" x1="1155.7979" x2="1648.2378" y1="755.0625" y2="755.0625"/><text fill="#000000" font-family="sans-serif" font-size="13" font-weight="bold" lengthAdjust="spacing" textLength="14.46" x="1167.7979" y="749.7998">21</text><text fill="#000000" font-family="sans-serif" font-size="13" lengthAdjust="spacing" textLength="99.0107" x="1186.2578" y="749.7998">Optional&lt;Drone&gt;</text><polygon fill="#181818" points="802.1919,782.3535,792.1919,786.3535,802.1919,790.3535,798.1919,786.3535" style="stroke:#181818;stroke-width:1.0;"/><line style="stroke:#181818;stroke-width:1.0;" x1="796.1919" x2="1144.7979" y1="786.3535" y2="786.3535"/><text fill="#000000" font-family="sans-serif" font-size="13" font-weight="bold" lengthAdjust="spacing" textLength="14.46" x="808.1919" y="781.0908">22</text><text fill="#000000" font-family="sans-serif" font-size="13" lengthAdjust="spacing" textLength="99.0107" x="826.6519" y="781.0908">Optional&lt;Drone&gt;</text><polygon fill="#181818" points="457.0332,813.6445,447.0332,817.6445,457.0332,821.6445,453.0332,817.6445" style="stroke:#181818;stroke-width:1.0;"/><line style="stroke:#181818;stroke-width:1.0;" x1="451.0332" x2="785.1919" y1="817.6445" y2="817.6445"/><text fill="#000000" font-family="sans-serif" font-size="13" font-weight="bold" lengthAdjust="spacing" textLength="14.46" x="463.0332" y="812.3818">23</text><text fill="#000000" font-family="sans-serif" font-size="13" lengthAdjust="spacing" textLength="99.0107" x="481.4932" y="812.3818">Optional&lt;Drone&gt;</text><polygon fill="#181818" points="53.6274,844.9355,43.6274,848.9355,53.6274,852.9355,49.6274,848.9355" style="stroke:#181818;stroke-width:1.0;"/><line style="stroke:#181818;stroke-width:1.0;" x1="47.6274" x2="435.0332" y1="848.9355" y2="848.9355"/><text fill="#000000" font-family="sans-serif" font-size="13" font-weight="bold" lengthAdjust="spacing" textLength="14.46" x="59.6274" y="843.6729">24</text><text fill="#000000" font-family="sans-serif" font-size="13" lengthAdjust="spacing" textLength="127.918" x="78.0874" y="843.6729">requests the new data</text><polygon fill="#181818" points="424.0332,876.2266,434.0332,880.2266,424.0332,884.2266,428.0332,880.2266" style="stroke:#181818;stroke-width:1.0;"/><line style="stroke:#181818;stroke-width:1.0;" x1="42.6274" x2="430.0332" y1="880.2266" y2="880.2266"/><text fill="#000000" font-family="sans-serif" font-size="13" font-weight="bold" lengthAdjust="spacing" textLength="14.46" x="49.6274" y="874.9639">25</text><text fill="#000000" font-family="sans-serif" font-size="13" lengthAdjust="spacing" textLength="105.5107" x="68.0874" y="874.9639">provides new data</text><polygon fill="#181818" points="769.1919,907.5176,779.1919,911.5176,769.1919,915.5176,773.1919,911.5176" style="stroke:#181818;stroke-width:1.0;"/><line style="stroke:#181818;stroke-width:1.0;" x1="446.0332" x2="775.1919" y1="911.5176" y2="911.5176"/><text fill="#000000" font-family="sans-serif" font-size="13" font-weight="bold" lengthAdjust="spacing" textLength="14.46" x="453.0332" y="906.2549">26</text><text fill="#000000" font-family="sans-serif" font-size="13" lengthAdjust="spacing" textLength="297.6987" x="471.4932" y="906.2549">editMaintenanceType(id,newName,newDescription)</text><polygon fill="#181818" points="1128.7979,938.8086,1138.7979,942.8086,1128.7979,946.8086,1132.7979,942.8086" style="stroke:#181818;stroke-width:1.0;"/><line style="stroke:#181818;stroke-width:1.0;" x1="791.1919" x2="1134.7979" y1="942.8086" y2="942.8086"/><text fill="#000000" font-family="sans-serif" font-size="13" font-weight="bold" lengthAdjust="spacing" textLength="14.46" x="798.1919" y="937.5459">27</text><text fill="#000000" font-family="sans-serif" font-size="13" lengthAdjust="spacing" textLength="304.9224" x="816.6519" y="937.5459">editMaintenanceType(id, newName, newDescription)</text><polygon fill="#181818" points="1779.582,970.0996,1789.582,974.0996,1779.582,978.0996,1783.582,974.0996" style="stroke:#181818;stroke-width:1.0;"/><line style="stroke:#181818;stroke-width:1.0;" x1="1150.7979" x2="1785.582" y1="974.0996" y2="974.0996"/><text fill="#000000" font-family="sans-serif" font-size="13" font-weight="bold" lengthAdjust="spacing" textLength="14.46" x="1157.7979" y="968.8369">28</text><text fill="#000000" font-family="sans-serif" font-size="13" lengthAdjust="spacing" textLength="253.6143" x="1176.2578" y="968.8369">update(newName, newDescription, isInUse)</text><polygon fill="#181818" points="1473.1489,1001.3906,1463.1489,1005.3906,1473.1489,1009.3906,1469.1489,1005.3906" style="stroke:#181818;stroke-width:1.0;"/><line style="stroke:#181818;stroke-width:1.0;" x1="1467.1489" x2="1795.582" y1="1005.3906" y2="1005.3906"/><text fill="#000000" font-family="sans-serif" font-size="13" font-weight="bold" lengthAdjust="spacing" textLength="14.46" x="1479.1489" y="1000.1279">29</text><text fill="#000000" font-family="sans-serif" font-size="13" lengthAdjust="spacing" textLength="139.458" x="1497.6089" y="1000.1279">save(maintenanceType)</text><polygon fill="#181818" points="1161.7979,1032.6816,1151.7979,1036.6816,1161.7979,1040.6816,1157.7979,1036.6816" style="stroke:#181818;stroke-width:1.0;"/><line style="stroke:#181818;stroke-width:1.0;" x1="1155.7979" x2="1456.1489" y1="1036.6816" y2="1036.6816"/><text fill="#000000" font-family="sans-serif" font-size="13" font-weight="bold" lengthAdjust="spacing" textLength="14.46" x="1167.7979" y="1031.4189">30</text><text fill="#000000" font-family="sans-serif" font-size="13" lengthAdjust="spacing" textLength="103.3398" x="1186.2578" y="1031.4189">maintenanceType</text><polygon fill="#181818" points="802.1919,1063.9727,792.1919,1067.9727,802.1919,1071.9727,798.1919,1067.9727" style="stroke:#181818;stroke-width:1.0;"/><line style="stroke:#181818;stroke-width:1.0;" x1="796.1919" x2="1144.7979" y1="1067.9727" y2="1067.9727"/><text fill="#000000" font-family="sans-serif" font-size="13" font-weight="bold" lengthAdjust="spacing" textLength="14.46" x="808.1919" y="1062.71">31</text><text fill="#000000" font-family="sans-serif" font-size="13" lengthAdjust="spacing" textLength="103.3398" x="826.6519" y="1062.71">maintenanceType</text><polygon fill="#181818" points="457.0332,1095.2637,447.0332,1099.2637,457.0332,1103.2637,453.0332,1099.2637" style="stroke:#181818;stroke-width:1.0;"/><line style="stroke:#181818;stroke-width:1.0;" x1="451.0332" x2="785.1919" y1="1099.2637" y2="1099.2637"/><text fill="#000000" font-family="sans-serif" font-size="13" font-weight="bold" lengthAdjust="spacing" textLength="14.46" x="463.0332" y="1094.001">32</text><text fill="#000000" font-family="sans-serif" font-size="13" lengthAdjust="spacing" textLength="103.3398" x="481.4932" y="1094.001">maintenanceType</text><polygon fill="#181818" points="53.6274,1126.5547,43.6274,1130.5547,53.6274,1134.5547,49.6274,1130.5547" style="stroke:#181818;stroke-width:1.0;"/><line style="stroke:#181818;stroke-width:1.0;" x1="47.6274" x2="435.0332" y1="1130.5547" y2="1130.5547"/><text fill="#000000" font-family="sans-serif" font-size="13" font-weight="bold" lengthAdjust="spacing" textLength="14.46" x="59.6274" y="1125.292">33</text><text fill="#000000" font-family="sans-serif" font-size="13" lengthAdjust="spacing" textLength="121.3799" x="78.0874" y="1125.292">(In)SuccessMessage</text><!--SRC=[dPRRJkCm48RlynIZtb0Gkm-0LaYbuI8hM50FUs_iWLeaTjPs2tdxdJX9ILAd3OrKzU3vFziplyUziEzIvSom33AjDDyOdI4uiyNeQoHd_9szuT8LAO91xfXwIzi1TiE4_f3g3LvPQZ6AsDPfjSrUq4JHnKOAX5UjtOl-Z1Xtsi0aDbhX2lbc0ip2_bj4F2Uvp9boCBcv5z8zCgaSAgOuheeSPzn9hRog-dXQiavy-3ev7JhNoXcTfcYyPBvQFFH4Vgc9sg6YVHHBD3l9qGSl5t_dtU05vjfAYfDe9p2piBX_VbhsWBzprbl4NbPuxcEfEXJvXRH3Pqk80w4zU8LSHH7Giyyx_BYjqmat5F1kmMb8fNMGVSd1aTvw8LLHxfZ3fWPGFpM3QEk4I7QZFwQNVbJWaAR3eoArVoSAiNpQ2FSgbPYbQKqyq5RPXTvJYOdYypX8wP2gb4FWgI0bRJKIjJeO8sbhELctFlQ1iduWQMKl16mMrIJgsypWVlUPyxNyBZDOZQgUNxQx0I5jdhB2LcvZIb23-RT5won8KReGwPH6uIcwPkcOsIyvDtf7lSSsI1GWc6FHQUELwoHAUVwlheZ43L9GjyxLNigGsWczatPN968gnMLmEjzPMWCUGxYoYPo1yxsdDU0nFS-7U0-QUlOGzD0LUwFLovGY6ccePa5rkWQ5_OqqUV7r75Jrizaf3MSgqEcdFJ-VLIRy9DFQ5dc1N1jXxuhnKmoLBgvBzyqvVahxRD3IzJGDpnVtInFtYlgKb-sPfR_yWReTI7byeiBZA4VBFGuHhdsxnUmRYjiWAFmuQ097EaSelECk35XBYclI_M4PbkynMcwatyjv9WlF0CqKC6QEmGPHNcFRN9JTRG1u3T8cQcq7_DkzZuOxGFVMisnt_7mCtdZz7jI3dDcGnb6EsdKSuhHTfucwN6uvHsiVwKL_lAFskTl_LVuF]--></g></svg>