<svg xmlns="http://www.w3.org/2000/svg" xmlns:xlink="http://www.w3.org/1999/xlink" contentStyleType="text/css" data-diagram-type="CLASS" height="1021px" preserveAspectRatio="none" style="width:1219px;height:1021px;background:#FFFFFF;" version="1.1" viewBox="0 0 1219 1021" width="1219px" zoomAndPan="magnify"><defs/><g><!--class GameScreen--><g class="entity" data-entity="GameScreen" data-source-line="4" data-uid="ent0002" id="entity_GameScreen"><rect fill="#F1F1F1" height="80.5938" rx="2.5" ry="2.5" style="stroke:#181818;stroke-width:0.5;" width="390.1367" x="363.5" y="7"/><ellipse cx="509.2593" cy="23" fill="#ADD1B2" rx="11" ry="11" style="stroke:#181818;stroke-width:1;"/><path d="M512.228,28.6406 Q511.6499,28.9375 511.0093,29.0781 Q510.3687,29.2344 509.6655,29.2344 Q507.1655,29.2344 505.8374,27.5938 Q504.5249,25.9375 504.5249,22.8125 Q504.5249,19.6875 505.8374,18.0313 Q507.1655,16.375 509.6655,16.375 Q510.3687,16.375 511.0093,16.5313 Q511.6655,16.6875 512.228,16.9844 L512.228,19.7031 Q511.603,19.125 511.0093,18.8594 Q510.4155,18.5781 509.7905,18.5781 Q508.4468,18.5781 507.7593,19.6563 Q507.0718,20.7188 507.0718,22.8125 Q507.0718,24.9063 507.7593,25.9844 Q508.4468,27.0469 509.7905,27.0469 Q510.4155,27.0469 511.0093,26.7813 Q511.603,26.5 512.228,25.9219 L512.228,28.6406 Z " fill="#000000"/><text fill="#000000" font-family="sans-serif" font-size="14" lengthAdjust="spacing" textLength="90.1182" x="529.7593" y="27.8467">GameScreen</text><line style="stroke:#181818;stroke-width:0.5;" x1="364.5" x2="752.6367" y1="39" y2="39"/><line style="stroke:#181818;stroke-width:0.5;" x1="364.5" x2="752.6367" y1="47" y2="47"/><text fill="#000000" font-family="sans-serif" font-size="14" lengthAdjust="spacing" textLength="378.1367" x="369.5" y="63.9951">+getBuildingUpgrades() : List&lt;BuildingUpgradeDTO&gt;</text><text fill="#000000" font-family="sans-serif" font-size="14" lengthAdjust="spacing" textLength="350.417" x="369.5" y="80.292">+upgradeStation(stationDTO, upgradeDTO) : void</text></g><!--class GameController--><g class="entity" data-entity="GameController" data-source-line="10" data-uid="ent0003" id="entity_GameController"><rect fill="#F1F1F1" height="80.5938" rx="2.5" ry="2.5" style="stroke:#181818;stroke-width:0.5;" width="390.1367" x="363.5" y="148"/><ellipse cx="498.8926" cy="164" fill="#ADD1B2" rx="11" ry="11" style="stroke:#181818;stroke-width:1;"/><path d="M501.8613,169.6406 Q501.2832,169.9375 500.6426,170.0781 Q500.002,170.2344 499.2988,170.2344 Q496.7988,170.2344 495.4707,168.5938 Q494.1582,166.9375 494.1582,163.8125 Q494.1582,160.6875 495.4707,159.0313 Q496.7988,157.375 499.2988,157.375 Q500.002,157.375 500.6426,157.5313 Q501.2988,157.6875 501.8613,157.9844 L501.8613,160.7031 Q501.2363,160.125 500.6426,159.8594 Q500.0488,159.5781 499.4238,159.5781 Q498.0801,159.5781 497.3926,160.6563 Q496.7051,161.7188 496.7051,163.8125 Q496.7051,165.9063 497.3926,166.9844 Q498.0801,168.0469 499.4238,168.0469 Q500.0488,168.0469 500.6426,167.7813 Q501.2363,167.5 501.8613,166.9219 L501.8613,169.6406 Z " fill="#000000"/><text fill="#000000" font-family="sans-serif" font-size="14" lengthAdjust="spacing" textLength="110.8516" x="519.3926" y="168.8467">GameController</text><line style="stroke:#181818;stroke-width:0.5;" x1="364.5" x2="752.6367" y1="180" y2="180"/><line style="stroke:#181818;stroke-width:0.5;" x1="364.5" x2="752.6367" y1="188" y2="188"/><text fill="#000000" font-family="sans-serif" font-size="14" lengthAdjust="spacing" textLength="378.1367" x="369.5" y="204.9951">+getBuildingUpgrades() : List&lt;BuildingUpgradeDTO&gt;</text><text fill="#000000" font-family="sans-serif" font-size="14" lengthAdjust="spacing" textLength="350.417" x="369.5" y="221.292">+upgradeStation(stationDTO, upgradeDTO) : void</text></g><!--class UpgradeCatalog--><g class="entity" data-entity="UpgradeCatalog" data-source-line="16" data-uid="ent0004" id="entity_UpgradeCatalog"><rect fill="#F1F1F1" height="64.2969" rx="2.5" ry="2.5" style="stroke:#181818;stroke-width:0.5;" width="356.7568" x="7" y="611.5"/><ellipse cx="124.3184" cy="627.5" fill="#ADD1B2" rx="11" ry="11" style="stroke:#181818;stroke-width:1;"/><path d="M127.2871,633.1406 Q126.709,633.4375 126.0684,633.5781 Q125.4277,633.7344 124.7246,633.7344 Q122.2246,633.7344 120.8965,632.0938 Q119.584,630.4375 119.584,627.3125 Q119.584,624.1875 120.8965,622.5313 Q122.2246,620.875 124.7246,620.875 Q125.4277,620.875 126.0684,621.0313 Q126.7246,621.1875 127.2871,621.4844 L127.2871,624.2031 Q126.6621,623.625 126.0684,623.3594 Q125.4746,623.0781 124.8496,623.0781 Q123.5059,623.0781 122.8184,624.1563 Q122.1309,625.2188 122.1309,627.3125 Q122.1309,629.4063 122.8184,630.4844 Q123.5059,631.5469 124.8496,631.5469 Q125.4746,631.5469 126.0684,631.2813 Q126.6621,631 127.2871,630.4219 L127.2871,633.1406 Z " fill="#000000"/><text fill="#000000" font-family="sans-serif" font-size="14" lengthAdjust="spacing" textLength="113.6201" x="144.8184" y="632.3467">UpgradeCatalog</text><line style="stroke:#181818;stroke-width:0.5;" x1="8" x2="362.7568" y1="643.5" y2="643.5"/><line style="stroke:#181818;stroke-width:0.5;" x1="8" x2="362.7568" y1="651.5" y2="651.5"/><text fill="#000000" font-family="sans-serif" font-size="14" lengthAdjust="spacing" textLength="344.7568" x="13" y="668.4951">+getUpgradesCatalog() : List&lt;BuildingUpgrade&gt;</text></g><!--class BuildingUpgradeMapper--><g class="entity" data-entity="BuildingUpgradeMapper" data-source-line="20" data-uid="ent0005" id="entity_BuildingUpgradeMapper"><rect fill="#F1F1F1" height="80.5938" rx="2.5" ry="2.5" style="stroke:#181818;stroke-width:0.5;" width="551.6084" x="118.5" y="289"/><ellipse cx="305.3296" cy="305" fill="#ADD1B2" rx="11" ry="11" style="stroke:#181818;stroke-width:1;"/><path d="M308.2983,310.6406 Q307.7202,310.9375 307.0796,311.0781 Q306.439,311.2344 305.7358,311.2344 Q303.2358,311.2344 301.9077,309.5938 Q300.5952,307.9375 300.5952,304.8125 Q300.5952,301.6875 301.9077,300.0313 Q303.2358,298.375 305.7358,298.375 Q306.439,298.375 307.0796,298.5313 Q307.7358,298.6875 308.2983,298.9844 L308.2983,301.7031 Q307.6733,301.125 307.0796,300.8594 Q306.4858,300.5781 305.8608,300.5781 Q304.5171,300.5781 303.8296,301.6563 Q303.1421,302.7188 303.1421,304.8125 Q303.1421,306.9063 303.8296,307.9844 Q304.5171,309.0469 305.8608,309.0469 Q306.4858,309.0469 307.0796,308.7813 Q307.6733,308.5 308.2983,307.9219 L308.2983,310.6406 Z " fill="#000000"/><text fill="#000000" font-family="sans-serif" font-size="14" lengthAdjust="spacing" textLength="169.4492" x="325.8296" y="309.8467">BuildingUpgradeMapper</text><line style="stroke:#181818;stroke-width:0.5;" x1="119.5" x2="669.1084" y1="321" y2="321"/><line style="stroke:#181818;stroke-width:0.5;" x1="119.5" x2="669.1084" y1="329" y2="329"/><text fill="#000000" font-family="sans-serif" font-size="14" lengthAdjust="spacing" textLength="539.6084" x="124.5" y="345.9951">+toDTOList(upgrades: List&lt;BuildingUpgrade&gt;) : List&lt;BuildingUpgradeDTO&gt;</text><text fill="#000000" font-family="sans-serif" font-size="14" lengthAdjust="spacing" textLength="411.9746" x="124.5" y="362.292">+toDTO(upgrade: BuildingUpgrade) : BuildingUpgradeDTO</text></g><!--class BuildingUpgradeDTO--><g class="entity" data-entity="BuildingUpgradeDTO" data-source-line="25" data-uid="ent0006" id="entity_BuildingUpgradeDTO"><rect fill="#F1F1F1" height="113.1875" rx="2.5" ry="2.5" style="stroke:#181818;stroke-width:0.5;" width="179" x="378" y="430"/><ellipse cx="393" cy="446" fill="#ADD1B2" rx="11" ry="11" style="stroke:#181818;stroke-width:1;"/><path d="M395.9688,451.6406 Q395.3906,451.9375 394.75,452.0781 Q394.1094,452.2344 393.4063,452.2344 Q390.9063,452.2344 389.5781,450.5938 Q388.2656,448.9375 388.2656,445.8125 Q388.2656,442.6875 389.5781,441.0313 Q390.9063,439.375 393.4063,439.375 Q394.1094,439.375 394.75,439.5313 Q395.4063,439.6875 395.9688,439.9844 L395.9688,442.7031 Q395.3438,442.125 394.75,441.8594 Q394.1563,441.5781 393.5313,441.5781 Q392.1875,441.5781 391.5,442.6563 Q390.8125,443.7188 390.8125,445.8125 Q390.8125,447.9063 391.5,448.9844 Q392.1875,450.0469 393.5313,450.0469 Q394.1563,450.0469 394.75,449.7813 Q395.3438,449.5 395.9688,448.9219 L395.9688,451.6406 Z " fill="#000000"/><text fill="#000000" font-family="sans-serif" font-size="14" lengthAdjust="spacing" textLength="147" x="407" y="450.8467">BuildingUpgradeDTO</text><line style="stroke:#181818;stroke-width:0.5;" x1="379" x2="556" y1="462" y2="462"/><text fill="#000000" font-family="sans-serif" font-size="14" lengthAdjust="spacing" textLength="47.4824" x="384" y="478.9951">&#171;DTO&#187;</text><text fill="#000000" font-family="sans-serif" font-size="14" lengthAdjust="spacing" textLength="106.832" x="384" y="495.292">+name : String</text><text fill="#000000" font-family="sans-serif" font-size="14" lengthAdjust="spacing" textLength="144.9697" x="384" y="511.5889">+description : String</text><text fill="#000000" font-family="sans-serif" font-size="14" lengthAdjust="spacing" textLength="102.1084" x="384" y="527.8857">+cost : double</text><line style="stroke:#181818;stroke-width:0.5;" x1="379" x2="556" y1="535.1875" y2="535.1875"/></g><!--class BuildingUpgrade--><g class="entity" data-entity="BuildingUpgrade" data-source-line="32" data-uid="ent0007" id="entity_BuildingUpgrade"><rect fill="#F1F1F1" height="113.1875" rx="2.5" ry="2.5" style="stroke:#181818;stroke-width:0.5;" width="156.9697" x="304" y="901"/><ellipse cx="322.7446" cy="917" fill="#ADD1B2" rx="11" ry="11" style="stroke:#181818;stroke-width:1;"/><path d="M325.7133,922.6406 Q325.1352,922.9375 324.4946,923.0781 Q323.854,923.2344 323.1508,923.2344 Q320.6508,923.2344 319.3227,921.5938 Q318.0102,919.9375 318.0102,916.8125 Q318.0102,913.6875 319.3227,912.0313 Q320.6508,910.375 323.1508,910.375 Q323.854,910.375 324.4946,910.5313 Q325.1508,910.6875 325.7133,910.9844 L325.7133,913.7031 Q325.0883,913.125 324.4946,912.8594 Q323.9008,912.5781 323.2758,912.5781 Q321.9321,912.5781 321.2446,913.6563 Q320.5571,914.7188 320.5571,916.8125 Q320.5571,918.9063 321.2446,919.9844 Q321.9321,921.0469 323.2758,921.0469 Q323.9008,921.0469 324.4946,920.7813 Q325.0883,920.5 325.7133,919.9219 L325.7133,922.6406 Z " fill="#000000"/><text fill="#000000" font-family="sans-serif" font-size="14" lengthAdjust="spacing" textLength="116.6484" x="337.5767" y="921.8467">BuildingUpgrade</text><line style="stroke:#181818;stroke-width:0.5;" x1="305" x2="459.9697" y1="933" y2="933"/><text fill="#000000" font-family="sans-serif" font-size="14" lengthAdjust="spacing" textLength="106.832" x="310" y="949.9951">+name : String</text><text fill="#000000" font-family="sans-serif" font-size="14" lengthAdjust="spacing" textLength="144.9697" x="310" y="966.292">+description : String</text><text fill="#000000" font-family="sans-serif" font-size="14" lengthAdjust="spacing" textLength="102.1084" x="310" y="982.5889">+cost : double</text><line style="stroke:#181818;stroke-width:0.5;" x1="305" x2="459.9697" y1="989.8906" y2="989.8906"/><text fill="#000000" font-family="sans-serif" font-size="14" lengthAdjust="spacing" textLength="138.0996" x="310" y="1006.8857">+getCost() : double</text></g><!--class CurrentGame--><g class="entity" data-entity="CurrentGame" data-source-line="39" data-uid="ent0008" id="entity_CurrentGame"><rect fill="#F1F1F1" height="80.5938" rx="2.5" ry="2.5" style="stroke:#181818;stroke-width:0.5;" width="435.5342" x="776.5" y="289"/><ellipse cx="942.6099" cy="305" fill="#ADD1B2" rx="11" ry="11" style="stroke:#181818;stroke-width:1;"/><path d="M945.5786,310.6406 Q945.0005,310.9375 944.3599,311.0781 Q943.7192,311.2344 943.0161,311.2344 Q940.5161,311.2344 939.188,309.5938 Q937.8755,307.9375 937.8755,304.8125 Q937.8755,301.6875 939.188,300.0313 Q940.5161,298.375 943.0161,298.375 Q943.7192,298.375 944.3599,298.5313 Q945.0161,298.6875 945.5786,298.9844 L945.5786,301.7031 Q944.9536,301.125 944.3599,300.8594 Q943.7661,300.5781 943.1411,300.5781 Q941.7974,300.5781 941.1099,301.6563 Q940.4224,302.7188 940.4224,304.8125 Q940.4224,306.9063 941.1099,307.9844 Q941.7974,309.0469 943.1411,309.0469 Q943.7661,309.0469 944.3599,308.7813 Q944.9536,308.5 945.5786,307.9219 L945.5786,310.6406 Z " fill="#000000"/><text fill="#000000" font-family="sans-serif" font-size="14" lengthAdjust="spacing" textLength="94.8145" x="963.1099" y="309.8467">CurrentGame</text><line style="stroke:#181818;stroke-width:0.5;" x1="777.5" x2="1211.0342" y1="321" y2="321"/><line style="stroke:#181818;stroke-width:0.5;" x1="777.5" x2="1211.0342" y1="329" y2="329"/><text fill="#000000" font-family="sans-serif" font-size="14" lengthAdjust="spacing" textLength="350.417" x="782.5" y="345.9951">+upgradeStation(stationDTO, upgradeDTO) : void</text><text fill="#000000" font-family="sans-serif" font-size="14" lengthAdjust="spacing" textLength="423.5342" x="782.5" y="362.292">+checkIfPlayerHasEnoughResources(cost: double) : boolean</text></g><!--class Map--><g class="entity" data-entity="Map" data-source-line="45" data-uid="ent0009" id="entity_Map"><rect fill="#F1F1F1" height="64.2969" rx="2.5" ry="2.5" style="stroke:#181818;stroke-width:0.5;" width="362.417" x="739.5" y="454.5"/><ellipse cx="901.686" cy="470.5" fill="#ADD1B2" rx="11" ry="11" style="stroke:#181818;stroke-width:1;"/><path d="M904.6548,476.1406 Q904.0767,476.4375 903.436,476.5781 Q902.7954,476.7344 902.0923,476.7344 Q899.5923,476.7344 898.2642,475.0938 Q896.9517,473.4375 896.9517,470.3125 Q896.9517,467.1875 898.2642,465.5313 Q899.5923,463.875 902.0923,463.875 Q902.7954,463.875 903.436,464.0313 Q904.0923,464.1875 904.6548,464.4844 L904.6548,467.2031 Q904.0298,466.625 903.436,466.3594 Q902.8423,466.0781 902.2173,466.0781 Q900.8735,466.0781 900.186,467.1563 Q899.4985,468.2188 899.4985,470.3125 Q899.4985,472.4063 900.186,473.4844 Q900.8735,474.5469 902.2173,474.5469 Q902.8423,474.5469 903.436,474.2813 Q904.0298,474 904.6548,473.4219 L904.6548,476.1406 Z " fill="#000000"/><text fill="#000000" font-family="sans-serif" font-size="14" lengthAdjust="spacing" textLength="29.5449" x="922.186" y="475.3467">Map</text><line style="stroke:#181818;stroke-width:0.5;" x1="740.5" x2="1100.917" y1="486.5" y2="486.5"/><line style="stroke:#181818;stroke-width:0.5;" x1="740.5" x2="1100.917" y1="494.5" y2="494.5"/><text fill="#000000" font-family="sans-serif" font-size="14" lengthAdjust="spacing" textLength="350.417" x="745.5" y="511.4951">+upgradeStation(stationDTO, upgradeDTO) : void</text></g><!--class Stations--><g class="entity" data-entity="Stations" data-source-line="49" data-uid="ent0010" id="entity_Stations"><rect fill="#F1F1F1" height="80.5938" rx="2.5" ry="2.5" style="stroke:#181818;stroke-width:0.5;" width="362.417" x="532.5" y="603"/><ellipse cx="680.9253" cy="619" fill="#ADD1B2" rx="11" ry="11" style="stroke:#181818;stroke-width:1;"/><path d="M683.894,624.6406 Q683.3159,624.9375 682.6753,625.0781 Q682.0347,625.2344 681.3315,625.2344 Q678.8315,625.2344 677.5034,623.5938 Q676.1909,621.9375 676.1909,618.8125 Q676.1909,615.6875 677.5034,614.0313 Q678.8315,612.375 681.3315,612.375 Q682.0347,612.375 682.6753,612.5313 Q683.3315,612.6875 683.894,612.9844 L683.894,615.7031 Q683.269,615.125 682.6753,614.8594 Q682.0815,614.5781 681.4565,614.5781 Q680.1128,614.5781 679.4253,615.6563 Q678.7378,616.7188 678.7378,618.8125 Q678.7378,620.9063 679.4253,621.9844 Q680.1128,623.0469 681.4565,623.0469 Q682.0815,623.0469 682.6753,622.7813 Q683.269,622.5 683.894,621.9219 L683.894,624.6406 Z " fill="#000000"/><text fill="#000000" font-family="sans-serif" font-size="14" lengthAdjust="spacing" textLength="57.0664" x="701.4253" y="623.8467">Stations</text><line style="stroke:#181818;stroke-width:0.5;" x1="533.5" x2="893.917" y1="635" y2="635"/><line style="stroke:#181818;stroke-width:0.5;" x1="533.5" x2="893.917" y1="643" y2="643"/><text fill="#000000" font-family="sans-serif" font-size="14" lengthAdjust="spacing" textLength="350.417" x="538.5" y="659.9951">+upgradeStation(stationDTO, upgradeDTO) : void</text><text fill="#000000" font-family="sans-serif" font-size="14" lengthAdjust="spacing" textLength="237.3369" x="538.5" y="676.292">+getStation(stationDTO) : Station</text></g><!--class Station--><g class="entity" data-entity="Station" data-source-line="54" data-uid="ent0011" id="entity_Station"><rect fill="#F1F1F1" height="96.8906" rx="2.5" ry="2.5" style="stroke:#181818;stroke-width:0.5;" width="267.7051" x="460.5" y="744"/><ellipse cx="565.2163" cy="760" fill="#ADD1B2" rx="11" ry="11" style="stroke:#181818;stroke-width:1;"/><path d="M568.1851,765.6406 Q567.6069,765.9375 566.9663,766.0781 Q566.3257,766.2344 565.6226,766.2344 Q563.1226,766.2344 561.7944,764.5938 Q560.4819,762.9375 560.4819,759.8125 Q560.4819,756.6875 561.7944,755.0313 Q563.1226,753.375 565.6226,753.375 Q566.3257,753.375 566.9663,753.5313 Q567.6226,753.6875 568.1851,753.9844 L568.1851,756.7031 Q567.5601,756.125 566.9663,755.8594 Q566.3726,755.5781 565.7476,755.5781 Q564.4038,755.5781 563.7163,756.6563 Q563.0288,757.7188 563.0288,759.8125 Q563.0288,761.9063 563.7163,762.9844 Q564.4038,764.0469 565.7476,764.0469 Q566.3726,764.0469 566.9663,763.7813 Q567.5601,763.5 568.1851,762.9219 L568.1851,765.6406 Z " fill="#000000"/><text fill="#000000" font-family="sans-serif" font-size="14" lengthAdjust="spacing" textLength="49.7725" x="585.7163" y="764.8467">Station</text><line style="stroke:#181818;stroke-width:0.5;" x1="461.5" x2="727.2051" y1="776" y2="776"/><text fill="#000000" font-family="sans-serif" font-size="14" lengthAdjust="spacing" textLength="106.832" x="466.5" y="792.9951">+name : String</text><text fill="#000000" font-family="sans-serif" font-size="14" lengthAdjust="spacing" textLength="255.7051" x="466.5" y="809.292">+upgrades : List&lt;BuildingUpgrade&gt;</text><line style="stroke:#181818;stroke-width:0.5;" x1="461.5" x2="727.2051" y1="816.5938" y2="816.5938"/><text fill="#000000" font-family="sans-serif" font-size="14" lengthAdjust="spacing" textLength="240.9395" x="466.5" y="833.5889">+addUpgrade(upgradeDTO) : void</text></g><!--link GameScreen to GameController--><g class="link" data-entity-1="GameScreen" data-entity-2="GameController" data-source-line="61" data-uid="lnk12" id="link_GameScreen_GameController"><path codeLine="61" d="M558.5,88.33 C558.5,106.94 558.5,123.05 558.5,141.66" fill="none" id="GameScreen-to-GameController" style="stroke:#181818;stroke-width:1;"/><polygon fill="#181818" points="558.5,147.66,562.5,138.66,558.5,142.66,554.5,138.66,558.5,147.66" style="stroke:#181818;stroke-width:1;"/></g><!--link GameController to UpgradeCatalog--><g class="link" data-entity-1="GameController" data-entity-2="UpgradeCatalog" data-source-line="62" data-uid="lnk13" id="link_GameController_UpgradeCatalog"><path codeLine="62" d="M363.33,207.57 C254.46,222.14 134.14,247.27 100.5,289 C22.07,386.3 112.379,539.6378 158.879,606.3478" fill="none" id="GameController-to-UpgradeCatalog" style="stroke:#181818;stroke-width:1;"/><polygon fill="#181818" points="162.31,611.27,160.445,601.5993,159.4508,607.1682,153.882,606.174,162.31,611.27" style="stroke:#181818;stroke-width:1;"/></g><!--link GameController to BuildingUpgradeMapper--><g class="link" data-entity-1="GameController" data-entity-2="BuildingUpgradeMapper" data-source-line="63" data-uid="lnk14" id="link_GameController_BuildingUpgradeMapper"><path codeLine="63" d="M511.5,229.33 C489.45,248.02 467.8175,266.361 445.7975,285.021" fill="none" id="GameController-to-BuildingUpgradeMapper" style="stroke:#181818;stroke-width:1;"/><polygon fill="#181818" points="441.22,288.9,450.6722,286.1331,445.0346,285.6675,445.5002,280.0298,441.22,288.9" style="stroke:#181818;stroke-width:1;"/></g><!--link GameController to CurrentGame--><g class="link" data-entity-1="GameController" data-entity-2="CurrentGame" data-source-line="64" data-uid="lnk15" id="link_GameController_CurrentGame"><path codeLine="64" d="M682.57,229.05 C741.47,247.83 805.9734,268.3977 864.8534,287.1677" fill="none" id="GameController-to-CurrentGame" style="stroke:#181818;stroke-width:1;"/><polygon fill="#181818" points="870.57,288.99,863.2101,282.4454,865.8062,287.4714,860.7803,290.0675,870.57,288.99" style="stroke:#181818;stroke-width:1;"/></g><!--link GameController to BuildingUpgradeDTO--><g class="link" data-entity-1="GameController" data-entity-2="BuildingUpgradeDTO" data-source-line="65" data-uid="lnk16" id="link_GameController_BuildingUpgradeDTO"><path codeLine="65" d="M633.55,229.09 C655.34,244.64 676.48,264.66 688.5,289 C704.44,321.28 707.15,339.21 688.5,370 C659.9,417.21 610.6231,444.0395 562.6831,461.0895" fill="none" id="GameController-to-BuildingUpgradeDTO" style="stroke:#181818;stroke-width:1;"/><polygon fill="#181818" points="557.03,463.1,566.85,463.8529,561.7409,461.4245,564.1693,456.3154,557.03,463.1" style="stroke:#181818;stroke-width:1;"/></g><!--link UpgradeCatalog to BuildingUpgrade--><g class="link" data-entity-1="UpgradeCatalog" data-entity-2="BuildingUpgrade" data-source-line="66" data-uid="lnk17" id="link_UpgradeCatalog_BuildingUpgrade"><path codeLine="66" d="M205.11,675.56 C238.25,728.04 302.5669,829.8965 344.0769,895.6465" fill="none" id="UpgradeCatalog-to-BuildingUpgrade" style="stroke:#181818;stroke-width:1;"/><polygon fill="#181818" points="347.28,900.72,345.8577,890.9744,344.6108,896.4921,339.0931,895.2451,347.28,900.72" style="stroke:#181818;stroke-width:1;"/></g><!--link BuildingUpgradeMapper to BuildingUpgradeDTO--><g class="link" data-entity-1="BuildingUpgradeMapper" data-entity-2="BuildingUpgradeDTO" data-source-line="67" data-uid="lnk18" id="link_BuildingUpgradeMapper_BuildingUpgradeDTO"><path codeLine="67" d="M413.11,370.01 C421.69,388.22 429.4534,404.722 438.7934,424.552" fill="none" id="BuildingUpgradeMapper-to-BuildingUpgradeDTO" style="stroke:#181818;stroke-width:1;"/><polygon fill="#181818" points="441.35,429.98,441.1338,420.1335,439.2195,425.4566,433.8964,423.5424,441.35,429.98" style="stroke:#181818;stroke-width:1;"/></g><!--link CurrentGame to Map--><g class="link" data-entity-1="CurrentGame" data-entity-2="Map" data-source-line="68" data-uid="lnk19" id="link_CurrentGame_Map"><path codeLine="68" d="M975.64,370.01 C963.13,396.2 949.5447,424.6653 937.9547,448.9453" fill="none" id="CurrentGame-to-Map" style="stroke:#181818;stroke-width:1;"/><polygon fill="#181818" points="935.37,454.36,942.8569,447.961,937.5239,449.8477,935.6372,444.5148,935.37,454.36" style="stroke:#181818;stroke-width:1;"/></g><!--link Map to Stations--><g class="link" data-entity-1="Map" data-entity-2="Stations" data-source-line="69" data-uid="lnk20" id="link_Map_Stations"><path codeLine="69" d="M878.61,518.87 C846.24,543.1 806.0331,573.2142 771.1831,599.3042" fill="none" id="Map-to-Stations" style="stroke:#181818;stroke-width:1;"/><polygon fill="#181818" points="766.38,602.9,775.9819,600.7084,770.3826,599.9035,771.1875,594.3042,766.38,602.9" style="stroke:#181818;stroke-width:1;"/></g><!--link Stations to Station--><g class="link" data-entity-1="Stations" data-entity-2="Station" data-source-line="70" data-uid="lnk21" id="link_Stations_Station"><path codeLine="70" d="M681.3,684.28 C666.43,702.65 652.4359,719.9371 636.8559,739.1771" fill="none" id="Stations-to-Station" style="stroke:#181818;stroke-width:1;"/><polygon fill="#181818" points="633.08,743.84,641.8524,739.3629,636.2266,739.9542,635.6352,734.3284,633.08,743.84" style="stroke:#181818;stroke-width:1;"/></g><!--link Station to BuildingUpgrade--><g class="link" data-entity-1="Station" data-entity-2="BuildingUpgrade" data-source-line="71" data-uid="lnk22" id="link_Station_BuildingUpgrade"><path codeLine="71" d="M532.61,841.08 C508.29,859.78 484.9567,877.723 459.6967,897.143" fill="none" id="Station-to-BuildingUpgrade" style="stroke:#181818;stroke-width:1;"/><polygon fill="#181818" points="454.94,900.8,464.5131,898.4857,458.9039,897.7525,459.6371,892.1434,454.94,900.8" style="stroke:#181818;stroke-width:1;"/></g><!--SRC=[nLJ1RjGm4BtxAtmZAuZAkLgjLB88Aj626lY0MNj8hNhjo7Og0U9hE73YXFY2_J4yIRnDiqbRsWDxsTsPyNlFupVZhvIfmS6M2mtUduJWrAO9U2giATLNv2yPUyRpFES5R442byXFQeSUJO3TpzqFIqdM7kPlO8kbS8Y6VsCyVfvN65urIajbgazrvK2YpnRycBzJFYn7cVN7zwlkLDC5oW11MPFvxZlcN_1cNqimrrP9zdrAeLPYKbvXJN1MQtJ_MUBQRdU_ZB97vrZjVWir5Dgp5H10sseWD0diCxCwLyJOOOqoPr3NDtSFDgeaWAmNxMVmxcz82vLWZiUqTFxmwApAcEibBfT4qNEO-80Hg8mUDLKNYfA5KpKrVvGHreSOahRPQ9nbIfru0dHwd296snSPKnQDSt5So7w9xj_iqv5UehWw_Vn1mnTqRy6_DhQfBY_GsyQ9w5aIbRZfvCPQZM1kl9SSnpDf-VfiCJ1STCNZbEtlsDVx9rmmjl2mVD6sllrtG7R7soKxpyv7MmLIze7ihg6zG4sxv4-4ezQLQuxx_WrMNfwlHYk6ZJOELToUxQcAoOcTAXpuwW4uD6-ZnJ9HnQRtnGpUqDbK4giPUOb-9qUmlJK6qHISbF0N]--></g></svg>