<svg xmlns="http://www.w3.org/2000/svg" xmlns:xlink="http://www.w3.org/1999/xlink" contentStyleType="text/css" height="599px" preserveAspectRatio="none" style="width:1182px;height:599px;background:#FFFFFF;" version="1.1" viewBox="0 0 1182 599" width="1182px" zoomAndPan="magnify"><defs/><g><line style="stroke:#181818;stroke-width:0.5;stroke-dasharray:5.0,5.0;" x1="65" x2="65" y1="102.2422" y2="497.7344"/><line style="stroke:#181818;stroke-width:0.5;stroke-dasharray:5.0,5.0;" x1="245.4585" x2="245.4585" y1="102.2422" y2="497.7344"/><line style="stroke:#181818;stroke-width:0.5;stroke-dasharray:5.0,5.0;" x1="435.6304" x2="435.6304" y1="102.2422" y2="497.7344"/><line style="stroke:#181818;stroke-width:0.5;stroke-dasharray:5.0,5.0;" x1="626.4917" x2="626.4917" y1="102.2422" y2="497.7344"/><line style="stroke:#181818;stroke-width:0.5;stroke-dasharray:5.0,5.0;" x1="782.6636" x2="782.6636" y1="102.2422" y2="497.7344"/><line style="stroke:#181818;stroke-width:0.5;stroke-dasharray:5.0,5.0;" x1="924.0562" x2="924.0562" y1="102.2422" y2="497.7344"/><line style="stroke:#181818;stroke-width:0.5;stroke-dasharray:5.0,5.0;" x1="1086.6489" x2="1086.6489" y1="102.2422" y2="497.7344"/><text fill="#000000" font-family="sans-serif" font-size="14" lengthAdjust="spacing" textLength="94.9375" x="13.5483" y="80.1074">Show Designer</text><text fill="#000000" font-family="sans-serif" font-size="14" lengthAdjust="spacing" textLength="112.0342" x="8.8896" y="98.7285">CRM Collaborator</text><ellipse cx="65.9619" cy="13.5" fill="#E2E2F0" rx="8" ry="8" style="stroke:#181818;stroke-width:0.5;"/><path d="M65.9619,21.5 L65.9619,48.5 M52.9619,29.5 L78.9619,29.5 M65.9619,48.5 L52.9619,63.5 M65.9619,48.5 L78.9619,63.5 " fill="none" style="stroke:#181818;stroke-width:0.5;"/><text fill="#000000" font-family="sans-serif" font-size="14" lengthAdjust="spacing" textLength="94.9375" x="13.5483" y="511.8418">Show Designer</text><text fill="#000000" font-family="sans-serif" font-size="14" lengthAdjust="spacing" textLength="112.0342" x="8.8896" y="530.4629">CRM Collaborator</text><ellipse cx="65.9619" cy="542.4766" fill="#E2E2F0" rx="8" ry="8" style="stroke:#181818;stroke-width:0.5;"/><path d="M65.9619,550.4766 L65.9619,577.4766 M52.9619,558.4766 L78.9619,558.4766 M65.9619,577.4766 L52.9619,592.4766 M65.9619,577.4766 L78.9619,592.4766 " fill="none" style="stroke:#181818;stroke-width:0.5;"/><rect fill="#E2E2F0" height="32.6211" rx="2.5" ry="2.5" style="stroke:#181818;stroke-width:0.5;" width="157.1719" x="167.4585" y="68.6211"/><text fill="#000000" font-family="sans-serif" font-size="14" lengthAdjust="spacing" textLength="143.1719" x="174.4585" y="90.7285">ListFigureCategoriesUI</text><rect fill="#E2E2F0" height="32.6211" rx="2.5" ry="2.5" style="stroke:#181818;stroke-width:0.5;" width="157.1719" x="167.4585" y="496.7344"/><text fill="#000000" font-family="sans-serif" font-size="14" lengthAdjust="spacing" textLength="143.1719" x="174.4585" y="518.8418">ListFigureCategoriesUI</text><rect fill="#E2E2F0" height="32.6211" rx="2.5" ry="2.5" style="stroke:#181818;stroke-width:0.5;" width="203.8613" x="334.6304" y="68.6211"/><text fill="#000000" font-family="sans-serif" font-size="14" lengthAdjust="spacing" textLength="189.8613" x="341.6304" y="90.7285">ListFigureCategoriesController</text><rect fill="#E2E2F0" height="32.6211" rx="2.5" ry="2.5" style="stroke:#181818;stroke-width:0.5;" width="203.8613" x="334.6304" y="496.7344"/><text fill="#000000" font-family="sans-serif" font-size="14" lengthAdjust="spacing" textLength="189.8613" x="341.6304" y="518.8418">ListFigureCategoriesController</text><rect fill="#E2E2F0" height="32.6211" rx="2.5" ry="2.5" style="stroke:#181818;stroke-width:0.5;" width="157.1719" x="548.4917" y="68.6211"/><text fill="#000000" font-family="sans-serif" font-size="14" lengthAdjust="spacing" textLength="143.1719" x="555.4917" y="90.7285">FigureCategoryService</text><rect fill="#E2E2F0" height="32.6211" rx="2.5" ry="2.5" style="stroke:#181818;stroke-width:0.5;" width="157.1719" x="548.4917" y="496.7344"/><text fill="#000000" font-family="sans-serif" font-size="14" lengthAdjust="spacing" textLength="143.1719" x="555.4917" y="518.8418">FigureCategoryService</text><rect fill="#E2E2F0" height="32.6211" rx="2.5" ry="2.5" style="stroke:#181818;stroke-width:0.5;" width="135.3926" x="715.6636" y="68.6211"/><text fill="#000000" font-family="sans-serif" font-size="14" lengthAdjust="spacing" textLength="121.3926" x="722.6636" y="90.7285">PersistenceContext</text><rect fill="#E2E2F0" height="32.6211" rx="2.5" ry="2.5" style="stroke:#181818;stroke-width:0.5;" width="135.3926" x="715.6636" y="496.7344"/><text fill="#000000" font-family="sans-serif" font-size="14" lengthAdjust="spacing" textLength="121.3926" x="722.6636" y="518.8418">PersistenceContext</text><rect fill="#E2E2F0" height="32.6211" rx="2.5" ry="2.5" style="stroke:#181818;stroke-width:0.5;" width="127.5928" x="861.0562" y="68.6211"/><text fill="#000000" font-family="sans-serif" font-size="14" lengthAdjust="spacing" textLength="113.5928" x="868.0562" y="90.7285">RepositoryFactory</text><rect fill="#E2E2F0" height="32.6211" rx="2.5" ry="2.5" style="stroke:#181818;stroke-width:0.5;" width="127.5928" x="861.0562" y="496.7344"/><text fill="#000000" font-family="sans-serif" font-size="14" lengthAdjust="spacing" textLength="113.5928" x="868.0562" y="518.8418">RepositoryFactory</text><rect fill="#E2E2F0" height="32.6211" rx="2.5" ry="2.5" style="stroke:#181818;stroke-width:0.5;" width="177.4063" x="998.6489" y="68.6211"/><text fill="#000000" font-family="sans-serif" font-size="14" lengthAdjust="spacing" textLength="163.4063" x="1005.6489" y="90.7285">FigureCategoryRepository</text><rect fill="#E2E2F0" height="32.6211" rx="2.5" ry="2.5" style="stroke:#181818;stroke-width:0.5;" width="177.4063" x="998.6489" y="496.7344"/><text fill="#000000" font-family="sans-serif" font-size="14" lengthAdjust="spacing" textLength="163.4063" x="1005.6489" y="518.8418">FigureCategoryRepository</text><polygon fill="#181818" points="234.0444,131.5332,244.0444,135.5332,234.0444,139.5332,238.0444,135.5332" style="stroke:#181818;stroke-width:1.0;"/><line style="stroke:#181818;stroke-width:1.0;" x1="65.9619" x2="240.0444" y1="135.5332" y2="135.5332"/><text fill="#000000" font-family="sans-serif" font-size="13" lengthAdjust="spacing" textLength="156.0825" x="72.9619" y="130.2705">Request to view categories</text><polygon fill="#181818" points="424.561,162.8242,434.561,166.8242,424.561,170.8242,428.561,166.8242" style="stroke:#181818;stroke-width:1.0;"/><line style="stroke:#181818;stroke-width:1.0;" x1="246.0444" x2="430.561" y1="166.8242" y2="166.8242"/><text fill="#000000" font-family="sans-serif" font-size="13" lengthAdjust="spacing" textLength="36.1309" x="253.0444" y="161.5615">create</text><polygon fill="#181818" points="771.3599,194.1152,781.3599,198.1152,771.3599,202.1152,775.3599,198.1152" style="stroke:#181818;stroke-width:1.0;"/><line style="stroke:#181818;stroke-width:1.0;" x1="436.561" x2="777.3599" y1="198.1152" y2="198.1152"/><text fill="#000000" font-family="sans-serif" font-size="13" lengthAdjust="spacing" textLength="75.8545" x="443.561" y="192.8525">repositories()</text><polygon fill="#181818" points="912.8525,225.4063,922.8525,229.4063,912.8525,233.4063,916.8525,229.4063" style="stroke:#181818;stroke-width:1.0;"/><line style="stroke:#181818;stroke-width:1.0;" x1="783.3599" x2="918.8525" y1="229.4063" y2="229.4063"/><text fill="#000000" font-family="sans-serif" font-size="13" lengthAdjust="spacing" textLength="36.1309" x="790.3599" y="224.1436">create</text><polygon fill="#181818" points="1075.3521,256.6973,1085.3521,260.6973,1075.3521,264.6973,1079.3521,260.6973" style="stroke:#181818;stroke-width:1.0;"/><line style="stroke:#181818;stroke-width:1.0;" x1="924.8525" x2="1081.3521" y1="260.6973" y2="260.6973"/><text fill="#000000" font-family="sans-serif" font-size="13" lengthAdjust="spacing" textLength="36.1309" x="931.8525" y="255.4346">create</text><polygon fill="#181818" points="424.561,287.9883,434.561,291.9883,424.561,295.9883,428.561,291.9883" style="stroke:#181818;stroke-width:1.0;"/><line style="stroke:#181818;stroke-width:1.0;" x1="246.0444" x2="430.561" y1="291.9883" y2="291.9883"/><text fill="#000000" font-family="sans-serif" font-size="13" lengthAdjust="spacing" textLength="101.8608" x="253.0444" y="286.7256">listAllCategories()</text><polygon fill="#181818" points="615.0776,319.2793,625.0776,323.2793,615.0776,327.2793,619.0776,323.2793" style="stroke:#181818;stroke-width:1.0;"/><line style="stroke:#181818;stroke-width:1.0;" x1="436.561" x2="621.0776" y1="323.2793" y2="323.2793"/><text fill="#000000" font-family="sans-serif" font-size="13" lengthAdjust="spacing" textLength="101.8608" x="443.561" y="318.0166">listAllCategories()</text><polygon fill="#181818" points="1075.3521,350.5703,1085.3521,354.5703,1075.3521,358.5703,1079.3521,354.5703" style="stroke:#181818;stroke-width:1.0;"/><line style="stroke:#181818;stroke-width:1.0;" x1="627.0776" x2="1081.3521" y1="354.5703" y2="354.5703"/><text fill="#000000" font-family="sans-serif" font-size="13" lengthAdjust="spacing" textLength="44.0654" x="634.0776" y="349.3076">findAll()</text><polygon fill="#181818" points="638.0776,381.8613,628.0776,385.8613,638.0776,389.8613,634.0776,385.8613" style="stroke:#181818;stroke-width:1.0;"/><line style="stroke:#181818;stroke-width:1.0;stroke-dasharray:2.0,2.0;" x1="632.0776" x2="1086.3521" y1="385.8613" y2="385.8613"/><text fill="#000000" font-family="sans-serif" font-size="13" lengthAdjust="spacing" textLength="59.979" x="644.0776" y="380.5986">categories</text><polygon fill="#181818" points="447.561,413.1523,437.561,417.1523,447.561,421.1523,443.561,417.1523" style="stroke:#181818;stroke-width:1.0;"/><line style="stroke:#181818;stroke-width:1.0;stroke-dasharray:2.0,2.0;" x1="441.561" x2="626.0776" y1="417.1523" y2="417.1523"/><text fill="#000000" font-family="sans-serif" font-size="13" lengthAdjust="spacing" textLength="59.979" x="453.561" y="411.8896">categories</text><polygon fill="#181818" points="257.0444,444.4434,247.0444,448.4434,257.0444,452.4434,253.0444,448.4434" style="stroke:#181818;stroke-width:1.0;"/><line style="stroke:#181818;stroke-width:1.0;stroke-dasharray:2.0,2.0;" x1="251.0444" x2="435.561" y1="448.4434" y2="448.4434"/><text fill="#000000" font-family="sans-serif" font-size="13" lengthAdjust="spacing" textLength="59.979" x="263.0444" y="443.1807">categories</text><polygon fill="#181818" points="76.9619,475.7344,66.9619,479.7344,76.9619,483.7344,72.9619,479.7344" style="stroke:#181818;stroke-width:1.0;"/><line style="stroke:#181818;stroke-width:1.0;" x1="70.9619" x2="245.0444" y1="479.7344" y2="479.7344"/><text fill="#000000" font-family="sans-serif" font-size="13" lengthAdjust="spacing" textLength="62.1245" x="82.9619" y="474.4717">Display list</text><!--SRC=[XP1FJyCm3CNl-HJMkC1XPxGTa5X7fKaWLPrsun8oqqKBIN7IZGhntN7JRLar_jnYlv_zukUtsjQIv1iORJ6qDOAZi772duHQggsi43u5m8pV5Rd6hZDd7C5LFdcudUITucYDr7TdXZ7n9OHKWSlHSkFsC4UlAui4pnQoyWaODVB5aMHa1DB3oYC9jWnQwLhQ0AD7xKEkguOmam4hHnhzQj73Y__HpDb0x8Bz_bGEHmTZxH9ffnN6YSDxY1T8ditGAkmsuaU8R94DiH9hvpNVrkOnXJPIPVwNTvhfOIw5w6A1yHrV35DklJVe0mG7EurxKATZ1UjCfIEPLeIiYxCU4qN62XsTUFBwHd2FbJ9FC_pkEeobtWyEXfEuDoPbpik6TeSCVs6FQl9wrNRD56knCHwiE3ltD7bnT6BEVt9Cy2AncEyKvjhNHhRnbzy0]--></g></svg>