<?xml version="1.0" encoding="us-ascii" standalone="no"?><svg xmlns="http://www.w3.org/2000/svg" xmlns:xlink="http://www.w3.org/1999/xlink" contentStyleType="text/css" height="510.3px" preserveAspectRatio="none" style="width:280px;height:510px;background:#FFFFFF;" version="1.1" viewBox="0 0 280 510" width="280.2px" zoomAndPan="magnify"><defs/><g><!--class HumanResourcesManager--><g id="elem_HumanResourcesManager"><rect codeLine="8" fill="#F1F1F1" height="10.9863" id="HumanResourcesManager" rx="0.75" ry="0.75" style="stroke:#181818;stroke-width:0.15;" width="52.2" x="170.904" y="166.05"/><text fill="#000000" font-family="sans-serif" font-size="4.2" lengthAdjust="spacing" textLength="50.4" x="171.804" y="172.0822">HumanResourcesManager</text><line style="stroke:#181818;stroke-width:0.15;" x1="171.204" x2="222.804" y1="174.6363" y2="174.6363"/></g><!--class GreenSpacesManager--><g id="elem_GreenSpacesManager"><rect codeLine="11" fill="#F1F1F1" height="10.9863" id="GreenSpacesManager" rx="0.75" ry="0.75" style="stroke:#181818;stroke-width:0.15;" width="44.7" x="66.954" y="280.2"/><text fill="#000000" font-family="sans-serif" font-size="4.2" lengthAdjust="spacing" textLength="42.9" x="67.854" y="286.2322">GreenSpacesManager</text><line style="stroke:#181818;stroke-width:0.15;" x1="67.254" x2="111.354" y1="288.7863" y2="288.7863"/></g><!--class VehicleFleetManager--><g id="elem_VehicleFleetManager"><rect codeLine="14" fill="#F1F1F1" height="10.9863" id="VehicleFleetManager" rx="0.75" ry="0.75" style="stroke:#181818;stroke-width:0.15;" width="42" x="5.004" y="445.8"/><text fill="#000000" font-family="sans-serif" font-size="4.2" lengthAdjust="spacing" textLength="40.2" x="5.904" y="451.8322">VehicleFleetManager</text><line style="stroke:#181818;stroke-width:0.15;" x1="5.304" x2="46.704" y1="454.3863" y2="454.3863"/></g><!--class Collaborator--><g id="elem_Collaborator"><rect codeLine="17" fill="#F1F1F1" height="72.4359" id="Collaborator" rx="0.75" ry="0.75" style="stroke:#181818;stroke-width:0.15;" width="60.6" x="167.604" y="53.4"/><text fill="#000000" font-family="sans-serif" font-size="4.2" lengthAdjust="spacing" textLength="23.4" x="186.204" y="59.4322">Collaborator</text><line style="stroke:#181818;stroke-width:0.15;" x1="167.904" x2="227.904" y1="61.9863" y2="61.9863"/><text fill="#000000" font-family="sans-serif" font-size="4.2" lengthAdjust="spacing" textLength="10.5" x="169.404" y="67.7186">name</text><text fill="#000000" font-family="sans-serif" font-size="4.2" lengthAdjust="spacing" textLength="17.4" x="169.404" y="73.3049">birthDate</text><text fill="#000000" font-family="sans-serif" font-size="4.2" lengthAdjust="spacing" textLength="27.9" x="169.404" y="78.8912">admissionDate</text><text fill="#000000" font-family="sans-serif" font-size="4.2" lengthAdjust="spacing" textLength="15.3" x="169.404" y="84.4775">address</text><text fill="#000000" font-family="sans-serif" font-size="4.2" lengthAdjust="spacing" textLength="27" x="169.404" y="90.0639">mobileNumber</text><text fill="#000000" font-family="sans-serif" font-size="4.2" lengthAdjust="spacing" textLength="9.9" x="169.404" y="95.6502">email</text><text fill="#000000" font-family="sans-serif" font-size="4.2" lengthAdjust="spacing" textLength="31.2" x="169.404" y="101.2365">taxPayerNumber</text><text fill="#000000" font-family="sans-serif" font-size="4.2" lengthAdjust="spacing" textLength="52.5" x="169.404" y="106.8229">identificationDocumentType</text><text fill="#000000" font-family="sans-serif" font-size="4.2" lengthAdjust="spacing" textLength="57" x="169.404" y="112.4092">documentIdentificationNumber</text><text fill="#000000" font-family="sans-serif" font-size="4.2" lengthAdjust="spacing" textLength="9" x="169.404" y="117.9955">skills</text><text fill="#000000" font-family="sans-serif" font-size="4.2" lengthAdjust="spacing" textLength="5.7" x="169.404" y="123.5818">job</text></g><!--class UserPortal--><g id="elem_UserPortal"><rect codeLine="31" fill="#F1F1F1" height="10.9863" id="UserPortal" rx="0.75" ry="0.75" style="stroke:#181818;stroke-width:0.15;" width="21.6" x="13.704" y="84"/><text fill="#000000" font-family="sans-serif" font-size="4.2" lengthAdjust="spacing" textLength="19.8" x="14.604" y="90.0322">UserPortal</text><line style="stroke:#181818;stroke-width:0.15;" x1="14.004" x2="35.004" y1="92.5863" y2="92.5863"/></g><!--class Team--><g id="elem_Team"><rect codeLine="34" fill="#F1F1F1" height="22.159" id="Team" rx="0.75" ry="0.75" style="stroke:#181818;stroke-width:0.15;" width="28.2" x="206.004" y="377.55"/><text fill="#000000" font-family="sans-serif" font-size="4.2" lengthAdjust="spacing" textLength="10.8" x="214.704" y="383.5822">Team</text><line style="stroke:#181818;stroke-width:0.15;" x1="206.304" x2="233.904" y1="386.1363" y2="386.1363"/><text fill="#000000" font-family="sans-serif" font-size="4.2" lengthAdjust="spacing" textLength="24.6" x="207.804" y="391.8686">collaborators</text><text fill="#000000" font-family="sans-serif" font-size="4.2" lengthAdjust="spacing" textLength="9" x="207.804" y="397.4549">skills</text></g><!--class Job--><g id="elem_Job"><rect codeLine="39" fill="#F1F1F1" height="16.5727" id="Job" rx="0.75" ry="0.75" style="stroke:#181818;stroke-width:0.15;" width="14.1" x="167.454" y="7.65"/><text fill="#000000" font-family="sans-serif" font-size="4.2" lengthAdjust="spacing" textLength="6.6" x="171.204" y="13.6822">Job</text><line style="stroke:#181818;stroke-width:0.15;" x1="167.754" x2="181.254" y1="16.2363" y2="16.2363"/><text fill="#000000" font-family="sans-serif" font-size="4.2" lengthAdjust="spacing" textLength="10.5" x="169.254" y="21.9686">name</text></g><!--class Skill--><g id="elem_Skill"><rect codeLine="43" fill="#F1F1F1" height="16.5727" id="Skill" rx="0.75" ry="0.75" style="stroke:#181818;stroke-width:0.15;" width="14.1" x="237.054" y="7.65"/><text fill="#000000" font-family="sans-serif" font-size="4.2" lengthAdjust="spacing" textLength="7.5" x="240.354" y="13.6822">Skill</text><line style="stroke:#181818;stroke-width:0.15;" x1="237.354" x2="250.854" y1="16.2363" y2="16.2363"/><text fill="#000000" font-family="sans-serif" font-size="4.2" lengthAdjust="spacing" textLength="10.5" x="238.854" y="21.9686">name</text></g><!--class Task--><g id="elem_Task"><rect codeLine="47" fill="#F1F1F1" height="44.5043" id="Task" rx="0.75" ry="0.75" style="stroke:#181818;stroke-width:0.15;" width="41.1" x="117.954" y="149.4"/><text fill="#000000" font-family="sans-serif" font-size="4.2" lengthAdjust="spacing" textLength="9.3" x="133.854" y="155.4322">Task</text><line style="stroke:#181818;stroke-width:0.15;" x1="118.254" x2="158.754" y1="157.9863" y2="157.9863"/><text fill="#000000" font-family="sans-serif" font-size="4.2" lengthAdjust="spacing" textLength="18.6" x="119.754" y="163.7186">taskName</text><text fill="#000000" font-family="sans-serif" font-size="4.2" lengthAdjust="spacing" textLength="20.7" x="119.754" y="169.3049">description</text><text fill="#000000" font-family="sans-serif" font-size="4.2" lengthAdjust="spacing" textLength="23.1" x="119.754" y="174.8912">greenSpace</text><text fill="#000000" font-family="sans-serif" font-size="4.2" lengthAdjust="spacing" textLength="34.5" x="119.754" y="180.4775">estimatedDuration</text><text fill="#000000" font-family="sans-serif" font-size="4.2" lengthAdjust="spacing" textLength="19.8" x="119.754" y="186.0639">taskStatus</text><text fill="#000000" font-family="sans-serif" font-size="4.2" lengthAdjust="spacing" textLength="37.5" x="119.754" y="191.6502">taskUrgencyDegree</text></g><!--class Entry--><g id="elem_Entry"><rect codeLine="56" fill="#F1F1F1" height="16.5727" id="Entry" rx="0.75" ry="0.75" style="stroke:#181818;stroke-width:0.15;" width="12" x="141.804" y="315"/><text fill="#000000" font-family="sans-serif" font-size="4.2" lengthAdjust="spacing" textLength="9.9" x="142.854" y="321.0322">Entry</text><line style="stroke:#181818;stroke-width:0.15;" x1="142.104" x2="153.504" y1="323.5863" y2="323.5863"/><text fill="#000000" font-family="sans-serif" font-size="4.2" lengthAdjust="spacing" textLength="8.4" x="143.604" y="329.3186">date</text></g><!--class Address--><g id="elem_Address"><rect codeLine="60" fill="#F1F1F1" height="27.7453" id="Address" rx="0.75" ry="0.75" style="stroke:#181818;stroke-width:0.15;" width="27" x="75.504" y="2.1"/><text fill="#000000" font-family="sans-serif" font-size="4.2" lengthAdjust="spacing" textLength="15.6" x="81.204" y="8.1322">Address</text><line style="stroke:#181818;stroke-width:0.15;" x1="75.804" x2="102.204" y1="10.6863" y2="10.6863"/><text fill="#000000" font-family="sans-serif" font-size="4.2" lengthAdjust="spacing" textLength="10.8" x="77.304" y="16.4186">street</text><text fill="#000000" font-family="sans-serif" font-size="4.2" lengthAdjust="spacing" textLength="23.4" x="77.304" y="22.0049">doorNumber</text><text fill="#000000" font-family="sans-serif" font-size="4.2" lengthAdjust="spacing" textLength="15.3" x="77.304" y="27.5912">zipCode</text></g><!--class GreenSpace--><g id="elem_GreenSpace"><rect codeLine="66" fill="#F1F1F1" height="38.918" id="GreenSpace" rx="0.75" ry="0.75" style="stroke:#181818;stroke-width:0.15;" width="53.7" x="41.754" y="217.5"/><text fill="#000000" font-family="sans-serif" font-size="4.2" lengthAdjust="spacing" textLength="24" x="56.604" y="223.5322">GreenSpace</text><line style="stroke:#181818;stroke-width:0.15;" x1="42.054" x2="95.154" y1="226.0863" y2="226.0863"/><text fill="#000000" font-family="sans-serif" font-size="4.2" lengthAdjust="spacing" textLength="33.9" x="43.554" y="231.8186">greenSpaceName</text><text fill="#000000" font-family="sans-serif" font-size="4.2" lengthAdjust="spacing" textLength="34.5" x="43.554" y="237.4049">greenSpaceStreet</text><text fill="#000000" font-family="sans-serif" font-size="4.2" lengthAdjust="spacing" textLength="32.7" x="43.554" y="242.9912">greenSpaceType</text><text fill="#000000" font-family="sans-serif" font-size="4.2" lengthAdjust="spacing" textLength="50.1" x="43.554" y="248.5775">greenSpaceManagerEmail</text><text fill="#000000" font-family="sans-serif" font-size="4.2" lengthAdjust="spacing" textLength="32.1" x="43.554" y="254.1639">greenSpaceArea</text></g><!--class Vehicle--><g id="elem_Vehicle"><rect codeLine="74" fill="#F1F1F1" height="66.8496" id="Vehicle" rx="0.75" ry="0.75" style="stroke:#181818;stroke-width:0.15;" width="48.3" x="43.854" y="355.2"/><text fill="#000000" font-family="sans-serif" font-size="4.2" lengthAdjust="spacing" textLength="13.8" x="61.104" y="361.2322">Vehicle</text><line style="stroke:#181818;stroke-width:0.15;" x1="44.154" x2="91.854" y1="363.7863" y2="363.7863"/><text fill="#000000" font-family="sans-serif" font-size="4.2" lengthAdjust="spacing" textLength="9.3" x="45.654" y="369.5186">plate</text><text fill="#000000" font-family="sans-serif" font-size="4.2" lengthAdjust="spacing" textLength="11.1" x="45.654" y="375.1049">brand</text><text fill="#000000" font-family="sans-serif" font-size="4.2" lengthAdjust="spacing" textLength="11.4" x="45.654" y="380.6912">model</text><text fill="#000000" font-family="sans-serif" font-size="4.2" lengthAdjust="spacing" textLength="8.1" x="45.654" y="386.2775">type</text><text fill="#000000" font-family="sans-serif" font-size="4.2" lengthAdjust="spacing" textLength="20.7" x="45.654" y="391.8639">tareWeight</text><text fill="#000000" font-family="sans-serif" font-size="4.2" lengthAdjust="spacing" textLength="23.7" x="45.654" y="397.4502">grossWeight</text><text fill="#000000" font-family="sans-serif" font-size="4.2" lengthAdjust="spacing" textLength="19.5" x="45.654" y="403.0365">currentKm</text><text fill="#000000" font-family="sans-serif" font-size="4.2" lengthAdjust="spacing" textLength="23.4" x="45.654" y="408.6229">registerDate</text><text fill="#000000" font-family="sans-serif" font-size="4.2" lengthAdjust="spacing" textLength="29.1" x="45.654" y="414.2092">acquisitionDate</text><text fill="#000000" font-family="sans-serif" font-size="4.2" lengthAdjust="spacing" textLength="44.7" x="45.654" y="419.7955">maintenanceFrequency</text></g><!--class VehicleCheckup--><g id="elem_VehicleCheckup"><rect codeLine="87" fill="#F1F1F1" height="27.7453" id="VehicleCheckup" rx="0.75" ry="0.75" style="stroke:#181818;stroke-width:0.15;" width="32.4" x="30.804" y="480.6"/><text fill="#000000" font-family="sans-serif" font-size="4.2" lengthAdjust="spacing" textLength="30.6" x="31.704" y="486.6322">VehicleCheckup</text><line style="stroke:#181818;stroke-width:0.15;" x1="31.104" x2="62.904" y1="489.1863" y2="489.1863"/><text fill="#000000" font-family="sans-serif" font-size="4.2" lengthAdjust="spacing" textLength="24" x="32.604" y="494.9186">plateNumber</text><text fill="#000000" font-family="sans-serif" font-size="4.2" lengthAdjust="spacing" textLength="8.4" x="32.604" y="500.5049">date</text><text fill="#000000" font-family="sans-serif" font-size="4.2" lengthAdjust="spacing" textLength="26.1" x="32.604" y="506.0912">kmAtCheckup</text></g><!--class ToDoList--><g id="elem_ToDoList"><rect codeLine="93" fill="#F1F1F1" height="10.9863" id="ToDoList" rx="0.75" ry="0.75" style="stroke:#181818;stroke-width:0.15;" width="18.9" x="165.954" y="231.45"/><text fill="#000000" font-family="sans-serif" font-size="4.2" lengthAdjust="spacing" textLength="17.1" x="166.854" y="237.4822">ToDoList</text><line style="stroke:#181818;stroke-width:0.15;" x1="166.254" x2="184.554" y1="240.0363" y2="240.0363"/></g><!--class Agenda--><g id="elem_Agenda"><rect codeLine="96" fill="#F1F1F1" height="10.9863" id="Agenda" rx="0.75" ry="0.75" style="stroke:#181818;stroke-width:0.15;" width="16.5" x="163.854" y="280.2"/><text fill="#000000" font-family="sans-serif" font-size="4.2" lengthAdjust="spacing" textLength="14.7" x="164.754" y="286.2322">Agenda</text><line style="stroke:#181818;stroke-width:0.15;" x1="164.154" x2="180.054" y1="288.7863" y2="288.7863"/></g><!--class DocumentType--><g id="elem_DocumentType"><rect codeLine="99" fill="#F1F1F1" height="16.5727" id="DocumentType" rx="0.75" ry="0.75" style="stroke:#181818;stroke-width:0.15;" width="30.6" x="192.204" y="7.65"/><text fill="#000000" font-family="sans-serif" font-size="4.2" lengthAdjust="spacing" textLength="28.8" x="193.104" y="13.6822">DocumentType</text><line style="stroke:#181818;stroke-width:0.15;" x1="192.504" x2="222.504" y1="16.2363" y2="16.2363"/><text fill="#000000" font-family="sans-serif" font-size="4.2" lengthAdjust="spacing" textLength="10.5" x="194.004" y="21.9686">name</text></g><!--class GreenSpaceType--><g id="elem_GreenSpaceType"><rect codeLine="103" fill="#F1F1F1" height="16.5727" id="GreenSpaceType" rx="0.75" ry="0.75" style="stroke:#181818;stroke-width:0.15;" width="35.4" x="67.104" y="163.35"/><text fill="#000000" font-family="sans-serif" font-size="4.2" lengthAdjust="spacing" textLength="33.6" x="68.004" y="169.3822">GreenSpaceType</text><line style="stroke:#181818;stroke-width:0.15;" x1="67.404" x2="102.204" y1="171.9363" y2="171.9363"/><text fill="#000000" font-family="sans-serif" font-size="4.2" lengthAdjust="spacing" textLength="10.5" x="68.904" y="177.6686">name</text></g><!--link UserPortal to Collaborator--><g id="link_UserPortal_Collaborator"><path codeLine="107" d="M35.352,89.55 C61.395,89.55 128.208,89.55 167.598,89.55 " fill="none" id="UserPortal-Collaborator" style="stroke:#181818;stroke-width:0.3;"/><polygon fill="#000000" points="95.004,85.8437,97.7175,86.7253,97.7175,84.962,95.004,85.8437" style="stroke:#000000;stroke-width:0.3;"/><text fill="#000000" font-family="sans-serif" font-size="3.9" lengthAdjust="spacing" textLength="8.4" x="99.204" y="87.4585">uses</text><text fill="#000000" font-family="sans-serif" font-size="3.9" lengthAdjust="spacing" textLength="2.1" x="37.6944" y="88.1762">1</text><text fill="#000000" font-family="sans-serif" font-size="3.9" lengthAdjust="spacing" textLength="6" x="159.1521" y="88.4694">0..*</text></g><!--link UserPortal to HumanResourcesManager--><g id="link_UserPortal_HumanResourcesManager"><path codeLine="108" d="M35.37,91.587 C59.547,95.82 118.986,108.327 161.304,134.7 C175.014,143.244 187.275,158.139 193.215,166.035 " fill="none" id="UserPortal-HumanResourcesManager" style="stroke:#181818;stroke-width:0.3;"/><polygon fill="#000000" points="169.5473,136.9538,171.6255,138.9088,172.3777,137.3139,169.5473,136.9538" style="stroke:#000000;stroke-width:0.3;"/><text fill="#000000" font-family="sans-serif" font-size="3.9" lengthAdjust="spacing" textLength="8.4" x="173.604" y="139.2085">uses</text><text fill="#000000" font-family="sans-serif" font-size="3.9" lengthAdjust="spacing" textLength="2.1" x="37.716" y="96.7183">1</text><text fill="#000000" font-family="sans-serif" font-size="3.9" lengthAdjust="spacing" textLength="2.1" x="189.6331" y="162.6891">1</text></g><!--link UserPortal to GreenSpacesManager--><g id="link_UserPortal_GreenSpacesManager"><path codeLine="109" d="M23.208,95.169 C18.168,117.165 1.8,202.428 36.504,256.5 C44.154,268.422 58.5,275.832 70.308,280.17 " fill="none" id="UserPortal-GreenSpacesManager" style="stroke:#181818;stroke-width:0.3;"/><polygon fill="#000000" points="19.6339,204.24,19.449,207.0872,21.1578,206.6521,19.6339,204.24" style="stroke:#000000;stroke-width:0.3;"/><text fill="#000000" font-family="sans-serif" font-size="3.9" lengthAdjust="spacing" textLength="8.4" x="22.704" y="207.3085">uses</text><text fill="#000000" font-family="sans-serif" font-size="3.9" lengthAdjust="spacing" textLength="2.1" x="23.1419" y="101.5999">1</text><text fill="#000000" font-family="sans-serif" font-size="3.9" lengthAdjust="spacing" textLength="2.1" x="62.5701" y="277.0202">1</text></g><!--link UserPortal to VehicleFleetManager--><g id="link_UserPortal_VehicleFleetManager"><path codeLine="110" d="M22.236,95.172 C16.98,108.009 4.404,141.807 4.404,171.3 C4.404,171.3 4.404,171.3 4.404,388.95 C4.404,411.096 16.809,435.339 22.818,445.785 " fill="none" id="UserPortal-VehicleFleetManager" style="stroke:#181818;stroke-width:0.3;"/><polygon fill="#000000" points="5.9015,284.2937,5.0243,287.0086,6.7877,287.0057,5.9015,284.2937" style="stroke:#000000;stroke-width:0.3;"/><text fill="#000000" font-family="sans-serif" font-size="3.9" lengthAdjust="spacing" textLength="8.4" x="8.604" y="287.4085">uses</text><text fill="#000000" font-family="sans-serif" font-size="3.9" lengthAdjust="spacing" textLength="2.1" x="19.2443" y="101.6037">1</text><text fill="#000000" font-family="sans-serif" font-size="3.9" lengthAdjust="spacing" textLength="2.1" x="19.4207" y="442.4391">1</text></g><!--link Collaborator to Team--><g id="link_Collaborator_Team"><path codeLine="112" d="M224.916,125.778 C232.638,139.329 239.004,155.343 239.004,171.3 C239.004,171.3 239.004,171.3 239.004,323.55 C239.004,343.179 230.913,364.863 225.318,377.508 " fill="none" id="Collaborator-Team" style="stroke:#181818;stroke-width:0.3;"/><polygon fill="#000000" points="240.5064,269.8937,241.3837,267.1787,239.6204,267.1815,240.5064,269.8937" style="stroke:#000000;stroke-width:0.3;"/><text fill="#000000" font-family="sans-serif" font-size="3.9" lengthAdjust="spacing" textLength="15" x="243.204" y="270.0085">is part of</text><text fill="#000000" font-family="sans-serif" font-size="3.9" lengthAdjust="spacing" textLength="6" x="220.4543" y="132.4692">1..*</text><text fill="#000000" font-family="sans-serif" font-size="3.9" lengthAdjust="spacing" textLength="2.1" x="223.9597" y="374.189">1</text></g><!--link Skill to Team--><g id="link_Skill_Team"><path codeLine="113" d="M248.061,24.192 C254.22,37.398 265.404,64.746 265.404,89.25 C265.404,89.25 265.404,89.25 265.404,323.55 C265.404,345.717 247.374,365.706 234.066,377.442 " fill="none" id="Skill-Team" style="stroke:#181818;stroke-width:0.3;"/><polygon fill="#000000" points="266.9634,235.5448,265.975,238.2213,267.7369,238.2911,266.9634,235.5448" style="stroke:#000000;stroke-width:0.3;"/><text fill="#000000" font-family="sans-serif" font-size="3.9" lengthAdjust="spacing" textLength="8.4" x="269.604" y="238.6585">need</text><text fill="#000000" font-family="sans-serif" font-size="3.9" lengthAdjust="spacing" textLength="6" x="242.2703" y="30.7738">1..*</text><text fill="#000000" font-family="sans-serif" font-size="3.9" lengthAdjust="spacing" textLength="2.1" x="234.1852" y="374.1969">1</text></g><!--link Job to Collaborator--><g id="link_Job_Collaborator"><path codeLine="114" d="M177.054,24.156 C179.346,31.311 182.883,42.357 186.396,53.328 " fill="none" id="Job-Collaborator" style="stroke:#181818;stroke-width:0.3;"/><polygon fill="#000000" points="184.5465,40.1651,184.5344,43.0183,186.2138,42.4805,184.5465,40.1651" style="stroke:#000000;stroke-width:0.3;"/><text fill="#000000" font-family="sans-serif" font-size="3.9" lengthAdjust="spacing" textLength="6.3" x="187.704" y="43.2085">has</text><text fill="#000000" font-family="sans-serif" font-size="3.9" lengthAdjust="spacing" textLength="2.1" x="175.3009" y="30.8651">1</text><text fill="#000000" font-family="sans-serif" font-size="3.9" lengthAdjust="spacing" textLength="2.1" x="183.5307" y="50.0723">1</text></g><!--link Skill to Collaborator--><g id="link_Skill_Collaborator"><path codeLine="115" d="M239.073,24.156 C234.546,31.311 227.562,42.357 220.623,53.328 " fill="none" id="Skill-Collaborator" style="stroke:#181818;stroke-width:0.3;"/><polygon fill="#000000" points="231.4058,40.3259,229.2102,42.148,230.7005,43.0905,231.4058,40.3259" style="stroke:#000000;stroke-width:0.3;"/><text fill="#000000" font-family="sans-serif" font-size="3.9" lengthAdjust="spacing" textLength="6.3" x="233.304" y="43.2085">has</text><text fill="#000000" font-family="sans-serif" font-size="3.9" lengthAdjust="spacing" textLength="6" x="231.2158" y="30.8651">0..*</text><text fill="#000000" font-family="sans-serif" font-size="3.9" lengthAdjust="spacing" textLength="2.1" x="219.8435" y="50.0723">1</text></g><!--link Agenda to Entry--><g id="link_Agenda_Entry"><path codeLine="117" d="M168.621,291.336 C164.553,297.516 157.779,307.8 153.069,314.955 " fill="none" id="Agenda-Entry" style="stroke:#181818;stroke-width:0.3;"/><polygon fill="#000000" points="162.8791,304.4465,165.1077,302.665,163.635,301.6952,162.8791,304.4465" style="stroke:#000000;stroke-width:0.3;"/><text fill="#000000" font-family="sans-serif" font-size="3.9" lengthAdjust="spacing" textLength="6.3" x="166.404" y="304.8085">has</text><text fill="#000000" font-family="sans-serif" font-size="3.9" lengthAdjust="spacing" textLength="2.1" x="165.3028" y="297.7581">1</text><text fill="#000000" font-family="sans-serif" font-size="3.9" lengthAdjust="spacing" textLength="6" x="154.9803" y="311.5573">0..*</text></g><!--link Entry to Team--><g id="link_Entry_Team"><path codeLine="118" d="M153.018,331.521 C156.183,336.066 160.458,341.727 164.904,346.2 C177.615,358.98 194.307,371.208 205.992,379.17 " fill="none" id="Entry-Team" style="stroke:#181818;stroke-width:0.3;"/><polygon fill="#000000" points="165.2888,342.3905,166.7166,344.8607,167.8959,343.5497,165.2888,342.3905" style="stroke:#000000;stroke-width:0.3;"/><text fill="#000000" font-family="sans-serif" font-size="3.9" lengthAdjust="spacing" textLength="24.3" x="169.104" y="345.0085">is assigned to</text><text fill="#000000" font-family="sans-serif" font-size="3.9" lengthAdjust="spacing" textLength="2.1" x="151.8809" y="338.2335">1</text><text fill="#000000" font-family="sans-serif" font-size="3.9" lengthAdjust="spacing" textLength="2.1" x="201.4756" y="376.3714">1</text></g><!--link Entry to Task--><g id="link_Entry_Task"><path codeLine="119" d="M147.63,314.871 C147.213,297.195 145.986,253.773 143.304,217.5 C142.734,209.799 141.909,201.387 141.099,193.908 " fill="none" id="Entry-Task" style="stroke:#181818;stroke-width:0.3;"/><polygon fill="#000000" points="147.7231,266.8958,146.989,269.6529,148.7498,269.5579,147.7231,266.8958" style="stroke:#000000;stroke-width:0.3;"/><text fill="#000000" font-family="sans-serif" font-size="3.9" lengthAdjust="spacing" textLength="27.6" x="150.504" y="270.0085">is associated to</text><text fill="#000000" font-family="sans-serif" font-size="3.9" lengthAdjust="spacing" textLength="2.1" x="145.2623" y="311.5904">1</text><text fill="#000000" font-family="sans-serif" font-size="3.9" lengthAdjust="spacing" textLength="2.1" x="139.1463" y="200.485">1</text></g><!--link Entry to Vehicle--><g id="link_Entry_Vehicle"><path codeLine="120" d="M141.675,328.527 C131.22,337.017 109.398,354.738 92.202,368.7 " fill="none" id="Entry-Vehicle" style="stroke:#181818;stroke-width:0.3;"/><polygon fill="#000000" points="129.1684,342.4481,126.5062,343.4742,127.6177,344.8431,129.1684,342.4481" style="stroke:#000000;stroke-width:0.3;"/><text fill="#000000" font-family="sans-serif" font-size="3.9" lengthAdjust="spacing" textLength="24.3" x="130.704" y="345.0085">is assigned to</text><text fill="#000000" font-family="sans-serif" font-size="3.9" lengthAdjust="spacing" textLength="2.1" x="137.2867" y="328.5071">1</text><text fill="#000000" font-family="sans-serif" font-size="3.9" lengthAdjust="spacing" textLength="6" x="94.5393" y="365.8808">0..*</text></g><!--link Task to ToDoList--><g id="link_Task_ToDoList"><path codeLine="122" d="M152.394,193.806 C154.215,196.809 156.03,199.866 157.704,202.8 C163.365,212.718 169.41,224.613 172.767,231.348 " fill="none" id="Task-ToDoList" style="stroke:#181818;stroke-width:0.3;"/><polygon fill="#000000" points="161.7886,204.3753,162.3079,207.1808,163.8577,206.3397,161.7886,204.3753" style="stroke:#000000;stroke-width:0.3;"/><text fill="#000000" font-family="sans-serif" font-size="3.9" lengthAdjust="spacing" textLength="6.3" x="165.204" y="207.3085">has</text><text fill="#000000" font-family="sans-serif" font-size="3.9" lengthAdjust="spacing" textLength="6" x="147.517" y="200.5666">0..*</text><text fill="#000000" font-family="sans-serif" font-size="3.9" lengthAdjust="spacing" textLength="2.1" x="169.5839" y="228.0767">1</text></g><!--link Task to GreenSpace--><g id="link_Task_GreenSpace"><path codeLine="123" d="M117.897,187.068 C114.507,189.399 110.994,191.718 107.604,193.8 C100.284,198.294 96.84,197.004 90.504,202.8 C85.953,206.961 81.945,212.268 78.642,217.44 " fill="none" id="Task-GreenSpace" style="stroke:#181818;stroke-width:0.3;"/><polygon fill="#000000" points="93.1904,204.7758,90.5047,205.7389,91.5837,207.1336,93.1904,204.7758" style="stroke:#000000;stroke-width:0.3;"/><text fill="#000000" font-family="sans-serif" font-size="3.9" lengthAdjust="spacing" textLength="24.3" x="94.704" y="207.3085">is assigned to</text><text fill="#000000" font-family="sans-serif" font-size="3.9" lengthAdjust="spacing" textLength="2.1" x="113.4283" y="187.5885">1</text><text fill="#000000" font-family="sans-serif" font-size="3.9" lengthAdjust="spacing" textLength="2.1" x="77.5251" y="214.1395">1</text></g><!--link Vehicle to VehicleCheckup--><g id="link_Vehicle_VehicleCheckup"><path codeLine="125" d="M65.916,422.184 C64.386,437.451 61.749,455.667 57.204,471.6 C56.358,474.57 55.179,477.648 53.925,480.54 " fill="none" id="Vehicle-VehicleCheckup" style="stroke:#181818;stroke-width:0.3;"/><polygon fill="#000000" points="64.1021,452.863,65.5119,450.3824,63.7846,450.0275,64.1021,452.863" style="stroke:#000000;stroke-width:0.3;"/><text fill="#000000" font-family="sans-serif" font-size="3.9" lengthAdjust="spacing" textLength="6.3" x="67.104" y="453.0085">has</text><text fill="#000000" font-family="sans-serif" font-size="3.9" lengthAdjust="spacing" textLength="2.1" x="63.615" y="428.7085">1</text><text fill="#000000" font-family="sans-serif" font-size="3.9" lengthAdjust="spacing" textLength="6" x="48.5009" y="477.234">0..*</text></g><!--link Address to Collaborator--><g id="link_Address_Collaborator"><path codeLine="126" d="M102.576,25.305 C118.74,36.147 146.232,54.588 167.55,68.889 " fill="none" id="Address-Collaborator" style="stroke:#181818;stroke-width:0.3;"/><polygon fill="#000000" points="130.9583,40.758,132.7206,43.0019,133.7029,41.5375,130.9583,40.758" style="stroke:#000000;stroke-width:0.3;"/><text fill="#000000" font-family="sans-serif" font-size="3.9" lengthAdjust="spacing" textLength="6.3" x="134.904" y="43.2085">has</text><text fill="#000000" font-family="sans-serif" font-size="3.9" lengthAdjust="spacing" textLength="2.1" x="104.9064" y="25.5014">1</text><text fill="#000000" font-family="sans-serif" font-size="3.9" lengthAdjust="spacing" textLength="2.1" x="163.1438" y="66.2912">1</text></g><!--link Address to GreenSpace--><g id="link_Address_GreenSpace"><path codeLine="127" d="M85.272,29.769 C78.906,53.7 66.201,105.072 61.704,149.4 C59.712,169.032 60.132,174.129 61.704,193.8 C62.325,201.582 63.573,210.084 64.839,217.452 " fill="none" id="Address-GreenSpace" style="stroke:#181818;stroke-width:0.3;"/><polygon fill="#000000" points="65.1663,136.1025,63.9962,138.7046,65.7492,138.8955,65.1663,136.1025" style="stroke:#000000;stroke-width:0.3;"/><text fill="#000000" font-family="sans-serif" font-size="3.9" lengthAdjust="spacing" textLength="6.3" x="67.704" y="139.2085">has</text><text fill="#000000" font-family="sans-serif" font-size="3.9" lengthAdjust="spacing" textLength="2.1" x="82.4398" y="36.4872">1</text><text fill="#000000" font-family="sans-serif" font-size="3.9" lengthAdjust="spacing" textLength="2.1" x="62.2124" y="214.1528">1</text></g><!--link DocumentType to Collaborator--><g id="link_DocumentType_Collaborator"><path codeLine="129" d="M206.457,24.156 C205.518,31.311 204.066,42.357 202.626,53.328 " fill="none" id="DocumentType-Collaborator" style="stroke:#181818;stroke-width:0.3;"/><polygon fill="#000000" points="205.8993,40.1064,204.6718,42.682,206.4202,42.9116,205.8993,40.1064" style="stroke:#000000;stroke-width:0.3;"/><text fill="#000000" font-family="sans-serif" font-size="3.9" lengthAdjust="spacing" textLength="6.3" x="208.404" y="43.2085">has</text><text fill="#000000" font-family="sans-serif" font-size="3.9" lengthAdjust="spacing" textLength="2.1" x="203.8721" y="30.8651">1</text><text fill="#000000" font-family="sans-serif" font-size="3.9" lengthAdjust="spacing" textLength="2.1" x="200.7498" y="50.0723">1</text></g><!--link GreenSpaceType to GreenSpace--><g id="link_GreenSpaceType_GreenSpace"><path codeLine="130" d="M78.861,179.937 C74.835,185.907 69.867,194.43 67.704,202.8 C66.498,207.474 66.156,212.631 66.249,217.485 " fill="none" id="GreenSpaceType-GreenSpace" style="stroke:#181818;stroke-width:0.3;"/><polygon fill="#000000" points="69.6816,204.2717,67.9818,206.5633,69.6534,207.1248,69.6816,204.2717" style="stroke:#000000;stroke-width:0.3;"/><text fill="#000000" font-family="sans-serif" font-size="3.9" lengthAdjust="spacing" textLength="6.3" x="71.904" y="207.3085">has</text><text fill="#000000" font-family="sans-serif" font-size="3.9" lengthAdjust="spacing" textLength="2.1" x="75.2313" y="186.5286">1</text><text fill="#000000" font-family="sans-serif" font-size="3.9" lengthAdjust="spacing" textLength="2.1" x="66.1063" y="214.1894">1</text></g><!--link GreenSpace to GreenSpacesManager--><g id="link_GreenSpace_GreenSpacesManager"><path codeLine="132" d="M76.905,256.608 C80.571,265.137 84.594,274.497 87.036,280.173 " fill="none" id="GreenSpace-GreenSpacesManager" style="stroke:#181818;stroke-width:0.3;"/><polygon fill="#000000" points="83.6116,267.0156,83.8733,269.8567,85.4933,269.1603,83.6116,267.0156" style="stroke:#000000;stroke-width:0.3;"/><text fill="#000000" font-family="sans-serif" font-size="3.9" lengthAdjust="spacing" textLength="12.9" x="86.904" y="270.0085">creates</text><text fill="#000000" font-family="sans-serif" font-size="3.9" lengthAdjust="spacing" textLength="6" x="71.4268" y="263.006">0..*</text><text fill="#000000" font-family="sans-serif" font-size="3.9" lengthAdjust="spacing" textLength="2.1" x="83.9199" y="276.8234">1</text></g><!--link Vehicle to VehicleFleetManager--><g id="link_Vehicle_VehicleFleetManager"><path codeLine="133" d="M45.528,422.181 C39.327,431.352 33.297,440.268 29.619,445.707 " fill="none" id="Vehicle-VehicleFleetManager" style="stroke:#181818;stroke-width:0.3;"/><polygon fill="#000000" points="40.9443,432.7511,38.6939,434.505,40.1546,435.4928,40.9443,432.7511" style="stroke:#000000;stroke-width:0.3;"/><text fill="#000000" font-family="sans-serif" font-size="3.9" lengthAdjust="spacing" textLength="12.9" x="42.804" y="435.6085">creates</text><text fill="#000000" font-family="sans-serif" font-size="3.9" lengthAdjust="spacing" textLength="6" x="37.8959" y="428.7053">0..*</text><text fill="#000000" font-family="sans-serif" font-size="3.9" lengthAdjust="spacing" textLength="2.1" x="28.2725" y="442.4383">1</text></g><!--link Collaborator to HumanResourcesManager--><g id="link_Collaborator_HumanResourcesManager"><path codeLine="134" d="M197.508,125.811 C197.334,141.324 197.154,157.77 197.064,165.984 " fill="none" id="Collaborator-HumanResourcesManager" style="stroke:#181818;stroke-width:0.3;"/><polygon fill="#000000" points="198.8206,136.0937,197.909,138.7974,199.6722,138.8168,198.8206,136.0937" style="stroke:#000000;stroke-width:0.3;"/><text fill="#000000" font-family="sans-serif" font-size="3.9" lengthAdjust="spacing" textLength="12.9" x="201.504" y="139.2085">creates</text><text fill="#000000" font-family="sans-serif" font-size="3.9" lengthAdjust="spacing" textLength="6" x="191.2904" y="132.5043">0..*</text><text fill="#000000" font-family="sans-serif" font-size="3.9" lengthAdjust="spacing" textLength="2.1" x="194.6608" y="162.6224">1</text></g><!--link HumanResourcesManager to Team--><g id="link_HumanResourcesManager_Team"><path codeLine="136" d="M197.619,177.183 C198.852,188.22 201.504,214.542 201.504,236.7 C201.504,236.7 201.504,236.7 201.504,323.55 C201.504,343.155 209.466,364.845 214.971,377.499 " fill="none" id="HumanResourcesManager-Team" style="stroke:#181818;stroke-width:0.3;"/><polygon fill="#000000" points="203.1334,287.2881,203.7777,284.5086,202.0209,284.6607,203.1334,287.2881" style="stroke:#000000;stroke-width:0.3;"/><text fill="#000000" font-family="sans-serif" font-size="3.9" lengthAdjust="spacing" textLength="17.1" x="205.704" y="287.4085">generates</text><text fill="#000000" font-family="sans-serif" font-size="3.9" lengthAdjust="spacing" textLength="2.1" x="195.4021" y="183.6042">1</text><text fill="#000000" font-family="sans-serif" font-size="3.9" lengthAdjust="spacing" textLength="6" x="207.5223" y="374.1784">0..*</text></g><!--link GreenSpacesManager to Entry--><g id="link_GreenSpacesManager_Entry"><path codeLine="137" d="M97.686,291.336 C109.629,298.869 131.253,312.51 141.756,319.134 " fill="none" id="GreenSpacesManager-Entry" style="stroke:#181818;stroke-width:0.3;"/><polygon fill="#000000" points="123.2727,303.9939,121.448,301.8005,120.5072,303.292,123.2727,303.9939" style="stroke:#000000;stroke-width:0.3;"/><text fill="#000000" font-family="sans-serif" font-size="3.9" lengthAdjust="spacing" textLength="12.9" x="124.704" y="304.8085">creates</text><text fill="#000000" font-family="sans-serif" font-size="3.9" lengthAdjust="spacing" textLength="2.1" x="97.5565" y="297.7581">1</text><text fill="#000000" font-family="sans-serif" font-size="3.9" lengthAdjust="spacing" textLength="6" x="133.4374" y="316.5362">0..*</text></g><!--link VehicleFleetManager to VehicleCheckup--><g id="link_VehicleFleetManager_VehicleCheckup"><path codeLine="138" d="M28.62,456.939 C31.524,462.807 36.321,472.503 40.287,480.522 " fill="none" id="VehicleFleetManager-VehicleCheckup" style="stroke:#181818;stroke-width:0.3;"/><polygon fill="#000000" points="37.4691,470.1381,37.0562,467.315,35.4756,468.0969,37.4691,470.1381" style="stroke:#000000;stroke-width:0.3;"/><text fill="#000000" font-family="sans-serif" font-size="3.9" lengthAdjust="spacing" textLength="15" x="39.504" y="470.4085">registers</text><text fill="#000000" font-family="sans-serif" font-size="3.9" lengthAdjust="spacing" textLength="2.1" x="26.9409" y="463.3619">1</text><text fill="#000000" font-family="sans-serif" font-size="3.9" lengthAdjust="spacing" textLength="6" x="32.8598" y="477.2134">0..*</text></g><!--link GreenSpacesManager to Task--><g id="link_GreenSpacesManager_Task"><path codeLine="139" d="M95.136,280.191 C97.665,277.668 100.503,274.482 102.504,271.2 C110.583,257.949 123.714,218.817 131.688,193.815 " fill="none" id="GreenSpacesManager-Task" style="stroke:#181818;stroke-width:0.3;"/><polygon fill="#000000" points="125.8886,235.6622,124.0191,237.8176,125.643,238.5048,125.8886,235.6622" style="stroke:#000000;stroke-width:0.3;"/><text fill="#000000" font-family="sans-serif" font-size="3.9" lengthAdjust="spacing" textLength="12.9" x="128.004" y="238.6585">creates</text><text fill="#000000" font-family="sans-serif" font-size="3.9" lengthAdjust="spacing" textLength="2.1" x="94.5005" y="276.8469">1</text><text fill="#000000" font-family="sans-serif" font-size="3.9" lengthAdjust="spacing" textLength="6" x="124.6757" y="200.5765">0..*</text></g><!--link Collaborator to Task--><g id="link_Collaborator_Task"><path codeLine="140" d="M167.565,104.562 C155.979,111.885 144.018,121.935 137.604,134.7 C135.363,139.158 134.583,144.324 134.574,149.343 " fill="none" id="Collaborator-Task" style="stroke:#181818;stroke-width:0.3;"/><polygon fill="#000000" points="138.2143,138.8013,140.5336,137.1396,139.1139,136.0937,138.2143,138.8013" style="stroke:#000000;stroke-width:0.3;"/><text fill="#000000" font-family="sans-serif" font-size="3.9" lengthAdjust="spacing" textLength="18" x="141.804" y="139.2085">completes</text><text fill="#000000" font-family="sans-serif" font-size="3.9" lengthAdjust="spacing" textLength="2.1" x="163.0618" y="104.6228">1</text><text fill="#000000" font-family="sans-serif" font-size="3.9" lengthAdjust="spacing" textLength="6" x="127.8918" y="146.0087">0..*</text></g><!--SRC=[ZLHDRniX4Btlhq0-LdAKNAFAaXKtRVeHHNNIdbcOx58li1bOjKxK_rvsOG779AaFriAyUVFr1hCJggT89P5QQTQYba0i3b2PQEafsz46jdRV0K5Wbggcom6cfLp_5geXzxGpkOLrr9YrjIZgmS8Lqseh7e6SLgtWG9X0veYcRmcsrTnKrUH2FWsIgkzWz80Cp3UgN0BuLFsTxHyHG6rTPYNZ3sY58xxi0EonzK9t7QqrKgkHF5N4_HILC7tK0csxeTQVA9V26A5LTiCHZ9c-fQv51zU3h06d2v1KTDENfNzkw1umCxeQbHNtWb4x4cesI7Tnk-yzCGyNLmUmpD_rjEjyu5-wJjNS6S0RZPPsMOctu7hlIsDPjIPdYk3FkWvOtuTes8x0ikcMcbsmMFTvFVUFWs4e-Z7twTp4CVaE6IkawoNV34WZQ6JOMce74uzts81Y-msC12di1sLn7-BoSIRHilQ32JPZdPiDZTNv61v5Vw4vb8GKV5FAiQfqjKt4wJ8ECLq5rNs8YaYcDG8zageFtNUppcgaYWULSGYYciDOYl0JHDFEYMXZiZCR49s8liZfXD08Om6JXDd388omkQnTcig2eeh19SB3CFR-ACUB5jXkwBDKixxocMedrpOWCxdeZVxgqiWakdO3vZIxo5SYsyh2e8uHQGd8ucn1bcHnUdBoRd6uwkTaC638-mBQ_HSVd3TyZX-XDnmA3rFog0woNPnD5IozuxJGvqGOznYZ9VgUh2g_dXwtN6Oe1S0TtxZNxjQRddMYfMF4m72Q68gmoiygaFdE-atqY5NbJp5OojODJZJAfMEr8teE6n-H6QQP61-64NZ8v-E5pfLOguadhsAMMwp08-QusSgNwEPGXV11sB7k-TLvlSr7g8C4Gezp-R_1TxW9hzDcTtc7YifbxcMoanHZ2pANidQJpw5wCyUNDYkvLcL8Fe0WAIT4mCbhLHLgA2bq3hEgIXMyFEJp-7J-Hx0WvHJhsIuV8xNiEvYm_m00]--></g></svg>