<svg xmlns="http://www.w3.org/2000/svg" xmlns:xlink="http://www.w3.org/1999/xlink" contentStyleType="text/css" data-diagram-type="CLASS" height="1061px" preserveAspectRatio="none" style="width:656px;height:1061px;background:#FFFFFF;" version="1.1" viewBox="0 0 656 1061" width="656px" zoomAndPan="magnify"><defs/><g><!--class User--><g class="entity" data-entity="User" data-source-line="5" data-uid="ent0002" id="entity_User"><rect fill="#F1F1F1" height="96.8906" rx="2.5" ry="2.5" style="stroke:#181818;stroke-width:0.5;" width="78.7119" x="44.5" y="7"/><ellipse cx="66.1608" cy="23" fill="#C2C2C2" rx="11" ry="11" style="stroke:#181818;stroke-width:1;"/><path d="M69.1295,28.6406 Q68.5514,28.9375 67.9108,29.0781 Q67.2702,29.2344 66.567,29.2344 Q64.067,29.2344 62.7389,27.5938 Q61.4264,25.9375 61.4264,22.8125 Q61.4264,19.6875 62.7389,18.0313 Q64.067,16.375 66.567,16.375 Q67.2702,16.375 67.9108,16.5313 Q68.567,16.6875 69.1295,16.9844 L69.1295,19.7031 Q68.5045,19.125 67.9108,18.8594 Q67.317,18.5781 66.692,18.5781 Q65.3483,18.5781 64.6608,19.6563 Q63.9733,20.7188 63.9733,22.8125 Q63.9733,24.9063 64.6608,25.9844 Q65.3483,27.0469 66.692,27.0469 Q67.317,27.0469 67.9108,26.7813 Q68.5045,26.5 69.1295,25.9219 L69.1295,28.6406 Z " fill="#000000"/><text fill="#000000" font-family="sans-serif" font-size="14" lengthAdjust="spacing" textLength="31.9102" x="81.641" y="27.8467">User</text><line style="stroke:#181818;stroke-width:0.5;" x1="45.5" x2="122.2119" y1="39" y2="39"/><text fill="#000000" font-family="sans-serif" font-size="14" lengthAdjust="spacing" textLength="39.7031" x="50.5" y="55.9951">name</text><text fill="#000000" font-family="sans-serif" font-size="14" lengthAdjust="spacing" textLength="38.6094" x="50.5" y="72.292">email</text><text fill="#000000" font-family="sans-serif" font-size="14" lengthAdjust="spacing" textLength="66.7119" x="50.5" y="88.5889">password</text><line style="stroke:#181818;stroke-width:0.5;" x1="45.5" x2="122.2119" y1="95.8906" y2="95.8906"/></g><!--class Role--><g class="entity" data-entity="Role" data-source-line="11" data-uid="ent0003" id="entity_Role"><rect fill="#F1F1F1" height="80.5938" rx="2.5" ry="2.5" style="stroke:#181818;stroke-width:0.5;" width="89.8408" x="7" y="189"/><ellipse cx="34.1702" cy="205" fill="#C2C2C2" rx="11" ry="11" style="stroke:#181818;stroke-width:1;"/><path d="M37.139,210.6406 Q36.5608,210.9375 35.9202,211.0781 Q35.2796,211.2344 34.5765,211.2344 Q32.0765,211.2344 30.7483,209.5938 Q29.4358,207.9375 29.4358,204.8125 Q29.4358,201.6875 30.7483,200.0313 Q32.0765,198.375 34.5765,198.375 Q35.2796,198.375 35.9202,198.5313 Q36.5765,198.6875 37.139,198.9844 L37.139,201.7031 Q36.514,201.125 35.9202,200.8594 Q35.3265,200.5781 34.7015,200.5781 Q33.3577,200.5781 32.6702,201.6563 Q31.9827,202.7188 31.9827,204.8125 Q31.9827,206.9063 32.6702,207.9844 Q33.3577,209.0469 34.7015,209.0469 Q35.3265,209.0469 35.9202,208.7813 Q36.514,208.5 37.139,207.9219 L37.139,210.6406 Z " fill="#000000"/><text fill="#000000" font-family="sans-serif" font-size="14" lengthAdjust="spacing" textLength="30.7959" x="50.8747" y="209.8467">Role</text><line style="stroke:#181818;stroke-width:0.5;" x1="8" x2="95.8408" y1="221" y2="221"/><text fill="#000000" font-family="sans-serif" font-size="14" lengthAdjust="spacing" textLength="39.7031" x="13" y="237.9951">name</text><text fill="#000000" font-family="sans-serif" font-size="14" lengthAdjust="spacing" textLength="77.8408" x="13" y="254.292">description</text><line style="stroke:#181818;stroke-width:0.5;" x1="8" x2="95.8408" y1="261.5938" y2="261.5938"/></g><!--class Map--><g class="entity" data-entity="Map" data-source-line="16" data-uid="ent0004" id="entity_Map"><rect fill="#F1F1F1" height="96.8906" rx="2.5" ry="2.5" style="stroke:#181818;stroke-width:0.5;" width="61.5449" x="132" y="181"/><ellipse cx="147" cy="197" fill="#C2C2C2" rx="11" ry="11" style="stroke:#181818;stroke-width:1;"/><path d="M149.9688,202.6406 Q149.3906,202.9375 148.75,203.0781 Q148.1094,203.2344 147.4063,203.2344 Q144.9063,203.2344 143.5781,201.5938 Q142.2656,199.9375 142.2656,196.8125 Q142.2656,193.6875 143.5781,192.0313 Q144.9063,190.375 147.4063,190.375 Q148.1094,190.375 148.75,190.5313 Q149.4063,190.6875 149.9688,190.9844 L149.9688,193.7031 Q149.3438,193.125 148.75,192.8594 Q148.1563,192.5781 147.5313,192.5781 Q146.1875,192.5781 145.5,193.6563 Q144.8125,194.7188 144.8125,196.8125 Q144.8125,198.9063 145.5,199.9844 Q146.1875,201.0469 147.5313,201.0469 Q148.1563,201.0469 148.75,200.7813 Q149.3438,200.5 149.9688,199.9219 L149.9688,202.6406 Z " fill="#000000"/><text fill="#000000" font-family="sans-serif" font-size="14" lengthAdjust="spacing" textLength="29.5449" x="161" y="201.8467">Map</text><line style="stroke:#181818;stroke-width:0.5;" x1="133" x2="192.5449" y1="213" y2="213"/><text fill="#000000" font-family="sans-serif" font-size="14" lengthAdjust="spacing" textLength="39.7031" x="138" y="229.9951">name</text><text fill="#000000" font-family="sans-serif" font-size="14" lengthAdjust="spacing" textLength="38.5889" x="138" y="246.292">width</text><text fill="#000000" font-family="sans-serif" font-size="14" lengthAdjust="spacing" textLength="44.625" x="138" y="262.5889">height</text><line style="stroke:#181818;stroke-width:0.5;" x1="133" x2="192.5449" y1="269.8906" y2="269.8906"/></g><!--class Scenario--><g class="entity" data-entity="Scenario" data-source-line="22" data-uid="ent0005" id="entity_Scenario"><rect fill="#F1F1F1" height="96.8906" rx="2.5" ry="2.5" style="stroke:#181818;stroke-width:0.5;" width="158.501" x="147.5" y="958"/><ellipse cx="192.0703" cy="974" fill="#C2C2C2" rx="11" ry="11" style="stroke:#181818;stroke-width:1;"/><path d="M195.0391,979.6406 Q194.4609,979.9375 193.8203,980.0781 Q193.1797,980.2344 192.4766,980.2344 Q189.9766,980.2344 188.6484,978.5938 Q187.3359,976.9375 187.3359,973.8125 Q187.3359,970.6875 188.6484,969.0313 Q189.9766,967.375 192.4766,967.375 Q193.1797,967.375 193.8203,967.5313 Q194.4766,967.6875 195.0391,967.9844 L195.0391,970.7031 Q194.4141,970.125 193.8203,969.8594 Q193.2266,969.5781 192.6016,969.5781 Q191.2578,969.5781 190.5703,970.6563 Q189.8828,971.7188 189.8828,973.8125 Q189.8828,975.9063 190.5703,976.9844 Q191.2578,978.0469 192.6016,978.0469 Q193.2266,978.0469 193.8203,977.7813 Q194.4141,977.5 195.0391,976.9219 L195.0391,979.6406 Z " fill="#000000"/><text fill="#000000" font-family="sans-serif" font-size="14" lengthAdjust="spacing" textLength="60.8604" x="212.5703" y="978.8467">Scenario</text><line style="stroke:#181818;stroke-width:0.5;" x1="148.5" x2="305.001" y1="990" y2="990"/><text fill="#000000" font-family="sans-serif" font-size="14" lengthAdjust="spacing" textLength="39.7031" x="153.5" y="1006.9951">name</text><text fill="#000000" font-family="sans-serif" font-size="14" lengthAdjust="spacing" textLength="77.8408" x="153.5" y="1023.292">description</text><text fill="#000000" font-family="sans-serif" font-size="14" lengthAdjust="spacing" textLength="146.501" x="153.5" y="1039.5889">historicalRestrictions</text><line style="stroke:#181818;stroke-width:0.5;" x1="148.5" x2="305.001" y1="1046.8906" y2="1046.8906"/></g><!--class Industry--><g class="entity" data-entity="Industry" data-source-line="28" data-uid="ent0006" id="entity_Industry"><rect fill="#F1F1F1" height="80.5938" rx="2.5" ry="2.5" style="stroke:#181818;stroke-width:0.5;" width="89.5859" x="118" y="355"/><ellipse cx="133" cy="371" fill="#C2C2C2" rx="11" ry="11" style="stroke:#181818;stroke-width:1;"/><path d="M135.9688,376.6406 Q135.3906,376.9375 134.75,377.0781 Q134.1094,377.2344 133.4063,377.2344 Q130.9063,377.2344 129.5781,375.5938 Q128.2656,373.9375 128.2656,370.8125 Q128.2656,367.6875 129.5781,366.0313 Q130.9063,364.375 133.4063,364.375 Q134.1094,364.375 134.75,364.5313 Q135.4063,364.6875 135.9688,364.9844 L135.9688,367.7031 Q135.3438,367.125 134.75,366.8594 Q134.1563,366.5781 133.5313,366.5781 Q132.1875,366.5781 131.5,367.6563 Q130.8125,368.7188 130.8125,370.8125 Q130.8125,372.9063 131.5,373.9844 Q132.1875,375.0469 133.5313,375.0469 Q134.1563,375.0469 134.75,374.7813 Q135.3438,374.5 135.9688,373.9219 L135.9688,376.6406 Z " fill="#000000"/><text fill="#000000" font-family="sans-serif" font-size="14" lengthAdjust="spacing" textLength="57.5859" x="147" y="375.8467">Industry</text><line style="stroke:#181818;stroke-width:0.5;" x1="119" x2="206.5859" y1="387" y2="387"/><text fill="#000000" font-family="sans-serif" font-size="14" lengthAdjust="spacing" textLength="39.7031" x="124" y="403.9951">name</text><text fill="#000000" font-family="sans-serif" font-size="14" lengthAdjust="spacing" textLength="55.5488" x="124" y="420.292">location</text><line style="stroke:#181818;stroke-width:0.5;" x1="119" x2="206.5859" y1="427.5938" y2="427.5938"/></g><!--class IndustryType--><g class="entity" data-entity="IndustryType" data-source-line="33" data-uid="ent0007" id="entity_IndustryType"><rect fill="#F1F1F1" height="80.5938" rx="2.5" ry="2.5" style="stroke:#181818;stroke-width:0.5;" width="123.9229" x="96" y="689"/><ellipse cx="111" cy="705" fill="#C2C2C2" rx="11" ry="11" style="stroke:#181818;stroke-width:1;"/><path d="M113.9688,710.6406 Q113.3906,710.9375 112.75,711.0781 Q112.1094,711.2344 111.4063,711.2344 Q108.9063,711.2344 107.5781,709.5938 Q106.2656,707.9375 106.2656,704.8125 Q106.2656,701.6875 107.5781,700.0313 Q108.9063,698.375 111.4063,698.375 Q112.1094,698.375 112.75,698.5313 Q113.4063,698.6875 113.9688,698.9844 L113.9688,701.7031 Q113.3438,701.125 112.75,700.8594 Q112.1563,700.5781 111.5313,700.5781 Q110.1875,700.5781 109.5,701.6563 Q108.8125,702.7188 108.8125,704.8125 Q108.8125,706.9063 109.5,707.9844 Q110.1875,709.0469 111.5313,709.0469 Q112.1563,709.0469 112.75,708.7813 Q113.3438,708.5 113.9688,707.9219 L113.9688,710.6406 Z " fill="#000000"/><text fill="#000000" font-family="sans-serif" font-size="14" lengthAdjust="spacing" textLength="91.9229" x="125" y="709.8467">IndustryType</text><line style="stroke:#181818;stroke-width:0.5;" x1="97" x2="218.9229" y1="721" y2="721"/><text fill="#000000" font-family="sans-serif" font-size="14" lengthAdjust="spacing" textLength="39.7031" x="102" y="737.9951">name</text><text fill="#000000" font-family="sans-serif" font-size="14" lengthAdjust="spacing" textLength="77.8408" x="102" y="754.292">description</text><line style="stroke:#181818;stroke-width:0.5;" x1="97" x2="218.9229" y1="761.5938" y2="761.5938"/></g><!--class Train--><g class="entity" data-entity="Train" data-source-line="38" data-uid="ent0008" id="entity_Train"><rect fill="#F1F1F1" height="64.2969" rx="2.5" ry="2.5" style="stroke:#181818;stroke-width:0.5;" width="67.6494" x="248" y="363.5"/><ellipse cx="263" cy="379.5" fill="#C2C2C2" rx="11" ry="11" style="stroke:#181818;stroke-width:1;"/><path d="M265.9688,385.1406 Q265.3906,385.4375 264.75,385.5781 Q264.1094,385.7344 263.4063,385.7344 Q260.9063,385.7344 259.5781,384.0938 Q258.2656,382.4375 258.2656,379.3125 Q258.2656,376.1875 259.5781,374.5313 Q260.9063,372.875 263.4063,372.875 Q264.1094,372.875 264.75,373.0313 Q265.4063,373.1875 265.9688,373.4844 L265.9688,376.2031 Q265.3438,375.625 264.75,375.3594 Q264.1563,375.0781 263.5313,375.0781 Q262.1875,375.0781 261.5,376.1563 Q260.8125,377.2188 260.8125,379.3125 Q260.8125,381.4063 261.5,382.4844 Q262.1875,383.5469 263.5313,383.5469 Q264.1563,383.5469 264.75,383.2813 Q265.3438,383 265.9688,382.4219 L265.9688,385.1406 Z " fill="#000000"/><text fill="#000000" font-family="sans-serif" font-size="14" lengthAdjust="spacing" textLength="35.6494" x="277" y="384.3467">Train</text><line style="stroke:#181818;stroke-width:0.5;" x1="249" x2="314.6494" y1="395.5" y2="395.5"/><text fill="#000000" font-family="sans-serif" font-size="14" lengthAdjust="spacing" textLength="12.7764" x="254" y="412.4951">id</text><line style="stroke:#181818;stroke-width:0.5;" x1="249" x2="314.6494" y1="419.7969" y2="419.7969"/></g><!--class Locomotive--><g class="entity" data-entity="Locomotive" data-source-line="42" data-uid="ent0009" id="entity_Locomotive"><rect fill="#F1F1F1" height="145.7813" rx="2.5" ry="2.5" style="stroke:#181818;stroke-width:0.5;" width="161.7275" x="266" y="513"/><ellipse cx="302.8786" cy="529" fill="#C2C2C2" rx="11" ry="11" style="stroke:#181818;stroke-width:1;"/><path d="M305.8474,534.6406 Q305.2692,534.9375 304.6286,535.0781 Q303.988,535.2344 303.2849,535.2344 Q300.7849,535.2344 299.4567,533.5938 Q298.1442,531.9375 298.1442,528.8125 Q298.1442,525.6875 299.4567,524.0313 Q300.7849,522.375 303.2849,522.375 Q303.988,522.375 304.6286,522.5313 Q305.2849,522.6875 305.8474,522.9844 L305.8474,525.7031 Q305.2224,525.125 304.6286,524.8594 Q304.0349,524.5781 303.4099,524.5781 Q302.0661,524.5781 301.3786,525.6563 Q300.6911,526.7188 300.6911,528.8125 Q300.6911,530.9063 301.3786,531.9844 Q302.0661,533.0469 303.4099,533.0469 Q304.0349,533.0469 304.6286,532.7813 Q305.2224,532.5 305.8474,531.9219 L305.8474,534.6406 Z " fill="#000000"/><text fill="#000000" font-family="sans-serif" font-size="14" lengthAdjust="spacing" textLength="81.1084" x="321.7405" y="533.8467">Locomotive</text><line style="stroke:#181818;stroke-width:0.5;" x1="267" x2="426.7275" y1="545" y2="545"/><text fill="#000000" font-family="sans-serif" font-size="14" lengthAdjust="spacing" textLength="12.7764" x="272" y="561.9951">id</text><text fill="#000000" font-family="sans-serif" font-size="14" lengthAdjust="spacing" textLength="43.2715" x="272" y="578.292">power</text><text fill="#000000" font-family="sans-serif" font-size="14" lengthAdjust="spacing" textLength="86.2422" x="272" y="594.5889">acceleration</text><text fill="#000000" font-family="sans-serif" font-size="14" lengthAdjust="spacing" textLength="66.8281" x="272" y="610.8857">topSpeed</text><text fill="#000000" font-family="sans-serif" font-size="14" lengthAdjust="spacing" textLength="149.7275" x="272" y="627.1826">startYearOfOperation</text><text fill="#000000" font-family="sans-serif" font-size="14" lengthAdjust="spacing" textLength="102.6279" x="272" y="643.4795">aquisitionPrice</text><line style="stroke:#181818;stroke-width:0.5;" x1="267" x2="426.7275" y1="650.7813" y2="650.7813"/></g><!--class LocomotiveType--><g class="entity" data-entity="LocomotiveType" data-source-line="51" data-uid="ent0010" id="entity_LocomotiveType"><rect fill="#F1F1F1" height="80.5938" rx="2.5" ry="2.5" style="stroke:#181818;stroke-width:0.5;" width="147.4453" x="320.5" y="800"/><ellipse cx="335.5" cy="816" fill="#C2C2C2" rx="11" ry="11" style="stroke:#181818;stroke-width:1;"/><path d="M338.4688,821.6406 Q337.8906,821.9375 337.25,822.0781 Q336.6094,822.2344 335.9063,822.2344 Q333.4063,822.2344 332.0781,820.5938 Q330.7656,818.9375 330.7656,815.8125 Q330.7656,812.6875 332.0781,811.0313 Q333.4063,809.375 335.9063,809.375 Q336.6094,809.375 337.25,809.5313 Q337.9063,809.6875 338.4688,809.9844 L338.4688,812.7031 Q337.8438,812.125 337.25,811.8594 Q336.6563,811.5781 336.0313,811.5781 Q334.6875,811.5781 334,812.6563 Q333.3125,813.7188 333.3125,815.8125 Q333.3125,817.9063 334,818.9844 Q334.6875,820.0469 336.0313,820.0469 Q336.6563,820.0469 337.25,819.7813 Q337.8438,819.5 338.4688,818.9219 L338.4688,821.6406 Z " fill="#000000"/><text fill="#000000" font-family="sans-serif" font-size="14" lengthAdjust="spacing" textLength="115.4453" x="349.5" y="820.8467">LocomotiveType</text><line style="stroke:#181818;stroke-width:0.5;" x1="321.5" x2="466.9453" y1="832" y2="832"/><text fill="#000000" font-family="sans-serif" font-size="14" lengthAdjust="spacing" textLength="39.7031" x="326.5" y="848.9951">name</text><text fill="#000000" font-family="sans-serif" font-size="14" lengthAdjust="spacing" textLength="77.8408" x="326.5" y="865.292">description</text><line style="stroke:#181818;stroke-width:0.5;" x1="321.5" x2="466.9453" y1="872.5938" y2="872.5938"/></g><!--class timeRestrictions--><g class="entity" data-entity="timeRestrictions" data-source-line="56" data-uid="ent0011" id="entity_timeRestrictions"><rect fill="#F1F1F1" height="80.5938" rx="2.5" ry="2.5" style="stroke:#181818;stroke-width:0.5;" width="146.208" x="503" y="800"/><ellipse cx="518" cy="816" fill="#C2C2C2" rx="11" ry="11" style="stroke:#181818;stroke-width:1;"/><path d="M520.9688,821.6406 Q520.3906,821.9375 519.75,822.0781 Q519.1094,822.2344 518.4063,822.2344 Q515.9063,822.2344 514.5781,820.5938 Q513.2656,818.9375 513.2656,815.8125 Q513.2656,812.6875 514.5781,811.0313 Q515.9063,809.375 518.4063,809.375 Q519.1094,809.375 519.75,809.5313 Q520.4063,809.6875 520.9688,809.9844 L520.9688,812.7031 Q520.3438,812.125 519.75,811.8594 Q519.1563,811.5781 518.5313,811.5781 Q517.1875,811.5781 516.5,812.6563 Q515.8125,813.7188 515.8125,815.8125 Q515.8125,817.9063 516.5,818.9844 Q517.1875,820.0469 518.5313,820.0469 Q519.1563,820.0469 519.75,819.7813 Q520.3438,819.5 520.9688,818.9219 L520.9688,821.6406 Z " fill="#000000"/><text fill="#000000" font-family="sans-serif" font-size="14" lengthAdjust="spacing" textLength="114.208" x="532" y="820.8467">timeRestrictions</text><line style="stroke:#181818;stroke-width:0.5;" x1="504" x2="648.208" y1="832" y2="832"/><text fill="#000000" font-family="sans-serif" font-size="14" lengthAdjust="spacing" textLength="67.2998" x="509" y="848.9951">startTime</text><text fill="#000000" font-family="sans-serif" font-size="14" lengthAdjust="spacing" textLength="61.0654" x="509" y="865.292">endTime</text><line style="stroke:#181818;stroke-width:0.5;" x1="504" x2="648.208" y1="872.5938" y2="872.5938"/></g><!--link User to Role--><g class="link" data-entity-1="User" data-entity-2="Role" data-source-line="61" data-uid="lnk12" id="link_User_Role"><path codeLine="61" d="M75.09,104.41 C70.13,131.05 64.04,163.8 59.36,188.97" fill="none" id="User-Role" style="stroke:#181818;stroke-width:1;"/><text fill="#000000" font-family="sans-serif" font-size="13" lengthAdjust="spacing" textLength="22.9785" x="70" y="147.0669">has</text><text fill="#000000" font-family="sans-serif" font-size="13" lengthAdjust="spacing" textLength="6.5" x="67.5425" y="124.0733">*</text><text fill="#000000" font-family="sans-serif" font-size="13" lengthAdjust="spacing" textLength="8.271" x="51.9745" y="177.8281">1</text></g><!--link User to Map--><g class="link" data-entity-1="User" data-entity-2="Map" data-source-line="62" data-uid="lnk13" id="link_User_Map"><path codeLine="62" d="M106.01,104.41 C116.96,128.27 130.17,157.02 141.11,180.85" fill="none" id="User-Map" style="stroke:#181818;stroke-width:1;"/><text fill="#000000" font-family="sans-serif" font-size="13" lengthAdjust="spacing" textLength="59.8584" x="127" y="147.0669">manages</text><text fill="#000000" font-family="sans-serif" font-size="13" lengthAdjust="spacing" textLength="8.271" x="100.4677" y="124.0733">1</text><text fill="#000000" font-family="sans-serif" font-size="13" lengthAdjust="spacing" textLength="6.5" x="131.677" y="170.0378">*</text></g><!--link Map to Scenario--><g class="link" data-entity-1="Map" data-entity-2="Scenario" data-source-line="64" data-uid="lnk14" id="link_Map_Scenario"><path codeLine="64" d="M131.99,260 C103.28,290.64 65,341.43 65,394.5 C65,394.5 65,394.5 65,841.5 C65,893.33 106.45,934.69 147.42,962.91" fill="none" id="Map-Scenario" style="stroke:#181818;stroke-width:1;"/><text fill="#000000" font-family="sans-serif" font-size="13" lengthAdjust="spacing" textLength="29.7832" x="66" y="590.5669">uses</text><text fill="#000000" font-family="sans-serif" font-size="13" lengthAdjust="spacing" textLength="8.271" x="115.5448" y="262.7027">1</text><text fill="#000000" font-family="sans-serif" font-size="13" lengthAdjust="spacing" textLength="6.5" x="132.9554" y="954.7207">*</text></g><!--link Map to Train--><g class="link" data-entity-1="Map" data-entity-2="Train" data-source-line="65" data-uid="lnk15" id="link_Map_Train"><path codeLine="65" d="M194.17,265.54 C205.26,278.56 217.58,293.65 228,308 C240.9,325.76 253.97,346.61 264.02,363.39" fill="none" id="Map-Train" style="stroke:#181818;stroke-width:1;"/><text fill="#000000" font-family="sans-serif" font-size="13" lengthAdjust="spacing" textLength="22.9785" x="241" y="321.0669">has</text><text fill="#000000" font-family="sans-serif" font-size="13" lengthAdjust="spacing" textLength="6.5" x="201.7491" y="268.8765">*</text><text fill="#000000" font-family="sans-serif" font-size="13" lengthAdjust="spacing" textLength="6.5" x="253.7806" y="352.2704">*</text></g><!--link Map to Industry--><g class="link" data-entity-1="Map" data-entity-2="Industry" data-source-line="66" data-uid="lnk16" id="link_Map_Industry"><path codeLine="66" d="M163,278.38 C163,302.67 163,331.84 163,354.86" fill="none" id="Map-Industry" style="stroke:#181818;stroke-width:1;"/><text fill="#000000" font-family="sans-serif" font-size="13" lengthAdjust="spacing" textLength="55.0278" x="164" y="321.0669">contains</text><text fill="#000000" font-family="sans-serif" font-size="13" lengthAdjust="spacing" textLength="8.271" x="154.5113" y="298.0392">1</text><text fill="#000000" font-family="sans-serif" font-size="13" lengthAdjust="spacing" textLength="6.5" x="156.5788" y="343.9983">*</text></g><!--link Train to Locomotive--><g class="link" data-entity-1="Train" data-entity-2="Locomotive" data-source-line="68" data-uid="lnk17" id="link_Train_Locomotive"><path codeLine="68" d="M292.73,427.63 C300.7,450.74 311.9,483.22 322.06,512.67" fill="none" id="Train-Locomotive" style="stroke:#181818;stroke-width:1;"/><text fill="#000000" font-family="sans-serif" font-size="13" lengthAdjust="spacing" textLength="22.9785" x="311" y="479.0669">has</text><text fill="#000000" font-family="sans-serif" font-size="13" lengthAdjust="spacing" textLength="8.271" x="286.1822" y="447.8537">1</text><text fill="#000000" font-family="sans-serif" font-size="13" lengthAdjust="spacing" textLength="8.271" x="311.3276" y="502.0495">1</text></g><!--link Locomotive to LocomotiveType--><g class="link" data-entity-1="Locomotive" data-entity-2="LocomotiveType" data-source-line="70" data-uid="lnk18" id="link_Locomotive_LocomotiveType"><path codeLine="70" d="M360.41,659.02 C368.93,704.79 379.63,762.3 386.64,799.94" fill="none" id="Locomotive-LocomotiveType" style="stroke:#181818;stroke-width:1;"/><text fill="#000000" font-family="sans-serif" font-size="13" lengthAdjust="spacing" textLength="22.9785" x="381" y="734.0669">has</text><text fill="#000000" font-family="sans-serif" font-size="13" lengthAdjust="spacing" textLength="6.5" x="355.439" y="678.7782">*</text><text fill="#000000" font-family="sans-serif" font-size="13" lengthAdjust="spacing" textLength="8.271" x="376.6725" y="788.7929">1</text></g><!--link LocomotiveType to Scenario--><g class="link" data-entity-1="LocomotiveType" data-entity-2="Scenario" data-source-line="71" data-uid="lnk19" id="link_LocomotiveType_Scenario"><path codeLine="71" d="M353.57,881.2 C330.02,904.33 300.17,933.64 275.37,958" fill="none" id="LocomotiveType-Scenario" style="stroke:#181818;stroke-width:1;"/><text fill="#000000" font-family="sans-serif" font-size="13" lengthAdjust="spacing" textLength="144.4854" x="321" y="924.0669">Locmotive restrictions</text><text fill="#000000" font-family="sans-serif" font-size="13" lengthAdjust="spacing" textLength="6.5" x="340.924" y="900.6888">*</text><text fill="#000000" font-family="sans-serif" font-size="13" lengthAdjust="spacing" textLength="6.5" x="276.1071" y="946.8597">*</text></g><!--link Industry to IndustryType--><g class="link" data-entity-1="Industry" data-entity-2="IndustryType" data-source-line="73" data-uid="lnk20" id="link_Industry_IndustryType"><path codeLine="73" d="M162.4,436.22 C161.44,500.16 159.56,625.19 158.59,689" fill="none" id="Industry-IndustryType" style="stroke:#181818;stroke-width:1;"/><text fill="#000000" font-family="sans-serif" font-size="13" lengthAdjust="spacing" textLength="22.9785" x="163" y="479.0669">has</text><text fill="#000000" font-family="sans-serif" font-size="13" lengthAdjust="spacing" textLength="8.271" x="153.7481" y="455.7119">1</text><text fill="#000000" font-family="sans-serif" font-size="13" lengthAdjust="spacing" textLength="8.271" x="150.0338" y="677.8632">1</text></g><!--link IndustryType to Scenario--><g class="link" data-entity-1="IndustryType" data-entity-2="Scenario" data-source-line="74" data-uid="lnk21" id="link_IndustryType_Scenario"><path codeLine="74" d="M157.81,770.09 C158.53,800.8 161.43,844.2 171,881 C177.86,907.38 189.86,935.18 200.99,957.81" fill="none" id="IndustryType-Scenario" style="stroke:#181818;stroke-width:1;"/><text fill="#000000" font-family="sans-serif" font-size="13" lengthAdjust="spacing" textLength="130.5967" x="172" y="845.0669">Industry restrictions</text><text fill="#000000" font-family="sans-serif" font-size="13" lengthAdjust="spacing" textLength="6.5" x="151.3657" y="789.5619">*</text><text fill="#000000" font-family="sans-serif" font-size="13" lengthAdjust="spacing" textLength="6.5" x="190.9807" y="946.9922">*</text></g><!--link timeRestrictions to Scenario--><g class="link" data-entity-1="timeRestrictions" data-entity-2="Scenario" data-source-line="76" data-uid="lnk22" id="link_timeRestrictions_Scenario"><path codeLine="76" d="M536.62,881.34 C518.75,897.65 496.57,915.56 474,928 C421.55,956.91 356.78,976.72 306.73,989.07" fill="none" id="timeRestrictions-Scenario" style="stroke:#181818;stroke-width:1;"/><text fill="#000000" font-family="sans-serif" font-size="13" lengthAdjust="spacing" textLength="109.3384" x="499" y="924.0669">Time restrictions</text><text fill="#000000" font-family="sans-serif" font-size="13" lengthAdjust="spacing" textLength="8.271" x="522.2532" y="900.5464">1</text><text fill="#000000" font-family="sans-serif" font-size="13" lengthAdjust="spacing" textLength="6.5" x="313.8825" y="984.0049">*</text></g><!--SRC=[ZPBBRi8m44Nt_WehIoGMRFc3IgseW2ww73b3CiAlsauZXFhlTPoN4z4ADanyZ- -yxA-aBJXGN1bjHEsCGXvSWynFYWLnXGfFuIQHEnG1T2LpmDTGcfPqnIyWFJ8c97ZFFpmwVcSy_ZGeJ04g89aY6v7Mk9BzZFpHHFyLNw8NZcmWesVm3UoQQwaCTOfgfAeECtmIgC6H-SSuNICVZ2C1yeW-nA1J_6ppeiicdjzMDj88M1OtWkURnMUQEJiWFRH3sJHUZJ3A1Fh6IKjZCosw584GAD71r48mzcGHUyu7SE4JmHqk1vjJyDMGf-xpFNQ9Zn8-MteWXVcqxdFcCuqBrsMAuwNq7efDmRTRNkoAVjzxNeCVf5qlHQBRy9uhqF7TUSQwpqmTLngHnaSzoPj9xYVQ6wzkZik9gZ0wH2wwz_n8nRzv4eCBoqwo1fOJ6zZLOLPNLdQ41ZkNlpOsrPTLap-e8SVYw766oMcPOBsoFyRQhMnvynS0]--></g></svg>