<svg xmlns="http://www.w3.org/2000/svg" xmlns:xlink="http://www.w3.org/1999/xlink" contentStyleType="text/css" height="1094px" preserveAspectRatio="none" style="width:1479px;height:1094px;background:#FFFFFF;" version="1.1" viewBox="0 0 1479 1094" width="1479px" zoomAndPan="magnify"><defs/><g><rect fill="#F9E79F" height="302.9102" style="stroke:#000000;stroke-width:1.5;" width="1452.1025" x="10" y="691.8594"/><rect fill="#F9E79F" height="189.7461" style="stroke:none;stroke-width:1.0;" width="1452.1025" x="10" y="805.0234"/><line style="stroke:#181818;stroke-width:0.5;stroke-dasharray:5.0,5.0;" x1="70" x2="70" y1="83.6211" y2="1011.7695"/><line style="stroke:#181818;stroke-width:0.5;stroke-dasharray:5.0,5.0;" x1="294.376" x2="294.376" y1="83.6211" y2="1011.7695"/><line style="stroke:#181818;stroke-width:0.5;stroke-dasharray:5.0,5.0;" x1="556.3682" x2="556.3682" y1="83.6211" y2="1011.7695"/><line style="stroke:#181818;stroke-width:0.5;stroke-dasharray:5.0,5.0;" x1="782.0498" x2="782.0498" y1="83.6211" y2="1011.7695"/><line style="stroke:#181818;stroke-width:0.5;stroke-dasharray:5.0,5.0;" x1="938.2217" x2="938.2217" y1="83.6211" y2="1011.7695"/><line style="stroke:#181818;stroke-width:0.5;stroke-dasharray:5.0,5.0;" x1="1079.6143" x2="1079.6143" y1="83.6211" y2="1011.7695"/><line style="stroke:#181818;stroke-width:0.5;stroke-dasharray:5.0,5.0;" x1="1242.207" x2="1242.207" y1="83.6211" y2="1011.7695"/><line style="stroke:#181818;stroke-width:0.5;stroke-dasharray:5.0,5.0;" x1="1396.6133" x2="1396.6133" y1="83.6211" y2="1011.7695"/><text fill="#000000" font-family="sans-serif" font-size="14" lengthAdjust="spacing" textLength="94.9375" x="20" y="80.1074">Show Designer</text><ellipse cx="70.4688" cy="13.5" fill="#E2E2F0" rx="8" ry="8" style="stroke:#181818;stroke-width:0.5;"/><path d="M70.4688,21.5 L70.4688,48.5 M57.4688,29.5 L83.4688,29.5 M70.4688,48.5 L57.4688,63.5 M70.4688,48.5 L83.4688,63.5 " fill="none" style="stroke:#181818;stroke-width:0.5;"/><text fill="#000000" font-family="sans-serif" font-size="14" lengthAdjust="spacing" textLength="94.9375" x="20" y="1025.877">Show Designer</text><ellipse cx="70.4688" cy="1037.8906" fill="#E2E2F0" rx="8" ry="8" style="stroke:#181818;stroke-width:0.5;"/><path d="M70.4688,1045.8906 L70.4688,1072.8906 M57.4688,1053.8906 L83.4688,1053.8906 M70.4688,1072.8906 L57.4688,1087.8906 M70.4688,1072.8906 L83.4688,1087.8906 " fill="none" style="stroke:#181818;stroke-width:0.5;"/><rect fill="#E2E2F0" height="32.6211" rx="2.5" ry="2.5" style="stroke:#181818;stroke-width:0.5;" width="227.9922" x="181.376" y="50"/><text fill="#000000" font-family="sans-serif" font-size="14" lengthAdjust="spacing" textLength="213.9922" x="188.376" y="72.1074">ToggleFigureCategoryActivationUI</text><rect fill="#E2E2F0" height="32.6211" rx="2.5" ry="2.5" style="stroke:#181818;stroke-width:0.5;" width="227.9922" x="181.376" y="1010.7695"/><text fill="#000000" font-family="sans-serif" font-size="14" lengthAdjust="spacing" textLength="213.9922" x="188.376" y="1032.877">ToggleFigureCategoryActivationUI</text><rect fill="#E2E2F0" height="32.6211" rx="2.5" ry="2.5" style="stroke:#181818;stroke-width:0.5;" width="274.6816" x="419.3682" y="50"/><text fill="#000000" font-family="sans-serif" font-size="14" lengthAdjust="spacing" textLength="260.6816" x="426.3682" y="72.1074">ToggleFigureCategoryActivationController</text><rect fill="#E2E2F0" height="32.6211" rx="2.5" ry="2.5" style="stroke:#181818;stroke-width:0.5;" width="274.6816" x="419.3682" y="1010.7695"/><text fill="#000000" font-family="sans-serif" font-size="14" lengthAdjust="spacing" textLength="260.6816" x="426.3682" y="1032.877">ToggleFigureCategoryActivationController</text><rect fill="#E2E2F0" height="32.6211" rx="2.5" ry="2.5" style="stroke:#181818;stroke-width:0.5;" width="157.1719" x="704.0498" y="50"/><text fill="#000000" font-family="sans-serif" font-size="14" lengthAdjust="spacing" textLength="143.1719" x="711.0498" y="72.1074">FigureCategoryService</text><rect fill="#E2E2F0" height="32.6211" rx="2.5" ry="2.5" style="stroke:#181818;stroke-width:0.5;" width="157.1719" x="704.0498" y="1010.7695"/><text fill="#000000" font-family="sans-serif" font-size="14" lengthAdjust="spacing" textLength="143.1719" x="711.0498" y="1032.877">FigureCategoryService</text><rect fill="#E2E2F0" height="32.6211" rx="2.5" ry="2.5" style="stroke:#181818;stroke-width:0.5;" width="135.3926" x="871.2217" y="50"/><text fill="#000000" font-family="sans-serif" font-size="14" lengthAdjust="spacing" textLength="121.3926" x="878.2217" y="72.1074">PersistenceContext</text><rect fill="#E2E2F0" height="32.6211" rx="2.5" ry="2.5" style="stroke:#181818;stroke-width:0.5;" width="135.3926" x="871.2217" y="1010.7695"/><text fill="#000000" font-family="sans-serif" font-size="14" lengthAdjust="spacing" textLength="121.3926" x="878.2217" y="1032.877">PersistenceContext</text><rect fill="#E2E2F0" height="32.6211" rx="2.5" ry="2.5" style="stroke:#181818;stroke-width:0.5;" width="127.5928" x="1016.6143" y="50"/><text fill="#000000" font-family="sans-serif" font-size="14" lengthAdjust="spacing" textLength="113.5928" x="1023.6143" y="72.1074">RepositoryFactory</text><rect fill="#E2E2F0" height="32.6211" rx="2.5" ry="2.5" style="stroke:#181818;stroke-width:0.5;" width="127.5928" x="1016.6143" y="1010.7695"/><text fill="#000000" font-family="sans-serif" font-size="14" lengthAdjust="spacing" textLength="113.5928" x="1023.6143" y="1032.877">RepositoryFactory</text><rect fill="#E2E2F0" height="32.6211" rx="2.5" ry="2.5" style="stroke:#181818;stroke-width:0.5;" width="177.4063" x="1154.207" y="50"/><text fill="#000000" font-family="sans-serif" font-size="14" lengthAdjust="spacing" textLength="163.4063" x="1161.207" y="72.1074">FigureCategoryRepository</text><rect fill="#E2E2F0" height="32.6211" rx="2.5" ry="2.5" style="stroke:#181818;stroke-width:0.5;" width="177.4063" x="1154.207" y="1010.7695"/><text fill="#000000" font-family="sans-serif" font-size="14" lengthAdjust="spacing" textLength="163.4063" x="1161.207" y="1032.877">FigureCategoryRepository</text><rect fill="#E2E2F0" height="32.6211" rx="2.5" ry="2.5" style="stroke:#181818;stroke-width:0.5;" width="110.4893" x="1341.6133" y="50"/><text fill="#000000" font-family="sans-serif" font-size="14" lengthAdjust="spacing" textLength="96.4893" x="1348.6133" y="72.1074">FigureCategory</text><rect fill="#E2E2F0" height="32.6211" rx="2.5" ry="2.5" style="stroke:#181818;stroke-width:0.5;" width="110.4893" x="1341.6133" y="1010.7695"/><text fill="#000000" font-family="sans-serif" font-size="14" lengthAdjust="spacing" textLength="96.4893" x="1348.6133" y="1032.877">FigureCategory</text><rect fill="#EEEEEE" height="3" style="stroke:#EEEEEE;stroke-width:1.0;" width="1472.1025" x="0" y="115.2666"/><line style="stroke:#000000;stroke-width:1.0;" x1="0" x2="1472.1025" y1="115.2666" y2="115.2666"/><line style="stroke:#000000;stroke-width:1.0;" x1="0" x2="1472.1025" y1="118.2666" y2="118.2666"/><rect fill="#EEEEEE" height="25.291" style="stroke:#000000;stroke-width:2.0;" width="109.3672" x="681.3677" y="103.6211"/><text fill="#000000" font-family="sans-serif" font-size="13" font-weight="bold" lengthAdjust="spacing" textLength="91.7554" x="687.3677" y="121.6494">List categories</text><polygon fill="#181818" points="283.3721,158.2031,293.3721,162.2031,283.3721,166.2031,287.3721,162.2031" style="stroke:#181818;stroke-width:1.0;"/><line style="stroke:#181818;stroke-width:1.0;" x1="70.4688" x2="289.3721" y1="162.2031" y2="162.2031"/><text fill="#000000" font-family="sans-serif" font-size="13" lengthAdjust="spacing" textLength="200.9033" x="77.4688" y="156.9404">Request to change category status</text><polygon fill="#181818" points="544.709,189.4941,554.709,193.4941,544.709,197.4941,548.709,193.4941" style="stroke:#181818;stroke-width:1.0;"/><line style="stroke:#181818;stroke-width:1.0;" x1="295.3721" x2="550.709" y1="193.4941" y2="193.4941"/><text fill="#000000" font-family="sans-serif" font-size="13" lengthAdjust="spacing" textLength="36.1309" x="302.3721" y="188.2314">create</text><polygon fill="#181818" points="926.918,220.7852,936.918,224.7852,926.918,228.7852,930.918,224.7852" style="stroke:#181818;stroke-width:1.0;"/><line style="stroke:#181818;stroke-width:1.0;" x1="556.709" x2="932.918" y1="224.7852" y2="224.7852"/><text fill="#000000" font-family="sans-serif" font-size="13" lengthAdjust="spacing" textLength="75.8545" x="563.709" y="219.5225">repositories()</text><polygon fill="#181818" points="1068.4106,252.0762,1078.4106,256.0762,1068.4106,260.0762,1072.4106,256.0762" style="stroke:#181818;stroke-width:1.0;"/><line style="stroke:#181818;stroke-width:1.0;" x1="938.918" x2="1074.4106" y1="256.0762" y2="256.0762"/><text fill="#000000" font-family="sans-serif" font-size="13" lengthAdjust="spacing" textLength="36.1309" x="945.918" y="250.8135">create</text><polygon fill="#181818" points="1230.9102,283.3672,1240.9102,287.3672,1230.9102,291.3672,1234.9102,287.3672" style="stroke:#181818;stroke-width:1.0;"/><line style="stroke:#181818;stroke-width:1.0;" x1="1080.4106" x2="1236.9102" y1="287.3672" y2="287.3672"/><text fill="#000000" font-family="sans-serif" font-size="13" lengthAdjust="spacing" textLength="36.1309" x="1087.4106" y="282.1045">create</text><polygon fill="#181818" points="544.709,314.6582,554.709,318.6582,544.709,322.6582,548.709,318.6582" style="stroke:#181818;stroke-width:1.0;"/><line style="stroke:#181818;stroke-width:1.0;" x1="295.3721" x2="550.709" y1="318.6582" y2="318.6582"/><text fill="#000000" font-family="sans-serif" font-size="13" lengthAdjust="spacing" textLength="87.4136" x="302.3721" y="313.3955">listCategories()</text><polygon fill="#181818" points="770.6357,345.9492,780.6357,349.9492,770.6357,353.9492,774.6357,349.9492" style="stroke:#181818;stroke-width:1.0;"/><line style="stroke:#181818;stroke-width:1.0;" x1="556.709" x2="776.6357" y1="349.9492" y2="349.9492"/><text fill="#000000" font-family="sans-serif" font-size="13" lengthAdjust="spacing" textLength="101.8608" x="563.709" y="344.6865">listAllCategories()</text><polygon fill="#181818" points="1230.9102,377.2402,1240.9102,381.2402,1230.9102,385.2402,1234.9102,381.2402" style="stroke:#181818;stroke-width:1.0;"/><line style="stroke:#181818;stroke-width:1.0;" x1="782.6357" x2="1236.9102" y1="381.2402" y2="381.2402"/><text fill="#000000" font-family="sans-serif" font-size="13" lengthAdjust="spacing" textLength="44.0654" x="789.6357" y="375.9775">findAll()</text><polygon fill="#181818" points="793.6357,408.5313,783.6357,412.5313,793.6357,416.5313,789.6357,412.5313" style="stroke:#181818;stroke-width:1.0;"/><line style="stroke:#181818;stroke-width:1.0;stroke-dasharray:2.0,2.0;" x1="787.6357" x2="1241.9102" y1="412.5313" y2="412.5313"/><text fill="#000000" font-family="sans-serif" font-size="13" lengthAdjust="spacing" textLength="15.8882" x="799.6357" y="407.2686">list</text><polygon fill="#181818" points="567.709,439.8223,557.709,443.8223,567.709,447.8223,563.709,443.8223" style="stroke:#181818;stroke-width:1.0;"/><line style="stroke:#181818;stroke-width:1.0;stroke-dasharray:2.0,2.0;" x1="561.709" x2="781.6357" y1="443.8223" y2="443.8223"/><text fill="#000000" font-family="sans-serif" font-size="13" lengthAdjust="spacing" textLength="15.8882" x="573.709" y="438.5596">list</text><polygon fill="#181818" points="306.3721,471.1133,296.3721,475.1133,306.3721,479.1133,302.3721,475.1133" style="stroke:#181818;stroke-width:1.0;"/><line style="stroke:#181818;stroke-width:1.0;stroke-dasharray:2.0,2.0;" x1="300.3721" x2="555.709" y1="475.1133" y2="475.1133"/><text fill="#000000" font-family="sans-serif" font-size="13" lengthAdjust="spacing" textLength="15.8882" x="312.3721" y="469.8506">list</text><polygon fill="#181818" points="81.4688,502.4043,71.4688,506.4043,81.4688,510.4043,77.4688,506.4043" style="stroke:#181818;stroke-width:1.0;"/><line style="stroke:#181818;stroke-width:1.0;" x1="75.4688" x2="294.3721" y1="506.4043" y2="506.4043"/><text fill="#000000" font-family="sans-serif" font-size="13" lengthAdjust="spacing" textLength="59.9663" x="87.4688" y="501.1416">display list</text><rect fill="#EEEEEE" height="3" style="stroke:#EEEEEE;stroke-width:1.0;" width="1472.1025" x="0" y="536.0498"/><line style="stroke:#000000;stroke-width:1.0;" x1="0" x2="1472.1025" y1="536.0498" y2="536.0498"/><line style="stroke:#000000;stroke-width:1.0;" x1="0" x2="1472.1025" y1="539.0498" y2="539.0498"/><rect fill="#EEEEEE" height="25.291" style="stroke:#000000;stroke-width:2.0;" width="102.1182" x="684.9922" y="524.4043"/><text fill="#000000" font-family="sans-serif" font-size="13" font-weight="bold" lengthAdjust="spacing" textLength="84.5063" x="690.9922" y="542.4326">Toggle status</text><polygon fill="#181818" points="283.3721,578.9863,293.3721,582.9863,283.3721,586.9863,287.3721,582.9863" style="stroke:#181818;stroke-width:1.0;"/><line style="stroke:#181818;stroke-width:1.0;" x1="70.4688" x2="289.3721" y1="582.9863" y2="582.9863"/><text fill="#000000" font-family="sans-serif" font-size="13" lengthAdjust="spacing" textLength="106.2153" x="77.4688" y="577.7236">Select category ID</text><polygon fill="#181818" points="544.709,610.2773,554.709,614.2773,544.709,618.2773,548.709,614.2773" style="stroke:#181818;stroke-width:1.0;"/><line style="stroke:#181818;stroke-width:1.0;" x1="295.3721" x2="550.709" y1="614.2773" y2="614.2773"/><text fill="#000000" font-family="sans-serif" font-size="13" lengthAdjust="spacing" textLength="110.5571" x="302.3721" y="609.0146">toggleActivation(id)</text><polygon fill="#181818" points="770.6357,641.5684,780.6357,645.5684,770.6357,649.5684,774.6357,645.5684" style="stroke:#181818;stroke-width:1.0;"/><line style="stroke:#181818;stroke-width:1.0;" x1="556.709" x2="776.6357" y1="645.5684" y2="645.5684"/><text fill="#000000" font-family="sans-serif" font-size="13" lengthAdjust="spacing" textLength="163.3062" x="563.709" y="640.3057">toggleCategoryActivation(id)</text><polygon fill="#181818" points="1230.9102,672.8594,1240.9102,676.8594,1230.9102,680.8594,1234.9102,676.8594" style="stroke:#181818;stroke-width:1.0;"/><line style="stroke:#181818;stroke-width:1.0;" x1="782.6357" x2="1236.9102" y1="676.8594" y2="676.8594"/><text fill="#000000" font-family="sans-serif" font-size="13" lengthAdjust="spacing" textLength="71.5317" x="789.6357" y="671.5967">ofIdentity(id)</text><path d="M10,691.8594 L70.1709,691.8594 L70.1709,701.1504 L60.1709,711.1504 L10,711.1504 L10,691.8594 " fill="#EEEEEE" style="stroke:#000000;stroke-width:1.5;"/><rect fill="none" height="302.9102" style="stroke:#000000;stroke-width:1.5;" width="1452.1025" x="10" y="691.8594"/><text fill="#000000" font-family="sans-serif" font-size="13" font-weight="bold" lengthAdjust="spacing" textLength="15.1709" x="25" y="706.8877">alt</text><text fill="#000000" font-family="sans-serif" font-size="11" font-weight="bold" lengthAdjust="spacing" textLength="58.0239" x="85.1709" y="705.7295">[not found]</text><polygon fill="#181818" points="567.709,730.4414,557.709,734.4414,567.709,738.4414,563.709,734.4414" style="stroke:#181818;stroke-width:1.0;"/><line style="stroke:#181818;stroke-width:1.0;" x1="561.709" x2="781.6357" y1="734.4414" y2="734.4414"/><text fill="#000000" font-family="sans-serif" font-size="13" lengthAdjust="spacing" textLength="62.8481" x="573.709" y="729.1787">throw error</text><polygon fill="#181818" points="306.3721,761.7324,296.3721,765.7324,306.3721,769.7324,302.3721,765.7324" style="stroke:#181818;stroke-width:1.0;"/><line style="stroke:#181818;stroke-width:1.0;" x1="300.3721" x2="555.709" y1="765.7324" y2="765.7324"/><text fill="#000000" font-family="sans-serif" font-size="13" lengthAdjust="spacing" textLength="61.4072" x="312.3721" y="760.4697">show error</text><polygon fill="#181818" points="81.4688,793.0234,71.4688,797.0234,81.4688,801.0234,77.4688,797.0234" style="stroke:#181818;stroke-width:1.0;"/><line style="stroke:#181818;stroke-width:1.0;" x1="75.4688" x2="294.3721" y1="797.0234" y2="797.0234"/><text fill="#000000" font-family="sans-serif" font-size="13" lengthAdjust="spacing" textLength="61.4072" x="87.4688" y="791.7607">show error</text><line style="stroke:#000000;stroke-width:1.0;stroke-dasharray:2.0,2.0;" x1="10" x2="1462.1025" y1="806.0234" y2="806.0234"/><polygon fill="#181818" points="1384.8579,826.3145,1394.8579,830.3145,1384.8579,834.3145,1388.8579,830.3145" style="stroke:#181818;stroke-width:1.0;"/><line style="stroke:#181818;stroke-width:1.0;" x1="782.6357" x2="1390.8579" y1="830.3145" y2="830.3145"/><text fill="#000000" font-family="sans-serif" font-size="13" lengthAdjust="spacing" textLength="140.1626" x="789.6357" y="825.0518">activate() or deactivate()</text><polygon fill="#181818" points="1230.9102,857.6055,1240.9102,861.6055,1230.9102,865.6055,1234.9102,861.6055" style="stroke:#181818;stroke-width:1.0;"/><line style="stroke:#181818;stroke-width:1.0;" x1="782.6357" x2="1236.9102" y1="861.6055" y2="861.6055"/><text fill="#000000" font-family="sans-serif" font-size="13" lengthAdjust="spacing" textLength="85.979" x="789.6357" y="856.3428">save(category)</text><polygon fill="#181818" points="793.6357,888.8965,783.6357,892.8965,793.6357,896.8965,789.6357,892.8965" style="stroke:#181818;stroke-width:1.0;"/><line style="stroke:#181818;stroke-width:1.0;stroke-dasharray:2.0,2.0;" x1="787.6357" x2="1241.9102" y1="892.8965" y2="892.8965"/><text fill="#000000" font-family="sans-serif" font-size="13" lengthAdjust="spacing" textLength="70.8081" x="799.6357" y="887.6338">confirmation</text><polygon fill="#181818" points="567.709,920.1875,557.709,924.1875,567.709,928.1875,563.709,924.1875" style="stroke:#181818;stroke-width:1.0;"/><line style="stroke:#181818;stroke-width:1.0;stroke-dasharray:2.0,2.0;" x1="561.709" x2="781.6357" y1="924.1875" y2="924.1875"/><text fill="#000000" font-family="sans-serif" font-size="13" lengthAdjust="spacing" textLength="46.96" x="573.709" y="918.9248">success</text><polygon fill="#181818" points="306.3721,951.4785,296.3721,955.4785,306.3721,959.4785,302.3721,955.4785" style="stroke:#181818;stroke-width:1.0;"/><line style="stroke:#181818;stroke-width:1.0;stroke-dasharray:2.0,2.0;" x1="300.3721" x2="555.709" y1="955.4785" y2="955.4785"/><text fill="#000000" font-family="sans-serif" font-size="13" lengthAdjust="spacing" textLength="119.2471" x="312.3721" y="950.2158">show updated status</text><polygon fill="#181818" points="81.4688,982.7695,71.4688,986.7695,81.4688,990.7695,77.4688,986.7695" style="stroke:#181818;stroke-width:1.0;"/><line style="stroke:#181818;stroke-width:1.0;" x1="75.4688" x2="294.3721" y1="986.7695" y2="986.7695"/><text fill="#000000" font-family="sans-serif" font-size="13" lengthAdjust="spacing" textLength="80.9199" x="87.4688" y="981.5068">show success</text><!--SRC=[bPJDRjim3CVlUWeYkwI7deSMo83McO40EmJn-W22nDX2LScJv6p6i7SV8zbLbBW3TXF97x_-bknVbUcvus-WbS4mzWZMXSuo_nxekNZbBS9l1l1CvzRPmSZAQklWK_tmzVD3VOvO9z4bxxCcZFrXZ8j0vghfx4_OebUjGRS2xg7PCYeUb50zDm5MtstRQgnLEpYiUC3Mkl5917NYGLdpiej9Bxl_IQgi2SvgFNNCPbcaJ6_GdPJ0D6Cwb_WUdLS-e15uheY_GcJtLOaTiBTUqV9Z7JKO8tMe_zKxvoIOJCOs6_X6_K0aIA67pOQnPWltNqWGU2Jknu1410kYuuO-rCIEu0CFWsU44Pm5e2JXa21suIDYNr74pLDGg_KT8nz53dNEeVFPGrZsBNJGD7NrFZHLAdjDuaxWazO5EqTpewCoaYYAHSVzJOcSipH9qNrMBWRIwAJd8qZbUyt7v3yhdoxO9EErxWrg526BlTikoH1YYNmhrqf-B4M2RwzoJBhLn1vt4arGOOm0rm6C3N0yFqzwaG0NAULGdQC7YSvP5xbodhYTxmhYGgMB26gFrutAEqqyJslW-ex-B20nszUfqrgUdt0zovgWXMykh3agznRrAGjTR-i78T3xcqsBLOTUKaSvFvcbdUSwQEHV]--></g></svg>