<?xml version="1.0" encoding="us-ascii" standalone="no"?><svg xmlns="http://www.w3.org/2000/svg" xmlns:xlink="http://www.w3.org/1999/xlink" contentStyleType="text/css" height="387px" preserveAspectRatio="none" style="width:535px;height:387px;background:#FFFFFF;" version="1.1" viewBox="0 0 535 387" width="535px" zoomAndPan="magnify"><defs/><g><rect fill="#FFFFFF" height="260.0371" style="stroke:#181818;stroke-width:1.0;" width="10" x="142" y="71.9121"/><rect fill="#FFFFFF" height="119.873" style="stroke:#181818;stroke-width:1.0;" width="10" x="346" y="129.4941"/><rect fill="none" height="214.7461" style="stroke:#000000;stroke-width:1.5;" width="449.5" x="79.5" y="86.9121"/><line style="stroke:#181818;stroke-width:0.5;stroke-dasharray:5.0,5.0;" x1="146.5" x2="146.5" y1="38.6211" y2="349.9492"/><line style="stroke:#181818;stroke-width:0.5;stroke-dasharray:5.0,5.0;" x1="351" x2="351" y1="38.6211" y2="349.9492"/><rect fill="#E3E3E3" height="32.6211" rx="2.5" ry="2.5" style="stroke:#181818;stroke-width:0.5;" width="115" x="89.5" y="5"/><text fill="#000000" font-family="sans-serif" font-size="14" lengthAdjust="spacing" textLength="101" x="96.5" y="27.1074">:JobsRepository</text><rect fill="#E3E3E3" height="32.6211" rx="2.5" ry="2.5" style="stroke:#181818;stroke-width:0.5;" width="115" x="89.5" y="348.9492"/><text fill="#000000" font-family="sans-serif" font-size="14" lengthAdjust="spacing" textLength="101" x="96.5" y="371.0566">:JobsRepository</text><rect fill="#E3E3E3" height="32.6211" rx="2.5" ry="2.5" style="stroke:#181818;stroke-width:0.5;" width="40" x="331" y="5"/><text fill="#000000" font-family="sans-serif" font-size="14" lengthAdjust="spacing" textLength="26" x="338" y="27.1074">:Job</text><rect fill="#E3E3E3" height="32.6211" rx="2.5" ry="2.5" style="stroke:#181818;stroke-width:0.5;" width="40" x="331" y="348.9492"/><text fill="#000000" font-family="sans-serif" font-size="14" lengthAdjust="spacing" textLength="26" x="338" y="371.0566">:Job</text><rect fill="#FFFFFF" height="260.0371" style="stroke:#181818;stroke-width:1.0;" width="10" x="142" y="71.9121"/><rect fill="#FFFFFF" height="119.873" style="stroke:#181818;stroke-width:1.0;" width="10" x="346" y="129.4941"/><polygon fill="#181818" points="130,67.9121,140,71.9121,130,75.9121,134,71.9121" style="stroke:#181818;stroke-width:1.0;"/><line style="stroke:#181818;stroke-width:1.0;" x1="0" x2="136" y1="71.9121" y2="71.9121"/><text fill="#000000" font-family="sans-serif" font-size="13" font-weight="bold" lengthAdjust="spacing" textLength="7" x="7" y="66.6494">5</text><text fill="#000000" font-family="sans-serif" font-size="13" lengthAdjust="spacing" textLength="112" x="18" y="66.6494">addJob(description)</text><path d="M79.5,86.9121 L190.5,86.9121 L190.5,96.2031 L180.5,106.2031 L79.5,106.2031 L79.5,86.9121 " fill="#EEEEEE" style="stroke:#000000;stroke-width:1.5;"/><rect fill="none" height="214.7461" style="stroke:#000000;stroke-width:1.5;" width="449.5" x="79.5" y="86.9121"/><text fill="#000000" font-family="sans-serif" font-size="13" font-weight="bold" lengthAdjust="spacing" textLength="66" x="94.5" y="101.9404">Create job</text><polygon fill="#181818" points="334,125.4941,344,129.4941,334,133.4941,338,129.4941" style="stroke:#181818;stroke-width:1.0;"/><line style="stroke:#181818;stroke-width:1.0;" x1="152" x2="340" y1="129.4941" y2="129.4941"/><text fill="#000000" font-family="sans-serif" font-size="13" font-weight="bold" lengthAdjust="spacing" textLength="7" x="159" y="124.2314">6</text><text fill="#000000" font-family="sans-serif" font-size="13" lengthAdjust="spacing" textLength="118" x="170" y="124.2314">new Job(description)</text><line style="stroke:#181818;stroke-width:1.0;" x1="356" x2="398" y1="160.7852" y2="160.7852"/><line style="stroke:#181818;stroke-width:1.0;" x1="398" x2="398" y1="160.7852" y2="173.7852"/><line style="stroke:#181818;stroke-width:1.0;" x1="357" x2="398" y1="173.7852" y2="173.7852"/><polygon fill="#181818" points="367,169.7852,357,173.7852,367,177.7852,363,173.7852" style="stroke:#181818;stroke-width:1.0;"/><text fill="#000000" font-family="sans-serif" font-size="13" font-weight="bold" lengthAdjust="spacing" textLength="7" x="363" y="155.5225">7</text><text fill="#000000" font-family="sans-serif" font-size="13" lengthAdjust="spacing" textLength="68" x="374" y="155.5225">verifyFilled()</text><line style="stroke:#181818;stroke-width:1.0;" x1="356" x2="398" y1="205.0762" y2="205.0762"/><line style="stroke:#181818;stroke-width:1.0;" x1="398" x2="398" y1="205.0762" y2="218.0762"/><line style="stroke:#181818;stroke-width:1.0;" x1="357" x2="398" y1="218.0762" y2="218.0762"/><polygon fill="#181818" points="367,214.0762,357,218.0762,367,222.0762,363,218.0762" style="stroke:#181818;stroke-width:1.0;"/><text fill="#000000" font-family="sans-serif" font-size="13" font-weight="bold" lengthAdjust="spacing" textLength="7" x="363" y="199.8135">8</text><text fill="#000000" font-family="sans-serif" font-size="13" lengthAdjust="spacing" textLength="143" x="374" y="199.8135">verifySpecialCharacters()</text><polygon fill="#181818" points="163,245.3672,153,249.3672,163,253.3672,159,249.3672" style="stroke:#181818;stroke-width:1.0;"/><line style="stroke:#181818;stroke-width:1.0;stroke-dasharray:2.0,2.0;" x1="157" x2="350" y1="249.3672" y2="249.3672"/><text fill="#000000" font-family="sans-serif" font-size="13" font-weight="bold" lengthAdjust="spacing" textLength="7" x="169" y="244.1045">9</text><text fill="#000000" font-family="sans-serif" font-size="13" lengthAdjust="spacing" textLength="17" x="180" y="244.1045">job</text><line style="stroke:#181818;stroke-width:1.0;" x1="152" x2="194" y1="280.6582" y2="280.6582"/><line style="stroke:#181818;stroke-width:1.0;" x1="194" x2="194" y1="280.6582" y2="293.6582"/><line style="stroke:#181818;stroke-width:1.0;" x1="153" x2="194" y1="293.6582" y2="293.6582"/><polygon fill="#181818" points="163,289.6582,153,293.6582,163,297.6582,159,293.6582" style="stroke:#181818;stroke-width:1.0;"/><text fill="#000000" font-family="sans-serif" font-size="13" font-weight="bold" lengthAdjust="spacing" textLength="14" x="159" y="275.3955">10</text><text fill="#000000" font-family="sans-serif" font-size="13" lengthAdjust="spacing" textLength="162" x="177" y="275.3955">jobAlreadyExist(description)</text><polygon fill="#181818" points="11,327.9492,1,331.9492,11,335.9492,7,331.9492" style="stroke:#181818;stroke-width:1.0;"/><line style="stroke:#181818;stroke-width:1.0;stroke-dasharray:2.0,2.0;" x1="5" x2="146" y1="331.9492" y2="331.9492"/><text fill="#000000" font-family="sans-serif" font-size="13" font-weight="bold" lengthAdjust="spacing" textLength="14" x="17" y="326.6865">11</text><text fill="#000000" font-family="sans-serif" font-size="13" lengthAdjust="spacing" textLength="70" x="35" y="326.6865">confirmation</text><!--SRC=[XP7FRi8m3CRlUGgB4nnwtAMQ9areEt249t0Jj_L8uoX9ONtxfGnOIv7cIoJxztt-atXavp5W1vquqMsGZY25dbIyLppg8pPqI8Cb2AGJkiPEWTYYaJEx1cgqaPJ2Fedhkue2l2YLeSIQFRe4gt8dLToJbyX9mh02ZF0brLzcYL-O_2fLlCtP4j2ON5aRYZgmJonkazlhn2TCz60CEPeWlOTje6jPNR9Zp5Z8dR9l2OxEi6XmazpxxAP6O-J4rG9AE57WUlXaQyciD_zn1q-QqMxRV5gTACGiMMeUBv7bupOtnj3psHPBFZ5vj_awPlZuvfYMUvCpltQlHR5GQt4rXmv7N4rccF_33m00]--></g></svg>