<?xml version="1.0" encoding="us-ascii" standalone="no"?><svg xmlns="http://www.w3.org/2000/svg" xmlns:xlink="http://www.w3.org/1999/xlink" contentStyleType="text/css" height="669px" preserveAspectRatio="none" style="width:915px;height:669px;background:#FFFFFF;" version="1.1" viewBox="0 0 915 669" width="915px" zoomAndPan="magnify"><defs/><g><rect fill="#FFFFFF" height="437.7832" style="stroke:#181818;stroke-width:1.0;" width="10" x="57.5" y="112.2422"/><rect fill="#FFFFFF" height="414.4922" style="stroke:#181818;stroke-width:1.0;" width="10" x="250.5" y="135.5332"/><rect fill="#FFFFFF" height="258.0371" style="stroke:#181818;stroke-width:1.0;" width="10" x="405.5" y="229.4063"/><rect fill="#FFFFFF" height="188.4551" style="stroke:#181818;stroke-width:1.0;" width="10" x="545.5" y="260.6973"/><rect fill="#FFFFFF" height="119.873" style="stroke:#181818;stroke-width:1.0;" width="10" x="737.5" y="291.9883"/><line style="stroke:#181818;stroke-width:0.5;stroke-dasharray:5.0,5.0;" x1="62" x2="62" y1="102.2422" y2="568.0254"/><line style="stroke:#181818;stroke-width:0.5;stroke-dasharray:5.0,5.0;" x1="255" x2="255" y1="102.2422" y2="568.0254"/><line style="stroke:#181818;stroke-width:0.5;stroke-dasharray:5.0,5.0;" x1="410" x2="410" y1="102.2422" y2="568.0254"/><line style="stroke:#181818;stroke-width:0.5;stroke-dasharray:5.0,5.0;" x1="550" x2="550" y1="102.2422" y2="568.0254"/><line style="stroke:#181818;stroke-width:0.5;stroke-dasharray:5.0,5.0;" x1="742.5" x2="742.5" y1="102.2422" y2="568.0254"/><text fill="#000000" font-family="sans-serif" font-size="14" lengthAdjust="spacing" textLength="109" x="5" y="80.1074">Human Resource</text><text fill="#000000" font-family="sans-serif" font-size="14" lengthAdjust="spacing" textLength="56" x="31.5" y="98.7285">Manager</text><ellipse cx="62.5" cy="13.5" fill="#E3E3E3" rx="8" ry="8" style="stroke:#181818;stroke-width:0.5;"/><path d="M62.5,21.5 L62.5,48.5 M49.5,29.5 L75.5,29.5 M62.5,48.5 L49.5,63.5 M62.5,48.5 L75.5,63.5 " fill="none" style="stroke:#181818;stroke-width:0.5;"/><text fill="#000000" font-family="sans-serif" font-size="14" lengthAdjust="spacing" textLength="109" x="5" y="582.1328">Human Resource</text><text fill="#000000" font-family="sans-serif" font-size="14" lengthAdjust="spacing" textLength="56" x="31.5" y="600.7539">Manager</text><ellipse cx="62.5" cy="612.7676" fill="#E3E3E3" rx="8" ry="8" style="stroke:#181818;stroke-width:0.5;"/><path d="M62.5,620.7676 L62.5,647.7676 M49.5,628.7676 L75.5,628.7676 M62.5,647.7676 L49.5,662.7676 M62.5,647.7676 L75.5,662.7676 " fill="none" style="stroke:#181818;stroke-width:0.5;"/><rect fill="#E3E3E3" height="32.6211" rx="2.5" ry="2.5" style="stroke:#181818;stroke-width:0.5;" width="95" x="208" y="68.6211"/><text fill="#000000" font-family="sans-serif" font-size="14" lengthAdjust="spacing" textLength="81" x="215" y="90.7285">:CreateJobUI</text><rect fill="#E3E3E3" height="32.6211" rx="2.5" ry="2.5" style="stroke:#181818;stroke-width:0.5;" width="95" x="208" y="567.0254"/><text fill="#000000" font-family="sans-serif" font-size="14" lengthAdjust="spacing" textLength="81" x="215" y="589.1328">:CreateJobUI</text><rect fill="#E3E3E3" height="32.6211" rx="2.5" ry="2.5" style="stroke:#181818;stroke-width:0.5;" width="145" x="338" y="68.6211"/><text fill="#000000" font-family="sans-serif" font-size="14" lengthAdjust="spacing" textLength="131" x="345" y="90.7285">:CreateJobController</text><rect fill="#E3E3E3" height="32.6211" rx="2.5" ry="2.5" style="stroke:#181818;stroke-width:0.5;" width="145" x="338" y="567.0254"/><text fill="#000000" font-family="sans-serif" font-size="14" lengthAdjust="spacing" textLength="131" x="345" y="589.1328">:CreateJobController</text><rect fill="#E3E3E3" height="32.6211" rx="2.5" ry="2.5" style="stroke:#181818;stroke-width:0.5;" width="111" x="495" y="68.6211"/><text fill="#000000" font-family="sans-serif" font-size="14" lengthAdjust="spacing" textLength="97" x="502" y="90.7285">JobsRepository</text><rect fill="#E3E3E3" height="32.6211" rx="2.5" ry="2.5" style="stroke:#181818;stroke-width:0.5;" width="111" x="495" y="567.0254"/><text fill="#000000" font-family="sans-serif" font-size="14" lengthAdjust="spacing" textLength="97" x="502" y="589.1328">JobsRepository</text><rect fill="#E3E3E3" height="32.6211" rx="2.5" ry="2.5" style="stroke:#181818;stroke-width:0.5;" width="36" x="724.5" y="68.6211"/><text fill="#000000" font-family="sans-serif" font-size="14" lengthAdjust="spacing" textLength="22" x="731.5" y="90.7285">Job</text><rect fill="#E3E3E3" height="32.6211" rx="2.5" ry="2.5" style="stroke:#181818;stroke-width:0.5;" width="36" x="724.5" y="567.0254"/><text fill="#000000" font-family="sans-serif" font-size="14" lengthAdjust="spacing" textLength="22" x="731.5" y="589.1328">Job</text><rect fill="#FFFFFF" height="437.7832" style="stroke:#181818;stroke-width:1.0;" width="10" x="57.5" y="112.2422"/><rect fill="#FFFFFF" height="414.4922" style="stroke:#181818;stroke-width:1.0;" width="10" x="250.5" y="135.5332"/><rect fill="#FFFFFF" height="258.0371" style="stroke:#181818;stroke-width:1.0;" width="10" x="405.5" y="229.4063"/><rect fill="#FFFFFF" height="188.4551" style="stroke:#181818;stroke-width:1.0;" width="10" x="545.5" y="260.6973"/><rect fill="#FFFFFF" height="119.873" style="stroke:#181818;stroke-width:1.0;" width="10" x="737.5" y="291.9883"/><polygon fill="#181818" points="238.5,131.5332,248.5,135.5332,238.5,139.5332,242.5,135.5332" style="stroke:#181818;stroke-width:1.0;"/><line style="stroke:#181818;stroke-width:1.0;" x1="67.5" x2="244.5" y1="135.5332" y2="135.5332"/><text fill="#000000" font-family="sans-serif" font-size="13" font-weight="bold" lengthAdjust="spacing" textLength="7" x="74.5" y="130.2705">1</text><text fill="#000000" font-family="sans-serif" font-size="13" lengthAdjust="spacing" textLength="115" x="85.5" y="130.2705">asks to create a job</text><polygon fill="#181818" points="78.5,162.8242,68.5,166.8242,78.5,170.8242,74.5,166.8242" style="stroke:#181818;stroke-width:1.0;"/><line style="stroke:#181818;stroke-width:1.0;stroke-dasharray:2.0,2.0;" x1="72.5" x2="249.5" y1="166.8242" y2="166.8242"/><text fill="#000000" font-family="sans-serif" font-size="13" font-weight="bold" lengthAdjust="spacing" textLength="7" x="84.5" y="161.5615">2</text><text fill="#000000" font-family="sans-serif" font-size="13" lengthAdjust="spacing" textLength="102" x="95.5" y="161.5615">askForJobName()</text><polygon fill="#181818" points="238.5,194.1152,248.5,198.1152,238.5,202.1152,242.5,198.1152" style="stroke:#181818;stroke-width:1.0;"/><line style="stroke:#181818;stroke-width:1.0;" x1="67.5" x2="244.5" y1="198.1152" y2="198.1152"/><text fill="#000000" font-family="sans-serif" font-size="13" font-weight="bold" lengthAdjust="spacing" textLength="7" x="74.5" y="192.8525">3</text><text fill="#000000" font-family="sans-serif" font-size="13" lengthAdjust="spacing" textLength="93" x="85.5" y="192.8525">enters job name</text><polygon fill="#181818" points="393.5,225.4063,403.5,229.4063,393.5,233.4063,397.5,229.4063" style="stroke:#181818;stroke-width:1.0;"/><line style="stroke:#181818;stroke-width:1.0;" x1="260.5" x2="399.5" y1="229.4063" y2="229.4063"/><text fill="#000000" font-family="sans-serif" font-size="13" font-weight="bold" lengthAdjust="spacing" textLength="7" x="267.5" y="224.1436">4</text><text fill="#000000" font-family="sans-serif" font-size="13" lengthAdjust="spacing" textLength="115" x="278.5" y="224.1436">createJob(jobName)</text><polygon fill="#181818" points="533.5,256.6973,543.5,260.6973,533.5,264.6973,537.5,260.6973" style="stroke:#181818;stroke-width:1.0;"/><line style="stroke:#181818;stroke-width:1.0;" x1="415.5" x2="539.5" y1="260.6973" y2="260.6973"/><text fill="#000000" font-family="sans-serif" font-size="13" font-weight="bold" lengthAdjust="spacing" textLength="7" x="422.5" y="255.4346">5</text><text fill="#000000" font-family="sans-serif" font-size="13" lengthAdjust="spacing" textLength="100" x="433.5" y="255.4346">addJob(jobName)</text><polygon fill="#181818" points="725.5,287.9883,735.5,291.9883,725.5,295.9883,729.5,291.9883" style="stroke:#181818;stroke-width:1.0;"/><line style="stroke:#181818;stroke-width:1.0;" x1="555.5" x2="731.5" y1="291.9883" y2="291.9883"/><text fill="#000000" font-family="sans-serif" font-size="13" font-weight="bold" lengthAdjust="spacing" textLength="7" x="562.5" y="286.7256">6</text><text fill="#000000" font-family="sans-serif" font-size="13" lengthAdjust="spacing" textLength="106" x="573.5" y="286.7256">new Job(jobName)</text><line style="stroke:#181818;stroke-width:1.0;" x1="747.5" x2="789.5" y1="323.2793" y2="323.2793"/><line style="stroke:#181818;stroke-width:1.0;" x1="789.5" x2="789.5" y1="323.2793" y2="336.2793"/><line style="stroke:#181818;stroke-width:1.0;" x1="748.5" x2="789.5" y1="336.2793" y2="336.2793"/><polygon fill="#181818" points="758.5,332.2793,748.5,336.2793,758.5,340.2793,754.5,336.2793" style="stroke:#181818;stroke-width:1.0;"/><text fill="#000000" font-family="sans-serif" font-size="13" font-weight="bold" lengthAdjust="spacing" textLength="7" x="754.5" y="318.0166">7</text><text fill="#000000" font-family="sans-serif" font-size="13" lengthAdjust="spacing" textLength="68" x="765.5" y="318.0166">verifyFilled()</text><line style="stroke:#181818;stroke-width:1.0;" x1="747.5" x2="789.5" y1="367.5703" y2="367.5703"/><line style="stroke:#181818;stroke-width:1.0;" x1="789.5" x2="789.5" y1="367.5703" y2="380.5703"/><line style="stroke:#181818;stroke-width:1.0;" x1="748.5" x2="789.5" y1="380.5703" y2="380.5703"/><polygon fill="#181818" points="758.5,376.5703,748.5,380.5703,758.5,384.5703,754.5,380.5703" style="stroke:#181818;stroke-width:1.0;"/><text fill="#000000" font-family="sans-serif" font-size="13" font-weight="bold" lengthAdjust="spacing" textLength="7" x="754.5" y="362.3076">8</text><text fill="#000000" font-family="sans-serif" font-size="13" lengthAdjust="spacing" textLength="143" x="765.5" y="362.3076">verifySpecialCharacters()</text><polygon fill="#181818" points="566.5,407.8613,556.5,411.8613,566.5,415.8613,562.5,411.8613" style="stroke:#181818;stroke-width:1.0;"/><line style="stroke:#181818;stroke-width:1.0;stroke-dasharray:2.0,2.0;" x1="560.5" x2="741.5" y1="411.8613" y2="411.8613"/><text fill="#000000" font-family="sans-serif" font-size="13" font-weight="bold" lengthAdjust="spacing" textLength="7" x="572.5" y="406.5986">9</text><text fill="#000000" font-family="sans-serif" font-size="13" lengthAdjust="spacing" textLength="17" x="583.5" y="406.5986">job</text><line style="stroke:#181818;stroke-width:1.0;" x1="555.5" x2="597.5" y1="448.1523" y2="448.1523"/><line style="stroke:#181818;stroke-width:1.0;" x1="597.5" x2="597.5" y1="448.1523" y2="461.1523"/><line style="stroke:#181818;stroke-width:1.0;" x1="550.5" x2="597.5" y1="461.1523" y2="461.1523"/><polygon fill="#181818" points="560.5,457.1523,550.5,461.1523,560.5,465.1523,556.5,461.1523" style="stroke:#181818;stroke-width:1.0;"/><text fill="#000000" font-family="sans-serif" font-size="13" font-weight="bold" lengthAdjust="spacing" textLength="14" x="562.5" y="442.8896">10</text><text fill="#000000" font-family="sans-serif" font-size="13" lengthAdjust="spacing" textLength="150" x="580.5" y="442.8896">jobAlreadyExist(jobName)</text><polygon fill="#181818" points="421.5,483.4434,411.5,487.4434,421.5,491.4434,417.5,487.4434" style="stroke:#181818;stroke-width:1.0;"/><line style="stroke:#181818;stroke-width:1.0;stroke-dasharray:2.0,2.0;" x1="415.5" x2="549.5" y1="487.4434" y2="487.4434"/><text fill="#000000" font-family="sans-serif" font-size="13" font-weight="bold" lengthAdjust="spacing" textLength="14" x="427.5" y="482.1807">11</text><text fill="#000000" font-family="sans-serif" font-size="13" lengthAdjust="spacing" textLength="70" x="445.5" y="482.1807">confirmation</text><polygon fill="#181818" points="271.5,514.7344,261.5,518.7344,271.5,522.7344,267.5,518.7344" style="stroke:#181818;stroke-width:1.0;"/><line style="stroke:#181818;stroke-width:1.0;stroke-dasharray:2.0,2.0;" x1="265.5" x2="409.5" y1="518.7344" y2="518.7344"/><text fill="#000000" font-family="sans-serif" font-size="13" font-weight="bold" lengthAdjust="spacing" textLength="14" x="277.5" y="513.4717">12</text><text fill="#000000" font-family="sans-serif" font-size="13" lengthAdjust="spacing" textLength="103" x="295.5" y="513.4717">job creation result</text><polygon fill="#181818" points="73.5,546.0254,63.5,550.0254,73.5,554.0254,69.5,550.0254" style="stroke:#181818;stroke-width:1.0;"/><line style="stroke:#181818;stroke-width:1.0;stroke-dasharray:2.0,2.0;" x1="67.5" x2="254.5" y1="550.0254" y2="550.0254"/><text fill="#000000" font-family="sans-serif" font-size="13" font-weight="bold" lengthAdjust="spacing" textLength="14" x="79.5" y="544.7627">13</text><text fill="#000000" font-family="sans-serif" font-size="13" lengthAdjust="spacing" textLength="141" x="97.5" y="544.7627">displays operation result</text><!--SRC=[ZPF1JiCm38RlVGfhft7O2o0q2KqWXe33ncvSlDJRmjAuIbAWRu-JGRjiAyANTUdlptzjn- -rhT5X1HLRLZl75K5m3HM-UrEZskEMbg4r18vKGBirnmA_mv8_jTt21esdei0ci6sgDJbvLe4TZ1wQ2Yqio7FZ5BtPPxJ2T2D03m-Bvq98GIjTemqmkfuvma2Fl5xDas8r7nBCs0R7nloWPg-Bfrmg6h-WchqM7sqIlVEwFpbJ9udy9klwGyeaWmL8o0DCfc87haMrzn0OLB826B47LPSdjjD13CcPI6eafDnxTbBa1IiQNtMYOpxPG2wP1Ikgd3HDNoegzTk8yVk1riCw6waftN6Cb2oGh1FHLrbUH6Mul7sP9aREb2925BIbJnXaP_p7tpwUHWHrl0zoUjFUQnbzERxwhtvPaz9ePZjPN1NxAwd3kHSw58TygYtfR-zd7Ra0lJKooBAz-z8-z3qg1ieCZ22DzMOoEIkWs6wqgp1ejiK5NhyXibmHyBDTSVdIXacUN7tVcD39-cqkjQyDjXwu9fThZsh4ot3qDzwfRm00]--></g></svg>