<?xml version="1.0" encoding="us-ascii" standalone="no"?><svg xmlns="http://www.w3.org/2000/svg" xmlns:xlink="http://www.w3.org/1999/xlink" contentStyleType="text/css" height="570px" preserveAspectRatio="none" style="width:625px;height:570px;background:#FFFFFF;" version="1.1" viewBox="0 0 625 570" width="625px" zoomAndPan="magnify"><defs/><g><rect fill="#FFFFFF" height="338.832" style="stroke:#181818;stroke-width:1.0;" width="10" x="57.5" y="112.2422"/><rect fill="#FFFFFF" height="315.541" style="stroke:#181818;stroke-width:1.0;" width="10" x="243.5" y="135.5332"/><rect fill="#FFFFFF" height="159.0859" style="stroke:#181818;stroke-width:1.0;" width="10" x="398.5" y="229.4063"/><rect fill="#FFFFFF" height="151.125" style="stroke:#181818;stroke-width:1.0;" width="10" x="553.5" y="308.9492"/><line style="stroke:#181818;stroke-width:0.5;stroke-dasharray:5.0,5.0;" x1="62" x2="62" y1="102.2422" y2="469.0742"/><line style="stroke:#181818;stroke-width:0.5;stroke-dasharray:5.0,5.0;" x1="248" x2="248" y1="102.2422" y2="469.0742"/><line style="stroke:#181818;stroke-width:0.5;stroke-dasharray:5.0,5.0;" x1="403" x2="403" y1="102.2422" y2="469.0742"/><line style="stroke:#181818;stroke-width:0.5;stroke-dasharray:5.0,5.0;" x1="558" x2="558" y1="102.2422" y2="469.0742"/><text fill="#000000" font-family="sans-serif" font-size="14" lengthAdjust="spacing" textLength="109" x="5" y="80.1074">Human Resource</text><text fill="#000000" font-family="sans-serif" font-size="14" lengthAdjust="spacing" textLength="56" x="33.5" y="98.7285">Manager</text><ellipse cx="62.5" cy="13.5" fill="#E3E3E3" rx="8" ry="8" style="stroke:#181818;stroke-width:0.5;"/><path d="M62.5,21.5 L62.5,48.5 M49.5,29.5 L75.5,29.5 M62.5,48.5 L49.5,63.5 M62.5,48.5 L75.5,63.5 " fill="none" style="stroke:#181818;stroke-width:0.5;"/><text fill="#000000" font-family="sans-serif" font-size="14" lengthAdjust="spacing" textLength="109" x="5" y="483.1816">Human Resource</text><text fill="#000000" font-family="sans-serif" font-size="14" lengthAdjust="spacing" textLength="56" x="33.5" y="501.8027">Manager</text><ellipse cx="62.5" cy="513.8164" fill="#E3E3E3" rx="8" ry="8" style="stroke:#181818;stroke-width:0.5;"/><path d="M62.5,521.8164 L62.5,548.8164 M49.5,529.8164 L75.5,529.8164 M62.5,548.8164 L49.5,563.8164 M62.5,548.8164 L75.5,563.8164 " fill="none" style="stroke:#181818;stroke-width:0.5;"/><rect fill="#E3E3E3" height="32.6211" rx="2.5" ry="2.5" style="stroke:#181818;stroke-width:0.5;" width="95" x="201" y="68.6211"/><text fill="#000000" font-family="sans-serif" font-size="14" lengthAdjust="spacing" textLength="81" x="208" y="90.7285">:CreateJobUI</text><rect fill="#E3E3E3" height="32.6211" rx="2.5" ry="2.5" style="stroke:#181818;stroke-width:0.5;" width="95" x="201" y="468.0742"/><text fill="#000000" font-family="sans-serif" font-size="14" lengthAdjust="spacing" textLength="81" x="208" y="490.1816">:CreateJobUI</text><rect fill="#E3E3E3" height="32.6211" rx="2.5" ry="2.5" style="stroke:#181818;stroke-width:0.5;" width="145" x="331" y="68.6211"/><text fill="#000000" font-family="sans-serif" font-size="14" lengthAdjust="spacing" textLength="131" x="338" y="90.7285">:CreateJobController</text><rect fill="#E3E3E3" height="32.6211" rx="2.5" ry="2.5" style="stroke:#181818;stroke-width:0.5;" width="145" x="331" y="468.0742"/><text fill="#000000" font-family="sans-serif" font-size="14" lengthAdjust="spacing" textLength="131" x="338" y="490.1816">:CreateJobController</text><rect fill="#E3E3E3" height="32.6211" rx="2.5" ry="2.5" style="stroke:#181818;stroke-width:0.5;" width="115" x="501" y="68.6211"/><text fill="#000000" font-family="sans-serif" font-size="14" lengthAdjust="spacing" textLength="101" x="508" y="90.7285">:JobsRepository</text><rect fill="#E3E3E3" height="32.6211" rx="2.5" ry="2.5" style="stroke:#181818;stroke-width:0.5;" width="115" x="501" y="468.0742"/><text fill="#000000" font-family="sans-serif" font-size="14" lengthAdjust="spacing" textLength="101" x="508" y="490.1816">:JobsRepository</text><rect fill="#FFFFFF" height="338.832" style="stroke:#181818;stroke-width:1.0;" width="10" x="57.5" y="112.2422"/><rect fill="#FFFFFF" height="315.541" style="stroke:#181818;stroke-width:1.0;" width="10" x="243.5" y="135.5332"/><rect fill="#FFFFFF" height="159.0859" style="stroke:#181818;stroke-width:1.0;" width="10" x="398.5" y="229.4063"/><rect fill="#FFFFFF" height="151.125" style="stroke:#181818;stroke-width:1.0;" width="10" x="553.5" y="308.9492"/><polygon fill="#181818" points="231.5,131.5332,241.5,135.5332,231.5,139.5332,235.5,135.5332" style="stroke:#181818;stroke-width:1.0;"/><line style="stroke:#181818;stroke-width:1.0;" x1="67.5" x2="237.5" y1="135.5332" y2="135.5332"/><text fill="#000000" font-family="sans-serif" font-size="13" font-weight="bold" lengthAdjust="spacing" textLength="7" x="74.5" y="130.2705">1</text><text fill="#000000" font-family="sans-serif" font-size="13" lengthAdjust="spacing" textLength="115" x="85.5" y="130.2705">asks to create a job</text><polygon fill="#181818" points="78.5,162.8242,68.5,166.8242,78.5,170.8242,74.5,166.8242" style="stroke:#181818;stroke-width:1.0;"/><line style="stroke:#181818;stroke-width:1.0;" x1="72.5" x2="242.5" y1="166.8242" y2="166.8242"/><text fill="#000000" font-family="sans-serif" font-size="13" font-weight="bold" lengthAdjust="spacing" textLength="7" x="84.5" y="161.5615">2</text><text fill="#000000" font-family="sans-serif" font-size="13" lengthAdjust="spacing" textLength="102" x="95.5" y="161.5615">askForJobName()</text><polygon fill="#181818" points="231.5,194.1152,241.5,198.1152,231.5,202.1152,235.5,198.1152" style="stroke:#181818;stroke-width:1.0;"/><line style="stroke:#181818;stroke-width:1.0;" x1="67.5" x2="237.5" y1="198.1152" y2="198.1152"/><text fill="#000000" font-family="sans-serif" font-size="13" font-weight="bold" lengthAdjust="spacing" textLength="7" x="74.5" y="192.8525">3</text><text fill="#000000" font-family="sans-serif" font-size="13" lengthAdjust="spacing" textLength="93" x="85.5" y="192.8525">enters job name</text><polygon fill="#181818" points="386.5,225.4063,396.5,229.4063,386.5,233.4063,390.5,229.4063" style="stroke:#181818;stroke-width:1.0;"/><line style="stroke:#181818;stroke-width:1.0;" x1="253.5" x2="392.5" y1="229.4063" y2="229.4063"/><text fill="#000000" font-family="sans-serif" font-size="13" font-weight="bold" lengthAdjust="spacing" textLength="7" x="260.5" y="224.1436">4</text><text fill="#000000" font-family="sans-serif" font-size="13" lengthAdjust="spacing" textLength="115" x="271.5" y="224.1436">createJob(jobName)</text><rect fill="none" height="43.252" style="stroke:#000000;stroke-width:1.5;" width="151" x="328" y="237.4063"/><path d="M328,237.4063 L390,237.4063 L390,246.4063 L380,256.4063 L328,256.4063 L328,237.4063 " fill="#EEEEEE" style="stroke:#000000;stroke-width:2.0;"/><text fill="#000000" font-family="sans-serif" font-size="13" font-weight="bold" lengthAdjust="spacing" textLength="17" x="341" y="253.4346">ref</text><text fill="#000000" font-family="sans-serif" font-size="12" lengthAdjust="spacing" textLength="104" x="351.5" y="273.3555">Get Job Repository</text><polygon fill="#181818" points="541.5,304.9492,551.5,308.9492,541.5,312.9492,545.5,308.9492" style="stroke:#181818;stroke-width:1.0;"/><line style="stroke:#181818;stroke-width:1.0;" x1="408.5" x2="547.5" y1="308.9492" y2="308.9492"/><text fill="#000000" font-family="sans-serif" font-size="13" font-weight="bold" lengthAdjust="spacing" textLength="7" x="415.5" y="303.6865">5</text><text fill="#000000" font-family="sans-serif" font-size="13" lengthAdjust="spacing" textLength="115" x="426.5" y="303.6865">createJob(jobName)</text><rect fill="none" height="43.252" style="stroke:#000000;stroke-width:1.5;" width="121" x="498" y="316.9492"/><path d="M498,316.9492 L560,316.9492 L560,325.9492 L550,335.9492 L498,335.9492 L498,316.9492 " fill="#EEEEEE" style="stroke:#000000;stroke-width:2.0;"/><text fill="#000000" font-family="sans-serif" font-size="13" font-weight="bold" lengthAdjust="spacing" textLength="17" x="511" y="332.9775">ref</text><text fill="#000000" font-family="sans-serif" font-size="12" lengthAdjust="spacing" textLength="60" x="528.5" y="352.8984">Create Job</text><polygon fill="#181818" points="414.5,384.4922,404.5,388.4922,414.5,392.4922,410.5,388.4922" style="stroke:#181818;stroke-width:1.0;"/><line style="stroke:#181818;stroke-width:1.0;stroke-dasharray:2.0,2.0;" x1="408.5" x2="552.5" y1="388.4922" y2="388.4922"/><text fill="#000000" font-family="sans-serif" font-size="13" font-weight="bold" lengthAdjust="spacing" textLength="7" x="420.5" y="383.2295">6</text><text fill="#000000" font-family="sans-serif" font-size="13" lengthAdjust="spacing" textLength="103" x="431.5" y="383.2295">job creation result</text><polygon fill="#181818" points="264.5,415.7832,254.5,419.7832,264.5,423.7832,260.5,419.7832" style="stroke:#181818;stroke-width:1.0;"/><line style="stroke:#181818;stroke-width:1.0;stroke-dasharray:2.0,2.0;" x1="258.5" x2="402.5" y1="419.7832" y2="419.7832"/><text fill="#000000" font-family="sans-serif" font-size="13" font-weight="bold" lengthAdjust="spacing" textLength="7" x="270.5" y="414.5205">7</text><text fill="#000000" font-family="sans-serif" font-size="13" lengthAdjust="spacing" textLength="103" x="281.5" y="414.5205">job creation result</text><polygon fill="#181818" points="73.5,447.0742,63.5,451.0742,73.5,455.0742,69.5,451.0742" style="stroke:#181818;stroke-width:1.0;"/><line style="stroke:#181818;stroke-width:1.0;" x1="67.5" x2="247.5" y1="451.0742" y2="451.0742"/><text fill="#000000" font-family="sans-serif" font-size="13" font-weight="bold" lengthAdjust="spacing" textLength="7" x="79.5" y="445.8115">8</text><text fill="#000000" font-family="sans-serif" font-size="13" lengthAdjust="spacing" textLength="141" x="90.5" y="445.8115">displays operation result</text><!--SRC=[VPAnSi8m38RtF8MEYGwyGA_NXRiMkD8XBLiNuGWm95PETkZnzfKD3KaAzUHO___hinn_iAv6mGegTcnsmXL1a8OotrPgD0VSqaSubGH29g3Rbbs1ts71tzPjOOEbfop39h1hgZM9xarWWT6igT11JfuRCVJbO8bEGsK4w66MBpED2jRO6bs0qUDK20CjUBsQ9yLgVaymPHU4o_8IDVtCtmPI5VcSQlPMIKv9jUVrzIGnsgF69P0CTEa69i_Q5XvLV_0G64ng2HZTITJQb2uTnAKMDKP_ShwmQFzth6Zyq6gwwUG2II82fwfXKBoFgiplTSVxSzerhAL8Ls-FunBQ01z9pgLkvPK2Q1fqfj0jaokYkP-MK1IfDxp_sNfyWw7V1ErhUjtFqrzSPd-ND54-JIP_CEE44wfbfnRVbA4r5NHZYle0CUVo0hVisV312-lh4ayUk2RfIpijz7VfVCL_xWS0]--></g></svg>