<?xml version="1.0" encoding="us-ascii" standalone="no"?><svg xmlns="http://www.w3.org/2000/svg" xmlns:xlink="http://www.w3.org/1999/xlink" contentStyleType="text/css" height="633px" preserveAspectRatio="none" style="width:759px;height:633px;background:#FFFFFF;" version="1.1" viewBox="0 0 759 633" width="759px" zoomAndPan="magnify"><defs/><g><!--class CreateJobUI--><g id="elem_CreateJobUI"><rect codeLine="5" fill="#F1F1F1" height="159.7266" id="CreateJobUI" rx="2.5" ry="2.5" style="stroke:#181818;stroke-width:0.5;" width="220" x="26" y="7"/><ellipse cx="93.25" cy="23" fill="#ADD1B2" rx="11" ry="11" style="stroke:#181818;stroke-width:1.0;"/><path d="M96.0156,18.875 Q96.1719,18.6563 96.3594,18.5469 Q96.5469,18.4375 96.7656,18.4375 Q97.1406,18.4375 97.375,18.7031 Q97.6094,18.9531 97.6094,19.5625 L97.6094,21.0156 Q97.6094,21.625 97.375,21.8906 Q97.1406,22.1563 96.7656,22.1563 Q96.4219,22.1563 96.2188,21.9531 Q96.0156,21.7656 95.9063,21.25 Q95.8594,20.8906 95.6719,20.7031 Q95.3438,20.3281 94.7344,20.1094 Q94.125,19.8906 93.5,19.8906 Q92.7344,19.8906 92.0938,20.2188 Q91.4688,20.5469 90.9688,21.2969 Q90.4844,22.0469 90.4844,23.0781 L90.4844,24.1719 Q90.4844,25.4063 91.375,26.2344 Q92.2656,27.0469 93.8594,27.0469 Q94.7969,27.0469 95.4531,26.7969 Q95.8438,26.6406 96.2656,26.2031 Q96.5313,25.9375 96.6719,25.8594 Q96.8281,25.7813 97.0313,25.7813 Q97.3594,25.7813 97.6094,26.0469 Q97.875,26.2969 97.875,26.6406 Q97.875,26.9844 97.5313,27.3906 Q97.0313,27.9688 96.2344,28.2969 Q95.1563,28.75 93.8594,28.75 Q92.3438,28.75 91.1406,28.125 Q90.1563,27.625 89.4688,26.5625 Q88.7813,25.4844 88.7813,24.2031 L88.7813,23.0469 Q88.7813,21.7188 89.3906,20.5781 Q90.0156,19.4219 91.1094,18.8125 Q92.2031,18.1875 93.4375,18.1875 Q94.1719,18.1875 94.8125,18.3594 Q95.4688,18.5156 96.0156,18.875 Z " fill="#000000"/><text fill="#000000" font-family="sans-serif" font-size="14" lengthAdjust="spacing" textLength="77" x="113.75" y="28.7969">CreateJobUI</text><line style="stroke:#181818;stroke-width:0.5;" x1="27" x2="245" y1="39" y2="39"/><rect fill="none" height="6" style="stroke:#C82930;stroke-width:1.0;" width="6" x="34" y="50.8105"/><text fill="#000000" font-family="sans-serif" font-size="14" lengthAdjust="spacing" textLength="100" x="46" y="58.1074">jobName: String</text><rect fill="none" height="6" style="stroke:#C82930;stroke-width:1.0;" width="6" x="34" y="69.4316"/><text fill="#000000" font-family="sans-serif" font-size="14" lengthAdjust="spacing" textLength="194" x="46" y="76.7285">controller: CreateJobController</text><line style="stroke:#181818;stroke-width:0.5;" x1="27" x2="245" y1="84.2422" y2="84.2422"/><ellipse cx="37" cy="99.0527" fill="#84BE84" rx="3" ry="3" style="stroke:#038048;stroke-width:1.0;"/><text fill="#000000" font-family="sans-serif" font-size="14" lengthAdjust="spacing" textLength="87" x="46" y="103.3496">CreateJobUI()</text><ellipse cx="37" cy="117.6738" fill="#84BE84" rx="3" ry="3" style="stroke:#038048;stroke-width:1.0;"/><text fill="#000000" font-family="sans-serif" font-size="14" lengthAdjust="spacing" textLength="146" x="46" y="121.9707">askForJobName(): void</text><ellipse cx="37" cy="136.2949" fill="#84BE84" rx="3" ry="3" style="stroke:#038048;stroke-width:1.0;"/><text fill="#000000" font-family="sans-serif" font-size="14" lengthAdjust="spacing" textLength="133" x="46" y="140.5918">backToHRMUI(): void</text><ellipse cx="37" cy="154.916" fill="#84BE84" rx="3" ry="3" style="stroke:#038048;stroke-width:1.0;"/><text fill="#000000" font-family="sans-serif" font-size="14" lengthAdjust="spacing" textLength="65" x="46" y="159.2129">run(): void</text></g><!--class CreateJobController--><g id="elem_CreateJobController"><rect codeLine="16" fill="#F1F1F1" height="122.4844" id="CreateJobController" rx="2.5" ry="2.5" style="stroke:#181818;stroke-width:0.5;" width="258" x="7" y="247"/><ellipse cx="68.25" cy="263" fill="#ADD1B2" rx="11" ry="11" style="stroke:#181818;stroke-width:1.0;"/><path d="M71.0156,258.875 Q71.1719,258.6563 71.3594,258.5469 Q71.5469,258.4375 71.7656,258.4375 Q72.1406,258.4375 72.375,258.7031 Q72.6094,258.9531 72.6094,259.5625 L72.6094,261.0156 Q72.6094,261.625 72.375,261.8906 Q72.1406,262.1563 71.7656,262.1563 Q71.4219,262.1563 71.2188,261.9531 Q71.0156,261.7656 70.9063,261.25 Q70.8594,260.8906 70.6719,260.7031 Q70.3438,260.3281 69.7344,260.1094 Q69.125,259.8906 68.5,259.8906 Q67.7344,259.8906 67.0938,260.2188 Q66.4688,260.5469 65.9688,261.2969 Q65.4844,262.0469 65.4844,263.0781 L65.4844,264.1719 Q65.4844,265.4063 66.375,266.2344 Q67.2656,267.0469 68.8594,267.0469 Q69.7969,267.0469 70.4531,266.7969 Q70.8438,266.6406 71.2656,266.2031 Q71.5313,265.9375 71.6719,265.8594 Q71.8281,265.7813 72.0313,265.7813 Q72.3594,265.7813 72.6094,266.0469 Q72.875,266.2969 72.875,266.6406 Q72.875,266.9844 72.5313,267.3906 Q72.0313,267.9688 71.2344,268.2969 Q70.1563,268.75 68.8594,268.75 Q67.3438,268.75 66.1406,268.125 Q65.1563,267.625 64.4688,266.5625 Q63.7813,265.4844 63.7813,264.2031 L63.7813,263.0469 Q63.7813,261.7188 64.3906,260.5781 Q65.0156,259.4219 66.1094,258.8125 Q67.2031,258.1875 68.4375,258.1875 Q69.1719,258.1875 69.8125,258.3594 Q70.4688,258.5156 71.0156,258.875 Z " fill="#000000"/><text fill="#000000" font-family="sans-serif" font-size="14" lengthAdjust="spacing" textLength="127" x="88.75" y="268.7969">CreateJobController</text><line style="stroke:#181818;stroke-width:0.5;" x1="8" x2="264" y1="279" y2="279"/><rect fill="none" height="6" style="stroke:#C82930;stroke-width:1.0;" width="6" x="15" y="290.8105"/><text fill="#000000" font-family="sans-serif" font-size="14" lengthAdjust="spacing" textLength="199" x="27" y="298.1074">jobsRepository: JobsRepository</text><line style="stroke:#181818;stroke-width:0.5;" x1="8" x2="264" y1="305.6211" y2="305.6211"/><ellipse cx="18" cy="320.4316" fill="#84BE84" rx="3" ry="3" style="stroke:#038048;stroke-width:1.0;"/><text fill="#000000" font-family="sans-serif" font-size="14" lengthAdjust="spacing" textLength="137" x="27" y="324.7285">CreateJobController()</text><rect fill="#F24D5C" height="6" style="stroke:#C82930;stroke-width:1.0;" width="6" x="15" y="336.0527"/><text fill="#000000" font-family="sans-serif" font-size="14" lengthAdjust="spacing" textLength="232" x="27" y="343.3496">getJobsRepository(): JobsRepository</text><ellipse cx="18" cy="357.6738" fill="#84BE84" rx="3" ry="3" style="stroke:#038048;stroke-width:1.0;"/><text fill="#000000" font-family="sans-serif" font-size="14" lengthAdjust="spacing" textLength="231" x="27" y="361.9707">createJob(jobName: String): boolean</text></g><!--class Repositories--><g id="elem_Repositories"><rect codeLine="23" fill="#F1F1F1" height="159.7266" id="Repositories" rx="2.5" ry="2.5" style="stroke:#181818;stroke-width:0.5;" width="349" x="300.5" y="228"/><ellipse cx="431.25" cy="244" fill="#ADD1B2" rx="11" ry="11" style="stroke:#181818;stroke-width:1.0;"/><path d="M434.0156,239.875 Q434.1719,239.6563 434.3594,239.5469 Q434.5469,239.4375 434.7656,239.4375 Q435.1406,239.4375 435.375,239.7031 Q435.6094,239.9531 435.6094,240.5625 L435.6094,242.0156 Q435.6094,242.625 435.375,242.8906 Q435.1406,243.1563 434.7656,243.1563 Q434.4219,243.1563 434.2188,242.9531 Q434.0156,242.7656 433.9063,242.25 Q433.8594,241.8906 433.6719,241.7031 Q433.3438,241.3281 432.7344,241.1094 Q432.125,240.8906 431.5,240.8906 Q430.7344,240.8906 430.0938,241.2188 Q429.4688,241.5469 428.9688,242.2969 Q428.4844,243.0469 428.4844,244.0781 L428.4844,245.1719 Q428.4844,246.4063 429.375,247.2344 Q430.2656,248.0469 431.8594,248.0469 Q432.7969,248.0469 433.4531,247.7969 Q433.8438,247.6406 434.2656,247.2031 Q434.5313,246.9375 434.6719,246.8594 Q434.8281,246.7813 435.0313,246.7813 Q435.3594,246.7813 435.6094,247.0469 Q435.875,247.2969 435.875,247.6406 Q435.875,247.9844 435.5313,248.3906 Q435.0313,248.9688 434.2344,249.2969 Q433.1563,249.75 431.8594,249.75 Q430.3438,249.75 429.1406,249.125 Q428.1563,248.625 427.4688,247.5625 Q426.7813,246.4844 426.7813,245.2031 L426.7813,244.0469 Q426.7813,242.7188 427.3906,241.5781 Q428.0156,240.4219 429.1094,239.8125 Q430.2031,239.1875 431.4375,239.1875 Q432.1719,239.1875 432.8125,239.3594 Q433.4688,239.5156 434.0156,239.875 Z " fill="#000000"/><text fill="#000000" font-family="sans-serif" font-size="14" lengthAdjust="spacing" textLength="79" x="451.75" y="249.7969">Repositories</text><line style="stroke:#181818;stroke-width:0.5;" x1="301.5" x2="648.5" y1="260" y2="260"/><rect fill="none" height="6" style="stroke:#C82930;stroke-width:1.0;" width="6" x="308.5" y="271.8105"/><text fill="#000000" font-family="sans-serif" font-size="14" lengthAdjust="spacing" textLength="140" x="320.5" y="279.1074">instance: Repositories</text><rect fill="none" height="6" style="stroke:#C82930;stroke-width:1.0;" width="6" x="308.5" y="290.4316"/><text fill="#000000" font-family="sans-serif" font-size="14" lengthAdjust="spacing" textLength="199" x="320.5" y="297.7285">jobsRepository: JobsRepository</text><rect fill="none" height="6" style="stroke:#C82930;stroke-width:1.0;" width="6" x="308.5" y="309.0527"/><text fill="#000000" font-family="sans-serif" font-size="14" lengthAdjust="spacing" textLength="323" x="320.5" y="316.3496">authenticationRepository: AuthenticationRepository</text><line style="stroke:#181818;stroke-width:0.5;" x1="301.5" x2="648.5" y1="323.8633" y2="323.8633"/><ellipse cx="311.5" cy="338.6738" fill="#84BE84" rx="3" ry="3" style="stroke:#038048;stroke-width:1.0;"/><text fill="#000000" font-family="sans-serif" font-size="14" lengthAdjust="spacing" textLength="89" x="320.5" y="342.9707">Repositories()</text><ellipse cx="311.5" cy="357.2949" fill="#84BE84" rx="3" ry="3" style="stroke:#038048;stroke-width:1.0;"/><text fill="#000000" font-family="sans-serif" font-size="14" lengthAdjust="spacing" textLength="170" x="320.5" y="361.5918">getInstance(): Repositories</text><ellipse cx="311.5" cy="375.916" fill="#84BE84" rx="3" ry="3" style="stroke:#038048;stroke-width:1.0;"/><text fill="#000000" font-family="sans-serif" font-size="14" lengthAdjust="spacing" textLength="232" x="320.5" y="380.2129">getJobsRepository(): JobsRepository</text></g><!--class JobsRepository--><g id="elem_JobsRepository"><rect codeLine="32" fill="#F1F1F1" height="141.1055" id="JobsRepository" rx="2.5" ry="2.5" style="stroke:#181818;stroke-width:0.5;" width="291" x="159.5" y="476.5"/><ellipse cx="252.25" cy="492.5" fill="#ADD1B2" rx="11" ry="11" style="stroke:#181818;stroke-width:1.0;"/><path d="M255.0156,488.375 Q255.1719,488.1563 255.3594,488.0469 Q255.5469,487.9375 255.7656,487.9375 Q256.1406,487.9375 256.375,488.2031 Q256.6094,488.4531 256.6094,489.0625 L256.6094,490.5156 Q256.6094,491.125 256.375,491.3906 Q256.1406,491.6563 255.7656,491.6563 Q255.4219,491.6563 255.2188,491.4531 Q255.0156,491.2656 254.9063,490.75 Q254.8594,490.3906 254.6719,490.2031 Q254.3438,489.8281 253.7344,489.6094 Q253.125,489.3906 252.5,489.3906 Q251.7344,489.3906 251.0938,489.7188 Q250.4688,490.0469 249.9688,490.7969 Q249.4844,491.5469 249.4844,492.5781 L249.4844,493.6719 Q249.4844,494.9063 250.375,495.7344 Q251.2656,496.5469 252.8594,496.5469 Q253.7969,496.5469 254.4531,496.2969 Q254.8438,496.1406 255.2656,495.7031 Q255.5313,495.4375 255.6719,495.3594 Q255.8281,495.2813 256.0313,495.2813 Q256.3594,495.2813 256.6094,495.5469 Q256.875,495.7969 256.875,496.1406 Q256.875,496.4844 256.5313,496.8906 Q256.0313,497.4688 255.2344,497.7969 Q254.1563,498.25 252.8594,498.25 Q251.3438,498.25 250.1406,497.625 Q249.1563,497.125 248.4688,496.0625 Q247.7813,494.9844 247.7813,493.7031 L247.7813,492.5469 Q247.7813,491.2188 248.3906,490.0781 Q249.0156,488.9219 250.1094,488.3125 Q251.2031,487.6875 252.4375,487.6875 Q253.1719,487.6875 253.8125,487.8594 Q254.4688,488.0156 255.0156,488.375 Z " fill="#000000"/><text fill="#000000" font-family="sans-serif" font-size="14" lengthAdjust="spacing" textLength="97" x="272.75" y="498.2969">JobsRepository</text><line style="stroke:#181818;stroke-width:0.5;" x1="160.5" x2="449.5" y1="508.5" y2="508.5"/><rect fill="none" height="6" style="stroke:#C82930;stroke-width:1.0;" width="6" x="167.5" y="520.3105"/><text fill="#000000" font-family="sans-serif" font-size="14" lengthAdjust="spacing" textLength="184" x="179.5" y="527.6074">jobsArrayList: ArrayList&lt;Job&gt;</text><line style="stroke:#181818;stroke-width:0.5;" x1="160.5" x2="449.5" y1="535.1211" y2="535.1211"/><ellipse cx="170.5" cy="549.9316" fill="#84BE84" rx="3" ry="3" style="stroke:#038048;stroke-width:1.0;"/><text fill="#000000" font-family="sans-serif" font-size="14" lengthAdjust="spacing" textLength="217" x="179.5" y="554.2285">getJobsArrayList(): ArrayList&lt;Job&gt;</text><rect fill="#F24D5C" height="6" style="stroke:#C82930;stroke-width:1.0;" width="6" x="167.5" y="565.5527"/><text fill="#000000" font-family="sans-serif" font-size="14" lengthAdjust="spacing" textLength="265" x="179.5" y="572.8496">jobAlreadyExist(jobName: String): boolean</text><rect fill="#F24D5C" height="6" style="stroke:#C82930;stroke-width:1.0;" width="6" x="167.5" y="584.1738"/><text fill="#000000" font-family="sans-serif" font-size="14" lengthAdjust="spacing" textLength="265" x="179.5" y="591.4707">jobNameIsValid(jobName: String): boolean</text><ellipse cx="170.5" cy="605.7949" fill="#84BE84" rx="3" ry="3" style="stroke:#038048;stroke-width:1.0;"/><text fill="#000000" font-family="sans-serif" font-size="14" lengthAdjust="spacing" textLength="190" x="179.5" y="610.0918">addJob(jobName: String): void</text></g><!--class Job--><g id="elem_Job"><rect codeLine="40" fill="#F1F1F1" height="159.7266" id="Job" rx="2.5" ry="2.5" style="stroke:#181818;stroke-width:0.5;" width="244" x="508" y="467"/><ellipse cx="614.75" cy="483" fill="#ADD1B2" rx="11" ry="11" style="stroke:#181818;stroke-width:1.0;"/><path d="M617.5156,478.875 Q617.6719,478.6563 617.8594,478.5469 Q618.0469,478.4375 618.2656,478.4375 Q618.6406,478.4375 618.875,478.7031 Q619.1094,478.9531 619.1094,479.5625 L619.1094,481.0156 Q619.1094,481.625 618.875,481.8906 Q618.6406,482.1563 618.2656,482.1563 Q617.9219,482.1563 617.7188,481.9531 Q617.5156,481.7656 617.4063,481.25 Q617.3594,480.8906 617.1719,480.7031 Q616.8438,480.3281 616.2344,480.1094 Q615.625,479.8906 615,479.8906 Q614.2344,479.8906 613.5938,480.2188 Q612.9688,480.5469 612.4688,481.2969 Q611.9844,482.0469 611.9844,483.0781 L611.9844,484.1719 Q611.9844,485.4063 612.875,486.2344 Q613.7656,487.0469 615.3594,487.0469 Q616.2969,487.0469 616.9531,486.7969 Q617.3438,486.6406 617.7656,486.2031 Q618.0313,485.9375 618.1719,485.8594 Q618.3281,485.7813 618.5313,485.7813 Q618.8594,485.7813 619.1094,486.0469 Q619.375,486.2969 619.375,486.6406 Q619.375,486.9844 619.0313,487.3906 Q618.5313,487.9688 617.7344,488.2969 Q616.6563,488.75 615.3594,488.75 Q613.8438,488.75 612.6406,488.125 Q611.6563,487.625 610.9688,486.5625 Q610.2813,485.4844 610.2813,484.2031 L610.2813,483.0469 Q610.2813,481.7188 610.8906,480.5781 Q611.5156,479.4219 612.6094,478.8125 Q613.7031,478.1875 614.9375,478.1875 Q615.6719,478.1875 616.3125,478.3594 Q616.9688,478.5156 617.5156,478.875 Z " fill="#000000"/><text fill="#000000" font-family="sans-serif" font-size="14" lengthAdjust="spacing" textLength="22" x="635.25" y="488.7969">Job</text><line style="stroke:#181818;stroke-width:0.5;" x1="509" x2="751" y1="499" y2="499"/><rect fill="none" height="6" style="stroke:#C82930;stroke-width:1.0;" width="6" x="516" y="510.8105"/><text fill="#000000" font-family="sans-serif" font-size="14" lengthAdjust="spacing" textLength="100" x="528" y="518.1074">jobName: String</text><line style="stroke:#181818;stroke-width:0.5;" x1="509" x2="751" y1="525.6211" y2="525.6211"/><ellipse cx="519" cy="540.4316" fill="#84BE84" rx="3" ry="3" style="stroke:#038048;stroke-width:1.0;"/><text fill="#000000" font-family="sans-serif" font-size="14" lengthAdjust="spacing" textLength="132" x="528" y="544.7285">Job(jobName: String)</text><ellipse cx="519" cy="559.0527" fill="#84BE84" rx="3" ry="3" style="stroke:#038048;stroke-width:1.0;"/><text fill="#000000" font-family="sans-serif" font-size="14" lengthAdjust="spacing" textLength="130" x="528" y="563.3496">getjobName(): String</text><ellipse cx="519" cy="577.6738" fill="#84BE84" rx="3" ry="3" style="stroke:#038048;stroke-width:1.0;"/><text fill="#000000" font-family="sans-serif" font-size="14" lengthAdjust="spacing" textLength="218" x="528" y="581.9707">setjobName(jobName: String): void</text><ellipse cx="519" cy="596.2949" fill="#84BE84" rx="3" ry="3" style="stroke:#038048;stroke-width:1.0;"/><text fill="#000000" font-family="sans-serif" font-size="14" lengthAdjust="spacing" textLength="211" x="528" y="600.5918">equals(jobName: String): boolean</text><ellipse cx="519" cy="614.916" fill="#84BE84" rx="3" ry="3" style="stroke:#038048;stroke-width:1.0;"/><text fill="#000000" font-family="sans-serif" font-size="14" lengthAdjust="spacing" textLength="104" x="528" y="619.2129">toString(): String</text></g><!--link CreateJobUI to CreateJobController--><g id="link_CreateJobUI_CreateJobController"><path codeLine="49" d="M136,167.06 C136,193.41 136,216.3 136,240.96 " fill="none" id="CreateJobUI-to-CreateJobController" style="stroke:#181818;stroke-width:1.0;stroke-dasharray:7.0,7.0;"/><polygon fill="#181818" points="136,246.96,140,237.96,136,241.96,132,237.96,136,246.96" style="stroke:#181818;stroke-width:1.0;"/></g><!--link Repositories to JobsRepository--><g id="link_Repositories_JobsRepository"><path codeLine="50" d="M418.16,388.25 C397.69,416.77 378.2779,443.8451 358.4379,471.4951 " fill="none" id="Repositories-to-JobsRepository" style="stroke:#181818;stroke-width:1.0;"/><polygon fill="#181818" points="354.94,476.37,363.4368,471.3896,357.8549,472.3076,356.937,466.7257,354.94,476.37" style="stroke:#181818;stroke-width:1.0;"/><text fill="#000000" font-family="sans-serif" font-size="13" lengthAdjust="spacing" textLength="67" x="396" y="433.0283">implements</text><text fill="#000000" font-family="sans-serif" font-size="13" lengthAdjust="spacing" textLength="7" x="352.7291" y="465.2476">1</text></g><!--link Repositories to Repositories--><g id="link_Repositories_Repositories"><path codeLine="51" d="M649.58,290.22 C670.69,293.42 684.5,299.35 684.5,308 C684.5,316.65 676.6222,321.6808 655.5122,324.8808 " fill="none" id="Repositories-to-Repositories" style="stroke:#181818;stroke-width:1.0;"/><polygon fill="#181818" points="649.58,325.78,659.0778,328.3859,654.5235,325.0306,657.8788,320.4763,649.58,325.78" style="stroke:#181818;stroke-width:1.0;"/><text fill="#000000" font-family="sans-serif" font-size="13" lengthAdjust="spacing" textLength="49" x="690.5" y="313.5283">instance</text></g><!--link JobsRepository to Job--><g id="link_JobsRepository_Job"><path codeLine="52" d="M450.86,547 C469.93,547 483.31,547 501.93,547 " fill="none" id="JobsRepository-to-Job" style="stroke:#181818;stroke-width:1.0;"/><polygon fill="#181818" points="507.93,547,498.93,543,502.93,547,498.93,551,507.93,547" style="stroke:#181818;stroke-width:1.0;"/><text fill="#000000" font-family="sans-serif" font-size="13" lengthAdjust="spacing" textLength="21" x="468.75" y="540.0283">has</text><text fill="#000000" font-family="sans-serif" font-size="13" lengthAdjust="spacing" textLength="5" x="494.9497" y="543.5019">*</text></g><!--link CreateJobController to Repositories--><g id="link_CreateJobController_Repositories"><path codeLine="53" d="M265.19,308 C274.71,308 281.42,308 294.48,308 " fill="none" id="CreateJobController-to-Repositories" style="stroke:#181818;stroke-width:1.0;stroke-dasharray:7.0,7.0;"/><polygon fill="#181818" points="300.48,308,291.48,304,295.48,308,291.48,312,300.48,308" style="stroke:#181818;stroke-width:1.0;"/></g><!--link CreateJobController to JobsRepository--><g id="link_CreateJobController_JobsRepository"><path codeLine="54" d="M178.86,369.11 C202.14,401.75 227.5464,437.3849 251.8064,471.4049 " fill="none" id="CreateJobController-to-JobsRepository" style="stroke:#181818;stroke-width:1.0;stroke-dasharray:7.0,7.0;"/><polygon fill="#181818" points="255.29,476.29,253.3213,466.6399,252.387,472.2191,246.8078,471.2847,255.29,476.29" style="stroke:#181818;stroke-width:1.0;"/></g><!--SRC=[ZLF1Ri8m3BtdAo9EC0JIhjM4XD2cWROTODlTj1u4Gj8bOLirxT_djD0sfGXwQkpdv_VYs6w5Ii70ZgSGRs652vT9v0PZ1sebaTaIODUGw6-XLlm3fArdf53eiXHvgcNc3up54gpb4uFWSAQNRrF-o_Y0R_Jo1NOOyOKpnEH3iLREQ2dHH1L-KWOPxzTfkZqV0Bjzq6PMa7Lx4V_I8l699PburO_pPu-imcQloYDZVoVogdPU9dsvKZl7L5lXjCaYFWlEEQZVHk05vWGhT66DLz3A4XzPketheOAbrX91LPhBQe7s89QQ2MLfNZ5LrlF7x1LU20LxjqRbH0nEQ5N7ZyzaYif-qFFWdw9q0TE3B6_zL5Z_wZigtOUvO5XZOo1x4jQHtkFl7U57BEXLvdoh5c1EDfOqaYIx__6uyqCfyJu_jUyWHN81JcytITf7dR_EkjEwlN1hSg8sbihhfbgEeCfMgJCI2Xn-xcdBBxfnkaZK-f25-juFXwFMlGuUyc0muftRJdE-4HUxLEAE7fzj58p2JOZA5M0D3izyapCJQ0sMjMtzCAHhnn2eyJR_0G00]--></g></svg>