<svg xmlns="http://www.w3.org/2000/svg" xmlns:xlink="http://www.w3.org/1999/xlink" contentStyleType="text/css" data-diagram-type="SEQUENCE" height="399px" preserveAspectRatio="none" style="width:699px;height:399px;background:#FFFFFF;" version="1.1" viewBox="0 0 699 399" width="699px" zoomAndPan="magnify"><defs/><g><g><title>Player</title><rect fill="#FFFFFF" height="217.9297" style="stroke:#181818;stroke-width:1;" width="10" x="24.7827" y="91.2969"/></g><g><title>System</title><rect fill="#FFFFFF" height="29.1328" style="stroke:#181818;stroke-width:1;" width="10" x="418.1309" y="112.4297"/></g><g><title>System</title><rect fill="#FFFFFF" height="71.2656" style="stroke:#181818;stroke-width:1;" width="10" x="418.1309" y="170.6953"/></g><g><title>System</title><rect fill="#FFFFFF" height="29.1328" style="stroke:#181818;stroke-width:1;" width="10" x="418.1309" y="271.0938"/></g><g><title>Player</title><rect fill="#000000" fill-opacity="0.00000" height="236.9297" width="8" x="25.7827" y="81.2969"/><line style="stroke:#181818;stroke-width:0.5;stroke-dasharray:5.0,5.0;" x1="29" x2="29" y1="81.2969" y2="318.2266"/></g><g><title>System</title><rect fill="#000000" fill-opacity="0.00000" height="236.9297" width="8" x="419.1309" y="81.2969"/><line style="stroke:#181818;stroke-width:0.5;stroke-dasharray:5.0,5.0;" x1="423.0278" x2="423.0278" y1="81.2969" y2="318.2266"/></g><g class="participant participant-head" data-participant="Player"><text fill="#000000" font-family="sans-serif" font-size="14" lengthAdjust="spacing" textLength="43.5654" x="5" y="77.9951">Player</text><ellipse cx="29.7827" cy="13.5" fill="#E3E3E3" rx="8" ry="8" style="stroke:#181818;stroke-width:0.5;"/><path d="M29.7827,21.5 L29.7827,48.5 M16.7827,29.5 L42.7827,29.5 M29.7827,48.5 L16.7827,63.5 M29.7827,48.5 L42.7827,63.5" fill="none" style="stroke:#181818;stroke-width:0.5;"/></g><g class="participant participant-tail" data-participant="Player"><text fill="#000000" font-family="sans-serif" font-size="14" lengthAdjust="spacing" textLength="43.5654" x="5" y="330.2217">Player</text><ellipse cx="29.7827" cy="342.0234" fill="#E3E3E3" rx="8" ry="8" style="stroke:#181818;stroke-width:0.5;"/><path d="M29.7827,350.0234 L29.7827,377.0234 M16.7827,358.0234 L42.7827,358.0234 M29.7827,377.0234 L16.7827,392.0234 M29.7827,377.0234 L42.7827,392.0234" fill="none" style="stroke:#181818;stroke-width:0.5;"/></g><g class="participant participant-head" data-participant="System"><rect fill="#E3E3E3" height="30.2969" rx="2.5" ry="2.5" style="stroke:#181818;stroke-width:0.5;" width="66.2061" x="390.0278" y="50"/><text fill="#000000" font-family="sans-serif" font-size="14" lengthAdjust="spacing" textLength="52.2061" x="397.0278" y="69.9951">System</text></g><g class="participant participant-tail" data-participant="System"><rect fill="#E3E3E3" height="30.2969" rx="2.5" ry="2.5" style="stroke:#181818;stroke-width:0.5;" width="66.2061" x="390.0278" y="317.2266"/><text fill="#000000" font-family="sans-serif" font-size="14" lengthAdjust="spacing" textLength="52.2061" x="397.0278" y="337.2217">System</text></g><g><title>Player</title><rect fill="#FFFFFF" height="217.9297" style="stroke:#181818;stroke-width:1;" width="10" x="24.7827" y="91.2969"/></g><g><title>System</title><rect fill="#FFFFFF" height="29.1328" style="stroke:#181818;stroke-width:1;" width="10" x="418.1309" y="112.4297"/></g><g><title>System</title><rect fill="#FFFFFF" height="71.2656" style="stroke:#181818;stroke-width:1;" width="10" x="418.1309" y="170.6953"/></g><g><title>System</title><rect fill="#FFFFFF" height="29.1328" style="stroke:#181818;stroke-width:1;" width="10" x="418.1309" y="271.0938"/></g><g class="message" data-participant-1="Player" data-participant-2="System"><polygon fill="#181818" points="406.1309,108.4297,416.1309,112.4297,406.1309,116.4297,410.1309,112.4297" style="stroke:#181818;stroke-width:1;"/><line style="stroke:#181818;stroke-width:1;" x1="34.7827" x2="412.1309" y1="112.4297" y2="112.4297"/><text fill="#000000" font-family="sans-serif" font-size="13" font-weight="bold" lengthAdjust="spacing" textLength="9.0454" x="41.7827" y="107.3638">1</text><text fill="#000000" font-family="sans-serif" font-size="13" lengthAdjust="spacing" textLength="221.4824" x="54.8281" y="107.3638">Select existing Station to upgrade</text></g><g class="message" data-participant-1="System" data-participant-2="Player"><polygon fill="#181818" points="45.7827,137.5625,35.7827,141.5625,45.7827,145.5625,41.7827,141.5625" style="stroke:#181818;stroke-width:1;"/><line style="stroke:#181818;stroke-width:1;" x1="39.7827" x2="422.1309" y1="141.5625" y2="141.5625"/><text fill="#000000" font-family="sans-serif" font-size="13" font-weight="bold" lengthAdjust="spacing" textLength="9.0454" x="51.7827" y="136.4966">2</text><text fill="#000000" font-family="sans-serif" font-size="13" lengthAdjust="spacing" textLength="346.3027" x="64.8281" y="136.4966">Return Station Details (Present Buildings, Cargo Info)</text></g><g class="message" data-participant-1="Player" data-participant-2="System"><polygon fill="#181818" points="406.1309,166.6953,416.1309,170.6953,406.1309,174.6953,410.1309,170.6953" style="stroke:#181818;stroke-width:1;"/><line style="stroke:#181818;stroke-width:1;" x1="34.7827" x2="412.1309" y1="170.6953" y2="170.6953"/><text fill="#000000" font-family="sans-serif" font-size="13" font-weight="bold" lengthAdjust="spacing" textLength="9.0454" x="41.7827" y="165.6294">3</text><text fill="#000000" font-family="sans-serif" font-size="13" lengthAdjust="spacing" textLength="300.1616" x="54.8281" y="165.6294">Select Upgrade from list of available buildings</text></g><g class="message" data-participant-1="System" data-participant-2="System"><line style="stroke:#181818;stroke-width:1;" x1="428.1309" x2="470.1309" y1="199.8281" y2="199.8281"/><line style="stroke:#181818;stroke-width:1;" x1="470.1309" x2="470.1309" y1="199.8281" y2="212.8281"/><line style="stroke:#181818;stroke-width:1;" x1="429.1309" x2="470.1309" y1="212.8281" y2="212.8281"/><polygon fill="#181818" points="439.1309,208.8281,429.1309,212.8281,439.1309,216.8281,435.1309,212.8281" style="stroke:#181818;stroke-width:1;"/><text fill="#000000" font-family="sans-serif" font-size="13" font-weight="bold" lengthAdjust="spacing" textLength="9.0454" x="435.1309" y="194.7622">4</text><text fill="#000000" font-family="sans-serif" font-size="13" lengthAdjust="spacing" textLength="244.7656" x="448.1763" y="194.7622">Check if Player has enough resources</text></g><g class="message" data-participant-1="System" data-participant-2="Player"><polygon fill="#181818" points="45.7827,237.9609,35.7827,241.9609,45.7827,245.9609,41.7827,241.9609" style="stroke:#181818;stroke-width:1;"/><line style="stroke:#181818;stroke-width:1;" x1="39.7827" x2="422.1309" y1="241.9609" y2="241.9609"/><text fill="#000000" font-family="sans-serif" font-size="13" font-weight="bold" lengthAdjust="spacing" textLength="9.0454" x="51.7827" y="236.895">5</text><text fill="#000000" font-family="sans-serif" font-size="13" lengthAdjust="spacing" textLength="196.0981" x="64.8281" y="236.895">Display Upgrade Confirmation</text></g><g class="message" data-participant-1="Player" data-participant-2="System"><polygon fill="#181818" points="406.1309,267.0938,416.1309,271.0938,406.1309,275.0938,410.1309,271.0938" style="stroke:#181818;stroke-width:1;"/><line style="stroke:#181818;stroke-width:1;" x1="34.7827" x2="412.1309" y1="271.0938" y2="271.0938"/><text fill="#000000" font-family="sans-serif" font-size="13" font-weight="bold" lengthAdjust="spacing" textLength="9.0454" x="41.7827" y="266.0278">6</text><text fill="#000000" font-family="sans-serif" font-size="13" lengthAdjust="spacing" textLength="111.1792" x="54.8281" y="266.0278">Confirm Upgrade</text></g><g class="message" data-participant-1="System" data-participant-2="Player"><polygon fill="#181818" points="45.7827,296.2266,35.7827,300.2266,45.7827,304.2266,41.7827,300.2266" style="stroke:#181818;stroke-width:1;"/><line style="stroke:#181818;stroke-width:1;" x1="39.7827" x2="422.1309" y1="300.2266" y2="300.2266"/><text fill="#000000" font-family="sans-serif" font-size="13" font-weight="bold" lengthAdjust="spacing" textLength="9.0454" x="51.7827" y="295.1606">7</text><text fill="#000000" font-family="sans-serif" font-size="13" lengthAdjust="spacing" textLength="164.0933" x="64.8281" y="295.1606">Display Upgrade Success</text></g><!--SRC=[ZP4nRiCm34LtdOB8r0Bj1J9qQB9q2sha0BHCsq9aqH2fjBbzsSGsWZOjiX6W_l_lKt88QSIC0moSsFUP1mBDXPmicn7z0Jkgz1G9Cdd5rCNh1z9ZmnyXTT1Y578EYt8gGqtPPg-SORMBUAAy0XIuZE1ChC674PF2gZg9qd3UNyQpCXnHQH8uDmcVNwOdi8QAeW41VGRHRu1AKGCdK8OoTXaRklAPZIUr-KoEQtWdBJajyYqfXYZmiCiaP7ol9SJ60kG9DfWxXhVKygDp3Vro_vjoVo62rguCqOY1My2Z9M5jfwtdZ7-H5zDDJ_u0ePrBz7OwIbowtZv9k6HFShFhDiXeyuApuTI6F9oRtzjeqimUzntvPt1Ll37AhSml]--></g></svg>