<?xml version="1.0" encoding="us-ascii" standalone="no"?><svg xmlns="http://www.w3.org/2000/svg" xmlns:xlink="http://www.w3.org/1999/xlink" contentStyleType="text/css" height="792px" preserveAspectRatio="none" style="width:913px;height:792px;background:#FFFFFF;" version="1.1" viewBox="0 0 913 792" width="913px" zoomAndPan="magnify"><defs/><g><text fill="#000000" font-family="sans-serif" font-size="14" font-weight="bold" lengthAdjust="spacing" textLength="111" x="394.2142" y="25.1074">System Diagram</text><!--entity hmr--><g id="elem_hmr"><ellipse cx="194" cy="483.6211" fill="#F1F1F1" rx="8" ry="8" style="stroke:#181818;stroke-width:0.5;"/><path d="M194,491.6211 L194,518.6211 M181,499.6211 L207,499.6211 M194,518.6211 L181,533.6211 M194,518.6211 L207,533.6211 " fill="none" style="stroke:#181818;stroke-width:0.5;"/><text fill="#000000" font-family="sans-serif" font-size="14" lengthAdjust="spacing" textLength="176" x="106" y="550.2285">Human Resources Manager</text></g><!--entity fm--><g id="elem_fm"><ellipse cx="674.5" cy="156.6211" fill="#F1F1F1" rx="8" ry="8" style="stroke:#181818;stroke-width:0.5;"/><path d="M674.5,164.6211 L674.5,191.6211 M661.5,172.6211 L687.5,172.6211 M674.5,191.6211 L661.5,206.6211 M674.5,191.6211 L687.5,206.6211 " fill="none" style="stroke:#181818;stroke-width:0.5;"/><text fill="#000000" font-family="sans-serif" font-size="14" lengthAdjust="spacing" textLength="92" x="628.5" y="223.2285">Fleet Manager</text></g><g id="elem_Function1"><ellipse cx="674.603" cy="296.8417" fill="#F1F1F1" rx="159.103" ry="34.2206" style="stroke:#181818;stroke-width:0.5;"/><text fill="#000000" font-family="sans-serif" font-size="14" lengthAdjust="spacing" textLength="286" x="531.603" y="300.6386">Registers skills that a collaborator could have</text></g><g id="elem_Function2"><ellipse cx="674.4039" cy="400.7019" fill="#F1F1F1" rx="163.4039" ry="35.0808" style="stroke:#181818;stroke-width:0.5;"/><text fill="#000000" font-family="sans-serif" font-size="14" lengthAdjust="spacing" textLength="295" x="526.9039" y="404.4987">Registers a job that a collaborator should have</text></g><g id="elem_Function3"><ellipse cx="674.4526" cy="514.4116" fill="#F1F1F1" rx="204.4526" ry="43.2905" style="stroke:#181818;stroke-width:0.5;"/><text fill="#000000" font-family="sans-serif" font-size="14" lengthAdjust="spacing" textLength="380" x="484.4526" y="518.2085">Registers a collaborator with a job and fundamental features</text></g><g id="elem_Function4"><ellipse cx="674.7142" cy="642.5639" fill="#F1F1F1" rx="232.7142" ry="48.9428" style="stroke:#181818;stroke-width:0.5;"/><text fill="#000000" font-family="sans-serif" font-size="14" lengthAdjust="spacing" textLength="394" x="477.7142" y="637.0503">Assigns one or more skills to a collaborator to ensure accurate</text><text fill="#000000" font-family="sans-serif" font-size="14" lengthAdjust="spacing" textLength="404" x="474.7142" y="655.6714">representation of their expertise within the organizational system</text></g><g id="elem_Function5"><ellipse cx="674.2633" cy="756.6738" fill="#F1F1F1" rx="138.2633" ry="30.0527" style="stroke:#181818;stroke-width:0.5;"/><text fill="#000000" font-family="sans-serif" font-size="14" lengthAdjust="spacing" textLength="242" x="553.2633" y="760.4706">Creates a team proposal automatically</text></g><g id="elem_Function6"><ellipse cx="193.9545" cy="85.612" fill="#F1F1F1" rx="187.9545" ry="39.9909" style="stroke:#181818;stroke-width:0.5;"/><text fill="#000000" font-family="sans-serif" font-size="14" lengthAdjust="spacing" textLength="346" x="20.9545" y="89.4089">Registers a vehicle including the requested information</text></g><g id="elem_Function7"><ellipse cx="194.1059" cy="187.6423" fill="#F1F1F1" rx="120.6059" ry="26.5212" style="stroke:#181818;stroke-width:0.5;"/><text fill="#000000" font-family="sans-serif" font-size="14" lengthAdjust="spacing" textLength="204" x="92.1059" y="191.4392">Registers the vehicle's check-up</text></g><g id="elem_Function8"><ellipse cx="194.1144" cy="281.844" fill="#F1F1F1" rx="149.1144" ry="32.2229" style="stroke:#181818;stroke-width:0.5;"/><text fill="#000000" font-family="sans-serif" font-size="14" lengthAdjust="spacing" textLength="265" x="61.6144" y="285.6408">Lists the vehicles that need to be checked</text></g><!--link hmr to Function1--><g id="link_hmr_Function1"><path d="M242.46,474.8111 C290.02,436.9111 366.78,380.9911 442,348.6211 C474.35,334.7011 505.0657,325.5951 539.4157,317.8851 " fill="none" id="hmr-to-Function1" style="stroke:#181818;stroke-width:1.0;"/><polygon fill="#181818" points="545.27,316.5711,535.6125,314.6392,540.3914,317.6661,537.3645,322.445,545.27,316.5711" style="stroke:#181818;stroke-width:1.0;"/></g><!--link hmr to Function2--><g id="link_hmr_Function2"><path d="M282.07,492.7311 C329.34,480.9511 388.82,466.2711 442,453.6211 C480.81,444.3911 517.5003,435.8958 555.4103,427.2458 " fill="none" id="hmr-to-Function2" style="stroke:#181818;stroke-width:1.0;"/><polygon fill="#181818" points="561.26,425.9111,551.5957,424.0134,556.3853,427.0234,553.3753,431.813,561.26,425.9111" style="stroke:#181818;stroke-width:1.0;"/></g><!--link hmr to Function3--><g id="link_hmr_Function3"><path d="M282.21,514.6211 C334.84,514.6211 398.23,514.6211 463.95,514.6211 " fill="none" id="hmr-to-Function3" style="stroke:#181818;stroke-width:1.0;"/><polygon fill="#181818" points="469.95,514.6211,460.95,510.6211,464.95,514.6211,460.95,518.6211,469.95,514.6211" style="stroke:#181818;stroke-width:1.0;"/></g><!--link hmr to Function4--><g id="link_hmr_Function4"><path d="M282.21,537.9511 C351.22,556.4111 443.2438,581.0308 523.8138,602.5808 " fill="none" id="hmr-to-Function4" style="stroke:#181818;stroke-width:1.0;"/><polygon fill="#181818" points="529.61,604.1311,521.9492,597.9414,524.7798,602.8392,519.8821,605.6698,529.61,604.1311" style="stroke:#181818;stroke-width:1.0;"/></g><!--link hmr to Function5--><g id="link_hmr_Function5"><path d="M232.98,554.2111 C278.38,599.0911 358.73,671.0011 442,709.6211 C475.95,725.3711 509.2177,734.7293 545.5577,741.7093 " fill="none" id="hmr-to-Function5" style="stroke:#181818;stroke-width:1.0;"/><polygon fill="#181818" points="551.45,742.8411,543.3661,737.2153,546.5398,741.898,541.8571,745.0716,551.45,742.8411" style="stroke:#181818;stroke-width:1.0;"/></g><!--reverse link Function6 to fm--><g id="link_Function6_fm"><path d="M333.2082,115.0819 C433.7482,136.5119 560.14,163.4611 628.41,178.0111 " fill="none" id="Function6-backto-fm" style="stroke:#181818;stroke-width:1.0;"/><polygon fill="#181818" points="327.34,113.8311,335.3084,119.6194,332.2301,114.8734,336.9761,111.7952,327.34,113.8311" style="stroke:#181818;stroke-width:1.0;"/></g><!--reverse link Function7 to fm--><g id="link_Function7_fm"><path d="M320.51,187.6211 C422.38,187.6211 557.27,187.6211 628.46,187.6211 " fill="none" id="Function7-backto-fm" style="stroke:#181818;stroke-width:1.0;"/><polygon fill="#181818" points="314.51,187.6211,323.51,191.6211,319.51,187.6211,323.51,183.6211,314.51,187.6211" style="stroke:#181818;stroke-width:1.0;"/></g><!--reverse link Function8 to fm--><g id="link_Function8_fm"><path d="M310.3675,258.9549 C412.7175,238.8549 554.61,210.9811 628.24,196.5111 " fill="none" id="Function8-backto-fm" style="stroke:#181818;stroke-width:1.0;"/><polygon fill="#181818" points="304.48,260.1111,314.0821,262.3018,309.3863,259.1476,312.5405,254.4517,304.48,260.1111" style="stroke:#181818;stroke-width:1.0;"/></g><!--SRC=[RP8_Szim3CLtVWgSbquQcZzjXbxlSktbChHBidQ1AKXaGn8AGIPrFtr1rR4ZM-i3tWyF9EJ9fmapHeYSsBhCaQ3aIaOE5N7OywjF8mmOv7q5RU7yM7Q189CjcCP0nXHVL7ZSIQ48tpsEscfCeA50OSX-T0LwtmoUavaPiBcl4HCya73DbWH-OiAHyWPGmCNyrdONYCgYE2Yx2baKWiq3ZLx7PW4D6O90SLW0mN88kEMC3MAvXXuSlj0CkAjfJl9n3OFmcxUh577hc8jrpCBxwelRep7rCDJKOwHKCC10M6ecMJ0lZynR4Jyc0Ku4IegSwR0hdyvHXP8eJd_ALjNeLzAVcfJVfZKqyA3haSz0VoRAnUkG5i-d9kk84PF_ExTgEfa_TP7jwfZjMzRmrBOjfDSnPPvOr8MrS5I4nH1s2_Fr-cEzaFDMRyWd6shVBgzboVHSILjwrGVESGwrm7rQmpNh7lX1m3goJrsT5hxFHzyFTIqy-njAf7FrFRVq7q7zWd1ZZ5ufTDtNT_TqgboSAPTdojMPScqEwy6Nhci7VyXzAjoy2Vy0]--></g></svg>