<?xml version="1.0" encoding="us-ascii" standalone="no"?><svg xmlns="http://www.w3.org/2000/svg" xmlns:xlink="http://www.w3.org/1999/xlink" contentStyleType="text/css" height="602px" preserveAspectRatio="none" style="width:409px;height:602px;background:#FFFFFF;" version="1.1" viewBox="0 0 409 602" width="409px" zoomAndPan="magnify"><defs/><g><!--class Map--><g id="elem_Map"><rect codeLine="11" fill="#F1F1F1" height="113.9531" id="Map" rx="2.5" ry="2.5" style="stroke:#181818;stroke-width:0.5;" width="198" x="194" y="481.42"/><ellipse cx="274.25" cy="497.42" fill="#ADD1B2" rx="11" ry="11" style="stroke:#181818;stroke-width:1.0;"/><path d="M276.7231,503.5631 Q276.1421,503.8619 275.5029,504.0113 Q274.8638,504.1607 274.1582,504.1607 Q271.6514,504.1607 270.3315,502.5089 Q269.0117,500.857 269.0117,497.7359 Q269.0117,494.6065 270.3315,492.9547 Q271.6514,491.3028 274.1582,491.3028 Q274.8638,491.3028 275.5112,491.4522 Q276.1587,491.6016 276.7231,491.9005 L276.7231,494.6231 Q276.0923,494.0421 275.4988,493.7723 Q274.9053,493.5025 274.2744,493.5025 Q272.9297,493.5025 272.2449,494.5692 Q271.5601,495.6358 271.5601,497.7359 Q271.5601,499.8277 272.2449,500.8944 Q272.9297,501.961 274.2744,501.961 Q274.9053,501.961 275.4988,501.6912 Q276.0923,501.4215 276.7231,500.8404 Z " fill="#000000"/><text fill="#000000" font-family="sans-serif" font-size="14" lengthAdjust="spacing" textLength="29" x="294.75" y="502.711">Map</text><line style="stroke:#181818;stroke-width:0.5;" x1="195" x2="391" y1="513.42" y2="513.42"/><text fill="#000000" font-family="sans-serif" font-size="14" lengthAdjust="spacing" textLength="99" x="200" y="530.9552">-name : String</text><text fill="#000000" font-family="sans-serif" font-size="14" lengthAdjust="spacing" textLength="76" x="200" y="547.4434">-width : int</text><text fill="#000000" font-family="sans-serif" font-size="14" lengthAdjust="spacing" textLength="82" x="200" y="563.9317">-height : int</text><line style="stroke:#181818;stroke-width:0.5;" x1="195" x2="391" y1="570.8848" y2="570.8848"/><text fill="#000000" font-family="sans-serif" font-size="14" lengthAdjust="spacing" textLength="186" x="200" y="588.42">+Map(name, width, height)</text></g><!--class MapRepository--><g id="elem_MapRepository"><rect codeLine="19" fill="#F1F1F1" height="80.9766" id="MapRepository" rx="2.5" ry="2.5" style="stroke:#181818;stroke-width:0.5;" width="256" x="44" y="323.44"/><ellipse cx="116.75" cy="339.44" fill="#ADD1B2" rx="11" ry="11" style="stroke:#181818;stroke-width:1.0;"/><path d="M119.2231,345.5831 Q118.6421,345.8819 118.0029,346.0313 Q117.3638,346.1807 116.6582,346.1807 Q114.1514,346.1807 112.8315,344.5289 Q111.5117,342.877 111.5117,339.7559 Q111.5117,336.6265 112.8315,334.9747 Q114.1514,333.3228 116.6582,333.3228 Q117.3638,333.3228 118.0112,333.4722 Q118.6587,333.6216 119.2231,333.9205 L119.2231,336.6431 Q118.5923,336.0621 117.9988,335.7923 Q117.4053,335.5225 116.7744,335.5225 Q115.4297,335.5225 114.7449,336.5892 Q114.0601,337.6558 114.0601,339.7559 Q114.0601,341.8477 114.7449,342.9144 Q115.4297,343.981 116.7744,343.981 Q117.4053,343.981 117.9988,343.7112 Q118.5923,343.4415 119.2231,342.8604 Z " fill="#000000"/><text fill="#000000" font-family="sans-serif" font-size="14" lengthAdjust="spacing" textLength="102" x="137.25" y="344.731">MapRepository</text><line style="stroke:#181818;stroke-width:0.5;" x1="45" x2="299" y1="355.44" y2="355.44"/><line style="stroke:#181818;stroke-width:0.5;" x1="45" x2="299" y1="363.44" y2="363.44"/><text fill="#000000" font-family="sans-serif" font-size="14" lengthAdjust="spacing" textLength="143" x="50" y="380.9752">+mapByName(name)</text><text fill="#000000" font-family="sans-serif" font-size="14" lengthAdjust="spacing" textLength="244" x="50" y="397.4634">+addMap(taskCategoryDescription)</text></g><!--class Repositories--><g id="elem_Repositories"><rect codeLine="24" fill="#F1F1F1" height="97.4648" id="Repositories" rx="2.5" ry="2.5" style="stroke:#181818;stroke-width:0.5;" width="136" x="40" y="117.98"/><ellipse cx="63.55" cy="133.98" fill="#ADD1B2" rx="11" ry="11" style="stroke:#181818;stroke-width:1.0;"/><path d="M66.0231,140.1231 Q65.4421,140.4219 64.8029,140.5713 Q64.1638,140.7207 63.4582,140.7207 Q60.9514,140.7207 59.6315,139.0689 Q58.3117,137.417 58.3117,134.2959 Q58.3117,131.1665 59.6315,129.5147 Q60.9514,127.8628 63.4582,127.8628 Q64.1638,127.8628 64.8112,128.0122 Q65.4587,128.1616 66.0231,128.4605 L66.0231,131.1831 Q65.3923,130.6021 64.7988,130.3323 Q64.2053,130.0625 63.5744,130.0625 Q62.2297,130.0625 61.5449,131.1292 Q60.8601,132.1958 60.8601,134.2959 Q60.8601,136.3877 61.5449,137.4544 Q62.2297,138.521 63.5744,138.521 Q64.2053,138.521 64.7988,138.2512 Q65.3923,137.9815 66.0231,137.4004 Z " fill="#000000"/><text fill="#000000" font-family="sans-serif" font-size="14" lengthAdjust="spacing" textLength="85" x="79.45" y="139.271">Repositories</text><line style="stroke:#181818;stroke-width:0.5;" x1="41" x2="175" y1="149.98" y2="149.98"/><line style="stroke:#181818;stroke-width:0.5;" x1="41" x2="175" y1="157.98" y2="157.98"/><text fill="#000000" font-family="sans-serif" font-size="14" lengthAdjust="spacing" textLength="103" x="46" y="175.5152">-Repositories()</text><text fill="#000000" font-family="sans-serif" font-size="14" lengthAdjust="spacing" text-decoration="underline" textLength="100" x="46" y="192.0034">+getInstance()</text><text fill="#000000" font-family="sans-serif" font-size="14" lengthAdjust="spacing" textLength="124" x="46" y="208.4917">+mapRepository()</text></g><!--class CreateMapController--><g id="elem_CreateMapController"><rect codeLine="30" fill="#F1F1F1" height="80.9766" id="CreateMapController" rx="2.5" ry="2.5" style="stroke:#181818;stroke-width:0.5;" width="240" x="162" y="7"/><ellipse cx="205.8" cy="23" fill="#ADD1B2" rx="11" ry="11" style="stroke:#181818;stroke-width:1.0;"/><path d="M208.2731,29.1431 Q207.6921,29.4419 207.0529,29.5913 Q206.4138,29.7407 205.7082,29.7407 Q203.2014,29.7407 201.8815,28.0889 Q200.5617,26.437 200.5617,23.3159 Q200.5617,20.1865 201.8815,18.5347 Q203.2014,16.8828 205.7082,16.8828 Q206.4138,16.8828 207.0612,17.0322 Q207.7087,17.1816 208.2731,17.4805 L208.2731,20.2031 Q207.6423,19.6221 207.0488,19.3523 Q206.4553,19.0825 205.8244,19.0825 Q204.4797,19.0825 203.7949,20.1492 Q203.1101,21.2158 203.1101,23.3159 Q203.1101,25.4077 203.7949,26.4744 Q204.4797,27.541 205.8244,27.541 Q206.4553,27.541 207.0488,27.2712 Q207.6423,27.0015 208.2731,26.4204 Z " fill="#000000"/><text fill="#000000" font-family="sans-serif" font-size="14" lengthAdjust="spacing" textLength="144" x="226.2" y="28.291">CreateMapController</text><line style="stroke:#181818;stroke-width:0.5;" x1="163" x2="401" y1="39" y2="39"/><line style="stroke:#181818;stroke-width:0.5;" x1="163" x2="401" y1="47" y2="47"/><text fill="#000000" font-family="sans-serif" font-size="14" lengthAdjust="spacing" textLength="165" x="168" y="64.5352">+CreateMapController()</text><text fill="#000000" font-family="sans-serif" font-size="14" lengthAdjust="spacing" textLength="228" x="168" y="81.0234">+createMap(name, width, height)</text></g><!--class CreateMapUI--><g id="elem_CreateMapUI"><rect codeLine="35" fill="#F1F1F1" height="48" id="CreateMapUI" rx="2.5" ry="2.5" style="stroke:#181818;stroke-width:0.5;" width="120" x="7" y="23.49"/><ellipse cx="22" cy="39.49" fill="#ADD1B2" rx="11" ry="11" style="stroke:#181818;stroke-width:1.0;"/><path d="M24.4731,45.6331 Q23.8921,45.9319 23.2529,46.0813 Q22.6138,46.2307 21.9082,46.2307 Q19.4014,46.2307 18.0815,44.5789 Q16.7617,42.927 16.7617,39.8059 Q16.7617,36.6765 18.0815,35.0247 Q19.4014,33.3728 21.9082,33.3728 Q22.6138,33.3728 23.2612,33.5222 Q23.9087,33.6716 24.4731,33.9705 L24.4731,36.6931 Q23.8423,36.1121 23.2488,35.8423 Q22.6553,35.5725 22.0244,35.5725 Q20.6797,35.5725 19.9949,36.6392 Q19.3101,37.7058 19.3101,39.8059 Q19.3101,41.8977 19.9949,42.9644 Q20.6797,44.031 22.0244,44.031 Q22.6553,44.031 23.2488,43.7612 Q23.8423,43.4915 24.4731,42.9104 Z " fill="#000000"/><text fill="#000000" font-family="sans-serif" font-size="14" lengthAdjust="spacing" textLength="88" x="36" y="44.781">CreateMapUI</text><line style="stroke:#181818;stroke-width:0.5;" x1="8" x2="126" y1="55.49" y2="55.49"/><line style="stroke:#181818;stroke-width:0.5;" x1="8" x2="126" y1="63.49" y2="63.49"/></g><!--class MapDto--><g id="elem_MapDto"><rect codeLine="38" fill="#F1F1F1" height="48" id="MapDto" rx="2.5" ry="2.5" style="stroke:#181818;stroke-width:0.5;" width="85" x="73.5" y="514.39"/><ellipse cx="88.5" cy="530.39" fill="#ADD1B2" rx="11" ry="11" style="stroke:#181818;stroke-width:1.0;"/><path d="M90.9731,536.5331 Q90.3921,536.8319 89.7529,536.9813 Q89.1138,537.1307 88.4082,537.1307 Q85.9014,537.1307 84.5815,535.4789 Q83.2617,533.827 83.2617,530.7059 Q83.2617,527.5765 84.5815,525.9247 Q85.9014,524.2728 88.4082,524.2728 Q89.1138,524.2728 89.7612,524.4222 Q90.4087,524.5716 90.9731,524.8705 L90.9731,527.5931 Q90.3423,527.0121 89.7488,526.7423 Q89.1553,526.4725 88.5244,526.4725 Q87.1797,526.4725 86.4949,527.5392 Q85.8101,528.6058 85.8101,530.7059 Q85.8101,532.7977 86.4949,533.8644 Q87.1797,534.931 88.5244,534.931 Q89.1553,534.931 89.7488,534.6612 Q90.3423,534.3915 90.9731,533.8104 Z " fill="#000000"/><text fill="#000000" font-family="sans-serif" font-size="14" lengthAdjust="spacing" textLength="53" x="102.5" y="535.681">MapDto</text><line style="stroke:#181818;stroke-width:0.5;" x1="74.5" x2="157.5" y1="546.39" y2="546.39"/><line style="stroke:#181818;stroke-width:0.5;" x1="74.5" x2="157.5" y1="554.39" y2="554.39"/></g><!--link CreateMapUI to CreateMapController--><g id="link_CreateMapUI_CreateMapController"><path codeLine="40" d="M127.47,47.49 C134.19,47.49 138.67,47.49 138.67,47.49 C138.67,47.49 142.96,47.49 155.74,47.49 " fill="none" id="CreateMapUI-to-CreateMapController" style="stroke:#181818;stroke-width:1.0;stroke-dasharray:7.0,7.0;"/><polygon fill="#181818" points="161.74,47.49,152.74,43.49,156.74,47.49,152.74,51.49,161.74,47.49" style="stroke:#181818;stroke-width:1.0;"/></g><!--link CreateMapController to Map--><g id="link_CreateMapController_Map"><path codeLine="42" d="M287.7,88.1 C289.95,103.71 292,117.98 292,117.98 C292,117.98 318,323.44 318,323.44 C318,323.44 318,404.42 318,404.42 C318,404.42 311.5297,438.8635 304.7097,475.1035 " fill="none" id="CreateMapController-to-Map" style="stroke:#181818;stroke-width:1.0;stroke-dasharray:7.0,7.0;"/><polygon fill="#181818" points="303.6,481,309.1955,472.895,304.5247,476.0863,301.3335,471.4155,303.6,481" style="stroke:#181818;stroke-width:1.0;"/></g><!--link CreateMapController to MapRepository--><g id="link_CreateMapController_MapRepository"><path codeLine="43" d="M276.79,88.05 C270.28,137.42 260,215.44 260,215.44 C260,215.44 243,262.44 243,262.44 C243,262.44 223.3726,290.22 203.5226,318.31 " fill="none" id="CreateMapController-to-MapRepository" style="stroke:#181818;stroke-width:1.0;stroke-dasharray:7.0,7.0;"/><polygon fill="#181818" points="200.06,323.21,208.5206,318.1684,202.9455,319.1267,201.9873,313.5516,200.06,323.21" style="stroke:#181818;stroke-width:1.0;"/></g><!--link CreateMapController to Repositories--><g id="link_CreateMapController_Repositories"><path codeLine="44" d="M223.09,88.17 C208.11,98.27 196.8449,105.8458 181.4349,116.2358 " fill="none" id="CreateMapController-to-Repositories" style="stroke:#181818;stroke-width:1.0;stroke-dasharray:7.0,7.0;"/><polygon fill="#181818" points="176.46,119.59,186.1584,117.8752,180.6057,116.7948,181.6861,111.2421,176.46,119.59" style="stroke:#181818;stroke-width:1.0;"/></g><!--link Repositories to Repositories--><g id="link_Repositories_Repositories"><path codeLine="46" d="M176.35,150.42 C195.91,151.05 211,156.49 211,166.71 C211,176.93 201.9068,182.1638 182.3468,182.8038 " fill="none" id="Repositories-to-Repositories" style="stroke:#181818;stroke-width:1.0;"/><polygon fill="#181818" points="176.35,183,185.476,186.7035,181.3473,182.8365,185.2144,178.7078,176.35,183" style="stroke:#181818;stroke-width:1.0;"/><text fill="#000000" font-family="sans-serif" font-size="13" lengthAdjust="spacing" textLength="53" x="217" y="171.7784">instance</text><text fill="#000000" font-family="sans-serif" font-size="13" lengthAdjust="spacing" textLength="8" x="183.8111" y="181.4906">1</text></g><!--link Repositories to MapRepository--><g id="link_Repositories_MapRepository"><path codeLine="47" d="M123.74,215.71 C134.55,248.68 146.8507,286.2286 157.0407,317.3086 " fill="none" id="Repositories-to-MapRepository" style="stroke:#181818;stroke-width:1.0;"/><polygon fill="#181818" points="158.91,323.01,159.907,313.2117,157.3523,318.2588,152.3052,315.7041,158.91,323.01" style="stroke:#181818;stroke-width:1.0;"/><text fill="#000000" font-family="sans-serif" font-size="13" lengthAdjust="spacing" textLength="94" x="139.97" y="259.0084">mapRepository</text><text fill="#000000" font-family="sans-serif" font-size="13" lengthAdjust="spacing" textLength="8" x="148.0795" y="312.5848">1</text></g><!--link MapRepository to Map--><g id="link_MapRepository_Map"><path codeLine="49" d="M199.76,404.5 C215.67,427.17 232.4545,451.0879 250.0045,476.1079 " fill="none" id="MapRepository-to-Map" style="stroke:#181818;stroke-width:1.0;"/><polygon fill="#181818" points="253.45,481.02,251.5564,471.3549,250.5787,476.9266,245.007,475.9489,253.45,481.02" style="stroke:#181818;stroke-width:1.0;"/><text fill="#000000" font-family="sans-serif" font-size="13" lengthAdjust="spacing" textLength="34" x="233.5" y="447.9884">maps</text><text fill="#000000" font-family="sans-serif" font-size="13" lengthAdjust="spacing" textLength="6" x="242.2642" y="470.7005">*</text></g><!--link MapDto to Map--><g id="link_MapDto_Map"><path codeLine="50" d="M158.88,538.39 C168.03,538.39 175,538.39 175,538.39 C175,538.39 177.3,538.39 187.67,538.39 " fill="none" id="MapDto-to-Map" style="stroke:#181818;stroke-width:1.0;"/><polygon fill="#181818" points="193.67,538.39,184.67,534.39,188.67,538.39,184.67,542.39,193.67,538.39" style="stroke:#181818;stroke-width:1.0;"/></g><!--SRC=[XLAzRi8m4Dxz52SMe13KhWn8BImCxL3K1t2T8x5mRCi-X5B4kzTEGd2agFNcx-z-xAa_IMsvunLKHXjHEbCXa3iZUp2MYnCly42rGd0eYEj2fG9VyjnSf2xWo9LF6IKrKcqHh55rlB3f26aS6PQuXEBUln8v-Nqct0kZ3_87uPcngS8Z0HbmiYW9SXdRaKOprdZWdLkuCWWd0yt3A6iuX1XTTDX5vbG6K6hga1ARf1Pgi4LCcKNtijKlEz6StP8wdsYDbsHStLLSGCNjM_qHZ8rxtg4ypsCWSN_QSi8YE7ReXPCsTfw4zeaIVJz52ixkaLTFdAIuGO6qr-6Y1VPabVOsI_At3aFzqClMQ796ANHzwoDS7oZkt3zBwJE-zY4ttTKklDWr0AbYjHahccYIBbUhe0xGd-HZw77PPh1BnWRhpZOmUPaCdo3-YNQtezhX7rWFzyxOaCwYwQanjLBFkhraxMI_]--></g></svg>