<?xml version="1.0" encoding="us-ascii" standalone="no"?><svg xmlns="http://www.w3.org/2000/svg" xmlns:xlink="http://www.w3.org/1999/xlink" contentStyleType="text/css" height="952px" preserveAspectRatio="none" style="width:1326px;height:952px;background:#FFFFFF;" version="1.1" viewBox="0 0 1326 952" width="1326px" zoomAndPan="magnify"><defs/><g><rect fill="#FFFFFF" height="761.6523" style="stroke:#181818;stroke-width:1.0;" width="10" x="23.5" y="91.4883"/><rect fill="#FFFFFF" height="29.3105" style="stroke:#181818;stroke-width:1.0;" width="10" x="330.5" y="112.7988"/><rect fill="#FFFFFF" height="29.3105" style="stroke:#181818;stroke-width:1.0;" width="10" x="330.5" y="171.4199"/><rect fill="#FFFFFF" height="623.0996" style="stroke:#181818;stroke-width:1.0;" width="10" x="330.5" y="230.041"/><rect fill="#FFFFFF" height="522.9902" style="stroke:#181818;stroke-width:1.0;" width="10" x="569.5" y="300.8398"/><rect fill="#FFFFFF" height="29.3105" style="stroke:#181818;stroke-width:1.0;" width="10" x="710" y="330.1504"/><rect fill="#FFFFFF" height="29.3105" style="stroke:#181818;stroke-width:1.0;" width="10" x="821" y="388.7715"/><rect fill="#FFFFFF" height="29.3105" style="stroke:#181818;stroke-width:1.0;" width="10" x="942.5" y="447.3926"/><rect fill="#FFFFFF" height="129.5977" style="stroke:#181818;stroke-width:1.0;" width="10" x="942.5" y="506.0137"/><rect fill="#FFFFFF" height="129.5977" style="stroke:#181818;stroke-width:1.0;" width="10" x="1155.5" y="664.9219"/><line style="stroke:#181818;stroke-width:0.5;stroke-dasharray:5.0,5.0;" x1="28" x2="28" y1="81.4883" y2="871.1406"/><line style="stroke:#181818;stroke-width:0.5;stroke-dasharray:5.0,5.0;" x1="335.5" x2="335.5" y1="81.4883" y2="871.1406"/><line style="stroke:#181818;stroke-width:0.5;stroke-dasharray:5.0,5.0;" x1="574.5" x2="574.5" y1="268.7852" y2="871.1406"/><line style="stroke:#181818;stroke-width:0.5;stroke-dasharray:5.0,5.0;" x1="714.5" x2="714.5" y1="81.4883" y2="871.1406"/><line style="stroke:#181818;stroke-width:0.5;stroke-dasharray:5.0,5.0;" x1="825.5" x2="825.5" y1="81.4883" y2="871.1406"/><line style="stroke:#181818;stroke-width:0.5;stroke-dasharray:5.0,5.0;" x1="947.5" x2="947.5" y1="81.4883" y2="871.1406"/><line style="stroke:#181818;stroke-width:0.5;stroke-dasharray:5.0,5.0;" x1="1077" x2="1077" y1="553.002" y2="871.1406"/><line style="stroke:#181818;stroke-width:0.5;stroke-dasharray:5.0,5.0;" x1="1160" x2="1160" y1="81.4883" y2="871.1406"/><line style="stroke:#181818;stroke-width:0.5;stroke-dasharray:5.0,5.0;" x1="1284.5" x2="1284.5" y1="754.2207" y2="871.1406"/><text fill="#000000" font-family="sans-serif" font-size="14" lengthAdjust="spacing" textLength="41" x="5" y="78.5352">Editor</text><ellipse cx="28.5" cy="13.5" fill="#E2E2F0" rx="8" ry="8" style="stroke:#181818;stroke-width:0.5;"/><path d="M28.5,21.5 L28.5,48.5 M15.5,29.5 L41.5,29.5 M28.5,48.5 L15.5,63.5 M28.5,48.5 L41.5,63.5 " fill="none" style="stroke:#181818;stroke-width:0.5;"/><text fill="#000000" font-family="sans-serif" font-size="14" lengthAdjust="spacing" textLength="41" x="5" y="883.6758">Editor</text><ellipse cx="28.5" cy="895.1289" fill="#E2E2F0" rx="8" ry="8" style="stroke:#181818;stroke-width:0.5;"/><path d="M28.5,903.1289 L28.5,930.1289 M15.5,911.1289 L41.5,911.1289 M28.5,930.1289 L15.5,945.1289 M28.5,930.1289 L41.5,945.1289 " fill="none" style="stroke:#181818;stroke-width:0.5;"/><rect fill="#E2E2F0" height="30.4883" rx="2.5" ry="2.5" style="stroke:#181818;stroke-width:0.5;" width="106" x="282.5" y="50"/><text fill="#000000" font-family="sans-serif" font-size="14" lengthAdjust="spacing" textLength="92" x="289.5" y="70.5352">:CreateMapUI</text><rect fill="#E2E2F0" height="30.4883" rx="2.5" ry="2.5" style="stroke:#181818;stroke-width:0.5;" width="106" x="282.5" y="870.1406"/><text fill="#000000" font-family="sans-serif" font-size="14" lengthAdjust="spacing" textLength="92" x="289.5" y="890.6758">:CreateMapUI</text><rect fill="#E2E2F0" height="30.4883" rx="2.5" ry="2.5" style="stroke:#181818;stroke-width:0.5;" width="162" x="493.5" y="870.1406"/><text fill="#000000" font-family="sans-serif" font-size="14" lengthAdjust="spacing" textLength="148" x="500.5" y="890.6758">:CreateMapController</text><rect fill="#E2E2F0" height="30.4883" rx="2.5" ry="2.5" style="stroke:#181818;stroke-width:0.5;" width="99" x="665.5" y="50"/><text fill="#000000" font-family="sans-serif" font-size="14" lengthAdjust="spacing" textLength="85" x="672.5" y="70.5352">Repositories</text><rect fill="#E2E2F0" height="30.4883" rx="2.5" ry="2.5" style="stroke:#181818;stroke-width:0.5;" width="99" x="665.5" y="870.1406"/><text fill="#000000" font-family="sans-serif" font-size="14" lengthAdjust="spacing" textLength="85" x="672.5" y="890.6758">Repositories</text><rect fill="#E2E2F0" height="46.9766" rx="2.5" ry="2.5" style="stroke:#181818;stroke-width:0.5;" width="103" x="774.5" y="33.5117"/><text fill="#000000" font-family="sans-serif" font-size="14" lengthAdjust="spacing" textLength="82" x="785" y="54.0469">repositories</text><text fill="#000000" font-family="sans-serif" font-size="14" lengthAdjust="spacing" textLength="89" x="781.5" y="70.5352">:Repositories</text><rect fill="#E2E2F0" height="46.9766" rx="2.5" ry="2.5" style="stroke:#181818;stroke-width:0.5;" width="103" x="774.5" y="870.1406"/><text fill="#000000" font-family="sans-serif" font-size="14" lengthAdjust="spacing" textLength="82" x="785" y="890.6758">repositories</text><text fill="#000000" font-family="sans-serif" font-size="14" lengthAdjust="spacing" textLength="89" x="781.5" y="907.1641">:Repositories</text><rect fill="#E2E2F0" height="46.9766" rx="2.5" ry="2.5" style="stroke:#181818;stroke-width:0.5;" width="120" x="887.5" y="33.5117"/><text fill="#000000" font-family="sans-serif" font-size="14" lengthAdjust="spacing" textLength="103" x="896" y="54.0469">mapRepository</text><text fill="#000000" font-family="sans-serif" font-size="14" lengthAdjust="spacing" textLength="106" x="894.5" y="70.5352">:MapRepository</text><rect fill="#E2E2F0" height="46.9766" rx="2.5" ry="2.5" style="stroke:#181818;stroke-width:0.5;" width="120" x="887.5" y="870.1406"/><text fill="#000000" font-family="sans-serif" font-size="14" lengthAdjust="spacing" textLength="103" x="896" y="890.6758">mapRepository</text><text fill="#000000" font-family="sans-serif" font-size="14" lengthAdjust="spacing" textLength="106" x="894.5" y="907.1641">:MapRepository</text><rect fill="#E2E2F0" height="46.9766" rx="2.5" ry="2.5" style="stroke:#181818;stroke-width:0.5;" width="47" x="1054" y="870.1406"/><text fill="#000000" font-family="sans-serif" font-size="14" lengthAdjust="spacing" textLength="30" x="1062.5" y="890.6758">map</text><text fill="#000000" font-family="sans-serif" font-size="14" lengthAdjust="spacing" textLength="33" x="1061" y="907.1641">:Map</text><rect fill="#E2E2F0" height="30.4883" rx="2.5" ry="2.5" style="stroke:#181818;stroke-width:0.5;" width="99" x="1111" y="50"/><text fill="#000000" font-family="sans-serif" font-size="14" lengthAdjust="spacing" textLength="85" x="1118" y="70.5352">:MapMapper</text><rect fill="#E2E2F0" height="30.4883" rx="2.5" ry="2.5" style="stroke:#181818;stroke-width:0.5;" width="99" x="1111" y="870.1406"/><text fill="#000000" font-family="sans-serif" font-size="14" lengthAdjust="spacing" textLength="85" x="1118" y="890.6758">:MapMapper</text><rect fill="#E2E2F0" height="46.9766" rx="2.5" ry="2.5" style="stroke:#181818;stroke-width:0.5;" width="71" x="1249.5" y="870.1406"/><text fill="#000000" font-family="sans-serif" font-size="14" lengthAdjust="spacing" textLength="46" x="1262" y="890.6758">objDto</text><text fill="#000000" font-family="sans-serif" font-size="14" lengthAdjust="spacing" textLength="57" x="1256.5" y="907.1641">:MapDto</text><rect fill="#FFFFFF" height="761.6523" style="stroke:#181818;stroke-width:1.0;" width="10" x="23.5" y="91.4883"/><rect fill="#FFFFFF" height="29.3105" style="stroke:#181818;stroke-width:1.0;" width="10" x="330.5" y="112.7988"/><rect fill="#FFFFFF" height="29.3105" style="stroke:#181818;stroke-width:1.0;" width="10" x="330.5" y="171.4199"/><rect fill="#FFFFFF" height="623.0996" style="stroke:#181818;stroke-width:1.0;" width="10" x="330.5" y="230.041"/><rect fill="#FFFFFF" height="522.9902" style="stroke:#181818;stroke-width:1.0;" width="10" x="569.5" y="300.8398"/><rect fill="#FFFFFF" height="29.3105" style="stroke:#181818;stroke-width:1.0;" width="10" x="710" y="330.1504"/><rect fill="#FFFFFF" height="29.3105" style="stroke:#181818;stroke-width:1.0;" width="10" x="821" y="388.7715"/><rect fill="#FFFFFF" height="29.3105" style="stroke:#181818;stroke-width:1.0;" width="10" x="942.5" y="447.3926"/><rect fill="#FFFFFF" height="129.5977" style="stroke:#181818;stroke-width:1.0;" width="10" x="942.5" y="506.0137"/><rect fill="#FFFFFF" height="129.5977" style="stroke:#181818;stroke-width:1.0;" width="10" x="1155.5" y="664.9219"/><polygon fill="#181818" points="318.5,108.7988,328.5,112.7988,318.5,116.7988,322.5,112.7988" style="stroke:#181818;stroke-width:1.0;"/><line style="stroke:#181818;stroke-width:1.0;" x1="33.5" x2="324.5" y1="112.7988" y2="112.7988"/><text fill="#000000" font-family="sans-serif" font-size="13" font-weight="bold" lengthAdjust="spacing" textLength="9" x="40.5" y="108.0566">1</text><text fill="#000000" font-family="sans-serif" font-size="13" lengthAdjust="spacing" textLength="159" x="53.5" y="108.0566">asks to create a new map</text><polygon fill="#181818" points="44.5,138.1094,34.5,142.1094,44.5,146.1094,40.5,142.1094" style="stroke:#181818;stroke-width:1.0;"/><line style="stroke:#181818;stroke-width:1.0;stroke-dasharray:2.0,2.0;" x1="38.5" x2="334.5" y1="142.1094" y2="142.1094"/><text fill="#000000" font-family="sans-serif" font-size="13" font-weight="bold" lengthAdjust="spacing" textLength="9" x="50.5" y="137.3672">2</text><text fill="#000000" font-family="sans-serif" font-size="13" lengthAdjust="spacing" textLength="245" x="63.5" y="137.3672">requests data (i.e: name, width, height)</text><polygon fill="#181818" points="318.5,167.4199,328.5,171.4199,318.5,175.4199,322.5,171.4199" style="stroke:#181818;stroke-width:1.0;"/><line style="stroke:#181818;stroke-width:1.0;" x1="33.5" x2="324.5" y1="171.4199" y2="171.4199"/><text fill="#000000" font-family="sans-serif" font-size="13" font-weight="bold" lengthAdjust="spacing" textLength="9" x="40.5" y="166.6777">3</text><text fill="#000000" font-family="sans-serif" font-size="13" lengthAdjust="spacing" textLength="119" x="53.5" y="166.6777">sends request data</text><polygon fill="#181818" points="44.5,196.7305,34.5,200.7305,44.5,204.7305,40.5,200.7305" style="stroke:#181818;stroke-width:1.0;"/><line style="stroke:#181818;stroke-width:1.0;stroke-dasharray:2.0,2.0;" x1="38.5" x2="334.5" y1="200.7305" y2="200.7305"/><text fill="#000000" font-family="sans-serif" font-size="13" font-weight="bold" lengthAdjust="spacing" textLength="9" x="50.5" y="195.9883">4</text><text fill="#000000" font-family="sans-serif" font-size="13" lengthAdjust="spacing" textLength="260" x="63.5" y="195.9883">shows all data and requests confirmation</text><polygon fill="#181818" points="318.5,226.041,328.5,230.041,318.5,234.041,322.5,230.041" style="stroke:#181818;stroke-width:1.0;"/><line style="stroke:#181818;stroke-width:1.0;" x1="33.5" x2="324.5" y1="230.041" y2="230.041"/><text fill="#000000" font-family="sans-serif" font-size="13" font-weight="bold" lengthAdjust="spacing" textLength="9" x="40.5" y="225.2988">5</text><text fill="#000000" font-family="sans-serif" font-size="13" lengthAdjust="spacing" textLength="87" x="53.5" y="225.2988">confirms data</text><polygon fill="#181818" points="481.5,255.3516,491.5,259.3516,481.5,263.3516,485.5,259.3516" style="stroke:#181818;stroke-width:1.0;"/><line style="stroke:#181818;stroke-width:1.0;stroke-dasharray:2.0,2.0;" x1="340.5" x2="487.5" y1="259.3516" y2="259.3516"/><text fill="#000000" font-family="sans-serif" font-size="13" font-weight="bold" lengthAdjust="spacing" textLength="9" x="347.5" y="254.6094">6</text><text fill="#000000" font-family="sans-serif" font-size="13" lengthAdjust="spacing" textLength="38" x="360.5" y="254.6094">create</text><rect fill="#E2E2F0" height="30.4883" rx="2.5" ry="2.5" style="stroke:#181818;stroke-width:0.5;" width="162" x="493.5" y="238.041"/><text fill="#000000" font-family="sans-serif" font-size="14" lengthAdjust="spacing" textLength="148" x="500.5" y="258.5762">:CreateMapController</text><polygon fill="#181818" points="557.5,296.8398,567.5,300.8398,557.5,304.8398,561.5,300.8398" style="stroke:#181818;stroke-width:1.0;"/><line style="stroke:#181818;stroke-width:1.0;" x1="340.5" x2="563.5" y1="300.8398" y2="300.8398"/><text fill="#000000" font-family="sans-serif" font-size="13" font-weight="bold" lengthAdjust="spacing" textLength="9" x="347.5" y="296.0977">7</text><text fill="#000000" font-family="sans-serif" font-size="13" lengthAdjust="spacing" textLength="197" x="360.5" y="296.0977">createMap(name, width, height)</text><polygon fill="#181818" points="698,326.1504,708,330.1504,698,334.1504,702,330.1504" style="stroke:#181818;stroke-width:1.0;"/><line style="stroke:#181818;stroke-width:1.0;" x1="579.5" x2="704" y1="330.1504" y2="330.1504"/><text fill="#000000" font-family="sans-serif" font-size="13" font-weight="bold" lengthAdjust="spacing" textLength="9" x="586.5" y="325.4082">8</text><text fill="#000000" font-family="sans-serif" font-size="13" lengthAdjust="spacing" textLength="81" x="599.5" y="325.4082">getInstance()</text><polygon fill="#181818" points="590.5,355.4609,580.5,359.4609,590.5,363.4609,586.5,359.4609" style="stroke:#181818;stroke-width:1.0;"/><line style="stroke:#181818;stroke-width:1.0;stroke-dasharray:2.0,2.0;" x1="584.5" x2="714" y1="359.4609" y2="359.4609"/><text fill="#000000" font-family="sans-serif" font-size="13" font-weight="bold" lengthAdjust="spacing" textLength="9" x="596.5" y="354.7188">9</text><text fill="#000000" font-family="sans-serif" font-size="13" lengthAdjust="spacing" textLength="75" x="609.5" y="354.7188">repositories</text><polygon fill="#181818" points="809,384.7715,819,388.7715,809,392.7715,813,388.7715" style="stroke:#181818;stroke-width:1.0;"/><line style="stroke:#181818;stroke-width:1.0;" x1="579.5" x2="815" y1="388.7715" y2="388.7715"/><text fill="#000000" font-family="sans-serif" font-size="13" font-weight="bold" lengthAdjust="spacing" textLength="18" x="586.5" y="384.0293">10</text><text fill="#000000" font-family="sans-serif" font-size="13" lengthAdjust="spacing" textLength="121" x="608.5" y="384.0293">getMapRepository()</text><polygon fill="#181818" points="590.5,414.082,580.5,418.082,590.5,422.082,586.5,418.082" style="stroke:#181818;stroke-width:1.0;"/><line style="stroke:#181818;stroke-width:1.0;stroke-dasharray:2.0,2.0;" x1="584.5" x2="825" y1="418.082" y2="418.082"/><text fill="#000000" font-family="sans-serif" font-size="13" font-weight="bold" lengthAdjust="spacing" textLength="18" x="596.5" y="413.3398">11</text><text fill="#000000" font-family="sans-serif" font-size="13" lengthAdjust="spacing" textLength="94" x="618.5" y="413.3398">mapRepository</text><polygon fill="#181818" points="930.5,443.3926,940.5,447.3926,930.5,451.3926,934.5,447.3926" style="stroke:#181818;stroke-width:1.0;"/><line style="stroke:#181818;stroke-width:1.0;" x1="579.5" x2="936.5" y1="447.3926" y2="447.3926"/><text fill="#000000" font-family="sans-serif" font-size="13" font-weight="bold" lengthAdjust="spacing" textLength="18" x="586.5" y="442.6504">12</text><text fill="#000000" font-family="sans-serif" font-size="13" lengthAdjust="spacing" textLength="153" x="608.5" y="442.6504">checkNameExists(name)</text><polygon fill="#181818" points="590.5,472.7031,580.5,476.7031,590.5,480.7031,586.5,476.7031" style="stroke:#181818;stroke-width:1.0;"/><line style="stroke:#181818;stroke-width:1.0;stroke-dasharray:2.0,2.0;" x1="584.5" x2="946.5" y1="476.7031" y2="476.7031"/><text fill="#000000" font-family="sans-serif" font-size="13" font-weight="bold" lengthAdjust="spacing" textLength="18" x="596.5" y="471.9609">13</text><text fill="#000000" font-family="sans-serif" font-size="13" lengthAdjust="spacing" textLength="30" x="618.5" y="471.9609">false</text><polygon fill="#181818" points="930.5,502.0137,940.5,506.0137,930.5,510.0137,934.5,506.0137" style="stroke:#181818;stroke-width:1.0;"/><line style="stroke:#181818;stroke-width:1.0;" x1="579.5" x2="936.5" y1="506.0137" y2="506.0137"/><text fill="#000000" font-family="sans-serif" font-size="13" font-weight="bold" lengthAdjust="spacing" textLength="18" x="586.5" y="501.2715">14</text><text fill="#000000" font-family="sans-serif" font-size="13" lengthAdjust="spacing" textLength="182" x="608.5" y="501.2715">addMap(name, width, height)</text><polygon fill="#181818" points="1042,531.3242,1052,535.3242,1042,539.3242,1046,535.3242" style="stroke:#181818;stroke-width:1.0;"/><line style="stroke:#181818;stroke-width:1.0;stroke-dasharray:2.0,2.0;" x1="952.5" x2="1048" y1="535.3242" y2="535.3242"/><text fill="#000000" font-family="sans-serif" font-size="13" font-weight="bold" lengthAdjust="spacing" textLength="18" x="959.5" y="530.582">15</text><text fill="#000000" font-family="sans-serif" font-size="13" lengthAdjust="spacing" textLength="38" x="981.5" y="530.582">create</text><rect fill="#E2E2F0" height="46.9766" rx="2.5" ry="2.5" style="stroke:#181818;stroke-width:0.5;" width="47" x="1054" y="514.0137"/><text fill="#000000" font-family="sans-serif" font-size="14" lengthAdjust="spacing" textLength="30" x="1062.5" y="534.5488">map</text><text fill="#000000" font-family="sans-serif" font-size="14" lengthAdjust="spacing" textLength="33" x="1061" y="551.0371">:Map</text><line style="stroke:#181818;stroke-width:1.0;" x1="952.5" x2="994.5" y1="593.3008" y2="593.3008"/><line style="stroke:#181818;stroke-width:1.0;" x1="994.5" x2="994.5" y1="593.3008" y2="606.3008"/><line style="stroke:#181818;stroke-width:1.0;" x1="953.5" x2="994.5" y1="606.3008" y2="606.3008"/><polygon fill="#181818" points="963.5,602.3008,953.5,606.3008,963.5,610.3008,959.5,606.3008" style="stroke:#181818;stroke-width:1.0;"/><text fill="#000000" font-family="sans-serif" font-size="13" font-weight="bold" lengthAdjust="spacing" textLength="18" x="959.5" y="588.5586">16</text><text fill="#000000" font-family="sans-serif" font-size="13" lengthAdjust="spacing" textLength="84" x="981.5" y="588.5586">addMap(map)</text><polygon fill="#181818" points="590.5,631.6113,580.5,635.6113,590.5,639.6113,586.5,635.6113" style="stroke:#181818;stroke-width:1.0;"/><line style="stroke:#181818;stroke-width:1.0;stroke-dasharray:2.0,2.0;" x1="584.5" x2="946.5" y1="635.6113" y2="635.6113"/><text fill="#000000" font-family="sans-serif" font-size="13" font-weight="bold" lengthAdjust="spacing" textLength="18" x="596.5" y="630.8691">17</text><text fill="#000000" font-family="sans-serif" font-size="13" lengthAdjust="spacing" textLength="27" x="618.5" y="630.8691">map</text><polygon fill="#181818" points="1143.5,660.9219,1153.5,664.9219,1143.5,668.9219,1147.5,664.9219" style="stroke:#181818;stroke-width:1.0;"/><line style="stroke:#181818;stroke-width:1.0;" x1="579.5" x2="1149.5" y1="664.9219" y2="664.9219"/><text fill="#000000" font-family="sans-serif" font-size="13" font-weight="bold" lengthAdjust="spacing" textLength="18" x="586.5" y="660.1797">18</text><text fill="#000000" font-family="sans-serif" font-size="13" lengthAdjust="spacing" textLength="71" x="608.5" y="660.1797">toDto(map)</text><line style="stroke:#181818;stroke-width:1.0;" x1="1165.5" x2="1207.5" y1="694.2324" y2="694.2324"/><line style="stroke:#181818;stroke-width:1.0;" x1="1207.5" x2="1207.5" y1="694.2324" y2="707.2324"/><line style="stroke:#181818;stroke-width:1.0;" x1="1166.5" x2="1207.5" y1="707.2324" y2="707.2324"/><polygon fill="#181818" points="1176.5,703.2324,1166.5,707.2324,1176.5,711.2324,1172.5,707.2324" style="stroke:#181818;stroke-width:1.0;"/><text fill="#000000" font-family="sans-serif" font-size="13" font-weight="bold" lengthAdjust="spacing" textLength="18" x="1172.5" y="689.4902">19</text><text fill="#000000" font-family="sans-serif" font-size="13" lengthAdjust="spacing" textLength="71" x="1194.5" y="689.4902">toDto(map)</text><polygon fill="#181818" points="1237.5,732.543,1247.5,736.543,1237.5,740.543,1241.5,736.543" style="stroke:#181818;stroke-width:1.0;"/><line style="stroke:#181818;stroke-width:1.0;stroke-dasharray:2.0,2.0;" x1="1165.5" x2="1243.5" y1="736.543" y2="736.543"/><text fill="#000000" font-family="sans-serif" font-size="13" font-weight="bold" lengthAdjust="spacing" textLength="18" x="1172.5" y="731.8008">20</text><text fill="#000000" font-family="sans-serif" font-size="13" lengthAdjust="spacing" textLength="38" x="1194.5" y="731.8008">create</text><rect fill="#E2E2F0" height="46.9766" rx="2.5" ry="2.5" style="stroke:#181818;stroke-width:0.5;" width="71" x="1249.5" y="715.2324"/><text fill="#000000" font-family="sans-serif" font-size="14" lengthAdjust="spacing" textLength="46" x="1262" y="735.7676">objDto</text><text fill="#000000" font-family="sans-serif" font-size="14" lengthAdjust="spacing" textLength="57" x="1256.5" y="752.2559">:MapDto</text><polygon fill="#181818" points="590.5,790.5195,580.5,794.5195,590.5,798.5195,586.5,794.5195" style="stroke:#181818;stroke-width:1.0;"/><line style="stroke:#181818;stroke-width:1.0;stroke-dasharray:2.0,2.0;" x1="584.5" x2="1159.5" y1="794.5195" y2="794.5195"/><text fill="#000000" font-family="sans-serif" font-size="13" font-weight="bold" lengthAdjust="spacing" textLength="18" x="596.5" y="789.7773">21</text><text fill="#000000" font-family="sans-serif" font-size="13" lengthAdjust="spacing" textLength="50" x="618.5" y="789.7773">mapDto</text><polygon fill="#181818" points="351.5,819.8301,341.5,823.8301,351.5,827.8301,347.5,823.8301" style="stroke:#181818;stroke-width:1.0;"/><line style="stroke:#181818;stroke-width:1.0;stroke-dasharray:2.0,2.0;" x1="345.5" x2="573.5" y1="823.8301" y2="823.8301"/><text fill="#000000" font-family="sans-serif" font-size="13" font-weight="bold" lengthAdjust="spacing" textLength="18" x="357.5" y="819.0879">22</text><text fill="#000000" font-family="sans-serif" font-size="13" lengthAdjust="spacing" textLength="50" x="379.5" y="819.0879">mapDto</text><polygon fill="#181818" points="39.5,849.1406,29.5,853.1406,39.5,857.1406,35.5,853.1406" style="stroke:#181818;stroke-width:1.0;"/><line style="stroke:#181818;stroke-width:1.0;stroke-dasharray:2.0,2.0;" x1="33.5" x2="334.5" y1="853.1406" y2="853.1406"/><text fill="#000000" font-family="sans-serif" font-size="13" font-weight="bold" lengthAdjust="spacing" textLength="18" x="45.5" y="848.3984">23</text><text fill="#000000" font-family="sans-serif" font-size="13" lengthAdjust="spacing" textLength="170" x="67.5" y="848.3984">displays operation success</text><!--SRC=[dLN1Rk8m4BtdAqPS2gZq0t9OQSMYLQH24RItbIgJ3CHBOgUnMShVxzWc8Gu9HOsGiEFtdf_7CvC7jUUYO2NB8PT2ncafSmHT7Z2uh1GithCThlKfGoWnrapiiYP0fIoHHovsi6MPmY1W1ot58TzW6GGFAKyGjbBgZVmCMAnb2ODPmkb_04p1stgs2aX7yvWNJ6WOXDCIcSOvAzuY1udw05CfT2cp39tMz7Nrx4DNM4XbzkAeB6GrMxwitzVHulVpxFLbuQFB1lgF2Bl9FYLdHGqx4MVUd5lI_EVotH2lU0vTOLf7f1Nw5UU3qVgo7IQv-VjBIoT20uUpmy24cV-Z4Bde1a2F6S7a1mKJGeBk5MW9iGqaC11u1BBae1Tsv5vOVWGJGpSo8QN1nm6LLf0mpM38dp04mN9yX2DFTFe8AV9TgaUEd-2Lf6T7eKXKfMabxpQYKdbKmBBCEM4YkNYBfTZoCcUQIt6VaJD3tUd1vDjuR7WsZlwwMwuNwMg6_H7oTh9fNBysZrKYnLRsalWETIGKbMICmv5FglNQEU-XpDEMdLpCDql29pPYUNC3pxjpx1N9RTizPfiMlHAyxR7RMLMXvgvIZFSBkgRP9wSKiZVMvwykx2kBjM33vRarzhZhrkemo9BawqpwZasQTARoDRZB3zt1wBuur5tcEr6W9XXItw8Urx5ZKsPPjRsMdQKhzg-accW3jsrrFBuPdGfixDfZsaxSVz8hY-wSLIjg2pJ8Vd_m-s72LP6nam99tmxR-K0TuXYLieIkBjYSci_5Vm00]--></g></svg>