<svg xmlns="http://www.w3.org/2000/svg" xmlns:xlink="http://www.w3.org/1999/xlink" contentStyleType="text/css" height="761px" preserveAspectRatio="none" style="width:1387px;height:761px;background:#FFFFFF;" version="1.1" viewBox="0 0 1387 761" width="1387px" zoomAndPan="magnify"><defs/><g><!--cluster shodrone--><g id="cluster_shodrone"><path d="M8.5,6.0137 L73.2793,6.0137 A3.75,3.75 0 0 1 75.7793,8.5137 L82.7793,30.6348 L1377.5,30.6348 A2.5,2.5 0 0 1 1380,33.1348 L1380,752.0137 A2.5,2.5 0 0 1 1377.5,754.5137 L8.5,754.5137 A2.5,2.5 0 0 1 6,752.0137 L6,8.5137 A2.5,2.5 0 0 1 8.5,6.0137 " fill="#D6EAF8" style="stroke:#000000;stroke-width:1.5;"/><line style="stroke:#000000;stroke-width:1.5;" x1="6" x2="82.7793" y1="30.6348" y2="30.6348"/><text fill="#000000" font-family="sans-serif" font-size="14" font-weight="bold" lengthAdjust="spacing" textLength="63.7793" x="10" y="23.1211">shodrone</text></g><!--cluster core--><g id="cluster_core"><path d="M32.5,51.0137 L63.0723,51.0137 A3.75,3.75 0 0 1 65.5723,53.5137 L72.5723,75.6348 L1353.5,75.6348 A2.5,2.5 0 0 1 1356,78.1348 L1356,728.0137 A2.5,2.5 0 0 1 1353.5,730.5137 L32.5,730.5137 A2.5,2.5 0 0 1 30,728.0137 L30,53.5137 A2.5,2.5 0 0 1 32.5,51.0137 " fill="#D6EAF8" style="stroke:#000000;stroke-width:1.5;"/><line style="stroke:#000000;stroke-width:1.5;" x1="30" x2="72.5723" y1="75.6348" y2="75.6348"/><text fill="#000000" font-family="sans-serif" font-size="14" font-weight="bold" lengthAdjust="spacing" textLength="29.5723" x="34" y="68.1211">core</text></g><!--cluster usermanagement--><g id="cluster_usermanagement"><path d="M844.5,96.0137 L961.4307,96.0137 A3.75,3.75 0 0 1 963.9307,98.5137 L970.9307,120.6348 L1329.5,120.6348 A2.5,2.5 0 0 1 1332,123.1348 L1332,546.0137 A2.5,2.5 0 0 1 1329.5,548.5137 L844.5,548.5137 A2.5,2.5 0 0 1 842,546.0137 L842,98.5137 A2.5,2.5 0 0 1 844.5,96.0137 " fill="#D6EAF8" style="stroke:#000000;stroke-width:1.5;"/><line style="stroke:#000000;stroke-width:1.5;" x1="842" x2="970.9307" y1="120.6348" y2="120.6348"/><text fill="#000000" font-family="sans-serif" font-size="14" font-weight="bold" lengthAdjust="spacing" textLength="115.9307" x="846" y="113.1211">usermanagement</text></g><!--cluster domain--><g id="cluster_domain"><path d="M1052.5,141.0137 L1103.2793,141.0137 A3.75,3.75 0 0 1 1105.7793,143.5137 L1112.7793,165.6348 L1305.5,165.6348 A2.5,2.5 0 0 1 1308,168.1348 L1308,522.0137 A2.5,2.5 0 0 1 1305.5,524.5137 L1052.5,524.5137 A2.5,2.5 0 0 1 1050,522.0137 L1050,143.5137 A2.5,2.5 0 0 1 1052.5,141.0137 " fill="#D6EAF8" style="stroke:#000000;stroke-width:1.5;"/><line style="stroke:#000000;stroke-width:1.5;" x1="1050" x2="1112.7793" y1="165.6348" y2="165.6348"/><text fill="#000000" font-family="sans-serif" font-size="14" font-weight="bold" lengthAdjust="spacing" textLength="49.7793" x="1054" y="158.1211">domain</text><text fill="#000000" font-family="sans-serif" font-size="14" font-style="italic" lengthAdjust="spacing" textLength="80.1787" x="1142.9106" y="182.7422">&#171;Aggregate&#187;</text></g><!--cluster repository--><g id="cluster_repository"><path d="M868.5,166.5137 L937.9619,166.5137 A3.75,3.75 0 0 1 940.4619,169.0137 L947.4619,191.1348 L1023.5,191.1348 A2.5,2.5 0 0 1 1026,193.6348 L1026,265.0137 A2.5,2.5 0 0 1 1023.5,267.5137 L868.5,267.5137 A2.5,2.5 0 0 1 866,265.0137 L866,169.0137 A2.5,2.5 0 0 1 868.5,166.5137 " fill="#D6EAF8" style="stroke:#000000;stroke-width:1.5;"/><line style="stroke:#000000;stroke-width:1.5;" x1="866" x2="947.4619" y1="191.1348" y2="191.1348"/><text fill="#000000" font-family="sans-serif" font-size="14" font-weight="bold" lengthAdjust="spacing" textLength="68.4619" x="870" y="183.6211">repository</text></g><!--cluster showproposalmanagement--><g id="cluster_showproposalmanagement"><path d="M56.5,96.5137 L238.7549,96.5137 A3.75,3.75 0 0 1 241.2549,99.0137 L248.2549,121.1348 L815.5,121.1348 A2.5,2.5 0 0 1 818,123.6348 L818,704.0137 A2.5,2.5 0 0 1 815.5,706.5137 L56.5,706.5137 A2.5,2.5 0 0 1 54,704.0137 L54,99.0137 A2.5,2.5 0 0 1 56.5,96.5137 " fill="#D6EAF8" style="stroke:#000000;stroke-width:1.5;"/><line style="stroke:#000000;stroke-width:1.5;" x1="54" x2="248.2549" y1="121.1348" y2="121.1348"/><text fill="#000000" font-family="sans-serif" font-size="14" font-weight="bold" lengthAdjust="spacing" textLength="181.2549" x="58" y="113.6211">showproposalmanagement</text></g><!--cluster domain--><g id="cluster_domain"><path d="M259.5,336.0137 L310.2793,336.0137 A3.75,3.75 0 0 1 312.7793,338.5137 L319.7793,360.6348 L619.5,360.6348 A2.5,2.5 0 0 1 622,363.1348 L622,680.0137 A2.5,2.5 0 0 1 619.5,682.5137 L259.5,682.5137 A2.5,2.5 0 0 1 257,680.0137 L257,338.5137 A2.5,2.5 0 0 1 259.5,336.0137 " fill="#D6EAF8" style="stroke:#000000;stroke-width:1.5;"/><line style="stroke:#000000;stroke-width:1.5;" x1="257" x2="319.7793" y1="360.6348" y2="360.6348"/><text fill="#000000" font-family="sans-serif" font-size="14" font-weight="bold" lengthAdjust="spacing" textLength="49.7793" x="261" y="353.1211">domain</text><text fill="#000000" font-family="sans-serif" font-size="14" font-style="italic" lengthAdjust="spacing" textLength="80.1787" x="403.4106" y="377.7422">&#171;Aggregate&#187;</text></g><!--cluster service--><g id="cluster_service"><path d="M326.5,141.5137 L375.7686,141.5137 A3.75,3.75 0 0 1 378.2686,144.0137 L385.2686,166.1348 L791.5,166.1348 A2.5,2.5 0 0 1 794,168.6348 L794,290.0137 A2.5,2.5 0 0 1 791.5,292.5137 L326.5,292.5137 A2.5,2.5 0 0 1 324,290.0137 L324,144.0137 A2.5,2.5 0 0 1 326.5,141.5137 " fill="#D6EAF8" style="stroke:#000000;stroke-width:1.5;"/><line style="stroke:#000000;stroke-width:1.5;" x1="324" x2="385.2686" y1="166.1348" y2="166.1348"/><text fill="#000000" font-family="sans-serif" font-size="14" font-weight="bold" lengthAdjust="spacing" textLength="48.2686" x="328" y="158.6211">service</text></g><!--cluster repository--><g id="cluster_repository"><path d="M80.5,166.5137 L149.9619,166.5137 A3.75,3.75 0 0 1 152.4619,169.0137 L159.4619,191.1348 L297.5,191.1348 A2.5,2.5 0 0 1 300,193.6348 L300,265.0137 A2.5,2.5 0 0 1 297.5,267.5137 L80.5,267.5137 A2.5,2.5 0 0 1 78,265.0137 L78,169.0137 A2.5,2.5 0 0 1 80.5,166.5137 " fill="#D6EAF8" style="stroke:#000000;stroke-width:1.5;"/><line style="stroke:#000000;stroke-width:1.5;" x1="78" x2="159.4619" y1="191.1348" y2="191.1348"/><text fill="#000000" font-family="sans-serif" font-size="14" font-weight="bold" lengthAdjust="spacing" textLength="68.4619" x="82" y="183.6211">repository</text></g><!--class User--><g id="elem_User"><rect codeLine="12" fill="#F1F1F1" height="60.582" id="User" rx="2.5" ry="2.5" style="stroke:#181818;stroke-width:0.5;" width="158.752" x="1099.5" y="197.0137"/><ellipse cx="1114.5" cy="219.3047" fill="#ADD1B2" rx="11" ry="11" style="stroke:#181818;stroke-width:1.0;"/><path d="M1117.2656,215.1797 Q1117.4219,214.9609 1117.6094,214.8516 Q1117.7969,214.7422 1118.0156,214.7422 Q1118.3906,214.7422 1118.625,215.0078 Q1118.8594,215.2578 1118.8594,215.8672 L1118.8594,217.3203 Q1118.8594,217.9297 1118.625,218.1953 Q1118.3906,218.4609 1118.0156,218.4609 Q1117.6719,218.4609 1117.4688,218.2578 Q1117.2656,218.0703 1117.1563,217.5547 Q1117.1094,217.1953 1116.9219,217.0078 Q1116.5938,216.6328 1115.9844,216.4141 Q1115.375,216.1953 1114.75,216.1953 Q1113.9844,216.1953 1113.3438,216.5234 Q1112.7188,216.8516 1112.2188,217.6016 Q1111.7344,218.3516 1111.7344,219.3828 L1111.7344,220.4766 Q1111.7344,221.7109 1112.625,222.5391 Q1113.5156,223.3516 1115.1094,223.3516 Q1116.0469,223.3516 1116.7031,223.1016 Q1117.0938,222.9453 1117.5156,222.5078 Q1117.7813,222.2422 1117.9219,222.1641 Q1118.0781,222.0859 1118.2813,222.0859 Q1118.6094,222.0859 1118.8594,222.3516 Q1119.125,222.6016 1119.125,222.9453 Q1119.125,223.2891 1118.7813,223.6953 Q1118.2813,224.2734 1117.4844,224.6016 Q1116.4063,225.0547 1115.1094,225.0547 Q1113.5938,225.0547 1112.3906,224.4297 Q1111.4063,223.9297 1110.7188,222.8672 Q1110.0313,221.7891 1110.0313,220.5078 L1110.0313,219.3516 Q1110.0313,218.0234 1110.6406,216.8828 Q1111.2656,215.7266 1112.3594,215.1172 Q1113.4531,214.4922 1114.6875,214.4922 Q1115.4219,214.4922 1116.0625,214.6641 Q1116.7188,214.8203 1117.2656,215.1797 Z " fill="#000000"/><text fill="#000000" font-family="sans-serif" font-size="12" font-style="italic" lengthAdjust="spacing" textLength="130.752" x="1126.5" y="214.9629">&#171;Entity, AggregateRoot&#187;</text><text fill="#000000" font-family="sans-serif" font-size="14" lengthAdjust="spacing" textLength="29.5586" x="1177.0967" y="233.082">User</text><line style="stroke:#181818;stroke-width:0.5;" x1="1100.5" x2="1257.252" y1="241.5957" y2="241.5957"/><line style="stroke:#181818;stroke-width:0.5;" x1="1100.5" x2="1257.252" y1="249.5957" y2="249.5957"/></g><!--class Role--><g id="elem_Role"><rect codeLine="13" fill="#F1F1F1" height="172.3086" id="Role" rx="2.5" ry="2.5" style="stroke:#181818;stroke-width:0.5;" width="225.9238" x="1066" y="336.5137"/><ellipse cx="1154.3643" cy="358.8047" fill="#EB937F" rx="11" ry="11" style="stroke:#181818;stroke-width:1.0;"/><path d="M1153.2236,359.6016 L1153.2236,362.1016 L1157.5518,362.1016 L1157.5518,361.1797 Q1157.5518,360.5703 1157.7861,360.3047 Q1158.0361,360.0391 1158.4111,360.0391 Q1158.7861,360.0391 1159.0205,360.3047 Q1159.2549,360.5703 1159.2549,361.1797 L1159.2549,363.8047 L1151.2549,363.8047 Q1150.6299,363.8047 1150.3643,363.5703 Q1150.1143,363.3359 1150.1143,362.9453 Q1150.1143,362.5703 1150.3799,362.3359 Q1150.6455,362.1016 1151.2549,362.1016 L1151.5205,362.1016 L1151.5205,355.4453 L1151.2549,355.4453 Q1150.6299,355.4453 1150.3643,355.2109 Q1150.1143,354.9766 1150.1143,354.5859 Q1150.1143,354.2109 1150.3643,353.9766 Q1150.6299,353.7422 1151.2549,353.7422 L1158.8799,353.7422 L1158.8799,356.3359 Q1158.8799,356.9453 1158.6455,357.2109 Q1158.4268,357.4609 1158.0361,357.4609 Q1157.6611,357.4609 1157.4268,357.2109 Q1157.1924,356.9453 1157.1924,356.3359 L1157.1924,355.4453 L1153.2236,355.4453 L1153.2236,357.8984 L1154.708,357.8984 Q1154.708,357.2422 1154.833,357.0547 Q1155.0986,356.6484 1155.5674,356.6484 Q1155.9424,356.6484 1156.1768,356.9141 Q1156.4111,357.1641 1156.4111,357.7734 L1156.4111,359.7422 Q1156.4111,360.2891 1156.2861,360.4766 Q1156.0205,360.8672 1155.5674,360.8672 Q1155.0986,360.8672 1154.833,360.4609 Q1154.708,360.2734 1154.708,359.6016 L1153.2236,359.6016 Z " fill="#000000"/><text fill="#000000" font-family="sans-serif" font-size="12" font-style="italic" lengthAdjust="spacing" textLength="44.6953" x="1172.8643" y="354.4629">&#171;Enum&#187;</text><text fill="#000000" font-family="sans-serif" font-size="14" lengthAdjust="spacing" textLength="28.793" x="1180.8154" y="372.582">Role</text><line style="stroke:#181818;stroke-width:0.5;" x1="1067" x2="1290.9238" y1="381.0957" y2="381.0957"/><text fill="#000000" font-family="sans-serif" font-size="14" lengthAdjust="spacing" textLength="49" x="1072" y="400.2031">ADMIN,</text><text fill="#000000" font-family="sans-serif" font-size="14" lengthAdjust="spacing" textLength="114.3447" x="1072" y="418.8242">CRM_MANAGER,</text><text fill="#000000" font-family="sans-serif" font-size="14" lengthAdjust="spacing" textLength="158.6963" x="1072" y="437.4453">CRM_COLLABORATOR,</text><text fill="#000000" font-family="sans-serif" font-size="14" lengthAdjust="spacing" textLength="128.3516" x="1072" y="456.0664">SHOW_DESIGNER,</text><text fill="#000000" font-family="sans-serif" font-size="14" lengthAdjust="spacing" textLength="100.3447" x="1072" y="474.6875">DRONE_TECH,</text><text fill="#000000" font-family="sans-serif" font-size="14" lengthAdjust="spacing" textLength="213.9238" x="1072" y="493.3086">CUSTOMER_REPRESENTATIVE</text><line style="stroke:#181818;stroke-width:0.5;" x1="1067" x2="1290.9238" y1="500.8223" y2="500.8223"/></g><!--class UserRepository--><g id="elem_UserRepository"><rect codeLine="24" fill="#F1F1F1" height="48" id="UserRepository" rx="2.5" ry="2.5" style="stroke:#181818;stroke-width:0.5;" width="128.4756" x="882" y="203.5137"/><ellipse cx="897" cy="219.5137" fill="#B4A7E5" rx="11" ry="11" style="stroke:#181818;stroke-width:1.0;"/><path d="M897.9531,216.1543 L897.9531,222.8105 L899.6719,222.8105 Q900.2813,222.8105 900.5469,223.0449 Q900.8125,223.2793 900.8125,223.6699 Q900.8125,224.0449 900.5469,224.2793 Q900.2813,224.5137 899.6719,224.5137 L894.5313,224.5137 Q893.9219,224.5137 893.6563,224.2793 Q893.3906,224.0449 893.3906,223.6543 Q893.3906,223.2793 893.6563,223.0449 Q893.9219,222.8105 894.5313,222.8105 L896.25,222.8105 L896.25,216.1543 L894.5313,216.1543 Q893.9219,216.1543 893.6563,215.9199 Q893.3906,215.6855 893.3906,215.2949 Q893.3906,214.9199 893.6563,214.6855 Q893.9219,214.4512 894.5313,214.4512 L899.6719,214.4512 Q900.2813,214.4512 900.5469,214.6855 Q900.8125,214.9199 900.8125,215.2949 Q900.8125,215.6855 900.5469,215.9199 Q900.2813,216.1543 899.6719,216.1543 L897.9531,216.1543 Z " fill="#000000"/><text fill="#000000" font-family="sans-serif" font-size="14" font-style="italic" lengthAdjust="spacing" textLength="96.4756" x="911" y="225.3105">UserRepository</text><line style="stroke:#181818;stroke-width:0.5;" x1="883" x2="1009.4756" y1="235.5137" y2="235.5137"/><line style="stroke:#181818;stroke-width:0.5;" x1="883" x2="1009.4756" y1="243.5137" y2="243.5137"/></g><!--class ShowProposal--><g id="elem_ShowProposal"><rect codeLine="30" fill="#F1F1F1" height="60.582" id="ShowProposal" rx="2.5" ry="2.5" style="stroke:#181818;stroke-width:0.5;" width="158.752" x="280.5" y="392.0137"/><ellipse cx="295.5" cy="414.3047" fill="#ADD1B2" rx="11" ry="11" style="stroke:#181818;stroke-width:1.0;"/><path d="M298.2656,410.1797 Q298.4219,409.9609 298.6094,409.8516 Q298.7969,409.7422 299.0156,409.7422 Q299.3906,409.7422 299.625,410.0078 Q299.8594,410.2578 299.8594,410.8672 L299.8594,412.3203 Q299.8594,412.9297 299.625,413.1953 Q299.3906,413.4609 299.0156,413.4609 Q298.6719,413.4609 298.4688,413.2578 Q298.2656,413.0703 298.1563,412.5547 Q298.1094,412.1953 297.9219,412.0078 Q297.5938,411.6328 296.9844,411.4141 Q296.375,411.1953 295.75,411.1953 Q294.9844,411.1953 294.3438,411.5234 Q293.7188,411.8516 293.2188,412.6016 Q292.7344,413.3516 292.7344,414.3828 L292.7344,415.4766 Q292.7344,416.7109 293.625,417.5391 Q294.5156,418.3516 296.1094,418.3516 Q297.0469,418.3516 297.7031,418.1016 Q298.0938,417.9453 298.5156,417.5078 Q298.7813,417.2422 298.9219,417.1641 Q299.0781,417.0859 299.2813,417.0859 Q299.6094,417.0859 299.8594,417.3516 Q300.125,417.6016 300.125,417.9453 Q300.125,418.2891 299.7813,418.6953 Q299.2813,419.2734 298.4844,419.6016 Q297.4063,420.0547 296.1094,420.0547 Q294.5938,420.0547 293.3906,419.4297 Q292.4063,418.9297 291.7188,417.8672 Q291.0313,416.7891 291.0313,415.5078 L291.0313,414.3516 Q291.0313,413.0234 291.6406,411.8828 Q292.2656,410.7266 293.3594,410.1172 Q294.4531,409.4922 295.6875,409.4922 Q296.4219,409.4922 297.0625,409.6641 Q297.7188,409.8203 298.2656,410.1797 Z " fill="#000000"/><text fill="#000000" font-family="sans-serif" font-size="12" font-style="italic" lengthAdjust="spacing" textLength="130.752" x="307.5" y="409.9629">&#171;Entity, AggregateRoot&#187;</text><text fill="#000000" font-family="sans-serif" font-size="14" lengthAdjust="spacing" textLength="90.2754" x="327.7383" y="428.082">ShowProposal</text><line style="stroke:#181818;stroke-width:0.5;" x1="281.5" x2="438.252" y1="436.5957" y2="436.5957"/><line style="stroke:#181818;stroke-width:0.5;" x1="281.5" x2="438.252" y1="444.5957" y2="444.5957"/></g><!--class ShowProposalID--><g id="elem_ShowProposalID"><rect codeLine="31" fill="#F1F1F1" height="60.582" id="ShowProposalID" rx="2.5" ry="2.5" style="stroke:#181818;stroke-width:0.5;" width="136.2754" x="273" y="587.0137"/><ellipse cx="288" cy="609.3047" fill="#ADD1B2" rx="11" ry="11" style="stroke:#181818;stroke-width:1.0;"/><path d="M290.7656,605.1797 Q290.9219,604.9609 291.1094,604.8516 Q291.2969,604.7422 291.5156,604.7422 Q291.8906,604.7422 292.125,605.0078 Q292.3594,605.2578 292.3594,605.8672 L292.3594,607.3203 Q292.3594,607.9297 292.125,608.1953 Q291.8906,608.4609 291.5156,608.4609 Q291.1719,608.4609 290.9688,608.2578 Q290.7656,608.0703 290.6563,607.5547 Q290.6094,607.1953 290.4219,607.0078 Q290.0938,606.6328 289.4844,606.4141 Q288.875,606.1953 288.25,606.1953 Q287.4844,606.1953 286.8438,606.5234 Q286.2188,606.8516 285.7188,607.6016 Q285.2344,608.3516 285.2344,609.3828 L285.2344,610.4766 Q285.2344,611.7109 286.125,612.5391 Q287.0156,613.3516 288.6094,613.3516 Q289.5469,613.3516 290.2031,613.1016 Q290.5938,612.9453 291.0156,612.5078 Q291.2813,612.2422 291.4219,612.1641 Q291.5781,612.0859 291.7813,612.0859 Q292.1094,612.0859 292.3594,612.3516 Q292.625,612.6016 292.625,612.9453 Q292.625,613.2891 292.2813,613.6953 Q291.7813,614.2734 290.9844,614.6016 Q289.9063,615.0547 288.6094,615.0547 Q287.0938,615.0547 285.8906,614.4297 Q284.9063,613.9297 284.2188,612.8672 Q283.5313,611.7891 283.5313,610.5078 L283.5313,609.3516 Q283.5313,608.0234 284.1406,606.8828 Q284.7656,605.7266 285.8594,605.1172 Q286.9531,604.4922 288.1875,604.4922 Q288.9219,604.4922 289.5625,604.6641 Q290.2188,604.8203 290.7656,605.1797 Z " fill="#000000"/><text fill="#000000" font-family="sans-serif" font-size="12" font-style="italic" lengthAdjust="spacing" textLength="78.7207" x="314.7773" y="604.9629">&#171;ValueObject&#187;</text><text fill="#000000" font-family="sans-serif" font-size="14" lengthAdjust="spacing" textLength="104.2754" x="302" y="623.082">ShowProposalID</text><line style="stroke:#181818;stroke-width:0.5;" x1="274" x2="408.2754" y1="631.5957" y2="631.5957"/><line style="stroke:#181818;stroke-width:0.5;" x1="274" x2="408.2754" y1="639.5957" y2="639.5957"/></g><!--class ShowProposalStatus--><g id="elem_ShowProposalStatus"><rect codeLine="33" fill="#F1F1F1" height="97.8242" id="ShowProposalStatus" rx="2.5" ry="2.5" style="stroke:#181818;stroke-width:0.5;" width="161.9648" x="444" y="568.5137"/><ellipse cx="459" cy="590.8047" fill="#EB937F" rx="11" ry="11" style="stroke:#181818;stroke-width:1.0;"/><path d="M457.8594,591.6016 L457.8594,594.1016 L462.1875,594.1016 L462.1875,593.1797 Q462.1875,592.5703 462.4219,592.3047 Q462.6719,592.0391 463.0469,592.0391 Q463.4219,592.0391 463.6563,592.3047 Q463.8906,592.5703 463.8906,593.1797 L463.8906,595.8047 L455.8906,595.8047 Q455.2656,595.8047 455,595.5703 Q454.75,595.3359 454.75,594.9453 Q454.75,594.5703 455.0156,594.3359 Q455.2813,594.1016 455.8906,594.1016 L456.1563,594.1016 L456.1563,587.4453 L455.8906,587.4453 Q455.2656,587.4453 455,587.2109 Q454.75,586.9766 454.75,586.5859 Q454.75,586.2109 455,585.9766 Q455.2656,585.7422 455.8906,585.7422 L463.5156,585.7422 L463.5156,588.3359 Q463.5156,588.9453 463.2813,589.2109 Q463.0625,589.4609 462.6719,589.4609 Q462.2969,589.4609 462.0625,589.2109 Q461.8281,588.9453 461.8281,588.3359 L461.8281,587.4453 L457.8594,587.4453 L457.8594,589.8984 L459.3438,589.8984 Q459.3438,589.2422 459.4688,589.0547 Q459.7344,588.6484 460.2031,588.6484 Q460.5781,588.6484 460.8125,588.9141 Q461.0469,589.1641 461.0469,589.7734 L461.0469,591.7422 Q461.0469,592.2891 460.9219,592.4766 Q460.6563,592.8672 460.2031,592.8672 Q459.7344,592.8672 459.4688,592.4609 Q459.3438,592.2734 459.3438,591.6016 L457.8594,591.6016 Z " fill="#000000"/><text fill="#000000" font-family="sans-serif" font-size="12" font-style="italic" lengthAdjust="spacing" textLength="44.6953" x="515.6348" y="586.4629">&#171;Enum&#187;</text><text fill="#000000" font-family="sans-serif" font-size="14" lengthAdjust="spacing" textLength="129.9648" x="473" y="604.582">ShowProposalStatus</text><line style="stroke:#181818;stroke-width:0.5;" x1="445" x2="604.9648" y1="613.0957" y2="613.0957"/><text fill="#000000" font-family="sans-serif" font-size="14" lengthAdjust="spacing" textLength="80.124" x="450" y="632.2031">ACCEPTED,</text><text fill="#000000" font-family="sans-serif" font-size="14" lengthAdjust="spacing" textLength="73.8965" x="450" y="650.8242">REJECTED</text><line style="stroke:#181818;stroke-width:0.5;" x1="445" x2="604.9648" y1="658.3379" y2="658.3379"/></g><!--class ShowProposalService--><g id="elem_ShowProposalService"><rect codeLine="41" fill="#F1F1F1" height="97.8242" id="ShowProposalService" rx="2.5" ry="2.5" style="stroke:#181818;stroke-width:0.5;" width="436.8877" x="340.5" y="178.5137"/><ellipse cx="486.2148" cy="200.8047" fill="#ADD1B2" rx="11" ry="11" style="stroke:#181818;stroke-width:1.0;"/><path d="M488.9805,196.6797 Q489.1367,196.4609 489.3242,196.3516 Q489.5117,196.2422 489.7305,196.2422 Q490.1055,196.2422 490.3398,196.5078 Q490.5742,196.7578 490.5742,197.3672 L490.5742,198.8203 Q490.5742,199.4297 490.3398,199.6953 Q490.1055,199.9609 489.7305,199.9609 Q489.3867,199.9609 489.1836,199.7578 Q488.9805,199.5703 488.8711,199.0547 Q488.8242,198.6953 488.6367,198.5078 Q488.3086,198.1328 487.6992,197.9141 Q487.0898,197.6953 486.4648,197.6953 Q485.6992,197.6953 485.0586,198.0234 Q484.4336,198.3516 483.9336,199.1016 Q483.4492,199.8516 483.4492,200.8828 L483.4492,201.9766 Q483.4492,203.2109 484.3398,204.0391 Q485.2305,204.8516 486.8242,204.8516 Q487.7617,204.8516 488.418,204.6016 Q488.8086,204.4453 489.2305,204.0078 Q489.4961,203.7422 489.6367,203.6641 Q489.793,203.5859 489.9961,203.5859 Q490.3242,203.5859 490.5742,203.8516 Q490.8398,204.1016 490.8398,204.4453 Q490.8398,204.7891 490.4961,205.1953 Q489.9961,205.7734 489.1992,206.1016 Q488.1211,206.5547 486.8242,206.5547 Q485.3086,206.5547 484.1055,205.9297 Q483.1211,205.4297 482.4336,204.3672 Q481.7461,203.2891 481.7461,202.0078 L481.7461,200.8516 Q481.7461,199.5234 482.3555,198.3828 Q482.9805,197.2266 484.0742,196.6172 Q485.168,195.9922 486.4023,195.9922 Q487.1367,195.9922 487.7773,196.1641 Q488.4336,196.3203 488.9805,196.6797 Z " fill="#000000"/><text fill="#000000" font-family="sans-serif" font-size="12" font-style="italic" lengthAdjust="spacing" textLength="94.7109" x="527.8384" y="196.4629">&#171;DomainService&#187;</text><text fill="#000000" font-family="sans-serif" font-size="14" lengthAdjust="spacing" textLength="136.958" x="506.7148" y="214.582">ShowProposalService</text><line style="stroke:#181818;stroke-width:0.5;" x1="341.5" x2="776.3877" y1="223.0957" y2="223.0957"/><text fill="#000000" font-family="sans-serif" font-size="14" lengthAdjust="spacing" textLength="424.8877" x="346.5" y="242.2031">This domain service orchestrates the preparation of a show proposal</text><text fill="#000000" font-family="sans-serif" font-size="14" lengthAdjust="spacing" textLength="369.667" x="346.5" y="260.8242">and manages the proposal&#8217;s acceptance or rejection status.</text><line style="stroke:#181818;stroke-width:0.5;" x1="341.5" x2="776.3877" y1="268.3379" y2="268.3379"/></g><!--class ShowProposalRepository--><g id="elem_ShowProposalRepository"><rect codeLine="49" fill="#F1F1F1" height="48" id="ShowProposalRepository" rx="2.5" ry="2.5" style="stroke:#181818;stroke-width:0.5;" width="189.1924" x="94.5" y="203.5137"/><ellipse cx="109.5" cy="219.5137" fill="#B4A7E5" rx="11" ry="11" style="stroke:#181818;stroke-width:1.0;"/><path d="M110.4531,216.1543 L110.4531,222.8105 L112.1719,222.8105 Q112.7813,222.8105 113.0469,223.0449 Q113.3125,223.2793 113.3125,223.6699 Q113.3125,224.0449 113.0469,224.2793 Q112.7813,224.5137 112.1719,224.5137 L107.0313,224.5137 Q106.4219,224.5137 106.1563,224.2793 Q105.8906,224.0449 105.8906,223.6543 Q105.8906,223.2793 106.1563,223.0449 Q106.4219,222.8105 107.0313,222.8105 L108.75,222.8105 L108.75,216.1543 L107.0313,216.1543 Q106.4219,216.1543 106.1563,215.9199 Q105.8906,215.6855 105.8906,215.2949 Q105.8906,214.9199 106.1563,214.6855 Q106.4219,214.4512 107.0313,214.4512 L112.1719,214.4512 Q112.7813,214.4512 113.0469,214.6855 Q113.3125,214.9199 113.3125,215.2949 Q113.3125,215.6855 113.0469,215.9199 Q112.7813,216.1543 112.1719,216.1543 L110.4531,216.1543 Z " fill="#000000"/><text fill="#000000" font-family="sans-serif" font-size="14" font-style="italic" lengthAdjust="spacing" textLength="157.1924" x="123.5" y="225.3105">ShowProposalRepository</text><line style="stroke:#181818;stroke-width:0.5;" x1="95.5" x2="282.6924" y1="235.5137" y2="235.5137"/><line style="stroke:#181818;stroke-width:0.5;" x1="95.5" x2="282.6924" y1="243.5137" y2="243.5137"/></g><!--link User to Role--><g id="link_User_Role"><path codeLine="54" d="M1179,258.4137 C1179,279.4637 1179,302.4437 1179,330.2037 " fill="none" id="User-to-Role" style="stroke:#181818;stroke-width:1.0;"/><polygon fill="#181818" points="1179,336.2037,1183,327.2037,1179,331.2037,1175,327.2037,1179,336.2037" style="stroke:#181818;stroke-width:1.0;"/><text fill="#000000" font-family="sans-serif" font-size="13" lengthAdjust="spacing" textLength="7.23" x="1171.4191" y="279.5233">1</text><text fill="#000000" font-family="sans-serif" font-size="13" lengthAdjust="spacing" textLength="23.1245" x="1155.056" y="325.3798">1...*</text></g><!--link ShowProposal to ShowProposalStatus--><g id="link_ShowProposal_ShowProposalStatus"><path codeLine="55" d="M424.25,453.3337 C424.25,498.7937 424.25,578.5137 424.25,578.5137 C424.25,578.5137 426.22,578.5137 437.68,578.5137 " fill="none" id="ShowProposal-to-ShowProposalStatus" style="stroke:#181818;stroke-width:1.0;"/><polygon fill="#181818" points="443.68,578.5137,434.68,574.5137,438.68,578.5137,434.68,582.5137,443.68,578.5137" style="stroke:#181818;stroke-width:1.0;"/></g><!--reverse link ShowProposal to ShowProposalID--><g id="link_ShowProposal_ShowProposalID"><path codeLine="56" d="M344.75,465.4137 C344.75,501.9237 344.75,550.3137 344.75,586.7637 " fill="none" id="ShowProposal-backto-ShowProposalID" style="stroke:#181818;stroke-width:1.0;"/><polygon fill="#181818" points="344.75,453.4137,340.75,459.4137,344.75,465.4137,348.75,459.4137,344.75,453.4137" style="stroke:#181818;stroke-width:1.0;"/></g><!--link ShowProposalService to ShowProposal--><g id="link_ShowProposalService_ShowProposal"><path codeLine="57" d="M390,276.7237 C390,312.9337 390,355.0537 390,385.9037 " fill="none" id="ShowProposalService-to-ShowProposal" style="stroke:#181818;stroke-width:1.0;stroke-dasharray:7.0,7.0;"/><polygon fill="#181818" points="390,391.9037,394,382.9037,390,386.9037,386,382.9037,390,391.9037" style="stroke:#181818;stroke-width:1.0;"/></g><!--link ShowProposalRepository to ShowProposal--><g id="link_ShowProposalRepository_ShowProposal"><path codeLine="58" d="M276.75,251.8137 C276.75,304.0937 276.75,422.5137 276.75,422.5137 C276.75,422.5137 272.05,422.5137 274.33,422.5137 " fill="none" id="ShowProposalRepository-to-ShowProposal" style="stroke:#181818;stroke-width:1.0;stroke-dasharray:7.0,7.0;"/><polygon fill="#181818" points="280.33,422.5137,271.33,418.5137,275.33,422.5137,271.33,426.5137,280.33,422.5137" style="stroke:#181818;stroke-width:1.0;"/></g><!--SRC=[bLF1Zjem4BtxAqRPGwNL4gcNgeSjKaZSXGgIo0dR8tA35z9DxCXsMg5gfVx6_bw_f1C742miskM2xNapUU_DZ7aiPSCrhw4gfR2RHe3ITgq8CVj8muj7lXBmXm2CyBpIgfNBK5LAmrNqYGPVFtSHfPT2zw-Z2c7aYP0Fy0L_CCyewqzaLympQxNKIWg_K5huhH6wvX8ZjP3MNwgQbzA3szjWjT9YnQqO3f40AIfk3CmHZJ4gRMatDx37CALiXtiYGhOrC5K91sjhbmqGHBD9V8E7aCqMio0ExYZRNSDaEWr62GlonBrbu-Jx8gBPv2xkGH5BOhh8QJXsAVCiJsQKBHXD6Sred0Vvv9wYQjJzDfLQDCgKLkcDX-nAQOL-u8LmyjW-Tk1ZHmbIbgH95aml6ugtturMM8HNRpSsmwnqctNPu5Fy9CACUrwr8ldnKnHRND-9GrnckMtDYxw48Krp6dN6ClgDXdY-wEGhyj2uNsKXlFEAiZwAduwS3TlxbaE-BWtq_i2s3kv2iHR6QfHkmAu5DDWpN0fRAWdg0JXqH6371AjmkOIUq2wX3_tx-so05uLeB9UkCcZHsTHLCiuIlzFxRicl3T6XyBF3nEWK9pQ9i_4apTmJ8Mwnl8yU30P3_FTz_zfpQqIE9gEBdhRq67Cz6BmO3tAk5xv_N8gSvtsA-my0]--></g></svg>